<svg xmlns="http://www.w3.org/2000/svg" width="16" height="16" viewBox="0 0 16 16"><path d="M3.68,5,6,2.71,8.33,5,9.68,3.69,6,0,2.32,3.69ZM0,6,1.35,4.65,2.71,6,1.35,7.35ZM3.68,7,6,9.3,8.33,7,9.68,8.32,6,12,2.32,8.33ZM9.29,6l1.35-1.35L12,6,10.65,7.35ZM7.38,6,6,4.62,4.63,6,6,7.37Z" style="fill:#f3ba2f"/><rect x="7" y="15.35" width="0.57" height="0.65" style="fill:#f3ba2f"/><path d="M12,14.08A1.71,1.71,0,0,1,10.21,16,1.7,1.7,0,0,1,8.4,14.12v-2.6h.49v2.57a1.28,1.28,0,0,0,1.33,1.46,1.25,1.25,0,0,0,1.31-1.43v-2.6H12v2.56Z" style="fill:#f3ba2f"/><path d="M14.59,13.53c1,.21,1.41.56,1.41,1.23A1.31,1.31,0,0,1,14.52,16a2.55,2.55,0,0,1-1.78-.7l.31-.36a2.07,2.07,0,0,0,1.49.62c.58,0,1-.31,1-.75s-.22-.64-1.13-.83-1.46-.54-1.46-1.26a1.28,1.28,0,0,1,1.43-1.19,2.29,2.29,0,0,1,1.52.54l-.29.37A1.93,1.93,0,0,0,14.33,12c-.56,0-.93.31-.93.71s.23.64,1.19.85Z" style="fill:#f3ba2f"/></svg>