<svg xmlns="http://www.w3.org/2000/svg" viewBox="0 0 16 16"><path d="M5.5 3h6.05a.42.42 0 0 1-.08.22L9.46 6.88h-3.7a3.39 3.39 0 0 1-.2.38l-.26.45c-.1.2-.22.37-.3.56s-.38.67-.57 1l-.58 1a3 3 0 0 0-.22.39l-1.2 2.1a.67.67 0 0 1-.13.21h-2A1 1 0 0 0 0 13a1.08 1.08 0 0 1 .21-.49c.1-.22.24-.4.34-.63Q1.78 9.7 3 7.5c.2-.3.34-.64.53-1l.7-1.23c.07-.17.18-.33.26-.5l.9-1.6A.79.79 0 0 1 5.51 3z" fill="#eb4a60"/><path d="M12.52 5.14l1.2-2.12h2.2L16 3l-.2.34-1.57 2.88-.65 1.16v.05l-3.07 5.53h-6c.1-.24.25-.47.37-.7L6.6 9.1h3.7l2.27-4z" fill="#595fb5"/></svg>