<?xml version="1.0" standalone="no"?>
<!DOCTYPE svg PUBLIC "-//W3C//DTD SVG 1.1//EN" "http://www.w3.org/Graphics/SVG/1.1/DTD/svg11.dtd" >
<svg xmlns="http://www.w3.org/2000/svg">
<metadata>Generated by IcoMoon</metadata>
<defs>
<font id="icon" horiz-adv-x="1024">
<font-face units-per-em="1024" ascent="960" descent="-64" />
<missing-glyph horiz-adv-x="1024" />
<glyph unicode="&#x20;" horiz-adv-x="512" d="" />
<glyph unicode="&#xe900;" glyph-name="bitcoin" d="M1008 448c0-273.934-222.066-496-496-496s-496 222.066-496 496 222.066 496 496 496 496-222.066 496-496zM724.698 518.66c9.874 65.998-40.382 101.478-109.1 125.146l22.292 89.404-54.426 13.562-21.702-87.048c-14.308 3.566-29.004 6.928-43.606 10.26l21.858 87.62-54.396 13.562-22.306-89.372c-11.844 2.698-23.47 5.364-34.754 8.168l0.062 0.28-75.060 18.74-14.478-58.124s40.382-9.254 39.53-9.826c22.044-5.502 26.028-20.088 25.36-31.65l-25.392-101.85c1.52-0.388 3.488-0.946 5.658-1.814-1.814 0.45-3.752 0.946-5.752 1.426l-35.592-142.676c-2.698-6.696-9.534-16.74-24.942-12.928 0.542-0.79-39.56 9.874-39.56 9.874l-27.020-62.294 70.828-17.654c13.176-3.302 26.090-6.758 38.8-10.012l-22.524-90.426 54.364-13.562 22.306 89.466c-0.128-0.559 14.408-4.432 29.005-8.151l14.369-3.103-22.23-89.046 54.426-13.562 22.524 90.256c92.808-17.562 162.598-10.478 191.972 73.454 23.672 67.58-1.178 106.562-50.008 131.982 35.56 8.196 62.348 31.584 69.494 79.898zM600.344 344.302c-16.82-67.58-130.616-31.046-167.51-21.886l29.888 119.798c36.892-9.206 155.2-27.434 137.622-97.912zM617.178 519.636c-15.346-61.472-110.062-30.24-140.786-22.584l27.096 108.654c30.726-7.656 129.672-21.946 113.69-86.070z" />
<glyph unicode="&#xe901;" glyph-name="btc" horiz-adv-x="768" d="M620.408 474.724c55.46 28.36 90.754 78.78 82.56 162.6-10.716 114.702-104.916 153.146-229.7 163.858v158.818h-97.056v-154.406c-25.21 0-51.050-0.63-76.888-1.26v155.666h-97.056v-158.818c-35.684-1.078-77.244-0.552-194.74 0v-103.356c76.628 1.356 116.834 6.28 126.046-42.854v-434.858c-5.85-38.984-37.048-33.37-106.51-32.142l-19.534-115.332c176.962 0 194.74-0.63 194.74-0.63v-136.010h97.056v134.12c26.468-0.63 52.308-0.63 76.888-0.63v-133.49h97.056v136.010c162.598 8.824 271.294 49.788 285.79 202.934 11.342 122.892-46.64 177.724-138.652 199.78zM301.216 690.894c54.83 0 226.252 17.014 226.252-97.056 0-109.030-171.42-96.424-226.252-96.424v193.48zM301.216 187.342v213.016c65.544 0 266.254 18.276 266.254-106.51-0.002-120.372-200.71-106.506-266.254-106.506z" />
<glyph unicode="&#xe902;" glyph-name="dollar" horiz-adv-x="576" d="M418.4 493.2l-216 63.2c-25 7.2-42.4 30.6-42.4 56.6 0 32.6 26.4 59 59 59h132.6c24.4 0 48.4-7.4 68.4-21 12.2-8.2 28.6-6.2 39 4l69.6 68c14.2 13.8 12.2 36.8-3.6 49-49 38.4-110.2 59.8-173 60v96c0 17.6-14.4 32-32 32h-64c-17.6 0-32-14.4-32-32v-96h-5c-127.4 0-229.8-109.4-218-239.2 8.4-92.2 78.8-167.2 167.6-193.2l205-60c25-7.4 42.4-30.6 42.4-56.6 0-32.6-26.4-59-59-59h-132.6c-24.4 0-48.4 7.4-68.4 21-12.2 8.2-28.6 6.2-39-4l-69.6-68c-14.2-13.8-12.2-36.8 3.6-49 49-38.4 110.2-59.8 173-60v-96c0-17.6 14.4-32 32-32h64c17.6 0 32 14.4 32 32v96.4c93.2 1.8 180.6 57.2 211.4 145.4 43 123.2-29.2 249.6-145 283.4z" />
<glyph unicode="&#xe903;" glyph-name="down" d="M890.453 749.588l-355.21-355.21c-5.946-5.953-14.165-9.635-23.242-9.635s-17.296 3.682-23.242 9.635l-355.21 355.21c-5.944 5.941-14.154 9.615-23.222 9.615s-17.278-3.674-23.222-9.615v0l-77.489-77.53c-5.941-5.944-9.615-14.154-9.615-23.222s3.674-17.278 9.615-23.222l479.142-479.184c5.946-5.953 14.165-9.635 23.242-9.635s17.296 3.682 23.242 9.635l479.143 479.184c5.941 5.944 9.615 14.154 9.615 23.222s-3.674 17.278-9.615 23.222l-77.489 77.53c-5.944 5.941-14.154 9.615-23.222 9.615s-17.278-3.674-23.222-9.615v0z" />
<glyph unicode="&#xe904;" glyph-name="eth" horiz-adv-x="640" d="M310.437 950.095c-2.276-5.447-71.047-120.925-152.826-256.619-81.779-135.691-149.369-248.493-150.205-250.67-1.086-2.831 43.342-30.469 155.784-96.909l157.307-92.947 157.262 92.997c112.98 66.813 156.833 94.123 155.736 96.985-5.683 14.811-311.492 517.068-314.827 517.068-2.25 0-5.954-4.456-8.23-9.906zM7.779 375.96c6.062-10.363 311.418-439.998 312.695-439.959 2.11 0.065 314.306 441.234 313.099 442.443-1.139 1.137-292.953-170.732-305.126-179.709l-7.462-5.506-151.089 89.203c-83.1 49.060-154.159 91.182-157.908 93.598-6.215 4.004-6.589 3.999-4.209-0.070z" />
<glyph unicode="&#xe905;" glyph-name="euro" horiz-adv-x="640" d="M621.412 132.47c-2.628 13.26-15.67 21.744-28.848 18.738-21.384-4.878-54.844-10.826-90.852-10.826-113.526 0-203.858 69.58-242.922 170.898h227.378c11.39 0 20.926 7.934 23.385 18.576l0.031 0.162 12.746 56.72c3.372 15.004-8.038 29.262-23.416 29.262h-268.474c-2.42 28.656-2.828 56.574 0.274 84.49h293.186c0 0 0.001 0 0.001 0 11.436 0 21.005 7.999 23.415 18.708l0.030 0.16 13.024 59.51c3.276 14.968-8.122 29.132-23.446 29.132h-276.556c41.266 89.982 125.38 150.060 235.238 150.060 28.972 0 57.128-4.5 75.702-8.29 12.432-2.536 24.694 4.996 28.004 17.246l23.982 88.736c3.644 13.482-4.93 27.232-18.652 29.834-24.208 4.59-63.222 10.414-105.372 10.414-194.368 0-351.21-120.504-409.12-288h-66.15c-13.254 0-24-10.746-24-24v-59.51c0-13.254 10.746-24 24-24h43.138c-2.018-27.214-2.362-58.574-0.362-84.49h-42.776c-13.254 0-24-10.746-24-24v-56.72c0-13.254 10.746-24 24-24h60.228c50.050-180.664 206.3-311.28 415.042-311.28 52.602 0 97.124 9.088 122.202 15.576 12.334 3.19 20.054 15.416 17.576 27.914l-17.636 88.98z" />
<glyph unicode="&#xe906;" glyph-name="volume-off" d="M496.136 925.051c55.64 52.765 166.704 20.886 169.465-77.382v-799.749c0-83.164-97.798-135.951-169.465-77.382l-284.833 246.857h-108.903c-53.071 0-102.4 43.021-102.4 102.4v256c0 54.84 44.887 102.4 102.4 102.4h108.877zM563.201 847.668l-299.268-259.366c-8.146-7.060-20.767-12.509-33.533-12.509h-128.001v-256h128.001c10.778 0 21.241-3.401 29.924-9.655l302.877-262.219zM804.205 586.398l66.196-66.178 66.196 66.178c19.994 19.994 52.412 19.994 72.408 0 18.942-18.942 20.804-51.048 0-72.408l-66.181-66.192 66.181-66.199c19.994-19.994 19.994-52.412 0-72.408-18.942-18.942-50.269-21.568-72.408 0.286l-66.196 65.899-66.196-66.185c-19.994-19.994-52.412-19.994-72.408 0-18.942 18.942-21.001 50.509 0 72.408l66.181 66.199-66.181 66.192c-19.994 19.994-19.994 52.412 0 72.408 18.942 18.942 50.65 21.688 72.408 0z" />
<glyph unicode="&#xe907;" glyph-name="monero" horiz-adv-x="992" d="M704 192h216.8c-86.8-143.8-244.6-240-424.8-240s-338 96.2-424.8 240h216.8v255.6l208-209.6 208 210v-256zM176 288v416l318.8-318.8 321.2 318.8v-416h149.6c17 50.2 26.4 104 26.4 160 0 274-222 496-496 496s-496-222-496-496c0-56 9.2-109.8 26.4-160h149.6z" />
<glyph unicode="&#xe908;" glyph-name="pound" horiz-adv-x="640" d="M616 256h-90.99c-13.254 0-24-10.746-24-24v-101.696h-245.010v253.696h168c13.254 0 24 10.746 24 24v80c0 13.254-10.746 24-24 24h-168v127.112c0 64.532 49.124 114.172 123.584 114.172 47.316 0 91.756-23.010 115.304-37.698 10.302-6.426 23.776-4.102 31.376 5.37l56.986 71.026c8.466 10.552 6.558 26.010-4.238 34.162-32.764 24.736-105.86 69.856-203.15 69.856-163.81 0-279.862-105.484-279.862-251.922v-132.078h-56c-13.254 0-24-10.746-24-24v-80c0-13.254 10.746-24 24-24h56v-256h-72c-13.254 0-24-10.746-24-24v-80c0-13.254 10.746-24 24-24h592c13.254 0 24 10.746 24 24v208c0 13.254-10.746 24-24 24z" />
<glyph unicode="&#xe909;" glyph-name="merge" d="M502 676h-58c-88.224 0-160-71.776-160-160v-60c0-22.092 17.908-40 40-40s40 17.908 40 40v60c0 44.112 35.888 80 80 80h58c22.092 0 40 17.908 40 40s-17.908 40-40 40zM864 676h-124v124c0 88.224-71.776 160-160 160h-420c-88.224 0-160-71.776-160-160v-420c0-88.224 71.776-160 160-160h124v-124c0-88.224 71.776-160 160-160h420c88.224 0 160 71.776 160 160v420c0 88.224-71.776 160-160 160zM944 96c0-44.112-35.888-80-80-80h-420c-44.112 0-80 35.888-80 80v164c0 22.092-17.908 40-40 40h-164c-44.112 0-80 35.888-80 80v420c0 44.112 35.888 80 80 80h420c44.112 0 80-35.888 80-80v-164c0-22.092 17.908-40 40-40h164c44.112 0 80-35.888 80-80v-420zM700 482c-22.092 0-40-17.908-40-40v-62c0-44.112-35.888-80-80-80h-58c-22.092 0-40-17.908-40-40s17.908-40 40-40h58c88.224 0 160 71.776 160 160v62c0 22.092-17.908 40-40 40z" />
<glyph unicode="&#xe90a;" glyph-name="up" d="M133.547 146.412l355.21 355.21c5.946 5.953 14.165 9.635 23.242 9.635s17.296-3.682 23.242-9.635l355.21-355.21c5.944-5.941 14.154-9.615 23.222-9.615s17.278 3.674 23.222 9.615v0l77.489 77.53c5.941 5.944 9.615 14.154 9.615 23.222s-3.674 17.278-9.615 23.222l-479.142 479.184c-5.946 5.953-14.165 9.635-23.242 9.635s-17.296-3.682-23.242-9.635l-479.143-479.184c-5.941-5.944-9.615-14.154-9.615-23.222s3.674-17.278 9.615-23.222l77.489-77.53c5.944-5.941 14.154-9.615 23.222-9.615s17.278 3.674 23.222 9.615v0z" />
<glyph unicode="&#xe90b;" glyph-name="warning" d="M634.709 845.995c-24.762 42.929-70.415 71.36-122.709 71.36s-97.947-28.431-122.346-70.679l-0.363-0.681-371.627-662.101c-11.125-19.248-17.69-42.34-17.69-66.965 0-25.492 7.035-49.342 19.269-69.712l-0.342 0.614c24.588-41.66 69.25-69.167 120.337-69.167 0.399 0 0.798 0.002 1.196 0.005h743.192c0.337-0.003 0.736-0.005 1.135-0.005 51.087 0 95.749 27.508 119.982 68.519l0.354 0.648c11.892 19.757 18.927 43.606 18.927 69.099 0 24.625-6.564 47.717-18.039 67.622l0.349-0.656zM931.456 90.795c-9.714-16.157-27.151-26.8-47.073-26.8-0.266 0-0.531 0.002-0.796 0.006h-743.213c-0.202-0.003-0.442-0.004-0.681-0.004-19.975 0-37.45 10.698-47.010 26.677l-0.138 0.249c-4.533 7.418-7.218 16.395-7.218 25.998 0 9.278 2.506 17.972 6.877 25.44l-0.129-0.238 371.627 662.144c10.492 15.78 28.197 26.039 48.299 26.039s37.807-10.259 48.166-25.826l0.133-0.212 371.627-662.101c4.25-7.235 6.761-15.936 6.761-25.223 0-9.612-2.689-18.596-7.356-26.241l0.126 0.222zM512 661.333c-23.564 0-42.667-19.103-42.667-42.667v0-256c0-23.564 19.103-42.667 42.667-42.667s42.667 19.103 42.667 42.667v0 256c0 23.564-19.103 42.667-42.667 42.667v0zM554.667 192c0-23.564-19.103-42.667-42.667-42.667s-42.667 19.103-42.667 42.667c0 23.564 19.103 42.667 42.667 42.667s42.667-19.103 42.667-42.667z" />
<glyph unicode="&#xe90c;" glyph-name="yen" horiz-adv-x="768" d="M702.416 896h-130.554c0 0 0 0 0 0-9.413 0-17.561-5.42-21.493-13.309l-0.063-0.139-110.78-226.326c-29.026-69.408-54.266-143.864-54.266-143.864h-2.524s-25.24 74.456-54.266 143.864l-110.78 226.326c-3.993 8.028-12.14 13.448-21.552 13.448-0.001 0-0.001 0-0.002 0h-130.552c-18.114 0-29.7-19.3-21.18-35.286l160.24-300.714h-116.644c-13.254 0-24-10.746-24-24v-64c0-13.254 10.746-24 24-24h176.324l39.676-74.456v-53.544h-216c-13.254 0-24-10.746-24-24v-64c0-13.254 10.746-24 24-24h216v-184c0-13.254 10.746-24 24-24h112c13.254 0 24 10.746 24 24v184h216c13.254 0 24 10.746 24 24v64c0 13.254-10.746 24-24 24h-216v53.544l39.676 74.456h176.324c13.254 0 24 10.746 24 24v64c0 13.254-10.746 24-24 24h-116.644l160.24 300.714c8.52 15.986-3.064 35.286-21.18 35.286z" />
<glyph unicode="&#xe90d;" glyph-name="cog" d="M1017.513 525.658c-2.427 15.996-13.458 29.342-28.684 34.742l-80.668 28.684c-4.772 13.516-10.184 26.657-16.184 39.367l36.711 77.254c6.929 14.568 5.283 31.799-4.284 44.826-30.941 42.082-67.91 79.052-109.88 109.851-13.040 9.573-30.212 11.201-44.809 4.255l-77.207-36.681c-12.711 6-25.869 11.401-39.396 16.173l-28.696 80.68c-5.401 15.197-18.711 26.198-34.671 28.655-56.709 8.715-98.68 8.715-155.477 0-15.943-2.456-29.272-13.458-34.671-28.655l-28.696-80.68c-13.528-4.772-26.686-10.173-39.385-16.173l-77.236 36.681c-14.568 6.94-31.769 5.313-44.797-4.255-41.97-30.8-78.94-67.769-109.88-109.851-9.573-13.029-11.213-30.253-4.284-44.826l36.711-77.254c-6-12.688-11.401-25.857-16.184-39.367l-80.68-28.713c-15.215-5.401-26.228-18.741-28.672-34.713-4.402-28.913-6.458-53.565-6.458-77.683 0-24.083 2.057-48.77 6.458-77.683 2.427-15.996 13.458-29.342 28.684-34.742l80.668-28.684c4.784-13.54 10.202-26.686 16.184-39.396l-36.711-77.224c-6.929-14.568-5.283-31.799 4.272-44.797 30.9-42.053 67.869-79.023 109.892-109.88 13.029-9.573 30.23-11.23 44.809-4.255l77.207 36.681c12.711-6 25.869-11.401 39.396-16.173l28.696-80.68c5.401-15.197 18.711-26.198 34.671-28.655 28.373-4.372 53.794-6.488 77.736-6.488s49.369 2.116 77.736 6.488c15.955 2.456 29.272 13.458 34.671 28.655l28.696 80.68c13.528 4.772 26.686 10.173 39.396 16.173l77.207-36.681c14.598-6.97 31.799-5.313 44.826 4.255 42.070 30.911 79.040 67.881 109.88 109.88 9.555 12.999 11.201 30.23 4.272 44.797l-36.711 77.224c6 12.711 11.413 25.887 16.184 39.396l80.668 28.684c15.226 5.401 26.257 18.741 28.684 34.742 4.402 28.913 6.458 53.594 6.458 77.683s-2.051 48.775-6.453 77.683zM934.090 409.243l-75.679-26.915c-13.228-4.684-23.401-15.426-27.385-28.913-6.758-22.854-15.655-44.48-26.469-64.308-6.711-12.341-7.128-27.144-1.099-39.825l34.325-72.194c-16.584-19.916-34.924-38.286-54.87-54.852l-72.182 34.284c-12.7 6.088-27.456 5.6-39.814-1.087-19.857-10.801-41.494-19.687-64.366-26.457-13.458-3.973-24.2-14.139-28.896-27.368l-26.927-75.708c-27.485-2.797-49.968-2.797-77.454 0l-26.927 75.708c-4.701 13.199-15.444 23.401-28.896 27.368-22.884 6.77-44.538 15.655-64.366 26.457-12.359 6.741-27.144 7.17-39.814 1.087l-72.182-34.313c-19.928 16.602-38.268 34.942-54.87 54.881l34.325 72.194c6.029 12.688 5.612 27.485-1.099 39.825-10.784 19.769-19.687 41.424-26.469 64.337-3.984 13.458-14.169 24.2-27.385 28.884l-75.679 26.915c-1.428 13.769-2.116 26.457-2.116 38.738s0.688 24.941 2.116 38.709l75.697 26.939c13.211 4.684 23.383 15.426 27.368 28.884 6.77 22.854 15.673 44.509 26.469 64.366 6.711 12.312 7.128 27.144 1.099 39.796l-34.325 72.194c16.613 19.94 34.954 38.309 54.87 54.881l72.212-34.313c12.641-6.088 27.485-5.6 39.814 1.087 19.816 10.801 41.453 19.687 64.337 26.457 13.458 3.973 24.2 14.169 28.896 27.368l26.927 75.708c27.227 2.827 49.751 2.827 77.454 0l26.927-75.708c4.701-13.199 15.444-23.401 28.896-27.368 22.884-6.77 44.538-15.655 64.366-26.457 12.359-6.741 27.115-7.17 39.814-1.087l72.182 34.313c19.916-16.572 38.256-34.942 54.87-54.881l-34.325-72.194c-6.029-12.658-5.612-27.485 1.099-39.796 10.831-19.916 19.728-41.541 26.469-64.337 3.984-13.487 14.157-24.23 27.385-28.913l75.679-26.915c1.428-13.769 2.116-26.457 2.116-38.738s-0.688-24.964-2.116-38.732zM512.003 661.455c-112.019 0-203.16-91.135-203.16-203.16s91.135-203.16 203.16-203.16 203.16 91.135 203.16 203.16-91.14 203.16-203.16 203.16zM512.003 342.903c-63.626 0-115.393 51.767-115.393 115.393s51.767 115.393 115.393 115.393 115.393-51.767 115.393-115.393-51.767-115.393-115.393-115.393z" />
<glyph unicode="&#xe90e;" glyph-name="check" d="M1005.195 810.767c23.125-20.235 25.222-55.484 4.652-78.314l-578.986-642.638c-20.678-22.944-56.173-24.405-78.66-3.236l-335.040 315.41c-20.896 19.672-22.89 52.446-4.964 74.855 19.784 24.724 56.62 28.128 80.155 6.953l259.945-233.812c22.593-20.319 57.374-18.506 77.723 4.062l498.013 552.168c20.153 22.343 54.516 24.37 77.164 4.553z" />
<glyph unicode="&#xe90f;" glyph-name="coin" d="M867.88 791.080c-95.56 57.34-221.88 88.92-355.88 88.92s-260.32-31.58-355.88-88.92c-100.68-60.4-156.12-142.46-156.12-231.080v-224c0-88.62 55.44-170.68 156.12-231.080 95.56-57.34 221.88-88.92 355.88-88.92s260.32 31.58 355.88 88.92c100.68 60.4 156.12 142.46 156.12 231.080v224c0 88.62-55.44 170.68-156.12 231.080zM189.060 736.2c85.76 51.46 200.44 79.8 322.94 79.8s237.2-28.34 322.94-79.8c80.64-48.38 125.060-110.96 125.060-176.2s-44.4-127.82-125.060-176.2c-85.74-51.46-200.44-79.8-322.94-79.8s-237.18 28.34-322.94 79.8c-80.64 48.38-125.060 110.96-125.060 176.2s44.42 127.82 125.060 176.2zM768 282.2v-155.56c-36.672-15.178-79.668-27.649-124.291-35.369l-3.708-0.531v159.26c48.532 7.646 91.632 18.885 132.949 33.845l-4.949-1.566zM384 250v-159.18c-48.333 8.251-91.328 20.722-132.157 37.403l4.157-1.503v155.48c36.38-13.383 79.483-24.595 123.965-31.671l4.035-0.529zM64 336v67.52c24.28-27.28 55.14-52.42 92.12-74.6q17.28-10.38 35.88-19.6v-151.32l-2.94 1.74c-80.64 48.44-125.060 111.020-125.060 176.26zM448 82.64v159.8q31.62-2.4 64-2.44t64 2.44v-159.8q-31.52-2.64-64-2.64t-64 2.64zM960 336c0-65.24-44.4-127.82-125.060-176.2-0.96-0.6-2-1.16-2.94-1.74v151.26q18.56 9.24 35.88 19.6c36.98 22.18 67.84 47.32 92.12 74.62v-67.54z" />
<glyph unicode="&#xe910;" glyph-name="flash" d="M833.524 466.751c-4.688 14.146-16.546 24.72-31.139 27.776l-200.841 42.035 60.589 374.893c3 18.582-6.766 36.887-23.884 44.727-17.132 7.854-37.361 3.32-49.471-11.104l-390.629-464.57c-8.886-10.574-11.984-24.874-8.272-38.185 3.71-13.31 13.77-23.94 26.856-28.376l194.798-66.113-78.557-361.096c-4.046-18.624 4.994-37.627 22-46.233 6.012-3.042 12.486-4.506 18.89-4.506 11.718 0 23.242 4.924 31.391 14.16l419.927 475.704c9.86 11.174 13.042 26.742 8.34 40.889zM448.978 126.192l52.303 240.377c4.534 20.814-7.282 41.699-27.442 48.535l-172.197 58.441 253.699 301.692-42.789-264.75c-3.572-22.070 10.854-43.053 32.743-47.643l169.547-35.477-265.864-301.176z" />
<glyph unicode="&#xe911;" glyph-name="volume-medium" d="M505.48 934.33c54.7 51.59 169.060 25.49 172.66-78.84v-814.82c0-81.29-96.3-141.12-172.66-78.84l-290.2 251.51h-110.95c-54.070 0-104.33 43.89-104.33 104.33v260.82c0 55.87 45 104.33 104.33 104.33h110.93zM573.81 855.49l-304.91-264.26c-9.168-7.781-21.089-12.57-34.124-12.74h-130.446v-260.82h130.41c11.449-0.003 22.037-3.692 30.64-9.944l-0.15 0.104 308.58-267.16zM897.91 637.71c28.937-46.544 46.090-103.028 46.090-163.518 0-74.706-26.163-143.302-69.827-197.124l0.457 0.582c-9.64-11.87-24.234-19.393-40.585-19.393-28.809 0-52.163 23.354-52.163 52.163 0 12.458 4.367 23.896 11.654 32.866l-0.076-0.096c28.782 35.493 46.21 81.213 46.21 131.004 0 40.294-11.414 77.923-31.185 109.829l0.515-0.893c-4.839 7.765-7.708 17.193-7.708 27.29 0 28.809 23.354 52.163 52.163 52.163 18.711 0 35.122-9.852 44.327-24.652l0.128-0.221z" />
<glyph unicode="&#xe912;" glyph-name="info" d="M512 960c-282.317 0-512-229.686-512-512.003s229.683-511.997 512-511.997 512 229.68 512 511.997c0 282.317-229.683 512.003-512 512.003zM512 29.091c-230.99 0-418.909 187.92-418.909 418.906s187.92 418.912 418.909 418.912 418.909-187.926 418.909-418.912c0-230.986-187.923-418.906-418.909-418.906zM511.994 742.788c-34.214 0-62.048-27.853-62.048-62.089 0-34.205 27.834-62.033 62.048-62.033s62.048 27.828 62.048 62.033c0 34.236-27.834 62.089-62.048 62.089zM512 525.576c-25.706 0-46.545-20.84-46.545-46.545v-279.273c0-25.706 20.84-46.545 46.545-46.545s46.545 20.84 46.545 46.545v279.273c0 25.706-20.84 46.545-46.545 46.545z" />
<glyph unicode="&#xe913;" glyph-name="resize" d="M131.62 960h223.753c29.077 0 52.648-23.571 52.648-52.648s-23.571-52.648-52.648-52.648v0h-175.62l319.835-319.835c30.907 19.011 68.346 30.273 108.416 30.273 0.027 0 0.055 0 0.082 0h207.954c116.115 0 210.591-94.477 210.591-210.591v-207.959c0-116.115-94.477-210.591-210.591-210.591h-207.959c-116.115 0-210.591 94.477-210.591 210.591v207.959c0 0.045 0 0.098 0 0.152 0 38.7 10.505 74.947 28.818 106.044l-0.533-0.979-320.48 320.48v-175.62c0-29.077-23.571-52.648-52.648-52.648s-52.648 23.571-52.648 52.648v0 223.753c0.082 72.658 58.961 131.537 131.612 131.62h0.008zM502.787 146.591c0.067-58.126 47.169-105.228 105.289-105.296h207.965c58.126 0.067 105.228 47.169 105.296 105.289v207.966c-0.067 58.126-47.169 105.228-105.289 105.296h-207.965c-58.126-0.067-105.228-47.169-105.296-105.289v-0.007z" />
<glyph unicode="&#xe914;" glyph-name="download" d="M474.547 163.377c9.585-9.586 22.827-15.514 37.453-15.514s27.869 5.929 37.453 15.514l199.744 199.744c9.585 9.585 15.513 22.826 15.513 37.452s-5.929 27.868-15.513 37.452v0c-9.585 9.585-22.826 15.513-37.452 15.513s-27.868-5.929-37.452-15.513l-109.327-109.327v578.337c0 29.252-23.713 52.966-52.966 52.966s-52.966-23.713-52.966-52.966v0-578.337l-109.327 109.327c-9.585 9.585-22.826 15.513-37.452 15.513s-27.868-5.929-37.452-15.513v0c-9.585-9.585-15.513-22.826-15.513-37.452s5.929-27.868 15.513-37.452v0zM971.034 500.966c-29.252 0-52.966-23.713-52.966-52.966v0-406.069h-812.138v406.069c0 29.252-23.713 52.966-52.966 52.966s-52.966-23.713-52.966-52.966v0-423.724c0-48.754 39.522-88.276 88.276-88.276v0h847.448c48.754 0 88.276 39.522 88.276 88.276v0 423.724c0 29.252-23.713 52.966-52.966 52.966v0z" />
<glyph unicode="&#xe915;" glyph-name="external-link-square-alt" d="M972.799 959.999h-307.199c-28.277 0-51.2-22.924-51.2-51.2s22.924-51.2 51.2-51.2v0h183.603l-424.601-424.601c-9.643-9.323-15.631-22.376-15.631-36.828 0-28.277 22.924-51.2 51.2-51.2 14.452 0 27.504 5.987 36.814 15.617l424.616 424.616v-183.603c0-28.277 22.924-51.2 51.2-51.2s51.2 22.924 51.2 51.2v0 307.199c0 28.277-22.924 51.2-51.2 51.2v0zM870.4 520.294c-28.277 0-51.2-22.924-51.2-51.2v0-366.744c-0.029-35.306-28.643-63.919-63.945-63.949h-588.904c-35.306 0.029-63.919 28.643-63.949 63.945v588.904c0.029 35.306 28.643 63.919 63.945 63.949h318.568c28.277 0 51.2 22.924 51.2 51.2s-22.924 51.2-51.2 51.2v0h-318.566c-91.825-0.116-166.232-74.523-166.348-166.338v-588.81c0.059-91.869 74.487-166.334 166.338-166.45h588.81c91.869 0.059 166.334 74.487 166.45 166.338v366.755c0 28.277-22.924 51.2-51.2 51.2v0z" />
<glyph unicode="&#xe916;" glyph-name="minus-1" d="M1023.999 448c0-35.347-28.653-64-64-64h-895.999c-35.346 0-64 28.653-64 64s28.654 64 64 64h895.999c35.347 0 64-28.653 64-64z" />
<glyph unicode="&#xe917;" glyph-name="upload" d="M349.707 669.836l109.327 109.327v-578.336c0-29.252 23.713-52.965 52.965-52.965s52.965 23.713 52.965 52.965v0 578.336l109.327-109.327c9.594-9.645 22.878-15.615 37.554-15.615 29.252 0 52.965 23.713 52.965 52.965 0 14.677-5.97 27.959-15.613 37.551l-199.746 199.748c-9.585 9.586-22.827 15.514-37.453 15.514s-27.869-5.929-37.453-15.514l-199.744-199.746c-9.645-9.594-15.615-22.878-15.615-37.554 0-29.252 23.713-52.965 52.965-52.965 14.677 0 27.959 5.97 37.551 15.613l0.002 0.002zM971.033 500.964c-29.252 0-52.965-23.713-52.965-52.965v0-406.068h-812.136v406.068c0 29.252-23.713 52.965-52.965 52.965s-52.965-23.713-52.965-52.965v0-423.723c0-48.754 39.522-88.276 88.276-88.276v0h847.446c48.754 0 88.276 39.522 88.276 88.276v0 423.723c0 29.252-23.713 52.965-52.965 52.965v0z" />
<glyph unicode="&#xe918;" glyph-name="cross" d="M82.058 104.858c-23.992-23.996-23.987-62.878 0.009-86.87s62.88-23.992 86.871 0.008l343.075 343.134 343.093-343.093c23.992-23.992 62.878-23.992 86.87 0s23.992 62.878 0 86.87l-343.101 343.101 343.086 343.142c23.984 23.996 23.984 62.88-0.017 86.871-23.992 23.992-62.878 23.987-86.87-0.009l-343.078-343.14-343.095 343.101c-23.993 23.993-62.876 23.993-86.871 0s-23.995-62.876 0-86.871l343.112-343.107z" />
<glyph unicode="&#xe919;" glyph-name="flip" d="M307.2-12.8c-28.277 0-51.2 22.924-51.2 51.2v0 870.399c0 28.277 22.924 51.2 51.2 51.2s51.2-22.924 51.2-51.2v0-870.399c0-28.277-22.924-51.2-51.2-51.2v0zM307.2-64c-14.137 0.004-26.935 5.736-36.198 15.001l-153.6 153.6c-8.892 9.198-14.372 21.744-14.372 35.569 0 28.277 22.924 51.2 51.2 51.2 13.825 0 26.371-5.48 35.584-14.387l117.388-117.388 117.402 117.402c9.198 8.892 21.744 14.372 35.569 14.372 28.277 0 51.2-22.924 51.2-51.2 0-13.825-5.48-26.371-14.387-35.584l-153.585-153.585c-9.263-9.266-22.061-14.999-36.198-15.001h-0.001zM716.8-64c-28.277 0-51.2 22.924-51.2 51.2v0 870.399c0 28.277 22.924 51.2 51.2 51.2s51.2-22.924 51.2-51.2v0-870.399c0-28.277-22.924-51.2-51.2-51.2v0zM870.4 703.999c-14.137 0.004-26.935 5.736-36.198 15.001l-117.402 117.402-117.402-117.402c-9.198-8.892-21.744-14.372-35.569-14.372-28.277 0-51.2 22.924-51.2 51.2 0 13.825 5.48 26.371 14.387 35.584l153.585 153.585c9.265 9.262 22.063 14.99 36.198 14.99s26.934-5.729 36.198-14.99l153.6-153.6c9.262-9.265 14.99-22.063 14.99-36.198 0-28.273-22.916-51.193-51.188-51.2h-0.001z" />
<glyph unicode="&#xe91a;" glyph-name="switch" d="M512 140.801c-287.078 0-511.999 134.963-511.999 307.199 0 92.979 66.56 179.199 182.118 236.39 6.541 3.254 14.246 5.158 22.396 5.158 28.277 0 51.2-22.924 51.2-51.2 0-19.903-11.357-37.153-27.943-45.625l-0.289-0.134c-79.463-39.322-125.082-92.058-125.082-144.589 0-96.87 168.243-204.8 409.599-204.8 1.13-0.007 2.467-0.011 3.804-0.011 44.969 0 88.931 4.308 131.497 12.535l-4.332-0.697c3.374 0.792 7.249 1.247 11.23 1.247 28.277 0 51.2-22.924 51.2-51.2 0-25.298-18.349-46.313-42.464-50.458l-0.304-0.043c-44.062-8.767-94.717-13.783-146.545-13.783-1.436 0-2.873 0.004-4.308 0.012l0.222-0.001zM563.2 38.401c-28.272 0.006-51.19 22.927-51.19 51.2 0 14.136 5.729 26.934 14.99 36.198l66.201 66.201-66.201 66.201c-8.892 9.198-14.372 21.744-14.372 35.569 0 28.277 22.924 51.2 51.2 51.2 13.825 0 26.371-5.48 35.584-14.387l102.385-102.385c9.262-9.265 14.99-22.063 14.99-36.198s-5.729-26.934-14.99-36.198l-102.399-102.399c-9.263-9.266-22.061-14.999-36.198-15.001h-0.001zM819.199 206.336c-0.125-0.001-0.271-0.001-0.419-0.001-28.277 0-51.2 22.924-51.2 51.2 0 20.159 11.651 37.597 28.586 45.948l0.3 0.133c79.513 39.116 125.132 91.853 125.132 144.384 0 96.87-168.243 204.8-409.599 204.8-0.874 0.004-1.907 0.006-2.94 0.006-32.563 0-64.604-2.236-95.978-6.56l3.636 0.41c-1.77-0.217-3.818-0.341-5.897-0.341-28.277 0-51.2 22.924-51.2 51.2 0 25.333 18.398 46.368 42.562 50.474l0.302 0.042c31.914 4.567 68.771 7.175 106.237 7.175 1.153 0 2.305-0.002 3.457-0.007h-0.178c287.078 0 511.999-134.963 511.999-307.199 0-92.979-66.56-179.199-182.118-236.39-6.602-3.326-14.389-5.274-22.632-5.274-0.018 0-0.035 0-0.053 0h0.002zM460.8 550.399c-14.137 0.004-26.935 5.736-36.198 15.001l-102.399 102.399c-9.262 9.265-14.99 22.063-14.99 36.198s5.729 26.934 14.99 36.198l102.399 102.399c9.323 9.643 22.376 15.631 36.828 15.631 28.277 0 51.2-22.924 51.2-51.2 0-14.452-5.987-27.504-15.617-36.814l-66.216-66.216 66.201-66.201c9.262-9.265 14.99-22.063 14.99-36.198 0-28.273-22.916-51.193-51.188-51.2h-0.001z" />
<glyph unicode="&#xe91b;" glyph-name="KRAKEN" d="M476.593 851.303c9.134 0.579 19.807 0.908 30.557 0.908 221.507 0 410.321-139.971 482.82-336.29l1.153-3.565c19.689-50.535 31.423-109.008 32.155-170.129l0.003-0.31v-215.46c0.456-3.955 0.718-8.54 0.718-13.185s-0.26-9.228-0.768-13.739l0.050 0.554c-5.129-22.28-20.146-40.257-40.072-49.342l-0.447-0.182c-9.074-4.279-19.709-6.776-30.927-6.776-39.839 0-72.322 31.498-73.904 70.949l-0.005 0.144v201.31c0.55 3.906 0.863 8.419 0.863 13.006 0 15.627-3.643 30.403-10.125 43.525l0.257-0.576c-13.098 21.948-36.723 36.42-63.726 36.42-39.86 0-72.355-31.53-73.906-71.010l-0.004-0.141v-203.24c0.924-5.703 1.451-12.276 1.451-18.973s-0.528-13.27-1.544-19.682l0.092 0.708c-7.231-24.285-26.277-42.907-50.305-49.407l-0.504-0.117c-5.829-1.666-12.523-2.624-19.441-2.624-27.017 0-50.621 14.612-63.34 36.365l-0.188 0.347c-6.643 12.995-10.536 28.345-10.536 44.605 0 4.683 0.323 9.291 0.948 13.801l-0.059-0.522v201.953c-1.466 39.338-33.71 70.673-73.272 70.673-19.76 0-37.695-7.817-50.88-20.527l0.022 0.021c-13.888-13.558-22.504-32.464-22.511-53.382v-192.95c0.453-3.985 0.713-8.602 0.713-13.28 0-12.695-1.905-24.946-5.447-36.479l0.232 0.879c-10.127-28.33-36.734-48.237-67.99-48.237-0.065 0-0.131 0-0.195 0h0.010c-0.492-0.012-1.072-0.019-1.653-0.019-31.381 0-58.118 19.89-68.29 47.751l-0.161 0.504c-2.762 9.948-4.348 21.371-4.348 33.164 0 3.947 0.178 7.854 0.526 11.712l-0.036-0.497v199.381c-1.147 34.634-25.936 63.162-58.69 70.020l-0.481 0.084c-4.287 0.89-9.214 1.4-14.26 1.4-27.042 0-50.665-14.64-63.376-36.426l-0.188-0.348c-6.172-10.526-9.95-23.117-10.289-36.563l-0.002-0.097v-220.605c0.003-0.23 0.004-0.502 0.004-0.775 0-22.102-9.954-41.878-25.623-55.092l-0.108-0.088c-12.405-9.943-28.332-15.956-45.665-15.956s-33.26 6.014-45.809 16.068l0.145-0.113c-18.349 12.549-30.235 33.378-30.235 56.984 0 0.317 0.002 0.632 0.006 0.948l-0.001-0.048v221.248c-0.006 0.918-0.009 2.003-0.009 3.088 0 159.413 72.497 301.895 186.318 396.273l0.852 0.686c79.026 63.74 178.89 104.599 288 111.198l1.424 0.069z" />
<glyph unicode="&#xe91c;" glyph-name="OKEX" d="M1017.173 503.040v0c-20.949 84.475-86.191 149.717-169.073 170.331l-1.594 0.336c-16.533 4.069-35.514 6.402-55.040 6.402s-38.507-2.334-56.679-6.738l1.639 0.336c4.069 16.533 6.402 35.514 6.402 55.040s-2.334 38.507-6.738 56.679l0.336-1.639c-20.949 84.475-86.191 149.717-169.073 170.331l-1.594 0.336c-16.525 4.271-35.496 6.722-55.040 6.722s-38.515-2.452-56.623-7.064l1.583 0.342c-102.483-25.201-177.307-116.299-177.307-224.873 0-19.532 2.422-38.499 6.981-56.616l-0.34 1.596c-16.533 4.069-35.514 6.402-55.040 6.402s-38.507-2.334-56.679-6.738l1.639 0.336c-102.333-25.945-176.838-117.232-176.838-225.92 0-128.534 104.197-232.731 232.731-232.731 19.846 0 39.111 2.484 57.503 7.158l-1.61-0.347c-2.885-13.73-4.538-29.508-4.538-45.671 0-128.189 103.918-232.107 232.107-232.107 105.242 0 194.124 70.043 222.573 166.055l0.417 1.642c4.069 16.533 6.402 35.514 6.402 55.040s-2.334 38.507-6.738 56.679l0.336-1.639c16.428-4.163 35.288-6.551 54.706-6.551 108.624 0 199.788 74.755 224.853 175.624l0.335 1.594c4.237 16.462 6.669 35.36 6.669 54.827s-2.432 38.365-7.009 56.408l0.34-1.581zM286.72 222.72c21.128 84.378 86.288 149.538 169.063 170.326l1.604 0.341c-21.217-84.33-86.336-149.449-169.058-170.323l-1.609-0.344zM286.72 673.28c84.33-21.217 149.449-86.336 170.323-169.058l0.344-1.609c-84.378 21.128-149.538 86.288-170.326 169.063l-0.341 1.604zM567.040 502.613c-4.167-16.53-6.558-35.506-6.558-55.040s2.391-38.51 6.897-56.651l-0.339 1.611c-16.525 4.271-35.496 6.722-55.040 6.722s-38.515-2.452-56.623-7.064l1.583 0.342c4.271 16.525 6.722 35.496 6.722 55.040s-2.452 38.515-7.064 56.623l0.342-1.583c16.53-4.167 35.506-6.558 55.040-6.558s38.51 2.391 56.651 6.897l-1.611-0.339zM737.707 222.293c-84.33 21.217-149.449 86.336-170.323 169.058l-0.344 1.609c84.102-21.196 149.043-86.138 169.896-168.634l0.344-1.606zM567.040 502.613v0c21.217 84.33 86.336 149.449 169.058 170.323l1.609 0.344c-21.267-84.202-86.388-149.182-169.064-169.9l-1.603-0.34z" />
<glyph unicode="&#xe91d;" glyph-name="down-thin" d="M128.276 588.985c-18.735 18.734-18.735 49.102 0 67.833s49.102 18.735 67.833 0l281.975-281.975c18.733-18.733 49.102-18.733 67.832 0l281.975 281.975c18.733 18.735 49.102 18.735 67.832 0s18.733-49.102 0-67.833l-349.811-349.811c-18.733-18.733-49.102-18.733-67.832 0z" />
<glyph unicode="&#xe91e;" glyph-name="skull" d="M847.886 121.345c-18.422 0-39.932-8.898-64.497-26.62l-136.217 50.168 138.241 50.207c23.223-15.041 44.713-22.566 64.536-22.566 21.815 0 36.16 11.285 43.007 33.785 1.358 4.778 2.039 9.942 2.039 15.401 0 28.616-18.438 44.017-55.302 46.036 14.995 15.018 22.546 29.738 22.546 44.071 0 14.975-7.888 27.657-23.568 37.901-8.194 4.058-16.732 6.128-25.591 6.128-30.055 0-50.539-24.21-61.461-72.718l-239.625-89.129-239.621 87.059c-10.921 49.847-31.432 74.788-61.453 74.788-8.871 0-17.413-2.070-25.61-6.128-14.995-10.24-22.515-22.925-22.515-37.901 0-14.333 7.521-29.053 22.515-44.071-37.529-2.019-56.308-17.42-56.308-46.040 0-5.455 0.692-10.623 2.035-15.397 7.528-22.5 21.861-33.785 43.027-33.785 19.78 0 41.282 7.524 64.517 22.562l139.262-50.203-137.243-49.124c-23.889 17.045-45.019 25.575-63.453 25.575-21.873 0-37.228-11.289-46.11-33.785-1.346-4.778-2.035-9.877-2.035-15.378 0-28.647 18.774-44.044 56.308-46.063-14.995-15.022-22.515-29.742-22.515-44.075 0-14.968 7.521-27.599 22.515-37.901 9.583-5.462 18.778-8.143 27.672-8.143 27.958 0 48.137 23.892 60.424 71.666l238.588 87.059 238.608-87.059c12.294-47.777 32.786-71.666 61.441-71.666 8.205 0 17.049 2.681 26.631 8.143 15.676 10.302 23.568 22.933 23.568 37.901 0 14.333-7.555 29.053-22.546 44.075 36.86 2.019 55.302 17.416 55.302 46.063 0 5.501-0.685 10.596-2.039 15.378-8.201 22.5-23.219 33.785-45.073 33.785zM187.38 461.322c37.537-42.996 90.444-74.44 158.748-94.185v-15.42c0-19.095 6.468-35.15 19.44-48.098 12.96-12.991 29.007-20.159 48.129-21.521 19.792-1.381 34.45 2.043 44.017 10.236 15.006-10.898 31.738-16.36 50.191-16.36 17.061 0 32.783 5.091 47.1 15.331 9.559-7.482 23.548-10.592 41.998-9.211 19.099 2.043 35.162 9.385 48.125 22.008 12.96 12.693 19.44 28.515 19.44 47.611v11.258c73.724 19.13 130.739 51.209 171.031 96.32 38.914 42.976 58.366 93.825 58.366 152.558 0 12.995-1.373 26.639-4.112 40.996-13.637 87.318-53.921 159.39-120.813 216.038-70.323 60.725-156.005 91.117-257.042 91.117-101.060 0-186.737-30.047-257.030-90.069-66.915-57.395-106.843-129.765-119.811-217.083-2.743-14.356-4.116-28.001-4.116-40.996 0-57.348 18.767-107.489 56.338-150.531v0zM591.374 724.986c20.14 23.54 44.543 35.32 73.202 35.32 29.37 0 54.106-11.78 74.254-35.32 20.117-23.506 30.214-52.017 30.214-85.446 0-33.46-10.093-61.979-30.214-85.527-20.148-23.587-44.887-35.32-74.254-35.32-28.659 0-53.062 11.733-73.202 35.32-20.159 23.548-30.229 52.068-30.229 85.527-0.004 33.429 10.070 61.94 30.229 85.446zM482.821 490.243c9.888 12.793 19.594 19.219 29.177 19.219 9.555 0 18.577-7.083 27.127-21.312 8.53-14.167 12.832-27.641 12.832-40.5 0-19.583-13.002-29.328-38.945-29.328-17.076 0-29.699 4.395-37.881 13.138-4.785 5.459-7.153 12.174-7.153 20.306 0.004 12.801 4.94 25.618 14.844 38.477zM276.47 724.986c20.484 23.54 45.069 35.32 73.732 35.32 28.651 0 53.24-11.78 73.736-35.32 20.488-23.506 30.748-52.017 30.748-85.446 0-33.46-10.256-61.979-30.748-85.527-20.492-23.587-45.085-35.32-73.736-35.32-28.662 0-53.247 11.733-73.732 35.32-20.473 23.548-30.732 52.068-30.732 85.527 0 33.429 10.26 61.94 30.732 85.446z" />
<glyph unicode="&#xe91f;" glyph-name="edit" d="M910.2 684.2l-64.8-64.8-162 162.2 64.8 64.8c13.2 13.2 36.2 13.2 49.4 0l112.6-112.8c13.6-13.6 13.6-35.8 0-49.4zM368.8 142.2l-162 162.2 418.8 419.4 162-162.2-418.8-419.4zM169.4 226.2l121.2-121.4-168.8-47.6 47.6 169zM968 791.4l-112.6 112.8c-22 22-101.4 63.6-164.8 0l-570.6-571c-5-5-8.6-11-10.4-17.8l-86-306.2c-4-14.2 0.2-29.4 10.4-40 10.4-10.6 31.2-12.4 40-10.4l306 86.2c6.8 1.8 12.8 5.4 17.8 10.4l570.2 571c45.4 45.4 45.4 119.4 0 165z" />
<glyph unicode="&#xe920;" glyph-name="plus" d="M568.89 903.109c0 31.42-25.47 56.89-56.89 56.89s-56.89-25.471-56.89-56.89v-398.219h-398.219c-31.42 0-56.89-25.47-56.89-56.89s25.471-56.89 56.89-56.89h398.219v-398.219c0-31.421 25.47-56.89 56.89-56.89s56.89 25.47 56.89 56.89v398.219h398.219c31.421 0 56.89 25.47 56.89 56.89s-25.47 56.89-56.89 56.89h-398.219z" />
<glyph unicode="&#xe921;" glyph-name="POLONIEX" d="M16 960h300.8l348.8-512-165.12-39.68-144 39.68zM704 960h300.8l-272-412.8-153.6 225.28zM451.84 960h115.2l-55.040-86.4zM723.2-64h300.8l-289.92 417.92-154.88-215.68zM433.92-64h150.4l-72.32 106.24zM0-64h296.96l368 512h-308.48z" />
<glyph unicode="&#xe922;" glyph-name="visible" d="M1003.259 515.601c-102.426 151.59-286.792 242.749-491.643 242.749s-389.217-92.183-491.643-242.749c-26.631-37.897-26.631-92.183 0-135.202 97.304-145.444 286.792-242.749 491.643-242.749s389.217 92.183 491.643 242.749c27.655 43.019 27.655 97.304 0 135.202zM912.1 444.927c-80.916-118.814-232.506-194.609-400.484-194.609s-318.544 75.795-400.484 194.609c0 5.121 0 11.267 0 16.388 81.94 113.692 232.506 189.487 400.484 189.487s318.544-75.795 400.484-194.609c5.121 0 5.121-11.267 0-11.267zM511.616 607.784c-86.038 0-156.711-70.674-156.711-156.711s70.674-156.711 156.711-156.711 156.711 70.674 156.711 156.711-70.674 156.711-156.711 156.711zM511.616 401.908c-26.631 0-48.14 21.509-48.14 48.14s21.509 49.164 48.14 49.164 48.14-21.509 48.14-48.14-21.509-49.164-48.14-49.164z" />
<glyph unicode="&#xe923;" glyph-name="hidden" d="M1003.52 523.776c-21.504 32.768-54.272 64.512-86.016 97.28l-75.776-75.776c26.624-21.504 48.128-48.128 70.656-80.896v-16.384c-70.656-108.544-205.824-178.176-352.256-189.44l-107.52-107.52c21.504 0 37.888-5.12 59.392-5.12 205.824 0 389.12 92.16 491.52 242.688 27.648 43.008 27.648 97.28 0 135.168zM657.408 507.392l259.072 259.072c16.384 16.384 16.384 43.008 0 59.392s-43.008 16.384-59.392 0l-107.52-107.52c-75.776 32.768-156.672 48.128-237.568 48.128-205.824 0-389.12-92.16-491.52-242.688-26.624-37.888-26.624-92.16 0-135.168 48.128-75.776 123.904-135.168 210.944-178.176l-80.896-80.896c-16.384-16.384-16.384-43.008 0-59.392s43.008-16.384 59.392 0l242.688 242.688zM468.992 442.88c0 5.12 0 11.264 0 11.264 0 26.624 21.504 48.128 48.128 48.128h11.264zM355.328 459.264c0-32.768 11.264-64.512 32.768-92.16l-70.656-70.656c-86.016 32.768-156.672 86.016-205.824 156.672 0 5.12 0 11.264 0 16.384 81.92 113.664 232.448 189.44 400.384 189.44 54.272 0 102.4-5.12 145.408-21.504l-53.248-54.272c-26.624 16.384-59.392 26.624-92.16 26.624-86.016 0-156.672-69.632-156.672-150.528z" />
<glyph unicode="&#xe924;" glyph-name="up-thin" d="M895.724 307.015c18.735-18.734 18.735-49.102 0-67.833s-49.102-18.735-67.833 0l-281.975 281.975c-18.733 18.733-49.102 18.733-67.832 0l-281.975-281.975c-18.733-18.735-49.102-18.735-67.832 0s-18.733 49.102 0 67.833l349.811 349.811c18.733 18.733 49.102 18.733 67.832 0z" />
<glyph unicode="&#xe925;" glyph-name="volume-high" d="M496.135 925.852c59.24 51.342 167.038 21.968 169.465-77.382v-799.749c0-73.61-86.824-142.552-169.465-77.382l-284.833 246.857h-108.902c-53.071 0-102.4 43.015-102.4 102.4v256c0 54.84 45.406 102.4 102.4 102.4h108.877zM563.2 848.469l-299.268-259.366c-8.146-7.060-21.049-12.509-33.533-12.509h-128v-256h128c10.778 0 21.241-3.401 29.924-9.655l302.877-262.219zM921.497 763.976c65.91-81.404 102.503-182.858 102.503-289.781 0-120.25-46.326-233.347-127.794-318.504-19.548-20.432-51.958-21.15-72.39-1.602s-21.15 51.958-1.602 72.39c63.414 66.286 99.386 154.106 99.386 247.716 0 83.249-28.408 162.008-79.687 225.343-17.794 21.977-14.402 54.217 7.573 72.011s54.217 14.402 72.011-7.573zM825.167 634.719c29.417-47.921 45.234-103.122 45.234-160.524 0-71.123-24.307-138.66-68.084-192.875-17.765-22.001-50-25.434-72-7.669s-25.434 50-7.669 72c29.2 36.162 45.354 81.048 45.354 128.544 0 38.354-10.511 75.036-30.103 106.952-14.794 24.098-7.249 55.627 16.849 70.42s55.627 7.249 70.42-16.849z" />
<glyph unicode="&#xe926;" glyph-name="COINEX" d="M680.988 581.132c-36.774 35.974-87.152 58.171-142.714 58.171s-105.941-22.197-142.751-58.207l0.037 0.036c-36.317-36.261-58.783-86.384-58.783-141.754s22.466-105.494 58.78-141.751l0.003-0.003c36.808-36.162 87.315-58.484 143.034-58.484s106.227 22.323 143.064 58.514l-0.030-0.029 17.279 19.199-94.716 92.156-15.999-17.279c-12.414-12.522-29.62-20.275-48.638-20.275s-36.225 7.753-48.633 20.27l-0.005 0.005c-12.104 12.247-19.58 29.089-19.58 47.678s7.477 35.432 19.587 47.685l-0.006-0.007c12.382 12.331 29.46 19.954 48.318 19.954s35.937-7.624 48.32-19.956l-0.002 0.002 255.99-252.79c-70.144-98.901-184.043-162.773-312.881-163.193h-0.066c-1.127-0.012-2.46-0.019-3.793-0.019-208.888 0-378.225 169.337-378.225 378.225s169.337 378.225 378.225 378.225c124.874 0 235.613-60.516 304.492-153.82l0.73-1.035-85.757-96.636 94.076-92.796 155.514 174.073c-82.019 179.909-260.297 302.708-467.256 302.708-282.759 0-511.979-229.221-511.979-511.979s229.221-511.979 511.979-511.979c0.026 0 0.053 0 0.079 0h-0.004c1.889-0.026 4.12-0.041 6.355-0.041 128.245 0 245.137 48.611 333.254 128.412l-0.422-0.377c59.006 52.162 106.231 116.202 138.145 188.515l1.369 3.477z" />
<glyph unicode="&#xe927;" glyph-name="BINANCE" d="M313.6 531.2l198.4 198.4 198.4-198.4 115.2 115.2-313.6 313.6-313.6-313.6 115.2-115.2zM0 448l115.2 115.2 115.2-115.2-115.2-115.2-115.2 115.2zM313.6 364.8l198.4-198.4 198.4 198.4 115.2-115.2-313.6-313.6-313.6 313.6 115.2 115.2zM793.6 448l115.2 115.2 115.2-115.2-115.2-115.2-115.2 115.2zM627.2 448l-115.2 115.2-115.2-115.2 115.2-115.2 115.2 115.2z" />
<glyph unicode="&#xe928;" glyph-name="BINANCE_FUTURES" d="M313.6 531.2l198.4 198.4 198.4-198.4 115.2 115.2-313.6 313.6-313.6-313.6 115.2-115.2zM0 448l115.2 115.2 115.2-115.2-115.2-115.2-115.2 115.2zM313.6 364.8l198.4-198.4 198.4 198.4 115.2-115.2-313.6-313.6-313.6 313.6 115.2 115.2zM793.6 448l115.2 115.2 115.2-115.2-115.2-115.2-115.2 115.2zM627.2 448l-115.2 115.2-115.2-115.2 115.2-115.2 115.2 115.2z" />
<glyph unicode="&#xe929;" glyph-name="BITFINEX" d="M40.69 82.315c46.72-51.2 307.2-292.48 713.6-12.8 294.4 231.68 286.72 733.44 256 885.12-7.040-21.12-348.8-777.6-969.6-872.32zM1013.49 954.635c-31.177 2.903-67.423 4.559-104.056 4.559-242.255 0-467.6-72.404-655.574-196.753l4.43 2.754c-156.396-97.234-258.965-268.134-258.965-462.99 0-19.968 1.077-39.685 3.176-59.095l-0.211 2.405c545.92 61.44 998.4 692.48 1011.2 709.12z" />
<glyph unicode="&#xe92a;" glyph-name="BITMEX" d="M352 768h387.2c-0.364-5.33-2.23-10.163-5.172-14.154l0.052 0.074-128.64-234.24h-236.8c-4.326-9.612-8.599-17.59-13.336-25.251l0.536 0.931-16.64-28.8c-6.4-12.8-14.080-23.68-19.2-35.84s-24.32-42.88-36.48-64l-37.12-64c-4.811-7.094-9.502-15.275-13.582-23.803l-0.498-1.157-76.8-134.4c-2.038-5.191-4.852-9.65-8.349-13.473l0.029 0.033h-128c-0.987 0.054-2.142 0.085-3.305 0.085-5.648 0-11.125-0.732-16.341-2.105l0.446 0.1c1.925 11.99 6.68 22.617 13.559 31.52l-0.119-0.16c6.4 14.080 15.36 25.6 21.76 40.32q78.72 139.52 156.8 280.32c12.8 19.2 21.76 40.96 33.92 64l44.8 78.72c4.48 10.88 11.52 21.12 16.64 32l57.6 102.4c2.196 4.147 4.749 7.721 7.71 10.912l-0.030-0.032zM801.28 631.040l76.8 135.68h140.8l5.12 1.28-12.8-21.76-100.48-184.32-41.6-74.24v-3.2l-196.48-353.92h-384c6.4 15.36 16 30.080 23.68 44.8l110.080 202.24h236.8l145.28 256z" />
<glyph unicode="&#xe92b;" glyph-name="HUOBI" d="M627.188 645.099c0.078 3.057 0.122 6.656 0.122 10.267 0 118.951-48.224 226.639-126.188 304.578l-0.001 0.001h-3.84c-4.48-287.969-149.744-364.761-228.456-468.43-48.617-59.314-78.084-135.952-78.084-219.473 0-153.248 99.203-283.324 236.896-329.515l2.451-0.713c97.27-26.877-22.398 47.995-38.396 206.698-19.198 191.979 236.775 337.884 236.775 496.587zM710.379 548.469h-3.84c-17.698-69.863-47.264-131.045-86.756-184.442l1.005 1.422c-156.783-238.055-63.993-351.962-16.638-414.676 28.797-35.836 0 0 72.312 36.476 88.384 54.485 148.577 147.362 157.346 254.794l0.077 1.179c0.801 9.121 1.258 19.734 1.258 30.454 0 109.982-48.086 208.735-124.38 276.378l-0.385 0.335z" />
<glyph unicode="&#xe92c;" glyph-name="xrp" d="M512 484.624c73.873 0 143.289 35.212 195.462 99.153l306.998 376.223h-180.186l-217.717-266.825c-27.962-34.285-65.090-53.141-104.558-53.141s-76.576 18.877-104.538 53.141l-217.727 266.825h-180.176l306.978-376.223c52.183-63.941 121.599-99.153 195.462-99.153zM707.473 314.341c-52.183 63.941-121.599 99.123-195.473 99.123s-143.289-35.182-195.473-99.123l-308.713-378.341h180.186l219.452 268.942c27.962 34.285 65.090 53.141 104.548 53.141s76.636-18.867 104.548-53.141l219.452-268.942h180.186z" />
<glyph unicode="&#xe92d;" glyph-name="ada" d="M430.261 519.414c-25.812 0-49.904 14.627-61.949 37.858-17.208 33.556-3.441 75.716 30.975 92.925 9.465 5.162 20.65 7.744 30.975 7.744 25.812 0 49.904-14.627 61.949-37.858 17.208-33.556 3.441-75.716-30.114-92.925-10.325-5.162-20.65-7.744-31.835-7.744zM349.382 378.307c-1.721 0-2.582 0-4.302 0-37.858 2.582-67.112 35.277-64.531 73.135 1.721 37.858 34.417 67.112 73.135 64.531 37.858-1.721 67.112-34.417 64.531-73.135-1.721-35.277-31.835-64.531-68.833-64.531zM431.121 238.059c-13.767 0-26.673 4.302-37.858 11.185-15.488 10.325-25.812 25.812-29.255 43.881s0 36.137 9.465 51.625c12.906 19.79 34.417 30.975 57.647 30.975 13.767 0 26.673-4.302 37.858-11.185 15.488-10.325 25.812-25.812 30.114-43.881 3.441-18.068 0-36.137-9.465-51.625-13.767-18.929-35.277-30.975-58.508-30.975zM593.739 238.059c-25.812 0-49.904 14.627-61.949 37.858-8.604 16.347-9.465 35.277-4.302 52.485 6.023 17.208 18.068 31.835 34.417 39.579 9.465 5.162 20.65 7.744 30.975 7.744 25.812 0 49.904-14.627 61.949-37.858 17.208-33.556 3.441-75.716-30.975-92.925-8.604-4.302-19.79-6.883-30.114-6.883zM674.618 379.167c-1.721 0-2.582 0-4.302 0-37.858 1.721-67.112 34.417-64.531 73.135 2.582 37.858 34.417 67.112 73.135 65.391 18.068-0.861 35.277-9.465 47.323-23.231s18.068-31.835 17.208-49.904c-1.721-36.997-32.696-65.391-68.833-65.391zM592.879 520.275c-13.767 0-26.673 4.302-37.858 11.185-31.835 20.65-40.44 63.67-19.79 95.505 12.906 19.79 34.417 30.975 57.647 30.975 13.767 0 26.673-4.302 37.858-11.185 31.835-20.65 40.44-63.67 19.79-95.505-12.906-19.79-34.417-30.975-57.647-30.975zM361.428 775.817c8.604-17.208 1.721-37.858-15.488-46.462s-37.858-1.721-46.462 15.488c-8.604 17.208-1.721 37.858 15.488 46.462s37.858 1.721 46.462-15.488zM152.348 481.556c18.929-0.861 33.556-17.208 32.696-36.137s-17.208-33.556-36.137-32.696c-18.929 0.861-33.556 17.208-32.696 36.137s17.208 33.556 36.137 32.696zM302.92 153.739c10.325 15.488 31.835 20.65 47.323 9.465 16.347-10.325 20.65-31.835 10.325-47.323s-31.835-20.65-47.323-10.325c-16.347 11.185-20.65 31.835-10.325 48.183zM662.572 120.183c-8.604 17.208-1.721 37.858 15.488 46.462s37.858 1.721 46.462-15.488c8.604-17.208 1.721-37.858-15.488-46.462s-37.858-1.721-46.462 15.488zM871.652 414.444c-18.929 0.861-33.556 17.208-32.696 36.137s17.208 33.556 36.137 32.696c18.929-0.861 33.556-17.208 32.696-36.137s-17.208-33.556-36.137-32.696zM721.080 742.261c-10.325-16.347-31.835-20.65-47.323-10.325-16.347 10.325-20.65 31.835-10.325 47.323 10.325 16.347 31.835 20.65 47.323 10.325 16.347-10.325 20.65-30.975 10.325-47.323zM285.712 881.649c5.162-11.185 0.861-24.091-9.465-30.114-11.185-5.162-24.091-0.861-30.114 9.465-5.162 11.185-0.861 24.091 9.465 30.114 11.185 6.023 24.952 1.721 30.114-9.465zM23.285 469.511c12.046-0.861 21.511-11.185 20.65-23.231s-11.185-21.511-23.231-20.65c-12.046 0.861-21.511 11.185-20.65 23.231s11.185 20.65 23.231 20.65zM249.574 35.862c6.883 10.325 20.65 12.906 30.975 6.023s12.906-20.65 6.023-30.975c-6.883-10.325-20.65-12.906-30.975-6.023s-12.906 20.65-6.023 30.975zM738.288 14.352c-5.162 11.185-0.861 24.091 9.465 30.114 11.185 5.162 24.091 0.861 30.114-9.465 5.162-11.185 0.861-24.091-9.465-30.114-11.185-6.023-24.952-1.721-30.114 9.465zM1000.714 426.489c-12.046 0.861-21.511 11.185-20.65 23.231s11.185 21.511 23.231 20.65c12.046-0.861 21.511-11.185 20.65-23.231-0.861-11.185-11.185-20.65-23.231-20.65zM774.426 860.139c-6.883-10.325-20.65-12.906-30.975-6.023s-12.906 20.65-6.023 30.975c6.883 10.325 20.65 12.906 30.975 6.023s12.906-20.65 6.023-30.975zM292.595 620.083c18.929-12.046 24.091-36.997 12.046-55.926s-36.997-24.091-55.926-12.046c-18.929 12.046-24.091 36.997-12.046 55.926 12.046 19.79 37.858 24.952 55.926 12.046zM253.016 344.751c19.79 10.325 44.741 1.721 54.206-18.068 10.325-19.79 1.721-44.741-18.068-54.206-19.79-10.325-44.741-1.721-54.206 18.068-10.325 19.79-1.721 43.881 18.068 54.206zM468.98 171.807c0.861 22.371 20.65 39.579 43.020 37.858 22.371-0.861 39.579-20.65 37.858-43.020-0.861-22.371-20.65-39.579-43.020-37.858-21.511 1.721-38.718 20.65-37.858 43.020zM731.405 275.058c-18.929 12.046-24.091 36.997-12.046 55.926s36.997 24.091 55.926 12.046c18.929-12.046 24.091-36.997 12.046-55.926s-37.858-24.091-55.926-12.046zM770.984 551.249c-19.79-10.325-44.741-1.721-54.206 18.068-10.325 19.79-1.721 44.741 18.068 54.206 19.79 10.325 44.741 1.721 54.206-18.068 10.325-19.79 1.721-43.881-18.068-54.206zM551.579 724.193c-0.861-22.371-20.65-39.579-43.020-37.858-22.371 0.861-39.579 20.65-37.858 43.020 0.861 22.371 20.65 39.579 43.020 37.858s39.579-20.65 37.858-43.020zM142.023 693.217c12.906-8.604 16.347-25.812 7.744-39.579-8.604-12.906-25.812-17.208-39.579-7.744-12.906 8.604-16.347 25.812-7.744 39.579 8.604 12.906 26.673 16.347 39.579 7.744zM114.49 250.105c13.767 6.883 30.975 1.721 37.858-12.906 6.883-13.767 1.721-30.975-12.906-37.858-13.767-6.883-30.975-1.721-37.858 12.906-6.883 13.767-0.861 30.975 12.906 37.858zM481.886 4.888c0.861 15.488 14.627 27.533 30.114 26.673s27.533-14.627 26.673-30.114c-0.861-15.488-14.627-27.533-30.114-26.673s-27.533 14.627-26.673 30.114zM881.977 202.783c-12.906 8.604-16.347 25.812-7.744 39.579 8.604 12.906 25.812 17.208 39.579 8.604 12.906-8.604 16.347-25.812 7.744-39.579s-26.673-17.208-39.579-8.604zM909.51 645.895c-13.767-6.883-30.975-1.721-37.858 12.906-6.883 13.767-1.721 30.975 12.906 37.858 13.767 6.883 30.975 1.721 37.858-12.906 6.883-13.767 0.861-30.975-12.906-37.858zM539.533 891.113c-0.861-15.488-14.627-27.533-30.114-26.673s-27.533 14.627-26.673 30.114c0.861 15.488 14.627 27.533 30.114 26.673s27.533-14.627 26.673-30.114z" />
<glyph unicode="&#xe92e;" glyph-name="trx" d="M938.582 689.779c-4.413 4.031-9.435 7.506-14.888 10.251l-0.381 0.174c-3.675 1.987-6.788 3.972-9.749 6.152l0.228-0.159c-8.702 6.239-17.322 12.643-26.023 19.046-15.023 11.083-30.62 22.576-46.054 33.329-13.969 11.116-29.615 21.681-46.062 30.996l-1.798 0.938c-7.281 3.62-15.729 6.468-24.6 8.117l-0.602 0.093-5.993 1.396c-15.351 4.516-29.553 8.208-41.045 10.754-13.134 3.284-27.173 6.568-41.045 9.77-18.060 5.007-36.12 9.933-55.084 14.859s-38.337 9.112-56.726 13.134c-9.933 2.462-20.031 4.761-30.128 7.060s-20.031 4.432-29.881 6.896c-6.896 1.642-13.791 3.448-20.687 5.335s-14.12 3.695-21.18 5.335c-13.956 3.284-27.008 6.568-40.226 9.851-6.896 1.642-14.037 3.53-21.18 5.335s-14.448 3.695-21.426 5.335l-20.277 5.007-19.949 4.844c-6.649 1.642-13.299 3.119-19.949 4.598s-12.971 2.791-19.702 4.516c-15.433 3.202-31.194 7.388-46.711 11.493l-11.575 2.462-11.739 2.462c-12.888 2.462-26.105 5.747-38.912 8.948-6.485 1.642-12.971 3.448-19.456 5.254s-13.299 3.776-20.195 5.5-15.515 3.448-23.232 5.254-15.761 3.776-23.56 5.418h-0.657c-1.611 0.297-3.467 0.467-5.362 0.467-8.066 0-15.413-3.078-20.932-8.123l0.024 0.021c-6.809-6.792-11.021-16.186-11.021-26.562 0-1.314 0.068-2.612 0.199-3.891l-0.013 0.161c2.393-14.483 5.876-27.321 10.488-39.606l-0.472 1.433c8.208-24.627 17.486-49.83 26.352-73.882 4.516-12.396 9.030-24.627 13.546-36.613s9.030-24.627 13.628-36.695c4.104-10.179 7.634-21.015 11.001-31.441 2.053-6.157 4.022-12.314 6.075-18.224 8.208-24.627 17.486-49.256 26.434-72.569 3.202-8.208 6.321-16.91 9.358-25.284s6.157-16.91 9.441-25.531l7.634-19.866c5.007-12.806 10.179-26.023 14.448-38.994 3.202-9.605 6.321-19.128 9.441-28.733 7.143-22.001 14.612-44.74 22.576-66.494 6.321-18.388 13.381-36.613 20.195-54.263 4.022-10.426 8.208-20.851 11.821-31.112 2.053-5.993 3.858-12.314 5.663-18.553s3.776-12.888 5.911-19.374c3.695-10.344 7.634-20.687 11.575-30.949s7.717-20.44 11.411-30.62c9.030-24.627 18.060-48.516 27.254-72.651 5.663-13.463 11.164-27.993 17.814-47.039 2.627-8.208 4.926-15.844 7.225-23.642s5.254-18.388 8.208-27.501c5.747-15.597 11.739-31.031 17.732-46.464s11.821-30.703 17.404-45.808c3.021-12.791 13.355-22.518 26.249-24.603l0.185-0.025c1.946-0.31 4.194-0.489 6.481-0.492h0.004c0.241-0.006 0.525-0.010 0.81-0.010 11.921 0 22.412 6.123 28.499 15.397l0.080 0.129c11.411 16.419 23.232 33.657 35.136 50.651s23.889 34.233 35.382 50.979 22.33 32.837 32.837 49.256c8.208 12.15 16.419 24.627 24.627 36.613l14.695 20.769c8.208 11.903 17.239 24.627 25.284 36.367 8.208 10.426 15.105 21.262 21.918 31.852l8.208 11.985c11.985 17.322 23.971 34.396 35.874 51.554s23.725 33.905 35.464 50.897c15.351 21.015 31.278 42.77 46.054 65.017 10.836 15.515 21.59 31.606 31.934 47.203l19.046 28.404c33.986 50.569 68.875 101.219 102.615 150.228 5.351 6.864 8.579 15.611 8.579 25.112 0 12.552-5.634 23.788-14.512 31.317l-0.059 0.049zM707.165 724.421c-6.649-7.060-13.217-13.956-20.112-20.933l-14.612-15.433c-5.007-5.172-10.015-10.344-14.941-15.679l-19.784-21.508c-6.568-7.143-13.052-14.284-19.702-21.262l-83.652-90.957c-11.739-12.56-23.396-25.859-34.561-38.665l-1.805-1.971-1.149 1.396-4.844 6.403c-13.217 17.65-25.694 34.314-39.814 51.389l-56.561 66.412-59.106 71.010-20.277 24.627c-14.202 16.419-28.897 34.151-42.853 51.389-19.374 24.627-39.404 49.256-60.091 73.308l-10.098 11.739q-4.022 4.926-8.208 9.851l524.978-127.57c-4.516-4.761-8.702-9.194-12.806-13.546zM299.498 651.031c5.582-7.306 11.164-14.53 16.419-21.426 14.859-18.963 30.784-37.352 46.217-55.247 11.493-13.463 22.739-27.008 33.986-40.554s22.658-27.090 33.905-40.389c4.186-5.5 8.702-10.672 13.052-15.844 7.291-8.070 14.174-16.884 20.406-26.173l0.528-0.836c0.451-1.862 0.709-3.999 0.709-6.198s-0.259-4.336-0.748-6.384l0.038 0.186c-0.356-2.677-0.563-5.782-0.574-8.934v-0.014c0.007-0.123 0.010-0.266 0.010-0.41s-0.004-0.289-0.011-0.43l0.001 0.020c-0.772-1.633-1.275-3.535-1.394-5.54l-0.002-0.042-4.844-54.673-0.903-10.098c-3.776-29.225-7.306-56.808-10.261-85.704-2.299-21.18-3.776-42.359-5.254-62.8-0.657-10.015-1.396-20.031-2.217-30.128-0.985-13.134-2.709-25.777-4.516-39.158-0.985-6.977-1.971-14.12-2.873-21.508l-3.119-33.739q-15.351 43.344-30.62 86.525c-32.18 91.039-65.674 185.199-99.741 277.635-23.807 65.674-47.531 131.347-70.517 195.707-19.128 53.277-38.747 108.033-58.532 162.46l46.874-53.442c7.717-9.358 15.105-18.717 22.411-28.157s14.859-18.963 22.986-28.733c7.143-8.208 14.612-16.419 21.918-25.203 5.663-6.568 11.164-13.709 16.664-20.769zM489.293 114.233v1.068c-0.007 0.123-0.010 0.266-0.010 0.41s0.004 0.289 0.011 0.43l-0.001-0.020c0.781 1.658 1.283 3.589 1.394 5.625l0.002 0.039c0.492 6.403 0.985 12.888 1.396 19.374 0.985 13.381 1.805 26.023 3.448 38.665 1.642 15.187 3.53 30.292 5.335 45.48s3.695 30.456 5.335 45.561c1.724 13.299 3.367 27.501 4.186 40.554 0.574 6.731 0.985 13.628 1.477 20.523 0.903 12.888 1.805 26.269 3.367 39.076l0.74 6.157c2.217 18.471 4.516 37.598 7.471 55.905v0c0.872 0.837 1.872 1.549 2.967 2.103l0.070 0.033c11.903 6.157 23.889 12.56 35.792 18.963s24.053 12.724 36.038 18.8c10.179 5.335 20.605 10.426 31.031 15.515s21.015 10.344 31.441 15.761l171.408 90.054-159.587-233.469-187.661-274.105c1.068 9.276 2.381 18.224 4.35 27.501zM667.679 600.135c10.589 10.589 21.508 21.59 31.441 32.837l15.187 17.075c9.605 10.836 18.635 21.098 28.404 31.441 8.208 9.605 17.157 18.224 26.434 27.336 2.627 2.545 5.254 5.090 7.799 7.717v0l31.441-21.754 41.045-26.762 0.74-0.574c-78.891-41.045-155.318-80.368-232.32-119.444z" />
<glyph unicode="&#xe92f;" glyph-name="neo" d="M935.079 799.764l-338.899 160.236-498.512-179.989 338.899-160.236 498.512 179.989zM587.433 609.35v-332.015l353.113-166.826v626.327l-353.113-127.486zM427.82 556.53v-620.53l-344.366 162.437v620.909z" />
<glyph unicode="&#xe930;" glyph-name="ltc" horiz-adv-x="933" d="M406.574 137.292l66.51 250.444 157.433 57.507 39.166 147.184-1.335 3.645-155.008-56.623 111.681 420.525h-316.749l-146.029-548.769-121.945-44.548-40.296-151.739 121.855 44.507-86.081-323.426h842.95l54.067 201.292h-526.217z" />
<glyph unicode="&#xe931;" glyph-name="xmr" d="M179.053 287.238v429.802l333.096-333.096 332.771 332.771v-429.481h153.292c16.709 50.559 25.788 104.593 25.788 160.764 0 282.77-229.225 512-512 512-282.77 0-512-229.229-512-512 0-56.171 9.070-110.199 25.788-160.764h153.265zM733.834 183.092v271.712l-223.574-223.574-222.006 222.006v-270.15h-214.472c89.728-148.098 252.411-247.085 438.217-247.085 185.811 0 348.489 98.988 438.217 247.085h-216.383z" />
<glyph unicode="&#xe932;" glyph-name="iota" d="M803.254 879.071c0-32.753-26.551-59.303-59.303-59.303s-59.303 26.551-59.303 59.303c0 32.753 26.551 59.303 59.303 59.303v0c32.753 0 59.303-26.551 59.303-59.303v0zM810.794 722.694c0-27.747-22.494-50.241-50.241-50.241s-50.241 22.494-50.241 50.241c0 27.747 22.494 50.241 50.241 50.241s50.241-22.494 50.241-50.241zM787.449 591.038c0-23.463-19.020-42.483-42.483-42.483s-42.483 19.020-42.483 42.483c0 23.463 19.020 42.483 42.483 42.483s42.483-19.020 42.483-42.483zM742.428 484.104c0-20.020-16.229-36.248-36.248-36.248s-36.248 16.229-36.248 36.248c0 20.020 16.229 36.248 36.248 36.248v0c20.020 0 36.248-16.229 36.248-36.248v0zM685.010 403.922c-0.041-17.186-13.982-31.101-31.174-31.101-17.217 0-31.174 13.957-31.174 31.174s13.957 31.174 31.174 31.174v0c0.022 0 0.047 0 0.073 0 17.177 0 31.101-13.925 31.101-31.101 0-0.051 0-0.102 0-0.153v0.008zM622.155 346.866c0-14.774-11.977-26.751-26.751-26.751s-26.751 11.977-26.751 26.751c0 14.774 11.977 26.751 26.751 26.751v0c14.774 0 26.751-11.977 26.751-26.751v0zM942.087 692.825c-5.291-22.811-25.439-39.553-49.498-39.553-28.028 0-50.748 22.721-50.748 50.748s22.721 50.748 50.748 50.748c4.213 0 8.307-0.513 12.22-1.481l-0.349 0.073c22.473-5.543 38.877-25.525 38.877-49.34 0-3.969-0.456-7.832-1.317-11.538l0.067 0.343zM918.017 561.966c-4.546-19.070-21.439-33.031-41.592-33.031-23.583 0-42.701 19.118-42.701 42.701s19.118 42.701 42.701 42.701c3.438 0 6.781-0.406 9.984-1.173l-0.291 0.058c19.055-4.589 32.994-21.486 32.994-41.641 0-3.41-0.399-6.726-1.153-9.906l0.058 0.29zM873.141 457.497c-3.869-16.174-18.202-28.012-35.3-28.012-20.020 0-36.248 16.229-36.248 36.248s16.229 36.248 36.248 36.248c2.982 0 5.88-0.36 8.652-1.039l-0.248 0.052c16.090-3.931 27.845-18.223 27.845-35.261 0-2.922-0.346-5.763-0.998-8.485l0.050 0.247zM815.289 377.967c-3.304-13.727-15.477-23.768-29.995-23.768-17.017 0-30.811 13.795-30.811 30.811s13.795 30.811 30.811 30.811c2.488 0 4.907-0.295 7.223-0.851l-0.21 0.042c13.742-3.294 23.798-15.474 23.798-30.003 0-2.499-0.298-4.928-0.859-7.254l0.043 0.211zM751.925 322.506c-2.844-11.782-13.294-20.398-25.758-20.398-14.614 0-26.462 11.848-26.462 26.462s11.848 26.462 26.462 26.462c2.142 0 4.225-0.255 6.219-0.735l-0.181 0.036c11.798-2.8 20.438-13.246 20.438-25.709 0-2.17-0.262-4.28-0.757-6.298l0.037 0.181zM689.070 287.418c-2.429-10.158-11.431-17.594-22.169-17.594-12.573 0-22.764 10.192-22.764 22.764s10.192 22.764 22.764 22.764c1.847 0 3.641-0.22 5.361-0.635l-0.155 0.032c10.141-2.442 17.56-11.436 17.56-22.162 0-1.834-0.216-3.617-0.626-5.325l0.032 0.155zM1019.732 514.19c-7.113-14.445-21.73-24.208-38.626-24.208-23.704 0-42.918 19.216-42.918 42.918s19.216 42.918 42.918 42.918c6.798 0 13.228-1.581 18.941-4.395l-0.252 0.112c14.445-7.133 24.206-21.762 24.206-38.67 0-6.792-1.576-13.218-4.381-18.929l0.112 0.253zM975 410.736c-6.053-12.068-18.329-20.206-32.505-20.206-20.020 0-36.248 16.229-36.248 36.248s16.229 36.248 36.248 36.248c5.647 0 10.992-1.291 15.757-3.594l-0.216 0.094c12.343-5.957 20.708-18.376 20.708-32.749 0-5.843-1.382-11.363-3.839-16.251l0.095 0.209zM918.671 331.859c-5.247-10.556-15.956-17.684-28.332-17.684-17.417 0-31.536 14.119-31.536 31.536s14.119 31.536 31.536 31.536c5.034 0 9.793-1.18 14.015-3.277l-0.184 0.082c10.556-5.267 17.68-15.989 17.68-28.375 0-5.028-1.174-9.783-3.263-14.003l0.082 0.185zM856.178 276.833c-4.481-9.393-13.901-15.768-24.811-15.768-15.135 0-27.404 12.269-27.404 27.404s12.269 27.404 27.404 27.404c4.388 0 8.534-1.031 12.211-2.864l-0.159 0.072c9.155-4.586 15.33-13.894 15.33-24.646 0-4.211-0.947-8.202-2.642-11.77l0.071 0.167zM793.104 242.614c-3.875-7.9-11.859-13.241-21.090-13.241-12.933 0-23.416 10.484-23.416 23.416s10.484 23.416 23.416 23.416c3.717 0 7.231-0.866 10.352-2.407l-0.137 0.061c7.888-3.858 13.226-11.825 13.226-21.037 0-3.715-0.868-7.227-2.412-10.346l0.061 0.136zM733.801 225.36c-3.293-6.684-10.057-11.203-17.877-11.203-10.971 0-19.864 8.894-19.864 19.864s8.894 19.864 19.864 19.864c3.154 0 6.136-0.736 8.786-2.044l-0.116 0.052c6.68-3.294 11.195-10.057 11.195-17.873 0-3.151-0.734-6.131-2.040-8.778l0.052 0.116zM782.084-1.63c-17.874 10.439-29.693 29.53-29.693 51.381 0 32.753 26.551 59.303 59.303 59.303s59.303-26.551 59.303-59.303c0-10.91-2.946-21.131-8.085-29.913l0.151 0.281c-10.42-17.876-29.501-29.697-51.343-29.697-10.913 0-21.137 2.952-29.917 8.1l0.279-0.151zM643.179 70.142c-15.123 8.831-25.122 24.982-25.122 43.469 0 27.707 22.461 50.169 50.169 50.169s50.169-22.461 50.169-50.169c0-9.224-2.489-17.866-6.833-25.292l0.128 0.238c-8.81-15.132-24.955-25.14-43.437-25.14-9.233 0-17.881 2.498-25.309 6.854l0.236-0.128zM540.378 156.052c-12.83 7.472-21.316 21.163-21.316 36.835 0 23.463 19.020 42.483 42.483 42.483s42.483-19.020 42.483-42.483c0-7.794-2.098-15.097-5.762-21.377l0.109 0.202c-7.494-12.812-21.187-21.282-36.857-21.282-7.779 0-15.070 2.087-21.345 5.732l0.203-0.109zM470.49 248.269c-10.929 6.38-18.156 18.051-18.156 31.411 0 20.020 16.229 36.248 36.248 36.248s36.248-16.229 36.248-36.248c0-6.652-1.792-12.885-4.918-18.243l0.093 0.172c-6.377-10.941-18.055-18.177-31.423-18.177-6.66 0-12.901 1.797-18.265 4.931l0.171-0.093zM429.456 338.166c-9.424 5.481-15.658 15.532-15.658 27.039 0 17.217 13.957 31.174 31.174 31.174s31.174-13.957 31.174-31.174c0-5.708-1.534-11.058-4.213-15.66l0.079 0.148c-5.522-9.399-15.583-15.61-27.094-15.61-5.685 0-11.017 1.515-15.613 4.163l0.151-0.080zM411.187 421.176c-8.194 4.678-13.627 13.36-13.627 23.311 0 14.774 11.977 26.751 26.751 26.751s26.751-11.977 26.751-26.751c0-4.955-1.348-9.596-3.696-13.575l0.068 0.125c-4.722-8.011-13.305-13.3-23.124-13.3-4.823 0-9.349 1.277-13.256 3.51l0.131-0.069zM636.219 8.012c0-27.828-22.558-50.386-50.386-50.386s-50.386 22.558-50.386 50.386c0 27.828 22.558 50.386 50.386 50.386s50.386-22.558 50.386-50.386zM449.972 57.455c-8.309 7.81-13.483 18.871-13.483 31.141 0 23.583 19.118 42.701 42.701 42.701s42.701-19.118 42.701-42.701c0-11.297-4.387-21.569-11.55-29.206l0.021 0.023c-7.822-8.312-18.895-13.488-31.176-13.488-11.307 0-21.59 4.388-29.238 11.553l0.024-0.022zM382.188 148.44c-7.218 6.647-11.724 16.144-11.724 26.693 0 20.020 16.229 36.248 36.248 36.248s36.248-16.229 36.248-36.248c0-9.712-3.82-18.532-10.038-25.040l0.013 0.013c-6.613-6.921-15.916-11.223-26.224-11.223-9.47 0-18.093 3.632-24.55 9.579l0.026-0.023zM341.878 238.336c-6.009 5.636-9.753 13.627-9.753 22.492 0 17.017 13.795 30.811 30.811 30.811s30.811-13.795 30.811-30.811c0-8.178-3.186-15.613-8.386-21.129l0.014 0.015c-5.633-5.976-13.602-9.697-22.439-9.697-8.152 0-15.565 3.166-21.076 8.335l0.016-0.015zM325.277 320.694c-5.181 4.855-8.41 11.74-8.41 19.38 0 14.655 11.88 26.534 26.534 26.534s26.534-11.88 26.534-26.534c0-7.026-2.732-13.414-7.19-18.162l0.013 0.014c-4.853-5.167-11.73-8.386-19.357-8.386-7.015 0-13.393 2.722-18.138 7.168l0.014-0.013zM326.365 392.902c-4.423 4.162-7.177 10.055-7.177 16.59 0 12.573 10.192 22.764 22.764 22.764s22.764-10.192 22.764-22.764c0-6.031-2.346-11.514-6.174-15.588l0.011 0.011c-4.154-4.447-10.053-7.219-16.598-7.219-6.043 0-11.534 2.362-15.601 6.214l0.011-0.010zM357.828-6.851c-4.657 6.762-7.437 15.13-7.437 24.146 0 23.704 19.216 42.918 42.918 42.918s42.918-19.216 42.918-42.918c0-14.67-7.36-27.622-18.59-35.362l-0.145-0.094c-6.77-4.672-15.151-7.462-24.183-7.462-14.686 0-27.65 7.377-35.387 18.627l-0.094 0.146zM290.478 83.554c-3.838 5.663-6.127 12.647-6.127 20.166 0 20.020 16.229 36.248 36.248 36.248s36.248-16.229 36.248-36.248c0-12.305-6.131-23.178-15.505-29.731l-0.117-0.078c-5.76-4.030-12.912-6.441-20.626-6.441-12.501 0-23.524 6.328-30.040 15.955l-0.081 0.127zM250.532 171.494c-3.459 4.988-5.526 11.169-5.526 17.834 0 17.417 14.119 31.536 31.536 31.536s31.536-14.119 31.536-31.536c0-10.899-5.529-20.508-13.935-26.172l-0.112-0.071c-4.914-3.316-10.971-5.294-17.489-5.294-10.753 0-20.249 5.382-25.942 13.598l-0.069 0.104zM233.784 253.416c-2.972 4.318-4.747 9.659-4.747 15.415 0 15.135 12.269 27.404 27.404 27.404s27.404-12.269 27.404-27.404c0-9.383-4.716-17.665-11.907-22.605l-0.093-0.060c-4.314-2.95-9.644-4.711-15.385-4.711-9.378 0-17.658 4.698-22.617 11.87l-0.060 0.092zM235.669 325.116c-2.525 3.674-4.032 8.219-4.032 13.115 0 12.892 10.451 23.344 23.344 23.344s23.344-10.451 23.344-23.344c0-7.974-3.999-15.015-10.1-19.226l-0.079-0.051c-3.685-2.547-8.248-4.068-13.166-4.068-7.996 0-15.054 4.021-19.261 10.15l-0.052 0.079zM250.315 385.072c-2.158 3.131-3.447 7.007-3.447 11.183 0 10.971 8.894 19.864 19.864 19.864s19.864-8.894 19.864-19.864c0-6.786-3.402-12.777-8.594-16.36l-0.066-0.043c-3.136-2.167-7.018-3.461-11.204-3.461-6.794 0-12.792 3.412-16.374 8.614l-0.044 0.067zM29.704 457.062c8.493 4.977 18.704 7.916 29.601 7.916 32.753 0 59.303-26.551 59.303-59.303s-26.551-59.303-59.303-59.303c-21.829 0-40.904 11.795-51.199 29.358l-0.151 0.28c-5 8.509-7.953 18.742-7.953 29.665 0 21.855 11.823 40.949 29.421 51.235l0.281 0.151zM161.432 541.594c7.181 4.204 15.813 6.686 25.023 6.686 27.707 0 50.169-22.461 50.169-50.169s-22.461-50.169-50.169-50.169c-18.465 0-34.6 9.976-43.31 24.832l-0.128 0.237c-4.231 7.199-6.731 15.859-6.731 25.101 0 18.496 10.010 34.655 24.908 43.354l0.238 0.128zM287.143 587.268c6.090 3.574 13.413 5.684 21.23 5.684 23.463 0 42.483-19.020 42.483-42.483s-19.020-42.483-42.483-42.483c-15.659 0-29.34 8.472-36.708 21.083l-0.108 0.201c-3.547 6.079-5.64 13.381-5.64 21.172 0 15.648 8.446 29.324 21.028 36.717l0.2 0.108zM401.907 601.55c5.186 3.034 11.419 4.826 18.071 4.826 20.020 0 36.248-16.229 36.248-36.248s-16.229-36.248-36.248-36.248c-13.359 0-25.031 7.227-31.318 17.985l-0.093 0.171c-3.042 5.191-4.839 11.433-4.839 18.093 0 13.368 7.236 25.046 18.006 31.33l0.172 0.093zM500.287 591.98c4.479 2.638 9.868 4.196 15.62 4.196 17.217 0 31.174-13.957 31.174-31.174s-13.957-31.174-31.174-31.174c-11.482 0-21.513 6.207-26.923 15.449l-0.079 0.147c-2.622 4.469-4.171 9.843-4.171 15.578 0 11.464 6.188 21.484 15.407 26.899l0.147 0.079zM581.194 566.099c3.867 2.3 8.528 3.66 13.505 3.66 14.774 0 26.751-11.977 26.751-26.751s-11.977-26.751-26.751-26.751c-9.939 0-18.611 5.42-23.224 13.464l-0.069 0.13c-2.176 3.784-3.458 8.32-3.458 13.157 0 9.797 5.267 18.364 13.122 23.025l0.124 0.068zM121.703 670.35c4.475 1.431 9.622 2.256 14.962 2.256 28.028 0 50.748-22.721 50.748-50.748s-22.721-50.748-50.748-50.748c-22.908 0-42.27 15.178-48.58 36.026l-0.094 0.359c-1.372 4.37-2.163 9.395-2.163 14.605 0 22.652 14.948 41.813 35.518 48.156l0.357 0.095zM247.051 714.864c3.706 1.165 7.968 1.836 12.385 1.836 23.583 0 42.701-19.118 42.701-42.701s-19.118-42.701-42.701-42.701c-19.179 0-35.405 12.644-40.796 30.051l-0.080 0.303c-1.158 3.695-1.825 7.944-1.825 12.347 0 19.165 12.626 35.382 30.013 40.784l0.303 0.081zM360.003 728.204c3.17 1.005 6.815 1.583 10.597 1.583 20.020 0 36.248-16.229 36.248-36.248s-16.229-36.248-36.248-36.248c-16.327 0-30.133 10.795-34.671 25.636l-0.068 0.257c-0.959 3.099-1.51 6.663-1.51 10.355 0 16.239 10.678 29.984 25.396 34.596l0.257 0.069zM457.802 717.836c2.664 0.832 5.728 1.311 8.905 1.311 17.057 0 30.884-13.827 30.884-30.884s-13.827-30.884-30.884-30.884c-13.874 0-25.611 9.149-29.509 21.741l-0.058 0.218c-0.836 2.67-1.317 5.741-1.317 8.923 0 13.881 9.157 25.623 21.76 29.514l0.218 0.058zM537.405 690.867c2.388 0.782 5.136 1.232 7.99 1.232 14.655 0 26.534-11.88 26.534-26.534s-11.88-26.534-26.534-26.534c-11.993 0-22.128 7.957-25.413 18.88l-0.049 0.188c-0.68 2.235-1.072 4.805-1.072 7.467 0 11.801 7.703 21.802 18.356 25.25l0.188 0.053zM599.245 653.748c1.987 0.628 4.273 0.99 6.643 0.99 12.573 0 22.764-10.192 22.764-22.764s-10.192-22.764-22.764-22.764c-10.228 0-18.88 6.746-21.752 16.030l-0.043 0.161c-0.626 1.981-0.987 4.259-0.987 6.621 0 10.195 6.723 18.82 15.978 21.683l0.161 0.043zM237.627 826.872c0.919 0.070 1.992 0.11 3.073 0.11 23.704 0 42.918-19.216 42.918-42.918s-19.216-42.918-42.918-42.918c-22.593 0-41.108 17.457-42.794 39.619l-0.009 0.145c-0.071 0.924-0.111 2.002-0.111 3.088 0 22.635 17.492 41.183 39.695 42.867l0.145 0.009zM349.636 839.85c0.7 0.048 1.518 0.076 2.343 0.076 20.020 0 36.248-16.229 36.248-36.248s-16.229-36.248-36.248-36.248c-18.972 0-34.541 14.575-36.117 33.14l-0.010 0.134c-0.078 0.892-0.123 1.928-0.123 2.976 0 19.195 14.92 34.906 33.797 36.167l0.11 0.006zM445.695 830.353c0.757 0.064 1.638 0.102 2.528 0.102 17.457 0 31.609-14.152 31.609-31.609s-14.152-31.609-31.609-31.609c-16.656 0-30.304 12.883-31.521 29.228l-0.007 0.105c-0.053 0.681-0.082 1.475-0.082 2.277 0 16.567 12.746 30.158 28.967 31.5l0.114 0.008zM525.007 803.746c0.569 0.042 1.233 0.066 1.902 0.066 15.095 0 27.332-12.236 27.332-27.332s-12.236-27.332-27.332-27.332c-14.485 0-26.337 11.268-27.272 25.517l-0.004 0.081c-0.035 0.518-0.055 1.123-0.055 1.734 0 14.426 11.175 26.241 25.341 27.26l0.088 0.005zM586.123 766.264c0.48 0.035 1.039 0.055 1.604 0.055 12.933 0 23.416-10.484 23.416-23.416s-10.484-23.416-23.416-23.416c-12.326 0-22.429 9.524-23.348 21.615l-0.005 0.079c-0.044 0.535-0.069 1.16-0.069 1.79 0 12.356 9.599 22.469 21.747 23.291l0.072 0.004zM630.637 723.346c0.441 0.034 0.953 0.055 1.471 0.055 10.971 0 19.864-8.894 19.864-19.864s-8.894-19.864-19.864-19.864c-10.466 0-19.043 8.095-19.808 18.366l-0.004 0.066c-0.033 0.428-0.052 0.928-0.052 1.432 0 10.453 8.074 19.020 18.326 19.806l0.067 0.004z" />
<glyph unicode="&#xe933;" glyph-name="eos" d="M861.894 164.796l-106.557 479.986v0.8c-0.949 3.424-2.548 6.397-4.669 8.915l0.029-0.035-219.914 295.991c-4.427 5.825-11.359 9.547-19.159 9.547s-14.733-3.722-19.116-9.488l-0.043-0.059-219.674-295.991c-2.088-2.485-3.686-5.457-4.6-8.714l-0.040-0.166-106.637-479.986v-8.8c0.048-1.449 0.337-2.817 0.829-4.085l-0.029 0.085 0.4-1.6c1.827-4.371 4.871-7.931 8.708-10.346l0.092-0.054 2-1.28h0.88l324.231-199.994c3.564-2.212 7.887-3.523 12.517-3.523 0.128 0 0.255 0.001 0.382 0.003h-0.019c4.811 0.097 9.293 1.421 13.171 3.67l-0.131-0.070 324.47 200.474h0.88l2 1.28c3.021 2.157 5.53 4.818 7.453 7.885l0.067 0.115c1.389 1.753 2.272 3.962 2.399 6.372l0.001 0.028c0.427 1.395 0.673 2.999 0.673 4.66 0 1.559-0.216 3.067-0.621 4.496l0.028-0.116zM535.503 735.18v128.796l169.515-228.393-40.399-125.436zM796.936 184.876h-187.275l67.198 208.794zM697.019 455.188l30.479 94.717 53.518-241.033zM754.937 137.677l-200.474-123.756 39.999 123.756zM428.866 137.677l39.999-123.756-200.714 123.756zM378.628 449.668l132.876 231.273 133.676-231.513-85.118-264.552h-96.557zM413.347 183.996h-187.275l119.996 208.794zM487.505 735.18l-129.116-223.993-40.399 124.396 169.515 228.393zM241.832 308.152l53.678 240.953 30.479-94.717zM544.543 137.677l-33.039-100.877-31.999 100.877z" />
<glyph unicode="&#xe934;" glyph-name="bear" d="M856.68 895.303c-78.083 0-142.78-53.542-158.397-124.932h-377.028c-17.847 71.39-82.545 124.932-158.397 124.932-89.237 0-162.858-73.619-162.858-162.857 0-62.466 35.695-118.24 89.237-145.011v-176.246c0-227.554 196.322-410.492 423.878-410.492s423.878 182.939 423.878 410.492v176.246c51.31 26.771 87.007 82.545 87.007 145.011-2.233 89.237-75.852 162.857-167.32 162.857zM296.715 558.431c0 24.54 20.078 46.85 46.85 46.85s46.85-20.078 46.85-46.85-20.078-46.85-46.85-46.85-46.85 20.080-46.85 46.85zM508.654 81.011c-84.776 0-156.166 91.468-156.166 203.015s69.159 203.015 156.166 203.015c87.008 0 156.164-91.468 156.164-203.015s-69.156-203.015-156.164-203.015zM675.972 511.583c-26.769 0-46.846 20.078-46.846 46.85 0 24.54 20.078 46.85 46.846 46.85 24.54 0 46.85-20.078 46.85-46.85s-20.077-46.85-46.85-46.85zM428.34 368.802c-13.386 0-26.771-6.691-31.233-17.846-4.462-13.386-2.231-26.773 6.693-35.695l80.314-80.314c13.386-13.386 35.693-13.386 49.079 0l80.314 80.314c8.924 8.924 13.386 22.309 6.691 35.695-4.46 13.386-17.846 17.846-31.233 17.846h-160.624z" />
<glyph unicode="&#xe935;" glyph-name="bps" d="M402.894 697.28c0 0.007 0 0.016 0 0.024 0 111.165-90.117 201.283-201.283 201.283s-201.283-90.117-201.283-201.283c0-111.165 90.117-201.283 201.283-201.283v0c111.101 0.137 201.131 90.158 201.283 201.244v0.015zM100.331 697.28c0 0.014 0 0.031 0 0.048 0 55.949 45.356 101.305 101.305 101.305s101.305-45.356 101.305-101.305c0-55.949-45.356-101.305-101.305-101.305-0.009 0-0.017 0-0.026 0h0.001c-55.889 0.096-101.172 45.371-101.281 101.246v0.010zM489.006 204.111c-59.058 0-106.933-47.875-106.933-106.933s47.875-106.933 106.933-106.933c59.058 0 106.933 47.875 106.933 106.933 0 0.008 0 0.017 0 0.025v-0.001c-0.082 59.020-47.911 106.84-106.927 106.909h-0.007zM489.006 43.361c-29.722 0-53.817 24.095-53.817 53.817s24.095 53.817 53.817 53.817c29.714 0 53.803-24.081 53.817-53.792v-0.001c-0.027-29.716-24.103-53.8-53.813-53.841h-0.004zM715.771 951.752c-9.18 5.19-20.159 8.248-31.853 8.248-24.495 0-45.857-13.42-57.132-33.31l-0.17-0.326-497.033-892.472c-5.365-9.296-8.53-20.447-8.53-32.336 0-36.205 29.35-65.556 65.556-65.556 24.67 0 46.157 13.627 57.345 33.764l0.171 0.335 496.936 892.472c5.222 9.198 8.299 20.205 8.299 31.931 0 24.469-13.401 45.808-33.264 57.078l-0.325 0.17zM702.848 204.111c-59.058 0-106.933-47.875-106.933-106.933s47.875-106.933 106.933-106.933c59.058 0 106.933 47.875 106.933 106.933 0 0.008 0 0.017 0 0.025v-0.001c-0.069 59.025-47.906 106.854-106.928 106.909h-0.005zM702.848 43.361c-29.722 0-53.817 24.095-53.817 53.817s24.095 53.817 53.817 53.817c29.714 0 53.803-24.081 53.817-53.792v-0.001c-0.027-29.716-24.103-53.8-53.813-53.841h-0.004zM916.715 204.111c-59.048-0.014-106.909-47.884-106.909-106.933 0-59.058 47.875-106.933 106.933-106.933s106.933 47.875 106.933 106.933c0 0.008 0 0.017 0 0.025v-0.001c-0.082 59.028-47.925 106.854-106.952 106.909h-0.005zM916.715 43.361c-29.722 0-53.817 24.095-53.817 53.817s24.095 53.817 53.817 53.817c29.714 0 53.803-24.081 53.817-53.792v-0.001c-0.027-29.716-24.103-53.8-53.813-53.841h-0.004z" />
<glyph unicode="&#xe936;" glyph-name="ms" d="M309.541 216.095h-84.604v542.643c0 6.716-5.445 12.16-12.16 12.16v0h-84.326c-0.033 0.001-0.071 0.001-0.11 0.001-1.524 0-2.978-0.294-4.311-0.827l0.078 0.028-116.29-44.369c-4.61-1.798-7.818-6.204-7.818-11.359 0-0.001 0-0.002 0-0.003v0-71.922c0.008-6.71 5.45-12.146 12.16-12.146 1.509 0 2.954 0.275 4.288 0.778l-0.084-0.028 108.785 40.13v-455.156h-104.234c-6.716 0-12.16-5.445-12.16-12.16v0-66.57c0-6.716 5.445-12.16 12.16-12.16v0h288.381c6.716 0 12.16 5.445 12.16 12.16v0 66.64c0 0.001 0 0.001 0 0.003 0 6.631-5.306 12.022-11.905 12.158h-0.013zM719.564 586.439h-84.29c-5.752-0.003-10.57-4.001-11.832-9.368l-0.016-0.083-38.636-170.631-38.011 170.597c-1.237 5.465-6.052 9.485-11.807 9.485-0.015 0-0.029 0-0.043 0h-86.859c-0.010 0-0.023 0-0.035 0-6.697 0-12.126-5.429-12.126-12.126 0-0.012 0-0.025 0-0.037v0.002-436.916c0-0.010 0-0.023 0-0.035 0-6.697 5.429-12.126 12.126-12.126 0.012 0 0.025 0 0.037 0h47.425c6.716 0 12.16 5.445 12.16 12.16v0 292.968l37.212-149.228c1.367-5.344 6.134-9.233 11.812-9.242h51.806c5.651 0.004 10.399 3.862 11.76 9.088l0.019 0.085 38.463 151.208v-294.878c0-6.716 5.445-12.16 12.16-12.16v0h48.642c6.716 0 12.16 5.445 12.16 12.16v0 436.916c0 0 0 0 0 0 0 6.704-5.425 12.141-12.124 12.16h-0.002zM996.027 370.5c-18.762 19.457-44.925 29.325-77.759 29.325h-18.693c-0.473-0.025-1.027-0.040-1.584-0.040-8.654 0-16.493 3.492-22.183 9.145l0.002-0.002c-5.605 5.783-9.059 13.678-9.059 22.379 0 0.451 0.009 0.899 0.028 1.345l-0.002-0.064v47.461c-0.004 0.177-0.006 0.385-0.006 0.593 0 9.379 4.009 17.821 10.406 23.707l0.023 0.021c7.091 6.496 16.58 10.476 26.998 10.476 0.721 0 1.437-0.019 2.148-0.057l-0.1 0.004h95.687c6.716 0 12.16 5.445 12.16 12.16v0 47.322c0 6.716-5.445 12.16-12.16 12.16v0h-89.258c-39.158 0-69.976-9.972-91.552-29.707s-32.973-49.823-32.973-88.564v-23.592c0-37.663 10.215-67.127 30.367-87.487s47.635-30.784 81.651-30.784h18.728c9.207 0 15.67-2.328 19.701-7.192 4.369-5.607 7.005-12.751 7.005-20.51 0-0.681-0.020-1.357-0.061-2.027l0.004 0.093v-65.076c0.003-0.153 0.004-0.333 0.004-0.513 0-9.437-4.081-17.92-10.573-23.783l-0.028-0.025c-7.067-6.497-16.536-10.479-26.934-10.479-0.743 0-1.481 0.020-2.215 0.061l0.102-0.004h-95.061c-6.716 0-12.16-5.445-12.16-12.16v0-47.427c0-6.716 5.445-12.16 12.16-12.16v0h88.669c39.158 0 69.942 9.972 91.517 29.707s32.973 49.79 32.973 88.564v41.381c0.069 37.524-9.346 66.398-27.97 85.749z" />
<glyph unicode="&#xe937;" glyph-name="pile" d="M1001.766 272.122l-126.882 69.214 126.88 69.208c29.646 16.172 29.648 58.742 0.002 74.914l-126.882 69.212 126.88 69.208c29.648 16.172 29.648 58.742 0 74.914l-469.334 256c-12.736 6.946-28.126 6.946-40.862 0l-469.334-256c-29.648-16.172-29.648-58.742 0-74.914l126.88-69.208-126.882-69.212c-29.646-16.172-29.646-58.742 0.002-74.914l126.88-69.208-126.882-69.214c-29.646-16.172-29.646-58.742 0.002-74.914l469.334-256c12.736-6.946 28.126-6.946 40.862 0l469.334 256c29.648 16.172 29.648 58.742 0.002 74.914zM512 868.732l380.232-207.398-380.232-207.4-380.232 207.4 380.232 207.398zM238.21 506.066l253.36-138.19c0.748-0.408 1.506-0.786 2.27-1.146 0.050-0.024 0.098-0.052 0.148-0.074 0.352-0.164 0.712-0.304 1.068-0.458 0.622-0.27 1.244-0.53 1.876-0.768 1.392-0.526 2.804-0.978 4.234-1.354 0.124-0.032 0.248-0.076 0.372-0.106 2.486-0.63 5.018-1.022 7.56-1.196 1.934-0.132 3.876-0.132 5.81 0 2.542 0.174 5.072 0.568 7.56 1.196 0.126 0.032 0.248 0.074 0.372 0.106 1.428 0.376 2.84 0.828 4.234 1.354 0.63 0.238 1.254 0.5 1.876 0.768 0.356 0.154 0.716 0.292 1.068 0.458 0.050 0.024 0.098 0.052 0.148 0.074 0.764 0.36 1.522 0.738 2.27 1.146l253.36 138.19 106.444-58.064-380.24-207.4-380.234 207.4 106.444 58.064zM512 27.268l-380.234 207.4 106.444 58.064 253.36-138.19c0.748-0.408 1.506-0.786 2.27-1.146 0.050-0.024 0.098-0.052 0.148-0.074 0.352-0.164 0.712-0.304 1.068-0.458 0.622-0.27 1.244-0.53 1.876-0.768 1.392-0.526 2.804-0.978 4.234-1.354 0.124-0.032 0.248-0.076 0.372-0.106 0.132-0.034 0.266-0.056 0.398-0.088 6.614-1.606 13.52-1.606 20.134 0 0.132 0.032 0.266 0.054 0.398 0.088 0.126 0.032 0.248 0.074 0.372 0.106 1.428 0.376 2.84 0.828 4.234 1.354 0.63 0.238 1.254 0.5 1.876 0.768 0.356 0.154 0.716 0.292 1.068 0.458 0.050 0.024 0.098 0.052 0.148 0.074 0.764 0.36 1.522 0.738 2.27 1.146l253.36 138.19 106.444-58.064-380.24-207.4z" />
<glyph unicode="&#xe938;" glyph-name="HITBTC" d="M371.2 720.64l-51.2-183.040-320-41.6zM458.24-20.48l79.36 334.080-104.32 42.88zM320 537.6l-83.2-174.72-236.8 132.48zM458.24-20.48l-24.32 377.6-196.48 6.4zM320 537.6l113.92-180.48-196.48 6.4zM371.2 720.64l268.8-33.28-320-149.76zM931.2 803.84l-169.6-195.84 12.8 181.12zM1024 916.48l-92.8-112 72.96-8.96zM840.32 704l163.2 92.8-72.32 8.96zM537.6 313.6l8.32 224-112.64-181.12zM546.56 537.6l-112.64-181.12-113.92 181.12zM640 687.36l-94.080-149.76h-225.92zM545.92 537.6l-7.68-224 204.8-209.92zM851.2 220.8l-108.8 268.8v-384zM761.6 608l-19.2-119.040-197.12 48zM862.080 448l-119.68 41.6 19.2 119.040zM904.32 227.84l-128 208.64h74.24zM662.4 731.52l99.2-123.52 12.8 181.12zM742.4 489.6l-196.48 48 198.4-433.92zM851.2 220.8l42.88-24.32-150.4-92.8zM904.32 230.4l-161.92 259.2 108.8-268.8zM662.4 731.52l-116.48-192 216.32 70.4z" />
<glyph unicode="&#xe939;" glyph-name="search" d="M718.523 330.092c49.231 67.692 75.815 149.169 75.569 232.862 0 219.077-178.215 397.046-397.046 397.046s-397.046-178.215-397.046-397.046 178.215-397.046 397.046-397.046c83.692 0 165.169 26.338 232.862 75.569l305.477-305.477 88.615 88.615zM668.8 562.954c-0.246-149.908-121.6-271.508-271.754-271.754-150.154 0-271.754 121.6-271.754 271.754s121.6 271.754 271.754 271.754 271.754-121.6 271.754-271.754z" />
<glyph unicode="&#xe93a;" glyph-name="dropper" d="M999.685 889.76c-29.227 44.607-80.291 71.476-133.37 70.198-27.885-0.688-55.248-9.32-79.174-24.965-36.663-22.679-49.774-44.311-62.458-65.236-8.198-13.522-16.671-27.501-34.727-45.927-4.512-4.602-9.848-4.848-12.626-4.59-2.802 0.266-8.040 1.518-11.65 6.94-13.69 20.565-35.339 34.731-60.966 39.889-25.613 5.152-51.054 0.47-71.642-13.182l-39.025-25.875c-20.611-13.668-34.813-35.297-39.987-60.906-5.176-25.621-0.478-51.066 13.228-71.654l3.124-4.692-292.829-194.4c-30.441-20.103-38.321-54.91-45.275-85.621-5.51-24.343-10.716-47.337-24.517-56.492-18.407-12.214-23.425-37.039-11.212-55.446 7.7-11.604 20.409-17.887 33.365-17.885 7.594 0 15.276 2.16 22.079 6.674 13.986 9.282 37.247 5.088 61.872 0.648 30.889-5.566 65.902-11.878 96.275 8.278l199.994 133.176c18.387 12.244 23.367 37.075 11.124 55.46-12.246 18.387-37.075 23.371-55.462 11.124l-199.704-132.982c-5.71-2.144-25.919 1.49-38.037 3.676-7.194 1.294-14.958 2.696-23.119 3.828 2.082 7.778 3.786 15.3 5.366 22.279 2.74 12.098 7.308 32.279 11.56 36.681l292.849 194.41 102.011-153.237c13.692-20.569 35.343-34.735 60.962-39.887 6.792-1.368 13.572-2.042 20.251-2.042 18.511 0 36.265 5.188 51.394 15.22l39.029 25.877c20.609 13.67 34.809 35.297 39.985 60.908 5.174 25.619 0.476 51.064-13.232 71.656l-3.14 4.716c-3.538 5.312-2.73 10.504-1.932 13.126 0.796 2.62 3.012 7.382 8.916 9.834 19.851 8.244 34.817 11.746 50.66 15.456 25.095 5.876 51.046 11.952 85.957 35.103 42.273 28.031 67.832 75.004 68.374 125.654 0.324 30.341-8.076 59.46-24.293 84.211zM911.394 746.563c-22.933-15.208-37.673-18.655-59.984-23.879-17.433-4.082-37.193-8.708-63.102-19.465-26.481-10.996-46.449-33.033-54.78-60.458-8.334-27.429-4-56.846 11.888-80.713l3.14-4.716c1.896-2.85 7.434-13.346-4.376-21.559l-39.025-25.875c-2.896-1.92-15.164-5.908-21.809 4.368l-149.465 224.523c-1.896 2.848-7.884 13.196 4.378 21.557l39.025 25.875c10.712 5.76 19.897-1.494 21.809-4.368 16.061-24.127 41.843-39.529 70.732-42.253 28.841-2.712 57.012 7.574 77.27 28.241 24.533 25.035 36.437 44.671 46.001 60.448 10.586 17.463 15.9 26.229 36.491 38.895l1.076 0.686c11.526 7.606 24.537 11.796 37.629 12.12 25.579 0.634 50.302-12.422 64.482-34.065 7.596-11.596 11.37-24.889 11.214-39.517-0.256-24.113-12.44-46.481-32.591-59.844zM149.569 214.939c-7.58 8.314-18.309 13.052-29.559 13.052s-21.981-4.738-29.559-13.052c-0.878-0.962-21.721-23.895-42.773-52.804-32.519-44.655-47.665-78.37-47.665-106.101 0-66.188 53.83-120.034 119.996-120.034s119.996 53.846 119.996 120.034c0 27.731-15.146 61.446-47.665 106.101-21.051 28.907-41.897 51.84-42.773 52.804zM120.008 15.998c-22.055 0-39.999 17.959-39.999 39.969 0.006 0.156 0.966 16.065 32.549 59.37 2.494 3.422 4.994 6.756 7.452 9.964 2.322-3.036 4.686-6.184 7.052-9.42 31.521-43.099 32.907-59.3 32.947-59.898-0.030-22.051-17.961-39.985-40.001-39.985z" />
<glyph unicode="&#xe93b;" glyph-name="COINBASE" d="M176.64 801.92h174.080v-707.84h-174.080zM424.96 960h174.080v-1024h-174.080zM673.28 801.92h174.080v-707.84h-174.080z" />
<glyph unicode="&#xe93c;" glyph-name="DERIBIT" d="M1023.989 444.429c-3.542 151.386-76.035 235.989-147.614 282.776-53.656 34.933-119.314 55.707-189.824 55.707-0.886 0-1.771-0.003-2.657-0.010l0.137 0.001h-17.138v164.238h-161.325v-164.238h-175.664v164.238h-161.382v-164.238h-168.522l0.743-168.522h167.095v-332.076h-167.838v-163.495h168.522v-169.951h161.382v169.951h175.664v-169.951h161.382v169.951h28.564c0.596-0.004 1.3-0.006 2.003-0.006 58.361 0 113.262 14.811 161.15 40.877l-1.771-0.883c171.379 93.116 167.095 285.632 167.095 285.632zM840.099 367.764c-10.859-20.925-25.419-38.477-42.973-52.419l-0.329-0.253c-27.012-20.89-61.362-33.485-98.653-33.485-0.584 0-1.168 0.003-1.75 0.009l0.089-0.001h-366.123v332.305l367.095 0.915c0.563 0.007 1.227 0.010 1.891 0.010 17.464 0 34.33-2.55 50.251-7.298l-1.242 0.318c39.167-11.777 70.91-37.923 89.751-72.169l0.394-0.782c13.703-24.555 21.771-53.87 21.771-85.070 0-30.008-7.463-58.273-20.635-83.039l0.464 0.957z" />
<glyph unicode="&#xe93d;" glyph-name="trash" d="M938.666 789.334h-213.334v128c0.002 23.552-19.070 42.666-42.666 42.666h-341.332c-23.594 0-42.666-19.114-42.666-42.666v-128h-213.334c-23.594 0-42.666-19.114-42.666-42.666s19.070-42.668 42.666-42.668h42.666v-640c0-70.57 57.43-128 128-128h512c70.57 0 128 57.43 128 128v640h42.666c23.594 0 42.666 19.114 42.666 42.666s-19.070 42.668-42.666 42.668zM384 874.666h256v-85.334h-256v85.334zM810.666 64c0-23.51-19.114-42.666-42.666-42.666h-512c-23.552 0-42.666 19.158-42.666 42.666v640h597.334v-640zM384 618.666c-23.594 0-42.666-19.114-42.666-42.666v-384c0-23.552 19.072-42.666 42.666-42.666s42.666 19.114 42.666 42.666v384c0 23.552-19.072 42.666-42.666 42.666zM640 618.666c-23.594 0-42.666-19.114-42.666-42.666v-384c0-23.552 19.072-42.666 42.666-42.666s42.666 19.114 42.666 42.666v384c0 23.552-19.072 42.666-42.666 42.666z" />
<glyph unicode="&#xe93e;" glyph-name="click" d="M694.005-64c-44.858-0.002-88.121 25.026-108.959 67.597l-60.313 112.927-34.214-65.309c-0.876-1.676-1.874-3.288-2.978-4.822-22.454-31.16-59.399-42.234-86.751-42.234-0.22 0-0.44 0-0.662 0.002-30.568 0.202-61.007 13.318-83.505 35.99-23.366 23.544-36.232 54.799-36.232 88.011v517.913c0 47.238 26.616 88.943 69.459 108.839 42.436 19.708 90.951 13.444 126.939-16.298l263.497-196.224c17.718-13.194 21.384-38.254 8.192-55.973-13.196-17.718-38.254-21.384-55.973-8.19l-264.385 196.886c-0.654 0.488-1.294 0.994-1.918 1.522-18.094 15.28-37.22 8.24-42.656 5.718-5.432-2.522-23.152-12.592-23.152-36.28v-517.915c0-25.774 21.218-43.876 40.264-44 0.060 0 0.124 0 0.184 0 7.784 0 16.342 3.224 20.606 7.596l67.517 128.877c6.876 13.128 20.452 21.378 35.272 21.438 0.054 0 0.108 0 0.16 0 14.76 0 28.326-8.128 35.284-21.156l96.303-180.312c0.272-0.508 0.532-1.022 0.78-1.542 9.6-20.004 33.796-28.708 53.933-19.386 10.026 4.636 17.59 12.916 21.304 23.316 3.602 10.082 3.14 20.916-1.282 30.62l-97.193 172.954c-6.96 12.386-6.828 27.534 0.348 39.796 7.174 12.262 20.316 19.798 34.524 19.798h137.137c23.208 1.186 32.474 19.462 34.774 25.078 2.36 5.758 8.77 25.916-7.792 43.482-15.154 16.074-14.41 41.388 1.662 56.545 16.074 15.156 41.39 14.408 56.545-1.664 32.82-34.81 41.872-84.119 23.618-128.685-18.152-44.32-58.943-72.955-106.451-74.729-0.496-0.020-0.994-0.028-1.492-0.028h-69.639l64.393-114.587c0.394-0.704 0.77-1.418 1.122-2.144 14.262-29.412 16.060-62.565 5.064-93.347-10.994-30.784-33.386-55.295-63.055-69.017-16.246-7.506-33.378-11.062-50.28-11.064zM325.619 802.914c19.372 10.622 26.462 34.936 15.84 54.307l-34 62.001c-10.622 19.37-34.932 26.46-54.305 15.838s-26.462-34.936-15.84-54.307l34-62.001c7.276-13.268 20.972-20.774 35.108-20.774 6.5 0 13.096 1.588 19.196 4.936zM241.032 711.952c8.854 20.24-0.376 43.826-20.614 52.681l-64.001 28c-20.24 8.856-43.824-0.376-52.681-20.614-8.854-20.24 0.376-43.826 20.614-52.681l64.001-28c5.218-2.284 10.658-3.364 16.012-3.364 15.41 0.002 30.096 8.958 36.668 23.978zM490.337 841.337l22 66.001c6.986 20.958-4.34 43.612-25.298 50.596-20.95 6.99-43.612-4.34-50.596-25.298l-22-66.001c-6.986-20.958 4.34-43.612 25.298-50.596 4.196-1.4 8.46-2.064 12.654-2.064 16.746 0 32.356 10.602 37.942 27.362zM596.198 739.842l54.001 40c17.752 13.15 21.482 38.2 8.334 55.953-13.15 17.752-38.202 21.482-55.953 8.334l-54.001-40c-17.752-13.15-21.482-38.2-8.334-55.953 7.848-10.594 19.932-16.194 32.174-16.194 8.274 0 16.62 2.558 23.778 7.86zM159.242 514.844l60.001 24c20.512 8.204 30.488 31.484 22.284 51.995-8.206 20.514-31.488 30.49-51.995 22.284l-60.001-24c-20.512-8.204-30.488-31.484-22.284-51.995 6.256-15.64 21.276-25.156 37.15-25.156 4.946 0 9.972 0.924 14.844 2.872z" />
<glyph unicode="&#xe93f;" glyph-name="BYBIT" d="M711.667 586.869s-52.482 16.64-55.682 14.721l-255.369 335.371s-49.281-22.401-52.482-24.961l215.688-267.53c-3.84-4.48-52.482-4.48-56.962-4.48l-227.848 225.928-39.041-44.801 188.807-181.126c-3.84-4.48-46.722-21.761-50.562-26.881l-181.766 138.245c0-3.201-22.401-49.281-24.321-52.482l147.205-104.964c0-4.48-37.121-34.562-40.322-39.681l-110.084 58.242s0-53.762 0-56.322l64.002-40.322-4.48-9.601-58.882 11.52 42.241-32.001c-84.483-117.764-64.642-306.571 43.521-436.495l-40.322 112.644h8.321l74.882-169.606s50.562-16.64 54.402-15.361l-120.324 263.049s14.721 37.121 17.28 38.401l185.606-337.932c3.84 0 56.962-6.4 64.002-3.84l-222.728 373.132s57.602-28.801 64.002-26.241l234.888-343.052c3.201 0 52.482 16.64 55.042 19.201l-224.007 302.73c3.84 0 60.802-11.52 64.002-8.321l231.048-256.009s42.881 35.202 45.442 38.401l-197.127 206.087c3.84 4.48 52.482 13.441 56.322 17.92l192.006-159.365 33.921 46.722-162.566 128.004c0 5.12 42.881 30.081 46.082 35.202l135.045-82.563c0 3.201 7.040 53.762 8.321 56.322l-91.523 61.443c0 3.84 30.081 34.562 32.001 37.761l59.522-12.16-43.521 32.001c82.563 108.804 58.882 320.011-52.482 448.016l56.322-147.845s-32.001-4.48-35.202-6.4l-101.763 216.328c-3.201 0-56.962 23.040-60.802 21.121l151.046-303.37c-3.201 0-39.681 4.48-42.881 0l-191.366 328.331c-3.84 0-54.402-6.4-57.602-8.961z" />
<glyph unicode="&#xe940;" glyph-name="BITSTAMP" d="M589.796 149.76c3.753-0.139 8.16-0.219 12.587-0.219 47.766 0 93.374 9.245 135.129 26.044l-2.436-0.866c46.738 19.521 84.577 52.614 109.502 94.317l0.578 1.043c18.054 30.185 28.729 66.585 28.729 105.479 0 90.552-57.864 167.589-138.633 196.153l-1.456 0.449c32.582 15.579 59.384 38.686 78.924 67.167l0.436 0.673c19.789 30.525 31.555 67.848 31.555 107.918 0 12.985-1.235 25.681-3.595 37.977l0.2-1.255c-8.182 42.734-29.18 79.601-58.777 107.424l-0.103 0.096c-45.043 39.404-103.463 64.529-167.652 67.813l-0.668 0.027h-460.8v-106.88c20.907-0.009 40.537-5.465 57.552-15.026l-0.592 0.306c35.471-19.002 60.086-54.245 63.963-95.518l0.037-0.482c0.118-2.019 0.186-4.379 0.186-6.756 0-31.662-11.975-60.526-31.642-82.312l0.096 0.108c-21.214-24.007-52.077-39.067-86.457-39.067-0.88 0-1.758 0.010-2.633 0.030l0.13-0.002v-97.28c23.983-1.293 45.934-8.997 64.462-21.412l-0.462 0.292c33.728-21.696 55.749-59.039 55.749-101.526 0-1.433-0.025-2.86-0.075-4.28l0.006 0.206c0.212-2.802 0.333-6.070 0.333-9.366 0-19.806-4.368-38.593-12.192-55.448l0.339 0.814c-19.461-41.575-60.763-69.954-108.742-70.4h-0.058v-108.8zM711.396 360.96c-9.174-39.62-37.288-71.116-74.062-84.852l-0.818-0.268c-20.106-6.116-43.215-9.638-67.146-9.638-6.326 0-12.594 0.246-18.796 0.729l0.821-0.051h-161.92v245.12h134.4c13.707 1.226 29.652 1.926 45.76 1.926s32.053-0.699 47.805-2.069l-2.045 0.143c33.544-5.823 61.8-24.846 79.728-51.413l0.272-0.427c12.405-19.368 19.774-42.997 19.774-68.346 0-10.956-1.376-21.59-3.966-31.74l0.192 0.886zM391.396 842.88h172.8c2.094 0.122 4.544 0.192 7.010 0.192 36.515 0 69.46-15.29 92.779-39.818l0.051-0.054c16.591-19.658 26.674-45.278 26.674-73.253 0-9.204-1.091-18.153-3.152-26.724l0.158 0.777c-8.834-40.677-39.359-72.483-78.594-83.025l-0.766-0.175c-16.708-4.019-35.891-6.324-55.612-6.324-5.879 0-11.71 0.205-17.486 0.608l0.778-0.044h-147.2v228.48zM598.116 53.12h-448v-115.2l426.88-1.92h294.4v115.2h-275.2z" />
<glyph unicode="&#xe942;" glyph-name="FTX" d="M289.28 896h734.72v-240h-734.72zM0 566.4c79.36 0 158.080 0 237.44 0v-236.8h-237.44zM289.92 566.4q264.96 0 529.92 0v-236.8h-529.92c-0.64 78.72-0.64 158.080 0 236.8zM289.92 240h236.16c0-78.72 0-158.080 0-236.8-78.080-3.2-157.44-3.2-236.16-3.2-0.64 81.92-0.64 161.28 0 240z" />
<glyph unicode="&#xe943;" glyph-name="menu" d="M121.905 569.905c-67.218 0-121.905-54.686-121.905-121.905s54.686-121.905 121.905-121.905c67.218 0 121.905 54.686 121.905 121.905s-54.686 121.905-121.905 121.905zM512 569.905c-67.218 0-121.905-54.686-121.905-121.905s54.686-121.905 121.905-121.905c67.218 0 121.905 54.686 121.905 121.905s-54.686 121.905-121.905 121.905zM902.095 569.905c-67.218 0-121.905-54.686-121.905-121.905s54.686-121.905 121.905-121.905c67.218 0 121.905 54.686 121.905 121.905s-54.686 121.905-121.905 121.905z" />
<glyph unicode="&#xe945;" glyph-name="stamp" d="M802.999 459.388v300.612c0 66.168-53.832 120-120 120h-130.854c-16.51 46.562-60.996 80-113.146 80s-96.636-33.438-113.146-80h-132.854c-66.168 0-120-53.832-120-120v-624c0-66.168 53.832-120 120-120h258.878c16.51-46.556 60.978-80 113.146-80l265.978 0.148c66.168 0 120 53.826 120 119.984v254.412l-148.002 148.844zM814.711 334.15h-51.712c-22.056 0-40 17.944-40 40v52.234l91.712-92.234zM318.999 800h80v40c0 22.056 17.944 40 40 40s40-17.944 40-40v-40h80v-78h-240v78zM444.999 442.014v-346.014h-252c-22.056 0-40 17.944-40 40v624c0 22.056 17.944 40 40 40h46v-158h400v158h44c22.056 0 40-17.944 40-40v-220.158l-22.032 22.158h-135.968c-66.168 0-120-53.826-120-119.986zM870.999 56.132c0-22.048-17.944-39.984-40.022-39.984l-265.978-0.148c-22.056 0-40 17.938-40 39.986v386.028c0 22.048 17.944 39.986 40 39.986h78v-107.852c0-66.168 53.832-120 120-120h108v-198.016z" />
<glyph unicode="&#xe947;" glyph-name="copy-paste" d="M921.6 960.001h-614.401c-56.473 0-102.4-45.926-102.4-102.4v-102.4h-102.4c-56.473 0-102.4-45.926-102.4-102.4v-614.401c0-56.473 45.926-102.4 102.4-102.4h614.401c56.473 0 102.4 45.926 102.4 102.4v102.4h102.4c56.473 0 102.4 45.926 102.4 102.4v614.401c0 56.473-45.926 102.4-102.4 102.4zM716.801 38.4h-614.401v614.401h102.4v-409.6c0-56.473 45.926-102.4 102.4-102.4h409.6zM921.447 243.199h-614.247v614.401h614.401z" />
<glyph unicode="&#xe948;" glyph-name="dashboard" d="M1023.658-7.11c0-31.403-25.487-56.889-56.889-56.889h-284.102c-31.403 0-56.889 25.487-56.889 56.889v227.214c0 31.403 25.487 56.889 56.889 56.889h284.102c31.403 0 56.889-25.487 56.889-56.889zM511.659-7.11c0-31.403-25.487-56.889-56.889-56.889h-397.881c-31.403 0-56.889 25.487-56.889 56.889v227.214c0 31.403 25.487 56.889 56.889 56.889h397.881c31.403 0 56.889-25.487 56.889-56.889zM739.556 163.215v-113.436h170.325v113.436zM113.778 163.215v-113.436h284.102v113.436zM511.659 448c0-31.403-25.487-56.889-56.889-56.889h-397.881c-31.403 0-56.889 25.487-56.889 56.889v454.769c0 31.403 25.487 56.889 56.889 56.889h397.881c31.403 0 56.889-25.487 56.889-56.889zM682.154 391.111c-31.403 0-56.889 25.487-56.889 56.889s25.487 56.889 56.889 56.889h284.956c31.403 0 56.889-25.487 56.889-56.889s-25.487-56.889-56.889-56.889h-284.956zM113.778 845.881v-340.992h284.102v340.992zM682.154 618.666c-31.403 0-56.889 25.487-56.889 56.889s25.487 56.889 56.889 56.889h284.956c31.403 0 56.889-25.487 56.889-56.889s-25.487-56.889-56.889-56.889h-284.956zM682.154 845.881c-31.403 0-56.889 25.487-56.889 56.889s25.487 56.889 56.889 56.889h284.956c31.403 0 56.889-25.487 56.889-56.889s-25.487-56.889-56.889-56.889h-284.956z" />
<glyph unicode="&#xe949;" glyph-name="more" d="M390.095 57.905c0-67.218 54.686-121.905 121.905-121.905s121.905 54.686 121.905 121.905c0 67.218-54.686 121.905-121.905 121.905s-121.905-54.686-121.905-121.905zM390.095 448c0-67.218 54.686-121.905 121.905-121.905s121.905 54.686 121.905 121.905c0 67.218-54.686 121.905-121.905 121.905s-121.905-54.686-121.905-121.905zM390.095 838.095c0-67.218 54.686-121.905 121.905-121.905s121.905 54.686 121.905 121.905c0 67.218-54.686 121.905-121.905 121.905s-121.905-54.686-121.905-121.905z" />
<glyph unicode="&#xe94a;" glyph-name="bull" d="M1022.687 680.866c13.512 130.961-80.64 201.022-132.318 219.771-11.458 4.167-25.571 0.307-31.241-10.497-5.534-10.536-3.909-22.447 5.397-29.592 2.689-4.289 15.167-27.962 11.775-93.289-0.63-12.102-2.303-44.251-67.972-44.256-7.183 0-13.786 0.439-19.178 0.971-4.675 9.755-12.336 22.535-24.043 40.313-19.451 29.538-49.936 45.149-88.165 45.149-22.111 0-46.954-5.646-68.162-15.494-22.677-10.531-75.77-16.821-96.788-18.597-21.018 1.771-74.106 8.062-96.783 18.597-21.208 9.848-46.051 15.494-68.162 15.494-38.229 0-68.714-15.611-88.165-45.149-11.702-17.777-19.368-30.558-24.043-40.308-5.392-0.537-12-0.976-19.183-0.976-65.664 0-67.338 32.154-67.967 44.256-3.392 65.327 9.086 88.999 11.775 93.289 9.306 7.149 10.931 19.056 5.397 29.592-5.67 10.799-19.773 14.664-31.241 10.497-51.668-18.749-145.821-88.814-132.308-219.775 9.355-90.639 49.858-127.082 84.485-141.497-28.045-26.839-58.134-62.746-59.003-93.874-0.595-21.452 5.017-38.41 16.679-50.399 12.346-12.697 30.167-18.866 54.469-18.866 11.053 0 23.741 1.249 38.79 3.811 34.53 5.871 68.65 14.337 90.063 20.061 11.307-30.748 32.915-87.74 51.4-126.399 19.666-41.128 29.274-79.825 32.066-92.284-3.699-22.53-12.995-102.141 30.88-146.011 34.447-34.452 102.395-41.684 153.331-41.684 8.598 0 14.854 0.244 17.524 0.366 2.674-0.122 8.93-0.366 17.524-0.366 50.936 0 118.889 7.232 153.336 41.684 43.875 43.87 34.579 123.476 30.88 146.011 2.796 12.483 12.4 51.166 32.066 92.284 18.485 38.658 40.093 95.656 51.4 126.399 21.413-5.724 55.533-14.186 90.063-20.061 15.050-2.562 27.742-3.811 38.79-3.811 24.307 0 42.123 6.173 54.469 18.866 11.663 11.99 17.275 28.947 16.679 50.404-0.869 31.124-30.958 67.030-59.003 93.869 34.633 14.415 75.131 50.853 84.485 141.502zM288.145 464.316c0 20.149 9.081 38.898 24.917 51.439 9.218 7.31 22.34 6.988 31.212-0.752l61.003-53.327c8.857-7.749 10.926-20.715 4.919-30.831-11.79-19.837-33.408-32.163-56.416-32.163-36.189-0.005-65.634 29.445-65.634 65.634zM412.192 61.401c-4.387-1.708-8.994-2.572-13.683-2.572-22.399 0-41.962 19.471-48.682 48.457-7.72 33.3 3.884 64.156 27.591 73.364 4.397 1.713 9.003 2.572 13.683 2.572 22.399 0 41.962-19.471 48.682-48.452 7.72-33.305-3.884-64.161-27.591-73.369zM674.876 107.282c-6.72-28.977-26.283-48.457-48.682-48.457 0 0 0 0-0.005 0-4.685 0.005-9.286 0.869-13.683 2.577-23.702 9.203-35.306 40.059-27.586 73.364 6.72 28.977 26.283 48.452 48.682 48.452 4.68 0 9.282-0.864 13.678-2.567 23.711-9.208 35.316-40.064 27.596-73.369zM670.216 398.676c-23.009 0-44.627 12.322-56.416 32.163-6.007 10.116-3.943 23.082 4.919 30.831l61.003 53.327c8.867 7.739 21.989 8.062 31.212 0.752 15.835-12.541 24.917-31.29 24.917-51.439 0-36.184-29.445-65.634-65.634-65.634z" />
<glyph unicode="&#xe94b;" glyph-name="resize-height" d="M85.419 917.503c-56.944 0-56.944-85.418 0-85.418h853.25c56.944 0 56.944 85.418 0 85.418zM511.252 746.753c-11.037-0.323-21.552-4.757-29.333-12.578l-120.917-120.666c-38.563-40.323 20.23-99.036 60.5-60.416l90.333 90.333 90.75-90.333c40.247-43.626 103.958 20.349 60.167 60.416l-120.667 120.666c-8.149 8.192-19.275 12.74-30.833 12.578zM511.252 576.669c-23.598-0.484-42.379-19.903-41.917-43.5v-170.334c0-56.944 85.417-56.944 85.417 0v170.334c0.476 24.218-19.281 43.976-43.5 43.5zM633.252 356.335c-11.611-0.084-22.684-4.902-30.667-13.336l-90.75-90.749-90.333 90.749c-8.033 8.257-19.063 12.917-30.583 12.917-38.571 0.323-57.71-46.67-29.917-73.417l120.917-120.666c16.643-16.545 43.523-16.545 60.167 0l120.667 120.666c28.394 26.558 9.377 74.154-29.5 73.833zM85.419-21.414h853.25c58.161-1.29 58.161 86.619 0 85.334h-855.458c-57.948 0-53.512-86.996 2.208-85.334z" />
<glyph unicode="&#xe94c;" glyph-name="add-photo" d="M307.503 751.843c24.005 24.005 56.562 37.49 90.51 37.49h156.654c23.565 0 42.667-19.103 42.667-42.667s-19.102-42.667-42.667-42.667h-156.654c-11.316 0-22.168-4.495-30.17-12.497l-35.346-35.346c-24.005-24.005-56.562-37.49-90.51-37.49h-71.32c-23.564 0-42.667-19.103-42.667-42.667v-426.667c0-23.565 19.103-42.667 42.667-42.667h597.333c23.565 0 42.667 19.102 42.667 42.667v298.667c0 23.565 19.102 42.667 42.667 42.667s42.667-19.102 42.667-42.667v-298.667c0-70.694-57.306-128-128-128h-597.333c-70.692 0-128 57.306-128 128v426.667c0 70.692 57.308 128 128 128h71.32c11.316 0 22.168 4.495 30.17 12.497zM256 362.667c0 117.82 95.513 213.333 213.333 213.333s213.333-95.514 213.333-213.333-95.514-213.333-213.333-213.333c-117.821 0-213.333 95.514-213.333 213.333zM469.333 490.667c-70.692 0-128-57.306-128-128s57.308-128 128-128c70.694 0 128 57.306 128 128s-57.306 128-128 128zM682.667 746.667c0 23.564 19.102 42.667 42.667 42.667h256c23.565 0 42.667-19.103 42.667-42.667s-19.102-42.667-42.667-42.667h-256c-23.565 0-42.667 19.103-42.667 42.667zM853.333 917.333c23.565 0 42.667-19.103 42.667-42.667v-256c0-23.564-19.102-42.667-42.667-42.667s-42.667 19.103-42.667 42.667v256c0 23.564 19.102 42.667 42.667 42.667z" />
<glyph unicode="&#xe94d;" glyph-name="candlestick" d="M320 688v-352c0-8.832-7.168-16-16-16h-48v-112c0-8.832-7.168-16-16-16h-32c-8.832 0-16 7.168-16 16v112h-48c-8.832 0-16 7.168-16 16v352c0 8.832 7.168 16 16 16h48v112c0 8.832 7.168 16 16 16h32c8.832 0 16-7.168 16-16v-112h48c8.832 0 16-7.168 16-16zM608 400v-256c0-8.832-7.168-16-16-16h-48v-112c0-8.832-7.168-16-16-16h-32c-8.832 0-16 7.168-16 16v112h-48c-8.832 0-16 7.168-16 16v256c0 8.832 7.168 16 16 16h48v112c0 8.832 7.168 16 16 16h32c8.832 0 16-7.168 16-16v-112h48c8.832 0 16-7.168 16-16zM896 752v-480c0-8.832-7.168-16-16-16h-48v-112c0-8.832-7.168-16-16-16h-32c-8.832 0-16 7.168-16 16v112h-48c-8.832 0-16 7.168-16 16v480c0 8.832 7.168 16 16 16h48v112c0 8.832 7.168 16 16 16h32c8.832 0 16-7.168 16-16v-112h48c8.832 0 16-7.168 16-16z" />
<glyph unicode="&#xe94e;" glyph-name="refresh" d="M1014.585 357.254l-98.897 139.672c-16.347 23.024-48.25 28.6-71.398 12.2l-139.646-98.876c-23.051-16.322-28.549-48.275-12.2-71.351 16.347-23.051 48.25-28.574 71.398-12.2l46.771 33.116c-10.045-34.017-25.4-66.37-46.822-95.615-59.601-81.376-151.351-128.024-251.798-128.024-91.176 0-177.124 39.674-235.772 108.85-18.247 21.499-50.549 24.151-72.176 5.924-21.549-18.299-24.223-50.6-5.924-72.176 78.15-92.148 192.545-144.997 313.872-144.997 131.5 0 256.497 63.524 334.398 169.92 28.303 38.635 48.686 81.335 62.054 126.237l22.543-31.84c9.999-14.1 25.8-21.626 41.851-21.626 10.199 0 20.551 3.052 29.547 9.426 23.051 16.338 28.549 48.291 12.2 71.362zM331.546 557.104c-16.374 23.096-48.327 28.574-71.378 12.222l-46.781-33.116c10.035 34.027 25.384 66.37 46.781 95.59 59.601 81.351 151.376 128.024 251.823 128.024 91.201 0 177.15-39.674 235.797-108.85 18.299-21.524 50.6-24.223 72.15-5.924 21.601 18.299 24.248 50.6 5.95 72.176-78.15 92.148-192.55 144.997-313.897 144.997-131.475 0-256.497-63.524-334.418-169.92-28.287-38.625-48.659-81.335-62.022-126.263l-22.554 31.861c-16.374 23.101-48.302 28.574-71.372 12.227s-28.549-48.302-12.227-71.372l98.876-139.672c9.999-14.1 25.8-21.626 41.851-21.626 10.225 0 20.551 3.052 29.527 9.401l139.672 98.876c23.071 16.347 28.544 48.296 12.222 71.372z" />
<glyph unicode="&#xe94f;" glyph-name="music-note" d="M269.259-64c104.032 0 188.676 84.645 188.676 188.676v529.143l386.386 179.064v-349.782c-26.667 14.449-57.18 22.671-89.58 22.671-104.032 0-188.676-84.645-188.676-188.676s84.645-188.676 188.676-188.676 188.676 84.645 188.676 188.676v593.352c0 16.903-8.629 32.662-22.871 41.758-14.274 9.096-32.209 10.323-47.516 3.194l-485.482-224.983c-17.5-8.114-28.709-25.645-28.709-44.952v-394.782c-26.667 14.449-57.18 22.671-89.58 22.671-104.032 0-188.676-84.645-188.676-188.676s84.645-188.676 188.676-188.676zM754.741 227.515c-49.387 0-89.58 40.194-89.58 89.58s40.194 89.58 89.58 89.58 89.58-40.194 89.58-89.58-40.193-89.58-89.58-89.58zM269.259 214.258c49.387 0 89.58-40.194 89.58-89.58s-40.194-89.58-89.58-89.58-89.58 40.194-89.58 89.58 40.193 89.58 89.58 89.58z" />
<glyph unicode="&#xe951;" glyph-name="PHEMEX" d="M149.358 656.217v-479.467c0-100.249 176.575-240.75 293.417-240.75v479.486c0 100.268-176.575 240.73-293.417 240.73zM581.225 960v-479.467c0-100.249 176.575-240.75 293.417-240.75v479.486c0 100.268-176.594 240.73-293.437 240.73z" />
</font>
</defs>
</svg>
