<svg xmlns="http://www.w3.org/2000/svg" viewBox="0 0 16 16"><path d="M5.8 3.74L5 6.6l-5 .65z" fill="#57bae5"/><path d="M7.16 15.32L8.4 10.1l-1.63-.67z" fill="#005472"/><path d="M5 6.6L3.7 9.33 0 7.26z" fill="#34afe4"/><path d="M7.16 15.32l-.38-5.9-3.07-.1z" fill="#0076a7"/><path d="M5 6.6l1.78 2.82-3.07-.1z" fill="#009de2"/><path d="M5.8 3.74l4.2.52L5 6.6zm8.75-1.3L11.9 5.5l.2-2.83zM16 .68l-1.45 1.75 1.14.14z" fill="#7acdf2"/><path d="M13.13,4l2.55-1.45-1.13-.14Z" fill="#00abe7"/><path d="M8.4 10.1l.13-3.5-1.76 2.83z" fill="#0076a7"/><path d="M8.54 6.6L6.78 9.43 5 6.6z" fill="#008dbe"/><path d="M10,4.26,8.53,6.6H5Z" fill="#57bae5"/><path d="M8.53 6.6l-.12 3.5 3.2 3.28z" fill="#00698d"/><path d="M13.3 11.55l-1.7-4.2v6zM11.9 5.5l-.3 1.86-3.08-.75z" fill="#09a1cb"/><path d="M13.47 8l-1.87-.65.3-1.86z" fill="#8bdaff"/><path d="M14.13,11.44l-2-3.26h1.16Z" fill="#7acdf2"/><path d="M10.35 3.57L11.9 5.5l.2-2.83z" fill="#57bae5"/><path d="M11.6 7.35L8.53 6.6l3.1 6.78z" fill="#008dbe"/><path d="M13.3,11.55l.67.38-2.35,1.45Z" fill="#0076a7"/><path d="M14.13,11.4,11.6,7.35l1.7,4.2Z" fill="#57bae5"/><path d="M10.35 3.57l-1.82 3 3.38-1.1z" fill="#7acdf2"/></svg>