<svg xmlns="http://www.w3.org/2000/svg" viewBox="0 0 16 16"><path d="M7.5 1.73a8 8 0 0 1 8 5.27 7.75 7.75 0 0 1 .5 2.65V13a1.89 1.89 0 0 1 0 .41 1.11 1.11 0 0 1-.63.77 1.15 1.15 0 0 1-1.63-1v-3.13a1.53 1.53 0 0 0-.14-.87 1.15 1.15 0 0 0-2.14.54v3.16a1.94 1.94 0 0 1 0 .59 1.12 1.12 0 0 1-.79.77 1.14 1.14 0 0 1-1.29-.53 1.55 1.55 0 0 1-.15-.9V9.67a1.14 1.14 0 0 0-1.93-.78 1.16 1.16 0 0 0-.35.83v3a1.93 1.93 0 0 1-.07.76 1.12 1.12 0 0 1-1.06.75 1.13 1.13 0 0 1-1.09-.75 2 2 0 0 1-.06-.69v-3.1a1.15 1.15 0 0 0-.92-1.09 1.14 1.14 0 0 0-1.21.55 1.2 1.2 0 0 0-.16.57v3.43a1.12 1.12 0 0 1-.4.87 1.14 1.14 0 0 1-1.42 0 1.07 1.07 0 0 1-.47-.9V9.68A8 8 0 0 1 3 3.46a7.94 7.94 0 0 1 4.5-1.73z" fill="#5841d8"/></svg>