<svg xmlns="http://www.w3.org/2000/svg" data-name="Layer 1" viewBox="0 0 70 70"><circle cx="35" cy="35" r="35" fill="#010203"/><path fill="#fff" d="M40.4 28.8H29.6a.8.8 0 0 0-.8.8v10.8a.8.8 0 0 0 .8.8h10.8a.8.8 0 0 0 .8-.8V29.6a.8.8 0 0 0-.8-.8ZM28 16.3H17a.8.8 0 0 0-.8.8V28a.8.8 0 0 0 .8.9H28a.8.8 0 0 0 .9-.9V17.1a.8.8 0 0 0-.9-.8ZM52.9 16.3H42a.8.8 0 0 0-.9.8V28a.8.8 0 0 0 .9.9h10.8a.8.8 0 0 0 .8-.9V17.1a.8.8 0 0 0-.8-.8ZM28 41.2H17a.8.8 0 0 0-.8.9v10.8a.8.8 0 0 0 .8.8H28a.8.8 0 0 0 .9-.8V42a.8.8 0 0 0-.9-.9ZM52.9 41.2H42a.8.8 0 0 0-.9.9v10.8a.8.8 0 0 0 .9.8h10.8a.8.8 0 0 0 .8-.8V42a.8.8 0 0 0-.8-.9Z"/><path fill="#fff" d="M40.4 28.8H29.6a.8.8 0 0 0-.8.8v10.8a.8.8 0 0 0 .8.8h10.8a.8.8 0 0 0 .8-.8V29.6a.8.8 0 0 0-.8-.8ZM28 16.3H17a.8.8 0 0 0-.8.8V28a.8.8 0 0 0 .8.9H28a.8.8 0 0 0 .9-.9V17.1a.8.8 0 0 0-.9-.8ZM52.9 16.3H42a.8.8 0 0 0-.9.8V28a.8.8 0 0 0 .9.9h10.8a.8.8 0 0 0 .8-.9V17.1a.8.8 0 0 0-.8-.8ZM28 41.2H17a.8.8 0 0 0-.8.9v10.8a.8.8 0 0 0 .8.8H28a.8.8 0 0 0 .9-.8V42a.8.8 0 0 0-.9-.9ZM52.9 41.2H42a.8.8 0 0 0-.9.9v10.8a.8.8 0 0 0 .9.8h10.8a.8.8 0 0 0 .8-.8V42a.8.8 0 0 0-.8-.9Z"/></svg>