<svg xmlns="http://www.w3.org/2000/svg" xml:space="preserve" id="Layer_1" x="0" y="0" style="enable-background:new 0 0 912.2 638.6" version="1.0" viewBox="90.7 234 147.9 170.6"><style>.st0{fill:#41d9bf}.st1{fill:#072b38}</style><path d="M238.5 276.8v42.6l-36.9-21.3-36.9-21.4 37-21.2 36.9-21.3-.1 42.6z" class="st1"/><path d="M164.6 319.3v42.6l-36.9-21.3-36.9-21.4 36.9-21.2 36.9-21.3v42.6z" style="fill:#144556"/><path d="M90.8 276.6V234l36.9 21.3 36.9 21.3-36.9 21.4-36.9 21.2v-42.6z" class="st0"/><path d="m90.7 361.8.1-42.6 36.9 21.4 36.9 21.3-36.9 21.3-37 21.2v-42.6z" class="st1"/><path d="m201.6 298.1-36.9-21.4v85.2l36.8 21.4 36.9 21.3V362l.1-42.6-36.9-21.3z" class="st0"/><path d="M66.2 207.6H846V431H66.2z" style="fill:none"/></svg>