<?xml version="1.0" standalone="no"?>
<!DOCTYPE svg PUBLIC "-//W3C//DTD SVG 20010904//EN"
 "http://www.w3.org/TR/2001/REC-SVG-20010904/DTD/svg10.dtd">
<svg version="1.0" xmlns="http://www.w3.org/2000/svg"
 width="700.000000pt" height="700.000000pt" viewBox="0 0 700.000000 700.000000"
 preserveAspectRatio="xMidYMid meet">
<metadata>
Created by potrace 1.11, written by Peter Selinger 2001-2013
</metadata>
<g transform="translate(0.000000,700.000000) scale(0.100000,-0.100000)"
fill="#000000" stroke="none">
<path d="M3420 6990 c-79 -23 -142 -83 -1259 -1199 -957 -958 -1153 -1159
-1175 -1204 -80 -162 8 -368 185 -433 40 -15 238 -16 2304 -18 1243 0 2280 2
2304 7 219 37 337 296 218 477 -14 20 -539 551 -1167 1179 -893 893 -1153
1147 -1193 1167 -53 27 -165 40 -217 24z"/>
<path d="M1221 2858 c-67 -10 -115 -35 -170 -89 -105 -103 -125 -271 -48 -388
13 -20 538 -550 1167 -1179 885 -885 1155 -1149 1193 -1169 95 -48 229 -38
312 22 34 25 2248 2237 2302 2300 39 46 72 143 68 200 -5 64 -13 96 -27 112
-7 9 -12 18 -10 20 5 7 -34 59 -68 91 -34 32 -100 68 -144 79 -33 8 -4517 9
-4575 1z"/>
</g>
</svg>
