<!-- Generated by IcoMoon.io -->
<svg version="1.1" xmlns="http://www.w3.org/2000/svg" width="512" height="512" viewBox="0 0 512 512">
<g id="icomoon-ignore">
</g>
<path fill="#eabc4b" d="M12.492 186.222c-7.29 13.345-12.492 28.737-12.492 44.13h109.267l44.747-44.13h-141.524z"></path>
<path fill="#24bcff" d="M199.802 142.101h-110.308c-33.304 0-62.44 18.473-78.052 44.13h142.571l45.787-44.13z"></path>
<path fill="#fff" d="M512 52.825h-110.308c-49.949 0-90.534 40.017-90.534 89.275h-110.308l90.534-89.275h-110.315c-49.957 0-90.534 40.017-90.534 89.275v155.973c0 89.275 73.874 161.101 163.376 161.101h166.506v-318.099l91.583-88.251zM303.868 284.729c-14.563-14.361-14.563-38.993 0-53.353l54.118 53.353c-14.572 15.393-38.505 15.393-54.118 0z"></path>
</svg>
