<svg xmlns="http://www.w3.org/2000/svg" viewBox="0 0 16 16"><path d="M9.2 12.66a5.66 5.66 0 0 0 2.27-.39 3.57 3.57 0 0 0 1.72-1.49 3.25 3.25 0 0 0-1.74-4.72A3.09 3.09 0 0 0 12.69 5a3.13 3.13 0 0 0 .44-2.26 3.08 3.08 0 0 0-.92-1.68A4.33 4.33 0 0 0 9.58 0h-7.2v1.67a1.84 1.84 0 0 1 .89.23 1.89 1.89 0 0 1 1 1.5 1.92 1.92 0 0 1-.49 1.39 1.8 1.8 0 0 1-1.39.61v1.52a2 2 0 0 1 1 .33 1.88 1.88 0 0 1 .87 1.65 2.06 2.06 0 0 1-.18 1 1.89 1.89 0 0 1-1.7 1.1v1.7zm1.9-3.3a1.85 1.85 0 0 1-1.17 1.33 3.73 3.73 0 0 1-1.33.14H6.07V7h2.1a8.51 8.51 0 0 1 1.43 0 1.88 1.88 0 0 1 1.25.81 2 2 0 0 1 .25 1.55zm-5-7.53H8.8a2 2 0 0 1 1.56.62A1.78 1.78 0 0 1 10.73 4a1.71 1.71 0 0 1-1.24 1.3 3.87 3.87 0 0 1-1.13.09h-2.3V1.82z" fill="#292929"/><path d="M9.33 14.17h-7v1.8L9 16h4.6v-1.8H9.3z" fill="#169f4a"/></svg>