<!-- Generated by IcoMoon.io -->
<svg version="1.1" xmlns="http://www.w3.org/2000/svg" width="1024" height="1024" viewBox="0 0 1024 1024">
<title></title>
<g id="icomoon-ignore">
</g>
<path d="M307.1 102.401c-28.291 0-51.225-22.924-51.225-51.2s22.934-51.2 51.225-51.2h409.802c28.288 0 51.225 22.924 51.225 51.2s-22.938 51.2-51.225 51.2v289.619l230.605 374.378c66.734 108.344-5.279 257.602-137.553 257.602h-595.908c-132.272 0-204.284-149.258-137.55-257.602l230.605-374.378zM409.55 102.401v304.117c0 9.478-2.633 18.77-7.604 26.84l-79.977 129.843h380.064l-79.98-129.843c-4.972-8.069-7.603-17.362-7.603-26.84v-304.117z"></path>
</svg>
