<svg xmlns="http://www.w3.org/2000/svg" fill="none" viewBox="0 0 32 32"><path fill="url(#a)" d="m9.13 30.44.75-3.45a6.19 6.19 0 0 0-6.06-7.5H.4a16.04 16.04 0 0 0 8.74 10.95Z"/><path fill="url(#b)" d="M10.64 31.07A16.08 16.08 0 0 0 31.73 19.5H21.25c-4.73 0-8.81 3.28-9.81 7.88l-.8 3.69Z"/><path fill="url(#c)" d="M32 17.9A16.03 16.03 0 0 0 17.37.05l-2.24 10.36a6.19 6.19 0 0 0 6.06 7.49H32Z"/><path fill="url(#d)" d="M15.75 0A16.03 16.03 0 0 0 .1 17.9h3.65c4.73 0 8.81-3.28 9.81-7.89L15.75 0Z"/><defs><linearGradient id="a" x1="18.94" x2="12.64" y1="0" y2="32.05" gradientUnits="userSpaceOnUse"><stop stop-color="#F4D5B1"/><stop offset="1" stop-color="#FFD29F"/></linearGradient><linearGradient id="b" x1="18.94" x2="12.64" y1="0" y2="32.05" gradientUnits="userSpaceOnUse"><stop stop-color="#F4D5B1"/><stop offset="1" stop-color="#FFD29F"/></linearGradient><linearGradient id="c" x1="18.94" x2="12.64" y1="0" y2="32.05" gradientUnits="userSpaceOnUse"><stop stop-color="#F4D5B1"/><stop offset="1" stop-color="#FFD29F"/></linearGradient><linearGradient id="d" x1="18.94" x2="12.64" y1="0" y2="32.05" gradientUnits="userSpaceOnUse"><stop stop-color="#F4D5B1"/><stop offset="1" stop-color="#FFD29F"/></linearGradient></defs></svg>