<svg xmlns="http://www.w3.org/2000/svg" viewBox="0 0 11 16"><title>bybit</title><path d="M11.13,5.83s-.82-.26-.87-.23L6.27.36S5.5.71,5.45.75L8.82,4.93C8.76,5,8,5,7.93,5L4.37,1.47l-.61.7L6.71,5c-.06.07-.73.34-.79.42L3.08,3.26c0,.05-.35.77-.38.82L5,5.72c0,.07-.58.54-.63.62L2.65,5.43s0,.84,0,.88l1,.63-.07.15-.92-.18.66.5C2,9.25,2.31,12.2,4,14.23l-.63-1.76.13,0,1.17,2.65s.79.26.85.24L3.64,11.25s.23-.58.27-.6l2.9,5.28c.06,0,.89.1,1,.06L4.33,10.16s.9.45,1,.41L9,15.93c.05,0,.82-.26.86-.3L6.36,10.9c.06,0,.95.18,1,.13l3.61,4s.67-.55.71-.6L8.6,11.21c.06-.07.82-.21.88-.28l3,2.49.53-.73-2.54-2c0-.08.67-.47.72-.55l2.11,1.29c0-.05.11-.84.13-.88L12,9.59c0-.06.47-.54.5-.59l.93.19-.68-.5c1.29-1.7.92-5-.82-7L12.81,4s-.5.07-.55.1L10.67.72c-.05,0-.89-.36-.95-.33l2.36,4.74c-.05,0-.62-.07-.67,0L8.42,0c-.06,0-.85.1-.9.14Z" transform="translate(-2.5)" fill="#f9b600"/></svg>