<svg xmlns="http://www.w3.org/2000/svg" viewBox="0 0 16 16"><title>bybit</title><path  d="M11.11,5.83a6.31,6.31,0,0,0-.86-.23L6.26.36s-.77.35-.82.39L8.81,4.93A3.78,3.78,0,0,1,7.92,5L4.37,1.47l-.61.7L6.7,5c-.06.07-.73.34-.79.42L3.08,3.26c0,.05-.35.77-.38.82L5,5.72c0,.07-.57.54-.62.62L2.65,5.43v.88l1,.63-.07.15-.92-.18.66.5C2,9.25,2.31,12.2,4,14.23l-.63-1.76H3.5l1.17,2.65a7.12,7.12,0,0,0,.84.24L3.64,11.25a5.1,5.1,0,0,1,.27-.6L6.8,15.93a7.79,7.79,0,0,0,1,.06L4.33,10.16a5.09,5.09,0,0,0,1,.41L9,15.93a6.74,6.74,0,0,0,.86-.3L6.35,10.9a7,7,0,0,0,1,.13L11,15s.67-.55.71-.6L8.59,11.21c.06-.07.82-.21.88-.28l3,2.49.53-.73-2.53-2c0-.08.66-.47.71-.55l2.11,1.29s.11-.84.13-.88L12,9.59a6.8,6.8,0,0,1,.5-.59l.93.19-.68-.5c1.29-1.7.92-5-.82-7L12.79,4a5,5,0,0,0-.55.1L10.66.72c-.05,0-.89-.36-.95-.33l2.35,4.74c-.05,0-.62-.07-.67,0L8.41,0a6.74,6.74,0,0,0-.9.14Z"  fill="#f9b600"/></svg>