<svg xmlns="http://www.w3.org/2000/svg" viewBox="0 0 16 16"><defs><linearGradient id="A" x1="15.527" y1="7.847" x2="-.118" y2="7.847" gradientUnits="userSpaceOnUse"><stop offset="0" stop-color="#22e6b8"/><stop offset="1" stop-color="#00c1ce"/></linearGradient></defs><path d="M10.64 5.92a3.19 3.19 0 0 0-4.46 0 3.13 3.13 0 0 0 0 4.43 3.19 3.19 0 0 0 4.47 0l.27-.3-1.48-1.44-.25.27a1.07 1.07 0 0 1-1.52 0 1.06 1.06 0 0 1 0-1.49 1.07 1.07 0 0 1 1.51 0l4 3.95a6 6 0 0 1-4.89 2.55A5.91 5.91 0 1 1 13 4.49L11.66 6l1.47 1.45 2.43-2.72A8 8 0 1 0 8.26 16a7.76 7.76 0 0 0 5.3-2 8.49 8.49 0 0 0 2.18-3z" fill="url(#A)"/></svg>