<svg xmlns="http://www.w3.org/2000/svg" data-name="Layer 1" viewBox="36.4 35.4 727.2 729.3"><path d="M36.4 400.2c0-201.3 160.7-365.8 362.2-364.8 214.5 1 367.6 177 365 369.4a363 363 0 0 1-365.3 359.8c-201.9 1.5-362-162-361.9-364.4Z" style="fill:#0052ff"/><path d="M286.5 175.6a252.1 252.1 0 0 1 218-8.6 257.7 257.7 0 0 1 146.6 177c-39.8.1-79.6 1.4-119.4-.8-23.5-66-105-101-170.3-78-57.8 17.9-101.3 76.8-96.7 138-.8 71.7 64 135.7 135.5 135.5C457.4 542 512.4 504.4 534 452c39.1-.3 78-.4 117.1 0-14.2 62-51.1 119.5-104.6 154.5a252 252 0 1 1-260-431Z" style="fill:#fff"/><path d="M0 0h800v800H0z" style="fill:none"/></svg>