<svg xmlns="http://www.w3.org/2000/svg" xml:space="preserve" style="enable-background:new 0 0 869.5 559.5" version="1.0" viewBox="71.4 235.9 142.6 87.5"><path d="m211.7 297.7-30.8-53.4a17.1 17.1 0 0 0-29.7.5l-32.4 55.6c-6 10.2 1.4 23 13.5 23h64.8a17.1 17.1 0 0 0 14.6-25.7z" style="fill:#00b897"/><path d="m167.2 301.9-1.9-3.3-5.7-9.7-26.1-45.3a17 17 0 0 0-29.5 1.8l-30.3 52.5a17 17 0 0 0 6.3 23.2 17 17 0 0 0 8.5 2.3h108.3c-16.7.1-22-8.6-29.6-21.5z" style="fill:#76fcb2"/><linearGradient id="a" x1="123.8" x2="198.7" y1="416.5" y2="444.2" gradientTransform="translate(-13.8 -134.7)" gradientUnits="userSpaceOnUse"><stop offset="0" style="stop-color:#53e57a;stop-opacity:0;--darkreader-inline-stopcolor:#58fb84"/><stop offset="1" style="stop-color:#00a977;--darkreader-inline-stopcolor:#54ffde"/></linearGradient><path d="m167.2 301.9-1.9-3.3-5.7-9.7-16.8-29.6-24.2 41.2c-6 10.2 1.4 23 13.5 23h64.7c-16.8-.1-22-8.7-29.6-21.6z" style="fill:url(#a)"/><path d="M48.5 216.5H821V343H48.5z" style="fill:none"/></svg>