<svg xmlns="http://www.w3.org/2000/svg" xmlns:xlink="http://www.w3.org/1999/xlink" viewBox="0 0 16 16"><defs><linearGradient id="A" x1="2.535" y1="-1.213" x2="6.836" y2="6.851" xlink:href="#G"><stop offset="0" stop-color="#005661"/><stop offset="1" stop-color="#048293"/></linearGradient><linearGradient id="B" x1="12.386" y1="5.423" x2="12.386" y2="-.843" xlink:href="#G"><stop offset="0" stop-color="#676f74"/><stop offset="1" stop-color="#3b444a"/></linearGradient><linearGradient id="C" x1="7.961" y1="-.843" x2="7.961" y2=".463" xlink:href="#G"><stop offset="0" stop-color="#93989c"/><stop offset="1" stop-color="#aaafb2"/></linearGradient><linearGradient id="D" x1="11.936" y1="13.525" x2="9.36" y2="9.61" xlink:href="#G"><stop offset="0" stop-color="#3b444a"/><stop offset="1" stop-color="#3b444a"/></linearGradient><linearGradient id="E" x1="7.956" y1="14.696" x2="7.956" y2="13.087" xlink:href="#G"><stop offset="0" stop-color="#858b8f"/><stop offset="1" stop-color="#868d90"/></linearGradient><linearGradient id="F" x1="3.168" y1="15.747" x2="7.484" y2="7.76" xlink:href="#G"><stop offset="0" stop-color="#08575c"/><stop offset="1" stop-color="#096166"/></linearGradient><linearGradient id="G" gradientUnits="userSpaceOnUse"/></defs><path d="M.25 0h4.7l5.45 8-2.58.62L5.57 8z" fill="url(#A)"/><path d="M11 0h4.7l-4.25 6.45-2.4-3.52z" fill="url(#B)"/><path d="M7.06 0h1.8L8 1.35z" fill="url(#C)"/><path d="M11.3 16H16l-4.53-6.53-2.42 3.37z" fill="url(#D)"/><path d="M6.78,16H9.13L8,14.34Z" fill="url(#E)"/><path d="M0,16H4.64l5.75-8H5.57Z" fill="url(#F)"/></svg>