<!-- Generated by IcoMoon.io -->
<svg version="1.1" xmlns="http://www.w3.org/2000/svg" width="32" height="32" viewBox="0 0 32 32">
<title>BINANCE_US</title>
<path fill="#f3ba2f" d="M7.36 10l4.64-4.58 4.66 4.58 2.7-2.62-7.36-7.38-7.36 7.38zM0 12l2.7-2.7 2.72 2.7-2.72 2.7zM7.36 14l4.64 4.6 4.66-4.6 2.7 2.64-7.36 7.36-7.36-7.34zM18.58 12l2.7-2.7 2.72 2.7-2.7 2.7zM14.76 12l-2.76-2.76-2.74 2.76 2.74 2.74z"></path>
<path fill="#f3ba2f" d="M14 30.7h1.14v1.3h-1.14z"></path>
<path fill="#f3ba2f" d="M24 28.16c0.017 0.128 0.027 0.275 0.027 0.425 0 1.889-1.531 3.42-3.42 3.42-0.066 0-0.131-0.002-0.195-0.006l0.009 0c-0.072 0.005-0.156 0.008-0.24 0.008-1.878 0-3.4-1.522-3.4-3.4 0-0.13 0.007-0.258 0.021-0.384l-0.001 0.015v-5.2h0.98v5.14c-0.016 0.109-0.026 0.235-0.026 0.363 0 1.414 1.146 2.56 2.56 2.56 0.044 0 0.088-0.001 0.132-0.003l-0.006 0c0.044 0.003 0.095 0.004 0.147 0.004 1.381 0 2.5-1.119 2.5-2.5 0-0.129-0.010-0.255-0.028-0.378l0.002 0.014v-5.2h0.94v5.12z"></path>
<path fill="#f3ba2f" d="M29.18 27.060c2 0.42 2.82 1.12 2.82 2.46-0.065 1.396-1.212 2.503-2.617 2.503-0.121 0-0.24-0.008-0.356-0.024l0.014 0.002c-0.015 0-0.032 0-0.050 0-1.361 0-2.598-0.533-3.512-1.402l0.002 0.002 0.62-0.72c0.752 0.766 1.798 1.24 2.955 1.24 0.009 0 0.018-0 0.027-0h-0.001c1.16 0 2-0.62 2-1.5s-0.44-1.28-2.26-1.66-2.92-1.080-2.92-2.52c0.088-1.343 1.198-2.398 2.555-2.398 0.108 0 0.214 0.007 0.318 0.020l-0.012-0.001c0.025-0 0.055-0.001 0.085-0.001 1.129 0 2.163 0.409 2.962 1.086l-0.007-0.005-0.58 0.74c-0.662-0.549-1.52-0.881-2.455-0.881-0.037 0-0.074 0.001-0.11 0.002l0.005-0c-1.12 0-1.86 0.62-1.86 1.42s0.46 1.28 2.38 1.7z"></path>
</svg>
