<!-- Generated by IcoMoon.io -->
<svg version="1.1" xmlns="http://www.w3.org/2000/svg" width="32" height="32" viewBox="0 0 32 32">
<title>BITGET</title>
<path fill="#1da2b4" d="M10.263 0.685c0.393-0.437 0.944-0.685 1.521-0.685h3.733c0.471 0 0.716 0.583 0.394 0.94l-7.382 8.203h4.080l4.148 4.571h-8.228l8.228 9.143h-4.973c-0.577 0-1.128-0.248-1.521-0.685l-8.346-9.274c-0.745-0.828-0.745-2.111 0-2.939z"></path>
<path fill="#1da2b4" d="M21.736 31.315c-0.393 0.437-0.944 0.685-1.521 0.685h-3.733c-0.471 0-0.716-0.583-0.394-0.94l7.382-8.203h-4.079l-4.148-4.571h8.228l-8.228-9.143h4.973c0.577 0 1.128 0.248 1.521 0.685l8.346 9.274c0.745 0.828 0.745 2.111 0 2.939z"></path>
</svg>
