<!-- Generated by IcoMoon.io -->
<svg version="1.1" xmlns="http://www.w3.org/2000/svg" width="32" height="32" viewBox="0 0 32 32">
<title>BITMEX</title>
<path d="M11 6h12.1c-0.011 0.167-0.070 0.318-0.162 0.442l0.002-0.002-4.020 7.32h-7.4c-0.135 0.3-0.269 0.55-0.417 0.789l0.017-0.029-0.52 0.9c-0.2 0.4-0.44 0.74-0.6 1.12s-0.76 1.34-1.14 2l-1.16 2c-0.15 0.222-0.297 0.477-0.424 0.744l-0.016 0.036-2.4 4.2c-0.064 0.162-0.152 0.302-0.261 0.421l0.001-0.001h-4c-0.031-0.002-0.067-0.003-0.103-0.003-0.176 0-0.348 0.023-0.511 0.066l0.014-0.003c0.060-0.375 0.209-0.707 0.424-0.985l-0.004 0.005c0.2-0.44 0.48-0.8 0.68-1.26q2.46-4.36 4.9-8.76c0.4-0.6 0.68-1.28 1.060-2l1.4-2.46c0.14-0.34 0.36-0.66 0.52-1l1.8-3.2c0.069-0.13 0.148-0.241 0.241-0.341l-0.001 0.001z"></path>
<path d="M25.040 10.28l2.4-4.24h4.4l0.16-0.040-0.4 0.68-3.14 5.76-1.3 2.32v0.1l-6.14 11.060h-12c0.2-0.48 0.5-0.94 0.74-1.4l3.44-6.32h7.4l4.54-8z"></path>
</svg>
