<!-- Generated by IcoMoon.io -->
<svg version="1.1" xmlns="http://www.w3.org/2000/svg" width="852" height="1024" viewBox="0 0 852 1024">
<title></title>
<g id="icomoon-ignore">
</g>
<path d="M736.114 496.294c41.45-52.066 66.506-118.792 66.506-191.37 0-0.173 0-0.347 0-0.52v0.026c0-171.274-138.768-304.43-309.97-304.43h-376.402v38.737h368.057c151.304 0 273.966 117.159 273.966 268.463 0 0.127 0 0.278 0 0.428 0 61.361-20.254 117.992-54.441 163.572l0.507-0.707z"></path>
<path d="M694.134 464.225c39.676-40.316 64.173-95.673 64.173-156.752 0-0.096 0-0.192 0-0.288v0.015c0-123.802-100.351-224.166-224.148-224.187h-318.28v38.774h326.55c0.032 0 0.071 0 0.109 0 100.871 0 182.644 81.772 182.644 182.644v0c0 0.063 0 0.138 0 0.212 0 55.904-25.177 105.928-64.811 139.352l-0.273 0.224z"></path>
<path d="M632.73 435c52.366-22.885 92.452-72.737 92.452-130.569 0-79.478-75.506-143.907-154.985-143.907h-276.844v22.12h274.002c65.594 0 130.059 53.314 130.059 119.017 0 53.241-42.199 98.391-93.18 113.515z"></path>
<path d="M5.539 985.263h60.893v38.737h-60.893z"></path>
<path d="M66.432 907.752h243.537v27.659h-243.537z"></path>
<path d="M66.432 736.187h260.154v22.156h-260.154z"></path>
<path d="M376.402 736.187h166.063v22.156h-166.063z"></path>
<path d="M116.248 658.676h88.552v22.156h-88.552z"></path>
<path d="M254.615 658.676h287.813v22.156h-287.813z"></path>
<path d="M348.707 309.97h188.183v22.156h-188.183z"></path>
<path d="M127.326 160.524h105.17v22.156h-105.17z"></path>
<path d="M154.985 243.537h387.444v22.156h-387.444z"></path>
<path d="M55.354 309.97h237.998v22.156h-237.998z"></path>
<path d="M121.787 979.724v38.737h420.642c171.274 0 309.97-133.229 309.97-304.43 0-171.191-138.778-309.97-309.97-309.97v0h-271.196v33.234h262.924c151.311 0.021 273.966 122.688 273.966 274.002v0c0 151.341-122.661 268.463-273.966 268.463z"></path>
<path d="M188.183 487.074v38.774h404.061c0.011 0 0.024 0 0.036 0 100.871 0 182.644 81.772 182.644 182.644v0c0 100.891-81.789 182.68-182.68 182.68v0h-237.998v44.276h229.58c123.795 0 224.15-100.356 224.15-224.15 0-0.013 0-0.026 0-0.038v0.002c0-123.802-100.351-224.166-224.148-224.187h-0.002z"></path>
<path d="M304.43 570.124v22.12h312.739c65.594 0 130.059 53.314 130.059 119.017 0 65.594-64.319 119.017-130.059 119.017h-617.17v27.659h619.939c79.478 0 154.985-64.428 154.985-143.907s-75.506-143.907-154.985-143.907z"></path>
</svg>
