<!-- Generated by IcoMoon.io -->
<svg version="1.1" xmlns="http://www.w3.org/2000/svg" width="32" height="32" viewBox="0 0 32 32">
<title>BITSTAMP</title>
<path d="M18.4 25.32c0.117 0.004 0.255 0.007 0.393 0.007 1.493 0 2.918-0.289 4.223-0.814l-0.076 0.027c1.461-0.61 2.643-1.644 3.422-2.947l0.018-0.033c0.564-0.943 0.898-2.081 0.898-3.296 0-2.83-1.808-5.237-4.332-6.13l-0.046-0.014c1.018-0.487 1.856-1.209 2.466-2.099l0.014-0.021c0.618-0.954 0.986-2.12 0.986-3.372 0-0.406-0.039-0.803-0.112-1.187l0.006 0.039c-0.256-1.335-0.912-2.488-1.837-3.357l-0.003-0.003c-1.408-1.231-3.233-2.017-5.239-2.119l-0.021-0.001h-14.4v3.34c0.653 0 1.267 0.171 1.798 0.47l-0.019-0.010c1.108 0.594 1.878 1.695 1.999 2.985l0.001 0.015c0.004 0.063 0.006 0.137 0.006 0.211 0 0.989-0.374 1.891-0.989 2.572l0.003-0.003c-0.663 0.75-1.627 1.221-2.702 1.221-0.027 0-0.055-0-0.082-0.001l0.004 0v3.040c0.749 0.040 1.435 0.281 2.014 0.669l-0.014-0.009c1.054 0.678 1.742 1.845 1.742 3.173 0 0.045-0.001 0.089-0.002 0.134l0-0.006c0.007 0.088 0.010 0.19 0.010 0.293 0 0.619-0.136 1.206-0.381 1.733l0.011-0.025c-0.608 1.299-1.899 2.186-3.398 2.2h-0.002v3.4zM22.2 18.72c-0.287 1.238-1.165 2.222-2.314 2.652l-0.026 0.008c-0.628 0.191-1.35 0.301-2.098 0.301-0.198 0-0.394-0.008-0.587-0.023l0.026 0.002h-5.060v-7.66h4.2c0.428-0.038 0.927-0.060 1.43-0.060s1.002 0.022 1.494 0.065l-0.064-0.004c1.048 0.182 1.931 0.776 2.491 1.607l0.009 0.013c0.388 0.605 0.618 1.344 0.618 2.136 0 0.342-0.043 0.675-0.124 0.992l0.006-0.028zM12.2 3.66h5.4c0.065-0.004 0.142-0.006 0.219-0.006 1.141 0 2.171 0.478 2.899 1.244l0.002 0.002c0.518 0.614 0.834 1.415 0.834 2.289 0 0.288-0.034 0.567-0.099 0.835l0.005-0.024c-0.276 1.271-1.23 2.265-2.456 2.595l-0.024 0.005c-0.522 0.126-1.122 0.198-1.738 0.198-0.184 0-0.366-0.006-0.546-0.019l0.024 0.001h-4.6v-7.14z"></path>
<path d="M18.66 28.34h-14v3.6l13.34 0.060h9.2v-3.6h-8.6z"></path>
</svg>
