<!-- Generated by IcoMoon.io -->
<svg version="1.1" xmlns="http://www.w3.org/2000/svg" width="32" height="32" viewBox="0 0 32 32">
<title>BYBIT</title>
<path fill="#f9b600" d="M22.22 11.66c-0.471-0.17-1.048-0.329-1.64-0.447l-0.080-0.013-7.98-10.48s-1.54 0.7-1.64 0.78l6.74 8.36c-0.445 0.093-0.955 0.146-1.479 0.146-0.106 0-0.211-0.002-0.316-0.007l0.015 0.001-7.1-7.060-1.22 1.4 5.88 5.66c-0.12 0.14-1.46 0.68-1.58 0.84l-5.66-4.32c0 0.1-0.7 1.54-0.76 1.64l4.6 3.28c0 0.14-1.14 1.080-1.24 1.24l-3.46-1.82v1.76l2 1.26-0.14 0.3-1.84-0.36 1.32 1c-2.64 3.68-2.020 9.58 1.36 13.64l-1.26-3.52h0.26l2.34 5.3c0.447 0.166 1.009 0.331 1.585 0.462l0.095 0.018-3.74-8.22c0.18-0.478 0.362-0.873 0.567-1.254l-0.027 0.054 5.78 10.56c0.58 0.076 1.25 0.12 1.931 0.12 0.024 0 0.048-0 0.073-0h-0.004l-6.94-11.66c0.571 0.316 1.234 0.595 1.928 0.802l0.072 0.018 7.34 10.72c0.683-0.189 1.255-0.393 1.807-0.634l-0.087 0.034-7.020-9.46c0.577 0.124 1.262 0.217 1.962 0.258l0.038 0.002 7.3 7.94s1.34-1.1 1.42-1.2l-6.24-6.38c0.12-0.14 1.64-0.42 1.76-0.56l6 4.98 1.060-1.46-5.060-4c0-0.16 1.32-0.94 1.42-1.1l4.22 2.58s0.22-1.68 0.26-1.76l-2.84-1.92c0.33-0.436 0.658-0.82 1.005-1.186l-0.005 0.006 1.86 0.38-1.36-1c2.58-3.4 1.84-10-1.64-14l1.72 4.62c-0.43 0.054-0.803 0.124-1.169 0.214l0.069-0.014-3.16-6.76c-0.1 0-1.78-0.72-1.9-0.66l4.7 9.48c-0.1 0-1.24-0.14-1.34 0l-5.96-10.26c-0.678 0.060-1.292 0.159-1.891 0.298l0.091-0.018z"></path>
</svg>
