<!-- Generated by IcoMoon.io -->
<svg version="1.1" xmlns="http://www.w3.org/2000/svg" width="32" height="32" viewBox="0 0 32 32">
<title>HITBTC</title>
<path d="M11.6 7.48l-1.6 5.72-10 1.3z"></path>
<path d="M14.32 30.64l2.48-10.44-3.26-1.34z"></path>
<path d="M10 13.2l-2.6 5.46-7.4-4.14z"></path>
<path d="M14.32 30.64l-0.76-11.8-6.14-0.2z"></path>
<path d="M10 13.2l3.56 5.64-6.14-0.2z"></path>
<path d="M11.6 7.48l8.4 1.040-10 4.68zM29.1 4.88l-5.3 6.12 0.4-5.66zM32 1.36l-2.9 3.5 2.28 0.28z"></path>
<path d="M26.26 8l5.1-2.9-2.26-0.28z"></path>
<path d="M16.8 20.2l0.26-7-3.52 5.66z"></path>
<path d="M17.080 13.2l-3.52 5.66-3.56-5.66z"></path>
<path d="M20 8.52l-2.94 4.68h-7.060z"></path>
<path d="M17.060 13.2l-0.24 7 6.4 6.56z"></path>
<path d="M26.6 23.1l-3.4-8.4v12zM23.8 11l-0.6 3.72-6.16-1.5z"></path>
<path d="M26.94 16l-3.74-1.3 0.6-3.72z"></path>
<path d="M28.26 22.88l-4-6.52h2.32z"></path>
<path d="M20.7 7.14l3.1 3.86 0.4-5.66z"></path>
<path d="M23.2 14.7l-6.14-1.5 6.2 13.56z"></path>
<path d="M26.6 23.1l1.34 0.76-4.7 2.9z"></path>
<path d="M28.26 22.8l-5.060-8.1 3.4 8.4z"></path>
<path d="M20.7 7.14l-3.64 6 6.76-2.2z"></path>
</svg>
