<!-- Generated by IcoMoon.io -->
<svg version="1.1" xmlns="http://www.w3.org/2000/svg" width="32" height="32" viewBox="0 0 32 32">
<title>HUOBI</title>
<path d="M19.6 9.84c0.002-0.096 0.004-0.208 0.004-0.321 0-3.718-1.507-7.083-3.944-9.519l-0-0h-0.12c-0.14 9-4.68 11.4-7.14 14.64-1.519 1.854-2.44 4.249-2.44 6.859 0 4.79 3.1 8.855 7.404 10.298l0.077 0.022c3.040 0.84-0.7-1.5-1.2-6.46-0.6-6 7.4-10.56 7.4-15.52z"></path>
<path d="M22.2 12.86h-0.12c-0.553 2.183-1.477 4.096-2.711 5.764l0.031-0.044c-4.9 7.44-2 11-0.52 12.96 0.9 1.12 0 0 2.26-1.14 2.762-1.703 4.644-4.606 4.918-7.963l0.002-0.037c0.025-0.285 0.039-0.617 0.039-0.952 0-3.437-1.503-6.524-3.887-8.638l-0.012-0.010z"></path>
</svg>
