<!-- Generated by IcoMoon.io -->
<svg version="1.1" xmlns="http://www.w3.org/2000/svg" width="32" height="32" viewBox="0 0 32 32">
<title>KRAKEN</title>
<path fill="#5841d8" d="M15 3.46c0.284-0.018 0.616-0.028 0.95-0.028 6.888 0 12.76 4.353 15.014 10.457l0.036 0.111c0.612 1.571 0.977 3.39 1 5.29l0 0.010v6.7c0.014 0.123 0.022 0.266 0.022 0.41s-0.008 0.287-0.024 0.427l0.002-0.017c-0.16 0.693-0.626 1.252-1.246 1.534l-0.014 0.006c-0.282 0.133-0.613 0.211-0.962 0.211-1.239 0-2.249-0.979-2.298-2.206l-0-0.004v-6.26c0.017-0.121 0.027-0.262 0.027-0.404 0-0.486-0.113-0.945-0.315-1.353l0.008 0.018c-0.407-0.683-1.142-1.133-1.982-1.133-1.239 0-2.25 0.98-2.298 2.208l-0 0.004v6.32c0.029 0.177 0.045 0.382 0.045 0.59s-0.016 0.413-0.048 0.612l0.003-0.022c-0.225 0.755-0.817 1.334-1.564 1.536l-0.016 0.004c-0.181 0.052-0.389 0.082-0.605 0.082-0.84 0-1.574-0.454-1.97-1.131l-0.006-0.011c-0.207-0.404-0.328-0.881-0.328-1.387 0-0.146 0.010-0.289 0.029-0.429l-0.002 0.016v-6.28c-0.046-1.223-1.048-2.198-2.279-2.198-0.614 0-1.172 0.243-1.582 0.638l0.001-0.001c-0.432 0.422-0.7 1.009-0.7 1.66v6c0.014 0.124 0.022 0.267 0.022 0.413 0 0.395-0.059 0.776-0.169 1.134l0.007-0.027c-0.315 0.881-1.142 1.5-2.114 1.5-0.002 0-0.004 0-0.006 0h0c-0.015 0-0.033 0.001-0.051 0.001-0.976 0-1.807-0.619-2.124-1.485l-0.005-0.016c-0.086-0.309-0.135-0.665-0.135-1.031 0-0.123 0.006-0.244 0.016-0.364l-0.001 0.015v-6.2c-0.036-1.077-0.806-1.964-1.825-2.177l-0.015-0.003c-0.133-0.028-0.287-0.044-0.443-0.044-0.841 0-1.575 0.455-1.971 1.133l-0.006 0.011c-0.192 0.327-0.309 0.719-0.32 1.137l-0 0.003v6.86c0 0.007 0 0.016 0 0.024 0 0.687-0.31 1.302-0.797 1.713l-0.003 0.003c-0.386 0.309-0.881 0.496-1.42 0.496s-1.034-0.187-1.425-0.5l0.004 0.003c-0.571-0.39-0.94-1.038-0.94-1.772 0-0.010 0-0.020 0-0.029l-0 0.002v-6.88c-0-0.029-0-0.062-0-0.096 0-4.957 2.254-9.388 5.794-12.323l0.027-0.021c2.457-1.982 5.563-3.253 8.956-3.458l0.044-0.002z"></path>
</svg>
