<!-- Generated by IcoMoon.io -->
<svg version="1.1" xmlns="http://www.w3.org/2000/svg" width="32" height="32" viewBox="0 0 32 32">
<title>KUCOIN</title>
<path d="M10.628 16.003l9.478 9.479 5.982-5.982c1.070-0.963 2.706-0.92 3.724 0.098s1.061 2.654 0.098 3.724l-7.895 7.896c-1.060 1.043-2.761 1.043-3.822 0l-11.39-11.393v6.772c0 1.494-1.212 2.706-2.706 2.706s-2.706-1.212-2.706-2.706v-21.195c0-1.494 1.212-2.706 2.706-2.706s2.706 1.212 2.706 2.706v6.772l11.389-11.39c1.060-1.044 2.762-1.044 3.822 0l7.901 7.895c0.963 1.070 0.92 2.706-0.098 3.724s-2.654 1.061-3.724 0.098l-5.982-5.982-9.482 9.486zM20.11 13.294v0c-1.096-0.001-2.084 0.659-2.504 1.671s-0.188 2.178 0.586 2.953c0.775 0.775 1.94 1.007 2.952 0.588s1.673-1.407 1.673-2.503c0-0.718-0.285-1.408-0.792-1.916s-1.197-0.794-1.915-0.794v0.001z"></path>
</svg>
