<!-- Generated by IcoMoon.io -->
<svg version="1.1" xmlns="http://www.w3.org/2000/svg" width="32" height="32" viewBox="0 0 32 32">
<title>MEXC</title>
<path d="M31.391 19.972l-6.892-11.95c-1.522-2.484-5.192-2.529-6.646 0.112l-7.25 12.442c-1.343 2.283 0.313 5.147 3.021 5.147h14.501c2.73 0 4.766-2.954 3.267-5.751z"></path>
<path d="M21.433 20.912l-0.425-0.738c-0.403-0.694-1.276-2.171-1.276-2.171l-5.841-10.137c-1.164-1.768-3.536-2.238-5.303-1.074-0.559 0.358-1.007 0.873-1.298 1.477l-6.78 11.748c-1.052 1.813-0.425 4.14 1.41 5.192 0.582 0.336 1.231 0.515 1.902 0.515h24.235c-3.737 0.022-4.923-1.924-6.624-4.811z"></path>
<path d="M21.433 20.912l-0.425-0.738c-0.403-0.694-1.276-2.171-1.276-2.171l-3.759-6.624-5.415 9.22c-1.343 2.283 0.313 5.147 3.021 5.147h14.478c-3.759-0.022-4.923-1.947-6.624-4.834z"></path>
</svg>
