<!-- Generated by IcoMoon.io -->
<svg version="1.1" xmlns="http://www.w3.org/2000/svg" width="32" height="32" viewBox="0 0 32 32">
<title>OKEX</title>
<path d="M0.020 16c0 3.999 3.241 7.24 7.24 7.24s7.24-3.241 7.24-7.24v0c0-3.999-3.241-7.24-7.24-7.24s-7.24 3.241-7.24 7.24v0z"></path>
<path d="M17.52 16c0 3.999 3.241 7.24 7.24 7.24s7.24-3.241 7.24-7.24v0c0-3.999-3.241-7.24-7.24-7.24s-7.24 3.241-7.24 7.24v0z"></path>
<path d="M8.76 7.24c0 3.999 3.241 7.24 7.24 7.24s7.24-3.241 7.24-7.24v0c0-3.999-3.241-7.24-7.24-7.24s-7.24 3.241-7.24 7.24v0z"></path>
<path d="M8.76 24.76c0 3.999 3.241 7.24 7.24 7.24s7.24-3.241 7.24-7.24v0c0-3.999-3.241-7.24-7.24-7.24s-7.24 3.241-7.24 7.24v0z"></path>
</svg>
