<!-- Generated by IcoMoon.io -->
<svg version="1.1" xmlns="http://www.w3.org/2000/svg" width="32" height="32" viewBox="0 0 32 32">
<title>UNISWAP</title>
<path fill="#ff007a" d="M13.031 7.274c-0.346-0.050-0.363-0.066-0.198-0.082 0.313-0.050 1.039 0.016 1.55 0.132 1.188 0.28 2.26 1.006 3.398 2.276l0.297 0.346 0.429-0.066c1.831-0.297 3.711-0.066 5.278 0.66 0.429 0.198 1.105 0.594 1.188 0.693 0.033 0.033 0.082 0.247 0.115 0.462 0.115 0.775 0.066 1.353-0.181 1.798-0.132 0.247-0.132 0.313-0.049 0.528 0.066 0.165 0.264 0.28 0.445 0.28 0.396 0 0.808-0.627 1.006-1.501l0.082-0.346 0.148 0.165c0.841 0.94 1.501 2.243 1.6 3.167l0.033 0.247-0.148-0.214c-0.247-0.379-0.478-0.627-0.792-0.841-0.561-0.379-1.155-0.495-2.722-0.577-1.419-0.082-2.227-0.198-3.019-0.462-1.353-0.445-2.045-1.023-3.645-3.15-0.709-0.94-1.155-1.452-1.6-1.88-0.973-0.94-1.946-1.435-3.216-1.633z"></path>
<path fill="#ff007a" d="M25.32 9.369c0.033-0.627 0.115-1.039 0.297-1.419 0.066-0.148 0.132-0.28 0.148-0.28s-0.017 0.115-0.066 0.247c-0.132 0.363-0.148 0.874-0.066 1.452 0.115 0.742 0.165 0.841 0.957 1.649 0.363 0.379 0.792 0.858 0.957 1.056l0.28 0.363-0.28-0.264c-0.346-0.33-1.138-0.957-1.32-1.039-0.115-0.066-0.132-0.066-0.214 0.017-0.066 0.066-0.082 0.165-0.082 0.643-0.017 0.742-0.115 1.204-0.363 1.682-0.132 0.247-0.148 0.198-0.033-0.082 0.082-0.214 0.099-0.313 0.099-1.023 0-1.435-0.165-1.781-1.171-2.359-0.247-0.148-0.676-0.363-0.924-0.478-0.264-0.115-0.462-0.214-0.445-0.214 0.033-0.033 1.006 0.247 1.386 0.412 0.577 0.231 0.676 0.247 0.742 0.231 0.049-0.050 0.082-0.181 0.099-0.594z"></path>
<path fill="#ff007a" d="M13.707 11.827c-0.693-0.957-1.138-2.441-1.039-3.546l0.033-0.346 0.165 0.033c0.297 0.050 0.808 0.247 1.056 0.396 0.66 0.396 0.957 0.94 1.237 2.293 0.082 0.396 0.198 0.858 0.247 1.006 0.082 0.247 0.396 0.825 0.66 1.188 0.181 0.264 0.066 0.396-0.346 0.363-0.627-0.066-1.468-0.643-2.012-1.386z"></path>
<path fill="#ff007a" d="M24.478 19.002c-3.266-1.32-4.421-2.458-4.421-4.388 0-0.28 0.017-0.511 0.017-0.511 0.017 0 0.132 0.099 0.28 0.214 0.66 0.528 1.402 0.759 3.464 1.056 1.204 0.181 1.897 0.313 2.524 0.528 1.996 0.66 3.233 2.012 3.53 3.843 0.082 0.528 0.033 1.534-0.099 2.062-0.115 0.412-0.445 1.171-0.528 1.188-0.017 0-0.049-0.082-0.049-0.214-0.033-0.693-0.379-1.353-0.957-1.864-0.693-0.594-1.584-1.039-3.761-1.913z"></path>
<path fill="#ff007a" d="M22.169 19.546c-0.033-0.247-0.115-0.561-0.165-0.693l-0.082-0.247 0.148 0.181c0.214 0.247 0.379 0.544 0.528 0.957 0.115 0.313 0.115 0.412 0.115 0.924 0 0.495-0.017 0.61-0.115 0.891-0.165 0.445-0.363 0.759-0.693 1.105-0.594 0.61-1.369 0.94-2.474 1.089-0.198 0.017-0.759 0.066-1.254 0.099-1.237 0.066-2.062 0.198-2.804 0.462-0.099 0.033-0.198 0.066-0.214 0.049-0.033-0.033 0.478-0.33 0.891-0.528 0.577-0.28 1.171-0.429 2.474-0.66 0.643-0.099 1.303-0.231 1.468-0.297 1.633-0.511 2.441-1.781 2.177-3.332z"></path>
<path fill="#ff007a" d="M23.67 22.202c-0.429-0.94-0.528-1.831-0.297-2.672 0.033-0.082 0.066-0.165 0.099-0.165s0.132 0.049 0.231 0.115c0.198 0.132 0.61 0.363 1.666 0.94 1.336 0.726 2.095 1.287 2.623 1.93 0.462 0.561 0.742 1.204 0.874 1.996 0.082 0.445 0.033 1.518-0.082 1.963-0.363 1.402-1.188 2.524-2.392 3.167-0.181 0.099-0.33 0.165-0.346 0.165s0.049-0.165 0.148-0.363c0.396-0.841 0.445-1.649 0.148-2.557-0.181-0.561-0.561-1.237-1.32-2.375-0.907-1.32-1.122-1.666-1.353-2.144z"></path>
<path fill="#ff007a" d="M11.381 27.25c1.221-1.023 2.722-1.748 4.107-1.979 0.594-0.099 1.584-0.066 2.128 0.082 0.874 0.231 1.666 0.726 2.078 1.336 0.396 0.594 0.577 1.105 0.759 2.243 0.066 0.445 0.148 0.907 0.165 1.006 0.132 0.594 0.396 1.056 0.726 1.303 0.511 0.379 1.402 0.396 2.276 0.066 0.148-0.049 0.28-0.099 0.28-0.082 0.033 0.033-0.412 0.33-0.709 0.478-0.412 0.214-0.742 0.28-1.188 0.28-0.792 0-1.468-0.412-2.012-1.237-0.115-0.165-0.346-0.643-0.544-1.089-0.577-1.336-0.874-1.732-1.55-2.177-0.594-0.379-1.353-0.462-1.93-0.181-0.759 0.363-0.957 1.336-0.429 1.93 0.214 0.247 0.61 0.445 0.94 0.495 0.61 0.082 1.138-0.396 1.138-1.006 0-0.396-0.148-0.627-0.544-0.808-0.528-0.231-1.105 0.033-1.089 0.544 0 0.214 0.099 0.346 0.313 0.445 0.132 0.066 0.132 0.066 0.033 0.049-0.478-0.099-0.594-0.693-0.214-1.072 0.462-0.462 1.435-0.264 1.765 0.379 0.132 0.264 0.148 0.792 0.033 1.122-0.28 0.726-1.072 1.105-1.88 0.891-0.544-0.148-0.775-0.297-1.435-0.973-1.155-1.188-1.6-1.419-3.249-1.666l-0.313-0.049 0.346-0.33z"></path>
<path fill="#ff007a" d="M2.705 0.709c-0.313-0.396-0.577-0.709-0.561-0.709 0.050 0 10.788 11.81 11.563 12.701l0.214 0.231-0.017 0.379c-0.017 0.511-0.181 0.858-0.561 1.204-0.429 0.412-0.973 0.627-1.814 0.742-0.511 0.066-0.693 0.148-0.907 0.379-0.198 0.214-0.28 0.495-0.33 1.188-0.082 1.089-0.214 1.534-0.726 2.606-0.495 1.039-0.594 1.419-0.511 1.979 0.099 0.66 0.478 1.155 1.369 1.765 0.676 0.462 0.99 0.759 1.155 1.122 0.099 0.231 0.115 0.313 0.115 0.693 0 0.594-0.099 0.825-0.495 1.254-0.643 0.693-1.814 1.254-3.233 1.584-0.594 0.132-0.627 0.132-0.627 0 0-0.165-0.231-0.61-0.61-1.204-0.445-0.676-0.627-1.023-0.792-1.55-0.181-0.594-0.247-0.99-0.214-1.616 0.033-0.594 0.099-0.858 0.33-1.32 0.181-0.379 0.297-0.544 1.039-1.468 1.27-1.567 1.715-2.491 1.88-3.794 0.148-1.171 0.346-1.732 0.792-2.227 0.264-0.297 0.33-0.412 0.33-0.627 0-0.099-0.412-0.907-1.682-3.167-2.012-3.596-2.012-3.596-1.946-3.563 0.016 0.016 0.957 1.452 2.062 3.184 1.452 2.26 2.095 3.2 2.243 3.348 0.214 0.214 0.528 0.346 0.792 0.346 0.231 0 0.709-0.132 0.94-0.264 0.412-0.231 0.511-0.544 0.264-0.874-0.297-0.396-6.219-7.654-10.062-12.322zM7.769 24.165c0.181-0.313 0.082-0.709-0.214-0.907-0.28-0.181-0.709-0.099-0.709 0.148 0 0.066 0.033 0.132 0.132 0.165 0.148 0.082 0.165 0.165 0.050 0.346s-0.115 0.346 0.033 0.462c0.231 0.181 0.544 0.082 0.709-0.214z"></path>
<path fill="#ff007a" d="M14.45 15.489c0.264-0.082 0.775-0.033 1.023 0.099 0.478 0.247 0.825 0.792 0.742 1.188-0.082 0.478-0.858 0.874-1.765 0.874-0.462 0-0.627-0.066-0.808-0.297-0.115-0.148-0.148-0.627-0.082-0.891 0.115-0.429 0.495-0.858 0.891-0.973zM15.505 16.313c0.132-0.198 0.082-0.412-0.165-0.561-0.445-0.28-1.122-0.050-1.122 0.379 0 0.214 0.346 0.445 0.676 0.445 0.214 0 0.511-0.132 0.61-0.264z"></path>
</svg>
