<?xml version="1.0" encoding="utf-8"?>
<!-- Generator: Adobe Illustrator 27.5.0, SVG Export Plug-In . SVG Version: 6.00 Build 0)  -->
<svg version="1.1" id="Layer_1" xmlns="http://www.w3.org/2000/svg" xmlns:xlink="http://www.w3.org/1999/xlink" x="0px" y="0px"
	 viewBox="0 0 500 500" style="enable-background:new 0 0 500 500;" xml:space="preserve">
<style type="text/css">
	.st0{fill:#2D769A;}
	.st1{fill:url(#SVGID_1_);}
	.st2{enable-background:new    ;}
	.st3{clip-path:url(#SVGID_00000067946043104253279510000013740781543379198130_);enable-background:new    ;}
	.st4{fill:#00748F;}
	.st5{fill:#007894;}
	.st6{fill:#007C99;}
	.st7{clip-path:url(#SVGID_00000016052518473054694360000000088377427769872047_);enable-background:new    ;}
	.st8{fill:#006C85;}
	.st9{fill:#00708A;}
	.st10{clip-path:url(#SVGID_00000109008050531640393240000013896248709479825792_);enable-background:new    ;}
	.st11{fill:#0084A3;}
	.st12{fill:#0089A8;}
	.st13{fill:#008DAD;}
	.st14{fill:#006981;}
	.st15{fill:#00A3C9;}
	.st16{clip-path:url(#SVGID_00000183939315536655397260000012474187621512209583_);enable-background:new    ;}
	.st17{clip-path:url(#SVGID_00000042012301115073739070000011867301001777236110_);enable-background:new    ;}
	.st18{clip-path:url(#SVGID_00000050639378962367171690000012151806386052331177_);enable-background:new    ;}
	.st19{fill:#0091B3;}
	.st20{fill:#0095B8;}
	.st21{clip-path:url(#SVGID_00000098189910345840418300000016238986314446722721_);enable-background:new    ;}
	.st22{clip-path:url(#SVGID_00000093141578415938774820000003416517961077047192_);enable-background:new    ;}
	.st23{clip-path:url(#SVGID_00000122693494157641985400000015059786469104873393_);enable-background:new    ;}
	.st24{clip-path:url(#SVGID_00000156569376405816990470000012340503295980423818_);enable-background:new    ;}
	.st25{fill:#00809E;}
	.st26{clip-path:url(#SVGID_00000026155709723819719170000017698908968847428998_);enable-background:new    ;}
	.st27{clip-path:url(#SVGID_00000180339703483879126490000005660008653101358768_);enable-background:new    ;}
	.st28{clip-path:url(#SVGID_00000039129705610355501690000004971866474461215629_);enable-background:new    ;}
	.st29{clip-path:url(#SVGID_00000161603500083571554440000003585222456816657293_);enable-background:new    ;}
	.st30{fill:#00ADD5;}
</style>
<circle class="st0" cx="264.3" cy="258.3" r="222.5"/>
<linearGradient id="SVGID_1_" gradientUnits="userSpaceOnUse" x1="266.4398" y1="477.0665" x2="262.1208" y2="42.8752" gradientTransform="matrix(1 0 0 -1 0 501)">
	<stop  offset="0" style="stop-color:#F9B9BB"/>
	<stop  offset="1" style="stop-color:#FABBA8"/>
</linearGradient>
<circle class="st1" cx="264.3" cy="241.7" r="222.5"/>
<g>
	<g>
		<g class="st2">
			<g class="st2">
				<g>
					<defs>
						<path id="SVGID_00000081632110806260028590000003316614515806264498_" d="M276,115.3l2.5,6c-10.9,2.8-53.4,8.8-84.3,19.9
							l-2.5-6C222.5,124.1,265,118.1,276,115.3z"/>
					</defs>
					<clipPath id="SVGID_00000158022407756929676920000016245249246474898879_">
						<use xlink:href="#SVGID_00000081632110806260028590000003316614515806264498_"  style="overflow:visible;"/>
					</clipPath>
					<g style="clip-path:url(#SVGID_00000158022407756929676920000016245249246474898879_);enable-background:new    ;">
						<path class="st4" d="M276,115.3l2.5,6c-8.6,2.2-36.5,6.4-63.1,13.4l-2.5-6C239.5,121.6,267.4,117.5,276,115.3"/>
						<path class="st5" d="M212.9,128.7l2.5,6c-6.6,1.8-13.2,3.7-19.3,5.8l-2.5-6C199.7,132.3,206.3,130.4,212.9,128.7"/>
						<path class="st6" d="M193.6,134.5l2.5,6c-0.7,0.2-1.3,0.5-2,0.7l-2.5-6C192.3,134.9,193,134.7,193.6,134.5"/>
					</g>
				</g>
			</g>
			<g class="st2">
				<g>
					<defs>
						<path id="SVGID_00000155835055493727382280000007263742496106237371_" d="M278.2,114.6l2.5,6c0,0-0.8,0.2-2.3,0.7l-2.5-6
							C277.4,114.8,278.2,114.5,278.2,114.6z"/>
					</defs>
					<clipPath id="SVGID_00000104708513300115307600000003609760286098139284_">
						<use xlink:href="#SVGID_00000155835055493727382280000007263742496106237371_"  style="overflow:visible;"/>
					</clipPath>
					<g style="clip-path:url(#SVGID_00000104708513300115307600000003609760286098139284_);enable-background:new    ;">
						<path class="st8" d="M278.2,114.6l2.5,6c0,0,0,0,0,0L278.2,114.6C278.2,114.6,278.2,114.6,278.2,114.6"/>
						<path class="st9" d="M278.2,114.6l2.5,6c0,0,0,0,0,0L278.2,114.6C278.2,114.6,278.2,114.6,278.2,114.6"/>
						<path class="st4" d="M278.2,114.6l2.5,6c0,0-0.1,0-0.1,0l-2.5-6C278.1,114.6,278.2,114.6,278.2,114.6"/>
						<path class="st5" d="M278.1,114.6l2.5,6c-0.3,0.1-1,0.3-2.1,0.7l-2.5-6C277.1,114.9,277.8,114.7,278.1,114.6"/>
						<path class="st6" d="M276,115.3l2.5,6c0,0,0,0,0,0L276,115.3C276,115.3,276,115.3,276,115.3"/>
					</g>
				</g>
			</g>
			<g class="st2">
				<g>
					<defs>
						<path id="SVGID_00000155105009748302382720000008839159745620517278_" d="M155.6,193l2.5,6c-36,20.3-57.1,38.5-67.9,46.1
							l-2.5-6C98.5,231.5,119.6,213.3,155.6,193z"/>
					</defs>
					<clipPath id="SVGID_00000145024779593864828620000013418225524273515198_">
						<use xlink:href="#SVGID_00000155105009748302382720000008839159745620517278_"  style="overflow:visible;"/>
					</clipPath>
					<g style="clip-path:url(#SVGID_00000145024779593864828620000013418225524273515198_);enable-background:new    ;">
						<path class="st11" d="M155.6,193l2.5,6c-4.3,2.4-8.3,4.8-12.2,7.1l-2.5-6C147.3,197.7,151.3,195.4,155.6,193"/>
						<path class="st12" d="M143.4,200.1l2.5,6c-11.4,6.9-21,13.4-29,19.1l-2.5-6C122.5,213.4,132.1,206.9,143.4,200.1"/>
						<path class="st13" d="M114.4,219.2l2.5,6c-12.2,8.7-20.8,15.7-26.5,19.8l-2.5-6C93.6,234.9,102.2,227.9,114.4,219.2"/>
						<path class="st12" d="M87.9,239l2.5,6c-0.1,0-0.1,0.1-0.2,0.1l-2.5-6C87.8,239.1,87.9,239,87.9,239"/>
					</g>
				</g>
			</g>
			<g>
				<polygon class="st14" points="334.8,155.2 337.3,161.1 289.6,147.3 287.1,141.3 				"/>
			</g>
			<g>
				<polygon class="st15" points="287.1,141.3 289.6,147.3 258.3,197.4 255.8,191.4 				"/>
			</g>
			<g class="st2">
				<g>
					<defs>
						<path id="SVGID_00000084496846459188849500000005916987737587573164_" d="M462.3,124.7l2.5,6c-15.7-4.5-35.5-5.5-48.7-5.5
							l-2.5-6C426.8,119.2,446.6,120.1,462.3,124.7z"/>
					</defs>
					<clipPath id="SVGID_00000028297112957757050630000013516464794004033186_">
						<use xlink:href="#SVGID_00000084496846459188849500000005916987737587573164_"  style="overflow:visible;"/>
					</clipPath>
					<g style="clip-path:url(#SVGID_00000028297112957757050630000013516464794004033186_);enable-background:new    ;">
						<path class="st8" d="M462.3,124.7l2.5,6c-15.7-4.5-35.5-5.5-48.7-5.5l-2.5-6C426.8,119.2,446.6,120.1,462.3,124.7"/>
					</g>
				</g>
			</g>
			<g class="st2">
				<g>
					<defs>
						<path id="SVGID_00000093144391444322520980000013190785713365804418_" d="M356.8,170.4l2.5,6c-2.8-6.7-10.5-11.9-22-15.2
							l-2.5-6C346.2,158.5,353.9,163.7,356.8,170.4z"/>
					</defs>
					<clipPath id="SVGID_00000023243695148989636970000010957134115289699719_">
						<use xlink:href="#SVGID_00000093144391444322520980000013190785713365804418_"  style="overflow:visible;"/>
					</clipPath>
					<g style="clip-path:url(#SVGID_00000023243695148989636970000010957134115289699719_);enable-background:new    ;">
						<path class="st8" d="M356.8,170.4l2.5,6c-2.8-6.7-10.5-11.9-22-15.2l-2.5-6C346.2,158.5,353.9,163.7,356.8,170.4"/>
					</g>
				</g>
			</g>
			<g class="st2">
				<g>
					<defs>
						<path id="SVGID_00000016054199443414270300000005055181813806520500_" d="M27.2,325.4l-2.5-6c-5.8-13.8,7.5-38.1,63.1-80.4
							l2.5,6C34.6,287.4,21.4,311.6,27.2,325.4z"/>
					</defs>
					<clipPath id="SVGID_00000064351832058315327000000010602211590816809138_">
						<use xlink:href="#SVGID_00000016054199443414270300000005055181813806520500_"  style="overflow:visible;"/>
					</clipPath>
					<g style="clip-path:url(#SVGID_00000064351832058315327000000010602211590816809138_);enable-background:new    ;">
						<path class="st13" d="M87.8,239.1l2.5,6c-8.5,6.5-16.1,12.5-22.7,18.2l-2.5-6C71.7,251.6,79.2,245.6,87.8,239.1"/>
						<path class="st19" d="M65,257.3l2.5,6c-8.8,7.5-16,14.4-21.8,20.6l-2.5-6C49,271.7,56.2,264.8,65,257.3"/>
						<path class="st20" d="M43.3,277.9l2.5,6c-12.4,13.3-18.3,23.7-19.6,31.8l-2.5-6C24.9,301.6,30.8,291.2,43.3,277.9"/>
						<path class="st19" d="M23.7,309.7l2.5,6c-0.2,1.2-0.3,2.4-0.3,3.5l-2.5-6C23.4,312,23.5,310.9,23.7,309.7"/>
						<path class="st13" d="M23.4,313.1l2.5,6c0,0.9,0.1,1.7,0.2,2.5l-2.5-6C23.5,314.8,23.4,314,23.4,313.1"/>
						<path class="st12" d="M23.6,315.6l2.5,6c0.1,0.7,0.3,1.4,0.5,2.1l-2.5-6C23.8,317.1,23.7,316.4,23.6,315.6"/>
						<path class="st11" d="M24,317.7l2.5,6c0.2,0.6,0.4,1.2,0.6,1.7l-2.5-6C24.4,318.9,24.2,318.3,24,317.7"/>
					</g>
				</g>
			</g>
			<g class="st2">
				<g>
					<defs>
						<path id="SVGID_00000088128640527855666060000013737194329809689751_" d="M485.4,140.5l2.5,6c-3.2-7.6-12.1-12.6-23.1-15.8
							l-2.5-6C473.2,127.9,482.2,132.8,485.4,140.5z"/>
					</defs>
					<clipPath id="SVGID_00000010271184496869857230000012844651893638176918_">
						<use xlink:href="#SVGID_00000088128640527855666060000013737194329809689751_"  style="overflow:visible;"/>
					</clipPath>
					<g style="clip-path:url(#SVGID_00000010271184496869857230000012844651893638176918_);enable-background:new    ;">
						<path class="st8" d="M485.4,140.5l2.5,6c-3.2-7.6-12.1-12.6-23.1-15.8l-2.5-6C473.2,127.9,482.2,132.8,485.4,140.5"/>
					</g>
				</g>
			</g>
			<g class="st2">
				<g>
					<defs>
						<path id="SVGID_00000120522980332655684120000007900119912504785581_" d="M495.6,126.7l2.5,6c4.4,10.6-0.2,19.8-0.6,20.6
							l-2.5-6C495.4,146.5,500,137.3,495.6,126.7z"/>
					</defs>
					<clipPath id="SVGID_00000179609526376247235290000006013974035548922760_">
						<use xlink:href="#SVGID_00000120522980332655684120000007900119912504785581_"  style="overflow:visible;"/>
					</clipPath>
					<g style="clip-path:url(#SVGID_00000179609526376247235290000006013974035548922760_);enable-background:new    ;">
						<path class="st11" d="M495.6,126.7l2.5,6c0.4,0.9,0.7,1.8,1,2.7l-2.5-6C496.3,128.5,496,127.6,495.6,126.7"/>
						<path class="st12" d="M496.5,129.4l2.5,6c0.3,1,0.5,2,0.7,3l-2.5-6C497,131.5,496.8,130.5,496.5,129.4"/>
						<path class="st13" d="M497.2,132.4l2.5,6c0.2,1.2,0.3,2.3,0.3,3.4l-2.5-6C497.5,134.8,497.4,133.6,497.2,132.4"/>
						<path class="st19" d="M497.5,135.9l2.5,6c0,1.5-0.1,2.9-0.3,4.2l-2.5-6C497.4,138.8,497.5,137.4,497.5,135.9"/>
						<path class="st20" d="M497.2,140l2.5,6c-0.6,4.1-2,6.9-2.3,7.3l-2.5-6C495.2,146.9,496.6,144.1,497.2,140"/>
					</g>
				</g>
			</g>
			<g>
				<polygon class="st14" points="269,257.1 271.6,263.1 225.7,249.8 223.2,243.8 				"/>
			</g>
			<g>
				<polygon class="st14" points="90.3,336.5 92.8,342.4 72.3,336.5 69.8,330.5 				"/>
			</g>
			<g>
				<polygon class="st15" points="223.2,243.8 225.7,249.8 189.1,308.5 186.5,302.5 				"/>
			</g>
			<g class="st2">
				<g>
					<defs>
						<path id="SVGID_00000068641514774341262660000002675101981999351453_" d="M449.5,153.7l2.5,6c5.9,14,4.5,29.2-2.5,44.1l-2.5-6
							C454,182.8,455.4,167.7,449.5,153.7z"/>
					</defs>
					<clipPath id="SVGID_00000168835899157307581070000009221513070849448850_">
						<use xlink:href="#SVGID_00000068641514774341262660000002675101981999351453_"  style="overflow:visible;"/>
					</clipPath>
					<g style="clip-path:url(#SVGID_00000168835899157307581070000009221513070849448850_);enable-background:new    ;">
						<path class="st11" d="M449.5,153.7l2.5,6c0.7,1.7,1.4,3.5,1.9,5.3l-2.5-6C450.9,157.2,450.2,155.4,449.5,153.7"/>
						<path class="st12" d="M451.4,158.9l2.5,6c0.6,1.9,1,3.9,1.3,5.9l-2.5-6C452.3,162.8,451.9,160.9,451.4,158.9"/>
						<path class="st13" d="M452.6,164.8l2.5,6c0.3,2.2,0.5,4.4,0.5,6.6l-2.5-6C453.2,169.2,453,167,452.6,164.8"/>
						<path class="st19" d="M453.2,171.4l2.5,6c0,2.8-0.2,5.6-0.6,8.4l-2.5-6C453,177,453.2,174.2,453.2,171.4"/>
						<path class="st20" d="M452.6,179.9l2.5,6c-0.9,5.9-2.8,11.9-5.7,17.9l-2.5-6C449.8,191.8,451.7,185.8,452.6,179.9"/>
					</g>
				</g>
			</g>
			<g class="st2">
				<g>
					<defs>
						<path id="SVGID_00000081622632877837562080000015595637330732997800_" d="M444.5,202.4l2.5,6c-0.7,1.3-1.4,2.5-2.1,3.8
							c-17.7,28.4-46.9,43.8-76.1,45.7l-2.5-6c29.2-1.9,58.4-17.3,76.1-45.7C443.2,204.9,443.8,203.7,444.5,202.4z"/>
					</defs>
					<clipPath id="SVGID_00000058571059224415505160000005568321757083481729_">
						<use xlink:href="#SVGID_00000081622632877837562080000015595637330732997800_"  style="overflow:visible;"/>
					</clipPath>
					<g style="clip-path:url(#SVGID_00000058571059224415505160000005568321757083481729_);enable-background:new    ;">
						<path class="st20" d="M444.5,202.4l2.5,6c-0.7,1.3-1.4,2.5-2.1,3.8c-3.4,5.5-7.3,10.6-11.5,15.1l-2.5-6
							c4.2-4.5,8.1-9.6,11.5-15.1C443.2,204.9,443.8,203.7,444.5,202.4"/>
						<path class="st19" d="M430.8,221.3l2.5,6c-2.5,2.7-5.1,5.2-7.9,7.6l-2.5-6C425.7,226.5,428.3,224,430.8,221.3"/>
						<path class="st13" d="M423,228.8l2.5,6c-2.2,1.9-4.4,3.6-6.7,5.2l-2.5-6C418.6,232.4,420.8,230.7,423,228.8"/>
						<path class="st12" d="M416.3,234.1l2.5,6c-2,1.4-4.1,2.8-6.1,4.1l-2.5-6C412.2,236.8,414.3,235.5,416.3,234.1"/>
						<path class="st11" d="M410.1,238.1l2.5,6c-2,1.2-4,2.3-6,3.4l-2.5-6C406.1,240.4,408.2,239.3,410.1,238.1"/>
						<path class="st25" d="M404.1,241.5l2.5,6c-2,1-4,2-6.1,2.9l-2.5-6C400.1,243.4,402.1,242.5,404.1,241.5"/>
						<path class="st6" d="M398,244.3l2.5,6c-2.1,0.9-4.2,1.7-6.4,2.5l-2.5-6C393.8,246,395.9,245.2,398,244.3"/>
						<path class="st5" d="M391.6,246.8l2.5,6c-2.3,0.8-4.6,1.5-7,2.1l-2.5-6C387,248.3,389.3,247.6,391.6,246.8"/>
						<path class="st4" d="M384.7,248.9l2.5,6c-2.7,0.7-5.3,1.3-8,1.8l-2.5-6C379.3,250.2,382,249.6,384.7,248.9"/>
						<path class="st9" d="M376.6,250.7l2.5,6c-3.4,0.6-6.8,1-10.2,1.2l-2.5-6C369.9,251.7,373.3,251.3,376.6,250.7"/>
						<path class="st8" d="M366.5,251.9l2.5,6c0,0-0.1,0-0.1,0l-2.5-6C366.4,251.9,366.4,251.9,366.5,251.9"/>
					</g>
				</g>
			</g>
			<g class="st2">
				<g>
					<defs>
						<path id="SVGID_00000176750199598483492520000016869331815457891751_" d="M494.9,147.3l2.5,6c-9.5,32.3-48.6,57.2-50.6,58.5
							l-2.5-6C446.4,204.5,485.4,179.6,494.9,147.3z"/>
					</defs>
					<clipPath id="SVGID_00000100362472091933220310000002838463265688758451_">
						<use xlink:href="#SVGID_00000176750199598483492520000016869331815457891751_"  style="overflow:visible;"/>
					</clipPath>
					<g style="clip-path:url(#SVGID_00000100362472091933220310000002838463265688758451_);enable-background:new    ;">
						<path class="st20" d="M494.9,147.3l2.5,6c-3.7,12.6-11.9,24.1-20.7,33.4l-2.5-6C483,171.4,491.2,159.9,494.9,147.3"/>
						<path class="st19" d="M474.3,180.8l2.5,6c-4.2,4.5-8.6,8.6-12.6,12.1l-2.5-6C465.7,189.4,470,185.3,474.3,180.8"/>
						<path class="st13" d="M461.6,192.8l2.5,6c-4.6,4-8.9,7.2-12,9.4l-2.5-6C452.7,200,457,196.8,461.6,192.8"/>
						<path class="st12" d="M449.6,202.2l2.5,6c-2.9,2.1-4.9,3.3-5.3,3.6l-2.5-6C444.7,205.6,446.7,204.3,449.6,202.2"/>
					</g>
				</g>
			</g>
			<g class="st2">
				<g>
					<defs>
						<path id="SVGID_00000018948720149385607810000009827501136919973808_" d="M4.4,329l-2.5-6c4,9.5,14,15.5,26.5,19.2
							c31.5,9.2,79.2,3.4,89,2.1l2.5,6c-9.8,1.3-57.5,7-89-2.1C18.4,344.6,8.5,338.6,4.4,329z"/>
					</defs>
					<clipPath id="SVGID_00000158007774943371442110000008720947459731275916_">
						<use xlink:href="#SVGID_00000018948720149385607810000009827501136919973808_"  style="overflow:visible;"/>
					</clipPath>
					<g style="clip-path:url(#SVGID_00000158007774943371442110000008720947459731275916_);enable-background:new    ;">
						<path class="st9" d="M117.4,344.3l2.5,6c-3.5,0.5-11.9,1.5-22.6,2.2l-2.5-6C105.5,345.9,113.9,344.8,117.4,344.3"/>
						<path class="st8" d="M94.8,346.6l2.5,6c-19.3,1.3-46.2,1.5-66.4-4.3c-12.5-3.6-22.5-9.6-26.5-19.2l-2.5-6
							c4,9.5,14,15.5,26.5,19.2C48.6,348.1,75.5,347.9,94.8,346.6"/>
					</g>
				</g>
			</g>
			<g class="st2">
				<g>
					<defs>
						<path id="SVGID_00000134219334555418465050000013336732998121808259_" d="M294.1,274.3l2.5,6c-3-7.1-10.9-13.1-25-17.2l-2.5-6
							C283.2,261.2,291.1,267.2,294.1,274.3z"/>
					</defs>
					<clipPath id="SVGID_00000176025680099887065890000005145757160408243363_">
						<use xlink:href="#SVGID_00000134219334555418465050000013336732998121808259_"  style="overflow:visible;"/>
					</clipPath>
					<g style="clip-path:url(#SVGID_00000176025680099887065890000005145757160408243363_);enable-background:new    ;">
						<path class="st8" d="M294.1,274.3l2.5,6c-3-7.1-10.9-13.1-25-17.2l-2.5-6C283.2,261.2,291.1,267.2,294.1,274.3"/>
					</g>
				</g>
			</g>
			<g>
				<polygon class="st14" points="217.8,373.5 220.4,379.5 119.9,350.3 117.4,344.3 				"/>
			</g>
			<g class="st2">
				<g>
					<defs>
						<path id="SVGID_00000053521754836640022140000012102372349243404207_" d="M384.2,274.4l2.5,6c5.8,13.7,5.7,31.3-7,51.7
							c-27.2,43.7-85.6,68.8-159.4,47.4l-2.5-6c73.7,21.4,132.1-3.7,159.4-47.4C389.9,305.7,390,288.2,384.2,274.4z"/>
					</defs>
					<clipPath id="SVGID_00000142168370198084774620000016070524663777486776_">
						<use xlink:href="#SVGID_00000053521754836640022140000012102372349243404207_"  style="overflow:visible;"/>
					</clipPath>
					<g style="clip-path:url(#SVGID_00000142168370198084774620000016070524663777486776_);enable-background:new    ;">
						<path class="st11" d="M384.2,274.4l2.5,6c0.7,1.7,1.3,3.5,1.9,5.3l-2.5-6C385.5,277.9,384.9,276.1,384.2,274.4"/>
						<path class="st12" d="M386.1,279.7l2.5,6c0.6,1.9,1,3.8,1.3,5.8l-2.5-6C387,283.6,386.6,281.6,386.1,279.7"/>
						<path class="st13" d="M387.3,285.6l2.5,6c0.3,2.1,0.5,4.3,0.5,6.6l-2.5-6C387.9,289.9,387.7,287.7,387.3,285.6"/>
						<path class="st19" d="M387.9,292.1l2.5,6c0,2.7-0.2,5.4-0.6,8.3l-2.5-6C387.7,297.6,387.9,294.8,387.9,292.1"/>
						<path class="st20" d="M387.3,300.4l2.5,6c-1.2,7.9-4.4,16.5-10.1,25.7c-3.7,5.9-8,11.5-12.8,16.7l-2.5-6
							c4.8-5.2,9.1-10.8,12.8-16.7C382.9,317,386.1,308.4,387.3,300.4"/>
						<path class="st19" d="M364.4,342.8l2.5,6c-2.9,3.1-5.9,6-9.2,8.8l-2.5-6C358.5,348.9,361.6,345.9,364.4,342.8"/>
						<path class="st13" d="M355.3,351.7l2.5,6c-2.5,2.2-5.2,4.2-7.9,6.2l-2.5-6C350.1,355.9,352.7,353.8,355.3,351.7"/>
						<path class="st12" d="M347.4,357.8l2.5,6c-2.4,1.7-4.9,3.4-7.5,4.9l-2.5-6C342.4,361.2,344.9,359.6,347.4,357.8"/>
						<path class="st11" d="M339.9,362.8l2.5,6c-2.4,1.5-4.9,2.8-7.4,4.2l-2.5-6C335,365.6,337.5,364.2,339.9,362.8"/>
						<path class="st25" d="M332.4,366.9l2.5,6c-2.5,1.3-5.1,2.5-7.7,3.6l-2.5-6C327.3,369.4,329.9,368.2,332.4,366.9"/>
						<path class="st6" d="M324.7,370.6l2.5,6c-2.7,1.2-5.5,2.2-8.3,3.2l-2.5-6C319.2,372.8,322,371.7,324.7,370.6"/>
						<path class="st5" d="M316.4,373.8l2.5,6c-3,1.1-6.2,2-9.4,2.9l-2.5-6C310.2,375.8,313.3,374.8,316.4,373.8"/>
						<path class="st4" d="M307,376.6l2.5,6c-3.7,1-7.5,1.8-11.5,2.5l-2.5-6C299.5,378.4,303.3,377.6,307,376.6"/>
						<path class="st9" d="M295.6,379.1l2.5,6c-5,0.9-10.2,1.5-15.5,1.9l-2.5-6C285.4,380.6,290.6,380,295.6,379.1"/>
						<path class="st8" d="M280.1,381l2.5,6c-19.1,1.3-40-1-62.2-7.4l-2.5-6C240.1,380,261,382.2,280.1,381"/>
					</g>
				</g>
			</g>
			<g>
				<path class="st30" d="M366.3,251.9c17.7,13.5,32.3,39.8,10.9,74.2c-27.2,43.7-85.6,68.8-159.4,47.4l-100.4-29.2
					c-9.8,1.3-57.5,7-89-2.1c-24.2-7-38.8-22.8-19.5-56c47.4-81.7,177-136.4,247-163.8c6.2-2.4,12.6-4.7,19-6.8
					c2.4-0.8,2.8-0.9,3.3-1.1c0.1-0.1-0.7,0.2-2.3,0.7c-10.9,2.8-53.4,8.8-84.3,19.9l44.1-70.8L351.5,98c40.8-5.4,79.5-4.3,108.1,4
					c50.9,14.8,36.2,43.8,35.4,45.3c-9.5,32.3-48.6,57.2-50.6,58.5l0.2-3.4c-0.7,1.3-1.4,2.5-2.1,3.8
					C424.7,234.6,395.5,250,366.3,251.9z M43.5,332.8c14.4,4.2,33.6,4.3,46.8,3.6l-20.5-5.9L155.6,193c-36,20.3-57.1,38.5-67.9,46.1
					C5.5,301.6,15.8,324.8,43.5,332.8 M462.3,124.7c-15.7-4.5-35.5-5.5-48.7-5.5c39.4,20.3,46.9,49.9,33.3,78.6
					C504.7,152.1,490,132.7,462.3,124.7 M230.8,315.4c28.5,8.3,47.5,0.7,59.4-18.4c10.4-16.7,6.4-31.9-21.2-39.9l-45.9-13.3
					l-36.6,58.7L230.8,315.4 M287.1,141.3l-31.2,50.1l48.4,14.1c23.8,6.9,40.4-1.3,49.4-15.8c10.3-16.5,2-28.5-18.8-34.5
					L287.1,141.3"/>
			</g>
		</g>
	</g>
</g>
</svg>
