<?xml version="1.0" encoding="utf-8"?>
<!-- Generator: Adobe Illustrator 27.0.1, SVG Export Plug-In . SVG Version: 6.00 Build 0)  -->
<svg version="1.1" id="snow" xmlns="http://www.w3.org/2000/svg" xmlns:xlink="http://www.w3.org/1999/xlink" x="0px" y="0px"
	 viewBox="0 0 500 500" style="enable-background:new 0 0 500 500;" xml:space="preserve">
<style type="text/css">
	.st0{fill:#63ADF2;}
</style>
<path class="st0" d="M275.4,2h-52.8v86.7l-71.8-72.3L113.5,54l71.8,72.3l37.3-37.5v56.3l-67.9,68.4l-99.2-99.8l-37.3,37.5l73,73.5H2
	v53.1h85.5l-70.7,71.2l37.3,37.5l70.7-71.2l-37.3-37.5h56.4l49.3,49.6l37.3-37.5L192,250.9L386.5,55.2l-37.3-37.5L275.4,92V2z"/>
<path class="st0" d="M277.4,498h-52.8v-90l-73.8,74.3l-37.3-37.5L308,249.1l-38.6-38.8l37.3-37.5l49.3,49.6h56.4H498v53.1l-89.2,0
	l73,73.5l-37.3,37.5l-99.2-99.8l-67.9,68.4v56.3l37.3-37.5l71.8,72.3l-37.3,37.5l-71.8-72.3V498z"/>
<path class="st0" d="M412.5,222.3l70.7-71.2l-37.3-37.5l-70.7,71.2L412.5,222.3z"/>
</svg>
