<?xml version="1.0" encoding="utf-8"?>
<!-- Generator: Adobe Illustrator 26.5.0, SVG Export Plug-In . SVG Version: 6.00 Build 0)  -->
<svg version="1.1" id="_x31_flr" xmlns="http://www.w3.org/2000/svg" xmlns:xlink="http://www.w3.org/1999/xlink" x="0px" y="0px"
	 viewBox="0 0 500 500" style="enable-background:new 0 0 500 500;" xml:space="preserve">
<style type="text/css">
	.st0{fill:url(#SVGID_1_);}
	.st1{fill:#FFFFFF;}
</style>
<linearGradient id="SVGID_1_" gradientUnits="userSpaceOnUse" x1="1.9942" y1="249.994" x2="498.8112" y2="249.994">
	<stop  offset="0" style="stop-color:#AA43F7"/>
	<stop  offset="1" style="stop-color:#52009A"/>
</linearGradient>
<circle class="st0" cx="250.4" cy="250" r="248.4"/>
<path class="st1" d="M123.3,88.1c0,0-31.8,15.6-31.8,58.4s39.2,51.1,46.5,51.1h128.7c31.8,0,57.6,25.8,57.6,57.6v0
	c0,31.7-25.6,57.5-57.4,57.6l-52.2,0.2c-10.2,0-18.5,8.4-18.5,18.6v37c0,0,24.9,17.3,64.3,17.3c47.7,0,125.6-39.9,125.6-125.6
	c0-92.1-76.2-129.5-128.2-128.2c-52.1,1.3-79.9,3.3-90.1,3.3s-50.5,0-50.5-23C117.3,97,123.3,88.1,123.3,88.1z"/>
<path class="st1" d="M91.1,213.5c0,0-2.8,36.1,13.2,55.9c12.9,16,32.5,15.7,32.5,15.7c2.3,17.2,9.7,34,21.5,50.4v-2.7
	c0-32.1,26-58.1,58.1-58.1h49.8c10.9,0,19.8-8.9,19.8-19.8v0c0-10.9-8.9-19.8-19.8-19.8H126.7C111.2,235.2,98.8,229,91.1,213.5z"/>
</svg>
