<?xml version="1.0" encoding="utf-8"?>
<!-- Generator: Adobe Illustrator 26.0.1, SVG Export Plug-In . SVG Version: 6.00 Build 0)  -->
<svg version="1.1" id="Layer_1" xmlns="http://www.w3.org/2000/svg" xmlns:xlink="http://www.w3.org/1999/xlink" x="0px" y="0px"
	 viewBox="0 0 2000 1729.5" style="enable-background:new 0 0 2000 1729.5;" xml:space="preserve">
<g>
	<path style="fill:#020041;" d="M1002.8,0c90.8,153.6,178.4,309.1,268.3,463.2c13,20,16.8,44,16.5,67.5c0,185,0,369.9,0,554.8
		c-123.4-43.7-260.9-51.3-386.1-10.3c-67,20.6-127.5,57.1-184.8,96.7c0.2-217.5,0.2-435.1,0-652.7c0-15.9,0.5-32.4,10.3-45.8
		C819.3,315.9,911.3,158.1,1002.8,0z"/>
	<path style="fill:#020041;" d="M0,1725.7c168.4-290.5,337.3-580.7,506.8-870.8c3.2,290.6,1.2,581.4,1.1,872
		C338.7,1725.4,169.3,1726.9,0,1725.7"/>
	<path style="fill:#020041;" d="M1494.8,856.4c171.5,289.1,336.4,582.2,505.2,873c-168.6,0.6-337.1-1-505.6,0
		C1493.8,1438.3,1492.9,1147.3,1494.8,856.4"/>
	<path style="fill:#020041;" d="M1008.5,1243.1c94.7-16.1,193.3,5.1,275.7,53.7c2.4,143.9-1.7,287.9,3.9,431.6
		c-183.5,0.7-367.1-0.6-550.6-1.3c-19.1-76-28-157-6.6-233.6C764.9,1365.9,877.9,1263.4,1008.5,1243.1"/>
</g>
</svg>
