<?xml version="1.0" encoding="utf-8"?>
<!-- Generator: Adobe Illustrator 27.7.0, SVG Export Plug-In . SVG Version: 6.00 Build 0)  -->
<svg version="1.1" id="Layer_1" xmlns="http://www.w3.org/2000/svg" xmlns:xlink="http://www.w3.org/1999/xlink" x="0px" y="0px"
	 viewBox="0 0 500 500" style="enable-background:new 0 0 500 500;" xml:space="preserve">
<style type="text/css">
	.st0{fill-rule:evenodd;clip-rule:evenodd;fill:url(#SVGID_1_);}
	.st1{fill-rule:evenodd;clip-rule:evenodd;fill:#FFFFFF;}
	.st2{fill-rule:evenodd;clip-rule:evenodd;fill:#7866D5;}
	.st3{fill:#FFFFFF;}
</style>
<linearGradient id="SVGID_1_" gradientUnits="userSpaceOnUse" x1="436.3935" y1="406.7209" x2="64.3935" y2="93.7209" gradientTransform="matrix(1 0 0 -1 0 499.8898)">
	<stop  offset="0" style="stop-color:#B6509E"/>
	<stop  offset="1" style="stop-color:#2EBAC6"/>
</linearGradient>
<path class="st0" d="M250,500c138.1,0,250-111.9,250-250S388.1,0,250,0S0,111.9,0,250S111.9,500,250,500z"/>
<path class="st1" d="M250,475c124.3,0,225-100.7,225-225S374.3,25,250,25S25,125.7,25,250S125.7,475,250,475z"/>
<path class="st2" d="M250,450c110.5,0,200-89.5,200-200S360.5,50,250,50S50,139.5,50,250S139.5,450,250,450z"/>
<path class="st3" d="M322.2,164c6,0.7,12.1,1.1,18.1,2.2c11.8,2.2,15.7,7.9,13.7,19.3c-0.8,4.6-3.8,7.5-8.5,8.2
	c-2.8,0.4-5.7,0.6-8.5,0.6c-38.8,0.1-77.6,0.2-116.4,0.3c-5.9,0-11.7,0.5-17.4,1.5c-19.2,3-26.5,10.6-28.1,29.2
	c-0.7,8.7-0.7,8.7,8.4,8.7h159.2c2.5,0.1,4.9,0.5,7,1.8c7.1,4.3,5.3,11.1,4.9,17.3c-0.3,5-3.5,7.8-8.8,8.8c-2.3,0.3-4.6,0.5-6.8,0.5
	H180.1c-5.9,0-5.8,0-5.3,5.5c0.4,5.1,0.7,10.1,2,15c2.4,9.2,8.3,14.9,17.8,17.4c10.5,2.8,21.4,3.5,32.3,3.5
	c37.9,0.2,75.7,0.2,113.6,0.2c4.8,0,9.3,0.6,12.1,4.9c5.5,8.2,1.2,19.6-8.4,22.5c-8.2,2.5-16.8,3.2-25.3,3.2
	c-35.6,0.6-71.1,0.7-106.7,0c-11-0.3-21.9-1.5-32.7-3.6c-25.3-5-38-17.3-42.3-41.7c-1-5.6-1.5-11.3-2.2-17v-44.4
	c0.5-4.4,0.9-8.8,1.5-13.1c3.4-27.6,16.3-41.1,44.6-47.1c10.1-2.2,20.4-2.6,30.5-3.6C248.3,164,285.2,164,322.2,164z"/>
</svg>
