<?xml version="1.0" encoding="utf-8"?>
<!-- Generator: Adobe Illustrator 27.7.0, SVG Export Plug-In . SVG Version: 6.00 Build 0)  -->
<svg version="1.1" id="Layer_1" xmlns="http://www.w3.org/2000/svg" xmlns:xlink="http://www.w3.org/1999/xlink" x="0px" y="0px"
	 viewBox="0 0 500 500" style="enable-background:new 0 0 500 500;" xml:space="preserve">
<style type="text/css">
	.st0{fill-rule:evenodd;clip-rule:evenodd;fill:url(#SVGID_1_);}
	.st1{fill-rule:evenodd;clip-rule:evenodd;fill:#FFFFFF;}
	.st2{fill-rule:evenodd;clip-rule:evenodd;fill:#31CB9E;}
</style>
<linearGradient id="SVGID_1_" gradientUnits="userSpaceOnUse" x1="436.3935" y1="406.7209" x2="64.3935" y2="93.7209" gradientTransform="matrix(1 0 0 -1 0 499.8898)">
	<stop  offset="0" style="stop-color:#B6509E"/>
	<stop  offset="1" style="stop-color:#2EBAC6"/>
</linearGradient>
<path class="st0" d="M250,500c138.1,0,250-111.9,250-250S388.1,0,250,0S0,111.9,0,250S111.9,500,250,500z"/>
<path class="st1" d="M250,475c124.3,0,225-100.7,225-225S374.3,25,250,25S25,125.7,25,250S125.7,475,250,475z"/>
<path class="st2" d="M250,450c110.5,0,200-89.5,200-200S360.5,50,250,50S50,139.5,50,250S139.5,450,250,450z"/>
<path class="st1" d="M241,100.6l-85.2,65.1c-3.7,2.8-5.9,7.2-5.8,11.8v138c0,4.6,2.1,9,5.8,11.8l85.2,65c5.3,4,12.7,4,18,0
	l85.2-65.1c3.7-2.8,5.9-7.2,5.8-11.8v-138c0-4.6-2.1-9-5.8-11.8l-85.2-65C253.7,96.5,246.3,96.5,241,100.6L241,100.6z M225.3,257.6
	l109.5,62.9l-82.5,63L225.3,257.6L225.3,257.6z M334.7,172.5l-82.4-63l-27.1,125.8L334.7,172.5z M228.4,246.5l110.5-63.5v127
	L228.4,246.5z M239.6,115.7l-78.5,59.9v141.7l78.5,59.9l-28.1-130.8L239.6,115.7z"/>
</svg>
