<?xml version="1.0" encoding="utf-8"?>
<!-- Generator: Adobe Illustrator 24.0.0, SVG Export Plug-In . SVG Version: 6.00 Build 0)  -->
<svg version="1.1" id="Layer_1" xmlns="http://www.w3.org/2000/svg" xmlns:xlink="http://www.w3.org/1999/xlink" x="0px" y="0px"
	 viewBox="0 0 148.4 164.3" style="enable-background:new 0 0 148.4 164.3;" xml:space="preserve">
<style type="text/css">
	.st0{fill:url(#SVGID_1_);}
</style>
<title>akropolis logo portrait color</title>
<linearGradient id="SVGID_1_" gradientUnits="userSpaceOnUse" x1="0" y1="137.8839" x2="148.44" y2="137.8839" gradientTransform="matrix(1 0 0 -1 0 220.0119)">
	<stop  offset="0" style="stop-color:#E168FD"/>
	<stop  offset="1" style="stop-color:#7B00FC"/>
</linearGradient>
<path class="st0" d="M74.2,164.3c-4,0-8-1.1-11.5-3.1l-51.1-29.5C4.4,127.5,0,119.9,0,111.6v-59c0-8.2,4.4-15.9,11.5-20L62.7,3.1
	C69.8-1,78.6-1,85.8,3.1l51.1,29.5c7.1,4.1,11.5,11.8,11.5,20v59.1c0,8.2-4.4,15.9-11.5,20l-51.1,29.5
	C82.2,163.2,78.3,164.3,74.2,164.3z M74.2,8c-2.6,0-5.2,0.7-7.5,2L15.5,39.6c-4.7,2.7-7.5,7.7-7.5,13v59.1c0,5.4,2.9,10.3,7.5,13
	l51.1,29.6c4.7,2.7,10.4,2.7,15.1,0l51.1-29.5c4.6-2.7,7.5-7.6,7.5-13V52.6c0-5.4-2.9-10.4-7.5-13L81.8,10C79.5,8.7,76.9,8,74.2,8z
	 M74.2,137.5c-2.2,0-4.3-0.6-6.2-1.7l-37.2-21.4c-3.8-2.2-6.2-6.3-6.2-10.8V60.7c0-4.4,2.3-8.5,6.2-10.8L68,28.5
	c3.9-2.2,8.6-2.2,12.4,0l37.1,21.4c3.8,2.2,6.2,6.3,6.2,10.8v42.9c0,4.4-2.4,8.6-6.2,10.8l-37.2,21.4
	C78.5,136.9,76.4,137.5,74.2,137.5L74.2,137.5z M74.2,32.8c-1.1,0-2.2,0.3-3.2,0.9L33.8,55.1c-2,1.2-3.2,3.3-3.2,5.6v42.9
	c0,2.3,1.2,4.4,3.2,5.6L71,130.6c2,1.2,4.4,1.2,6.4,0l37.1-21.4c2-1.2,3.2-3.3,3.2-5.6V60.7c0-2.3-1.2-4.4-3.2-5.6L77.4,33.7
	C76.5,33.1,75.4,32.8,74.2,32.8L74.2,32.8z M74.2,110.3c-1.1,0-2.2-0.3-3.2-0.8L52.2,98.5c-2-1.1-3.2-3.3-3.2-5.5V71.2
	c0-2.3,1.2-4.4,3.2-5.5L71,54.8c2-1.1,4.4-1.1,6.4,0l18.8,10.9c2,1.1,3.2,3.2,3.2,5.5V93c0,2.3-1.2,4.4-3.2,5.5l-18.8,10.9
	C76.4,110,75.3,110.3,74.2,110.3L74.2,110.3z M74.2,58c-0.4,0-0.8,0.1-1.2,0.3L54.2,69.2c-0.7,0.4-1.2,1.2-1.2,2V93
	c0,0.8,0.5,1.6,1.2,2.1L73,106c0.7,0.4,1.6,0.4,2.4,0l18.8-10.9c0.7-0.4,1.2-1.3,1.2-2.1V71.2c0-0.8-0.5-1.6-1.2-2L75.4,58.3
	C75,58.1,74.6,58,74.2,58L74.2,58z"/>
</svg>
