<?xml version="1.0" encoding="utf-8"?>
<!-- Generator: Adobe Illustrator 27.5.0, SVG Export Plug-In . SVG Version: 6.00 Build 0)  -->
<svg version="1.1" id="Layer_1" xmlns="http://www.w3.org/2000/svg" xmlns:xlink="http://www.w3.org/1999/xlink" x="0px" y="0px"
	 viewBox="0 0 500 500" style="enable-background:new 0 0 500 500;" xml:space="preserve">
<style type="text/css">
	.st0{fill:#29ABE2;}
</style>
<path class="st0" d="M250,0.4C111.9,0.4,0,112.1,0,250s111.9,249.6,250,249.6c138.1,0,250-111.8,250-249.6S388,0.4,250,0.4z
	 M279.5,123.1c-31.3,15.7,0.3,22.2-1.1,31.5c-0.4,2.6-2.9,7.5-11,9.4c0,0.2,0,0.4,0,0.6c9.9-0.9,10.3,9.2,8.2,10.2
	c-17.6,8.2-15,22.4-8.3,31.2c3.6,4.8,7.4,5.5,9.9,8.9c6,8.1,6.9,16.7-2.6,25.3c-2.9,2.6-6.8,5.6-12,9c-4.9,3.3-10.9,6.9-18.1,11.2
	c-28.8,17-51.2,16.8-34.6,42.2c10.8,15-0.9,27.2-11,31.1c-10.2,3.8-4.8,17.2,7.7,17c-21.6,0.2-17.3,12.1-14,15.7
	c6.3,6.5,8.4,12.5-7.3,23c-24.4,16.4,1.4,28.6,1.4,28.6c20.4,13.8,35.5,32.5,39.2,37.9c0.4,0.5,3.4,4,3.7,5.9
	c-108.2-10-192.8-100.9-192.8-211.4c0-110.6,88.4-205.4,199.9-212c0.1,1,0.2,2,0.2,3.1c0,0.8,0,1.6,0.2,2.4c-0.1,0-0.1,0-0.2,0
	c2.8,14.8,33,40.6,53.2,57.5C290.1,101.2,302.9,111.6,279.5,123.1L279.5,123.1z"/>
</svg>
