<?xml version="1.0" encoding="utf-8"?>
<!-- Generator: Adobe Illustrator 26.0.1, SVG Export Plug-In . SVG Version: 6.00 Build 0)  -->
<svg version="1.1" id="Layer_1" xmlns:xodm="http://www.corel.com/coreldraw/odm/2003"
	 xmlns="http://www.w3.org/2000/svg" xmlns:xlink="http://www.w3.org/1999/xlink" x="0px" y="0px" viewBox="0 0 2340 2500.6"
	 style="enable-background:new 0 0 2340 2500.6;" xml:space="preserve">
<style type="text/css">
	.st0{fill:#22AEA5;}
	.st1{fill-rule:evenodd;clip-rule:evenodd;fill:#FFFFFF;}
</style>
<g>
	<path class="st0" d="M1307,36.3l885,483c93,51,146,147,147,247h1v969c0,115-69,215-169,258l-866,473c-88,48-190,44-272-2l-885-483
		c-93-51-146-147-147-247H0v-969c0-115,69-215,169-258l866-473C1123-13.7,1225-9.7,1307,36.3z"/>
	<g>
		<path class="st1" d="M752,773.3L752,773.3c95,0,172,77,172,172v610c0,95-77,172-172,172l0,0c-95,0-172-77-172-172v-610
			C580,850.3,657,773.3,752,773.3z"/>
		<path class="st1" d="M1588,773.3L1588,773.3c95,0,172,77,172,172v610c0,95-77,172-172,172l0,0c-95,0-172-77-172-172v-610
			C1416,850.3,1493,773.3,1588,773.3z"/>
		<path class="st1" d="M1170,1230.3c-95,0-172-77-172-172s77-172,172-172s172,77,172,172S1265,1230.3,1170,1230.3z"/>
	</g>
</g>
</svg>
