<?xml version="1.0" encoding="utf-8"?>
<!-- Generator: Adobe Illustrator 26.5.0, SVG Export Plug-In . SVG Version: 6.00 Build 0)  -->
<svg version="1.1" id="Layer_1" xmlns="http://www.w3.org/2000/svg" xmlns:xlink="http://www.w3.org/1999/xlink" x="0px" y="0px"
	 viewBox="0 0 500 500" style="enable-background:new 0 0 500 500;" xml:space="preserve">
<style type="text/css">
	.st0{fill:#F5C09A;}
</style>
<g>
	<g>
		<path class="st0" d="M250.3,3.1C113.8,3.1,2.8,114.1,2.8,250.5C2.8,387,113.8,498,250.3,498c136.5,0,247.5-111,247.5-247.5
			C497.7,114.1,386.7,3.1,250.3,3.1z M300.8,119.3c52.3,20.3,89.4,71,89.4,130.5c0,59.4-37,110.2-89.3,130.4
			c-5.3,2.1-8.8,7.2-8.8,12.9v10.3l-40.5,31.6l-42.3-31.6v-10c0-5.7-3.5-10.9-8.9-12.9c-52.6-20.1-89.9-71-89.9-130.7
			c0-59.6,37.3-110.5,89.8-130.6c5.4-2.1,8.9-7.2,8.9-12.9V98l42.3-31.6L291.9,98v8.4C291.9,112.1,295.4,117.2,300.8,119.3z
			 M12.4,250.5c0-129.9,104.6-235.8,234-237.9v44L80.9,188.6v124.8l165.5,130.9v44.1C117,486.3,12.4,380.4,12.4,250.5z M256.2,488.4
			v-42.2l166.7-132.8V188.6L256.2,55.7v-43c128.4,3.2,231.9,108.7,231.9,237.8C488.2,379.7,384.7,485.2,256.2,488.4z"/>
		<path class="st0" d="M264.5,153.5c0.4-16.2-1.5-17.7-17-17.5c-10.8,0.2-13.2,3.2-13,17.8c0.1,7.4-1.7,11.3-9.8,13.2
			c-19.7,4.6-34.3,22.4-34.7,42.6c-0.5,24.4,9.1,35.1,29.7,42.6c6.7,2.4,13.8,3.5,20.7,5.5c10.7,3,21.5,5.7,31.8,9.7
			c7.7,2.9,10.8,9.9,9.5,18.1c-1.8,10.9-7.3,18.9-18.7,21.1c-5.7,1.1-11.6,1.1-17.4,1.3c-13.5,0.6-22.8-5.3-28.3-17.7
			c-1.3-2.9-3-5.7-5.1-8c-4.9-5.3-15.8-6.2-22.2-1.8c-6.5,4.5-3.4,10.5-1.6,15.8c5.6,16.1,16.9,27.1,33.2,31.7
			c9.4,2.6,13.4,6.7,13.1,17c-0.3,12.8,2.6,14.8,15.1,14.8c11.9,0,13.9-1.7,15.1-13.4c0.2-2.1,0.3-4.2,0.2-6.4
			c-0.3-5.6,2.2-8.9,7.7-10.4c12.3-3.3,21.7-10.9,29.7-20.5c19.2-23.1,8.4-60.7-20-69.6c-8.3-2.6-17-4.3-25.4-6.5
			c-8.5-2.2-17-4-25.3-6.7c-6.6-2.2-11.4-6.1-11.3-14.4c0.2-9,1.5-16.9,10.4-21.5c15.3-8,34.4-4,44,10.3c5.2,7.9,11,11.1,20.5,9.6
			c9.4-1.6,11.4-3.8,8.4-13c-4.7-14.4-14.4-23.9-28.6-28.8C267.7,165.8,264.3,162.5,264.5,153.5z"/>
	</g>
</g>
</svg>
