<?xml version="1.0" encoding="utf-8"?>
<!-- Generator: Adobe Illustrator 24.0.0, SVG Export Plug-In . SVG Version: 6.00 Build 0)  -->
<svg version="1.1" id="Layer_1" xmlns="http://www.w3.org/2000/svg" xmlns:xlink="http://www.w3.org/1999/xlink" x="0px" y="0px"
	 viewBox="0 0 37.5 40" style="enable-background:new 0 0 37.5 40;" xml:space="preserve">
<style type="text/css">
	.st0{fill-rule:evenodd;clip-rule:evenodd;fill:#245AE5;fill-opacity:0.9;}
</style>
<path class="st0" d="M21.4,0.6l13.1,6.7c1.9,1,3.1,2.9,3.1,5.1v3.1h-4.8v-3.1c0-0.3-0.2-0.6-0.5-0.8L19.2,4.9
	c-0.2-0.1-0.5-0.1-0.8,0L5.3,11.6c-0.3,0.1-0.5,0.4-0.5,0.8v3.1H0v-3.1c0-2.1,1.2-4.1,3.1-5.1l13.1-6.7C17.8-0.2,19.7-0.2,21.4,0.6z
	 M22.9,19.8c0-2.3-1.9-4.1-4.1-4.1c-2.3,0-4.1,1.8-4.1,4.1c0,2.3,1.9,4.1,4.1,4.1C21,23.9,22.9,22.1,22.9,19.8z M32.2,28.4
	c0.3-0.1,0.5-0.4,0.5-0.8v-3.1h4.8v3.1c0,2.1-1.2,4.1-3.1,5.1l-13.1,6.7c-0.8,0.4-1.7,0.6-2.6,0.6s-1.8-0.2-2.6-0.6L3.1,32.7
	c-1.9-1-3.1-2.9-3.1-5.1v-3.1h4.8v3.1c0,0.3,0.2,0.6,0.5,0.8L16.4,34v-5.6c-3.8-1.1-6.5-4.5-6.5-8.6c0-4.9,4-9,9-9c4.9,0,9,4,9,9
	c0,4.1-2.8,7.6-6.5,8.6V34L32.2,28.4z"/>
</svg>
