<?xml version="1.0" encoding="UTF-8"?>
<svg xmlns:xodm="http://www.corel.com/coreldraw/odm/2003" xmlns="http://www.w3.org/2000/svg" xmlns:xlink="http://www.w3.org/1999/xlink" version="1.1" id="Layer_1" x="0px" y="0px" viewBox="0 0 2500 2500" style="enable-background:new 0 0 2500 2500;" xml:space="preserve">
<style type="text/css">
	.st0{fill-rule:evenodd;clip-rule:evenodd;fill:#3164FA;}
	.st1{fill:#3164FA;}
</style>
<g id="Layer_x0020_1">
	<g id="_2431269943712">
		<path class="st0" d="M995,128L881,7c198-25,719,7,1224,341c7,46,5,92,5,92l37,20l0,0l0,0h1c21,36,42,89,55,152c16,76,21,163,2,247    s-56,154-91,205c-26,38-51,64-68,78c-64,1-185,45-219,194c-103,59-266,118-480,118c-205,0-414-59-571-174    c-156-114-262-283-262-506c0-177,80-316,180-417c101-102,239-185,320-212l-20-17H995z M1881,419c-40,43-77,64-88,70    c-232-52-316-177-316-177c219-1,417,53,561,145c0,0-78-27-158-38H1881z"></path>
		<path class="st1" d="M877,161C379,261,0,709,0,1250c0,684,578,1250,1292,1250c533,0,976-326,1208-762c-308,73-677-57-679-341    c-111,57-271,108-474,108c-214,0-433-62-600-184c-168-122-282-306-282-547c0-194,87-344,195-453c62-62,148-121,218-161L877,161z"></path>
		<path class="st1" d="M2253,602c-7-31-15-61-25-88c134,100,238,236,229,427c-13,274-178,382-284,399c51-85,8-139-8-157    c-8-9-25-23-54-33c14-16,30-35,46-57c39-55,78-131,99-222c21-92,16-187-2-269H2253z"></path>
	</g>
</g>
</svg>
