<?xml version="1.0" encoding="utf-8"?>
<!-- Generator: Adobe Illustrator 26.0.1, SVG Export Plug-In . SVG Version: 6.00 Build 0)  -->
<svg version="1.1" id="Layer_1" xmlns="http://www.w3.org/2000/svg" xmlns:xlink="http://www.w3.org/1999/xlink" x="0px" y="0px"
	 viewBox="0 0 43.3 43" style="enable-background:new 0 0 43.3 43;" xml:space="preserve">
<style type="text/css">
	.st0{fill-rule:evenodd;clip-rule:evenodd;fill:url(#SVGID_1_);}
	.st1{fill-rule:evenodd;clip-rule:evenodd;fill:#FFFFFF;}
</style>
<linearGradient id="SVGID_1_" gradientUnits="userSpaceOnUse" x1="-230.5231" y1="433.6045" x2="-231.5231" y2="432.617" gradientTransform="matrix(43.273 0 0 -43 10018.7012 18645.2637)">
	<stop  offset="0" style="stop-color:#5F6BFB"/>
	<stop  offset="1" style="stop-color:#724DE4"/>
</linearGradient>
<path class="st0" d="M29.4,0H13.9C6.2,0,0,6.1,0,13.8v15.4C0,36.9,6.2,43,13.9,43h15.5c7.7,0,13.9-6.1,13.9-13.8V13.8
	C43.3,6.1,37.1,0,29.4,0L29.4,0z"/>
<path class="st1" d="M10,19.3c-1.4,1.4-2,3.4-1.5,5.3s1.9,3.3,3.8,3.8c1.9,0.5,3.9-0.1,5.3-1.5l9.4-9.3c1.3-1.3,3.5-1.3,4.7-0.1
	s1.3,3.4-0.1,4.7l-3,3L27,23.5l-1.2,6.1l6.1-1.2l-1.7-1.7l3-3c1.4-1.4,2-3.4,1.5-5.3c-0.5-1.9-1.9-3.3-3.8-3.8
	c-1.9-0.5-3.9,0.1-5.3,1.5l-9.4,9.3c-1.3,1.3-3.5,1.3-4.7,0.1s-1.3-3.4,0.1-4.7l2.8-2.8l1.7,1.7l1.2-6.1l-6.1,1.2l1.7,1.7L10,19.3
	L10,19.3z"/>
</svg>
