<?xml version="1.0" encoding="utf-8"?>
<!-- Generator: Adobe Illustrator 27.7.0, SVG Export Plug-In . SVG Version: 6.00 Build 0)  -->
<svg version="1.1" id="Layer_1" xmlns="http://www.w3.org/2000/svg" xmlns:xlink="http://www.w3.org/1999/xlink" x="0px" y="0px"
	 viewBox="0 0 500 500" style="enable-background:new 0 0 500 500;" xml:space="preserve">
<style type="text/css">
	.st0{fill-rule:evenodd;clip-rule:evenodd;fill:url(#SVGID_1_);}
	.st1{fill-rule:evenodd;clip-rule:evenodd;fill:#FFFFFF;}
	.st2{fill-rule:evenodd;clip-rule:evenodd;fill:#00224D;}
</style>
<linearGradient id="SVGID_1_" gradientUnits="userSpaceOnUse" x1="436.3935" y1="406.7209" x2="64.3935" y2="93.7209" gradientTransform="matrix(1 0 0 -1 0 499.8898)">
	<stop  offset="0" style="stop-color:#B6509E"/>
	<stop  offset="1" style="stop-color:#2EBAC6"/>
</linearGradient>
<path class="st0" d="M250,500c138.1,0,250-111.9,250-250S388.1,0,250,0S0,111.9,0,250S111.9,500,250,500z"/>
<path class="st1" d="M250,475c124.3,0,225-100.7,225-225S374.3,25,250,25S25,125.7,25,250S125.7,475,250,475z"/>
<path class="st2" d="M250,450c110.5,0,200-89.5,200-200S360.5,50,250,50S50,139.5,50,250S139.5,450,250,450z"/>
<path class="st1" d="M166,168.9l-2.8-4.7l-35,20.1v-3L250,111l2.6,1.6l5.5,3l5.5,3.3L189,162l-2.8-4.7L166,168.9z M166,213.3
	l-2.8-4.7l-35,20.1v-3.3l160.2-92.3l2.7,1.6l5.5,3l5.5,3.2l-74.8,43.1l-2.6-4.7L166,213.3z M163.2,230.6l2.8,4.9l77.7-44.9l2.6,4.7
	l74.8-43.1l-5.5-3.1l-5.5-3.3l-2.6-1.6L128.2,247.6v3.2L163.2,230.6z M166,257.4l-2.8-4.7l-35,20.1v-3l198.4-114.5l2.6,1.4l5.5,3.2
	l5.5,3.1L266.1,206l-2.7-4.7L166,257.4z M163.2,274.9l2.8,4.7l116.5-67.3l2.7,4.9l74.2-42.9l-5.5-3.2l-5.2-3.1l-2.9-1.6L128.2,292v3
	L163.2,274.9z M367.7,178.9l4.1,2.4v7.9l-86.6,49.8l-2.7-4.7L166,301.7l-2.8-4.7l-35,20.1v-3l236.7-136.8L367.7,178.9z M140.6,329
	l2.6,1.6l19.5-11.2l2.9,4.7l116.3-67.3l2.8,4.9l87-50.4v-15.6L140.6,329z M281.9,279l-96.8,55.9l-2.8-4.7l-19.9,11.6l-2.6-1.6
	l212-122.4v15.7l-87,50.4L281.9,279z M178.8,351.1l2.7,1.6l20.1-11.6l2.6,4.9l77.7-44.9l2.8,4.7l87-50.2v-15.9L178.8,351.1z
	 M200.8,363.7l-2.9-1.4l173.8-100.5v15.9l-87,50.2l-2.8-4.7L223.4,357l-2.6-4.7L200.8,363.7z M371.8,284l-154.7,89.2l2.8,1.6
	l19.9-11.6l2.6,4.9l39.5-22.8l2.8,4.7l87-50.2V284z M239,385.9l-2.7-1.4l135.4-78.3V322l-87,50.2l-2.8-4.9l-20.1,11.8l-2.8-4.7
	L239,385.9z M208.1,173l74.8-43.1v0l-5.5-3l-5.5-3.3l-2.9-1.6l-140.9,81.6v3.1l35-20.1l2.8,4.7l39.4-22.8L208.1,173z"/>
</svg>
