<?xml version="1.0" encoding="utf-8"?>
<!-- Generator: Adobe Illustrator 27.7.0, SVG Export Plug-In . SVG Version: 6.00 Build 0)  -->
<svg version="1.1" id="Layer_1" xmlns="http://www.w3.org/2000/svg" xmlns:xlink="http://www.w3.org/1999/xlink" x="0px" y="0px"
	 viewBox="0 0 500 500" style="enable-background:new 0 0 500 500;" xml:space="preserve">
<g>
	<g transform="matrix(1,0,0,1,0,0)">
		<path d="M95.6,11.9l-23,70.9l262-0.2l-23-70.9L95.6,11.9z"/>
	</g>
	<g transform="matrix(1,0,0,1,0,0)">
		<path d="M404.8,11.6l-74.6,0.1l81.1,249.2l60.3-43.9L404.8,11.6L404.8,11.6z"/>
	</g>
	<g transform="matrix(1,0,0,1,0,0)">
		<path d="M265.3,389l60.4,43.8l174.6-127l-23.1-70.9L265.3,389L265.3,389z"/>
	</g>
	<g transform="matrix(1,0,0,1,0,0)">
		<path d="M75.5,360.8L75.5,360.8l174.8,126.9l60.3-43.9l-212-153.9L75.5,360.8z"/>
	</g>
	<g transform="matrix(1,0,0,1,0,0)">
		<path d="M66.9,100.5L0.3,305.9l60.4,43.8l80.8-249.2L66.9,100.5L66.9,100.5z"/>
	</g>
	<g transform="matrix(1,0,0,1,0,0)">
		<path d="M160.2,100.4l-23.1,70.9l133.2-0.1l-23.1-70.8H160.2L160.2,100.4z"/>
	</g>
	<g transform="matrix(1,0,0,1,0,0)">
		<path d="M265.8,100.3L307.1,227l60.3-43.9l-26.9-82.8H265.8z"/>
	</g>
	<g transform="matrix(1,0,0,1,0,0)">
		<path d="M265.5,279.3l60.4,43.7l70.5-51.2v-0.1l-23.1-70.9L265.5,279.3z"/>
	</g>
	<g transform="matrix(1,0,0,1,0,0)">
		<path d="M179.7,326.9l70.6,51.3l60.3-43.9l-107.9-78.2L179.7,326.9z"/>
	</g>
	<g transform="matrix(1,0,0,1,0,0)">
		<path d="M131.4,189l-26.9,82.9l60.4,43.8L205.9,189H131.4z"/>
	</g>
</g>
</svg>
