<?xml version="1.0" encoding="utf-8"?>
<!-- Generator: Adobe Illustrator 27.7.0, SVG Export Plug-In . SVG Version: 6.00 Build 0)  -->
<svg version="1.1" id="Layer_1" xmlns="http://www.w3.org/2000/svg" xmlns:xlink="http://www.w3.org/1999/xlink" x="0px" y="0px"
	 viewBox="0 0 500 500" style="enable-background:new 0 0 500 500;" xml:space="preserve">
<style type="text/css">
	.st0{fill-rule:evenodd;clip-rule:evenodd;fill:url(#SVGID_1_);}
	.st1{fill-rule:evenodd;clip-rule:evenodd;fill:#FFFFFF;}
	.st2{fill-rule:evenodd;clip-rule:evenodd;fill:#211580;}
	.st3{fill:#00D1FF;}
</style>
<linearGradient id="SVGID_1_" gradientUnits="userSpaceOnUse" x1="436.3935" y1="406.7209" x2="64.3935" y2="93.7209" gradientTransform="matrix(1 0 0 -1 0 499.8898)">
	<stop  offset="0" style="stop-color:#B6509E"/>
	<stop  offset="1" style="stop-color:#2EBAC6"/>
</linearGradient>
<path class="st0" d="M250,500c138.1,0,250-111.9,250-250S388.1,0,250,0S0,111.9,0,250S111.9,500,250,500z"/>
<path class="st1" d="M250,475c124.3,0,225-100.7,225-225S374.3,25,250,25S25,125.7,25,250S125.7,475,250,475z"/>
<path class="st2" d="M250,450c110.5,0,200-89.5,200-200S360.5,50,250,50S50,139.5,50,250S139.5,450,250,450z"/>
<path class="st3" d="M193.7,207c-1.5-1.7-3.4-2.6-5.6-2.6h-45.7c-0.4,0-0.7-0.1-1-0.4c-0.3-0.3-0.4-0.5-0.4-0.8v-30.4
	c0-0.3,0.1-0.6,0.4-0.8c0.3-0.2,0.6-0.4,1-0.4h48.3c12.2,0,22.7,4.9,31.5,14.8l11.7,14.2L211,228L193.7,207z M278,186.1
	c8.8-9.7,19.4-14.6,31.7-14.6h48.1c0.4,0,0.7,0.1,0.9,0.3c0.2,0.2,0.3,0.5,0.3,0.9v30.4c0,0.3-0.1,0.6-0.3,0.8
	c-0.2,0.3-0.5,0.4-0.9,0.4h-45.7c-2.2,0-4.1,0.9-5.6,2.6l-33.7,40.5l33.8,40.8c1.5,1.6,3.3,2.4,5.5,2.4h45.7c0.4,0,0.7,0.1,0.9,0.4
	s0.3,0.6,0.3,1v30.4c0,0.3-0.1,0.6-0.3,0.8c-0.2,0.3-0.5,0.4-0.9,0.4h-48.1c-12.3,0-22.8-4.9-31.5-14.8l-28-33.8l-28,33.8
	c-8.8,9.8-19.4,14.8-31.7,14.8h-48.1c-0.4,0-0.7-0.1-0.9-0.4c-0.2-0.3-0.3-0.6-0.3-1v-30.4c0-0.3,0.1-0.6,0.3-0.8
	c0.2-0.3,0.5-0.4,0.9-0.4H188c2.1,0,4-0.9,5.6-2.6l33-39.9L278,186.1z"/>
</svg>
