<?xml version="1.0" encoding="utf-8"?>
<!-- Generator: Adobe Illustrator 27.7.0, SVG Export Plug-In . SVG Version: 6.00 Build 0)  -->
<svg version="1.1" id="Layer_1" xmlns="http://www.w3.org/2000/svg" xmlns:xlink="http://www.w3.org/1999/xlink" x="0px" y="0px"
	 viewBox="0 0 500 500" style="enable-background:new 0 0 500 500;" xml:space="preserve">
<style type="text/css">
	.st0{fill-rule:evenodd;clip-rule:evenodd;fill:url(#SVGID_1_);}
	.st1{fill-rule:evenodd;clip-rule:evenodd;fill:#FFFFFF;}
	.st2{fill-rule:evenodd;clip-rule:evenodd;fill:#25292E;}
	.st3{fill:#FFFFFF;fill-opacity:0.5;}
	.st4{fill:#FFFFFF;}
</style>
<linearGradient id="SVGID_1_" gradientUnits="userSpaceOnUse" x1="436.3935" y1="406.7209" x2="64.3935" y2="93.7209" gradientTransform="matrix(1 0 0 -1 0 499.8898)">
	<stop  offset="0" style="stop-color:#B6509E"/>
	<stop  offset="1" style="stop-color:#2EBAC6"/>
</linearGradient>
<path class="st0" d="M250,500c138.1,0,250-111.9,250-250S388.1,0,250,0S0,111.9,0,250S111.9,500,250,500z"/>
<path class="st1" d="M250,475c124.3,0,225-100.7,225-225S374.3,25,250,25S25,125.7,25,250S125.7,475,250,475z"/>
<path class="st2" d="M250,450c110.5,0,200-89.5,200-200S360.5,50,250,50S50,139.5,50,250S139.5,450,250,450z"/>
<path class="st3" d="M163.8,326.3l-17.1-12.1L254,166.3l17.1,12.1L163.8,326.3z"/>
<path class="st4" d="M192.8,256.9c-26.4,0-47.8-21.1-47.8-47.2s21.4-47.2,47.8-47.2H263c5.8,0,10.5,4.6,10.5,10.4
	c0,5.7-4.7,10.4-10.5,10.4h-70.3c-14.8,0-26.8,11.8-26.8,26.5c0,14.6,12,26.5,26.8,26.5h5.7h27.2c26.4,0,47.8,21.1,47.8,47.2
	c0,26.1-21.4,47.2-47.8,47.2h-70.3c-5.8,0-10.5-4.6-10.5-10.4c0-5.7,4.7-10.4,10.5-10.4h70.3c14.8,0,26.8-11.8,26.8-26.5
	c0-14.6-12-26.5-26.8-26.5h-27.2H192.8z"/>
<path class="st1" d="M342.1,250.6c-1.8,2.2-4.2,3.4-7.2,3.6l-0.2,12.5c3.8-0.1,7.3-1.1,10.4-3.2c3.1-2.1,5.5-5,7.3-8.7
	c1.7-3.7,2.6-7.9,2.6-12.7c0-4.4-0.8-8.4-2.5-11.9c-1.7-3.5-3.9-6.3-6.8-8.3c-2.9-2-6.2-3-9.8-3c-3.8,0-6.8,0.8-9.1,2.5
	c-2.3,1.7-4,3.9-5.1,6.6c-1.1,2.7-2,6-2.8,10c-0.7,3.9-1.4,6.8-1.9,8.6c-0.5,1.9-1.3,3.3-2.1,4.3c-0.9,1-2.1,1.5-3.7,1.5
	c-2.2,0-4-0.8-5.2-2.5c-1.2-1.7-1.8-4-1.8-6.8c0-3.1,0.8-5.5,2.4-7.4c1.6-1.9,3.7-2.9,6.2-3.2v-12.5c-3.6,0.1-6.8,1.1-9.7,3.1
	c-2.9,2-5.1,4.7-6.7,8.2c-1.6,3.5-2.5,7.4-2.5,11.7c0,4.2,0.8,8,2.4,11.4c1.6,3.4,3.7,6,6.5,7.9c2.8,1.9,5.9,2.8,9.4,2.8
	c3.8,0,6.9-0.8,9.2-2.5c2.3-1.7,4.1-3.8,5.2-6.5c1.2-2.7,2.1-5.9,2.9-9.8c0.8-4,1.5-6.9,2-8.8c0.5-1.9,1.3-3.4,2.2-4.4
	c0.9-1,2.2-1.6,3.8-1.6c2.3,0,4.1,0.9,5.4,2.8c1.3,1.9,1.9,4.3,1.9,7.3C344.8,245.5,343.9,248.4,342.1,250.6z M329.2,310.1h-34.9
	v12.7h34.2c8.6,0,15.2-2.1,19.7-6.2s6.8-10.2,6.8-18.1c0-8-2.3-14-6.8-18.2c-4.5-4.2-11.1-6.2-19.7-6.2h-34.2v12.7h34.9
	c4.9,0,8.5,0.9,11,2.8c2.5,1.9,3.7,4.8,3.7,8.9c0,4-1.2,7-3.7,8.8C337.8,309.2,334.1,310.1,329.2,310.1z M294.3,211.3v-20.6
	c0-5.9,1.3-11.2,3.8-15.7c2.6-4.6,6.1-8.1,10.7-10.5c4.6-2.5,9.8-3.7,15.6-3.7c5.8,0,11,1.2,15.6,3.7c4.6,2.5,8.1,6,10.7,10.5
	c2.5,4.6,3.8,9.8,3.8,15.7v20.6H294.3z M338.5,178.2c3.5,3,5.3,7.1,5.3,12.5v7.9h-38.7v-7.9c0-5.4,1.8-9.5,5.3-12.5
	c3.5-3,8.2-4.5,14.1-4.5C330.2,173.8,334.9,175.2,338.5,178.2z"/>
</svg>
