<?xml version="1.0" encoding="utf-8"?>
<!-- Generator: Adobe Illustrator 26.5.0, SVG Export Plug-In . SVG Version: 6.00 Build 0)  -->
<svg version="1.1" id="audio" xmlns="http://www.w3.org/2000/svg" xmlns:xlink="http://www.w3.org/1999/xlink" x="0px" y="0px"
	 viewBox="0 0 500 500" style="enable-background:new 0 0 500 500;" xml:space="preserve">
<style type="text/css">
	.st0{fill:#7B1AC5;}
	.st1{fill:#861CC9;}
	.st2{fill:#5112B6;}
	.st3{fill:#7A1AC4;}
	.st4{fill:#9F1ED0;}
	.st5{fill:#D000D2;}
	.st6{fill:#2B0F90;}
</style>
<path class="st0" d="M462.3,427.8c-31.8,24.4-82.1,47.8-133.2,47.8c-61,0-117-21.4-162.8-97.7c-0.4-0.7-0.8-1.4-1.2-2h56.8
	c26,29.6,61.9,56,107.4,56c46.8,0,83.8-23.4,109-46.8L462.3,427.8z"/>
<path class="st1" d="M168.8,288.9l-27.6,49.6c-28.3-41.3-44.4-49-72.7-49c-12.5,0-25.5,3.2-37.1,7.5l57.6-99
	c10,2.3,20.6,6.6,28.8,14.5C136.4,230,157.3,265.3,168.8,288.9z"/>
<path class="st2" d="M192.9,245.4l-24.1,43.5c-11.4-23.6-32.4-58.9-50.9-76.5c-8.2-7.8-18.9-12.1-28.8-14.5l30.3-52.1
	c10.6,6.8,22.2,16.2,31.5,28.4C167.1,195.7,181.4,222.5,192.9,245.4z"/>
<path class="st2" d="M438.1,385.2c-25.2,23.4-62.2,46.8-109,46.8c-45.5,0-81.4-26.4-107.4-56h55.2c1.2,0,2.4-0.2,3.4-0.6
	c15.2,13,31.8,21.7,48.8,21.7c35.7,0,71.9-21.9,94.1-38.3L438.1,385.2z"/>
<path class="st3" d="M423.2,358.8c-22.2,16.4-58.3,38.3-94.1,38.3c-17,0-33.5-8.7-48.8-21.7c6.2-2,9.6-9.4,6.2-15.7l-65.2-117.5
	c-5.8-10.4-20.8-10.4-26.6,0l-1.8,3.2c-11.4-22.9-25.7-49.7-42.1-71.2c-9.3-12.2-20.9-21.6-31.5-28.4l31.6-54.4
	c13.6,11.4,33.5,31.2,49.8,60.5c27.6,49.9,47.8,106.1,65.8,144.4c18,38.2,45.7,74.3,80.7,74.3c27.2,0,53.1-23.7,63.3-34.3
	L423.2,358.8z"/>
<path class="st4" d="M410.5,336.3c-10.2,10.6-36.1,34.3-63.3,34.3c-35,0-62.6-36.1-80.7-74.3c-18-38.2-38.2-94.5-65.8-144.4
	c-16.3-29.4-36.1-49.2-49.8-60.5l37.3-64.2C201.8,41.1,220,62.3,230.4,85c18,39.3,38.2,87,50.9,143.3c12.8,56.3,29.7,104,64.8,104
	c21.8,0,38.6-13.9,48.2-24.5L410.5,336.3z"/>
<path class="st5" d="M394.3,307.9c-9.6,10.5-26.5,24.5-48.2,24.5c-35,0-52-47.8-64.8-104c-12.7-56.3-32.9-104-50.9-143.3
	c-10.4-22.7-28.6-43.9-42.2-57.8l10.3-17.7c6-10.4,20.9-10.3,26.8,0.1L394.3,307.9z"/>
<path class="st6" d="M141.2,338.4l-5.7,10.3c-2.4,4.2-6.8,6.9-11.7,6.9H20.9c-10.4,0-17-11.3-11.7-20.4l22.3-38.3
	c11.6-4.2,24.6-7.5,37.1-7.5C96.8,289.5,112.9,297.2,141.2,338.4z"/>
<path class="st6" d="M474.4,498.1H103.2c-11.8,0-19.3-12.8-13.5-23.1l52.4-92.4c2.3-4.1,6.6-6.6,11.4-6.6H165c0.4,0.7,0.8,1.3,1.2,2
	c45.8,76.3,101.8,97.7,162.8,97.7c51.1,0,101.4-23.5,133.2-47.8l26.2,46.2C494.6,484.8,486.8,498.1,474.4,498.1z"/>
</svg>
