<?xml version="1.0" encoding="utf-8"?>
<!-- Generator: Adobe Illustrator 27.7.0, SVG Export Plug-In . SVG Version: 6.00 Build 0)  -->
<svg version="1.1" id="Layer_1" xmlns="http://www.w3.org/2000/svg" xmlns:xlink="http://www.w3.org/1999/xlink" x="0px" y="0px"
	 viewBox="0 0 500 500" style="enable-background:new 0 0 500 500;" xml:space="preserve">
<style type="text/css">
	.st0{fill-rule:evenodd;clip-rule:evenodd;fill:url(#SVGID_1_);}
	.st1{fill-rule:evenodd;clip-rule:evenodd;fill:#FFFFFF;}
	.st2{fill-rule:evenodd;clip-rule:evenodd;fill:#2775CA;}
</style>
<linearGradient id="SVGID_1_" gradientUnits="userSpaceOnUse" x1="436.3935" y1="406.7209" x2="64.3935" y2="93.7209" gradientTransform="matrix(1 0 0 -1 0 499.8898)">
	<stop  offset="0" style="stop-color:#B6509E"/>
	<stop  offset="1" style="stop-color:#2EBAC6"/>
</linearGradient>
<path class="st0" d="M250,500c138.1,0,250-111.9,250-250S388.1,0,250,0S0,111.9,0,250S111.9,500,250,500z"/>
<path class="st1" d="M250,475c124.3,0,225-100.7,225-225S374.3,25,250,25S25,125.7,25,250S125.7,475,250,475z"/>
<path class="st2" d="M250,450c110.5,0,200-89.5,200-200S360.5,50,250,50S50,139.5,50,250S139.5,450,250,450z"/>
<path class="st1" d="M207.1,367.4C159.3,349.9,125,303.9,125,250c0-53.9,34.3-99.9,82.1-117.4c3-1.1,5.4-4.7,5.4-7.9v-11.7
	c0-4.7-3.7-7.4-8.2-6c-60.5,19.4-104.3,76-104.3,143c0,66.9,43.8,123.6,104.3,142.9c4.5,1.4,8.2-1.2,8.2-6v-11.6
	C212.5,372.1,210.1,368.5,207.1,367.4z M304.8,279.8c0-29.2-17.8-39-52.1-43.7c-25.3-3.7-30.3-9.6-30.3-21.5
	c0-11.2,8.6-19.2,25.1-19.2c15,0,23.6,5.2,27.1,17.3c0.8,2.7,3.2,4.6,6,4.6h13.1c3.7,0,6.5-3.4,5.7-7c-4.2-19-17-30.5-37.1-34.1
	v-19.9c0-3.5-2.8-6.3-6.3-6.3h-12.5c-3.5,0-6.3,2.8-6.3,6.3v19.4c-24.8,3.5-40.8,20-40.8,41.2c0,27.4,16.5,38,51.5,42.7
	c23.7,3.9,30.4,9,30.4,22.5c0,13.5-11.5,22.5-27.6,22.5c-21.8,0-29-9.6-31.6-21.9c-0.6-2.9-3.1-5.1-6.1-5.1H199
	c-3.6,0-6.4,3.2-5.8,6.8c3.6,20.8,17,36.1,44.3,39.8v19.7c0,3.5,2.8,6.3,6.3,6.3h12.5c3.5,0,6.3-2.8,6.3-6.3V324
	C288.3,319.9,304.8,302,304.8,279.8z M287.5,113.1c0-4.7,3.7-7.4,8.2-6C356.2,126.5,400,183.1,400,250
	c0,66.9-43.8,123.6-104.3,142.9c-4.5,1.4-8.2-1.2-8.2-6v-11.7c0-3.5,2.1-6.7,5.4-7.9C340.8,349.9,375,303.9,375,250
	c0-53.9-34.3-99.9-82.1-117.4c-3-1.1-5.4-4.7-5.4-7.9V113.1z"/>
</svg>
