<?xml version="1.0" encoding="utf-8"?>
<!-- Generator: Adobe Illustrator 27.7.0, SVG Export Plug-In . SVG Version: 6.00 Build 0)  -->
<svg version="1.1" id="Layer_1" xmlns="http://www.w3.org/2000/svg" xmlns:xlink="http://www.w3.org/1999/xlink" x="0px" y="0px"
	 viewBox="0 0 500 500" style="enable-background:new 0 0 500 500;" xml:space="preserve">
<style type="text/css">
	.st0{fill-rule:evenodd;clip-rule:evenodd;fill:url(#SVGID_1_);}
	.st1{fill-rule:evenodd;clip-rule:evenodd;fill:#FFFFFF;}
	.st2{fill-rule:evenodd;clip-rule:evenodd;fill:#FF9900;}
</style>
<linearGradient id="SVGID_1_" gradientUnits="userSpaceOnUse" x1="436.3935" y1="406.7209" x2="64.3935" y2="93.7209" gradientTransform="matrix(1 0 0 -1 0 499.8898)">
	<stop  offset="0" style="stop-color:#B6509E"/>
	<stop  offset="1" style="stop-color:#2EBAC6"/>
</linearGradient>
<path class="st0" d="M250,500c138.1,0,250-111.9,250-250S388.1,0,250,0S0,111.9,0,250S111.9,500,250,500z"/>
<path class="st1" d="M250,475c124.3,0,225-100.7,225-225S374.3,25,250,25S25,125.7,25,250S125.7,475,250,475z"/>
<path class="st2" d="M250,450c110.5,0,200-89.5,200-200S360.5,50,250,50S50,139.5,50,250S139.5,450,250,450z"/>
<path class="st1" d="M338.2,221.5c4-26.6-16.3-40.9-44-50.5l9-36l-21.9-5.5l-8.8,35.1c-5.8-1.4-11.7-2.8-17.6-4.1l8.8-35.3
	l-21.9-5.5l-9,36l-14-3.4l-30.3-7.6l-5.8,23.4c0,0,16.3,3.7,15.9,4c8.9,2.2,10.5,8.1,10.2,12.8L198.6,226l0,0.2l-14.3,57.5
	c-1.1,2.7-3.8,6.8-10.1,5.2c0.2,0.3-15.9-4-15.9-4L147.3,310l28.6,7.1c5.3,1.3,10.5,2.7,15.6,4l-9.1,36.5l21.9,5.5l9-36.1
	c6,1.6,11.8,3.1,17.5,4.5l-9,35.9l21.9,5.5l9.1-36.4c37.4,7.1,65.6,4.2,77.4-29.6c9.5-27.2-0.5-43-20.2-53.2
	C324.5,250.4,335.3,241,338.2,221.5z M232.5,252.3l-12.1,48.3c1.2,0.3,2.7,0.7,4.3,1.1c17.9,4.7,57,15.1,63.3-9.9
	c6.4-25.6-31.6-34.1-50.1-38.2C235.9,253.1,234,252.7,232.5,252.3z M238.1,230.2c12.4,3.1,50.6,15.7,56.8-9.1
	c6.4-25.9-33.5-31.6-45.8-34.7L238.1,230.2z"/>
</svg>
