<?xml version="1.0" encoding="utf-8"?>
<!-- Generator: Adobe Illustrator 27.7.0, SVG Export Plug-In . SVG Version: 6.00 Build 0)  -->
<svg version="1.1" id="Layer_1" xmlns="http://www.w3.org/2000/svg" xmlns:xlink="http://www.w3.org/1999/xlink" x="0px" y="0px"
	 viewBox="0 0 500 500" style="enable-background:new 0 0 500 500;" xml:space="preserve">
<style type="text/css">
	.st0{fill-rule:evenodd;clip-rule:evenodd;fill:url(#SVGID_1_);}
	.st1{fill-rule:evenodd;clip-rule:evenodd;fill:#FFFFFF;}
	.st2{fill-rule:evenodd;clip-rule:evenodd;fill:url(#SVGID_00000057143672552579319970000008537435476273339583_);}
</style>
<linearGradient id="SVGID_1_" gradientUnits="userSpaceOnUse" x1="436.3935" y1="406.7209" x2="64.3935" y2="93.7209" gradientTransform="matrix(1 0 0 -1 0 499.8898)">
	<stop  offset="0" style="stop-color:#B6509E"/>
	<stop  offset="1" style="stop-color:#2EBAC6"/>
</linearGradient>
<path class="st0" d="M250,500c138.1,0,250-111.9,250-250S388.1,0,250,0S0,111.9,0,250S111.9,500,250,500z"/>
<path class="st1" d="M250,475c124.3,0,225-100.7,225-225S374.3,25,250,25S25,125.7,25,250S125.7,475,250,475z"/>
<linearGradient id="SVGID_00000060737980742176379040000013900351358597007803_" gradientUnits="userSpaceOnUse" x1="50" y1="449.8898" x2="450" y2="49.8898" gradientTransform="matrix(1 0 0 -1 0 499.8898)">
	<stop  offset="0" style="stop-color:#0077FC"/>
	<stop  offset="1" style="stop-color:#095EB5"/>
</linearGradient>
<path style="fill-rule:evenodd;clip-rule:evenodd;fill:url(#SVGID_00000060737980742176379040000013900351358597007803_);" d="
	M250,450c110.5,0,200-89.5,200-200S360.5,50,250,50S50,139.5,50,250S139.5,450,250,450z"/>
<path class="st1" d="M240.6,169.2c0-1.7,1.4-3.1,3.1-3.1h12.6c1.7,0,3.1,1.4,3.1,3.1v158.5c0,1.7-1.4,3.1-3.1,3.1h-12.6
	c-1.7,0-3.1-1.4-3.1-3.1V169.2z"/>
<path class="st1" d="M229.9,243.6v-19.7c-15.1-7.4-25.5-23-25.5-41c0-25.2,20.4-45.7,45.7-45.7c28.3,0,48.8,20.4,48.8,45.7
	c0,6.4-1.3,12.4-4.4,19.6l-7.1-23.2c-0.5-1.7-2.3-2.6-3.9-2.1l-10.3,3.2c-1.6,0.5-2.5,2.2-2.1,3.8l12.7,48.3
	c0.5,1.8,2.4,2.8,4.1,2.1l49.3-18.1c1.7-0.6,2.5-2.5,1.8-4.2l-4.3-10.2c-0.6-1.5-2.3-2.3-3.9-1.7l-18,6.1c3.7-8.1,4.5-14.1,4.5-23.7
	c0-35.3-28.6-63.9-67-63.9c-35.3,0-63.9,28.6-63.9,63.9C186.1,211.2,204.4,235.2,229.9,243.6z M270.1,253.3V273
	c15.1,7.4,25.5,23,25.5,41c0,25.2-20.4,45.7-45.7,45.7c-28.3,0-48.8-20.4-48.8-45.7c0-6.4,1.3-12.4,4.4-19.6l7.1,23.2
	c0.5,1.7,2.3,2.6,3.9,2.1l10.3-3.2c1.6-0.5,2.5-2.2,2.1-3.8l-12.7-48.3c-0.5-1.8-2.4-2.8-4.1-2.1l-49.3,18.1
	c-1.7,0.6-2.5,2.5-1.8,4.2l4.3,10.2c0.6,1.5,2.3,2.3,3.9,1.7l18-6.1c-3.8,8.1-4.5,14.1-4.5,23.7c0,35.3,28.6,63.9,67,63.9
	c35.3,0,63.9-28.6,63.9-63.9C313.9,285.8,295.6,261.8,270.1,253.3z"/>
</svg>
