<?xml version="1.0" encoding="utf-8"?>
<!-- Generator: Adobe Illustrator 27.7.0, SVG Export Plug-In . SVG Version: 6.00 Build 0)  -->
<svg version="1.1" id="Layer_1" xmlns="http://www.w3.org/2000/svg" xmlns:xlink="http://www.w3.org/1999/xlink" x="0px" y="0px"
	 viewBox="0 0 500 500" style="enable-background:new 0 0 500 500;" xml:space="preserve">
<style type="text/css">
	.st0{fill-rule:evenodd;clip-rule:evenodd;fill:url(#SVGID_1_);}
	.st1{fill-rule:evenodd;clip-rule:evenodd;fill:#FFFFFF;}
	.st2{fill-rule:evenodd;clip-rule:evenodd;fill:#25292E;}
</style>
<linearGradient id="SVGID_1_" gradientUnits="userSpaceOnUse" x1="436.3935" y1="406.7209" x2="64.3935" y2="93.7209" gradientTransform="matrix(1 0 0 -1 0 499.8898)">
	<stop  offset="0" style="stop-color:#B6509E"/>
	<stop  offset="1" style="stop-color:#2EBAC6"/>
</linearGradient>
<path class="st0" d="M250,500c138.1,0,250-111.9,250-250S388.1,0,250,0S0,111.9,0,250S111.9,500,250,500z"/>
<path class="st1" d="M250,475c124.3,0,225-100.7,225-225S374.3,25,250,25S25,125.7,25,250S125.7,475,250,475z"/>
<path class="st2" d="M250,450c110.5,0,200-89.5,200-200S360.5,50,250,50S50,139.5,50,250S139.5,450,250,450z"/>
<path class="st1" d="M258.1,100.2l-1.8-0.2h0h-12.8c-0.2,0-0.4,0.1-0.6,0.1c-0.5,0.1-0.9,0.2-1.4,0.2c-1.9,0.2-3.9,0.4-5.8,0.6
	c-4,0.4-8,0.8-12,1.5c-30.5,5.5-56.7,19.3-78.9,40.8c-2.3,2.2-4.5,4.6-6.7,7l0,0c-1.1,1.2-2.1,2.3-3.3,3.5l33.7,44.8l1.4-2
	c9.5-14.1,22.5-25.5,37.8-33.1c1.3-0.6,2.1-0.5,3.1,0.5c4.9,4.9,9.9,9.7,14.8,14.5l0,0l4.4,4.3c0.9,0.9,1.8,1.7,2.7,2.6l0.8,0.8
	l91.6-65.7c-0.1-0.1-0.3-0.2-0.4-0.3v0l0,0c-0.2-0.2-0.4-0.3-0.6-0.4c-18.7-10.7-38.8-17-60.3-19.1
	C262,100.6,260.1,100.4,258.1,100.2z M239.8,399.7c1.1,0.1,2.2,0.2,3.3,0.3h14l0.2,0l0.4-0.1l0,0c0.4-0.1,0.9-0.2,1.3-0.2
	c1.5-0.2,3.1-0.3,4.6-0.5h0c3.1-0.3,6.2-0.6,9.2-1.1c36.4-5.8,66.6-22.8,91-50.5c1-1.1,1.1-1.8,0.2-3c-9.1-12-18.1-24-27.1-36
	l-4.3-5.8c-0.2-0.3-0.4-0.5-0.7-0.8l0,0c-0.1-0.2-0.3-0.3-0.4-0.5l-1.5,2.2c-9.4,13.9-22.2,25.1-37.2,32.6c-1.4,0.7-2.3,0.8-3.5-0.5
	c-3.7-3.8-7.5-7.4-11.3-11.1c-1.3-1.2-2.5-2.5-3.8-3.7l-9.1-8.8l-26.2,19.6c-21.3,15.9-42.6,31.8-64,47.8c0.2,0.1,0.4,0.3,0.5,0.4
	l0,0l0,0l0,0c0.2,0.1,0.3,0.2,0.5,0.3c17.3,9.9,36.4,16.2,56.2,18.6C234.7,399.2,237.2,399.4,239.8,399.7z M119.9,175.5L119.9,175.5
	c-18.2,33-24.2,67.6-16.8,104.2c6.9,34.2,24.2,62.4,50.8,85.3l44.5-33.4c-0.1-0.2-0.1-0.3-0.2-0.4c-0.1-0.2-0.1-0.3-0.2-0.3
	c-0.5-0.3-0.9-0.7-1.4-1c-14.1-9.5-25.5-22.5-33-37.8c-0.6-1.2-0.6-1.9,0.4-2.9c2.6-2.5,5.1-5.1,7.6-7.7l0,0
	c0.9-0.9,1.8-1.8,2.7-2.8l13.7-14.1L119.9,175.5L119.9,175.5L119.9,175.5z M325.7,222.1l-12.5,13l67.1,88.7
	c16.7-28,25.3-67.9,15.6-108.1c-7.7-32.3-24.5-59-49.9-80.7l-44.7,33.5c0.3,0.2,0.6,0.4,0.8,0.6c0.4,0.3,0.7,0.5,1.1,0.7
	c14.3,9.5,25.8,22.7,33.4,38.2c0.7,1.3,0.7,2.1-0.4,3.2c-2.6,2.6-5.2,5.3-7.8,8C327.5,220.2,326.6,221.1,325.7,222.1z"/>
</svg>
