<?xml version="1.0" encoding="utf-8"?>
<!-- Generator: Adobe Illustrator 24.0.0, SVG Export Plug-In . SVG Version: 6.00 Build 0)  -->
<svg version="1.1" id="Layer_1" xmlns="http://www.w3.org/2000/svg" xmlns:xlink="http://www.w3.org/1999/xlink" x="0px" y="0px"
	 viewBox="0 0 28.5 28.8" style="enable-background:new 0 0 28.5 28.8;" xml:space="preserve">
<style type="text/css">
	.st0{fill:#FFFFFF;}
	.st1{fill-rule:evenodd;clip-rule:evenodd;fill:#FFAE54;}
	.st2{fill:url(#SVGID_1_);stroke:#AC562A;stroke-width:1.0716;}
	.st3{fill:#AC562A;stroke:#AC562A;stroke-width:1.0716;}
	.st4{fill:#AC562A;}
</style>
<path class="st0" d="M21.6,13.9c0.2-0.1,0.5,0.1,0.5,0.3l0.4,1.5c0.1,0.2-0.1,0.5-0.3,0.5c-0.2,0.1-0.5-0.1-0.5-0.3l-0.4-1.5
	C21.2,14.2,21.3,13.9,21.6,13.9z M10.1,2.7C10,2.5,10,2.2,10.2,2.1l1.3-0.9c0.2-0.1,0.5-0.1,0.6,0.1C12.2,1.6,12.2,1.8,12,2
	l-1.3,0.9C10.5,2.9,10.2,2.9,10.1,2.7z"/>
<path class="st1" d="M16.8,8c-1.5-0.3-3.1-0.1-4.5,0.8c2-0.7,4.3-0.2,5.9,1.4c2.2,2.3,2.2,6,0,8.2c-0.3,0.3-0.6,0.5-0.9,0.7
	c0.8-0.3,1.6-0.7,2.2-1.4c1.6-1.6,2-3.9,1.4-5.9C19.2,11.2,17.7,9.8,16.8,8z"/>
<radialGradient id="SVGID_1_" cx="-160.0217" cy="828.8122" r="0.9998" gradientTransform="matrix(8.805701e-16 14.3808 14.2359 -8.716975e-16 -11784.6514 2315.6199)" gradientUnits="userSpaceOnUse">
	<stop  offset="0.3335" style="stop-color:#F7B450"/>
	<stop  offset="0.6477" style="stop-color:#FFC977"/>
	<stop  offset="1" style="stop-color:#FF9900"/>
</radialGradient>
<path class="st2" d="M26.3,21L26.3,21c-3.6,6.7-12,9.2-18.6,5.5C1,22.9-1.4,14.4,2.2,7.7c2.4-4.4,6.8-7,11.5-7.2
	c0.6,0,1.1,0.3,1.4,0.9c0.3,0.6,0.5,1.4,0.4,2.2c0,0.3,0,0.6,0,0.9c0,1.4,0.4,2.8,1,4c-2.9-1.1-6.2,0.1-7.7,2.9
	c-1.7,3.1-0.5,6.9,2.5,8.6c3,1.7,6.9,0.5,8.5-2.5l0,0c0.9-1.7,1-3.7,0.3-5.4c1.2,0.6,2.5,0.9,3.9,0.9c0.8,0,1.5-0.1,2.3-0.3
	c0.4-0.1,0.9-0.1,1.2,0.1c0.3,0.2,0.5,0.4,0.5,0.7C28.1,16,27.5,18.6,26.3,21z"/>
<path class="st3" d="M22.7,18.3l0.5-0.2c0,0,0,0,0,0c0.4,1-0.1,1.9-0.4,2.6c0,0,0,0,0,0.1c-0.2,0.4-0.4,0.7-0.4,1
	c-0.1,0.5-0.1,1,0,1.3c0.1,0.3,0.4,0.6,0.8,0.7c0.3,0.1,0.8,0,1.4-0.4c2.4-2.8,3.5-6.4,3.3-9.8c0-0.3-0.2-0.6-0.5-0.8
	c-0.3-0.2-0.8-0.2-1.2-0.1c-0.7,0.2-1.5,0.3-2.2,0.3c-1.4,0-2.7-0.3-3.9-1c0.7,1.7,0.6,3.6-0.2,5.3c-0.1,0.3-0.3,0.5-0.5,0.8
	c0.4-0.1,0.8-0.3,1.4-0.7C21.5,16.9,22.4,17.4,22.7,18.3z M22.7,18.3c0.3,0.8-0.1,1.5-0.4,2.2c-0.2,0.4-0.4,0.8-0.5,1.2L22.7,18.3z
	 M13.1,8.1L13.1,8.1L13.1,8.1c-1.4,0.4-2.5,0.2-3.3-0.2C9,7.4,8.3,6.7,8,5.9C7.6,5,7.5,4.1,7.7,3.3c0.2-0.8,0.6-1.4,1.2-1.7
	c1.7-0.7,3.5-1.1,5.2-1.1c0.5,0,0.9,0.3,1.2,0.8c0.3,0.5,0.4,1.2,0.3,1.8c-0.1,0.4-0.1,0.9-0.1,1.4c0,1.4,0.4,2.8,1,4
	C15.4,8,14.2,7.9,13.1,8.1z"/>
<circle class="st4" cx="3.8" cy="11.2" r="0.7"/>
<circle class="st4" cx="14.2" cy="23.7" r="0.7"/>
<circle class="st4" cx="9.8" cy="24.3" r="1.2"/>
</svg>
