<?xml version="1.0" encoding="utf-8"?>
<!-- Generator: Adobe Illustrator 27.0.1, SVG Export Plug-In . SVG Version: 6.00 Build 0)  -->
<svg version="1.1" id="bfc" xmlns="http://www.w3.org/2000/svg" xmlns:xlink="http://www.w3.org/1999/xlink" x="0px" y="0px"
	 viewBox="0 0 500 500" style="enable-background:new 0 0 500 500;" xml:space="preserve">
<style type="text/css">
	.st0{fill:url(#SVGID_1_);}
</style>
<linearGradient id="SVGID_1_" gradientUnits="userSpaceOnUse" x1="345.9987" y1="466.6549" x2="78.6275" y2="8.7158" gradientTransform="matrix(1 0 0 -1 0 501)">
	<stop  offset="0" style="stop-color:#00C7FF"/>
	<stop  offset="0.1262" style="stop-color:#0FA2F6"/>
	<stop  offset="0.4052" style="stop-color:#3545E1"/>
	<stop  offset="0.6026" style="stop-color:#5100D1"/>
	<stop  offset="0.6722" style="stop-color:#4803BE"/>
	<stop  offset="0.8131" style="stop-color:#310B8D"/>
	<stop  offset="1" style="stop-color:#0F1644"/>
</linearGradient>
<path class="st0" d="M409.5,279.5c-2.1-0.1-4-0.1-6.5,2.6c-4.8,5.3-10,10.3-15.7,14.9l-2.9,2.3l-0.9,0.7c-1.7,1.4-2.3,3-2,5.1
	c0.1,0.5,0.2,1,0.3,1.5c0.1,0.5,0.3,1,0.4,1.5c0.5,1.8,1,3.6,1.4,5.3l0.1,0.3c0.5,2.5,1,5.1,1.4,7.6l0.2,1c0.3,2.2,0.6,4.6,0.8,7.1
	l0.1,0.6c0,0.3,0.1,0.6,0.1,0.9c0.2,3,0.3,5.9,0.3,8.5c0,65.8-53.5,119.3-119.3,119.3H121.1h-0.2c-4.1-0.1-7.3-3.3-7.4-7.4v-0.2
	V325.4v-0.2c0.1-4.1,3.4-7.4,7.4-7.4h0.1h146.2c3.7,0,7.6-0.2,12-0.5l1.4-0.1c3.6-0.3,7.3-0.7,11.2-1.4l1.7-0.3
	c3.7-0.6,7.4-1.4,11-2.2l1.3-0.3c3.9-1,7.6-2,11.1-3.2l0.3-0.1c7.6-2.6,15.1-5.7,22.4-9.4c3.5-1.8,7.1-3.8,10.5-5.9l0.3-0.2
	c3.4-2.1,6.8-4.4,9.9-6.7l9.1-7.2c11.2-9.1,20.8-19.6,28.5-31.4l0.3-0.3c0.9-1.3,1.8-2.8,2.7-4.2l0.9-1.5c15.7-25.2,24-54.1,24-83.7
	c0-87.4-71.1-158.5-158.5-158.5h-173h-0.9c-10.5,0.3-19,8.8-19.1,19.3v0.4v180c0,0.1,0,0.1,0,0.2v0.4c0,0.1,0,0.1,0,0.2
	c0.2,10.6,8.8,19.2,19.5,19.2h0.1h173.5c18.4,0,36.1,4.2,52.7,12.4c0.1,0,0.1,0.1,0.2,0.1c0.9,0.4,1.8,0.6,2.8,0.6
	c1.8,0,3.3-0.7,4.5-1.7c0.3-0.3,0.7-0.6,1-0.9c7.7-6.9,14.7-14.7,19.7-21.5c0.8-1.1,1.1-2.4,0.8-3.7c-0.3-1.3-0.8-2.2-1.8-2.8l0,0
	c-0.5-0.3-0.9-0.5-1.4-0.8c-2.1-1.2-4.1-2.3-6.3-3.4c-1.3-0.7-2.5-1.3-3.8-1.9c-1.4-0.7-2.8-1.3-4.2-2c-2.3-1-4.6-2-7-2.9
	c-0.3-0.1-0.6-0.3-1-0.4c-3-1.1-6.1-2.2-9.1-3.2c0,0,0,0,0,0l0,0c-15.2-4.8-31.1-7.3-47.3-7.3h-146h-0.6c-4-0.1-7.2-3.4-7.2-7.4
	v-0.1V47.7v-0.3c0.1-4.1,3.4-7.3,7.5-7.3h0h146.3c2.9,0,5.7,0.2,8.5,0.4l0.4,0c61.9,4.6,110.4,56.8,110.4,118.8
	c0,15.9-3.1,31.4-9.3,46.1c-1.8,4.2-3.8,8.2-5.9,12.1l-0.2,0.3c-7.7,12.1-16.8,23-27,32.4c-0.4,0.4-0.8,0.7-1.2,1.1l-0.8,0.7
	c-4.4,3.5-8.8,6.7-13.3,9.4c-18.6,11.2-39.9,17.2-61.5,17.2H93.8c0,0-0.1,0-0.1,0c0,0-0.1,0-0.1,0c-10.6,0.1-19.2,8.6-19.4,19.2
	c0,0.1,0,0.1,0,0.2v0.4c0,0.1,0,0.1,0,0.2v179.9c0,0.1,0,0.1,0,0.2c0,0.1,0,0.1,0,0.2c0.1,10.7,8.8,19.4,19.5,19.4h173.5
	c87.4,0,158.5-71.1,158.5-158.5c0-18.8-3.3-37.2-9.9-54.8C415.1,282.5,413.4,280.1,409.5,279.5z"/>
</svg>
