<?xml version="1.0" encoding="utf-8"?>
<!-- Generator: Adobe Illustrator 26.4.1, SVG Export Plug-In . SVG Version: 6.00 Build 0)  -->
<svg version="1.1" id="Layer_1" xmlns="http://www.w3.org/2000/svg" xmlns:xlink="http://www.w3.org/1999/xlink" x="0px" y="0px"
	 viewBox="0 0 500 500" style="enable-background:new 0 0 500 500;" xml:space="preserve">
<style type="text/css">
	.st0{fill:#ADFF00;}
	.st1{fill-rule:evenodd;clip-rule:evenodd;}
</style>
<circle class="st0" cx="250" cy="250" r="248.1"/>
<path class="st1" d="M101.1,129.6c0,0.1,0,54.3,0,120.5l0,120.4h52.1c42.2,0,52.4,0,53.7-0.2c0.9-0.1,2.5-0.3,3.6-0.5
	c1-0.2,2.8-0.5,3.8-0.8c1-0.3,2.7-0.8,3.8-1.1c1-0.4,2.8-1,3.9-1.5c1.1-0.5,2.7-1.3,3.6-1.7c0.9-0.5,2.5-1.5,3.7-2.2
	c1.1-0.8,2.7-1.9,3.5-2.5c0.8-0.6,2.3-2,3.4-3c1-1,2.5-2.6,3.3-3.6c0.8-0.9,1.9-2.4,2.5-3.2c0.6-0.8,1.4-2.1,1.9-2.9
	c0.5-0.8,1.3-2.3,1.8-3.4c0.5-1.1,1.3-2.8,1.7-3.8c0.4-1,1-2.7,1.3-3.7c0.3-1,0.7-2.4,0.9-3.3c0.2-0.8,0.4-2.2,0.6-3.1
	c0.1-0.9,0.3-2.2,0.4-2.9c0.1-0.9,0.2-7.2,0.2-21.9c0-13.9,0-21.3-0.1-22.7c-0.1-1.2-0.3-2.9-0.4-3.8c-0.2-0.9-0.5-2.4-0.7-3.2
	c-0.2-0.9-0.7-2.2-0.9-2.9c-0.3-0.7-0.9-2.2-1.4-3.2c-0.5-1-1.5-2.7-2.2-3.8c-0.7-1-1.5-2.2-1.8-2.6c-0.3-0.4-1-1.2-1.6-1.8
	c-0.6-0.6-1.6-1.6-2.3-2.2c-0.7-0.6-1.8-1.5-2.5-2.1c-0.7-0.5-1.9-1.3-2.7-1.8c-0.8-0.5-2.1-1.2-3-1.6c-0.9-0.4-2.2-1-2.9-1.2
	c-0.7-0.3-2.1-0.7-3.1-1c-1-0.3-2-0.6-2-0.6s0-0.4,0-1.4l0-1.4l1.1-0.4c0.6-0.2,1.6-0.7,2.4-1c0.7-0.4,1.8-1,2.3-1.3
	c0.6-0.4,1.4-1,1.9-1.4c0.5-0.4,1.4-1.2,1.9-1.8c0.6-0.6,1.3-1.5,1.7-1.9c0.3-0.5,0.9-1.3,1.3-1.9c0.4-0.6,0.9-1.6,1.3-2.3
	c0.3-0.7,0.8-1.8,1-2.6c0.3-0.8,0.6-2.1,0.8-2.9l0.3-1.5v-27.5c0-25.9,0-27.6-0.2-29.3c-0.1-1-0.4-2.4-0.5-3.2
	c-0.1-0.8-0.4-2-0.6-2.7c-0.2-0.7-0.6-2.2-0.9-3.2c-0.3-1-0.9-2.6-1.3-3.5c-0.4-0.9-1.1-2.4-1.6-3.4c-0.5-1-1.3-2.5-1.8-3.3
	c-0.5-0.8-1.3-2.1-1.8-2.8c-0.5-0.7-1.4-1.9-2-2.6c-0.6-0.7-1.8-2.1-2.7-3c-0.9-1-2.3-2.3-3.1-3c-0.8-0.7-2.1-1.7-2.9-2.3
	c-0.8-0.6-2.3-1.6-3.3-2.3c-1-0.6-2.9-1.6-4.2-2.3c-1.3-0.6-3.2-1.5-4.2-1.8c-1-0.4-2.7-0.9-3.7-1.2c-1-0.3-2.7-0.7-3.8-0.9
	c-1.1-0.2-2.7-0.5-3.6-0.6c-1.5-0.2-4.8-0.2-48.6-0.3C110.4,129.5,101.2,129.5,101.1,129.6z M268,129.6c0,0.1,0,7.8,0,17.2l0,17
	h17.2h17.2v-17.1v-17.1l-17.2,0C271.6,129.5,268.1,129.5,268,129.6z M337.1,129.6c0,0.1-0.1,15.6-0.1,34.4l0,34.2l-34.5,0.1
	l-34.5,0.1v86.1v86.1h17.2h17.2l0.1-68.8l0.1-68.8h17.1h17.1l0.1,68.8l0.1,68.8h34.5H406v-17.2v-17.2l-17.2-0.1l-17.2-0.1v-51.6
	v-51.6l17.2-0.1l17.2-0.1v-17.2v-17.2l-17.2-0.1l-17.2-0.1l-0.1-34.3l-0.1-34.3l-17.1,0C340.7,129.5,337.2,129.5,337.1,129.6z
	 M190.7,164.2c0.5,0.1,1.5,0.4,2.1,0.6c0.6,0.2,1.6,0.6,2.2,0.9c0.6,0.3,1.6,0.9,2.1,1.2c0.5,0.4,1.5,1.1,2.1,1.7
	c0.6,0.6,1.5,1.5,1.9,2.1c0.4,0.6,1,1.5,1.3,1.9c0.3,0.5,0.7,1.3,0.9,1.9c0.2,0.5,0.5,1.5,0.7,2.2c0.2,0.7,0.4,1.9,0.5,2.7
	c0.1,1.1,0.1,6.8,0.1,19.8c0,16.7-0.1,18.4-0.3,19.5c-0.1,0.6-0.4,1.7-0.6,2.3c-0.2,0.7-0.7,1.7-1,2.4c-0.3,0.7-1,1.7-1.4,2.3
	c-0.4,0.6-1.3,1.6-1.9,2.2c-0.6,0.6-1.7,1.5-2.3,1.9c-0.6,0.4-1.6,1-2.3,1.3c-0.6,0.3-1.6,0.7-2.2,0.9c-0.6,0.2-1.6,0.4-2.3,0.6
	c-1.1,0.2-3.3,0.2-28,0.2h-26.8l0-34.3c0-18.9,0-34.4,0-34.4c0.1-0.1,5.3-0.2,27.1-0.1C188.2,163.9,189.8,164,190.7,164.2z
	 M202.4,267.5c0.5,0.1,1.4,0.4,2,0.6c0.6,0.2,1.7,0.6,2.4,1c0.7,0.4,1.8,1,2.4,1.5c0.6,0.4,1.5,1.2,2,1.7c0.5,0.5,1.3,1.4,1.6,1.9
	c0.4,0.5,1,1.5,1.4,2.2c0.4,0.7,0.9,1.9,1.1,2.7c0.3,0.8,0.6,2,0.7,2.8c0.2,1.2,0.2,3.8,0.2,19.9c0,15.4,0,18.7-0.2,19.7
	c-0.1,0.7-0.3,1.8-0.5,2.4c-0.2,0.6-0.5,1.6-0.8,2.2c-0.3,0.6-0.9,1.6-1.3,2.3c-0.5,0.7-1.3,1.7-1.7,2.2c-0.5,0.5-1.4,1.3-2,1.8
	c-0.6,0.5-1.6,1.1-2.3,1.5c-0.7,0.4-1.7,0.9-2.3,1.1c-0.6,0.2-1.7,0.5-2.3,0.7l-1.1,0.3h-33h-33l0-34.2c0-18.8,0-34.3,0-34.4
	c0.1-0.1,6.5-0.2,32.9-0.1C199.1,267.3,201.5,267.3,202.4,267.5z"/>
</svg>
