<?xml version="1.0" encoding="utf-8"?>
<!-- Generator: Adobe Illustrator 27.7.0, SVG Export Plug-In . SVG Version: 6.00 Build 0)  -->
<svg version="1.1" id="Layer_1" xmlns="http://www.w3.org/2000/svg" xmlns:xlink="http://www.w3.org/1999/xlink" x="0px" y="0px"
	 viewBox="0 0 500 500" style="enable-background:new 0 0 500 500;" xml:space="preserve">
<style type="text/css">
	.st0{fill:url(#SVGID_1_);}
	.st1{fill-rule:evenodd;clip-rule:evenodd;fill:#FFFFFF;}
</style>
<linearGradient id="SVGID_1_" gradientUnits="userSpaceOnUse" x1="-27.5313" y1="384.2708" x2="584.7204" y2="87.8178" gradientTransform="matrix(1 0 0 -1 0 499.8898)">
	<stop  offset="5.395100e-02" style="stop-color:#6D5CFF"/>
	<stop  offset="0.5592" style="stop-color:#E86EFF"/>
	<stop  offset="0.9238" style="stop-color:#FFD66E"/>
</linearGradient>
<circle class="st0" cx="250" cy="250" r="250"/>
<path class="st1" d="M232.7,99h34.6h3.7v0.1c45.1,1.9,81.1,39.1,81.1,84.7c0,21.2-7.8,40.5-20.6,55.4c25.6,15.1,42.8,43,42.8,74.9
	c0,47.9-38.8,86.8-86.7,86.9l0,0H157.7v-0.9h0V142.6V99H232.7z M231.4,154.7c0-4.9,3.3-9,7.8-10.3c3.7-1.2,7.8-0.3,10.8,2.6
	l28.8,28.8c0.2,0.2,0.5,0.4,0.7,0.6c4.1,4.1,4.1,10.8,0,15L250,220.7c-2.1,2.1-4.9,3.2-7.7,3.1c-0.1,0-0.2,0-0.3,0
	c-5.9,0-10.7-4.8-10.7-10.7V154.7z M282.4,343.1c0,4.9-3.3,9-7.8,10.3c-3.7,1.2-7.8,0.3-10.8-2.6l-28.8-28.8
	c-0.2-0.2-0.5-0.4-0.7-0.6c-4.1-4.1-4.1-10.8,0-15l29.3-29.3c2.1-2.1,4.9-3.2,7.7-3.1c0.1,0,0.1,0,0.2,0c0,0,0.1,0,0.1,0
	c5.9,0,10.7,4.8,10.7,10.7V343.1z"/>
</svg>
