<?xml version="1.0" encoding="utf-8"?>
<!-- Generator: Adobe Illustrator 27.0.1, SVG Export Plug-In . SVG Version: 6.00 Build 0)  -->
<svg version="1.1" id="brise" xmlns="http://www.w3.org/2000/svg" xmlns:xlink="http://www.w3.org/1999/xlink" x="0px" y="0px"
	 viewBox="0 0 500 500" style="enable-background:new 0 0 500 500;" xml:space="preserve">
<style type="text/css">
	.st0{fill:url(#SVGID_1_);}
	.st1{fill:url(#SVGID_00000118359459900850854950000001695734685874098821_);}
</style>
<linearGradient id="SVGID_1_" gradientUnits="userSpaceOnUse" x1="94.608" y1="193.6642" x2="408.5952" y2="193.6642">
	<stop  offset="0" style="stop-color:#8109EA"/>
	<stop  offset="1" style="stop-color:#3311DD"/>
</linearGradient>
<path class="st0" d="M94.6,86.3V47.6c0-34.8,37.7-56.6,67.9-39.1l222,128.6c32.1,18.6,32.2,65,0.1,83.8L104.9,384.1
	c-4.3,2.5-9.8-0.6-9.8-5.6V117.9c0-3.9,4.2-6.3,7.5-4.3l139.6,81.9c4.7,2.7,4.7,9.4,0.1,12.3L194.8,237c-4.2,2.6-9.6,2.5-13.7-0.3
	l-17.7-12.2c-1.8-1.2-4.2,0-4.2,2.2v44.5c0,1.7,1.9,2.8,3.4,2l163-93.7L158.3,81.5v32.9c0,5.8-6.3,9.4-11.3,6.6L98.8,93.5
	C96.2,92,94.6,89.3,94.6,86.3z"/>
<linearGradient id="SVGID_00000092457563677681168910000011143323695980528289_" gradientUnits="userSpaceOnUse" x1="95.3269" y1="378.1262" x2="409.7924" y2="378.1262">
	<stop  offset="0" style="stop-color:#8109EA"/>
	<stop  offset="1" style="stop-color:#11DCB7"/>
</linearGradient>
<path style="fill:url(#SVGID_00000092457563677681168910000011143323695980528289_);" d="M95.3,406.3v46.3
	c0,34.1,36.9,55.4,66.4,38.3l224.9-130.8c30.2-17.5,31-60.8,1.6-79.6l-29.8-19c-4.2-2.9-9.8-3-14.1-0.3l-47,28.8
	c-4.8,3-4.9,10-0.1,13l25.8,16.2l-160.5,94.3c-1.2,0.7-2.8-0.2-2.8-1.6v-30.8c0-6-6.6-9.7-11.8-6.6L95.3,406.3z"/>
</svg>
