<svg id="Layer_1" data-name="Layer 1" xmlns="http://www.w3.org/2000/svg" xmlns:xlink="http://www.w3.org/1999/xlink" viewBox="0 0 36 36"><defs><mask id="mask" x="18" y="0" width="18" height="36" maskUnits="userSpaceOnUse"><g id="mask-2"><polygon id="path-1" points="18 0 36 0 36 36 18 36 18 0" style="fill:#fff;fill-rule:evenodd"/></g></mask><mask id="mask-2-2" x="0" y="18" width="18" height="18" maskUnits="userSpaceOnUse"><g id="mask-4"><polygon id="path-3" points="0 18 18 18 18 36 0 36 0 18" style="fill:#fff;fill-rule:evenodd"/></g></mask></defs><title>blockstamp-bst-logo</title><g id="Group-3"><g style="mask:url(#mask)"><path id="Fill-1" d="M18,36A18,18,0,0,0,18,0V2.19a15.81,15.81,0,0,1,0,31.62Z" style="fill:#ffbc00;fill-rule:evenodd"/></g></g><g id="Group-6" style="opacity:0.30000001192092896"><g style="mask:url(#mask-2-2)"><path id="Fill-4" d="M2.19,18H0A18,18,0,0,0,18,36V33.81A15.82,15.82,0,0,1,2.19,18" style="fill:#ffbc00;fill-rule:evenodd"/></g></g><path id="Fill-7" d="M6.42,18a11.58,11.58,0,0,0,23.16,0h2.19A13.77,13.77,0,0,1,4.23,18Z" style="fill:#ffbc00;fill-rule:evenodd"/><path id="Fill-9" d="M18,6.42V4.23A13.79,13.79,0,0,0,4.23,18H6.42A11.59,11.59,0,0,1,18,6.42" style="fill:#ffbc00;fill-rule:evenodd;opacity:0.30000001192092896;isolation:isolate"/><path id="Fill-11" d="M18,10.64a7.36,7.36,0,0,0,0,14.72v2.19a9.55,9.55,0,0,1,0-19.1" style="fill:#ffbc00;fill-rule:evenodd"/><path id="Fill-13" d="M18,8.45v2.19A7.37,7.37,0,0,1,25.36,18h2.19A9.57,9.57,0,0,0,18,8.45" style="fill:#ffbc00;fill-rule:evenodd;opacity:0.30000001192092896;isolation:isolate"/><path id="Fill-15" d="M18,12.68a5.32,5.32,0,0,1,0,10.64V21.13a3.13,3.13,0,0,0,0-6.26" style="fill:#ffbc00;fill-rule:evenodd"/><path id="Fill-17" d="M18,12.68A5.33,5.33,0,0,0,12.68,18h2.19A3.13,3.13,0,0,1,18,14.87Z" style="fill:#ffbc00;fill-rule:evenodd;opacity:0.30000001192092896;isolation:isolate"/><path id="Fill-19" d="M24.71,24.77l-1.55-1.55,0,0A7.34,7.34,0,0,1,21,24.7l.92,2a9.74,9.74,0,0,0,2.76-1.92" style="fill:#ffbc00;fill-rule:evenodd"/><path id="Fill-21" d="M10.42,1.67A17.83,17.83,0,0,0,5.23,5.29l1.5,1.6a15.55,15.55,0,0,1,4.61-3.23Z" style="fill:#ffbc00;fill-rule:evenodd"/><path id="Fill-23" d="M30.46,12.25a13.54,13.54,0,0,0-2.77-4L26.11,9.8a11.17,11.17,0,0,1,2.36,3.37Z" style="fill:#ffbc00;fill-rule:evenodd"/></svg>