<?xml version="1.0" encoding="utf-8"?>
<!-- Generator: Adobe Illustrator 24.1.1, SVG Export Plug-In . SVG Version: 6.00 Build 0)  -->
<svg version="1.1" id="Livello_1" xmlns="http://www.w3.org/2000/svg" xmlns:xlink="http://www.w3.org/1999/xlink" x="0px" y="0px"
	 viewBox="0 0 200 200" style="enable-background:new 0 0 200 200;" xml:space="preserve">
<style type="text/css">
	.st0{fill:#FF6666;}
	.st1{fill:#DA5F5A;}
	.st2{fill-rule:evenodd;clip-rule:evenodd;fill:#FFF4C7;}
	.st3{fill:#FFF4C7;}
	.st4{fill:#F7931A;}
	.st5{fill:#FFFFFF;}
</style>
<path class="st0" d="M29.3,29.3c-39.1,39.1-39.1,102.4,0,141.4L170.7,29.3C131.7-9.8,68.3-9.8,29.3,29.3z"/>
<path class="st1" d="M170.7,170.7c-39-39.1-102.4-39.1-141.4,0L170.7,29.3C209.8,68.3,209.8,131.7,170.7,170.7z"/>
<ellipse class="st2" cx="100" cy="100" rx="63.9" ry="64.1"/>
<path class="st3" d="M170.7,170.7c-39,39.1-102.4,39.1-141.4,0C68.3,131.7,131.7,131.7,170.7,170.7z"/>
<circle class="st4" cx="100" cy="100" r="54.6"/>
<path class="st5" d="M114.2,93.1c-1.7,6.8-12.1,3.3-15.5,2.5l3-12C105,84.5,115.9,86,114.2,93.1z M112.3,112.4
	c-1.9,7.4-14.4,3.4-18.5,2.4l3.3-13.2C101.2,102.7,114.3,104.7,112.3,112.4z M126,93.2c1.1-7.3-4.5-11.2-12-13.8l2.5-9.8l-6-1.5
	l-2.4,9.6c-1.6-0.4-3.2-0.8-4.8-1.1l2.4-9.7l-6-1.5l-2.5,9.8c-1.3-0.3-2.6-0.6-3.8-0.9l-8.3-2.1l-1.6,6.4c0,0,4.5,1,4.4,1.1
	c2.4,0.6,2.9,2.2,2.8,3.5l-2.8,11.2c0.2,0,0.4,0.1,0.6,0.2c-0.2,0-0.4-0.1-0.6-0.2L84,110.1c-0.3,0.7-1.1,1.8-2.7,1.4
	c0.1,0.1-4.4-1.1-4.4-1.1l-3,6.9l7.8,1.9c1.5,0.4,2.9,0.7,4.3,1.1l-2.5,10l6,1.5l2.5-9.9c1.6,0.4,3.2,0.9,4.8,1.2l-2.5,9.8l6,1.5
	l2.5-9.9c10.2,1.9,17.9,1.2,21.2-8.1c2.6-7.4-0.1-11.7-5.5-14.5C122.3,101.1,125.2,98.5,126,93.2L126,93.2z"/>
</svg>
