<?xml version="1.0" encoding="utf-8"?>
<!-- Generator: Adobe Illustrator 27.0.1, SVG Export Plug-In . SVG Version: 6.00 Build 0)  -->
<svg version="1.1" id="btcd" xmlns="http://www.w3.org/2000/svg" xmlns:xlink="http://www.w3.org/1999/xlink" x="0px" y="0px"
	 viewBox="0 0 500 500" style="enable-background:new 0 0 500 500;" xml:space="preserve">
<style type="text/css">
	.st0{stroke:#000000;stroke-width:0.25;stroke-miterlimit:10;}
	.st1{fill:#FF6600;}
</style>
<g transform="translate(0-115.87)">
	<path class="st0" d="M276.5,446.9c124.7-37.8,80.2-164.9,0-169.7c20.4,0,37-57.4,37-128.5c195.8,13.7,287.7,330.9-5.9,430.1
		C309.5,553.1,298.7,481.2,276.5,446.9"/>
	<path class="st1" d="M4.6,409.3c146.1,0,264.4-116.4,264.4-260.4H132.5c0.3,70.5-56.8,128.2-127.6,128.5H4.6V409.3z M183.4,385.4
		c-37,32.7-57.7,49.6-159,65.7c59.8,0,108.1,59,108.1,131.9H269C269,561.1,264.4,450.9,183.4,385.4L183.4,385.4L183.4,385.4z"/>
</g>
</svg>
