<svg xmlns="http://www.w3.org/2000/svg" viewBox="0 0 242.28 384.79"><defs><style>.cls-1{fill:#1c191a;}.cls-2{fill:#818181;}.cls-3{fill:gray;}.cls-4{fill:#7f7f7f;}.cls-5{fill:#7e7e7e;}.cls-6{fill:#7d7d7d;}.cls-7{fill:#7c7c7c;}.cls-8{fill:#7b7b7b;}.cls-9{fill:#7a7a7a;}.cls-10{fill:#797979;}.cls-11{fill:#787878;}.cls-12{fill:#777;}.cls-13{fill:#767676;}.cls-14{fill:#757575;}.cls-15{fill:#747474;}.cls-16{fill:#737373;}.cls-17{fill:#727272;}.cls-18{fill:#717171;}.cls-19{fill:#707070;}.cls-20{fill:#6f6f6f;}.cls-21{fill:#6e6e6e;}.cls-22{fill:#6d6d6d;}.cls-23{fill:#6c6c6c;}.cls-24{fill:#6b6b6b;}.cls-25{fill:#6a6a6a;}.cls-26{fill:#696969;}.cls-27{fill:#686868;}.cls-28{fill:#676767;}.cls-29{fill:#666;}.cls-30{fill:#656565;}.cls-31{fill:#646464;}.cls-32{fill:#636363;}.cls-33{fill:#626262;}.cls-34{fill:#616161;}.cls-35{fill:#606060;}.cls-36{fill:#5f5f5f;}.cls-37{fill:#5e5e5e;}.cls-38{fill:#5d5d5d;}.cls-39{fill:#5c5c5c;}.cls-40{fill:#828282;}.cls-41{fill:#838383;}.cls-42{fill:#848484;}.cls-43{fill:#858585;}.cls-44{fill:#868686;}.cls-45{fill:#878787;}</style></defs><title>bto_1</title><g id="Layer_2" data-name="Layer 2"><g id="Layer_1-2" data-name="Layer 1"><path class="cls-1" d="M162.48,149.71c14.13,6.07,27.7,13.15,39,23.8,36.17,34.17,49.16,75.85,35.54,123.61-13.26,46.51-45.19,75.6-92.71,85.22C73.86,396.59,7.73,347,.47,275.73A114,114,0,0,1,0,264.25q0-86,0-172C0,67.06,9,45.51,26.37,27.34c1.11-1.17,2-2.69,3.76-3.11a8.24,8.24,0,0,1-.49,4.4C25.53,41.72,23,55,25.17,68.8c2.2,14.18,8.17,26.14,20,34.77a44.28,44.28,0,0,0,14.08,8.66c4.29,2.72,9.17,3.84,14,5.13a40.86,40.86,0,0,0,10.89,3.37,39,39,0,0,0,10.12,3.55,90,90,0,0,0,15,5.11l14,5a38.72,38.72,0,0,0,10.56,3.69A42.14,42.14,0,0,0,145,142.71C150.77,145.24,156.45,147.93,162.48,149.71Z" transform="translate(0 0)"/><path class="cls-2" d="M162.48,149.71c-6-1.78-11.71-4.47-17.44-7,3.73-2.21,5.27-5.08,3.41-9.45-.61-1.43-.23-3.29-.23-5q0-48,0-96c0-2.76.57-5.58-1.37-8.17-1.32-1.77.06-2.67,1.85-2.92,3.36-.22,4.69,2.71,6.63,4.51,4.25,3.94,8.25,8.15,11.11,13.27-3.48,2.7-2.22,6.43-2.21,9.92q0,41.9,0,83.79c0,2.2,0,4.38-1.33,6.22-2.39,3.35-2,6,1.69,8Z" transform="translate(0 0)"/><path class="cls-3" d="M144.09,22.5c-1.16-1.63.16-2.45,1.86-2.68,3.2-.19,4.52,2.53,6.41,4.22a53.21,53.21,0,0,1,10.82,12.47A5.32,5.32,0,0,0,161,40c-.28,2.05.1,4.32.1,6.51q0,42.45,0,84.9a15.8,15.8,0,0,1-.46,4.65,6.68,6.68,0,0,1-.77,1.68c-2.19,3.39-1.84,6.13,1.48,8.29l-2.12,2.44a150.07,150.07,0,0,1-17-6.79c3.45-2.35,4.85-5.29,3.15-9.64-.57-1.45-.21-3.31-.21-5q0-46.69,0-93.38c0-1,0-2,0-3.06a12.18,12.18,0,0,1,.06-1.45C145.56,26.94,145.59,24.64,144.09,22.5Z" transform="translate(0 0)"/><path class="cls-4" d="M141.35,20.82c-1-1.49.26-2.24,1.88-2.44,3-.16,4.35,2.36,6.18,3.94A51.44,51.44,0,0,1,159.93,34a4.9,4.9,0,0,0-2.06,3.56c-.11,2.05.17,4.34.18,6.53q0,43,0,86a17.71,17.71,0,0,1-.42,4.71,7.22,7.22,0,0,1-.7,1.72c-2,3.43-1.68,6.25,1.28,8.54l-2.12,2.17a155.25,155.25,0,0,1-16.58-6.58c3.16-2.49,4.43-5.51,2.89-9.84-.53-1.48-.19-3.33-.19-5q0-46.93,0-93.85c0-1,0-2.06,0-3.08a7.41,7.41,0,0,1,.09-1.46A8.18,8.18,0,0,0,141.35,20.82Z" transform="translate(0 0)"/><path class="cls-5" d="M138.61,19.21c-.85-1.35.37-2,1.9-2.2,2.88-.13,4.18,2.19,6,3.65a49.72,49.72,0,0,1,10.23,10.88,4.54,4.54,0,0,0-2,3.61c.06,2,.25,4.35.25,6.55q0,43.56,0,87.13a20,20,0,0,1-.38,4.78,7.92,7.92,0,0,1-.64,1.76c-1.8,3.47-1.52,6.38,1.08,8.79l-2.13,1.9a161.72,161.72,0,0,1-16.14-6.37c2.87-2.62,4-5.73,2.62-10-.48-1.5-.17-3.35-.17-5q0-47.16,0-94.32c0-1,0-2.08,0-3.09a5.46,5.46,0,0,1,.12-1.46A7.49,7.49,0,0,0,138.61,19.21Z" transform="translate(0 0)"/><path class="cls-6" d="M135.87,17.56c-.7-1.21.47-1.81,1.91-2,2.72-.1,4,2,5.73,3.36A48.07,48.07,0,0,1,153.45,29c-1.24,1.08-2,2.2-1.88,3.67a63.71,63.71,0,0,1,.33,6.57q0,44.12,0,88.24a22.85,22.85,0,0,1-.35,4.85,8.82,8.82,0,0,1-.57,1.8c-1.6,3.5-1.37,6.5.87,9l-2.13,1.63c-5.39-1.67-10.53-4-15.71-6.15a9.8,9.8,0,0,0,2.36-10.23c-.44-1.53-.16-3.37-.16-5.07q0-47.39,0-94.79c0-1,0-2.1,0-3.11a7.44,7.44,0,0,1,.15-1.46C137.74,22.08,137.07,19.7,135.87,17.56Z" transform="translate(0 0)"/><path class="cls-7" d="M133.13,15.9c-.54-1.07.57-1.6,1.93-1.71,2.55-.07,3.85,1.83,5.5,3.07a46.17,46.17,0,0,1,9.64,9.28c-1.22,1.09-2.07,2.19-1.79,3.73a38.31,38.31,0,0,1,.4,6.6q0,44.68,0,89.35a26.4,26.4,0,0,1-.31,4.91A10,10,0,0,1,148,133c-1.41,3.54-1.21,6.62.67,9.3l-2.13,1.37c-5.23-1.64-10.24-3.84-15.28-5.94a11.19,11.19,0,0,0,2.1-10.43,21.72,21.72,0,0,1-.14-5.1q0-47.63,0-95.26c0-1,0-2.11,0-3.13a5.93,5.93,0,0,1,.18-1.46C135.09,20.45,134.23,18,133.13,15.9Z" transform="translate(0 0)"/><path class="cls-8" d="M130.39,14.25c-.39-.93.67-1.38,1.95-1.47,2.39,0,3.68,1.66,5.28,2.79A44.66,44.66,0,0,1,147,24c-1.2,1.11-2.11,2.19-1.7,3.79a27.88,27.88,0,0,1,.47,6.62q0,45.23,0,90.46a31,31,0,0,1-.27,5,11.58,11.58,0,0,1-.45,1.87,11.46,11.46,0,0,0,.47,9.55l-2.14,1.1c-5.07-1.61-9.94-3.71-14.85-5.73a13,13,0,0,0,1.84-10.62,24.79,24.79,0,0,1-.12-5.13q0-47.86,0-95.72c0-1,0-2.13,0-3.14a4.86,4.86,0,0,1,.21-1.46C132.45,18.81,131.4,16.39,130.39,14.25Z" transform="translate(0 0)"/><path class="cls-8" d="M127.65,12.6c-.23-.79.77-1.17,2-1.23,2.23,0,3.51,1.48,5.05,2.5a43.28,43.28,0,0,1,9.06,7.68c-1.18,1.12-2.15,2.19-1.61,3.84a22.2,22.2,0,0,1,.55,6.64q0,45.79,0,91.57a37.13,37.13,0,0,1-.24,5,13.78,13.78,0,0,1-.38,1.91,14.83,14.83,0,0,0,.26,9.81l-2.14.83c-4.91-1.59-9.65-3.59-14.42-5.52a15.58,15.58,0,0,0,1.57-10.82,28.88,28.88,0,0,1-.1-5.16q0-48.1,0-96.19c0-1,0-2.14,0-3.16a4.08,4.08,0,0,1,.24-1.46C129.81,17.18,128.56,14.74,127.65,12.6Z" transform="translate(0 0)"/><path class="cls-9" d="M124.92,10.94c-.08-.65.88-1,2-1,2.07,0,3.34,1.31,4.83,2.21A42.08,42.08,0,0,1,140.49,19c-1.16,1.14-2.19,2.19-1.52,3.9.79,2,.62,4.41.62,6.67q0,46.34,0,92.69a45.74,45.74,0,0,1-.2,5.11,17,17,0,0,1-.32,2,20.53,20.53,0,0,0,.06,10.06L137,140c-4.75-1.56-9.36-3.46-14-5.31a19.24,19.24,0,0,0,1.31-11,34.6,34.6,0,0,1-.09-5.18q0-48.33,0-96.66c0-1,0-2.16,0-3.17a3.48,3.48,0,0,1,.27-1.46C127.16,15.55,125.72,13.09,124.92,10.94Z" transform="translate(0 0)"/><path class="cls-10" d="M122.18,9.29c.08-.51,1-.74,2-.75,1.91.06,3.17,1.14,4.6,1.93a41.09,41.09,0,0,1,8.47,6.09c-1.14,1.15-2.24,2.19-1.43,4,.92,2,.7,4.42.7,6.69q0,46.9,0,93.8c0,1.74,0,3.48-.16,5.18-.06.67-.13,1.34-.25,2a31.89,31.89,0,0,0-.14,10.31l-2.15.29c-4.59-1.53-9.06-3.34-13.56-5.1a24.84,24.84,0,0,0,1-11.21,43.18,43.18,0,0,1-.07-5.21q0-48.56,0-97.13c0-.95,0-2.18,0-3.19a3,3,0,0,1,.3-1.46C124.52,13.92,122.88,11.43,122.18,9.29Z" transform="translate(0 0)"/><path class="cls-11" d="M119.44,7.64c.23-.37,1.08-.53,2-.51,1.74.09,3,1,4.38,1.64A40.39,40.39,0,0,1,134,14.05c-1.13,1.17-2.29,2.2-1.34,4,1.05,2,.77,4.44.77,6.71q0,47.45,0,94.91c0,1.76,0,3.52-.12,5.24,0,.68-.1,1.36-.19,2a64.65,64.65,0,0,0-.35,10.56l-2.15,0c-4.43-1.5-8.77-3.21-13.13-4.89a34.33,34.33,0,0,0,.79-11.41c-.16-1.69-.05-3.49-.05-5.24q0-48.8,0-97.6c0-.94,0-2.19,0-3.2,0-.72.11-1.33.33-1.47C121.63,11.83,120,9.78,119.44,7.64Z" transform="translate(0 0)"/><path class="cls-12" d="M116.7,5.87a4.12,4.12,0,0,1,2-.27,12.61,12.61,0,0,1,4.15,1.35,40.06,40.06,0,0,1,7.89,4.49c-1.11,1.18-2.34,2.21-1.25,4.07s.84,4.45.85,6.74q0,48,0,96c0,1.78,0,3.55-.09,5.31,0,.69-.06,1.38-.12,2.07-.32,3.72-.28,7.36-.55,10.82l-2.15-.24c-4.27-1.47-8.48-3.09-12.7-4.67a53.54,53.54,0,0,0,.52-11.6c-.11-1.72,0-3.51,0-5.27q0-49,0-98.07c0-.93,0-2.21,0-3.22,0-.75.13-1.35.36-1.47C119.07,10.19,117.21,8,116.7,5.87Z" transform="translate(0 0)"/><path class="cls-13" d="M114,4.07A8.23,8.23,0,0,1,116,4a16.66,16.66,0,0,1,3.92,1.07,40.52,40.52,0,0,1,7.59,3.69c-1.09,1.2-2.4,2.22-1.16,4.13s.92,4.46.92,6.76q0,48.57,0,97.13c0,1.8,0,3.59-.05,5.38,0,.7,0,1.41-.06,2.11a84.87,84.87,0,0,1-.75,11.07l-2.16-.51c-4.11-1.45-8.18-3-12.27-4.46a111.61,111.61,0,0,0,.26-11.8c-.05-1.75,0-3.53,0-5.3q0-49.27,0-98.54c0-.93,0-2.22,0-3.23,0-.77.15-1.38.39-1.47C116.52,8.57,114.37,6.21,114,4.07Z" transform="translate(0 0)"/><path class="cls-14" d="M123.22,134.41l-14-5q0-58.16,0-116.33c0-1.64-.11-4.56.45-4.72,4.25-1.23,1.84-3.8,1.53-5.95a33.71,33.71,0,0,1,13.07,3.88c-1.07,1.21-2.45,2.23-1.07,4.19s1,4.48,1,6.78q0,51.84,0,103.69C124.16,125.42,124.39,130,123.22,134.41Z" transform="translate(0 0)"/><path class="cls-15" d="M108.15,3a28.46,28.46,0,0,1,6.74,1,42.37,42.37,0,0,1,6.4,2.33c-1,1.21-2.33,2.23-1,4.16s1,4.43,1,6.71q0,5.8,0,11.61,0,18.82,0,37.64t0,37.63c0,5.22,0,10.44,0,15.66,0,4.44.17,8.94-1,13.31q-3.61-1.36-7.18-2.74-3.42-1.33-6.8-2.68-.19-19.13-.25-38.34-.12-37.93.19-75.81c0-1.61-.09-4.45.46-4.63,2-.63,2.45-1.48,2.39-2.48,0-.08,0-.16,0-.24C108.88,5.09,108.29,4,108.15,3Z" transform="translate(0 0)"/><path class="cls-16" d="M105.08,3.56a28.79,28.79,0,0,1,6.76.72,42.11,42.11,0,0,1,6.46,2c-1,1.2-2.2,2.23-.9,4.12s1,4.38,1,6.64c0,3.83,0,7.65,0,11.48q0,18.61,0,37.22t0,37.21c0,5.16,0,10.32,0,15.49,0,4.39.13,8.83-1.08,13.15q-3.64-1.44-7.21-2.92t-6.76-2.9q-.37-18.72-.49-37.58c-.17-24.83,0-49.61.36-74.38,0-1.58-.07-4.35.46-4.54,1.86-.67,2.36-1.47,2.29-2.46,0-.08,0-.15,0-.22C105.75,5.63,105.2,4.55,105.08,3.56Z" transform="translate(0 0)"/><path class="cls-17" d="M102,4.17a29.21,29.21,0,0,1,6.77.44,41.91,41.91,0,0,1,6.52,1.76c-.89,1.2-2.07,2.23-.82,4.09s1,4.33,1,6.57c0,3.78,0,7.57,0,11.35q0,18.4,0,36.8T115.44,102c0,5.1,0,10.21-.06,15.31,0,4.34.08,8.73-1.15,13q-3.68-1.51-7.23-3.09T100.28,124q-.56-18.3-.74-36.83c-.25-24.37,0-48.67.53-73,0-1.55-.06-4.25.47-4.46,1.77-.7,2.26-1.47,2.19-2.44,0-.07,0-.13,0-.21C102.62,6.19,102.1,5.13,102,4.17Z" transform="translate(0 0)"/><path class="cls-18" d="M98.93,4.8a29.71,29.71,0,0,1,6.79.16,41.8,41.8,0,0,1,6.59,1.48c-.84,1.19-1.94,2.23-.74,4.06s.94,4.29,1,6.49c0,3.74,0,7.48,0,11.22q0,18.19,0,36.38t-.07,36.36c0,5,0,10.09-.06,15.13-.05,4.28,0,8.62-1.21,12.82q-3.71-1.59-7.26-3.26t-6.68-3.34q-.75-17.89-1-36.07c-.33-23.91.06-47.73.7-71.53,0-1.51,0-4.14.47-4.37,1.68-.73,2.16-1.46,2.09-2.42,0-.07,0-.12,0-.19C99.48,6.77,99,5.74,98.93,4.8Z" transform="translate(0 0)"/><path class="cls-19" d="M95.85,5.45a30.31,30.31,0,0,1,6.8-.12,41.76,41.76,0,0,1,6.65,1.19c-.78,1.19-1.82,2.22-.66,4s.92,4.24,1,6.42c0,3.69,0,7.39,0,11.09q0,18,0,36T109.58,100c0,5,0,10-.07,15-.07,4.23,0,8.51-1.28,12.65q-3.74-1.66-7.28-3.44c-2.28-1.15-4.49-2.34-6.64-3.57q-.94-17.47-1.23-35.32c-.41-23.45.07-46.79.87-70.1,0-1.48,0-4,.48-4.28,1.59-.76,2.07-1.45,2-2.4,0-.07,0-.11,0-.18C96.35,7.37,95.9,6.37,95.85,5.45Z" transform="translate(0 0)"/><path class="cls-20" d="M92.77,6.13a31,31,0,0,1,6.81-.4,41.8,41.8,0,0,1,6.71.91c-.72,1.19-1.69,2.22-.58,4,1.21,1.93.91,4.19.94,6.35.06,3.65.05,7.3,0,11q0,17.77,0,35.54T106.64,99c0,4.91,0,9.86-.08,14.78-.08,4.18-.06,8.4-1.34,12.49q-3.78-1.74-7.31-3.61c-2.28-1.21-4.47-2.48-6.6-3.79q-1.12-17.06-1.47-34.56c-.5-23,.08-45.85,1-68.68.06-1.45,0-3.93.48-4.19,1.5-.79,2-1.44,1.89-2.38,0-.06,0-.1,0-.16C93.21,8,92.8,7,92.77,6.13Z" transform="translate(0 0)"/><path class="cls-21" d="M89.69,6.83a31.76,31.76,0,0,1,6.83-.68,41.92,41.92,0,0,1,6.77.63c-.66,1.18-1.57,2.22-.49,4,1.17,1.91.89,4.15.93,6.28.07,3.6.06,7.22.06,10.83q0,17.56,0,35.12t-.1,35.1c0,4.85,0,9.74-.08,14.61-.09,4.13-.1,8.3-1.41,12.33q-3.81-1.81-7.33-3.78c-2.28-1.28-4.46-2.62-6.56-4-.87-11.1-1.42-22.38-1.72-33.81-.58-22.53.1-44.91,1.22-67.25.07-1.42,0-3.83.49-4.1,1.41-.81,1.88-1.44,1.79-2.36a1.5,1.5,0,0,0,0-.15C90.07,8.66,89.7,7.71,89.69,6.83Z" transform="translate(0 0)"/><path class="cls-22" d="M86.61,7.57a32.61,32.61,0,0,1,6.84-1,42.11,42.11,0,0,1,6.84.34c-.6,1.18-1.44,2.22-.41,3.93,1.14,1.89.88,4.1.93,6.2.07,3.56.07,7.13.06,10.7,0,11.56,0,23.13,0,34.7s0,23.12-.11,34.68c0,4.79,0,9.62-.09,14.43-.1,4.08-.15,8.19-1.47,12.16q-3.84-1.89-7.35-4c-2.28-1.35-4.44-2.77-6.52-4.23-1-10.82-1.63-21.85-2-33.05-.66-22.07.11-44,1.39-65.83.08-1.39,0-3.72.49-4,1.32-.82,1.78-1.43,1.69-2.34a1.29,1.29,0,0,0,0-.13C86.93,9.35,86.6,8.43,86.61,7.57Z" transform="translate(0 0)"/><path class="cls-23" d="M83.53,8.34A33.54,33.54,0,0,1,90.38,7.1a42.38,42.38,0,0,1,6.9.06C96.74,8.33,96,9.38,97,11.06c1.1,1.88.87,4.05.92,6.13.08,3.51.08,7,.07,10.57,0,11.42,0,22.85,0,34.27s0,22.84-.12,34.26c0,4.73,0,9.51-.1,14.26-.11,4-.2,8.08-1.54,12q-3.87-2-7.38-4.13c-2.28-1.41-4.43-2.91-6.48-4.45-1.12-10.54-1.83-21.32-2.21-32.3a634.56,634.56,0,0,1,1.56-64.4c.09-1.35,0-3.61.5-3.93,1.23-.83,1.69-1.42,1.6-2.32a1.09,1.09,0,0,0,0-.12C83.8,10.07,83.51,9.17,83.53,8.34Z" transform="translate(0 0)"/><path class="cls-24" d="M80.45,9.15a34.56,34.56,0,0,1,6.87-1.52,42.72,42.72,0,0,1,7-.22c-.49,1.17-1.19,2.22-.25,3.87,1.06,1.86.85,4,.91,6.06.09,3.47.08,7,.08,10.44,0,11.28,0,22.57,0,33.85s0,22.56-.13,33.84c-.05,4.67,0,9.39-.1,14.08-.12,4-.24,8-1.6,11.83q-3.91-2-7.4-4.3c-2.27-1.48-4.41-3-6.44-4.68-1.25-10.27-2-20.8-2.46-31.54-.83-21.15.14-42.1,1.73-63,.1-1.32.12-3.42.5-3.84a2.13,2.13,0,0,0,1.5-2.3c0-.05,0,0,0-.1C80.66,10.83,80.41,10,80.45,9.15Z" transform="translate(0 0)"/><path class="cls-25" d="M77.37,10a35.65,35.65,0,0,1,6.88-1.8,43.14,43.14,0,0,1,7-.51c-.43,1.17-1.06,2.22-.17,3.83,1,1.84.84,4,.9,6,.1,3.43.09,6.87.09,10.31,0,11.14,0,22.29,0,33.43s0,22.28-.14,33.42c-.05,4.61,0,9.27-.11,13.91-.13,3.93-.29,7.87-1.67,11.67a82.09,82.09,0,0,1-7.43-4.48,73.85,73.85,0,0,1-6.4-4.9c-1.37-10-2.24-20.27-2.7-30.79-.91-20.69.15-41.16,1.9-61.55.11-1.29.14-3.31.51-3.75a2.11,2.11,0,0,0,1.4-2.27s0,0,0-.09C77.52,11.62,77.31,10.78,77.37,10Z" transform="translate(0 0)"/><path class="cls-26" d="M74.29,10.86a36.81,36.81,0,0,1,6.89-2.08A43.63,43.63,0,0,1,88.27,8c-.37,1.16-.94,2.22-.09,3.8,1,1.83.82,3.91.89,5.91.11,3.38.1,6.78.09,10.18,0,11,0,22,0,33s0,22-.15,33c-.06,4.55,0,9.15-.12,13.73-.14,3.88-.34,7.76-1.74,11.51a76.73,76.73,0,0,1-7.45-4.65,69,69,0,0,1-6.36-5.12,292.11,292.11,0,0,1-2.95-30c-1-20.24.17-40.22,2.07-60.12.12-1.26.16-3.2.51-3.66a2.1,2.1,0,0,0,1.3-2.25s0,0,0-.07C74.39,12.44,74.21,11.62,74.29,10.86Z" transform="translate(0 0)"/><path class="cls-26" d="M71.21,11.72a38,38,0,0,1,6.91-2.36,44.18,44.18,0,0,1,7.15-1.07c-.31,1.16-.81,2.22,0,3.77.94,1.81.81,3.86.88,5.84.12,3.34.11,6.69.1,10.05,0,10.86,0,21.73,0,32.59s0,21.72-.16,32.58c-.06,4.49.05,9-.13,13.55-.15,3.82-.38,7.66-1.8,11.34a72.27,72.27,0,0,1-7.48-4.82,65,65,0,0,1-6.32-5.34,255.62,255.62,0,0,1-3.19-29.28c-1.07-19.78.18-39.28,2.24-58.7.13-1.23.19-3.08.52-3.57a2.09,2.09,0,0,0,1.2-2.23s0,0,0-.06C71.25,13.26,71.11,12.47,71.21,11.72Z" transform="translate(0 0)"/><path class="cls-27" d="M68.13,12.59A39.33,39.33,0,0,1,75.05,10,44.8,44.8,0,0,1,82.26,8.6c-.26,1.15-.69,2.22.08,3.74.9,1.79.8,3.82.87,5.77.13,3.29.12,6.6.11,9.92,0,10.72,0,21.45,0,32.17s0,21.44-.17,32.16c-.07,4.43.06,8.92-.13,13.38-.16,3.77-.43,7.55-1.87,11.18a68.51,68.51,0,0,1-7.5-5,61.65,61.65,0,0,1-6.28-5.56A224.78,224.78,0,0,1,64,77.82c-1.16-19.32.19-38.34,2.41-57.27a15,15,0,0,1,.52-3.49A2.09,2.09,0,0,0,68,14.85s0,0,0,0C68.11,14.08,68,13.31,68.13,12.59Z" transform="translate(0 0)"/><path class="cls-28" d="M65.05,13.46A40.67,40.67,0,0,1,72,10.54,45.48,45.48,0,0,1,79.26,8.9a5.22,5.22,0,0,0,.16,3.7c.86,1.78.78,3.77.86,5.7.14,3.25.12,6.52.12,9.79,0,10.58,0,21.17,0,31.75s0,21.16-.18,31.74c-.07,4.36.06,8.8-.14,13.2a32.46,32.46,0,0,1-1.93,11,65.3,65.3,0,0,1-7.53-5.17,58.89,58.89,0,0,1-6.24-5.78,198.48,198.48,0,0,1-3.69-27.77c-1.24-18.86.21-37.4,2.58-55.85a16.25,16.25,0,0,1,.53-3.4,2.1,2.1,0,0,0,1-2.19s0,0,0,0C65,14.9,64.91,14.16,65.05,13.46Z" transform="translate(0 0)"/><path class="cls-29" d="M62,14.32a42.07,42.07,0,0,1,6.95-3.2,46.23,46.23,0,0,1,7.34-1.92,5.79,5.79,0,0,0,.24,3.67c.82,1.76.77,3.72.86,5.62.15,3.2.13,6.43.12,9.66,0,10.44,0,20.89,0,31.33s0,20.88-.19,31.31c-.08,4.3.07,8.69-.15,13a31.39,31.39,0,0,1-2,10.85,62.55,62.55,0,0,1-7.55-5.35,56.57,56.57,0,0,1-6.2-6,175.84,175.84,0,0,1-3.93-27c-1.32-18.4.22-36.46,2.76-54.42a18,18,0,0,1,.53-3.31,2.12,2.12,0,0,0,.9-2.17s0,0,0,0C61.84,15.72,61.81,15,62,14.32Z" transform="translate(0 0)"/><path class="cls-30" d="M58.89,15.19a43.51,43.51,0,0,1,7-3.48,47,47,0,0,1,7.4-2.21,6.55,6.55,0,0,0,.32,3.64,15.17,15.17,0,0,1,.85,5.55c.16,3.16.14,6.34.13,9.53,0,10.3,0,20.61.05,30.91s0,20.6-.2,30.89c-.08,4.24.07,8.57-.15,12.85a30.35,30.35,0,0,1-2.06,10.69,60.17,60.17,0,0,1-7.58-5.52,54.63,54.63,0,0,1-6.16-6.23,156.24,156.24,0,0,1-4.18-26.26c-1.4-17.94.23-35.52,2.93-53a20.42,20.42,0,0,1,.54-3.22,2.16,2.16,0,0,0,.8-2.15s0,0,0,0C58.7,16.54,58.71,15.85,58.89,15.19Z" transform="translate(0 0)"/><path class="cls-31" d="M55.81,16.06a45,45,0,0,1,7-3.76,47.88,47.88,0,0,1,7.46-2.49,7.58,7.58,0,0,0,.4,3.61,15.84,15.84,0,0,1,.84,5.48c.17,3.12.15,6.25.14,9.4,0,10.16,0,20.33.05,30.49s0,20.32-.21,30.47c-.08,4.18.08,8.45-.16,12.68a29.34,29.34,0,0,1-2.13,10.52,58.11,58.11,0,0,1-7.6-5.69,53,53,0,0,1-6.12-6.45A139.15,139.15,0,0,1,51,74.81c-1.49-17.48.25-34.58,3.1-51.57a24.18,24.18,0,0,1,.54-3.13,2.22,2.22,0,0,0,.7-2.13s0,0,0,0C55.56,17.36,55.61,16.69,55.81,16.06Z" transform="translate(0 0)"/><path class="cls-32" d="M52.73,16.93a46.49,46.49,0,0,1,7-4,48.78,48.78,0,0,1,7.53-2.77,9,9,0,0,0,.49,3.57,16.64,16.64,0,0,1,.83,5.41c.17,3.07.16,6.17.15,9.27,0,10,0,20,.06,30.07s0,20-.22,30.05c-.09,4.12.08,8.34-.17,12.5a28.36,28.36,0,0,1-2.2,10.36,56.91,56.91,0,0,1-7.62-5.87,52.17,52.17,0,0,1-6.08-6.67,124.19,124.19,0,0,1-4.67-24.75c-1.57-17,.26-33.65,3.27-50.14a30.6,30.6,0,0,1,.55-3,2.31,2.31,0,0,0,.6-2.11s0,.06,0,0C52.42,18.18,52.51,17.54,52.73,16.93Z" transform="translate(0 0)"/><path class="cls-33" d="M49.65,17.79a48,48,0,0,1,7-4.31,49.74,49.74,0,0,1,7.59-3.06A11.27,11.27,0,0,0,64.81,14a17.59,17.59,0,0,1,.82,5.33c.18,3,.16,6.08.16,9.14,0,9.88,0,19.76.06,29.65s0,19.76-.23,29.63c-.09,4.06.09,8.22-.18,12.32a27.41,27.41,0,0,1-2.26,10.19,55.21,55.21,0,0,1-7.65-6,50.89,50.89,0,0,1-6-6.89,111,111,0,0,1-4.91-24C42.92,56.75,44.85,40.6,48,24.59c.2-1,.35-2.29.55-3a2.43,2.43,0,0,0,.5-2.09s0,.07,0,.05C49.29,19,49.41,18.39,49.65,17.79Z" transform="translate(0 0)"/><path class="cls-34" d="M46.57,18.66a49.59,49.59,0,0,1,7-4.59,50.73,50.73,0,0,1,7.65-3.34,15,15,0,0,0,.65,3.51,18.77,18.77,0,0,1,.81,5.26c.19,3,.17,6,.16,9,0,9.74,0,19.48.06,29.22s0,19.48-.24,29.21c-.1,4,.1,8.1-.18,12.15a26.48,26.48,0,0,1-2.33,10,53.72,53.72,0,0,1-7.67-6.21,49.81,49.81,0,0,1-6-7.12,99.4,99.4,0,0,1-5.16-23.24c-1.73-16.1.29-31.77,3.61-47.29.21-1,.37-2.18.56-2.87a2.59,2.59,0,0,0,.41-2.07s0,.08,0,.07C46.15,19.82,46.32,19.23,46.57,18.66Z" transform="translate(0 0)"/><path class="cls-35" d="M43.49,19.53a51.17,51.17,0,0,1,7-4.87A51.78,51.78,0,0,1,58.24,11,22.4,22.4,0,0,0,59,14.51a20.23,20.23,0,0,1,.8,5.19c.2,2.94.18,5.91.17,8.88,0,9.6,0,19.2.06,28.8s0,19.2-.25,28.79c-.1,3.94.1,8-.19,12A25.59,25.59,0,0,1,57.17,108a52.39,52.39,0,0,1-7.7-6.39,48.9,48.9,0,0,1-6-7.34,89.11,89.11,0,0,1-5.4-22.48c-1.82-15.64.3-30.83,3.78-45.87a24.75,24.75,0,0,1,.56-2.78,3.52,3.52,0,0,0,.31-2s0,.09,0,.08C43,20.64,43.22,20.08,43.49,19.53Z" transform="translate(0 0)"/><path class="cls-36" d="M40.41,20.4a52.46,52.46,0,0,1,14.82-9.06c.27,1.12.42,2.22.81,3.44a22.1,22.1,0,0,1,.8,5.12c.21,2.89.19,5.82.18,8.75,0,9.46,0,18.92.06,28.38s0,18.92-.26,28.37c-.1,3.88.11,7.87-.2,11.8a24.73,24.73,0,0,1-2.46,9.7,51.22,51.22,0,0,1-7.72-6.56,48.13,48.13,0,0,1-5.92-7.56,80,80,0,0,1-5.65-21.73c-1.9-15.19.31-29.89,4-44.44.23-.91.33-2,.57-2.69a3.85,3.85,0,0,0,.21-2s0,.11,0,.1C39.88,21.46,40.12,20.92,40.41,20.4Z" transform="translate(0 0)"/><path class="cls-37" d="M37.33,21.26a53.84,53.84,0,0,1,14.89-9.62c.32,1.11.55,2.22.89,3.41a24.56,24.56,0,0,1,.79,5c.22,2.85.2,5.73.19,8.62,0,9.32,0,18.64.07,28s0,18.64-.27,27.95c-.11,3.82.11,7.75-.2,11.62a23.89,23.89,0,0,1-2.52,9.54,50.17,50.17,0,0,1-7.75-6.73,47.49,47.49,0,0,1-5.88-7.78,71.86,71.86,0,0,1-5.9-21c-2-14.73.33-28.95,4.12-43,.24-.87.38-1.85.57-2.61a4.29,4.29,0,0,0,.11-2s0,.12,0,.11C36.74,22.28,37,21.77,37.33,21.26Z" transform="translate(0 0)"/><path class="cls-38" d="M34.26,22.13a56,56,0,0,1,7.07-5.71,55.13,55.13,0,0,1,7.9-4.47c.38,1.11.67,2.22,1,3.38a28,28,0,0,1,.78,5c.23,2.8.2,5.64.19,8.49,0,9.18,0,18.36.07,27.54s0,18.36-.28,27.53c-.11,3.75.12,7.63-.21,11.45a23.08,23.08,0,0,1-2.59,9.37,49.24,49.24,0,0,1-7.77-6.91,47,47,0,0,1-5.84-8,64.62,64.62,0,0,1-6.14-20.22c-2.06-14.27.34-28,4.3-41.59.24-.84.43-1.73.58-2.52a4.9,4.9,0,0,0,0-2l0,.13C33.6,23.1,33.92,22.61,34.26,22.13Z" transform="translate(0 0)"/><path class="cls-39" d="M45.15,103.57a48.41,48.41,0,0,1-7.8-7.08,46.53,46.53,0,0,1-5.8-8.23A58.17,58.17,0,0,1,25.17,68.8C23,55,25.53,41.72,29.64,28.63a8.24,8.24,0,0,0,.49-4.4l0,.14L31.18,23a57.59,57.59,0,0,1,7.08-6,56.32,56.32,0,0,1,8-4.76c2.13,5.36,2.05,11,2,16.61,0,9,0,18.08.07,27.12s0,18.08-.3,27.11C47.81,89.89,48.81,97.13,45.15,103.57Z" transform="translate(0 0)"/><path class="cls-38" d="M34.33,22.71a56.33,56.33,0,0,1,7-5.77,55.16,55.16,0,0,1,7.81-4.57,23.68,23.68,0,0,1,1.35,4.26c.14.94.25,1.9.39,2.89a42.69,42.69,0,0,1,.34,5.55c0,1.35,0,2.71,0,4.07,0,9.18,0,18.37.07,27.55S51.25,75,51,84.07c-.09,2.91,0,5.89-.06,8.86,0,1.25-.14,2.5-.27,3.72a19.34,19.34,0,0,1-2.55,8.06,48.19,48.19,0,0,1-7.74-6.93,46.1,46.1,0,0,1-5.79-8.06c-.36-.8-.75-1.62-1.12-2.45a69.38,69.38,0,0,1-5-18.17c-1.82-12.44-.13-24.45,3.09-36.3.4-1.46.81-2.93,1.25-4.39A9.06,9.06,0,0,0,33.26,24l0,.13Z" transform="translate(0 0)"/><path class="cls-37" d="M37.46,22.32a55.1,55.1,0,0,1,6.84-5.55A54,54,0,0,1,52,12.39a22.31,22.31,0,0,1,1.45,4.28c.08.92.15,1.88.32,2.89a35.56,35.56,0,0,1,.37,5.63c0,1.38,0,2.76,0,4.14,0,9.33,0,18.66.07,28s0,18.44-.28,27.64c-.09,2.94,0,6-.06,9,0,1.26-.15,2.53-.25,3.76a17.69,17.69,0,0,1-2.58,8.1A48,48,0,0,1,43.33,99a45.68,45.68,0,0,1-5.78-7.9c-.3-.84-.69-1.71-1-2.59a80.1,80.1,0,0,1-4.88-19.19c-1.73-12.59-.13-24.75,3-36.77.39-1.48.78-3,1.2-4.45a10,10,0,0,0,.55-4.5l0,.12Q36.89,23,37.46,22.32Z" transform="translate(0 0)"/><path class="cls-36" d="M40.6,22a53.89,53.89,0,0,1,6.72-5.33,52.85,52.85,0,0,1,7.52-4.19,21.12,21.12,0,0,1,1.54,4.3,16.37,16.37,0,0,0,.26,2.89,30.8,30.8,0,0,1,.4,5.71c0,1.4,0,2.8,0,4.2,0,9.47,0,18.94.07,28.42,0,9.31,0,18.61-.27,27.91-.08,3,0,6-.06,9,0,1.27-.16,2.56-.24,3.8a16.34,16.34,0,0,1-2.6,8.14,47.76,47.76,0,0,1-7.62-6.62,45.26,45.26,0,0,1-5.77-7.74c-.25-.88-.62-1.81-1-2.74a92.23,92.23,0,0,1-4.73-20.2c-1.65-12.74-.12-25.05,2.91-37.23.38-1.5.74-3,1.16-4.51a11.18,11.18,0,0,0,.58-4.55s0,.12,0,.12Q40,22.69,40.6,22Z" transform="translate(0 0)"/><path class="cls-35" d="M43.74,21.64a52.71,52.71,0,0,1,6.6-5.1,51.71,51.71,0,0,1,7.37-4,20.07,20.07,0,0,1,1.63,4.32,10.64,10.64,0,0,0,.19,2.89A27.4,27.4,0,0,1,60,25.54c0,1.42,0,2.84,0,4.27,0,9.61,0,19.23.07,28.85,0,9.4,0,18.79-.26,28.18-.08,3,0,6.07-.06,9.13,0,1.28-.17,2.59-.22,3.84A15.21,15.21,0,0,1,56.86,108a47.56,47.56,0,0,1-7.56-6.47,44.85,44.85,0,0,1-5.76-7.58,24.54,24.54,0,0,0-.89-2.88,105.94,105.94,0,0,1-4.58-21.22C36.49,57,38,44.48,40.89,32.14c.36-1.52.71-3,1.11-4.57a12.57,12.57,0,0,0,.61-4.6s0,.11,0,.11Q43.15,22.35,43.74,21.64Z" transform="translate(0 0)"/><path class="cls-34" d="M46.88,21.3a51.55,51.55,0,0,1,6.48-4.88,50.59,50.59,0,0,1,7.22-3.81A19.15,19.15,0,0,1,62.3,17a7.84,7.84,0,0,0,.12,2.9,24.86,24.86,0,0,1,.46,5.86c0,1.44,0,2.88,0,4.33,0,9.76,0,19.52.06,29.28,0,9.49,0,19-.25,28.45-.08,3,0,6.13-.06,9.21,0,1.3-.18,2.62-.21,3.87a14.25,14.25,0,0,1-2.66,8.23,47.38,47.38,0,0,1-7.5-6.32,44.45,44.45,0,0,1-5.75-7.41,19.24,19.24,0,0,0-.81-3A121.39,121.39,0,0,1,41.29,70.1c-1.5-13-.11-25.66,2.74-38.16.35-1.53.68-3.09,1.07-4.63a14.29,14.29,0,0,0,.64-4.64s0,.11,0,.1Q46.28,22,46.88,21.3Z" transform="translate(0 0)"/><path class="cls-33" d="M50,21a50.43,50.43,0,0,1,6.36-4.66,49.47,49.47,0,0,1,7.07-3.62A18.33,18.33,0,0,1,65.27,17a6.19,6.19,0,0,0,.05,2.9,22.89,22.89,0,0,1,.5,5.94c0,1.46,0,2.93,0,4.39,0,9.9,0,19.81.06,29.71,0,9.58,0,19.15-.24,28.72-.07,3.06,0,6.19-.05,9.3,0,1.31-.19,2.65-.19,3.91a13.42,13.42,0,0,1-2.68,8.27A47.2,47.2,0,0,1,55.27,104a44,44,0,0,1-5.74-7.25,16.24,16.24,0,0,0-.73-3.17,138.81,138.81,0,0,1-4.28-23.25c-1.43-13.18-.11-26,2.65-38.63.34-1.55.65-3.13,1-4.69a16.44,16.44,0,0,0,.67-4.69s0,.1,0,.09Q49.41,21.69,50,21Z" transform="translate(0 0)"/><path class="cls-32" d="M53.17,20.62a49.34,49.34,0,0,1,6.24-4.44,48.38,48.38,0,0,1,6.92-3.43,17.61,17.61,0,0,1,1.91,4.39,5.11,5.11,0,0,0,0,2.9,21.33,21.33,0,0,1,.53,6c0,1.48,0,3,0,4.46,0,10,0,20.1.06,30.14,0,9.67,0,19.33-.23,29-.07,3.09,0,6.25-.05,9.39,0,1.32-.2,2.68-.18,3.95a12.71,12.71,0,0,1-2.71,8.31,47,47,0,0,1-7.38-6,43.65,43.65,0,0,1-5.73-7.09,14.34,14.34,0,0,0-.66-3.31,158.43,158.43,0,0,1-4.13-24.26c-1.36-13.32-.1-26.26,2.56-39.09.33-1.57.61-3.17,1-4.76A19.24,19.24,0,0,0,52,22s0,.09,0,.08C52.36,21.6,52.75,21.11,53.17,20.62Z" transform="translate(0 0)"/><path class="cls-31" d="M56.32,20.28a48.29,48.29,0,0,1,6.11-4.22,47.29,47.29,0,0,1,6.77-3.24,17,17,0,0,1,2,4.41,4.36,4.36,0,0,0-.08,2.9,20.06,20.06,0,0,1,.56,6.1c0,1.5,0,3,0,4.52,0,10.19,0,20.38.06,30.57,0,9.76,0,19.51-.23,29.26-.07,3.12,0,6.3-.05,9.47,0,1.34-.21,2.72-.16,4a12.08,12.08,0,0,1-2.73,8.35,46.9,46.9,0,0,1-7.33-5.86,43.26,43.26,0,0,1-5.72-6.93A13.07,13.07,0,0,0,55,96.15a180.53,180.53,0,0,1-4-25.27c-1.29-13.47-.1-26.57,2.48-39.56.32-1.59.58-3.21.93-4.82a23,23,0,0,0,.73-4.79s0,.08,0,.07C55.49,21.27,55.89,20.77,56.32,20.28Z" transform="translate(0 0)"/><path class="cls-30" d="M59.46,19.94a47.29,47.29,0,0,1,6-4,46.22,46.22,0,0,1,6.62-3.06,16.39,16.39,0,0,1,2.1,4.43,3.81,3.81,0,0,0-.15,2.9,19,19,0,0,1,.59,6.18c0,1.53,0,3.05,0,4.58,0,10.33,0,20.67.06,31,0,9.84,0,19.69-.22,29.53-.07,3.15,0,6.36,0,9.56,0,1.35-.22,2.75-.15,4a11.54,11.54,0,0,1-2.76,8.4,46.77,46.77,0,0,1-7.27-5.71A42.88,42.88,0,0,1,58.53,101a12.17,12.17,0,0,0-.5-3.6A205.43,205.43,0,0,1,54.2,71.14a144.37,144.37,0,0,1,2.39-40c.31-1.6.55-3.24.89-4.88a28.3,28.3,0,0,0,.76-4.84s0,.08,0,.06C58.62,20.94,59,20.44,59.46,19.94Z" transform="translate(0 0)"/><path class="cls-29" d="M62.61,19.6a46.34,46.34,0,0,1,5.87-3.77A45.18,45.18,0,0,1,74.95,13a15.88,15.88,0,0,1,2.2,4.46,3.39,3.39,0,0,0-.22,2.9c.75,2,.6,4.16.62,6.26,0,1.55,0,3.1,0,4.65,0,10.48,0,21,.06,31.44,0,9.93,0,19.87-.21,29.79-.06,3.18,0,6.42,0,9.65,0,1.36-.23,2.78-.13,4.06a11,11,0,0,1-2.79,8.44,46.65,46.65,0,0,1-7.21-5.55,42.5,42.5,0,0,1-5.7-6.6,11.53,11.53,0,0,0-.42-3.75,233.52,233.52,0,0,1-3.67-27.3,154.05,154.05,0,0,1,2.3-40.49c.29-1.62.52-3.28.84-4.94a36.37,36.37,0,0,0,.78-4.89s0,.07,0,.05A19.41,19.41,0,0,1,62.61,19.6Z" transform="translate(0 0)"/><path class="cls-28" d="M65.76,19.26a45.44,45.44,0,0,1,5.75-3.55A44.15,44.15,0,0,1,77.83,13a15.42,15.42,0,0,1,2.29,4.48,3.07,3.07,0,0,0-.29,2.9c.8,2,.63,4.21.65,6.34,0,1.57,0,3.14,0,4.71,0,10.62,0,21.25.06,31.87,0,10,0,20-.2,30.06-.06,3.21,0,6.48,0,9.73a39,39,0,0,0-.12,4.1,10.62,10.62,0,0,1-2.81,8.48,46.55,46.55,0,0,1-7.15-5.4,42.13,42.13,0,0,1-5.69-6.44,11.06,11.06,0,0,0-.35-3.89,265.22,265.22,0,0,1-3.52-28.32,164.57,164.57,0,0,1,2.22-41c.28-1.64.48-3.32.8-5a50.09,50.09,0,0,0,.81-4.94s0,.06,0,0A18.06,18.06,0,0,1,65.76,19.26Z" transform="translate(0 0)"/><path class="cls-27" d="M68.9,18.92a44.61,44.61,0,0,1,5.63-3.33,43.14,43.14,0,0,1,6.17-2.49,15,15,0,0,1,2.38,4.5,2.82,2.82,0,0,0-.35,2.9c.85,2.07.66,4.26.68,6.42,0,1.59,0,3.18,0,4.78,0,10.77,0,21.53.05,32.3,0,10.11,0,20.22-.19,30.33-.06,3.24,0,6.54,0,9.82a34.46,34.46,0,0,0-.1,4.13,10.23,10.23,0,0,1-2.84,8.52,46.47,46.47,0,0,1-7.09-5.25,41.77,41.77,0,0,1-5.68-6.28,10.72,10.72,0,0,0-.27-4C65.61,91.78,64.64,82,63.89,71.92A176,176,0,0,1,66,30.5c.27-1.66.45-3.36.75-5.06s.66-3.34.84-5c0,0,0,.05,0,0A17,17,0,0,1,68.9,18.92Z" transform="translate(0 0)"/><path class="cls-26" d="M72,18.58a43.86,43.86,0,0,1,5.51-3.11,42.16,42.16,0,0,1,6-2.3,14.64,14.64,0,0,1,2.48,4.52,2.61,2.61,0,0,0-.42,2.9c.9,2.09.7,4.31.71,6.5,0,1.61,0,3.23,0,4.84,0,10.91,0,21.82.05,32.73,0,10.2,0,20.4-.18,30.6-.06,3.27,0,6.6,0,9.91a31,31,0,0,0-.09,4.17,9.88,9.88,0,0,1-2.86,8.56,46.41,46.41,0,0,1-7-5.1,41.42,41.42,0,0,1-5.67-6.12,10.47,10.47,0,0,0-.19-4.18c-1.58-9.82-2.49-20-3.22-30.35a188.59,188.59,0,0,1,2-41.88c.26-1.67.42-3.4.71-5.12s.64-3.38.87-5c0,0,0,0,0,0A16,16,0,0,1,72,18.58Z" transform="translate(0 0)"/><path class="cls-25" d="M75.2,18.24a43.19,43.19,0,0,1,5.39-2.89,41.2,41.2,0,0,1,5.87-2.11A14.31,14.31,0,0,1,89,17.79a2.45,2.45,0,0,0-.49,2.9c1,2.12.73,4.37.74,6.58,0,1.63,0,3.27,0,4.9,0,11.05,0,22.11.05,33.16,0,10.29,0,20.58-.17,30.87-.05,3.3,0,6.65,0,10a28.3,28.3,0,0,0-.07,4.21A9.56,9.56,0,0,1,86.16,119a46.36,46.36,0,0,1-7-4.94,41.07,41.07,0,0,1-5.66-6,10.29,10.29,0,0,0-.11-4.32c-1.51-10.17-2.37-20.65-3.07-31.36a202.37,202.37,0,0,1,2-42.35c.25-1.69.39-3.44.66-5.18s.63-3.42.9-5.09c0,0,0,0,0,0A15.21,15.21,0,0,1,75.2,18.24Z" transform="translate(0 0)"/><path class="cls-24" d="M78.34,17.9a42.63,42.63,0,0,1,5.27-2.66,40.27,40.27,0,0,1,5.72-1.92A14,14,0,0,1,92,17.88a2.32,2.32,0,0,0-.56,2.9c1,2.14.76,4.42.78,6.66,0,1.65,0,3.31,0,5,0,11.2,0,22.4,0,33.6,0,10.38,0,20.76-.16,31.14-.05,3.33,0,6.71,0,10.08a26.12,26.12,0,0,0-.06,4.25,9.28,9.28,0,0,1-2.92,8.65,46.34,46.34,0,0,1-6.91-4.79,40.73,40.73,0,0,1-5.65-5.79,10.16,10.16,0,0,0,0-4.46c-1.43-10.52-2.24-21.34-2.92-32.38a217.57,217.57,0,0,1,1.87-42.81c.24-1.71.35-3.48.62-5.24s.61-3.46.93-5.14c0,0,0,0,0,0A14.51,14.51,0,0,1,78.34,17.9Z" transform="translate(0 0)"/><path class="cls-23" d="M81.49,17.57a42.2,42.2,0,0,1,5.15-2.44,39.38,39.38,0,0,1,5.57-1.73A13.75,13.75,0,0,1,95,18a2.21,2.21,0,0,0-.63,2.9c1.05,2.16.79,4.47.81,6.74,0,1.68,0,3.35,0,5,0,11.34,0,22.69,0,34,0,10.47,0,20.94-.16,31.41,0,3.37,0,6.77,0,10.17a24.34,24.34,0,0,0,0,4.28A9,9,0,0,1,92,121.23a46.34,46.34,0,0,1-6.86-4.64A40.39,40.39,0,0,1,79.54,111a10.09,10.09,0,0,0,0-4.61c-1.36-10.88-2.12-22-2.77-33.39a234.4,234.4,0,0,1,1.78-43.28c.23-1.72.32-3.52.57-5.3s.6-3.5,1-5.19c0,0,0,0,0,0A13.91,13.91,0,0,1,81.49,17.57Z" transform="translate(0 0)"/><path class="cls-22" d="M84.64,17.23a41.91,41.91,0,0,1,5-2.22,38.52,38.52,0,0,1,5.42-1.54,13.51,13.51,0,0,1,2.85,4.61,2.12,2.12,0,0,0-.69,2.9c1.1,2.18.82,4.52.84,6.82,0,1.7,0,3.4,0,5.1,0,11.49,0,23,0,34.46,0,10.56,0,21.12-.15,31.68,0,3.4,0,6.83,0,10.26a22.85,22.85,0,0,0,0,4.32,8.78,8.78,0,0,1-3,8.73,46.37,46.37,0,0,1-6.8-4.49,40.07,40.07,0,0,1-5.63-5.47,10,10,0,0,0,.12-4.75C81.38,96.4,80.66,84.9,80,73.22a253.14,253.14,0,0,1,1.69-43.74c.21-1.74.29-3.56.53-5.36a52.11,52.11,0,0,1,1-5.24s0,0,0,0A13.38,13.38,0,0,1,84.64,17.23Z" transform="translate(0 0)"/><path class="cls-22" d="M87.76,16.89a41.8,41.8,0,0,1,4.9-2,37.7,37.7,0,0,1,5.27-1.36,13.29,13.29,0,0,1,2.95,4.63,2,2,0,0,0-.76,2.9c1.15,2.21.86,4.57.87,6.9,0,1.72,0,3.44,0,5.16,0,11.63,0,23.26,0,34.89,0,10.65,0,21.3-.14,31.94,0,3.43,0,6.89,0,10.34a21.59,21.59,0,0,0,0,4.36,8.57,8.57,0,0,1-3,8.77,46.42,46.42,0,0,1-6.74-4.34,39.75,39.75,0,0,1-5.62-5.31,10,10,0,0,0,.2-4.9c-1.21-11.58-1.88-23.41-2.47-35.42a274.12,274.12,0,0,1,1.61-44.21c.2-1.76.26-3.6.48-5.42a40.32,40.32,0,0,1,1-5.29s0,0,0,0A12.92,12.92,0,0,1,87.76,16.89Z" transform="translate(0 0)"/><path class="cls-21" d="M90.88,16.55a41.92,41.92,0,0,1,4.78-1.78,36.92,36.92,0,0,1,5.12-1.17,13.09,13.09,0,0,1,3,4.65,2,2,0,0,0-.83,2.91c1.2,2.23.89,4.63.9,7,0,1.74,0,3.48,0,5.22,0,11.77,0,23.55,0,35.32,0,10.74,0,21.48-.13,32.21,0,3.46,0,6.95,0,10.43a20.51,20.51,0,0,0,0,4.39,8.37,8.37,0,0,1-3,8.82,46.49,46.49,0,0,1-6.68-4.18,39.44,39.44,0,0,1-5.61-5.15c.68-1.56.45-3.29.28-5C87.63,98.24,87,86.08,86.45,73.74A297.76,297.76,0,0,1,88,29.06c.19-1.78.22-3.64.44-5.49a33.14,33.14,0,0,1,1-5.34s0,0,0,0A12.5,12.5,0,0,1,90.88,16.55Z" transform="translate(0 0)"/><path class="cls-20" d="M94,16.21a42.32,42.32,0,0,1,4.66-1.55,36.19,36.19,0,0,1,5-1,12.92,12.92,0,0,1,3.13,4.67,1.93,1.93,0,0,0-.9,2.91c1.25,2.25.92,4.68.93,7.06,0,1.76,0,3.52,0,5.29,0,11.92,0,23.84,0,35.76,0,10.83,0,21.66-.12,32.48,0,3.49,0,7,0,10.52a19.58,19.58,0,0,0,0,4.43c.88,3.72-.25,6.5-3,8.86a46.59,46.59,0,0,1-6.62-4,39.14,39.14,0,0,1-5.6-5c.74-1.6.51-3.39.36-5.18C90.76,99.16,90.18,86.66,89.66,74a324.58,324.58,0,0,1,1.43-45.14c.18-1.79.19-3.68.39-5.55a28.32,28.32,0,0,1,1.08-5.39s0,0,.05,0A12.13,12.13,0,0,1,94,16.21Z" transform="translate(0 0)"/><path class="cls-19" d="M97.12,15.87a43.07,43.07,0,0,1,4.54-1.33,35.51,35.51,0,0,1,4.82-.79,12.76,12.76,0,0,1,3.23,4.69,1.89,1.89,0,0,0-1,2.91c1.3,2.28,1,4.73,1,7.14,0,1.78,0,3.57,0,5.35,0,12.06,0,24.12,0,36.19,0,10.92,0,21.84-.11,32.75,0,3.52,0,7.06,0,10.61a18.76,18.76,0,0,0,0,4.47c1,3.77-.21,6.55-3.07,8.9a46.72,46.72,0,0,1-6.56-3.88A38.84,38.84,0,0,1,94.44,118c.8-1.64.58-3.48.43-5.33-1-12.64-1.52-25.48-2-38.46a355.25,355.25,0,0,1,1.35-45.6c.17-1.81.16-3.72.34-5.61a24.85,24.85,0,0,1,1.11-5.44s0,0,.06,0A11.8,11.8,0,0,1,97.12,15.87Z" transform="translate(0 0)"/><path class="cls-18" d="M100.24,15.53a44.3,44.3,0,0,1,4.42-1.11,34.89,34.89,0,0,1,4.67-.6,12.62,12.62,0,0,1,3.32,4.72c-1.09.5-1.91,1.41-1,2.91,1.35,2.3,1,4.78,1,7.22,0,1.8,0,3.61,0,5.41,0,12.21,0,24.41,0,36.62,0,11,0,22-.1,33,0,3.55,0,7.12,0,10.69a18,18,0,0,0,0,4.51c1,3.82-.17,6.61-3.1,8.94a46.89,46.89,0,0,1-6.5-3.73,38.55,38.55,0,0,1-5.58-4.66c.85-1.68.65-3.57.51-5.47-.91-13-1.4-26.16-1.86-39.48a390.65,390.65,0,0,1,1.26-46.07c.16-1.83.13-3.76.3-5.67a22.25,22.25,0,0,1,1.14-5.49s0,0,.06-.06A11.5,11.5,0,0,1,100.24,15.53Z" transform="translate(0 0)"/><path class="cls-17" d="M103.36,15.19c1.38-.35,2.82-.66,4.3-.89a34.32,34.32,0,0,1,4.52-.41,12.49,12.49,0,0,1,3.42,4.74c-1.14.48-2,1.39-1.1,2.91,1.4,2.33,1,4.84,1,7.3,0,1.82,0,3.65,0,5.48q0,18.52,0,37.05c0,11.1,0,22.19-.09,33.29,0,3.58,0,7.18,0,10.78,0,1.52-.32,3.19.06,4.54,1.09,3.86-.13,6.66-3.13,9a47.08,47.08,0,0,1-6.44-3.57,38.27,38.27,0,0,1-5.57-4.5c.91-1.73.71-3.66.59-5.61-.83-13.34-1.29-26.85-1.71-40.49a431.93,431.93,0,0,1,1.17-46.54c.15-1.85.09-3.8.25-5.73A20.22,20.22,0,0,1,101.85,17s0,0,.06-.07A11.23,11.23,0,0,1,103.36,15.19Z" transform="translate(0 0)"/><path class="cls-16" d="M106.48,14.85c1.34-.27,2.74-.51,4.18-.67A33.83,33.83,0,0,1,115,14a12.38,12.38,0,0,1,3.51,4.76c-1.2.46-2.12,1.37-1.17,2.91,1.45,2.35,1,4.89,1.06,7.37q0,2.77,0,5.54,0,18.74,0,37.48,0,16.78-.09,33.56c0,3.61,0,7.24,0,10.87,0,1.54-.32,3.22.08,4.58,1.16,3.91-.09,6.71-3.15,9a47.31,47.31,0,0,1-6.38-3.42,38,38,0,0,1-5.56-4.34c1-1.77.78-3.76.67-5.76-.76-13.69-1.17-27.54-1.56-41.51-.44-15.77,0-31.41,1.08-47,.13-1.86.06-3.84.21-5.79a18.6,18.6,0,0,1,1.2-5.59s0,0,.07-.07A11,11,0,0,1,106.48,14.85Z" transform="translate(0 0)"/><path class="cls-15" d="M109.6,14.54c1.3-.19,2.67-.35,4.06-.44a33.4,33.4,0,0,1,4.22,0,12.28,12.28,0,0,1,3.6,4.78c-1.26.44-2.22,1.35-1.24,2.91,1.5,2.37,1.08,4.94,1.09,7.45q0,2.8,0,5.61,0,19,0,37.91,0,16.91-.08,33.82c0,3.64,0,7.3,0,11,0,1.55-.33,3.25.09,4.62,1.23,4,0,6.76-3.18,9.07a47.57,47.57,0,0,1-6.33-3.27,37.74,37.74,0,0,1-5.55-4.17c1-1.81.85-3.85.74-5.9-.68-14-1.06-28.23-1.41-42.52-.39-15.92,0-31.71,1-47.47.12-1.88,0-3.88.16-5.85a17.28,17.28,0,0,1,1.23-5.64s0,0,.07-.08A10.75,10.75,0,0,1,109.6,14.54Z" transform="translate(0 0)"/><path class="cls-14" d="M112.72,14.25c1.27-.11,2.59-.2,3.94-.22a33,33,0,0,1,4.08.16,12.19,12.19,0,0,1,3.7,4.8c-1.32.42-2.33,1.32-1.3,2.91,1.55,2.4,1.11,5,1.12,7.53q0,2.83,0,5.67,0,19.17,0,38.35,0,17-.07,34.09c0,3.67,0,7.36,0,11,0,1.56-.34,3.28.11,4.65,1.29,4,0,6.82-3.2,9.11a47.87,47.87,0,0,1-6.27-3.12,37.48,37.48,0,0,1-5.54-4c1.09-1.85.91-3.94.82-6-.61-14.4-.94-28.92-1.26-43.54-.35-16.06,0-32,.91-47.93.11-1.9,0-3.92.12-5.91a16.18,16.18,0,0,1,1.25-5.69l.07-.09A10.55,10.55,0,0,1,112.72,14.25Z" transform="translate(0 0)"/><path class="cls-13" d="M115.84,14c1.23,0,2.51,0,3.82,0a32.74,32.74,0,0,1,3.93.34,12.11,12.11,0,0,1,3.79,4.83c-1.38.39-2.43,1.3-1.37,2.91,1.59,2.42,1.14,5,1.15,7.61q0,2.87,0,5.73,0,19.39,0,38.78,0,17.18-.06,34.36c0,3.7,0,7.42,0,11.13,0,1.58-.34,3.31.12,4.69,1.36,4.05,0,6.87-3.23,9.15a48.21,48.21,0,0,1-6.21-3,37.22,37.22,0,0,1-5.53-3.85c1.14-1.89,1-4,.9-6.19-.53-14.75-.83-29.61-1.11-44.55-.3-16.21,0-32.32.82-48.4.1-1.92,0-4,.07-6a15.25,15.25,0,0,1,1.28-5.74l.08-.1A10.36,10.36,0,0,1,115.84,14Z" transform="translate(0 0)"/><path class="cls-12" d="M119,13.87c1.2.05,2.44.11,3.7.22a32.52,32.52,0,0,1,3.78.53,12,12,0,0,1,3.89,4.85c-1.44.37-2.54,1.28-1.44,2.91,1.64,2.45,1.17,5.1,1.18,7.69q0,2.9,0,5.8,0,19.6,0,39.21,0,17.32-.05,34.63c0,3.73,0,7.47,0,11.22,0,1.59-.35,3.34.14,4.73,1.43,4.1.08,6.92-3.26,9.2a48.58,48.58,0,0,1-6.15-2.81,37,37,0,0,1-5.52-3.69c1.2-1.94,1-4.13,1-6.33-.46-15.1-.71-30.3-1-45.57q-.39-24.52.74-48.86c.09-1.93-.07-4,0-6a14.46,14.46,0,0,1,1.31-5.79l.08-.11A10.19,10.19,0,0,1,119,13.87Z" transform="translate(0 0)"/><path class="cls-11" d="M122.17,13.73c1.16.13,2.36.26,3.57.44a32.34,32.34,0,0,1,3.63.72,12,12,0,0,1,4,4.87c-1.49.35-2.64,1.26-1.51,2.91,1.69,2.47,1.2,5.15,1.21,7.77q0,2.93,0,5.86,0,19.82,0,39.64,0,17.45,0,34.9c0,3.76,0,7.53,0,11.3,0,1.6-.35,3.37.15,4.77,1.51,4.15.12,7-3.28,9.24a49,49,0,0,1-6.09-2.66,36.74,36.74,0,0,1-5.51-3.53c1.26-2,1.11-4.22,1.06-6.48-.38-15.46-.6-31-.8-46.58q-.32-24.74.65-49.33c.08-2-.1-4,0-6.09a13.78,13.78,0,0,1,1.34-5.84l.09-.12A10,10,0,0,1,122.17,13.73Z" transform="translate(0 0)"/><path class="cls-10" d="M125.41,13.6c1.12.21,2.29.42,3.45.66a32.21,32.21,0,0,1,3.48.91,11.93,11.93,0,0,1,4.07,4.89c-1.55.33-2.74,1.24-1.57,2.91,1.74,2.49,1.24,5.2,1.24,7.85q0,3,0,5.93,0,20,0,40.07,0,17.58,0,35.17c0,3.79,0,7.59,0,11.39,0,1.61-.36,3.41.17,4.8,1.58,4.19.16,7-3.31,9.28a49.44,49.44,0,0,1-6-2.51,36.5,36.5,0,0,1-5.5-3.36c1.32-2,1.18-4.31,1.13-6.62-.31-15.81-.49-31.68-.65-47.6q-.25-25,.56-49.79c.07-2-.13-4.08-.06-6.15a13.18,13.18,0,0,1,1.37-5.89l.09-.13A9.88,9.88,0,0,1,125.41,13.6Z" transform="translate(0 0)"/><path class="cls-9" d="M128.65,13.47c1.09.29,2.21.57,3.33.89a32.1,32.1,0,0,1,3.33,1.1,11.89,11.89,0,0,1,4.17,4.91c-1.61.31-2.85,1.22-1.64,2.91,1.79,2.52,1.27,5.25,1.27,7.93q0,3,0,6,0,20.25,0,40.5,0,17.72,0,35.44c0,3.82,0,7.65,0,11.48,0,1.63-.36,3.44.18,4.84,1.65,4.24.2,7.08-3.33,9.32a49.93,49.93,0,0,1-6-2.35,36.27,36.27,0,0,1-5.49-3.2c1.38-2.06,1.25-4.41,1.21-6.76q-.35-24.24-.5-48.61-.19-25.18.48-50.26c.05-2-.17-4.12-.11-6.21a12.66,12.66,0,0,1,1.4-5.94l.09-.14A9.75,9.75,0,0,1,128.65,13.47Z" transform="translate(0 0)"/><path class="cls-8" d="M131.89,13.33c1,.37,2.13.73,3.21,1.11a32,32,0,0,1,3.18,1.29,11.85,11.85,0,0,1,4.26,4.93c-1.67.29-3,1.2-1.71,2.92,1.83,2.55,1.3,5.31,1.3,8q0,3,0,6.05,0,20.47,0,40.94,0,17.85,0,35.71c0,3.85,0,7.71,0,11.56,0,1.64-.37,3.47.2,4.88,1.72,4.28.24,7.13-3.36,9.36a50.44,50.44,0,0,1-5.91-2.2,36,36,0,0,1-5.48-3c1.43-2.1,1.31-4.5,1.29-6.91q-.24-24.77-.35-49.63-.17-25.39.39-50.72c0-2-.2-4.15-.15-6.28a12.2,12.2,0,0,1,1.43-6l.1-.15A9.62,9.62,0,0,1,131.89,13.33Z" transform="translate(0 0)"/><path class="cls-7" d="M135.13,13.2c1,.45,2.06.88,3.09,1.33a31.82,31.82,0,0,1,3,1.48,11.82,11.82,0,0,1,4.36,5c-1.73.27-3.06,1.17-1.78,2.92,1.88,2.57,1.33,5.36,1.34,8.09q0,3.06,0,6.12,0,20.68,0,41.37,0,18,0,36,0,5.82,0,11.65c0,1.65-.37,3.5.21,4.92,1.8,4.33.28,7.19-3.39,9.41a51,51,0,0,1-5.85-2,35.81,35.81,0,0,1-5.47-2.88c1.49-2.15,1.38-4.59,1.37-7.05q-.12-25.3-.2-50.64-.08-25.61.3-51.19c0-2-.23-4.19-.2-6.34a11.79,11.79,0,0,1,1.46-6l.1-.16A9.51,9.51,0,0,1,135.13,13.2Z" transform="translate(0 0)"/><path class="cls-6" d="M148.67,21.26c-1.79.25-3.16,1.15-1.85,2.92,1.93,2.59,1.36,5.41,1.37,8.17q0,24,0,48t0,48c0,1.66-.38,3.53.23,5,1.86,4.37.32,7.24-3.41,9.45a51.55,51.55,0,0,1-5.8-1.9,35.58,35.58,0,0,1-5.46-2.72c1.55-2.19,1.45-4.69,1.44-7.2q0-25.83,0-51.66t.21-51.65c0-4.79-1.58-10.45,3-14.53,2,1.07,4,2,5.85,3.22A11.8,11.8,0,0,1,148.67,21.26Z" transform="translate(0 0)"/><path class="cls-7" d="M135.33,12.09c4,1.9,8.34,3.55,10.58,7.72-1.63.34-2.81,1.3-1.64,3a5.87,5.87,0,0,1,.9,2.4,35.87,35.87,0,0,1,.15,5.62q.05,48.12,0,96.23c0,1.67-.36,3.52.21,5,1.7,4.34.3,7.28-3.15,9.62A44.61,44.61,0,0,1,130.86,137c1.46-2.21,1.48-4.67,1.54-7.17,0-1,0-2,0-3,0-33.42-.15-66.83.15-100.24,0-.39,0-.78,0-1.18C132.42,20.94,131.25,15.9,135.33,12.09Z" transform="translate(0 0)"/><path class="cls-8" d="M132.28,11.11c4.06,1.67,8.42,3.38,10.87,7.23-1.48.44-2.46,1.46-1.44,3.15a5,5,0,0,1,.64,2.32c.12,1.63.09,3.68.1,5.55q0,48.25,0,96.5c0,1.67-.33,3.52.19,5,1.54,4.31.27,7.32-2.89,9.79A47.43,47.43,0,0,1,127.94,136c1.37-2.23,1.51-4.65,1.63-7.14,0-1,.07-2,.07-3-.06-33.38-.15-66.77.12-100.15,0-.39,0-.78,0-1.18C129.61,20,128.3,15,132.28,11.11Z" transform="translate(0 0)"/><path class="cls-9" d="M129.21,10.13c4.13,1.43,8.5,3.21,11.15,6.75a2.12,2.12,0,0,0-1.24,3.27,4.35,4.35,0,0,1,.37,2.25c0,1.49,0,3.63,0,5.47q0,48.39,0,96.77c0,1.68-.31,3.52.17,5,1.39,4.28.25,7.36-2.62,10A50.39,50.39,0,0,1,125,134.89a16.2,16.2,0,0,0,1.72-7.12c.07-1,.11-1.95.11-3-.07-33.35-.15-66.71.1-100.06,0-.39,0-.78,0-1.18C126.79,19,125.34,14.07,129.21,10.13Z" transform="translate(0 0)"/><path class="cls-10" d="M126.06,9.15c4.21,1.2,8.58,3,11.44,6.27a2.38,2.38,0,0,0-1,3.39,2.79,2.79,0,0,1,.1,2.17c.15,1.34,0,3.57,0,5.4q0,48.52,0,97c0,1.68-.28,3.51.16,5a9.63,9.63,0,0,1-2.36,10.13,53.51,53.51,0,0,1-12.4-4.76,18.74,18.74,0,0,0,1.82-7.09c.09-1,.15-1.94.14-2.94-.09-33.32-.15-66.65.08-100,0-.39,0-.78,0-1.18C123.88,18.09,122.3,13.16,126.06,9.15Z" transform="translate(0 0)"/><path class="cls-11" d="M122.91,8.17A25.21,25.21,0,0,1,134.63,14a2.8,2.8,0,0,0-.84,3.51,2.42,2.42,0,0,1-.17,2.1c.07,1.21-.05,3.52-.05,5.32q0,48.66,0,97.31a21.27,21.27,0,0,0,.14,5,10.94,10.94,0,0,1-2.1,10.3,56.79,56.79,0,0,1-12.69-4.8,22.29,22.29,0,0,0,1.91-7.07,24.44,24.44,0,0,0,.18-2.94c-.11-33.29-.15-66.59.06-99.88,0-.39,0-.78,0-1.17C121,17.14,119.25,12.25,122.91,8.17Z" transform="translate(0 0)"/><path class="cls-12" d="M119.76,7.19a26.93,26.93,0,0,1,12,5.31c-.86.81-1,2.07-.64,3.63a2.19,2.19,0,0,1-.43,2c0,1.08-.1,3.46-.1,5.24q0,48.79,0,97.58a24.18,24.18,0,0,0,.12,5.06,12.69,12.69,0,0,1-1.84,10.47,60.24,60.24,0,0,1-13-4.84,27.55,27.55,0,0,0,2-7,20.21,20.21,0,0,0,.22-2.93q-.18-49.89,0-99.79c0-.39,0-.78,0-1.17C118.07,16.19,116.21,11.33,119.76,7.19Z" transform="translate(0 0)"/><path class="cls-12" d="M116.6,6.21A28.94,28.94,0,0,1,128.9,11c-.71.91-.7,2.23-.44,3.74a2.09,2.09,0,0,1-.7,1.95c-.09.95-.15,3.41-.15,5.17q0,48.93,0,97.85a28,28,0,0,0,.1,5.08,15.09,15.09,0,0,1-1.57,10.64,63.87,63.87,0,0,1-13.27-4.88,36.14,36.14,0,0,0,2.1-7,17.19,17.19,0,0,0,.25-2.92q-.21-49.85,0-99.7,0-.58,0-1.17C115.16,15.23,113.16,10.42,116.6,6.21Z" transform="translate(0 0)"/><path class="cls-13" d="M113.45,5.24c4.51.25,8.9,2.36,12.58,4.35-.55,1-.34,2.38-.23,3.86a2.09,2.09,0,0,1-1,1.87,41.53,41.53,0,0,0-.2,5.09q0,49.06,0,98.12a33.46,33.46,0,0,0,.09,5.1,18.55,18.55,0,0,1-1.31,10.81,67.7,67.7,0,0,1-13.55-4.92,52.58,52.58,0,0,0,2.19-7,14.94,14.94,0,0,0,.29-2.92q-.23-49.8,0-99.61,0-.58,0-1.17C112.25,14.28,110.12,9.5,113.45,5.24Z" transform="translate(0 0)"/><path class="cls-14" d="M110.3,4.26c4.58,0,9,2.19,12.86,3.87-.4,1.1,0,2.54,0,4a2.18,2.18,0,0,1-1.24,1.8,27.56,27.56,0,0,0-.25,5q0,49.2,0,98.39a41.58,41.58,0,0,0,.07,5.11,23.85,23.85,0,0,1-1,11,71.72,71.72,0,0,1-13.84-5c.72-2.39,1.74-4.53,2.28-7a13.19,13.19,0,0,0,.33-2.91q-.26-49.76,0-99.51,0-.58,0-1.17C109.35,13.33,107.07,8.59,110.3,4.26Z" transform="translate(0 0)"/><path class="cls-15" d="M107,3.29c4.66-.22,9.06,2,13.15,3.39-.25,1.19.36,2.69.17,4.1a2.36,2.36,0,0,1-1.5,1.72c-.33.56-.3,3.24-.3,4.94q0,49.33,0,98.66c0,1.71-.11,3.47.05,5.13a32.84,32.84,0,0,1-.79,11.16,76,76,0,0,1-14.13-5c.63-2.41,1.77-4.51,2.37-6.94a11.8,11.8,0,0,0,.36-2.9q-.28-49.71-.06-99.42,0-.58,0-1.17C106.34,12.39,103.93,7.68,107,3.29Z" transform="translate(0 0)"/><path class="cls-16" d="M103.77,2.33c4.73-.45,9.14,1.85,13.43,2.9-.09,1.29.71,2.84.37,4.22-.16.63-.68,1.19-1.77,1.65-.41.42-.35,3.19-.35,4.87q0,49.47,0,98.93c0,1.72-.07,3.47,0,5.15a51,51,0,0,1-.52,11.33,80.41,80.41,0,0,1-14.41-5c.54-2.44,1.81-4.5,2.47-6.91a10.67,10.67,0,0,0,.4-2.9c-.2-33.11-.15-66.22-.08-99.33q0-.58,0-1.17C103.31,11.46,100.76,6.79,103.77,2.33Z" transform="translate(0 0)"/><path class="cls-17" d="M100.5,1.38c4.81-.69,9.22,1.68,13.72,2.42.06,1.38,1.07,3,.57,4.34-.23.61-.87,1-2,1.57-.51.24-.4,3.13-.4,4.79q0,49.6,0,99.2c0,1.72,0,3.46,0,5.17a106,106,0,0,1-.26,11.5,85.11,85.11,0,0,1-14.7-5.07c.45-2.46,1.84-4.48,2.56-6.88a9.74,9.74,0,0,0,.44-2.89c-.22-33.08-.15-66.16-.1-99.24q0-.58,0-1.17C100.27,10.54,97.59,5.91,100.5,1.38Z" transform="translate(0 0)"/><path class="cls-18" d="M111.22,2.39c.31,2.15,2.72,4.72-1.53,5.95-.56.16-.45,3.08-.45,4.72q0,58.16,0,116.33a90.06,90.06,0,0,1-15-5.11c.49-3.4,3.15-5.86,3.13-9.74-.24-33.44-.15-66.88-.12-100.32,0-4.59-2.82-9.18,0-13.77C102.1-.47,106.52,2,111.22,2.39Z" transform="translate(0 0)"/><path class="cls-19" d="M106.46,128.35a83.21,83.21,0,0,1-14.53-4.91c.21-3.53,2.69-6.24,2.66-10.21-.21-33.07-.13-66.14-.11-99.2,0-4.48-2.31-9,0-13.43,4.88-1,9.37,1.1,14.11,1.51.05,2.29,2.19,5-1.59,6.51-.49,3.62-.4,9.7-.4,14.63C106.58,58.29,106.63,93.33,106.46,128.35Z" transform="translate(0 0)"/><path class="cls-20" d="M103.71,127.33a76.74,76.74,0,0,1-14.08-4.72c-.06-3.66,2.22-6.62,2.2-10.69-.18-32.7-.1-65.39-.11-98.09,0-4.36-1.8-8.73,0-13.09,4.88-1.1,9.43.69,14.22,1.08-.21,2.43,1.66,5.26-1.64,7.07C103.88,16,104,25.21,104,33.44,103.94,64.75,104,96.05,103.71,127.33Z" transform="translate(0 0)"/><path class="cls-21" d="M101,126.32a70.64,70.64,0,0,1-13.62-4.53c-.33-3.78,1.76-7,1.74-11.16C88.94,78.31,89,46,89,13.66c0-4.25-1.29-8.5,0-12.75,4.88-1.18,9.5.27,14.33.65-.47,2.57,1.13,5.54-1.7,7.63-.36,10.55-.29,22.93-.29,34.46C101.32,71.22,101.45,98.79,101,126.32Z" transform="translate(0 0)"/><path class="cls-22" d="M98.11,125.33A64.89,64.89,0,0,1,84.94,121c-.61-3.91,1.29-7.38,1.28-11.63-.11-32,0-63.91-.09-95.86,0-4.14-.78-8.28,0-12.41C91-.19,95.72.94,100.6,1.3c-.73,2.71.6,5.81-1.75,8.2-.29,14-.23,29.55-.24,44.38C98.59,77.7,98.76,101.55,98.11,125.33Z" transform="translate(0 0)"/><path class="cls-22" d="M95.26,124.35a59.48,59.48,0,0,1-12.71-4.14c-.88-4,.83-7.76.82-12.1-.08-31.58,0-63.17-.08-94.75,0-4-.27-8.05,0-12.08,4.87-1.36,9.62-.56,14.56-.21-1,2.86.08,6.08-1.81,8.76-.22,17.47-.18,36.17-.18,54.29C95.87,84.21,96.07,104.32,95.26,124.35Z" transform="translate(0 0)"/><path class="cls-23" d="M92.44,123.4a54.38,54.38,0,0,1-12.26-3.95c-1.16-4.16.36-8.14.36-12.57,0-31.21,0-62.43-.07-93.64,0-3.91.24-7.82,0-11.74C85.38.06,90.2.53,95.18.86c-1.25,3-.45,6.35-1.87,9.32-.15,20.93-.12,42.78-.13,64.21C93.17,90.74,93.41,107.12,92.44,123.4Z" transform="translate(0 0)"/><path class="cls-24" d="M89.64,122.48a49.59,49.59,0,0,1-11.8-3.76c-1.43-4.29-.11-8.52-.11-13,0-30.84,0-61.68-.06-92.53,0-3.8.75-7.6.05-11.4C82.59.23,87.48.37,92.5.69c-1.51,3.14-1,6.62-1.92,9.88C90.5,35,90.51,60,90.5,84.69,90.5,97.31,90.78,109.95,89.64,122.48Z" transform="translate(0 0)"/><path class="cls-25" d="M86.87,121.59A45.09,45.09,0,0,1,75.52,118c-1.71-4.42-.57-8.9-.57-13.51C75,74,75,43.58,74.9,13.11c0-3.69,1.26-7.37.06-11.06A39,39,0,0,1,89.85.54c-1.77,3.28-1.51,6.9-2,10.44,0,27.86,0,56,0,84C87.84,103.9,88.16,112.81,86.87,121.59Z" transform="translate(0 0)"/><path class="cls-26" d="M84.12,120.73a40.87,40.87,0,0,1-10.89-3.37c-2-4.54-1-9.28-1-14q.08-45.15,0-90.3c0-3.58,1.77-7.15.07-10.72a38.36,38.36,0,0,1,15-1.94c-2,3.42-2,7.17-2,11q.09,47,0,94C85.21,110.51,85.57,115.69,84.12,120.73Z" transform="translate(0 0)"/><path class="cls-25" d="M75.35,3.8A34.83,34.83,0,0,1,82.8,2.44a43.07,43.07,0,0,1,7.43.12c-1.94,3.36-1.94,7-1.91,10.81q.11,17.61.15,35.25.06,28.57,0,57.12c0,5.05.32,10.14-1.11,15.09a29.09,29.09,0,0,1-5.48-.71c-1.87-.41-3.71-1-5.57-1.55-1.49-3.21-1.43-6.54-1.19-9.91.09-1.33.17-2.66.18-4q0-1.37,0-2.75,0-21.79,0-43.58T75.21,14.5C75.2,10.92,76.88,7.35,75.35,3.8Z" transform="translate(0 0)"/><path class="cls-24" d="M78.48,5.26a34.72,34.72,0,0,1,7.41-1,43.08,43.08,0,0,1,7.34.46C91.37,8,91.39,11.64,91.44,15.34q.19,17.3.26,34.63.11,28.1-.05,56.14c0,5,.27,10-1.13,14.83a28.81,28.81,0,0,1-5.5-.14c-1.89-.22-3.78-.59-5.71-1-1.56-3.17-1.5-6.48-1.21-9.85.12-1.32.2-2.65.22-4,0-.91,0-1.83,0-2.75q0-21.76,0-43.53t-.08-43.78C78.26,12.36,79.84,8.78,78.48,5.26Z" transform="translate(0 0)"/><path class="cls-23" d="M81.61,6.62A34.73,34.73,0,0,1,89,6a43.21,43.21,0,0,1,7.25.79c-1.77,3.25-1.73,6.8-1.67,10.43q.27,17,.37,34,.17,27.63-.08,55.16c0,4.88.23,9.78-1.15,14.57a29.06,29.06,0,0,1-5.52.42c-1.92,0-3.86-.21-5.84-.43-1.64-3.13-1.59-6.42-1.22-9.78.14-1.31.24-2.64.25-4,0-.91,0-1.83,0-2.74q0-21.74,0-43.47t-.08-43.71C81.32,13.7,82.81,10.11,81.61,6.62Z" transform="translate(0 0)"/><path class="cls-22" d="M84.74,7.85a34.87,34.87,0,0,1,7.34-.27A43.44,43.44,0,0,1,99.24,8.7c-1.69,3.2-1.62,6.68-1.55,10.24q.35,16.67.48,33.4.22,27.15-.1,54.18c-.06,4.79.19,9.61-1.16,14.3a29.56,29.56,0,0,1-5.54,1c-1.94.16-3.93.16-6,.13-1.71-3.09-1.67-6.35-1.24-9.72a35.39,35.39,0,0,0,.29-4c0-.91,0-1.82,0-2.74q0-21.71,0-43.42t-.08-43.65C84.38,14.9,85.77,11.31,84.74,7.85Z" transform="translate(0 0)"/><path class="cls-21" d="M87.87,8.92a34.79,34.79,0,0,1,7.3.09,43.24,43.24,0,0,1,7.07,1.46c-1.6,3.14-1.52,6.56-1.43,10.05q.43,16.35.58,32.79.27,26.68-.12,53.2c-.07,4.7.15,9.43-1.18,14a30.28,30.28,0,0,1-5.57,1.54,57.94,57.94,0,0,1-6.12.69c-1.78-3.05-1.75-6.29-1.26-9.66a30.8,30.8,0,0,0,.32-3.94c0-.91,0-1.82,0-2.73q0-21.68,0-43.36t-.08-43.58C87.44,15.94,88.73,12.35,87.87,8.92Z" transform="translate(0 0)"/><path class="cls-20" d="M91,10a35.12,35.12,0,0,1,7.26.45,43.59,43.59,0,0,1,7,1.79c-1.51,3.08-1.41,6.43-1.3,9.86q.51,16,.69,32.18.32,26.21-.14,52.22c-.08,4.62.1,9.25-1.19,13.78a31.22,31.22,0,0,1-5.59,2.11,55.73,55.73,0,0,1-6.25,1.25c-1.86-3-1.84-6.23-1.27-9.6a27.25,27.25,0,0,0,.36-3.93c0-.91,0-1.82,0-2.73q0-21.65,0-43.3t-.07-43.52C90.51,17,91.7,13.42,91,10Z" transform="translate(0 0)"/><path class="cls-19" d="M94.14,11.16a35.59,35.59,0,0,1,7.23.81,44.06,44.06,0,0,1,6.89,2.13c-1.43,3-1.31,6.31-1.18,9.67q.59,15.72.8,31.56.37,25.74-.16,51.24c-.1,4.53.06,9.08-1.21,13.52a32.35,32.35,0,0,1-5.61,2.67,54.09,54.09,0,0,1-6.39,1.81c-1.93-3-1.92-6.16-1.29-9.53a24.43,24.43,0,0,0,.39-3.91c0-.91,0-1.82,0-2.73q0-21.62,0-43.25T93.58,21.7C93.57,18.15,94.66,14.54,94.14,11.16Z" transform="translate(0 0)"/><path class="cls-18" d="M97.25,12.32a36.19,36.19,0,0,1,7.19,1.18,44.63,44.63,0,0,1,6.8,2.46c-1.34,3-1.2,6.19-1.06,9.48q.67,15.4.91,30.95.42,25.26-.19,50.27c-.11,4.44,0,8.9-1.23,13.26a33.65,33.65,0,0,1-5.63,3.23,53,53,0,0,1-6.52,2.36c-2-2.94-2-6.1-1.31-9.47a22.14,22.14,0,0,0,.43-3.9c0-.9,0-1.81,0-2.72q0-21.6,0-43.19t-.07-43.39C96.62,19.28,97.61,15.67,97.25,12.32Z" transform="translate(0 0)"/><path class="cls-17" d="M100.26,13.49A36.92,36.92,0,0,1,107.41,15a45.31,45.31,0,0,1,6.71,2.8c-1.26,2.91-1.1,6.07-.94,9.29q.75,15.09,1,30.33.48,24.79-.21,49.29c-.13,4.36,0,8.73-1.24,13a35.12,35.12,0,0,1-5.65,3.79,52.5,52.5,0,0,1-6.66,2.92c-2.07-2.9-2.09-6-1.32-9.41a20.23,20.23,0,0,0,.46-3.89c0-.9,0-1.81,0-2.72q0-21.57,0-43.13T99.57,24C99.56,20.42,100.45,16.81,100.26,13.49Z" transform="translate(0 0)"/><path class="cls-16" d="M103.27,14.65a37.79,37.79,0,0,1,7.12,1.9A46.08,46.08,0,0,1,117,19.68c-1.17,2.86-1,5.94-.82,9.1q.83,14.77,1.13,29.72.53,24.32-.23,48.31c-.14,4.27-.07,8.55-1.26,12.73a36.72,36.72,0,0,1-5.68,4.36,52.45,52.45,0,0,1-6.79,3.48c-2.15-2.86-2.18-6-1.34-9.35a18.63,18.63,0,0,0,.5-3.87c0-.9,0-1.81,0-2.72q0-21.54,0-43.08t-.07-43.26C102.49,21.56,103.29,17.94,103.27,14.65Z" transform="translate(0 0)"/><path class="cls-15" d="M106.27,15.81a38.77,38.77,0,0,1,7.08,2.27,47,47,0,0,1,6.53,3.47c-1.08,2.8-.89,5.82-.69,8.91q.9,14.46,1.24,29.11.58,23.84-.25,47.33c-.15,4.18-.11,8.37-1.27,12.47a38.44,38.44,0,0,1-5.7,4.92,52.8,52.8,0,0,1-6.93,4c-2.22-2.82-2.26-5.91-1.36-9.28a17.26,17.26,0,0,0,.53-3.86c0-.9,0-1.81,0-2.71q0-21.51,0-43t-.06-43.19C105.43,22.7,106.13,19.07,106.27,15.81Z" transform="translate(0 0)"/><path class="cls-14" d="M109.28,17a39.88,39.88,0,0,1,7,2.63,47.91,47.91,0,0,1,6.44,3.8c-1,2.75-.78,5.7-.57,8.72q1,14.14,1.35,28.49.63,23.37-.27,46.35c-.17,4.09-.15,8.2-1.29,12.21a40.28,40.28,0,0,1-5.72,5.48,53.48,53.48,0,0,1-7.06,4.6c-2.29-2.78-2.35-5.85-1.37-9.22a16.08,16.08,0,0,0,.57-3.84c0-.9,0-1.8,0-2.71q0-21.48,0-43t-.06-43.13C108.37,23.84,109,20.21,109.28,17Z" transform="translate(0 0)"/><path class="cls-13" d="M112.28,18.13a41.1,41.1,0,0,1,7,3,49,49,0,0,1,6.35,4.14c-.91,2.69-.68,5.58-.45,8.53q1.06,13.82,1.46,27.88.68,22.9-.3,45.37c-.18,4-.19,8-1.31,11.95a42.21,42.21,0,0,1-5.74,6,54.45,54.45,0,0,1-7.2,5.16c-2.37-2.74-2.44-5.79-1.39-9.16a15.06,15.06,0,0,0,.6-3.83c0-.89,0-1.8,0-2.71q0-21.45,0-42.91t-.06-43.06A70.43,70.43,0,0,1,112.28,18.13Z" transform="translate(0 0)"/><path class="cls-12" d="M115.29,19.29a42.43,42.43,0,0,1,7,3.35,50.06,50.06,0,0,1,6.26,4.47c-.83,2.63-.57,5.46-.33,8.34q1.14,13.51,1.57,27.26.74,22.42-.32,44.39c-.19,3.92-.24,7.84-1.32,11.68a44.22,44.22,0,0,1-5.76,6.61,55.65,55.65,0,0,1-7.34,5.71c-2.44-2.7-2.53-5.72-1.4-9.1a14.16,14.16,0,0,0,.64-3.82c0-.89,0-1.8,0-2.7q0-21.43,0-42.85t-.06-43A52.79,52.79,0,0,1,115.29,19.29Z" transform="translate(0 0)"/><path class="cls-11" d="M118.3,20.46a43.85,43.85,0,0,1,6.93,3.72A51.24,51.24,0,0,1,131.4,29c-.74,2.58-.47,5.33-.21,8.15q1.22,13.19,1.67,26.65.79,21.95-.34,43.41c-.21,3.83-.28,7.67-1.34,11.42a46.3,46.3,0,0,1-5.79,7.17,57,57,0,0,1-7.47,6.27c-2.51-2.66-2.61-5.66-1.42-9a13.36,13.36,0,0,0,.67-3.8c0-.89,0-1.79,0-2.7q0-21.4,0-42.8t-.05-42.93A42.19,42.19,0,0,1,118.3,20.46Z" transform="translate(0 0)"/><path class="cls-11" d="M121.3,21.62a45.36,45.36,0,0,1,6.9,4.08,52.49,52.49,0,0,1,6.08,5.14c-.65,2.52-.36,5.21-.09,8q1.3,12.88,1.78,26,.84,21.48-.36,42.44c-.22,3.75-.32,7.49-1.35,11.16a48.44,48.44,0,0,1-5.81,7.73,58.61,58.61,0,0,1-7.61,6.83c-2.58-2.62-2.7-5.6-1.44-9a12.65,12.65,0,0,0,.71-3.79c0-.89,0-1.79,0-2.69q0-21.37,0-42.74t-.05-42.87A35.12,35.12,0,0,1,121.3,21.62Z" transform="translate(0 0)"/><path class="cls-10" d="M124.31,22.78a46.94,46.94,0,0,1,6.86,4.44,53.79,53.79,0,0,1,6,5.48,23.59,23.59,0,0,0,0,7.76c.92,8.37,1.53,16.86,1.89,25.42a393,393,0,0,1-.38,41.46,52.14,52.14,0,0,1-1.37,10.9,50.64,50.64,0,0,1-5.83,8.29,60.31,60.31,0,0,1-7.74,7.39c-2.66-2.58-2.79-5.53-1.45-8.91a12,12,0,0,0,.74-3.78c.05-.89.05-1.79.05-2.69q0-21.34,0-42.68t0-42.8C123.06,29.53,123.17,25.87,124.31,22.78Z" transform="translate(0 0)"/><path class="cls-9" d="M127.32,23.94a48.6,48.6,0,0,1,6.83,4.8,55.14,55.14,0,0,1,5.9,5.81,24.51,24.51,0,0,0,.16,7.57c1,8.16,1.62,16.44,2,24.81a354,354,0,0,1-.41,40.48,52.44,52.44,0,0,1-1.39,10.63,52.89,52.89,0,0,1-5.85,8.86,62.14,62.14,0,0,1-7.88,7.95c-2.73-2.54-2.88-5.47-1.47-8.85a11.44,11.44,0,0,0,.78-3.76c.05-.89.05-1.79.05-2.69q0-21.31,0-42.63t0-42.74C126,30.67,126,27,127.32,23.94Z" transform="translate(0 0)"/><path class="cls-8" d="M130.33,25.1a50.32,50.32,0,0,1,6.79,5.17,56.55,56.55,0,0,1,5.81,6.15,25.67,25.67,0,0,0,.28,7.38c1,8,1.71,16,2.11,24.19a319.49,319.49,0,0,1-.43,39.5,52.84,52.84,0,0,1-1.4,10.37,55.17,55.17,0,0,1-5.87,9.42,64.06,64.06,0,0,1-8,8.51c-2.8-2.5-3-5.41-1.49-8.78a10.93,10.93,0,0,0,.81-3.75c.06-.88.06-1.78.06-2.68q0-21.29,0-42.57t0-42.67C128.93,31.81,128.85,28.14,130.33,25.1Z" transform="translate(0 0)"/><path class="cls-7" d="M133.33,26.26a52.1,52.1,0,0,1,6.75,5.53,58,58,0,0,1,5.72,6.48,27.14,27.14,0,0,0,.4,7.19c1.08,7.74,1.8,15.61,2.22,23.58a288.77,288.77,0,0,1-.45,38.52,53.37,53.37,0,0,1-1.42,10.11,57.5,57.5,0,0,1-5.9,10,66.07,66.07,0,0,1-8.15,9.06c-2.87-2.46-3.06-5.35-1.5-8.72a10.46,10.46,0,0,0,.85-3.73c.06-.88.06-1.78.06-2.68q0-21.26,0-42.51t0-42.61C131.87,32.94,131.69,29.27,133.33,26.26Z" transform="translate(0 0)"/><path class="cls-6" d="M136.34,27.42a53.92,53.92,0,0,1,6.72,5.89,59.47,59.47,0,0,1,5.63,6.81,29.05,29.05,0,0,0,.52,7c1.13,7.53,1.89,15.2,2.33,23a261.32,261.32,0,0,1-.47,37.54,54,54,0,0,1-1.43,9.85A59.86,59.86,0,0,1,143.72,128a68.16,68.16,0,0,1-8.29,9.62c-2.95-2.42-3.15-5.29-1.52-8.66a10,10,0,0,0,.88-3.72c.06-.88.06-1.78.06-2.68q0-21.23,0-42.46t0-42.54C134.81,34.08,134.53,30.41,136.34,27.42Z" transform="translate(0 0)"/><path class="cls-5" d="M139.35,28.59A55.78,55.78,0,0,1,146,34.84,61,61,0,0,1,151.57,42a31.57,31.57,0,0,0,.65,6.81c1.18,7.32,2,14.78,2.44,22.35a236.69,236.69,0,0,1-.49,36.56,54.87,54.87,0,0,1-1.45,9.59,62.24,62.24,0,0,1-5.94,11.11,70.31,70.31,0,0,1-8.42,10.18c-3-2.38-3.24-5.22-1.54-8.6a9.64,9.64,0,0,0,.92-3.71c.06-.88.07-1.78.07-2.67q0-21.2,0-42.4t0-42.48C137.75,35.22,137.37,31.54,139.35,28.59Z" transform="translate(0 0)"/><path class="cls-4" d="M142.35,29.75A58.32,58.32,0,0,1,149,36.37a63.32,63.32,0,0,1,5.45,7.48,35,35,0,0,0,.77,6.62,205.39,205.39,0,0,1,2.55,21.74,214.51,214.51,0,0,1-.52,35.59,55.92,55.92,0,0,1-1.47,9.32,64.65,64.65,0,0,1-6,11.67,72.52,72.52,0,0,1-8.56,10.74c-3.09-2.34-3.34-5.16-1.55-8.53a9.29,9.29,0,0,0,1-3.69c.07-.88.07-1.77.07-2.67q0-21.17,0-42.35t0-42.41C140.69,36.36,140.21,32.67,142.35,29.75Z" transform="translate(0 0)"/><path class="cls-3" d="M145.36,30.91a60.18,60.18,0,0,1,6.61,7,64.82,64.82,0,0,1,5.36,7.82,39.9,39.9,0,0,0,.89,6.43,186.12,186.12,0,0,1,2.66,21.12,194.48,194.48,0,0,1-.54,34.61,57.23,57.23,0,0,1-1.48,9.06,67.69,67.69,0,0,1-6,12.23,75.48,75.48,0,0,1-8.69,11.3c-3.17-2.3-3.43-5.1-1.57-8.47a9,9,0,0,0,1-3.68c.07-.88.07-1.77.07-2.67q0-21.14,0-42.29t0-42.35C143.63,37.5,143,33.81,145.36,30.91Z" transform="translate(0 0)"/><path class="cls-2" d="M148.37,32.07a62.06,62.06,0,0,1,6.57,7.34,66.34,66.34,0,0,1,5.27,8.15,47.29,47.29,0,0,0,1,6.24A168.69,168.69,0,0,1,164,74.32a176.35,176.35,0,0,1-.56,33.63,58.87,58.87,0,0,1-1.5,8.8,70.06,70.06,0,0,1-6,12.79,77.68,77.68,0,0,1-8.83,11.86c-3.24-2.26-3.52-5-1.59-8.41a8.66,8.66,0,0,0,1-3.66c.07-.87.07-1.77.07-2.66q0-21.12,0-42.23t0-42.28C146.57,38.64,145.89,34.94,148.37,32.07Z" transform="translate(0 0)"/><path class="cls-40" d="M151.38,33.23a64,64,0,0,1,6.53,7.71,67.87,67.87,0,0,1,5.18,8.49,59.6,59.6,0,0,0,1.13,6,152.9,152.9,0,0,1,2.87,19.9,159.89,159.89,0,0,1-.58,32.65,60.93,60.93,0,0,1-1.51,8.54,72.44,72.44,0,0,1-6,13.36,79.93,79.93,0,0,1-9,12.42c-3.31-2.22-3.61-5-1.6-8.35a8.38,8.38,0,0,0,1.06-3.65c.08-.87.08-1.76.08-2.66q0-21.09,0-42.18t0-42.22C149.5,39.77,148.73,36.07,151.38,33.23Z" transform="translate(0 0)"/><path class="cls-41" d="M154.38,34.39a65.87,65.87,0,0,1,6.5,8.07A69.43,69.43,0,0,1,166,51.29c.29,1.9.8,3.87,1.25,5.86a138.58,138.58,0,0,1,3,19.28,144.93,144.93,0,0,1-.6,31.67,63.56,63.56,0,0,1-1.53,8.28,74.85,74.85,0,0,1-6,13.92,82.21,82.21,0,0,1-9.1,13c-3.38-2.18-3.7-4.92-1.62-8.28a8.12,8.12,0,0,0,1.1-3.64c.08-.87.08-1.76.08-2.65q0-21.06,0-42.12t0-42.15C152.44,40.91,151.57,37.21,154.38,34.39Z" transform="translate(0 0)"/><path class="cls-42" d="M157.39,35.56A67.78,67.78,0,0,1,163.85,44a71,71,0,0,1,5,9.16c.38,1.85.9,3.74,1.38,5.67a125.56,125.56,0,0,1,3.09,18.67,131.3,131.3,0,0,1-.63,30.69,66.94,66.94,0,0,1-1.55,8,77.26,77.26,0,0,1-6.07,14.48,84.53,84.53,0,0,1-9.23,13.53c-3.46-2.14-3.8-4.86-1.64-8.22a7.88,7.88,0,0,0,1.13-3.62c.08-.87.08-1.76.08-2.65q0-21,0-42.06t0-42.09C155.38,42.05,154.41,38.34,157.39,35.56Z" transform="translate(0 0)"/><path class="cls-43" d="M160.4,36.72a69.71,69.71,0,0,1,6.43,8.79A72.61,72.61,0,0,1,171.74,55c.46,1.79,1,3.62,1.5,5.48a113.71,113.71,0,0,1,3.2,18.05,118.86,118.86,0,0,1-.65,29.71,71.4,71.4,0,0,1-1.56,7.75,79.69,79.69,0,0,1-6.09,15,86.88,86.88,0,0,1-9.37,14.09c-3.53-2.1-3.89-4.8-1.65-8.16a7.65,7.65,0,0,0,1.17-3.61c.08-.87.09-1.76.09-2.65q0-21,0-42t0-42C158.32,43.19,157.25,39.47,160.4,36.72Z" transform="translate(0 0)"/><path class="cls-44" d="M163.38,37.86A71.64,71.64,0,0,1,169.77,47a74.22,74.22,0,0,1,4.82,9.83c.55,1.73,1.11,3.5,1.62,5.29a102.92,102.92,0,0,1,3.31,17.44,107.5,107.5,0,0,1-.67,28.74c-.41,2.52-.92,5-1.58,7.49a82.13,82.13,0,0,1-6.12,15.61A89.25,89.25,0,0,1,161.65,146c-3.6-2.06-4-4.75-1.67-8.1a7.47,7.47,0,0,0,1.2-3.59,26.3,26.3,0,0,0,.09-2.64q0-21,0-42t0-42C161.23,44.31,160.06,40.58,163.38,37.86Z" transform="translate(0 0)"/><path class="cls-45" d="M164.6,147c-3.68-2-4.08-4.69-1.69-8,1.31-1.84,1.33-4,1.33-6.22q0-20.95,0-41.9t0-41.9c0-3.5-1.27-7.22,2.21-9.92a73.58,73.58,0,0,1,6.35,9.52,75.84,75.84,0,0,1,4.73,10.16,89.78,89.78,0,0,1,5.16,21.92,94.16,94.16,0,0,1-2.29,35,84.59,84.59,0,0,1-6.14,16.17A91.65,91.65,0,0,1,164.6,147Z" transform="translate(0 0)"/><path class="cls-44" d="M163.47,37.67a71.32,71.32,0,0,1,6.3,9.15,73.91,73.91,0,0,1,4.74,9.8c.46,1.64,1.07,3.3,1.54,5a109.89,109.89,0,0,1,3.42,18.5,105.79,105.79,0,0,1-.9,29.91c-.36,2-.89,4-1.41,6a81.73,81.73,0,0,1-6.1,15.52,88.67,88.67,0,0,1-9.47,14.57c-3.5-2.08-3.88-4.77-1.58-8.12a8.23,8.23,0,0,0,1.25-4.4c0-.61,0-1.23,0-1.85q0-21,0-42t0-42.08C161.26,44.12,160,40.39,163.47,37.67Z" transform="translate(0 0)"/><path class="cls-43" d="M160.51,36.3a69.08,69.08,0,0,1,6.25,8.78,72,72,0,0,1,4.75,9.44c.33,1.76,1,3.53,1.48,5.32a129.44,129.44,0,0,1,3.29,19.72,116,116,0,0,1-.86,30.68c-.35,2.11-1,4.1-1.47,6.15a78.91,78.91,0,0,1-6.07,14.87,85.71,85.71,0,0,1-9.29,13.92c-3.33-2.13-3.68-4.84-1.48-8.2a8.53,8.53,0,0,0,1.2-4.42c0-.61,0-1.23,0-1.86q0-21.06,0-42.12t0-42.27C158.31,42.78,157.14,39,160.51,36.3Z" transform="translate(0 0)"/><path class="cls-42" d="M157.56,34.92a66.84,66.84,0,0,1,6.2,8.42,70.1,70.1,0,0,1,4.76,9.08A53.09,53.09,0,0,0,170,58.08,151.74,151.74,0,0,1,173.11,79a127.23,127.23,0,0,1-.82,31.46c-.33,2.18-1,4.19-1.54,6.29a76.11,76.11,0,0,1-6,14.21,82.76,82.76,0,0,1-9.12,13.28c-3.16-2.18-3.48-4.92-1.37-8.29a8.88,8.88,0,0,0,1.15-4.44c0-.62,0-1.24,0-1.86q0-21.12,0-42.24t0-42.46C155.37,41.43,154.24,37.7,157.56,34.92Z" transform="translate(0 0)"/><path class="cls-41" d="M154.61,33.55a64.6,64.6,0,0,1,6.15,8,68.24,68.24,0,0,1,4.77,8.72c.08,2,1,4,1.37,6a177.18,177.18,0,0,1,3,22.15,139.67,139.67,0,0,1-.78,32.24c-.32,2.25-1.09,4.28-1.61,6.43a73.34,73.34,0,0,1-6,13.56,79.83,79.83,0,0,1-8.94,12.64c-3-2.23-3.28-5-1.27-8.38a9.26,9.26,0,0,0,1.1-4.47c0-.62,0-1.24,0-1.87q0-21.18,0-42.35t0-42.65C152.42,40.09,151.35,36.36,154.61,33.55Z" transform="translate(0 0)"/><path class="cls-40" d="M151.66,32.18a62.37,62.37,0,0,1,6.1,7.68,66.39,66.39,0,0,1,4.78,8.36c0,2.1.91,4.21,1.31,6.33a206.17,206.17,0,0,1,2.89,23.37,153.47,153.47,0,0,1-.74,33,67,67,0,0,1-1.67,6.58,70.61,70.61,0,0,1-6,12.91,76.93,76.93,0,0,1-8.77,12c-2.81-2.28-3.08-5.07-1.16-8.46a9.68,9.68,0,0,0,1-4.49c0-.62,0-1.25,0-1.87q0-21.23,0-42.47,0-21.42,0-42.84C149.48,38.74,148.45,35,151.66,32.18Z" transform="translate(0 0)"/><path class="cls-2" d="M148.71,30.81a60.14,60.14,0,0,1,6.05,7.31,64.58,64.58,0,0,1,4.79,8c-.17,2.21.87,4.43,1.25,6.67a239.25,239.25,0,0,1,2.76,24.59,168.84,168.84,0,0,1-.7,33.8c-.29,2.4-1.23,4.46-1.74,6.72a67.93,67.93,0,0,1-5.93,12.26,74,74,0,0,1-8.6,11.36c-2.64-2.33-2.88-5.15-1.06-8.55a10.15,10.15,0,0,0,1-4.51c0-.62,0-1.25,0-1.88q0-21.29,0-42.58,0-21.51,0-43C146.54,37.4,145.55,33.66,148.71,30.81Z" transform="translate(0 0)"/><path class="cls-3" d="M145.76,29.43a57.93,57.93,0,0,1,6,6.95,62.8,62.8,0,0,1,4.8,7.64c-.3,2.32.83,4.66,1.19,7,1.28,8.46,2.13,17.07,2.63,25.8a186,186,0,0,1-.66,34.58c-.27,2.47-1.3,4.55-1.8,6.87A65.3,65.3,0,0,1,152,129.89a71.18,71.18,0,0,1-8.42,10.71c-2.47-2.38-2.69-5.23-1-8.63a10.67,10.67,0,0,0,1-4.53c0-.62,0-1.25,0-1.88q0-21.35,0-42.7,0-21.61,0-43.21C143.59,36.05,142.66,32.32,145.76,29.43Z" transform="translate(0 0)"/><path class="cls-4" d="M142.81,28.06a55.72,55.72,0,0,1,6,6.58,61,61,0,0,1,4.81,7.28c-.42,2.44.79,4.89,1.13,7.35,1.22,8.87,2,17.89,2.49,27a205.33,205.33,0,0,1-.62,35.36c-.26,2.54-1.36,4.64-1.87,7a62.72,62.72,0,0,1-5.85,11,68.35,68.35,0,0,1-8.25,10.07c-2.29-2.43-2.49-5.31-.85-8.72a11.24,11.24,0,0,0,.9-4.56c0-.63,0-1.26,0-1.89q0-21.41,0-42.81,0-21.7,0-43.4C140.65,34.71,139.76,31,142.81,28.06Z" transform="translate(0 0)"/><path class="cls-5" d="M139.86,26.69a53.53,53.53,0,0,1,5.9,6.21,59.34,59.34,0,0,1,4.82,6.92c-.55,2.55.75,5.11,1.07,7.69,1.15,9.28,1.91,18.71,2.36,28.24a227.12,227.12,0,0,1-.58,36.14c-.24,2.61-1.43,4.73-1.94,7.15a60.21,60.21,0,0,1-5.82,10.3,65.55,65.55,0,0,1-8.07,9.43c-2.12-2.49-2.29-5.4-.74-8.81a11.88,11.88,0,0,0,.85-4.58c0-.63,0-1.26,0-1.89q0-21.46,0-42.93,0-21.79,0-43.59C137.71,33.36,136.87,29.63,139.86,26.69Z" transform="translate(0 0)"/><path class="cls-6" d="M136.91,25.32a51.35,51.35,0,0,1,5.85,5.84,57.66,57.66,0,0,1,4.83,6.56c-.67,2.66.71,5.34,1,8,1.09,9.7,1.8,19.53,2.23,29.46a251.87,251.87,0,0,1-.53,36.92c-.23,2.68-1.5,4.82-2,7.3a57.78,57.78,0,0,1-5.78,9.65,62.79,62.79,0,0,1-7.9,8.79c-1.95-2.54-2.1-5.48-.64-8.89a12.61,12.61,0,0,0,.8-4.6c0-.63,0-1.26,0-1.9q0-21.52,0-43,0-21.89,0-43.78C134.76,32,134,28.28,136.91,25.32Z" transform="translate(0 0)"/><path class="cls-7" d="M134,23.94a49.19,49.19,0,0,1,5.8,5.47,56,56,0,0,1,4.84,6.2c-.8,2.78.67,5.56,1,8.36,1,10.11,1.7,20.34,2.09,30.68a280.18,280.18,0,0,1-.49,37.69c-.21,2.75-1.56,4.91-2.07,7.44a55.45,55.45,0,0,1-5.75,9,60.06,60.06,0,0,1-7.72,8.15c-1.78-2.59-1.9-5.56-.54-9a13.43,13.43,0,0,0,.75-4.63c0-.63,0-1.27,0-1.9q0-21.58,0-43.16,0-22,0-44C131.82,30.67,131.07,26.94,134,23.94Z" transform="translate(0 0)"/><path class="cls-8" d="M131,22.57a47.05,47.05,0,0,1,5.75,5.11,54.46,54.46,0,0,1,4.85,5.84c-.92,2.89.63,5.79.9,8.7,1,10.52,1.59,21.16,2,31.89a312.8,312.8,0,0,1-.45,38.47c-.2,2.82-1.63,5-2.13,7.58a53.22,53.22,0,0,1-5.71,8.35,57.39,57.39,0,0,1-7.55,7.5c-1.6-2.64-1.71-5.64-.43-9.06a14.36,14.36,0,0,0,.7-4.65c0-.63,0-1.27,0-1.91q0-21.64,0-43.27,0-22.08,0-44.15C128.88,29.33,128.18,25.59,131,22.57Z" transform="translate(0 0)"/><path class="cls-9" d="M128.07,21.2a44.94,44.94,0,0,1,5.7,4.74,52.93,52.93,0,0,1,4.86,5.48c-1,3,.59,6,.84,9,.89,10.94,1.48,22,1.83,33.11a350.74,350.74,0,0,1-.41,39.25c-.18,2.89-1.7,5.09-2.2,7.73a51.13,51.13,0,0,1-5.68,7.7,54.78,54.78,0,0,1-7.38,6.86c-1.43-2.69-1.51-5.72-.33-9.15a15.44,15.44,0,0,0,.65-4.67c0-.63,0-1.27,0-1.91q0-21.69,0-43.39,0-22.17,0-44.34C125.94,28,125.28,24.24,128.07,21.2Z" transform="translate(0 0)"/><path class="cls-9" d="M125.12,19.83a42.86,42.86,0,0,1,5.65,4.37,51.46,51.46,0,0,1,4.87,5.12c-1.17,3.12.55,6.24.78,9.38.83,11.35,1.37,22.8,1.69,34.33a395.33,395.33,0,0,1-.37,40c-.17,3-1.77,5.18-2.27,7.87a49.19,49.19,0,0,1-5.64,7,52.22,52.22,0,0,1-7.2,6.22,12.41,12.41,0,0,1-.22-9.24,16.68,16.68,0,0,0,.6-4.7c0-.64,0-1.28,0-1.92q0-21.75,0-43.5,0-22.27,0-44.53C123,26.64,122.39,22.9,125.12,19.83Z" transform="translate(0 0)"/><path class="cls-10" d="M122.17,18.45a40.82,40.82,0,0,1,5.6,4,50,50,0,0,1,4.88,4.76c-1.3,3.23.51,6.47.72,9.71.76,11.76,1.26,23.62,1.56,35.55q.76,20.65-.33,40.81c-.15,3-1.83,5.27-2.33,8a47.46,47.46,0,0,1-5.61,6.39,49.74,49.74,0,0,1-7,5.58,14.14,14.14,0,0,1-.12-9.32,18.14,18.14,0,0,0,.56-4.72c0-.64,0-1.28,0-1.92q0-21.81,0-43.62,0-22.36,0-44.72C120.05,25.29,119.5,21.55,122.17,18.45Z" transform="translate(0 0)"/><path class="cls-11" d="M119.22,17.08a38.84,38.84,0,0,1,5.55,3.64,48.7,48.7,0,0,1,4.89,4.4c-1.42,3.34.47,6.69.66,10.05.7,12.17,1.15,24.44,1.43,36.76q.7,21-.29,41.59c-.14,3.1-1.9,5.36-2.4,8.16a46,46,0,0,1-5.57,5.74,47.34,47.34,0,0,1-6.85,4.94,16.39,16.39,0,0,1,0-9.41,19.88,19.88,0,0,0,.51-4.74c0-.64,0-1.28,0-1.93q0-21.87,0-43.73,0-22.45,0-44.91C117.11,23.95,116.6,20.21,119.22,17.08Z" transform="translate(0 0)"/><path class="cls-12" d="M116.28,15.71a36.91,36.91,0,0,1,5.5,3.27,47.42,47.42,0,0,1,4.9,4c-1.55,3.46.43,6.92.6,10.39q1,18.88,1.29,38,.63,21.39-.25,42.37c-.12,3.17-2,5.45-2.47,8.3a45,45,0,0,1-12.21,9.38,19.41,19.41,0,0,1,.09-9.49,22,22,0,0,0,.46-4.77c0-.64,0-1.29,0-1.93q0-21.92,0-43.85,0-22.55,0-45.1C114.17,22.6,113.71,18.86,116.28,15.71Z" transform="translate(0 0)"/><path class="cls-13" d="M113.33,14.34a35,35,0,0,1,5.45,2.9,46.22,46.22,0,0,1,4.91,3.68c-1.68,3.57.39,7.15.55,10.73q.85,19.5,1.16,39.2.57,21.76-.21,43.15c-.11,3.24-2,5.53-2.53,8.45a44,44,0,0,1-5.5,4.44,42.82,42.82,0,0,1-6.5,3.65,23.65,23.65,0,0,1,.2-9.58,24.54,24.54,0,0,0,.41-4.79c0-.64,0-1.29,0-1.94q0-22,0-44,0-22.64,0-45.28C111.23,21.26,110.82,17.52,113.33,14.34Z" transform="translate(0 0)"/><path class="cls-14" d="M110.39,13a33.27,33.27,0,0,1,5.4,2.53,45.09,45.09,0,0,1,4.92,3.32c-1.8,3.68.34,7.37.49,11.07q.76,20.12,1,40.42.51,22.13-.17,43.93c-.09,3.31-2.1,5.62-2.6,8.59a43.59,43.59,0,0,1-5.46,3.79,40.73,40.73,0,0,1-6.33,3,30,30,0,0,1,.3-9.67,27.76,27.76,0,0,0,.36-4.81c0-.65,0-1.29,0-1.94q0-22,0-44.08,0-22.74,0-45.47C108.3,19.91,107.93,16.17,110.39,13Z" transform="translate(0 0)"/><path class="cls-15" d="M107.45,11.59a31.59,31.59,0,0,1,5.35,2.16,44,44,0,0,1,4.93,3c-1.93,3.8.3,7.6.43,11.4q.66,20.74.89,41.64.44,22.5-.12,44.71c-.08,3.39-2.17,5.71-2.66,8.74a43.82,43.82,0,0,1-5.43,3.14,38.75,38.75,0,0,1-6.16,2.37,40.69,40.69,0,0,1,.41-9.75,31.93,31.93,0,0,0,.31-4.83c0-.65,0-1.3,0-1.95q0-22.1,0-44.19,0-22.83,0-45.66C105.36,18.57,105,14.82,107.45,11.59Z" transform="translate(0 0)"/><path class="cls-16" d="M104.52,10.22a30,30,0,0,1,5.3,1.8,43.08,43.08,0,0,1,4.94,2.6c-2.05,3.91.26,7.82.37,11.74q.56,21.36.76,42.85.38,22.87-.08,45.48c-.06,3.46-2.23,5.8-2.73,8.88a44.72,44.72,0,0,1-5.39,2.48,36.91,36.91,0,0,1-6,1.73,61.83,61.83,0,0,1,.51-9.84,37.51,37.51,0,0,0,.26-4.86c0-.65,0-1.3,0-2q0-22.15,0-44.3,0-22.92,0-45.85C102.44,17.22,102.17,13.48,104.52,10.22Z" transform="translate(0 0)"/><path class="cls-17" d="M101.65,8.85a28.59,28.59,0,0,1,5.25,1.43,42.2,42.2,0,0,1,4.95,2.24c-2.18,4,.22,8.05.31,12.08q.46,22,.63,44.07.32,23.23,0,46.26c0,3.53-2.3,5.89-2.8,9a46.4,46.4,0,0,1-5.36,1.83,35.2,35.2,0,0,1-5.81,1.08c.12-3.15.21-6.47.61-9.93a45.37,45.37,0,0,0,.21-4.88c0-.65,0-1.31,0-2q0-22.21,0-44.42,0-23,0-46C99.57,15.88,99.35,12.13,101.65,8.85Z" transform="translate(0 0)"/><path class="cls-18" d="M98.77,7.47A27.31,27.31,0,0,1,104,8.53a41.41,41.41,0,0,1,5,1.88c-2.3,4.14.18,8.28.25,12.42q.37,22.6.49,45.29.26,23.6,0,47c0,3.6-2.37,6-2.86,9.17a48.81,48.81,0,0,1-5.32,1.18,33.65,33.65,0,0,1-5.63.44c.29-3.2.39-6.55.72-10,.15-1.61.15-3.26.16-4.9,0-.65,0-1.31,0-2q0-22.27,0-44.53,0-23.11,0-46.22C96.71,14.53,96.53,10.79,98.77,7.47Z" transform="translate(0 0)"/><path class="cls-19" d="M95.9,6a26.18,26.18,0,0,1,5.15.69,40.71,40.71,0,0,1,5,1.52c-2.43,4.25.14,8.5.19,12.76q.27,23.22.36,46.51.19,24,0,47.82c0,3.67-2.44,6.07-2.93,9.31a51.7,51.7,0,0,1-5.29.53,32.26,32.26,0,0,1-5.46-.2c.47-3.25.58-6.63.82-10.1.11-1.63.1-3.28.11-4.93q0-1,0-2,0-22.32,0-44.65,0-23.21,0-46.41C93.84,13.07,93.71,9.32,95.9,6Z" transform="translate(0 0)"/><path class="cls-20" d="M93,4.25a25.23,25.23,0,0,1,5.1.33,40.09,40.09,0,0,1,5,1.16c-2.55,4.36.1,8.73.13,13.09q.17,23.84.23,47.72.13,24.34.08,48.6c0,3.74-2.5,6.16-3,9.46-1.73,0-3.49,0-5.25-.12a31.1,31.1,0,0,1-5.28-.84,70.85,70.85,0,0,0,.93-10.18c.08-1.64.05-3.29.06-5q0-1,0-2,0-22.38,0-44.76,0-23.3,0-46.6C91,11.36,90.89,7.62,93,4.25Z" transform="translate(0 0)"/><path class="cls-21" d="M90.12,2.3a24.47,24.47,0,0,1,5.05,0,39.56,39.56,0,0,1,5,.8c-2.68,4.48.06,9,.08,13.43q.08,24.46.09,48.94.07,24.71.12,49.38c0,3.81-2.57,6.25-3.06,9.6-1.74-.19-3.49-.42-5.22-.78a30.2,30.2,0,0,1-5.11-1.48,48,48,0,0,0,1-10.27c0-1.65,0-3.31,0-5q0-1,0-2,0-22.44,0-44.88,0-23.39,0-46.79C88.08,9.44,88,5.7,90.12,2.3Z" transform="translate(0 0)"/><path class="cls-22" d="M84.12,120.73c1.46-5,1.1-10.21,1.1-15.35q0-23.49,0-47t0-47c0-3.84,0-7.58,2-11a23.9,23.9,0,0,1,5-.41,39.14,39.14,0,0,1,5,.44c-2.8,4.59,0,9.18,0,13.77q0,25.08,0,50.16t.16,50.16c0,3.88-2.64,6.34-3.13,9.74-1.75-.41-3.49-.86-5.18-1.43A29.64,29.64,0,0,1,84.12,120.73Z" transform="translate(0 0)"/><path class="cls-23" d="M81.12,119.31c1.63-5.15,1.22-10.48,1.24-15.75q.08-45.45,0-90.9c0-4,0-7.87,1.72-11.44A30.67,30.67,0,0,1,94.45.73c-2.48,4.87.09,9.74.09,14.62,0,32.23-.11,64.47.11,96.7,0,4.33-2.37,7.35-3.11,11.21A38.94,38.94,0,0,1,81.12,119.31Z" transform="translate(0 0)"/><path class="cls-24" d="M78.13,117.93c1.79-5.25,1.34-10.74,1.37-16.14.1-29.28,0-58.56,0-87.84,0-4.12,0-8.15,1.41-11.87a31.9,31.9,0,0,1,10.77-1c-2.16,5.15.17,10.31.17,15.46,0,31-.1,62.05.1,93.08,0,4.77-2.11,8.36-3.1,12.67A39,39,0,0,1,78.13,117.93Z" transform="translate(0 0)"/><path class="cls-25" d="M75.13,116.6c2-5.36,1.46-11,1.51-16.53.14-28.26.06-56.52,0-84.79,0-4.25,0-8.43,1.1-12.3A33.19,33.19,0,0,1,88.92,1.43c-1.84,5.43.24,10.87.24,16.31,0,29.82-.08,59.64.09,89.46,0,5.22-1.84,9.37-3.09,14.13A39.21,39.21,0,0,1,75.13,116.6Z" transform="translate(0 0)"/><path class="cls-26" d="M72.14,115.29c2.13-5.47,1.58-11.28,1.64-16.93.18-27.24.07-54.49,0-81.73A70.75,70.75,0,0,1,74.62,3.9,34.54,34.54,0,0,1,86.15,1.83c-1.52,5.7.32,11.43.32,17.15,0,28.61-.07,57.23.09,85.84,0,5.67-1.58,10.38-3.08,15.59A39.48,39.48,0,0,1,72.14,115.29Z" transform="translate(0 0)"/><path class="cls-27" d="M69.14,114c2.3-5.57,1.7-11.54,1.78-17.32C71.15,70.45,71,44.21,71,18c0-4.53,0-9,.47-13.16a35.94,35.94,0,0,1,11.92-2.6c-1.2,6,.39,12,.39,18,0,27.41-.06,54.82.08,82.22,0,6.11-1.31,11.39-3.07,17.06A39.83,39.83,0,0,1,69.14,114Z" transform="translate(0 0)"/><path class="cls-28" d="M66.15,112.68C68.62,107,68,100.88,68.07,95c.27-25.2.08-50.41.09-75.62,0-4.67.05-9.28.16-13.59A37.39,37.39,0,0,1,80.62,2.63c-.88,6.26.46,12.56.47,18.84,0,26.2-.05,52.4.07,78.6a57.22,57.22,0,0,1-3.06,18.52A40.24,40.24,0,0,1,66.15,112.68Z" transform="translate(0 0)"/><path class="cls-28" d="M63.15,111.38c2.64-5.79,1.94-12.08,2.05-18.11.31-24.18.09-48.37.11-72.56,0-4.81.06-9.56-.15-14A38.88,38.88,0,0,1,77.85,3c-.56,6.54.54,13.12.54,19.69,0,25,0,50,.06,75a59.34,59.34,0,0,1-3,20A40.7,40.7,0,0,1,63.15,111.38Z" transform="translate(0 0)"/><path class="cls-29" d="M60.16,110.08c2.81-5.9,2.06-12.34,2.19-18.51.35-23.16.1-46.34.13-69.51A125.51,125.51,0,0,0,62,7.61,40.4,40.4,0,0,1,75.09,3.43c-.24,6.82.61,13.68.62,20.53,0,23.79,0,47.58,0,71.37,0,7.45-.52,14.41-3,21.44A41.21,41.21,0,0,1,60.16,110.08Z" transform="translate(0 0)"/><path class="cls-30" d="M57.17,108.78c3-6,2.18-12.61,2.33-18.9.4-22.14.11-44.3.15-66.45,0-5.09.07-10.12-.78-14.88A42,42,0,0,1,72.32,3.83c.08,7.1.69,14.25.69,21.38,0,22.58,0,45.17,0,67.75,0,7.9-.25,15.42-3,22.91A41.76,41.76,0,0,1,57.17,108.78Z" transform="translate(0 0)"/><path class="cls-31" d="M54.17,107.47c3.14-6.11,2.3-12.88,2.46-19.3.44-21.12.12-42.26.17-63.4,0-5.23.08-10.4-1.09-15.31A43.54,43.54,0,0,1,69.55,4.23c.4,7.38.76,14.81.77,22.22q0,32.06,0,64.13c0,8.35,0,16.43-3,24.37A42.34,42.34,0,0,1,54.17,107.47Z" transform="translate(0 0)"/><path class="cls-32" d="M51.15,106.21c3.31-6.22,2.42-13.14,2.6-19.69.48-20.1.13-40.22.18-60.34,0-5.37.09-10.68-1.4-15.75A45.15,45.15,0,0,1,66.76,4.67c.72,7.65.83,15.37.84,23.07q0,30.25,0,60.51c0,8.79.28,17.44-3,25.83A43,43,0,0,1,51.15,106.21Z" transform="translate(0 0)"/><path class="cls-33" d="M48.15,104.89c3.48-6.32,2.54-13.41,2.74-20.08.53-19.08.13-38.19.2-57.28,0-5.5.1-11-1.72-16.18A46.78,46.78,0,0,1,64,5.05C65,13,64.9,21,64.91,29q0,28.45,0,56.89c0,9.24.54,18.45-3,27.29A43.61,43.61,0,0,1,48.15,104.89Z" transform="translate(0 0)"/><path class="cls-34" d="M45.15,103.57c3.65-6.43,2.66-13.68,2.87-20.48.57-18.06.14-36.15.22-54.23,0-5.64.11-11.25-2-16.61a48.43,48.43,0,0,1,15-6.82c1.37,8.21,1,16.5,1,24.76q0,26.64,0,53.27c0,9.68.81,19.46-3,28.76A44.28,44.28,0,0,1,45.15,103.57Z" transform="translate(0 0)"/><path class="cls-33" d="M49.27,11.89a47.66,47.66,0,0,1,15-6.29,124.23,124.23,0,0,1,.86,13.13c.05,3.92,0,7.84,0,11.76q0,26.82,0,53.64c0,7.65.48,15.36-1.08,22.85a32.78,32.78,0,0,1-1.84,6.11,44,44,0,0,1-13.94-8.47,23.08,23.08,0,0,0,2.59-9.37c.33-3.81.1-7.69.21-11.45.55-18.34.14-36.71.22-55.07,0-2.85,0-5.69-.19-8.5a27.92,27.92,0,0,0-.78-5C49.94,14.11,49.66,13,49.27,11.89Z" transform="translate(0 0)"/><path class="cls-32" d="M52.33,11.53A46.91,46.91,0,0,1,67.25,5.76c.32,4.32.66,8.79.71,13.19,0,3.95,0,7.9,0,11.84q0,27,0,54c0,7.7.46,15.46-1,23A29.81,29.81,0,0,1,65.07,114a43.63,43.63,0,0,1-13.81-8.28,23.89,23.89,0,0,0,2.52-9.54c.32-3.87.1-7.81.2-11.62.53-18.62.13-37.27.21-55.91,0-2.89,0-5.78-.19-8.63a24.53,24.53,0,0,0-.79-5C52.87,13.75,52.65,12.64,52.33,11.53Z" transform="translate(0 0)"/><path class="cls-31" d="M55.38,11.17A46.21,46.21,0,0,1,70.27,5.92c.11,4.31.51,8.83.56,13.25,0,4,0,7.95,0,11.92q0,27.18,0,54.36c0,7.76.44,15.56-1,23.17A27.39,27.39,0,0,1,68,114.82a43.32,43.32,0,0,1-13.67-8.09A24.73,24.73,0,0,0,56.77,97c.3-3.93.09-7.92.2-11.8.51-18.9.13-37.83.2-56.75,0-2.94,0-5.87-.18-8.76a22.06,22.06,0,0,0-.79-5.11C55.8,13.39,55.64,12.29,55.38,11.17Z" transform="translate(0 0)"/><path class="cls-30" d="M58.43,10.81A45.54,45.54,0,0,1,73.29,6.09c-.09,4.3.36,8.87.4,13.3,0,4,0,8,0,12q0,27.36,0,54.73c0,7.81.42,15.66-.94,23.33a25.39,25.39,0,0,1-1.8,6.24,43,43,0,0,1-13.54-7.89,25.59,25.59,0,0,0,2.39-9.87c.29-4,.09-8,.19-12,.49-19.18.12-38.39.19-57.59,0-3,0-6-.17-8.89a20.2,20.2,0,0,0-.8-5.18A22.4,22.4,0,0,1,58.43,10.81Z" transform="translate(0 0)"/><path class="cls-29" d="M61.48,10.45A44.92,44.92,0,0,1,76.3,6.25c-.29,4.29.21,8.91.25,13.36,0,4,0,8.06,0,12.08q0,27.55,0,55.09c0,7.86.4,15.76-.9,23.49a23.7,23.7,0,0,1-1.78,6.28,42.71,42.71,0,0,1-13.4-7.7,26.48,26.48,0,0,0,2.33-10c.28-4,.09-8.15.18-12.15.47-19.46.12-39,.18-58.43,0-3,0-6-.16-9A18.74,18.74,0,0,0,62.13,14,15,15,0,0,1,61.48,10.45Z" transform="translate(0 0)"/><path class="cls-28" d="M64.53,10.09A44.34,44.34,0,0,1,79.32,6.41c-.5,4.28.06,8.95.09,13.41,0,4.05,0,8.11,0,12.16q0,27.73,0,55.45c0,7.91.39,15.86-.85,23.65a22.25,22.25,0,0,1-1.76,6.32,42.41,42.41,0,0,1-13.27-7.51,27.41,27.41,0,0,0,2.26-10.19c.27-4.1.08-8.26.18-12.32.45-19.75.12-39.51.18-59.27,0-3.07,0-6.12-.16-9.15a17.57,17.57,0,0,0-.82-5.32A11.27,11.27,0,0,1,64.53,10.09Z" transform="translate(0 0)"/><path class="cls-27" d="M67.55,9.73A43.8,43.8,0,0,1,82.3,6.57c-.7,4.27-.09,9-.06,13.47,0,4.08,0,8.16,0,12.24q0,27.91,0,55.82c0,8,.37,16-.81,23.81a21,21,0,0,1-1.75,6.37A42.12,42.12,0,0,1,66.48,111a28.36,28.36,0,0,0,2.2-10.36c.25-4.16.08-8.38.17-12.5C69.27,68.07,69,48,69,28c0-3.11,0-6.21-.15-9.28A16.61,16.61,0,0,0,68,13.3,9,9,0,0,1,67.55,9.73Z" transform="translate(0 0)"/><path class="cls-26" d="M70.52,9.37A43.31,43.31,0,0,1,85.24,6.74c-.9,4.26-.24,9-.21,13.53,0,4.11,0,8.21,0,12.32q0,28.09,0,56.18c0,8,.35,16.07-.77,24a19.92,19.92,0,0,1-1.73,6.41,41.84,41.84,0,0,1-13-7.13,29.34,29.34,0,0,0,2.13-10.52c.24-4.22.08-8.49.16-12.67.41-20.31.11-40.64.16-61,0-3.15,0-6.3-.14-9.42A15.82,15.82,0,0,0,70.92,13,7.58,7.58,0,0,1,70.52,9.37Z" transform="translate(0 0)"/><path class="cls-25" d="M73.49,9A42.87,42.87,0,0,1,88.17,6.91c-1.1,4.25-.39,9.06-.37,13.58,0,4.13,0,8.27-.05,12.4q0,28.27,0,56.55c0,8.06.33,16.17-.72,24.12A19,19,0,0,1,85.29,120a41.57,41.57,0,0,1-12.86-6.94,30.35,30.35,0,0,0,2.06-10.69c.23-4.28.07-8.61.15-12.85.39-20.59.1-41.2.15-61.8,0-3.19,0-6.38-.13-9.55a15.15,15.15,0,0,0-.85-5.54A6.55,6.55,0,0,1,73.49,9Z" transform="translate(0 0)"/><path class="cls-24" d="M76.46,8.69A42.48,42.48,0,0,1,91.11,7.1c-1.31,4.24-.54,9.1-.52,13.64,0,4.16,0,8.32-.06,12.48q-.05,28.45,0,56.91c0,8.12.31,16.27-.68,24.28a18.13,18.13,0,0,1-1.7,6.5,41.3,41.3,0,0,1-12.73-6.75,31.39,31.39,0,0,0,2-10.85c.22-4.34.07-8.72.15-13,.37-20.87.1-41.76.14-62.64,0-3.24,0-6.47-.13-9.68-.09-1.9,0-3.85-.86-5.62A5.79,5.79,0,0,1,76.46,8.69Z" transform="translate(0 0)"/><path class="cls-23" d="M79.43,8.39A42.14,42.14,0,0,1,94,7.33c-1.51,4.23-.69,9.14-.67,13.69,0,4.19-.05,8.37-.06,12.56q-.06,28.64,0,57.27c0,8.17.3,16.37-.63,24.44A17.38,17.38,0,0,1,91,121.84a41,41,0,0,1-12.59-6.56,32.46,32.46,0,0,0,1.93-11c.2-4.4.07-8.84.14-13.2.35-21.15.09-42.32.14-63.48,0-3.28,0-6.55-.12-9.81-.08-1.92,0-3.91-.86-5.69A5.22,5.22,0,0,1,79.43,8.39Z" transform="translate(0 0)"/><path class="cls-22" d="M82.4,8.12A41.85,41.85,0,0,1,97,7.59c-1.71,4.22-.84,9.18-.83,13.75,0,4.21-.05,8.43-.06,12.64q-.07,28.82,0,57.64c0,8.22.28,16.47-.59,24.6a16.71,16.71,0,0,1-1.67,6.58,40.79,40.79,0,0,1-12.46-6.36C82.77,112.8,83,109,83.2,105.25c.19-4.46.07-9,.13-13.38.33-21.43.09-42.88.13-64.32,0-3.32,0-6.64-.11-9.94-.08-1.95,0-4-.87-5.76C81.72,10.34,82.15,9.28,82.4,8.12Z" transform="translate(0 0)"/><path class="cls-21" d="M85.37,7.88a41.61,41.61,0,0,1,14.54,0c-1.92,4.21-1,9.22-1,13.8,0,4.24-.05,8.48-.07,12.72q-.08,29,0,58c0,8.27.26,16.57-.55,24.76a16.1,16.1,0,0,1-1.65,6.63,40.55,40.55,0,0,1-12.32-6.17c1.42-3.68,1.65-7.52,1.8-11.34.18-4.51.06-9.07.13-13.55.31-21.71.08-43.44.12-65.16,0-3.36,0-6.72-.1-10.07-.07-2,.06-4-.88-5.84C84.56,10.1,85.06,9,85.37,7.88Z" transform="translate(0 0)"/><path class="cls-21" d="M88.34,7.67a41.43,41.43,0,0,1,14.51.51c-2.12,4.2-1.14,9.26-1.13,13.86,0,4.27-.06,8.53-.07,12.8q-.09,29.18,0,58.36c0,8.32.24,16.67-.5,24.92a15.55,15.55,0,0,1-1.64,6.67,40.32,40.32,0,0,1-12.19-6c1.4-3.74,1.6-7.63,1.74-11.51.16-4.57.06-9.18.12-13.73.29-22,.08-44,.11-66,0-3.41,0-6.81-.1-10.2-.07-2,.09-4.08-.89-5.91C87.41,9.89,88,8.83,88.34,7.67Z" transform="translate(0 0)"/><path class="cls-20" d="M91.32,7.48a41.3,41.3,0,0,1,14.47,1c-2.32,4.19-1.29,9.3-1.29,13.92,0,4.29-.06,8.59-.07,12.88q-.1,29.36,0,58.73c0,8.37.22,16.77-.46,25.08a15.06,15.06,0,0,1-1.62,6.72A40.1,40.1,0,0,1,90.25,120c1.38-3.8,1.54-7.74,1.67-11.67.15-4.63.06-9.29.11-13.9.27-22.27.08-44.56.1-66.84,0-3.45,0-6.9-.09-10.33-.06-2,.12-4.14-.9-6C90.25,9.7,90.89,8.65,91.32,7.48Z" transform="translate(0 0)"/><path class="cls-19" d="M94.29,7.32a41.23,41.23,0,0,1,14.44,1.56c-2.53,4.18-1.44,9.34-1.44,14,0,4.32-.06,8.64-.08,13q-.11,29.55-.05,59.09c0,8.43.21,16.87-.41,25.23-.17,2.33-.34,4.64-1.6,6.76a39.89,39.89,0,0,1-11.92-5.6c1.36-3.86,1.49-7.86,1.6-11.83.14-4.69.05-9.41.1-14.08.25-22.56.07-45.12.1-67.68,0-3.49,0-7-.08-10.46-.06-2.05.15-4.2-.91-6.05C93.1,9.54,93.8,8.49,94.29,7.32Z" transform="translate(0 0)"/><path class="cls-18" d="M97.26,7.18a41.22,41.22,0,0,1,14.4,2.08c-2.73,4.17-1.59,9.38-1.6,14,0,4.35-.06,8.69-.08,13q-.12,29.73-.06,59.46c0,8.48.19,17-.37,25.39-.15,2.35-.29,4.68-1.59,6.8a39.69,39.69,0,0,1-11.78-5.41c1.34-3.91,1.43-8,1.54-12,.13-4.75.05-9.52.1-14.25.22-22.84.07-45.68.09-68.53,0-3.54,0-7.07-.07-10.59,0-2.08.18-4.25-.92-6.13C95.94,9.4,96.71,8.36,97.26,7.18Z" transform="translate(0 0)"/><path class="cls-17" d="M100.23,7.07a41.25,41.25,0,0,1,14.37,2.6c-2.93,4.16-1.74,9.42-1.75,14.08,0,4.37-.06,8.75-.08,13.12q-.12,29.91-.06,59.82c0,8.53.17,17.07-.32,25.55-.14,2.36-.25,4.72-1.57,6.85a39.5,39.5,0,0,1-11.65-5.22c1.32-4,1.38-8.08,1.47-12.16.11-4.81,0-9.64.09-14.43.2-23.12.06-46.24.08-69.37,0-3.58,0-7.15-.06-10.72,0-2.1.21-4.31-.92-6.2C98.79,9.29,99.62,8.24,100.23,7.07Z" transform="translate(0 0)"/><path class="cls-16" d="M103.2,7a41.35,41.35,0,0,1,14.33,3.13c-3.13,4.15-1.89,9.46-1.9,14.14,0,4.4-.07,8.8-.09,13.2q-.13,30.09-.06,60.18c0,8.58.15,17.17-.28,25.71-.12,2.38-.2,4.75-1.56,6.89a39.33,39.33,0,0,1-11.51-5c1.3-4,1.32-8.2,1.41-12.33.1-4.87,0-9.75.08-14.6.18-23.4.06-46.8.07-70.21,0-3.62,0-7.24-.06-10.85,0-2.13.24-4.36-.93-6.27C101.63,9.19,102.54,8.15,103.2,7Z" transform="translate(0 0)"/><path class="cls-15" d="M106.18,6.87a41.5,41.5,0,0,1,14.3,3.65c-3.34,4.14-2,9.5-2.06,14.2,0,4.43-.07,8.85-.09,13.28-.1,20.18-.08,40.36-.07,60.55,0,8.63.13,17.28-.24,25.87-.1,2.4-.16,4.79-1.54,6.93a39.17,39.17,0,0,1-11.38-4.83c1.28-4.09,1.27-8.31,1.34-12.49.09-4.93,0-9.87.08-14.78.16-23.68.05-47.37.06-71,0-3.66,0-7.33,0-11,0-2.15.27-4.42-.94-6.35C104.49,9.09,105.46,8.05,106.18,6.87Z" transform="translate(0 0)"/><path class="cls-14" d="M109.2,6.77a41.7,41.7,0,0,1,14.26,4.17c-3.54,4.13-2.18,9.54-2.21,14.25,0,4.45-.07,8.91-.09,13.36-.1,20.3-.09,40.61-.07,60.91,0,8.68.12,17.38-.19,26-.08,2.42-.12,4.83-1.52,7a39,39,0,0,1-11.24-4.64c1.26-4.14,1.21-8.42,1.28-12.65.08-5,0-10,.07-15,.14-24,0-47.93.06-71.89,0-3.71,0-7.41,0-11.11,0-2.18.3-4.48-1-6.42S108.42,8,109.2,6.77Z" transform="translate(0 0)"/><path class="cls-13" d="M112.21,6.67a42,42,0,0,1,14.23,4.7c-3.74,4.12-2.33,9.58-2.36,14.31,0,4.48-.07,9-.1,13.44-.11,20.42-.09,40.85-.07,61.27,0,8.73.1,17.48-.15,26.19-.07,2.44-.07,4.86-1.51,7a38.91,38.91,0,0,1-11.11-4.45c1.25-4.2,1.16-8.53,1.21-12.82.06-5,0-10.1.06-15.13.12-24.24,0-48.49,0-72.73,0-3.75,0-7.5,0-11.24,0-2.2.33-4.53-1-6.49S111.38,7.86,112.21,6.67Z" transform="translate(0 0)"/><path class="cls-12" d="M115.23,6.57a42.27,42.27,0,0,1,14.19,5.22c-3.95,4.11-2.48,9.62-2.52,14.36,0,4.51-.07,9-.1,13.52-.11,20.55-.1,41.09-.08,61.64,0,8.79.08,17.58-.1,26.34-.05,2.45,0,4.9-1.49,7.06a38.8,38.8,0,0,1-11-4.26c1.23-4.26,1.1-8.65,1.15-13,.05-5.1,0-10.21.06-15.31.1-24.52,0-49,0-73.57,0-3.79,0-7.58,0-11.37,0-2.23.36-4.59-1-6.56S114.34,7.77,115.23,6.57Z" transform="translate(0 0)"/><path class="cls-11" d="M118.25,6.47a42.64,42.64,0,0,1,14.16,5.74c-4.15,4.1-2.63,9.66-2.67,14.42q-.06,6.8-.1,13.6c-.12,20.67-.1,41.33-.08,62,0,8.84.06,17.68-.06,26.5,0,2.47,0,4.93-1.48,7.11a38.71,38.71,0,0,1-10.84-4.07c1.21-4.31,1-8.76,1.08-13.15,0-5.16,0-10.33,0-15.48.08-24.8,0-49.61,0-74.41,0-3.84,0-7.67,0-11.5,0-2.26.39-4.64-1-6.64S117.3,7.67,118.25,6.47Z" transform="translate(0 0)"/><path class="cls-10" d="M121.27,6.37a43,43,0,0,1,14.12,6.27c-4.35,4.09-2.78,9.7-2.82,14.48q-.06,6.84-.11,13.68c-.12,20.79-.11,41.58-.08,62.37,0,8.89,0,17.78,0,26.66,0,2.49.06,5-1.46,7.15a38.64,38.64,0,0,1-10.7-3.88c1.19-4.37,1-8.87,1-13.31,0-5.22,0-10.44,0-15.66q.09-37.63,0-75.25,0-5.82,0-11.63c0-2.28.41-4.69-1-6.71S120.26,7.58,121.27,6.37Z" transform="translate(0 0)"/><path class="cls-9" d="M138.38,13.06c-4.56,4.08-2.93,9.74-3,14.53-.33,34.43-.18,68.87-.17,103.31,0,2.51.11,5-1.44,7.2a38.59,38.59,0,0,1-10.57-3.69c1.17-4.43.94-9,.95-13.48q.14-51.84,0-103.69c0-2.31.45-4.75-1-6.78s0-3,1.07-4.19A43.51,43.51,0,0,1,138.38,13.06Z" transform="translate(0 0)"/><path class="cls-10" d="M121.39,6.17a42.56,42.56,0,0,1,13.95,6.34c-3.24,3.14-3.21,7.14-3,11,.07,1.2.15,2.38.14,3.51-.29,31.64-.19,63.28-.16,94.92,0,2.66,0,5.32,0,8,0,2.5.11,5-1.32,7.17a39.05,39.05,0,0,1-10.72-3.75c1.18-4.39,1-8.91,1-13.36,0-7.12,0-14.24.06-21.36q0-31.83,0-63.66,0-8.94,0-17.87c0-2.29.42-4.71-1-6.74S120.38,7.38,121.39,6.17Z" transform="translate(0 0)"/><path class="cls-11" d="M118.49,6.06a41.63,41.63,0,0,1,13.81,5.89c-3,3.16-3.06,7.14-2.84,11,.07,1.19.14,2.36.13,3.5-.27,31.51-.18,63-.15,94.55,0,2.65,0,5.3,0,8,0,2.49.12,5-1.2,7.15a39.52,39.52,0,0,1-10.88-3.82c1.19-4.35,1.05-8.83,1.1-13.24.08-7.06.06-14.13.07-21.19q0-31.58,0-63.16c0-5.91,0-11.82,0-17.73,0-2.27.4-4.68-.94-6.69S117.54,7.28,118.49,6.06Z" transform="translate(0 0)"/><path class="cls-12" d="M115.59,6a40.73,40.73,0,0,1,13.67,5.44c-2.77,3.18-2.91,7.14-2.71,11,.06,1.18.14,2.35.13,3.48-.25,31.39-.16,62.78-.14,94.17,0,2.64,0,5.28,0,7.92,0,2.47.13,4.94-1.08,7.13a40,40,0,0,1-11-3.88c1.21-4.31,1.11-8.75,1.18-13.12.11-7,.07-14,.08-21q0-31.33,0-62.67c0-5.86,0-11.73,0-17.59,0-2.26.37-4.64-.91-6.65S114.7,7.18,115.59,6Z" transform="translate(0 0)"/><path class="cls-13" d="M112.69,5.84a39.84,39.84,0,0,1,13.53,5c-2.54,3.2-2.76,7.14-2.57,11,.06,1.18.13,2.34.12,3.47-.23,31.26-.15,62.53-.14,93.8,0,2.63,0,5.26,0,7.88,0,2.46.14,4.91-1,7.1a40.46,40.46,0,0,1-11.19-3.95c1.22-4.27,1.17-8.67,1.26-13,.13-6.94.09-13.91.1-20.86q0-31.09,0-62.17c0-5.82,0-11.64,0-17.45,0-2.24.35-4.6-.89-6.6S111.86,7.08,112.69,5.84Z" transform="translate(0 0)"/><path class="cls-14" d="M109.84,5.73a39,39,0,0,1,13.39,4.55c-2.3,3.22-2.61,7.14-2.43,10.94.06,1.17.12,2.33.11,3.45-.21,31.14-.14,62.28-.13,93.42,0,2.62-.06,5.24,0,7.85,0,2.45.15,4.89-.83,7.08a40.93,40.93,0,0,1-11.35-4c1.23-4.24,1.23-8.58,1.33-12.89.16-6.89.1-13.79.11-20.69q0-30.84,0-61.68c0-5.77,0-11.54,0-17.31,0-2.22.32-4.56-.86-6.56C108.06,8.06,109.07,7,109.84,5.73Z" transform="translate(0 0)"/><path class="cls-15" d="M107,5.63a38.15,38.15,0,0,1,13.25,4.1C118.19,13,117.8,16.87,118,20.65c.05,1.17.12,2.32.11,3.44-.19,31-.13,62-.12,93.05,0,2.61-.07,5.22-.06,7.82,0,2.44.16,4.87-.71,7.06a41.4,41.4,0,0,1-11.5-4.08c1.25-4.2,1.29-8.5,1.41-12.77.19-6.83.12-13.68.13-20.53q0-30.59,0-61.18c0-5.72,0-11.45,0-17.17,0-2.2.3-4.52-.83-6.51C105.36,8,106.3,6.87,107,5.63Z" transform="translate(0 0)"/><path class="cls-16" d="M104.18,5.52a37.35,37.35,0,0,1,13.11,3.65,20.47,20.47,0,0,0-2.15,10.92c.05,1.16.11,2.31.1,3.43-.17,30.89-.11,61.78-.11,92.68,0,2.6-.08,5.19-.07,7.79,0,2.43.17,4.84-.58,7a41.87,41.87,0,0,1-11.66-4.15c1.26-4.16,1.35-8.42,1.49-12.66.22-6.77.13-13.57.14-20.36q0-30.34,0-60.69c0-5.68,0-11.36,0-17,0-2.19.27-4.48-.8-6.47C102.66,7.88,103.52,6.77,104.18,5.52Z" transform="translate(0 0)"/><path class="cls-17" d="M101.35,5.41a36.57,36.57,0,0,1,13,3.2,23,23,0,0,0-2,10.9c0,1.15.1,2.3.1,3.41-.16,30.77-.1,61.54-.1,92.3,0,2.58-.09,5.17-.08,7.75,0,2.42.18,4.82-.46,7a42.34,42.34,0,0,1-11.81-4.21c1.27-4.12,1.41-8.34,1.56-12.54.25-6.71.14-13.46.15-20.19q0-30.1,0-60.19c0-5.63,0-11.27,0-16.9,0-2.17.25-4.44-.78-6.42C100,7.79,100.75,6.67,101.35,5.41Z" transform="translate(0 0)"/><path class="cls-18" d="M98.52,5.3a35.83,35.83,0,0,1,12.83,2.75,26.43,26.43,0,0,0-1.87,10.89c0,1.15.1,2.29.09,3.4-.14,30.64-.09,61.29-.09,91.93,0,2.57-.1,5.15-.09,7.72a29.93,29.93,0,0,1-.34,7,42.81,42.81,0,0,1-12-4.28c1.29-4.08,1.47-8.26,1.64-12.42.28-6.65.16-13.35.17-20q0-29.85,0-59.7c0-5.59.05-11.17,0-16.76,0-2.15.22-4.4-.75-6.38C97.26,7.7,98,6.56,98.52,5.3Z" transform="translate(0 0)"/><path class="cls-19" d="M95.69,5.19a35.12,35.12,0,0,1,12.69,2.3,31.17,31.17,0,0,0-1.74,10.88c0,1.14.09,2.28.08,3.39-.12,30.52-.07,61-.08,91.56,0,2.56-.12,5.13-.1,7.69a37.68,37.68,0,0,1-.22,7,43.29,43.29,0,0,1-12.12-4.34,46.55,46.55,0,0,0,1.72-12.31c.3-6.59.17-13.23.18-19.86q0-29.6,0-59.21c0-5.54.06-11.08,0-16.62,0-2.14.19-4.36-.72-6.33C94.56,7.62,95.21,6.46,95.69,5.19Z" transform="translate(0 0)"/><path class="cls-19" d="M92.86,5.1A34.45,34.45,0,0,1,105.4,7a38.19,38.19,0,0,0-1.6,10.86c0,1.14.08,2.27.08,3.37-.1,30.39-.06,60.79-.07,91.18,0,2.55-.13,5.11-.11,7.66a51.22,51.22,0,0,1-.09,6.94,43.76,43.76,0,0,1-12.28-4.41,46,46,0,0,0,1.79-12.19c.33-6.54.19-13.12.19-19.69q0-29.36,0-58.71c0-5.49.06-11,0-16.48,0-2.12.16-4.32-.69-6.29C91.86,7.54,92.44,6.38,92.86,5.1Z" transform="translate(0 0)"/><path class="cls-20" d="M90,5a33.82,33.82,0,0,1,12.41,1.4c-.66,3.36-1.57,7.14-1.46,10.85,0,1.13.08,2.26.07,3.36-.08,30.27,0,60.54-.06,90.81,0,2.54-.14,5.09-.12,7.62,0,2.37.21,4.73,0,6.92a44.23,44.23,0,0,1-12.43-4.47,45.4,45.4,0,0,0,1.87-12.07c.36-6.48.2-13,.21-19.52q0-29.11,0-58.22c0-5.45.07-10.9,0-16.34,0-2.1.14-4.28-.67-6.24C89.16,7.49,89.66,6.31,90,5Z" transform="translate(0 0)"/><path class="cls-21" d="M87.2,5a33.22,33.22,0,0,1,12.27,1C99,9.31,98,13.07,98.14,16.76c0,1.13.07,2.25.07,3.35q-.09,45.22-.05,90.44c0,2.53-.15,5.07-.13,7.59,0,2.36.22,4.71.15,6.9-4.36-1.05-8.68-2.22-12.59-4.54a44.83,44.83,0,0,0,1.95-12c.39-6.42.21-12.9.22-19.36q0-28.86,0-57.72c0-5.4.07-10.8,0-16.2,0-2.09.11-4.24-.64-6.2A6.17,6.17,0,0,1,87.2,5Z" transform="translate(0 0)"/><path class="cls-22" d="M84.37,4.93a32.67,32.67,0,0,1,12.12.51c-.19,3.41-1.28,7.14-1.18,10.82,0,1.12.06,2.23.06,3.33q-.06,45,0,90.06c0,2.52-.16,5-.14,7.56,0,2.35.23,4.68.28,6.87-4.41-1.08-8.8-2.25-12.75-4.6a44.27,44.27,0,0,0,2-11.84c.42-6.36.23-12.79.23-19.19q0-28.61,0-57.23c0-5.35.08-10.71,0-16.06A19.62,19.62,0,0,0,84.32,9,7,7,0,0,1,84.37,4.93Z" transform="translate(0 0)"/><path class="cls-23" d="M81.53,4.92a32.17,32.17,0,0,1,12,.06c0,3.43-1.13,7.14-1,10.81,0,1.11.06,2.22.05,3.32q0,44.84,0,89.69c0,2.51-.18,5-.15,7.52,0,2.34.24,4.66.4,6.85-4.46-1.1-8.91-2.27-12.9-4.67a43.73,43.73,0,0,0,2.1-11.72c.45-6.3.24-12.68.25-19q0-28.37,0-56.73c0-5.31.09-10.62,0-15.92A21.33,21.33,0,0,0,81.56,9,8.15,8.15,0,0,1,81.53,4.92Z" transform="translate(0 0)"/><path class="cls-24" d="M78.68,4.93a31.71,31.71,0,0,1,11.84-.39c.29,3.45-1,7.14-.9,10.8,0,1.11,0,2.21,0,3.3q0,44.66,0,89.32c0,2.5-.19,5-.17,7.49a59.68,59.68,0,0,0,.52,6.83c-4.51-1.13-9-2.29-13.06-4.74a43.19,43.19,0,0,0,2.18-11.6c.47-6.25.25-12.56.26-18.86q0-28.12,0-56.24c0-5.26.09-10.53,0-15.78A23.48,23.48,0,0,0,78.78,9,9.74,9.74,0,0,1,78.68,4.93Z" transform="translate(0 0)"/><path class="cls-25" d="M75.81,5a31.29,31.29,0,0,1,11.7-.84c.52,3.47-.83,7.14-.77,10.78,0,1.1,0,2.2,0,3.29q0,44.47,0,88.94c0,2.49-.2,5-.18,7.46a41.56,41.56,0,0,0,.64,6.8c-4.56-1.16-9.13-2.31-13.21-4.8a42.66,42.66,0,0,0,2.25-11.49c.5-6.19.27-12.45.28-18.69q0-27.87,0-55.74c0-5.21.1-10.43,0-15.64A26.29,26.29,0,0,0,76,9,12.11,12.11,0,0,1,75.81,5Z" transform="translate(0 0)"/><path class="cls-26" d="M72.93,5A30.93,30.93,0,0,1,84.5,3.73c.76,3.49-.68,7.14-.63,10.77,0,1.1,0,2.19,0,3.28q.05,44.28,0,88.57c0,2.48-.21,5-.19,7.43a31.93,31.93,0,0,0,.77,6.78c-4.62-1.18-9.25-2.33-13.37-4.87a42.13,42.13,0,0,0,2.33-11.37c.53-6.13.28-12.34.29-18.52q0-27.62,0-55.25c0-5.17.11-10.34,0-15.5a30.07,30.07,0,0,0-.5-6A16,16,0,0,1,72.93,5Z" transform="translate(0 0)"/><path class="cls-27" d="M70,5.1A30.63,30.63,0,0,1,81.47,3.36c1,3.51-.53,7.14-.49,10.76,0,1.09,0,2.18,0,3.26q.08,44.1,0,88.2c0,2.46-.22,4.94-.2,7.39a26,26,0,0,0,.89,6.76c-4.67-1.21-9.36-2.35-13.52-4.93a41.62,41.62,0,0,0,2.41-11.25c.56-6.07.3-12.23.3-18.36q0-27.38,0-54.76c0-5.12.11-10.25-.05-15.36a35.48,35.48,0,0,0-.48-5.92A23.48,23.48,0,0,1,70,5.1Z" transform="translate(0 0)"/><path class="cls-28" d="M67.14,5.2A30.37,30.37,0,0,1,78.42,3c1.23,3.53-.38,7.14-.35,10.75,0,1.09,0,2.17,0,3.25q.11,43.91,0,87.82c0,2.45-.24,4.92-.21,7.36a21.94,21.94,0,0,0,1,6.73c-4.72-1.24-9.47-2.37-13.68-5a41.11,41.11,0,0,0,2.48-11.14c.59-6,.31-12.12.32-18.19q0-27.13,0-54.26c0-5.07.12-10.16-.05-15.22a43.79,43.79,0,0,0-.45-5.88C67.29,7.84,67.24,6.53,67.14,5.2Z" transform="translate(0 0)"/><path class="cls-29" d="M64.18,5.32A30.17,30.17,0,0,1,75.32,2.68c1.46,3.55-.24,7.14-.21,10.73q0,1.62,0,3.24.14,43.72,0,87.45c0,2.44-.25,4.9-.22,7.33a19,19,0,0,0,1.14,6.71c-4.77-1.26-9.58-2.39-13.83-5.06a40.62,40.62,0,0,0,2.56-11c.62-6,.32-12,.33-18q0-26.88,0-53.77c0-5,.12-10.06-.06-15.08a58.19,58.19,0,0,0-.42-5.83C64.45,8,64.34,6.65,64.18,5.32Z" transform="translate(0 0)"/><path class="cls-30" d="M59.23,112.22c3.79-9.3,3-19.07,3-28.76q0-26.64,0-53.27c0-8.27.37-16.55-1-24.76a30,30,0,0,1,11-3.08c1.7,3.57-.09,7.14-.07,10.72q.19,45.15,0,90.3c0,4.7-1,9.44,1,14C68.41,116.06,63.53,114.94,59.23,112.22Z" transform="translate(0 0)"/><path class="cls-1" d="M31.18,23l-1.07,1.38C30,23.55,30.59,23.28,31.18,23Z" transform="translate(0 0)"/></g></g></svg>