<?xml version="1.0" encoding="utf-8"?>
<!-- Generator: Adobe Illustrator 26.0.1, SVG Export Plug-In . SVG Version: 6.00 Build 0)  -->
<svg version="1.1" id="Layer_1" xmlns="http://www.w3.org/2000/svg" xmlns:xlink="http://www.w3.org/1999/xlink" x="0px" y="0px"
	 viewBox="0 0 24.9 24" style="enable-background:new 0 0 24.9 24;" xml:space="preserve">
<style type="text/css">
	.st0{fill:#1A1A1D;}
</style>
<g>
	<path class="st0" d="M12.5,17.9c1,0,2-0.3,3-0.8c2.8-1.6,3.8-5.3,2.2-8.1c-1.6-2.8-5.3-3.8-8.1-2.2c-1.4,0.8-2.3,2.1-2.8,3.6
		c-0.4,1.5-0.2,3.1,0.6,4.5C8.4,16.9,10.4,17.9,12.5,17.9z M8.6,11c0.3-1,0.9-1.9,1.9-2.4c0.6-0.4,1.3-0.5,2-0.5
		c1.4,0,2.7,0.7,3.5,2c1.1,1.9,0.4,4.4-1.5,5.5S10.1,16,9,14.1C8.5,13.1,8.3,12,8.6,11z"/>
	<g>
		<path class="st0" d="M19.1,8.1c0.8,1.3,2,2.3,3.5,2.7c0.5,0.1,1,0.2,1.5,0.2c0.3,0,0.5,0,0.8-0.1c-0.1-0.6-0.2-1.2-0.3-1.9
			c-0.5,0.1-1,0-1.5-0.1c-1-0.3-1.8-0.9-2.4-1.8c-0.5-0.9-0.7-1.9-0.4-2.9c0.1-0.5,0.4-0.9,0.7-1.3c-0.5-0.4-0.9-0.8-1.5-1.2
			c-0.5,0.6-0.8,1.3-1,2C18.1,5.3,18.3,6.8,19.1,8.1z"/>
		<path class="st0" d="M22.6,13.2c-1.5,0.4-2.7,1.3-3.5,2.7c-0.8,1.3-1,2.9-0.6,4.4c0.2,0.8,0.6,1.4,1,2c0.5-0.4,1-0.8,1.5-1.2
			c-0.3-0.4-0.5-0.8-0.7-1.3c-0.3-1-0.1-2,0.4-2.9s1.4-1.5,2.4-1.8c0.5-0.1,1-0.2,1.5-0.1c0.1-0.6,0.2-1.2,0.3-1.9
			C24.1,12.9,23.4,13,22.6,13.2z"/>
		<path class="st0" d="M12.4,21.6c1.6,0,3,1,3.6,2.4c0.6-0.2,1.2-0.4,1.8-0.7c-0.9-2.1-2.9-3.6-5.3-3.6S8,21.2,7.2,23.3
			C7.8,23.6,8.4,23.8,9,24C9.5,22.6,10.8,21.6,12.4,21.6z"/>
		<path class="st0" d="M12.4,4.3c2.4,0,4.5-1.5,5.3-3.6c-0.6-0.3-1.1-0.5-1.8-0.7c-0.6,1.4-2,2.4-3.6,2.4s-3-1-3.6-2.4
			C8.1,0.2,7.5,0.4,6.9,0.7C8,2.8,10,4.3,12.4,4.3z"/>
		<path class="st0" d="M5.8,15.9c-0.8-1.3-2-2.3-3.5-2.7C1.5,13,0.8,13,0,13.1c0.1,0.6,0.2,1.2,0.3,1.9c0.2,0,0.3,0,0.5,0
			c0.3,0,0.7,0,1,0.1c1,0.3,1.8,0.9,2.4,1.8C5,18.3,4.8,20,3.9,21.2c0.5,0.4,0.9,0.8,1.5,1.2C6.7,20.5,7,17.9,5.8,15.9z"/>
		<path class="st0" d="M2.3,10.8C3.8,10.4,5,9.5,5.8,8.1c0.8-1.3,1-2.9,0.6-4.4c-0.2-0.8-0.6-1.4-1-2C4.8,2.1,4.3,2.5,3.9,2.9
			c0.3,0.4,0.5,0.8,0.7,1.3c0.3,1,0.1,2-0.4,2.9S2.8,8.6,1.8,8.9C1.3,9,0.8,9.1,0.3,9C0.2,9.6,0.1,10.2,0,10.9
			c0.3,0,0.5,0.1,0.8,0.1C1.3,11,1.8,11,2.3,10.8z"/>
	</g>
</g>
</svg>
