<svg id="Layer_1" data-name="Layer 1" xmlns="http://www.w3.org/2000/svg" viewBox="0 0 71.13 70.52"><title>litecoin-cash-lcc-logo</title><polygon points="6.67 66.72 0 47.5 12.66 32.85 6.54 15.42 19.87 0 39.88 3.82 46.06 21.58 64.49 25.14 71.13 44.39 57.84 59.76 39.11 56.13 26.74 70.52 6.67 66.72" style="fill:#fff"/><polygon points="44.45 23.43 62.88 26.99 68.72 43.93 57.04 57.45 38.3 53.81 25.93 68.21 8.27 64.86 2.4 47.96 15.07 33.3 8.95 15.88 20.68 2.31 38.28 5.67 44.45 23.43" style="fill:none"/><path d="M36,50.07L33.58,51.4a14.81,14.81,0,0,1,.85,2.27c0.24,0.68.22,0.41-.62,1.36-0.15.17-.17,0.22-0.36,0.42l-2.52,2.87c-0.17.17-.17,0.3-0.33,0.45l-0.34.39a2.46,2.46,0,0,0-.37.41l-0.75.82a2.06,2.06,0,0,1-.42.51l-2.43,2.79c-0.17.18-1.36,1.62-1.48,1.64l-14.5-2.79a0.52,0.52,0,0,1,.27-0.31c0.09-.1.08-0.2,0.23-0.37L11,61.68a0.5,0.5,0,0,0,.08-0.12,3.47,3.47,0,0,1,.32-0.34c0.11-.12.14-0.21,0.26-0.33a0.49,0.49,0,0,0,.17-0.15l3.61-4.21a0.77,0.77,0,0,0,.28-0.31,1.24,1.24,0,0,1,.32-0.33c0.2-.22.07-0.19,0.24-0.36l1.17-1.32a1.52,1.52,0,0,1,.31-0.35l1.74-2c0.71-1,.59,0-0.54-3.46-0.4-1.23-.89-2.48-1.27-3.71-0.77-2.47-1.84-5-2.57-7.43l4.57,0.88a11.75,11.75,0,0,0,.85-1.07,1.41,1.41,0,0,0,.56-1.32l-7-1.38c-0.47.7-4,4.55-4.82,5.61l-0.73.84h0L3.05,47.18a4.13,4.13,0,0,1-.34.39c-0.35.39-.21,0.56,0.18,1.56l1.56,4.49c0.24,0.72.54,1.49,0.78,2.23,0.5,1.49,1,2.92,1.53,4.45l1.55,4.48,4.4,0.85c1.48,0.3,3,.56,4.4.86l2.2,0.42c1.31,0.24,6,1.22,6.66,1.22a1.14,1.14,0,0,1,.31-0.41l6.2-7.19c0.6-.6,1.9-2.24,2.56-3,0.16-.17.22-0.26,0.36-0.43l2.18-2.54a4.26,4.26,0,0,0-.18-0.54l-1.23-3.38a4.08,4.08,0,0,1-.2-0.62" style="fill:#3ab54a"/><path d="M23.62,10.44c-0.18.21-6,3.46-6.81,4-0.42.26-1,.37-0.91,0.83l1.76,7.18c0.44,1.87,1,3.79,1.44,5.65A22.5,22.5,0,0,1,19.79,31a18.75,18.75,0,0,1,.77,2.85L20.86,34,21.25,34l10.46,2a4.1,4.1,0,0,0,.78.13,9.52,9.52,0,0,1,.89-1.07c0.31-.4.62-0.67,0.9-1.09-0.18-.69-0.37-1.33-0.57-2a1,1,0,0,1,.06-1l1.74-2c0.53-.62,1-1,0.83-1.6s-1.54-6-1.83-6.65a7.73,7.73,0,0,0-1.37,1.42c-0.21.27-.44,0.48-0.64,0.74a5,5,0,0,1-.67.71l-2-7.76c-0.2-.81-1.7-7.09-2-7.7Z" style="fill:#fff"/><path d="M48.5,32.84l1.38-.74A27,27,0,0,1,54,30a82,82,0,0,1,2.44,8.73,38.2,38.2,0,0,1-3.64,2.09c-0.61.32-1.19,0.67-1.82,1l-1.79,1a1.87,1.87,0,0,1-.43.58L48,44.17a2,2,0,0,1-.21.32L44.4,48.34a1.12,1.12,0,0,0-.26.27,12.21,12.21,0,0,1-1,1.15l-0.75.82c-0.25.43-.69,0.73-1,1.17L56,54.54l0.56-.68c0.17-.23.17-0.11,0.32-0.32a11.76,11.76,0,0,1,.9-1.08l1.83-2.11A4.6,4.6,0,0,0,59.89,50c0.36-.45.43-0.43,0.89-1.07,0.15-.21.16-0.1,0.33-0.33l0.6-.71c0.33-.32.82-1,0.91-1.06l0.92-1.05c0.14-.15.16-0.22,0.29-0.36l1.54-1.75a1.94,1.94,0,0,1,.3-0.33c-0.3-1.11-1.93-5.64-2.42-7C62.85,35.2,62.44,34,62,32.83l-1-3.14A1.69,1.69,0,0,0,61,29.45l-0.15-.22L46.34,26.44Z" style="fill:#02833d"/><path d="M20.56,33.82A18.75,18.75,0,0,0,19.79,31a15.4,15.4,0,0,1-2.58-.46l-0.32-.11L18,29.2a1.45,1.45,0,0,0,.23-0.36,3.08,3.08,0,0,1,.27-0.24A1.56,1.56,0,0,0,19,28a0.13,0.13,0,0,1,.15.09c-0.43-1.86-1-3.78-1.44-5.65l-1.79-7.18a1.24,1.24,0,0,1,.91-0.83c0.8-.49,6.63-3.74,6.81-4a3,3,0,0,1-.53-1.29c-0.43-1.31-1-2.65-1.38-4L36.25,7.91l1.89,5.39c0.56,1.77,1.24,3.6,1.86,5.36,0.33,0.91.62,1.82,0.94,2.73s0.13,0.59-.32,1.16a1.61,1.61,0,0,1-.22.23,1.35,1.35,0,0,0-.2.27l-0.4.45c-0.15.19-.28,0.29-0.43,0.49s-0.27.29-.43,0.49a1.66,1.66,0,0,1-.22.23,2.83,2.83,0,0,1-.43.49,0.69,0.69,0,0,0-.16.23c-0.21.32-.15,0.1-0.43,0.5s-0.12.06-.43,0.49a0.7,0.7,0,0,1-.23.22l-0.57.76a0.41,0.41,0,0,1-.16-0.11c0.12,0.63-.3,1-0.83,1.6l-1.74,2a1,1,0,0,0-.06,1c0.2,0.68.39,1.32,0.57,2a3.66,3.66,0,0,0,.46-0.51l1.87-2.14c1-1.15,2.87-3.43,3.77-4.36a2,2,0,0,0,.24-0.29l3-3.52c0.72-.76.44-0.6-0.31-2.86l-2.61-7.5c-0.19-.53-0.32-1-0.52-1.51-0.51-1.27-1-3.12-1.57-4.54-0.46-1.24-.2-1-0.89-1.14L21.51,2.4a8,8,0,0,0-.9-0.15l-5.14,6-0.17.22-6.17,7.1c-0.33.38,0,.76,0.36,1.84L13,27.55c0.13,0.41.3,0.85,0.44,1.27l1.43,3.87a14.28,14.28,0,0,0,2.78.64Z" style="fill:#3ab54a"/><path d="M34.77,35.79c0.2,0.67.38,1.33,0.56,2A7.28,7.28,0,0,0,36,39.71c1.13-.56,2.11-1.05,3.17-1.65,1.91-1.08,4.41-2.39,6.24-3.48,0.63-.38,2.68-1.41,3.09-1.75l-2.16-6.36,14.53,2.8L61,29.49a1.69,1.69,0,0,1,.08.24l1.06,3.07c0.41,1.18.82,2.37,1.22,3.51,0.49,1.4,2.12,5.93,2.42,7a1.94,1.94,0,0,0-.3.33L64,45.39c-0.13.14-.15,0.21-0.29,0.36L62.75,46.8c-0.09.08-.58,0.74-0.91,1.06l-0.6.71c-0.17.23-.18,0.12-0.33,0.33-0.46.64-.53,0.62-0.89,1.07a4.6,4.6,0,0,1-.31.35l-1.84,2.15a11.76,11.76,0,0,0-.9,1.08c-0.15.21-.15,0.09-0.32,0.32l-0.56.68L41.51,51.76c0.27-.44.71-0.74,1-1.17l0.75-.82c0.34-.44.67-0.74,1-1.15a1.12,1.12,0,0,1,.26-0.27l3.37-3.85a2,2,0,0,0,.21-0.32l0.74-.82a1.44,1.44,0,0,0,.43-0.58L37.86,49.06c0.21,0.81,1.51,4.11,1.71,5l15.41,3c0.39,0.08,1.91.32,2.18,0.45,0.18-.28.51-0.59,0.72-0.86L68.88,44l-1.58-4.3c-0.47-1.17-1.78-5.1-2.2-6.34L62.87,27l-13.2-2.55c-1.46-.3-3-0.53-4.39-0.86A2.31,2.31,0,0,1,45,24l-5,5.73c-0.2.25-.43,0.48-0.65,0.73L35.41,35l-0.69.78" style="fill:#3ab54a"/><path d="M33.58,51.4l-2.71,1.51c-0.28.17-.58,0.34-0.88,0.5-0.6.32-1.21,0.68-1.8,1a10.1,10.1,0,0,1-1.9.92c-0.64-1.67-3.07-11.41-3.38-11.91a10.76,10.76,0,0,0-1.18,1.32c-0.24.26-.39,0.42-0.62,0.69a2.43,2.43,0,0,1-.31.35,2.29,2.29,0,0,0-.27.27A23.23,23.23,0,0,1,19.31,42a19,19,0,0,1-.52-2.11,1.37,1.37,0,0,1,.37-1c0.22-.26.37-0.45,0.58-0.72l-4.57-.88c0.73,2.46,1.8,5,2.57,7.43,0.38,1.23.87,2.48,1.27,3.71,1.13,3.46,1.25,2.5.54,3.46l-7.68,8.92a0.73,0.73,0,0,0-.17.15,3.17,3.17,0,0,1-.26.33,3.47,3.47,0,0,0-.32.34,0.5,0.5,0,0,1-.08.12l-0.21.18c-0.15.17-.09,0.22-0.23,0.37a0.65,0.65,0,0,0-.27.31l14.5,2.79a19.44,19.44,0,0,0,1.48-1.64l2.43-2.82a2.65,2.65,0,0,0,.42-0.51l0.75-.82a2.46,2.46,0,0,1,.37-0.41l0.34-.39c0.16-.15.16-0.28,0.33-0.45l2.52-2.87c0.19-.2.21-0.25,0.36-0.42,0.84-1,.86-0.68.62-1.36a14.81,14.81,0,0,0-.85-2.27" style="fill:#02833d"/><path d="M48.5,32.84c-0.41.34-2.46,1.37-3.09,1.75-1.83,1.09-4.33,2.4-6.24,3.48-1.06.6-2,1.09-3.17,1.65a7.28,7.28,0,0,1-.67-1.92c-0.18-.68-0.36-1.34-0.56-2l-1.16,1.37,4.13,11.9,11.41-6.28,1.79-1c0.63-.33,1.21-0.68,1.82-1A38.2,38.2,0,0,0,56.4,38.7,82,82,0,0,0,54,30a27,27,0,0,0-4.08,2.15Z" style="fill:#fff"/><path d="M19.71,38.18c-0.21.27-.36,0.46-0.58,0.72a1.37,1.37,0,0,0-.37,1A19,19,0,0,0,19.28,42,23.23,23.23,0,0,0,20.5,46.1a2.29,2.29,0,0,1,.27-0.27,2.43,2.43,0,0,0,.31-0.35c0.23-.27.38-0.43,0.62-0.69a10.76,10.76,0,0,1,1.18-1.32c0.31,0.5,2.74,10.24,3.38,11.91a10.1,10.1,0,0,0,1.9-.92c0.59-.33,1.2-0.69,1.8-1,0.3-.16.6-0.33,0.88-0.5l2.74-1.51L36,50.12a4,4,0,0,1-.25-0.71l-4-11.54-9.22-1.8a8.41,8.41,0,0,0-1.36-.23,1.41,1.41,0,0,1-.56,1.32,11.75,11.75,0,0,1-.85,1.07" style="fill:#fff"/><path d="M23.62,10.44L27.8,8.12c0.31,0.61,1.81,6.89,2,7.7l2,7.76a5,5,0,0,0,.67-0.71c0.2-.26.43-0.47,0.64-0.74a7.73,7.73,0,0,1,1.37-1.42c0.29,0.6,1.7,5.89,1.83,6.65a1.11,1.11,0,0,1,.16.11L37,26.71a0.68,0.68,0,0,0,.23-0.22c0.31-.43.22-0.19,0.43-0.49s0.22-.18.43-0.5a0.38,0.38,0,0,1,.16-0.23,3.27,3.27,0,0,0,.43-0.49,0.46,0.46,0,0,0,.22-0.23,4.08,4.08,0,0,1,.43-0.49c0.16-.2.28-0.3,0.43-0.49l0.4-.45a1.35,1.35,0,0,1,.2-0.27,1.61,1.61,0,0,0,.22-0.23c0.45-.57.62-0.32,0.32-1.16s-0.61-1.82-.94-2.73c-0.62-1.76-1.3-3.59-1.86-5.36L36.25,8,21.68,5.17c0.42,1.33,1,2.67,1.38,4a2.91,2.91,0,0,0,.53,1.29" style="fill:#02833d"/><path d="M19.79,31a22.5,22.5,0,0,0-.69-2.92C19.1,28,19,28,19,28a1.56,1.56,0,0,1-.48.64c-0.14.17-.14,0.07-0.27,0.24a0.78,0.78,0,0,1-.23.36l-1.08,1.2,0.32,0.11a15.4,15.4,0,0,0,2.58.46" style="fill:#128241"/></svg>