<svg id="Layer_1" data-name="Layer 1" xmlns="http://www.w3.org/2000/svg" viewBox="0 0 29 32.9"><title>blockcat-small</title><g id="Image-_-BlockCATLogo" data-name="Image-/-BlockCATLogo"><g id="BlockCAT-Logo"><polygon id="Fill-1" points="0 24.8 14.5 32.9 14.5 18.8 0 10.7 0 24.8" style="fill:#ccc"/><polygon id="Fill-2" points="0 10.7 14.5 18.8 29 10.7 14.5 2.6 0 10.7" style="fill:#f2f2f2"/><polygon id="Fill-3" points="14.5 18.8 14.5 32.9 29 24.8 29 10.7 14.5 18.8" style="fill:#e6e6e6"/><polygon id="Fill-4" points="17.4 17.2 14.5 18.8 11.6 17.2 17.4 17.2" style="fill:#686868"/><polygon id="Fill-5" points="14.5 21.7 17.4 17.2 14.5 18.8 14.5 21.7" style="fill:#383838"/><polygon id="Fill-6" points="14.5 21.7 11.6 17.2 14.5 18.8 14.5 21.7"/><polygon id="Fill-7" points="0 0 0 10.7 11.5 11.9 0 0" style="fill:#f2f2f2"/><polygon id="Fill-8" points="29 0 19 10.3 29 10.7 29 0" style="fill:#f2f2f2"/><polygon id="Fill-9" points="26.8 5.3 24.2 8 26.8 9.5 26.8 5.3" style="fill:#383838"/><polygon id="Fill-10" points="2.2 5.5 4.7 8.1 2.2 9.5 2.2 5.5" style="fill:#383838"/></g></g></svg>