<?xml version="1.0" encoding="utf-8"?>
<!-- Generator: Adobe Illustrator 27.0.1, SVG Export Plug-In . SVG Version: 6.00 Build 0)  -->
<svg version="1.1" id="cheth" xmlns="http://www.w3.org/2000/svg" xmlns:xlink="http://www.w3.org/1999/xlink" x="0px" y="0px"
	 viewBox="0 0 500 500" style="enable-background:new 0 0 500 500;" xml:space="preserve">
<style type="text/css">
	.st0{fill:#FFFFFF;}
	.st1{fill:#0052FF;}
	.st2{fill:#6697FF;}
	.st3{fill:#CCDCFF;}
</style>
<path class="st0" d="M250,1C112.5,1,1,112.5,1,250s111.5,249,249,249s249-111.5,249-249S387.5,1,250,1L250,1z"/>
<path class="st1" d="M250,23c30.7,0,60.4,6,88.4,17.8c27,11.4,51.3,27.8,72.2,48.7c20.9,20.9,37.2,45.1,48.7,72.2
	c11.8,28,17.8,57.7,17.8,88.4s-6,60.4-17.8,88.4c-11.4,27-27.8,51.3-48.7,72.2c-20.9,20.9-45.1,37.2-72.2,48.7
	C310.4,471,280.7,477,250,477s-60.4-6-88.4-17.8c-27-11.4-51.3-27.8-72.2-48.7c-20.9-20.9-37.2-45.1-48.7-72.2
	C29,310.4,23,280.7,23,250s6-60.4,17.8-88.4c11.4-27,27.8-51.3,48.7-72.2c20.9-20.9,45.1-37.2,72.2-48.7C189.6,29,219.3,23,250,23
	 M250,1C112.5,1,1,112.5,1,250s111.5,249,249,249s249-111.5,249-249S387.5,1,250,1L250,1z"/>
<polygon class="st2" points="249.9,63 358.7,242.9 250.3,196.6 "/>
<polygon class="st1" points="141.3,242.9 249.9,63 250.3,196.6 "/>
<polygon class="st2" points="249.9,309.3 141.3,242.9 250.3,196.6 "/>
<polygon class="st3" points="358.7,242.9 250.3,196.6 249.9,309.3 "/>
<polygon class="st2" points="249.9,332.1 358.7,267.6 249.9,421 "/>
<polygon class="st1" points="249.9,332.1 141.3,267.6 249.9,421 "/>
</svg>
