<?xml version="1.0" encoding="utf-8"?>
<!-- Generator: Adobe Illustrator 26.0.1, SVG Export Plug-In . SVG Version: 6.00 Build 0)  -->
<svg version="1.1" id="Layer_1" xmlns="http://www.w3.org/2000/svg" xmlns:xlink="http://www.w3.org/1999/xlink" x="0px" y="0px"
	 viewBox="0 0 82.6 82.6" style="enable-background:new 0 0 82.6 82.6;" xml:space="preserve">
<style type="text/css">
	.st0{fill-rule:evenodd;clip-rule:evenodd;fill:#FFFFFF;}
</style>
<g>
	<circle cx="41.3" cy="41.3" r="41.3"/>
	<path class="st0" d="M13.4,55.2c-1.9-4-2.9-8.4-2.9-13.1c0-17.2,13.9-31.1,31.1-31.1c9.6,0,18.1,4.3,23.8,11.1l3.4-2.9
		C62.3,11.4,52.5,6.5,41.6,6.5C21.9,6.5,6,22.4,6,42c0,5.4,1.2,10.5,3.3,15L13.4,55.2L13.4,55.2z"/>
	<path class="st0" d="M41.6,63.1c-11.6,0-21.1-9.4-21.1-21.1c0-11.6,9.4-21.1,21.1-21.1c6.5,0,12.3,2.9,16.2,7.5l3.4-2.9
		c-4.7-5.6-11.7-9.1-19.6-9.1C27.5,16.5,16,27.9,16,42c0,14.1,11.4,25.5,25.5,25.5V63.1L41.6,63.1z"/>
	<path class="st0" d="M49.2,48.4c-1.8,2.2-4.6,3.6-7.7,3.6c-5.5,0-10-4.5-10-10s4.5-10,10-10c3.1,0,5.8,1.4,7.7,3.6l3.8-3.2
		c-2.8-3.3-6.9-5.4-11.5-5.4c-8.3,0-15,6.7-15,15s6.7,15,15,15c4.2,0,8-1.7,10.8-4.6L49.2,48.4L49.2,48.4z"/>
</g>
</svg>
