<?xml version="1.0" encoding="utf-8"?>
<!-- Generator: Adobe Illustrator 26.5.0, SVG Export Plug-In . SVG Version: 6.00 Build 0)  -->
<svg version="1.1" id="chr" xmlns="http://www.w3.org/2000/svg" xmlns:xlink="http://www.w3.org/1999/xlink" x="0px" y="0px"
	 viewBox="0 0 500 500" style="enable-background:new 0 0 500 500;" xml:space="preserve">
<style type="text/css">
	.st0{fill:#FFB0C2;}
	.st1{fill:#CC91F0;}
	.st2{fill:#CC66B8;}
</style>
<path class="st0" d="M338.5,347c-16.8,31.9-50.2,53.6-88.6,53.6c-55.3,0-100.2-45-100.2-100.6c0-55.6,44.9-100.6,100.2-100.6
	c38.4,0,71.8,21.7,88.6,53.6h104.3c-20.9-87.6-99.2-152.8-192.9-152.8c-109.7,0-198.6,89.3-198.6,199.4
	c0,110.1,88.9,199.3,198.6,199.3c93.4,0,171.5-64.8,192.7-152H338.5z"/>
<path class="st1" d="M406.9,178.1c22.4-18.3,36.7-46.3,36.7-77.5c0-55.2-44.6-100-99.6-100c-55,0-99.6,44.8-99.6,100v0.1
	c1.9-0.1,3.7-0.1,5.6-0.1C313.8,100.6,370.6,130.9,406.9,178.1z"/>
<path class="st2" d="M344,200.7c23.9,0,45.8-8.4,62.9-22.5c-36.3-47.2-93-77.5-157-77.5c-1.9,0-3.7,0-5.6,0.1
	C244.4,156,289,200.7,344,200.7z"/>
</svg>
