<?xml version="1.0" encoding="utf-8"?>
<!-- Generator: Adobe Illustrator 27.5.0, SVG Export Plug-In . SVG Version: 6.00 Build 0)  -->
<svg version="1.1" id="Layer_1" xmlns="http://www.w3.org/2000/svg" xmlns:xlink="http://www.w3.org/1999/xlink" x="0px" y="0px"
	 viewBox="0 0 500 500" style="enable-background:new 0 0 500 500;" xml:space="preserve">
<style type="text/css">
	.st0{fill-rule:evenodd;clip-rule:evenodd;fill:url(#SVGID_1_);}
	.st1{fill-rule:evenodd;clip-rule:evenodd;fill:url(#SVGID_00000023968454013969857660000012624058743118559623_);}
	.st2{fill-rule:evenodd;clip-rule:evenodd;fill:url(#SVGID_00000063606244317012990630000014575297859678242205_);}
	.st3{fill-rule:evenodd;clip-rule:evenodd;fill:url(#SVGID_00000137834969462579554400000015351843643862052005_);}
	.st4{fill-rule:evenodd;clip-rule:evenodd;fill:url(#SVGID_00000093146720655960070750000002858691438634200989_);}
</style>
<g>
	
		<linearGradient id="SVGID_1_" gradientUnits="userSpaceOnUse" x1="6.6832" y1="490.369" x2="6.6832" y2="477.9711" gradientTransform="matrix(31.7983 0 0 -21.328 -15.3997 10694.165)">
		<stop  offset="0" style="stop-color:#FF475A"/>
		<stop  offset="1" style="stop-color:#FF9A89"/>
	</linearGradient>
	<path class="st0" d="M0.6,235.6c35.4,38.1,97.9,68.7,186.1,91.5l8.1,2.1l8.2,2l8.4,2l3.7,0.8l7.2,1.7l8.8,2.2l8.6,2.2l6.7,1.8
		l6.6,1.8l6.4,1.8l6.2,1.8l6.1,1.8l6,1.8l2.9,0.9l5.8,1.9l4.2,1.4l4.1,1.4l6.7,2.4l1.3,0.5l6.4,2.4l6.2,2.4l2.4,1l4.7,1.9l2.3,1
		l4.5,2c25.1,11.1,43.1,22.8,53.9,34.8c15.8,17.6,15.4,36.2-4.1,60c-35.9,21.5-76.6,33.7-118.4,35.4c-3.9-9.5-9.7-19.5-17.3-29.9
		c-4.2-5.7-8.7-11.2-13.4-16.6l-2.5-2.9L224,447l-3.5-3.7l-3.6-3.7c-5.8-5.9-12.2-12-19-18.3l-3.5-3.1l-4.6-4l-4.7-4.1l-4.8-4.1
		l-5-4.2l-2.5-2.1l-5.2-4.2l-5.3-4.3l-6.9-5.4l-7.1-5.5l-5.8-4.4l-6-4.5l-6.1-4.5l-7.8-5.7l-8.1-5.8l-6.6-4.7l-6.8-4.7l-6.9-4.8
		L83.5,334l-7.3-4.9l-7.4-4.9l-7.5-5l-9.6-6.3l-9.9-6.3l-12.1-7.7l-8.3-5.2l-12.6-7.9l-7.1-4.4c-1.6-13.8-2.1-27.6-1.4-41.5
		L0.6,235.6L0.6,235.6z"/>
	
		<linearGradient id="SVGID_00000119796931762524300530000007646692131602188726_" gradientUnits="userSpaceOnUse" x1="7.4643" y1="478.0659" x2="7.4643" y2="465.668" gradientTransform="matrix(16.675 0 0 -13.572 -6.6745 6820.0425)">
		<stop  offset="0" style="stop-color:#FF9A89"/>
		<stop  offset="1" style="stop-color:#FF475A"/>
	</linearGradient>
	<path style="fill-rule:evenodd;clip-rule:evenodd;fill:url(#SVGID_00000119796931762524300530000007646692131602188726_);" d="
		M14.4,331.7l4.3,2.7l11.6,7.4l7.6,4.9l7.4,4.8l7.3,4.8l7.1,4.8l7,4.7l6.8,4.7l6.7,4.6l6.6,4.6l6.4,4.5l6.3,4.5l6.1,4.4l6,4.4
		l5.9,4.3l8.5,6.4l8.2,6.3l5.3,4.1l5.1,4.1l5,4l4.8,4l2.4,2l4.6,3.9l4.5,3.9l4.4,3.8l4.2,3.8l2.1,1.9l4,3.7l3.8,3.6l3.7,3.6
		c1.6,1.6,3.2,3.2,4.7,4.7l2.3,2.3l3.3,3.4c6.9,7.4,12.9,14.5,17.8,21.3c1.8,2.5,3.5,4.9,5,7.2C124.2,488.2,44.4,421.3,14.4,331.7z"
		/>
	
		<linearGradient id="SVGID_00000013905923815989651270000018275171085401124016_" gradientUnits="userSpaceOnUse" x1="6.9206" y1="497.5874" x2="6.9206" y2="485.1895" gradientTransform="matrix(37.615 0 0 -27.144 -17.5325 13593.0527)">
		<stop  offset="0" style="stop-color:#FF9A89"/>
		<stop  offset="1" style="stop-color:#FF475A"/>
	</linearGradient>
	<path style="fill-rule:evenodd;clip-rule:evenodd;fill:url(#SVGID_00000013905923815989651270000018275171085401124016_);" d="
		M61.5,86.5c-1.1,17,3.2,33.4,13.1,49c14.8,23.2,41.7,43.1,80.8,60.2l3,1.3l5.2,2.2c9.9,4.1,20.5,7.9,31.9,11.7l4.9,1.6l6.2,1.9
		l3.1,1l6.4,1.9l3.2,0.9l6.6,1.8l3.3,0.9l3.4,0.9l6.8,1.8l3.5,0.9l7,1.7l7.2,1.7l9,2.1l7.8,1.9l7.6,1.9l7.5,1.9
		c2.5,0.6,4.9,1.3,7.3,2l7.2,2l7,2l6.9,2c97.4,29.5,149.2,68,158.8,116c-11.4,23.3-26.4,44.7-44.5,63.4c-1.4-15-8.1-29.6-20.4-43.3
		c-10.7-11.9-25.6-23-44.8-33.4l-2.8-1.5l-4.5-2.3c-2.6-1.3-5.2-2.6-7.8-3.8l-4-1.9l-5-2.2l-2.6-1.1l-2.6-1.1l-5.3-2.2l-2.7-1.1
		l-5.5-2.1c-8.3-3.2-16.7-6.2-25.1-8.9l-4.5-1.4l-6.3-2l-6.5-2l-6.6-2l-10.2-2.9l-7-1.9l-9-2.4l-9.2-2.3l-3.7-0.9l-7.6-1.8
		l-13.1-3.1l-7.1-1.7l-7-1.7l-6.8-1.7c-1.1-0.3-2.2-0.6-3.4-0.9l-6.7-1.8l-6.5-1.8l-6.4-1.8l-3.2-0.9l-6.2-1.9l-6.1-1.9
		c-2-0.6-4-1.3-6-1.9l-5.9-1.9l-5.7-2c-0.9-0.3-1.9-0.7-2.8-1l-5.5-2c-2.7-1-5.4-2-8.1-3l-5.2-2.1c-3.5-1.4-6.8-2.8-10.1-4.2
		l-4.9-2.1l-2.4-1.1l-4.7-2.2c-44.8-21.2-72.7-45.8-84.5-74c9.9-34.5,27.2-66.4,50.7-93.6L61.5,86.5L61.5,86.5z"/>
	
		<linearGradient id="SVGID_00000053531852979611819820000005591359556165585554_" gradientUnits="userSpaceOnUse" x1="9.3975" y1="500.52" x2="9.3975" y2="488.1222" gradientTransform="matrix(32.5735 0 0 -24.817 -8.0312 12421.4277)">
		<stop  offset="0" style="stop-color:#FF475A"/>
		<stop  offset="1" style="stop-color:#FF9A89"/>
	</linearGradient>
	<path style="fill-rule:evenodd;clip-rule:evenodd;fill:url(#SVGID_00000053531852979611819820000005591359556165585554_);" d="
		M249.3,0c2.4,0,4.7,0,7,0.1c-18.6,24.8-14.5,57,14.6,93.8c4.1,5.2,8.8,10.6,14,16.1l2.7,2.8l3.5,3.6c1.6,1.6,3.2,3.2,4.9,4.8
		l2.5,2.4l3.9,3.7l4.1,3.7c4.4,4,9.1,8,14,12.1l3.7,3.1l4.8,3.9l4.9,4l5.1,4l5.2,4l5.4,4.1l5.5,4.1l8.5,6.2l5.9,4.2l9.1,6.4l6.2,4.3
		l3.2,2.2l6.4,4.4l3.3,2.2l6.7,4.4l6.8,4.5l6.9,4.5l7.1,4.5l7.2,4.6l7.4,4.6l7.5,4.7l7.7,4.7l7.8,4.7l8,4.8l8.1,4.8l8.3,4.8l8.4,4.9
		l4.4,2.5c-0.9,15.2-3.1,30.1-6.6,44.5c-23.7-35-67.9-64.3-131.6-87.9l-6.2-2.3c-8.6-3.1-17.4-6-26.1-8.7l-6.8-2.1l-7-2l-7.1-2
		c-1.2-0.3-2.4-0.7-3.6-1l-7.3-2c-1.2-0.3-2.5-0.6-3.7-1l-7.4-1.9c-3.7-0.9-7.5-1.9-11.4-2.8l-14.7-3.4l-6.8-1.6l-6.7-1.7l-6.5-1.7
		l-6.4-1.7L231,183l-6.2-1.7l-3-0.9l-6-1.8l-2.9-0.9l-5.7-1.8l-2.8-0.9l-5.5-1.8l-2.7-0.9l-5.3-1.9l-2.6-0.9l-5.1-1.9l-2.5-1l-2.5-1
		l-4.8-1.9l-2.4-1l-4.6-2c-3.4-1.5-6.6-3-9.8-4.5l-3.1-1.5l-4-2c-22.3-11.7-37.7-24.2-46-37.4C89.7,93.4,94.9,67,122.4,34.1
		C160.9,11.7,204.7-0.1,249.3,0z"/>
	
		<linearGradient id="SVGID_00000054257612218629801900000012397199795976232893_" gradientUnits="userSpaceOnUse" x1="21.6146" y1="500.275" x2="21.6146" y2="487.8772" gradientTransform="matrix(17.45 0 0 -17.45 14.654 8734.6133)">
		<stop  offset="0" style="stop-color:#FF9A89"/>
		<stop  offset="1" style="stop-color:#FF475A"/>
	</linearGradient>
	<path style="fill-rule:evenodd;clip-rule:evenodd;fill:url(#SVGID_00000054257612218629801900000012397199795976232893_);" d="
		M307.1,4.8c102.4,23.2,181,109.7,192.9,216.3l-8.9-5.3l-11.1-6.8l-7.3-4.5l-7.1-4.4l-7-4.4l-6.8-4.3l-6.7-4.3l-6.6-4.3l-6.4-4.2
		l-6.3-4.2l-6.2-4.2l-6-4.1l-5.9-4.1l-5.8-4l-5.6-4l-5.5-3.9l-5.4-3.9l-5.2-3.8l-5.1-3.8l-5-3.8l-4.8-3.7l-4.7-3.7l-4.6-3.7
		l-4.4-3.6l-2.2-1.8l-4.2-3.6l-4.1-3.5l-3.9-3.5l-3.8-3.4l-3.7-3.4l-2.7-2.5l-2.6-2.5l-3.3-3.3l-1.6-1.6l-1.6-1.6l-3.1-3.2
		c-2.7-2.8-5.3-5.7-7.8-8.7l-1.8-2.1l-2.4-3l-2.4-3.1c-16-21-19.7-36-14.5-46.3c3-6,9.4-11.8,19.2-17.2C305,5.9,307.1,4.8,307.1,4.8
		z"/>
</g>
</svg>
