<?xml version="1.0" encoding="utf-8"?>
<!-- Generator: Adobe Illustrator 27.5.0, SVG Export Plug-In . SVG Version: 6.00 Build 0)  -->
<svg version="1.1" id="Layer_1" xmlns="http://www.w3.org/2000/svg" xmlns:xlink="http://www.w3.org/1999/xlink" x="0px" y="0px"
	 viewBox="0 0 500 500" style="enable-background:new 0 0 500 500;" xml:space="preserve">
<style type="text/css">
	.st0{fill:url(#SVGID_1_);}
	.st1{fill:url(#SVGID_00000013886454983883343530000014610161059862249098_);}
	.st2{fill:url(#SVGID_00000069367360327930713290000010662569120010349475_);}
	.st3{fill:url(#SVGID_00000019663038027391885890000004213570057408594843_);}
	.st4{fill:url(#SVGID_00000139982570951406273410000006351311236673372057_);}
	.st5{fill:url(#SVGID_00000027605529628957020970000017008186774762354604_);}
	.st6{fill:url(#SVGID_00000039135007581333284160000014977408249334069892_);}
	.st7{fill:url(#SVGID_00000159462048211815183750000006185566566076405388_);}
	.st8{fill:url(#SVGID_00000168102060353207408950000014287734617064730003_);}
	.st9{fill:url(#SVGID_00000178164740314734138380000011637684796965213362_);}
	.st10{fill:url(#SVGID_00000117658763888445503270000013029061844352707719_);}
	.st11{fill:url(#SVGID_00000154422569031385885220000000638404886551922366_);}
	.st12{fill:url(#SVGID_00000139265359059799039300000016525130173376696237_);}
</style>
<linearGradient id="SVGID_1_" gradientUnits="userSpaceOnUse" x1="129.6542" y1="288.8354" x2="492.9977" y2="144.8321" gradientTransform="matrix(1 0 0 -1 0 501)">
	<stop  offset="0" style="stop-color:#FF5A5A"/>
	<stop  offset="0.2" style="stop-color:#FDD55A"/>
	<stop  offset="0.35" style="stop-color:#57F7AE"/>
	<stop  offset="0.69" style="stop-color:#197CEF"/>
	<stop  offset="1" style="stop-color:#3A3A3A"/>
</linearGradient>
<path class="st0" d="M442.1,315.9l-13.8-23.7L260.8,6l-1.2-1.9c0,0-1-1-1.5-1.5c-0.5-0.3-1-0.7-1.5-1c0,0-1.2-0.5-1.9-0.9
	c-0.7-0.2-1.2-0.3-1.9-0.5c-0.5,0-1.2-0.2-1.9-0.2c-0.3,0-0.7,0-1.2,0s-0.7,0-1.2,0c-0.7,0-1.2,0-1.9,0.2c-0.7,0-1.4,0.3-1.9,0.5
	c-0.7,0.2-1.4,0.5-1.9,0.9c0,0-1.2,0.7-1.5,1c0,0-1.2,1-1.7,1.5l-0.9,1.5L69,295.9l-9.2,16.1v0.5c-7.2,14.3-10.9,29.6-10.9,45.4
	c0,3.8,0.2,7.3,0.5,11.1c1.4,12.6,5.1,24.9,10.9,36.6c7.5,14.9,18.3,28.5,31.9,40.7c14.3,12.8,31.9,23.9,51.6,32.5
	c19,8.4,40.1,14.5,62.7,17.9c14,2.2,28.5,3.2,43.4,3.2c14.9,0,29-1,42.9-3.2c22.5-3.4,43.7-9.6,62.7-17.9
	c19.8-8.7,37.2-19.6,51.8-32.3c13.7-12.1,24.6-25.6,32.1-40.5c5.8-11.4,9.7-23.7,11.1-36.4c0.5-3.9,0.7-7.7,0.7-11.8
	c0-14.7-3.1-28.7-9.1-42V315.9z"/>
<linearGradient id="SVGID_00000153684789469575593160000013926712597927016093_" gradientUnits="userSpaceOnUse" x1="482.5508" y1="90.3273" x2="51.05" y2="898.1531" gradientTransform="matrix(1 0 0 -1 0 501)">
	<stop  offset="0" style="stop-color:#3A3A3A"/>
	<stop  offset="0.5" style="stop-color:#1682FE"/>
	<stop  offset="1" style="stop-color:#2DBDE1"/>
</linearGradient>
<path style="fill:url(#SVGID_00000153684789469575593160000013926712597927016093_);" d="M258.1,2.6l3.1,6l130.2,248.4l59.1,112.7
	c0.5-3.9,0.7-7.7,0.7-11.8c0-14.7-3.1-28.7-9.1-42l-13.8-23.7L260.8,6l-1.2-1.9C259.6,4.1,258.6,3.1,258.1,2.6z"/>
<linearGradient id="SVGID_00000013885213783753728660000001209777310951697064_" gradientUnits="userSpaceOnUse" x1="464.0429" y1="60.4088" x2="-29.2973" y2="1197.7526" gradientTransform="matrix(1 0 0 -1 0 501)">
	<stop  offset="0" style="stop-color:#3A3A3A"/>
	<stop  offset="0.5" style="stop-color:#1682FE"/>
	<stop  offset="1" style="stop-color:#2DBDE1"/>
</linearGradient>
<path style="fill:url(#SVGID_00000013885213783753728660000001209777310951697064_);" d="M256.6,1.5l4.1,9.2l104.2,230.6L439.2,406
	c5.8-11.4,9.7-23.7,11.1-36.4l-59.1-112.7L261.2,8.5l-3.1-6C258.1,2.6,257.1,1.9,256.6,1.5L256.6,1.5z"/>
<linearGradient id="SVGID_00000149366464648509285840000017996980269119015358_" gradientUnits="userSpaceOnUse" x1="501.1922" y1="-118.5779" x2="-108.9908" y2="1395.6018" gradientTransform="matrix(1 0 0 -1 0 501)">
	<stop  offset="0" style="stop-color:#3A3A3A"/>
	<stop  offset="0.5" style="stop-color:#1682FE"/>
	<stop  offset="1" style="stop-color:#2DBDE1"/>
</linearGradient>
<path style="fill:url(#SVGID_00000149366464648509285840000017996980269119015358_);" d="M254.7,0.7l4.3,12.5l73.6,215.2l74.7,218.1
	c13.7-12.1,24.6-25.6,32.1-40.5L365,241.4L260.7,10.8l-4.1-9.2C256.6,1.5,255.4,1,254.7,0.7L254.7,0.7z"/>
<linearGradient id="SVGID_00000115507817239847878190000005045015366729607350_" gradientUnits="userSpaceOnUse" x1="472.4091" y1="-249.7977" x2="55.6007" y2="1068.4486" gradientTransform="matrix(1 0 0 -1 0 501)">
	<stop  offset="0" style="stop-color:#3A3A3A"/>
	<stop  offset="0.5" style="stop-color:#1682FE"/>
	<stop  offset="1" style="stop-color:#2DBDE1"/>
</linearGradient>
<path style="fill:url(#SVGID_00000115507817239847878190000005045015366729607350_);" d="M252.6,0.3l3.2,14.9L300,220.4L355.5,479
	c19.8-8.7,37.2-19.6,51.8-32.3l-74.6-218.1L259,13.2l-4.3-12.5c0,0-1.2-0.3-1.9-0.5L252.6,0.3z"/>
<linearGradient id="SVGID_00000019677587258332775080000008376652196000600727_" gradientUnits="userSpaceOnUse" x1="405.3443" y1="-187.2554" x2="-2.4112" y2="1165.4976" gradientTransform="matrix(1 0 0 -1 0 501)">
	<stop  offset="0" style="stop-color:#3A3A3A"/>
	<stop  offset="0.22" style="stop-color:#1682FE"/>
	<stop  offset="0.5" style="stop-color:#57F7AE"/>
	<stop  offset="1" style="stop-color:#FED55A"/>
</linearGradient>
<path style="fill:url(#SVGID_00000019677587258332775080000008376652196000600727_);" d="M250.9,0l1.4,16.2l16.9,200.4L293,496.8
	c22.5-3.4,43.7-9.6,62.7-17.9l-55.5-258.6l-44.2-205l-3.2-14.9c0,0-1.2-0.2-1.9-0.2L250.9,0z"/>
<linearGradient id="SVGID_00000092450288451205783000000000251261165692123305_" gradientUnits="userSpaceOnUse" x1="349.8066" y1="-208.6122" x2="47.6193" y2="942.5684" gradientTransform="matrix(1 0 0 -1 0 501)">
	<stop  offset="0" style="stop-color:#3A3A3A"/>
	<stop  offset="0.22" style="stop-color:#1682FE"/>
	<stop  offset="0.5" style="stop-color:#57F7AE"/>
	<stop  offset="1" style="stop-color:#FED55A"/>
</linearGradient>
<path style="fill:url(#SVGID_00000092450288451205783000000000251261165692123305_);" d="M206.7,496.8c14,2.2,28.5,3.2,43.4,3.2
	c14.9,0,29-1,42.9-3.2l-23.7-280.2L252.3,16.2L250.9,0c0,0-0.9,0-1.2,0c-0.3,0-0.7,0-1.2,0l-1.4,16.2l-16.9,200.4l-23.7,280.2H206.7
	z"/>
<linearGradient id="SVGID_00000008860518485915738320000017401759589195025294_" gradientUnits="userSpaceOnUse" x1="230.8692" y1="-263.4409" x2="157.7567" y2="843.6666" gradientTransform="matrix(1 0 0 -1 0 501)">
	<stop  offset="0" style="stop-color:#3A3A3A"/>
	<stop  offset="0.22" style="stop-color:#1682FE"/>
	<stop  offset="0.5" style="stop-color:#57F7AE"/>
	<stop  offset="1" style="stop-color:#FED55A"/>
</linearGradient>
<path style="fill:url(#SVGID_00000008860518485915738320000017401759589195025294_);" d="M144,478.6c19,8.4,40.1,14.5,62.7,17.9
	l23.7-280.2l16.7-200.2L248.5,0c0,0-1.2,0-1.9,0.2L243.4,15l-44.1,205.3l-55.5,258.3H144z"/>
<linearGradient id="SVGID_00000018219942934606838490000014024766924168905641_" gradientUnits="userSpaceOnUse" x1="244.4337" y1="-304.5491" x2="160.1891" y2="351.2948" gradientTransform="matrix(1 0 0 -1 0 501)">
	<stop  offset="0.4" style="stop-color:#1682FE"/>
	<stop  offset="0.7" style="stop-color:#57F7AE"/>
	<stop  offset="1" style="stop-color:#FED55A"/>
</linearGradient>
<path style="fill:url(#SVGID_00000018219942934606838490000014024766924168905641_);" d="M92.4,446.2c14.4,12.8,32,23.9,51.6,32.5
	l55.5-258.4L243.6,15l3.2-14.9c0,0-1.4,0.3-1.9,0.5l-4.3,12.5l-73.8,215.3L92.4,446.2z"/>
<linearGradient id="SVGID_00000135659525478839975620000006597246492178340774_" gradientUnits="userSpaceOnUse" x1="179.6491" y1="-325.0966" x2="154.7086" y2="251.7746" gradientTransform="matrix(1 0 0 -1 0 501)">
	<stop  offset="0.4" style="stop-color:#1682FE"/>
	<stop  offset="0.7" style="stop-color:#57F7AE"/>
	<stop  offset="1" style="stop-color:#FED55A"/>
</linearGradient>
<path style="fill:url(#SVGID_00000135659525478839975620000006597246492178340774_);" d="M60.5,405.5c7.5,14.9,18.3,28.5,31.9,40.7
	l74.5-217.6l73.8-215.4L245,0.7c0,0-1.4,0.5-1.9,0.9l-4.1,9.2L134.4,241.5L60.5,405.5z"/>
<linearGradient id="SVGID_00000100373520614275439610000000855465517425515711_" gradientUnits="userSpaceOnUse" x1="68.8867" y1="-93.2696" x2="228.9484" y2="754.1852" gradientTransform="matrix(1 0 0 -1 0 501)">
	<stop  offset="3.000000e-02" style="stop-color:#1682FE"/>
	<stop  offset="0.21" style="stop-color:#FCA75B"/>
	<stop  offset="0.52" style="stop-color:#FF5A5A"/>
</linearGradient>
<path style="fill:url(#SVGID_00000100373520614275439610000000855465517425515711_);" d="M49.4,369c1.4,12.8,5.1,24.9,10.9,36.6
	l74.1-164L238.8,10.8l4.1-9.2c0,0-1.2,0.7-1.5,1l-3.1,6L108,257.4L49.4,369z"/>
<linearGradient id="SVGID_00000026857019444432265940000007385148215493682877_" gradientUnits="userSpaceOnUse" x1="54.0076" y1="-26.1697" x2="219.5358" y2="615.6157" gradientTransform="matrix(1 0 0 -1 0 501)">
	<stop  offset="3.000000e-02" style="stop-color:#1682FE"/>
	<stop  offset="0.21" style="stop-color:#FCA75B"/>
	<stop  offset="0.52" style="stop-color:#FF5A5A"/>
</linearGradient>
<path style="fill:url(#SVGID_00000026857019444432265940000007385148215493682877_);" d="M48.9,357.9c0,3.8,0.2,7.3,0.5,11.1
	l58.4-111.5L238.3,8.5l3.1-6c0,0-1.2,1-1.7,1.5l-0.9,1.5L69,295.9l-9.2,16.1v0.5C52.6,326.8,48.9,342,48.9,357.9z"/>
<linearGradient id="SVGID_00000065038915840493305540000004222559327433076615_" gradientUnits="userSpaceOnUse" x1="260.2507" y1="495.0173" x2="260.2507" y2="496.9012" gradientTransform="matrix(1 0 0 -1 0 501)">
	<stop  offset="0" style="stop-color:#2DBDE1"/>
	<stop  offset="0.5" style="stop-color:#1682FE"/>
	<stop  offset="1" style="stop-color:#3A3A3A"/>
</linearGradient>
<path style="fill:url(#SVGID_00000065038915840493305540000004222559327433076615_);" d="M259.7,4.1l1.2,1.9
	C260.9,6,260.2,4.6,259.7,4.1z"/>
</svg>
