<?xml version="1.0" encoding="utf-8"?>
<!-- Generator: Adobe Illustrator 27.7.0, SVG Export Plug-In . SVG Version: 6.00 Build 0)  -->
<svg version="1.1" id="Layer_1" xmlns="http://www.w3.org/2000/svg" xmlns:xlink="http://www.w3.org/1999/xlink" x="0px" y="0px"
	 viewBox="0 0 500 500" style="enable-background:new 0 0 500 500;" xml:space="preserve">
<style type="text/css">
	.st0{fill:#FFFFFF;}
	.st1{fill:#2344AA;}
	.st2{fill:#557FEE;}
</style>
<rect y="0" class="st0" width="500" height="500"/>
<path class="st1" d="M187.4,385.9c-74.9,0-135.9-61-135.9-135.9s61-135.9,135.9-135.9s135.9,61,135.9,135.9S262.4,385.9,187.4,385.9
	z M187.4,135c-63.4,0-115,51.6-115,115s51.6,115,115,115s115-51.6,115-115S250.9,135,187.4,135z"/>
<path class="st2" d="M324.4,385.9c-74.9,0-135.9-61-135.9-135.9s61-135.9,135.9-135.9s135.9,61,135.9,135.9S399.4,385.9,324.4,385.9
	z M324.4,135c-63.4,0-115,51.6-115,115s51.6,115,115,115s115-51.6,115-115S387.9,135,324.4,135z"/>
</svg>
