<svg enable-background="new 0 0 164.3 197.9" viewBox="0 0 164.3 197.9" xmlns="http://www.w3.org/2000/svg"><path d="m66.1 60.2c-3.1-.1-6.1.7-8.8 2.3-4.4 2.7-9.7 6.8-14.5 12.8-12.6 15.8-12.5 33.7-12.3 39.1.2 4.2 2 27.2 21.5 43.8 15.2 12.9 32 14.3 37.5 14.5 4 .2 24.9.6 42.5-15.5 18.3-16.7 19.2-38.7 19.3-42.5.2-3.2.3-7.4-.5-12.3-.7-4.4-1.9-8.1-3-11-3-1.6-7.3-4.2-11.5-8.5-4.4-4.5-7-9.1-8.5-12.3-.3-1.3-.8-3.1-2-5-2-3.2-4.6-4.8-6-5.5 2.6-.4 8.3-.8 14.5 2 3.3 1.5 5.7 3.5 7.3 5 .3-.8.8-2.5.5-4.5-.3-2.4-1.4-4.1-2-4.8 2 1 9 4.7 12.5 13 2.3 5.6 2.1 10.6 1.8 13 2.4 3.7 5.4 9.2 7.5 16.3 2 6.6 2.5 12.5 2.5 16.8.2 4.9.9 31.5-19.5 53.1-24.5 25.9-58.4 22.2-62 21.7 2.1 1.2 4.8 2.4 8 3.3 8 2.2 14.9 1 18.8 0-8.5 2.4-24.6 5.5-42.8-.1-41.9-13-53.7-59.8-54.5-62.9.7 5.3 1.8 11 3.3 17 2.3 9.7 5.3 18.2 8.3 25.5-4.8-5.2-11.2-13.5-16.3-25-6-13.5-7.4-25.5-7.7-33.1.1-8.3 1.4-22.8 9-38.5 10.8-22.4 28-34 35.5-38.5-.6 0-1.4-.2-2.3-.6-1.8-.8-2.8-2.1-3.2-2.7 2.8-.4 6.3-1.2 10.2-2.7s7-3.3 9.3-4.8c-6.2-2.5-13.3-5.7-20.8-10.1-7.2-4.2-13.4-8.6-18.4-12.6l9.8 5.3-7.5-6.5c6.4 4.3 14.5 8.9 24.2 12.9 6.7 2.8 13 4.8 18.6 6.3-3.1-1.7-6.8-4.1-10.5-7.4-6.2-5.4-10.2-11.2-12.6-15.5 2.6 2.3 5.3 4.5 7.9 6.8l-6.8-7.8c5.6 5.5 13.5 12.1 23.9 17.8 5.9 3.2 11.5 5.6 16.4 7.4 4.3.7 8.5 1.4 12.8 2.1 1.3.2 3.6.8 5.8 2.6.9.7 1.6 1.5 2.1 2.1.6.8 1.4 1.7 2.3 2.6 1.5 1.5 2.9 2.7 4.3 3.6l20.2-.3c1.3 0 2.2 1.2 1.9 2.4-1 4-3.1 9.7-8.2 14.2-1.2 1.1-2.5 2-3.7 2.7.8-1.1 1.9-2.7 2.6-4.9.5-1.6.8-3 .9-4.1-.8.8-1.7 1.7-3 2.5-1.9 1.3-3.8 2-5.1 2.4.7-.9 1.4-2.1 2.1-3.4s1.2-2.6 1.6-3.7c-1.4.1-3.4.3-5.8 1.3-2.6 1-4.4 2.4-5.5 3.4 0-.9.2-2 .6-3.3.3-.9.7-1.7 1-2.3-.6-.4-1.2-.7-1.9-1.1-2.5-1.1-4.8-1.1-6.3-1-1.5 0-5.5.3-9.4 3.1-1.4 1-2.5 2.1-3.4 3.2-1.9 2.4-1.8 5.9.3 8.2v.1c.9.9 1.9 1.6 2.8 2 3.1 1.5 6.7 1.2 9.7-.4.1-.1.2-.1.3-.2 1.2-.7 2.1-1.5 2.7-2.2.1.7.2 2.1-.3 3.8-.4 1.4-1.1 2.4-1.6 2.9 1.2.2 2.6.3 4.2.3 2.8-.1 5-.8 6.5-1.4-1 2.2-3.2 6.5-7.9 10.1-3.6 2.8-7.2 4.1-9.4 4.6.8-1.2 1.7-2.9 2.3-5.1.2-.6.3-1.2.4-1.7.3-1.5-.3-3-1.5-4-1.4-1.2-2.9-1.3-3.4-1.4h-8.3c-2.9 0-5.7.4-8.5 1.2-1.5.4-3.1.8-4.8 1.1-4.2.8-8 1.2-11.2 1.3 2.3-.4 6.3-1.4 10.1-4.4 1.4-1.1 2.5-2.3 3.3-3.3z" fill="#efb13b"/></svg>