<?xml version="1.0" encoding="utf-8"?>
<!-- Generator: Adobe Illustrator 24.0.0, SVG Export Plug-In . SVG Version: 6.00 Build 0)  -->
<svg version="1.1" id="Layer_1" xmlns="http://www.w3.org/2000/svg" xmlns:xlink="http://www.w3.org/1999/xlink" x="0px" y="0px"
	 viewBox="0 0 454 454" style="enable-background:new 0 0 454 454;" xml:space="preserve">
<style type="text/css">
	.st0{fill:none;}
	.st1{fill-rule:evenodd;clip-rule:evenodd;fill:#FFFFFF;}
	.st2{fill-rule:evenodd;clip-rule:evenodd;fill:url(#SVGID_1_);}
	.st3{fill:#FEFEFE;}
</style>
<g id="Layer_x0020_1">
	<rect x="-43" y="-43" class="st0" width="540" height="540"/>
	<circle class="st1" cx="227" cy="227" r="211.8"/>
	
		<linearGradient id="SVGID_1_" gradientUnits="userSpaceOnUse" x1="10884.04" y1="-8321.2764" x2="15321.9609" y2="-4083.8354" gradientTransform="matrix(7.200000e-02 0 0 -7.200000e-02 -716.416 -219.584)">
		<stop  offset="0" style="stop-color:#744196"/>
		<stop  offset="1" style="stop-color:#6FCDE5"/>
	</linearGradient>
	<circle class="st2" cx="227" cy="227" r="223.2"/>
	<path class="st3" d="M223.8,276.8c-13.2,0-25.6-5.2-34.9-14.5c-9.4-9.4-14.5-21.7-14.5-35c0-13.2,5.2-25.6,14.5-34.9
		c9.4-9.4,21.8-14.5,35-14.5s25.6,5.1,34.9,14.4c19.3,19.3,19.3,50.7,0,70C249.5,271.6,237,276.8,223.8,276.8z"/>
	<path class="st3" d="M94.1,275.9c-13.2,0-25.6-5.1-35-14.5c-9.3-9.4-14.5-21.7-14.5-34.9c0-13.2,5.2-25.6,14.5-34.9
		c4.1-4.2,9.4-7.6,14.8-10c28.5-12.7,49.9,9,83.6-25.7c36.5-37.5,5.7-68.4,34.1-96.7c9.4-9.4,21.8-14.5,35-14.5s25.6,5.2,34.9,14.5
		c19.3,19.3,19.3,50.7,0,70c-28.4,28.2-61-2.9-98.4,35.6c-35.8,36.9-5.3,67.8-34.1,96.8C119.7,270.8,107.3,275.9,94.1,275.9z"/>
	<path class="st3" d="M227.6,409.4c-13.2,0-25.6-5.2-35-14.5c-9.4-9.3-14.5-21.7-14.5-34.9s5.1-25.6,14.5-34.9
		c4.1-4.1,9.4-7.6,14.8-10c28.5-12.7,49.9,9.1,83.6-25.6c36.5-37.5,5.7-68.5,34.1-96.8c9.4-9.4,21.7-14.5,35-14.5
		c13.2,0,25.6,5.1,34.9,14.5c19.2,19.2,19.2,50.6,0,69.9c-28.4,28.2-61-2.8-98.4,35.6c-35.8,36.8-5.4,67.8-34.1,96.8
		C253.1,404.2,240.8,409.4,227.6,409.4z"/>
</g>
</svg>
