<?xml version="1.0" encoding="utf-8"?>
<!-- Generator: Adobe Illustrator 27.0.1, SVG Export Plug-In . SVG Version: 6.00 Build 0)  -->
<svg version="1.1" id="ctc" xmlns="http://www.w3.org/2000/svg" xmlns:xlink="http://www.w3.org/1999/xlink" x="0px" y="0px"
	 viewBox="0 0 500 500" style="enable-background:new 0 0 500 500;" xml:space="preserve">
<style type="text/css">
	.st0{fill:#2D353F;}
</style>
<path class="st0" d="M495.7,225.3H294.9c-8.6-14.9-24.7-24.9-43.2-24.9c-27.6,0-49.9,22.3-49.9,49.9s22.3,49.9,49.9,49.9
	c19,0,35.6-10.6,44-26.3h200V225.3z"/>
<path class="st0" d="M422.6,349.6c-34.4,59.3-98.6,99.3-171.9,99.3c-109.5,0-198.6-89.1-198.6-198.6c0-109.5,89.1-198.6,198.6-198.6
	c73.4,0,137.5,40,171.9,99.3l40.7-23.8C420.7,54,341.4,4.6,250.7,4.6C115.2,4.6,5,114.8,5,250.3C5,385.8,115.2,496,250.7,496
	c91.1,0,170.8-49.8,213.2-123.7L422.6,349.6z"/>
</svg>
