<?xml version="1.0" encoding="utf-8"?>
<!-- Generator: Adobe Illustrator 26.0.1, SVG Export Plug-In . SVG Version: 6.00 Build 0)  -->
<svg version="1.1"
	 id="svg833" inkscape:version="1.0 (4035a4f, 2020-05-01)" sodipodi:docname="CertiK-Chain-CTK-Coin-Icon-256x256.svg" xmlns:cc="http://creativecommons.org/ns#" xmlns:dc="http://purl.org/dc/elements/1.1/" xmlns:inkscape="http://www.inkscape.org/namespaces/inkscape" xmlns:rdf="http://www.w3.org/1999/02/22-rdf-syntax-ns#" xmlns:sodipodi="http://sodipodi.sourceforge.net/DTD/sodipodi-0.dtd" xmlns:svg="http://www.w3.org/2000/svg"
	 xmlns="http://www.w3.org/2000/svg" xmlns:xlink="http://www.w3.org/1999/xlink" x="0px" y="0px" viewBox="0 0 256 256"
	 style="enable-background:new 0 0 256 256;" xml:space="preserve">
<style type="text/css">
	.st0{fill:#E1A94C;}
</style>
<sodipodi:namedview  bordercolor="#666666" borderopacity="1" fit-margin-bottom="0" fit-margin-left="0" fit-margin-right="0" fit-margin-top="0" gridtolerance="10" guidetolerance="10" id="namedview835" inkscape:current-layer="g841" inkscape:cx="310.18913" inkscape:cy="229.84553" inkscape:pageopacity="0" inkscape:pageshadow="2" inkscape:window-height="878" inkscape:window-maximized="1" inkscape:window-width="1440" inkscape:window-x="0" inkscape:window-y="0" inkscape:zoom="1.3958333" objecttolerance="10" pagecolor="#ffffff" showgrid="false">
	</sodipodi:namedview>
<g id="g841" transform="translate(68.756296,-10.154474)" inkscape:groupmode="layer" inkscape:label="Image">
	<path id="path845" class="st0" d="M51,10.7C24.7,14.1,0.6,21-20.6,37.9C-33.7,48.3-45,61.2-53,76c-32.3,59.2-13.5,133.4,43.1,170.3
		c11.6,7.5,24.5,12.9,37.9,16.2c16,4,32.8,4.6,49.1,2.5c64.7-8.7,112.8-67.9,110-132.5C184.6,74.7,141.5,24.4,84.6,13
		C73.9,10.9,61.9,9.3,51,10.7 M58.5,64c5-0.4,12.3,3.2,17.1,4.7c11,3.6,22.9,5.8,33.6,10.2c2.7,1.1,4.1,5.1,0.5,6.3
		c-3.5,1.2-10.9-2.5-14.4-3.6c-7.8-2.5-15.7-4.8-23.5-7.1c-3.9-1.2-8.2-3.2-12.3-3.5c-4.1-0.3-9,2.2-12.8,3.4
		C38.4,77,30,79.5,21.6,82c-3.2,1-10.7,4.8-13.8,3c-6.9-3.9,5.8-7.6,7.9-8.2c9.3-2.7,18.6-5.5,27.8-8.5C48.2,66.9,53.6,64.4,58.5,64
		 M-12,85.9c4.8-1.7,8.4,9.8,10,13c4.7,9.4,9.7,18.8,14.4,28.2c2.7,5.3,5,11.7,8.7,16.4c2.7,3.5,13,1.7,17.1,1.7h42.2
		c4,0,12.6,1.6,15.9-0.9c2.2-1.6,3.3-5.3,4.5-7.7l8.5-17c4.6-9.3,9.5-18.4,14.2-27.7c1.2-2.5,3.6-8.3,7.4-5.8
		c2.7,1.8,2.2,7.8,2.4,10.6c0.7,9.9,0.4,19.5-0.5,29.3c-3.1,33.6-20.2,65.1-46.5,86.1c-7.2,5.7-17.1,13.9-26.2,16.2
		c-2.7,0.7-5.7-1.6-8-2.8c-6.8-3.5-13.1-7.9-19.2-12.4c-27.2-20.4-43.7-52.6-47.5-86c-1.2-10.4-1.2-20.5-0.6-30.9
		C-15.1,93.3-15.4,87.1-12,85.9 M-8.8,100.5c-2.5,8.4-0.2,20.2,1,28.8c3.9,28.1,17,54.7,38.5,73.6c6,5.3,12.9,11.1,20.3,14.3
		l-37.2-73l-14.4-28.2L-8.8,100.5 M126.3,100.5c-12.3,29.6-29.5,57.7-43.9,86.3c-4.9,9.7-12.3,19.9-15.4,30.4
		c32.1-15,52.7-51,58.2-84.7c1.3-7.7,2.1-15.6,2.1-23.4C127.3,106.3,128,102.8,126.3,100.5 M24.8,151.6l33.6,66h1.1l33.6-66H24.8z"
		/>
</g>
</svg>
