<?xml version="1.0" encoding="utf-8"?>
<!-- Generator: Adobe Illustrator 23.0.3, SVG Export Plug-In . SVG Version: 6.00 Build 0)  -->
<svg version="1.1" id="cube" xmlns="http://www.w3.org/2000/svg" xmlns:xlink="http://www.w3.org/1999/xlink" x="0px" y="0px"
	 viewBox="0 0 500 500" style="enable-background:new 0 0 500 500;" xml:space="preserve">
<style type="text/css">
	.st0{fill:#1C9E93;}
	.st1{fill:#EA595E;}
</style>
<path d="M365,212.3v55.7l99.6,59.9V128.4L253.2,4.4L42.7,127.3v244.1l208.4,124.1l180.3-106L242.8,281l32.7-19V74l140.4,82.3v86.1
	L365,212.3z M226.8,76.3v157.7L91.4,312.4V155.3L226.8,76.3z M334.5,390l-83.3,49l-138.6-82.5l81.5-47.3L334.5,390z"/>
<polygon class="st0" points="226.8,76.3 226.8,233.9 91.4,312.4 91.4,155.3 "/>
<polygon class="st1" points="334.5,390 251.2,439 112.6,356.4 194.1,309.2 "/>
</svg>
