<?xml version="1.0" encoding="utf-8"?>
<!-- Generator: Adobe Illustrator 27.7.0, SVG Export Plug-In . SVG Version: 6.00 Build 0)  -->
<svg version="1.1" id="Layer_1" xmlns="http://www.w3.org/2000/svg" xmlns:xlink="http://www.w3.org/1999/xlink" x="0px" y="0px"
	 viewBox="0 0 500 500" style="enable-background:new 0 0 500 500;" xml:space="preserve">
<style type="text/css">
	.st0{fill-rule:evenodd;clip-rule:evenodd;fill:#231F20;}
</style>
<path class="st0" d="M347,269l147.4,152.6c1.8,1.8,3.2,4,4.1,6.3c1,2.4,1.5,4.9,1.5,7.5c0,2.6-0.5,5.1-1.4,7.5
	c-0.9,2.4-2.3,4.6-4.1,6.4l-10.8,11.2c-3,3.3-7.1,5.4-11.4,6.1c-2.9,0.4-5.8,0.1-8.5-0.9c-2.7-1-5.2-2.6-7.3-4.7l-180-186.3
	c-3.1-3.2-5.6-7.1-7.3-11.3c-1.7-4.2-2.6-8.8-2.6-13.3c0-4.6,0.9-9.1,2.6-13.3c1.7-4.2,4.2-8.1,7.3-11.3l180-186.3
	c1.8-1.8,3.8-3.3,6.1-4.2c2.3-1,4.7-1.5,7.2-1.5s4.9,0.5,7.2,1.5c2.3,1,4.4,2.4,6.1,4.2l11.1,11.7c1.8,1.8,3.1,4,4.1,6.3
	c1,2.4,1.4,4.9,1.4,7.5c0,2.6-0.5,5.1-1.4,7.5c-1,2.4-2.3,4.5-4.1,6.3L347,231c-4.8,5-7.5,11.9-7.5,19
	C339.4,257.1,342.2,263.9,347,269z M153,231.2L5.7,78.6c-1.8-1.8-3.2-4-4.2-6.3c-1-2.4-1.5-4.9-1.5-7.5c0-2.6,0.5-5.2,1.4-7.5
	c1-2.4,2.4-4.6,4.1-6.4l10.8-11.2c3.1-3.3,7.1-5.4,11.4-6.1c2.9-0.4,5.8-0.1,8.5,0.9c2.7,1,5.2,2.6,7.3,4.7l179.9,186.3
	c3.1,3.2,5.6,7.1,7.3,11.3c1.7,4.2,2.6,8.8,2.6,13.3c0,4.6-0.9,9.1-2.6,13.3c-1.7,4.2-4.2,8.1-7.3,11.3L43.6,460.9
	c-1.8,1.8-3.8,3.3-6.1,4.2c-2.3,1-4.8,1.5-7.2,1.5c-2.5,0-4.9-0.5-7.2-1.5c-2.3-1-4.4-2.4-6.1-4.2L5.7,449.4c-1.8-1.8-3.1-4-4.1-6.4
	c-1-2.4-1.4-4.9-1.4-7.5s0.5-5.1,1.4-7.5c1-2.4,2.3-4.5,4.1-6.4L153,269.1c4.8-5,7.5-11.9,7.5-19C160.5,243.1,157.8,236.3,153,231.2
	z"/>
</svg>
