<?xml version="1.0" encoding="utf-8"?>
<!-- Generator: Adobe Illustrator 24.0.0, SVG Export Plug-In . SVG Version: 6.00 Build 0)  -->
<svg version="1.1" id="Layer_1" xmlns="http://www.w3.org/2000/svg" xmlns:xlink="http://www.w3.org/1999/xlink" x="0px" y="0px"
	 viewBox="0 0 405 405" style="enable-background:new 0 0 405 405;" xml:space="preserve">
<style type="text/css">
	.st0{fill:#FFFFFF;}
	.st1{fill:none;stroke:#EB1A6B;stroke-width:6.6804;}
	.st2{fill:#F01871;}
</style>
<g>
	<circle class="st0" cx="202.5" cy="202.5" r="202.5"/>
</g>
<circle class="st1" cx="202.5" cy="202.5" r="199.2"/>
<path d="M252.3,239.8c5.3,3.8,8,6.1,11,8c18.2,12.1,38,13.3,50.9,1.1c13.7-13.3,14.8-30,8.4-47.1c-6.8-19.4-22.8-31.1-42.1-28.1
	c-8.7,1.5-19,8-23.9,15.2c-12.1,17.5-16.3,39.9-36.4,51.6c-2.7,1.5-1.9,10.2-1.9,15.6c0.4,38-27.3,67.2-67.2,71
	c-31.5,3-78.6-22.4-78.2-57.7c16.7,7.6,32.6,18.2,50.5,22c14.8,3.4,32.6,1.9,47.5-3c19.4-6.5,28.5-25.1,26.2-41.8
	c-2.3-14.4-8-18.2-37.2-23.2c-1.9-8.4-3.8-17.5-5.7-27.7c3-0.4,5.3-1.1,7.6-1.1c13.3-1.1,27.7-1.5,28.8-20.1
	c1.1-14.8-12.9-32.3-29.2-30.7c-15.9,1.5-30.7,9.9-49,16.3c-3.4-5.3-9.1-14-14.4-22.8c23.2-27.3,61.1-32.6,88.8-12.5
	c25.4,18.2,27.7,47.5,5.3,81.6c6.5,6.1,12.9,12.1,22,20.9c3-9.1,4.6-15.6,6.8-21.6c3-8.7,5.3-18.2,10.2-26.2
	c12.1-20.9,28.9-35.3,55-32.3c25.4,3,38.4,18.1,48.1,41.7c10.6,27.6,6.3,48.4,0,64.2c-6.3,15.8-29.5,31.9-46.2,29.2
	C266,278.9,253.5,264.9,252.3,239.8z"/>
<path d="M179.1,94.4c34.9,24.3,65.7,20.9,96.8-0.4c5.7,9.1,10.6,16.7,15.6,24.3C254.6,147.2,194.6,132.4,179.1,94.4z"/>
<path class="st2" d="M206.8,80.4c6.8-8.4,12.1-14.4,18.6-22c7.6,8,12.5,13.3,18.6,20.1c-5.7,6.5-11,12.1-17.8,19.4
	C219.7,92.2,214,86.8,206.8,80.4z"/>
</svg>
