<?xml version="1.0" encoding="utf-8"?>
<!-- Generator: Adobe Illustrator 26.5.0, SVG Export Plug-In . SVG Version: 6.00 Build 0)  -->
<svg version="1.1" id="dep" xmlns="http://www.w3.org/2000/svg" xmlns:xlink="http://www.w3.org/1999/xlink" x="0px" y="0px"
	 viewBox="0 0 500 500" style="enable-background:new 0 0 500 500;" xml:space="preserve">
<style type="text/css">
	.st0{fill:#0560FF;}
</style>
<path class="st0" d="M90.7,498.3c-4.3-1.1-8.7-2.1-13-3.2c-40.8-10.3-66-42.2-66-84.1c-0.1-74.1-0.1-148.3,0-222.4
	c0-43.6,30.9-75.8,74.6-76.4c49.6-0.7,99.3-0.9,148.8,0.5c67.7,1.9,119.1,41.9,134.7,103.3c23.7,93-46.4,163.5-121.3,170.8
	c-19.2,1.9-38.7,1.4-58.1,1.5c-5.9,0-7.7,2-7.7,7.8c-0.2,25.4,20,45.9,47.5,46.6c52.4,1.3,97.9-16.9,136.4-51.7
	c44.3-40.1,67.6-90.2,64.7-150.2c-4.1-84.8-65.2-157.2-149.6-177.7c-18.6-4.5-38.3-6.2-57.5-6.6c-44.6-0.9-89.2-0.2-133.8-0.3
	C62,56.1,37.3,64.5,19,87.7c-1.1,1.4-2.8,2.1-4.3,3.2c-0.8-1.8-2-3.5-2.3-5.4C4.2,44.7,36.4,4.1,78.8,2.9
	c63.7-1.8,127.4-4,190.9,3.1c66.2,7.4,120.2,38.4,162.6,89.2c36.6,43.9,56.9,94.7,55.7,151.9c-2,96.7-45.8,170.4-130.5,218
	c-46.6,26.1-97.4,36.1-150.6,28.2c-44.8-6.7-78.9-43.5-80.7-88.6c-1.9-47.6-1.2-95.3-1.5-142.9c-0.2-28.9-0.3-57.7,0-86.6
	c0.1-7.1-2.7-9.4-9.3-9.1c-8.7,0.4-17.6-0.4-26.3,0.4c-14.4,1.3-20.8,8.5-20.9,22.9c-0.1,21.4,0.1,42.9,0.1,64.4
	c0.1,52.2,0.8,104.4,0,156.5c-0.4,27.1,9.8,48.3,29.4,65.7c6.9,6.1,14.2,11.8,22,18.2c-4.9,1.5-9,2.8-13.1,4.1
	C101.3,498.3,96,498.3,90.7,498.3z M182.5,247.8c0,25.7,0,51.4,0,77c0,3.9-0.9,8.5,5.5,8.3c19.9-0.5,40,0.8,59.6-1.8
	c38.8-5.2,68.9-39.2,70-76.2c1.3-43.3-22.9-76.2-64.7-84.7c-20.4-4.1-41.6-4.2-62.4-6.6c-6.9-0.8-8,1.8-8,7.8
	C182.7,196.9,182.5,222.3,182.5,247.8z"/>
</svg>
