<?xml version="1.0" encoding="utf-8"?>
<!-- Generator: Adobe Illustrator 24.0.0, SVG Export Plug-In . SVG Version: 6.00 Build 0)  -->
<svg version="1.1" id="Layer_1" xmlns="http://www.w3.org/2000/svg" xmlns:xlink="http://www.w3.org/1999/xlink" x="0px" y="0px"
	 viewBox="0 0 72 72" style="enable-background:new 0 0 72 72;" xml:space="preserve">
<style type="text/css">
	.st0{fill-rule:evenodd;clip-rule:evenodd;fill:#FF00AF;}
</style>
<path class="st0" d="M36,0c19.9,0,36,16.1,36,36c0,19.7-15.8,35.7-35.4,36L36,72V41.7l-4.6,4.6l-0.6,11.4L35.6,72
	c-2.8,0-5.5-0.4-8.2-1.1l-0.7-0.2l-2.3-6.9l-6.5,3.3c-2.4-1.4-4.6-3-6.6-4.9l-0.5-0.5l12.1-6.1l0.4-6.9l-6.9,0.4l-6.1,12.1
	c-1.9-2-3.6-4.2-5-6.5l-0.4-0.6l3.3-6.5l-6.9-2.3c-0.7-2.7-1.1-5.4-1.2-8.1l0-0.7l14.4,4.8l11.4-0.6l4.6-4.6l-4.6-4.6l-11.4-0.6
	L0,35.6c0-2.8,0.4-5.6,1-8.2l0.2-0.7l6.9-2.3l-3.3-6.5c1.4-2.4,3-4.6,4.9-6.6l0.5-0.5l6.1,12.1l6.9,0.4l-0.4-6.9l-12.1-6.1
	c2-1.9,4.2-3.6,6.5-5l0.6-0.4l6.5,3.3l2.3-6.9c2.7-0.7,5.4-1.1,8.1-1.2l0.7,0l-4.8,14.3l0.6,11.4l4.6,4.6C36,30.3,36,0,36,0z
	 M44,9.2v53.7C55.5,59.4,64,48.7,64,36c0-12.5-8.3-23.1-19.6-26.7C44.4,9.3,44,9.2,44,9.2z"/>
</svg>
