<?xml version="1.0" encoding="utf-8"?>
<!-- Generator: Adobe Illustrator 26.0.1, SVG Export Plug-In . SVG Version: 6.00 Build 0)  -->
<svg version="1.1"
	 id="图层_1" image-rendering="optimizeQuality" text-rendering="geometricPrecision" shape-rendering="geometricPrecision" xmlns:xodm="http://www.corel.com/coreldraw/odm/2003"
	 xmlns="http://www.w3.org/2000/svg" xmlns:xlink="http://www.w3.org/1999/xlink" x="0px" y="0px" viewBox="0 0 595.2 595.2"
	 style="enable-background:new 0 0 595.2 595.2;" xml:space="preserve">
<style type="text/css">
	.st0{fill:#0080FF;}
	.st1{fill:#FFFFFF;}
</style>
<g>
	<circle class="st0" cx="297.6" cy="297.6" r="297.6"/>
	<g>
		<path class="st1" d="M319,141.6H194.2c-9.7,0-18.4,4.4-24.1,11.4c-0.6,0.8-1.2,1.6-1.8,2.4c-3.4,5-5.3,11-5.3,17.4
			c0,16.6,12.9,30.1,29.2,31.1l0.3,0.3h125.9c51.3,0,93.4,42,93.4,93.4l0,0c0,51.3-42,93.4-93.4,93.4h-80c-7.1-0.1-12.8-5.8-13-12.8
			l0,0l0,0V391l0,0v-62.2h95.2c17.2,0,31.2-14,31.2-31.2s-14-31.2-31.2-31.2H194.2h-0.1h-0.8c-16.7,0-30.3,13.6-30.3,30.3v94.2v31.4
			v0.9c0,16.7,13.6,30.3,30.3,30.3h0.9h0.9H319c85.8,0,156-70.2,156-156l0,0C475.1,211.8,404.8,141.6,319,141.6z"/>
		<path class="st1" d="M225.4,341.7L225.4,341.7L225.4,341.7c0.2-7.1,5.9-12.8,13-12.8h-13l0,0V341.7z"/>
	</g>
</g>
</svg>
