<?xml version="1.0" encoding="utf-8"?>
<!-- Generator: Adobe Illustrator 24.0.0, SVG Export Plug-In . SVG Version: 6.00 Build 0)  -->
<svg version="1.1"
	 id="svg22" inkscape:version="1.0rc1 (09960d6f05, 2020-04-09)" sodipodi:docname="divi.svg" xmlns:cc="http://creativecommons.org/ns#" xmlns:dc="http://purl.org/dc/elements/1.1/" xmlns:inkscape="http://www.inkscape.org/namespaces/inkscape" xmlns:rdf="http://www.w3.org/1999/02/22-rdf-syntax-ns#" xmlns:sodipodi="http://sodipodi.sourceforge.net/DTD/sodipodi-0.dtd" xmlns:svg="http://www.w3.org/2000/svg"
	 xmlns="http://www.w3.org/2000/svg" xmlns:xlink="http://www.w3.org/1999/xlink" x="0px" y="0px" viewBox="0 0 39.7 39.7"
	 style="enable-background:new 0 0 39.7 39.7;" xml:space="preserve">
<style type="text/css">
	.st0{fill-rule:evenodd;clip-rule:evenodd;fill:url(#rect10_1_);}
	.st1{fill-rule:evenodd;clip-rule:evenodd;fill:#FFFFFF;}
</style>
<sodipodi:namedview  bordercolor="#666666" borderopacity="1" gridtolerance="10" guidetolerance="10" id="namedview24" inkscape:current-layer="svg22" inkscape:cx="40.27674" inkscape:cy="18.601074" inkscape:pageopacity="0" inkscape:pageshadow="2" inkscape:window-height="1051" inkscape:window-maximized="1" inkscape:window-width="1842" inkscape:window-x="69" inkscape:window-y="-9" inkscape:zoom="4.7676768" objecttolerance="10" pagecolor="#ffffff" showgrid="false">
	</sodipodi:namedview>
<linearGradient id="rect10_1_" gradientUnits="userSpaceOnUse" x1="39.655" y1="2.345" x2="1.427487e-06" y2="42" gradientTransform="matrix(1 0 0 -1 0 42)">
	<stop  offset="0" style="stop-color:#4B81EB"/>
	<stop  offset="1" style="stop-color:#6752F4"/>
</linearGradient>
<path id="rect10" class="st0" d="M19.8,0L19.8,0c11,0,19.8,8.9,19.8,19.8l0,0c0,11-8.9,19.8-19.8,19.8l0,0C8.9,39.7,0,30.8,0,19.8
	l0,0C0,8.9,8.9,0,19.8,0z"/>
<path id="path12" inkscape:connector-curvature="0" class="st1" d="M9,9.4h11.8c4.8,0,9.7,3.4,9.7,10.3S25.6,30,20.8,30h-8.7V18.9
	h5.1V25h3.4c2.2,0,4.8-2.5,4.8-5.3c0-2.8-2.5-5.3-4.8-5.3h-5.6C12.5,14.4,10.5,12.7,9,9.4z"/>
</svg>
