<?xml version="1.0" encoding="utf-8"?>
<!-- Generator: Adobe Illustrator 24.0.0, SVG Export Plug-In . SVG Version: 6.00 Build 0)  -->
<svg version="1.1" id="Layer_1" xmlns="http://www.w3.org/2000/svg" xmlns:xlink="http://www.w3.org/1999/xlink" x="0px" y="0px"
	 viewBox="0 0 2000 2000" style="enable-background:new 0 0 2000 2000;" xml:space="preserve">
<style type="text/css">
	.st0{fill:#3E6492;}
</style>
<path class="st0" d="M384.8,753.5L15.3,824.9C5.1,882.7,0,941.3,0,1000c0,62.5,5.8,123.7,16.7,183l368.1,64.3L384.8,753.5
	L384.8,753.5z M1000,917.5l231.1-458.3H768.9L1000,917.5z M459.1,768.9v462.3L917.5,1000L459.1,768.9z M1515.4,698.5l-213.9-213.9
	l-217.6,431.5L1515.4,698.5z M642.4,435.6L297.6,297.7L435,643L642.4,435.6z M1702.3,297.6L1357,435l207.4,207.4L1702.3,297.6
	L1702.3,297.6z M1540.8,1231.2V768.9L1082.5,1000L1540.8,1231.2z M1702.4,1702.3L1565,1357l-207.4,207.4L1702.4,1702.3z M1319.3,370
	l329.4-131c-112.7-96.1-247-167.7-394.6-206.4L1319.3,370z M2000,1000c0-62.5-5.8-123.7-16.7-183l-368.1-64.3v493.7l369.5-71.4
	C1994.9,1117.3,2000,1058.7,2000,1000z M1629.5,679.8l335.9,58.7c-39.1-144.8-109.9-276.5-204.5-387.3L1629.5,679.8z M642.9,1565
	l-207.4-207.4l-137.8,344.7L642.9,1565z M1630,1319.3l131,329.4c96.1-112.7,167.7-247,206.4-394.6L1630,1319.3z M1648.8,1760.9
	l-328.6-131.4l-58.7,335.9C1406.3,1926.3,1538,1855.5,1648.8,1760.9L1648.8,1760.9z M1515.4,1301.5L1083.9,1084l217.6,431.5
	L1515.4,1301.5z M752.7,384.8h493.7l-71.4-369.5C1117.3,5.1,1058.7,0,1000,0c-62.5,0-123.7,5.8-183,16.8L752.7,384.8z
	 M1247.3,1615.2H753.5l71.4,369.5c57.8,10.2,116.4,15.3,175.1,15.3c62.5,0,123.6-5.8,183-16.7L1247.3,1615.2L1247.3,1615.2z
	 M1000,1082.5l-231.1,458.3h462.3L1000,1082.5z M351.2,239.1l328.6,131.4l58.7-335.9C593.7,73.8,462,144.5,351.2,239.1z
	 M484.6,698.5L916,916.1L698.5,484.6L484.6,698.5L484.6,698.5z M370,680.7L239,351.3C142.8,464,71.3,598.3,32.6,745.9L370,680.7z
	 M484.6,1301.6l213.9,213.9L916,1084L484.6,1301.6z M680.7,1630l-329.4,131c112.7,96.1,247,167.7,394.6,206.4L680.7,1630L680.7,1630
	z M370.5,1320.2l-335.9-58.7c39.1,144.7,109.9,276.5,204.5,387.3L370.5,1320.2L370.5,1320.2z"/>
</svg>
