<svg width="300" height="300" viewBox="0 0 300 300" fill="none" xmlns="http://www.w3.org/2000/svg">
<path d="M299.499 149.499C299.776 232.065 233.067 299.222 150.501 299.499C67.9349 299.776 0.77765 233.067 0.500971 150.501C0.224292 67.935 66.933 0.777661 149.499 0.500982C232.065 0.224303 299.222 66.933 299.499 149.499Z" fill="#030C17"/>
<path opacity="0.2" d="M243.495 242.874C294.776 191.22 294.528 107.903 242.874 56.6213C191.22 5.33968 107.903 5.58802 56.6211 57.2422L243.495 242.874Z" fill="white"/>
<path d="M164.028 136.586C162.538 136.337 161.172 135.965 159.806 135.717C141.429 131.992 128.143 129.384 128.143 116.595C128.143 108.648 135.966 102.315 149.997 102.315C162.538 102.315 172.471 107.406 178.928 116.967L179.922 117.215L199.913 96.7277L199.789 95.9826C191.842 86.5458 181.784 79.9649 170.236 76.4882V76.4882C168.622 75.9915 167.132 75.619 165.518 75.2465H165.394C164.773 75.1223 164.276 74.9981 163.655 74.874V56.7454H136.338V74.874C135.469 74.9981 134.6 75.2465 133.731 75.3707H133.607C120.693 78.4749 109.394 85.18 100.578 95.486C96.8528 101.694 94.9902 109.145 94.9902 117.712C94.9902 147.016 117.092 156.329 138.698 161.544C142.671 162.537 146.644 163.282 150.494 163.903C164.028 166.386 175.7 168.497 175.7 180.666C175.7 188.24 167.381 197.677 149.997 197.677C139.691 197.677 131.247 194.2 125.039 187.867C124.667 187.495 124.17 187.122 123.797 186.75L100.205 203.14V204.009C103.558 207.983 107.283 211.459 111.256 214.439C112.622 215.433 113.988 216.302 115.354 217.171C115.354 217.171 115.354 217.171 115.478 217.171C116.844 218.04 118.334 218.785 119.7 219.53C119.7 219.53 119.824 219.53 119.824 219.655C121.314 220.4 122.68 221.02 124.17 221.641C124.294 221.641 124.294 221.641 124.418 221.765C125.908 222.386 127.398 222.883 128.888 223.38C129.012 223.38 129.137 223.38 129.137 223.504C129.882 223.752 130.502 223.876 131.247 224.125C131.372 224.125 131.372 224.125 131.496 224.125C132.241 224.373 132.986 224.497 133.855 224.745C133.979 224.745 134.103 224.745 134.228 224.87C134.848 224.994 135.593 225.118 136.214 225.242V243.371H163.531V225.242C164.028 225.118 164.525 225.118 165.021 224.994C165.146 224.994 165.146 224.994 165.27 224.994C167.132 224.621 168.995 224.125 170.857 223.504V223.504C171.726 223.255 172.72 222.883 173.589 222.635C183.647 218.91 192.463 212.701 199.664 204.258C202.396 201.029 204.755 197.677 206.866 193.952C207.984 189.978 208.48 185.508 208.48 180.79C208.605 149.251 184.764 140.683 164.028 136.586Z" fill="#FAFBFC"/>
<path d="M100.33 203.885C98.9639 202.271 97.7222 200.657 96.6047 198.919C96.1081 198.174 95.6114 197.428 95.1147 196.808C94.9905 196.683 94.8664 196.435 94.7422 196.311C94.3697 195.69 93.873 194.945 93.5005 194.2C93.3763 193.952 93.2522 193.703 93.128 193.455C92.7555 192.834 92.383 192.089 92.0105 191.468C91.8863 191.22 91.7622 190.972 91.638 190.723C91.2655 190.103 90.893 189.358 90.6446 188.613C90.5205 188.364 90.3963 187.992 90.2721 187.743C89.8996 186.998 89.6513 186.377 89.2788 185.632C89.1546 185.384 89.0304 185.136 88.9063 184.763C88.6579 184.018 88.2854 183.273 88.0371 182.528C88.0371 182.404 87.9129 182.156 87.9129 182.032C87.2921 180.293 86.6712 178.555 86.1746 176.816C86.1746 176.692 86.0504 176.568 86.0504 176.32C85.9262 175.699 85.6779 175.078 85.5537 174.457C85.4296 173.961 85.3054 173.464 85.1812 172.967C85.057 172.346 84.9329 171.85 84.8087 171.229C84.6845 170.732 84.5604 170.111 84.4362 169.615C84.312 168.994 84.1879 168.497 84.0637 167.876C83.9395 167.256 83.8154 166.635 83.6912 166.014C83.567 165.517 83.567 164.896 83.4429 164.4C83.3187 163.779 83.1945 163.158 83.1945 162.413C83.0704 161.916 83.0704 161.42 82.9462 160.799C82.822 160.054 82.822 159.433 82.6978 158.688C82.6978 158.191 82.5737 157.695 82.5737 157.198C82.5737 156.329 82.4495 155.584 82.4495 154.714C82.4495 154.342 82.4495 153.969 82.3253 153.473C82.3253 152.231 82.2012 150.989 82.2012 149.748C82.2012 148.506 82.2012 147.389 82.3253 146.147C82.3253 145.774 82.3253 145.402 82.3253 145.029C82.3253 144.16 82.4495 143.415 82.4495 142.546C82.4495 142.173 82.5737 141.677 82.5737 141.304C82.6978 140.559 82.6978 139.69 82.822 138.945C82.822 138.573 82.9462 138.2 82.9462 137.828C83.0704 136.834 83.1945 135.965 83.3187 135.096C83.3187 134.847 83.3187 134.599 83.4429 134.475C83.567 133.357 83.8154 132.24 84.0637 131.122C84.1879 130.75 84.1879 130.377 84.312 130.129C84.4362 129.384 84.6845 128.639 84.8087 127.894C84.9329 127.522 85.057 127.025 85.057 126.652C85.1812 125.907 85.4296 125.287 85.5537 124.541C85.6779 124.169 85.8021 123.672 85.9262 123.3C86.1746 122.555 86.4229 121.81 86.5471 121.065C86.6712 120.692 86.7954 120.444 86.9196 120.071C87.2921 119.078 87.6646 118.085 88.0371 117.091C88.1613 116.719 88.2854 116.471 88.4096 116.098C88.6579 115.353 88.9063 114.732 89.2788 113.987C89.403 113.615 89.6513 113.242 89.7755 112.745C90.0238 112.125 90.2721 111.628 90.6446 111.007C90.893 110.635 91.0171 110.138 91.2655 109.765C91.5138 109.145 91.8863 108.648 92.1347 108.027C92.383 107.655 92.5072 107.282 92.7555 106.91C93.2522 106.04 93.7489 105.171 94.2455 104.302C93.128 108.4 92.6313 112.87 92.6313 117.588C92.6313 133.73 99.4606 146.023 112.995 154.342C113.74 168.87 117.962 180.293 125.164 187.619L100.33 203.885Z" fill="url(#paint0_linear_78_374)"/>
<path d="M179.053 116.967C183.274 123.3 186.006 131.247 187 140.808C190.476 142.422 193.456 144.284 196.188 146.395C206.246 154.218 211.337 165.641 211.337 180.169C211.337 181.907 211.212 183.646 211.088 185.384V185.26C211.585 184.142 212.082 182.901 212.454 181.659C212.578 181.287 212.702 181.038 212.827 180.666C213.075 179.797 213.447 178.927 213.696 178.058C213.82 177.686 213.944 177.189 214.068 176.816C214.192 176.32 214.441 175.699 214.565 175.202C214.813 174.457 214.937 173.836 215.186 173.091C215.31 172.595 215.434 171.974 215.558 171.477C215.682 170.856 215.807 170.236 215.931 169.615C216.055 169.242 216.055 168.745 216.179 168.373C216.303 167.504 216.552 166.51 216.676 165.641C216.676 165.269 216.8 164.896 216.8 164.524C216.924 163.53 217.048 162.537 217.172 161.544C217.172 161.295 217.172 161.171 217.297 160.923C217.421 159.93 217.545 159.06 217.545 158.067C217.545 157.819 217.545 157.57 217.669 157.322C217.793 156.204 217.793 155.087 217.918 153.969C217.918 153.721 217.918 153.473 217.918 153.224C217.918 152.107 218.042 150.865 218.042 149.748C218.042 148.506 218.042 147.264 217.918 145.898C217.918 145.526 217.918 145.153 217.793 144.657C217.793 143.788 217.669 142.918 217.669 142.173C217.669 141.677 217.545 141.18 217.545 140.683C217.421 139.938 217.421 139.193 217.297 138.448C217.297 137.952 217.172 137.455 217.048 136.834C216.924 136.089 216.924 135.468 216.8 134.723C216.676 134.227 216.676 133.606 216.552 133.109C216.427 132.488 216.303 131.743 216.179 131.122C216.055 130.626 215.931 130.005 215.807 129.508C215.682 128.887 215.558 128.267 215.434 127.646C215.31 127.149 215.186 126.528 215.062 126.031C214.937 125.411 214.689 124.79 214.565 124.169C214.441 123.672 214.317 123.051 214.068 122.555C213.944 121.934 213.696 121.437 213.572 120.816C213.447 120.32 213.199 119.699 213.075 119.202C212.827 118.581 212.702 118.085 212.454 117.588C212.206 117.091 212.082 116.47 211.833 115.974C211.585 115.477 211.461 114.856 211.212 114.36C210.964 113.863 210.716 113.242 210.592 112.745C210.343 112.249 210.095 111.752 209.847 111.255C209.598 110.759 209.35 110.262 209.102 109.641C208.853 109.145 208.605 108.648 208.357 108.151C208.108 107.655 207.86 107.158 207.487 106.661C207.239 106.165 206.991 105.668 206.618 105.295C206.37 104.799 205.997 104.302 205.749 103.805C205.501 103.309 205.128 102.936 204.88 102.439C204.011 101.074 203.017 99.7077 202.024 98.3419V98.3419C201.279 97.3485 200.534 96.4793 199.789 95.6102L179.053 116.967Z" fill="url(#paint1_linear_78_374)"/>
<defs>
<linearGradient id="paint0_linear_78_374" x1="125.397" y1="157.156" x2="67.1345" y2="113.779" gradientUnits="userSpaceOnUse">
<stop offset="0.00058093" stop-color="white"/>
<stop offset="1" stop-color="#1E313F"/>
</linearGradient>
<linearGradient id="paint1_linear_78_374" x1="176.217" y1="135.319" x2="230.023" y2="177.266" gradientUnits="userSpaceOnUse">
<stop offset="0.00058093" stop-color="white"/>
<stop offset="0.9967" stop-color="#4E5A64"/>
</linearGradient>
</defs>
</svg>
