<?xml version="1.0" encoding="utf-8"?>
<!-- Generator: Adobe Illustrator 26.2.1, SVG Export Plug-In . SVG Version: 6.00 Build 0)  -->
<svg version="1.1" id="Layer_1" xmlns="http://www.w3.org/2000/svg" xmlns:xlink="http://www.w3.org/1999/xlink" x="0px" y="0px"
	 viewBox="0 0 500 500" style="enable-background:new 0 0 500 500;" xml:space="preserve">
<style type="text/css">
	.st0{fill:url(#SVGID_1_);}
	.st1{fill:url(#SVGID_00000021832548938677637690000000117735940198450818_);}
	.st2{fill:url(#SVGID_00000094599007173810648320000018435617187088257940_);}
	.st3{fill:url(#SVGID_00000057116529082498194020000011070235903176474252_);}
	.st4{fill:url(#SVGID_00000183214797623816219610000009321691787891155902_);}
	.st5{fill:url(#SVGID_00000072958385171128248310000000547972913216167093_);}
	.st6{fill:url(#SVGID_00000086653035084460797800000012074251106677434043_);}
	.st7{fill:url(#SVGID_00000067954219717875360110000003904440308447886474_);}
	.st8{fill:url(#SVGID_00000130643781726104110780000012330764320095713418_);}
</style>
<linearGradient id="SVGID_1_" gradientUnits="userSpaceOnUse" x1="426.1011" y1="428.0461" x2="72.5511" y2="75.954" gradientTransform="matrix(1 0 0 -1 0 502)">
	<stop  offset="0" style="stop-color:#414FA2"/>
	<stop  offset="1" style="stop-color:#EE4492"/>
</linearGradient>
<path class="st0" d="M73.3,73.2c34.8-35,79.2-58.8,127.5-68.4c48.3-9.6,98.4-4.7,143.8,14.2C390.1,38,429,70,456.3,111.1
	c27.4,41.1,42,89.4,42,138.9s-14.6,97.8-42,138.9C429,430,390.1,462,344.6,481c-45.5,18.9-95.5,23.9-143.8,14.2
	c-48.3-9.6-92.7-33.5-127.5-68.4C26.7,379.9,0.5,316.3,0.5,250S26.7,120.1,73.3,73.2z M421.2,422.5c34-34.1,57.2-77.6,66.5-124.9
	c9.4-47.3,4.6-96.4-13.8-141S424.4,73.8,384.4,47c-40-26.8-87-41.1-135-41.1s-95.1,14.3-135,41.1c-40,26.8-71.1,64.9-89.5,109.5
	s-23.2,93.7-13.8,141c9.4,47.3,32.5,90.8,66.5,124.9c45.6,45.7,107.4,71.3,171.8,71.3S375.6,468.2,421.2,422.5z"/>
<linearGradient id="SVGID_00000153702416026308520510000015764140376073492888_" gradientUnits="userSpaceOnUse" x1="418.6891" y1="420.6727" x2="80.0045" y2="83.385" gradientTransform="matrix(1 0 0 -1 0 502)">
	<stop  offset="0" style="stop-color:#574EA0"/>
	<stop  offset="1" style="stop-color:#D84594"/>
</linearGradient>
<path style="fill:url(#SVGID_00000153702416026308520510000015764140376073492888_);" d="M94.2,94.2
	c47.9-48.1,101.7-76.4,155.6-81.6c59.9-5.8,118.1,17.7,168.2,68c50.1,50.3,73.5,108.7,67.7,168.9c-5.3,54.1-33.4,108.1-81.3,156.2
	c-47.9,48.1-101.7,76.4-155.5,81.6c-59.9,5.9-118-17.6-168.2-68C30.7,369,7.1,310.6,13,250.5C18.2,196.3,46.3,142.3,94.2,94.2z
	 M400.2,401.5c79.5-79.8,124.8-204.9,13.6-316.6C302.6-26.7,177.9,18.6,98.4,98.4C18.9,178.3-26.4,303.4,85,415.2
	S320.7,481.3,400.2,401.5z"/>
<linearGradient id="SVGID_00000155131034496437076380000013215984541736140429_" gradientUnits="userSpaceOnUse" x1="411.1775" y1="413.2755" x2="87.3854" y2="90.8193" gradientTransform="matrix(1 0 0 -1 0 502)">
	<stop  offset="0" style="stop-color:#6C4C9E"/>
	<stop  offset="1" style="stop-color:#C34796"/>
</linearGradient>
<path style="fill:url(#SVGID_00000155131034496437076380000013215984541736140429_);" d="M115.1,115.2
	c37.7-37.9,83.2-78.1,135.1-89.8c53.8-12.1,106.3,8.4,160.5,62.8c54.2,54.4,74.6,107.1,62.4,161c-11.7,51.9-51.9,97.6-89.6,135.5
	c-37.7,37.9-83.2,78.2-134.9,90c-53.7,12.2-106.2-8.3-160.3-62.6c-54.2-54.4-74.7-107.1-62.6-161.2
	C37.3,198.8,77.4,153.1,115.1,115.2z M379.3,380.5c94.2-94.7,134.9-179.9,27.2-288c-107.7-108.1-192.9-67.6-287.2,27
	C25,214-15.6,299.3,92.4,407.7C200.5,516.2,285,475.1,379.3,380.5z"/>
<linearGradient id="SVGID_00000154397972008082825140000001896433513096038052_" gradientUnits="userSpaceOnUse" x1="403.6888" y1="405.878" x2="94.7779" y2="98.2406" gradientTransform="matrix(1 0 0 -1 0 502)">
	<stop  offset="0" style="stop-color:#824B9C"/>
	<stop  offset="1" style="stop-color:#AD4898"/>
</linearGradient>
<path style="fill:url(#SVGID_00000154397972008082825140000001896433513096038052_);" d="M91.4,179.9c7-7,14.3-14,21.6-21.1
	c15.1-14.6,30.9-30.5,45.4-45.6c40.4-42,78.2-81.6,126.8-82c35.8-0.4,74.4,20.8,118,64.7c43.7,43.9,64.6,82.4,64.2,118.2
	c-0.5,48.5-39.8,86.5-81.4,126.5c-15.5,15-31.7,31.2-46.6,46.8c-40,41.8-77.8,81.3-126.1,81.8c-35.7,0.4-74.2-20.7-117.7-64.4
	C52,360.9,30.9,322,31.2,286.1C31.7,245.9,58.6,212.9,91.4,179.9z M140.2,140.4c-7.7,7.7-15.5,15.3-23.1,22.6
	c-40.9,39.5-79.5,76.8-79.9,123.1c-0.3,34.2,20.2,71.6,62.7,114.2c42.5,42.6,79.5,63.1,113.5,62.8c45.8-0.5,82.8-39.1,121.9-80
	c15-15.6,31.2-32,46.8-47c40.7-39.3,79.1-76.4,79.6-122.4c0.4-34.1-20.1-71.4-62.5-113.9C356.7,57.3,319.4,36.7,285.3,37
	c-46.1,0.4-83.2,39.2-122.6,80.2C155.4,124.9,147.9,132.7,140.2,140.4z"/>
<linearGradient id="SVGID_00000134209618892464649640000011100678988969321889_" gradientUnits="userSpaceOnUse" x1="396.3212" y1="398.4803" x2="102.4452" y2="105.8161" gradientTransform="matrix(1 0 0 -1 0 502)">
	<stop  offset="0" style="stop-color:#984A9A"/>
	<stop  offset="1" style="stop-color:#984A9A"/>
</linearGradient>
<path style="fill:url(#SVGID_00000134209618892464649640000011100678988969321889_);" d="M231.9,66.9c15.3-15.4,31.9-26.3,52-27.6
	c30.9-2.1,66.6,18.2,112.1,63.9c45.5,45.7,65.5,81.1,63.4,112.2c-2.4,35.6-34.6,60.1-68.6,85.9c-16.6,12.7-34,25.8-49.2,41.1
	c-15.2,15.3-28.3,32.6-41,49.4c-25.8,34.2-50.2,66.5-85.6,69c-30.9,2.1-66.4-18.1-111.7-63.7C58,351.4,37.5,315.8,39.6,284.7
	c2.4-35.8,34.6-60.4,68.7-86.6c16.5-12.6,33.6-25.7,48.7-40.9c15.1-15.2,28.1-32.3,40.7-48.9C209,93.4,220.1,78.8,231.9,66.9z
	 M428.4,262.6c14.3-14.3,23.8-29.3,25.1-47.5c1.9-28.8-18.2-64-61.8-107.6C348.1,63.9,313,43.4,284.4,45.4
	c-32.9,2.2-55.6,32.1-81.9,66.6c-12.7,16.7-25.9,34-41.3,49.5c-15.4,15.4-32.6,28.6-49.3,41.4c-34.4,26.4-64.2,49.2-66.4,82.2
	c-1.9,28.9,18.3,64.2,61.8,107.9c43.5,43.7,78.4,63.9,107.2,62.1c32.7-2.2,55.2-32.1,81.3-66.6c12.8-16.9,26-34.4,41.5-50.1
	c15.5-15.7,32.9-28.9,49.8-41.7C402.5,285,416.9,274,428.4,262.6z"/>
<linearGradient id="SVGID_00000132794798500801066430000017765538667684849794_" gradientUnits="userSpaceOnUse" x1="388.9474" y1="390.8951" x2="109.8092" y2="112.9084" gradientTransform="matrix(1 0 0 -1 0 502)">
	<stop  offset="0" style="stop-color:#AD4898"/>
	<stop  offset="1" style="stop-color:#824B9C"/>
</linearGradient>
<path style="fill:url(#SVGID_00000132794798500801066430000017765538667684849794_);" d="M62.3,253.6c12.7-12.7,31.6-22.7,51.3-33.1
	c22.8-11.9,46.4-24.4,64.2-42.3c17.8-17.9,30.2-41.6,42.2-64.4c16.6-32,32.5-62.2,60.4-66.5c26.7-4.1,61.1,16.1,108.2,63.5
	c47.2,47.4,67.1,81.7,63,108.3c-4.3,27.8-34.4,43.5-66.3,60.1c-23,11.9-46.8,24.4-64.7,42.4c-17.9,18-30.3,41.9-42.2,65
	c-16.6,32-32.2,62.3-59.9,66.6c-26.5,4.1-60.8-16-107.9-63.2c-47.1-47.3-67.2-81.9-63.2-108.7C49.3,270.6,54.5,260.9,62.3,253.6z
	 M182,182.4c-18.5,18.5-42.4,31.2-65.6,43.4C84.6,242.5,57,257.1,53.3,282c-3.7,24.4,16.4,58.3,61.5,103.6
	c45.1,45.3,78.6,65.3,102.8,61.6c24.7-3.8,39-31.5,55.5-63.4c12.1-23.5,24.7-47.7,43.3-66.5c18.6-18.7,42.8-31.3,66.2-43.5
	c31.8-16.7,59.3-31,63.1-55.8c3.7-24.2-16.3-58-61.3-103.2c-45-45.2-78.8-65.5-103.1-61.8c-24.9,3.8-39.3,31.4-56,63.4
	C213.1,139.8,200.5,163.9,182,182.4z"/>
<linearGradient id="SVGID_00000029028759956352300980000003475979614806455448_" gradientUnits="userSpaceOnUse" x1="381.5963" y1="383.4335" x2="117.3733" y2="120.3011" gradientTransform="matrix(1 0 0 -1 0 502)">
	<stop  offset="0" style="stop-color:#C34796"/>
	<stop  offset="1" style="stop-color:#6C4C9E"/>
</linearGradient>
<path style="fill:url(#SVGID_00000029028759956352300980000003475979614806455448_);" d="M63.8,261.9c12.5-12.6,35.3-19.5,59.2-26.8
	c28.2-8.6,57.4-17.5,75.8-35.9c18.4-18.4,27.2-47.7,35.8-76.1c9.7-32.1,19-62.5,41.7-68.3c22.7-5.8,56.2,14.3,105,63.4
	c48.8,49.1,68.7,82.2,63,105c-5.7,22.8-36.1,31.9-68.2,41.5c-28.5,8.5-57.9,17.3-76.4,35.8c-18.4,18.5-27.1,48-35.7,76.7
	c-9.5,32.2-18.6,62.7-41.3,68.4s-55.9-14.3-104.6-63.2C69.4,333.5,49.1,299.9,54.9,277C56.4,271.2,59.5,266,63.8,261.9z
	 M431.2,233.9c3.4-3.3,5.9-7.5,7.1-12.2c5.1-20.2-15-52.7-61.4-99.3c-46.4-46.6-79-67-99.3-61.9c-19.6,4.9-28.3,33.7-37.5,64.2
	c-8.4,27.7-17.9,59.1-37.3,78.6c-19.4,19.5-50.7,29-78.3,37.4c-30.4,9.3-59.1,18-64,37.7c-5.1,20.4,15,53,61.6,99.7
	c46.5,46.7,78.8,66.8,98.9,61.6c19.5-5,28-33.8,37.1-64.4c8.3-28,17.7-59.7,37.2-79.2c19.5-19.6,51.1-29,78.9-37.3
	C397.6,252,419.9,245.4,431.2,233.9z"/>
<linearGradient id="SVGID_00000096753015525882235140000014134764019891211159_" gradientUnits="userSpaceOnUse" x1="374.1318" y1="375.9891" x2="124.7668" y2="127.6521" gradientTransform="matrix(1 0 0 -1 0 502)">
	<stop  offset="0" style="stop-color:#D84594"/>
	<stop  offset="1" style="stop-color:#574EA0"/>
</linearGradient>
<path style="fill:url(#SVGID_00000096753015525882235140000014134764019891211159_);" d="M263,67.5c2.5-2.5,5.5-4.4,8.8-5.6
	c19.8-6.9,51.2,12.7,102.1,63.8c50.8,51.1,70.2,82.4,63.3,102.1c-6.9,19.7-37.3,22.7-72.5,26.5c-32,3.4-68.2,7.3-86,25.2
	c-17.8,17.9-21.6,54.2-25.1,86.3c-3.8,35.4-7.1,66-26.4,72.8c-19.3,6.9-50.9-12.6-101.6-63.6C74.7,324.1,55,292.4,61.9,272.6
	c6.9-19.8,37.2-23,72.3-27c31.7-3.6,67.6-7.7,85.3-25.4s21.7-53.9,25.3-85.7C248.2,105.3,251.1,79.4,263,67.5z M427.5,232.2
	c1.8-1.8,3.2-3.9,4-6.3c5.9-16.7-14.3-48.1-61.9-95.8c-47.7-47.7-79.1-68.3-95.9-62.4c-15.9,5.6-19.3,35.8-22.9,67.6
	c-3.7,32.8-7.8,70-27,89.2s-56.2,23.4-88.9,27.1c-31.8,3.6-61.8,7-67.4,23c-5.9,16.9,14.4,48.4,62.1,96.3
	c47.7,47.9,78.8,68.1,95.5,62.1c15.9-5.6,19-35.8,22.5-67.9c3.5-33.1,7.5-70.6,26.8-90c19.3-19.3,56.6-23.3,89.6-26.9
	C391.2,245.4,417,242.6,427.5,232.2L427.5,232.2z"/>
<linearGradient id="SVGID_00000049199222304671726330000011974870701852091052_" gradientUnits="userSpaceOnUse" x1="366.8347" y1="368.4944" x2="132.433" y2="135.0595" gradientTransform="matrix(1 0 0 -1 0 502)">
	<stop  offset="0" style="stop-color:#EE4492"/>
	<stop  offset="1" style="stop-color:#414FA2"/>
</linearGradient>
<path style="fill:url(#SVGID_00000049199222304671726330000011974870701852091052_);" d="M261.7,72.2c1.5-1.5,3.3-2.7,5.2-3.6
	c16.9-7.5,47.5,12.4,99.6,64.6s71.6,82.7,64.2,99.5c-7.4,16.8-40.6,15.4-78.7,13.4c-36.5-1.9-77.8-4.2-94.2,12.3
	c-16.4,16.4-14.3,57.9-12.2,94.6c2,38.2,3.8,71.4-13.3,79c-16.6,7.5-47.3-12.3-99.1-64.4c-51.8-52.1-71.8-83-64.3-100
	c7.5-17,40.4-15.7,78.4-13.8c36.2,1.7,77.2,3.7,93.5-12.7c16.3-16.4,14.3-57.5,12.6-93.9C251.6,113.6,250.1,83.9,261.7,72.2z
	 M422.9,233.6c1-0.9,1.8-2,2.4-3.3c6.1-13.7-15.1-44.9-62.9-92.9c-47.8-48-79.3-69.5-93.1-63.4c-13.7,6.1-11.9,40-10.2,73
	c1.9,39.4,3.8,80.1-14.3,98.4s-58.7,16.3-97.9,14.3c-32.8-1.6-66.7-3.2-72.7,10.3c-6,13.5,15.1,45.2,63.1,93.3
	c47.9,48.1,78.9,69.2,92.5,63.1c13.6-6.1,11.6-40.2,9.8-73.3c-2.1-39.7-4.3-80.8,14-99.1c18.3-18.3,59.1-16.1,98.7-14
	C382.2,241.8,413.1,243.5,422.9,233.6z"/>
</svg>
