<?xml version="1.0" encoding="utf-8"?>
<!-- Generator: Adobe Illustrator 27.7.0, SVG Export Plug-In . SVG Version: 6.00 Build 0)  -->
<svg version="1.1" id="Layer_1" xmlns="http://www.w3.org/2000/svg" xmlns:xlink="http://www.w3.org/1999/xlink" x="0px" y="0px"
	 viewBox="0 0 500 500" style="enable-background:new 0 0 500 500;" xml:space="preserve">
<style type="text/css">
	.st0{fill:#021540;}
	.st1{fill-rule:evenodd;clip-rule:evenodd;fill:#FFFFFF;}
</style>
<g>
	<path class="st0" d="M250,0L250,0c138.1,0,250,111.9,250,250l0,0c0,138.1-111.9,250-250,250l0,0C111.9,500,0,388.1,0,250l0,0
		C0,111.9,111.9,0,250,0z"/>
	<path class="st1" d="M87.6,156.3L87.6,156.3c-16,27.6-25.1,59.6-25.1,93.8c0,61.3,29.5,115.8,75,150c45.5-34.2,75-88.7,75-150
		c0-1.3,0-2.5,0-3.8c12.1,2.5,24.7,3.8,37.5,3.8c69.4,0,130-37.7,162.4-93.8c-32.4-56-93-93.8-162.4-93.8
		C180.6,62.5,120,100.2,87.6,156.3z M90.6,250c0-24.2,5.4-47.2,15.1-67.8c20.6,24.8,47.5,44.2,78.2,55.8c0.3,4,0.4,7.9,0.4,12
		c0,44.1-17.9,84-46.9,112.9C108.5,334,90.6,294.1,90.6,250z M250,221.9c-14,0-27.5-1.8-40.5-5.2c-6.8-37.7-24.7-71.4-50.4-97.7
		c25.8-17.9,57.1-28.4,90.8-28.4c53,0,99.9,25.8,128.9,65.6C349.9,196.1,303,221.9,250,221.9z M121.1,156.3
		c14.8,20.3,34.2,36.9,56.7,48.4c-7.7-25.9-21.7-49-40.3-67.5C131.6,143,126.1,149.4,121.1,156.3z M250,409.4
		c-2.3,0-4.6-0.1-6.9-0.1c13.3-74.5,78.5-131.1,156.9-131.1c2.3,0,4.6,0,6.9,0.1C393.6,352.8,328.4,409.4,250,409.4z M400,250
		c12.8,0,25.4,1.3,37.5,3.7c-2,101.8-85.2,183.8-187.5,183.8c-12.8,0-25.4-1.3-37.5-3.7C214.5,331.9,297.7,250,400,250z"/>
</g>
</svg>
