<svg viewBox="0 0 203 173" xmlns="http://www.w3.org/2000/svg" xmlns:xlink="http://www.w3.org/1999/xlink"><linearGradient id="a"><stop offset="0" stop-color="#43c465"/><stop offset="1" stop-color="#14a53c"/></linearGradient><linearGradient id="b" gradientUnits="userSpaceOnUse" x1="44.6358" x2="45.3025" xlink:href="#a" y1="76.7643" y2="31.4309"/><linearGradient id="c" gradientUnits="userSpaceOnUse" x1="99.2943" x2="52.6276" y1="25.134" y2="23.134"><stop offset="0" stop-color="#33c2f7"/><stop offset="1" stop-color="#0f95b2"/></linearGradient><linearGradient id="d" gradientUnits="userSpaceOnUse" x1="45.1905" x2="44.5238" xlink:href="#a" y1="141.9277" y2="87.9277"/><linearGradient id="e" gradientUnits="userSpaceOnUse" x1="108.2374" x2="148.9041" y1="25.1477" y2="24.4811"><stop offset="0" stop-color="#03b7f9"/><stop offset="1" stop-color="#0f95b2"/></linearGradient><linearGradient id="f" gradientUnits="userSpaceOnUse" x1="158.283" x2="156.9497" xlink:href="#a" y1="78.5135" y2="32.5135"/><linearGradient id="g" gradientUnits="userSpaceOnUse" x1="159.2011" x2="158.5344" xlink:href="#a" y1="144.8905" y2="88.8905"/><linearGradient id="h" gradientUnits="userSpaceOnUse" x1="100.3811" x2="50.3811" y1="147.2932" y2="148.6265"><stop offset="0" stop-color="#fff58e"/><stop offset="1" stop-color="#ffca20"/></linearGradient><linearGradient id="i" gradientUnits="userSpaceOnUse" x1="106.0983" x2="144.0983" y1="147.4657" y2="149.4657"><stop offset="0" stop-color="#feda5a"/><stop offset="1" stop-color="#ffca20"/></linearGradient><path d="m0 86h89l-56-55.5z" fill="url(#b)"/><path d="m102 0v50.5l-50.5-50.5z" fill="url(#c)"/><path d="m89 86-55.5 56-33.5-56z" fill="url(#d)"/><path d="m102 50.5 50.3-50.5h-50.3z" fill="url(#e)"/><path d="m203 86-33.5-55.5-55.5 55.5z" fill="url(#f)"/><path d="m170.5 142-56.5-56h89z" fill="url(#g)"/><path d="m102 121.5v51.5h-50.5z" fill="url(#h)"/><path d="m152.3 173h-50.3v-51.5z" fill="url(#i)"/></svg>