<?xml version="1.0" encoding="utf-8"?>
<!-- Generator: Adobe Illustrator 27.5.0, SVG Export Plug-In . SVG Version: 6.00 Build 0)  -->
<svg version="1.1" id="Layer_1" xmlns="http://www.w3.org/2000/svg" xmlns:xlink="http://www.w3.org/1999/xlink" x="0px" y="0px"
	 viewBox="0 0 500 500" style="enable-background:new 0 0 500 500;" xml:space="preserve">
<style type="text/css">
	.st0{fill:none;}
</style>
<g>
	<path class="st0" d="M38.5,0"/>
	<g>
		<path d="M211.5,500h-16.8l-1.7-38c-44-12.6-82.8-38.9-110.7-75.2c-58.5-76.4-58.5-182.6,0-259C110.2,91.4,149,65,193.1,52.5
			l1.7-38h16.8l1.5,33.4c114.8-20.6,224.6,55.8,245.2,170.6c2.3,12.8,3.4,25.7,3.3,38.7v0.1c-0.1,8.3-6.9,14.9-15.2,14.9H296.9
			c-2.7,0-5.4,0.1-8,0.4c-5.2,0.5-10.4,1.6-15.4,3.2c-2.4,0.8-4.9,1.7-7.2,2.7c-29.2,12.5-48.2,41.2-48.2,73l-3.8,84.7
			c11.7,2.4,23.7,3.5,35.7,3.5c77.3,0,152.6-48.7,179-115.7h21.6c-13.8,41.9-40.3,78.5-75.8,104.6C338.8,455.6,295,470,250,469.9
			c-12.4,0-24.8-1.1-37-3.3L211.5,500L211.5,500z M69.1,272.3c5.8,72.3,53.9,134.2,122.5,157.8l-3.5-78.5c0-8-1.2-15.9-3.5-23.5
			c-3.4-11-9.2-21-16.9-29.5c-1.7-1.9-3.5-3.7-5.3-5.4c-12.1-11.1-27.4-18.2-43.8-20.2c-3.1-0.4-6.2-0.6-9.2-0.6H69.1z M203.1,218.1
			c-9.4,16.2-22.9,29.7-39,39.2c16.1,9.5,29.5,23,39,39.2c9.4-16.2,22.9-29.7,39-39.2C226,247.7,212.6,234.2,203.1,218.1z M250,74.7
			c-12,0-23.9,1.2-35.7,3.6l3.8,84.7c-0.1,43.6,35.1,79.1,78.7,79.2c0,0,0.1,0,0.1,0h134C423,148,344.5,75.4,250,74.7z M191.6,84.4
			C123.1,108,74.9,169.9,69.1,242.2h40.2c23.6,0,45.9-10.6,60.8-28.9c11.6-14.2,18-32,18-50.4L191.6,84.4z"/>
	</g>
</g>
</svg>
