<?xml version="1.0" encoding="utf-8"?>
<!-- Generator: Adobe Illustrator 27.0.1, SVG Export Plug-In . SVG Version: 6.00 Build 0)  -->
<svg version="1.1" id="elg" xmlns="http://www.w3.org/2000/svg" xmlns:xlink="http://www.w3.org/1999/xlink" x="0px" y="0px"
	 viewBox="0 0 500 500" style="enable-background:new 0 0 500 500;" xml:space="preserve">
<style type="text/css">
	.st0{fill:#1992EE;}
	.st1{fill:#1861B8;}
	.st2{fill:#124E95;}
	.st3{fill:#1475BF;}
	.st4{fill:#1863BB;}
</style>
<path class="st0" d="M305.5,476.2L305.5,476.2L85,348.8c-1.4-0.8-2.3-2.4-2.3-4V155.2c0-1.7,0.9-3.2,2.3-4l-56.3,32.3v161.3
	c0,20.9,11.2,40.3,29.3,50.8l164.2,94.8c9,5.2,19.2,7.8,29.3,7.8c10.1,0,20.3-2.6,29.3-7.8L305.5,476.2"/>
<polygon class="st0" points="232.3,413.1 102.4,337.5 102.4,168.4 232.8,243.4 232.8,289.9 142.1,236.2 142.1,315.1 232.8,367.2 "/>
<polygon class="st1" points="102.4,168.4 250.2,83.3 250.2,129.2 142.4,191.2 "/>
<polygon class="st2" points="250.2,83.3 396.3,168.4 357.1,191.4 250.2,129.2 "/>
<polygon class="st3" points="357.1,191.4 250.2,252.4 250.2,422 396.9,337.5 396.9,291 289.9,353.7 289.9,275.3 396.3,214.3 
	396.3,168.4 "/>
<path class="st3" d="M420.7,90.3L420.7,90.3L420.4,345c0,1.7-0.9,3.2-2.3,4l-164.3,94.6c-1.4,0.8-3.2,0.8-4.7,0l56.1,32.6L445,395.8
	c18.1-10.4,29.3-29.9,29.4-50.7l0.2-189.6c0-10.4-2.8-20.5-7.8-29.3c-5.1-8.8-12.4-16.3-21.4-21.5L420.7,90.3"/>
<path class="st4" d="M28.7,183.6L28.7,183.6L249.3,56.4c1.4-0.8,3.2-0.8,4.6,0l164.2,94.9c1.4,0.8,2.3,2.4,2.3,4l0.2-64.9L280.9,9.7
	c-18.1-10.5-40.5-10.5-58.6,0L58,104.4c-9,5.2-16.4,12.7-21.5,21.5c-5.1,8.8-7.9,18.9-7.9,29.3L28.7,183.6"/>
</svg>
