<?xml version="1.0" encoding="utf-8"?>
<!-- Generator: Adobe Illustrator 27.7.0, SVG Export Plug-In . SVG Version: 6.00 Build 0)  -->
<svg version="1.1" id="Layer_1" xmlns="http://www.w3.org/2000/svg" xmlns:xlink="http://www.w3.org/1999/xlink" x="0px" y="0px"
	 viewBox="0 0 500 500" style="enable-background:new 0 0 500 500;" xml:space="preserve">
<style type="text/css">
	.st0{fill:url(#SVGID_1_);}
</style>
<linearGradient id="SVGID_1_" gradientUnits="userSpaceOnUse" x1="409.9181" y1="-3.664" x2="-99.3074" y2="803.2811" gradientTransform="matrix(1 0 0 -1 0 499.8898)">
	<stop  offset="0" style="stop-color:#44BCF0"/>
	<stop  offset="0.3788" style="stop-color:#7298F8"/>
	<stop  offset="1" style="stop-color:#A099FF"/>
</linearGradient>
<path class="st0" d="M83.7,117.6c4.7-8.7,11.4-16.1,19.7-21.6L241.5,0L100,233.1c0,0-12.4-20.8-17.2-31.4c-6-13.2-9-27.6-8.9-42.2
	C74.1,145.1,77.4,130.8,83.7,117.6z M26.7,278.5c1.6,22.3,7.9,44,18.5,63.7c10.7,19.7,25.4,36.8,43.3,50.3l152.8,106.1
	c0,0-95.6-137.2-176.2-273.8c-8.2-14.4-13.6-30.2-16.2-46.6c-1.1-7.4-1.1-14.9,0-22.4c-2.1,3.9-6.2,11.8-6.2,11.8
	c-8.2,16.6-13.7,34.4-16.5,52.7C24.6,239.7,24.8,259.2,26.7,278.5z M416.2,296.9c-4.9-10.5-17.2-31.4-17.2-31.4l-141.3,233l138.1-96
	c8.2-5.5,15-12.9,19.7-21.6c6.3-13.1,9.6-27.4,9.8-42c0.2-14.5-2.9-28.9-8.9-42.2L416.2,296.9z M472.2,220.2
	c-1.6-22.3-7.9-44-18.5-63.7c-10.7-19.7-25.4-36.8-43.3-50.3L257.9,0c0,0,95.5,137.2,176.2,273.8c8.1,14.4,13.6,30.2,16.1,46.6
	c1.1,7.4,1.1,14.9,0,22.4c2.1-3.9,6.2-11.8,6.2-11.8c8.2-16.6,13.7-34.4,16.5-52.7c1.6-19.3,1.5-38.8-0.4-58.1L472.2,220.2z"/>
</svg>
