<?xml version="1.0" encoding="utf-8"?>
<!-- Generator: Adobe Illustrator 27.7.0, SVG Export Plug-In . SVG Version: 6.00 Build 0)  -->
<svg version="1.1" id="Layer_1" xmlns="http://www.w3.org/2000/svg" xmlns:xlink="http://www.w3.org/1999/xlink" x="0px" y="0px"
	 viewBox="0 0 500 500" style="enable-background:new 0 0 500 500;" xml:space="preserve">
<style type="text/css">
	.st0{fill:#00FF00;}
</style>
<circle class="st0" cx="250" cy="250" r="250"/>
<path d="M250,100c-29.7,0-58.7,8.8-83.3,25.3c-24.7,16.5-43.9,39.9-55.3,67.3c-11.4,27.4-14.3,57.6-8.5,86.7
	c5.8,29.1,20.1,55.8,41.1,76.8c21,21,47.7,35.3,76.8,41.1c29.1,5.8,59.3,2.8,86.7-8.5c27.4-11.4,50.8-30.6,67.3-55.3
	c16.5-24.7,25.3-53.7,25.3-83.3c0-39.8-15.8-77.9-43.9-106.1C327.9,115.8,289.8,100,250,100z M250,367.2
	c-29.7,0-58.2-11.2-79.9-31.4s-34.9-47.9-37-77.5c-2.1-29.6,7.1-58.9,25.8-81.9s45.4-38.2,74.7-42.3v71.7
	c-10.4,3.9-19.1,11.2-24.6,20.9c-5.5,9.6-7.4,20.9-5.5,31.8c2,10.9,7.7,20.8,16.2,27.9c8.5,7.1,19.2,11,30.3,11
	c11.1,0,21.8-3.9,30.3-11c8.5-7.1,14.2-17,16.2-27.9c2-10.9,0-22.1-5.5-31.8c-5.5-9.6-14.2-17-24.6-20.9V134
	c29.4,4.1,56.1,19.3,74.7,42.3c18.7,23.1,27.9,52.3,25.8,81.9c-2.1,29.6-15.3,57.3-37,77.5c-21.7,20.2-50.3,31.4-79.9,31.4V367.2z"
	/>
</svg>
