<?xml version="1.0" encoding="utf-8"?>
<!-- Generator: Adobe Illustrator 26.0.1, SVG Export Plug-In . SVG Version: 6.00 Build 0)  -->
<svg version="1.1" id="Layer_1" xmlns="http://www.w3.org/2000/svg" xmlns:xlink="http://www.w3.org/1999/xlink" x="0px" y="0px"
	 viewBox="0 0 41.4 46.1" style="enable-background:new 0 0 41.4 46.1;" xml:space="preserve">
<style type="text/css">
	.st0{fill:#87F96E;}
	.st1{fill:url(#SVGID_1_);}
	.st2{fill:#062F4F;}
</style>
<path class="st0" d="M22.7,0.5c-1.1-0.6-2.9-0.6-4,0L2,10c-1.1,0.6-2,2.2-2,3.4v19.2c0,1.3,0.9,2.8,2,3.4l16.7,9.6
	c1.1,0.6,2.9,0.6,4,0l16.7-9.6c1.1-0.6,2-2.2,2-3.4V13.5c0-1.3-0.9-2.8-2-3.4L22.7,0.5z"/>
<linearGradient id="SVGID_1_" gradientUnits="userSpaceOnUse" x1="20.6769" y1="47.8898" x2="20.6769" y2="1.7803" gradientTransform="matrix(1 0 0 -1 0 47.8898)">
	<stop  offset="0" style="stop-color:#FFFFFF"/>
	<stop  offset="0.98" style="stop-color:#389E20"/>
	<stop  offset="1" style="stop-color:#000000"/>
</linearGradient>
<path class="st1" d="M22.7,0.5c-1.1-0.6-2.9-0.6-4,0L2,10c-1.1,0.6-2,2.2-2,3.4v19.2c0,1.3,0.9,2.8,2,3.4l16.7,9.6
	c1.1,0.6,2.9,0.6,4,0l16.7-9.6c1.1-0.6,2-2.2,2-3.4V13.5c0-1.3-0.9-2.8-2-3.4L22.7,0.5z"/>
<path class="st2" d="M22.3,10.1c0-0.8-0.7-1.5-1.5-1.5c-0.8,0-1.5,0.7-1.5,1.5v27c0,0.8,0.7,1.5,1.5,1.5c0.8,0,1.5-0.7,1.5-1.5V10.1
	z"/>
<path class="st2" d="M33.9,23.2c-0.2-0.3-0.5-0.6-0.9-0.7s-0.8,0-1.1,0.1l-9.7,5.6v3.4l11.1-6.4c0.3-0.2,0.6-0.5,0.7-0.9
	C34.2,23.9,34.1,23.5,33.9,23.2z"/>
<path class="st2" d="M7.7,23.4c0.2-0.3,0.5-0.6,0.9-0.7c0.4-0.1,0.8,0,1.1,0.1l9.7,5.6v3.4L8.3,25.4c-0.3-0.2-0.6-0.5-0.7-0.9
	C7.5,24.1,7.5,23.7,7.7,23.4L7.7,23.4z"/>
<path class="st2" d="M33.9,15.6c-0.2-0.3-0.5-0.6-0.9-0.7c-0.4-0.1-0.8,0-1.1,0.1l-9.7,5.6V24l11.1-6.4c0.3-0.2,0.6-0.5,0.7-0.9
	S34.1,15.9,33.9,15.6L33.9,15.6z"/>
<path class="st2" d="M7.7,15.8c0.2-0.3,0.5-0.6,0.9-0.7c0.4-0.1,0.8,0,1.1,0.1l9.7,5.6v3.4L8.3,17.8c-0.3-0.2-0.6-0.5-0.7-0.9
	C7.5,16.5,7.5,16.1,7.7,15.8L7.7,15.8z"/>
</svg>
