<?xml version="1.0" encoding="utf-8"?>
<!-- Generator: Adobe Illustrator 27.0.1, SVG Export Plug-In . SVG Version: 6.00 Build 0)  -->
<svg version="1.1" id="ethw" xmlns="http://www.w3.org/2000/svg" xmlns:xlink="http://www.w3.org/1999/xlink" x="0px" y="0px"
	 viewBox="0 0 500 500" style="enable-background:new 0 0 500 500;" xml:space="preserve">
<style type="text/css">
	.st0{fill:url(#SVGID_1_);}
	.st1{fill:url(#SVGID_00000011732156298966923800000017725217808814296754_);}
	.st2{fill:url(#SVGID_00000044139401069395299340000015575592925424009100_);}
	.st3{fill:url(#SVGID_00000160879040473143473470000017049240507549145748_);}
	.st4{fill:#6C87DC;}
	.st5{fill:#C8CBF8;}
	.st6{fill:#B0B4E9;}
	.st7{fill:url(#SVGID_00000021087179584896010250000002162497305689067696_);}
	.st8{fill:#DADCF4;}
	.st9{fill:url(#SVGID_00000111178977917865938830000017239889411369203635_);}
	.st10{fill:url(#SVGID_00000085248222563498307140000010384858772120003497_);}
	.st11{fill:url(#SVGID_00000084516002707926028360000016552994985595180703_);}
	.st12{fill:url(#SVGID_00000120553141878075688760000003941340016107159189_);}
</style>
<linearGradient id="SVGID_1_" gradientUnits="userSpaceOnUse" x1="141.4179" y1="273.269" x2="286.0034" y2="22.8396">
	<stop  offset="0" style="stop-color:#A795F2"/>
	<stop  offset="0.539" style="stop-color:#B7D0E1"/>
</linearGradient>
<polygon class="st0" points="99,248.8 249,1.5 249,184.9 "/>
<linearGradient id="SVGID_00000027592404011102780010000013337809940073357198_" gradientUnits="userSpaceOnUse" x1="212.2095" y1="22.7433" x2="355.8539" y2="271.5427">
	<stop  offset="0.3147" style="stop-color:#E1EFF3"/>
	<stop  offset="1" style="stop-color:#B6DDF5"/>
</linearGradient>
<polygon style="fill:url(#SVGID_00000027592404011102780010000013337809940073357198_);" points="398.5,246.9 249,184.9 249,1.5 "/>
<linearGradient id="SVGID_00000163758622380722959840000006053506563395860915_" gradientUnits="userSpaceOnUse" x1="158.1962" y1="307.9916" x2="265.1352" y2="201.0527">
	<stop  offset="0" style="stop-color:#D6CDFB"/>
	<stop  offset="1" style="stop-color:#DEE1F9"/>
</linearGradient>
<polygon style="fill:url(#SVGID_00000163758622380722959840000006053506563395860915_);" points="99,248.8 248.4,336.2 249,184.9 
	"/>
<linearGradient id="SVGID_00000106114668625112072380000011829018559329427883_" gradientUnits="userSpaceOnUse" x1="225.9305" y1="313.757" x2="345.6154" y2="194.0722">
	<stop  offset="0" style="stop-color:#EBF1F1"/>
	<stop  offset="1" style="stop-color:#FBFCF7"/>
</linearGradient>
<polygon style="fill:url(#SVGID_00000106114668625112072380000011829018559329427883_);" points="398.5,246.9 248.4,336.2 
	249,184.9 "/>
<polygon class="st4" points="97.1,278.5 248.4,497.8 248.4,364.2 "/>
<polygon class="st5" points="401.5,278.5 248.4,364.2 248.4,497.8 "/>
<polygon class="st6" points="324.7,298 249,192.1 173.1,296 165.1,149.2 171.3,148.9 178.3,278.3 249,181.5 319.3,279.7 
	324.4,152.8 330.6,153 "/>
<linearGradient id="SVGID_00000021101826019000313040000000476781631463943325_" gradientUnits="userSpaceOnUse" x1="154.8274" y1="151.6609" x2="181.9528" y2="124.5355">
	<stop  offset="0" style="stop-color:#758ED6"/>
	<stop  offset="1" style="stop-color:#C6CBF4"/>
</linearGradient>
<circle style="fill:url(#SVGID_00000021101826019000313040000000476781631463943325_);" cx="168.4" cy="138.1" r="19.2"/>
<path class="st8" d="M178,131c-1,0-2-0.7-2.3-1.7c-0.3-0.8-0.9-1.8-3.1-2.2c-1.3-0.2-2.2-1.5-2-2.9c0.2-1.3,1.5-2.2,2.9-2
	c4.4,0.8,6.2,3.4,6.9,5.5c0.4,1.3-0.3,2.7-1.6,3.1C178.5,131,178.2,131,178,131z"/>
<linearGradient id="SVGID_00000147179226776776844580000011690886131678227076_" gradientUnits="userSpaceOnUse" x1="236.2498" y1="198.6977" x2="263.3753" y2="171.5723">
	<stop  offset="0" style="stop-color:#758ED6"/>
	<stop  offset="1" style="stop-color:#C6CBF4"/>
</linearGradient>
<circle style="fill:url(#SVGID_00000147179226776776844580000011690886131678227076_);" cx="249.8" cy="185.1" r="19.2"/>
<path class="st8" d="M259.4,178c-1,0-2-0.7-2.3-1.7c-0.3-0.8-0.9-1.8-3.1-2.2c-1.3-0.2-2.2-1.5-2-2.9c0.2-1.3,1.5-2.2,2.9-2
	c4.4,0.8,6.2,3.4,6.9,5.5c0.4,1.3-0.3,2.7-1.6,3.1C259.9,178,259.7,178,259.4,178z"/>
<linearGradient id="SVGID_00000001657532805877008830000015895565396702989464_" gradientUnits="userSpaceOnUse" x1="162.9372" y1="300.5569" x2="190.0626" y2="273.4315">
	<stop  offset="0" style="stop-color:#758ED6"/>
	<stop  offset="1" style="stop-color:#C6CBF4"/>
</linearGradient>
<circle style="fill:url(#SVGID_00000001657532805877008830000015895565396702989464_);" cx="176.5" cy="287" r="19.2"/>
<path class="st8" d="M186.1,279.9c-1,0-2-0.7-2.3-1.7c-0.3-0.8-0.9-1.8-3.1-2.2c-1.3-0.2-2.2-1.5-2-2.9c0.2-1.3,1.5-2.2,2.9-2
	c4.4,0.8,6.2,3.4,6.9,5.5c0.4,1.3-0.3,2.7-1.6,3.1C186.6,279.9,186.3,279.9,186.1,279.9z"/>
<linearGradient id="SVGID_00000154396438580392031010000002005888432669661100_" gradientUnits="userSpaceOnUse" x1="307.9405" y1="300.2325" x2="335.0659" y2="273.1071">
	<stop  offset="0" style="stop-color:#758ED6"/>
	<stop  offset="1" style="stop-color:#C6CBF4"/>
</linearGradient>
<circle style="fill:url(#SVGID_00000154396438580392031010000002005888432669661100_);" cx="321.5" cy="286.7" r="19.2"/>
<path class="st8" d="M331.1,279.6c-1,0-2-0.7-2.3-1.7c-0.3-0.8-0.9-1.8-3.1-2.2c-1.3-0.2-2.2-1.5-2-2.9c0.2-1.3,1.5-2.2,2.9-2
	c4.4,0.8,6.2,3.4,6.9,5.5c0.4,1.3-0.3,2.7-1.6,3.1C331.6,279.5,331.3,279.6,331.1,279.6z"/>
<linearGradient id="SVGID_00000160903410462123173200000011605329672378061245_" gradientUnits="userSpaceOnUse" x1="315.4016" y1="151.3365" x2="342.5269" y2="124.2111">
	<stop  offset="0" style="stop-color:#758ED6"/>
	<stop  offset="1" style="stop-color:#C6CBF4"/>
</linearGradient>
<circle style="fill:url(#SVGID_00000160903410462123173200000011605329672378061245_);" cx="329" cy="137.8" r="19.2"/>
<path class="st8" d="M338.5,130.7c-1,0-2-0.7-2.3-1.7c-0.3-0.8-0.9-1.8-3.1-2.2c-1.3-0.2-2.2-1.5-2-2.9c0.2-1.3,1.5-2.2,2.9-2
	c4.4,0.8,6.2,3.4,6.9,5.5c0.4,1.3-0.3,2.7-1.6,3.1C339.1,130.6,338.8,130.7,338.5,130.7z"/>
</svg>
