<svg id="Layer_1" data-name="Layer 1" xmlns="http://www.w3.org/2000/svg" viewBox="0 0 2500.03 2491.71"><title>electroneum</title><g id="Group"><g id="Vector"><path id="path0_fill" data-name="path0 fill" d="M1720.15,991.52l204,154.4,129,97.48-144.1,73.26L1619.64,1464.4l99.3,68.42,138.65,96.27-150.16,77.5L787.12,2181.28a1036.16,1036.16,0,0,0,499.52,128.36c572.17,0,1036-463.79,1036-1036a1029.91,1029.91,0,0,0-240.37-663.6L1720.15,991.52h0Z" style="fill:#091b26"/></g><g id="Vector-2" data-name="Vector"><path id="path1_fill" data-name="path1 fill" d="M810.82,1581l-204-155-129-97.48,144.1-73.26L911.33,1107.5l-99.3-69L673.38,942.21l150.16-77.5L1792.9,364.59a1025.57,1025.57,0,0,0-548-156.82c-572.17,0-1036,463.79-1036,1036,0,265.8,100.51,508.6,265.2,692.06L810.82,1581h0Z" style="fill:#091b26"/></g><g id="Vector-3" data-name="Vector"><path id="path2_fill" data-name="path2 fill" d="M395.37,1987.77c-182.85-200.41-294.26-466.82-294.26-758.66,0-621.82,506.18-1128,1128-1128,229.47,0,452.89,69.63,641.2,201l100.51-52.07C1765,93.24,1507.63,0,1229.11,0,551.59,0,0,551.59,0,1229.11,0,1550,123.52,1841.85,325.14,2061l70.23-73.26h0Z" style="fill:#091b26"/></g><g id="Vector-4" data-name="Vector"><path id="path3_fill" data-name="path3 fill" d="M2129.48,532.4c167.72,196.78,269.44,452.29,269.44,730.2,0,621.82-506.18,1128-1128,1128-210.7,0-417.17-58.73-595.18-170.14L572.2,2273.74c205.26,142.29,449.26,218,698.72,218,677.52,0,1229.11-551.59,1229.11-1229.11,0-307-113.22-588.52-300.31-804.07l-70.23,73.87h0Z" style="fill:#091b26"/></g></g><g id="Vector-5" data-name="Vector"><path id="path4_fill" data-name="path4 fill" d="M674.93,1350.59l294.26,222.81L304.38,2273.94l1321.75-681.76-238.56-165.29,440.18-225.24L1533.49,978.83,2198.3,278.91,876.56,960.67,1115.11,1126,674.93,1350.59h0Z" style="fill:#23bee2"/></g></svg>