<svg id="svg4852" xmlns="http://www.w3.org/2000/svg" viewBox="0 0 551.8 515" ><style>.st0{fill:#de2813}.st1{fill:#e71619}.st2{fill:#eb6617;fill-opacity:0}.st3{fill:#ec6816}.st4{fill:#f2961b}.st5{fill:#f1c621}.st6{fill:#f3c620}.st7{fill:#156192}.st8{fill:#2090c0}.st9{fill:#338dcc}.st10{fill:#38bae8}.st11{fill:#36bbe6}.st12{fill:#eb6617}.st13{fill:#3f3f3f}.st14{fill:#686a69}</style><g id="layer1"><g id="g5474" transform="translate(-3.163 -281.382) scale(1.60742)"><ellipse id="path5411" transform="rotate(-1.146 56.626 428.783)" class="st0" cx="56.6" cy="428.8" rx="34.9" ry="34.9"/><circle id="circle5413" class="st1" cx="25.7" cy="358.2" r="23.7"/><circle id="circle5415" class="st2" cx="39.3" cy="281.7" r="20.9"/><circle id="circle5417" class="st3" cx="83.2" cy="218.5" r="18"/><circle id="circle5419" class="st4" cx="157" cy="188.8" r="13.7"/><circle id="circle5421" class="st5" cx="233.8" cy="199.6" r="11.4"/><circle id="circle5423" class="st6" cx="295.8" cy="248.9" r="8.5"/><circle id="circle5425" class="st7" cx="325.4" cy="321.2" r="19.8"/><circle id="circle5427" class="st8" cx="314.7" cy="397.5" r="17.7"/><circle id="circle5429" class="st9" cx="267.6" cy="458.3" r="13.8"/><circle id="circle5431" class="st10" cx="194" cy="486.3" r="9.1"/><circle id="circle5433" class="st11" cx="120.7" cy="475.6" r="6.3"/><ellipse id="circle5435" transform="rotate(-3.17 39.484 281.585) scale(1.00003)" class="st12" cx="39.5" cy="281.6" rx="33.6" ry="33.6"/><path id="rect5437" class="st13" d="M115.5 310.2l27.9-15.9-.1 92.5-27.8 15.7v-92.3z"/><path id="path5444" class="st13" d="M226.7 310.2l27.9-15.9-.1 92.5-27.8 15.7v-92.3z"/><path id="path5446" class="st13" d="M171 310.2l27.9-15.9-.1 92.5-27.8 15.7v-92.3z"/><path id="rect5448" class="st14" d="M88.5 293.7l27.3-16.1 27.6 16.7-27.9 15.9-27-16.5z"/><path id="path5451" class="st14" d="M143.9 293.7l27.3-16.1 27.6 16.7-27.8 15.9-27.1-16.5z"/><path id="path5453" class="st14" d="M199.7 293.8l27.3-16.1 27.6 16.7-27.9 15.9-27-16.5z"/></g></g></svg>
