<?xml version="1.0" encoding="utf-8"?>
<!-- Generator: Adobe Illustrator 26.4.1, SVG Export Plug-In . SVG Version: 6.00 Build 0)  -->
<svg version="1.1" id="Layer_1" xmlns="http://www.w3.org/2000/svg" xmlns:xlink="http://www.w3.org/1999/xlink" x="0px" y="0px"
	 viewBox="0 0 500 500" style="enable-background:new 0 0 500 500;" xml:space="preserve">
<style type="text/css">
	.st0{fill:#ED4E33;}
</style>
<path class="st0" d="M195.2,106.1C109.8,139,102,223.3,77.5,262.7C52.7,302.5-4,324.5,3.7,344.8c7.8,20.3,64.6-1.5,109.5,11.4
	c44.4,12.8,106.4,70.2,191.8,37.3c43.5-16.8,75-51.3,89.5-92.1c1.6-4.4-1.4-9.1-6-9.5c-2.9-0.3-5.6,1.2-6.9,3.8
	c-13.1,26.2-35.6,47.8-65,59.1c-48.6,18.7-101.7,4-134.3-32.8c-7.4-8.4-13.7-17.9-18.7-28.4c-1.4-2.9-2.7-5.8-3.8-8.9
	c-1.2-3-2.2-6.1-3.1-9.2c25.7-12,55.3-24.7,88.8-37.7c32.9-12.7,62.9-23,89.5-31.2c18-5.6,34.6-10.2,49.5-14
	c1.1-0.3,2.1-0.5,3.2-0.8c2.3-0.6,4.6,0.6,5.4,2.8l0,0c0.5,1.3,0.9,2.6,1.4,3.9c3,8.4,5.2,16.9,6.6,25.4c0.6,3.7,4.7,5.7,8,4
	c12.3-6.6,23.5-13.1,33.5-19.3c37.3-23.1,58-42.7,53.8-53.8c-4.2-11.1-32.7-11.7-75.8-3.8c-13.7,2.5-28.9,5.9-45.3,10.1
	c-2.8,0.7-5.7,1.5-8.6,2.2c-13.8,3.7-28.3,7.9-43.5,12.6c-28.1,8.8-58.3,19.2-89.5,31.3c-29.2,11.2-56.8,22.9-82.2,34.5
	c-0.3-49.3,29.4-95.9,77.9-114.6c29.4-11.3,60.5-10.4,87.7,0.3c2.7,1.1,5.7,0.3,7.7-1.8c3.1-3.4,2.2-8.9-1.9-11.1
	C285.1,93.8,238.7,89.4,195.2,106.1z"/>
</svg>
