<?xml version="1.0" encoding="utf-8"?>
<!-- Generator: Adobe Illustrator 27.0.1, SVG Export Plug-In . SVG Version: 6.00 Build 0)  -->
<svg version="1.1" id="ezy" xmlns="http://www.w3.org/2000/svg" xmlns:xlink="http://www.w3.org/1999/xlink" x="0px" y="0px"
	 viewBox="0 0 500 500" style="enable-background:new 0 0 500 500;" xml:space="preserve">
<style type="text/css">
	.st0{clip-path:url(#SVGID_00000016772700073681295350000005885984601264407451_);}
	.st1{fill:#FFFFFF;}
	.st2{fill-rule:evenodd;clip-rule:evenodd;fill:url(#SVGID_00000118387003784452095330000014132191266685654162_);}
	.st3{fill:url(#SVGID_00000055698628719310129300000006215602773857350568_);}
	.st4{fill:url(#SVGID_00000008842835296039441190000001677354519450937220_);}
	.st5{fill:url(#SVGID_00000062901922697727708420000006496669472634203794_);}
</style>
<g>
	<defs>
		<path id="SVGID_1_" d="M84.7,2h330.7C461,2,498,39,498,84.7v330.7c0,45.7-37,82.7-82.7,82.7H84.7C39,498,2,461,2,415.3V84.7
			C2,39,39,2,84.7,2z"/>
	</defs>
	<clipPath id="SVGID_00000073698164115200628770000005799816636252453521_">
		<use xlink:href="#SVGID_1_"  style="overflow:visible;"/>
	</clipPath>
	<g style="clip-path:url(#SVGID_00000073698164115200628770000005799816636252453521_);">
		<path class="st1" d="M84.7,2h330.7C461,2,498,39,498,84.7v330.7c0,45.7-37,82.7-82.7,82.7H84.7C39,498,2,461,2,415.3V84.7
			C2,39,39,2,84.7,2z"/>
		
			<linearGradient id="SVGID_00000043449499024421504320000001340646263541472906_" gradientUnits="userSpaceOnUse" x1="103.2958" y1="245.0143" x2="372.0088" y2="245.0143" gradientTransform="matrix(1 0 0 -1 0 502)">
			<stop  offset="0" style="stop-color:#B617DD"/>
			<stop  offset="1" style="stop-color:#0DB6EA"/>
		</linearGradient>
		<path style="fill-rule:evenodd;clip-rule:evenodd;fill:url(#SVGID_00000043449499024421504320000001340646263541472906_);" d="
			M224,291.2l-41.2,68.5h158.6c18.9,0,34.3,15.4,34.3,34.2c0,18.8-15.4,34.2-34.3,34.2H197.1c-11.6,0-21.6-5.8-27.3-15.9
			c-5.7-10.1-5.6-21.6,0.4-31.5l12.7-21.1h-45.2c-18.9,0-34.3-15.4-34.3-34.2c0-18.8,15.4-34.2,34.3-34.2h203.9
			c18.9,0,34.3-15.4,34.3-34.2v0c0-18.8-15.4-34.2-34.3-34.2H137.6c-18.9,0-34.3-15.4-34.3-34.2s15.4-34.2,34.3-34.2h203.9
			c18.9,0,34.3-15.4,34.3-34.2c0-18.8-15.4-34.2-34.3-34.2H197.1c-11.6,0-21.6,5.8-27.3,15.9c-5.7,10.1-5.6,21.6,0.4,31.5l12.7,21.1
			l41.2,68.5l20.6,34.2L224,291.2z"/>
		
			<linearGradient id="SVGID_00000044871360293713972360000014363630946957054361_" gradientUnits="userSpaceOnUse" x1="172.7565" y1="178.3219" x2="202.5258" y2="171.4967" gradientTransform="matrix(1 0 0 -1 0 502)">
			<stop  offset="0" style="stop-color:#9834E0"/>
			<stop  offset="1" style="stop-color:#67278C"/>
		</linearGradient>
		<path style="fill:url(#SVGID_00000044871360293713972360000014363630946957054361_);" d="M141.7,360l22.7-68.1h59.4L183.6,360
			H141.7z"/>
		
			<linearGradient id="SVGID_00000153693461628277310990000017109076110140474283_" gradientUnits="userSpaceOnUse" x1="172.7831" y1="310.7791" x2="202.4729" y2="317.7654" gradientTransform="matrix(1 0 0 -1 0 502)">
			<stop  offset="0" style="stop-color:#9834E0"/>
			<stop  offset="1" style="stop-color:#67278C"/>
		</linearGradient>
		<path style="fill:url(#SVGID_00000153693461628277310990000017109076110140474283_);" d="M141.7,155.7l19.2,66.4h62.9l-40.2-66.4
			H141.7z"/>
	</g>
</g>
<linearGradient id="SVGID_00000156587860736113840770000006457009798208037564_" gradientUnits="userSpaceOnUse" x1="9.5125" y1="476.9721" x2="489.9542" y2="27.5267" gradientTransform="matrix(1 0 0 -1 0 502)">
	<stop  offset="0" style="stop-color:#15AFEA"/>
	<stop  offset="0.4115" style="stop-color:#6663E4"/>
	<stop  offset="1" style="stop-color:#A924DF"/>
</linearGradient>
<path style="fill:url(#SVGID_00000156587860736113840770000006457009798208037564_);" d="M415.3,498H84.7C39.1,498,2,460.9,2,415.3
	V84.7C2,39.1,39.1,2,84.7,2h330.7C460.9,2,498,39.1,498,84.7v330.7C498,460.9,460.9,498,415.3,498z M84.7,33
	C56.2,33,33,56.2,33,84.7v330.7c0,28.5,23.2,51.7,51.7,51.7h330.7c28.5,0,51.7-23.2,51.7-51.7V84.7c0-28.5-23.2-51.7-51.7-51.7H84.7
	z"/>
</svg>
