<?xml version="1.0" encoding="utf-8"?>
<!-- Generator: Adobe Illustrator 27.7.0, SVG Export Plug-In . SVG Version: 6.00 Build 0)  -->
<svg version="1.1" id="Layer_1" xmlns="http://www.w3.org/2000/svg" xmlns:xlink="http://www.w3.org/1999/xlink" x="0px" y="0px"
	 viewBox="0 0 500 500" style="enable-background:new 0 0 500 500;" xml:space="preserve">
<style type="text/css">
	.st0{fill:#FFFFFF;}
	.st1{fill:url(#SVGID_1_);}
	.st2{fill:#FF00D6;}
</style>
<path class="st0" d="M250,500c138.1,0,250-111.9,250-250S388.1,0,250,0S0,111.9,0,250S111.9,500,250,500z"/>
<linearGradient id="SVGID_1_" gradientUnits="userSpaceOnUse" x1="125.1935" y1="33.2234" x2="375.1535" y2="467.1584" gradientTransform="matrix(1 0 0 -1 0 499.8898)">
	<stop  offset="0" style="stop-color:#24FF00"/>
	<stop  offset="1" style="stop-color:#F5CDFF;stop-opacity:0.502"/>
</linearGradient>
<path class="st1" d="M250,500c138.1,0,250-111.9,250-250S388.1,0,250,0S0,111.9,0,250S111.9,500,250,500z"/>
<path d="M299.9,111.1h-90.5c-22.2,0-40.8,6.6-54,20.1c-13.1,13.3-19.5,32-19.5,54.2v134.6c0,40.5,33.8,73.9,74.5,73.9h1.1
	c34.2-0.5,63.6-25.1,71.2-57.6l0.2-0.9h-0.3c40.8,0,74.5-33.4,74.5-73.9v-1.2c-0.1-7.9-1.5-15.7-4-23.1l-0.1-0.5l0.1-0.1
	c13.3-13.8,20.7-32.2,20.8-51.4C374,144.3,340.7,111.1,299.9,111.1L299.9,111.1z"/>
<path class="st2" d="M209.4,130.9h90.5c29.9,0,54.3,24.3,54.3,54.1c0,15.7-7.2,31-19.3,41.4l-5.4,4.7l3.7,9
	c2.6,6.3,4.1,13.8,4.1,21.2c0,29.5-24.8,54.1-54.7,54.1h-17.3l-0.8,9.1c-2.4,27.5-26.3,49.5-54.1,49.5c-29.9,0-54.7-24.6-54.7-54.1
	V185.4c0-17.4,4.7-31,13.8-40.3C178.7,135.7,192.2,130.9,209.4,130.9z"/>
</svg>
