<?xml version="1.0" encoding="utf-8"?>
<!-- Generator: Adobe Illustrator 27.7.0, SVG Export Plug-In . SVG Version: 6.00 Build 0)  -->
<svg version="1.1" id="Layer_1" xmlns="http://www.w3.org/2000/svg" xmlns:xlink="http://www.w3.org/1999/xlink" x="0px" y="0px"
	 viewBox="0 0 500 500" style="enable-background:new 0 0 500 500;" xml:space="preserve">
<style type="text/css">
	.st0{fill:#FFFFFF;}
	.st1{fill:#5F5F5F;}
	.st2{fill:#414141;}
	.st3{fill:#EDAE50;}
	.st4{fill:#FCD38C;}
	.st5{fill:#666059;}
	.st6{fill:#45423D;}
	.st7{fill:#A9A9A9;}
	.st8{fill:#B9E1E1;}
	.st9{fill:#DCF9FB;}
	.st10{fill:#A19D98;}
	.st11{fill:#FCBE4F;}
	.st12{fill:#45423E;}
	.st13{fill:#FEFEFE;}
</style>
<path class="st0" d="M500,250C500,111.9,388.1,0,250,0C111.9,0,0,111.9,0,250c0,138.1,111.9,250,250,250
	C388.1,500,500,388.1,500,250z"/>
<path class="st1" d="M378.4,289.5c1,0.8,1.7,1.5,2.7,2.3c0.6,0.5,0.6,0.5,1.2,0c0.4-0.4,0.8-0.8,1.2-1.1c1.7-1.5,4-1.4,5.5,0.2
	c0.6,0.7,1.2,1.4,1.8,2.1c1.4,1.8,1.2,4.1-0.3,5.7c-0.4,0.5-0.9,0.9-1.4,1.3c-0.4,0.3-0.4,0.7-0.1,1.1c0.6,0.9,1.1,1.8,1.7,2.7
	c0.7,1.2,1.3,2.4,1.9,3.6c0.5,1.2,0.5,1.2,1.7,0.8c0.5-0.2,1.1-0.4,1.7-0.5c1.8-0.4,3.6,0.6,4.4,2.4c0.5,1.1,0.8,2.3,1.1,3.5
	c0.3,1.7-0.7,3.6-2.2,4.4c-0.6,0.3-1.3,0.5-1.9,0.7c-0.8,0.3-0.8,0.4-0.7,1.1c0.4,2.5,0.7,5,0.7,7.6c0,0.6,0.2,0.9,0.8,0.9
	c0.5,0,0.9,0.1,1.4,0.2c1.9,0.2,3.2,1.2,3.7,3.1c0,0.2,0.2,3.7,0,4.6c-0.4,2.1-1.9,3.6-4,3.7c-0.4,0-0.9,0-1.3-0.1
	c-0.8-0.2-1.3,0.2-1.5,1c-0.5,2-1.1,4-1.8,5.9c-0.2,0.6-0.1,1.1,0.4,1.4c0.2,0.2,1.1,1.2,1.3,1.6c0.3,0.8-1.1-0.4-1.4-0.6
	c-0.8-0.5-10-5.9-13.5-7.8c0.2-1.9,1.1-4.4,1.5-6.3c1.8-9.7-0.1-18.5-5.4-26.5c-4.4-6.7-10.4-11-17.9-13.1c-6.5-1.9-13-1.5-19.3,1
	c-5.2,2-11,5.3-14.1,10.5c-0.4,0.4-0.5,0.4-1.1,0.1c-2-1-9.7-6.3-12.9-8.3c-1.4-1.5-2.3-3.9-1.3-5.7c0.7-1.3,1.7-2.3,2.8-3.2
	c1.5-1.3,3.7-1.3,5.3,0c2,1.5,2,1.5,3.9-0.1c1-0.8,2.1-1.6,3.2-2.4c1-0.7,1.1-1,0.6-2.1c-1.3-3.1-0.5-5.4,2.4-7
	c0.8-0.4,1.5-0.8,2.4-1.1c2.2-0.7,4.2,0.1,5.4,2.2c1.2,2.1,1.2,2.1,3.5,1.6c1.2-0.3,2.5-0.5,3.7-0.7c1.2-0.2,1.4-0.4,1.5-1.7
	c0-0.6,0.1-1.3,0.3-1.9c0.3-1.2,0.9-2.3,2.1-2.8c2.3-0.9,4.7-1.1,7,0.1c1.4,0.7,2,2,2,3.6c0,2.4,0,2.4,2.3,2.8
	c1.5,0.3,2.9,0.6,4.4,1c1.1,0.3,1.4,0.2,1.8-1c1.1-2.8,3.8-4.3,7-2.6c0.9,0.5,1.9,0.8,2.6,1.6c1.6,1.5,1.7,3.8,1.1,5.4
	c-0.1,0.2-0.2,0.5-0.3,0.7c-0.4,1.1-0.5,1.8-0.5,1.8S377.4,288.8,378.4,289.5z"/>
<path class="st2" d="M380.6,340.5c0.9,0.9,13.3,8.1,14.4,8.8c0.3,0,0.6,0.3,0.9,0.4c0.2,0.2,0.4,0.4,0.6,0.7c1,1.4,1,3,0.4,4.6
	c-0.4,0.8-0.8,1.7-1.3,2.4c-1.2,1.9-3.3,2.4-5.2,1.4c-0.6-0.3-1.1-0.6-1.7-1c-0.4-0.3-0.7-0.2-1,0.2c-1.5,2.1-3.2,4.1-5,5.9
	c-0.4,0.4-0.4,0.7-0.1,1.1c0.4,0.5,0.7,1,1,1.5c1.3,2,1,4.4-0.9,5.9c-0.6,0.5-1.3,1-2,1.5c-1.8,1.3-4,0.9-5.4-0.9
	c-0.4-0.5-0.7-1-1.1-1.6c-0.3-0.5-0.6-0.6-1.1-0.3c-2.1,1.3-4.3,2.3-6.6,3.1c-0.8,0.3-0.8,0.3-0.7,1.2c0.1,0.3,0.1,0.6,0.2,1
	c0.5,2.7-0.1,4.1-2.3,5.5c-0.6,0.3-1.2,0.3-1.8,0.5c-1.1,0.3-2.1,0.2-3.2,0.2c-0.4-0.2-0.7-0.4-1.1-0.6c-1-0.9-1.5-2.1-1.8-3.5
	c-0.4-1.9-0.1-1.6-1.8-1.5c-2.2,0.1-4.4,0.1-6.5,0c-0.8,0-0.8-0.1-1,0.8c-0.1,0.4-0.2,0.8-0.2,1.2c-0.4,2.5-2.2,4.3-5.2,3.7
	c-0.7-0.1-1.5-0.3-2.2-0.6c-2.1-0.6-3.2-2.7-2.8-4.9c0.1-0.6,0.2-1.1,0.3-1.7c0.1-0.8,0.1-0.8-0.6-1.1c-1.4-0.6-2.8-1.1-4.1-1.8
	c-0.8-0.4-1.6-0.8-2.4-1.3c-0.8-0.4-0.8-0.4-1.4,0.4c-0.3,0.4-0.6,0.9-0.9,1.3c-1.4,1.8-3.6,2.2-5.5,0.9c-0.7-0.5-1.4-1-2.1-1.6
	c-1.7-1.4-2.1-3.8-0.9-5.7c0.3-0.6,0.7-1.1,1.1-1.7c0.3-0.4,0.3-0.7-0.1-1c-1.9-1.8-3.6-3.8-5.1-6c-0.3-0.4-0.6-0.4-1-0.2
	c-0.5,0.3-0.9,0.6-1.4,0.9c-2.1,1.2-4.4,0.6-5.6-1.6c-0.5-0.8-1-1.5-1.3-2.4c-0.8-2.2-0.1-4.2,1.8-5.5c0.4-0.3,0.8-0.5,1.2-0.8
	c0.7-0.5,0.7-0.5,0.4-1.3c-0.6-1.7-1.2-3.4-1.7-5.1c-0.2-0.8-0.4-1.5-0.6-2.3c-0.1-0.6-0.4-0.8-0.9-0.7c-0.4,0.1-0.9,0.1-1.3,0.2
	c-2.6,0.3-4.5-1.3-4.8-4.1c-0.1-0.8-0.2-1.5-0.2-2.2c-0.1-1.1,0.3-2.2,0.9-3c0.7-0.8,1.6-1.4,2.6-1.5c0.6-0.1,1.1-0.1,1.7-0.2
	c0.7-0.1,0.8-0.1,0.8-1c0-1.8,0.2-3.6,0.4-5.4c0.1-0.8,0.3-1.5,0.3-2.3c-0.1-0.5-0.3-0.9-0.7-1.1c-0.3-0.1-0.4-0.1-0.8-0.2
	c-0.8-0.2-1.6-0.6-2.2-1.2"/>
<path class="st2" d="M305.8,320c0.1-0.6-0.1-1.4-0.7-1.5c-0.5-0.1-1.2-0.4-1.6-0.6c-1.8-0.6-2.9-2.1-3.1-4.1
	c-0.2-0.9,0.5-3.6,0.8-4.5c0.7-2,2.5-3.1,4.5-2.8c0.4,0.1,0.9,0.2,1.3,0.3c0.8,0.3,1.4,0.1,1.7-0.7c0.8-1.9,2.1-3.7,2.9-5.6
	c0.8-1.8,0.2-1.7,0.5-1.6c0.7,0.6,10.3,5.6,13.4,8.1c-2,2.3-6.4,12.5-6.6,15.9"/>
<path class="st2" d="M325.5,306.8c6.2-7,10.6-10,16.7-11.9c3.7-1.1,7.6-1.5,11.4-1.2c6.5,0.6,12.3,2.9,17.4,7.1
	c4.5,3.7,7.8,8.4,10.1,13.9c1.4,3.4,2.1,6.9,2.4,10.6c0.5,5.3-0.6,11.1-2.3,16c-0.3,0.3-6.7-4.2-7.3-5.1c-0.2-0.5,0-0.9,0.2-1.4
	c0.6-2.4,1-4.8,1-7.3c-0.3-12-8.1-21.8-18.8-24.2c-7.9-1.8-16.3,0-23.9,8.2c-0.2,0.1-0.3-0.1-1.6-1.1c-2.2-1.4-3.3-2.3-4.8-3.2
	C325.2,306.9,325.2,307.1,325.5,306.8z"/>
<path class="st1" d="M381.4,341.1c-0.2,0.3-0.4,0.7-0.6,1.1c-1.9,4.8-4.9,8.7-8.6,12c-4.8,4.3-10.4,7.1-16.7,7.9
	c-1.6,0.2-3.1,0.5-4.7,0.4c-4.5-0.1-8.9-1-13.1-2.9c-2.7-1.2-5.1-2.8-7.4-4.7c-3.5-3-6.3-6.6-8.4-10.8c-1.9-3.9-3-8-3.5-12.4
	c-0.4-3.7-0.1-7.4,0.7-11.1c0.9-4.2,2.4-8,4.7-11.6c0.3-0.5,1.2-1.7,1.5-2c1.6,0.9,6,3.9,6.7,4.6c0.4,0.6-0.4,1.4-0.6,1.8
	c-1.4,2.1-2.5,4.3-3.2,6.7c-2.5,8.4-1.4,16.3,3.7,23.3c4.2,5.9,9.9,9.1,16.9,9.8c9.9,1.1,20.1-4.9,24.3-15.4
	c0.2-0.6,0.2-1.5,1.1-1.5C374.9,337,380.7,340.7,381.4,341.1z"/>
<path class="st3" d="M374.3,336.3c-0.8,2.1-1.7,4.2-2.9,6.1c-3.9,6-9.3,9.8-16.1,11.1c-6.9,1.3-13.3-0.3-18.9-4.7
	c-5-3.9-8.1-9.1-9.3-15.4c-1.4-7.5,0.1-14.4,4.3-20.7c0.2-0.2,0.3-0.5,0.5-0.7c0.2-0.2,2.3-2.6,3.3-3.5c4.5-4,9.7-6,15.6-6.2
	c11.1-0.2,21.1,7.7,24,19.2c1.2,4.6,1.1,9.2-0.1,13.8C374.5,335.6,374.4,336,374.3,336.3z"/>
<path class="st2" d="M357.6,328.1c0.2,3.9-3.2,7-6.5,6.9c-3.7,0-6.8-3.1-6.7-7c0-3.8,2.9-6.9,6.8-7
	C354.4,321.1,357.8,324.1,357.6,328.1z"/>
<path class="st4" d="M358,315c0.8-0.1,1.4,0.2,1.9,0.8c0.5,0.5,1,1,1.4,1.6c1.1,1.2,0.4,3.5-0.9,3.9c-0.6,0.2-1.1,0.2-1.7-0.2
	c-1.1-0.8-2.1-1.8-2.9-2.8c-0.9-1.1-0.4-2.6,0.9-3.1C357.1,315.1,357.5,315,358,315z"/>
<path class="st2" d="M179.9,382.1c-1.8-1-2.9-2.6-3.3-4.8c-0.1-0.7-0.3-1.5-0.5-2.2c-0.1-0.5-0.3-0.7-0.9-0.6
	c-3.3,0.3-6.5,0.3-9.8,0.1c-0.4,0-0.9-0.1-1.3-0.1c-0.4,0-0.6,0.1-0.7,0.6c-0.2,0.8-0.4,1.5-0.5,2.3c-0.4,2.4-1.6,4-3.7,5
	c-1.4,0.4-2.7,0.3-4.1,0c-1.3-0.2-2.5-0.4-3.7-1.1c-0.4-0.3-0.9-0.6-1.3-1.1c-1.4-1.5-1.9-3.3-1.6-5.3c0.1-0.8,0.3-1.5,0.5-2.3
	c0.3-1.3,0.2-1.3-0.9-1.8c-2.7-1-5.3-2.2-7.8-3.5c-0.6-0.3-1.2-0.6-1.8-1c-0.4-0.3-0.7-0.2-1,0.2c-0.4,0.7-0.9,1.3-1.4,2
	c-1.9,2.9-5.5,3.8-8.4,1.4c-0.8-0.6-1.5-1.2-2.3-1.8c-2.7-2.1-3.2-5.6-1.2-8.5c0.5-0.8,1-1.5,1.6-2.3c0.3-0.4,0.2-0.6-0.1-0.9
	c-0.2-0.1-0.3-0.3-0.4-0.4c-2.5-2.5-4.8-5.2-6.9-8.1c-0.6-0.8-0.6-0.8-1.5-0.3c-0.6,0.4-1.2,0.7-1.8,1.1c-3.1,1.9-6.2,1-8.1-2.2
	c-0.3-0.4-0.4-0.6-0.6-1.1c-0.3-0.7-0.7-1.3-1.1-2.1c-1.3-3-0.4-6.2,2.3-7.9c0.6-0.4,1.3-0.8,1.9-1.2c0.9-0.5,0.9-0.5,0.5-1.5
	c-1.2-3-2.2-6.1-2.9-9.3c-0.1-0.5-0.3-1-0.4-1.6c-0.1-0.5-0.4-0.7-0.9-0.6c-0.9,0.1-1.8,0.3-2.7,0.3c-2.3,0.1-4.2-0.8-5.4-3
	c-0.5-0.9-0.7-1.9-0.8-2.9c-0.1-0.8-0.2-1.4-0.3-2.2c-0.2-3.1,1.5-6.9,5.1-7.2c0.8-0.1,1.6-0.2,2.3-0.3c0.9-0.1,0.9-0.1,1-1
	c0.1-2.7,0.3-5.3,0.6-7.9c0.1-1.1,0.3-2.1,0.5-3.2c0.2-1,0.2-1-0.8-1.4c-0.7-0.2-1.4-0.5-2.1-0.7c-3.1-1.1-4.6-4.2-3.8-7.4
	c0.3-1.2,0.7-2.4,1.1-3.6c1.1-3,4-4.5,6.9-3.6c0.9,0.3,1.8,0.5,2.6,0.9c0.5,0.2,0.8,0,1-0.5c0.5-1.2,1.1-2.4,1.7-3.5
	c0.2-0.4,0.4-0.7,0.6-1.1c0.6-1.2,1.3-2.3,2-3.4c0.7-0.6,118.8,72.5,118.5,73.4c-0.2,0.4-0.4,0.8-0.6,1.3c-0.4,0.8-0.8,1.6-1.3,2.3
	c-1.7,2.9-4.8,3.8-7.6,2.2c-0.8-0.4-1.5-0.9-2.2-1.3c-0.8-0.5-0.8-0.5-1.3,0.2c-1.2,1.6-2.4,3.1-3.7,4.6c-1.1,1.3-2.3,2.6-3.6,3.8
	c-0.6,0.6-0.6,0.6-0.1,1.2c0.5,0.7,1,1.4,1.5,2.2c1.9,2.8,1.4,6.3-1.2,8.4c-0.8,0.7-1.7,1.3-2.6,2c-2.7,2-5.9,1.4-8-1.3
	c-0.5-0.7-1-1.5-1.5-2.2c-0.5-0.6-0.5-0.7-1.2-0.3c-2.8,1.6-5.7,3-8.6,4.2c-0.4,0.2-0.8,0.3-1.2,0.5c-0.7,0.3-0.8,0.3-0.6,1.2
	c0.1,0.8,0.2,1.6,0.5,2.3c0.8,2.8-0.9,6.2-4.5,7.4C184.9,382.4,181.4,382.8,179.9,382.1z"/>
<path class="st5" d="M234,343.4c-2.5-1.5-24.6-15.8-26.1-16.7c-0.8-0.4-0.6-0.5-0.1-1.5c1.8-4.1,3-8.4,3.6-12.8
	c0.4-3.2,0.4-6.5,0.1-9.8c-0.2-3.1-0.8-6.1-1.6-9.1c-1.1-3.8-2.6-7.3-4.6-10.6c-2.2-3.8-4.9-7-7.9-9.9c-2.3-2.3-5-4.1-7.8-5.7
	c-4.2-2.4-8.7-4.1-13.5-4.8c-3-0.5-6-0.7-8.9-0.5c-6.4,0.4-12.4,2.2-18,5.4c-4.4,2.6-8.4,6-11.7,10.1c-0.8,1-2.1,3.1-2.9,4.1
	c-0.5,0.6-8.4-4.8-19.2-11.5c0.4-0.7,0.8-1.3,1.2-2c0.3-0.4,0.2-0.7-0.1-1c-0.7-0.6-1.3-1.2-2-1.9c-2.1-2-2.5-4.7-1.3-7.3
	c0.3-0.6,0.8-2,1.6-3c0.4-0.5,0.8-1,1.3-1.4c2.1-2.3,6.1-2.3,8.3-0.2c2.6,2.5,2.3,1.9,4.5,0.1c1.9-1.5,3.8-3,5.8-4.4
	c1.1-0.7,1.1-1.1,0.6-2.3c-0.6-1.4-1.2-2.8-1-4.3c0.1-1.9,0.9-3.6,2.4-4.7c2.1-1.5,4.4-2.8,7.2-2.7c2.3,0.1,3.8,1.3,5,3.2
	c0.4,0.7,0.7,1.5,1.1,2.2c0.3,0.7,0.8,0.9,1.5,0.7c2.9-0.8,5.9-1.4,8.9-1.9c1.1-0.2,1.3-0.5,1.3-1.7c0-0.4,0-0.8,0-1.2
	c-0.2-3.6,2.4-6.6,5.6-6.9c1.7-0.1,3.5-0.3,5.2,0.1c2.5,0.5,5,3,4.8,6.3c0,0.5,0,0.9,0,1.4c0,1.4,0.3,1.7,1.6,1.9
	c2.8,0.4,5.6,1,8.3,1.8c1.4,0.4,1.7,0.3,2.3-1.2c0.5-1.1,0.9-2.2,1.8-3.1c1.7-1.8,3.8-2.1,6-1.6c1.7,0.4,3.4,1.2,4.8,2.3
	c2.4,1.7,3.3,4.7,2.3,7.6c-0.2,0.6-0.5,1.2-0.7,1.8c-0.5,1.1-0.4,1.6,0.6,2.2c2.1,1.4,4.2,2.9,6.2,4.6c2.2,1.8,1.8,2.1,4.1-0.2
	c2.1-2,5.3-2.2,7.2-0.9c1.9,1.4,3.6,3.1,4.7,5.3c1,1.9,0.9,5.5-1.1,7.3c-0.6,0.5-1.1,1.2-1.7,1.7c-0.5,0.5-0.5,1.1-0.2,1.7
	c1.8,2.7,3.3,5.6,4.7,8.5c0.3,0.7,0.9,0.9,1.6,0.7c0.8-0.3,1.7-0.5,2.6-0.7c2.3-0.4,4.9,0.6,6.1,2.8c1.2,2.1,1.9,4.4,1.9,6.8
	c0.1,2.7-1.2,4.6-3.4,5.8c-0.7,0.4-1.5,0.7-2.3,1c-0.8,0.2-1.2,0.8-1,1.7c0.6,3.2,0.8,6.5,1,9.7c0,0.9,0.4,1.3,1.3,1.4
	c0.6,0,1.2,0.1,1.8,0.2c3.1,0.4,5.3,3,5.3,6.3c0,0.6,0,1.3-0.1,1.9c-0.1,1-0.4,2.5-0.7,3.4c-0.8,2.8-3.4,4.3-6.1,4.1
	c-0.9-0.1-1.8-0.2-2.6-0.3c-0.8-0.1-0.9-0.1-1.1,0.8c-0.6,2.5-1.3,5.1-2.1,7.5c-0.4,1.1-0.8,2.3-1.3,3.4c-0.2,0.5-0.1,0.8,0.3,1.1
	c0.9,0.5,1.7,1,2.6,1.6c2.2,1.5,3.1,4.2,2.3,6.9C234.2,343.1,234.1,343.3,234,343.4z"/>
<path class="st3" d="M144,286.8c1-1.3,2-2.6,3.1-3.8c5.3-5.7,11.7-9.1,19.2-10c6.7-0.8,13,0.4,18.8,3.9c9,5.3,14.3,13.4,16,24.1
	c1,6.2,0.2,12.3-2.1,18.1c-0.1,0.3-0.2,0.7-0.3,1c0.3,0.6,0,1-0.2,1.5c-1.1,2.5-2.6,4.7-4.4,6.7c-5,5.8-11.1,9.7-18.5,11.1
	c-9.8,1.8-18.7-0.6-26.4-7.3c-6.2-5.4-10-12.4-11.2-20.9c-0.9-6.5-0.2-12.9,2.4-19c0.6-1.5,1.4-2.9,2.1-4.3
	C143,287.5,143.4,287,144,286.8z"/>
<path class="st6" d="M149.7,306.1c-0.2-12.1,9.6-21.3,20-21.3c10.2-0.1,20.4,8.5,20.4,21.4c0,12-9.2,21.1-20,21.2
	C158.3,327.6,149.5,317.4,149.7,306.1z"/>
<path class="st4" d="M189.7,286.4c0.2,1.8-2,3.2-3.4,2.2c-1-0.7-1.9-1.4-2.7-2.3c-1.1-1.3-0.9-2.7,0.6-3.6c1.1-0.6,2.2-0.7,3.2,0.2
	c0.7,0.7,1.4,1.3,2,2.2C189.6,285.5,189.8,286,189.7,286.4z"/>
<path class="st3" d="M153.7,306.3c-0.3-8.7,6.5-17.2,16.2-17.2c9.1,0,16.2,7.7,16.1,17.3c-0.1,9.5-7.5,16.9-16.4,16.8
	C160.4,323.1,153.5,314.9,153.7,306.3z"/>
<path class="st2" d="M169.8,313.1c-3.6,0-6.6-3.2-6.6-7c0-3.8,2.8-6.9,6.7-7c3.5,0,6.6,3,6.6,7C176.4,310.1,173.5,313.1,169.8,313.1
	z"/>
<path class="st4" d="M177.5,294.6c0.4,0,0.8,0,1.1,0.3c1.4,1,2.2,2.4,2.1,4.1c0,0.9-1.3,1.9-2.1,1.7c-1.5-0.3-2.6-1.1-3.4-2.5
	c-0.7-1.2-0.6-2.2,0.5-3C176.1,294.8,176.8,294.6,177.5,294.6z"/>
<path class="st5" d="M144,286.8c-1.1,1.8-2.1,3.5-2.9,5.4c-1.4,3.2-2.3,6.6-2.6,10.1c-0.5,4.4-0.2,8.9,1,13.1
	c1.2,4.3,3.1,8.2,5.8,11.7c4,5.2,9.1,8.8,15.3,10.8c3.5,1.2,7.2,1.7,10.9,1.4c9.7-0.7,17.5-5,23.6-13c1.3-1.7,2.4-3.5,3.3-5.5
	c0.1-0.3,0.3-0.6,0.5-0.8c0.8,0.4,7.4,4.9,8.5,5.7c0.4,0.3,0.2,0.8,0,1.1c-1.1,2.2-2.4,4.3-3.8,6.2c-3.2,4.3-6.9,7.9-11.3,10.7
	c-4.3,2.8-9,4.7-13.9,5.8c-3.8,0.8-7.6,1-11.5,0.7c-5.1-0.3-10-1.7-14.6-4c-3.2-1.5-6.2-3.5-8.9-5.8c-5.3-4.6-9.5-10.2-12.2-17
	c-1.7-4.3-2.8-8.9-3.2-13.6c-0.6-7,0.4-13.7,2.8-20.2c0.9-2.4,2-4.6,3.2-6.8c0.1-0.2,0.3-0.4,0.4-0.6c0.7-1.1,0.9-1.1,2-0.5
	c1.8,1.1,5.3,3.4,7.1,4.5C143.5,286.5,143.8,286.7,144,286.8z"/>
<path class="st6" d="M200.8,313.2c0.9-4.3,1-8.8,0.3-13.2c-0.8-4.4-2.3-8.5-4.7-12.2c-3.9-5.3-8.7-9.7-14.1-12.4
	c-3.4-1.5-7-2.4-10.6-2.5c-9.7-0.4-18,3-24.7,10.4c-1.1,1.2-2.1,2.4-3,3.7c-0.8-0.5-8.1-4.4-9.1-5.4c-0.4-0.4,2.8-4.2,4.4-6
	c3.6-3.9,7.6-7.1,12.3-9.5c4.4-2.4,9.3-3.7,14.4-4.3c3.9-0.4,7.7-0.3,11.6,0.3c5,0.9,9.7,2.9,14.1,5.7c3,1.9,5.8,4.1,8.3,6.8
	c4.9,5.2,8.4,11.2,10.5,18.2c1.3,4.5,1.9,9.2,1.8,13.9c-0.1,7-1.7,13.5-4.2,18.6c-0.5,1,0,1-1.4,0c-1.7-1.3-6-4-7.8-5.2
	C198.6,320.1,200,316.7,200.8,313.2z"/>
<path class="st3" d="M155.8,130.5c-0.7-2.5-1.3-5-1.9-7.6c-0.2-0.7,0-0.8,0.7-1c37.3-9.5,82.6-2.3,105.8,5.2c3.7,1.4,7.3,3,10.6,5.2
	c1.4,1,2.8,2,3.9,3.4c0.3,0.4,0.6,0.8,0.8,1.2c0.6,1.1,0.7,2.1,0.2,3.3c-1.2,2.7-2.6,5.3-4,7.9c-0.9,1.7-1.9,3.3-2.8,5
	c-0.4,0.8-0.9,1.6-1.5,2.3c-0.5,0.5-1,0.2-1.5,0.1c-2.3-0.5-4.6-1-6.8-1.5c-0.2,0-0.3,0-0.5,0c-2.4-0.8-4.9-0.9-7.3-1.5
	c-0.3-0.1-0.6,0.1-0.9,0.1c-4-0.8-8-1.2-12-1.8c-1.4-0.2-2.8-0.1-4.2-0.6c-0.5-0.6-0.6-1.3-0.8-2.1c-1-4.3-2.3-8.5-4.7-12.2
	c-0.4-0.6-0.8-1.1-1.2-1.6c-1.2-1.6-2.7-2.5-4.7-2.8c-5.3-0.7-10.5-1.4-15.8-1.8c-8.8-0.8-17.6-0.9-26.4-0.8
	c-4.3,0.1-8.7,0.4-13,0.8c-3.6,0.3-7.2,0.7-10.7,1.2C156.5,130.9,156.1,130.9,155.8,130.5z"/>
<path class="st6" d="M279.4,205.5c-2.5,0-4.9-0.1-7.4,0c-0.8,0-1-0.5-1.1-1.1c-0.7-0.2-0.6-0.9-0.8-1.4c-0.8-4.1-1.6-8.3-2.4-12.4
	c-2.1-10.1-4.5-20.2-7.5-30.2c-0.5-1.7-1-3.4-1.5-5.1c-0.1-0.5-0.4-1.1,0-1.6c0.2-0.2,0.4-0.2,0.7-0.2c2.8,0.5,5.5,1.1,8.2,1.9
	c1.8,5.3,3.3,10.6,4.6,16c1.9,7.3,3.5,14.7,5,22.2C277.7,196.3,279.4,205.5,279.4,205.5z"/>
<path class="st6" d="M155.8,130.5c3.3-0.6,6.5-0.9,9.8-1.2c2.4-0.2,4.7-0.4,7.1-0.5c6.6-0.5,13.2-0.5,19.8-0.4
	c4.8,0.1,9.6,0.4,14.4,0.8c3.2,0.3,6.4,0.6,9.5,1c2.7,0.3,5.3,0.8,8,1.2c0.9,0.1,1.5,0.6,2.1,1.2c2.1,2,3.6,4.5,4.8,7.3
	c1.4,3.2,2.4,6.6,3,10.1c-0.1,0.5-0.5,0.5-0.9,0.5c-1.7-0.1-3.4-0.2-5.1-0.4c-1.5-0.1-3-0.2-4.5-0.3c-2.4-0.1-4.7-0.4-7.1-0.3
	c-0.9,0.1-1.8-0.2-2.7-0.2c-1.2,0-1.6,0.3-2.1,1.5c-2.5,7.2-4.6,14.5-6.5,21.8c-2.8,11.4-5,23-6.8,34.6c-0.5,3.1-0.9,6.2-1.3,9.4
	c-0.1,0.6-0.2,1.3-0.5,1.8c-0.3,0.3-0.7,0.3-1,0.2c-1.7-0.5-3.4-1-5.1-1.5c-0.1,0-0.3-0.1-0.4-0.2c-0.1-0.1-0.2-0.2-0.2-0.3
	c-0.3-0.8-0.1-1.6,0-2.3c1.7-12.6,3.9-25.1,6.7-37.5c2-8.7,4.2-17.4,7.1-25.9c0.4-1.3,0.2-1.7-1.1-1.7c-5.1-0.1-10.1,0.1-15.2,0.4
	c-2.5,0.1-5.1,0.2-7.6,0.5c-0.2,0-0.3,0-0.5,0c-2.6,0-2.7,0.1-3.5,2.7c-4.9,15.1-8.3,30.6-10.9,46.2c-0.8,4.7-1.5,9.4-2.2,14.1
	c-0.1,0.4-0.1,0.9-0.4,1.2c-0.2,0.4-0.7,0.5-1.1,0.5c-2.1,0.3-4.2,0.5-6.3,0.9c-0.5,0.1-1.1,0.2-1.1-0.6c0.4-2.5,0.7-5,1.1-7.4
	c0.9-6.4,2-12.9,3.1-19.3c1.5-8.4,3.3-16.7,5.4-24.9c1-3.9,2.1-7.8,3.4-11.6c0.4-1.3,0.4-1.3-0.5-2.3c-2.3-2.2-4.7-4.5-7-6.7
	c-0.4-0.4-0.7-0.9-0.9-1.5c-0.8-3.3-1.6-6.5-2.5-9.8C155.9,131.2,155.8,130.8,155.8,130.5z"/>
<path class="st7" d="M155.9,130.5c0.1,0.3,0.3,0.7,0.2,1.1C155.8,131.2,155.6,130.9,155.9,130.5z"/>
<path class="st8" d="M209.9,224c-3.9-2.2-8-4-12.2-5.5c-0.4-0.1-0.8-0.2-1.1-0.6c0.4-3.2,0.8-6.3,1.3-9.5c1.1-7.3,2.4-14.5,3.8-21.8
	c2.2-10.9,4.9-21.8,8.4-32.3c0.6-1.7,1.1-3.4,1.7-5.1c0.3-0.9,0.3-0.9,1.2-0.8c4.8,0.1,9.7,0.3,14.5,0.7c2.3,0.2,4.6,0.4,6.9,0.6
	c3.8,0.4,7.6,0.9,11.4,1.4c1.6,0.2,3.2,0.5,4.8,0.8c0.9,0.4,1.5,1.1,2,2c2.1,3.2,3.8,6.7,5.2,10.3c1.5,3.8,2.8,7.6,3.7,11.6
	c0.4,1.6,0.9,3.1,1.2,4.7c1.2,5.1,2.5,10.2,3.5,15.4c0.5,2.7,1,5.3,1.7,8c0.2,0.7,0.5,1.5-0.4,2c-0.1,0.1-0.2,0.2-0.3,0.3
	c-1.5,0.8-2.5,2.2-3.5,3.6c-1.7,2.3-3.3,4.7-5,7c-0.5,0.2-0.9,0-1.2-0.3c-2-1.5-4-3-6-4.4c-1-0.7-1.1-1.1-0.4-2.2c1-1.5,2-3,3-4.6
	c0.4-0.6,0.8-1.2,1.1-1.8c0.6-1.2,0.4-2.3-0.5-3c-0.9-0.7-2-0.5-2.8,0.4c-1.1,1.3-1.9,2.7-2.8,4.1c-2.9,4.4-5.8,8.8-8.7,13.1
	c-0.3,0.4-0.6,0.8-0.7,1.3c-0.4,1.1-0.1,2.2,0.7,2.8c0.9,0.6,1.9,0.5,2.7-0.4c1.1-1.3,1.9-2.7,2.8-4.1c0.6-0.9,1.2-1.8,1.8-2.6
	c0.4-0.6,0.9-0.7,1.5-0.3c2.2,1.5,4.3,3.1,6.5,4.7c0.4,0.3,0.7,0.6,0.7,1.1c-0.7,1.2-1.3,2.3-2,3.5c-0.3,0.6-0.7,1.1-1,1.7
	c-1.4,2.4-1.4,4.9-0.2,7.4c3.2,6.7,6.6,13.2,10.4,19.6c0.5,0.8,1,1.5,1.5,2.3c1.3,2.2,3.3,3.1,5.7,3.2c2.3,0.1,4.5-0.2,6.8-0.4
	c-0.1,10-2.8,19.1-7.8,27.5c-0.7,1.2-1.5,1.7-2.9,1.6c-3.7-0.1-7.3,0-11,0c-0.7-0.1-0.7-0.8-0.8-1.3c-0.4-2.1-1-4.2-1.6-6.3
	c-2.3-8.1-5.7-15.7-10-22.8c-1.4-2.3-3-4.5-4.4-6.7c-1.4-1.9-2.8-3.6-4.3-5.4c-2.7-3.1-5.5-6-8.5-8.7c-4.4-3.9-9.2-7.3-14.2-10.3
	C211.1,225.2,210.3,224.9,209.9,224z"/>
<path class="st9" d="M267.3,206.2c0.3-0.6,0.3-1.5,0.1-2.1c-1.3-5.3-10.4-42.3-15.6-50.4c-0.6-1-0.8-1.2-1.3-1.7
	c2.4,0.2,4.8,0.7,7.2,1.1c0.2,0,0.4,0.1,0.5,0.2c0.2,0.1,0.3,0.3,0.4,0.4c3.2,10.3,6,20.7,8.3,31.3c1.4,6.4,2.9,13.4,4,19.9l0,0
	c0.2,0.5,0.3,0.3-1.1,0.5C269.1,205.5,268,205.9,267.3,206.2z"/>
<path class="st8" d="M190.3,216.3c-2.1-0.4-4.2-0.9-6.3-1.3c-2.5-0.4-5-0.8-7.6-0.9c-2.4-0.2-4.8-0.2-7.2-0.2c-1.4,0-2.7,0.1-4.1,0
	c-0.6-0.5-0.5-1.1-0.4-1.7c1.2-8.8,2.5-17.5,4.2-26.2c1.2-6.1,2.6-12.2,4.3-18.1c1.6-5.7,3.5-11.3,6.4-16.4c0.4-0.8,0.5-1.4,0-2.1
	c0.3-0.1,0.7-0.1,1-0.2c7.7-0.4,15.4-0.8,23.1-0.7c0.3,0,0.7-0.1,1,0.1c0.1,0.4-0.1,0.7-0.2,1c-3.4,9.8-6,19.9-8.2,30
	c-1.9,8.6-3.4,17.3-4.8,26C191.3,209.2,190.8,212.7,190.3,216.3z"/>
<path class="st9" d="M180.5,149.2c1.4-0.2,1.2-0.1,0.4,1.4c-2.2,4-4.1,8.2-5.6,12.5c-0.8,2.5-1.6,5.1-2.3,7.7
	c-0.7,2.8-1.5,5.7-2.1,8.5c-0.6,2.9-1.2,5.8-1.8,8.7c-0.6,3-1.2,5.9-1.7,9c-0.7,4.7-1.4,9.3-2.1,14c-0.1,1-0.3,1.9-0.3,2.9
	c-0.3,0.2-2.7,0.4-2.9,0c0.2-2.3,0.6-4.5,0.9-6.8c0.8-5.6,1.8-11.2,2.8-16.7c2.4-12.8,5.4-25.5,9.4-37.9c0.3-0.8,0.6-1.5,0.8-2.3
	c0.1-0.5,0.4-0.6,0.8-0.6C178,149.4,180.4,149.2,180.5,149.2z"/>
<path class="st2" d="M308,307c-2.4-0.2-5-2.2-6.9,2.9c-1.9,5,0.9,7,0.5,6.8c-0.2,0-0.4,0-0.6,0c-1.6,0-3.2-0.3-4.7-0.3
	c-0.6-0.3-0.4-0.7-0.3-1.2c0.8-4,2-7.8,3.6-11.5c2.1-4.8,4.7-9.4,7.9-13.5c4.5-5.7,9.8-10.4,15.9-14.1c6.4-3.8,13.2-6.2,20.5-7.2
	c3.5-0.5,7-0.7,10.6-0.4c1.3,0.1,2.4-0.5,3.1-1.6c0.3-0.5,0.6-0.8,1.1-1c0.6,0,1.1,0.3,1.7,0.4c1.2,0.3,1.4,0.2,1.9-0.9
	c0.9-1.9,1.8-3.8,2.9-5.5c0.3-0.2,0.5-0.4,0.7-0.7c1.5-2.3,3.3-4.3,5.5-5.9c0.1,0,0.1,0,0.2,0c0.8,0,1,0.6,1.2,1.3
	c0.8,2.7,1.8,5.4,2.9,8c1.9,4.3,4.3,8.3,7.4,11.8c0.5,0.5,1,1,0.8,1.8c-1.6,2.9-3.2,5.9-4.8,8.8c-0.2,0.4-0.5,0.9-0.7,1.3
	c-0.4,0.7-0.9,1.4-1.5,2.1c-0.1-0.1-0.3-0.2-0.5-0.3c-0.1,0-0.3-0.2-0.4-0.3c-1.7-1-1.4-1-0.6-2.8c0.5-1.1,0.8-2.3,0.5-3.5
	c-0.1-0.5-0.4-1-0.7-1.4c-0.3-0.4-0.7-0.8-1.2-1c-1.1-0.6-2.2-1.2-3.4-1.5c-1.7-0.4-3.5,0.5-4.3,2.1c-0.3,0.5-0.5,1.1-0.7,1.7
	c-0.4,0.8-0.6,0.9-1.4,0.7c-2.1-0.6-4.2-1.1-6.4-1.4c-0.2,0-0.4-0.1-0.6-0.1c-0.6-0.1-0.8-0.4-0.8-1c0-0.6,0-1.1,0-1.7
	c0.1-2.2-1.2-3.6-3.1-4c-1.4-0.3-2.8-0.3-4.2,0.1c-1.7,0.4-2.8,1.5-3,3.4c-0.1,0.7-0.2,1.4-0.2,2.1c0,0.9-0.1,1-1,1.2
	c-1.1,0.2-2.2,0.4-3.3,0.6c-1.1,0.2-2.3,0.5-3.4,0.9c-0.7,0.2-0.9,0.1-1.2-0.6c-0.3-0.7-0.5-1.3-0.9-1.9c-0.9-1.6-2.6-2.4-4.4-1.9
	c-1.3,0.3-2.4,0.9-3.5,1.6c-1.6,1.1-2.2,3.1-1.5,5c0.2,0.6,0.5,1.1,0.7,1.7c0.3,0.7,0.3,0.9-0.3,1.2c-2.1,1.3-4,2.9-5.9,4.5
	c-0.6,0.5-0.7,0.5-1.2,0c-0.5-0.5-1-0.9-1.5-1.3c-1.5-1.1-3.5-1.1-4.8,0.1c-1,0.9-1.9,1.8-2.5,2.9c-1,1.7-0.8,3.8,0.6,5.2
	c0.6,0.6,0.6,0.6,1.6,1.3c-1.4,1.5-4.2,5.5-5,7.1"/>
<path class="st6" d="M289,316.3c-5.7,0-11.4,0-17.1,0c-9.1,0-18.2,0-27.3,0c-2.1,0-2.1-0.1-1.8-2.2c0.2-1.6,0.2-3.2-0.6-4.6
	c-0.9-1.5-2.2-2.5-3.9-2.8c-0.8-0.1-1.7-0.2-2.5-0.3c-1,0-1.2-0.3-1.2-1.4c-0.1-3.5-0.4-7-1-10.5c-0.3-1.4-0.2-1.5,1.1-1.9
	c1.1-0.3,2.1-0.7,3-1.3c2.3-1.5,3-4,2.5-6.6c-0.3-1.2-0.6-2.3-1-3.5c-1-3-3.6-4.5-6.5-4c-1,0.2-2,0.5-2.9,0.9
	c-0.8,0.3-0.9,0.2-1.3-0.6c-1.5-3.4-3.4-6.7-5.5-9.8c-0.4-0.6-0.4-0.8,0.2-1.2c0.8-0.7,1.5-1.5,2.2-2.2c1.8-1.7,1.8-5.3,0.7-7.1
	c-1-1.6-2.3-3-3.7-4.2c-1.8-1.5-4.9-1.6-6.9,0.3c-0.7,0.6-1.5,1.2-2.1,1.9c-0.4,0.4-0.7,0.5-1.1,0.1c-1-0.9-2-1.8-3.1-2.6
	c-1.6-1.3-3.4-2.5-5.1-3.7c-1.5-1-1.4-0.8-0.7-2.5c0.3-0.7,0.6-1.4,0.8-2.1c0.9-2.8,0.1-5.8-2.7-7.3c-1.2-0.6-2.4-1.3-3.7-1.7
	c-1.8-0.5-3.6-0.4-5.2,0.8c-0.7,0.5-1.2,1.2-1.5,2c-0.4,0.9-0.8,1.9-1.2,2.8c-0.3,0.7-0.4,0.8-1.1,0.5c-2.7-0.9-5.5-1.5-8.4-2
	c-0.7-0.1-1.3-0.2-2-0.3c-1-0.1-1-0.2-1.1-1.3c0-0.9,0-1.8,0-2.7c0-2.5-1.2-4.1-3.2-5.1c-0.6-0.3-1.2-0.5-1.9-0.5
	c-1.5-0.1-3.1-0.2-4.6,0.1c-2.9,0.5-4.7,2.7-4.8,5.7c0,0.8,0,1.6,0,2.4c0,1.2-0.1,1.2-1.2,1.4c-3.4,0.6-6.8,1.2-10.1,2.2
	c-0.8,0.2-0.9,0.2-1.2-0.6c-0.3-0.8-0.7-1.6-1-2.3c-1.4-3.1-4.5-4.1-7.4-3c-1.1,0.4-2.1,0.9-3.2,1.5c-1.7,0.9-2.8,2.3-3.2,4.4
	c-0.2,1.1-0.1,2.2,0.3,3.2c0.3,0.9,0.7,1.8,1.1,2.6c0.3,0.7,0.3,0.9-0.3,1.3c-2.7,1.7-5.2,3.7-7.7,5.8c-0.3,0.3-0.6,0.6-0.9,0.8
	c-0.5,0.5-0.7,0.5-1.2,0c-0.6-0.5-1.2-1.1-1.8-1.6c-2.1-2.2-6-2.2-8,0.1c-0.6,0.7-1.2,1.4-1.8,2.1c-0.7,0.8-0.8,0.8-1.6,0
	c-0.6-0.6-2.2-2-2.3-2.1c-1-1.2-1-1.2,0.1-2.4c8.7-10.4,19.8-18.3,32.2-23c6.2-2.4,12.7-3.9,19.3-4.5c4-0.4,8.1-0.4,12.1-0.1
	c5.5,0.3,10.9,1.3,16.2,2.8c4.3,1.2,8.5,2.9,12.6,5c2.8,1.4,5.4,2.9,8,4.6c3.6,2.4,7,5.1,10.2,8.1c3.1,2.9,5.9,6,8.6,9.3
	c0.4,0.5,0.7,1,1,1.5c2.5,3,4.5,6.3,6.4,9.7c3.8,6.8,6.6,14.2,8.3,21.8c0.6,2.7,1,5.4,1.5,8.1c0.4,2.4,2,3.2,4.1,2
	c2.5-1.4,4.1-4.9,3.8-7.9c-0.1-0.7-0.5-1.4,0.2-2c0.5-0.3,1.1-0.3,1.7-0.3c3.1,0,6.1,0,9.2,0c1.3,0,2.1-0.5,2.8-1.6
	c2.5-4.1,4.5-8.6,5.7-13.4c1-3.7,1.7-7.4,2-11.3c0-0.4,0-0.8,0-1.2c-0.1-0.5,0.1-0.9,0.5-1.1c0.7,0,2.1-0.1,2.2-0.1
	c2.5-0.2,2.5-0.2,2.5,2.5c0,2,0,4.1,0,6.1c0,1.9,0.5,2.4,2.2,2.9c4.2,1.1,8.4,1.5,12.6,1.2c2-0.1,3.9-0.5,5.9-0.6
	c0.4,0,0.8-0.2,1.2-0.3c1.2-0.5,1.5-1,1.6-2.3c0-2.5,0-5.1,0-7.6c0-0.6-0.1-1.2,0.4-1.6c0.8-0.6,1.5-0.1,2.2,0.2
	c1.7,0.8,3,2.1,4.2,3.5c2.2,2.7,3.8,5.7,5.3,8.9c0.1,0.2,0.2,0.5,0.2,0.8c-0.1,0.7-0.5,1-1,1.4c-4,2.7-7.6,6-10.9,9.6
	c-3.8,4.1-7,8.8-9.6,13.8c-3.1,5.8-5.2,12-6.5,18.6C289.7,315.4,289.8,316.2,289,316.3z"/>
<path class="st10" d="M289,316.3c0.3-1.2,0.5-2.4,0.8-3.7c2.2-10,6.5-18.9,12.6-26.8c4.1-5.3,8.9-9.9,14.4-13.6
	c0.3-0.2,0.7-0.4,0.9-0.8c0.2-0.4,18.8-13,39.5-9c1.2,0.9,1.4,2.8,0.7,4.4c-0.7,1.6-1.9,2.1-3.8,2.1c-1.8,0-3.6-0.1-5.4,0
	c-3,0.2-6,0.6-9,1.2c-8.1,1.8-15.5,5.3-22.1,10.5c-7.8,6.1-13.6,13.9-17.6,23.2c-1.6,3.8-2.9,7.8-3.7,11.8c0,0.2-0.7,4.2-0.9,5.9
	c-0.2,1.6-0.9,2.7-2.4,3.3c-2.2,0.8-4.5-0.9-4.5-3.3c0-1.2,0.2-2.4,0.4-3.6C288.8,317.5,288.9,316.4,289,316.3z"/>
<path class="st11" d="M271.3,307.9c-3.7,0-7.4,0-11.1,0c-1.7,0-3-0.9-3.7-2.5c-0.7-1.6-0.5-3.2,0.5-4.7c0.8-1.1,2-1.6,3.3-1.6
	c0.9,0,1.8,0,2.7,0c6.3,0,12.5,0,18.8,0c1.2,0,2.3,0.2,3.2,1.1c1.3,1.2,1.8,3.1,1.3,4.8c-0.3,0.9-0.8,1.6-1.5,2.1
	c-0.7,0.5-1.5,0.8-2.4,0.8C278.7,308,275,307.9,271.3,307.9z"/>
<path class="st3" d="M154,215c0.2,0.2,0.5,0.2,0.8,0.1c2.3-0.5,4.7-0.8,7-1c0.2,0,0.1,0,0.7-0.1c8.2-0.6,19.2-0.2,27.9,2.2
	c1.9,0.6,3.8,1,5.7,1.5c0.2,0,9.5,3.6,13.2,5.7c0.3,0.2,0.5,0.4,0.7,0.6c0.1,1.8-0.4,3.1-1.3,4.3c-1.4,1.7-3.2,2.9-5.2,3.6
	c-2.6-1.2-5.2-2.4-7.8-3.4c-4.7-1.7-9.6-3-14.5-3.7c-4.3-0.6-8.7-0.9-13-0.8c-5.1,0.1-10.3,0.7-15.3,1.9
	c-15.6,3.7-29.7,12.3-40.4,24.7c-0.3,0.4-0.7,0.8-1,1.2c-0.7,0.8-1,1.4-1.6,2c-0.9,1.1-1.7,2.2-2.6,3.3c-2,2.6-5.5,2.7-7.7,0
	c-1.5-1.8-1.2-4.6,0-6.4c1.3-1.9,2.7-3.7,4.2-5.4c1.5-1.8,3-3.6,4.7-5.3c2.3-2.3,4.7-4.6,7.2-6.7c8.7-7,18.2-12.4,28.6-15.7
	c2.8-0.9,5.6-1.6,8.4-2.2C153.1,215.5,153.6,215.4,154,215z"/>
<path class="st3" d="M239.1,249.6c2.5,3.2,4.6,6.7,6.6,10.2c2.3,4.2,4.3,8.5,5.9,13.1c1.5,4.2,2.8,8.4,3.7,12.7
	c0.1,0.5,0.2,1,0.3,1.5c0.2,1.3,0.5,2.7,0.2,4c-0.6,2.8-1.9,5-4.5,6.3c-2.1,1-4,0-4.3-2.5c-0.9-6.5-2.4-12.8-4.7-18.8
	c-2.7-7.2-6.3-13.9-10.8-20c-0.2-0.3-0.4-0.6-0.6-0.9c0.5-1.7,1.5-3.1,2.5-4.5c0.5-0.8,1.4-0.7,2.1-0.9
	C236.7,249.4,237.9,249.1,239.1,249.6z"/>
<path class="st4" d="M238.6,249.5c-5.6-0.5-7.3,5.3-7.5,5.7c-2.4-3.1-5-6.1-7.7-8.8c-5.6-5.6-12-10.3-19-13.9
	c-0.3-0.2-0.6-0.3-0.9-0.5c0.3-0.3,2.6-0.8,4.5-3.6c1.6-2.3,2-3.9,2-4.4c1.8,0.7,3.4,1.9,5.1,2.9c2.9,1.8,5.6,3.8,8.3,5.9
	c2.4,2,4.7,4,6.9,6.2c1.5,1.5,2.9,3.1,4.3,4.7c1.7,1.8,3.3,3.7,4.6,5.8"/>
<path class="st3" d="M383.5,276.1c-0.6-1.1-1.5-1.8-2.2-2.8c-4-5.1-6.8-10.8-8.8-17c-0.2-0.7-0.4-1.4-0.7-2.1
	c-0.1-0.3-0.2-0.6-0.6-0.6c-5-4.5-11.1-7.1-17.1-9.8c-9-4.2-18.4-7.1-27.9-9.6c-7.4-2-15-3.5-22.6-4.8c-0.7-0.1-1.4-0.2-1.9-0.9
	c-0.1-0.5-0.1-1-0.1-1.5c0-5.9,0-11.9,0-17.8c0-0.6-0.2-1.4,0.5-1.9c1.5,0.4,3,0.4,4.5,0.6c2.9,0.4,5.7,0.7,8.6,1.2
	c3.7,0.6,7.4,1.1,11.1,1.9c2.5,0.5,5.1,1,7.6,1.6c3,0.7,5.9,1.3,8.9,2.1c4.9,1.3,9.8,2.6,14.5,4.4c1.9,0.7,3.8,1.5,5.7,2.1
	c2,0.6,3.5,1.9,4.9,3.3c3.2,3.1,6.3,6.2,9.4,9.4c2,2.2,4.1,4.3,6,6.5c0.8,1,1.8,1.9,2.7,2.8c1.5,1.6,2.9,3.4,4.5,5
	c1.2,1.3,2,2.9,2.1,4.8c0.1,2.6,0,5.2-0.6,7.8c-1.2,4.7-3.3,8.9-6.2,12.7C385.2,274.4,384.4,275.3,383.5,276.1z"/>
<path class="st12" d="M256.3,220.8l-7-5.1c-0.1-0.1-0.2-0.2-0.3-0.2c-0.4-0.4-0.7-0.2-0.9,0.2c-0.4,0.7-0.8,1.3-1.3,1.9
	c-1,1.5-2,3.1-3.1,4.6c-0.8,1.1-1.8,1.5-2.8,1.1c-1.6-0.5-2.4-2.4-1.6-4c0.3-0.5,0.6-1,0.9-1.4c3.6-5.4,7.2-10.8,10.7-16.2
	c0.2-0.4,0.5-0.7,0.7-1c0.9-1.1,2.4-1.2,3.4-0.4c0.5,0.4,0.9,1,1,1.6c0.1,0.7,0.1,1.3-0.3,1.9c-0.3,0.6-0.7,1.2-1.1,1.8
	c-1.1,1.7-2.2,3.3-3.3,5c-0.4,0.7-0.5,0.7,0.2,1.1c2.4,1.8,4.8,3.5,7.2,5.3L256.3,220.8z"/>
<path class="st3" d="M285.3,205.9c0.3,0.2,0.3,0.6,0.3,1c0,6.3,0,12.6,0,18.9c0,0.2,0,0.4-0.1,0.6c-0.4,0.5-1,0.5-1.6,0.5
	c-2.1,0-4.2-0.1-6.3-0.1c-5.9-0.1-11.7-0.1-17.6,0c-0.4,0-0.8,0-1.2,0.2c-0.2,0.1-0.4,0.3-0.4,0.6c0,0.3,0.3,0.4,0.5,0.5
	c0.2,0,0.3,0.1,0.5,0.1c2.9-0.1,5.8,0.1,8.7-0.1c2.8-0.2,5.6-0.1,8.3,0c2.4,0.2,4.8,0.2,7.2,0.3c0.6,0,1.2,0,1.8,0.4
	c0.3,1.4,0.7,2.9,0.4,4.4c0,0.1,0,0.3-0.1,0.4c-0.4,0.6-1.1,0.6-1.7,0.8c-1.1,0.5-1.7,1.3-1.6,2.6c0.2,5.9-0.3,11.7-0.2,17.6
	c0,0.7,0,1.4,0.1,2c0.2,1.5-0.2,1.9-1.6,2.1c-0.4,0-0.7,0-1.1,0.1c-0.7,0-1.3,0-2,0c-1.9,0.3-3.8,0.3-5.8,0.5
	c-3.6,0.3-6.2-1.3-8-4.5c-2.6-4.5-5.2-9-7.5-13.6c-1.1-2.1-2-4.2-3.2-6.3c-1.8-3.3-1.8-6.5,0.3-9.7c0.9-1.4,1.6-2.9,2.7-4.2
	c0.6-1.5,1.6-2.7,2.5-4.1c2-3.1,4.2-6.2,6.5-9.1c0.7-0.9,1.7-1.4,2.6-2.1c1.2-0.3,5.5-0.4,6.6-0.5c1.2,0,2.5,0,3.7,0
	C278.4,205,284.1,205.3,285.3,205.9z"/>
<path class="st3" d="M358.6,266.4c-0.4-0.2-0.6-0.5-0.6-1c0.1-1.5-0.8-2.3-2-2.8c-1.5-0.6-13-1.7-24.4,2.5c-4,1.4-7.9,3.1-11.5,5.3
	c-0.7,0.4-1.4,0.7-2,1.2c-0.1,0.1-0.3,0-0.4,0c-0.9-1.3-1.5-2.9-2.3-4.3c-1.2-2.2-2.6-4.3-4.3-6.1c-1.3-1.4-2.8-2.5-4.7-2.9
	c-0.5,0-0.6-0.4-0.7-0.8c-0.1-0.5-0.1-0.9-0.1-1.4c0-3.3-0.1-6.5,0-9.8c0.1-3.1-0.3-6.1-0.2-9.2c0-1.2-0.5-2-1.5-2.4
	c-0.4-0.2-0.8-0.4-1.2-0.6c-0.3-0.2-0.6-0.4-0.5-0.8l0-2.3c0.3-0.5,0.8-0.4,1.3-0.3c5.7,0.9,11.3,2,16.8,3.3
	c6.7,1.6,13.4,3.4,19.9,5.6c5.2,1.8,10.4,3.8,15.4,6.3c2.4,1.2,4.8,2.2,7,3.8c0.8,0.6,1.5,1.4,2.1,2.2c1.5,1.9,1.1,4.2,1,6.4
	c0,0.7-0.4,1.3-0.4,2c-1.3,2-2.4,4.2-3.3,6.5c-0.2,0.5-0.4,0.6-0.9,0.5C360.3,266.8,359.4,266.6,358.6,266.4z"/>
<path class="st4" d="M365.3,260.2c-0.3-0.6-0.2-1.2-0.1-1.8c0.2-1.2,0.1-2.5,0.1-3.7c0-1.2-0.6-2.2-1.3-3.1c-0.9-1.1-2-2-3.2-2.6
	c-5.7-3.1-11.6-5.6-17.7-7.8c-4.4-1.6-8.8-3.1-13.3-4.3c-5.7-1.5-11.3-2.9-17.1-4.1c-3.3-0.7-6.6-1.2-9.9-1.8c-0.2,0-0.4,0-0.6-0.1
	c0-0.8,0-1.6,0-2.4c2,0.2,4,0.6,6,1c2.6,0.5,5.2,1,7.8,1.6c2.7,0.6,5.5,1.2,8.2,1.9c2.1,0.6,4.2,1.1,6.2,1.6c5.1,1.4,10.1,3,15,4.8
	c4,1.5,7.9,3.3,11.8,5c3.7,1.7,7.3,3.6,10.8,5.8c1,0.6,2,1.4,2.9,2.2c0.3,0.3,0.6,0.6,0.3,1.1c-1.3,1.2-2.6,2.4-3.8,3.7
	C366.7,258.2,366.1,259.2,365.3,260.2z"/>
<path class="st4" d="M285.3,226.4l0,2.4c-6.8-0.6-19.5-0.6-25.9-0.2c-0.5,0-1-0.1-1.5-0.2c-0.4-0.1-0.9-0.6-0.9-0.9
	c0-0.6,0.3-0.8,0.7-1c0.5-0.3,1.1-0.3,1.7-0.3c6.1,0,12.3-0.1,18.4,0.1C280.3,226.3,282.8,226.3,285.3,226.4z"/>
<path class="st13" d="M390.3,255c0,2.3-0.4,4.4-1,6.5c-1.1,3.7-2.9,7-5.2,10c-0.5,0.6-0.5,0.6-1,0c-2.2-2.8-4-5.8-5.6-9.1
	c-1.2-2.4-2.1-5-2.9-7.5c-0.3-0.8-0.2-0.9,0.5-1.4c2.7-1.4,5.4-2.5,8.4-2.9c1.4-0.2,2.7-0.2,4.1-0.4c0.1,0,0.3,0,0.4,0
	c1.3,0,1.5,0.2,2,1.4C390.3,252.8,390.3,254,390.3,255z"/>
<path class="st2" d="M302.1,207.8c0,6.8,0.1,21.9,0.2,26.1c-0.4,0.5-0.9,0.3-1.3,0.2c-4.8-1.5-9.6-1.3-14.4-0.3
	c-0.4,0.1-0.8,0.2-1.1-0.2l0,0c-0.2-0.3,0-33.8,0-35.9c0-0.9,0.1-1.8,0.6-2.6c0.5-1,1-2,1.5-3c0.1-0.1,0.2-0.1,0.3-0.1
	c5.6,2.5,10.2,5.4,14.4,9.9C302,203.5,302.1,205.7,302.1,207.8z"/>
<path class="st10" d="M287.7,191.6L287.7,191.6l-0.2,0c0.4-1,0.4-2.1,0.4-3.2c0-3.2,0-6.4,0-9.7c0-1.2,0.3-2.1,1-3
	c3.4-4.5,7.2-8.8,11.2-12.8c2.5-2.5,5.2-4.9,8.2-6.9c0.6,0.1,0.3,0.5,0.2,0.8c-1.8,4.2-1.6,8.7-1,13c0.2,1.9,0.8,3.9,2.3,5.4
	c0.1,0.1,0.2,0.2,0.2,0.4c0,0.1,0,0.3-0.1,0.4c-3.5,1.7-6.2,4.3-8.5,7.5c-0.3,0.5-0.6,1-0.5,1.6c-0.2,3.8-0.1,7.7,0,14
	c0,0.1,0,0.1,0,0.2c-0.5,0.4-0.8,0-1.2-0.3c-1.4-1.2-2.7-2.5-4.2-3.6c-1.6-1.2-3.3-2.3-5-3.2C289.7,191.7,288.8,191.4,287.7,191.6z"
	/>
<path class="st10" d="M310.6,155.6c0.7,0.4,1,1,1.2,1.7c0.4,2,0.7,4,0.9,6c0.2,3.5-0.2,6.8-1.1,10.2c-0.2,0.7-0.4,1.4-0.8,1.9
	c-0.4,0.1-0.6-0.3-0.7-0.6c-2-3.7-2.4-7.7-2.1-11.8c0-0.6,0.1-1.1,0.2-1.7C308.2,159.2,309.1,157.1,310.6,155.6z"/>
<path class="st10" d="M304.3,234.3c1.1,0.5,1.6,1.2,1.6,2.5c0.2,6.7,0.2,13.5,0.2,20.2c0,0.4,0,2.2,0,2.7c0,2.8-0.1,5.6,0,8.4
	c0,1-0.4,1.5-1.2,1.9c-6.7,1.9-15.5,1.8-21.6-0.2c-1.4-0.4-1.7-1-1.8-2.5c0-2,0-3.9,0-5.9c0-0.8,0-1.6,0-2.5c0-0.8,0.2-13.6,0.2-14
	c0-3,0-6,0-9c0-0.9,0.3-1.5,1.2-1.9C292.7,230.8,297.8,231.7,304.3,234.3z"/>
<path class="st6" d="M283.6,252v-14.5c0-0.3,0-0.5,0-0.8c0-1,0.1-1.1,1-1.5c3.4-1.4,13.4-2.7,18.8,1c0.8,0.5,1,0.9,1,2.1
	c0.1,2.5-0.1,21.4-0.1,28.7c0,0.1,0,0.3,0,0.4c0,1-0.1,1.1-1.1,1.3c-6.2,1.4-12.4,1.2-18.6-0.4c-0.9-0.2-1-0.3-1-1.3
	c0-3.3,0-6.7,0-10C283.7,255.4,283.7,253.7,283.6,252L283.6,252z"/>
<path class="st9" d="M287.5,191.8c0.1-0.9,0.7-1,1.7-0.8c1.2,0.4,2.4,0.9,3.5,1.7c2.4,1.5,4.8,3.2,6.8,5.3c0.5,0.5,1,0.9,1.5,1.3
	c0.1,0.3,0.2,0.6,0.5,0.8c0.6,0.6,0.7,1.3,0.6,2.2c-1.1-0.2-1.7-0.8-2.4-1.6c-1.9-2.2-4-3.9-6.3-5.5c-1.4-1-3.6-2-5.2-2.7
	C287.7,192.3,287.4,192.3,287.5,191.8z"/>
<path class="st9" d="M310.6,155.6c0.4,0.2,0.6,0.3-0.3,1.2c-1.2,1.1-2,3.9-1.9,8.6c0.1,3.1,0.1,5.8,2.5,10.1
	c-0.2,0.3-0.5,0.6-0.8,0.6c-4-4.1-3.6-16.7-1.6-20C309.2,155.2,309.7,155.1,310.6,155.6z"/>
</svg>
