<svg id="Layer_1" data-name="Layer 1" xmlns="http://www.w3.org/2000/svg" viewBox="0 0 82.02 83.33"><title>factom-fct-logo</title><path d="M41.17,13.45c-0.7,2.43-4,5.74-8.34,8.52l-0.17.17c-0.17.52,0.7,1.91,1.74,1.39,5-3.3,8.86-7.13,9.56-9.91,0.52-2.26-.87-3.3-3.82-3.48a14.93,14.93,0,0,0-2.78.17h-0.7c3.3-.17,5.21.87,4.52,3.13h0Z" style="fill:#1d1d1d;fill-rule:evenodd"/><path d="M53.86,16.76C52.3,22.67,40.65,31.88,27.79,37.44A46,46,0,0,1,21,39.87a0.93,0.93,0,0,0-.52.35c-0.52.7-.35,2.43,0.87,2.26q3.39-1,7.3-2.61C42.21,34.14,54.73,24.23,56.29,18a3.41,3.41,0,0,0-1.91-4.34c-0.87-.35-1.91-0.87-2.78-1.22a3.38,3.38,0,0,1,2.26,4.35h0Z" style="fill:#1d1d1d;fill-rule:evenodd"/><path d="M69.85,30.32h0a4.87,4.87,0,0,0-.35-1.91l-0.35-.7-1.22-1.91a3.72,3.72,0,0,1,.52,2.09,6.42,6.42,0,0,0,1.39,2.43h0Z" style="fill:#1d1d1d;fill-rule:evenodd"/><path d="M71.24,35.35C69.5,41.61,58.73,51,45.69,57.78A1.29,1.29,0,1,0,46.91,60c12.86-6.78,23.46-15.82,25-22.08a4.63,4.63,0,0,0,.17-2.61c-0.17-.87-0.7-2.09-0.87-3a4.24,4.24,0,0,1,0,3h0Z" style="fill:#1d1d1d;fill-rule:evenodd"/><path d="M60.29,55.34a2.68,2.68,0,0,0-.7,1c-0.17.7,0.35,1.74,1.39,1,6.43-4.69,11.12-9.73,12-13.56a5.39,5.39,0,0,0,.17-1.57v-1L73,39.18a9.18,9.18,0,0,1-.17,2.09c-1,4-5.91,9.21-12.51,14.08h0Z" style="fill:#1d1d1d;fill-rule:evenodd"/><path d="M24.49,23.54A36.71,36.71,0,0,0,29,21.28a0.57,0.57,0,0,0,0-.87,1.24,1.24,0,0,0-1-.52,36.81,36.81,0,0,1-3.65,1.91c-4,1.74-7.13,1.91-7.82.87a1.42,1.42,0,0,1-.17-1.22,6.51,6.51,0,0,1,1-1.74l2.43-2.43a39.21,39.21,0,0,1,7.47-4.17,4.39,4.39,0,0,1,1.39-.87c4-1.22,6.61-.87,6.08,1a4.35,4.35,0,0,1-1.22,2.08,3,3,0,0,0,2.43.35,6.1,6.1,0,0,0,1.56-2.61c0.7-2.26-2.09-3-6.26-1.74a7.44,7.44,0,0,0-1,.35l-1,.35a3.63,3.63,0,0,1-1,.35,5.74,5.74,0,0,0-1,.52c-0.35.17-.52,0.17-0.87,0.35s-0.52.17-.87,0.35a5.53,5.53,0,0,1-.87.52l-0.7.35a2.6,2.6,0,0,0-.69.35,1.83,1.83,0,0,0-.69.52,2.4,2.4,0,0,0-.7.52c-0.35.17-.35,0.35-0.7,0.52a2.41,2.41,0,0,0-.7.52,2.42,2.42,0,0,0-.7.52c-0.35.35-.52,0.35-0.87,0.7s-0.52.35-.87,0.7a8.9,8.9,0,0,0-2.26,2.09,4.13,4.13,0,0,0-1,1.56c0,0.17-.17.35-0.17,0.52v0.35a2.57,2.57,0,0,0,.17,1.22c1,1.39,5,1,9.91-1h0Z" style="fill:#1d1d1d;fill-rule:evenodd"/><path d="M10.75,29.27v0.35a0.61,0.61,0,0,0,.17.35c1,1.22,3.48,1.39,5.21,1,6.08-.69,6.26-1.74,6.26-2.43,0,0,0-1.22-.7-1.22-4.87,1.56-8.34,1.56-9.39.17a3.1,3.1,0,0,1-.17-1.91,13.78,13.78,0,0,1,.69-1.56c0.17-.35.52-0.69,0.87-1.22l-0.52.52a4.65,4.65,0,0,1-.87,1,10.75,10.75,0,0,0-.7,1c-0.17.35-.52,0.87-0.7,1.22s-0.17.52-.35,0.87a0.64,0.64,0,0,1-.17.52,11,11,0,0,0,.35,1.22h0Z" style="fill:#1d1d1d;fill-rule:evenodd"/><path d="M26.75,34C38.39,29.1,49,20.75,50.38,15.37c0.52-1.91-.17-3.3-2.09-3.82a11.11,11.11,0,0,0-1.22-.35A4.86,4.86,0,0,0,46,11a2.54,2.54,0,0,1,1.74,3.48c-1.39,4.87-10.95,12.52-21.55,17-8.34,3.48-14.77,4-16.51,1.74a2.85,2.85,0,0,1-.35-2.43c0.17-.35.17-0.7,0.35-1-0.35.87-.87,2.09-1.22,3,0,0.17-.17.35-0.17,0.52s-0.17.52-.17,0.7a2.17,2.17,0,0,0,.52,2.09C10.41,38.48,17.53,38,26.75,34h0Z" style="fill:#1d1d1d;fill-rule:evenodd"/><polygon points="6.76 39.7 6.76 40.39 6.76 39.7 6.76 39.7" style="fill:#1d1d1d;fill-rule:evenodd"/><path d="M6.76,47h0v0a0.64,0.64,0,0,0,.17.52v0.35C6.93,48,7.1,48,7.1,48.22L6.93,48c0.17,0.17.17,0.52,0.35,0.69C9.71,52,18.92,51.35,30.74,46.3,45.86,39.87,59.6,29.1,61.51,22a4.16,4.16,0,0,0-1-4.35l-1.39-1.22-1-.69a3.4,3.4,0,0,1,1.56,3.13c-0.52,10.95-42.93,37-52.49,26.94a3.73,3.73,0,0,1-.7-2.09,14.93,14.93,0,0,0,.17,2.78v0.17a0.54,0.54,0,0,1,.17.35h0Z" style="fill:#1d1d1d;fill-rule:evenodd"/><polygon points="7.97 52.22 7.97 51.87 7.97 52.22 7.97 52.22" style="fill:#1d1d1d;fill-rule:evenodd"/><path d="M33.52,52c16-6.78,30.59-18.25,32.68-25.73a4.39,4.39,0,0,0-.52-4,24.57,24.57,0,0,0-2.09-2.26c1,1,1.22,2.43.87,4.17-1.91,7.3-16.34,18.6-32,25.2C20.14,54.65,10.75,55.52,8.15,52v0a1.88,1.88,0,0,1-.52-1.22,19.07,19.07,0,0,0,.87,3V54.3c0.17,0.17.17,0.35,0.35,0.52,2.26,3.48,12,2.61,24.68-2.78h0Z" style="fill:#1d1d1d;fill-rule:evenodd"/><path d="M11.28,60.73c0-.17-0.17-0.17-0.17-0.35a0.35,0.35,0,0,0,.17.35h0Z" style="fill:#1d1d1d;fill-rule:evenodd"/><path d="M36.65,58.12c9.56-4.17,18.77-9.91,25-15.47A1.77,1.77,0,0,0,62,40.92a1.22,1.22,0,0,0-1.74-.7,96.09,96.09,0,0,1-25,15.47C22.4,60.91,12.49,61.78,9.89,58.12a6.16,6.16,0,0,1,.7,1.56,0.61,0.61,0,0,0,.17.35c0,0.17.17,0.17,0.17,0.35,0-.17-0.17-0.17-0.17-0.35,0,0.17.17,0.17,0.17,0.35,2.43,4,12.51,3.3,25.72-2.26h0Z" style="fill:#1d1d1d;fill-rule:evenodd"/><path d="M25.88,67.68c0.7-.17.52-0.7,0.35-1a2.24,2.24,0,0,0-1.91-1c-5.39.87-9.21,0.35-10.78-1.57V63.86a7.49,7.49,0,0,1,1,1.22c0.35,0.35.7,0.87,1,1.22,1.39,1.74,5,2.26,10.26,1.39h0Z" style="fill:#1d1d1d;fill-rule:evenodd"/><path d="M41,68.38a1,1,0,0,0,.7-1.22,1.58,1.58,0,0,0-2.09-.52c-10.43,4.17-18.42,4.86-21.38,2.43A23.2,23.2,0,0,1,20.66,71c3,2.08,10.6,1.22,20.34-2.6h0Z" style="fill:#1d1d1d;fill-rule:evenodd"/><path d="M24.14,73.07a20.6,20.6,0,0,1,2.78,1.39c3.3,1.39,10.25.35,18.95-3.3C59.07,65.6,71.07,56,72.63,50a0.64,0.64,0,0,1,.17-0.52c0.17-.7.17-1.74,0.35-2.61V46.31c-1.74,12-37.37,31.63-49,26.77h0Z" style="fill:#1d1d1d;fill-rule:evenodd"/><path d="M47.43,72.55c-7.3,3.13-13.38,4.17-16.69,3.3,0.87,0.17,2.26.52,3.13,0.69,9,1.39,32-9.91,36.85-20.16,0.35-.87.7-2.08,1-3C70,59,59.25,67.51,47.43,72.55h0Z" style="fill:#1d1d1d;fill-rule:evenodd"/><path d="M63.25,66.29a55.41,55.41,0,0,1-13.38,7.82c-4.87,2.09-9,3-11.82,2.78h3.48a32.33,32.33,0,0,0,9.39-2.61,55.84,55.84,0,0,0,11.82-7c0.52-.35.69-0.87,0.87-0.87,0-.17.17-0.17,0.17-0.35V65.95c-0.35.17-.52,0.17-0.52,0.35h0Z" style="fill:#1d1d1d;fill-rule:evenodd"/><path d="M6.76,40.39h0v0.87a0.35,0.35,0,0,0,.17.35v0.17C6.93,42,7.1,42,7.1,42.13v0.17a3.54,3.54,0,0,0,1.22,1,0.8,0.8,0,0,0,.52-0.87,4,4,0,0,0-.17-1.91,2.35,2.35,0,0,1-1.22-1,3.71,3.71,0,0,1-.52-2.09,7.49,7.49,0,0,1,.17-0.87v0.35L6.93,38.13,6.58,39.87c0.17,0,.17.35,0.17,0.52h0Z" style="fill:#1d1d1d;fill-rule:evenodd"/><path d="M72.28,63.69A1.65,1.65,0,0,0,70,64,37.41,37.41,0,0,1,58.21,75a36.59,36.59,0,0,1-18.08,4.87H40A36.55,36.55,0,0,1,10.58,65.08H10.41a0.17,0.17,0,0,0-.17-0.17l-0.17-.17a0.35,0.35,0,0,1-.35-0.17h-1a0.35,0.35,0,0,0-.35.17H8.15V64.9a0.17,0.17,0,0,0-.17.17l-0.17.17a0.35,0.35,0,0,1-.17.35v7.13a1.74,1.74,0,0,0,1.74,1.74,1.64,1.64,0,0,0,1.74-1.74V70.81a39.93,39.93,0,0,0,29.2,12.52h0.17a38.8,38.8,0,0,0,19.64-5.39A37,37,0,0,0,73,65.95a1.76,1.76,0,0,0-.7-2.26h0Z" style="fill:#407ba4;fill-rule:evenodd"/><path d="M38.39,5.29h0V4.94a0.35,0.35,0,0,0-.17-0.35A0.35,0.35,0,0,0,38,4.24l-0.17-.17c0-.17-0.17-0.17-0.35-0.17l-0.17-.17L31.27,0.25A1.57,1.57,0,0,0,29,.94a1.57,1.57,0,0,0,.7,2.26l1.91,1A42.6,42.6,0,0,0,19.79,8.76,40.49,40.49,0,0,0,5.54,23.19,39.64,39.64,0,0,0,4.15,61.08a1.82,1.82,0,0,0,1.56.87,1.05,1.05,0,0,0,.69-0.17,1.54,1.54,0,0,0,.7-2.26,36.73,36.73,0,0,1,14.43-48A34.19,34.19,0,0,1,36.83,6.85a0.64,0.64,0,0,0,.52-0.17c0.17-.17.35-0.17,0.52-0.35L38,6.16,38.22,6V5.81a0.35,0.35,0,0,1,.17-0.35V5.29h0Z" style="fill:#d37d41;fill-rule:evenodd"/><path d="M81.84,55.34a1.76,1.76,0,0,0-2.26-.7L78,55.52a39.42,39.42,0,0,0-3.48-32.15A40.9,40.9,0,0,0,43.43,3.55a1.6,1.6,0,0,0-1.74,1.57,1.6,1.6,0,0,0,1.56,1.74A37,37,0,0,1,71.76,24.93a37.23,37.23,0,0,1,1.56,33.72v1.22a0.34,0.34,0,0,0,.17.35v0.17l0.17,0.17v0.17c0.17,0.17.35,0.17,0.52,0.35h1.22a0.17,0.17,0,0,0,.17-0.17l5.74-3.3a1.89,1.89,0,0,0,.52-2.26h0Z" style="fill:#e9b520;fill-rule:evenodd"/></svg>