<?xml version="1.0" encoding="utf-8"?>
<!-- Generator: Adobe Illustrator 27.7.0, SVG Export Plug-In . SVG Version: 6.00 Build 0)  -->
<svg version="1.1" id="Layer_1" xmlns="http://www.w3.org/2000/svg" xmlns:xlink="http://www.w3.org/1999/xlink" x="0px" y="0px"
	 viewBox="0 0 500 500" style="enable-background:new 0 0 500 500;" xml:space="preserve">
<g>
	<path d="M376.2,115.6c-9.1,10.2-30.5,10.1-39.6,0.9c-9.1-9.2-12.2-27,0-38.2c12.2-11.2,30.5-7.1,39.6,1
		C385.4,87.5,385.4,105.4,376.2,115.6z"/>
	<path d="M280.2,42.6c-10,12.2-13.9,19.4-21.4,38.9c-9.8,25.3-18.5,53.2-22.1,70.5c-3.6,17.3,3.5,32.1,19.7,42.2
		c17.1,10.7,35.6,19,60.6,28.4c25,9.4,42.9,22.7,48.6,36.4c5.7,13.7,4.4,40-8.4,65.2c-12.8,25.2-30.7,48.6-62.1,71.7
		c-31.4,23-52.8,28.5-83.9,35.7c-31,7.2-20.8,24.9-10.1,28.5c10.7,3.6,34.2,7.2,65.6,5.8c31.4-1.4,62.7-9.4,99.8-28.1
		c37.1-18.7,73.5-51.1,92.8-94.3c19.3-43.2,27-104.1,4.6-142.6c-13-22.3-19.6-27.7-23.9-41.8c-4.3-14.1-1.5-24.8,6.4-34.6
		c4.6-5.6,14.9-11.3,24.3-18.1c7.4-5.3,16.4-10.7,22.8-15c6.4-4.3,8.6-6.6,4.3-9.5l-0.2-0.1c-4.3-2.9-12.9-8.7-27.7-14.2
		c-15-5.6-17.8-6.4-23.5-6.8c-5.7-0.5-12.8,4.6-24.2,13.2c-11.4,8.6-16.4,10.3-17.1,20.2c-0.7,9.8-3.6,22.3-11.4,33.1
		c-7.8,10.8-18.4,16.3-32.4,17.7c-14.1,1.4-33.1-2.9-42.5-14c-9.4-11.1-13.1-17.4-13.1-33.1c0-15.7,6-26.8,14.1-34.7
		c8-7.9,7.7-10.8,7.7-14.4c0-3.6-1.9-15.8-3.4-21.6c-1.6-5.7-7.2-6.6-16.3-3.6C298,26.9,290.2,30.4,280.2,42.6z"/>
	<path d="M138.8,343.1c-4.6,1.2-7.9,9.1-16.9,25c-9.1,15.9-17.6,27.4-33.8,45.1c-16.2,17.7-26.4,25-52.3,40.9l-0.7,0.4
		C9.8,470.1,2.4,474.6,0.6,479.3c-1.8,4.7-0.7,11,18.3,13.9c19,2.9,34.8,3.6,62.3-15.3c27.4-18.9,49-37.2,77.4-50.6
		c28.4-13.4,37.3-12.6,69.2-22c31.8-9.4,60.9-27.8,80.9-50.2c20-22.4,30-44.9,34.1-57.7c4.1-12.8,4.6-29.9-6.2-38.4
		c-10.4-8.2-15.9-10.6-38.8-19.2c-24.3-9.1-32.4-11.4-50.3-25.6c-16.9-13.4-15.9-16.6-26.5-18c-10.6-1.4-18.6,14.4-22.2,22.4
		c-2.7,6-3.2,16.5,4,26.4c7.1,9.9,13.8,20.9,33.3,31.9c19.5,11.1,28.6,12.9,41.9,15.1c13.3,2.2,18.5,5.4,14.9,11.7
		c-3.6,6.3-10.7,9.4-22.9,9.4s-29.3-5.6-46.5-15.7c-12.1-7.1-20.7-15.2-27.1-23.1c-6.1-7.7-9.8-8.8-15.5-8.8s-10.4,3.6-17.2,13.7
		c-6.8,10.1-11.8,21.1-12.5,27c-0.7,5.9-1.4,12.5,9.4,20.5c10.7,7.9,20,12.3,32.2,14.4c12.2,2.2,21.4,6,12.5,14.1
		s-19.7,6.3-28.3,4.2c-8.6-2.2-21-8.9-25.8-11.9C146.5,344.3,143.4,341.9,138.8,343.1z"/>
	<path d="M408.4,58.1c6.5-4,13.6-9.3,13.6-13s-3.6-8.1-18.9-17.7C387.9,17.8,366.8,6.9,353,5.3c-13.8-1.6-7.8,20.3-6.2,29
		c1.6,8.7,2.1,15.4,7.8,16.1c5.7,0.7,10,1.4,15.1,2.8c5,1.4,11.5,4.4,18.6,8.6C395.5,66,402,62.1,408.4,58.1z"/>
</g>
</svg>
