<?xml version="1.0" encoding="utf-8"?>
<!-- Generator: Adobe Illustrator 26.0.1, SVG Export Plug-In . SVG Version: 6.00 Build 0)  -->
<svg version="1.1" id="Layer_1" xmlns="http://www.w3.org/2000/svg" xmlns:xlink="http://www.w3.org/1999/xlink" x="0px" y="0px"
	 viewBox="0 0 100 100" style="enable-background:new 0 0 100 100;" xml:space="preserve">
<style type="text/css">
	.st0{fill-rule:evenodd;clip-rule:evenodd;fill:url(#SVGID_1_);}
	.st1{fill-rule:evenodd;clip-rule:evenodd;fill:#FFFFFF;}
</style>
<linearGradient id="SVGID_1_" gradientUnits="userSpaceOnUse" x1="0" y1="99.8898" x2="100" y2="-0.1102" gradientTransform="matrix(1 0 0 -1 0 99.8898)">
	<stop  offset="0" style="stop-color:#0077FC"/>
	<stop  offset="1" style="stop-color:#095EB5"/>
</linearGradient>
<path class="st0" d="M100,50c0-6.5-1.3-13.1-3.8-19.1S90,19.3,85.4,14.6C80.7,10,75.2,6.3,69.1,3.8S56.5,0,50,0S36.9,1.3,30.9,3.8
	S19.3,10,14.6,14.6C10,19.3,6.3,24.8,3.8,30.9S0,43.5,0,50s1.3,13.1,3.8,19.1S10,80.7,14.6,85.4c4.6,4.6,10.2,8.3,16.2,10.8
	S43.5,100,50,100s13.1-1.3,19.1-3.8S80.7,90,85.4,85.4c4.6-4.6,8.3-10.2,10.8-16.2S100,56.5,100,50z"/>
<path class="st1" d="M47.4,27.4h5.2v45.2h-5.2V27.4z"/>
<path class="st1" d="M44.5,48.7v-5.4c-4.1-2-7-6.3-7-11.2c0-6.9,5.6-12.5,12.5-12.5c7.8,0,13.4,5.6,13.4,12.5c0,1.7-0.4,3.4-1.2,5.4
	l-2.2-7.2l-4.4,1.4l3.9,14.9l15.2-5.6l-1.9-4.4l-5.7,1.9c1-2.2,1.2-3.9,1.2-6.5c0-9.7-7.8-17.5-18.4-17.5c-9.7,0-17.5,7.8-17.5,17.5
	C32.5,39.8,37.5,46.4,44.5,48.7z"/>
<path class="st1" d="M55.5,51.3v5.4c4.1,2,7,6.3,7,11.2c0,6.9-5.6,12.5-12.5,12.5c-7.8,0-13.4-5.6-13.4-12.5c0-1.7,0.4-3.4,1.2-5.4
	l2.2,7.2l4.4-1.4l-3.9-14.9l-15.2,5.6l1.9,4.4l5.7-1.9c-1,2.2-1.2,3.9-1.2,6.5c0,9.7,7.8,17.5,18.4,17.5c9.7,0,17.5-7.8,17.5-17.5
	C67.5,60.2,62.5,53.6,55.5,51.3z"/>
</svg>
