<?xml version="1.0" encoding="utf-8"?>
<!-- Generator: Adobe Illustrator 27.7.0, SVG Export Plug-In . SVG Version: 6.00 Build 0)  -->
<svg version="1.1" id="Layer_1" xmlns="http://www.w3.org/2000/svg" xmlns:xlink="http://www.w3.org/1999/xlink" x="0px" y="0px"
	 viewBox="0 0 500 500" style="enable-background:new 0 0 500 500;" xml:space="preserve">
<style type="text/css">
	
		.st0{fill-rule:evenodd;clip-rule:evenodd;fill:url(#Path_00000107567107104530935280000014084535064549879954_);stroke:#00F3AB;stroke-opacity:0.2;}
	.st1{fill-rule:evenodd;clip-rule:evenodd;fill:url(#Combined-Shape-Copy_00000014602084039702342750000015805431995613165732_);}
</style>
<linearGradient id="Path_00000062876519884423233110000013533328323625015961_" gradientUnits="userSpaceOnUse" x1="-45.7585" y1="668.6087" x2="-40.3796" y2="662.0298" gradientTransform="matrix(76 0 0 -76 3526 50817.6289)">
	<stop  offset="0" style="stop-color:#0093ED"/>
	<stop  offset="1" style="stop-color:#00F3AB"/>
</linearGradient>
<path id="Path" style="fill-rule:evenodd;clip-rule:evenodd;fill:url(#Path_00000062876519884423233110000013533328323625015961_);stroke:#00F3AB;stroke-opacity:0.2;" d="
	M250,0c138.1,0,250,111.9,250,250c0,138.1-111.9,250-250,250C111.9,500,0,388.1,0,250C0,111.9,111.9,0,250,0z"/>
<linearGradient id="Combined-Shape-Copy_00000045610859563854763940000004676362233149179831_" gradientUnits="userSpaceOnUse" x1="-38.3757" y1="659.0484" x2="-42.0065" y2="665.1379" gradientTransform="matrix(42 0 0 -42 1945 28024.373)">
	<stop  offset="0" style="stop-color:#000A17"/>
	<stop  offset="1" style="stop-color:#00554F"/>
</linearGradient>
<path id="Combined-Shape-Copy" style="fill-rule:evenodd;clip-rule:evenodd;fill:url(#Combined-Shape-Copy_00000045610859563854763940000004676362233149179831_);" d="
	M265.8,320.9c11.4,0.6,22.2,2,32.6,4.1l8.5,26.5l0.5-24.5l3.9,1c10.3,3.8,20.6,6.1,30.9,7.1l-11,53.1h-44.2L265.8,320.9z
	 M229.9,321.2l-20.1,66.9h-42.7l-10.5-52.7c11.7-0.4,22.4-2.9,32-7.4c1.5-0.4,3.1-0.8,4.7-1.2l1.4,24.7l7.3-26.6
	C210.9,323.2,220.2,321.9,229.9,321.2z M151,111.8l40,184.7c-0.8,0.4-1.6,0.9-2.4,1.4c-11.5,5-23.4,7.5-35.8,7.5c-0.7,0-1.5,0-2.2,0
	l-38.7-193.6H151z M343.1,111.8l45.1,2.2l-39.7,191.4c-11-0.5-23.3-3-37.1-7.4c-0.3-0.2-0.6-0.3-0.8-0.5L343.1,111.8z M260.5,205.6
	l26,81.9c-10-2.7-20.8-4.3-32.4-4.6l-6.6-24.2l-6.5,24.4c-10.1,0.6-19.6,2.1-28.3,4.6l24.3-82.1H260.5z"/>
</svg>
