<?xml version="1.0" encoding="utf-8"?>
<!-- Generator: Adobe Illustrator 26.0.1, SVG Export Plug-In . SVG Version: 6.00 Build 0)  -->
<svg version="1.1" id="Layer_1" xmlns="http://www.w3.org/2000/svg" xmlns:xlink="http://www.w3.org/1999/xlink" x="0px" y="0px"
	 viewBox="0 0 36.7 36.6" style="enable-background:new 0 0 36.7 36.6;" xml:space="preserve">
<style type="text/css">
	.st0{fill:#E62058;}
</style>
<path id="Path_2898" class="st0" d="M27.3,13.7H9.2c-5,0-9,3.9-9.2,8.9c0,0.1,0.1,0.2,0.2,0.2h18.1c5,0,9-3.9,9.2-8.9
	C27.5,13.8,27.4,13.7,27.3,13.7L27.3,13.7L27.3,13.7z"/>
<path id="Path_2899" class="st0" d="M36.4,0H9.2c-5,0-9,3.9-9.2,8.9C0,9,0.1,9.2,0.2,9.2h27.3c5,0,9-3.9,9.2-8.9
	C36.7,0.1,36.6,0,36.4,0L36.4,0L36.4,0z"/>
<circle id="Ellipse_9" class="st0" cx="4.6" cy="32" r="4.6"/>
</svg>
