<?xml version="1.0" encoding="utf-8"?>
<!-- Generator: Adobe Illustrator 27.7.0, SVG Export Plug-In . SVG Version: 6.00 Build 0)  -->
<svg version="1.1" id="Layer_1" xmlns="http://www.w3.org/2000/svg" xmlns:xlink="http://www.w3.org/1999/xlink" x="0px" y="0px"
	 viewBox="0 0 500 500" style="enable-background:new 0 0 500 500;" xml:space="preserve">
<style type="text/css">
	.st0{fill-rule:evenodd;clip-rule:evenodd;}
</style>
<path class="st0" d="M7.7,249.1C7.7,111.5,118.9,0,256.2,0h216.7c10.7,0,19.4,8.7,19.4,19.5v231.4c0,137.6-111.2,249.1-248.5,249.1
	H135.5c-10.7,0-19.4-8.7-19.4-19.5V270.5c0-88.6,71.7-160.4,160-160.4h93.2c5.4,0,9.7,4.4,9.7,9.7v37.4c0,5.4-4.4,9.7-9.7,9.7h-93.2
	c-46.4,0-85.7,30.8-98.7,73.1H364c5.4,0,9.7,4.4,9.7,9.7v37.4c0,5.4-4.4,9.7-9.7,9.7H172.9v145.9h71c105.9,0,191.7-86,191.7-192.2
	v-194H256.2c-105.9,0-191.7,86-191.7,192.2v241.2c0,5.4-4.4,9.7-9.7,9.7H17.4c-5.4,0-9.7-4.4-9.7-9.7V249.1z"/>
</svg>
