<?xml version="1.0" encoding="utf-8"?>
<!-- Generator: Adobe Illustrator 27.7.0, SVG Export Plug-In . SVG Version: 6.00 Build 0)  -->
<svg version="1.1" id="Layer_1" xmlns="http://www.w3.org/2000/svg" xmlns:xlink="http://www.w3.org/1999/xlink" x="0px" y="0px"
	 viewBox="0 0 500 500" style="enable-background:new 0 0 500 500;" xml:space="preserve">
<style type="text/css">
	.st0{fill:#FFFFFF;}
</style>
<path class="st0" d="M250,500c-33.7,0-66.5-6.6-97.3-19.7c-29.8-12.6-56.5-30.6-79.5-53.6c-22.9-22.9-41-49.7-53.6-79.5
	C6.6,316.5,0,283.7,0,250s6.6-66.5,19.7-97.3c12.6-29.8,30.6-56.5,53.6-79.5c23-22.9,49.7-41,79.5-53.6C183.5,6.6,216.3,0,250,0
	s66.5,6.6,97.3,19.7c29.8,12.6,56.5,30.6,79.5,53.6c22.9,22.9,41,49.7,53.6,79.5c13,30.8,19.7,63.6,19.7,97.3s-6.6,66.5-19.7,97.3
	c-12.6,29.8-30.6,56.5-53.6,79.5c-22.9,22.9-49.7,41-79.5,53.6C316.5,493.4,283.7,500,250,500z"/>
<circle cx="250" cy="250" r="236.8"/>
<path class="st0" d="M387.2,136.1l-34.8-34.8l-39.5,39.5c-14.4-7.8-31.5-11.9-49.5-11.9c-18.9,0-36.8,4.3-51.8,12.2l-39.7-39.7
	L137,136.1l39.6,39.6c-5.8,11.3-8.8,24.1-8.8,37.9v192.1H217V302.8h46.3c28,0,50.5-7.1,66.8-21.2c12.2-10.5,26.7-30.3,26.7-64.9
	c0-14.9-3.3-28.7-9.4-40.9L387.2,136.1z M263.4,253.5h-46.3v-39.9c0-33.8,38.6-35.5,46.3-35.5c7.4,0,44.3,1.9,44.3,38.6
	C307.7,235.8,302.3,253.5,263.4,253.5z"/>
</svg>
