<?xml version="1.0" encoding="utf-8"?>
<!-- Generator: Adobe Illustrator 27.7.0, SVG Export Plug-In . SVG Version: 6.00 Build 0)  -->
<svg version="1.1" id="Layer_1" xmlns="http://www.w3.org/2000/svg" xmlns:xlink="http://www.w3.org/1999/xlink" x="0px" y="0px"
	 viewBox="0 0 500 500" style="enable-background:new 0 0 500 500;" xml:space="preserve">
<style type="text/css">
	.st0{fill:#FFFFFF;}
</style>
<g>
	<g>
		<path class="st0" d="M250,500c-33.7,0-66.5-6.6-97.3-19.7c-29.8-12.6-56.5-30.6-79.5-53.6c-22.9-22.9-41-49.7-53.6-79.5
			C6.6,316.5,0,283.7,0,250s6.6-66.5,19.7-97.3c12.6-29.8,30.6-56.5,53.6-79.5c23-22.9,49.7-41,79.5-53.6C183.5,6.6,216.3,0,250,0
			s66.5,6.6,97.3,19.7c29.8,12.6,56.5,30.6,79.5,53.6c22.9,22.9,41,49.7,53.6,79.5c13,30.8,19.7,63.6,19.7,97.3s-6.6,66.5-19.7,97.3
			c-12.6,29.8-30.6,56.5-53.6,79.5c-22.9,22.9-49.7,41-79.5,53.6C316.5,493.4,283.7,500,250,500z"/>
	</g>
	<g>
		<circle cx="250" cy="250" r="236.8"/>
	</g>
	<g>
		<polygon class="st0" points="255.8,205.5 255.8,314.6 362.6,249.9 		"/>
		<polygon class="st0" points="255.8,193.2 361.6,237.2 336.3,196 390.1,142.2 358,110 311.9,156.1 255.8,64.7 		"/>
		<polygon class="st0" points="244.5,314.6 244.5,205.5 137.7,249.9 		"/>
		<polygon class="st0" points="138.6,237.2 244.5,193.2 244.5,64.7 188.4,156.1 142.3,110 110.2,142.2 163.9,195.9 		"/>
		<polygon class="st0" points="361.4,283.8 255.8,347.8 255.8,432.6 299.3,371.4 344.6,416.7 376.8,384.6 326,333.8 		"/>
		<polygon class="st0" points="244.5,347.8 138.9,283.8 174.3,333.8 123.5,384.6 155.7,416.7 201,371.4 244.5,432.6 		"/>
	</g>
</g>
</svg>
