<?xml version="1.0" encoding="utf-8"?>
<!-- Generator: Adobe Illustrator 27.0.1, SVG Export Plug-In . SVG Version: 6.00 Build 0)  -->
<svg version="1.1" id="fst" xmlns="http://www.w3.org/2000/svg" xmlns:xlink="http://www.w3.org/1999/xlink" x="0px" y="0px"
	 viewBox="0 0 500 500" style="enable-background:new 0 0 500 500;" xml:space="preserve">
<style type="text/css">
	.st0{fill:url(#SVGID_1_);}
</style>
<linearGradient id="SVGID_1_" gradientUnits="userSpaceOnUse" x1="-40.0136" y1="-104.7992" x2="487.1353" y2="619.6791" gradientTransform="matrix(1 0 0 -1 0 501)">
	<stop  offset="5.453320e-02" style="stop-color:#00FED0"/>
	<stop  offset="0.298" style="stop-color:#00B3EC"/>
	<stop  offset="0.6109" style="stop-color:#9756FF"/>
	<stop  offset="0.992" style="stop-color:#D834FF"/>
</linearGradient>
<path class="st0" d="M218.9,110.6c0,8.3-6.7,14.9-14.9,14.9h-94.6c-8.3,0-14.9,6.7-14.9,14.9v94.6c0,8.3,6.7,14.9,14.9,14.9h94.6
	c8.3,0,14.9,6.7,14.9,14.9v94.6c0,8.3-6.7,14.9-14.9,14.9h-94.6c-8.3,0-14.9,6.7-14.9,14.9v94.6c0,8.3,6.7,14.9,14.9,14.9h94.6
	c8.3,0,14.9-6.7,14.9-14.9v-94.6c0-8.3,6.7-14.9,14.9-14.9h94.6c8.3,0,14.9-6.7,14.9-14.9v-94.6c0-8.3-6.7-14.9-14.9-14.9h-94.6
	c-8.3,0-14.9-6.7-14.9-14.9v-94.6c0-8.3,6.7-14.9,14.9-14.9h156.9c8.3,0,14.9-6.7,14.9-14.9V15.9c0-8.3-6.7-14.9-14.9-14.9H233.8
	c-8.3,0-14.9,6.7-14.9,14.9L218.9,110.6z"/>
</svg>
