<svg id="Layer_1" data-name="Layer 1" xmlns="http://www.w3.org/2000/svg" viewBox="0 0 2000.04 2296"><title>molecular-future-mof-logo</title><path d="M608.5,73.28c83.17-85.09,226.91-98,323.6-28.64,95.78,63.08,135.57,194.37,93.79,300.69C1001.53,411.85,947.23,463.94,883,492.2c19.4,99.9,40,199.5,59.5,299.24,115.86-8.25,233.1,47,299.7,142.22,76.84,106,80.73,255.63,14.36,367.75q188,175.86,375.16,352.47c61-49.87,146.72-68.35,221.49-41.09,86,29.87,147.87,116.86,146.8,208,.84,81-47.36,159.4-119.3,196.29-44.53,24-97.38,29.33-146.72,20.31-82.18-16.19-151.46-83.17-170.17-164.82-13.13-50.4-4-103.56,16-150.84-125.49-117.77-250.59-236-376.53-353.24-86.23,83.33-216.45,117.77-331.86,82.56-62.93,171.55-121.82,344.54-184.75,516.15,23.52,36.21,42.84,76.69,44.14,120.68,2.14,65.84-29.63,132.21-83.71,170.24-48.72,35.06-113.64,47.58-171.38,29.94-73.86-20-132.06-86-143.21-161.61-7.87-38.49,2.37-77.29,14.13-113.72-25.13-18-50.1-36.13-75.23-54.08-30.63,16.65-64.23,30.47-99.75,28.49C99.37,1988.79,30.94,1937.77,9,1869.34c-22-62.32-2.6-135.95,45.9-180.55,44.91-43.16,114-58,172.77-37.89,65.83,21.16,115.63,85.16,117.69,154.59,2.45,31-6.87,61.1-16.95,90,23.44,16,46.36,32.76,69.73,48.88,29.86-22.91,64.08-41.32,101.81-46.67,39.48-7.94,79,3.29,116.47,14.82,58.12-165.51,117.62-330.48,175.9-496-98.91-61-166.2-173.37-161.85-290.91C627,984.83,726,852.77,858.48,808.55c-18.71-99.44-39.87-198.42-58.74-297.79C716.8,512.29,633.63,475.17,584,408c-76.6-97.38-65.45-249.6,24.52-334.68M762.2,104.63c-82.41,11-143.13,99.6-124,180.48,13.06,67.06,75.61,121.9,144.74,121.28,67,4.36,132.2-42.92,150.61-107.15,20.85-64.39-7.94-140.53-66.45-174.6-30.85-19.86-69-25-104.86-20M916.45,940.22c-95.78,22.92-161.08,126.94-140.76,223.18,14.74,89.43,99.51,160.31,190.33,158.32,88.74,2.45,172.3-64.76,190.17-151.53,18.26-76.76-16.34-163.06-83.32-205-45.52-30-103.88-39.11-156.42-25M1740.32,1709c-55.76,18.48-92.8,82.56-76.76,139.85,12.6,55.9,70.11,97.22,127.24,90.27,61.1-5.27,111.89-64,105.86-125.56-1.53-74.93-86.31-132-156.34-104.56M144.21,1732.25c-63,18.63-79.43,111-26.58,150.23,48.8,44.52,136.79,9.39,142.36-56.22,10.93-61.33-57.81-118.23-115.78-94m359.35,269.3c-28.11,7.94-51.86,29.4-63.39,56.21-25.44,56,14.81,128.16,76.14,134.58,56.52,10.08,114.11-39,111.59-96.54,3-62.87-64.69-113.2-124.34-94.26" style="fill:#6ea8f2"/></svg>