<?xml version="1.0" encoding="utf-8"?>
<!-- Generator: Adobe Illustrator 24.0.0, SVG Export Plug-In . SVG Version: 6.00 Build 0)  -->
<svg version="1.1" id="Layer_1" xmlns="http://www.w3.org/2000/svg" xmlns:xlink="http://www.w3.org/1999/xlink" x="0px" y="0px"
	 viewBox="0 0 560 560" style="enable-background:new 0 0 560 560;" xml:space="preserve">
<style type="text/css">
	.st0{fill-rule:evenodd;clip-rule:evenodd;fill:url(#SVGID_1_);}
	.st1{fill-rule:evenodd;clip-rule:evenodd;fill:#FFFFFF;}
</style>
<g>
	
		<linearGradient id="SVGID_1_" gradientUnits="userSpaceOnUse" x1="-717.7161" y1="780.6089" x2="-716.7161" y2="779.6089" gradientTransform="matrix(560 0 0 -560 401921 437141)">
		<stop  offset="0" style="stop-color:#AA00FF"/>
		<stop  offset="1" style="stop-color:#5500FF"/>
	</linearGradient>
	<circle class="st0" cx="280" cy="280" r="280"/>
	<path class="st1" d="M245,187v61c0,4,3.7,7,7,7h96c3.3,0,7,3,7,7v26c0,3.3-3,7-7,7h-96c-3.3,0-7,3.7-7,7v142c0,5.4-3,8.3-7,6
		l-28-20c-3.3-2-5-4-5-8V302c0-3.3-3.8-7-7-7h-46c-4,0-7-3.7-7-7v-26c0-3.9,3-7,7-7h46c3.2,0,7-3,7-7V147c0-4,3.2-7,6.5-7H388
		c3.3,0,7,3.7,7,7v26c0,3.3-3,7-7,7H252C248.7,180,245,183.7,245,187z"/>
</g>
</svg>
