<?xml version="1.0" encoding="utf-8"?>
<!-- Generator: Adobe Illustrator 26.5.0, SVG Export Plug-In . SVG Version: 6.00 Build 0)  -->
<svg version="1.1" id="gal" xmlns="http://www.w3.org/2000/svg" xmlns:xlink="http://www.w3.org/1999/xlink" x="0px" y="0px"
	 viewBox="0 0 500 500" style="enable-background:new 0 0 500 500;" xml:space="preserve">
<style type="text/css">
	.st0{fill-rule:evenodd;clip-rule:evenodd;}
</style>
<path class="st0" d="M1.9,498.6L479,101.4c5.8-5.1,10.6-11.3,13.9-18.3c3.3-7,5.2-14.6,5.5-22.4c0.3-7.7-1.1-15.5-3.9-22.7
	c-2.8-7.2-7.1-13.8-12.6-19.3c-5.5-5.5-12-9.8-19.3-12.6c-7.2-2.8-15-4.2-22.7-3.9c-7.8,0.3-15.4,2.1-22.4,5.5
	c-7,3.3-13.3,8.1-18.4,13.9L1.9,498.6z M232,75.5L31.2,226.1L181.8,25.3c3.1-4.1,7-7.5,11.5-10c4.5-2.5,9.5-3.9,14.6-4.3
	c5.1-0.4,10.3,0.4,15.1,2.2c4.8,1.8,9.2,4.6,12.8,8.2c3.6,3.6,6.5,8,8.3,12.8c1.8,4.8,2.6,10,2.2,15.1c-0.4,5.1-1.8,10.1-4.3,14.6
	C239.5,68.5,236.1,72.4,232,75.5z M475.2,318.7L274.4,469.3L425,268.5c3.1-4.1,7-7.5,11.5-10c4.5-2.5,9.5-3.9,14.6-4.3
	c5.1-0.4,10.3,0.4,15.1,2.2c4.8,1.8,9.2,4.6,12.8,8.2c3.6,3.6,6.5,8,8.3,12.8c1.8,4.8,2.5,10,2.2,15.1c-0.4,5.1-1.8,10.1-4.3,14.6
	C482.7,311.7,479.3,315.6,475.2,318.7z"/>
</svg>
