<?xml version="1.0" encoding="utf-8"?>
<!-- Generator: Adobe Illustrator 27.7.0, SVG Export Plug-In . SVG Version: 6.00 Build 0)  -->
<svg version="1.1" id="Layer_1" xmlns="http://www.w3.org/2000/svg" xmlns:xlink="http://www.w3.org/1999/xlink" x="0px" y="0px"
	 viewBox="0 0 500 500" style="enable-background:new 0 0 500 500;" xml:space="preserve">
<style type="text/css">
	.st0{fill:url(#SVGID_1_);}
	.st1{fill:url(#SVGID_00000124842497065123916470000007784101175954674110_);}
	.st2{fill:url(#SVGID_00000161592155431917239010000013500562386313292727_);}
	.st3{fill:url(#SVGID_00000103244738338770263020000009614412798328835769_);}
	.st4{fill:url(#SVGID_00000150785805782290714540000003770566182064125316_);}
	.st5{fill-rule:evenodd;clip-rule:evenodd;fill:url(#SVGID_00000142865243504582798080000014172959706838923677_);}
</style>
<g>
	
		<linearGradient id="SVGID_1_" gradientUnits="userSpaceOnUse" x1="198.8892" y1="503.8742" x2="130.4736" y2="434.0089" gradientTransform="matrix(1 0 0 -1 0 499.8898)">
		<stop  offset="0" style="stop-color:#FDE445"/>
		<stop  offset="1" style="stop-color:#FC7227"/>
	</linearGradient>
	<path class="st0" d="M186.8,0h-60l19,84.1l56.9-22.2L186.8,0z"/>
	
		<linearGradient id="SVGID_00000129207210509874154220000011212472381141582216_" gradientUnits="userSpaceOnUse" x1="313.751" y1="-4.0941" x2="382.1664" y2="65.7714" gradientTransform="matrix(1 0 0 -1 0 499.8898)">
		<stop  offset="0" style="stop-color:#FDE445"/>
		<stop  offset="1" style="stop-color:#FC7227"/>
	</linearGradient>
	<path style="fill:url(#SVGID_00000129207210509874154220000011212472381141582216_);" d="M325.8,500h60l-19-84.1L310,438.1
		L325.8,500z"/>
	
		<linearGradient id="SVGID_00000153686368693992807910000012079405609443935668_" gradientUnits="userSpaceOnUse" x1="284.2113" y1="503.874" x2="215.7965" y2="434.0087" gradientTransform="matrix(1 0 0 -1 0 499.8898)">
		<stop  offset="0" style="stop-color:#FDE445"/>
		<stop  offset="1" style="stop-color:#FC7227"/>
	</linearGradient>
	<path style="fill:url(#SVGID_00000153686368693992807910000012079405609443935668_);" d="M272.1,0h-60l19,84.1l56.9-22.2L272.1,0z"
		/>
	
		<linearGradient id="SVGID_00000062170176136685179310000007554401798995735987_" gradientUnits="userSpaceOnUse" x1="228.4291" y1="-4.0943" x2="296.8455" y2="65.7711" gradientTransform="matrix(1 0 0 -1 0 499.8898)">
		<stop  offset="0" style="stop-color:#FDE445"/>
		<stop  offset="1" style="stop-color:#FC7227"/>
	</linearGradient>
	<path style="fill:url(#SVGID_00000062170176136685179310000007554401798995735987_);" d="M240.5,500h60l-19-84.1l-56.9,22.2
		L240.5,500z"/>
	
		<linearGradient id="SVGID_00000160157861837795506060000002868877176256475577_" gradientUnits="userSpaceOnUse" x1="366.6573" y1="294.4085" x2="344.2092" y2="207.2258" gradientTransform="matrix(1 0 0 -1 0 499.8898)">
		<stop  offset="0" style="stop-color:#FDE445"/>
		<stop  offset="1" style="stop-color:#FC7227"/>
	</linearGradient>
	<path style="fill:url(#SVGID_00000160157861837795506060000002868877176256475577_);" d="M259.5,228.6h195.9V254l-15.8,31.7H259.5
		V228.6z"/>
	
		<linearGradient id="SVGID_00000150059950626839264210000014594426212882723216_" gradientUnits="userSpaceOnUse" x1="443.7251" y1="467.533" x2="110.4313" y2="91.7243" gradientTransform="matrix(1 0 0 -1 0 499.8898)">
		<stop  offset="0" style="stop-color:#FDE445"/>
		<stop  offset="1" style="stop-color:#FC7227"/>
	</linearGradient>
	<path style="fill-rule:evenodd;clip-rule:evenodd;fill:url(#SVGID_00000150059950626839264210000014594426212882723216_);" d="
		M312.2,447.5c37.7-12,71.3-34.8,96.6-65.8c30.1-36.9,46.6-83.2,46.6-130.9h-83.3c0,28.4-9.8,55.9-27.7,77.8
		c-13.5,16.5-31,29.1-50.6,36.7L312.2,447.5z M271.5,371.5l18.3,81.7c-46.5,9.2-94.8,2-136.6-20.5c-41.9-22.5-74.8-58.9-92.9-103
		c-18.2-44.1-20.6-93.2-6.8-138.9c13.8-45.7,42.9-85.2,82.4-111.7c19.7-13.2,41.3-22.8,63.9-28.5l18.3,81.7
		c-12.7,3.5-24.8,9-35.9,16.4c-23.5,15.8-40.8,39.2-49,66.4c-8.2,27.2-6.8,56.3,4,82.5s30.3,47.9,55.2,61.2
		C216.7,372,244.5,376.4,271.5,371.5z M240.8,128.5c7-0.5,14.1-0.5,21.2,0.2c28.1,2.8,54.4,15.3,74.4,35.3l58.9-59.2
		c-33.6-33.8-77.8-54.8-125.1-59.4c-16-1.6-32-1.3-47.7,0.9L240.8,128.5z"/>
</g>
</svg>
