<?xml version="1.0" encoding="utf-8"?>
<!-- Generator: Adobe Illustrator 27.1.1, SVG Export Plug-In . SVG Version: 6.00 Build 0)  -->
<svg version="1.1" id="Layer_1" xmlns="http://www.w3.org/2000/svg" xmlns:xlink="http://www.w3.org/1999/xlink" x="0px" y="0px"
	 viewBox="0 0 500 500" style="enable-background:new 0 0 500 500;" xml:space="preserve">
<style type="text/css">
	.st0{fill:url(#SVGID_1_);}
	.st1{fill:#FFFFFF;}
</style>
<linearGradient id="SVGID_1_" gradientUnits="userSpaceOnUse" x1="74.0885" y1="425.9622" x2="426.0128" y2="74.0378" gradientTransform="matrix(1 0 0 -1 0 500)">
	<stop  offset="0" style="stop-color:#FF7600"/>
	<stop  offset="1" style="stop-color:#FD2600"/>
</linearGradient>
<circle class="st0" cx="250.1" cy="250" r="248.8"/>
<path class="st1" d="M286.4,296.2c0-30.7,24.9-55.6,55.6-55.6h157c-1.2-33.9-9.3-66-22.8-95.2H342c-14.6,0-28.9,2-42.6,6.2
	c-0.9-2.6-1.9-5.3-3-7.8c-7.6-17.9-18.4-34.1-32.3-47.9c-13.8-13.8-30-24.7-47.9-32.3c-18.6-7.9-38.4-11.8-58.7-11.8H99.2
	c-32.6,24.7-58.8,57.4-76.1,95.1h134.2c30.7,0,55.6,24.9,55.6,55.6S188.1,258,157.4,258H1c1.1,33.9,8.9,66,22.2,95.2h134.2
	c14.6,0,28.9-2,42.6-6.2c0.9,2.6,1.9,5.3,3,7.8c7.6,17.9,18.4,34.1,32.3,47.9c13.8,13.8,30,24.7,47.9,32.3
	c18.6,7.9,38.4,11.8,58.7,11.8h60.5c32.2-24.9,58.1-57.6,74.9-95.2H342C311.3,351.9,286.4,327,286.4,296.2z"/>
</svg>
