<?xml version="1.0" encoding="utf-8"?>
<!-- Generator: Adobe Illustrator 26.0.1, SVG Export Plug-In . SVG Version: 6.00 Build 0)  -->
<svg version="1.1" id="Layer_1" xmlns="http://www.w3.org/2000/svg" xmlns:xlink="http://www.w3.org/1999/xlink" x="0px" y="0px"
	 viewBox="0 0 14.1 11.8" style="enable-background:new 0 0 14.1 11.8;" xml:space="preserve">
<style type="text/css">
	.st0{fill:#5FC0C1;}
	.st1{fill:#E1177C;}
</style>
<path class="st0" d="M9.9,0.4c1.6,0.7,2.7,2.4,2.6,4.1c-2.9,0-5.8,0-8.6,0c0-1.1,0.4-2.3,1.2-3.1C6.2,0,8.3-0.4,9.9,0.4z"/>
<path class="st1" d="M9.7,11.3c0.2,0,0.3,0.1,0.3,0.2c0,0.1-0.1,0.2-0.3,0.2H5.1c-0.2,0-0.3-0.1-0.3-0.2c0-0.1,0.1-0.2,0.3-0.2H9.7z
	"/>
<path class="st1" d="M4.1,11.8c0.2,0,0.3-0.1,0.3-0.3s-0.1-0.3-0.3-0.3c-0.2,0-0.3,0.1-0.3,0.3S3.9,11.8,4.1,11.8z"/>
<path class="st1" d="M6.9,10.6c0.2,0,0.3-0.1,0.3-0.3S7.1,10,6.9,10s-0.3,0.1-0.3,0.3S6.7,10.6,6.9,10.6z"/>
<path class="st1" d="M12.3,10c0.2,0,0.3,0.1,0.3,0.3c0,0.2-0.1,0.3-0.3,0.3H7.8c-0.2,0-0.3-0.1-0.3-0.3c0-0.2,0.1-0.3,0.3-0.3H12.3z
	"/>
<path class="st1" d="M0.9,9.4c0.2,0,0.3-0.1,0.3-0.3c0-0.2-0.1-0.3-0.3-0.3S0.6,8.9,0.6,9.1C0.6,9.3,0.8,9.4,0.9,9.4z"/>
<path class="st1" d="M5.4,8.8c0.2,0,0.3,0.1,0.3,0.3c0,0.2-0.1,0.3-0.3,0.3H1.7c-0.2,0-0.3-0.1-0.3-0.3c0-0.2,0.1-0.3,0.3-0.3H5.4z"
	/>
<path class="st1" d="M13.8,8.8c0.2,0,0.3,0.1,0.3,0.3c0,0.2-0.1,0.3-0.3,0.3H6.4c-0.2,0-0.3-0.1-0.3-0.3c0-0.2,0.1-0.3,0.3-0.3H13.8
	z"/>
<path class="st1" d="M12.4,7.6c0.2,0,0.3,0.1,0.3,0.3c0,0.2-0.1,0.3-0.3,0.3H3.3C3.2,8.3,3,8.1,3,7.9c0-0.2,0.1-0.3,0.3-0.3H12.4z"
	/>
<path class="st1" d="M2.3,8.3c0.2,0,0.3-0.1,0.3-0.3S2.5,7.6,2.3,7.6S2,7.8,2,7.9S2.1,8.3,2.3,8.3z"/>
<path class="st1" d="M10.5,6.5c0.2,0,0.3,0.1,0.3,0.3c0,0.2-0.1,0.3-0.3,0.3H1.4C1.3,7.1,1.1,7,1.1,6.8c0-0.2,0.1-0.3,0.3-0.3H10.5z
	"/>
<path class="st1" d="M0.3,7.1c0.2,0,0.3-0.1,0.3-0.3c0-0.2-0.1-0.3-0.3-0.3C0.1,6.5,0,6.6,0,6.8C0,7,0.1,7.1,0.3,7.1z"/>
<path class="st1" d="M2.3,5.9c0.2,0,0.3-0.1,0.3-0.3c0-0.2-0.1-0.3-0.3-0.3S2,5.5,2,5.6C2,5.8,2.1,5.9,2.3,5.9z"/>
<path class="st1" d="M13.3,5.3c0.2,0,0.3,0.1,0.3,0.3c0,0.2-0.1,0.3-0.3,0.3H3.4c-0.2,0-0.3-0.1-0.3-0.3c0-0.2,0.1-0.3,0.3-0.3H13.3
	z"/>
</svg>
