<?xml version="1.0" encoding="utf-8"?>
<!-- Generator: Adobe Illustrator 19.2.1, SVG Export Plug-In . SVG Version: 6.00 Build 0)  -->
<svg version="1.1" id="Layer_1" xmlns="http://www.w3.org/2000/svg" xmlns:xlink="http://www.w3.org/1999/xlink" x="0px" y="0px"
	 viewBox="0 0 191 191" style="enable-background:new 0 0 191 191;" xml:space="preserve">
<style type="text/css">
	.st0{fill:#FEF102;}
</style>
<circle cx="95.5" cy="95.5" r="95.5"/>
<circle class="st0" cx="95.3" cy="95.5" r="85.3"/>
<path d="M135.7,63.5c-2-4.6-3.9-13.6-9.1-15.6c-6.7-2.6-10.9,14.3-11.9,18.6h-1c-1.7-7.3-4-17.7-12-20c-3.7,15.6,3.9,32.5,11,46
	c7.6-3.6,11.3-15,12-23h1l8,24c6.4-1.8,8.7-8.2,11-14c5-12.4,9.2-27.7,6-41C141.1,41.2,138.2,55,135.7,63.5 M39.7,95.5
	c8.6-4.1,12.7-17.1,14-26h1c1,4.3,3.7,15.4,9.1,16.1c6.8,0.9,10.4-14.3,10.9-19.1h1c2.2,7.5,4.5,17.3,12,21
	c2.8-11.7-0.5-24.1-4.8-35c-1.1-2.8-3.3-10.4-7.2-10.4c-6.3,0-9.9,16.7-11,21.4h-1l-8-24C41.6,46.2,34,82,39.7,95.5 M24.7,107.5
	c10.4,45.6,58.6,71.4,102,52.1c15.8-7,28.3-19.5,35.5-35.1c1.9-4,5.5-11.4,3.4-16.7c-2.1-5.3-22.8,3.4-27.9,5.6
	c-0.7,0.3-1.2,1-1.4,1.8c-0.3,2.2,1.2,4.3,3.4,4.6c0.1,0,0.2,0,0.3,0l8.7,0.7c-15.7,30.4-58.1,43.8-88,19.5
	C54,134.6,48,128.2,44,120.5c-1.9-3.7-3.7-8.4-7-11C33.8,107.1,29,106.3,24.7,107.5L24.7,107.5z"/>
</svg>
