<?xml version="1.0" encoding="utf-8"?>
<!-- Generator: Adobe Illustrator 27.7.0, SVG Export Plug-In . SVG Version: 6.00 Build 0)  -->
<svg version="1.1" id="Layer_1" xmlns="http://www.w3.org/2000/svg" xmlns:xlink="http://www.w3.org/1999/xlink" x="0px" y="0px"
	 viewBox="0 0 500 500" style="enable-background:new 0 0 500 500;" xml:space="preserve">
<style type="text/css">
	.st0{fill-rule:evenodd;clip-rule:evenodd;fill:#00455F;}
	.st1{fill:#F46060;}
	.st2{fill:url(#Path_00000098909526282648909000000006460730627545771420_);}
	.st3{fill:url(#Path_00000157283357257701402960000005204928292804161940_);}
	.st4{fill:#199B57;}
	.st5{fill:#61D1C9;}
</style>
<circle id="Oval" class="st0" cx="250" cy="250" r="250"/>
<path id="Path" class="st1" d="M309.6,211.7c24.8,0,44.8-20.3,44.8-45.3c0-25-20.1-45.3-44.8-45.3s-44.8,20.3-44.8,45.3
	C264.7,191.4,284.8,211.7,309.6,211.7z"/>
<linearGradient id="Path_00000155856592948197286230000004980729604604783241_" gradientUnits="userSpaceOnUse" x1="-44.729" y1="666.7911" x2="-45.9762" y2="668.6596" gradientTransform="matrix(131.5524 0 0 -100.3953 6177.9634 67245.8125)">
	<stop  offset="0" style="stop-color:#004560"/>
	<stop  offset="1" style="stop-color:#61D1C9"/>
</linearGradient>
<path id="Path_00000123417310318830855780000009983728863094976650_" style="fill:url(#Path_00000155856592948197286230000004980729604604783241_);" d="
	M336.6,179.1c-16.8-4.9-34.5-5.4-51.6-1.6c-17.1,3.8-32.9,11.9-46.1,23.5c-1.3,1.1-3,1.8-4.8,2c-1.7,0.1-3.5-0.3-5-1.2
	c-5.9-3.8-12.3-6.7-19-8.6c-1.6-0.4-3-1.3-4.1-2.6c-1.1-1.2-1.8-2.8-2-4.4c-2-12.7-7.1-24.6-14.9-34.8c-7.8-10.1-18-18.1-29.7-23.1
	c-11.7-5-24.4-6.9-37.1-5.6c-12.6,1.4-24.7,5.9-35.1,13.3c-2.4,1.7-4.1,4.2-4.8,7c-0.8,2.8-0.6,5.8,0.6,8.5L152,314.1
	c4.3,2.9,9.4,4.4,14.5,4.3c5.2-0.1,10.2-1.7,14.4-4.7l146.9-103.4c4.6-3.3,8.1-8,9.8-13.4c1.7-5.4,1.7-11.3-0.2-16.7L336.6,179.1z"
	/>
<linearGradient id="Path_00000091725971335146683980000014906355815045866401_" gradientUnits="userSpaceOnUse" x1="-45.2445" y1="668.6766" x2="-44.5564" y2="667.9503" gradientTransform="matrix(135.3607 0 0 -148.2751 6392.5923 99368)">
	<stop  offset="0" style="stop-color:#43D16A"/>
	<stop  offset="1" style="stop-color:#25B7B0"/>
</linearGradient>
<path id="Path_00000152953990938370517460000015180283517236192404_" style="fill:url(#Path_00000091725971335146683980000014906355815045866401_);" d="
	M320.8,362.6L415,140.3c0.8-1.9,1.1-4,0.9-6.1c-0.2-2.1-0.9-4.1-2-5.8c-1.1-1.8-2.7-3.2-4.5-4.2c-1.8-1-3.8-1.6-5.9-1.6
	c-19,0-37.5,6.1-52.8,17.4c-15.3,11.3-26.7,27.2-32.6,45.5c-1.2,3.7-3.2,7-5.9,9.8c-2.7,2.7-6,4.8-9.7,6
	c-8.2,2.8-15.8,7.3-22.1,13.3c-6.3,6-11.3,13.3-14.6,21.5c-2,5.1-5.5,9.3-10.1,12.1c-4.6,2.8-10,4-15.3,3.5c-3-0.3-6-0.5-9-0.5
	c-18.4,0-36.3,6.3-50.8,17.8c-14.5,11.5-24.7,27.6-29.1,45.7l20.5,48.3C200.1,428.6,292.8,428.6,320.8,362.6z"/>
<path id="Path_00000087385226925293255720000017890418041342979767_" class="st4" d="M317.2,280.1c12.4,0,22.4-10.1,22.4-22.7
	c0-12.5-10-22.7-22.4-22.7c-12.4,0-22.4,10.1-22.4,22.7C294.8,270,304.8,280.1,317.2,280.1z"/>
<path id="Path_00000157291368342677010190000005611536462698217133_" class="st4" d="M283.8,364.2c8.3,0,14.9-6.8,14.9-15.1
	c0-8.3-6.7-15.1-14.9-15.1s-14.9,6.8-14.9,15.1C268.9,357.4,275.6,364.2,283.8,364.2z"/>
<path id="Path_00000034812389639725055540000001068761073755738757_" class="st5" d="M185.2,234.6c6.2,0,11.2-5.1,11.2-11.3
	c0-6.3-5-11.3-11.2-11.3c-6.2,0-11.2,5.1-11.2,11.3C174,229.6,179,234.6,185.2,234.6z"/>
<path id="Path_00000083054063497084733320000002792175243553390223_" class="st5" d="M148.5,191.5c10.4-4.6,15.1-16.9,10.5-27.4
	c-4.6-10.5-16.7-15.3-27.1-10.7c-10.4,4.6-15.1,16.9-10.5,27.4C126,191.3,138.1,196.1,148.5,191.5z"/>
<path id="Path_00000173841952991116641070000016371728273694207104_" class="st4" d="M259,292.8c0.8,1.6,1.3,3.3,1.4,5
	c0.1,1.8-0.1,3.5-0.6,5.2c-0.5,1.7-1.4,3.2-2.6,4.6c-1.1,1.3-2.5,2.4-4.1,3.2c-14.1,7.2-25.8,18.3-34,32c-0.9,1.6-2,3-3.4,4.1
	c-1.4,1.1-3,2-4.8,2.4c-1.7,0.5-3.5,0.6-5.3,0.4c-1.8-0.2-3.5-0.9-5-1.8c-1.5-0.9-2.9-2.2-3.9-3.7c-1.1-1.5-1.8-3.1-2.2-4.9
	c-0.4-1.8-0.4-3.6-0.1-5.4c0.3-1.8,1-3.5,2-5c10.7-18.1,26.3-32.7,45-42.1c3.1-1.5,6.7-1.8,10-0.7
	C254.6,287.3,257.4,289.7,259,292.8z"/>
</svg>
