<?xml version="1.0" encoding="utf-8"?>
<!-- Generator: Adobe Illustrator 27.7.0, SVG Export Plug-In . SVG Version: 6.00 Build 0)  -->
<svg version="1.1" id="Layer_1" xmlns="http://www.w3.org/2000/svg" xmlns:xlink="http://www.w3.org/1999/xlink" x="0px" y="0px"
	 viewBox="0 0 500 500" style="enable-background:new 0 0 500 500;" xml:space="preserve">
<style type="text/css">
	.st0{fill:#02E2AC;}
	.st1{fill-rule:evenodd;clip-rule:evenodd;fill:#0E0333;}
</style>
<circle class="st0" cx="250" cy="250" r="250"/>
<path class="st1" d="M316.1,211c10.3,14.4,15.9,32,15.7,49.6c0,17.4-5.6,34.8-15.7,48.9l21.5,16.4c13.7-18.9,21.2-41.8,21.2-65.1
	c0.1-24.6-7.9-48.8-22.8-68.2l-12.3,11.1L316.1,211z"/>
<path class="st1" d="M356.7,336.5l-72.2-54.9c5.2-6.8,8.1-15,8.5-23.6c0.3-8.5-1.9-16.9-6.5-24.2l34.6-31.2l36.2-33.9
	c2.4-2.2,2.5-6,0.1-8.4l-5-5c-25.8-26.1-60.5-41.2-97-42.4l0.1-19.9c0.1-1.3,0-2.7-0.3-4c-0.4-1.3-1-2.5-1.9-3.5
	c-0.9-1-1.9-1.8-3.2-2.4c-1.2-0.6-2.5-0.9-3.8-0.9s-2.6,0.3-3.8,0.9c-1.2,0.6-2.4,1.3-3.2,2.4s-1.6,2.2-1.9,3.4
	c-0.4,1.3-0.6,2.7-0.3,4l-0.1,20.5c-8.7,0.9-17.4,2.5-25.7,5l0.1-25.5c0.1-1.3,0-2.7-0.3-4c-0.4-1.3-1-2.5-1.9-3.5s-1.9-1.8-3.2-2.4
	c-1.2-0.6-2.5-0.9-3.8-0.9s-2.6,0.3-3.8,0.9c-1.2,0.6-2.4,1.3-3.2,2.4c-0.9,1-1.6,2.2-1.9,3.4c-0.4,1.3-0.6,2.7-0.3,4l-0.4,32.6
	c-29.7,13.3-54.1,36.4-69,65.4c-14.9,29-19.6,62.3-13.1,94.3c6.5,32,23.7,60.8,48.7,81.8s56.5,32.7,89,33.3l105.2,0.4
	c3.2,0,5.9-2.7,5.9-5.9v-53.2C359.1,339.4,358.2,337.6,356.7,336.5z M250,374.3c-25.9-0.1-51.1-8.8-71.5-24.6
	c-20.5-15.9-35.2-38.2-41.8-63.2c-6.6-25-4.7-51.7,5.1-75.6c10-23.9,27.5-43.9,50-56.9l-0.1,38.7c-0.1,1.3,0,2.7,0.3,4
	c0.4,1.3,1,2.5,1.9,3.5s1.9,1.8,3.2,2.4c1.2,0.6,2.5,0.9,3.8,0.9s2.6-0.3,3.8-0.9c1.2-0.6,2.4-1.3,3.2-2.4s1.6-2.2,1.9-3.4
	c0.4-1.3,0.6-2.7,0.3-4l0.1-47.6c12.9-4.7,26.6-6.9,40.5-6.9c25.5,0,50.2,8.4,70.3,23.7c1.5,1.2,1.6,3.2,0.3,4.6l-55,50.5
	c-5-2.1-10.4-3.2-15.9-3.2c-6,0-12.1,1.2-17.7,3.7c-5.6,2.5-10.4,6.2-14.4,10.8c-4,4.6-6.9,10-8.7,15.8c-1.8,5.9-2.2,11.9-1.3,18
	c0.9,6,2.9,11.8,6.2,16.9c3.2,5.2,7.7,9.4,12.7,12.8c5.1,3.2,10.9,5.5,16.9,6.3c6,0.9,12.2,0.4,18-1.3l70.3,53.5
	c0.7,0.6,1.2,1.5,1.2,2.4l-0.1,18.9c0,1.6-1.3,2.9-2.9,2.9L250,374.3z M267.3,256.5c0,3.2-1,6.5-2.8,9.3c-1.9,2.8-4.4,4.9-7.5,6.2
	c-3.1,1.3-6.5,1.6-9.6,0.9c-3.1-0.7-6.2-2.2-8.5-4.6c-2.4-2.4-4-5.3-4.6-8.5c-0.6-3.2-0.3-6.6,1-9.6c1.3-3.1,3.4-5.6,6.2-7.5
	c2.8-1.8,6-2.8,9.3-2.8c4.4,0,8.7,1.8,11.8,5C265.5,247.8,267.3,251.9,267.3,256.5z"/>
</svg>
