<?xml version="1.0" encoding="utf-8"?>
<!-- Generator: Adobe Illustrator 27.7.0, SVG Export Plug-In . SVG Version: 6.00 Build 0)  -->
<svg version="1.1" id="Layer_1" xmlns="http://www.w3.org/2000/svg" xmlns:xlink="http://www.w3.org/1999/xlink" x="0px" y="0px"
	 viewBox="0 0 500 500" style="enable-background:new 0 0 500 500;" xml:space="preserve">
<style type="text/css">
	.st0{fill:#005BAC;}
	.st1{fill:#FFFFFF;}
</style>
<circle class="st0" cx="250" cy="250" r="250"/>
<path class="st1" d="M410.9,238.3v-0.1c0-0.7-0.6-0.9-1.2-0.9H250.1c-8.6,0-15.4,6.9-15.4,15.3c0,8.3,6.8,15.1,15.4,15.1h94.9
	c-11.4,29.9-49.6,51.9-94.9,51.9c-54.4,0-98.5-31.5-98.5-70.2s44.1-70.2,98.5-70.2c29.6,0,56.2,9.4,74.2,24.3l0.1,0.1
	c0.2,0.1,0.5,0.1,0.8,0.1h65.2c0.7,0,1.1-0.5,1.1-1.1c0-0.3,0-0.7-0.2-0.8v-0.1c-28-29.5-80.7-49.6-141.1-49.6
	c-89.6,0-162,43.6-162,97.3s72.4,97.4,162,97.4S412,303.3,412,249.5C412,245.6,411.6,241.9,410.9,238.3L410.9,238.3z"/>
</svg>
