<?xml version="1.0" encoding="utf-8"?>
<!-- Generator: Adobe Illustrator 26.0.1, SVG Export Plug-In . SVG Version: 6.00 Build 0)  -->
<svg version="1.1" id="Layer_1" xmlns="http://www.w3.org/2000/svg" xmlns:xlink="http://www.w3.org/1999/xlink" x="0px" y="0px"
	 viewBox="0 0 854 854" style="enable-background:new 0 0 854 854;" xml:space="preserve">
<style type="text/css">
	.st0{fill:#3EF2D0;}
</style>
<path class="st0" d="M797.1,0v170.8h-56.9V0h-56.9v170.8h-56.9V0h-56.9v170.8H284.7V0h-56.9v170.8v56.9h569.3v56.9h-56.9h-56.9
	H170.8V0h-56.9v284.7H56.9V0H0v284.7v56.9v284.7h56.9V455.5h56.9v170.8h56.9V455.5h56.9v170.8h56.9V455.5h284.7v170.8h56.9V455.5
	v-56.9H170.8h-56.9H56.9v-56.9h56.9h56.9h512.4v284.7h56.9V341.6h56.9v284.7H854V341.6v-56.9v-56.9v-56.9V0H797.1z"/>
<path class="st0" d="M97.6,764.5v32.5H24.4v-32.5H0V854h24.4v-32.5h73.2V854H122v-89.5H97.6z"/>
<path class="st0" d="M561.2,821.5h-24.4V854h24.4V821.5z"/>
<path class="st0" d="M561.2,764.5h-24.4v32.5h-73.2v-32.5h-24.4V854h24.4v-32.5h73.2l24.4-24.4V764.5z"/>
<path class="st0" d="M252.1,764.5H146.4V854h24.4v-32.5H244V854h24.4v-89.5H252.1L252.1,764.5z M170.8,797.1v-8.1H244v8.1H170.8
	L170.8,797.1z"/>
<path class="st0" d="M414.8,788.9v-24.4h-97.6h-8.1h-16.3V854h16.3h8.1h97.6v-24.4h-97.6v-40.7H414.8z"/>
<path class="st0" d="M707.6,788.9v-24.4H610h-8.1h-16.3V854h16.3h8.1h97.6v-24.4H610v-8.1h97.6v-24.4H610v-8.1H707.6z"/>
<path class="st0" d="M829.6,764.5v56.9l-73.2-56.9H732V854h24.4v-56.9l73.2,56.9H854v-89.5H829.6z"/>
</svg>
