<?xml version="1.0" encoding="utf-8"?>
<!-- Generator: Adobe Illustrator 27.7.0, SVG Export Plug-In . SVG Version: 6.00 Build 0)  -->
<svg version="1.1" id="Layer_1" xmlns="http://www.w3.org/2000/svg" xmlns:xlink="http://www.w3.org/1999/xlink" x="0px" y="0px"
	 viewBox="0 0 500 500" style="enable-background:new 0 0 500 500;" xml:space="preserve">
<style type="text/css">
	.st0{fill:#36CCCC;}
</style>
<path id="Shape" d="M250,500C112.2,500,0,387.9,0,250S112.2,0,250,0s250,112.2,250,250S387.8,500,250,500z M250,19
	C122.6,19,19,122.6,19,250s103.6,231,231,231s231-103.6,231-231S377.4,19,250,19L250,19z"/>
<polygon id="Path" points="217.3,249.1 217.3,238.4 217.3,161.9 230.9,147.2 230.9,145.6 175.5,145.6 175.5,147.2 188.9,161.9 
	188.9,330.1 175.5,344.6 175.5,346.2 230.9,346.2 230.9,344.6 217.3,330.1 "/>
<path id="Path_00000028296560693205765450000007402069156602434983_" class="st0" d="M100.3,294.8c-0.4,0-0.8-0.2-1.1-0.4
	c-0.3-0.3-0.6-0.7-0.8-1.1c-0.2-0.4-0.3-0.9-0.2-1.3c-0.1-2.4,0.7-4.7,1.3-7c0.5-2.3,0.7-5-0.7-6.9c-0.5-0.7-1.1-1.2-1.5-1.9
	c-4.2-6.2,10.7-16.9,14.5-20.5c6.7-6.4,13.6-12.6,20.8-18.5c10.6-8.7,22-17.8,34.8-23c11-4.5,23-2.3,30.5,5.8
	c7.5,8,8.6,19.7,3.2,30.7c-3.2,6.5-5.2,11.3-5.9,14.3c-0.1,0.4-0.1,0.8,0,1.2c0.1,0.4,0.4,0.7,0.7,0.9c0.5,0.2,1.9-0.3,3.6-2.3
	c1.1-1.2,2.2-2.5,3.4-3.9c6-6.9,13.5-15.4,22-21.2c8.5-5.8,17.9-6.7,25.2-2.5c5,2.9,10.7,9.2,10.7,22.4
	c28.3-25.2,59.7-23.5,87.6-21.9c13.1,0.7,26.4,1.5,39.5-0.5c3.8-0.6,7.6-1.3,11.3-2.2c1.8-0.4,3.9-0.7,5.1,0.5
	c1.5,1.5,0.7,4-0.6,5.6c-1.3,1.6-3,3-3.7,5c-0.6,2,0,4-0.3,6c-0.2,1.1-0.6,2.2-1.3,3.2s-1.5,1.8-2.4,2.4c-5.8,3.8-16.3,2.9-22.9,3.1
	c-8.7,0.2-17.3-0.2-26-0.7c-27.6-1.5-51.5-2.9-73.4,18.2c-6.9,6.6-16.1,8.4-23.9,4.6c-3.8-1.9-6.9-4.8-9-8.5
	c-2.1-3.7-3-7.9-2.6-12.1c0.1-1.5,0.1-3,0-4.5c-0.2,0.1-0.5,0.3-0.7,0.5c-6.2,4.2-12.4,11.2-17.8,17.4c-1.2,1.5-2.5,2.8-3.6,4.1
	c-8.6,9.5-20.5,12.4-30.5,7.2c-4.7-2.5-8.5-6.5-10.8-11.3c-2.2-4.9-2.8-10.3-1.6-15.5c1.5-6.4,5.1-14.2,7.7-19.4
	c1.2-2.5,1.4-4.5,0.5-5.5s-2.9-1.4-5.5-0.3c-11,4.5-20.9,13-29.9,20.5c-14.6,12.1-27.3,26.4-42.2,38.1
	C102.7,294.1,101.4,294.9,100.3,294.8z"/>
<polygon id="Path_00000014594376770702003900000012510954622441600902_" points="321.6,147.2 321.6,145.6 266.2,145.6 266.2,147.2 
	279.6,161.9 279.6,238.4 279.6,249.1 279.6,330.1 266.2,344.6 266.2,346.2 321.6,346.2 321.6,344.6 308.2,330.1 308.2,161.9 "/>
</svg>
