<?xml version="1.0" encoding="utf-8"?>
<!-- Generator: Adobe Illustrator 27.7.0, SVG Export Plug-In . SVG Version: 6.00 Build 0)  -->
<svg version="1.1" id="_레이어_1" xmlns="http://www.w3.org/2000/svg" xmlns:xlink="http://www.w3.org/1999/xlink" x="0px"
	 y="0px" viewBox="0 0 500 500" style="enable-background:new 0 0 500 500;" xml:space="preserve">
<style type="text/css">
	.st0{fill:#FFFFFF;}
	.st1{fill:#2898C4;}
	.st2{fill:#6FBEE1;}
	.st3{fill:#79C1DF;}
	.st4{fill:#31AFDD;}
	.st5{fill:#1192C3;}
	.st6{fill:#1F9FD0;}
	.st7{fill:#34AFDD;}
	.st8{fill:#94CEE4;}
	.st9{fill:#4DB4DD;}
	.st10{fill:#23A1D3;}
	.st11{fill:#4FB5DD;}
	.st12{fill:#1EA1D2;}
	.st13{fill:#1BA3D1;}
	.st14{fill:#D2EBF5;}
</style>
<circle class="st0" cx="250" cy="250" r="250"/>
<path class="st1" d="M250,15.4c31.7,0,62.4,6.2,91.3,18.4c27.9,11.8,53,28.7,74.6,50.3c21.5,21.5,38.5,46.6,50.3,74.6
	c12.2,28.9,18.4,59.6,18.4,91.3s-6.2,62.4-18.4,91.3c-11.8,27.9-28.7,53-50.3,74.6c-21.5,21.5-46.6,38.5-74.6,50.3
	c-28.9,12.2-59.6,18.4-91.3,18.4s-62.4-6.2-91.3-18.4c-27.9-11.8-53-28.7-74.6-50.3c-21.5-21.5-38.5-46.6-50.3-74.6
	c-12.2-28.9-18.4-59.6-18.4-91.3s6.2-62.4,18.4-91.3c11.8-27.9,28.7-53,50.3-74.6s46.6-38.5,74.6-50.3
	C187.6,21.6,218.3,15.4,250,15.4 M250,0C111.9,0,0,111.9,0,250s111.9,250,250,250s250-111.9,250-250S388.1,0,250,0L250,0L250,0z"/>
<path class="st1" d="M250,15.4c31.7,0,62.4,6.2,91.3,18.4c27.9,11.8,53,28.7,74.6,50.3c21.5,21.5,38.5,46.6,50.3,74.6
	c12.2,28.9,18.4,59.6,18.4,91.3s-6.2,62.4-18.4,91.3c-11.8,27.9-28.7,53-50.3,74.6c-21.5,21.5-46.6,38.5-74.6,50.3
	c-28.9,12.2-59.6,18.4-91.3,18.4s-62.4-6.2-91.3-18.4c-27.9-11.8-53-28.7-74.6-50.3c-21.5-21.5-38.5-46.6-50.3-74.6
	c-12.2-28.9-18.4-59.6-18.4-91.3s6.2-62.4,18.4-91.3c11.8-27.9,28.7-53,50.3-74.6s46.6-38.5,74.6-50.3
	C187.6,21.6,218.3,15.4,250,15.4 M250,0C111.9,0,0,111.9,0,250s111.9,250,250,250s250-111.9,250-250S388.1,0,250,0L250,0L250,0z"/>
<path class="st1" d="M250,15.4c31.7,0,62.4,6.2,91.3,18.4c27.9,11.8,53,28.7,74.6,50.3c21.5,21.5,38.5,46.6,50.3,74.6
	c12.2,28.9,18.4,59.6,18.4,91.3s-6.2,62.4-18.4,91.3c-11.8,27.9-28.7,53-50.3,74.6c-21.5,21.5-46.6,38.5-74.6,50.3
	c-28.9,12.2-59.6,18.4-91.3,18.4s-62.4-6.2-91.3-18.4c-27.9-11.8-53-28.7-74.6-50.3c-21.5-21.5-38.5-46.6-50.3-74.6
	c-12.2-28.9-18.4-59.6-18.4-91.3s6.2-62.4,18.4-91.3c11.8-27.9,28.7-53,50.3-74.6s46.6-38.5,74.6-50.3
	C187.6,21.6,218.3,15.4,250,15.4 M250,0C111.9,0,0,111.9,0,250s111.9,250,250,250s250-111.9,250-250S388.1,0,250,0L250,0L250,0z"/>
<path class="st1" d="M250,15.4c31.7,0,62.4,6.2,91.3,18.4c27.9,11.8,53,28.7,74.6,50.3c21.5,21.5,38.5,46.6,50.3,74.6
	c12.2,28.9,18.4,59.6,18.4,91.3s-6.2,62.4-18.4,91.3c-11.8,27.9-28.7,53-50.3,74.6c-21.5,21.5-46.6,38.5-74.6,50.3
	c-28.9,12.2-59.6,18.4-91.3,18.4s-62.4-6.2-91.3-18.4c-27.9-11.8-53-28.7-74.6-50.3c-21.5-21.5-38.5-46.6-50.3-74.6
	c-12.2-28.9-18.4-59.6-18.4-91.3s6.2-62.4,18.4-91.3c11.8-27.9,28.7-53,50.3-74.6s46.6-38.5,74.6-50.3
	C187.6,21.6,218.3,15.4,250,15.4 M250,0C111.9,0,0,111.9,0,250s111.9,250,250,250s250-111.9,250-250S388.1,0,250,0L250,0L250,0z"/>
<path class="st1" d="M250,44c27.8,0,54.8,5.4,80.2,16.2c24.5,10.4,46.6,25.2,65.5,44.2c18.9,18.9,33.8,41,44.2,65.5
	c10.7,25.4,16.2,52.4,16.2,80.2s-5.4,54.8-16.2,80.2c-10.4,24.5-25.2,46.6-44.2,65.5c-18.9,18.9-41,33.8-65.5,44.2
	C304.8,450.6,277.8,456,250,456s-54.8-5.4-80.2-16.2c-24.5-10.4-46.6-25.2-65.5-44.2s-33.8-41-44.2-65.5C49.4,304.8,44,277.8,44,250
	s5.4-54.8,16.2-80.2c10.4-24.5,25.2-46.6,44.2-65.5s41-33.8,65.5-44.2C195.2,49.4,222.2,44,250,44 M250,28.6
	C127.7,28.6,28.6,127.7,28.6,250S127.7,471.4,250,471.4S471.4,372.3,471.4,250S372.3,28.6,250,28.6L250,28.6L250,28.6z"/>
<path class="st1" d="M250,44c27.8,0,54.8,5.4,80.2,16.2c24.5,10.4,46.6,25.2,65.5,44.2c18.9,18.9,33.8,41,44.2,65.5
	c10.7,25.4,16.2,52.4,16.2,80.2s-5.4,54.8-16.2,80.2c-10.4,24.5-25.2,46.6-44.2,65.5c-18.9,18.9-41,33.8-65.5,44.2
	C304.8,450.6,277.8,456,250,456s-54.8-5.4-80.2-16.2c-24.5-10.4-46.6-25.2-65.5-44.2s-33.8-41-44.2-65.5C49.4,304.8,44,277.8,44,250
	s5.4-54.8,16.2-80.2c10.4-24.5,25.2-46.6,44.2-65.5s41-33.8,65.5-44.2C195.2,49.4,222.2,44,250,44 M250,28.6
	C127.7,28.6,28.6,127.7,28.6,250S127.7,471.4,250,471.4S471.4,372.3,471.4,250S372.3,28.6,250,28.6L250,28.6L250,28.6z"/>
<polygon class="st2" points="133.8,90.9 211.3,135.8 133.8,182.5 "/>
<polygon class="st3" points="288.7,89.2 366.2,134.1 288.7,180.8 "/>
<polygon class="st2" points="133.8,182.6 211.3,227.5 133.8,274.3 "/>
<polygon class="st4" points="288.7,180.8 366.2,225.8 288.7,272.5 "/>
<polygon class="st5" points="288.7,272.4 366.2,317.3 288.7,364 "/>
<polygon class="st6" points="211.3,227.5 288.7,272.5 211.3,319.2 "/>
<polygon class="st7" points="133.8,274 211.3,318.9 133.8,365.6 "/>
<polygon class="st8" points="211.3,227.5 133.8,182.5 211.3,135.8 "/>
<polygon class="st9" points="366.2,225.8 288.7,180.8 366.2,134.1 "/>
<polygon class="st10" points="366.2,317.5 288.7,272.5 366.2,225.8 "/>
<polygon class="st11" points="288.7,272.5 211.3,227.6 288.7,180.8 "/>
<polygon class="st9" points="211.3,319.2 133.8,274.2 211.3,227.5 "/>
<polygon class="st12" points="211.3,410.5 133.8,365.5 211.3,318.8 "/>
<polygon class="st13" points="366.2,409.2 288.7,364.3 366.2,317.5 "/>
<path class="st14" d="M300.3,364c-0.3,0-0.6,0-0.9,0c-7.7-0.1-14.7-2.3-21-6.4c-6.2-4.1-11.2-9.5-14.8-16.2
	c-3.6-6.7-5.4-14.2-5.2-22.2c0.1-6.1,1.3-11.8,3.6-17.1c2.3-5.2,5.4-9.9,9.2-13.8c3.9-3.9,8.4-7.1,13.5-9.2c1.7-0.7,3.5-1.4,5.4-1.8
	l1.5-64.4c0-1.1,0.9-1.9,1.9-1.9c0,0,36.9,0.9,36.9,0.9c6.3,0.1,12.1,1.9,17.1,5.1c5,3.2,9,7.5,11.9,12.8c2.9,5.3,4.3,11.3,4.1,17.7
	c-0.1,6.5-1.8,12.5-5,17.7c-3.2,5.2-7.4,9.3-12.6,12.2c-5,2.8-10.4,4.2-16.3,4.2l0,0c-0.3,0-0.6,0-0.8,0l-8.4-0.2
	c4.3,2.5,8.1,5.8,11.3,9.7c3.6,4.6,6.4,9.9,8.1,15.8c1.7,5.9,2.3,12.3,1.7,19c-0.1,1-0.9,1.8-1.9,1.8c0,0-48.2-0.9-48.2-0.9
	c-0.3,0-0.7-0.1-1-0.3c-0.3-0.1-0.6-0.3-0.9-0.5c-0.4-0.4-0.6-0.9-0.5-1.4l0.7-30.1c-0.1,0.1-0.2,0.1-0.3,0.2
	c-3.5,1.9-6.4,4.6-8.7,8c-2.3,3.4-3.8,7.3-4.4,11.5c-0.3,1.6-0.4,3.3-0.5,5.1c-0.1,7.4,2.1,14.3,5.8,18c0.1,0.1,0.1,0.1,0.2,0.2
	c1.9,2.4,4.2,4.5,6.8,6c3.3,2,7.1,3,11.2,3.2c0.1,0,0.3,0,0.5,0c4.2,0,8.1-1.1,11.5-3.2c3.6-2.2,6.6-5.3,8.9-9.3c0.4-0.6,1-1,1.7-1
	c0.2,0,0.3,0,0.5,0.1l13.6,3.5c0.6,0.1,1,0.5,1.3,1.1c0.2,0.5,0.2,1.1,0,1.7c-3.5,7.3-8.7,13.3-15.5,17.8
	C315.7,361.7,308.3,364,300.3,364L300.3,364z M324.2,312.9c-0.5-3.3-1.7-6.4-3.5-9.3c-2.2-3.5-5.1-6.3-8.5-8.5c-1.6-1-3.2-1.7-5-2.3
	l-0.5,19.7L324.2,312.9L324.2,312.9z M307.6,276.6c3.5,0.6,6.8,1.6,9.9,3.1c0-0.1,0-0.3,0-0.4l0.3-13.4c0-1.1,0.9-1.9,1.9-1.9
	c0,0,8.5,0.2,8.5,0.2c0.2,0,0.3,0,0.5,0c3.1,0,5.9-0.7,8.5-2.2c2.7-1.5,5-3.7,6.6-6.4c1.7-2.7,2.5-5.8,2.6-9.3
	c0.1-3.5-0.7-6.7-2.2-9.5c-1.5-2.8-3.7-5-6.3-6.7c-2.6-1.7-5.6-2.5-8.9-2.6l-20.3-0.5L307.6,276.6L307.6,276.6z"/>
<path class="st1" d="M293.7,212.9l36.8,0.9c6,0.1,11.4,1.7,16.1,4.8c4.7,3,8.5,7.1,11.2,12.1s4,10.6,3.9,16.7
	c-0.1,6.2-1.7,11.8-4.7,16.7c-3,4.9-7,8.7-11.9,11.5c-4.7,2.7-9.8,4-15.3,4c-0.3,0-0.5,0-0.8,0l-9.6-0.2l0.3-13.4l8.4,0.2
	c0.2,0,0.3,0,0.5,0c3.4,0,6.6-0.8,9.5-2.4c3-1.7,5.5-4.1,7.3-7.1c1.9-3,2.8-6.4,2.9-10.3c0.1-3.9-0.7-7.4-2.4-10.5
	c-1.7-3.1-4-5.6-7-7.4c-3-1.9-6.2-2.8-9.9-2.9l-22.3-0.5l-0.9,38.9l0,1.7l-0.3,12.7c4.3,0.5,8.3,1.8,12,3.6c5,2.5,9.2,6,12.7,10.3
	c3.5,4.4,6.1,9.4,7.8,15.2c1.7,5.7,2.2,11.8,1.6,18.3l-21.3-0.4l-10.5-0.2l-7.1-0.1l0,0l-9.3-0.2v-0.2l-0.5,0l0.8-33.1
	c-1.1,0.4-2.2,0.9-3.3,1.5c-3.8,2.1-6.9,5-9.4,8.6c-2.5,3.6-4.1,7.8-4.7,12.3c-0.3,1.7-0.4,3.5-0.5,5.4c-0.2,8.2,2.4,15.4,6.4,19.4
	c2,2.6,4.5,4.8,7.3,6.5c3.6,2.1,7.6,3.3,12.1,3.4c0.2,0,0.4,0,0.5,0c4.6,0,8.8-1.2,12.5-3.5c3.9-2.4,7.1-5.7,9.6-10l13.6,3.5
	c-3.3,7-8.3,12.7-14.8,17.1c-6.3,4.2-13.3,6.3-20.9,6.3c-0.3,0-0.6,0-0.8,0c-7.3-0.1-14-2.2-19.9-6.1c-6-3.9-10.7-9.1-14.1-15.5
	c-3.5-6.4-5.1-13.5-5-21.2c0.1-5.8,1.3-11.3,3.4-16.3c2.2-5,5.1-9.4,8.8-13.2c3.7-3.8,8-6.7,12.9-8.8c2.1-0.9,4.3-1.6,6.6-2.1
	L293.7,212.9 M326.4,314.9c-0.3-4.5-1.7-8.6-4.1-12.3c-2.4-3.7-5.4-6.8-9.2-9.1c-2.5-1.5-5.1-2.6-7.9-3.1l-0.6,24.1l12.7,0.2l0,0
	l1.2,0L326.4,314.9 M293.7,209c-2.1,0-3.9,1.7-3.9,3.8l-1.5,63c-1.5,0.4-2.9,1-4.3,1.5c-5.3,2.3-10.1,5.5-14.2,9.7
	c-4,4.1-7.3,9-9.6,14.4c-2.4,5.5-3.6,11.5-3.7,17.8c-0.2,8.4,1.7,16.1,5.4,23.1c3.8,7,9,12.7,15.4,16.9c6.6,4.3,14,6.5,22,6.7
	c0.3,0,0.6,0,0.9,0c8.4,0,16.2-2.4,23.1-7c7.1-4.7,12.5-11,16.1-18.6c0.5-1.1,0.5-2.3,0-3.3c-0.5-1.1-1.4-1.8-2.6-2.1l-13.6-3.5
	c-0.3-0.1-0.6-0.1-1-0.1c-1.4,0-2.7,0.7-3.4,1.9c-2.1,3.7-4.9,6.6-8.3,8.6c-3.2,1.9-6.6,2.9-10.5,2.9c-0.1,0-0.3,0-0.4,0
	c-3.8-0.1-7.2-1.1-10.2-2.9c-2.4-1.4-4.5-3.3-6.2-5.6c-0.1-0.1-0.2-0.3-0.3-0.4c-3.4-3.4-5.4-9.7-5.2-16.6c0-1.7,0.2-3.4,0.4-4.8
	c0,0,0-0.1,0-0.1c0.6-4,2-7.5,4.1-10.7c1.5-2.2,3.3-4.1,5.4-5.7l-0.6,26.4c0,1.7,1,3.2,2.6,3.8c0.5,0.3,1.1,0.4,1.7,0.4l9.3,0.2
	l7.1,0.1l10.5,0.2l21.3,0.4c0,0,0.1,0,0.1,0c2,0,3.7-1.5,3.9-3.5c0.6-6.9,0.1-13.6-1.7-19.8c-1.8-6.2-4.7-11.7-8.5-16.5
	c-1.9-2.4-4-4.5-6.3-6.4l1.9,0c0.3,0,0.6,0,0.9,0c6.1,0,11.9-1.5,17.2-4.5c5.5-3.1,10-7.4,13.3-12.9c3.4-5.5,5.2-11.7,5.3-18.6
	c0.2-6.8-1.3-13.1-4.4-18.7c-3-5.6-7.3-10.2-12.5-13.5c-5.3-3.4-11.4-5.2-18.1-5.4L293.7,209C293.7,209,293.7,209,293.7,209
	L293.7,209L293.7,209z M309.5,275l0.2-9.3l0-1.7l0.8-35l18.3,0.4c2.9,0.1,5.5,0.8,7.9,2.3c2.4,1.5,4.3,3.5,5.7,6
	c1.4,2.5,2,5.3,1.9,8.5c-0.1,3.2-0.8,5.9-2.3,8.3c-1.5,2.5-3.5,4.3-5.9,5.7c-2.3,1.3-4.8,1.9-7.6,1.9c-0.1,0-0.3,0-0.4,0l-8.4-0.2
	c0,0-0.1,0-0.1,0c-1,0-2,0.4-2.7,1.1c-0.8,0.7-1.2,1.7-1.2,2.7l-0.3,10.9C313.6,276,311.6,275.4,309.5,275L309.5,275L309.5,275z
	 M308.7,310.7l0.3-14.9c0.7,0.3,1.4,0.7,2.1,1.1c3.2,2,5.9,4.6,7.9,7.8c1.3,2,2.2,4,2.8,6.2l-3.1-0.1l-1.2,0L308.7,310.7
	L308.7,310.7L308.7,310.7z"/>
</svg>
