<?xml version="1.0" encoding="utf-8"?>
<!-- Generator: Adobe Illustrator 26.0.1, SVG Export Plug-In . SVG Version: 6.00 Build 0)  -->
<svg version="1.1" id="Laag_1" xmlns="http://www.w3.org/2000/svg" xmlns:xlink="http://www.w3.org/1999/xlink" x="0px" y="0px"
	 viewBox="0 0 799.7 1080" style="enable-background:new 0 0 799.7 1080;" xml:space="preserve">
<style type="text/css">
	.st0{clip-path:url(#SVGID_00000075860063731885255040000009519549257676131241_);}
	.st1{fill:url(#SVGID_00000003826488318986501160000007598151615191293056_);}
	.st2{clip-path:url(#SVGID_00000116922023857979530830000000347560845386706855_);}
	.st3{fill:url(#SVGID_00000042719840887680577970000010529491435578348416_);}
	.st4{clip-path:url(#SVGID_00000153700424635514068440000015278168232625614778_);}
	.st5{fill:url(#SVGID_00000125576248534607966920000007393108918634685855_);}
	.st6{clip-path:url(#SVGID_00000054980507438554207100000001408147391596102025_);}
	.st7{fill:url(#SVGID_00000164489542839008659430000007082536037028457126_);}
	.st8{clip-path:url(#SVGID_00000003796610244253912460000014803906795128821919_);}
	.st9{fill:url(#SVGID_00000113331614889901112470000005953269993827928225_);}
	.st10{clip-path:url(#SVGID_00000047761707216182731340000011461533204537250960_);}
	.st11{fill:url(#SVGID_00000028298531598042189120000016451996654833845940_);}
</style>
<g>
	<defs>
		<path id="SVGID_1_" d="M396.4,1039.2c-22.1-11.4-45-23.3-67.4-35.7c-47.1-26.2-88.1-53.8-125.4-84.5
			c-46.8-38.5-81.2-79.2-105.1-124.4C82.1,763.4,69.8,729,60.8,689.2c-8-35.7-13.2-73-15.8-114.3c-1.2-19.3-2-39-2.9-60.6L40,467.1
			V166.7c94.3-33.1,188.7-66.4,283.1-99.9l48.2-17.1c8.7-3.1,17.4-6.2,25.9-9.3c1.8-0.6,3.7-0.6,5.4,0.1L477.1,67
			c94.1,33.3,188.2,66.5,282.3,99.6l-2,347.6c-0.9,22.8-1.7,41.9-2.9,60.7c-2.6,41-7.7,78.4-15.8,114.3
			c-8.9,39.8-21.2,74.2-37.7,105.3c-23.9,45.2-58.3,85.9-105.1,124.5c-37.1,30.5-78.1,58.2-125.4,84.5
			c-22.8,12.7-45.9,24.6-66.3,35.2c-1.4,0.8-3,1.2-4.7,1.3C398.5,1040,397.4,1039.7,396.4,1039.2 M399.8,0c-5.5,0-11,0.9-16.1,2.8
			c-8.6,3.1-17.2,6.2-25.8,9.2l-48.1,17C211.1,63.9,112.4,98.7,13.6,133.5L0,138.3V468l2.2,48.1c0.8,21,1.7,41.5,3,61.3
			c2.7,43.2,8.1,82.6,16.6,120.5c9.7,43.3,23.2,81,41.3,115.3c26.4,50,64.1,94.7,115.1,136.6c39.1,32.2,82,61.1,131.3,88.5
			c22.8,12.7,46,24.7,68.5,36.3c6.7,3.4,14.1,5.2,21.6,5.3c8,0,15.9-2,23-5.8c20.8-10.8,44.4-22.9,67.5-35.8
			c49.4-27.5,92.3-56.5,131.3-88.6c51-41.9,88.7-86.6,115.1-136.6c18.1-34.3,31.7-72,41.4-115.3c8.5-38.1,14-77.5,16.7-120.5
			c1.2-19.3,2.1-38.9,3-62.3l2.2-376.8l-13.7-4.8C687.4,99,588.9,64.2,490.5,29.3L416.1,2.8C410.9,0.9,405.4,0,399.8,0z"/>
	</defs>
	<clipPath id="SVGID_00000022533968623775338850000007933518363624440239_">
		<use xlink:href="#SVGID_1_"  style="overflow:visible;"/>
	</clipPath>
	<g style="clip-path:url(#SVGID_00000022533968623775338850000007933518363624440239_);">
		
			<linearGradient id="SVGID_00000028320129924618997320000015437099807225896627_" gradientUnits="userSpaceOnUse" x1="102.0111" y1="-120.2027" x2="103.0111" y2="-120.2027" gradientTransform="matrix(718.3851 -718.3851 718.3851 718.3851 13150.7539 160492.7344)">
			<stop  offset="0" style="stop-color:#8933EF"/>
			<stop  offset="1" style="stop-color:#FF2DBB"/>
		</linearGradient>
		<polygon style="fill:url(#SVGID_00000028320129924618997320000015437099807225896627_);" points="-540,540 399.8,-399.8 
			1339.7,540 399.8,1479.8 		"/>
	</g>
</g>
<g>
	<defs>
		<path id="SVGID_00000109020279021252862290000018427539091053992622_" d="M266.8,336c-0.1,54.9,33.7,104.2,84.9,123.9
			c0.7,0.3,1.5,0.5,2.2,0.8c5.9,2.2,12,4,18.2,5.3l0,0c18.2,4,37,3.9,55.2-0.2L492.7,736H306.9l55.9-231.1
			c-13.1-2.9-25.9-7.4-38-13.2l-61.9,256.3c-3,12.3,4.6,24.6,16.8,27.5c1.8,0.4,3.6,0.6,5.4,0.6h229.5c12.6,0,22.8-10.2,22.8-22.8
			c0-1.8-0.2-3.6-0.6-5.4l-75.7-313l0,0l-5.9-24.4c-11,8.1-23.7,13.8-37.1,16.4c-6,1.3-12,1.9-18.1,2c-51.5,0.2-93.4-41.5-93.6-93
			s41.5-93.4,93-93.6c51.5-0.2,93.4,41.5,93.6,93c0,11.7-2.1,23.3-6.4,34.2l13.1,54.2c48.5-55.1,43.1-139.1-12-187.6
			s-139.1-43.1-187.6,12C278.6,272.4,266.8,303.7,266.8,336"/>
	</defs>
	<clipPath id="SVGID_00000085936594931960722110000017451491775590203832_">
		<use xlink:href="#SVGID_00000109020279021252862290000018427539091053992622_"  style="overflow:visible;"/>
	</clipPath>
	<g style="clip-path:url(#SVGID_00000085936594931960722110000017451491775590203832_);">
		
			<linearGradient id="SVGID_00000082346347322031338530000014683120726886857868_" gradientUnits="userSpaceOnUse" x1="102.0111" y1="-120.2379" x2="103.0111" y2="-120.2379" gradientTransform="matrix(718.3851 -718.3851 718.3851 718.3851 13150.7139 160492.8125)">
			<stop  offset="0" style="stop-color:#8933EF"/>
			<stop  offset="1" style="stop-color:#FF2DBB"/>
		</linearGradient>
		<polygon style="fill:url(#SVGID_00000082346347322031338530000014683120726886857868_);" points="-27.2,489.5 399.8,62.6 
			826.8,489.5 399.8,916.5 		"/>
	</g>
</g>
<g>
	<defs>
		<path id="SVGID_00000168807714420179531800000015750464664801491074_" d="M342.3,120.5l-1,0.4c-80,28.3-162.4,57.5-244.1,86.2
			v221.8h40V235.4c73.1-25.8,146.3-51.7,217.4-76.8l1-0.4l24.1-8.5v-42.4L342.3,120.5z"/>
	</defs>
	<clipPath id="SVGID_00000012462947221932013700000008785498216799247797_">
		<use xlink:href="#SVGID_00000168807714420179531800000015750464664801491074_"  style="overflow:visible;"/>
	</clipPath>
	<g style="clip-path:url(#SVGID_00000012462947221932013700000008785498216799247797_);">
		
			<linearGradient id="SVGID_00000045598554596462634820000004729081677745134497_" gradientUnits="userSpaceOnUse" x1="102.0111" y1="-120.5042" x2="103.0111" y2="-120.5042" gradientTransform="matrix(718.3851 -718.3851 718.3851 718.3851 13150.8135 160492.6094)">
			<stop  offset="0" style="stop-color:#8933EF"/>
			<stop  offset="1" style="stop-color:#FF2DBB"/>
		</linearGradient>
		<polygon style="fill:url(#SVGID_00000045598554596462634820000004729081677745134497_);" points="-63.6,268.1 238.5,-34 
			540.6,268.1 238.5,570.2 		"/>
	</g>
</g>
<g>
	<defs>
		<path id="SVGID_00000174582612562493844140000000006786535788051104_" d="M97.4,469l2,42.7v0.3c0.8,20.9,1.7,40.7,2.8,59.3v0.1
			c2.4,38.2,7.1,72.6,14.5,105.3c7.8,34.8,18.4,64.6,32.5,91.3c20.3,38.4,50,73.4,90.9,107c34.6,28.5,72.8,54.2,116.9,78.7
			c7.5,4.2,15.2,8.3,22.9,12.5v-45.6c-1.2-0.6-2.3-1.3-3.4-1.9c-41.9-23.3-78.2-47.8-110.9-74.7c-36.7-30.2-63.2-61.2-80.9-94.8
			c-12.4-23.5-21.8-50.1-28.8-81.3c-6.9-30.6-11.3-63-13.6-99.1v-0.1c-1.2-18.2-1.9-37.7-2.8-58.4v-0.5l-1.9-40.8H97.4z"/>
	</defs>
	<clipPath id="SVGID_00000033359479811214489220000008219021004950443451_">
		<use xlink:href="#SVGID_00000174582612562493844140000000006786535788051104_"  style="overflow:visible;"/>
	</clipPath>
	<g style="clip-path:url(#SVGID_00000033359479811214489220000008219021004950443451_);">
		
			<linearGradient id="SVGID_00000031174290176541309150000010605064668230296245_" gradientUnits="userSpaceOnUse" x1="102.0111" y1="-120.1914" x2="103.0111" y2="-120.1914" gradientTransform="matrix(718.3851 -718.3851 718.3851 718.3851 13150.7471 160492.7344)">
			<stop  offset="0" style="stop-color:#8933EF"/>
			<stop  offset="1" style="stop-color:#FF2DBB"/>
		</linearGradient>
		<polygon style="fill:url(#SVGID_00000031174290176541309150000010605064668230296245_);" points="-151.2,717.5 238.6,327.7 
			628.4,717.5 238.6,1107.3 		"/>
	</g>
</g>
<g>
	<defs>
		<path id="SVGID_00000091738113444618333000000004295418250409850255_" d="M419.8,149.5l25,8.9l0.2,0.1h0.1
			c77.3,27.3,147.7,52.2,217.1,76.7l-1.1,193.7h40l1.3-222c-77.4-27.2-154.3-54.4-244.1-86.2l0,0l0,0L419.9,107L419.8,149.5z"/>
	</defs>
	<clipPath id="SVGID_00000029031677377590265740000009106018478449673872_">
		<use xlink:href="#SVGID_00000091738113444618333000000004295418250409850255_"  style="overflow:visible;"/>
	</clipPath>
	<g style="clip-path:url(#SVGID_00000029031677377590265740000009106018478449673872_);">
		
			<linearGradient id="SVGID_00000103248077394454783730000000778117678274359994_" gradientUnits="userSpaceOnUse" x1="102.0111" y1="-120.2797" x2="103.0111" y2="-120.2797" gradientTransform="matrix(718.3851 -718.3851 718.3851 718.3851 13150.7422 160492.7031)">
			<stop  offset="0" style="stop-color:#8933EF"/>
			<stop  offset="1" style="stop-color:#FF2DBB"/>
		</linearGradient>
		<polygon style="fill:url(#SVGID_00000103248077394454783730000000778117678274359994_);" points="258.9,268 561.1,-34.2 
			863.3,268 561.1,570.2 		"/>
	</g>
</g>
<g>
	<defs>
		<path id="SVGID_00000152960743096506751040000008901854242073394613_" d="M660.9,469l-0.2,43.2c-0.8,21.3-1.6,39.2-2.7,56.8
			c-2.2,35.8-6.7,68.3-13.6,99.1c-7,31.2-16.4,57.8-28.8,81.2c-17.8,33.6-44.3,64.7-81,94.9c-32.5,26.8-68.8,51.2-110.9,74.7
			l-3.7,2.1v45.5c7.7-4.1,15.5-8.3,23.2-12.6c44.2-24.7,82.5-50.4,116.9-78.7c40.9-33.7,70.7-68.7,91-107.1
			c14.1-26.6,24.7-56.4,32.5-91.1c7.4-32.9,12.1-67.4,14.5-105.4c1.1-18.1,1.9-36.5,2.8-58.4l0.2-44.1H660.9z"/>
	</defs>
	<clipPath id="SVGID_00000081649155789271971840000009304027408372995993_">
		<use xlink:href="#SVGID_00000152960743096506751040000008901854242073394613_"  style="overflow:visible;"/>
	</clipPath>
	<g style="clip-path:url(#SVGID_00000081649155789271971840000009304027408372995993_);">
		
			<linearGradient id="SVGID_00000052071382659092892630000015135903721764265637_" gradientUnits="userSpaceOnUse" x1="102.0111" y1="-119.9673" x2="103.0111" y2="-119.9673" gradientTransform="matrix(718.3851 -718.3851 718.3851 718.3851 13150.6738 160492.7969)">
			<stop  offset="0" style="stop-color:#8933EF"/>
			<stop  offset="1" style="stop-color:#FF2DBB"/>
		</linearGradient>
		<polygon style="fill:url(#SVGID_00000052071382659092892630000015135903721764265637_);" points="171.1,717.6 560.4,328.4 
			949.6,717.6 560.4,1106.9 		"/>
	</g>
</g>
</svg>
