<?xml version="1.0" encoding="utf-8"?>
<!-- Generator: Adobe Illustrator 24.0.0, SVG Export Plug-In . SVG Version: 6.00 Build 0)  -->
<svg version="1.1" id="Layer_1" xmlns="http://www.w3.org/2000/svg" xmlns:xlink="http://www.w3.org/1999/xlink" x="0px" y="0px"
	 viewBox="0 0 218 218" style="enable-background:new 0 0 218 218;" xml:space="preserve">
<style type="text/css">
	.st0{fill:#27282D;}
	.st1{fill-rule:evenodd;clip-rule:evenodd;fill:#FFFFFF;}
</style>
<rect class="st0" width="218" height="218"/>
<path class="st1" d="M131.1,109.6c9.3-2.7,27.3-4.7,27.9,1.3C159,117,141.1,109.6,131.1,109.6z M135.1,123.6
	c14.6-14.7,32.6,0,29.3,14c-0.7,2-6.7-3.3-10-0.7c-7.3,5.3-7.3-4.7-2.7-4.7c-3.3-1.3-5.3,2-6.7,4.7s-4,3.3-6,0
	c-1.3-2.7,1.3-10.7,6-12c-7.3-0.7-12,8-12,14c-6-5.3-6-9.3-5.3-13.3c-4,2-4,12-2.7,16c-4-0.7-7.3-6.7-7.3-12.7
	c-0.7-13.3,12-20.7,24.6-13.3C138.4,117,135.8,121,135.1,123.6z M155.7,164.3c2,0.7,3.3,0.7,4.7,1.3c1.3,12,6,21.3,14,27.3
	c-13.3,0.7-21.9-4.7-25.9-14.7c-2.7,2-4.7,4.7-6,9.3c-18,1.3-29.3-8.7-35.2-28.7c-0.7,10-0.7,18,1.3,23.3c-23.9-10-22.6-36-22.6-48
	c12.6,12,28.6,20.7,38.6,23.3c2,9.3,3.3,13.3,3.3,13.3c4-3.3,5.3-5.3,5.3-5.3c5.3,1.3,10.6,1.3,16,0.7c1.3,3.3,3.3,6,5.3,8
	C154.4,170.3,155.1,167,155.7,164.3z M125.1,153.6c5.3-5.3,16.4-14.3,23.9-12.7c-2,0-4,0.7-4,2c6-1.3,10.6-1.3,13.3,0.7
	c2,1.3,2,4,0,6.7c0.7-1.3,0-2,0-3.3c-0.7,4-4.7,4.7-13.3,2.7c1.3-2,2.7-2,4.7-1.3c-2-2.7-6.6-1.3-14,4.7c0.7-1.3,1.3-2.7,2-3.3
	C134.4,152.3,130.4,153.6,125.1,153.6z M142.4,155.6c0-0.7-1.3-1.3-3.3-2c2.7,0,6,0,8.6,0.7c-2,2-5.3,3.3-9.3,4.7
	C139.8,157.6,141.1,156.3,142.4,155.6z M139.8,163.6c6-2.7,12.6-4,19.9-2c6.7,1.3,6.7-6.7,1.3-6.7
	C155.7,154.3,147.7,156.3,139.8,163.6z M133.8,50.3c4.7,2.7,7.3,6,6,7.3c11.3,8.7,19.9,23.3,19.9,46.7c-40.6-6-52.5-4-83.8-1.3
	c33.9-7.3,61.2-8,75.1-6c0-2,0-4,0-5.3c-12.6-1.3-21.3-1.3-31.3,0.7c10.6-4.7,21.9-6,30.6-6c-2-12.7-6-21.3-12.6-27.3
	c-2,0.7-5.3-0.7-8.6-2c-4.7-2.7-7.3-6-6-7.3C124.5,47,129.1,47.7,133.8,50.3z M121.1,71c3.3,19.5-21.3,22.7-32.6,22
	c4-1.3,7.3-2.7,10-4c-2,0-3.3,0-5.3,0c-14.6-2-27.3-13.3-35.9-25.3c-4.7-6.7-8-14.7-10-23.3c-2-8-2-14-0.7-21.3
	c2.7,7.3,4.7,13.3,9.3,19.3C63.9,49,76.6,55.7,91.2,57C102.2,58,117.8,54.5,121.1,71z M152.4,62.3c10-4,18-10,24.6-20
	c-0.7,11.3-5.3,22-14.6,29.3c-0.7,0.7-2,1.3-2.7,2C157,69,155.7,65.7,152.4,62.3z M69.9,128.3c-11.3,5.3-19.3,22-27.9,30.7
	c10,9.3,24.6,12,37.9,11.3c-2-13.3-2-27.3,0-40c-7.3,6.7-14.6,18.7-14,29.3C62,150.3,64.6,137,69.9,128.3z M93.2,133.6
	c12,13.3,18,9.3,18-12.7c-4.7,6.7-10.6,10.7-18.6,12.7H93.2z M75.9,124.3c14.6,4,29.3-1.3,44.6-14.7c-14-8-31.9-4.7-54.5,10
	c10.6,1.3,21.9-1.3,32.6-8C91.2,119,83.9,123,75.9,124.3z"/>
</svg>
