<?xml version="1.0" encoding="utf-8"?>
<!-- Generator: Adobe Illustrator 27.0.1, SVG Export Plug-In . SVG Version: 6.00 Build 0)  -->
<svg version="1.1" id="hxro" xmlns="http://www.w3.org/2000/svg" xmlns:xlink="http://www.w3.org/1999/xlink" x="0px" y="0px"
	 viewBox="0 0 500 500" style="enable-background:new 0 0 500 500;" xml:space="preserve">
<path d="M130.6,83.8H12.8c-15.6,0-10.7,11.1-3.9,16.3c8.8,6.8,27.8,21.9,34.1,27.6c7.8,7.2,21.4,11.2,24.3,21.5
	c2.9,10.2,9.7,3.1,14.6,14.3c4.9,11.2,12.6,3.1,17.5,8.2c4.9,5.1,5.8,7.2,7.8,23.5c1.9,16.3,15.6,19.4,28.2,16.3
	c12.6-3.1,19.5,9.2,17.5,21.5c-1.9,12.3,8.8,19.4,20.4,16.3c5.7-1.5,16.3-6.1,20.4,3.1c4.1,9.2-2.3,20.8-6.8,23.5
	c-10.7,9.9-34.4,31.3-43.8,37.8c-9.3,6.5-18.5,8.2-12.6,0l16.5-21.5c15.6-17.4,31.9-42.7-22.4,0c-62.3,49-98.2,75.6-118.7,94
	c-19.3,17.4,20.4,2,36.9-5.1c13.2-5.7,12-1,9.7,2c-6.8,4.4-23.3,15.7-35,25.5c-11.7,9.8,1,7.5,8.8,5.1c15.6-6.5,58.8-36.1,55.5-17.4
	c-2.2,12.5,27.2-11.9,30.1-15.3c13.3-11.6,32.9-31.9,55.5-49c22.6-17.2,19.1-2.4,14.6,7.1c-1.3,2.4-6,9.6-14.6,19.4
	c-10.7,12.3-37,32.7-53.5,44.9c-12.4,9.2,2.9,13.5,16.5,2c4.9-4.1,20.4-13.3,63.2-52.1c12.7-11.5,37-35.8,41.8-39.8
	c3.9-3.3,7.5-1.4,8.8,0c31.5,27.9,91.1,79.9,97.3,84.8c9.7,7.7,12.6,12.3,20.4,12.3h128.4c7.8,0,11.7-10.2,4.9-16.3
	c-6.8-6.1-166.4-150.1-171.2-154.2c-3.9-3.3-1.6-6.1,0-7.1c51.9-41.2,158.2-125.4,168.3-132.8c10.1-7.4,5.9-16.3-4.9-16.3h-68.1
	c-9.3,0-16.9,4.8-19.5,7.2c-33.7,30.3-100.6,85.9-103.7,88.3c-3.9,3.1-13,11.8-20.8,4.6c-7.8-7.1-3.9,11.2-8.8,2
	c-4.9-9.2-6.3-14.5-11.2-11.1c-2.9,2-11.1,17.2-14.1-11.4c-2.9-28.6-13.6-17.4-17.5-14.3c-3.9,3.1-9.7,6.1-18.5,0
	c-8.8-6.1-5.8-25.5-8.8-36.8c-2.9-11.2-11.7-12.3-20.4-3.1c-8.8,9.2-14.6,2-26.3-9.2C140.7,91.1,150,83.8,130.6,83.8z"/>
</svg>
