<?xml version="1.0" encoding="utf-8"?>
<!-- Generator: Adobe Illustrator 27.5.0, SVG Export Plug-In . SVG Version: 6.00 Build 0)  -->
<svg version="1.1" id="Layer_1" xmlns="http://www.w3.org/2000/svg" xmlns:xlink="http://www.w3.org/1999/xlink" x="0px" y="0px"
	 viewBox="0 0 500 500" style="enable-background:new 0 0 500 500;" xml:space="preserve">
<style type="text/css">
	.st0{fill:#88B6D0;}
	.st1{opacity:0.25;fill-opacity:0.2;enable-background:new    ;}
	.st2{fill:#F6F9FA;}
	.st3{fill:#F6F9FA;filter:url(#Adobe_OpacityMaskFilter);}
	.st4{mask:url(#mask0_00000021089061079690514840000018108981568232659584_);}
</style>
<path class="st0" d="M276.7,473.2c0,14.8-12,26.8-26.8,26.8c-14.8,0-26.8-12-26.8-26.8V287.6c0-14.8,12-26.8,26.8-26.8
	c14.8,0,26.8,12,26.8,26.8V473.2z"/>
<path class="st1" d="M254.5,261.1c-1.5-0.3-2.8-0.3-4.3-0.3c-14.8,0-26.8,12-26.8,26.8v185.6c0,1.8,0.3,3.7,0.6,5.2
	c28.1-26.8,46.9-75.5,46.9-131.6C270.8,315.1,264.6,285.8,254.5,261.1z"/>
<g>
	<path class="st2" d="M363.6,113.4C363.6,50.9,312.7,0,250.2,0c-61.5,0-111.7,49.1-113.4,110.2c-0.1,2.1-0.2,4.3-0.3,6.5
		c0,1,0,1.9,0,2.9v221c0,29.6,24,53.6,53.6,53.6H310c29.6,0,53.6-24,53.6-53.6v-221c0-0.9,0-1.8,0-3.1
		C363.6,115.6,363.6,114.4,363.6,113.4z"/>
</g>
<defs>
	<filter id="Adobe_OpacityMaskFilter" filterUnits="userSpaceOnUse" x="136.4" y="0" width="227.2" height="394.5">
		<feColorMatrix  type="matrix" values="1 0 0 0 0  0 1 0 0 0  0 0 1 0 0  0 0 0 1 0"/>
	</filter>
</defs>
<mask maskUnits="userSpaceOnUse" x="136.4" y="0" width="227.2" height="394.5" id="mask0_00000021089061079690514840000018108981568232659584_">
	<path class="st3" d="M363.6,113.4C363.6,50.9,312.7,0,250.2,0c-61.5,0-111.7,49.1-113.4,110.2c-0.1,2.1-0.2,4.3-0.3,6.5
		c0,1,0,1.9,0,2.9v221c0,29.6,24,53.6,53.6,53.6H310c29.6,0,53.6-24,53.6-53.6v-221c0-0.9,0-1.8,0-3.1
		C363.6,115.6,363.6,114.4,363.6,113.4z"/>
</mask>
<g class="st4">
	<g>
		<path class="st2" d="M250.2,0c-61.5,0-111.7,49.1-113.4,110.2c-0.1,2.1-0.2,4.3-0.3,6.5c0,1,0,1.9,0,2.9v174.3
			c0,21.6,15.4,41,37,39.9c77.5-3.9,153.3-67.1,187.7-160.9c1.7-4.7,2.5-9.6,2.5-14.6v-38.7c0-0.9,0-1.8,0-3.1c0-1.2,0-2.2,0-3.4
			C363.6,50.6,312.7,0,250.2,0z"/>
	</g>
	<g>
		<path class="st2" d="M250.2,0c-61.5,0-111.7,49.1-113.4,110.2c-0.1,2.1-0.2,4.3-0.3,6.5c0,1,0,1.9,0,2.9v105.3
			c0,22.8,17.1,42.8,39.8,39.7c78.2-10.6,152.5-80.4,181.2-179.6c0.6-3.1,0.8-6.2-0.2-9.2C341.9,31.7,299.6,0,250.2,0z"/>
	</g>
	<g>
		<path class="st2" d="M300.6,115.9c0,48-71.1,91.8-111.1,91.8c-33.8,0-33.8-43.8-33.8-91.8S188.2,29,228.2,29
			S300.6,67.9,300.6,115.9z"/>
	</g>
	<g>
		<path class="st2" d="M233.9,101c-2.2,20.7-15.1,36.1-28.7,34.5c-13.9-1.5-23.1-19.1-21-39.8c2.2-20.7,15.1-36.1,28.7-34.5
			C226.5,62.4,236,80.3,233.9,101z"/>
	</g>
	<g>
		<path class="st2" d="M363.6,113.4C363.6,50.9,312.7,0,250.2,0c-3.1,0-3.4,4.3-0.4,5.3c45.6,14.6,78.7,57.6,78.7,108.2
			c0,1.2,0,2.2,0,3.4c0,0.9,0,1.8,0,3.1v221c0,29.6-24,53.6-53.6,53.6H310c29.6,0,53.6-24,53.6-53.6V119.6c0-0.9,0-1.8,0-3.1
			C363.6,115.6,363.6,114.4,363.6,113.4z"/>
	</g>
</g>
</svg>
