<?xml version="1.0" encoding="utf-8"?>
<!-- Generator: Adobe Illustrator 26.0.1, SVG Export Plug-In . SVG Version: 6.00 Build 0)  -->
<svg version="1.1" id="Layer_1" xmlns="http://www.w3.org/2000/svg" xmlns:xlink="http://www.w3.org/1999/xlink" x="0px" y="0px"
	 viewBox="0 0 331 331" style="enable-background:new 0 0 331 331;" xml:space="preserve">
<g>
	<polygon style="fill-rule:evenodd;clip-rule:evenodd;fill:#662BC9;" points="0,0 331,0 331,331 0,331 0,0 	"/>
	<path style="fill-rule:evenodd;clip-rule:evenodd;fill:#FFFFFF;" d="M74,230.9l3.2,4.1L94.3,257h135.9h6.5l20.3-26.1l-50.8-65.4
		l47.7-61.3l3.2-4.1L236.7,74H94.3l-3.2,4.2l-17.1,22l50.8,65.4L74,230.9L74,230.9z M135.3,217.8c-4.3,0-6.7-4.9-4-8.3l13.9-17.9
		l20.3,26.1H135.3L135.3,217.8z M202.9,161.3l44.4-57.1h-82.3c-2.7,0-4.2,3.1-2.5,5.2l3,3.8h30.2c4.3,0,6.7,4.9,4,8.3l-13.9,17.9
		L202.9,161.3L202.9,161.3z M80.5,100.1l100.1,128.7l0.7,0.9c1.6,2.1,0.1,5.2-2.5,5.2h-3.1h-92l14,18H227L94.3,82.3L80.5,100.1
		L80.5,100.1z"/>
</g>
</svg>
