<?xml version="1.0" encoding="UTF-8" standalone="no"?>
<!-- Generator: Adobe Illustrator 27.6.1, SVG Export Plug-In . SVG Version: 6.00 Build 0)  -->

<svg
   version="1.1"
   id="Layer_1"
   x="0px"
   y="0px"
   viewBox="0 0 390 390"
   xml:space="preserve"
   xmlns="http://www.w3.org/2000/svg"
   xmlns:svg="http://www.w3.org/2000/svg"><defs
   id="defs2" />&#10;<style
   type="text/css"
   id="style1">&#10;	.st0{fill:#4B5CF0;}&#10;	.st1{fill:#FFFFFF;}&#10;</style>&#10;<circle
   class="st0"
   cx="195"
   cy="195"
   r="195"
   id="circle1" />&#10;<path
   class="st1"
   d="m 290.3,99.1 v 191.2 h -41.2 v -99.9 h -33.9 c -4,0 -7.8,1.5 -10.7,4.1 -1.7,1.5 -2.9,3.3 -3.8,5.4 -0.9,2.1 -1.4,4.2 -1.4,6.5 v 23 c 0,6.1 -5,11.3 -11.3,11.3 h -27.2 c -6.1,0 -11.3,-5 -11.3,-11.3 v -27.8 c 0,-6.1 5,-11.3 11.3,-11.3 h 24.6 c 3.3,0 6.5,-1.1 8.9,-3.3 1.5,-1.3 2.8,-2.9 3.7,-4.9 0.9,-1.8 1.3,-3.8 1.3,-5.9 V 140.1 H 99.9 V 99 Z"
   id="path1" />&#10;<path
   class="st1"
   d="m 149.5,265.6 v 0.4 c 0,13.8 -11.1,24.9 -24.9,24.9 -13.8,0 -24.8,-11.1 -24.8,-24.9 v -0.4 c 0,-13.8 11.1,-24.9 24.9,-24.9 6.9,0 13.1,2.8 17.6,7.3 4.5,4.6 7.1,10.7 7.2,17.6 z"
   id="path2" />&#10;</svg>
