<?xml version="1.0" encoding="utf-8"?>
<!-- Generator: Adobe Illustrator 27.5.0, SVG Export Plug-In . SVG Version: 6.00 Build 0)  -->
<svg version="1.1" id="Layer_1" xmlns="http://www.w3.org/2000/svg" xmlns:xlink="http://www.w3.org/1999/xlink" x="0px" y="0px"
	 viewBox="0 0 500 500" style="enable-background:new 0 0 500 500;" xml:space="preserve">
<style type="text/css">
	.st0{fill:#3A456B;}
	.st1{fill:#FFFFFF;}
	.st2{fill:#4DBD97;}
	.st3{opacity:0.46;fill:url(#SVGID_1_);enable-background:new    ;}
	.st4{opacity:0.46;fill:url(#SVGID_00000051373464640092989380000001000544083690620592_);enable-background:new    ;}
	.st5{opacity:0.46;fill:url(#SVGID_00000167387661189920198440000000989986965964866713_);enable-background:new    ;}
	.st6{opacity:0.46;fill:url(#SVGID_00000013875754058590541590000003847276697433657217_);enable-background:new    ;}
</style>
<circle class="st0" cx="250" cy="250" r="250"/>
<path class="st1" d="M223.1,181.5l27.8-27.2l27.6,28.1l39.4,0.4l-0.4,39.3l27.6,28.1L317,277.8c-0.2,15.5,12.2,28.2,27.7,28.4
	c0,0,0,0,0,0l89,0.9c31.5-101.6-25.4-209.4-126.9-240.9c-78.3-24.3-163.4,3.7-212,69.7c-13.5,18.3-0.2,44.3,22.6,44.5L223.1,181.5z"
	/>
<path class="st1" d="M277.1,317l-28.1,27.5l-27.6-28.1l-39.4-0.4l0.4-39.4l-27.6-28.1l28.1-27.6c0.2-15.6-12.4-28.4-28-28.6
	c0,0,0,0,0,0l-88.5-0.9c-6.9,21.7-9.9,44.5-8.8,67.2c4.2,97.2,81.9,176.9,178.9,183.5c66.6,4.7,130.9-25.5,169.8-79.8
	c8.9-12.7,5.9-30.2-6.7-39.1c-4.7-3.3-10.2-5.1-15.9-5.1L277.1,317z"/>
<path class="st2" d="M301.6,229.3l-0.1-0.1l0.3-30.1l-29.9-0.3h-0.1l-21-21.5l-21.4,21l-0.1,0.1l-30.1-0.3l-0.3,29.9v0.2l-21.5,21
	l21,21.4l0.1,0.1l-0.3,30.1l29.9,0.3h0.2l21,21.5l21.4-21l0.1-0.1l30.1,0.3l0.3-29.9v-0.2l21.5-21L301.6,229.3z"/>
<linearGradient id="SVGID_1_" gradientUnits="userSpaceOnUse" x1="6951.3564" y1="-2846.4924" x2="7060.2578" y2="-2846.4924" gradientTransform="matrix(1 9.773688e-03 9.773688e-03 -1 -6727.7744 -2664.8416)">
	<stop  offset="0" style="stop-color:#FFFFFF"/>
	<stop  offset="1" style="stop-color:#FFFFFF;stop-opacity:0"/>
</linearGradient>
<path class="st3" d="M288.7,234.5L288.7,234.5l0.1-22.6l-22.5-0.2l-0.1,0l-15.8-16.1l-16,15.7l-0.1,0.1l-22.5-0.2l-0.2,22.4l0,0.1
	l-16.1,15.8l15.7,16l0.1,0.1l-0.2,22.5l22.4,0.2h0.1l15.8,16.1l16-15.7l0.1-0.1l22.5,0.2l0.2-22.4v-0.1l16.1-15.8L288.7,234.5
	L288.7,234.5z"/>
<linearGradient id="SVGID_00000159461305469791838150000008752326534606783369_" gradientUnits="userSpaceOnUse" x1="6133.7788" y1="-718.5447" x2="6253.5156" y2="-669.5746" gradientTransform="matrix(0.9184 0.3955 0.3955 -0.9184 -5141.3657 -2836.9194)">
	<stop  offset="0" style="stop-color:#FFFFFF"/>
	<stop  offset="1" style="stop-color:#FFFFFF;stop-opacity:0"/>
</linearGradient>
<path style="opacity:0.46;fill:url(#SVGID_00000159461305469791838150000008752326534606783369_);enable-background:new    ;" d="
	M291.7,250.7L291.7,250.7l8.9-20.8l-20.6-8.9l-0.1,0l-8.3-21l-20.9,8.3l-0.1,0l-20.7-8.9L221,220l0,0.1l-21,8.3l8.3,20.9l0,0.1
	l-8.9,20.7L220,279l0.1,0l8.3,21l20.9-8.3l0.1,0l20.7,8.9L279,280l0-0.1l21-8.3C300,271.5,291.7,250.7,291.7,250.7z"/>
<linearGradient id="SVGID_00000083778007943932712530000000193143846996957600_" gradientUnits="userSpaceOnUse" x1="6974.9468" y1="-2846.4924" x2="7036.667" y2="-2846.4924" gradientTransform="matrix(1 9.773688e-03 9.773688e-03 -1 -6727.7744 -2664.8416)">
	<stop  offset="0" style="stop-color:#FFFFFF"/>
	<stop  offset="1" style="stop-color:#FFFFFF;stop-opacity:0"/>
</linearGradient>
<path style="opacity:0.46;fill:url(#SVGID_00000083778007943932712530000000193143846996957600_);enable-background:new    ;" d="
	M271.9,241.2L271.9,241.2l0.1-12.8l-12.7-0.1h0l-8.9-9.1l-9.1,8.9l0,0l-12.8-0.1l-0.1,12.7v0.1l-9.1,8.9l8.9,9.1l0,0l-0.1,12.8
	l12.7,0.1h0.1l8.9,9.1l9.1-8.9l0,0l12.8,0.1l0.1-12.7v-0.1l9.1-8.9C280.8,250.3,271.9,241.2,271.9,241.2z"/>
<linearGradient id="SVGID_00000148633482093846160810000005887943410081626026_" gradientUnits="userSpaceOnUse" x1="6150.3794" y1="-711.7578" x2="6218.2437" y2="-683.9952" gradientTransform="matrix(0.9184 0.3955 0.3955 -0.9184 -5141.3657 -2836.9194)">
	<stop  offset="0" style="stop-color:#FFFFFF"/>
	<stop  offset="1" style="stop-color:#FFFFFF;stop-opacity:0"/>
</linearGradient>
<path style="opacity:0.46;fill:url(#SVGID_00000148633482093846160810000005887943410081626026_);enable-background:new    ;" d="
	M273.6,250.4L273.6,250.4l5-11.8l-11.7-5l0,0l-4.7-11.9l-11.8,4.7l-0.1,0l-11.7-5.1l-5,11.7l0,0l-11.9,4.7l4.7,11.8l0,0l-5.1,11.7
	l11.7,5l0,0l4.7,11.9l11.8-4.7l0,0l11.7,5.1l5-11.7l0,0l11.9-4.7L273.6,250.4z"/>
</svg>
