<?xml version="1.0" encoding="utf-8"?>
<!-- Generator: Adobe Illustrator 26.0.1, SVG Export Plug-In . SVG Version: 6.00 Build 0)  -->
<svg version="1.1" id="Layer_1" xmlns="http://www.w3.org/2000/svg" xmlns:xlink="http://www.w3.org/1999/xlink" x="0px" y="0px"
	 viewBox="0 0 169 169" style="enable-background:new 0 0 169 169;" xml:space="preserve">
<style type="text/css">
	.st0{fill:#FFFFFF;}
	.st1{fill:#D0D2D3;}
	.st2{fill:#5C67B0;}
</style>
<path class="st0" d="M84.5,166.5c45.3,0,82-36.7,82-82c0-45.3-36.7-82-82-82c-45.3,0-82,36.7-82,82C2.5,129.8,39.2,166.5,84.5,166.5
	z"/>
<path class="st1" d="M84.5,169c-16.7,0-33-5-46.9-14.2c-13.9-9.3-24.7-22.5-31.1-37.9C0,101.4-1.6,84.4,1.6,68s11.3-31.4,23.1-43.3
	C36.6,12.9,51.6,4.9,68,1.6s33.4-1.6,48.8,4.8c15.4,6.4,28.6,17.2,37.9,31.1C164,51.5,169,67.8,169,84.5c0,22.4-8.9,43.9-24.8,59.7
	S106.9,169,84.5,169L84.5,169z M84.5,5C68.8,5,53.4,9.7,40.3,18.4c-13.1,8.7-23.3,21.2-29.3,35.7C5,68.6,3.5,84.6,6.5,100
	c3.1,15.4,10.6,29.6,21.8,40.7c11.1,11.1,25.3,18.7,40.7,21.8c15.4,3.1,31.4,1.5,45.9-4.5c14.5-6,26.9-16.2,35.7-29.3
	c8.7-13.1,13.4-28.4,13.4-44.2c0-21.1-8.4-41.3-23.3-56.2C125.8,13.4,105.6,5,84.5,5L84.5,5z"/>
<path class="st2" d="M73,61.1l11.6-18.4l11.9,17.9c2.9-2.5,4.9-5.8,5.8-9.5c0.9-3.7,0.7-7.6-0.7-11.1c-1.4-3.5-3.8-6.6-7-8.7
	c-3.2-2.1-6.9-3.2-10.7-3.1c-3.8,0.1-7.5,1.3-10.5,3.6c-3.1,2.3-5.3,5.4-6.5,9c-1.2,3.6-1.3,7.5-0.2,11.1C67.8,55.5,70,58.7,73,61.1
	L73,61.1z"/>
<path class="st2" d="M69.5,109.1l-21.8-0.3l9-19.5c-3.6-1.1-7.5-1.1-11.1,0c-3.6,1.2-6.8,3.4-9.1,6.4c-2.3,3-3.6,6.7-3.7,10.5
	c-0.1,3.8,0.9,7.5,3,10.7c2.1,3.2,5.1,5.6,8.6,7.1c3.5,1.4,7.4,1.7,11.1,0.9c3.7-0.9,7-2.8,9.6-5.7C67.5,116.4,69,112.9,69.5,109.1
	L69.5,109.1z"/>
<path class="st2" d="M99,109.4l21.8-0.6l-9.3-19.3c3.6-1.2,7.5-1.3,11.1-0.2c3.6,1.1,6.8,3.3,9.2,6.3s3.7,6.6,3.9,10.4
	c0.2,3.8-0.8,7.5-2.8,10.8c-2,3.2-5,5.7-8.5,7.2c-3.5,1.5-7.4,1.8-11.1,1c-3.7-0.8-7.1-2.7-9.7-5.5C101.2,116.7,99.5,113.2,99,109.4
	z"/>
</svg>
