<?xml version="1.0" encoding="utf-8"?>
<!-- Generator: Adobe Illustrator 27.0.1, SVG Export Plug-In . SVG Version: 6.00 Build 0)  -->
<svg version="1.1" id="iq" focusable="false" xmlns="http://www.w3.org/2000/svg" xmlns:xlink="http://www.w3.org/1999/xlink"
	 x="0px" y="0px" viewBox="0 0 500 500" style="enable-background:new 0 0 500 500;" xml:space="preserve">
<style type="text/css">
	.st0{fill:#FF5CAA;}
	.st1{fill:#103849;}
	.st2{fill:#F0F0F0;}
</style>
<path class="st0" d="M468.2,295.4c0,9.6-1.8,18.9-5,27.4c-11.1,29.1-39.2,49.7-72.2,49.7c-33.7,0-62.4-21.6-72.9-51.7
	c-62.3,4.5-98-23.3-112.8-76.4c-37.4-10.2-65-44.3-65-85c0-26.3,11.5-49.8,29.8-66c15.5-13.7,36-22.1,58.4-22.1
	c25.7,0,48.8,10.9,64.9,28.4c10.8-7.1,23.8-11.2,37.6-11.2c9.7,0,18.9,2,27.3,5.6c24.2,10.4,41.3,34.4,41.6,62.3c0,0.3,0,0.6,0,1
	l0,1.2v0c3.5-0.8,7.2-1.2,10.9-1.2c16.8,0,31.7,8,41.1,20.5h0c6.5,8.6,10.4,19.4,10.4,31c0,12.1-4.2,23.8-12,33
	c-0.6,0.7-1.2,1.4-1.8,2.1C460.8,257.7,468.2,275.7,468.2,295.4"/>
<path class="st1" d="M392.9,301.1c-49.9,0-90.4-40.5-90.4-90.3c0-22.7,8.5-44.4,23.9-61.2c2-2.1,5.3-2.3,7.4-0.3
	c2.1,2,2.3,5.3,0.3,7.4c-13.6,14.8-21.1,34-21.1,54.1c0,44,35.9,79.8,80,79.8c5.7,0,11.4-0.6,17-1.8c2.9-0.6,5.6,1.2,6.2,4
	s-1.2,5.6-4,6.2C405.7,300.4,399.3,301.1,392.9,301.1z M283.9,186c-33.7,0-62-26.3-64.3-59.9c-0.2-2.9,2-5.4,4.9-5.6
	c3-0.2,5.4,2,5.6,4.9c2,28.1,25.6,50.1,53.9,50.1c2.9,0,5.2,2.3,5.2,5.2S286.8,186,283.9,186z M378.1,174.6c-1.5,0-3-0.6-4-1.9
	c-1.8-2.2-1.5-5.5,0.7-7.4c7-5.8,15.3-9.8,24.2-11.7c2.9-0.7,5.6,1.2,6.2,4c0.6,2.8-1.2,5.6-4,6.2c-7.2,1.5-14,4.8-19.6,9.5
	C380.4,174.2,379.3,174.6,378.1,174.6z M269.8,131c-0.8,0-1.6-0.2-2.4-0.6c-2.6-1.3-3.6-4.5-2.2-7.1c5.9-11.3,14.6-20.9,25.3-27.9
	c2.4-1.6,5.7-0.9,7.3,1.5c1.6,2.4,0.9,5.7-1.5,7.3c-9.2,6-16.7,14.3-21.8,24C273.5,129.9,271.7,131,269.8,131z"/>
<path class="st1" d="M391,377.1c-33.6,0-63.7-20.6-76-51.6c-59.3,3.2-97.2-22.9-113.4-77.4c-38.9-11.7-65.8-47.8-65.8-88.7
	c0-51.1,41.6-92.6,92.8-92.6c24.6,0,48.3,9.9,65.6,27.2C305.3,87.5,318,84,331,84c39.1,0,71.2,30.7,73.4,69.3
	c2.1-0.2,4.3-0.4,6.5-0.4c30.9,0,56.1,25.2,56.1,56.1c0,12.9-4.4,25.2-12.4,35.1c11.7,14.5,18.1,32.5,18.1,51.3h0
	C472.8,340.4,436.1,377.1,391,377.1z M318.1,316.1c1.9,0,3.7,1.2,4.3,3.1c10.1,29.1,37.7,48.7,68.6,48.7c40,0,72.6-32.5,72.6-72.5
	c0-17.9-6.6-35-18.4-48.3c-1.6-1.8-1.6-4.5,0.1-6.2c8.1-8.7,12.6-20.1,12.6-32c0-25.9-21.1-46.9-47-46.9c-3.4,0-6.7,0.4-10,1.1
	c-1.4,0.3-2.8,0-3.9-0.9c-1.1-0.9-1.7-2.2-1.7-3.6l0-1.2c0-35.4-28.9-64.3-64.4-64.3c-12.6,0-24.7,3.6-35.1,10.4
	c-1.9,1.2-4.4,0.9-5.9-0.7c-15.8-17.1-38.2-26.9-61.5-26.9c-46.1,0-83.6,37.4-83.6,83.5c0,37.6,25.3,70.7,61.6,80.5
	c1.6,0.4,2.8,1.6,3.2,3.2c14.9,53.3,50.2,77.2,108.1,73C317.9,316.1,318,316.1,318.1,316.1z"/>
<path d="M448.6,244.1c0,0-6-6.2-14.2-12.7 M218.4,383.8c-3.4-7-5.5-14.6-6.4-22.4"/>
<path class="st1" d="M218.5,389.1c-2,0-3.8-1.1-4.7-3c-3.6-7.6-6-15.7-6.9-24.1c-0.3-2.9,1.8-5.5,4.6-5.8c2.9-0.3,5.5,1.8,5.8,4.6
	c0.8,7.2,2.8,14.1,5.9,20.7c1.3,2.6,0.1,5.7-2.5,7C220,388.9,219.2,389.1,218.5,389.1z M448.6,249.3c-1.4,0-2.7-0.5-3.8-1.6
	c-0.1-0.1-5.9-6-13.7-12.2c-2.3-1.8-2.7-5.1-0.9-7.4c1.8-2.3,5.1-2.7,7.4-0.9c8.4,6.6,14.4,12.9,14.7,13.1c2,2.1,2,5.4-0.1,7.4
	C451.2,248.8,449.9,249.3,448.6,249.3z"/>
<path class="st0" d="M369.8,330.2c2.7,7.6,4.1,15.5,4.1,23.6c0,41.3-36.3,74.8-81.1,74.8c-33.2,0-61.8-18.4-74.3-44.8
	c-10.3,7-22.7,11.1-36,11.1c-29.8,0-55-20.5-62.9-48.5c-5.6,1.4-11.4,2.1-17.2,2.1c-39,0-70.6-31.5-70.6-70.5
	c0-29.9,18.6-55.4,45-65.7c-1-4.3-1.6-8.7-1.6-13.3c0-35.3,32.8-63.9,73.4-63.9c23.3,0,44,9.4,57.4,24.2c10.8-5.8,23.2-9.1,36.4-9.1
	c41.1,0,74.3,31.8,74.3,71c0,0.9,0,1.8-0.1,2.8c33.9,6.2,59.6,37.3,59.6,74.7C376.3,310,374,320.7,369.8,330.2"/>
<path class="st1" d="M119.6,351.7c-2.3,0-4.4-1.5-5-3.8c-1.8-6.5-2.8-13.3-2.8-20.1c0-27.8,15.1-52.7,39.5-65c2.6-1.3,5.7-0.3,7,2.3
	c1.3,2.6,0.3,5.7-2.3,7c-20.8,10.5-33.7,31.8-33.7,55.7c0,5.9,0.8,11.7,2.4,17.3c0.8,2.8-0.8,5.7-3.6,6.5
	C120.5,351.6,120,351.7,119.6,351.7z M369.8,335.5c-2.1,0-4.2-1.3-4.9-3.5c-4.6-12.7-13.1-23.9-24.5-32.4c-2.3-1.7-2.8-5-1.1-7.3
	c1.7-2.3,5-2.8,7.3-1.1c13.1,9.7,22.9,22.6,28.1,37.3c1,2.7-0.4,5.7-3.2,6.7C371,335.4,370.4,335.5,369.8,335.5z M76.8,217.7
	c-2.1,0-4.1-1.3-4.9-3.3c-1.1-2.7,0.3-5.7,3-6.8c6.3-2.5,12.9-4.1,19.8-4.8c2.9-0.3,5.5,1.8,5.8,4.7c0.3,2.9-1.8,5.5-4.7,5.8
	c-5.9,0.6-11.6,2-17,4.1C78,217.5,77.4,217.7,76.8,217.7z M182.5,184.5c-1.1,0-2.2-0.4-3.2-1.1c-2.3-1.8-2.7-5.1-0.9-7.4
	c6.7-8.6,15.4-16,25.1-21.2c2.6-1.4,5.7-0.4,7.1,2.1c1.4,2.5,0.4,5.7-2.1,7.1c-8.5,4.6-16,10.9-21.8,18.4
	C185.6,183.8,184.1,184.5,182.5,184.5z"/>
<path class="st1" d="M292.8,433.2c-32.2,0-61.5-16.7-76.1-42.8c-10.4,6-22.2,9.2-34.2,9.2c-29.6,0-56.2-19.4-66-47.7
	c-4.6,0.9-9.3,1.3-14,1.3c0,0-0.1,0-0.1,0c-41.4,0-75.1-33.7-75.1-75c0-29.9,17.3-56.3,44.3-68.4c-0.6-3.5-0.9-7-0.9-10.5
	c0-37.8,35-68.5,77.9-68.5c22.5,0,43.6,8.4,58.4,23.1c11-5.3,23.2-8,35.5-8c43.2,0,78.4,33.4,78.9,74.6
	c34.8,8.3,59.6,40.6,59.6,78.4c0,11-2.1,21.7-6.2,31.7c2.5,7.6,3.8,15.4,3.8,23.4C378.5,397.6,340,433.2,292.8,433.2z M218.5,379.3
	c0.4,0,0.8,0.1,1.2,0.2c1.3,0.3,2.4,1.2,2.9,2.5c12.2,25.6,39.7,42.2,70.2,42.2c42.2,0,76.6-31.5,76.6-70.2c0-7.5-1.3-14.9-3.8-22
	c-0.4-1.1-0.4-2.3,0.1-3.4c4.1-9.3,6.1-19.3,6.1-29.7c0-34.7-23.5-64.2-55.9-70.2c-2.3-0.4-3.9-2.5-3.7-4.8c0-0.8,0.1-1.6,0.1-2.4
	c0-36.7-31.3-66.5-69.7-66.5c-12,0-23.8,3-34.3,8.5c-1.8,1-4.1,0.6-5.6-1c-13.1-14.4-32.8-22.7-54.1-22.7
	c-37.9,0-68.8,26.6-68.8,59.3c0,4.1,0.5,8.2,1.5,12.2c0.5,2.2-0.7,4.5-2.8,5.4c-25.5,9.9-42,34-42,61.4c0,36.3,29.6,65.9,66,65.9
	c5-0.3,10.8-0.7,16.1-2c2.4-0.6,4.9,0.8,5.5,3.2c7.5,26.6,31.5,45.2,58.5,45.2c11.9,0,23.5-3.6,33.4-10.3
	C216.6,379.5,217.5,379.3,218.5,379.3z"/>
<path class="st1" d="M268.2,339.6c-33.8,0-61.4-27.5-61.4-61.3c0-14.1,4.9-27.9,13.8-38.8c1.8-2.2,5.1-2.6,7.4-0.7
	c2.2,1.8,2.6,5.1,0.7,7.4c-7.4,9-11.5,20.4-11.5,32.1c0,28,22.8,50.8,50.9,50.8c15.5,0,30-7,39.8-19.1c1.8-2.3,5.1-2.6,7.4-0.8
	c2.3,1.8,2.6,5.1,0.8,7.4C304.4,331.2,286.9,339.6,268.2,339.6z M253.3,250.4c-1.3,0-2.6-0.5-3.6-1.4c-2.1-2-2.2-5.3-0.2-7.4
	c17.8-18.7,43.6-27.1,68.2-22.6c2.9,0.5,4.7,3.2,4.2,6.1c-0.5,2.9-3.3,4.8-6.1,4.2c-21.1-3.8-43.3,3.4-58.7,19.5
	C256,249.9,254.6,250.4,253.3,250.4z"/>
<path d="M293,362c0-11-2.8-21.4-7.7-30.4 M175.7,326.3c9.3-13.7,23.7-23.6,40.4-27 M75.7,278.1c7.1-2.8,14.7-4.3,22.3-4.3
	c12.3,0,24.2,3.7,34.3,10.7 M191,226.5c-3.8,1.1-7.9,1.7-12,1.7c-11.1,0-21.8-4.3-29.7-12.1 M375.2,223.8c5.9-4.4,13-6.7,20.3-6.7
	c2,0,4.1,0.2,6.1,0.5"/>
<path class="st1" d="M293,367.3c-2.9,0-5.2-2.3-5.2-5.2c0-9.8-2.4-19.4-7.1-27.9c-1.4-2.5-0.4-5.7,2.1-7.1c2.5-1.4,5.7-0.5,7.1,2.1
	c5.4,10,8.3,21.4,8.3,32.9C298.2,364.9,295.9,367.3,293,367.3z M175.7,331.5c-1,0-2-0.3-2.9-0.9c-2.4-1.6-3-4.9-1.4-7.3
	c10.3-15.2,25.8-25.6,43.8-29.2c2.9-0.5,5.6,1.3,6.2,4.1c0.6,2.8-1.3,5.6-4.1,6.2c-15.2,3.1-28.4,11.8-37.1,24.7
	C179,330.7,177.4,331.5,175.7,331.5z M132.3,289.8c-1,0-2.1-0.3-3-0.9c-9.2-6.4-20.1-9.7-31.3-9.7c0,0,0,0,0,0
	c-7,0-13.9,1.3-20.4,3.9c-2.7,1.1-5.7-0.3-6.8-3c-1.1-2.7,0.3-5.7,3-6.8c7.8-3.1,15.9-4.6,24.3-4.6c0,0,0,0,0.1,0
	c13.4,0,26.2,4,37.2,11.6c2.4,1.6,3,4.9,1.3,7.3C135.6,289,134,289.8,132.3,289.8z M178.9,233.5c-12.5,0-24.3-4.8-33.3-13.5
	c-2.1-2-2.1-5.3-0.1-7.4c2-2.1,5.3-2.1,7.4-0.1c7,6.8,16.2,10.6,26,10.6c0,0,0,0,0.1,0c3.6,0,7.2-0.5,10.6-1.5
	c2.8-0.8,5.7,0.8,6.5,3.5c0.8,2.8-0.8,5.7-3.5,6.5C188.1,232.9,183.3,233.4,178.9,233.5z M375.2,229.1c-1.6,0-3.2-0.7-4.2-2.1
	c-1.7-2.3-1.2-5.6,1.1-7.3c6.7-5,15-7.8,23.4-7.8c0,0,0,0,0.1,0c2.3,0,4.7,0.2,7,0.6c2.9,0.5,4.7,3.2,4.2,6.1
	c-0.5,2.9-3.2,4.7-6.1,4.2c-1.7-0.3-3.4-0.5-5.2-0.5c0,0,0,0,0,0c-6.1,0-12.2,2-17.2,5.7C377.4,228.7,376.3,229.1,375.2,229.1z"/>
<path class="st1" d="M292.8,442.4c-32.4,0-62-15.2-79.4-40.1c-9.7,4.2-20.2,6.4-30.8,6.4c0,0,0,0-0.1,0c-30.9,0-58.9-18.5-71.8-46.8
	c-2.8,0.3-5.5,0.4-8.3,0.4c-46.5,0-84.3-37.8-84.3-84.2c0-30.8,16.9-59.1,43.6-73.7c-0.1-1.7-0.2-3.5-0.2-5.2
	c0-38.1,30.6-70.1,72.1-76.5c15.2-39.1,52.6-65,95-65c24.9,0,48.5,8.9,67.1,25.2c11-5.2,23.1-7.9,35.4-7.9c40.8,0,75,29.6,81.6,68.9
	c35.2,0.9,63.6,29.8,63.6,65.2c0,12.4-3.6,24.6-10.2,35c10.3,15,16,33,16,51.4c0,50.1-40.8,90.8-90.9,90.8c-3.2,0-6.5-0.2-9.7-0.5
	C367.3,419.4,332,442.4,292.8,442.4z M216.7,381.2c0.8,0,1.6,0.1,2.4,0.3c2.4,0.7,4.4,2.2,5.6,4.4c13.2,23.5,39.3,38.1,68.1,38.1
	c34.1,0,64.4-21.1,73.7-51.2c1.4-4.5,6-7.3,10.5-6.3c4.7,0.9,9.4,1.4,14,1.4c40,0,72.6-32.5,72.6-72.5c0-16.5-5.7-32.7-16.1-45.5
	c-2.7-3.4-2.7-8.2,0-11.5c6.7-8.3,10.4-18.7,10.4-29.4c0-25.9-21.1-46.9-47-46.9c-1.8,0-3.6,0.1-5.4,0.3c-2.5,0.3-5-0.5-7-2.1
	c-1.9-1.6-3.1-4-3.3-6.5c-1.9-34-30.2-60.6-64.3-60.6c-11.4,0-22.5,3-32.3,8.7c-3.6,2.1-8.1,1.5-11.1-1.4
	C271.8,84.7,250.8,76,228.5,76c-36.4,0-68.4,23.3-79.5,57.9c-1.1,3.5-4.2,6-7.9,6.3c-35,3.3-61.3,28.6-61.3,59c0,3,0.3,6,0.8,8.9
	c0.7,4.1-1.5,8.2-5.3,10c-24,10.7-38.9,33.7-38.9,60.1c0,36.3,29.6,65.9,66,65.9c4.1,0,8.3-0.4,12.4-1.2c4.5-0.8,8.9,1.7,10.4,6
	c8.6,24.9,31.7,41.6,57.3,41.6c0,0,0,0,0.1,0c10.4,0,20.6-2.7,29.6-7.9C213.5,381.6,215.1,381.2,216.7,381.2z"/>
<path class="st2" d="M228.5,40.6c-24.2,0-47.5,7.2-67.4,20.8c-17.1,11.8-30.7,27.6-39.7,46.3c-43.7,10.6-75,45.7-76.9,87.2
	C17.4,213.7,1,244.7,1,278.1c0,55.2,44.5,100.3,99.6,101.2c17.4,28.5,48.4,46.4,81.8,46.4c8.5,0,16.9-1.1,25.1-3.4
	c21.1,23.4,52.1,37.1,85.2,37.1c22.5,0,44.2-6.4,63-18.4c15.2-9.8,27.5-22.7,35.9-37.8c59.3-0.3,107.3-48.6,107.3-107.8
	c0-18.3-4.6-36.1-13.3-51.9c5-10.8,7.6-22.6,7.6-34.5c0-21.6-8.3-42-23.4-57.4c-11.9-12.2-27-20.2-43.4-23.4
	c-5.5-18-16.2-34.2-30.7-46.6c-18-15.3-41-23.8-64.7-23.8c-11,0-22.1,1.9-32.6,5.5C278.1,48.6,253.7,40.6,228.5,40.6z M228.5,57.6
	c24.6,0,48.7,9.1,67.1,25.2c11.1-5.2,23.2-7.9,35.4-7.9c40.8,0,75,29.6,81.6,68.9c35.2,0.9,63.6,29.8,63.6,65.2
	c0,12.4-3.6,24.5-10.2,35c10.3,15,16,33,16,51.4c0,50.1-40.8,90.8-90.9,90.8c-3.2,0-6.5-0.2-9.7-0.5c-14,33.7-49.3,56.7-88.5,56.7
	c-32.4,0-62-15.2-79.4-40.1c-9.7,4.2-20.3,6.4-30.9,6.4c-30.9,0-58.9-18.5-71.8-46.8c-2.7,0.3-5.5,0.4-8.3,0.4
	c-46.5,0-84.3-37.8-84.3-84.2c0-30.8,16.9-59.1,43.6-73.7c-0.1-1.7-0.2-3.5-0.2-5.2c0-38.1,30.6-70.1,72.1-76.5
	C148.6,83.5,186.1,57.6,228.5,57.6"/>
</svg>
