<svg xmlns="http://www.w3.org/2000/svg" viewBox="0 0 1000 1000"><title>Asset 1</title><g id="Layer_2" data-name="Layer 2"><g id="Layer_1-2" data-name="Layer 1"><path id="SVGID" d="M500,0c276.1,0,500,223.9,500,500s-223.9,500-500,500S0,776.1,0,500,223.9,0,500,0Z" style="fill:#b41514;fill-rule:evenodd"/><path id="SVGID-2" data-name="SVGID" d="M496,825a67,67,0,1,1,67-67,67,67,0,0,1-67,67Z" style="fill:#fff"/><path id="SVGID-3" data-name="SVGID" d="M496,363a67,67,0,1,1,67-67,67,67,0,0,1-67,67Z" style="fill:#fff"/><polygon id="SVGID-4" data-name="SVGID" points="222 646 222 553 770 553 770 646 222 646" style="fill:#fff"/><path id="SVGID-5" data-name="SVGID" d="M496,507c-156.3,0-283.5-124-288.8-279h99.1c5.2,100.3,88.2,180,189.7,180s184.5-79.7,189.7-180h99.1C779.5,383,652.3,507,496,507Z" style="fill:#fff"/></g></g></svg>