<?xml version="1.0" encoding="UTF-8" standalone="no"?>
<!-- Created with Inkscape (http://www.inkscape.org/) -->

<svg
   viewBox="0 0 20.225674 20.196"
   version="1.1"
   id="svg1"
   xmlns="http://www.w3.org/2000/svg"
   xmlns:svg="http://www.w3.org/2000/svg">
  <defs
     id="defs1" />
  <g
     id="layer1"
     transform="translate(-30.427083,-102.39375)">
    <g
       id="g2"
       transform="matrix(0.26458333,0,0,0.26458333,15.084819,94.77375)">
      <path
         class="cls-4"
         d="m 134.43,66.58 c 0,5.11 -2.11,10.05 -3.96,14.5 -1.85,4.45 -4.71,8.85 -8.18,12.32 -3.47,3.47 -7.64,6.46 -12.24,8.37 -4.44,1.84 -9.46,3.36 -14.57,3.36 -5.11,0 -10.24,-1.26 -14.68,-3.1 -4.61,-1.91 -7.76,-6.06 -11.23,-9.54 -3.47,-3.47 -7.36,-6.73 -9.27,-11.34 -1.91,-4.61 -2.22,-9.46 -2.22,-14.57 0,-5.11 -0.6,-10.53 1.24,-14.98 1.91,-4.61 5.94,-8.29 9.42,-11.76 3.47,-3.47 7.32,-7.1 11.93,-9.01 4.44,-1.84 9.7,-2.03 14.81,-2.03 5.11,0 10.06,0.93 14.5,2.77 4.61,1.91 9.05,4.51 12.52,7.99 3.47,3.47 6.48,7.75 8.39,12.35 1.84,4.44 3.54,9.56 3.54,14.67 z"
         id="path1"
         style="fill:#6fc7ba" />
      <polygon
         class="cls-3"
         points="98.08,87.16 106.18,88.36 109.4,66.58 106.18,44.79 98.08,45.99 100.39,61.66 83.44,48.61 78.45,55.12 93.32,66.58 78.45,78.03 83.44,84.55 100.39,71.49 "
         id="polygon1"
         style="fill:#1a1a1a" />
    </g>
  </g>
</svg>
