<?xml version="1.0" encoding="utf-8"?>
<!-- Generator: Adobe Illustrator 24.0.0, SVG Export Plug-In . SVG Version: 6.00 Build 0)  -->
<svg version="1.1" id="Layer_1" xmlns="http://www.w3.org/2000/svg" xmlns:xlink="http://www.w3.org/1999/xlink" x="0px" y="0px"
	 viewBox="0 0 87 86" style="enable-background:new 0 0 87 86;" xml:space="preserve">
<style type="text/css">
	.st0{fill:#1AEEC2;}
</style>
<title>logo-kambria</title>
<desc>Created with Sketch.</desc>
<path id="Path" class="st0" d="M85.4,41.8l-11.8,0.3h-0.1h-0.1l-0.2,0l-0.1,0l-0.2,0.1l-0.1,0c-0.1,0-0.1,0.1-0.2,0.1l-11.1,9.2
	L44.9,42v-9l16.5,1.5h0.2c0.1,0,0.1,0,0.2,0h0.1h0c0.1,0,0.2,0,0.3-0.1l0.1,0l0.1-0.1l7.9-4.6l13,5.7c0.8,0.3,1.7,0,2.1-0.8
	s0-1.7-0.8-2.1l-10.9-4.7l6.7-3.8c0.8-0.4,1-1.4,0.6-2.2c-0.4-0.8-1.4-1-2.2-0.6l-16.1,9.2l-2.1-11.6l13-2.6c0.6-0.1,1.1-0.5,1.2-1
	c0.2-0.6,0.1-1.2-0.3-1.6c-0.4-0.4-1-0.6-1.5-0.5l-11.1,2.3L66.2,8c0.3-0.5,0.3-1.1,0-1.6s-0.8-0.8-1.4-0.8s-1.1,0.3-1.4,0.8
	l-5.8,9.8c-0.1,0.1-0.1,0.2-0.1,0.3c-0.3,0.4-0.5,0.8-0.4,1.3l2.4,13.3l-14.7-1.3v-17l10.5-8.6C56,3.6,56.1,2.6,55.6,2
	c-0.5-0.6-1.5-0.8-2.1-0.3l-8.5,7V1.5c0-0.8-0.7-1.5-1.6-1.5s-1.5,0.7-1.6,1.5l0,0v17.9L31,15.9l3.5-12.6c0.2-0.8-0.2-1.7-1.1-2
	s-1.7,0.2-2,1.1l-3,10.8l-4.7-7c-0.5-0.7-1.5-0.9-2.2-0.4S20.6,7.3,21.1,8l6.6,9.8l0.1,0.1l0.1,0.1l0.1,0.1l0.1,0.1
	c0.1,0,0.1,0.1,0.2,0.1l0.1,0c0.1,0,0.1,0.1,0.2,0.1l13.3,4.3V42l-8.1,4.7L26.7,32c0,0,0,0,0,0c-0.1-0.1-0.1-0.2-0.2-0.3h0
	c0,0,0,0-0.1-0.1c-0.1-0.1-0.2-0.2-0.3-0.2l0,0l-7.9-4.6l-1.8-14.2c-0.1-0.6-0.4-1-1-1.3c-0.5-0.2-1.1-0.1-1.6,0.2s-0.7,0.9-0.6,1.5
	l1.5,11.8l-6.7-3.9c-0.8-0.4-1.7-0.1-2.1,0.6s-0.2,1.7,0.5,2.1L22.6,33l-8.9,7.7l-8.9-10c-0.6-0.7-1.6-0.7-2.2-0.1s-0.7,1.6-0.1,2.2
	l7.6,8.4H1.6C0.7,41.3,0,42,0,42.9s0.7,1.6,1.6,1.6h11.4c0.1,0,0.2,0,0.3,0c0.5,0.1,1,0,1.3-0.4l10.2-8.9l6.1,13.1l-15.2,8.8
	L4.3,51.7c-0.8-0.3-1.7,0-2,0.8s-0.1,1.7,0.7,2.1l9.4,4.5l-5.9,3.4c-0.8,0.4-1,1.4-0.6,2.2c0.4,0.8,1.4,1,2.2,0.6l8.5-4.9l0,0
	l7.4-4.3l1.6,11.6l-12.8,2.2c-0.8,0.2-1.4,1-1.2,1.8c0.1,0.8,0.9,1.4,1.7,1.3L24.2,71l-4.3,7.3c-0.4,0.8-0.2,1.7,0.6,2.2
	c0.8,0.4,1.7,0.2,2.2-0.6l6-10.2l0-0.1l0.1-0.1c0-0.1,0-0.1,0.1-0.2c0,0,0-0.1,0-0.1c0-0.1,0-0.1,0-0.2c0,0,0-0.1,0-0.1
	c0-0.1,0-0.2,0-0.3l-1.9-14.4l16.5-9.5l6.8,4l-9,14c0,0,0,0,0,0.1l0,0.1c0,0.1-0.1,0.1-0.1,0.2c0,0,0,0,0,0c0,0,0,0,0,0
	c0,0.1,0,0.2-0.1,0.3c0,0,0,0,0,0.1c0,0.1,0,0.1,0,0.2l0.2,9.2l-11.1,8.9c-0.7,0.5-0.8,1.5-0.2,2.2c0.5,0.7,1.5,0.8,2.2,0.2l9.2-7.4
	l0.2,7.8c0.1,0.8,0.8,1.5,1.6,1.5c0.8,0,1.5-0.7,1.5-1.6l-0.6-18.7l11.2,3.6l-3.8,12.8c-0.2,0.6-0.1,1.2,0.3,1.6
	c0.4,0.4,1,0.6,1.5,0.5s1-0.6,1.1-1.2l3.2-10.9l4.4,7.2c0.3,0.5,0.8,0.8,1.4,0.8c0.6,0,1.1-0.3,1.3-0.8c0.3-0.5,0.2-1.1,0-1.6L59,68
	c-0.1-0.1-0.1-0.2-0.2-0.3c-0.2-0.5-0.5-0.8-1-1l-12.8-4.1l8-12.4l16.4,9.6l1,13.3c0.1,0.8,0.8,1.4,1.7,1.4s1.5-0.8,1.5-1.6
	l-0.8-11.1l5.9,3.4c0.5,0.3,1.1,0.3,1.6,0c0.5-0.3,0.8-0.8,0.8-1.4s-0.3-1.1-0.8-1.4l-8.5-4.9l0,0l-7.2-4.2l9-7.5l8.6,9.8
	c0.6,0.7,1.6,0.7,2.2,0.1c0.7-0.6,0.7-1.6,0.1-2.2L77,45.2l8.4-0.2c0.9,0,1.6-0.8,1.6-1.6C87,42.4,86.2,41.7,85.4,41.8L85.4,41.8z"
	/>
</svg>
