<?xml version="1.0" encoding="utf-8"?>
<!-- Generator: Adobe Illustrator 26.0.1, SVG Export Plug-In . SVG Version: 6.00 Build 0)  -->
<svg version="1.1" id="Layer_1" xmlns="http://www.w3.org/2000/svg" xmlns:xlink="http://www.w3.org/1999/xlink" x="0px" y="0px"
	 viewBox="0 0 2000 2202" style="enable-background:new 0 0 2000 2202;" xml:space="preserve">
<style type="text/css">
	.st0{fill:url(#SVGID_1_);}
	.st1{fill:url(#SVGID_00000101070196456686843120000001239366859508046510_);}
	.st2{fill:#69009A;}
</style>
<linearGradient id="SVGID_1_" gradientUnits="userSpaceOnUse" x1="891.3809" y1="1149.9335" x2="1398.6709" y2="423.2734" gradientTransform="matrix(1 0 0 -1 0 2199.8899)">
	<stop  offset="0" style="stop-color:#EA078C"/>
	<stop  offset="1" style="stop-color:#69009A"/>
</linearGradient>
<path class="st0" d="M1047.4,809.8l57,74c0,0,343,503.8,514.8,755.3c118.5,174.5,237,349,355.7,523.4c9.1,12.5,17.5,25.5,25.1,38.9
	c-211.2,0.9-422.4,0.4-633.5,0.2c-210.2-312-627.5-938.1-627.5-938.1l-36-65.6"/>
<linearGradient id="SVGID_00000146464880745551454490000007775799416201540268_" gradientUnits="userSpaceOnUse" x1="454.6503" y1="1157.1993" x2="1486.3802" y2="1791.3192" gradientTransform="matrix(1 0 0 -1 0 2199.8899)">
	<stop  offset="0" style="stop-color:#EA078C"/>
	<stop  offset="1" style="stop-color:#69009A"/>
</linearGradient>
<path style="fill:url(#SVGID_00000146464880745551454490000007775799416201540268_);" d="M554,1455.2c-7.8,6.2-7.2,16.5-7.2,25.5
	l-8.5,28.4l-41.1-660.7l50.3-53.8c12.9-8.8,512.4-536.8,752.8-788.2c5.7-8,16-5.6,24.4-6.3c209.2,0.7,627.5,0.5,627.5,0.5
	S614.9,1390.6,554,1455.2z"/>
<path class="st2" d="M0,0.7h547.4v2200.1H0V0.7z"/>
</svg>
