<?xml version="1.0" encoding="utf-8"?>
<!-- Generator: Adobe Illustrator 21.0.0, SVG Export Plug-In . SVG Version: 6.00 Build 0)  -->
<svg version="1.1" id="Layer_1" xmlns="http://www.w3.org/2000/svg" xmlns:xlink="http://www.w3.org/1999/xlink" x="0px" y="0px"
	 viewBox="0 0 320 320" style="enable-background:new 0 0 320 320;" xml:space="preserve">
<style type="text/css">
	.st0{fill:#FEF5F6;}
	.st1{fill:#ABACAC;}
	.st2{fill:#EE1D55;}
	.st3{fill:#ABABAC;}
	.st4{fill:#EF4464;}
	.st5{fill:#EF4263;}
	.st6{fill:#B1B2B2;}
	.st7{fill:#ED1A47;}
	.st8{fill:#C1A0A4;}
	.st9{fill:#EF3C60;}
	.st10{fill:#FFFFFF;}
	.st11{fill:#FDFCFC;}
	.st12{fill:#F6F6F5;}
	.st13{fill:#FBF1F0;}
	.st14{fill:#B0B1B1;}
	.st15{fill:#B2B3B3;}
	.st16{fill:#B5B6B6;}
	.st17{fill:#B3B4B4;}
	.st18{fill:#B4B4B5;}
	.st19{fill:#B5B6B7;}
	.st20{fill:#EE365D;}
	.st21{fill:#EE375E;}
	.st22{fill:#EE365E;}
	.st23{fill:#EE355D;}
	.st24{fill:#EF385E;}
	.st25{fill:#EF395E;}
	.st26{fill:#EE375D;}
	.st27{fill:#FFFDFD;}
	.st28{fill:#B4A9AA;}
	.st29{fill:#EE355C;}
	.st30{fill:#EE345C;}
	.st31{fill:#FFFEFE;}
	.st32{fill:#B1B2B1;}
	.st33{fill:#B1B1B1;}
	.st34{fill:#B6B6B7;}
	.st35{fill:#B2B4B3;}
</style>
<title>KNDC</title>
<path class="st0" d="M0.487,166.873H0.244H0v-14.926c0.167,0,0.334,0,0.5,0c0.558,0.497,0.866,1.218,0.839,1.965
	c0.149,3.667,0.149,7.336,0,11.007C1.366,165.666,1.053,166.384,0.487,166.873z"/>
<path class="st1" d="M130.373,104.614c6.463,2.34,13.183,3.76,19.8,5.533c34.564,9.261,69.135,18.494,103.713,27.7
	c21.222,5.659,42.451,11.293,63.686,16.9c1.831,0.482,2.538,1.273,2.411,3.221c-0.2,3.027-0.04,6.076-0.14,9.112
	c-0.066,2.005-0.753,2.853-3.113,2.145c-6.04-1.812-12.188-3.262-18.276-4.918c-1.471-0.4-2.132-0.2-1.639,1.467
	c0.078,0.263,0.093,0.545,0.167,0.809c1.353,4.862,0.462,3.95,5.154,4.118c5.125,0.183,10.247,0.464,15.373,0.568
	c1.682,0.034,2.049,0.784,1.884,2.218c-0.4,3.46-0.754,6.925-1.187,10.381c-0.167,1.331-0.874,1.716-2.319,1.51
	c-4.172-0.593-8.428,0-12.607-0.752c-1.7-0.3-1.98,0.417-1.575,2c0.884,3.465,1.616,6.971,2.343,10.475
	c0.3,1.451,1.106,1.858,2.516,1.877c2.283,0.03,4.561,0.346,6.846,0.434c1.262,0.048,1.571,0.414,1.164,1.673
	c-1.157,3.578-2.191,7.2-3.283,10.8c-0.183,0.6-0.306,1.449-1.118,1.351c-2.862-0.345-1.963,1.456-1.671,2.871
	c0.166,0.8,0.621,1.587,0.3,2.417c-2.564,6.912-5.739,13.582-9.487,19.931c-1.429-5.99-2.744-11.357-3.987-16.741
	c-3.592-15.557-7.17-31.118-10.733-46.683c-1.009-4.381-2.178-8.729-3.038-13.139c-0.177-1.484-1.346-2.655-2.83-2.835
	c-3.551-0.886-7.113-1.752-10.607-2.834c-2.256-0.7-2.289,0.1-1.853,1.94c2.428,10.269,4.776,20.558,7.155,30.839
	c4.945,21.367,9.902,42.73,14.87,64.091c0.362,1.053,0.184,2.216-0.476,3.113c-2.822,3.62-5.6,7.277-8.739,10.637
	c-1.427,1.525-1.818,1.182-2.252-0.71c-3.733-16.279-7.562-32.535-11.334-48.805c-3.585-15.467-7.152-30.937-10.7-46.41
	c-1.362-5.9-2.8-11.784-4.064-17.7c-0.106-1.102-0.936-1.996-2.027-2.184c-3.813-0.97-7.637-1.91-11.414-3.01
	c-2.122-0.618-2.254,0-1.8,1.912c2.981,12.5,5.863,25.018,8.765,37.534c6.074,26.193,12.141,52.388,18.2,78.585
	c0.139,0.813,0.228,1.634,0.266,2.458c-0.275,0.377-0.741,0.563-1.2,0.479c-4.881-1.29-9.9-2.147-14.392-4.66
	c-0.575-1.034-0.935-2.173-1.06-3.349c-0.866-4.07-0.933-4.115-5.073-3.081c-2.286,0.571-4.558,1.2-6.869,1.669
	c-4.56-0.728-8.443-3.242-12.658-4.882c-2.18-0.921-4.299-1.978-6.346-3.166c-0.9-0.488-2.137-0.767-2.059-2.216
	c0.818-1.038,2.069-1.115,3.2-1.407c7.1-1.834,14.275-3.361,21.368-5.228c0.716-0.16,1.423-0.358,2.118-0.592
	c0.7-0.264,1.415-0.558,1.315-1.509c-0.053-0.767-0.638-1.391-1.4-1.492c-1.333-0.344-2.699-0.543-4.074-0.594
	c-4.954,0.079-9.875-0.494-14.815-0.629c-2.38-0.01-4.759-0.15-7.124-0.418c-4.718-0.642-9.3,0.21-13.827,1.545
	c-1.392,0.466-2.831,0.776-4.291,0.927c-1.292-0.043-2.538-0.489-3.563-1.276c-7.375-4.824-14.675-9.755-21.6-15.225
	c-0.819-0.592-1.558-1.287-2.2-2.067c-0.574-0.761-0.153-1.152,0.559-1.425c5.683-0.744,11.339,0.244,16.986,0.487
	c5.012,0.215,10.061,0.532,15.072,0.737c9.328,0.382,18.635,1.268,27.979,1.284c1.928,0,3.809,0.526,5.746,0.509
	c1.771-0.015,2.542-0.69,2.085-2.55c-0.636-2.589-1.331-5.165-1.86-7.779c-0.184-1.433-1.473-2.46-2.911-2.32
	c-7.775-0.268-15.543-0.735-23.307-1.186c-9.227-0.537-18.471-0.677-27.689-1.451c-4.461-0.374-8.96-0.467-13.435-0.6
	c-5.038-0.152-10.045-0.76-15.079-0.767c-0.647-0.02-1.27-0.249-1.775-0.654c-4.545-4.255-9.165-8.442-12.96-13.424
	c-0.579-0.761-1.07-1.636,0.346-2.142c5.23-0.436,10.444,0.208,15.636,0.5c4.658,0.263,9.343,0.539,13.995,0.745
	c9.523,0.422,19.045,0.874,28.567,1.357c9.059,0.45,18.141,0.591,27.18,1.476c1.648,0.125,3.303,0.133,4.952,0.024
	c1.408-0.062,1.969-0.772,1.708-2.164c-0.532-2.805-1.209-5.58-2.029-8.315c-0.517-1.741-1.952-2.09-3.486-2.1
	c-3.581-0.017-7.147-0.446-10.71-0.521c-13.385-0.281-26.736-1.266-40.1-1.866c-12.629-0.567-25.27-1.084-37.884-2.019
	c-3.77-0.279-3.982-0.1-4.432,3.589c0.043,0.838-0.283,1.652-0.89,2.23c-1.356-0.486-1.282-1.718-1.282-2.767
	c0-18.018-0.245-36.037,0.1-54.046c0.374-1.986,2.472-2.191,3.567-3.443c0.385-0.44,1.276-0.6,1-1.4
	c-0.189-0.545-0.881-0.527-1.379-0.706c-1.111-0.4-2.658,0-3.075-1.692c-0.2-4.72-0.625-9.439,0.236-14.137
	c0.089-0.249,0.363-0.379,0.612-0.29C130.27,104.537,130.326,104.571,130.373,104.614z"/>
<path class="st2" d="M137.153,190.748c4.345,5.28,9.071,10.233,14.14,14.822c2.868,1.221,4.587,3.844,6.82,5.812
	c3.387,2.986,7.226,5.5,10.021,9.144c8.303,7.057,17.223,13.353,26.654,18.812c3.116,0.863,5.6,2.929,8.378,4.444
	c2.626,1.434,5.212,2.938,7.912,4.234c0.875,0.278,1.61,0.882,2.051,1.687c6.708,3.667,13.687,6.815,20.876,9.416
	c4.655,1.06,9.233,2.331,13.322,4.931c5.013,1.861,10.156,3.352,15.387,4.463c3.665,1.515,7.631,1.878,11.97,3.173
	c-2.2,2.106-4.173,4.068-6.223,5.946c-6.278,5.753-6.29,5.741-14.285,3.438C158.712,253.576,86.962,176.857,65.709,79.505
	c-2.89-13.78-4.78-27.752-5.653-41.805c-0.288-1.82,0.539-3.636,2.1-4.615c3.781-2.713,7.451-5.581,11.735-8.216
	c0.066,27.456,4.852,54.697,14.149,80.531v-2.78c0-27.721-0.017-55.443-0.05-83.164c-0.005-2.032,0.512-3.19,2.413-3.979
	c3.787-1.571,7.493-3.338,11.235-5.026c0.456,1.001,0.601,2.116,0.417,3.2c0.015,41.259,0.021,82.519,0.02,123.779
	c-0.095,0.82-0.013,1.651,0.241,2.436c3.914,7.957,8.537,15.545,13.814,22.671v-2.864c0-50.285-0.018-100.57-0.053-150.855
	c0-2.395,0.439-3.561,3.026-4.056c3.663-0.7,7.253-1.815,10.958-2.379c0.915,1.079,0.705,2.4,0.768,3.657
	c0.252,5-0.274,9.979-0.527,14.965c0.629,5.594,0.942,11.183-0.241,16.751c-0.005,5.026-0.009,10.052-0.013,15.078
	c0.405,0.609,0.633,1.318,0.658,2.049c0.067,4.451,0.067,8.903,0,13.354c-0.073,0.908-0.298,1.797-0.665,2.63l0.023,15.636
	c0.388,0.622,0.609,1.333,0.642,2.065c0.067,4.467,0.067,8.933,0,13.4c-0.065,0.912-0.291,1.805-0.666,2.639l0.19,15.067
	c0.871,1.7,0.859,3.718-0.032,5.408c-0.047,18.867-0.091,37.733-0.131,56.6c0.048,0.354,0.142,0.7,0.281,1.029
	C133.186,184.85,135.511,187.596,137.153,190.748z"/>
<path class="st2" d="M0.487,166.873L0.5,151.944c-0.387-7.015,3.775-12.154,7.2-17.6c0.823-1.311,1.6-2.655,2.391-3.984
	c1.1-3.473,3.471-6.186,5.565-9.019c1.243-1.481,1.565-3.527,0.836-5.318c-0.661-1.955-1.743-3.869-1.21-6.079
	c-0.154-0.997-0.4-1.977-0.733-2.929c-2.657-5.882-1.572-11.321,1.55-16.7c2.152-3.71,3.806-7.708,6.5-11.785
	c9.883,52.743,31.362,99.639,64.918,140.813c33.595,41.221,75.19,71.673,124.7,91.989c-6.809,2.388-13.774,4.305-20.846,5.739
	c-0.918,0.097-1.841-0.132-2.606-0.648c-3.804-1.806-7.604-3.623-11.4-5.451c-2.841-0.509-5.124-2.242-7.572-3.573
	c-7.3-3.968-14.288-8.458-21.294-12.916c-4.918-3.542-10.035-6.8-14.819-10.538c-1.063-1.02-2.5-1.624-3.27-2.951
	c-0.092-0.137-0.18-0.438-0.249-0.437c-0.242,0-0.158,0.079,0.013,0.28c0.277,0.365,0.45,0.799,0.5,1.254
	c0.125,9.479,0.119,18.95-0.017,28.414c-0.067,2.184-0.288,4.36-0.662,6.512c-4.292-0.395-8.377-1.747-12.549-2.7
	c-1.73-0.4-1.309-1.735-1.31-2.858c-0.014-13.255-0.051-26.511,0.037-39.765c0.101-1.727-0.66-3.393-2.033-4.446
	c-3.951-3.4-7.748-6.978-11.653-10.528c-0.752,0.937-0.4,1.882-0.4,2.738c-0.027,15.557-0.034,31.113-0.021,46.669
	c0,3.03-0.023,3.065-2.9,1.812c-3.02-1.314-5.978-2.776-9.021-4.032c-1.71-0.706-2.153-1.782-2.146-3.592
	c0.071-18.686,0.023-37.372,0.077-56.058c0.077-1.635-0.511-3.232-1.631-4.427c-4.015-4.493-7.882-9.119-12.181-14.133
	c-0.069,1.456-0.152,2.408-0.153,3.361c-0.007,20.987-0.028,41.975-0.061,62.962c0,0.622,1.108,2.183-0.925,2.028
	c-0.193-1.366-0.238-2.749-0.135-4.125c-0.006-20.044-0.044-40.087,0.038-60.13c0.112-2.856-0.878-5.646-2.764-7.793
	c-3.671-4.469-7.085-9.143-10.225-14c-1.22-2.455-2.638-4.806-4.238-7.032c-0.057-0.069-0.1-0.152-0.158-0.219
	c-0.739-0.836-0.912-2.57-2.237-2.369c-1.035,0.157-1.126,1.715-1.554,2.7c-1.962,4.3-3.885,8.612-5.675,12.986
	c-1.8,4.795-3.684,9.556-5.24,14.439c-0.654,2.008-1.392,3.987-1.916,6.037c-1.857,6.287-3.516,12.625-5.045,19
	c-0.218,0.911-0.121,2.083-1.391,2.417c-3.872-4.556-6.883-9.7-10.044-14.744c-0.724-1.155-0.27-2.1,0.01-3.133
	c5.064-18.691,12.183-36.764,21.227-53.887c0.915-1.368,0.924-3.15,0.024-4.528c-2.268-3.977-4.272-8.107-6.382-12.175
	c-0.601-0.84-1.008-1.802-1.192-2.818c-0.26,1.067,1.073,1.751,0.7,2.815c-9.81,17.065-17.841,35.093-23.968,53.799
	c-1.747-2.68-2.449-5.435-3.395-8.053c-4.6-12.729-4.544-12.731,1.029-25.1c5.276-11.828,11.334-23.292,18.134-34.315
	c0.979-1.328,1.119-3.096,0.362-4.561c-1.873-4.268-3.543-8.626-5.476-13.395c-8.356,12.443-15.811,25.469-22.306,38.978
	L0.487,166.873z"/>
<path class="st2" d="M46.673,46.976c10.561,118.061,91.621,214.348,200.654,246.792c-1.5,1.765-3.521,2.631-5.338,3.718
	c-10.549,6.308-10.625,6.443-22,1.741C130.048,262.036,70.954,196.718,42.707,103.272C38.9,90.107,36.104,76.67,34.341,63.079
	c-0.262-0.889-0.109-1.848,0.415-2.612C38.486,55.761,42.464,51.258,46.673,46.976z"/>
<path class="st1" d="M280.526,54.224c2.614,3.521,2.619,3.528-0.84,6.218c-1.807,1.4-3.634,2.783-5.453,4.173
	c-1.686,0.063-0.6,1.034-0.541,1.667c0.924,3.831,1.949,7.641,2.736,11.5c0.467,2.289,1.053,2.515,2.858,0.959
	c3.472-2.994,7.2-5.687,10.689-8.661c1.4-1.195,2.107-0.931,2.961,0.479c1.664,2.749,3.367,5.476,5.143,8.153
	c0.993,1.5,0.966,2.5-0.652,3.607c-2.267,1.547-4.362,3.352-6.491,5.094c-0.446,0.365-1.245,0.682-0.949,1.476
	c0.217,0.582,0.906,0.5,1.429,0.643c3.974,1.073,7.921,2.254,11.922,3.212c1.557,0.249,2.845,1.347,3.336,2.845
	c1.443,3.872,3,7.7,4.487,11.556c0.223,0.579,0.761,1.249,0.349,1.82c-0.572,0.792-1.342,0.136-2-0.04
	c-18.489-4.899-36.977-9.806-55.463-14.72c-22.463-5.984-44.922-11.981-67.379-17.991c-1.591-0.425-3.183-0.848-4.776-1.269
	c-0.093-0.713,0.463-0.961,0.936-1.167c7.048-3.214,14.356-5.823,21.846-7.8c1.582,0.261,2.83,1.519,4.439,1.476
	c-0.6-0.672-2.943,0.36-2.055-1.988c2.565-1.43,5.2-2.581,8.242-2.253c1.244,0.761,1.388,2.111,1.649,3.336
	c0.227,1.685,1.55,3.013,3.234,3.246c3.564,0.724,6.973,2.094,10.82,2.727c-0.2-3.055-1.124-5.8-1.724-8.6
	c-0.279-1.3-1.024-2.608-0.208-3.983c4.534-1.832,9.384-2.754,14.274-2.712c1.392,2.727,1.586,5.786,2.317,8.693
	c0.716,2.845,1.475,5.689,1.974,8.585c0.207,1.789,1.562,3.23,3.335,3.545c2.928,0.736,5.875,1.4,8.775,2.245
	c1.744,0.506,2.19-0.139,1.779-1.769c-1.618-6.408-3.038-12.863-4.5-19.307c-0.331-1.461-1.841-1.977-2.068-3.376
	c0.419-0.496,1.035-0.783,1.684-0.787c7.15-0.521,14.316-0.756,21.471-1.209C278.928,53.882,279.738,54.009,280.526,54.224z"/>
<path class="st1" d="M162.417,84.184c14.137,3.8,28.275,7.6,42.413,11.4c36.333,9.726,72.67,19.432,109.011,29.117
	c1.754,0.466,2.617,1.126,2.9,3.015c0.522,3.44,1.174,6.863,1.733,10.3c0.364,2.235,0.076,2.582-2.086,1.982
	c-8.112-2.253-16.267-4.35-24.4-6.522c-48.359-12.917-96.718-25.838-145.077-38.763c-0.619-0.165-1.245-0.3-1.868-0.449
	c-0.177-0.845,0.527-1.094,1.019-1.433c4.676-3.224,9.717-5.827,14.654-8.6C161.22,83.944,161.835,83.484,162.417,84.184z"/>
<path class="st2" d="M162.417,84.184c-5.99,3.008-11.793,6.375-17.377,10.082l-13.8,9.159c-0.732,0.113-0.994-0.319-0.978-0.939
	c0.135-5.239-0.356-10.489,0.261-15.72c32.795-22.315,70.168-37.007,109.38-43c8.609-1.343,17.283-2.126,25.974-2.73
	c1.189-0.06,2.34,0.428,3.123,1.324c4.057,3.743,7.806,7.784,11.52,11.863c-2.859,1.1-5.877,0.62-8.814,0.794
	c-5.514,0.328-11.041,0.436-16.529,1.149c-1.248,1.473-3.068,1.079-4.626,1.248c-2.412,0.261-4.842,1.288-7.3,0.218
	c-4.74,0.589-9.44,1.466-14.074,2.624c-4.382,1.896-9.061,3.012-13.827,3.3c-2.832,0.472-5.608,1.23-8.286,2.264
	c-0.534,0.622-1.385,0.868-2.169,0.628c-7.853,2.313-15.542,5.153-23.013,8.5C175.186,77.567,168.681,80.654,162.417,84.184z"/>
<path class="st2" d="M131.595,52.962c15.569-9.315,32.027-17.057,49.129-23.113c16.118-5.799,32.712-10.175,49.594-13.077
	c0.884-0.236,1.824-0.156,2.655,0.227c6.323,3.237,12.409,6.917,18.213,11.012c-5.41,0.792-10.418,1.472-15.409,2.264
	c-36.3,5.736-71.097,18.638-102.362,37.954c-0.777,0.477-1.586,0.9-2.381,1.347c-1.2-0.107-0.758-1.059-0.764-1.662
	c-0.041-4.212,0.024-8.426-0.051-12.637C130.046,54.272,130.629,53.29,131.595,52.962z"/>
<path class="st2" d="M131.067,21.038c15.118-8.076,30.92-14.802,47.222-20.099c2.793-0.918,5.592,0.288,8.35,0.723
	c7.376,1.148,14.644,2.907,21.729,5.259c-9.235,2.336-17.958,4.775-26.545,7.678c-17.027,5.746-33.52,12.965-49.293,21.575
	c-0.639,0.349-1.318,0.622-1.978,0.931c-0.667-5-0.168-10.02-0.258-15.03C130.322,21.606,130.626,21.199,131.067,21.038z"/>
<path class="st1" d="M148.724,293.978c9.4,5.918,18.975,11.527,28.639,16.99c-0.211,2.227-0.423,4.455-0.635,6.682
	c-0.551,0.743-0.632,1.795-2.052,1.809c-3.468,0.036-6.934,0.3-10.4,0.515c-1.626,0.1-2.532,0.01-2.023-2.208
	c0.815-3.559,1.119-7.233,1.711-10.846c0.246-1.5-0.135-2.1-1.713-1.7c-3.719,0.949-7.443,1.875-11.173,2.776
	c-1.118,0.129-1.948,1.099-1.9,2.224c-0.189,2.459-0.751,4.887-1.028,7.342c-0.157,1.384-0.765,2-2.127,1.852
	c-3.626-0.4-7.254-0.787-10.875-1.225c-0.821-0.1-1.358-0.565-1.05-1.529c0.035-0.085,0.061-0.174,0.077-0.264
	c0.406-4.312,0.406-4.312-3.555-3.6c-0.81-3.6-0.167-7.252-0.358-10.875c-0.053-1-0.01-2.014-0.006-3.018
	c0.092-0.655,0.598-1.175,1.25-1.285c5.205-1.595,10.509-2.847,15.878-3.747C147.833,293.803,148.292,293.839,148.724,293.978z"/>
<path class="st3" d="M130.023,20.833c0.01-6.149,0.021-12.299,0.033-18.448c8.741-1.823,17.666-2.621,26.592-2.376
	c-5.302,3.513-10.604,7.026-15.907,10.539c-2.366,1.565-4.658,3.268-7.136,4.626c-2.321,1.272-3.648,2.882-3.263,5.62
	C130.276,21.147,130.168,21.143,130.023,20.833z"/>
<path class="st1" d="M15.28,109.943c2.937,5.9,2.867,11.358-2.167,16.242c-1.131,1.298-2.143,2.695-3.025,4.174l-7.614,4.653
	c0.835-6.333,2.171-12.59,3.994-18.712c0.354-1.2,1.5-1.568,2.377-2.171C10.953,112.68,13.131,111.332,15.28,109.943z"/>
<path class="st4" d="M131.595,52.962c-0.394,0.674-1.116,1.1-1.1,2.078c0.064,4.535,0.03,9.072,0.068,13.608
	c0,0.311,0.308,0.619,0.473,0.928l-0.995,1.293c0-6.01,0.002-12.021,0.007-18.032C130.533,53.249,131.069,53.043,131.595,52.962z"/>
<path class="st5" d="M130.526,86.766c0,4.639-0.024,9.278,0,13.917c0.005,0.954-0.334,2.044,0.716,2.742l-0.869,1.187l-0.168-0.032
	l-0.169,0.029c0.009-6.034,0.017-12.067,0.025-18.1C130.243,86.532,130.41,86.624,130.526,86.766z"/>
<path class="st5" d="M130.023,20.833c0.106,0.043,0.226,0.029,0.32-0.037l0.724,0.243c-1.091,2.267-0.437,4.678-0.523,7.019
	c-0.111,3.012-0.005,6.031,0.007,9.047l-0.492,0.653C130.047,32.119,130.035,26.478,130.023,20.833z"/>
<path class="st6" d="M273.691,66.282c-0.938-0.812-0.358-1.977-0.767-2.972c1.085-0.11,0.6,1.174,1.308,1.3L273.691,66.282z"/>
<path class="st7" d="M60.064,207.23c3.461,4.575,6.705,9.34,10.456,13.662c2.683,3.091,3.331,6.337,3.3,10.267
	c-0.15,19.931-0.062,39.863-0.089,59.795c0,1.041,0.445,2.233-0.611,3.089c-4.183-2.563-8.193-5.397-12.005-8.484
	c-0.87-0.665-1.32-1.744-1.18-2.83c0.006-3.466-0.056-6.932-0.092-10.4c-0.516-0.758-0.75-1.674-0.661-2.587
	c-0.045-4.36-0.031-8.72-0.012-13.08c0.037-1.001,0.267-1.986,0.677-2.9c-0.005-5.947-0.011-11.893-0.016-17.84
	c-0.548-0.862-0.781-1.886-0.661-2.9c0-5.986-0.1-11.973,0.045-17.959C59.423,212.446,58.441,209.7,60.064,207.23z"/>
<path class="st1" d="M59.834,214.994c0,6.979,0,13.958,0,20.936c-8.026,6.361-16.026,12.756-24.119,19.032
	c-0.78,0.6-1.51,2.6-3.128,0.987c1.919-7.206,3.329-14.55,5.834-21.6c2.214-2.146,4.333-4.419,7.292-5.584
	c1.155-0.278,2.347-0.368,3.53-0.264c-1.329-0.113-2.668-0.011-3.965,0.3c-1.705,0.21-3.438,0.65-4.921-0.693
	c1.501-4.8,3.26-9.515,5.271-14.124C50.376,213.178,55.248,213.525,59.834,214.994z"/>
<path class="st1" d="M59.848,253.769c0,6.189,0,12.377,0,18.564c-3.119,0.271-6.065,1.333-9.087,2.04
	c-1.032,0.423-2.217,0.156-2.969-0.667c-2.911-3.182-5.85-6.338-8.818-9.467c-1.038-1.1-0.572-1.5,0.655-1.744
	c1.432-0.287,2.829-0.8,4.271-0.981C49.927,260.77,55.536,258.045,59.848,253.769z"/>
<path class="st8" d="M130.595,298.439c0.006,4.787,0.012,9.575,0.019,14.363c-0.534,1.356,0.39,2.929-0.618,4.214
	c0.033-12.075,0.066-24.148,0.1-36.22c0.092-0.294,0.234-0.337,0.434-0.086l3.286,2.629c-2.186,1.383-2.538,3.428-2.548,5.879
	C131.249,292.288,132.027,295.461,130.595,298.439z"/>
<path class="st9" d="M36.925,167.479c-0.321-0.924-1.127-1.669-1-3.172c0.828,0.87,1.354,1.983,1.5,3.175l-0.248-0.025
	L36.925,167.479z"/>
<path class="st10" d="M137.153,190.748c-2.488-2.484-4.765-5.171-6.806-8.033c0.03-0.552,0.085-1.1,0.09-1.653
	c0.046-4.905,0.046-4.971,5.06-4.737c15.272,0.713,30.546,1.409,45.811,2.252c10.969,0.606,21.936,1.227,32.913,1.688
	c3.747,0.157,7.5,0.4,11.248,0.49c1.951,0.048,3.151,0.741,3.5,2.931c0.5,3.073,1.271,6.109,2.071,9.123
	c0.446,1.681,0.146,2.41-1.727,2.309c-10.419-0.561-20.84-1.095-31.263-1.6c-4.207-0.209-8.415-0.331-12.623-0.566
	c-13.531-0.756-27.079-1.2-40.615-1.875C142.263,190.952,139.725,190.492,137.153,190.748z"/>
<path class="st10" d="M168.133,220.527c-6.004-4.528-11.636-9.53-16.841-14.957c14.177,0.447,28.34,1.178,42.5,2.08
	c4.384,0.279,8.777,0.263,13.17,0.57c8.672,0.6,17.369,0.877,26.059,1.183c1.132-0.15,2.172,0.647,2.321,1.779
	c0.009,0.068,0.015,0.137,0.017,0.206c0.71,3.411,1.576,6.79,2.417,10.173c0.424,1.706-0.143,2.343-1.914,2.235
	c-8.948-0.545-17.9-1-26.85-1.544c-3.838-0.233-7.679-0.212-11.524-0.464C187.714,221.147,177.918,220.92,168.133,220.527z"/>
<path class="st10" d="M160.786,137.5c-5.453,3.707-10.38,8.1-15.569,12.146c-4.812,3.754-9.563,7.586-14.767,11.722
	c0-6,0.005-11.475,0-16.953c0-1.072,0.716-1.629,1.442-2.2c6.61-5.233,13.239-10.443,19.805-15.732
	c0.685-0.749,1.772-0.977,2.7-0.567c0.352,0.1,0.711,0.174,1.074,0.221c7.35,1.917,7.347,1.918,5.963,9.447
	c-0.061,0.456-0.099,0.914-0.112,1.374C161.227,137.205,161.032,137.402,160.786,137.5z"/>
<path class="st10" d="M181.309,164.635c-2.739-0.17-5.476-0.4-8.217-0.485c-1.341-0.042-1.644-0.387-1.419-1.8
	c1.313-8.237,2.386-16.513,3.752-24.741c0.982-5.914,1.158-5.99,6.924-4.263c2.434,0.729,5.75,0.445,7.088,2.4
	c1.252,1.83-0.335,4.724-0.641,7.145c-0.8,6.364-2.027,12.678-2.743,19.05C185.656,165.479,183.346,164.568,181.309,164.635z"/>
<path class="st10" d="M213.129,249.7c-6.401-2.92-12.538-6.388-18.341-10.366c2.584-0.6,5.215-1.043,7.741-1.827
	c4.232-1.314,8.462-1,12.777-0.652c5.566,0.45,11.163,0.511,16.744,0.774c2.36,0.28,4.736,0.414,7.113,0.4
	c2.409-0.189,2.7,1.27,3.032,2.918c0.441,2.206-1.541,1.773-2.518,2.022c-8.422,2.146-16.879,4.156-25.322,6.22
	C213.933,249.327,213.524,249.498,213.129,249.7z"/>
<path class="st10" d="M217.007,144.378c-1.074,6.795-2.178,13.585-3.2,20.388c-0.21,1.4-0.984,1.675-2.1,1.428
	c-2.99-0.495-6.028-0.634-9.051-0.412c-2.335,0.043-3.128-0.71-2.744-3.018c0.873-5.247,1.649-10.511,2.454-15.77
	c0.305-1.995,0.618-3.989,0.856-5.992c0.166-1.4,0.7-1.939,2.183-1.513c3.343,0.957,6.722,1.788,10.086,2.669
	c0.966,0.099,1.67,0.962,1.571,1.929C217.052,144.185,217.033,144.283,217.007,144.378z"/>
<path class="st11" d="M247.327,264.051c-4.556-1.314-9.009-2.962-13.322-4.931c3.211-1.308,6.65-1.76,9.97-2.663
	c0.794-0.333,1.707,0.041,2.039,0.835c0.078,0.186,0.119,0.385,0.121,0.586C246.5,259.941,246.927,261.994,247.327,264.051z"/>
<path class="st12" d="M157.76,157.742c0.516,5.669,0.2,5.928-6.13,5.057C153.505,160.919,155.558,159.225,157.76,157.742z"/>
<path class="st13" d="M130.2,125.085c0.01-1.8,0.02-3.602,0.031-5.406c1.769,0.126,4.253,0.012,4.784,1.524
	c0.472,1.344-2.167,1.989-3.2,3.187C131.391,124.869,130.928,125.311,130.2,125.085z"/>
<path class="st14" d="M160.786,137.5l0.534-0.545c-0.041,2.985-0.503,5.95-1.373,8.806C159.6,142.947,160.354,140.237,160.786,137.5
	z"/>
<path class="st14" d="M164.275,163.413c-1.319,0.978-2.714,0.558-4.586,0.74C161.391,162.33,162.9,163.3,164.275,163.413z"/>
<path class="st15" d="M225.469,169.816c-0.314-2.979-2.32-3.339-4.75-3.042C225.167,165.889,225.791,166.3,225.469,169.816z"/>
<path class="st6" d="M222.311,155.191c-1.016-1.88-1.517-3.996-1.453-6.132C221.813,150.962,222.311,153.062,222.311,155.191z"/>
<path class="st14" d="M140.033,162.371c-1.192,0.746-2.684,0.821-3.945,0.2C137.55,161.429,138.811,162.057,140.033,162.371z"/>
<path class="st6" d="M251.932,152.152c1.819-0.16,3.644,0.236,5.233,1.135C255.548,153.49,254.081,153.029,251.932,152.152z"/>
<path class="st6" d="M233.022,146.884c-2.008,0.019-3.991-0.454-5.774-1.379C229.269,145.35,231.289,145.832,233.022,146.884z"/>
<path class="st6" d="M306.119,204.421l1.259,4.884C305.959,207.966,306.074,206.2,306.119,204.421z"/>
<path class="st16" d="M194.843,235.858h-3.649l-0.008-0.277h3.65L194.843,235.858z"/>
<path class="st17" d="M200.411,236.356h-3.237l0.005-0.256h3.237L200.411,236.356z"/>
<path class="st18" d="M191.187,164.941c1.141-0.364,2.367-0.37,3.511-0.016C193.558,165.298,192.33,165.303,191.187,164.941z"/>
<path class="st16" d="M170.033,164.005h-3.1l-0.007-0.277h3.152L170.033,164.005z"/>
<path class="st16" d="M145.785,162.884h-3.12C143.639,162.361,144.811,162.361,145.785,162.884z"/>
<path class="st19" d="M133.721,162.1c-0.854,0.412-1.837,0.466-2.731,0.15C131.963,161.555,132.878,162.1,133.721,162.1z"/>
<path class="st20" d="M118.583,167.376c1.483,0.457,1.634,1.867,2.379,2.853C119.485,169.767,119.331,168.359,118.583,167.376z"/>
<path class="st21" d="M94.619,123.05l1.31,2.751C94.848,125.359,94.28,124.168,94.619,123.05z"/>
<path class="st22" d="M99.533,134.585c-0.725-0.685-1.135-1.639-1.133-2.636C99.26,132.531,99.702,133.561,99.533,134.585z"/>
<path class="st23" d="M127.554,179.064c-0.99-0.244-1.762-1.02-2-2.012C126.499,177.373,127.239,178.118,127.554,179.064z"/>
<path class="st24" d="M123.717,174.043c-0.863,0.009-1.2-0.469-1.344-1.242C123.32,172.813,123.432,173.5,123.717,174.043z"/>
<path class="st25" d="M91.464,116.432c-0.641-1.212-1.331-1.764-0.928-2.731C91.406,114.3,91.382,115.174,91.464,116.432z"/>
<path class="st26" d="M91.363,115.605c0.643,1.221,1.34,1.769,0.934,2.736C91.416,117.746,91.453,116.87,91.363,115.605z"/>
<path class="st27" d="M130.595,298.439c-0.04-4.192-0.022-8.385-0.143-12.575c-0.074-2.582,1.857-2.2,3.36-2.525l14.912,10.639
	L130.595,298.439z"/>
<path class="st28" d="M56.134,200.557c-1.554-0.027-3.107-0.056-4.66-0.085c0.56-1.23,1.119-2.457,1.8-3.955
	C54.506,197.643,55.482,199.021,56.134,200.557z"/>
<path class="st29" d="M101.648,255.355l-6.42-6.461l-0.216,0.21l6.146,6.734L101.648,255.355z"/>
<path class="st21" d="M21.482,130.526l-1.7-4.976l0.544-0.2l1.76,4.9L21.482,130.526z"/>
<path class="st20" d="M117.178,269.964c1.055,0.1,1.484,0.851,2.411,1.9C118.511,271.689,117.6,270.971,117.178,269.964z"/>
<path class="st30" d="M122.806,274.64c1.248,0.059,1.808,0.959,2.773,2.257c-1.19-0.349-2.19-1.161-2.775-2.254L122.806,274.64z"/>
<path class="st22" d="M31.939,155.817c-1.3-0.549-1.074-1.822-1.36-2.852c0.976,0.7,1.1,1.809,1.362,2.85L31.939,155.817z"/>
<path class="st21" d="M122.8,274.643c-0.905-0.041-1.692-0.631-1.986-1.488c0.896,0.063,1.673,0.643,1.988,1.485L122.8,274.643z"/>
<path class="st25" d="M130.525,280.709c-0.134,0.069-0.284,0.098-0.434,0.086c-0.585-0.361-1.307-0.6-1.373-1.523
	C129.751,279.275,130.088,280.055,130.525,280.709z"/>
<path class="st24" d="M31.941,155.815c0.752,0.523,1.11,1.45,0.905,2.343c-0.701-0.561-1.047-1.455-0.907-2.342L31.941,155.815z"/>
<path class="st10" d="M243.254,57.632l11.925-1.466c1.078-0.178,2.096,0.55,2.275,1.628c0.007,0.041,0.012,0.082,0.016,0.123
	c1.661,7.309,3.428,14.594,5.121,21.9c0.3,1.294,0.155,2.17-1.643,1.643c-3.761-1.1-7.571-2.033-11.353-3.066
	c-0.962-0.263-2-0.518-2.238-1.738C246.132,70.281,244.134,64.078,243.254,57.632z"/>
<path class="st31" d="M215.354,63.553c4.496-1.529,9.124-2.634,13.826-3.3c0.885,3.818,1.746,7.642,2.664,11.452
	c0.353,1.467,0.136,2.048-1.548,1.554c-3.578-1.048-7.168-2.081-10.805-2.88c-1.875-0.412-2.88-1.2-3.12-3.154
	C216.127,65.977,215.787,64.749,215.354,63.553z"/>
<path class="st32" d="M204.9,66.445c0.724-0.2,1.309-0.9,2.169-0.628c0.227,1.675,2.226,0.578,2.825,1.984
	C208.127,67.893,206.378,67.418,204.9,66.445z"/>
<path class="st33" d="M269.3,83.919c1.549-0.387,3.188,0.04,4.351,1.133L269.3,83.919z"/>
<path class="st6" d="M272.185,59.368c0.757,0.586,1.083,1.573,0.823,2.495C271.989,61.4,272.03,60.58,272.185,59.368z"/>
<path class="st6" d="M271.5,56.939c0.579,0.35,0.848,0.776,0.611,1.3c-0.013,0.028-0.377-0.026-0.394-0.09
	C271.611,57.751,271.562,57.343,271.5,56.939z"/>
<path class="st6" d="M144.248,309.662c-1.32,1.313-3.2,0.724-4.759,1.389C140.861,309.936,142.528,309.806,144.248,309.662z"/>
<path class="st34" d="M45.619,229.29c0.015-0.351,0.031-0.701,0.046-1.052h3.761C48.209,228.879,46.791,228.581,45.619,229.29z"/>
<path class="st35" d="M56.181,229c-1.443,0.398-2.962,0.433-4.421,0.1C53.203,228.703,54.722,228.668,56.181,229z"/>
</svg>
