<?xml version="1.0" encoding="utf-8"?>
<!-- Generator: Adobe Illustrator 26.2.1, SVG Export Plug-In . SVG Version: 6.00 Build 0)  -->
<svg version="1.1" id="Layer_1" xmlns="http://www.w3.org/2000/svg" xmlns:xlink="http://www.w3.org/1999/xlink" x="0px" y="0px"
	 viewBox="0 0 500 500" style="enable-background:new 0 0 500 500;" xml:space="preserve">
<style type="text/css">
	.st0{fill:#02D767;}
</style>
<path class="st0" d="M135.7,226.9l-0.3,0.3c-12.5,12.4-12.5,32.6-0.1,45.1l0.3,0.3c12.4,12.5,32.6,12.5,45.1,0.1l0.3-0.3
	c12.5-12.4,12.5-32.6,0.1-45.1l-0.3-0.3C168.4,214.6,148.2,214.5,135.7,226.9z"/>
<path class="st0" d="M159.8,91.2l-34.1,34l0.2,0.2l-91.1,90.7v-0.1L1,249.5l0.1,0.1L1,249.8l33.4,33.5l124.3,125.5
	c0,0,29.4-38.8,0.5-67.8l-91-91.4l91-90.7l46,46.2c39.2,39.4,67.1-0.9,67.1-0.9L159.8,91.2z"/>
<path class="st0" d="M496.6,250.3l0.4-0.4L339.9,92c0,0-28.9,37.7-1.5,65.2l92.8,93.2l-90.8,90.5l-42.5-42.6
	c-30.4-30.6-70.8-2.9-70.8-2.9l112,112.4l34.1-34l123.7-123.2L496.6,250.3z"/>
<path class="st0" d="M317.4,226.9l-0.3,0.3c-12.5,12.4-12.5,32.6-0.1,45.1l0.3,0.3c12.4,12.5,32.6,12.5,45.1,0.1l0.3-0.3
	c12.5-12.4,12.5-32.6,0.1-45.1l-0.3-0.3C350.1,214.6,329.9,214.5,317.4,226.9z"/>
</svg>
