<svg id="Layer_1" data-name="Layer 1" xmlns="http://www.w3.org/2000/svg" viewBox="0 0 293 293"><title>aidos-kuneen-adk</title><path d="M160.8,60.2s.3-1.1,1.2-1.1,3.3-.5,4,0,.4,2-.4,2S160.4,60.9,160.8,60.2Zm24.6-3.1a45.17,45.17,0,0,0,8.1,3.1,1.84,1.84,0,0,0,1.6-.5c.8-.9,1.9-2.6.8-3.1-1.6-.8-4.2-2.6-8.3-1.5s-2.8,1.8-2.2,2ZM56.8,120.3s-2.4.1-2-2.7,3.6-6.2,5.5-7.5,2.9-2.3,2.9-4.3,2.9-3.6,3.6-4.6,3.3-2.3,2.9-.6-1.4,2.4-1.4,4.6.4,3.7,1.5,1.4,7.9-13,14.8-18.6,16.1-11.8,17.3-12,1.9.6,1.9,1.9-3.3,2.6-4.9,4S77.7,98.8,72.1,110.7a28.9,28.9,0,0,1-3.9,4.4c-1.9,1.6-2.2,3.9-4.8,6.5s-2.5,5.3-3.8,5.7-3-1.2-2-4.6,4.1-5.5,6.3-8,3-4.7,2.4-4.7-3.8.7-4.7,3.2-.9,3.6-2,4.6C58.3,119,57.5,120.4,56.8,120.3Zm48.4-45.8a1.59,1.59,0,0,0-.9,1.2,1.49,1.49,0,0,0,.2.9c.6.8,2,.2,3-.7a81,81,0,0,1,6.8-4.4S107.8,73.1,105.2,74.5Z"/><path d="M63,131.8s-.9,1.4-2.2,0,.4-4.3,2.6-6.3,8.5-12,10.2-14.8A86.66,86.66,0,0,1,88.9,94c6.6-5.3,18.4-14.8,24.4-18.2s14.2-7.9,22.9-9.6,26.6-.3,48.5,13.3a2.58,2.58,0,0,1-1.3,3.4s-22.4-14-41.8-13.3-35.2,13.6-49.3,26-12.5,13.8-14.3,16-7.5,10.1-8.5,11.5-4.2,7-6.5,8.7ZM190.3,68.1c-24-9.3-39.4-7-43.9-6a.69.69,0,0,0-.1,1.3,17.21,17.21,0,0,0,3.9.7c5.2.5,9.9,1.6,13.3,1.5s12.1.9,17.3,2.9,7.4,2.8,7.4,2.8a2.17,2.17,0,0,0,1.9-1.2c1-1.3.2-2,.2-2Z"/><path d="M187.8,73.4s.9,3.2-2.1,3.4-15.2-7.2-19.9-7.7-1.5-3.5,4.6-1.8S187.8,73.4,187.8,73.4ZM171.4,58.2a.69.69,0,0,0,0,1.3,21.83,21.83,0,0,0,5.3,1.6c2.8.2,10.4,2.6,14,4.5,2.3,1.2,3.5-3,2-3.5-2.7-1-9.5-3.6-11.6-4.1C179.2,57.5,174.2,57.2,171.4,58.2ZM129.9,76.9c32.3-4.4,49.1,11.4,51.2,11s1.5-2.7,1.5-2.7c-8.1-6.8-27.9-14.8-46.3-12.5s-28.3,14.4-32,16.6-6.7,6.9-9.6,9.7-7.1,3.7-8.3,4.7-18.1,26-20.3,28.7-2.8,5.2-.9,6.2,3.1-2.2,3.1-2.2,8.9-14.6,10.9-16.9,8.5-12.4,9.8-14,2.8-1.3,2.3,0S80.5,121.7,78.6,124s-10.2,13.7-10.7,17.8,2.5,4.8,4.8-.6,5.8-13,7.2-14.5,6.5-7.2,7.8-9.8,7-13,11.5-18a102.88,102.88,0,0,1,14.9-13,57.5,57.5,0,0,1,8.4-4.9C124,80.3,126.6,77.3,129.9,76.9Z"/><path d="M94.4,109.4s7.8-11.8,16.1-17.5,13.1-9.7,15.7-10.7,11.5-5.6,31.7-1,22.6,11.2,21.7,12.5-4.1-.7-8.7-3.2-13.3-6.4-20.3-6.2-20.8,5-21.7,5.8-1-1.6,1.4-2.1,3.9-2.4,5.4-2.6,3.7-.7,3.7-1.9-5-1-7.5,0-12.2,6.5-14,7.5-4.2,1.7-4.6,3.2-3.4,5-4.9,5.8-9,6.7-9.8,8.1a3.9,3.9,0,0,1-4.2,2.3Z"/><path d="M109.9,100.1s1,1.5,5.2-1.7,4.7-3.9,5.1-3.9-.7-1.6-1.5-.9S110,98.7,109.9,100.1Zm11.6-2.6s-1.2-.3,1.1-2S140,84.8,150.9,85.4s23.5,7,25.7,8.9.6,5.7,0,5.5S162.4,89.3,153,89s-18.9,3.3-22.8,5.8-5.3,3.4-8.7,2.7Z"/><path d="M133.7,96.9a.62.62,0,0,1-.2-1.1,28.85,28.85,0,0,1,22.1-4.3c13.5,2.9,19.1,9.3,19.4,10.8s-.2,5-2.2,4.3-8.5-10.6-19-11.5C143.7,94.2,141.4,98.7,133.7,96.9Z"/><path d="M147.6,99.3l-1.2-.4c-.2-.1-.1-.3,0-.3,1.7-.4,7.4-1.5,12.6.4a28.74,28.74,0,0,1,9.8,6.7.3.3,0,0,1-.3.5l-20.9-6.9Zm-72.8,51s-.6,1.9-2.3.5-.6-3.6,0-5.2,5.2-11,6.3-12.1,5.2-6,5.2-7.1,1.1,3.1-3.1,9.5c-4,6.4-2.4,8.1-6.1,14.4Zm3.6,6.3s-.6,1.3-1.7,0-.1-4.4,1.2-7.5,3.1-10.1,4-11.5,1,1.7,1,2.6.3,5.8-1.4,10A33.62,33.62,0,0,1,78.4,156.6Zm5.2,6.1s-1.2,2-2.7-.4a5.06,5.06,0,0,1,0-5.4c.5-.9,1.2-3.8,1.6-4.3s.9.7,1.1,2.2,1.1,3.2,1.1,3.9S84.5,161.7,83.6,162.7Zm2.9,2.4a5.89,5.89,0,0,0-.8-1.6c-.3-.2-1.3,1.1-1.4,2.1s1,1.4,1.1,2.3.9-.2,1.1-1.2A3.56,3.56,0,0,0,86.5,165.1Zm3.1-30a33.54,33.54,0,0,1,7-15.3c5.8-6.8,8.5-7.9,8.5-7.9s.8-.2.4,1.4-3.4,5.3-3.9,6.4-4.1,4.7-4.1,5.3,1.6.1,1.8.4.9.7,0,2.8-4.4,9.5-4.5,11.1-5.3,13.6-5.8,13.6-1.6-.1-1.5-3.8,5.6-17.6,7.1-19.9,1.6-2.3,1-2.2-4.3,4.1-4.8,6.9-1.2,1.2-1.2,1.2Zm14-.9s-1.4,3.3-4.3,3.1,1.5-7.5,2.2-10.6,6.1-15,7.2-16,4.1-2.2,4.6-1.2-1.6,2.4-2.7,4.6-4.5,8.4-4.8,10.6S103.6,134.2,103.6,134.2Z"/><path d="M100.8,141.2a1.9,1.9,0,0,0-1.2-2.5c-1.9-.8-2-.2-2.9,1.3S90,155.5,90,157.6s.6,6,1.3,6.6,1.4-.5,1.4-2a9.67,9.67,0,0,1,2.2-5,7.26,7.26,0,0,0,1.2-5.8c-.4-2.4,3.4-6.3,3.4-6.3a78.82,78.82,0,0,1-.4,8.4c-.4,2.5-3,4.5-3.6,5.6s-.9,5.4-1.4,6.7a10.21,10.21,0,0,0-.3,4.9c.3,1.3,1.1,4.5,1.6,2.2s2.3-9.1,2.8-9,.4,7.5.1,9-.7,8.8-.7,9.7-2.7,5-3.2,6.5-3.5,7-3.5,7.3,3,0,4.9-1.5a7,7,0,0,0,2.4-5c0-1.2-.2-4.1.5-5.8s2.5-5.7,2.8-7.3a100.77,100.77,0,0,0,0-12.3c-.2-2.3.3-12,1-14s.8-3,1.3-3,.2,6.1,0,8-.7,8.1-.7,9a43.06,43.06,0,0,0,3.5,22.4s.5,2.2,2.9.7-1.1-8.2-1.7-10.1-2.6-11.8-1.9-13.2,4.7,13.8,4.8,15.3.6,6.2,1.4,6.3,4.1-1.9,4.1-2.3a5.52,5.52,0,0,0-.9-3c-.9-1.5-5.7-13.8-6.6-24s.7-27.6,1.5-29.4,4.5-10,5.4-11.3,3.5-6.7,4-6.9,1-.2,1,.4a54.42,54.42,0,0,1-2.2,6.1c-.6,1.7-3.8,6.8-4.4,8.5a68.13,68.13,0,0,0-3.4,16.7c-.9,9,1.2,24.2,1.8,27.2s4.4,13.2,6.5,14.1,3.9-1.8,3.6-2.3-4.7-8.5-5.7-11.8-2.8-11.2-2.5-13,2.6,15,10.5,23.8c0,0,1,.6,2.8-.6s1.7-2.2,0-4.1-7.5-13.1-8.3-16-4.3-12.5-4.5-12.8a33.85,33.85,0,0,1,.4-10.2c.9-4.2,2.2-10.1,2.3-11.7s2.7-5.2,3.3-6,2-4.6,2.7-7.3,2.1-4.5.9-4.7-5.6.5-6.4,1.4-4,2.8-10.8,18.3c0,0-1.9,3.6-1.9,5.7a13.25,13.25,0,0,1-2.4,7.6,13.67,13.67,0,0,1-2.1,2.9Z"/><path d="M102.4,182.3a1.82,1.82,0,0,0-2.1,1.5,38.18,38.18,0,0,0-.2,5.6c-.1,1-1.3,3.5-1,3.7s2.6-.4,3.7-1.7a8.07,8.07,0,0,0,2.1-4.9c0-1.7-.6-4.2-2.5-4.2Zm28.8-74.6s1.5-1.8,1.1-2.2-2.6-1.7-3.4-.7a36.81,36.81,0,0,0-4.8,9.4c-.8,3-5.2,11.5-5.6,13.3a49.39,49.39,0,0,0-.2,16.5c1.2,8.6,8.7,26.1,12,29.8s6.5,0,6.5,0l-2.5-2.9s-6.2-11.2-7-12.5-5.1-11.1-4.8-14.3,1-7.6-.1-11.8,3.9-14.5,4.7-16c.8-1.3,4.1-8.6,4.1-8.6Z"/><path d="M128.5,129.7a16.69,16.69,0,0,1,.9-4.7c.7-2,1.5-5.3,0-6.1s-4.1-.2-4.1,5.4-1.3,12,0,20.4,7.6,23.2,16,30.8,6.9,5,11,8.7,24.9,7.6,30.7,6.9,7.3-3.5,7.6-4.5-.5-2.7-1.3-1.9-5.1,4.7-19.2,1.6-17.8-6.6-18.6-7.3-8.7-8.8-9.6-9.6-10-13.2-10-15,11.8,20.7,27.5,26.7,21.5,5,24.5,4,6.1-1.9,6.1-3-.1-3.2-1.1-3.2-6.9,3.5-9.7,3.2-6.9-2.1-10.7-2.1-11.8-4.7-13.8-6.6-12.6-7.3-22.8-29.2c-.1.1-3.9-11.2-3.4-14.5Z"/><path d="M156.1,188.2s-4.2-2.8-5-2.7-.7,1.5-.6,3,.7,3.1,1.7,3.3,3.7-.4,4.3,0a38.76,38.76,0,0,0,15.5,4.1c8.1.3,9.7.6,12,.4s6.2-1.6,6.5-2.5.1-3.7-.7-3.7-1.7,4-17,2.2C157.7,190.3,156.1,188.2,156.1,188.2Z"/><path d="M158.1,194.4s-3.1-2.2-4-1.3-1.1,3.6,2,4.3,10.1,2.7,11.7,3a60,60,0,0,0,9.5,1c3.4,0,6.8-1.6,8.2-1.6s5.6,0,5.8-.9a8.72,8.72,0,0,0-.5-3.1c-.1-.4-1.3-.3-2.1.1a38.35,38.35,0,0,1-8,2.2,52.33,52.33,0,0,1-13.7-1A71.37,71.37,0,0,1,158.1,194.4Z"/><path d="M188.2,203.1s-6.4,4.4-24.2,1.6-13.2-9.8-12.8-9.5,1.9,2.4,3,2.8,14.4,4.8,18.1,4.9,8.5-.1,10.6-.8,4.9-2.5,6-1c1.1,1.3-.7,2-.7,2Z"/><path d="M153.5,203.3s-1.6-1.1-1.6,0a4.6,4.6,0,0,0,2.6,3.7,10.3,10.3,0,0,0,4.5,1.1,13.61,13.61,0,0,1,5.4,1.6c1.5.7,6.8,2.8,16,1.1s11.5-3.9,11.9-4.5a4.46,4.46,0,0,0,0-2.8c-.2-1-.9-1.4-1.7-.6s-6.2,5.6-19.4,4.7S153.5,203.3,153.5,203.3Z"/><path d="M162.5,210.5s-1.1-1.6-4.1-.8,7.7,6.5,8.3,7,1.3.8,3.9.5,10-.7,12.6-1.3,7.8-2.1,9.4-4.1,1-3.3-.5-3.1-10.7,5.9-19.9,5.1-9.7-3.3-9.7-3.3Z"/><path d="M175.3,218.6s-4.5.1-4.3,1a4.33,4.33,0,0,0,4.3,2.4c2-.4,13.2-2.2,15.5-3.4s4.2-1.5,4.2-2.9-.4-3-1.4-2.7-10.7,6.5-18.3,5.6Zm8.9,4s-4.9,1.6-4.9,2.1,2,2.8,3.6,2.7,5.1-2.4,6.9-3,6.1-1.2,6.3-2.4a5.9,5.9,0,0,0-.7-3.6,2.54,2.54,0,0,0-2.1,0C192.6,218.8,185.8,222.5,184.2,222.6Zm4.7,7.6a4,4,0,0,1-3.5,0c-1.9-.9-1.2-2,.4-2.8s4.6-1.9,5.7-2.4,4.1-1.6,4.6-1.2a3.79,3.79,0,0,1,1,2C197.1,226.3,188.9,230.2,188.9,230.2Zm2.7,4.5s-3-1.6-3-2a2.73,2.73,0,0,1,2.1-1.5c.9,0,7-2.5,7-2.5s1.6,1.5,1.6,3-6.5,3.2-7.7,3Zm7.7,3.3a7,7,0,0,1-2.6,0c-.9-.3-2.1-1.6-2.5-1.6s.9-.8,1.9-.9,2.7-.7,3.3-.8,1.4.7,1.4,1.7-1.5,1.6-1.5,1.6ZM138.9,108.7a11.81,11.81,0,0,0,1.7-2c0-.3-3.1-2.2-4.6-1.9s-6.6,10.3-5,24.2,5.2,28.2,24.8,43.6a33,33,0,0,0,27.2,6.6s1.4-1.3-.6-1.4-12.5-2-16-3.6-11.1-8.9-12.3-9.4-10.2-9.8-10.4-10.9-3.7-7.4-4.5-10.4-2.8-15.6-3.4-18-1.2-6.3-1-7.7,2.4-7.1,4.1-9.1Z"/><path d="M145.8,110.2s1.8-.5,1.9-1.1-.2-2-2.6-2.4-4.7,1.3-6.3,5.6-.9,13.4,1.2,19,.9,10.1,4.8,17.6,3.8,7.5,5.3,8.7,8.7,8.2,9.8,9.3,7.5,5.3,8.7,5.3,1.8-2,1.7-3-.2-1.5-1.9-1.6-4.1-2.9-4.1-2.9-9.1-8.6-9.8-9-8.1-8.8-8.1-9.8.1-2.4.7-1.6,4.9,7,7.7,9.6,11.7,10.1,13.8,11,3.1,1,3.3-.7,1.2-2.5,2.1-2,7.6,4.4,9.7,4.1,5.2-3.4,6.2-3.2-1.8,3.3-2.7,3.8.7,1.6,1,1.8a3.07,3.07,0,0,0,3.5-.4c1.6-1.4,1.8-3.3.7-5.8s-1.4-6.7-1.7-7.5-.7-2-1.5,0-2.3,6.1-7.5,6.3a26.63,26.63,0,0,1-17.4-4.7c-6.4-4.2-14.1-10-20.1-27.1s1.6-19.3,1.6-19.3Z"/><path d="M188.4,146.6a1.38,1.38,0,0,0-1.6.3c-.3.5-.7-1.8-.1-4s.1-5.5-.6-5.3-6.1,8.8-12.1,5.5-13.5-12.7-15.6-16.9-4.7-9-4.3-11.8c0,0,.3-2.2.4-2.8s-1.2-3-2.8-2.4-5.5,2.8-6,4.4-2.1,3.1-1.3,7.7,3.2,10.5,4.1,13.2,3.7,8.8,6.7,11.5,8.9,8,11.5,9.2,8.1,5.3,15.2,3.7,7.2-8.7,7.2-9.4a8.82,8.82,0,0,0-.7-2.9Zm-31.2-2.1c-.3-.4-3.8-5.8-4.2-6.1a40.9,40.9,0,0,1,5.3,4.7c2,2.3,3.8,5,3.8,5.8,0,0-4.6-4-4.9-4.4Zm21,8.4c-5.6-.2-7.7-2.7-9.2-3.6s-5.4-5.9-8.7-9.3-5.9-6.3-7-8.4-4-12.4-4.3-13.6,1.6-2.2,1.6-1.6a19.63,19.63,0,0,0,.4,3.2c-.2,5,5.8,13.8,6.6,15.5s7.7,9.2,13.8,13.3,10.1,1.9,11.1,1.5,2.1-.4,2.4,0-1.1,3.2-6.7,3Z"/><path d="M185.4,132.8c-.9,0-2.9,2.4-3.2,1s1.4-4.4,1.4-7.2-.6-8.1-1.9-10.7-2.6-4.9-4.9-3.5-1.1,2.5-.1,3.8,3.5,4.2,3.5,7.6-.5,7.8-1.8,8.1-4.4-.7-7.2-2.9a60.89,60.89,0,0,1-8.3-7.5c-.9-1.3-2.7-4.3-2.2-4.8s1.3-.7,2.1.7,4.7,5.5,5.7,6.5a59.3,59.3,0,0,0,5.3,4.7c1.2.8,2.7,2.2,3.8.4s1.3-6.1.4-7.7-2.4-4.4-2.9-5.1-1.3-1.9-3-1.2-1.6,2.1-1,2.6,3.3,2.4,3.5,3.7.8,3.6-.2,2.5-3.6-4.7-4.3-5.1-5.5-3.4-5.5-3.4-5.8-2.4-6.2-3-1.6-.7-.7,2.7,1.5,7.5,4,10.6a14.5,14.5,0,0,1,3,5.6c.5,1.5,5.5,8.9,11.9,10.5s8.7-5.8,9-6.4.7-2.5-.2-2.5Zm-6.1,4.5c-.2,1.5-3-.1-4.2,0s-3.4-1.9-4.8-3.5-2.5-3.3-2.1-3.5,2.2,2,4,3,4.2,2.4,5.8,2.2S179.3,137.3,179.3,137.3ZM193,168.9s-1.3,1.5-1.3,2.1.7.9.7,1.5.5.9,1.2.4.7-1.1.6-1.9S194.3,168.6,193,168.9Zm1.3,5.3s-1.3.8-1.3,1.8a20.68,20.68,0,0,0,0,2.5.85.85,0,0,0,1.6,0c.4-.8.9-1.3.5-2.3C194.7,175.4,195.1,173.5,194.3,174.2Zm1,9.7s-1.8,1.3-1.7.6.2-3.7.8-3.8.6-1.3,1.6.5.3,2.1-.7,2.7Zm1.5,2.3s.5-1.9-.9-.7-1.8.8-1.7,1.6.4,2.2,1.2,2c.6-.2,2,.1,1.4-2.9Zm.8,4s-2.3,1.1-2.1,2.4,1.3,2.6,1.8,2.6,1.3-1.4,1-2.5S198.4,189.7,197.6,190.2Z"/><path d="M146.5,20.7A125.8,125.8,0,1,0,272.3,146.5,125.77,125.77,0,0,0,146.5,20.7Zm0,243.2A117.45,117.45,0,1,1,263.9,146.4,117.41,117.41,0,0,1,146.5,263.9Z"/><path d="M146.5,0A146.5,146.5,0,1,0,293,146.5,146.51,146.51,0,0,0,146.5,0Zm0,279.3A132.8,132.8,0,1,1,279.3,146.5,132.86,132.86,0,0,1,146.5,279.3Z" style="fill:#151515"/></svg>