<?xml version="1.0" encoding="utf-8"?>
<!-- Generator: Adobe Illustrator 24.0.0, SVG Export Plug-In . SVG Version: 6.00 Build 0)  -->
<svg version="1.1" id="Layer_1" xmlns="http://www.w3.org/2000/svg" xmlns:xlink="http://www.w3.org/1999/xlink" x="0px" y="0px"
	 viewBox="0 0 2493 2499.7" style="enable-background:new 0 0 2493 2499.7;" xml:space="preserve">
<style type="text/css">
	.st0{fill:#05BCA9;}
</style>
<title>powr</title>
<g>
	<path class="st0" d="M2474.3,1224.9c-69.8-67.3-135.8-138.3-205.6-205.6c-20.5-15.8-27.7-43.5-17.4-67.3
		c28.7-97.2,53.6-194.4,81-291.6c7.5-23.7,3.7-33.6-22.4-39.9c-99.7-24.9-198.1-54.8-299.1-79.8c-28.7-6.2-39.9-21.2-46.1-47.4
		c-24.9-97.2-52.3-191.9-76-289.1c-7.5-28.7-16.2-34.9-44.9-26.2c-97.2,27.4-195.6,52.3-292.8,77.3c-16.2,5-31.2,8.7-46.1-6.2
		C1425.1,167,1341.6,88.5,1264.4,2.5l0,0c-8.8,0.2-17.6-0.6-26.2-2.5c0.5,6.6-2.9,13-8.7,16.2c-74.8,73.5-149.5,147-223.1,221.8
		c-14.1,17.3-37.9,23.4-58.6,15c-97.2-27.4-194.4-52.3-291.6-79.8c-27.4-7.5-38.6-2.5-46.1,26.2c-24.9,97.2-53.6,194.4-78.5,291.6
		c-2.6,20.4-18.3,36.7-38.6,39.9c-98.4,24.9-194.4,52.3-292.8,76c-32.4,7.5-41.1,18.7-31.2,52.3c28.7,96,51.1,194.4,78.5,291.6
		c8.8,20.7,2.7,44.6-15,58.6c-73.5,71-144.6,144.6-218.1,215.6c-19.9,18.7-18.7,29.9,0,48.6c72.3,71,142.1,143.3,214.3,214.3
		c17.8,13.2,24.5,36.8,16.2,57.3c-27.4,96-51.1,191.9-79.8,287.9c-10,33.6-5,47.4,31.2,56.1c97.2,23.7,191.9,52.3,289.1,76
		c28.7,6.2,39.9,21.2,46.1,47.4c24.9,98.4,52.3,194.4,77.3,292.8c6.2,24.9,15,31.2,39.9,23.7c96-27.4,193.1-49.8,289.1-77.3
		c25.5-9.6,54.3-1.5,71,19.9c68.5,71,138.3,139.6,206.9,210.6c21.2,22.4,33.6,23.7,56.1,1.2c68.5-72.3,140.8-140.8,210.6-213.1
		c15.7-20.7,43.2-28.3,67.3-18.7c96,28.7,191.9,52.3,287.9,79.8c27.4,7.5,38.6,2.5,46.1-26.2c23.7-96,53.6-191.9,77.3-287.9
		c6.2-28.7,19.9-39.9,47.4-46.1c97.2-23.7,191.9-51.1,289.1-74.8c28.7-6.2,37.4-17.4,28.7-47.4c-27.4-97.2-52.3-196.9-79.8-295.3
		c-8.8-20.7-2.7-44.6,15-58.6c71-68.5,140.8-140.8,213.1-209.3C2500.5,1261.1,2498,1248.6,2474.3,1224.9z M626.3,1168.9
		c0,0.1,0,0.2,0,0.3c-0.4,42.3-35,76.2-77.3,75.8h-77.3l0,0c-32.4,0-64.8,0-98.4,1.2c-17.4,0-22.4-6.2-18.7-23.7
		c8.7-36.1,17.4-64.8,64.8-72.3c61.1-8.7,119.6-29.9,179.4-47.4c21.2-5,29.9-2.5,27.4,19.9C625.1,1137.7,626.3,1153.9,626.3,1168.9z
		 M622.6,1848.8c-51.4-48.4-97.4-93.1-144.6-137.8c39.9-22.4,78.5-43.6,115.9-66c21.2-12.5,28.7-10,28.7,16.2
		C621.4,1722,622.6,1784.2,622.6,1848.8z M484.3,1684.8c-15,8.7-18.7,5-22.4-10c-11.2-44.9-24.9-89.7-36.1-134.6
		c-2.5-10-3.7-22.4,6.2-28.7c10-6.2,17.4,2.5,24.9,6.2c51.1,28.7,102.2,58.6,160.8,91C570.3,1634.9,526.6,1658.6,484.3,1684.8z
		 M389.6,1016.8c-12.5,31.2-56.1,36.1-84.7,56.1v0c-28.7-73.5-28.7-73.5,21.2-124.6c34.9-34.9,69.8-68.5,104.7-103.4
		c3.2-2,6.5-3.6,10-5C423.2,902.2,412,962,389.6,1016.8z M464.3,826.2c2.5-11.2,11.2-8.7,17.4-5c42.4,24.9,83.5,49.8,130.8,77.3h0
		c-67.3,38.6-128.4,73.5-198.1,110.9C431.9,943.3,448.1,884.7,464.3,826.2z M333.5,1153.9c-13.7,0-13.7-13.7-16.2-22.4
		c-13.7-41.1-11.2-43.6,63.6-74.8c-7,28.7-13.7,52.3-19.4,74.8C359.6,1145.2,347.3,1155.1,333.5,1153.9z M258.7,1175.1
		c-47.4,12.5-94.7,23.7-142.1,34.9l-3.7-5l172-100.9C313.6,1157.7,312.3,1161.4,258.7,1175.1z M294.9,1185.1
		c32.4-7.5,22.4,26.2,28.7,39.9c6.2,13.7-2.5,19.9-17.4,19.9H103c0-2.5-1.2-6.2-1.2-8.7C165.3,1220,228.8,1201.3,294.9,1185.1z
		 M343.7,1303c12.4,47.1,24.8,94.2,38.9,145C288.1,1402,300.3,1427.9,343.7,1303z M311.6,1436.8c31.2-1.2,87.2,51.1,87.2,79.8h0
		c-8,21.2-24.9,41.1-41.1,63.6c-1.2,0-2.5,1.2-3.7,1.2c-12.5,2.5-73.5-72.3-71-86c1.2-2.5,1.2-5,2.5-7.5
		C294.1,1470.4,284.2,1438,311.6,1436.8z M339,1642.4c12.5-18.7,21.2-26.2,38.6-5c16.1,18.4,33.1,35.8,51.1,52.3
		c6.2,7.5,18.7,13.7,2.5,23.7c-71,39.9-143.3,81-214.3,120.9c-2-1.8-3.6-3.9-5-6.2C253.7,1765.8,296.1,1704.7,339,1642.4z
		 M408.3,1547.7L408.3,1547.7c11.2,39.9,21.2,79.8,32.4,122.1C359.7,1612.5,357.2,1605,408.3,1547.7z M438.2,1461.7
		c-13.7,21.2-28.7,12.5-33.6-5c-17.4-59.8-33.6-119.6-48.6-179.4c-6.2-19.9,11.2-15,21.2-15h198.1
		C526.6,1333.4,483,1398.2,438.2,1461.7z M615.1,1080.4c-76,19.9-152,39.9-231.8,61.1l0,0c5-72.3,29.9-119.6,96-145.8
		c49.8-19.9,94.7-52.3,148.3-82.2v149.5C628.7,1071.1,623.3,1078.8,615.1,1080.4z M626.3,697.8v185.7h0
		c-46.1-26.2-87.2-51.1-127.1-74.8c-13.7-7.5-17.4-15-3.7-28.7c33.6-32.4,66-64.8,98.4-98.4c6.1-8.9,17.7-12,27.4-7.5
		C631.3,677.9,626.3,689.1,626.3,697.8z M488,748.9c12.5-88.5,18.7-94.7,83.5-74.8C542.8,700.3,514.2,725.2,488,748.9z M616.4,269.2
		c2.5,1.2,6.2,1.2,8.7,2.5l0,165.7c0,68.5,0,68.5-76,78.5C571.5,432.4,593.9,350.2,616.4,269.2z M534.1,567
		c5-32.4,29.9-28.7,51.1-37.4c36.1-15,43.6,1.2,39.9,32.4v15h0c0,67.3-33.6,92.2-96,69.8c-7.5-2.5-12.5-5-11.2-12.5
		C522.9,611.8,530.4,589.4,534.1,567z M247.5,618.1c89-22.4,178.2-46.1,271.7-69.8c-7.5,29.9-13.7,53.6-19.9,78.5
		c-5,19.9-19.9,16.2-33.6,15c-72.3-6.2-145.8-11.2-219.3-17.4C247.3,622.4,247.7,620.2,247.5,618.1z M466.8,660.4
		c17.4,1.2,21.2,7.5,17.4,24.9c-22.4,102.2-21.2,102.2-109.7,49.8c-46.1-27.4-93.5-54.8-144.6-84.7
		C313.6,643,390.8,656.7,466.8,660.4z M196.4,666.7c-1.2-3.7-1.2-6.2-2.5-10c3.7,0,6.2,1.2,10,1.2h0c74.8,43.6,150.8,88.5,228,132.1
		c7.5,5,18.7,7.5,6.2,21.2c-51.1,52.3-100.9,105.9-150.8,159.5c-4.8-1.6-9.4-3.6-13.7-6.2C247.5,864.8,222.6,766.4,196.4,666.7z
		 M261.2,1013.1c3.7,3.7,7.5,5,7.5,6.2c17.4,63.6,17.4,63.6-39.9,96c-42.4,24.9-86,48.6-133.3,74.8
		C152.8,1127.7,206.4,1070.4,261.2,1013.1z M59.4,1262.3L59.4,1262.3c79.8,0,158.3,0,238-1.2c21.2,0,29.9,3.7,21.2,28.7
		c-12.5,33.6-11.2,87.2-33.6,98.4c-26.2,13.7-62.3-27.4-93.5-43.6c-44.9-23.7-88.5-51.1-133.3-76
		C58.6,1266.5,59.1,1264.4,59.4,1262.3z M90.5,1317.2l1.2-1.2c63.6,23.7,118.4,63.6,176.9,96c16.2,8.7,12.5,31.2-11.2,78.5
		C200.2,1433,142.8,1378.2,90.5,1317.2z M269.9,1537.7c3.7,1.2,7.5,1.2,8.7,2.5c64.8,62.3,64.8,62.3,13.7,135.8
		c-27.4,39.9-56.1,78.5-83.5,117.1l-6.2-5L269.9,1537.7z M193.9,1870.4c87.2-49.8,165.7-94.7,245.5-139.6c10-6.2,15-5,18.7,7.5
		c18.7,71,37.4,140.8,58.6,219.3C405.8,1926.5,304.8,1899.1,193.9,1870.4z M619.4,2234.3c-2.5,0-5,1.2-7.5,1.2
		c-22.4-81-43.6-162-66-245.5l-0.5,0c8.7-1.2,11.2-2.5,14.2-1.2c59.8,13.7,59.8,13.7,59.8,76V2234.3z M621.4,1980.1
		c-8.7,1.2-10,2.5-10,2.5c-54.8-3.7-84.7-31.2-92.2-87.2c-7.5-47.4-22.4-92.2-27.4-142.1c39.9,39.9,82.2,77.3,118.4,120.9
		C636.3,1905.3,611.4,1944,621.4,1980.1z M626.3,1382l-3.7,174.5c0,22.4-3.7,32.4-27.4,17.4c-42.4-24.9-84.7-49.8-128.4-72.3
		c-18.7-10-18.7-18.7-7.5-34.9c43.6-62.3,87.2-124.6,129.6-188.2c4.9-11,16.8-17.2,28.7-15c17.4,2.5,8.7,16.2,8.7,24.9
		C627.6,1319.6,626.3,1350.8,626.3,1382z M1698,793.8c-37.4-24.9-83.5-34.9-99.7-83.5c-6.5-13.9-6-30.1,1.2-43.6
		c32.4-53.6,63.6-107.2,93.5-160.8c12.5-21.2,19.9-17.4,36.1-3.7c27.4,23.7,37.4,47.4,24.9,83.5C1732.9,654.2,1716.7,724,1698,793.8
		z M1853.8,1733.4L1853.8,1733.4c0,103.4,0,103.4-103.4,94.7c-49.8-3.7-100.9-8.7-150.8-12.5c-12.5-1.2-22.4-2.5-26.2-17.4
		c-3.7-15,10-16.2,18.7-21.2c78.5-43.6,155.8-87.2,233-132.1c23.7-13.7,31.2-7.5,28.7,18.7
		C1852.5,1687.3,1853.8,1709.7,1853.8,1733.4z M1403.9,2048.6c-42.4-31.2-91-54.8-139.6-83.5c44.9-24.9,86-48.6,128.4-73.5
		c7.3-5.6,17.7-4.5,23.7,2.5c54.8,54.8,110.9,109.7,168.2,167l0,0c-7.5,6.2-8.7,7.5-8.7,7.5C1514.8,2096,1458.8,2091,1403.9,2048.6z
		 M1455,2101c-64.8,16.2-122.1,32.4-179.4,47.4c-13.7,3.7-18.7,0-18.7-15v-149.5C1325.4,2023.7,1386.5,2059.8,1455,2101z
		 M822,2039.9c-17.4-5-8.7-15-3.7-23.7c32.4-56.1,66-112.2,100.9-173.2l0,0c36.1,76,69.8,145.8,102.2,215.6
		c12.5,24.9,0,33.6-19.9,28.7C941.6,2073.6,881.8,2056.1,822,2039.9z M986.5,2103.5c-82.2,54.8-84.7,53.6-157-42.4
		C883,2076,932.9,2088.5,986.5,2103.5z M797.6,1729.6c1.2-6.2,5-12.5,12.5-7.5c26.2,16.2,57.3,23.7,76,51.1s26.2,54.8,2.5,87.2
		c-28.4,41.7-53.8,85.5-76,130.8c-18.7,36.1-33.6,33.6-54.8,5c-8.7-12.5-26.2-18.7-22.4-38.6v0
		C755.9,1881.7,775.9,1805.6,797.6,1729.6z M643.8,538.3c-0.2-1-0.4-2.1-0.4-3.1c-1.1-13.7,9.2-25.7,22.9-26.8
		c27.4-5,54.8-12.5,82.2-19.9h0c3.3-0.6,6.7-0.6,10,0c-2.3,1.5-4.1,3.7-5,6.2c-34.9,33.6-69.8,68.5-109.7,107.2
		C643.8,578.2,645,558.3,643.8,538.3z M652.5,625.6c44.9-47.4,91-93.5,140.8-144.6h0c38.6,67.3,72.3,127.1,112.2,194.4
		c-88.5-6.2-169.5-11.2-249.2-19.9C632.6,653,642.5,635.5,652.5,625.6z M1077.4,449.9c46.1,36.1,100.9,62.3,157,94.7
		c-44.9,26.2-84.7,48.6-124.6,72.3c-10,6.2-17.4,10-27.4,0c-54.8-56.1-110.9-110.9-169.5-169.5
		C972.8,423.7,1022.6,407.5,1077.4,449.9z M1043.8,410L1043.8,410c63.6-17.4,119.6-32.4,176.9-47.4c13.7-3.7,21.2-2.5,21.2,15v148.3
		C1174.6,487.2,1112.3,449.9,1043.8,410z M1195.1,932.1c-12.5-15-32.4,1.2-47.4,5c-62.3,15-61.1,16.2-93.5-39.9
		c-27.4-49.8-54.8-99.7-84.7-148.3c-11.2-19.9-10-29.9,11.2-38.6c12.5-5,23.7-11.2,34.9-16.2c26.2-11.2,49.8-41.1,74.8-36.1
		c28.7,6.2,46.1,39.9,68.5,61.1c69.3,69.8,137.8,140.8,208.9,208.1c26.8,24.6,43.3,58.4,46.1,94.7l0,0
		c-80.5-13.7-159.5-26.2-237.5-41.1c0-2.5-1.2-5,0-7.5C1180.1,958.3,1208.8,949.5,1195.1,932.1z M645,773.8l0.5-12.5
		c0-88.5,0-88.5,86-82.2c54.8,3.7,110.9,10,165.7,13.7c12.5,1.2,23.2,1.2,26.9,16.2s-10,16.2-17.4,21.2L671.2,864.8
		c-24.9,15-27.4,3.7-26.2-17.4C646.3,822.4,645,798.8,645,773.8z M723.5,857.3c66-32.4,127.1-69.8,189.4-107.2
		c23.7-15,32.4-7.5,43.6,13.7c29.9,57.3,62.3,113.4,96,168.2c13.7,22.4,10,28.7-15,34.9c-118.4,29.9-236.8,62.3-355.1,94.7
		c-26.2,7.5-36.1,5-32.4-23.7c1.2-17.4,0-36.1,0-64.8h0C628.8,914.7,667.5,883.5,723.5,857.3z M646.3,1218.7
		c1.2-16.2,3.7-33.6,3.7-49.8c1.2-78.5,1.2-78.5,74.8-98.4c96-24.9,191.9-49.8,287.9-77.3c38.6-11.2,76-16.2,117.1,3.7l0,0
		c-52.3,62.3-103.4,124.6-153.3,186.9c-17.4-12.5-10-44.9-31.2-42.4c-18.7,2.5-13.7,29.9-19.9,46.1c-4.5,12.1-7.8,24.6-10,37.4
		c0,0.3-0.1,0.7-0.1,1c-2.3,14.1-15.6,23.7-29.8,21.4c-71-1.2-142.1-2.5-213.1-1.2C650,1246.1,643.8,1237.4,646.3,1218.7z
		 M911.7,424.9c-12.7,4.6-26.8-1.4-32.4-13.7c-8.7-13.7,5-18.7,11.2-24.9c29.9-32.4,31.2-32.4,99.7,17.4
		C961.5,411.2,935.4,416.2,911.7,424.9z M883.5,363.9c-16.2,23.7-31.2,24.9-52.3,1.2c-31.2-34.9-66-67.3-99.7-100.9
		c1.2-2.5,2.5-6.2,3.7-8.7c58.1,22.4,106.7,62.3,159.5,88.5C896,355.1,887.3,357.6,883.5,363.9z M930.4,492.2
		c47.4,46.1,93.5,92.2,144.6,142.1c-23.3,15.4-47.4,29.6-72.3,42.4c-34.8,15.7-75.8,1.5-93.5-32.4c-32.4-57.3-64.8-113.4-97.2-170.7
		h0C883,444.9,883,446.1,930.4,492.2z M642.5,1294.7c0-23.7,3.7-33.6,31.2-32.4c67.3,2.5,134.6,1.2,201.9,1.2
		c17.4,0,27.4,2.5,21.2,23.7c-36.1,130.8-71,261.7-107.2,396.3c-22.4-13.7-41.1-23.7-58.6-33.6c-92.2-52.3-92.2-52.3-89.7-157
		C643.8,1426.8,643.8,1360.8,642.5,1294.7z M940.4,1839.3c-6.2-11.2-10-21.2,1.2-31.2c8.7-8.7,16.2,0,23.7,3.7
		c86,49.8,170.7,100.9,260.4,153.3c-53.6,31.2-102.2,59.8-149.5,88.5c-16.2,11.2-27.4,15-37.4-8.7
		C1007.7,1976.4,974,1907.8,940.4,1839.3z M916.7,1758.3c-10-6.2-18.7-13.7-28.7-19.9c-26.2-18.7-69.8-22.4-76-52.3
		c-6.2-27.4,12.5-61.1,21.2-92.2c24.9-89.7,51.1-178.2,72.3-269.2c7.3-38.3,29.2-72.2,61.1-94.7c24.9,68.5,48.6,135.8,76,199.4
		c7.5,22.4,6.2,31.2-19.9,26.2c-8.7-1.2-19.9-5-24.9,5s6.2,15,11.2,22.4c17.4,23.7,57.3,37.4,54.8,68.5
		c-2.5,26.2-26.2,51.1-41.1,77.3c-23.7,39.9-47.4,79.8-69.8,120.9C942.9,1768.3,932.9,1770.7,916.7,1758.3z M1063.7,1444.3
		c-26.2-71-52.3-143.3-78.5-214.3c-6.9-12.8-4.3-28.6,6.2-38.6c51.1-58.6,100.9-118.4,149.5-178.2c7.3-11.1,20.9-16.2,33.6-12.5
		c74.8,13.7,150.8,27.4,225.5,39.9c16.8,1.6,30.8,13.6,34.9,29.9c24.9,68.5,49.8,138.3,76,206.9c7.7,15,4.6,33.2-7.5,44.9
		c-48.6,56.1-96,114.6-144.6,172c-8.7,10-15,22.4-28.7,16.2v0c-82.2-13.7-160.8-27.4-240.5-41.1
		C1073.7,1466.7,1068.7,1456.7,1063.7,1444.3z M1322.9,1529c0,21.2-33.6,31.2-19.9,47.4s37.4,1.2,53.6-6.2c43.6-19.9,66-3.7,86,36.1
		c24.9,52.3,56.1,102.2,86,152c12.5,21.2,10,32.4-12.5,41.1c-14.5,5.9-28.6,12.5-42.4,19.9c-68.5,37.4-68.5,37.4-122.1-16.2
		c-71-71-140.8-142.1-211.8-211.8c-27.4-27.4-53.6-54.8-53.6-103.4C1165.9,1501.6,1244.4,1515.3,1322.9,1529z M1585.9,2086
		c12.8-4.8,27.1,0.5,33.6,12.5c7.5,12.5-6.2,17.4-12.5,24.9c-29.9,32.4-29.9,32.4-98.4-17.4
		C1537.3,2098.5,1562.2,2093.5,1585.9,2086z M1569.7,2025c-39.9-46.1-84.7-87.2-128.4-129.6c-17.4-17.4-16.2-24.9,6.2-34.9
		c27.4-12.5,48.6-37.4,83.5-29.9h0c29.9-7.5,44.9,10,58.6,36.1c27.4,51.1,56.1,100.9,86,150.8c8.7,16.2,7.5,22.4-11.2,29.9
		C1627,2062.3,1598.3,2058.6,1569.7,2025z M1774.5,1652.4c-64.8,32.4-127.1,71-189.4,107.2c-19.9,11.2-29.9,12.5-42.4-10
		c-31.2-59.8-64.8-118.4-99.7-175.7c-12.5-19.9-5-26.2,13.7-31.2c122.1-31.2,243-62.3,363.9-96c23.7-6.2,31.2-2.5,28.7,21.2
		c-1.2,18.7,0,38.6,0,68.5h-0.5C1870,1595,1831.8,1626.2,1774.5,1652.4z M1852.5,1296c-1.2,15-3.7,31.2-3.7,46.1
		c-1.2,78.5-1.2,77.3-78.5,98.4c-93.5,24.9-186.9,49.8-280.4,76c-39.9,11.2-79.8,19.9-120.9-3.7l154.5-184.4
		c17.4,11.2,8.7,44.9,29.9,41.1c21.2-3.7,17.4-32.4,22.4-49.8c16.2-56.1,16.2-56.1,73.5-56.1c57.3,0,115.9,1.2,174.5,0
		C1848.8,1263.6,1855,1273.5,1852.5,1296z M1590.8,1200c-8.7,34.9-27.4,57.3-57.3,81c-28.7-77.3-54.8-150.8-82.2-224.3l0,0
		c17.4-12.5,44.1,10,49.8-11.2c6.2-16.2-18.7-27.4-31.2-39.9c-41.1-42.4-41.1-41.1-11.2-93.5c28.7-48.6,58.6-94.7,83.5-144.6
		c15-29.9,29.9-27.4,52.3-10c7.2,5.8,14.7,11.2,22.4,16.2c22.4,17.4,63.6,22.4,69.8,48.6c6.2,26.2-11.2,57.3-18.7,86
		C1643.2,1005.6,1614.5,1102.8,1590.8,1200z M1676.8,471c16.2,3.7,8.7,15,3.7,23.7c-32.4,56.1-64.8,112.2-100.9,173.2h0
		c-37.4-76-69.8-147-102.2-215.6c-11.2-23.7-1.2-33.6,19.9-28.7C1557.2,437.4,1617,454.8,1676.8,471z M1513.6,406.2
		c89.7-54.8,54.8-67.3,159.5,43.6C1614.5,434.9,1565.9,421.2,1513.6,406.2z M1558.4,667.9c5,10,11.2,21.2,1.2,32.4
		c-12.5,13.7-21.2,0-29.9-5c-84.7-48.6-168.2-98.4-256.7-150.8c56.1-32.4,108.4-62.3,158.3-92.2c16.2-10,22.4-3.7,28.7,10
		C1492.4,530.8,1526,599.4,1558.4,667.9z M1736.6,467.3c-17.4,0-10-13.7-5-22.4c31.2-53.6,62.3-105.9,93.5-159.5
		c3.4,0.2,6.8,1.1,10,2.5h0c-15.7,58.6-29.9,119.6-49.8,178.2C1776.5,494.7,1754.1,467.3,1736.6,467.3z M1798.9,291.6
		c-29.9,52.3-61.1,104.7-91,157c-33.6-34.9-63.6-67.3-96-100.9c71-41.1,143.3-89.7,220.6-127.1
		C1831.3,249.2,1811.4,269.2,1798.9,291.6z M1576.4,271.7c66-18.7,132.1-34.9,199.4-52.3l3.7,7.5h-0.5
		c-59.3,33.6-118.4,72.3-178.9,103.4c-24.9,12.5-41.1-19.9-51.1-39.9S1566.4,274.1,1576.4,271.7z M1506.1,287.9
		c27.4,8.7,41.1,34.9,61.1,51.1c1,3.5,0,7.3-2.5,10c-26.4,17.8-54.4,33.2-83.5,46.1c-21.2,7.5-72.3-54.8-66-77.3
		c0-3.7,6.2-7.5,10-8.7C1451.3,301.6,1477.4,295.3,1506.1,287.9z M1489.9,269.2c-0.7,0.6-1.2,1.5-1.2,2.5
		c-82.2,28.7-83.5,28.7-120.9-49.8c-19.9-42.4-39.9-83.5-61.1-129.6C1337.9,104.7,1470,234.3,1489.9,269.2z M1261.9,69.8
		c3.7,0,6.2-1.2,10-1.2c33.6,71,67.3,142.1,100.9,210.6c6.2,12.5,7.5,19.9-8.7,26.2c-97.2,38.6-102.2,36.1-102.2-66V69.8z
		 M1284.3,363.9c43.6,13.7,87.2,24.9,130.8,36.1c10,2.5,19.9,5,22.4,17.4c1.2,7.5-3.7,11.2-10,15c-54.8,31.2-108.4,63.6-168.2,98.4
		V382.6C1258.1,362.6,1265.6,357.6,1284.3,363.9z M1281.1,570.7c79.8,48.6,159.5,96,240.5,142.1c19.9,11.2,21.2,19.9,10,38.6
		c-36.1,57.3-68.5,115.9-102.2,174.5c-8.7,16.2-15,23.7-32.4,6.2c-96-94.7-191.9-188.2-292.8-286.6h-0.5c49.8-28.7,91-51.1,131.3-76
		C1249,559.9,1267.6,560.4,1281.1,570.7z M1021.9,255.5c70.5-72.3,140.3-144.6,210.1-216.8c3.7,2.5,6.2,5,10,7.5l0.5,262.9
		c0,18.7-7.5,23.7-23.7,18.7c-67.3-18.7-135.8-37.4-206.9-57.3C1014.8,265.1,1018.1,260.1,1021.9,255.5z M1006.4,291.6
		c62.3,16.2,125.9,32.4,188.2,49.8v8.7c-49.8,13.7-100.9,27.4-152,42.4c-42.4,10-67.3-26.2-99.7-41.1c-2.5-1.2-3.7-7.5-3.7-10
		C940.4,327.7,992.7,287.9,1006.4,291.6z M962.8,276.6c-37.4,61.1-41.1,62.3-94.7,29.9c-46.1-28.7-97.2-52.3-139.6-87.2
		C810,229.3,884.8,261.7,962.8,276.6z M707.3,264.2c42.4,42.4,86,84.7,125.9,129.6c21.2,24.9-13.7,29.9-21.2,43.6
		c-6.2,11.2-15,12.5-22.4-1.2c-31.2-54.8-62.3-108.4-93.5-163.2C699.9,270.4,703.6,266.7,707.3,264.2z M643.8,388.8
		c-2.5-52.3-1.2-103.4-1.2-155.8c2.6-0.3,5.2-1.1,7.5-2.5h0c39.9,69.8,79.8,139.6,119.6,210.6c8.7,13.7,6.2,21.2-10,23.7
		c-1.2,0-2.5,1.2-3.7,1.2c-34.9,8.7-78.5,34.9-102.2,22.4C626.3,473.5,645,423.7,643.8,388.8z M638.8,1826.8
		c6.2-64.8,1.2-130.8,1.2-204.4c48.6,28.7,89.7,52.3,130.8,76c13.7,8.7,10,18.7,6.2,29.9c-19.9,72.3-38.6,144.6-59.8,224.3
		C681.2,1912.8,632.6,1891.6,638.8,1826.8z M643.8,1909.1L643.8,1909.1c19.9,19.9,38.6,38.6,57.3,56.1c11.2,10,7.5,19.9,3.7,31.2
		c-5,17.4-17.4,5-24.9,3.7C632.6,1990.1,627.6,1980.1,643.8,1909.1z M640,2235.6c-1.2,0-2.5-1.2-3.7-1.2v0c0-73.5,0-145.8-1.2-218.1
		c3.7-1.2,6.2-3.7,7.5-3.7c54.8,11.2,53.6,12.5,39.9,64.8C668.7,2129.6,653.8,2183.2,640,2235.6z M662.5,2225.6
		c16.2-58.6,31.2-118.4,48.6-176.9c10-36.1,34.9-6.2,49.8-5c24.9,3.7,7.5,19.9,2.5,28.7c-26.2,46.1-52.3,91-79.8,137.1
		C678.7,2216.9,677.4,2226.8,662.5,2225.6L662.5,2225.6z M663.7,2286.6c42.4-74.8,84.7-150.8,127.1-226.8
		c38.6,31.2,67.3,66,100.9,100.9c-77.3,43.6-148.3,91-225.5,128.4L663.7,2286.6z M719.8,2289.1L719.8,2289.1
		C719.8,2289.1,719.8,2289.1,719.8,2289.1c53.6-43.6,114.6-74.8,174.5-105.9c32.4-15,39.9,28.7,72.3,46.1
		C875.6,2250.5,800.8,2279.2,719.8,2289.1z M995.2,2221.8L995.2,2221.8c-12.5-1.2-63.6-44.9-63.6-53.6c-0.8-2.5-0.4-5.3,1.2-7.5
		c5-10,83.5-47.4,94.7-46.1c41.1,5,38.6,46.1,56.1,71c5,7.5-1.2,13.7-7.5,15C1048.8,2208.1,1021.4,2215.6,995.2,2221.8z
		 M1082.4,2129.6c42.4,11.2,78.5,21.2,118.4,31.2C1119.8,2201.9,1104.9,2198.2,1082.4,2129.6z M1020.1,2260.5
		c-17.4-15-16.2-21.2,7.5-27.4c68.5-18.7,68.5-19.9,98.4,43.6c23.7,51.1,48.6,102.2,72.3,153.3
		C1138.5,2371.4,1078.7,2315.3,1020.1,2260.5z M1234.4,2357.7v84.7c-2.5,0-3.7,1.2-6.2,1.2l0,0c-33.6-69.8-67.3-140.8-102.2-210.6
		c-8.7-18.7-6.2-24.9,15-31.2c94.7-27.4,94.7-28.7,94.7,71C1235.7,2301.6,1234.4,2329,1234.4,2357.7z M1239.4,2064.8
		c0,88.5,0,88.5-84.7,66c-24.9-6.2-49.8-13.7-74.8-19.9c-10-2.5-17.4-7.5-18.7-17.4c-1.2-10,7.5-12.5,13.7-16.2
		c46.1-27.4,93.5-53.6,139.6-82.2c23.7-15,26.2-3.7,24.9,16.2V2064.8L1239.4,2064.8z M1220,1939c-81-48.6-162-96-244.2-143.3
		c-15-8.7-19.9-16.2-10-32.4c39.9-66,77.3-132.1,118.4-201.9l0,0c99.7,99.7,195.1,195.6,292.8,291.6c11.2,11.2,12.5,16.2-2.5,24.9
		c-37.4,19.9-73.5,42.4-110.9,63.6C1249.9,1949.4,1232.7,1948.5,1220,1939z M1471.2,2259.2c-67.3,71-135.8,140.8-203.1,211.8
		l-11.2-7.5h0c0-88.5,0-176.9-1.2-266.7c0-17.4,8.7-18.7,22.4-15c63.6,17.4,127.1,36.1,190.7,52.3
		C1494.9,2240.5,1479.9,2250.5,1471.2,2259.2z M1487.4,2219.4c-61.1-16.2-123.4-33.6-184.4-49.8c1-2.8,1.4-5.8,1.2-8.7h0
		c51.1-13.7,103.9-29.9,155.8-41.1c39.9-8.7,63.6,26.2,96,41.1c1.6,3.1,2.4,6.5,2.5,10C1555.9,2187,1503.6,2223.1,1487.4,2219.4z
		 M1757.8,2291.6L1757.8,2291.6c-73.5-19.9-147-38.6-220.6-58.6c26.2-56.1,41.1-61.1,91-31.2l134.6,78.5
		C1760.6,2283.9,1759,2287.7,1757.8,2291.6z M1768.3,2263c-56.1-33.6-110.9-67.3-173.2-103.4h0c10.7-8.7,18.2-12.5,22.4-18.7
		c16.2-22.4,28.7-19.9,47.4,0c27.4,31.2,58.6,58.6,87.2,88.5C1760.8,2238,1774.5,2244.3,1768.3,2263z M1790.2,2243
		c-42.4-41.1-82.2-82.2-120.9-123.4c-23.7-27.4,10-33.6,19.9-46.1c13.7-21.2,19.9,1.2,24.9,10l71,123.4
		C1794.2,2216.8,1796.2,2231.1,1790.2,2243z M1855,2276.7c-2.5,1.2-3.7,1.2-6.2,2.5c-39.9-68.5-79.3-138.3-119.6-208.1
		c-8.7-15-7.5-22.4,11.2-26.2c37.4-8.7,74.8-19.9,114.6-29.9V2276.7z M1760.3,2016.2c31.2-29.9,64.8-62.3,94.7-92.2
		C1858.8,2006.3,1850,2015,1760.3,2016.2z M1845,1887.9c-43.6,47.4-88.5,96-137.1,148.3c-41.1-72.3-74.8-133.3-114.6-200.6
		c87.2,7.5,167,12.5,245.5,19.9C1866.2,1858,1856.3,1875.4,1845,1887.9z M1856.8,943.3c-1.2,89.7-1.2,178.2-1.2,267.9
		c1.2,26.2-5,38.6-36.1,37.4c-66-3.7-132.1-1.2-198.1-1.2c-16.2,0-24.9-1.2-19.9-21.2c36.1-132,72.2-264,108.3-398.5
		c44.7,24.8,85.7,48.4,125.9,74.5C1850.4,910.3,1858.8,926.6,1856.8,943.3z M1860,701.6c-7.5,58.6-1.2,118.4-1.2,185.7
		c-48.6-27.4-89.2-52.3-130.8-74.8c0,0-0.1,0-0.1-0.1c-8.6-3.8-12.4-13.8-8.6-22.4c21.2-74.8,41.1-150.8,62.3-230.5
		C1828.8,598.1,1868.7,633,1860,701.6z M1852.5,610.6L1852.5,610.6c-20.7-24.9-36.1-44.9-53.6-63.6c-8.3-8.2-10.3-20.8-5-31.2
		c6.2-15,17.4-7.5,26.2-6.2C1866.2,518.4,1870,529.6,1852.5,610.6z M1844.3,496c-13.7-6.2-46.1,6.2-37.4-28.7
		c16.2-62.3,33.6-123.4,49.8-185.7h5.7c0,64.8,0,128.4-0.7,193.1C1861.7,486,1866.7,507.2,1844.3,496z M2400.8,1190.1
		c-1.2,1.2-1.2,3.7-2.5,5v0c-57.3-32.4-115.9-61.1-169.5-97.2c-27.4-19.9,6.2-48.6,6.2-72.3
		C2291.2,1080.4,2346,1135.2,2400.8,1190.1z M1878.7,1313.4c17.4-36.1,42.4-62.3,92.2-46.1l0,0c47.9,0,98.4,1.2,150.8,0
		c19.9,0,23.7,7.5,19.9,26.2c-7.5,34.9-18.7,58.6-61.1,66c-59.8,11.2-119.6,29.9-179.4,47.4c-21.2,6.2-32.4,2.5-28.7-21.2
		C1876.2,1362,1866.2,1337.1,1878.7,1313.4z M1876.2,660.4c51.1,49.8,97.2,93.5,144.6,139.6c-41.1,23.7-81,46.1-120.9,68.5
		c-16.2,8.7-23.7,7.5-23.7-12.5V660.4z M2014.5,826.2c15-8.7,18.7-3.7,22.4,11.2c11.2,44.9,24.9,89.7,36.1,134.6
		c4.4,9.9,1.8,21.5-6.2,28.7c-10,6.2-16.2-3.7-23.7-7.5c-52.3-28.7-104.7-58.6-160.8-91l0,0C1929.8,874.8,1972.2,851.1,2014.5,826.2
		z M2142.1,755.2c43.6-24.9,87.2-48.6,130.8-73.5c2.5-1.2,5,0,16.2,0l-0.5,0c-47.4,68.5-91,132.1-132.8,194.4
		c-8.7,13.7-13.7,13.7-26.2,2.5C2051.2,806.2,2049.9,807.5,2142.1,755.2z M2093,1054.2c17.4,58.6,32.4,117.1,47.4,175.7
		c6.2,19.9-8.7,17.4-19.9,17.4h-198.1c49.8-71,93.5-134.6,134.6-199.4C2073.1,1025.6,2086.8,1034.3,2093,1054.2z M2121.7,1451.7
		c-1.2-28.7,11.2-53.6,17.4-78.5c2.5-11.2,12.5-15,23.7-16.2c15-1.2,15,11.2,17.4,19.9C2195.2,1419.3,2187.7,1429.3,2121.7,1451.7z
		 M1876.2,1444.3c21.2-38.6,87.2-31.2,133.3-46.1c34.9-11.2,69.8-18.7,109.7-28.7c-8.7,32.4-16.2,58.6-22.4,86
		c-3,12.7-11.8,23.3-23.7,28.7c-28.7,15-56.1,31.2-84.7,47.4c-36.1,21.2-73.5,41.1-113.4,63.6L1876.2,1444.3z M2084.3,1500.3
		c-17.4,66-33.6,124.6-49.8,183.2c-5,17.4-16.2,7.5-23.7,2.5c-39.9-22.4-78.5-46.1-124.6-73.5
		C1953.5,1573.9,2014.5,1539,2084.3,1500.3z M2101.8,1510.3c5-19.9,69.8-69.8,87.2-68.5c3.4,0.7,6.4,2.4,8.7,5
		c18.7,21.2,16.2,74.8-3.7,94.7c-34.9,34.9-69.8,69.8-104.7,103.4c-7.5,6.2-13.7,16.2-28.7,12.5
		C2074.3,1606.3,2088,1557.7,2101.8,1510.3z M2203.2,1388.2c-1.2-13.7-18.7-34.9,3.7-42.4c57.2-17.4,114.3-34.8,176.4-37.4
		c-54.8,29.9-108.4,61-162.7,90.9C2208.2,1406.9,2204.4,1396.9,2203.2,1388.2z M2203.9,1324.6c-31.2,7.5-22.4-24.9-27.4-39.9
		c-7.5-21.2,12.5-17.4,23.7-17.4h200.6c0.3,1.9,1.2,3.6,2.5,5C2337.3,1289.7,2271.2,1308.4,2203.9,1324.6z M2157.8,1218.7
		c-15-57.3-27.4-104.7-42.4-159.5C2200.2,1102.8,2200.2,1102.8,2157.8,1218.7z M2185.2,1075.4c-24.4-11.8-47.7-25.5-69.8-41.1
		c-1-0.7-1.9-1.4-2.8-2.2c-15.8-13.3-17.9-36.8-4.6-52.7c7.5-11.2,15-21.2,21.2-32.4c11.2-23.7,22.4-18.7,36.1-2.5
		c17.4,21.2,41.1,37.4,54.8,58.6h0c-6.2,23.7-11.2,43.6-17.4,66C2200.2,1077.9,2194,1080.4,2185.2,1075.4z M2227.6,973.2
		c-3.7-1.2-7.5-1.2-8.7-2.5c-66-59.8-66-59.8-16.2-132.1c27.4-38.6,53.6-77.3,81-115.9c3.7,1.2,7.5,3.7,11.2,5
		C2272.5,808.7,2251.3,891,2227.6,973.2z M2304.9,640.5c-91,51.1-174.5,98.4-260.4,147c-21.2-77.3-41.1-153.3-62.3-234.3
		C2090.5,581.9,2192.7,610.6,2304.9,640.5z M1968.4,580.7c15,56.1,29.9,113.4,44.9,170.7c-1.9,1.5-4,2.8-6.2,3.7
		c-39.9-39.9-79.8-79.8-119.6-118.4c-8.7-10-13.7-91-6.2-100.9c1.9-3,5.2-4.9,8.7-5C1918.6,524.6,1960.9,552,1968.4,580.7z
		 M1877.9,457.3c5-62.3,1.2-124.6,1.2-186.9h7c21.2,77.3,41.1,154.5,61.6,231.8c5,18.7-1.2,21.2-19.9,17.4
		C1891.7,513.4,1874.2,499.7,1877.9,457.3z M1872.5,1218.7v-97.2l2.5-170.7c0-21.2,5-28.7,26.2-16.2c42.4,26.2,86,51.1,130.8,74.8
		c17.4,8.7,17.4,17.4,7.5,32.4c-43.6,62.3-87.2,124.6-129.6,188.2c-7.5,12.5-17.4,19.9-31.2,15
		C1865,1239.9,1872.5,1227.4,1872.5,1218.7z M1871.2,1811.9v-185.7c47.9,27.4,87.2,52.3,128.4,76c15,8.7,16.2,16.2,3.7,28.7
		c-32.4,31.2-64.8,63.6-96,96c-6.5,8.4-16.9,12.7-27.4,11.2C1865,1833.1,1871.2,1820.6,1871.2,1811.9z M2012,1748.3
		c-22.4,115.9-15,102.2-84.7,89.7C1951,1804.4,1980.9,1780.7,2012,1748.3z M1882.4,2240.5c-2.5,0-6.2-1.2-8.7-1.2
		c0-63.6,1.2-128.4-1.2-191.9c-1.2-28.7,6.2-43.6,36.1-46.1c13.9-2.4,27.7-5.7,41.1-10C1926,2077.3,1904.9,2159.5,1882.4,2240.5z
		 M1929.8,1976.4c-66,16.2-54.8,18.7-56.1-42.4l0,0c0-58.6,10-76,48.6-72.3c19.9,1.2,48.6-11.2,58.6,13.7
		C1990.8,1900.3,1952.2,1970.1,1929.8,1976.4z M2252.5,1891.6c-89.7,23.7-178.2,47.4-272.9,73.5c7.5-29.9,13.7-56.1,19.9-81
		c5-19.9,21.2-15,34.9-13.7c72.3,5,143.3,10,215.6,16.2C2251.3,1887.9,2251.3,1890.4,2252.5,1891.6L2252.5,1891.6z M2039.4,1851.7
		c-19.9-1.2-28.7-6.2-22.4-31.2c24.9-94.7,23.7-94.7,108.4-44.9l149.5,93.5C2192.7,1863,2115.5,1856.7,2039.4,1851.7z M2309.9,1863
		c-89.7-53.6-172-102.2-250.5-148.3h0c56.1-56.1,109.7-110.9,167-165.7C2252.5,1649.9,2279.9,1752.1,2309.9,1863z M2233.8,1491.6
		c-1.5-1.5-2.7-3.2-3.7-5c-18.7-61.1-19.9-61.1,37.4-92.2c43.6-23.7,88.5-47.4,132.1-71l5,3.7
		C2347.2,1382,2291.2,1436.8,2233.8,1491.6z M2434.5,1247.4h-234.3c-17.4,0-27.4-1.2-19.9-23.7c10-31.2,17.4-62.3,24.9-93.5
		c3.7-15,8.7-19.9,23.7-11.2c69.8,41.1,139.6,79.8,209.3,119.6C2437.2,1241.6,2435.9,1244.6,2434.5,1247.4z"/>
</g>
</svg>
