<?xml version="1.0" encoding="utf-8"?>
<!-- Generator: Adobe Illustrator 27.0.1, SVG Export Plug-In . SVG Version: 6.00 Build 0)  -->
<svg version="1.1" id="lode" xmlns="http://www.w3.org/2000/svg" xmlns:xlink="http://www.w3.org/1999/xlink" x="0px" y="0px"
	 viewBox="0 0 500 500" style="enable-background:new 0 0 500 500;" xml:space="preserve">
<style type="text/css">
	.st0{fill:#E5D540;}
</style>
<path class="st0" d="M250.5,66.7c6.1,23.3,15.4,45.4,27.4,65.5c4.5-3.6,9-6.9,13.3-10.1C270.6,86.8,258.7,45.7,258.7,2h-16.5
	c0,43.7-11.8,84.8-32.4,120.2c4.3,3.1,8.8,6.5,13.3,10.1C235.1,112.1,244.4,90,250.5,66.7L250.5,66.7z"/>
<path class="st0" d="M378.3,209.3c-4.9-2.7-9.6-5.7-14.1-8.9c-5-3.3-9.7-6.9-14.3-10.6c-4.4-3.4-8.6-6.9-12.7-10.7
	c-5.5-5-10.7-10.3-15.8-15.8c-4.3,3-8.8,6.4-13.2,10c5.9,6.7,12.3,13.1,19,18.9c4.1,3.7,8.3,7.4,12.6,10.7
	c4.6,3.7,9.4,7.2,14.3,10.6c4.6,3.1,9.3,6.1,14.1,9c20.3,12,42.2,21.2,65.5,27.4c-23.3,6.1-45.3,15.4-65.5,27.4
	c-4.8,2.9-9.5,5.9-14.1,9c-4.9,3.4-9.7,6.9-14.3,10.6c-4.4,3.4-8.6,7-12.6,10.7c-6.7,5.9-13.1,12.2-19,18.9c4.5,3.6,8.9,6.9,13.2,10
	c5-5.5,10.3-10.7,15.8-15.8c4.1-3.8,8.4-7.4,12.7-10.7c4.6-3.7,9.3-7.3,14.3-10.6c4.5-3.1,9.3-6.1,14.1-8.9
	c35.4-20.6,76.4-32.4,120.2-32.4v-16.5C454.7,241.7,413.7,229.9,378.3,209.3L378.3,209.3z"/>
<path class="st0" d="M136.8,299.5c5,3.3,9.7,6.9,14.3,10.6c4.4,3.4,8.6,6.9,12.7,10.7c5.5,5,10.7,10.3,15.8,15.8
	c4.3-3,8.8-6.4,13.2-10c-5.9-6.7-12.3-13.1-19-18.9c-4.1-3.7-8.3-7.4-12.6-10.7c-4.6-3.7-9.4-7.2-14.3-10.6c-4.6-3.1-9.3-6.1-14.1-9
	c-20.3-12-42.2-21.2-65.5-27.4c23.3-6.1,45.3-15.4,65.5-27.4c4.8-2.9,9.5-5.9,14.1-9c4.9-3.4,9.7-6.9,14.3-10.6
	c4.4-3.4,8.6-7,12.6-10.7c6.7-5.9,13.1-12.2,19-18.9c-4.5-3.6-8.9-6.9-13.2-10c-5,5.5-10.3,10.7-15.8,15.8
	c-4.1,3.8-8.4,7.4-12.7,10.7c-4.6,3.7-9.3,7.3-14.3,10.6c-4.5,3.1-9.3,6.1-14.1,8.9c-35.4,20.6-76.4,32.4-120.2,32.4v16.5
	c43.8,0,84.8,11.8,120.2,32.4C127.6,293.4,132.3,296.4,136.8,299.5L136.8,299.5z"/>
<path class="st0" d="M250.5,433.3c-6.1-23.3-15.4-45.4-27.4-65.5c-4.5,3.6-9,6.9-13.3,10.1c20.6,35.4,32.4,76.5,32.4,120.2h16.5
	c0-43.7,11.8-84.8,32.4-120.2c-4.3-3.1-8.8-6.5-13.3-10.1C265.9,387.9,256.6,410,250.5,433.3L250.5,433.3z"/>
<path class="st0" d="M373.7,313.1c-4.9,3.3-9.7,6.9-14.3,10.7c20.5,30.8,29.9,55.3,34.1,69.2c-13.9-4.1-38.4-13.5-69.2-34
	c-4.4-3-8.9-6.1-13.6-9.5c-4.3-3.1-8.6-6.4-13.2-10.1c-4.1-3.3-8.4-6.9-12.8-10.6c-3-2.7-6.2-5.5-9.4-8.4h-0.1
	c-4-3.6-7.9-7.4-12-11.3l41.1-41.1l5.3-5.3c4,4.1,7.8,8.1,11.3,12h0.1c2.8,3.2,5.6,6.4,8.3,9.5c4.6-3.7,9.4-7.3,14.3-10.6
	c-3.1-3.7-6.4-7.5-10.1-11.4c-3.6-3.9-7.3-8.1-11.2-12.1c4-4.1,7.7-8.3,11.2-12.1c3.6-3.9,6.9-7.7,10.1-11.4
	c-4.9-3.3-9.7-6.9-14.3-10.6c-2.7,3.1-5.5,6.3-8.3,9.5h-0.1c-3.6,3.9-7.4,7.9-11.3,12l-5.3-5.3l-41.1-41.1c4.1-4,8-7.7,12-11.3h0.1
	c3.2-2.9,6.4-5.7,9.4-8.4c4.4-3.7,8.7-7.3,12.8-10.6c4.5-3.6,8.9-6.9,13.2-10.1c4.7-3.4,9.3-6.5,13.6-9.5
	c30.8-20.5,55.3-29.9,69.2-34.1c-4.1,13.9-13.5,38.4-34.1,69.2c4.6,3.8,9.4,7.4,14.3,10.7c35.6-53,40.2-88.7,40.4-90.7l1.3-11.2
	l-11.2,1.3c-2,0.2-37.7,4.8-90.7,40.4c-4.4,2.9-8.9,6-13.5,9.5c-4.3,3.1-8.7,6.4-13.2,10.1c-4.2,3.3-8.5,6.9-12.9,10.7
	c-3.7,3-7.5,6.4-11.3,10h-0.1c-4,3.6-7.9,7.4-12,11.3l-0.1-0.1l-0.1,0.1c-4.1-4-8-7.8-12-11.3h-0.1c-3.8-3.6-7.6-6.9-11.3-10
	c-4.4-3.8-8.7-7.4-12.9-10.7c-4.5-3.6-8.9-6.9-13.2-10.1c-4.6-3.5-9.2-6.6-13.5-9.5c-53-35.6-88.7-40.2-90.7-40.4l-11.2-1.3
	l1.3,11.2c0.2,2,4.8,37.7,40.4,90.7c4.9-3.3,9.7-6.9,14.3-10.7c-20.5-30.8-29.9-55.3-34-69.2c13.9,4.1,38.4,13.5,69.2,34.1
	c4.4,3,8.9,6.1,13.6,9.5c4.3,3.1,8.6,6.4,13.2,10.1c4.1,3.3,8.4,6.9,12.8,10.6c3,2.7,6.2,5.5,9.4,8.4h0.1c4,3.6,7.9,7.4,12,11.3
	l-41.1,41.1l-5.3,5.3c-4-4.1-7.8-8.1-11.3-12H180c-2.8-3.2-5.6-6.4-8.3-9.5c-4.6,3.7-9.4,7.3-14.3,10.6c3.1,3.7,6.4,7.5,10.1,11.4
	c3.6,3.9,7.3,8.1,11.2,12.1c-4,4.1-7.7,8.3-11.2,12.1c-3.6,3.9-6.9,7.7-10.1,11.4c4.9,3.3,9.7,6.9,14.3,10.6
	c2.7-3.1,5.5-6.3,8.3-9.5h0.1c3.6-3.9,7.4-7.9,11.3-12l5.3,5.3l41.1,41.1c-4.1,4-8,7.7-12,11.3h-0.1c-3.2,2.9-6.4,5.7-9.4,8.4
	c-4.4,3.7-8.7,7.3-12.8,10.6c-4.5,3.6-8.9,6.9-13.2,10.1c-4.7,3.4-9.3,6.5-13.6,9.5c-30.8,20.5-55.3,29.9-69.2,34
	c4.1-13.9,13.5-38.4,34-69.2c-4.6-3.8-9.4-7.4-14.3-10.7c-35.6,53-40.2,88.7-40.4,90.7l-1.3,11.2l11.2-1.3c2-0.2,37.7-4.8,90.7-40.4
	c4.4-2.9,8.9-6,13.5-9.5c4.3-3.1,8.7-6.4,13.2-10.1c4.2-3.3,8.5-6.9,12.9-10.7c3.7-3,7.5-6.4,11.3-10h0.1c4-3.6,7.9-7.4,12-11.3
	l0.1,0.1l0.1-0.1c4.1,4,8,7.8,12,11.3h0.1c3.8,3.6,7.6,6.9,11.3,10c4.4,3.8,8.7,7.4,12.9,10.7c4.5,3.6,8.9,6.9,13.2,10.1
	c4.6,3.5,9.2,6.6,13.5,9.5c53,35.6,88.7,40.2,90.7,40.4l11.2,1.3l-1.3-11.2C413.8,401.8,409.3,366.1,373.7,313.1L373.7,313.1z
	 M255.9,291.2l-5.4,5.4l-5.4-5.4l-35.8-35.8l-5.4-5.4l5.4-5.4l35.8-35.8l5.4-5.4l5.4,5.4l35.8,35.8l5.4,5.4l-5.4,5.4L255.9,291.2z"
	/>
</svg>
