<?xml version="1.0" encoding="utf-8"?>
<!-- Generator: Adobe Illustrator 24.0.0, SVG Export Plug-In . SVG Version: 6.00 Build 0)  -->
<svg version="1.1" id="Layer_1" xmlns="http://www.w3.org/2000/svg" xmlns:xlink="http://www.w3.org/1999/xlink" x="0px" y="0px"
	 viewBox="0 0 134.1 159.5" style="enable-background:new 0 0 134.1 159.5;" xml:space="preserve">
<style type="text/css">
	.st0{fill:#0B4431;}
	.st1{fill:none;stroke:#FFFFFF;stroke-miterlimit:10;}
	.st2{fill:#77BAA1;}
	.st3{fill:#F3ACBB;}
	.st4{fill:#89B772;}
	.st5{fill:#F08FA2;}
	.st6{fill:#F8D0D9;}
	.st7{fill:#DD8843;}
	.st8{fill:#EBB646;}
	.st9{fill:#FFFFFF;}
	.st10{fill:#A5D4C1;}
</style>
<path class="st0" d="M65.6,159.5c-0.1,0-0.1,0-0.2,0c-33.4-0.1-49.4-16.1-57-29.4c-7-12.4-9.7-26-7.8-40.4
	c1.5-12,6.3-24.6,13.9-36.2c4.8-7.4,11.1-14.9,17.8-21c4.9-4.5,8.9-7.4,12.1-8.7c-1-4.1-1.6-10.6-1.8-12.8v-0.4
	c-0.1-5.1,5.6-7.4,7.5-8.2c3.6-1.5,7.9-2.3,12-2.4s8.2,0.2,11.6,1c2.1,0.5,8.4,1.9,8.5,7.3l0.3,9.2c0,1.7-0.1,3.2-0.3,4.6
	c17.9,6.3,33.1,25.2,39.3,35.4l0,0c2.5,4.1,8.6,15.2,11.3,29.1c3.2,16.7,0.5,31.6-8.1,44.5C107,157.4,75.3,159.5,65.6,159.5z
	 M47.8,34.1c-4,2.2-15.6,11.9-24.2,25.3C15.1,72.5,3,98.5,17.9,124.8c8.8,15.6,25.3,23.9,47.6,24c0.1,0,0.1,0,0.2,0
	c8.3,0,35.4-1.8,49.9-23.6c17.1-25.6,0.2-56.1-3.4-61.9l0,0c-3.1-5.1-9.4-13.4-17.2-20.4l-32.7-5l-24.8,4.9l13.1-7.4
	c-0.5-0.2-1-0.4-1.5-0.7C48.6,34.5,48.1,34.3,47.8,34.1z M77.7,33.9L90,38.7c-3.3-2.4-6.7-4.5-10.3-5.9c-0.5,0.3-1,0.6-1.6,0.9
	C78,33.8,77.9,33.9,77.7,33.9z M48.7,33.7L48.7,33.7z M53.5,12.7c0.5,4.1,1.1,8.3,1.5,9.5c0.8,2.2,2.1,3.6,4.1,4.4l4,1.6l3.4-1.9
	c1.8-1,3-2.5,3.1-2.6l0.4-0.6l0.2-0.1c0.3-0.4,1.3-2,1.2-5.1l0-6.3c-1.9-0.5-5.2-0.9-9.1-0.8C58.6,10.9,55.3,11.9,53.5,12.7z"/>
<path class="st1" d="M128.9,91.8"/>
<path class="st2" d="M120,128.1c-16.4,24.7-46.8,26-54.6,26c-9.8,0-37.9-1.2-52.3-26.7C-0.7,103,5.8,76.7,19,56.4
	c10.3-15.9,25.1-27.9,28.9-28.1c0.7,0,1.8,0.7,3.5,1.5c2.4,1.1,6.1,2.5,11.9,2c6.7-0.6,10.3-1.8,12.4-2.9c2.4-1.2,3-2.2,4-1.8
	c17.2,5.8,31.8,24.7,37.1,33.3C122.5,69.8,138.1,101,120,128.1z"/>
<path class="st3" d="M22.1,74.3c0,0-7.5,18.3-5.9,32c1.5,13.2,10.4,32.8,32.2,37.6s35.9-0.8,48-6.2c12-5.4,20.3-16.7,21.5-27.4
	s1.3-26.3-4.7-39"/>
<path class="st4" d="M75.3,40.7c-0.7,2.5-12.1,4.9-17.3,3.5c-5.1-1.4-5.5-4.7-6.7-14.4c2.4,1.1,6.1,2.5,11.9,2
	c6.7-0.6,10.3-1.8,12.4-2.9C75.8,31.4,76,38.3,75.3,40.7z"/>
<path class="st5" d="M48.2,132.5c-0.6-1.4-0.7-2.9-0.5-4.4c0.7-5.4,4.5-19.7,24.2-30.5c24.7-13.6,37.7-2.1,37.7-2.1
	s7.8,6.9,1.9,23.3c-5.9,16.3-34.8,22.3-34.8,22.3S53.7,146.4,48.2,132.5z"/>
<path class="st5" d="M24.4,102.6c-1.6,0-1.7-6.3,0.3-9.1c3.2-4.5,8.7-0.3,8.7-0.3S28.6,102.6,24.4,102.6z"/>
<path class="st6" d="M113.2,71.3c0-2.4-20.4-4.3-45.6-4.3S22,71.9,22,74.3s20.4,6.6,45.6,6.6S113.2,73.7,113.2,71.3z"/>
<g>
	<path class="st7" d="M47.9,10.5c0,0,1.7,10.5,2.4,13.5c0.6,2.5,4.5,7.9,11.7,8.7c7.7,0.8,12.1-5.9,12.1-5.9s3.1-2.9,2.9-9.1
		s-0.3-9.2-0.3-9.2S60.5,10,47.9,10.5z"/>
	<path class="st8" d="M76.7,8.5c0-1.5-6.7-3.3-14.5-3.1C54.3,5.6,47.8,9,47.9,10.5c0,1.5,6.7,3.8,14.5,3.6
		C70.3,13.9,76.7,10,76.7,8.5z"/>
</g>
<path class="st9" d="M25.8,77.2c-0.8-0.2-1.4-0.7-1.9-1.4c-1.4-2.2-3.4-8,4.6-19.1c10.4-14.6,16-9.7,16-9.7s6.9,3.5-0.6,15.8
	c-0.1,0.1-0.1,0.2-0.2,0.3C43,64.8,35.6,79.9,25.8,77.2z"/>
<path class="st9" d="M100,136.1c-1.7-0.3-2.8-1.8-2.5-3.5c0.4-2.1,1.6-5.3,5.1-8.4c5.4-4.8,9.3-0.5,10.2,0.7
	c0.2,0.3,0.3,0.6,0.4,0.9c0.2,1,0.1,3-2.6,6C107.5,135.2,103.7,136.8,100,136.1z"/>
<path class="st10" d="M125,91.8c1,2.6-6.4-7.1-7.4-7.2c-1.5-0.2-9.1,18.2-11,18.7c-2.4,0.6-21.9-13.6-26.1-13.2
	c-7.5,0.5-22.9,23.1-24.9,23.5c-2.4,0.4-19.6-20.2-25.8-21c-2.1-0.3-16.6,17.3-17.8,16c-0.6-0.6-2-14.6-1.8-18.5
	c0.2-2.5,1.9,9.8,2.6,9.8c1.2,0.1,14.5-13.2,17.3-13c2.5,0.2,22.2,17.7,24.1,17.3c1.9-0.4,21-19.2,25.1-19.8
	c3.2-0.4,20.2,11.9,24.8,11.1c2.8-0.4,11.4-15.6,12.9-16C118.3,79.4,123.9,89,125,91.8z"/>
</svg>
