<?xml version="1.0" encoding="utf-8"?>
<!-- Generator: Adobe Illustrator 27.7.0, SVG Export Plug-In . SVG Version: 6.00 Build 0)  -->
<svg version="1.1" id="Layer_1" xmlns="http://www.w3.org/2000/svg" xmlns:xlink="http://www.w3.org/1999/xlink" x="0px" y="0px"
	 viewBox="0 0 500 500" style="enable-background:new 0 0 500 500;" xml:space="preserve">
<style type="text/css">
	.st0{fill:url(#椭圆形_00000000190544951254675990000006099745719975930024_);}
	.st1{fill:#FFFFFF;}
</style>
<g id="页面-1">
	<g id="DF---Token---3" transform="translate(-3548.000000, -681.000000)">
		<g id="LPF" transform="translate(3548.000000, 681.000000)">
			
				<linearGradient id="椭圆形_00000022519859680515457370000006782223047972912008_" gradientUnits="userSpaceOnUse" x1="-45.3987" y1="670.1248" x2="-46.5968" y2="667.7365" gradientTransform="matrix(256 0 0 -256 11985 171576.7969)">
				<stop  offset="0" style="stop-color:#A7A469"/>
				<stop  offset="1" style="stop-color:#727043"/>
			</linearGradient>
			
				<circle id="椭圆形" style="fill:url(#椭圆形_00000022519859680515457370000006782223047972912008_);" cx="250" cy="250" r="250"/>
			<path id="替换内容区域---logo" class="st1" d="M161.8,136.7v166.9h133.8v-38.1h-22c8.3-15.8,24.8-26.7,43.9-26.7
				c27.3,0,49.5,22.2,49.5,49.5c0,27.3-22.2,49.5-49.5,49.5c-11.5,0-22.2-3.9-30.8-10.7H239c14.9,30.1,45,48.8,78.6,48.8
				c2,0,3.9-0.1,5.9-0.2c-21,11.9-45.4,18.7-71.3,18.7c-80,0-144.8-64.8-144.8-144.7C107.4,204,128.7,163.2,161.8,136.7z
				 M251.5,105.5c80,0,144.9,64.7,144.9,144.4l0,1.5c-14-29.8-44.3-50.4-79.5-50.4c-40.4,0-74.6,27.4-84.7,64.6h-33.1V115.2
				C215.4,108.9,233.1,105.5,251.5,105.5z"/>
		</g>
	</g>
</g>
</svg>
