<svg xmlns="http://www.w3.org/2000/svg" viewBox="0 0 200 200"><path fill="#f66" d="M29.3 29.3c-39.1 39.1-39.1 102.4 0 141.4L170.7 29.3c-39-39.1-102.4-39.1-141.4 0z"/><path fill="#da5f5a" d="M170.7 170.7c-39-39.1-102.4-39.1-141.4 0L170.7 29.3c39.1 39 39.1 102.4 0 141.4z"/><ellipse cx="100" cy="100" fill="#fff4c7" fill-rule="evenodd" clip-rule="evenodd" rx="63.9" ry="64.1"/><path fill="#fff4c7" d="M170.7 170.7c-39 39.1-102.4 39.1-141.4 0 39-39 102.4-39 141.4 0z"/><path fill="#345d9d" d="M145 100c0 24.9-20.1 45-45 45s-45-20.1-45-45 20.1-45 45-45 45 20.1 45 45"/><path fill="#fff" d="M97 114.6l3.2-12.2 7.7-2.8 1.9-7.2-.1-.2-7.6 2.8 5.5-20.5H92.2L85 101.2l-6 2.2-2 7.4 5.9-2.2-4.2 15.8H120l2.6-9.8H97"/></svg>