<svg id="Layer_1" data-name="Layer 1" xmlns="http://www.w3.org/2000/svg" xmlns:xlink="http://www.w3.org/1999/xlink" viewBox="0 0 48.39 34.91"><defs><linearGradient id="linear-gradient" x1="10.96" y1="483.27" x2="25.63" y2="515.41" gradientTransform="translate(0 -479.89)" gradientUnits="userSpaceOnUse"><stop offset="0" stop-color="#f26659"/><stop offset="1" stop-color="#b52a53"/></linearGradient><linearGradient id="linear-gradient-2" x1="25.64" y1="514.96" x2="40.39" y2="490.05" gradientTransform="translate(0 -479.89)" gradientUnits="userSpaceOnUse"><stop offset="0" stop-color="#f26659"/><stop offset="1" stop-color="#ee1c4e"/></linearGradient></defs><title>lympo</title><path d="M17.2,32.81L0.2,3.41S-1.1,0,2.9,0h11a3.48,3.48,0,0,1,3.3,1.7c1.2,2,18.1,31.4,18.1,31.4l-14.6,1.8A4,4,0,0,1,17.2,32.81Z" style="fill:url(#linear-gradient)"/><path d="M20.7,28.41l10.2-17.7A3.6,3.6,0,0,1,34.3,9H45.2s4.5,0.1,2.8,3.1S36,33,36,33s-0.7,1.9-3.5,1.9H19.3s-2.5-.1-0.6-3.1S20.7,28.41,20.7,28.41Z" style="fill:url(#linear-gradient-2)"/></svg>