<?xml version="1.0" encoding="utf-8"?>
<!-- Generator: Adobe Illustrator 27.0.1, SVG Export Plug-In . SVG Version: 6.00 Build 0)  -->
<svg version="1.1" id="magic" xmlns="http://www.w3.org/2000/svg" xmlns:xlink="http://www.w3.org/1999/xlink" x="0px" y="0px"
	 viewBox="0 0 500 500" style="enable-background:new 0 0 500 500;" xml:space="preserve">
<style type="text/css">
	.st0{fill:#DC2626;}
	.st1{fill:#EA7D7D;}
	.st2{fill:#6E1313;}
	.st3{fill:#E35151;}
	.st4{fill:#A51C1C;}
	.st5{fill:#FE0E01;}
	.st6{fill:#F7CBCB;}
	.st7{fill:#530E0E;}
	.st8{fill:#F2B1B1;}
	.st9{fill:#DA2525;}
	.st10{fill:#DC2727;}
	.st11{fill:#DB2525;}
	.st12{fill:#E14A4A;}
	.st13{fill:#AE1E1E;}
	.st14{fill:#A31C1C;}
	.st15{fill:#E55F5F;}
	.st16{fill:#DE3737;}
	.st17{fill:#C52121;}
	.st18{fill:#E76A6A;}
	.st19{fill:#CC2323;}
	.st20{fill:#DF3E3E;}
	.st21{fill:#BD2020;}
	.st22{fill:#E35353;}
	.st23{fill:#B61F1F;}
	.st24{fill:#E24C4C;}
	.st25{fill:#E51F1B;}
	.st26{fill:#DC2B2B;}
	.st27{fill:#DD3131;}
	.st28{fill:#DF3C3C;}
	.st29{fill:#C92222;}
	.st30{fill:#DE3838;}
	.st31{fill:#CD2323;}
	.st32{fill:#E02220;}
	.st33{fill:#D42424;}
	.st34{fill:#C52222;}
	.st35{fill:#DD2E2E;}
	.st36{fill:#D02323;}
	.st37{fill:#E2211E;}
	.st38{fill:#E14747;}
	.st39{fill:#BF2121;}
	.st40{fill:#E04242;}
	.st41{fill:#FFFDF7;}
	.st42{fill-opacity:0;stroke:#FFFDF7;stroke-width:6.195;stroke-linecap:round;stroke-miterlimit:10;}
	.st43{fill-opacity:0;stroke:#FFFDF7;stroke-width:9.2925;stroke-linecap:round;stroke-miterlimit:5;}
	.st44{fill-opacity:0;stroke:#FFFDF7;stroke-width:6.133;stroke-linecap:round;stroke-miterlimit:3.3;}
</style>
<path class="st0" d="M54.4,157.9v186.7c0,30.9,16.3,59.4,42.8,74.8l121.8,71c19.6,11.4,43.6,11.4,63.2,0l121.8-71
	c26.4-15.5,42.8-44,42.8-74.8V157.9c0-30.9-16.3-59.4-42.8-74.8L282.2,12C262.6,0.5,238.6,0.5,219,12L97.2,83
	C70.8,98.5,54.4,127,54.4,157.9z"/>
<path class="st0" d="M249.4,248.7h-0.1H249.4L249.4,248.7z"/>
<path class="st0" d="M249.4,248.7L249.4,248.7L249.4,248.7L249.4,248.7z"/>
<path class="st0" d="M249.4,248.8v-0.1h0L249.4,248.8L249.4,248.8z"/>
<path class="st0" d="M249.4,391.7L152.3,335v0L77,401.9c5.5,5.8,11.9,10.9,19,15L217.8,488c9.8,5.7,20.7,8.6,31.6,8.6L249.4,391.7
	L249.4,391.7z"/>
<path class="st1" d="M152.3,162.5l97.1-56.6l0,0V1c-10.9,0-21.8,2.8-31.6,8.6l-121.8,71c-7.1,4.1-13.4,9.2-18.9,15L152.3,162.5
	L152.3,162.5z"/>
<path class="st2" d="M249.4,391.7v104.9c10.9,0,21.8-2.9,31.6-8.6l121.8-71c7.1-4.1,13.4-9.2,18.9-15l-75.2-66.9L249.4,391.7z"/>
<path class="st3" d="M77,401.9l75.3-66.9V162.5L77.1,95.6c-15.1,15.9-23.9,37.2-23.9,59.8v93.3v93.4C53.2,364.7,62,386,77,401.9z"/>
<path class="st0" d="M346.4,162.5l75.3-66.9c-5.5-5.8-11.8-10.9-18.9-15L281,9.6C271.2,3.8,260.3,1,249.4,1v104.9L346.4,162.5z"/>
<path class="st4" d="M346.5,162.5v172.6h0l75.2,66.9c15.1-15.9,23.9-37.2,23.9-59.9v-93.4v-93.3c0-22.6-8.8-44-23.9-59.8
	L346.5,162.5L346.5,162.5z"/>
<path class="st5" d="M346.5,162.5v172.6l-97.1,56.6L152.3,335V162.5l97.1-56.6L346.5,162.5z"/>
<path class="st5" d="M152.3,335l97.1,56.7l97.1-56.6V162.5L152.3,335L152.3,335z"/>
<path class="st4" d="M152.3,335l194.2-172.5v0l-49.9-29.1L152.3,247.6V335z"/>
<path class="st2" d="M296.6,133.4l-47.2-27.5l-97.1,56.6v85.1L296.6,133.4z"/>
<path class="st6" d="M152.3,335L152.3,335L77,401.9c5.5,5.8,11.9,10.9,19,15l26.5,15.5l56.5-81.8L152.3,335z"/>
<path class="st7" d="M249.4,105.9l0-104.9c-10.9,0-21.8,2.9-31.6,8.6l-1.1,0.6l14.5,106.3L249.4,105.9L249.4,105.9z"/>
<path class="st8" d="M249.4,496.6c10.9,0,21.8-2.9,31.6-8.6l1-0.6l-14.5-106.3l-18,10.5L249.4,496.6z"/>
<path class="st6" d="M346.4,162.5l75.3-66.9c-5.5-5.8-11.8-10.9-18.9-15l-26.6-15.5l-56.5,81.8L346.4,162.5z"/>
<path class="st0" d="M249.4,248.7h-0.1H249.4L249.4,248.7z"/>
<path class="st0" d="M249.4,248.7L249.4,248.7L249.4,248.7L249.4,248.7z"/>
<path class="st0" d="M249.4,248.8v-0.1h0L249.4,248.8L249.4,248.8z"/>
<path class="st0" d="M249.4,391.7L152.3,335v0L77,401.9c5.5,5.8,11.9,10.9,19,15L217.8,488c9.8,5.7,20.7,8.6,31.6,8.6L249.4,391.7
	L249.4,391.7z"/>
<path class="st0" d="M152.3,162.5l97.1-56.6l0,0V1c-10.9,0-21.8,2.8-31.6,8.6l-121.8,71c-7.1,4.1-13.4,9.2-18.9,15L152.3,162.5
	L152.3,162.5z"/>
<path class="st0" d="M249.4,391.7v104.9c10.9,0,21.8-2.9,31.6-8.6l121.8-71c7.1-4.1,13.4-9.2,18.9-15l-75.2-66.9L249.4,391.7z"/>
<path class="st0" d="M77,401.9l75.3-66.9V162.5L77.1,95.6c-15.1,15.9-23.9,37.2-23.9,59.8v93.3v93.4C53.2,364.7,62,386,77,401.9z"/>
<path class="st0" d="M346.4,162.5l75.3-66.9c-5.5-5.8-11.8-10.9-18.9-15L281,9.6C271.2,3.8,260.3,1,249.4,1v104.9L346.4,162.5z"/>
<path class="st0" d="M346.5,162.5v172.6h0l75.2,66.9c15.1-15.9,23.9-37.2,23.9-59.9v-93.4v-93.3c0-22.6-8.8-44-23.9-59.8
	L346.5,162.5L346.5,162.5z"/>
<path class="st0" d="M346.5,162.5v172.6l-97.1,56.6L152.3,335V162.5l97.1-56.6L346.5,162.5z"/>
<path class="st0" d="M152.3,335l97.1,56.7l97.1-56.6V162.5L152.3,335L152.3,335z"/>
<path class="st0" d="M152.3,335l194.2-172.5v0l-49.9-29.1L152.3,247.6V335z"/>
<path class="st0" d="M296.6,133.4l-47.2-27.5l-97.1,56.6v85.1L296.6,133.4z"/>
<path class="st0" d="M152.3,335L152.3,335L77,401.9c5.5,5.8,11.9,10.9,19,15l26.5,15.5l56.5-81.8L152.3,335z"/>
<path class="st0" d="M249.4,105.9l0-104.9c-10.9,0-21.8,2.9-31.6,8.6l-1.1,0.6l14.5,106.3L249.4,105.9L249.4,105.9z"/>
<path class="st0" d="M249.4,496.6c10.9,0,21.8-2.9,31.6-8.6l1-0.6l-14.5-106.3l-18,10.5L249.4,496.6z"/>
<path class="st0" d="M346.4,162.5l75.3-66.9c-5.5-5.8-11.8-10.9-18.9-15l-26.6-15.5l-56.5,81.8L346.4,162.5z"/>
<path class="st0" d="M346.4,334.3L281,472.6c-6.3,13.3-18.9,19.9-31.6,19.9V391.7L346.4,334.3z"/>
<path class="st0" d="M152.3,163.3L217.8,25c6.3-13.3,19-19.9,31.6-19.9v100.8l0,0L152.3,163.3L152.3,163.3z"/>
<path class="st0" d="M249.4,5c12.7,0,25.3,6.6,31.6,19.9l65.5,138.3l-97.1-57.4V5z"/>
<path class="st9" d="M152.3,334.4l97.1,57.3l0,0v100.8c-12.7,0-25.3-6.6-31.6-19.9L152.3,334.4L152.3,334.4z"/>
<path class="st9" d="M249.4,5c7.6,0,15.1,2.4,21.3,7.2l-13.1,98.5l-8.2-4.9V5z"/>
<path class="st10" d="M249.4,391.7L249.4,391.7l0,100.8c-7.3,0-14.7-2.3-20.8-6.8l13.1-98.6L249.4,391.7z"/>
<path class="st0" d="M257.6,110.7l88.9,52.5v0v170.9l0,0.1l-88.8,52.5V110.7z"/>
<path class="st11" d="M241.7,387.2l-89.4-52.8V163.3l89.4-52.9V387.2z"/>
<path class="st10" d="M163.5,139.7l78.3-58.3v29l-89.4,52.9l0,0L163.5,139.7z"/>
<path class="st10" d="M346.4,334.3l-12.6,26.6l-76.2,56.8v-30.9L346.4,334.3z"/>
<path class="st0" d="M257.6,110.7l-8.2-4.9l-7.7,4.5v276.8l7.7,4.5l8.2-4.9V110.7z"/>
<path class="st0" d="M152.3,334.3l65.4,138.3c6.3,13.3,18.9,19.9,31.6,19.9V391.7L152.3,334.3z"/>
<path class="st0" d="M346.5,163.3L281,25C274.7,11.7,262.1,5,249.4,5v100.8l0,0L346.5,163.3L346.5,163.3z"/>
<path class="st12" d="M249.4,5c-12.7,0-25.3,6.6-31.6,19.9l-65.5,138.3l97.1-57.4V5z"/>
<path class="st13" d="M346.5,334.4l-97.1,57.3l0,0v100.8c12.7,0,25.3-6.6,31.6-19.9L346.5,334.4L346.5,334.4z"/>
<path class="st14" d="M249.4,5c-7.6,0-15.1,2.4-21.3,7.2l13.1,98.5l8.2-4.9V5z"/>
<path class="st15" d="M249.4,391.7L249.4,391.7l0,100.8c7.3,0,14.7-2.3,20.8-6.8L257,387.2L249.4,391.7z"/>
<path class="st16" d="M241.2,110.7l-88.9,52.5v0v170.9l0,0.1l88.8,52.5V110.7z"/>
<path class="st17" d="M257,387.2l89.4-52.8V163.3L257,110.4V387.2z"/>
<path class="st18" d="M335.3,139.7L257,81.4v29l89.4,52.9l0,0L335.3,139.7z"/>
<path class="st18" d="M152.3,334.3l12.6,26.6l76.2,56.8v-30.9L152.3,334.3z"/>
<path class="st0" d="M241.2,110.7l8.2-4.9l7.7,4.5v276.8l-7.7,4.5l-8.2-4.9V110.7z"/>
<path class="st0" d="M264.5,163.7L365.9,115c4,12.3,6.3,26.1,6.3,40.5v186.7c0,23.2-5.8,45-15.6,61l-92.1-67V163.7z"/>
<path class="st0" d="M202.6,112.9L269.2,9.5l76.3,71c8.8,8.3,15.8,20.3,20.4,34.4l-101.4,48.7L202.6,112.9z"/>
<path class="st0" d="M146.9,147l18.4-77.4l64.3-60C235.9,3.7,243,0.9,250,1l-54.5,106L146.9,147z"/>
<path class="st0" d="M247.5,350.1l78.3,85.1L269.2,488c-6.1,5.7-13,8.6-19.8,8.6l-53.9-103.7L247.5,350.1z"/>
<path class="st0" d="M264.5,336.2l92.1,67c-3.3,5.3-7,10-11.2,13.8l-19.6,18.2l-78.3-85.1L264.5,336.2z"/>
<path class="st0" d="M195.5,107.1L250,1c6.6,0.2,13.2,3,19.2,8.5l-66.6,103.3L195.5,107.1z"/>
<path class="st0" d="M195.5,392.9l53.9,103.7c-6.8,0-13.6-2.9-19.8-8.6l-39.4-99.4L195.5,392.9z"/>
<path class="st0" d="M153.4,80.7l12-11.2L146.9,147l-20.3,16.7v-8.2C126.6,124.5,136.8,96,153.4,80.7z"/>
<path class="st0" d="M229.6,488l-76.3-71c-16.5-15.5-26.8-44-26.8-74.8v-5.9l63.6,52.3L229.6,488z"/>
<path class="st0" d="M126.6,336.2l69,56.7l68.9-56.6V163.7L126.6,336.2L126.6,336.2z"/>
<path class="st0" d="M126.6,336.2l137.9-172.5v0L229,134.6L126.6,248.8V336.2z"/>
<path class="st0" d="M229,134.6l-33.5-27.5l-69,56.6v85.1L229,134.6z"/>
<path class="st19" d="M264.5,163.7L365.9,115c4,12.3,6.3,26.1,6.3,40.5v186.7c0,23.2-5.8,45-15.6,61l-92.1-67V163.7z"/>
<path class="st0" d="M202.6,112.9L269.2,9.5l76.3,71c8.8,8.3,15.8,20.3,20.4,34.4l-101.4,48.7L202.6,112.9z"/>
<path class="st20" d="M146.9,147l18.4-77.4l64.3-60C235.9,3.7,243,0.9,250,1l-54.5,106L146.9,147z"/>
<path class="st21" d="M247.5,350.1l78.3,85.1L269.2,488c-6.1,5.7-13,8.6-19.8,8.6l-53.9-103.7L247.5,350.1z"/>
<path class="st22" d="M264.5,336.2l92.1,67c-3.3,5.3-7,10-11.2,13.8l-19.6,18.2l-78.3-85.1L264.5,336.2z"/>
<path class="st23" d="M195.5,107.1L250,1c6.6,0.2,13.2,3,19.2,8.5l-66.6,103.3L195.5,107.1z"/>
<path class="st24" d="M195.5,392.9l53.9,103.7c-6.8,0-13.6-2.9-19.8-8.6l-39.4-99.4L195.5,392.9z"/>
<path class="st22" d="M153.4,80.7l12-11.2L146.9,147l-20.3,16.7v-8.2C126.6,124.5,136.8,96,153.4,80.7z"/>
<path class="st0" d="M229.6,488l-76.3-71c-16.5-15.5-26.8-44-26.8-74.8v-5.9l63.6,52.3L229.6,488z"/>
<path class="st25" d="M126.6,336.2l69,56.7l68.9-56.6V163.7L126.6,336.2L126.6,336.2z"/>
<path class="st19" d="M126.6,336.2l137.9-172.5v0L229,134.6L126.6,248.8V336.2z"/>
<path class="st21" d="M229,134.6l-33.5-27.5l-69,56.6v85.1L229,134.6z"/>
<path class="st26" d="M234.3,163.7L132.9,115c-4,12.3-6.3,26.1-6.3,40.5v186.7c0,23.2,5.8,45,15.6,61l92.1-67V163.7z"/>
<path class="st27" d="M296.2,112.9L229.6,9.5l-76.3,71c-8.8,8.3-15.8,20.3-20.4,34.4l101.4,48.7L296.2,112.9z"/>
<path class="st0" d="M351.9,147l-18.4-77.4l-64.3-60c-6.3-5.9-13.3-8.7-20.4-8.5l54.5,106L351.9,147z"/>
<path class="st0" d="M251.2,350.1l-78.3,85.1l56.7,52.8c6.1,5.7,13,8.6,19.8,8.6l53.9-103.7L251.2,350.1z"/>
<path class="st28" d="M234.3,336.2l-92.1,67c3.3,5.3,7,10,11.2,13.8l19.6,18.2l78.3-85.1L234.3,336.2z"/>
<path class="st29" d="M303.3,107.1L248.8,1c-6.6,0.2-13.2,3-19.2,8.5l66.6,103.3L303.3,107.1z"/>
<path class="st30" d="M303.3,392.9l-53.9,103.7c6.8,0,13.6-2.9,19.8-8.6l39.4-99.4L303.3,392.9z"/>
<path class="st28" d="M345.4,80.7l-12-11.2l18.4,77.4l20.3,16.7v-8.2C372.2,124.5,362,96,345.4,80.7z"/>
<path class="st31" d="M269.2,488l76.3-71c16.5-15.5,26.8-44,26.8-74.8v-5.9l-63.6,52.3L269.2,488z"/>
<path class="st32" d="M234.3,336.2l69,56.7l68.9-56.6V163.7L234.3,336.2L234.3,336.2z"/>
<path class="st33" d="M234.3,336.2l137.9-172.5v0l-35.5-29.1L234.3,248.8V336.2z"/>
<path class="st31" d="M336.7,134.6l-33.5-27.5l-69,56.6v85.1L336.7,134.6z"/>
<path class="st0" d="M249.4,248.7h-0.1H249.4L249.4,248.7z"/>
<path class="st0" d="M249.4,248.7L249.4,248.7L249.4,248.7L249.4,248.7z"/>
<path class="st0" d="M249.4,248.8v-0.1h0L249.4,248.8L249.4,248.8z"/>
<path class="st0" d="M249.4,391.7L152.3,335v0L77,401.9c5.5,5.8,11.9,10.9,19,15L217.8,488c9.8,5.7,20.7,8.6,31.6,8.6L249.4,391.7
	L249.4,391.7z"/>
<path class="st16" d="M152.3,162.5l97.1-56.6l0,0V1c-10.9,0-21.8,2.8-31.6,8.6l-121.8,71c-7.1,4.1-13.4,9.2-18.9,15L152.3,162.5
	L152.3,162.5z"/>
<path class="st34" d="M249.4,391.7v104.9c10.9,0,21.8-2.9,31.6-8.6l121.8-71c7.1-4.1,13.4-9.2,18.9-15l-75.2-66.9L249.4,391.7z"/>
<path class="st35" d="M77,401.9l75.3-66.9V162.5L77.1,95.6c-15.1,15.9-23.9,37.2-23.9,59.8v93.3v93.4C53.2,364.7,62,386,77,401.9z"
	/>
<path class="st0" d="M346.4,162.5l75.3-66.9c-5.5-5.8-11.8-10.9-18.9-15L281,9.6C271.2,3.8,260.3,1,249.4,1v104.9L346.4,162.5z"/>
<path class="st36" d="M346.5,162.5v172.6h0l75.2,66.9c15.1-15.9,23.9-37.2,23.9-59.9v-93.4v-93.3c0-22.6-8.8-44-23.9-59.8
	L346.5,162.5L346.5,162.5z"/>
<path class="st37" d="M346.5,162.5v172.6l-97.1,56.6L152.3,335V162.5l97.1-56.6L346.5,162.5z"/>
<path class="st37" d="M152.3,335l97.1,56.7l97.1-56.6V162.5L152.3,335L152.3,335z"/>
<path class="st36" d="M152.3,335l194.2-172.5v0l-49.9-29.1L152.3,247.6V335z"/>
<path class="st34" d="M296.6,133.4l-47.2-27.5l-97.1,56.6v85.1L296.6,133.4z"/>
<path class="st38" d="M152.3,335L152.3,335L77,401.9c5.5,5.8,11.9,10.9,19,15l26.5,15.5l56.5-81.8L152.3,335z"/>
<path class="st39" d="M249.4,105.9l0-104.9c-10.9,0-21.8,2.9-31.6,8.6l-1.1,0.6l14.5,106.3L249.4,105.9L249.4,105.9z"/>
<path class="st40" d="M249.4,496.6c10.9,0,21.8-2.9,31.6-8.6l1-0.6l-14.5-106.3l-18,10.5L249.4,496.6z"/>
<path class="st38" d="M346.4,162.5l75.3-66.9c-5.5-5.8-11.8-10.9-18.9-15l-26.6-15.5l-56.5,81.8L346.4,162.5z"/>
<path class="st41" d="M398.3,246.1l-44.8-15.4c-16.4-5.7-28.7-19.7-32.1-36.9l-18.9-94.3c-0.5-2.4-2.6-4.1-5-4.1
	c-2.5,0-4.6,1.7-5,4.1l-18.9,94.3c-3.4,17.2-15.7,31.2-32.1,36.9l-44.8,15.4c-2.1,0.7-3.4,2.7-3.4,4.9s1.4,4.1,3.4,4.9l44.8,15.4
	c16.4,5.7,28.7,19.7,32.1,36.9l18.9,94.3c0.5,2.4,2.6,4.1,5,4.1c2.5,0,4.6-1.7,5-4.1l18.9-94.3c3.4-17.2,15.7-31.2,32.1-36.9
	l44.8-15.4c2.1-0.7,3.4-2.7,3.4-4.9S400.3,246.8,398.3,246.1z"/>
<path class="st42" d="M80.4,252.8L80.4,252.8"/>
<path class="st41" d="M194.4,325l-21.2-7.2c-7.8-2.7-13.6-9.3-15.2-17.5l-8.9-44.6c-0.2-1.2-1.2-1.9-2.4-1.9c-1.1,0-2.2,0.8-2.4,1.9
	l-8.9,44.6c-1.6,8.2-7.4,14.8-15.2,17.5L98.9,325c-1,0.3-1.6,1.3-1.6,2.3c0,1.1,0.7,2,1.6,2.3l21.2,7.2c7.8,2.7,13.6,9.3,15.2,17.5
	l8.9,44.6c0.2,1.2,1.2,1.9,2.4,1.9c1.1,0,2.1-0.9,2.4-1.9l8.9-44.6c1.6-8.2,7.4-14.8,15.2-17.5l21.2-7.2c0.9-0.3,1.6-1.3,1.6-2.3
	C196,326.3,195.3,325.3,194.4,325z"/>
<path class="st43" d="M146.8,171.9L146.8,171.9"/>
<path class="st43" d="M254.7,327.3L254.7,327.3"/>
<path class="st43" d="M146.4,482.7L146.4,482.7"/>
<path class="st41" d="M157.5,161.4l15.8,5.4c5.8,2,10.2,6.9,11.3,13.1l6.7,33.3c0.2,0.9,0.9,1.4,1.8,1.4s1.6-0.6,1.8-1.4l6.7-33.3
	c1.2-6,5.5-11,11.4-13.1l15.8-5.4c0.8-0.3,1.2-1,1.2-1.7s-0.5-1.4-1.2-1.7l-15.8-5.4c-5.8-2-10.2-6.9-11.4-13.1l-6.7-33.3
	c-0.2-0.9-1-1.4-1.8-1.4s-1.6,0.6-1.8,1.4l-6.7,33.3c-1.2,6-5.5,11-11.3,13.1l-15.8,5.4c-0.8,0.3-1.2,1-1.2,1.7
	S156.7,161.1,157.5,161.4z"/>
<path class="st44" d="M193.2,57.1L193.2,57.1"/>
<path class="st44" d="M264.4,159.7L264.4,159.7"/>
<path class="st44" d="M192.9,262.3L192.9,262.3"/>
<path class="st44" d="M121.7,159.7L121.7,159.7"/>
</svg>
