<?xml version="1.0" encoding="UTF-8"?>
<svg xmlns="http://www.w3.org/2000/svg" xmlns:xlink="http://www.w3.org/1999/xlink" xmlns:xodm="http://www.corel.com/coreldraw/odm/2003" xml:space="preserve" width="2500px" height="2500px" version="1.0" style="shape-rendering:geometricPrecision; text-rendering:geometricPrecision; image-rendering:optimizeQuality; fill-rule:evenodd; clip-rule:evenodd" viewBox="0 0 2500 2500">
 <defs>
  <style type="text/css">
   
    .str0 {stroke:black;stroke-width:1;stroke-linecap:round;stroke-linejoin:round;stroke-miterlimit:22.9256}
    .fil0 {fill:none}
    .fil6 {fill:#0C0504}
    .fil4 {fill:#594627}
    .fil5 {fill:#5D5146}
    .fil2 {fill:#766853}
    .fil1 {fill:#CCCCCC}
    .fil10 {fill:#E6E6E6}
    .fil7 {fill:#FCFCFC}
    .fil9 {fill:white}
    .fil3 {fill:url(#id0)}
    .fil8 {fill:url(#id1)}
   
  </style>
  <radialGradient id="id0" gradientUnits="userSpaceOnUse" gradientTransform="matrix(0.331668 -0 -0 0.436248 809 1244)" cx="1210" cy="2207" r="167" fx="1210" fy="2207">
   <stop offset="0" style="stop-opacity:1; stop-color:white"></stop>
   <stop offset="0.407843" style="stop-opacity:1; stop-color:#FAFAFA"></stop>
   <stop offset="0.690196" style="stop-opacity:1; stop-color:whitesmoke"></stop>
   <stop offset="1" style="stop-opacity:1; stop-color:#F4F4F4"></stop>
  </radialGradient>
  <radialGradient id="id1" gradientUnits="userSpaceOnUse" gradientTransform="matrix(1.06383 -0 -0 0.690193 -77 471)" cx="1202" cy="1520" r="155" fx="1202" fy="1520">
   <stop offset="0" style="stop-opacity:1; stop-color:#FEE2B3"></stop>
   <stop offset="1" style="stop-opacity:1; stop-color:#FCAD60"></stop>
  </radialGradient>
 </defs>
 <g id="Layer_x0020_1">
  <metadata id="CorelCorpID_0Corel-Layer"></metadata>
  <g id="_1426813320864">
   <rect class="fil0" width="2500" height="2500"></rect>
   <path class="fil0 str0" d="M1053 1257c0,0 25,-17 118,16 93,33 98,64 160,65 62,1 112,-32 118,-68 22,-132 -182,-118 -259,-86 -65,26 -140,74 -140,74"></path>
   <path class="fil0 str0" d="M1438 1195c-2,3 -14,-6 -107,45 -93,51 -87,94 -149,106 -62,12 -112,-19 -118,-54 -22,-128 182,-153 259,-136 65,14 115,39 115,39z"></path>
   <ellipse class="fil1" cx="1250" cy="1250" rx="53" ry="24"></ellipse>
   <path class="fil2" d="M166 750c36,33 134,30 182,17l-1 -37c-26,3 -55,15 -84,18 -35,4 -63,1 -97,2z"></path>
   <path class="fil2" d="M347 655c-12,2 -131,40 -134,45l135 6 -1 -51z"></path>
   <path class="fil3" d="M1210 1948c-25,-46 -81,-83 -84,-141 -3,-77 75,-89 136,-89 63,0 140,16 132,95 -6,55 -62,89 -85,134 42,17 82,26 126,35 38,8 99,8 120,44 -7,71 -81,15 -143,28 -212,47 -210,1 -313,-3 -46,-2 -126,42 -118,-32 41,-44 179,-35 228,-72zm-939 -350l-32 55 -12 15c-216,16 -20,3 5,4 3,22 9,25 -16,35l34 9c-3,25 -3,14 -21,33 105,167 263,324 443,416 99,51 191,93 293,135 96,40 204,81 270,159l9 2c-15,-23 -14,-11 -11,-37 42,-9 53,40 49,75l-2 -47 7 3 2 -2c74,-104 173,-107 282,-152 168,-70 397,-201 522,-334 68,-73 132,-157 200,-230 -8,-24 -4,-23 -8,-42l-1 -20c-10,-65 -37,-108 -116,-121 -101,-9 -211,52 -281,97 -24,15 -108,66 -129,67 -22,38 -137,21 -174,5 -48,-21 -82,-50 -126,-75 -291,-170 -444,91 -611,86 -86,-3 -262,-93 -284,-124 -8,-9 -101,-46 -118,-49 -60,-11 -90,-2 -142,18l-33 17z"></path>
   <path class="fil4" d="M363 1095c8,-39 -23,-41 -38,-82 -10,-27 -23,-94 15,-93 22,34 -15,64 40,120l18 -31 -43 -166c-75,63 -82,206 8,252z"></path>
   <path class="fil4" d="M348 1126l-35 -30c-5,33 0,191 11,220l24 -190z"></path>
   <path class="fil5" d="M1114 570c72,10 259,32 321,2l-43 -27c37,0 153,21 172,-7 -110,4 -207,-14 -299,-75 -20,-13 -216,-158 -176,-187 22,-6 23,10 41,30 54,59 52,64 134,119 53,36 186,97 245,80 -78,-39 -93,-8 -90,-54 64,-13 176,59 221,104 16,-21 3,-24 25,-41 32,7 25,31 46,57l34 -16 19 27c29,-45 28,-169 13,-222 -63,-231 -280,-203 -435,-210 -42,-2 -85,-10 -126,-11 13,20 5,9 35,27 57,34 140,-4 295,74 89,44 198,169 180,234 -39,3 -22,-21 -62,-87 -134,-216 -405,-165 -580,-193 -136,-21 -143,-106 -170,-135 -63,91 -40,223 11,315 71,128 187,152 189,194z"></path>
   <path class="fil5" d="M941 625l24 -4c-9,-24 -11,-16 -16,-43l28 1c-120,-73 -175,-184 -174,-330l-52 -53c-71,63 -47,192 3,265 42,62 117,128 188,163z"></path>
   <path class="fil5" d="M803 657c27,-15 54,-17 88,-21 -31,-36 -95,-59 -167,-163 -30,-43 -37,-73 -48,-124 -3,-14 -40,-84 -50,-111 -46,57 -25,178 15,238 56,84 103,84 173,137l-11 43z"></path>
   <path class="fil5" d="M977 580c35,31 104,40 149,26l-26 -26 11 -10c-56,4 -143,-80 -175,-122 -21,-27 -39,-56 -55,-88 -9,-19 -15,-31 -21,-52 -7,-27 -1,-37 -25,-43 -12,63 21,138 53,190 51,82 118,82 119,123 -20,8 2,9 -30,1z"></path>
   <path class="fil5" d="M1900 731c28,66 165,104 264,65 -69,-6 -131,19 -139,-27 35,-22 121,12 171,-18 -78,-27 -219,-56 -295,-21z"></path>
   <path class="fil5" d="M1754 176c27,44 64,75 82,131 25,83 11,112 3,190 35,-37 64,-147 52,-200 -13,-56 -84,-103 -136,-121z"></path>
   <path class="fil5" d="M2179 1346c8,-34 13,-120 43,-136 28,14 38,90 44,120l-6 -103 29 4c-7,-19 -29,-49 -40,-68 -21,-33 -24,-44 -66,-46l-4 228z"></path>
   <path class="fil5" d="M560 532c35,103 114,152 220,104 -121,-31 -123,-33 -220,-104z"></path>
   <path class="fil5" d="M1963 822c73,72 301,49 303,-28 -25,-1 -98,37 -144,43 -75,10 -91,0 -159,-16z"></path>
   <path class="fil5" d="M2038 943c17,1 167,82 207,89 -8,-17 -6,-19 -1,-32l-23 -16c9,-29 17,-19 28,-41 -32,0 -27,1 -49,21l-163 -20z"></path>
   <path class="fil5" d="M2218 1091l-19 -41c-11,-11 -137,-71 -186,-67 13,21 73,52 94,62 34,17 74,35 110,45z"></path>
   <path class="fil5" d="M1954 901l236 29 29 -50c-86,2 -120,35 -220,0 -19,15 -22,4 -44,20z"></path>
   <path class="fil5" d="M2041 1095c29,22 68,52 111,55l-1 -50 -57 -32c-7,13 7,8 -19,22 -11,5 -21,5 -33,6z"></path>
   <path class="fil6" d="M2179 1346l4 -228c41,2 45,13 66,46 12,19 33,49 40,68l-29 -4 6 103c-7,-30 -16,-105 -44,-120 -30,16 -35,101 -43,136zm-1855 -30c-11,-29 -17,-187 -11,-220l35 30 -24 190zm1714 -373l163 20c22,-20 17,-21 49,-21 -11,22 -19,13 -28,41l23 16c-5,14 -8,15 1,32 -40,-7 -190,-88 -207,-89zm-1676 152c-89,-45 -83,-189 -8,-252l43 166 -18 31c-56,-56 -19,-85 -40,-120 -38,-1 -24,65 -15,93 15,41 46,43 38,82zm1600 -273c68,16 84,25 159,16 46,-6 119,-44 144,-43 -3,77 -231,100 -303,28zm-1796 -72c34,-1 62,1 97,-2 29,-3 58,-15 84,-18l1 37c-48,13 -146,16 -182,-17zm1734 -19c76,-35 217,-6 295,21 -50,31 -136,-4 -171,18 9,46 70,20 139,27 -99,38 -236,1 -264,-65zm-1553 -76l1 51 -135 -6c3,-4 122,-42 134,-45zm213 -123c97,71 99,73 220,104 -106,49 -185,-1 -220,-104zm1194 -355c52,18 123,66 136,121 12,53 -17,163 -52,200 8,-78 22,-107 -3,-190 -17,-56 -54,-87 -82,-131zm-1630 1509c53,7 62,-15 103,-18l12 -15 -1 -20c-27,-2 -19,-1 -43,8 18,-49 29,-17 53,-137 8,-39 23,-119 42,-149 16,41 -1,112 39,141l15 -5 5 -93c3,-91 17,-315 83,-375 -16,-119 -72,-157 -53,-402 5,-66 17,-137 34,-201 8,-31 17,-60 52,-64 28,-3 80,6 103,19l16 64c31,56 60,105 111,141 -38,-9 -101,-54 -128,-82 -24,-25 -14,-34 -45,-31 -13,32 8,190 155,213 33,0 100,2 124,-23l11 -43c-70,-53 -117,-54 -173,-137 -40,-60 -61,-181 -15,-238 10,27 47,97 50,111 10,51 18,80 48,124 72,105 136,127 167,163l41 13 10 -24c-71,-35 -146,-102 -188,-163 -50,-73 -74,-202 -3,-265l52 53c0,146 54,257 174,330l0 0c33,8 10,7 30,-1 -1,-41 -68,-40 -119,-123 -32,-53 -65,-128 -53,-190 24,6 18,16 25,43 5,21 12,33 21,52 15,32 33,61 55,88 33,42 119,126 175,122l3 -1c-2,-42 -119,-67 -189,-194 -50,-91 -73,-224 -11,-315 27,28 33,113 170,135 175,27 445,-23 580,193 41,66 23,90 62,87 18,-65 -92,-190 -180,-234 -156,-78 -239,-40 -295,-74 -30,-18 -22,-7 -35,-27 40,1 84,9 126,11 155,7 372,-21 435,210 14,53 16,177 -13,222l-19 -27 -34 16c-21,-26 -14,-50 -46,-57 -21,17 -9,20 -25,41 -44,-45 -157,-117 -221,-104 -3,46 12,15 90,54 -59,17 -192,-45 -245,-80 -82,-55 -80,-60 -134,-119 -18,-20 -19,-36 -41,-30 -39,30 157,174 176,187 92,61 189,79 299,75 41,17 61,63 88,70 17,-14 9,-11 20,-32l23 34 38 -15 25 48 23 5c48,-64 81,-116 114,-191l25 -82c52,-12 146,-47 182,9 25,39 40,149 39,196l5 121 -91 -18c-31,5 -64,1 -95,4 -31,3 -61,13 -91,14l-16 20c17,29 14,20 32,40 21,23 13,70 113,118 100,35 135,1 220,0l-29 50 -236 -29 -36 2c1,33 19,30 47,43 -5,11 -8,16 -9,31 33,27 96,87 138,90l57 32 1 50c-43,-3 -82,-33 -111,-55 -11,-20 -11,-16 -30,-11l1 27 17 16c23,9 33,21 55,33 24,12 43,15 66,23 3,43 -1,99 -2,144l-3 110c1,34 -2,18 12,35 42,-16 50,-133 68,-175 20,81 41,197 74,271 11,25 30,52 38,73l-36 -16 -7 18 31 30 -42 3 1 20c5,19 0,19 8,42 -69,73 -132,157 -200,230 -125,133 -354,264 -522,334 -109,45 -208,48 -282,152l-1 26 4 17c48,-40 74,-85 138,-116 48,-23 107,-34 159,-55 257,-104 445,-242 623,-446 32,-36 66,-87 100,-119l-8 -32c83,-20 62,-27 81,-39 15,-9 7,3 25,-14 -3,-13 -134,-126 -118,-272 5,-49 -1,-89 1,-134 23,7 29,19 51,12 9,-24 -49,-103 -67,-125 20,-14 18,1 25,-24 -14,-18 -63,-28 -86,-42 -37,-10 -76,-29 -110,-45 -21,-11 -82,-41 -94,-62 49,-5 175,55 186,67 29,7 74,41 100,30 11,-23 -8,-33 -20,-58 22,-16 36,-9 36,-36l-42 -17c12,-34 42,-26 36,-62l-69 3c17,-86 99,-63 27,-177l-55 -7c4,-29 15,11 17,-34 -21,-12 -31,-9 -55,-13l-2 -85 28 -26c-14,-27 -11,-10 -32,-19 -7,-78 29,-61 30,-107 -27,-11 -15,-6 -41,3 -23,-43 -20,-92 -74,-114 -51,-21 -108,6 -159,10 -6,-86 -26,-114 -92,-160 -40,-27 -146,-79 -191,-63 0,26 -1,17 22,31 102,63 163,155 153,281 12,-139 -113,-269 -244,-294 -86,-16 -172,-12 -258,-16 -40,-2 -81,-7 -121,-14 -29,-5 -90,-30 -110,-27 -5,47 81,52 114,94 -56,4 -132,-2 -182,-31 -65,-38 -62,-78 -79,-141 -69,-7 -90,182 -90,231 -56,-8 -61,-58 -92,-81 -46,15 -59,91 -79,130l-38 -111c-27,7 -18,-2 -31,28 -22,50 -34,85 -36,141 -82,-10 -147,-44 -181,57 -24,71 -26,146 -41,218 -112,78 -230,30 -261,46 3,37 39,44 70,56l-69 -1c-2,45 61,68 99,79 54,16 105,13 159,4 -60,101 -104,89 -71,231 7,29 4,72 4,104 2,96 11,98 -32,185 -59,118 -91,90 -86,131 35,3 58,-31 80,-56 -2,23 -27,132 -34,157 -16,54 -48,83 -87,114l3 22z"></path>
   <path class="fil6" d="M1167 2033c68,-35 123,-35 191,-1 -40,17 -156,24 -191,1zm43 -86c-49,37 -186,28 -228,72 -8,74 72,30 118,32 103,5 101,50 313,3 62,-14 136,42 143,-28 -21,-36 -82,-36 -120,-44 -44,-9 -84,-18 -126,-35 22,-45 79,-79 85,-134 8,-79 -69,-95 -132,-95 -61,0 -140,12 -136,89 3,58 59,95 84,141z"></path>
   <path class="fil6" d="M157 1693c-5,30 22,38 48,44 -12,54 137,212 176,250 74,71 160,139 255,192 148,82 437,189 526,252 20,14 42,46 66,47l6 -19c-66,-79 -174,-120 -270,-159 -102,-42 -194,-84 -293,-135 -180,-92 -337,-250 -443,-416 17,-20 18,-8 21,-33l-34 -9c25,-10 19,-13 16,-35 -20,-1 -61,9 -75,22z"></path>
   <path class="fil6" d="M1243 2461c11,8 9,17 16,36l23 3c4,-36 -6,-84 -49,-75 -4,26 -4,14 11,37z"></path>
   <path class="fil7" d="M1895 457c-33,76 -66,127 -114,191l-6 10c37,0 61,27 94,44 30,-2 60,-11 91,-14 32,-3 64,0 95,-4l20 -4 -3 -72c-5,-46 -15,-96 -41,-133 -38,-54 -81,-35 -136,-17z"></path>
   <path class="fil7" d="M679 680c-147,-23 -167,-181 -155,-213 31,-3 21,6 45,31 27,28 90,73 128,82 -52,-36 -80,-85 -111,-141 -49,-1 -89,-13 -114,38 -30,62 -17,356 21,409 100,-98 39,-78 208,-195l-22 -11z"></path>
   <path class="fil7" d="M1706 1233c0,-15 18,-9 27,-8 17,-23 6,-8 30,-23l-10 -19 -7 1c-36,-6 -55,-22 -94,-27 -94,-12 -251,20 -246,123 3,71 100,91 156,59 57,-32 70,-92 145,-107z"></path>
   <path class="fil7" d="M1167 2033c34,23 151,16 191,-1 -68,-34 -123,-34 -191,1z"></path>
   <path class="fil7" d="M1198 1800c40,8 62,-33 36,-49 -47,-29 -86,39 -36,49z"></path>
   <path class="fil7" d="M1640 1468l24 3c11,-22 9,-10 3,-31 -29,-5 -34,-1 -27,28z"></path>
   <path class="fil8" d="M2072 607l3 72 -20 4 91 18 -5 -121c1,-47 -14,-156 -39,-196 -36,-56 -129,-21 -182,-9l-25 82c55,-18 98,-37 136,17 26,38 36,87 41,133zm-1728 883l-15 5c-40,-29 -22,-100 -39,-141 -20,31 -35,110 -42,149 -24,119 -35,88 -53,137 24,-9 16,-11 43,-8l1 20 32 -55 33 -17c51,-20 82,-29 142,-18 17,3 111,40 118,49 22,31 198,121 284,124 167,5 320,-256 611,-86 44,26 78,54 126,75 36,16 152,32 174,-5 21,-1 106,-51 129,-67 77,-50 189,-101 281,-97 60,10 63,24 97,65l19 56 42 -3 -31 -30 7 -18 36 16c-8,-21 -27,-48 -38,-73 -33,-74 -53,-190 -74,-271 -18,42 -26,158 -68,175 -15,-17 -11,-1 -12,-35l3 -110c1,-45 5,-100 2,-144 -23,-8 -42,-11 -66,-23 -22,-12 -32,-24 -55,-33l-17 -16 -1 -27c19,-5 19,-10 30,11 12,0 23,0 33,-6 27,-13 12,-9 19,-22 -42,-3 -105,-64 -138,-90 1,-15 4,-20 9,-31 -29,-13 -46,-10 -47,-43l36 -2c22,-16 26,-6 44,-20 -100,-48 -92,-95 -113,-118 -18,-20 -16,-11 -32,-40l16 -20c-32,-17 -57,-44 -94,-44l6 -10 -23 -5 -25 -48 -38 15 -23 -34c-11,21 -2,19 -20,32 -27,-7 -48,-53 -88,-70 -19,28 -135,7 -172,7l43 27c-61,29 -249,7 -321,-2l-3 1 -11 10 26 26c-46,14 -114,4 -149,-26l0 0 -28 -1c5,27 6,19 16,43l-24 4 -10 24 -41 -13c-34,3 -61,6 -88,21 -24,25 -91,23 -124,23l22 11c-170,117 -108,96 -208,195 -38,-54 -51,-347 -21,-409 25,-51 64,-39 114,-38l-16 -64c-24,-13 -76,-22 -103,-19 -35,4 -44,34 -52,64 -16,64 -28,135 -34,201 -20,245 37,283 53,402 -77,70 -82,349 -88,468z"></path>
   <path class="fil9" d="M639 1287c0,0 29,-17 122,16 93,33 98,64 160,65 62,1 112,-32 118,-68 22,-132 -182,-118 -259,-86 -65,26 -140,74 -140,74z"></path>
   <path class="fil9" d="M1792 1182c-2,3 -14,-6 -107,45 -93,51 -87,94 -149,106 -62,12 -112,-19 -118,-54 -22,-128 182,-153 259,-136 65,14 115,39 115,39z"></path>
   <path class="fil6" d="M1003 1496c-14,-89 -375,-139 -339,19 23,102 360,119 339,-19z"></path>
   <path class="fil6" d="M1855 1530c19,-34 5,-76 -25,-96 -88,-60 -411,9 -293,124 62,61 275,48 318,-28z"></path>
   <circle class="fil9" cx="759" cy="1452" r="18"></circle>
   <circle class="fil9" cx="1655" cy="1456" r="18"></circle>
   <ellipse class="fil10" cx="1263" cy="2180" rx="53" ry="24"></ellipse>
   <path class="fil6" d="M1243 2461c11,8 9,17 16,36l23 3c4,-36 -6,-84 -49,-75 -4,26 -4,14 11,37z"></path>
  </g>
 </g>
</svg>
