<?xml version="1.0" encoding="utf-8"?>
<!-- Generator: Adobe Illustrator 27.5.0, SVG Export Plug-In . SVG Version: 6.00 Build 0)  -->
<svg version="1.1" id="Layer_1" xmlns="http://www.w3.org/2000/svg" xmlns:xlink="http://www.w3.org/1999/xlink" x="0px" y="0px"
	 viewBox="0 0 500 500" style="enable-background:new 0 0 500 500;" xml:space="preserve">
<style type="text/css">
	.st0{fill-rule:evenodd;clip-rule:evenodd;fill:#FF5B04;}
</style>
<path class="st0" d="M92.5,113.8c99.4,29.5,150.2,4.6,183.1-11.6c8.1-4,15.2-7.5,21.7-9.7l6.6,19.3c-5.8,2-12.1,5.1-19.3,8.6
	c-35.7,17.5-90.9,44.6-197.7,12.9L92.5,113.8L92.5,113.8z"/>
<path class="st0" d="M42.6,359.3c26.8,17.5,58.4,22,89.8,19.2c43.5-4,86.8-21.9,117.5-39.3c25.5-14.4,52.2-17.2,76.6-13.7
	c33.1,4.7,62,21.1,77,35.3l-13.9,14.9c-12.7-12-37.3-25.9-65.8-30c-20.5-2.9-42.8-0.7-63.8,11.3c-32.7,18.5-78.8,37.6-125.6,41.9
	c-35.6,3.2-71.6-2-102.7-22.3L42.6,359.3L42.6,359.3L42.6,359.3z"/>
<path class="st0" d="M42.4,178.3c95.3,12.6,138-0.3,174.8-11.5c41.2-12.5,75.5-22.9,159.9,2.3l-5.7,19.6
	c-78.6-23.4-110.3-13.8-148.4-2.3c-38.7,11.7-83.6,25.3-183.3,12.1L42.4,178.3L42.4,178.3z"/>
<path class="st0" d="M114,442.9c91.4-55.1,147.4-39.6,200.1-25c9.2,2.6,18.4,5.1,27.5,7.1l-4.4,19.9c-9.6-2.1-19-4.7-28.5-7.4h0
	c-48.6-13.4-100.3-27.7-184.2,22.9L114,442.9L114,442.9z"/>
<path class="st0" d="M34.7,241c96.3,34.8,143.4,9.4,185.6-13.3c48.3-26,90.9-48.9,181.7,8.1l-10.7,17.2
	c-80.8-50.8-118.5-30.5-161.3-7.4C184,270.4,132.7,298,27.8,260.2L34.7,241L34.7,241z"/>
<path class="st0" d="M35.1,305.3c32.2,17.8,69.6,17.1,107.9,7.9c39.5-9.6,80.2-28.4,116.9-45.8c40.3-19.1,74.6-15.7,102-4.6
	c26.9,11,46.6,29.3,59.1,41.1l-13.9,14.9c-11.4-10.8-29.4-27.5-52.9-37c-22.9-9.3-51.6-12.1-85.7,4.1
	c-37.6,17.8-79.3,37.1-120.8,47.2c-42.8,10.4-85.2,10.9-122.5-9.8L35.1,305.3L35.1,305.3z"/>
<path class="st0" d="M443,90.8c6.6,0,12.5-2.7,16.8-7c4.3-4.3,7-10.3,7-16.8c0-6.6-2.7-12.5-7-16.8c-4.3-4.3-10.2-7-16.8-7
	c-6.5,0-12.5,2.7-16.8,7c-4.3,4.3-7,10.3-7,16.8c0,6.6,2.7,12.5,7,16.8C430.5,88.2,436.5,90.8,443,90.8z M483.3,107.4
	c-10.3,10.3-24.6,16.7-40.3,16.7c-15.7,0-30-6.4-40.3-16.7c-10.3-10.3-16.7-24.6-16.7-40.4c0-15.8,6.4-30.1,16.7-40.4
	C413,16.2,427.3,9.8,443,9.8c15.7,0,30,6.4,40.3,16.7C493.6,36.9,500,51.2,500,67C500,82.8,493.6,97.1,483.3,107.4z"/>
<path class="st0" d="M210.5,67.6c58.1,0,110.8,23.7,148.9,61.9c38.1,38.2,61.7,91.1,61.7,149.4c0,58.3-23.6,111.2-61.7,149.4
	c-38.1,38.2-90.7,61.9-148.9,61.9c-58.1,0-110.8-23.7-148.9-61.9C23.6,390,0,337.2,0,278.9c0-58.3,23.6-111.2,61.7-149.4
	C99.8,91.2,152.4,67.6,210.5,67.6L210.5,67.6z M333.5,155.5c-31.5-31.6-74.9-51.1-123-51.1c-48,0-91.5,19.5-123,51.1
	c-31.5,31.6-50.9,75.2-50.9,123.4s19.5,91.8,50.9,123.4s74.9,51.1,123,51.1c48,0,91.5-19.5,123-51.1c31.5-31.6,50.9-75.2,50.9-123.4
	C384.4,230.7,365,187.1,333.5,155.5L333.5,155.5z"/>
</svg>
