<?xml version="1.0" encoding="utf-8"?>
<!-- Generator: Adobe Illustrator 24.0.0, SVG Export Plug-In . SVG Version: 6.00 Build 0)  -->
<svg version="1.1" id="Layer_1" xmlns="http://www.w3.org/2000/svg" xmlns:xlink="http://www.w3.org/1999/xlink" x="0px" y="0px"
	 viewBox="0 0 76.7 75.8" style="enable-background:new 0 0 76.7 75.8;" xml:space="preserve">
<style type="text/css">
	.st0{fill:#8ACAFF;}
	.st1{fill:#4187F7;}
</style>
<title>MDT</title>
<g>
	<g id="Layer_1-2">
		<path class="st0" d="M40.9,33.6l-2.5,4.3l-2.5,4.3l-4.7-2.7L12.4,28.7v20.4c-3-2.2-7-2.2-10,0V26.8c3.7,2.8,9,2,11.7-1.7
			c1.1-1.4,1.7-3.2,1.7-5c0-0.3,0-0.6-0.1-1l20.4,11.8l2.2,1.3L40.9,33.6z"/>
		<path class="st0" d="M71.5,54.6c0.2,0.4,0.3,0.8,0.3,1.2h-7.5l3.7-2.2C69.3,53,70.8,53.4,71.5,54.6L71.5,54.6z"/>
		<path class="st0" d="M74.3,26.8v22.3c-3-2.2-7-2.2-10,0V28.7L45.6,39.5l-4.7,2.7l-2.5-4.3l-2.5-4.3l2.5-1.4l2.2-1.3L61,19.1
			c0,0.3-0.1,0.6-0.1,1c0,4.6,3.8,8.4,8.4,8.4C71.1,28.5,72.9,27.9,74.3,26.8z"/>
		<path class="st0" d="M39.7,0.1L39.7,0.1C39.6,0,39.6,0,39.7,0.1L39.7,0.1L39.6,0c0,0,0,0-0.1,0c0,0,0,0-0.1,0l0,0c0,0,0,0-0.1,0
			l0,0h-0.1l0,0l0,0l0,0h-0.1l0,0l0,0l0,0l0,0l0,0H39h-0.1c-0.1,0-0.2,0-0.2,0c-0.1,0-0.2,0-0.2,0s0,0-0.1,0h-0.1h-0.1l0,0l0,0
			c-0.1,0-0.1,0-0.2,0l0,0l0,0l0,0h-0.1h-0.1l0,0l0,0l0,0h-0.1l0,0c0,0,0,0-0.1,0l0,0l0,0l0,0L13.1,13.9c1.3,1.2,2.1,2.7,2.5,4.3
			L35.9,6.5v15c0,1.4,1.1,2.5,2.5,2.5s2.5-1.1,2.5-2.5v-15l0,0l20.3,11.7c0.4-1.7,1.2-3.2,2.5-4.3L39.7,0.1z"/>
		<path class="st0" d="M71.8,55.8h-7.5l3.7-2.2c1.2-0.7,2.7-0.3,3.4,0.9C71.7,54.9,71.8,55.4,71.8,55.8z"/>
		<path class="st0" d="M61.1,57.7L40.9,69.4v-15c0-1.4-1.1-2.5-2.5-2.5s-2.5,1.1-2.5,2.5v15L15.6,57.7c-0.4,1.7-1.2,3.2-2.5,4.3
			l24,13.8l0,0c0,0,0,0,0.1,0h0.1h0.1c0,0,0,0,0.1,0h0.1h0.1h0.1h0.1H38c0.1,0,0.2,0,0.3,0h0.1h0.1h0.1h0.1c0.1,0,0.2,0,0.3,0
			c0,0,0,0,0.1,0l0,0h0.1h0.1c0.1,0,0.2-0.1,0.2-0.1s0,0,0.1,0h0.1c0,0,0,0,0.1,0l0,0l24-13.8C62.4,60.8,61.5,59.3,61.1,57.7z"/>
		<circle class="st1" cx="38.4" cy="37.9" r="7.4"/>
		<circle class="st1" cx="7.4" cy="20.1" r="7.4"/>
		<circle class="st1" cx="7.4" cy="55.8" r="7.4"/>
		<circle class="st1" cx="69.3" cy="20.1" r="7.4"/>
		<circle class="st1" cx="69.3" cy="55.8" r="7.4"/>
	</g>
</g>
</svg>
