<?xml version="1.0" encoding="utf-8"?>
<!-- Generator: Adobe Illustrator 26.0.1, SVG Export Plug-In . SVG Version: 6.00 Build 0)  -->
<svg version="1.1" id="Layer_1" xmlns="http://www.w3.org/2000/svg" xmlns:xlink="http://www.w3.org/1999/xlink" x="0px" y="0px"
	 viewBox="0 0 274 274" style="enable-background:new 0 0 274 274;" xml:space="preserve">
<style type="text/css">
	.st0{fill:url(#SVGID_1_);}
	.st1{fill-rule:evenodd;clip-rule:evenodd;fill:#FFFFFF;}
	.st2{fill-rule:evenodd;clip-rule:evenodd;fill:url(#SVGID_00000060724096460189543150000014374096992816245164_);}
	.st3{fill-rule:evenodd;clip-rule:evenodd;fill:url(#SVGID_00000154408293777702320680000005045159722197065644_);}
	.st4{fill-rule:evenodd;clip-rule:evenodd;fill:url(#SVGID_00000086671282713762369590000015513389944200095154_);}
</style>
<linearGradient id="SVGID_1_" gradientUnits="userSpaceOnUse" x1="22.3794" y1="75.2837" x2="253.1742" y2="209.3987" gradientTransform="matrix(1 0 0 -1 0 278.8898)">
	<stop  offset="1.800000e-02" style="stop-color:#CB1A4F"/>
	<stop  offset="0.415" style="stop-color:#E51B44"/>
</linearGradient>
<circle class="st0" cx="137" cy="137" r="137"/>
<path class="st1" d="M198.6,125.5l-16.7-47.4c-0.8-2.2-2.4-4.2-4.3-5.5s-4.3-2.1-6.7-2.1h-0.1c-5,0-9.4,3-11,7.6l-22.9,65.5
	l-22.9-65.5c-1.7-4.6-6.1-7.6-11-7.6H103c-2.4,0-4.7,0.7-6.7,2.1c-2,1.4-3.5,3.3-4.3,5.6l-16.6,47.4h-16c-6.5,0-11.7,5-11.7,11.2
	s5.2,11.2,11.7,11.2h8.2l-9.4,26.6c-2,5.8,1.2,12.2,7.3,14.2c1.2,0.4,2.5,0.6,3.7,0.6c4.9,0,9.4-3,11-7.6l23-65.2l22.8,65.3
	c1.7,4.6,6.1,7.6,11,7.6c5,0,9.4-3,11-7.6l22.8-65.3l23,65.3c2,5.8,8.6,9,14.8,7c6.1-2,9.4-8.3,7.3-14.2l-9.3-26.7h8.2
	c6.4,0,11.7-5,11.7-11.2c0-6.2-5.2-11.2-11.7-11.2L198.6,125.5L198.6,125.5z"/>
<linearGradient id="SVGID_00000077299217686218319780000004004498982552153515_" gradientUnits="userSpaceOnUse" x1="144.0144" y1="155.5408" x2="173.1994" y2="166.4228" gradientTransform="matrix(1 0 0 -1 0 278.8898)">
	<stop  offset="0" style="stop-color:#E51B44;stop-opacity:0"/>
	<stop  offset="4.600000e-02" style="stop-color:#E51B44;stop-opacity:4.900000e-02"/>
	<stop  offset="0.127" style="stop-color:#E51B44;stop-opacity:0.178"/>
	<stop  offset="0.206" style="stop-color:#E51B44;stop-opacity:0.33"/>
	<stop  offset="0.526" style="stop-color:#E51B44"/>
</linearGradient>
<path style="fill-rule:evenodd;clip-rule:evenodd;fill:url(#SVGID_00000077299217686218319780000004004498982552153515_);" d="
	M159.4,79.4l-15.4,44.2l12.7,33.3l14.1-40.3l-11.1-31.3C159,83.3,158.9,81.3,159.4,79.4L159.4,79.4z"/>
<linearGradient id="SVGID_00000036966874982504827910000005480613741374122639_" gradientUnits="userSpaceOnUse" x1="76.1719" y1="155.5956" x2="105.6329" y2="166.6556" gradientTransform="matrix(1 0 0 -1 0 278.8898)">
	<stop  offset="0" style="stop-color:#E51B44;stop-opacity:0"/>
	<stop  offset="4.600000e-02" style="stop-color:#E51B44;stop-opacity:4.900000e-02"/>
	<stop  offset="0.127" style="stop-color:#E51B44;stop-opacity:0.178"/>
	<stop  offset="0.206" style="stop-color:#E51B44;stop-opacity:0.33"/>
	<stop  offset="0.526" style="stop-color:#E51B44"/>
</linearGradient>
<path style="fill-rule:evenodd;clip-rule:evenodd;fill:url(#SVGID_00000036966874982504827910000005480613741374122639_);" d="
	M91.6,79.1L76,123.5l12.9,33.5l14.2-40.4L91.8,84.9c-0.6-1.7-0.7-3.5-0.3-5.3L91.6,79.1L91.6,79.1z"/>
<linearGradient id="SVGID_00000132075292518840735850000014321101301602356377_" gradientUnits="userSpaceOnUse" x1="171.1803" y1="161.0773" x2="171.5743" y2="160.9343" gradientTransform="matrix(1 0 0 -1 0 278.8898)">
	<stop  offset="0" style="stop-color:#D33651;stop-opacity:0"/>
	<stop  offset="0.29" style="stop-color:#D43650;stop-opacity:0.326"/>
	<stop  offset="0.654" style="stop-color:#D6364F"/>
</linearGradient>
<path style="fill-rule:evenodd;clip-rule:evenodd;fill:url(#SVGID_00000132075292518840735850000014321101301602356377_);" d="
	M171.6,118.3l-0.4-0.9L171.6,118.3z"/>
</svg>
