<?xml version="1.0" encoding="utf-8"?>
<!-- Generator: Adobe Illustrator 27.7.0, SVG Export Plug-In . SVG Version: 6.00 Build 0)  -->
<svg version="1.1" id="Layer_1" xmlns="http://www.w3.org/2000/svg" xmlns:xlink="http://www.w3.org/1999/xlink" x="0px" y="0px"
	 viewBox="0 0 500 500" style="enable-background:new 0 0 500 500;" xml:space="preserve">
<style type="text/css">
	.st0{clip-path:url(#SVGID_00000108991637292855348300000006485268686276859564_);}
	.st1{fill:url(#SVGID_00000119119263085088293280000011705640431579201937_);}
	.st2{fill:#FFFFFF;}
</style>
<g>
	<defs>
		<rect id="SVGID_1_" y="0" width="500" height="500"/>
	</defs>
	<clipPath id="SVGID_00000040573863668741880200000011819397474572958655_">
		<use xlink:href="#SVGID_1_"  style="overflow:visible;"/>
	</clipPath>
	<g style="clip-path:url(#SVGID_00000040573863668741880200000011819397474572958655_);">
		
			<linearGradient id="SVGID_00000079466019482346944210000007537587967503595662_" gradientUnits="userSpaceOnUse" x1="73.25" y1="426.6398" x2="426.75" y2="73.1398" gradientTransform="matrix(1 0 0 -1 0 499.8898)">
			<stop  offset="0" style="stop-color:#4BD5D8"/>
			<stop  offset="1" style="stop-color:#3C4257"/>
		</linearGradient>
		<path style="fill:url(#SVGID_00000079466019482346944210000007537587967503595662_);" d="M500,250c0,138-112,250-250,250
			S0,388,0,250S112,0,250,0S500,112,500,250z"/>
		<path class="st2" d="M343.3,155.2h-80.8v28.2c-8.2-16.7-25.3-28-45.2-28h-111v189.5h35.5v-154h77.7c7,0,12.7,5.7,12.7,12.7v141.3
			h35.5V205.7c0-5.2-0.8-10.2-2.2-14.8h80c7,0,12.7,5.7,12.7,12.7v141.3h35.5V205.7C393.7,177.8,371.2,155.2,343.3,155.2z"/>
	</g>
</g>
</svg>
