<?xml version="1.0" encoding="utf-8"?>
<!-- Generator: Adobe Illustrator 27.0.1, SVG Export Plug-In . SVG Version: 6.00 Build 0)  -->
<svg version="1.1" id="metano" xmlns="http://www.w3.org/2000/svg" xmlns:xlink="http://www.w3.org/1999/xlink" x="0px" y="0px"
	 viewBox="0 0 500 500" style="enable-background:new 0 0 500 500;" xml:space="preserve">
<path d="M450.1,337.9c-16.2-0.4-31.5,7.2-41,20.3l-28.6-12.3c1.2-6.3,1.8-12.7,1.8-19.1c0-51.2-38-94.5-88.8-101V110.3
	c26.4-6.2,42.8-32.7,36.5-59.1s-32.7-42.8-59.1-36.5c-26.4,6.2-42.8,32.7-36.5,59.1c4.2,17.7,17.9,31.7,35.5,36.3h-0.2v115.5
	c-16.2,1.7-31.7,7.3-45.3,16.2l-31-29.1c2.8-5.8,4.3-12,4.4-18.4c0.6-25-19.1-45.8-44.2-46.4s-45.8,19.1-46.4,44.2
	c-0.6,25,19.1,45.8,44.2,46.4c9.4,0.2,18.6-2.5,26.4-7.7l28.3,26.6c-25.7,27.4-34.2,66.8-22.1,102.4l-46.4,18.6
	c-20.9-34.5-65.8-45.5-100.2-24.6s-45.5,65.8-24.6,100.2s65.8,45.5,100.2,24.6c21.3-12.9,34.6-35.8,35.2-60.7
	c0.2-5.8-0.4-11.7-1.7-17.4l47.7-19.1c29.9,47.6,92.8,61.9,140.4,32c17-10.7,30.4-26.1,38.6-44.3l26.9,11.6
	c-0.3,1.9-0.5,3.8-0.5,5.7c-0.5,27.2,21.1,49.7,48.3,50.3c27.2,0.5,49.7-21.1,50.3-48.3C498.5,361.1,477.1,338.6,450.1,337.9z"/>
</svg>
