<?xml version="1.0" encoding="utf-8"?>
<!-- Generator: Adobe Illustrator 24.0.0, SVG Export Plug-In . SVG Version: 6.00 Build 0)  -->
<svg version="1.1"
	 id="Layer_1" shape-rendering="geometricPrecision" text-rendering="geometricPrecision" image-rendering="optimizeQuality" xmlns:xodm="http://www.corel.com/coreldraw/odm/2003"
	 xmlns="http://www.w3.org/2000/svg" xmlns:xlink="http://www.w3.org/1999/xlink" x="0px" y="0px" viewBox="0 0 767.9 768"
	 style="enable-background:new 0 0 767.9 768;" xml:space="preserve">
<style type="text/css">
	.st0{fill:#0007BC;}
	.st1{fill:#FFFFFF;}
</style>
<g>
	<g id="Layer_x0020_1">
		<g id="_1421344023328">
			<path class="st0" d="M756.4,476.9C705.1,682.6,496.8,807.8,291,756.5C85.3,705.2-39.8,496.8,11.5,291.1
				C62.7,85.4,271.1-39.8,476.7,11.5C682.5,62.8,807.7,271.2,756.4,476.9L756.4,476.9L756.4,476.9z"/>
		</g>
	</g>
	<path class="st1" d="M614.5,407.4L614.5,407.4l-4.8-7.7l0,0l-77.2-122.3l0,0c-6.1-9.5-14.1-17.6-23.5-23.8
		c-17.5-11.1-38.9-14.6-59-9.6c-19.9,4.8-36.9,17.5-47.2,35.2c-5.2,8.6-11.7,19.3-18.3,29.8l-21-32.4l-0.8-1.1v-0.3
		c-7.1-9.5-16-17.5-26.2-23.5c-15.3-8.3-33-11.1-50.3-8.1c-16.6,3.3-31.8,11.7-43.5,24.1c-3.3,3.7-6.2,7.7-8.6,12l-57,90.4l0,0
		l-23.9,37.7c-10.9,17.4-14.7,38.4-10.5,58.5c3.9,20.1,16,37.7,33.3,48.7c11.8,7.4,25.4,11.3,39.3,11.2c27.3-0.1,52.6-14,67.1-37.1
		l18.2-28.8l17.6,27.4c4.7,6.8,10.3,13.1,16.4,18.6c1.7,1.5,3.4,3,5.2,4.3h0.2c1.2,0.9,2.4,1.7,3.8,2.6
		c11.8,7.6,25.6,11.7,39.7,11.7c14.9-0.1,29.5-4.4,41.9-12.6l1.5-1l1.4-0.9c6.8-4.8,12.9-10.7,17.9-17.4l20.7-32.2l17.7,28
		c14.7,23,40,36.9,67.3,36.9c13.8,0.1,27.4-3.8,39.2-11.1C626.6,492.4,637.2,443.4,614.5,407.4z M245.2,286.3
		c2.1-3.6,4.5-6.9,7.2-10c9.6-10.3,22.3-17.4,36.1-20.4c14.4-2.6,29.1-0.2,41.9,6.7c8.7,5.2,16.3,12.1,22.3,20.2l0.5,0.7l24.2,37.2
		c-11.3,16.9-20.8,30.8-20.8,31.1c-8.9,13.6-22.5,23.5-38.2,27.6h-0.8c-16.4,4.8-33.9,2.9-49-5.2l0,0l-2.4-1.4l0,0l-2.1-1.4l0,0
		l-2-1.4l0,0l-1.7-1.4l0,0l-1.6-1.3l0,0l-1.3-1.1l0,0l-0.9-0.8l0,0l-0.5-0.5l0,0l-1.4-1.6l-1.7-1.5l0,0l-0.5-0.5l-0.8-0.8l-0.5-0.5
		l-0.5-0.5l-2.3-1.9l-0.5-0.4l-0.7-0.5l-1.2-0.9l-0.6-0.4h-0.3l-1.7-1.1l-0.6-0.3h-0.5l-1.6-0.9l0,0l-0.8-0.5l-2.1-1l-1-0.7
		l-1.1-0.5l-2-0.8h-0.1l-2.5-0.8l-1-0.2l-2-0.5l0,0h-1l-1.9-0.7l0,0h-1.1h-0.8h-1h-1.4h-3.1h-1h-3.5h-0.5l-3.4,0.5h-0.3l-3.6,0.8
		l0,0L245.2,286.3z M272.3,482.4c-9.3,14.6-23.8,25-40.5,29.2c-16.5,4.3-34.1,1.7-48.5-7.4c-29.3-18.4-38-59.5-19-89.9l23.8-37.7
		c1.7-2.6,3.6-4.9,5.8-7.1c6.5-6.2,15.2-9.7,24.2-9.7h2.4h0.8h1.6h0.8h1.4l0,0h0.6l1.1,0.2h0.4l0,0h0.6l1.3,0.5h0.6l0,0l2.1,0.8
		l0.6,0.2l0.9,0.5h0.5l0.8,0.4l0.8,0.5h0.4l0.8,0.5l1.2,0.8h0.4h0.3l0.7,0.5l0.8,0.5h0.3l1.8,1.6h0.2l1.1,1.1l0,0l0.3,0.3l0.4,0.5
		l0.6,0.7l0,0l49.4,79.4L272.3,482.4z M436.5,485.4c-4.3,5.8-9.3,10.9-15.3,15.1l-1.1,0.8l-1.4,0.9c-20.4,13.7-47,14-67.8,0.9
		l-3.2-2.2h-0.4c-1.4-1.1-2.9-2.2-4.3-3.5c-5.3-4.8-10.1-10.2-14.2-16.1l-22.7-35.8l0,0l-35-55.7l1.2,0.5l3.3,1.1l1.9,0.6l3.3,0.8
		l2.2,0.6l3.5,0.6l1.9,0.3l4.6,0.5h0.6h5.2h2.1h3.9h2l3.8-0.5h1.7c1.8-0.3,3.6-0.6,5.2-1.1l0,0c6.2-1.6,12.2-3.9,17.9-6.9h0.6
		c1.6-0.8,3-1.6,4.6-2.4c10.6-6.1,19.6-14.6,26.2-24.9c0,0,10.8-16.3,22.6-34.7l0,0c8.4-13.1,17.4-27.4,23.8-38.4
		c8.5-14.7,22.8-25.4,39.3-29.3c16.9-4.1,34.6-1.3,49.3,8c7.8,5.2,14.5,12.1,19.7,20l59.4,94.2l0,0c-1.7-0.8-3.4-1.4-5.2-2l-0.9-0.3
		c-1.7-0.6-3.5-1.1-5.2-1.6h-0.5c-1.7-0.5-3.5-0.8-5.2-1.1h-0.8c-1.7-0.3-3.6-0.5-5.2-0.7h-1c-1.8,0-3.6,0-5.2-0.2h-0.2
		c-1.7,0-3.6,0-5.2,0h-1.1c-1.7,0-3.5,0.2-5.2,0.6h-1.1c-1.8,0.3-3.6,0.6-5.5,1.1l0,0c-2.5,0.6-4.9,1.3-7.4,2.1
		c-16.6,5.7-30.8,17-39.9,32l-21.6,33.9L436.5,485.4z M584.9,503.8c-29.3,18.4-70.1,8.4-89.1-21.9l-21-33l21.6-33.9l1.7-2.7l0,0
		c15.8-22.9,44.7-32.9,71.2-24.8l0,0l2.4,0.8h0.7l1.7,0.7l1.3,0.5l1.1,0.5l1.8,0.8h0.5c1.7,0.8,3.5,1.7,5.2,2.8
		c1.7,1.1,2.4,1.6,3.6,2.4l0.8,0.5c2.5,1.8,4.9,3.8,7,5.9l0.5,0.5c0.9,0.9,1.8,2,2.7,3l0.5,0.5l4.5,7.2
		C622.8,444.3,614.2,485.4,584.9,503.8L584.9,503.8z"/>
</g>
</svg>
