<?xml version="1.0" encoding="utf-8"?>
<!-- Generator: Adobe Illustrator 26.5.0, SVG Export Plug-In . SVG Version: 6.00 Build 0)  -->
<svg version="1.1" id="mntl" xmlns="http://www.w3.org/2000/svg" xmlns:xlink="http://www.w3.org/1999/xlink" x="0px" y="0px"
	 viewBox="0 0 500 500" style="enable-background:new 0 0 500 500;" xml:space="preserve">
<style type="text/css">
	.st0{fill:url(#SVGID_1_);}
	.st1{fill:#0D0A03;}
	.st2{fill:#FFFDFA;}
</style>
<radialGradient id="SVGID_1_" cx="5.9286" cy="496.0714" r="5.9048" gradientTransform="matrix(42 0 0 -42 1 21085)" gradientUnits="userSpaceOnUse">
	<stop  offset="0.474" style="stop-color:#FFC640"/>
	<stop  offset="1" style="stop-color:#F2AF13"/>
</radialGradient>
<path class="st0" d="M427.1,2H72.9C33.7,2,2,33.7,2,72.9v354.3C2,466.3,33.7,498,72.9,498h354.3c39.1,0,70.9-31.7,70.9-70.9V72.9
	C498,33.7,466.3,2,427.1,2z"/>
<path class="st1" d="M226.4,131.9H108.3c-9.4,0-18.4,3.7-25.1,10.4c-6.6,6.6-10.4,15.7-10.4,25.1v165.3c0,7.5,2.4,14.8,6.8,20.9
	c4.4,6.1,10.7,10.5,17.8,12.8c7.1,2.3,14.8,2.2,21.9-0.1c7.1-2.4,13.3-6.9,17.7-13l118.1-165.3c3.8-5.3,6-11.5,6.5-18
	c0.5-6.5-0.9-13-3.8-18.8c-3-5.8-7.5-10.6-13-14C239.3,133.7,232.9,131.9,226.4,131.9z M131.9,214.6c-4.7,0-9.2-1.4-13.1-4
	c-3.9-2.6-6.9-6.3-8.7-10.6c-1.8-4.3-2.3-9.1-1.3-13.6c0.9-4.6,3.2-8.8,6.5-12.1c3.3-3.3,7.5-5.6,12.1-6.5c4.6-0.9,9.3-0.4,13.6,1.3
	c4.3,1.8,8,4.8,10.6,8.7c2.6,3.9,4,8.5,4,13.1c0,6.3-2.5,12.3-6.9,16.7C144.2,212.1,138.2,214.6,131.9,214.6z"/>
<path class="st1" d="M315,356.3c16.3,0,29.5-13.2,29.5-29.5s-13.2-29.5-29.5-29.5c-16.3,0-29.5,13.2-29.5,29.5
	S298.6,356.3,315,356.3z"/>
<path class="st2" d="M427.1,167.3v165.3c0,8.8-3.3,17.4-9.2,23.9c-6,6.5-14.1,10.6-22.9,11.4c-8.8,0.8-17.6-1.7-24.6-7
	c-7-5.3-11.8-13.1-13.5-21.8c-0.4-2.1-0.6-4.3-0.6-6.5v-26.9c-0.1-7.5-2.5-14.7-6.9-20.8c-4.4-6-10.7-10.5-17.8-12.7
	c-7.1-2.3-14.8-2.2-21.9,0.2c-7.1,2.4-13.3,6.9-17.6,13l-18.4,25.9L244,352.9c-5.7,7.2-13.9,11.9-22.9,13.2
	c-9.1,1.3-18.3-1-25.7-6.4c-7.4-5.4-12.5-13.4-14.1-22.4c-1.6-9,0.3-18.3,5.3-25.9l118.1-165.3c3.3-4.4,7.5-7.9,12.3-10.4
	c4.9-2.5,10.2-3.8,15.6-3.8h59c9.4,0,18.4,3.7,25.1,10.4C423.4,148.9,427.1,157.9,427.1,167.3z"/>
</svg>
