<svg id="Layer_1" data-name="Layer 1" xmlns="http://www.w3.org/2000/svg" viewBox="0 0 200 200"><title>moac-moac-logo</title><circle cx="100" cy="100" r="100"/><g id="图层_2" data-name="图层 2"><g id="图层_1-2" data-name="图层 1-2"><path d="M-288.8,96.72a15.39,15.39,0,0,1-21.53,3.15,15.39,15.39,0,0,1-3.15-21.53,15.39,15.39,0,0,1,21.53-3.15,15.39,15.39,0,0,1,3.15,3.15l4.33-3.1a20.75,20.75,0,0,0-29-4.43,20.75,20.75,0,0,0-4.43,29,20.75,20.75,0,0,0,29,4.43,20.75,20.75,0,0,0,4.43-4.43Z" transform="translate(466.33 14)" style="fill:#fff"/><path d="M-340.71,63.63l-3,6.24-17.79,38.39h5.8l4.11-8.89h21.64l4.12,8.89H-320L-337.8,69.87Zm-8.35,30.46,8.35-18,8.33,18h-16.68Z" transform="translate(466.33 14)" style="fill:#fff"/><polygon points="39.24 101.57 24.25 86.58 23.84 86.17 18.53 80.85 18.53 80.86 18.53 88.39 18.53 122.25 23.84 122.25 23.84 93.7 35.48 105.34 39.24 109.1 42.99 105.34 54.63 93.7 54.63 122.25 59.94 122.25 59.94 88.39 59.94 80.86 54.63 86.17 39.24 101.57" style="fill:#fff"/><path d="M-380.38,66.86a20.75,20.75,0,0,0-20.75,20.75,20.75,20.75,0,0,0,20.75,20.75,20.75,20.75,0,0,0,20.75-20.75,20.75,20.75,0,0,0-20.75-20.75h0Zm0,36.1A15.4,15.4,0,0,1-395.8,87.57a15.4,15.4,0,0,1,15.39-15.42A15.4,15.4,0,0,1-365,87.54h0A15.4,15.4,0,0,1-380.38,103Z" transform="translate(466.33 14)" style="fill:#fff"/><circle cx="94.72" cy="92.77" r="1.44" style="fill:#fff"/><circle cx="94.72" cy="110.3" r="1.44" style="fill:#fff"/><circle cx="77.18" cy="92.77" r="1.44" style="fill:#fff"/><circle cx="73.53" cy="101.54" r="0.73" style="fill:#fff"/><circle cx="85.95" cy="113.98" r="0.73" style="fill:#fff"/><circle cx="98.36" cy="101.54" r="0.73" style="fill:#fff"/><circle cx="85.95" cy="89.15" r="0.73" style="fill:#fff"/><circle cx="85.95" cy="92.77" r="0.73" style="fill:#fff"/><circle cx="77.18" cy="110.3" r="1.44" style="fill:#fff"/><circle cx="85.95" cy="110.3" r="1.44" style="fill:#fff"/><rect x="94.45" y="92.77" width="0.53" height="17.54" style="fill:#fff"/><line x1="77.18" y1="92.77" x2="94.72" y2="92.77" style="fill:#fff"/><rect x="77.18" y="92.68" width="17.54" height="0.18" style="fill:#fff"/><rect x="-376.07" y="77.74" width="0.18" height="19.6" transform="translate(387.64 -144.72) rotate(-26.53)" style="fill:#fff"/><rect x="-394.56" y="87.45" width="19.61" height="0.18" transform="translate(175.38 -281.74) rotate(-63.43)" style="fill:#fff"/><rect x="76.91" y="92.77" width="0.53" height="17.54" style="fill:#fff"/><line x1="94.72" y1="110.3" x2="77.18" y2="110.3" style="fill:#fff"/><rect x="77.18" y="110.21" width="17.54" height="0.18" style="fill:#fff"/><rect x="-385.02" y="77.74" width="0.53" height="19.61" transform="translate(386.54 -148.85) rotate(-26.57)" style="fill:#fff"/><rect x="-385.8" y="87.27" width="19.61" height="0.53" transform="translate(180.23 -273.9) rotate(-63.43)" style="fill:#fff"/><rect x="-395.73" y="83.08" width="9.5" height="0.18" transform="translate(148.07 -295.89) rotate(-67.51)" style="fill:#fff"/><polygon points="77.1 110.35 73.46 101.59 73.62 101.51 77.27 110.27 77.1 110.35" style="fill:#fff"/><rect x="85.86" y="110.3" width="0.18" height="3.66" style="fill:#fff"/><rect x="85.86" y="89.12" width="0.18" height="3.66" style="fill:#fff"/><rect x="-389.5" y="76.87" width="9.49" height="0.18" transform="translate(407.63 -127.33) rotate(-22.49)" style="fill:#fff"/><rect x="-376.09" y="72.21" width="0.18" height="9.5" transform="translate(163.05 -285.88) rotate(-67.51)" style="fill:#fff"/><rect x="-369.88" y="78.41" width="0.18" height="9.5" transform="translate(406.32 -121.24) rotate(-22.51)" style="fill:#fff"/><rect x="-374.56" y="91.85" width="9.52" height="0.18" transform="translate(153.04 -270.9) rotate(-67.51)" style="fill:#fff"/><rect x="-380.76" y="98.06" width="9.53" height="0.18" transform="translate(399.74 -122.95) rotate(-22.6)" style="fill:#fff"/><polygon points="85.91 114.05 77.12 110.39 77.18 110.23 85.98 113.89 85.91 114.05" style="fill:#fff"/></g></g></svg>