<?xml version="1.0" encoding="utf-8"?>
<!-- Generator: Adobe Illustrator 27.7.0, SVG Export Plug-In . SVG Version: 6.00 Build 0)  -->
<svg version="1.1" id="Layer_1" xmlns="http://www.w3.org/2000/svg" xmlns:xlink="http://www.w3.org/1999/xlink" x="0px" y="0px"
	 viewBox="0 0 500 500" style="enable-background:new 0 0 500 500;" xml:space="preserve">
<style type="text/css">
	.st0{fill:url(#SVGID_1_);}
	.st1{fill:#FFFFFF;}
</style>
<radialGradient id="SVGID_1_" cx="-46.1959" cy="670.6546" r="2.0161" gradientTransform="matrix(157.4998 196.4998 260.5442 -208.8331 -167414.9844 149212)" gradientUnits="userSpaceOnUse">
	<stop  offset="0" style="stop-color:#939EFF"/>
	<stop  offset="0.5024" style="stop-color:#6B00AD"/>
	<stop  offset="1" style="stop-color:#300056"/>
</radialGradient>
<circle class="st0" cx="250" cy="250" r="250"/>
<path class="st1" d="M348.3,274.2c-16.3-3.2-56-2.1-95.8,1.4c-39.6,3.5-79,9.3-94.6,15.3c-30.1,11.7-23.1,24.4-18.3,42.4
	c9.3,34.9,27.5,62.1,52.7,76.1c22.8,12.7,52.1,14.3,72.9,12.5c20.8-1.8,49.3-8.5,69.6-24.9c22.4-18.3,35.7-48.1,38.7-84.1
	C375.1,294.2,379.9,280.5,348.3,274.2z M314.1,353.3c-3.9,4-10.3,4-14.3,0.1l-15.4-15l-23.3,32.3L232.7,343l-12.5,17.4
	c-3.2,4.6-9.6,5.6-14.1,2.4c-4.6-3.2-5.6-9.6-2.4-14.1l26.3-36.6l28.5,27.8l23.3-32.3L314,339C318,342.9,318.1,349.4,314.1,353.3z"
	/>
<path class="st1" d="M236.9,97.6c41.1-3.5,65.5,7.2,74.1,12.1c23.9,13.4,42.3,40.7,52,76.9c0.4,1.6,2.2,7.7,3.3,12
	c0.6,2.3-0.4,4.9-2.6,6c-1.8,0.9-4.3,2.1-7.6,3.4c-17.1,6.7-66.6,13.4-108,17c-57.4,5-96.2,4.7-109.3,2c-3.5-0.7-6-1.4-8.1-2.1
	c-2.3-0.8-3.9-3.1-3.6-5.5c0.4-4.4,0.9-10.8,1.2-12.4c3-37.5,16.4-67.5,37.6-84.9C188.9,103.7,223.2,98.8,236.9,97.6z M234.7,72.3
	c-25.3,2.2-60,10.3-84.7,30.4c-27.2,22.1-43.3,58.5-47,102.3c-1.9,22.7-7.7,39.3,30.8,46.9c19.8,3.9,68.3,2.6,116.5-1.7
	c48.2-4.2,96.2-11.3,115-18.6c36.7-14.3,28-29.6,22.2-51.6c-11.2-42.5-33.4-75.4-64.2-92.5C295.6,71.9,260,70,234.7,72.3z"/>
<path class="st1" d="M272,195.9c-7.6,0.7-16.2-2.7-25.5-10c-0.5-0.5-1.1-0.9-1.6-1.2c-5.8,6.9-14.6,14.9-24.6,15.7
	c-16.1,1.4-31.3-7.6-37.7-22.5c-2.2-5.1,0.2-11.1,5.2-13.3c5.1-2.2,11.1,0.2,13.3,5.2c3,6.8,9.9,10.9,17.3,10.3
	c4-0.3,12.1-9,16.5-16.2l7.1-11.7l9.1,10.3c6.4,7.1,15.5,13.3,19.1,13c7.3-0.6,13.5-6,15.3-13.2c1.3-5.4,6.8-8.8,12.1-7.5
	c5.4,1.3,8.8,6.8,7.5,12.2C301.5,183,288.2,194.5,272,195.9z"/>
</svg>
