<?xml version="1.0" encoding="utf-8"?>
<!-- Generator: Adobe Illustrator 27.7.0, SVG Export Plug-In . SVG Version: 6.00 Build 0)  -->
<svg version="1.1" id="Layer_1" xmlns="http://www.w3.org/2000/svg" xmlns:xlink="http://www.w3.org/1999/xlink" x="0px" y="0px"
	 viewBox="0 0 500 500" style="enable-background:new 0 0 500 500;" xml:space="preserve">
<style type="text/css">
	.st0{fill:#70CC8B;}
</style>
<path id="path50" class="st0" d="M250,461c-116.4,0-211-94.7-211-211c0-0.5,0.1-0.9,0.1-1.4L251.4,461C250.9,461,250.5,461,250,461
	 M261.3,460.5v-147h157.4L294.8,189.7v52.9l33.5,33.5H223.9V329v19.4v32.1L44.8,201.5L13.4,170C4.8,195.2,0,222,0,250
	c0,137.8,112.1,250,250,250c93.6,0,174.8-51.9,217.6-128.2L438.8,343C405.9,409.5,339.4,456.3,261.3,460.5"/>
<path id="path54" class="st0" d="M461,251.4L248.6,39c0.5,0,0.9-0.1,1.4-0.1c116.4,0,211,94.7,211,211
	C461,250.5,461,250.9,461,251.4 M250,0C156.5,0,75.2,51.9,32.4,128.2L61.2,157C94.1,90.5,160.6,43.7,238.7,39.5v146.9H81.4
	l123.8,123.8v-52.9l-33.5-33.5h104.4V158v-38.5l179.1,179.1l31.5,31.5c8.5-25.1,13.3-52,13.3-80C500,112.1,387.9,0,250,0"/>
</svg>
