<?xml version="1.0" encoding="utf-8"?>
<!-- Generator: Adobe Illustrator 26.0.1, SVG Export Plug-In . SVG Version: 6.00 Build 0)  -->
<svg version="1.1" id="Layer_1" xmlns="http://www.w3.org/2000/svg" xmlns:xlink="http://www.w3.org/1999/xlink" x="0px" y="0px"
	 viewBox="0 0 230.2 208.4" style="enable-background:new 0 0 230.2 208.4;" xml:space="preserve">
<path style="fill:#426FB6;" d="M187.6,123.2c-15.8,0-29.6,8.6-36.9,21.4l-47.3-20.8c2.8-6.5,4.4-13.7,4.4-21.3
	c0-7.4-1.5-14.5-4.2-20.9l31.8-18.8c7,8,17.2,13,28.5,13c20.9,0,37.9-17,37.9-37.9S184.8,0,163.9,0S126,17,126,37.9
	c0,4.5,0.8,8.7,2.2,12.6L96.3,69.3c-9.9-12.6-25.2-20.8-42.4-20.8C24.1,48.5,0,72.6,0,102.4s24.1,53.9,53.9,53.9
	c17.1,0,32.3-8,42.2-20.4l49.7,21.9c-0.5,2.6-0.8,5.2-0.8,7.9c0,23.5,19.1,42.6,42.6,42.6s42.6-19.1,42.6-42.6
	C230.3,142.2,211.2,123.2,187.6,123.2z M163.9,14.2c13.1,0,23.7,10.6,23.7,23.7S177,61.6,163.9,61.6S140.2,51,140.2,37.9
	S150.8,14.2,163.9,14.2z M53.8,142.1c-21.9,0-39.7-17.8-39.7-39.7s17.8-39.7,39.7-39.7s39.7,17.8,39.7,39.7S75.8,142.1,53.8,142.1z
	 M187.6,194.2c-15.7,0-28.4-12.7-28.4-28.4s12.7-28.4,28.4-28.4s28.4,12.7,28.4,28.4S203.3,194.2,187.6,194.2z"/>
<path style="fill:#426FB6;" d="M100.4,194.2H7.3c-4.1,0-7.3,3.2-7.3,7.1c0,3.9,3.3,7.1,7.3,7.1h93.1c4.1,0,7.3-3.2,7.3-7.1
	S104.5,194.2,100.4,194.2z"/>
</svg>
