<?xml version="1.0" encoding="utf-8"?>
<!-- Generator: Adobe Illustrator 24.0.0, SVG Export Plug-In . SVG Version: 6.00 Build 0)  -->
<svg version="1.1" id="Layer_1_copy" xmlns="http://www.w3.org/2000/svg" xmlns:xlink="http://www.w3.org/1999/xlink" x="0px"
	 y="0px" viewBox="0 0 601.2 455.8" style="enable-background:new 0 0 601.2 455.8;" xml:space="preserve">
<style type="text/css">
	.st0{fill:url(#SVGID_1_);}
	.st1{fill:url(#SVGID_2_);}
	.st2{fill:url(#SVGID_3_);}
	.st3{fill:url(#SVGID_4_);}
</style>
<g>
	
		<linearGradient id="SVGID_1_" gradientUnits="userSpaceOnUse" x1="-0.9079" y1="226.4768" x2="805.044" y2="310.1976" gradientTransform="matrix(1 0 0 -1 0 458.4)">
		<stop  offset="0" style="stop-color:#4400E2"/>
		<stop  offset="4.110000e-02" style="stop-color:#7013C5"/>
		<stop  offset="8.660000e-02" style="stop-color:#9A25AA"/>
		<stop  offset="0.1333" style="stop-color:#BC3494"/>
		<stop  offset="0.1804" style="stop-color:#D73F82"/>
		<stop  offset="0.2284" style="stop-color:#EA4876"/>
		<stop  offset="0.2776" style="stop-color:#F54C6E"/>
		<stop  offset="0.33" style="stop-color:#F94E6C"/>
		<stop  offset="1" style="stop-color:#FFD402"/>
	</linearGradient>
	<path class="st0" d="M37.9,0C16.9,0,0,17,0,37.9v189.4v81.5v109.1c0,20.9,16.9,37.9,37.9,37.9s37.9-17,37.9-37.9v-380
		C75.7,17,58.8,0,37.9,0z"/>
	
		<linearGradient id="SVGID_2_" gradientUnits="userSpaceOnUse" x1="4.701" y1="172.4815" x2="810.6528" y2="256.2023" gradientTransform="matrix(1 0 0 -1 0 458.4)">
		<stop  offset="0" style="stop-color:#4400E2"/>
		<stop  offset="4.110000e-02" style="stop-color:#7013C5"/>
		<stop  offset="8.660000e-02" style="stop-color:#9A25AA"/>
		<stop  offset="0.1333" style="stop-color:#BC3494"/>
		<stop  offset="0.1804" style="stop-color:#D73F82"/>
		<stop  offset="0.2284" style="stop-color:#EA4876"/>
		<stop  offset="0.2776" style="stop-color:#F54C6E"/>
		<stop  offset="0.33" style="stop-color:#F94E6C"/>
		<stop  offset="1" style="stop-color:#FFD402"/>
	</linearGradient>
	<path class="st1" d="M563.3,0c-20.9,0-37.9,17-37.9,37.9v380c0,20.9,17,37.9,37.9,37.9c20.9,0,37.9-17,37.9-37.9v-380
		C601.2,17,584.2,0,563.3,0z"/>
	
		<linearGradient id="SVGID_3_" gradientUnits="userSpaceOnUse" x1="0.9619" y1="208.4769" x2="806.9138" y2="292.1977" gradientTransform="matrix(1 0 0 -1 0 458.4)">
		<stop  offset="0" style="stop-color:#4400E2"/>
		<stop  offset="4.110000e-02" style="stop-color:#7013C5"/>
		<stop  offset="8.660000e-02" style="stop-color:#9A25AA"/>
		<stop  offset="0.1333" style="stop-color:#BC3494"/>
		<stop  offset="0.1804" style="stop-color:#D73F82"/>
		<stop  offset="0.2284" style="stop-color:#EA4876"/>
		<stop  offset="0.2776" style="stop-color:#F54C6E"/>
		<stop  offset="0.33" style="stop-color:#F94E6C"/>
		<stop  offset="1" style="stop-color:#FFD402"/>
	</linearGradient>
	<path class="st2" d="M213,79c-20.9,0-37.9,16.9-37.9,37.9v222c0,20.9,17,37.9,37.9,37.9s37.9-17,37.9-37.9v-222
		C250.9,96,233.9,79,213,79z"/>
	
		<linearGradient id="SVGID_4_" gradientUnits="userSpaceOnUse" x1="2.7896" y1="190.8823" x2="808.7414" y2="274.6031" gradientTransform="matrix(1 0 0 -1 0 458.4)">
		<stop  offset="0" style="stop-color:#4400E2"/>
		<stop  offset="4.110000e-02" style="stop-color:#7013C5"/>
		<stop  offset="8.660000e-02" style="stop-color:#9A25AA"/>
		<stop  offset="0.1333" style="stop-color:#BC3494"/>
		<stop  offset="0.1804" style="stop-color:#D73F82"/>
		<stop  offset="0.2284" style="stop-color:#EA4876"/>
		<stop  offset="0.2776" style="stop-color:#F54C6E"/>
		<stop  offset="0.33" style="stop-color:#F94E6C"/>
		<stop  offset="1" style="stop-color:#FFD402"/>
	</linearGradient>
	<path class="st3" d="M388.2,142.8c-20.9,0-37.9,17-37.9,37.9v93.7c0,20.9,17,37.9,37.9,37.9c20.9,0,37.9-17,37.9-37.9v-93.7
		C426,159.7,409.1,142.8,388.2,142.8z"/>
</g>
</svg>
