<?xml version="1.0" encoding="utf-8"?>
<!-- Generator: Adobe Illustrator 27.7.0, SVG Export Plug-In . SVG Version: 6.00 Build 0)  -->
<svg version="1.1" id="Layer_1" xmlns="http://www.w3.org/2000/svg" xmlns:xlink="http://www.w3.org/1999/xlink" x="0px" y="0px"
	 viewBox="0 0 500 500" style="enable-background:new 0 0 500 500;" xml:space="preserve">
<style type="text/css">
	.st0{fill-rule:evenodd;clip-rule:evenodd;fill:#8E41AD;}
</style>
<g>
	<g transform="translate(-31.000000, -25.000000)">
		<g transform="translate(31.000000, 25.000000)">
			<path class="st0" d="M58.1,290.7c25.3,0,46.9,16.2,54.9,38.9l0.5,1.6l29.7,75.8H58.1C26,407,0,380.9,0,348.8S26,290.7,58.1,290.7
				z M161.2,93c15.4,0,29.2,9.2,35.3,23.3L320.9,407H217.8c-15.4,0-29.2-9.2-35.3-23.3L58.1,93H161.2z M340.3,93
				c15.4,0,29.2,9.2,35.3,23.3L500,407H396.9c-15.4,0-29.2-9.2-35.3-23.3L237.3,93H340.3z"/>
		</g>
	</g>
</g>
</svg>
