<?xml version="1.0" encoding="utf-8"?>
<!-- Generator: Adobe Illustrator 26.0.1, SVG Export Plug-In . SVG Version: 6.00 Build 0)  -->
<svg version="1.1" id="Layer_1" xmlns="http://www.w3.org/2000/svg" xmlns:xlink="http://www.w3.org/1999/xlink" x="0px" y="0px"
	 viewBox="0 0 371.7 287.4" style="enable-background:new 0 0 371.7 287.4;" xml:space="preserve">
<path style="fill:#082E3D;" d="M202.9,226.3c-1.7,6.8-7.9,11.9-15.3,11.9s-13.6-5.1-15.3-11.9l-45-178.6C120.4,20.3,95.7,0,66.2,0
	C31.5,0,3.3,28.2,3.3,62.9v14.2c0,13.2,10.7,23.8,23.8,23.8c13.2,0,23.8-10.7,23.8-23.8V62.9c0-8.4,6.9-15.3,15.3-15.3
	c7.2,0,13.2,4.9,14.8,11.6l45.7,181.4c7.1,26.9,31.7,46.8,60.8,46.8s53.7-19.9,60.8-46.8L294,59.2c1.7-6.7,7.7-11.6,14.8-11.6
	c8.4,0,15.3,6.9,15.3,15.3v200.7c0,13.2,10.7,23.8,23.8,23.8c13.2,0,23.8-10.7,23.8-23.8V62.9C372,28.2,343.8,0,309.1,0
	c-29.4,0-54.2,20.3-61.1,47.7L202.9,226.3z"/>
<path style="fill:#082E3D;" d="M50.9,263.6c0,13.2-10.7,23.8-23.8,23.8c-13.2,0-23.8-10.7-23.8-23.8v-53.3
	c0-13.2,10.7-23.8,23.8-23.8c13.2,0,23.8,10.7,23.8,23.8V263.6z"/>
<path style="fill:#F5BA38;" d="M10.8,127.4c2.9-2.9,5.5-5.4,7.6-7.3l0.2-0.2c4.8-4.3,12.1-4.3,16.9,0l0.2,0.2c2.2,2,4.7,4.4,7.7,7.4
	c2.9,2.9,5.3,5.5,7.3,7.6l0.2,0.2c4.3,4.8,4.3,12.1,0,16.9l-0.2,0.2c-2,2.2-4.4,4.7-7.3,7.6h-0.1c-2.9,2.9-5.4,5.3-7.6,7.3l-0.2,0.2
	c-4.8,4.3-12.1,4.3-16.9,0l-0.2-0.2c-2.1-2-4.7-4.4-7.6-7.3c-3-3-5.4-5.5-7.4-7.7l-0.2-0.2c-4.3-4.8-4.3-12.1,0-16.9l0.2-0.2
	C5.4,132.9,7.8,130.4,10.8,127.4L10.8,127.4z"/>
</svg>
