<?xml version="1.0" encoding="utf-8"?>
<!-- Generator: Adobe Illustrator 26.0.1, SVG Export Plug-In . SVG Version: 6.00 Build 0)  -->
<svg version="1.1" id="Layer_1" xmlns="http://www.w3.org/2000/svg" xmlns:xlink="http://www.w3.org/1999/xlink" x="0px" y="0px"
	 viewBox="0 0 138 138" style="enable-background:new 0 0 138 138;" xml:space="preserve">
<style type="text/css">
	.st0{fill:url(#SVGID_1_);}
	.st1{fill:#FFFFFF;}
</style>
<linearGradient id="SVGID_1_" gradientUnits="userSpaceOnUse" x1="53.7704" y1="124.7584" x2="84.7837" y2="10.9883" gradientTransform="matrix(1 0 0 -1 0 137.8898)">
	<stop  offset="0" style="stop-color:#0F51FB"/>
	<stop  offset="0.4448" style="stop-color:#6324FB"/>
	<stop  offset="1" style="stop-color:#EF3678"/>
</linearGradient>
<circle class="st0" cx="69" cy="69" r="69"/>
<path class="st1" d="M88.2,52.5c0-0.5,0.2-1.1,0.7-1.7c0.7-0.8,1.5-0.9,2-1h8.3c1,0,1.8-0.8,1.8-1.8v-9.2c0-1-0.8-1.8-1.8-1.8H90
	c-1,0-1.8,0.8-1.8,1.8V47c0,0.5-0.2,1.2-0.8,1.9c-0.5,0.6-1.2,0.8-1.7,0.9h-8.5c-1,0-1.8,0.8-1.8,1.8v8.2c0,0.5-0.2,1.2-0.8,1.9
	c-0.5,0.6-1.2,0.8-1.7,0.9h-7.8c-0.5-0.1-1.2-0.3-1.7-0.9c-0.5-0.5-0.7-1.1-0.8-1.6v-8.5c0-1-0.8-1.8-1.8-1.8h-8.5
	c-0.5-0.1-1.2-0.3-1.7-0.9c-0.5-0.5-0.7-1.1-0.8-1.6v-8.5c0-1-0.8-1.8-1.8-1.8h-9.2c-1,0-1.8,0.8-1.8,1.8V48c0,1,0.8,1.8,1.8,1.8H47
	c0.5,0,1.4,0.2,2,1c0.8,0.9,0.7,2.1,0.7,2.3l0,0v6.8c0,0.5-0.2,1.2-0.8,1.9c-0.5,0.6-1.2,0.8-1.7,0.9h-8.5c-1,0-1.8,0.8-1.8,1.8
	v34.8c0,1,0.8,1.8,1.8,1.8H48c1,0,1.8-0.8,1.8-1.8v-34c0-0.5,0.2-1.1,0.7-1.7c0.7-0.8,1.5-0.9,2-1h7.2c0.5,0,1.4,0.2,2,1
	c0.8,0.9,0.7,2.1,0.7,2.3l0,0v7.8c0,1,0.8,1.8,1.8,1.8h9.2c1,0,1.8-0.8,1.8-1.8v-8.4c0-0.5,0.2-1.1,0.7-1.7c0.7-0.8,1.5-0.9,2-1h7.2
	c0.5,0,1.4,0.2,2,1c0.8,0.9,0.7,2.1,0.7,2.3l0,0v33.4c0,1,0.8,1.8,1.8,1.8h9.2c1,0,1.8-0.8,1.8-1.8V64.4c0-1-0.8-1.8-1.8-1.8h-8.5
	c-0.5-0.1-1.2-0.3-1.7-0.9c-0.5-0.5-0.7-1.1-0.8-1.6L88.2,52.5L88.2,52.5z"/>
</svg>
