<?xml version="1.0" encoding="utf-8"?>
<!-- Generator: Adobe Illustrator 27.0.1, SVG Export Plug-In . SVG Version: 6.00 Build 0)  -->
<svg version="1.1" id="neox" xmlns="http://www.w3.org/2000/svg" xmlns:xlink="http://www.w3.org/1999/xlink" x="0px" y="0px"
	 viewBox="0 0 500 500" style="enable-background:new 0 0 500 500;" xml:space="preserve">
<style type="text/css">
	.st0{fill:url(#SVGID_1_);}
	.st1{fill:#FFFFFF;}
</style>
<linearGradient id="SVGID_1_" gradientUnits="userSpaceOnUse" x1="35.9891" y1="371.7706" x2="463.0109" y2="125.2294">
	<stop  offset="0" style="stop-color:#63034A"/>
	<stop  offset="1" style="stop-color:#A3215F"/>
</linearGradient>
<circle class="st0" cx="249.5" cy="248.5" r="246.5"/>
<path class="st1" d="M350.5,85.2c-11.1,0-22.4,4.3-30,11.3c-15.9,10.8-34.1,16-54.8,16c-20.3,0-38-5-53.8-15.3
	c-7.7-7.4-19.2-12-30.7-12c-23.5,0-42.6,19.1-42.6,42.6s19.1,42.6,42.6,42.6c10.8,0,21.8-4.1,29.3-10.7c16-10.9,34.3-16.3,55.1-16.3
	c21.4,0,40.2,5.7,56.4,17.1c7.4,6.1,18,9.9,28.3,9.9c23.5,0,42.6-19.1,42.6-42.6S374.1,85.2,350.5,85.2z"/>
<path class="st1" d="M269.4,200.1c-11.1,0-22.4,4.3-30,11.3c-15.9,10.8-34.1,16-54.8,16c-20.3,0-38-5-53.8-15.3
	c-7.7-7.4-19.2-12-30.7-12c-23.5,0-42.6,19.1-42.6,42.6s19.1,42.6,42.6,42.6c10.8,0,21.8-4.1,29.3-10.7c16-10.9,34.3-16.3,55.1-16.3
	c21.4,0,40.2,5.7,56.4,17.1c7.4,6.1,18,9.9,28.3,9.9c23.5,0,42.6-19.1,42.6-42.6S293,200.1,269.4,200.1z"/>
<path class="st1" d="M349.9,317c-11.1,0-22.4,4.3-30,11.3c-15.9,10.8-34.1,16-54.8,16c-20.3,0-38-5-53.8-15.3
	c-7.7-7.4-19.2-12-30.7-12c-23.5,0-42.6,19.1-42.6,42.6s19.1,42.6,42.6,42.6c10.8,0,21.8-4.1,29.3-10.7c16-10.9,34.3-16.3,55.1-16.3
	c21.4,0,40.2,5.7,56.4,17.1c7.4,6.1,18,9.9,28.3,9.9c23.5,0,42.6-19.1,42.6-42.6S373.4,317,349.9,317z"/>
</svg>
