<?xml version="1.0" encoding="utf-8"?>
<!-- Generator: Adobe Illustrator 27.0.1, SVG Export Plug-In . SVG Version: 6.00 Build 0)  -->
<svg version="1.1" id="nest_00000063631617263392820810000017580621585544540815_"
	 xmlns="http://www.w3.org/2000/svg" xmlns:xlink="http://www.w3.org/1999/xlink" x="0px" y="0px" viewBox="0 0 500 500"
	 style="enable-background:new 0 0 500 500;" xml:space="preserve">
<path id="nest-2" d="M421.1,297.6c0.1-3.4,0.6-6.7,1.3-10L445,173c0.7-1.3,1.3-2.7,2.7-2.7h17.3c2,0,3.3,2,2.7,3.3l-4.7,21.4
	c-0.3,1.4,0.5,2.9,2,3.2c0.2,0.1,0.4,0.1,0.7,0.1h29.9c2.7-0.7,4,0.7,3.3,2.7l-2.7,13.4c-0.7,1.3-1.3,2.7-2.7,2.7h-31.9
	c-1.4,0.1-2.6,1.2-2.7,2.7l-13.3,66.3c-0.5,2.2-0.7,4.4-0.7,6.7c-0.9,8,4.9,15.2,12.9,16.1c1.2,0.1,2.5,0.1,3.7-0.1
	c5.4,0,10.6-1.4,15.3-4c1-0.9,2.6-0.7,3.4,0.3c0.4,0.5,0.6,1.1,0.6,1.7l3.3,12.1c0.6,1.2,0,2.7-1.2,3.3c0,0-0.1,0-0.1,0.1
	c-8.4,5-18.1,7.6-27.9,7.4C435,329.8,421.1,317.7,421.1,297.6z M286.2,315.7c-1.3-0.7-1.3-2.7-0.7-4l8-13.4c0.8-1.4,2.5-2,4-1.3
	c12.5,7.9,27.1,11.9,41.9,11.4c22.6,0,33.9-7.4,33.9-19.4c0-25.5-71.1-7.4-71.1-50.9c0-25.5,23.3-42.2,57.8-42.2
	c14.9-0.3,29.6,3.4,42.5,10.7c1.2,1,1.4,2.7,0.7,4l-6.6,13.4c-0.5,1.4-2,2.1-3.4,1.6c-0.2-0.1-0.4-0.2-0.6-0.3
	c-10.8-5.9-22.9-8.9-35.2-8.7c-21.9,0-32.6,8-32.6,19.4c0,26.1,71.1,8,71.1,50.9c0,26.8-23.9,42.2-59.1,42.2
	C319,329.5,301.5,324.8,286.2,315.7z M3.8,329.1c-2,0-3.3-2-2.7-3.3l23.9-125.3c0.7-1.3,1.3-2.7,2.7-2.7h16.6c2,0,3.3,2,2.7,3.3
	l-1.3,5.4c0,2.7,2.7,4.7,4.7,3.3c11.7-8.7,26-13.1,40.5-12.7c29.2,0,46.5,15.4,46.5,42.9c-0.2,4.9-0.6,9.9-1.3,14.7l-14,70.4
	c-0.7,1.3-1.3,2.7-2.7,2.7h-17.3c-2,0-3.3-2-2.7-3.3l14-69c0.7-3.5,1.1-7.1,1.3-10.7c0-16.7-10-26.1-29.9-26.1
	c-25.2,0-41.9,13.4-47.2,41.5l-13.3,66.3c-0.7,1.3-1.3,2.7-2.7,2.7L3.8,329.1z M154.7,272.2c0-42.9,30.6-75.7,72.4-75.7
	c33.9,0,57.1,20.1,57.8,57v4c0,1.3-1.3,2-2.7,2.7l-101,18.8c-2,0-3.3,1.3-2.7,3.3c3.3,16.1,15.9,25.5,39.2,25.5
	c13.5,0.3,26.7-4.2,37.2-12.7c1-1.2,2.8-1.3,4-0.2c0.3,0.2,0.5,0.5,0.7,0.9l7.3,12.1c0.8,1.3,0.5,3-0.7,4
	c-14.1,11.3-31.8,17.3-49.8,16.9C177.9,328.5,154.7,306.3,154.7,272.2L154.7,272.2z M178.6,258.8c-0.4,1.4,0.4,2.9,1.8,3.3
	c0.5,0.2,1.1,0.2,1.6,0l78.4-14.7c1.3-0.7,2.7-2,2.7-2.7c-2.7-18.1-16.6-28.1-36.5-28.1C201.2,216.6,183.2,232.6,178.6,258.8
	L178.6,258.8z"/>
</svg>
