<svg id="Layer_1" data-name="Layer 1" xmlns="http://www.w3.org/2000/svg" viewBox="0 0 49.48 42.86"><title>nexo-logo-03</title><path d="M12.84,0.28l24.26,14V28.56L0,7.14,11.89,0.28A1,1,0,0,1,12.84.28Z" style="fill:#3ca9e5"/><polygon points="37.1 0 24.73 7.14 37.1 14.28 37.1 0" style="fill:#2853c3"/><path d="M37.1,0L49,6.86a1,1,0,0,1,.48.83v28L37.1,28.56V0Z" style="fill:#1a4199"/><path d="M49.47,35.7L37.58,42.56a1,1,0,0,1-1,0l-24.25-14V14.26Z" style="fill:#2853c3"/><path d="M0,7.14v28A1,1,0,0,0,.48,36l11.89,6.86V14.26Z" style="fill:#60beff"/><polygon points="12.37 42.84 24.73 35.7 12.37 28.56 12.37 42.84" style="fill:#3ca9e5"/></svg>