<?xml version="1.0" encoding="utf-8"?>
<!-- Generator: Adobe Illustrator 27.7.0, SVG Export Plug-In . SVG Version: 6.00 Build 0)  -->
<svg version="1.1" id="Layer_1" xmlns="http://www.w3.org/2000/svg" xmlns:xlink="http://www.w3.org/1999/xlink" x="0px" y="0px"
	 viewBox="0 0 500 500" style="enable-background:new 0 0 500 500;" xml:space="preserve">
<style type="text/css">
	.st0{fill:url(#SVGID_1_);}
</style>
<linearGradient id="SVGID_1_" gradientUnits="userSpaceOnUse" x1="297.4406" y1="472.3624" x2="199.7517" y2="15.6501" gradientTransform="matrix(1 0 0 -1 0 500.8898)">
	<stop  offset="0" style="stop-color:#72BFFF"/>
	<stop  offset="1" style="stop-color:#1A7CCD"/>
</linearGradient>
<path class="st0" d="M421.5,149.7L250.8,50.6c-0.5-0.3-1-0.3-1.5,0L78.4,149.7c-0.4,0.2-0.6,0.6-0.6,1c-0.1,82.6-0.1,165.1,0,247.6
	c0.3,0.2,0.4,0.6,0.2,1.1c0,0.1-0.1,0.2-0.1,0.2c-0.1,0.1-0.1,0.1-0.2,0.2c-0.1,0-0.2,0.1-0.3,0c-0.1,0-0.2,0-0.3-0.1l-42.1-24.4
	c-0.3-0.2-0.5-0.4-0.7-0.7c-0.2-0.3-0.3-0.6-0.3-0.9l0.1-247.9c0-0.7,0.3-1.2,0.9-1.5L249.3,0.2c0.5-0.3,1-0.3,1.5,0l214.6,124.4
	c0.1,0.1,0.2,0.2,0.3,0.3c0.1,0.1,0.1,0.3,0.1,0.4v248.8c0,0.5-0.2,0.9-0.7,1.2L250.4,499.9c-0.1,0.1-0.2,0.1-0.3,0.1
	s-0.2,0-0.3-0.1l-120.3-69.8c-0.4-0.3-0.7-0.6-0.7-1.1V156.1c0-0.2,0.1-0.4,0.2-0.5c0.1-0.1,0.3-0.2,0.5-0.2H162
	c0.4,0,0.8,0.1,1.2,0.3c0.4,0.2,0.7,0.5,0.9,0.8l76.8,110.5c0.5,0.7,0.7,0.6,0.7-0.2V156.1c0-0.5,0.2-0.7,0.7-0.7
	c23.2-0.1,46.2-0.1,69.2,0c16.3,0.1,31.3,0.8,44.5,9.2c21,13.4,30.8,32.1,29.5,56.4c-1.5,27.9-19.7,50.5-47,57.1
	c-8.5,2.1-19,2.6-31.5,1.5c-0.4,0-0.6-0.3-0.6-0.7l0-37.3c0-0.5,0.3-0.8,0.8-0.8c6.6,0.3,12.3,0.1,17.1-0.4
	c28.4-3.2,27.2-45.1-3.7-45.6c-12.4-0.2-24.8-0.3-37.3-0.1c-0.6,0-0.9,0.3-0.9,0.9l-0.1,152.4c0,0.5-0.3,0.7-0.8,0.7H249
	c-0.5,0-0.9-0.2-1.2-0.6l-77.4-110.7c-0.1-0.1-0.2-0.2-0.3-0.2c-0.1,0-0.2,0-0.3,0c-0.1,0-0.2,0.1-0.3,0.2c-0.1,0.1-0.1,0.2-0.1,0.3
	l0.1,164.3c0,0.5,0.2,0.9,0.6,1.1l79.2,46c0.2,0.1,0.5,0.2,0.7,0.2s0.5-0.1,0.7-0.2l170.6-99c0.2-0.1,0.4-0.4,0.6-0.6
	c0.1-0.2,0.2-0.5,0.2-0.8V150.9C422.2,150.3,422,149.9,421.5,149.7z"/>
</svg>
