<?xml version="1.0" encoding="utf-8"?>
<!-- Generator: Adobe Illustrator 26.0.1, SVG Export Plug-In . SVG Version: 6.00 Build 0)  -->
<svg version="1.1" id="图层_1" xmlns="http://www.w3.org/2000/svg" xmlns:xlink="http://www.w3.org/1999/xlink" x="0px" y="0px"
	 viewBox="0 0 44.4 56.6" style="enable-background:new 0 0 44.4 56.6;" xml:space="preserve">
<style type="text/css">
	.st0{fill:#070001;}
</style>
<g id="页面-1">
	<g id="NFT-TOKEN-TRC721备份" transform="translate(-40 -70)">
		<g id="logo" transform="translate(40 70)">
			<path id="形状" class="st0" d="M22.2,1.1c5.6,0,11,2.1,14.9,6c4,3.9,6.2,9,6.2,14.5v33.9H1.1V21.6c0-5.5,2.2-10.6,6.2-14.5
				C11.2,3.2,16.5,1.1,22.2,1.1 M22.2,0C16.3,0,10.7,2.2,6.5,6.3S0,15.8,0,21.6v35h44.4v-35c0-5.8-2.3-11.2-6.5-15.2
				C33.7,2.2,28.1,0,22.2,0z"/>
			<g id="编组_1_" transform="translate(3.464 3.415)">
				<path id="形状_1_" class="st0" d="M31.8,5.7l-1-1c-3.3-2.9-7.5-4.4-12-4.4c-4.9,0-9.6,1.9-13,5.4c-3.5,3.5-5.4,8.1-5.4,13
					v30.6h36.8V18.8C37.2,13.8,35.2,9.2,31.8,5.7z M26.1,47.4c-1.7,0.6-3.6,0.9-5.5,0.9H7.3v-6.1c-0.3-0.3-0.6-0.7-0.8-1
					C4.2,38.2,3,34.5,3,30.7V19.2c0-4.5,1.7-8.7,4.7-12c0.4,0,0.9,0,1.4,0.1c3.1,0.3,7.3,1.4,10.9,3.9c3.2,2.2,7.1,6.2,7.1,12.7
					v23.2C26.8,47.2,26.5,47.3,26.1,47.4z"/>
				<path id="形状_2_" class="st0" d="M20.1,11.2c-3.6-2.4-7.8-3.6-10.9-3.9c-0.5,0-1-0.1-1.4-0.1c-3,3.3-4.7,7.5-4.7,12v11.5
					c0,3.8,1.2,7.5,3.5,10.5c0.3,0.3,0.5,0.7,0.8,1v6.1h13.3c1.9,0,3.7-0.3,5.5-0.9c0.4-0.1,0.7-0.2,1.1-0.4V23.8
					C27.2,17.3,23.3,13.4,20.1,11.2z M8.4,47.2v-3.9c1.8,1.7,3.9,3.1,6.2,3.9C14.6,47.2,8.4,47.2,8.4,47.2z M26.1,46.3
					c-1.7,0.6-3.6,0.9-5.5,0.9c-4.4,0-8.5-1.7-11.7-4.9l-0.6-0.6c-0.4-0.4-0.8-0.9-1.1-1.4C5.1,37.5,4,34.1,4,30.6V19.2
					c0-4,1.5-7.9,4.1-10.9c7,0.3,17.9,5.1,17.9,15.5v22.5C26,46.3,26.1,46.3,26.1,46.3z"/>
			</g>
			<g id="编组_2_" transform="translate(9.797 21.44)">
				<path id="路径_7_" class="st0" d="M8.2,15.8c-0.3,0-0.6-0.3-0.6-0.6V5c0-2.7,2.2-4.9,4.9-4.9s4.9,2.2,4.9,4.9
					c0,0.3-0.3,0.6-0.6,0.6S16.2,5.3,16.2,5c0-2-1.7-3.7-3.7-3.7S8.8,3,8.8,5v10.2C8.8,15.5,8.5,15.8,8.2,15.8z"/>
				<path id="路径_8_" class="st0" d="M14.3,7.9c-0.3,0-0.6-0.3-0.6-0.6c0-0.7-0.5-1.2-1.2-1.2s-1.2,0.5-1.2,1.2
					c0,0.3-0.3,0.6-0.6,0.6s-0.6-0.3-0.6-0.6c0-1.4,1.1-2.5,2.5-2.5s2.5,1.1,2.5,2.5C14.9,7.6,14.6,7.9,14.3,7.9z"/>
				<path id="路径_9_" class="st0" d="M8.2,15.8c-1.8,0-3.3-1.5-3.3-3.3c0-0.3,0.3-0.6,0.6-0.6s0.6,0.3,0.6,0.6c0,1.1,0.9,2,2,2
					s2-0.9,2-2c0-0.3,0.3-0.6,0.6-0.6s0.6,0.3,0.6,0.6C11.4,14.3,10,15.8,8.2,15.8z"/>
				<path id="路径_10_" class="st0" d="M4.7,8.9c-0.2,0-0.3-0.1-0.4-0.2L1.6,6v2.3c0,0.3-0.3,0.6-0.6,0.6S0.3,8.6,0.3,8.2V4.5
					c0-0.3,0.2-0.5,0.4-0.6C1,3.8,1.2,3.8,1.4,4l2.7,2.7V5.1c0-0.3,0.3-0.6,0.6-0.6s0.6,0.3,0.6,0.6v3.1c0,0.3-0.2,0.5-0.4,0.6
					C4.9,8.9,4.8,8.9,4.7,8.9z"/>
				<path id="路径_11_" class="st0" d="M8.1,5.7c-0.3,0-0.6-0.3-0.6-0.6c0-0.1,0-2.6-1.7-2.6c-0.3,0-0.6-0.3-0.6-0.6
					s0.3-0.6,0.6-0.6c2.3,0,2.9,2.5,2.9,3.8C8.7,5.4,8.4,5.7,8.1,5.7z"/>
			</g>
		</g>
	</g>
</g>
</svg>
