<?xml version="1.0" encoding="utf-8"?>
<!-- Generator: Adobe Illustrator 26.0.1, SVG Export Plug-In . SVG Version: 6.00 Build 0)  -->
<svg version="1.1" id="Layer_1" xmlns="http://www.w3.org/2000/svg" xmlns:xlink="http://www.w3.org/1999/xlink" x="0px" y="0px"
	 viewBox="0 0 53.1 56" style="enable-background:new 0 0 53.1 56;" xml:space="preserve">
<linearGradient id="SVGID_1_" gradientUnits="userSpaceOnUse" x1="0" y1="27.8898" x2="53.075" y2="27.8898" gradientTransform="matrix(1 0 0 -1 0 55.8898)">
	<stop  offset="0" style="stop-color:#133557"/>
	<stop  offset="1" style="stop-color:#0F1C2C"/>
</linearGradient>
<path style="fill:url(#SVGID_1_);" d="M48,25c-0.2,1.5-1.1,7.6-6,11c-4.1,2.9-9.5,3-12,3c-0.4,0-0.8,0-1,0h-1v-1
	c0.1-1.5,0.5-6.1,4-10c5.7-6.3,14.3-5.1,15-5h1V25z M35,21c0.4-0.4,0.8-0.8,1-1l-1-1c-0.2-0.2-0.6-0.6-1-1c-1.7-1.6-5.4-5-11-6
	c-1.3-0.2-3.4-0.6-6,0c-2.9,0.7-5,2.1-6,3l-1,1l-1,1l1,1l1,1c1.1,1,3.8,3.6,8,5c1.8,0.6,4.5,1.6,8,1C31.3,24.3,34.2,21.7,35,21z
	 M18,27c-1.7-0.7-4.6-1.6-8-1c-4.5,0.8-7.6,3.7-9,5c-0.4,0.4-0.8,0.7-1,1l1,1c4,2.6,7,2.2,8,2c3.4-0.6,6.3-3.4,9-6l1-1L18,27z
	 M37,18c0.4,0.4,0.8,0.8,1,1c0.2-0.2,0.6-0.5,1-1c2.6-3.1,2.1-7.2,2-8c-0.3-2.4-1.4-4.1-2-5c-1.4-2.1-3-3.3-4-4l-2-1
	c-0.3,0.2-0.6,0.5-1,1c-2.4,2.9-2,6.8-2,7C30.4,11.2,32.6,13.5,37,18z M28,11c0-0.2,0-0.6,0-1c0,0-0.1-2.2-1-4c-1-1.9-4.1-3.7-8-4
	c-0.3,0-0.7,0-1,0v1c0,0.4,0.4,4.9,4,7c1.5,0.9,3,1,4,1H28z M9,38c-0.9,0.2-2.5,0.7-4,2c-2.5,2.2-2.9,5.3-3,6c-0.1,0.8-0.1,1.5,0,2
	h2c0.7-0.1,4.6-1,6-4c0.9-1.8,1-4.7,1-5c0-0.4,0-0.8,0-1H9z M20,30c0,0-5.2,3.9-7,8c-1.6,3.7-1.3,7.1-1,9c0.1,0.7,0.9,4.6,4,8l1,1h1
	l1-1c1.3-1.1,3.6-3.4,5-7c0.3-0.8,1.9-4.9,1-10c-0.3-1.7-0.8-4.5-3-7c-0.4-0.4-0.7-0.8-1-1H20z M27,43c0.2,0.5,0.5,1.2,1,2
	c0.7,1.2,3.6,6,9,7c3,0.5,5.5-0.3,7-1c0-0.2,0-0.6,0-1s-0.2-2-2-4c-2.5-2.8-5.7-3.9-6-4c-3.6-1.2-6.8-0.4-8,0L27,43z M41,41
	c1,0.8,2.8,1.8,5,2c2.8,0.2,6.5-0.9,7-3c0.1-0.4,0.1-0.8,0-1c-0.4-0.4-2.7-3.1-6-3c-2.7,0.1-4.9,2-6,3c-0.4,0.4-0.8,0.7-1,1L41,41z"
	/>
</svg>
