<svg xmlns="http://www.w3.org/2000/svg" viewBox="0 0 1755.86 1999.96"><defs><style>.cls-1{fill:#050708;}.cls-2{fill:#fff;}</style></defs><title>numeraire-nmr-logo</title><g id="Layer_2" data-name="Layer 2"><g id="Layer_1-2" data-name="Layer 1"><path class="cls-1" d="M1755.8,1337.31q.08-337.44,0-674.87c.91-23-10.64-45.89-29.1-59.45Q1324.6,309.19,922.49,15.3a72.07,72.07,0,0,0-58-14C852,3.75,840.74,10,830.71,17.52Q431.47,309.33,32.19,601.11A74.71,74.71,0,0,0,.12,662.83q-.24,337.35,0,674.67c-.35,24.36,12.29,48,32.32,61.72q399.24,291.66,798.32,583.45c25.46,21.78,65.4,23.5,91.68,2.27q400.82-292.67,801.34-585.62c20.11-13.55,33.12-37.61,32-62"/><path class="cls-2" d="M785.24,162.31c7.06-8,14.22-20.47,26.63-18.81,42.21.25,84.52-.66,126.72.45,7.31,4.54,12.91,11.35,19.16,17.2q-.24,65.34,0,130.71c-12.56.15-25.16.71-37.72-.15-.76-3.08-2.27-9.13-3-12.2,0-32.53,2.82-65.1.1-97.58q-46.53.07-93,0c-.15,10.94-.2,21.94-.3,32.88-13.06,0-26.17,0-39.28-.1.09-17.41-1.83-35.11.69-52.4"/><path class="cls-2" d="M680,215.46c14.27-.55,28.54-.55,42.86-.2.2,60.26.45,120.47-.15,180.68-13.62.3-27.23.3-40.8.2-4.53-60-.91-120.47-1.91-180.68"/><path class="cls-2" d="M1043,280.21c38-.5,75.94-.35,113.92-.1.2,13.92.2,27.79,0,41.7-38,.4-76,.55-114-.1-.14-13.82-.14-27.73,0-41.5"/><path class="cls-2" d="M812.58,300.73c15.33-.35,30.66-.3,46-.3,14.67,28.54,33.08,55.17,45,85.07-14.07.66-28.19.66-42.26.71-16.72-28.23-32.86-56.79-48.74-85.48"/><path class="cls-2" d="M969.1,350.91c13.26-.3,26.52-.25,39.84-.05,36.1,56,71.19,112.66,107.56,168.53,0,17,0,34-.3,51-3.94-.71-11.7-2.07-15.58-2.72-30.86-46-59.25-93.64-89.76-139.84-.5,52,.15,104-.35,156q-20.73.38-41.55,0c-.17-77.61-.42-155.27.14-232.92"/><path class="cls-2" d="M1133.9,382.42c14.12-.3,28.29-.3,42.41.1.1,13.31.1,26.68,0,40-14.12.35-28.29.35-42.36.1q-.15-20.06,0-40.2"/><path class="cls-2" d="M435.83,395.58c11.14-.2,22.29-.15,33.43-.05,29.75-2,59.45-1.41,89.21.3.1,12.91,0,25.87-.1,38.78-44,26.42-86.28,55.72-130.91,81-13.16-5-23.2-15.53-33.94-24.31,29.2-17.8,57.79-36.56,87.29-53.86-14.93-.76-29.9-.66-44.83-.81q-.39-20.58-.15-41.05"/><path class="cls-2" d="M787.82,410.91c13.67-.4,27.38-.35,41,0,.35,13.72.35,27.38,0,41.1q-20.5.6-41,.05-.48-20.58,0-41.15"/><path class="cls-2" d="M587.21,451.05c21.89,33.18,43.12,66.82,65.3,99.8,22.14-33.38,43.52-67.27,65.86-100.5,0,22,1.46,44.23-.45,66.21-20.27,34.74-43.72,67.57-65.56,101.36-21.48-33.23-44.23-65.76-64.6-99.64-2.31-22.3-.65-44.84-.55-67.23"/><path class="cls-2" d="M1193.2,456.65q98.55-.45,197.12.05c0,13.31,0,26.68-.06,40q-98.49.23-197.06.05c-.06-13.37-.1-26.77,0-40.1"/><path class="cls-2" d="M845.4,508.69c13.21-.25,26.47-.25,39.74-.1.66,58.29,0,116.64.35,175-6.15,5.85-12.25,11.8-18.25,17.75-45.54.5-91.07,0-136.56.25-6-5.75-12.15-11.25-17.55-17.45-2.32-17.85-.61-36.06-.66-54q19-.15,38.12,0c.35,10.29.3,20.57.15,30.86,31.32,3.53,62.88,1,94.35,1.76.16-51.35-.34-102.78.31-154.07"/><path class="cls-2" d="M1480.64,681q-.62-66,0-132.07c13.77-.3,27.53-.35,41.35,0q.67,66,0,132.12c-13.78.23-27.54.18-41.31,0"/><path class="cls-2" d="M1284.43,582.17c26-.25,52.14-4.29,78-.1,16.94,55.22,31.47,111.29,48.31,166.61-13.31.1-26.68.1-40,.1-12.71-42.91-23.55-86.33-36.66-129.15-7.31.1-14.62.2-21.94.25-10.89,43.22-24,85.78-35.25,128.84q-20.13.07-40.24-.05c16.51-55.31,32-111,47.78-166.5"/><path class="cls-2" d="M172.85,603.25c59.91-.35,119.87-.5,179.77,0,.35,13.77.35,27.48.05,41.25-60,.55-119.92.4-179.88.05-.19-13.77-.19-27.62.06-41.35"/><path class="cls-2" d="M380.87,603.3c13.62-.1,27.23-.15,40.9,0,.3,13.82.3,27.68,0,41.5-13.67.15-27.28.1-40.9,0-.16-13.82-.16-27.59,0-41.4"/><path class="cls-2" d="M531.44,605c13.36-.1,26.78-.05,40.14.1.4,32,.2,64.09.2,96.12-13.57.1-27.13.15-40.64,0-.14-32-.56-64.17.3-96.27"/><path class="cls-2" d="M1578.67,633.75c15.38-.3,30.81-.25,46.19-.3,15.23,28.24,33.74,55,45.08,85.17-14,.5-28.09.55-42.11.61-16.58-28.39-32.37-57.25-49.17-85.48"/><path class="cls-2" d="M972.33,668q20-.15,40,0c.3,43.87.09,87.74.09,131.62-13.41.1-26.78.15-40.18.15,0-43.91-.07-87.88.09-131.82"/><path class="cls-2" d="M1113,721.35q-.24-20.58,0-41.25c13.46-.2,27-.2,40.49.15,0,13.72.1,27.43-.1,41.15-13.44.05-27,0-40.44,0"/><path class="cls-2" d="M351.92,782.16c32.32-23.6,66.82-44.12,100-66.41,21.94.25,43.82,0,65.76.3-32.58,23.3-67.22,43.42-100,66.41,33.69,21.18,66.72,43.37,100.2,64.75-22.54.4-45.08.15-67.62.2-32.53-22.08-66.32-42.43-98.34-65.25"/><path class="cls-2" d="M1480.69,743.89c13.81-.3,27.63-.35,41.5,0,.34,13.82.3,27.58-.1,41.4-13.77.3-27.58.25-41.35,0q-.45-20.66,0-41.3"/><path class="cls-2" d="M62.06,749.54c69-.4,138.12-.55,207.21.1.15,13.06.15,26.17.2,39.28-30.86,20.22-61.72,40.54-93.44,59.3-13.41-4.89-23.55-16-35-24.15,17.09-10.79,34.44-21.23,51-32.78-43.32-.2-86.63.25-130-.25q-.3-20.73,0-41.5"/><path class="cls-2" d="M652.87,789.58c59.76.25,119.51-.3,179.22.25a170.74,170.74,0,0,1-.55,40.85c-59.56.25-119.06.05-178.56.1q-.16-20.67-.11-41.2"/><path class="cls-2" d="M871.12,789.83c14.37-.3,28.69-.3,43.07.2q.07,20.12-.06,40.14c-14.32.4-28.69.4-43,.15-.14-13.51-.14-27,0-40.49"/><path class="cls-2" d="M1059.07,847.62c-1.87-14.17,12.66-21.43,20.12-31.16,17.55,0,35.09-.1,52.65.25.4,13.21.4,26.42.19,39.69-11.08.2-22.24.2-33.32.35v94.1c51.58.35,103.17-.2,154.76.3.15,13.36.15,26.73-.2,40-58.09.4-116.24.05-174.33.2-7.41-9.68-21.63-17-19.82-31.06q-.39-56.31,0-112.67"/><path class="cls-2" d="M1254.67,835.11c14.22-.5,28.54-.5,42.81,0q.23,20.42,0,40.85c-14.27.5-28.49.5-42.76,0-.15-13.67-.15-27.28,0-40.95"/><path class="cls-2" d="M1390.58,835.11c60.11-.81,120.17-.25,180.28-.3.1,13.87.1,27.79-.06,41.65-60.06,0-120.11.5-180.18-.25q-.3-20.58,0-41.1"/><path class="cls-2" d="M557.92,883.07c33.69-.05,67.32,0,101-.05q.45,21,0,42-50.46.08-100.86,0-.88-21-.09-41.95"/><path class="cls-2" d="M780.05,883.07c52.85-.05,105.7,0,158.54-.1,19.2-3,38.43,16.94,36,35.9q-.17,58.23-.06,116.59c-6.76,7.31-13.56,14.52-20.37,21.78-17.5,0-34.94,0-52.44-.2q-.22-20-.05-39.94c10.94-.15,21.9-.25,32.83-.4,0-30.56,0-61.17.1-91.73-51.34-4.59-103.07-.76-154.56-2.12q-.19-20,0-39.78"/><path class="cls-2" d="M407.59,895.37c25.82-.15,51.59-.3,77.41.1,15.63,55.82,32.42,111.34,47.2,167.42-13,0-26,0-38.93.1-13.26-43.07-23.5-86.94-37.17-129.8-7.36.45-14.72,1-22.09,1.56-9.78,43.17-23.75,85.22-34.44,128.19-13.36,0-26.73,0-40-.15,15.9-55.81,31.73-111.7,48-167.42"/><path class="cls-2" d="M1534,945.8c45-.45,90.06-.91,135,.15,11.35,7,24.15,18.36,21.68,33.28,0,32-.2,64.09,0,96.12-.4,15.38.3,30.76-.15,46.14.71,12.56-2.72,24.91-2,37.52-12.81,0-25.62,0-38.43-.15.15-57.79,0-115.63.1-173.42-31.43-.86-62.83-.2-94.25-.45-.06,10.74-.06,21.48-.25,32.27q-19.83.3-39.65.2c-.25-17.7-.19-35.45-.15-53.15,6.09-6.1,12.09-12.26,18.09-18.51"/><path class="cls-2" d="M253.43,947.41h41.8c.1,43.92,0,87.79,0,131.67h-42c.2-43.87.05-87.79.15-131.67"/><path class="cls-2" d="M122.27,984.13c13.72-.2,27.43.2,41.1,1.11q.23,19.51,0,39.08c-13.82.15-27.63.2-41.45,0-.15-13.42-.1-26.78.35-40.14"/><path class="cls-2" d="M613.44,1224.82q-.54-116.49-.05-233c13.62-.2,27.23-.2,40.85.1,32,51.59,65,102.62,97.68,153.85,14.12,18.2,5.65,42.61,7.92,63.79-4.74,0-9.48.1-14.17.2-29.4-46.7-60.11-92.59-88.25-140-5.09,51.54-.91,103.53-2.57,155.27-13.85.14-27.65.14-41.41-.21"/><path class="cls-2" d="M795,1021.69q20.79-.45,41.6-.1c.2,33.94.15,67.88,0,101.81-13.92.25-27.79.25-41.7-.1-.23-33.88-.29-67.77,0-101.61"/><path class="cls-2" d="M1046.41,1067.08c13.57-.1,27.18-.15,40.8,0q.38,20.73,0,41.45-20.43.08-40.8,0-.24-20.65,0-41.4"/><path class="cls-2" d="M1178.68,1068.89c42.26-.55,84.52-.25,126.83-.15,1.71,12.35,2.77,24.91,1.56,37.42-4,8.12-13.57,4.89-20.73,5.65-36-1.06-72.11,2.07-107.86-2-.25-13.69-.25-27.3.2-40.92"/><path class="cls-2" d="M1349.18,1074.74c13.62-.2,27.38-1.11,41,1,1.31,47.7.55,95.56.3,143.32q-20.65.38-41.25,0-.69-72.13,0-144.27"/><path class="cls-2" d="M972.33,1103c13.31,0,26.68-.1,40,0,.15,13.72.19,27.48,0,41.3q-20,.3-40,0c-.1-13.76-.1-27.58,0-41.35"/><path class="cls-2" d="M331.19,1132.33c47.5-5.14,95.46-1.06,143.16-2.57a318.7,318.7,0,0,1,36.81,1.66c.2,13.87.15,27.79,0,41.65-60-.1-119.87.3-179.77-.2-.36-13.51-.36-27-.25-40.54"/><path class="cls-2" d="M62.11,1163c6.51-6.35,13.06-12.76,19.62-19.11,17.35-.1,34.69-.15,52,.2.2,13.11.2,26.27.1,39.38-10.79.25-21.53.3-32.32.4.25,31.27-.15,62.53.25,93.8,51.08.15,102.17-.35,153.25.25.25,12.91.25,25.77.15,38.68-12.66.05-25.37.1-38,.1-45.33-.45-90.72.76-136-.55-7.56-4.29-15.18-11.35-18.61-19.36-1.19-44.57-.14-89.2-.39-133.79"/><path class="cls-2" d="M1121.85,1189c6.81-6.4,13.67-12.81,20.68-19.06,44.17.35,88.35,0,132.52.15,6.66,6.35,13.31,12.76,20,19.06q.08,65.58,0,131.11c-13.46.1-26.93,0-40.34-.35,0-36.76-.3-73.47.15-110.23-31-.05-61.87,0-92.79-.05.05,11.19,0,22.39-.25,33.58-13.26.2-26.52.2-39.74.15-.43-18.12-.33-36.22-.28-54.36"/><path class="cls-2" d="M1405.45,1266.17c49-31.92,98.49-63,147.9-94.2,11.8,7.87,23.4,16.14,34.9,24.41q-53.34,34-106.6,67.83c52.19.55,104.39,0,156.63.3.1,13.87.1,27.79,0,41.65q-116.36.38-232.68,0c-.2-13.37-.2-26.73-.1-40"/><path class="cls-2" d="M850.9,1274.08c49.17-32.73,99.9-63.09,149.06-95.81,11.69,8.07,23.25,16.29,35.15,24-34,23.9-70.09,44.73-104.74,67.77,51.89.91,103.78-.1,155.67.55.35,14.27.35,28.59,0,42.86-77.66.45-155.33.15-233,.15-2-13.09-2-26.35-2.09-39.57"/><path class="cls-2" d="M340.47,1238.78c21.58,33,43.22,66,64.55,99.09,22.89-32.68,43.37-67,66.06-99.85.45,22.24.1,44.53.3,66.77-22.59,33.08-43.27,67.47-66.46,100.1-21.48-32.78-42.31-66-64.7-98.18-.22-22.64-.45-45.33.25-67.93"/><path class="cls-2" d="M577,1323.45c-.5-14.12-.55-28.24.25-42.31,13.57-.15,27.23-.1,40.8,1q.45,20.64,0,41.3c-13.64.11-27.31.16-41,0"/><path class="cls-2" d="M769.26,1343.83c13.77-.15,27.58-.2,41.35,0,.35,51.28,0,102.57.2,153.85-9.78.4-19.57.86-29.35,1.76-3.13-.61-9.38-1.71-12.51-2.27.31-51.08-.25-102.21.31-153.29"/><path class="cls-2" d="M1054.12,1376c26-.5,51.93-.15,77.91-.3q23.9,83.73,47.86,167.47c-13.41,0-26.83,0-40.19-.3-11.4-42.66-23.75-85.07-35.35-127.68-7.26-.45-14.52-.76-21.78-1.11q-18,64.59-35.9,129.15c-13.41,0-26.78,0-40.14-.2,16.33-55.57,32.57-111.14,47.59-167"/><path class="cls-2" d="M465.38,1468.48c49.47-31.77,98.84-63.74,149-94.45,11.55,8.12,23.2,16,34.64,24.31-35.9,22.34-71.1,45.84-107.36,67.57,52.55,1,105.14-.15,157.74.61.25,13.82.3,27.63-.1,41.45-77.91.25-155.82.61-233.73-.15-.39-13.12-.34-26.23-.19-39.34"/><path class="cls-2" d="M874,1384.17a304.64,304.64,0,0,0,43.32-2.62c17,28,37.06,55.77,45.79,87.64-13.57.1-27.13.1-40.64.2q-23.94-42.81-48.47-85.22"/><path class="cls-2" d="M1446.7,1401.26c14.17-.45,28.39-.45,42.6-.15q.09,20.34,0,40.75c-14.21.35-28.39.35-42.56-.25-.25-13.47-.25-26.88,0-40.35"/><path class="cls-2" d="M1342.27,1509.78c17.15-27.58,35.5-54.36,52.75-81.89.5,20.42.81,40.9.3,61.37.5,7.67-5.09,13.62-8.67,19.82-19,28.09-37.22,56.73-55.87,85-22.44-33.48-44.17-67.32-66.36-101-.1-22.39-.3-44.78.25-67.12,21.78,32.63,42.36,66.11,64.65,98.43,6.29-2.66,9.12-9.41,13-14.61"/><path class="cls-2" d="M286.92,1470.1c36.36-1.21,72.77-.61,109.18-.35.2,13.46,1.06,27-.66,40.44-36.11,1.76-72.36.91-108.47.25-.15-13.46-.15-26.88-.05-40.34"/><path class="cls-2" d="M730.18,1558c58.29-.86,116.54,0,174.83-.45q10,10,20,20.12c-.25,44.53-.15,89.11-.1,133.73q-8.77,9.15-17.35,18.51c-18.66.4-37.32.45-56-.1.25-12.61-1.36-25.47,1.66-37.82,10.54-1.11,21.13-.71,31.77-.81.1-31.21,0-62.38,0-93.54-51.64-.3-103.33.66-154.91-.5q-.24-19.59,0-39.14"/><path class="cls-2" d="M450.15,1572.82q20.42-.3,40.9.1.3,20.41.05,40.95-20.58.3-41,.05-.28-20.58,0-41.1"/><path class="cls-2" d="M1171.37,1594.85c15.43-13,29.45,8.67,42.66,15,0,1.21,0,3.68,0,4.89-34.49,22.24-69.79,43.27-103.53,66.67l19.57-.15q15.57,0,31.27.35c.1,13.62.1,27.28-.1,40.9-42.46.61-84.92.45-127.38.1-.86-12.86-1-25.77-1.11-38.58,45.33-31,92.63-59,138.57-89.18"/><path class="cls-2" d="M526.75,1632.67c55.12-.2,110.29-.5,165.4.15q.15,20.34,0,40.75c-55.17.81-110.29.45-165.45.2-.25-13.71-.2-27.43,0-41.1"/><path class="cls-2" d="M673.65,1737.36c15.53-.15,31.06-.2,46.6.1,14.37,28.59,33.48,54.92,44.53,85.12-13.92.76-27.79.76-41.7.86-17-28.39-32.89-57.46-49.43-86.08"/><path class="cls-2" d="M948.93,1780.83c13.57-.1,27.13.1,40.64,1,.25,13.57.15,27.18-1.56,40.7q-19.44.08-38.78,0c-.5-14-.5-27.83-.31-41.7"/><path class="cls-2" d="M854.38,1915.78c0-31.67-.71-63.39.5-95.06,13.67,0,27.38.76,41,2q.23,46.52,0,93.09-20.76.32-41.5,0"/></g></g></svg>