<?xml version="1.0" encoding="utf-8"?>
<!-- Generator: Adobe Illustrator 24.0.0, SVG Export Plug-In . SVG Version: 6.00 Build 0)  -->
<svg version="1.1" id="Layer_1" xmlns="http://www.w3.org/2000/svg" xmlns:xlink="http://www.w3.org/1999/xlink" x="0px" y="0px"
	 viewBox="0 0 28.4 28.1" style="enable-background:new 0 0 28.4 28.1;" xml:space="preserve">
<style type="text/css">
	.st0{fill-rule:evenodd;clip-rule:evenodd;fill:#050505;}
</style>
<path class="st0" d="M26,10c-1.5-0.8-3.3-0.8-4.7,0l-7.1,4.1l7.1,4.1c1.5,0.8,3.3,0.8,4.7,0c1.5-0.8,2.4-2.4,2.4-4.1
	C28.4,12.4,27.5,10.8,26,10z"/>
<path class="st0" d="M2.4,10C0.9,10.8,0,12.4,0,14.1c0,1.7,0.9,3.2,2.4,4.1c1.5,0.8,3.3,0.8,4.7,0l7.1-4.1L7.1,10
	C5.6,9.2,3.8,9.2,2.4,10z"/>
<path class="st0" d="M10.1,25.8c0.8,1.5,2.4,2.3,4.1,2.3c1.7,0,3.3-0.9,4.1-2.3c0.8-1.5,0.8-3.2,0-4.7l-4.1-7l-4.1,7
	C9.3,22.6,9.3,24.3,10.1,25.8z"/>
<path class="st0" d="M18.3,2.3C17.5,0.9,15.9,0,14.2,0c-1.7,0-3.3,0.9-4.1,2.3c-0.8,1.5-0.8,3.2,0,4.7l4.1,7l4.1-7
	C19.1,5.6,19.1,3.8,18.3,2.3z"/>
</svg>
