<?xml version="1.0" encoding="utf-8"?>
<!-- Generator: Adobe Illustrator 27.7.0, SVG Export Plug-In . SVG Version: 6.00 Build 0)  -->
<svg version="1.1" id="Layer_1" xmlns="http://www.w3.org/2000/svg" xmlns:xlink="http://www.w3.org/1999/xlink" x="0px" y="0px"
	 viewBox="0 0 500 500" style="enable-background:new 0 0 500 500;" xml:space="preserve">
<style type="text/css">
	.st0{fill:#0AB682;}
</style>
<g>
	<circle class="st0" cx="449.47" cy="322.61" r="50.53"/>
	<circle class="st0" cx="181.01" cy="448.14" r="50.53"/>
	<circle class="st0" cx="50.53" cy="180.05" r="50.53"/>
	<circle class="st0" cx="321.64" cy="51.86" r="50.53"/>
	<path class="st0" d="M326.24,463.46c18.48,18.48,50.49,20.41,69.51,2.5c20.17-18.99,20.53-50.74,1.08-70.19l-44.34-44.34
		c-18.9-18.9-18.9-49.53,0-68.43l112.04-112.04c18.48-18.48,20.41-50.49,2.5-69.51c-18.99-20.17-50.74-20.53-70.19-1.08
		l-49.22,49.22c-16.2,16.2-42.47,16.2-58.68,0L173.88,34.52c-18.48-18.48-50.49-20.41-69.51-2.5
		c-20.17,18.99-20.53,50.74-1.08,70.19l46.81,46.81c18.9,18.9,18.9,49.53,0,68.43L36.61,330.94c-19.45,19.45-19.09,51.2,1.08,70.19
		c19.02,17.91,51.04,15.98,69.51-2.5l47.77-47.77c16.2-16.2,42.47-16.2,58.68,0L326.24,463.46z M214.58,287.56
		c-20.15-20.15-20.15-52.82,0-72.97c20.15-20.15,52.82-20.15,72.97,0c20.15,20.15,20.15,52.82,0,72.97
		C267.4,307.71,234.73,307.71,214.58,287.56z"/>
</g>
</svg>
