<?xml version="1.0" encoding="utf-8"?>
<!-- Generator: Adobe Illustrator 27.7.0, SVG Export Plug-In . SVG Version: 6.00 Build 0)  -->
<svg version="1.1" id="Layer_1" xmlns="http://www.w3.org/2000/svg" xmlns:xlink="http://www.w3.org/1999/xlink" x="0px" y="0px"
	 viewBox="0 0 500 500" style="enable-background:new 0 0 500 500;" xml:space="preserve">
<style type="text/css">
	.st0{fill:#231F20;}
</style>
<g>
	<path class="st0" d="M207.5,213.8l16.2,46.2h-36.2l16.2-46.2H207.5z M292.5,285h-26.2v8.8h65V285H305v-73.8h26.2v-8.8h-65v8.8h26.2
		V285z M175,295l8.8-25h42.5l8.8,25h13.8L215,202.5h-18.8L162.5,295H175z M382.5,382.5h-265v-265h265V382.5z"/>
	<path class="st0" d="M276.2,500C393.8,487.5,488.7,393.8,500,276.2h-31.2C457.5,378.8,380,460,276.2,472.5V500z"/>
	<path class="st0" d="M0,276.2C12.5,393.8,106.2,487.5,223.8,500v-28.8C120,460,42.5,377.5,31.2,276.2H0z"/>
	<path class="st0" d="M500,223.8C487.5,106.2,393.8,12.5,276.2,0v28.8C381.2,40,457.5,122.5,468.8,225H500V223.8z"/>
	<path class="st0" d="M223.8,0C106.2,12.5,12.5,106.2,0,223.8h31.2C42.5,121.2,120,40,223.8,28.8V0z"/>
</g>
</svg>
