<?xml version="1.0" encoding="utf-8"?>
<!-- Generator: Adobe Illustrator 27.0.1, SVG Export Plug-In . SVG Version: 6.00 Build 0)  -->
<svg version="1.1" id="palm" xmlns="http://www.w3.org/2000/svg" xmlns:xlink="http://www.w3.org/1999/xlink" x="0px" y="0px"
	 viewBox="0 0 500 500" style="enable-background:new 0 0 500 500;" xml:space="preserve">
<path d="M97.1,136.6c16.3-14.7,32.6-29.3,48.7-44c32.6-29.3,65.2-58.6,97.8-87.9c0.7-0.7,1.4-1.2,1.9-1.7c0.7-0.7,1.4-1.2,1.9-1.7
	c0.2-0.2,0.5-0.5,0.7-0.5c0,0,0.2,0.2,0.5,0.5c0.5,0.5,0.9,0.9,1.7,1.7c0.5,0.5,0.9,1.2,1.7,1.9c5.7,6.4,11.6,12.8,17.3,19.1
	c16.3,17.7,32.6,35.7,47.5,54.1c20.1,24.8,37.1,49.9,46.8,75.6c9.7,25.5,12.1,51.8,2.8,78.5c-9.2,26.9-30,54.8-67.3,83.9
	c-6.9,5-16.1,6.1-24.8,4.3c-8.7-1.9-16.5-6.9-20.3-14.4c-4.3-7.8-5.4-14.2-5-19.9c0.5-5.4,2.8-10.4,6.4-15.1
	c3.1-4.3,7.1-8.5,11.3-13c0.5-0.5,0.9-0.9,1.2-1.4c4.7-5,9.7-10.2,13.7-16.1c39.5-63.3-43.5-143.4-110.4-85.1
	c-2.8,2.6-5.9,5.4-9.2,8.5l-0.2,0.2c-3.1,3.1-6.4,6.1-9.7,9c-6.9,6.1-14.2,11.8-21.3,15.6c-7.1,3.8-14.2,5.4-20.8,4
	c-6.6-1.7-13.2-6.4-19.9-17C82.7,164.5,85.8,146.6,97.1,136.6z"/>
<path d="M402,362.6c12.3-10.9,15.6-30,7.6-42.5c-26.9-43.2-61.7-0.2-84.8,19.8c-65,56.5-144.9-21-106.8-82
	c15.6-23.4,45.4-35,27.9-67.6c-8.7-16.3-33.8-21.7-48.9-10.9c-150.3,117-39.5,218.8,46.8,314.8c5.9,6.4,4.5,6.4,11.6,0.2
	C304.6,450,353.1,406.5,402,362.6z"/>
</svg>
