<?xml version="1.0" encoding="utf-8"?>
<!-- Generator: Adobe Illustrator 27.0.1, SVG Export Plug-In . SVG Version: 6.00 Build 0)  -->
<svg version="1.1" id="pbirb" xmlns="http://www.w3.org/2000/svg" xmlns:xlink="http://www.w3.org/1999/xlink" x="0px" y="0px"
	 viewBox="0 0 500 500" style="enable-background:new 0 0 500 500;" xml:space="preserve">
<style type="text/css">
	.st0{fill:url(#SVGID_1_);}
	.st1{fill:url(#SVGID_00000026124590285672189230000007671488981099724692_);}
	.st2{fill:url(#SVGID_00000039822192169330849370000004621230556298807188_);}
	.st3{fill:url(#SVGID_00000122717023077387870110000007425083380722628532_);}
	.st4{fill:url(#SVGID_00000120554872196238150390000000198334080451200896_);}
	.st5{fill:url(#SVGID_00000176019316247539850090000008536301051722639797_);}
	.st6{fill:url(#SVGID_00000053531122970418221180000006409461344231790217_);}
	.st7{fill:url(#SVGID_00000115487766593023035130000008845963240730519729_);}
	.st8{fill:url(#SVGID_00000146478969832069678640000006522752830812187569_);}
	.st9{fill:url(#SVGID_00000011020452492155265970000015935009829624142007_);}
	.st10{fill:url(#SVGID_00000052818532363647191200000006578248066356209309_);}
	.st11{fill:url(#SVGID_00000090272966391846901030000008275783846727058846_);}
	.st12{fill:url(#SVGID_00000026128423610121745200000012365327257882062001_);}
	.st13{fill:url(#SVGID_00000165202369315265411780000005737843698778799503_);}
	.st14{fill:url(#SVGID_00000021082619964690440990000004163044473155593655_);}
	.st15{fill:url(#SVGID_00000043444743895324799870000000397687616501069228_);}
	.st16{fill:url(#SVGID_00000174601526317438431850000014009100630382913937_);}
	.st17{fill:url(#SVGID_00000014633205384838370430000011733842779999525001_);}
	.st18{fill:url(#SVGID_00000013872595794445680510000009080759238807937670_);}
	.st19{fill:url(#SVGID_00000152980720784701866980000000169270104897812645_);}
	.st20{fill:url(#SVGID_00000050633660510462762030000009365173973188938140_);}
	.st21{fill:url(#SVGID_00000072970949124413994420000004393814521733408145_);}
	.st22{fill:url(#SVGID_00000142885599716477795720000005013639704864770433_);}
	.st23{fill:url(#SVGID_00000151512143812139459430000006221458583999722420_);}
	.st24{fill:url(#SVGID_00000012453071875422674920000011311475282017295517_);}
	.st25{fill:url(#SVGID_00000152983858039981781250000004032153528514112923_);}
	.st26{fill:url(#SVGID_00000039103185284543041600000009893603852399222698_);}
	.st27{fill:url(#SVGID_00000076605459615657353600000017028364050868586379_);}
	.st28{fill:url(#SVGID_00000080894058344662319090000007315748407370928051_);}
	.st29{fill:url(#SVGID_00000042711320453155599080000005042724325734183054_);}
	.st30{fill:url(#SVGID_00000160192750721674261460000004743945066653695663_);}
	.st31{fill:url(#SVGID_00000025444065612700725500000011124289241439984308_);}
	.st32{fill:url(#SVGID_00000039134811267990403620000004676644750800444853_);}
	.st33{fill:url(#SVGID_00000176744338580901055550000005908796512677004704_);}
	.st34{fill:url(#SVGID_00000174597700619741633970000011808016409728251266_);}
	.st35{fill:url(#SVGID_00000172405830315239683870000007370559740177385119_);}
	.st36{fill:url(#SVGID_00000068671536296205729910000015083893089027952311_);}
	.st37{fill:url(#SVGID_00000013899740630293846670000010822912313523258250_);}
	.st38{fill:url(#SVGID_00000178193729574269290640000017690143754779556279_);}
	.st39{fill:url(#SVGID_00000166646363485517863640000004586964945991021962_);}
	.st40{fill:url(#SVGID_00000116952570592606305750000011621252839420788364_);}
	.st41{fill:url(#SVGID_00000060007530678440645950000017439232442221678752_);}
	.st42{fill:url(#SVGID_00000167374311934648658590000018050890206786239918_);}
	.st43{fill:url(#SVGID_00000095321182649320969140000000092055630715794829_);}
</style>
<linearGradient id="SVGID_1_" gradientUnits="userSpaceOnUse" x1="280.9882" y1="354.625" x2="313.6427" y2="363.987" gradientTransform="matrix(1 0 0 -1 0 501)">
	<stop  offset="0" style="stop-color:#1CBBED"/>
	<stop  offset="1" style="stop-color:#474C9F"/>
</linearGradient>
<path class="st0" d="M312.6,133.5c0,0-24.8,12.7-33,8.2c0,0,4.1,8.2,13.7,6.2"/>
<linearGradient id="SVGID_00000169518947300489175160000017547515552943307709_" gradientUnits="userSpaceOnUse" x1="282.1411" y1="346.9893" x2="295.8934" y2="350.9329" gradientTransform="matrix(1 0 0 -1 0 501)">
	<stop  offset="0" style="stop-color:#1CBBED"/>
	<stop  offset="1" style="stop-color:#474C9F"/>
</linearGradient>
<path style="fill:url(#SVGID_00000169518947300489175160000017547515552943307709_);" d="M294.9,146.6c0,0-8.8,8.3-13.2,5.9
	c0.7,1.1,1.7,2,2.9,2.6c1.2,0.6,2.5,1,3.8,1"/>
<linearGradient id="SVGID_00000008145033667031617050000008050544127725473409_" gradientUnits="userSpaceOnUse" x1="69.0517" y1="403.6018" x2="216.5218" y2="327.8451" gradientTransform="matrix(1 0 0 -1 0 501)">
	<stop  offset="0" style="stop-color:#1CBBED"/>
	<stop  offset="1" style="stop-color:#474C9F"/>
</linearGradient>
<path style="fill:url(#SVGID_00000008145033667031617050000008050544127725473409_);" d="M71.7,65.7c0,0-4.9-11.8-16.4-17.9
	c0,0-3.5,75.5,31.9,101C119,171.8,71.7,65.7,71.7,65.7z"/>
<linearGradient id="SVGID_00000109020556368112751930000012268318973972849846_" gradientUnits="userSpaceOnUse" x1="43.3077" y1="352.2805" x2="188.538" y2="277.6727" gradientTransform="matrix(1 0 0 -1 0 501)">
	<stop  offset="0" style="stop-color:#1CBBED"/>
	<stop  offset="1" style="stop-color:#474C9F"/>
</linearGradient>
<path style="fill:url(#SVGID_00000109020556368112751930000012268318973972849846_);" d="M88.9,150.3c0,0-10.6-9.5-20-8
	c0,0,20.5,52.3,49.8,68.2C147.9,226.5,88.9,150.3,88.9,150.3z"/>
<linearGradient id="SVGID_00000170241059219742356660000011739006012846271410_" gradientUnits="userSpaceOnUse" x1="28.9746" y1="324.3778" x2="174.2056" y2="249.7699" gradientTransform="matrix(1 0 0 -1 0 501)">
	<stop  offset="0" style="stop-color:#1CBBED"/>
	<stop  offset="1" style="stop-color:#474C9F"/>
</linearGradient>
<path style="fill:url(#SVGID_00000170241059219742356660000011739006012846271410_);" d="M120.2,210.9c0,0-10.8-5.8-18.3-2.5
	c0,0,25.3,33.5,58.2,48c3.6,1.6,28.9,14.1,28.9,14.1L120.2,210.9z"/>
<linearGradient id="SVGID_00000148630427818883961360000007031157265660474770_" gradientUnits="userSpaceOnUse" x1="403.9873" y1="243.1313" x2="324.0571" y2="270.1221" gradientTransform="matrix(1 0 0 -1 0 501)">
	<stop  offset="0" style="stop-color:#1CBBED"/>
	<stop  offset="1" style="stop-color:#474C9F"/>
</linearGradient>
<path style="fill:url(#SVGID_00000148630427818883961360000007031157265660474770_);" d="M416.6,246.4c0,0,6-2.4,12.3-0.4
	c0,0-26.2,27.9-48,24.1C361.4,266.7,416.6,246.4,416.6,246.4z"/>
<linearGradient id="SVGID_00000067927507977934802710000001253694706687446674_" gradientUnits="userSpaceOnUse" x1="397.6509" y1="215.6893" x2="318.5697" y2="239.9583" gradientTransform="matrix(1 0 0 -1 0 501)">
	<stop  offset="0" style="stop-color:#1CBBED"/>
	<stop  offset="1" style="stop-color:#474C9F"/>
</linearGradient>
<path style="fill:url(#SVGID_00000067927507977934802710000001253694706687446674_);" d="M379.6,269.4c0,0,7.2,0.2,10.1,4.1
	c0,0-25.9,11.8-42.2,7.4C331.2,276.4,379.6,269.4,379.6,269.4z"/>
<linearGradient id="SVGID_00000139267705336503746950000017617116037836510131_" gradientUnits="userSpaceOnUse" x1="399.6795" y1="198.2394" x2="310.4778" y2="216.8281" gradientTransform="matrix(1 0 0 -1 0 501)">
	<stop  offset="0" style="stop-color:#1CBBED"/>
	<stop  offset="1" style="stop-color:#474C9F"/>
</linearGradient>
<path style="fill:url(#SVGID_00000139267705336503746950000017617116037836510131_);" d="M349.9,280.6c0,0,6.1,1.2,8,4.8
	c0,0-21,5.1-40.2,6.5c-7.5,0.6-21.9,0.9-21.9,0.9L349.9,280.6z"/>
<linearGradient id="SVGID_00000025427462049975821330000013722673721716830094_" gradientUnits="userSpaceOnUse" x1="230.9842" y1="200.4229" x2="247.7383" y2="203.0479" gradientTransform="matrix(1 0 0 -1 0 501)">
	<stop  offset="0" style="stop-color:#1CBBED"/>
	<stop  offset="1" style="stop-color:#474C9F"/>
</linearGradient>
<path style="fill:url(#SVGID_00000025427462049975821330000013722673721716830094_);" d="M247.1,294.1c-5,3.7-10.2,7.1-15.6,10.2
	C236.6,300.8,241.8,297.3,247.1,294.1z"/>
<linearGradient id="SVGID_00000063608556863251039020000009134027395677129642_" gradientUnits="userSpaceOnUse" x1="166.4344" y1="293.7304" x2="185.0997" y2="296.6548" gradientTransform="matrix(1 0 0 -1 0 501)">
	<stop  offset="0" style="stop-color:#1CBBED"/>
	<stop  offset="1" style="stop-color:#474C9F"/>
</linearGradient>
<path style="fill:url(#SVGID_00000063608556863251039020000009134027395677129642_);" d="M164.2,192.8c7.3,9.1,15,17.7,23.2,26
	C178.8,210.9,171,202.2,164.2,192.8z"/>
<linearGradient id="SVGID_00000094601809538471939850000011696135028389372034_" gradientUnits="userSpaceOnUse" x1="247.5453" y1="243.7926" x2="253.6954" y2="244.7565" gradientTransform="matrix(1 0 0 -1 0 501)">
	<stop  offset="0" style="stop-color:#1CBBED"/>
	<stop  offset="1" style="stop-color:#474C9F"/>
</linearGradient>
<path style="fill:url(#SVGID_00000094601809538471939850000011696135028389372034_);" d="M247.3,255.6c2.2,0.8,4.4,1.6,6.7,2.3
	C251.7,257.3,249.4,256.5,247.3,255.6z"/>
<linearGradient id="SVGID_00000089549680427524193170000015560568574897358983_" gradientUnits="userSpaceOnUse" x1="295.1676" y1="297.6646" x2="297.8195" y2="298.0801" gradientTransform="matrix(1 0 0 -1 0 501)">
	<stop  offset="0" style="stop-color:#1CBBED"/>
	<stop  offset="1" style="stop-color:#474C9F"/>
</linearGradient>
<path style="fill:url(#SVGID_00000089549680427524193170000015560568574897358983_);" d="M296.7,203.1c0.6,1.2,1.2,2.4,1.7,3.7
	c-0.8-1.2-1.5-2.5-2.2-3.9c-0.6-1.1-1.1-2.2-1.6-3.4C295.4,200.7,296.1,201.9,296.7,203.1z"/>
<linearGradient id="SVGID_00000034812477982894315640000009072129950776427701_" gradientUnits="userSpaceOnUse" x1="294.0284" y1="260.6447" x2="297.583" y2="261.2017" gradientTransform="matrix(1 0 0 -1 0 501)">
	<stop  offset="0" style="stop-color:#1CBBED"/>
	<stop  offset="1" style="stop-color:#474C9F"/>
</linearGradient>
<path style="fill:url(#SVGID_00000034812477982894315640000009072129950776427701_);" d="M297.2,237.6c-0.8,1.7-1.8,3.3-2.9,4.9
	C295.4,240.9,296.3,239.3,297.2,237.6z"/>
<linearGradient id="SVGID_00000137813589717322098050000009924908645128691336_" gradientUnits="userSpaceOnUse" x1="294.0311" y1="207.8263" x2="296.1046" y2="208.1511" gradientTransform="matrix(1 0 0 -1 0 501)">
	<stop  offset="0" style="stop-color:#1CBBED"/>
	<stop  offset="1" style="stop-color:#474C9F"/>
</linearGradient>
<path style="fill:url(#SVGID_00000137813589717322098050000009924908645128691336_);" d="M296.1,292.6c-0.2,0.3-0.4,0.5-0.6,0.8
	l-1.5-0.7C294.7,292.7,295.4,292.7,296.1,292.6z"/>
<linearGradient id="SVGID_00000001651794603869091330000016279349543458078646_" gradientUnits="userSpaceOnUse" x1="230.9842" y1="200.4229" x2="247.7383" y2="203.0479" gradientTransform="matrix(1 0 0 -1 0 501)">
	<stop  offset="0" style="stop-color:#1CBBED"/>
	<stop  offset="1" style="stop-color:#474C9F"/>
</linearGradient>
<path style="fill:url(#SVGID_00000001651794603869091330000016279349543458078646_);" d="M247.1,294.1c-5,3.7-10.2,7.1-15.6,10.2
	C236.6,300.8,241.8,297.3,247.1,294.1z"/>
<linearGradient id="SVGID_00000166634684464004264980000013005048543092183172_" gradientUnits="userSpaceOnUse" x1="112.7805" y1="52.1464" x2="214.3707" y2="81.973" gradientTransform="matrix(1 0 0 -1 0 501)">
	<stop  offset="0" style="stop-color:#1CBBED"/>
	<stop  offset="1" style="stop-color:#474C9F"/>
</linearGradient>
<path style="fill:url(#SVGID_00000166634684464004264980000013005048543092183172_);" d="M216.2,368c-5,27.7-16.4,53.9-33.4,76.4
	c-16.9,22.5-39,40.8-64.2,53.2c6.1-34.1,21.9-65.7,45.6-91C179,390.7,196.6,377.6,216.2,368z"/>
<linearGradient id="SVGID_00000034064679482282432900000003049062525028622251_" gradientUnits="userSpaceOnUse" x1="295.1676" y1="297.6646" x2="297.8195" y2="298.0801" gradientTransform="matrix(1 0 0 -1 0 501)">
	<stop  offset="0" style="stop-color:#1CBBED"/>
	<stop  offset="1" style="stop-color:#474C9F"/>
</linearGradient>
<path style="fill:url(#SVGID_00000034064679482282432900000003049062525028622251_);" d="M296.7,203.1c0.6,1.2,1.2,2.4,1.7,3.7
	c-0.8-1.2-1.5-2.5-2.2-3.9c-0.6-1.1-1.1-2.2-1.6-3.4C295.4,200.7,296.1,201.9,296.7,203.1z"/>
<linearGradient id="SVGID_00000006691148276912510840000005270431136421876642_" gradientUnits="userSpaceOnUse" x1="83.6448" y1="367.3322" x2="259.5439" y2="341.2322" gradientTransform="matrix(1 0 0 -1 0 501)">
	<stop  offset="0" style="stop-color:#1CBBED"/>
	<stop  offset="1" style="stop-color:#474C9F"/>
</linearGradient>
<path style="fill:url(#SVGID_00000006691148276912510840000005270431136421876642_);" d="M284.6,257c-5.9,9.8-26.7,29.3-32.7,33.5
	c-21.9-3.4-43.1-10.1-62.9-20.1c-2.2-1.6-7.3-3.8-7.3-3.8c-55.8-30.7-97.4-86-108-153.8C67.9,75.5,72.1,37.3,85.9,2.1
	c1.1,2.7,2.2,5.4,3.3,8.1c0.6,6.1,1.4,12.2,2.4,18.4c9.3,60.1,34.3,116.8,72.5,164.2c6.9,9.4,14.6,18.1,23.2,26
	C210.5,242.3,255.9,240.9,284.6,257z"/>
<linearGradient id="SVGID_00000018922066329273092220000000187078504805534854_" gradientUnits="userSpaceOnUse" x1="166.4344" y1="293.7304" x2="185.0997" y2="296.6548" gradientTransform="matrix(1 0 0 -1 0 501)">
	<stop  offset="0" style="stop-color:#1CBBED"/>
	<stop  offset="1" style="stop-color:#474C9F"/>
</linearGradient>
<path style="fill:url(#SVGID_00000018922066329273092220000000187078504805534854_);" d="M164.2,192.8c7.3,9.1,15,17.7,23.2,26
	C178.8,210.9,171,202.2,164.2,192.8z"/>
<linearGradient id="SVGID_00000093896809885299319600000013644474963659521422_" gradientUnits="userSpaceOnUse" x1="247.5453" y1="243.7926" x2="253.6954" y2="244.7565" gradientTransform="matrix(1 0 0 -1 0 501)">
	<stop  offset="0" style="stop-color:#1CBBED"/>
	<stop  offset="1" style="stop-color:#474C9F"/>
</linearGradient>
<path style="fill:url(#SVGID_00000093896809885299319600000013644474963659521422_);" d="M254,257.9c-2.3-0.6-4.5-1.3-6.7-2.3
	C249.5,256.4,251.7,257.2,254,257.9z"/>
<linearGradient id="SVGID_00000014593850398526015870000005428887148452011655_" gradientUnits="userSpaceOnUse" x1="230.9842" y1="200.4229" x2="247.7383" y2="203.0479" gradientTransform="matrix(1 0 0 -1 0 501)">
	<stop  offset="0" style="stop-color:#1CBBED"/>
	<stop  offset="1" style="stop-color:#474C9F"/>
</linearGradient>
<path style="fill:url(#SVGID_00000014593850398526015870000005428887148452011655_);" d="M247.1,294.1c-5,3.7-10.2,7.1-15.6,10.2
	C236.6,300.8,241.8,297.3,247.1,294.1z"/>
<linearGradient id="SVGID_00000021090078761188025930000003420786100526932397_" gradientUnits="userSpaceOnUse" x1="295.1676" y1="297.6646" x2="297.8195" y2="298.0801" gradientTransform="matrix(1 0 0 -1 0 501)">
	<stop  offset="0" style="stop-color:#1CBBED"/>
	<stop  offset="1" style="stop-color:#474C9F"/>
</linearGradient>
<path style="fill:url(#SVGID_00000021090078761188025930000003420786100526932397_);" d="M296.7,203.1c0.6,1.2,1.2,2.4,1.7,3.7
	c-0.8-1.2-1.5-2.5-2.2-3.9c-0.6-1.1-1.1-2.2-1.6-3.4C295.4,200.7,296.1,201.9,296.7,203.1z"/>
<linearGradient id="SVGID_00000076575126966884542310000003446200607803450264_" gradientUnits="userSpaceOnUse" x1="319.4804" y1="369.9555" x2="321.3361" y2="370.2465" gradientTransform="matrix(1 0 0 -1 0 501)">
	<stop  offset="0" style="stop-color:#1CBBED"/>
	<stop  offset="1" style="stop-color:#474C9F"/>
</linearGradient>
<path style="fill:url(#SVGID_00000076575126966884542310000003446200607803450264_);" d="M321.3,130.5c-0.6,0.3-1.2,0.5-1.8,0.8
	c0-0.1,0-0.2,0-0.3C320.1,130.8,320.7,130.6,321.3,130.5z"/>
<linearGradient id="SVGID_00000006678671703666367550000001521267587884862361_" gradientUnits="userSpaceOnUse" x1="247.5453" y1="243.7926" x2="253.6954" y2="244.7565" gradientTransform="matrix(1 0 0 -1 0 501)">
	<stop  offset="0" style="stop-color:#1CBBED"/>
	<stop  offset="1" style="stop-color:#474C9F"/>
</linearGradient>
<path style="fill:url(#SVGID_00000006678671703666367550000001521267587884862361_);" d="M254,257.9c-2.3-0.6-4.5-1.3-6.7-2.3
	C249.5,256.4,251.7,257.2,254,257.9z"/>
<linearGradient id="SVGID_00000104701174467889900900000012343950406325577402_" gradientUnits="userSpaceOnUse" x1="294.0284" y1="260.6447" x2="297.583" y2="261.2017" gradientTransform="matrix(1 0 0 -1 0 501)">
	<stop  offset="0" style="stop-color:#1CBBED"/>
	<stop  offset="1" style="stop-color:#474C9F"/>
</linearGradient>
<path style="fill:url(#SVGID_00000104701174467889900900000012343950406325577402_);" d="M297.2,237.6c-0.8,1.7-1.8,3.3-2.9,4.9
	C295.4,240.9,296.3,239.3,297.2,237.6z"/>
<linearGradient id="SVGID_00000065768303665736600800000000888783527067736484_" gradientUnits="userSpaceOnUse" x1="281.5199" y1="279.972" x2="353.4081" y2="289.6067" gradientTransform="matrix(1 0 0 -1 0 501)">
	<stop  offset="0" style="stop-color:#CFD1D2"/>
	<stop  offset="0.11" style="stop-color:#E1E3E3"/>
	<stop  offset="0.26" style="stop-color:#F2F3F3"/>
	<stop  offset="0.42" style="stop-color:#FCFCFC"/>
	<stop  offset="0.63" style="stop-color:#FFFFFF"/>
</linearGradient>
<path style="fill:url(#SVGID_00000065768303665736600800000000888783527067736484_);" d="M337.6,214.4c-1.5,5.3-3.2,10.6-5.2,15.8
	c-6.9-1.4-13.5-4.2-19.4-8.2c-5.8-4-10.8-9.2-14.6-15.1c-0.5-1.3-1.1-2.5-1.7-3.7c4.6,1.6,9.3,3.1,14,4.5
	C319.6,210.2,328.5,212.5,337.6,214.4z"/>
<linearGradient id="SVGID_00000029739493531996838740000006402847492544058523_" gradientUnits="userSpaceOnUse" x1="78.1567" y1="465.1909" x2="304.718" y2="222.6123" gradientTransform="matrix(1 0 0 -1 0 501)">
	<stop  offset="0" style="stop-color:#1CBBED"/>
	<stop  offset="1" style="stop-color:#474C9F"/>
</linearGradient>
<path style="fill:url(#SVGID_00000029739493531996838740000006402847492544058523_);" d="M300.7,215c0.4,2.3,0.5,4.7,0.4,7.1
	c-0.2,5.4-1.5,10.7-3.9,15.6v0c-0.9,1.7-1.9,3.3-2.9,4.9l0,0c-2.9,5-6.2,9.8-9.7,14.4c-10.1,13.1-35.9,11.4-49.7,2.2
	c-19.7-13.2-30.9-23.4-47.6-40.3c-8.2-8.3-15.9-17-23.2-26.1C126,145.4,101,88.8,91.7,28.6c-1-6.1-1.8-12.3-2.4-18.4
	c10.7,25.1,24.3,48.8,40.5,70.7c29.3,39.5,66.7,72.4,109.6,96.4c1.8,1.3,3.7,2.3,5.8,3.2c2.4,1.3,4.7,2.5,7.1,3.7
	c10.6,5.4,21.5,10.2,32.6,14.5c3.7,1.4,7.5,2.8,11.3,4.1c0.7,1.3,1.4,2.6,2.2,3.9C299.4,209.4,300.2,212.2,300.7,215z"/>
<linearGradient id="SVGID_00000157266118669450521190000012901368151889503878_" gradientUnits="userSpaceOnUse" x1="240.2128" y1="323.459" x2="324.7191" y2="336.6989" gradientTransform="matrix(1 0 0 -1 0 501)">
	<stop  offset="0" style="stop-color:#1CBBED"/>
	<stop  offset="1" style="stop-color:#474C9F"/>
</linearGradient>
<path style="fill:url(#SVGID_00000157266118669450521190000012901368151889503878_);" d="M319.5,131c0,0.1,0,0.2,0,0.3
	c-12.1,6-21.5,16.4-26.1,29.1c-4.6,12.7-4.2,26.7,1.1,39.1c0.5,1.2,1,2.3,1.6,3.4c-3.8-1.3-7.6-2.7-11.3-4.1
	c-11.1-4.3-22-9.1-32.6-14.5c-2.4-1.2-9.7-5.1-12.1-6.3c5,2.1,11.6,4.7,21.5,3.1c13-2,20.4-14.5,23.7-20.8
	C293.5,144.7,304.2,135.5,319.5,131z"/>
<linearGradient id="SVGID_00000026880339693732119460000004424852017486207904_" gradientUnits="userSpaceOnUse" x1="469.7029" y1="258.5187" x2="323.2428" y2="238.2233" gradientTransform="matrix(1 0 0 -1 0 501)">
	<stop  offset="0" style="stop-color:#1CBBED"/>
	<stop  offset="1" style="stop-color:#474C9F"/>
</linearGradient>
<path style="fill:url(#SVGID_00000026880339693732119460000004424852017486207904_);" d="M444.9,220c-16.2,18.6-35.6,34.3-57.2,46.3
	c-21.9,12.1-45.7,20.2-70.4,24.1c-7.1,1.1-14.2,1.9-21.3,2.3c6.4-7.7,12.3-15.8,17.5-24.2c0.4-0.6,0.8-1.2,1.1-1.8
	c7.5-0.2,15.1-0.9,22.5-2.1c34-5.3,65.8-20.2,91.6-43.1C434.2,221,439.5,220.6,444.9,220z"/>
<linearGradient id="SVGID_00000017488019870910921280000011935245550299088047_" gradientUnits="userSpaceOnUse" x1="446.6122" y1="285.0042" x2="300.8011" y2="264.8109" gradientTransform="matrix(1 0 0 -1 0 501)">
	<stop  offset="0" style="stop-color:#1CBBED"/>
	<stop  offset="1" style="stop-color:#474C9F"/>
</linearGradient>
<path style="fill:url(#SVGID_00000017488019870910921280000011935245550299088047_);" d="M428.8,221.3
	c-25.7,22.9-57.5,37.9-91.6,43.1c-7.5,1.2-15,1.9-22.5,2.1c6.3-10.4,11.7-21.3,16.2-32.6c0.5-1.3,1-2.6,1.5-3.8
	c1.9-5.2,3.7-10.4,5.2-15.8c0.3-1,0.6-2,0.8-3c0.5-1.8,2.1-11.6,2.5-13.3l1.6-0.5c0.8-2.3-1.8,5.5-0.4,3.5c-0.6,2-0.7,4.1-0.3,6.1
	c0.7,4.6,3.8,8.5,8,9.7c3.6,1.1,15.4,2.4,21,3c1.4,0.2,2.9,0.3,4.3,0.5c7.7,0.8,15.5,1.3,23.3,1.5
	C408.5,222,418.6,221.9,428.8,221.3z"/>
<linearGradient id="SVGID_00000109011847411508477080000006070130068503932305_" gradientUnits="userSpaceOnUse" x1="275.9435" y1="321.5758" x2="347.8332" y2="331.2054" gradientTransform="matrix(1 0 0 -1 0 501)">
	<stop  offset="8.000000e-02" style="stop-color:#CFD1D2"/>
	<stop  offset="0.25" style="stop-color:#E1E3E3"/>
	<stop  offset="0.46" style="stop-color:#F2F3F3"/>
	<stop  offset="0.7" style="stop-color:#FCFCFC"/>
	<stop  offset="1" style="stop-color:#FFFFFF"/>
</linearGradient>
<path style="fill:url(#SVGID_00000109011847411508477080000006070130068503932305_);" d="M345.4,153.6c0.1,0.7,0.2,1.3,0.2,2
	c0,2.1,0,4.1-0.1,6.2c-0.4,14.9-2.3,29.7-5.8,44.2v0c-0.4,1.8-0.9,3.6-1.4,5.4c-0.3,1-0.6,2-0.8,3c-9.1-1.9-18-4.2-26.8-6.8
	c-4.7-1.4-9.4-2.9-14-4.5c-0.6-1.2-1.4-2.4-2.2-3.6c-1.8-4.1-3-8.4-3.7-12.8c-1.7-11.1,0.1-22.4,5.3-32.4c5.2-10,13.4-18,23.4-23
	c0.6-0.3,1.2-0.6,1.8-0.8c1.4-0.4,2.8-0.7,4.2-0.9c5.2,1.8,9.8,5,13.3,9.3C342.3,143.1,344.6,148.2,345.4,153.6z"/>
<linearGradient id="SVGID_00000060743985642741881580000018071236065766601918_" gradientUnits="userSpaceOnUse" x1="152.1251" y1="166.2412" x2="256.2833" y2="182.5604" gradientTransform="matrix(1 0 0 -1 0 501)">
	<stop  offset="0" style="stop-color:#1CBBED"/>
	<stop  offset="1" style="stop-color:#474C9F"/>
</linearGradient>
<path style="fill:url(#SVGID_00000060743985642741881580000018071236065766601918_);" d="M251.9,290.5c-1.6,1.2-3.1,2.4-4.7,3.6
	c-6.3,5.3-10,6.8-15.6,10.2c-30.9,22.4-55.2,52.6-70.5,87.5l11.6-26.6c7.2-15.4,14.6-30.1,20.7-44.1c1.5-3.5,2.9-6.9,4.2-10.3
	c1.5-3.8,2.8-7.5,3.9-11.2c0.7-3,0.4-5.9-0.1-9c-0.6-4-2-7.9-4.2-11.3c-2.1-3.5-5-6.5-8.3-8.8C208.8,280.4,230,287.1,251.9,290.5z"
	/>
<linearGradient id="SVGID_00000019647347394108169770000011235210932443660160_" gradientUnits="userSpaceOnUse" x1="171.8951" y1="226.5507" x2="264.9116" y2="223.7128" gradientTransform="matrix(1 0 0 -1 0 501)">
	<stop  offset="0" style="stop-color:#1CBBED"/>
	<stop  offset="1" style="stop-color:#474C9F"/>
</linearGradient>
<path style="fill:url(#SVGID_00000019647347394108169770000011235210932443660160_);" d="M279,264.1c0,0-35.9,30.1-90,6.4
	c0,0,36,26.5,80,18.6C313.1,281,279,264.1,279,264.1z"/>
<linearGradient id="SVGID_00000174563836905694892360000018413761134999478693_" gradientUnits="userSpaceOnUse" x1="109.635" y1="358.0545" x2="214.1634" y2="374.4313" gradientTransform="matrix(1 0 0 -1 0 501)">
	<stop  offset="0" style="stop-color:#1CBBED"/>
	<stop  offset="1" style="stop-color:#474C9F"/>
</linearGradient>
<path style="fill:url(#SVGID_00000174563836905694892360000018413761134999478693_);" d="M89.3,10.3c0,0,14.2,173.3,145.7,248.9
	c0,0-113.4-72.7-128.2-213.6L89.3,10.3z"/>
<linearGradient id="SVGID_00000015329775129537368090000007258502516571086482_" gradientUnits="userSpaceOnUse" x1="425.5411" y1="280.8926" x2="346.3004" y2="234.2046" gradientTransform="matrix(1 0 0 -1 0 501)">
	<stop  offset="0" style="stop-color:#1CBBED"/>
	<stop  offset="1" style="stop-color:#474C9F"/>
</linearGradient>
<path style="fill:url(#SVGID_00000015329775129537368090000007258502516571086482_);" d="M428.8,221.3c0,0-29.4,32.8-91.6,43.1
	c0,0,66.9-18.3,80.3-42.7L428.8,221.3z"/>
<linearGradient id="SVGID_00000124139374734858479510000012207637987529178301_" gradientUnits="userSpaceOnUse" x1="116.6428" y1="34.8295" x2="230.3728" y2="109.5984" gradientTransform="matrix(1 0 0 -1 0 501)">
	<stop  offset="0" style="stop-color:#1CBBED"/>
	<stop  offset="1" style="stop-color:#474C9F"/>
</linearGradient>
<path style="fill:url(#SVGID_00000124139374734858479510000012207637987529178301_);" d="M216.2,368c0,0-71.2,85.1-97.6,129.7
	c0,0,2.7-15.6,6.9-26.5C129.6,460.3,216.2,368,216.2,368z"/>
<linearGradient id="SVGID_00000022547061037100601900000006453394929672322456_" gradientUnits="userSpaceOnUse" x1="206.2165" y1="97.1967" x2="241.7931" y2="124.0979" gradientTransform="matrix(1 0 0 -1 0 501)">
	<stop  offset="0" style="stop-color:#1CBBED"/>
	<stop  offset="1" style="stop-color:#474C9F"/>
</linearGradient>
<path style="fill:url(#SVGID_00000022547061037100601900000006453394929672322456_);" d="M234.9,356.5c2.2,11.7,1.6,23.7-1.7,35.1
	c-3.3,11.4-9.3,21.9-17.4,30.5c-2.7-14.3-1.2-29.1,4.4-42.6C223.6,371,228.6,363.2,234.9,356.5z"/>
<linearGradient id="SVGID_00000067217759857743822540000013735504631562842536_" gradientUnits="userSpaceOnUse" x1="210.3052" y1="90.945" x2="243.9708" y2="137.3537" gradientTransform="matrix(1 0 0 -1 0 501)">
	<stop  offset="0" style="stop-color:#1CBBED"/>
	<stop  offset="1" style="stop-color:#474C9F"/>
</linearGradient>
<path style="fill:url(#SVGID_00000067217759857743822540000013735504631562842536_);" d="M234.9,356.5c0,0-15.4,44.1-19.1,65.6
	c0,0-1.3-6.5-1.3-11.5C214.5,405.8,234.9,356.5,234.9,356.5z"/>
<linearGradient id="SVGID_00000068673480175236815550000010514274238719615361_" gradientUnits="userSpaceOnUse" x1="97.2757" y1="70.5815" x2="150.977" y2="79.0645" gradientTransform="matrix(1 0 0 -1 0 501)">
	<stop  offset="0" style="stop-color:#1CBBED"/>
	<stop  offset="1" style="stop-color:#474C9F"/>
</linearGradient>
<path style="fill:url(#SVGID_00000068673480175236815550000010514274238719615361_);" d="M155.3,396.1c-4.4,13.8-11.9,26.4-22,36.7
	c-10.1,10.4-22.5,18.2-36.2,22.9c5.4-17,15.5-32,29.2-43.3C134.9,405.2,144.7,399.7,155.3,396.1z"/>
<linearGradient id="SVGID_00000152983095615121453120000012480804226390311600_" gradientUnits="userSpaceOnUse" x1="98.1022" y1="61.4974" x2="160.9492" y2="92.0693" gradientTransform="matrix(1 0 0 -1 0 501)">
	<stop  offset="0" style="stop-color:#1CBBED"/>
	<stop  offset="1" style="stop-color:#474C9F"/>
</linearGradient>
<path style="fill:url(#SVGID_00000152983095615121453120000012480804226390311600_);" d="M155.3,396.1c0,0-41.9,38.6-58.2,59.6
	c0,0,2.4-7.7,5.2-13C105.1,437.3,155.3,396.1,155.3,396.1z"/>
<linearGradient id="SVGID_00000178891205820534419750000002086706782999212959_" gradientUnits="userSpaceOnUse" x1="337.2498" y1="305.1303" x2="368.7117" y2="335.0649" gradientTransform="matrix(1 0 0 -1 0 501)">
	<stop  offset="0" style="stop-color:#1CBBED"/>
	<stop  offset="1" style="stop-color:#474C9F"/>
</linearGradient>
<path style="fill:url(#SVGID_00000178891205820534419750000002086706782999212959_);" d="M372.2,169.6c0,0-0.5,2.6-0.6,3.5
	c-3.5,26.7-20,26.4-29.4,27.9c1.6-7.9-0.5-17.4-1.7-26.6c-0.1-1-0.3-2.1-0.4-3.1c4.1-1,10.5-2.1,15.2-1.2
	C365.5,171.9,369.7,166.4,372.2,169.6z"/>
<linearGradient id="SVGID_00000111150972861017763000000004579768094569757325_" gradientUnits="userSpaceOnUse" x1="137.6709" y1="154.5581" x2="339.405" y2="257.6282" gradientTransform="matrix(1 0 0 -1 0 501)">
	<stop  offset="8.000000e-02" style="stop-color:#CFD1D2"/>
	<stop  offset="0.25" style="stop-color:#E1E3E3"/>
	<stop  offset="0.46" style="stop-color:#F2F3F3"/>
	<stop  offset="0.7" style="stop-color:#FCFCFC"/>
	<stop  offset="1" style="stop-color:#FFFFFF"/>
</linearGradient>
<path style="fill:url(#SVGID_00000111150972861017763000000004579768094569757325_);" d="M333,230.9c-11.4,32-23.1,45.3-37,61.7
	c-0.2,0.3-0.4,0.5-0.6,0.8c-19.6,23.2-43.9,42-71.3,55c0,0,0,0-0.1,0c-3.2,1.5-6.4,2.9-9.7,4.3h0c-20.1,9.7-38.1,23-53.3,39.3l0-0.1
	c0,0,0-0.1,0-0.1c4.1-9.4,8.9-18.5,14.3-27.1c14.6-23.6,33.7-44,56.2-60.3c0,0,0,0,0,0c6.1-4,10.6-6.6,15.6-10.2
	c1.6-1.2,3.2-2.4,4.7-3.6c9.9-7.8,19-16.7,27.1-26.4c5.6-6.8,10.8-14,15.3-21.5c0,0,0,0,0-0.1c1.1-1.6,2-3.2,2.9-4.9
	c2.4-4.8,3.7-10.2,3.8-15.6c0.1-2.4-0.1-4.7-0.4-7.1c-0.4-2.8-1.2-5.6-2.2-8.2c1.7,2.7,3.6,5.2,5.8,7.5c0,0,0,0,0,0.1
	c0.1,0.2,0.3,0.3,0.5,0.5c0.7,0.8,1.4,1.5,2.1,2.2c0.8,0.9,1.7,1.7,2.6,2.4c0.3,0.3,0.6,0.5,0.7,0.5c3.5,2.9,7.4,5.3,11.6,7.2
	c3.4,1.5,6.9,2.7,10.5,3.5C332.5,230.8,332.8,230.9,333,230.9z"/>
<linearGradient id="SVGID_00000031892313004708470620000012760003095797260198_" gradientUnits="userSpaceOnUse" x1="293.5397" y1="303.1484" x2="355.4132" y2="334.7648" gradientTransform="matrix(1 0 0 -1 0 501)">
	<stop  offset="8.000000e-02" style="stop-color:#CFD1D2"/>
	<stop  offset="0.25" style="stop-color:#E1E3E3"/>
	<stop  offset="0.46" style="stop-color:#F2F3F3"/>
	<stop  offset="0.7" style="stop-color:#FCFCFC"/>
	<stop  offset="1" style="stop-color:#FFFFFF"/>
</linearGradient>
<path style="fill:url(#SVGID_00000031892313004708470620000012760003095797260198_);" d="M346.8,173.8c-0.2,2.6-0.5,5.4-1,8.3
	c-1.5,10-4.2,22-8.6,36.2c-1.4,4.5-2.8,8.7-4.2,12.6c-0.3-0.1-0.6-0.1-0.9-0.2c-3.6-0.8-7.1-2-10.4-3.5c-4.2-1.9-8-4.3-11.6-7.2
	c-0.1-0.1-0.4-0.3-0.7-0.5c-0.9-0.8-1.8-1.6-2.6-2.4c-0.7-0.7-1.4-1.5-2.1-2.2c-0.2-0.2-0.3-0.3-0.5-0.5c0,0,0,0,0-0.1
	c-2.2-2.3-4.1-4.8-5.8-7.5c-0.8-1.2-1.6-2.5-2.2-3.9c-0.5-1.1-1.1-2.2-1.6-3.4c-1.8-4.1-3-8.4-3.6-12.9c-1.8-11.1,0.1-22.4,5.2-32.4
	c5.2-10,13.4-18,23.4-23c0.6-0.3,1.2-0.6,1.8-0.8c1.4-0.4,2.8-0.7,4.2-0.9c0,0,0,0,0,0c0.3-0.1,0.7-0.1,1-0.2
	C326.6,129.4,350.6,129.3,346.8,173.8z"/>
<linearGradient id="SVGID_00000085952890373785807350000017140180327372123534_" gradientUnits="userSpaceOnUse" x1="331.9283" y1="337.3669" x2="383.9766" y2="345.5214" gradientTransform="matrix(1 0 0 -1 0 501)">
	<stop  offset="0" style="stop-color:#1CBBED"/>
	<stop  offset="1" style="stop-color:#474C9F"/>
</linearGradient>
<path style="fill:url(#SVGID_00000085952890373785807350000017140180327372123534_);" d="M386.3,170.5c1.2,7.4-0.8,15.6-3.1,20.2
	c-1.7-7.6-6.8-19.3-15.1-18c-7.5,1.2-8.7,2-14.1,2c-2.5,0-4.9-0.3-7.3-1c3.9-44.5-20.2-44.4-20.2-44.4c5.8-0.9,11.7-0.9,17.5,0.2
	C365.5,133.4,382.8,147.7,386.3,170.5z"/>
</svg>
