<?xml version="1.0" encoding="utf-8"?>
<!-- Generator: Adobe Illustrator 24.0.0, SVG Export Plug-In . SVG Version: 6.00 Build 0)  -->
<svg version="1.1" id="Layer_1" xmlns="http://www.w3.org/2000/svg" xmlns:xlink="http://www.w3.org/1999/xlink" x="0px" y="0px"
	 viewBox="0 0 100 100" style="enable-background:new 0 0 100 100;" xml:space="preserve">
<style type="text/css">
	.st0{fill:#172026;}
</style>
<title>chainx</title>
<g id="Layer_2_1_">
	<g id="Layer_1-2">
		<path class="st0" d="M50,45.7c-1,0.3-2,0.9-2.8,1.6C46.5,48,46,49,45.7,50c0.3,1,0.9,2,1.6,2.8c0.8,0.7,1.7,1.3,2.7,1.6
			c1-0.3,2-0.9,2.8-1.6c0.7-0.7,1.3-1.7,1.6-2.7c-0.3-1-0.9-2-1.6-2.8C52,46.5,51.1,46,50,45.7z"/>
		<path class="st0" d="M50,0C22.4,0,0,22.4,0,50s22.4,50,50,50s50-22.4,50-50S77.6,0,50,0z M74,64.1c-0.2,2.6-1.3,4.9-3.1,6.7
			c-3.9,3.9-10,4.3-13.5,0.7l-1.7-1.6l3.2-3.2l1.6,1.6c0.8,0.7,1.8,1.2,2.9,1.1c3.2-0.1,5.8-2.6,6.1-5.8c0.1-1.2-0.3-2.4-1.1-3.3
			l-7.3-7.3l-3.5,3.5c-0.2,0.2-0.4,0.3-0.6,0.5s-0.3,0.3-0.5,0.5l-3.5,3.5l4.3,4.3l-3.2,3.2L50,64.2l-7.3,7.3
			c-1.8,1.8-4.2,2.7-6.8,2.4c-2.6-0.2-4.9-1.3-6.7-3.1c-3.9-3.9-4.3-10-0.7-13.5l1.6-1.6l3.2,3.2l-1.6,1.6c-0.7,0.8-1.2,1.8-1.1,2.9
			c0.1,3.2,2.6,5.8,5.8,6.1c1.2,0.1,2.4-0.3,3.3-1.1l7.3-7.3l-3.5-3.5c-0.2-0.2-0.3-0.4-0.5-0.6s-0.3-0.3-0.5-0.5l-3.5-3.5l-4.3,4.3
			l-3.2-3.2l4.3-4.3l-7.3-7.3c-1.8-1.8-2.7-4.2-2.4-6.8c0.2-2.6,1.3-4.9,3.1-6.7c3.9-3.9,10-4.3,13.5-0.7l1.6,1.6l-3.2,3.2l-1.6-1.6
			c-0.8-0.7-1.8-1.2-2.9-1.1c-3.2,0.1-5.8,2.6-6.1,5.8c-0.1,1.2,0.3,2.4,1.1,3.3l7.3,7.3l3.5-3.5c0.2-0.2,0.4-0.3,0.6-0.5
			s0.3-0.3,0.5-0.5l3.5-3.5l-4.3-4.3l3.2-3.2l4.3,4.3l7.3-7.3c1.8-1.8,4.2-2.7,6.8-2.4c2.6,0.2,4.9,1.3,6.7,3.1
			c3.9,3.9,4.3,10,0.7,13.5l-1.6,1.7l-3.2-3.2l1.6-1.6c0.7-0.8,1.2-1.8,1.1-2.9c-0.1-3.2-2.6-5.8-5.8-6.1c-1.2-0.1-2.4,0.3-3.3,1.1
			l-7.3,7.3l3.5,3.5c0.2,0.2,0.3,0.4,0.5,0.6s0.3,0.3,0.5,0.5l3.5,3.5l4.3-4.3l3.2,3.2L64.2,50l7.3,7.3C73.3,59.1,74.2,61.6,74,64.1
			z"/>
	</g>
</g>
</svg>
