<?xml version="1.0" encoding="utf-8"?>
<!-- Generator: Adobe Illustrator 26.0.1, SVG Export Plug-In . SVG Version: 6.00 Build 0)  -->
<svg version="1.1" id="Logo" xmlns="http://www.w3.org/2000/svg" xmlns:xlink="http://www.w3.org/1999/xlink" x="0px" y="0px"
	 viewBox="0 0 200 200" style="enable-background:new 0 0 200 200;" xml:space="preserve">
<style type="text/css">
	.st0{fill:#32253E;}
	.st1{fill:#DAE9EB;}
</style>
<path class="st0" d="M100,0L100,0c55.2,0,100,44.8,100,100l0,0c0,55.2-44.8,100-100,100l0,0C44.8,200,0,155.2,0,100l0,0
	C0,44.8,44.8,0,100,0z"/>
<g>
	<path class="st1" d="M103.8,38.3C77,37.8,54.1,59.7,53.5,86.5c-0.5,18.2,8.9,34.2,23.1,43.1c0.7,0.4,1.6,0.1,2-0.6l11.1-22.2
		c1.7-3.2,1.4-7.2-0.6-10.2c-1.7-2.6-2.7-5.8-2.6-9.1c0.1-8.7,6.9-15.8,15.5-16.3c9.9-0.5,18.1,7.8,17.3,17.8
		c-0.6,8-7.1,14.5-15.1,15.1h-0.2c-3.7,0.3-6.9,2.4-8.5,5.7l-11.1,22.1c-0.4,0.7,0,1.6,0.7,1.9c5.6,2.2,11.7,3.3,18.1,3.3
		c27-0.1,49.1-22.3,49.1-49.4C152.4,60.7,130.7,38.7,103.8,38.3L103.8,38.3z"/>
	<circle class="st1" cx="69.9" cy="153.6" r="16.5"/>
</g>
</svg>
