<!-- by TradingView --><svg width="56" height="56" viewBox="0 0 56 56" xmlns="http://www.w3.org/2000/svg"><path fill="#4F9843" d="M0 0h56v56H0z"/><path d="m24.22 21.08 1.9 1 .24.15c.66.39 2.2 1.3 3.65 1.3 1.33 0 3.05-.31 3.74-.47-.15-.52-.6-1.67-1.23-2.09a3.47 3.47 0 0 0-1.87-.6l-4.22.07a6.42 6.42 0 0 0-2.21.64Zm10.63 1.56c.07-.36.4-1.15 1.15-1.43.95-.36 1.79-.6 2.84-.51a6.9 6.9 0 0 1 2.24.65c.04.05.35.47.37.73.03.27-.35 1.08-2 1.41a8.66 8.66 0 0 1-3.9-.26c-.3-.12-.6-.44-.7-.6Z" fill="#fff"/><path d="m28.63 28.76-4.75-1.15c-.82-.2-1.81-.29-2.12.17-.25.36.66 1.2 1.14 1.58l3.57 1.77c1.26.56 4.88 1.68 9.34 1.68 4.47 0 5.7-1.38 5.75-2.08l-.14-.76v-.6c.28-.35.89-1.17 1.05-1.76.16-.58-.3-.92-.56-1.02l-.22.73-.94 1.44c-.29.14-1 .48-1.62.71-.76.3-2.4.13-2.59.13-.2 0-3.37-.2-3.8-.24a60.8 60.8 0 0 1-4.1-.6Z" fill="#206814"/><path d="M21.52 13a24.24 24.24 0 0 0-1.75 2.28 75.09 75.09 0 0 0-3.25 5.02 28.36 28.36 0 0 0-4.18 15.39c0 1.61.43 2.86 1.12 3.82a6.72 6.72 0 0 0 2.67 2.14 14.7 14.7 0 0 0 5.98 1.17c1.33 0 2.3-.05 3.36-.1h.27c1.17-.06 2.47-.11 4.45-.11 1.55 0 2.43-.47 2.92-1.03.49-.57.6-1.24.54-1.68a.17.17 0 1 1 .34-.04 2.6 2.6 0 0 1-.62 1.94c-.57.65-1.56 1.15-3.18 1.15-1.97 0-3.27.05-4.43.1l-.28.02c-1.05.04-2.04.09-3.37.09-1.45 0-3.97-.18-6.12-1.2a7.06 7.06 0 0 1-2.81-2.25A6.76 6.76 0 0 1 12 35.69c0-6.63 1.7-11.31 4.23-15.56a75.4 75.4 0 0 1 3.26-5.04 24.12 24.12 0 0 1 1.76-2.29l.02-.03.18-.24c.16-.2.38-.44.7-.67a5.46 5.46 0 0 1 3.3-.86c1.22 0 2.14.2 2.83.55.6.3 1.02.73 1.31 1.23a4.63 4.63 0 0 1 3.2-1.32c1.04 0 1.87.07 2.55.36.68.3 1.18.83 1.57 1.69l1 2.24c.7.4 1.25.83 1.57 1.14.5.52 1.03 1.18 1.28 1.51.45.2.84.5 1.11.95.04.05.07.14.1.23l.05.34c.02.3 0 .68-.11 1.08.09.2.18.48.21.82a2 2 0 0 1-.25 1.2c-.26.45-.63.91-.95 1.28.21.21.47.51.68.85.24.37.44.8.47 1.23.3.19.48.44.54.74.07.3 0 .65-.12.96a5.24 5.24 0 0 1-1.04 1.57c.16.27.28.6.29.94 0 .4-.16.82-.56 1.19a4.3 4.3 0 0 1-1.92.9c-.92.22-2.15.35-3.78.35-7.62 0-12.16-3.15-13.15-3.83l-.15-.1c-.16-.11-.31-.28-.42-.46-.1-.18-.18-.39-.18-.6-.01-.21.05-.43.23-.59.17-.15.43-.24.77-.24.66 0 1.6.25 2.6.54l.53.15c.87.26 1.76.52 2.6.69 2.03.4 6.94.87 9.63.87 1.31 0 2.16-.4 2.72-.94.56-.54.85-1.2 1.02-1.75a.97.97 0 0 0 .05-.29c0-.36-.17-.77-.41-1.15-.2-.3-.43-.58-.63-.77l-.29.3c-.17.18-.64.56-1.21.66a.17.17 0 0 1-.06-.34c.48-.08.88-.4 1.02-.56a10.04 10.04 0 0 0 1.43-1.77c.19-.32.23-.68.2-1a2.2 2.2 0 0 0-.2-.75c-.27-.37-1.22-1.16-2.83-1.16a3.4 3.4 0 0 0-2.34.9 4.4 4.4 0 0 1 1.73-.33c1.29 0 2.15.23 2.7.54.54.3.8.7.83 1a.82.82 0 0 1-.2.55c-.13.19-.33.37-.6.54-.54.33-1.37.6-2.49.6-1.1 0-2.03-.07-2.67-.26a1.6 1.6 0 0 1-.75-.4.72.72 0 0 1-.15-.72v-.01c.1-.29.36-.69.79-1.04l.01-.03a3.62 3.62 0 0 1 3.14-1.68c1.44 0 2.42.59 2.89 1.05.04-.24.05-.46.04-.65-.1-.11-.33-.3-.77-.46a6.21 6.21 0 0 0-2.16-.33c-1.22 0-1.99.28-2.45.57a2.5 2.5 0 0 0-.64.55l-.02.02-.05.05a.17.17 0 0 1-.24-.03.17.17 0 0 1 .02-.23l.02-.03a3.37 3.37 0 0 1 .17-.18c.12-.13.3-.3.56-.45a4.98 4.98 0 0 1 2.63-.61c1 0 1.75.15 2.28.35.2.07.37.15.5.24-.2-.32-.5-.55-.83-.71a.17.17 0 0 1-.15-.07 3.76 3.76 0 0 0-1.28-.24c-.96-.03-1.96.2-2.58.43a.17.17 0 0 1-.12-.32 7.79 7.79 0 0 1 2.7-.45c.31 0 .62.04.91.11a6.97 6.97 0 0 0-2.73-2.3 6.41 6.41 0 0 0-2.83-.74c-.85 0-1.5.08-1.98.19a4.1 4.1 0 0 0-.7.2 4.34 4.34 0 0 1 .27.4c.38.57.74 1.11 1 1.62.29.56.47 1.1.38 1.6a.17.17 0 1 1-.34-.06c.07-.38-.06-.84-.34-1.38-.25-.5-.6-1.02-.98-1.6l-.1-.14a3.82 3.82 0 0 0-.28-.38c-.78-.9-1.96-1.33-4.28-1.33-2.36 0-3.5 1.47-3.81 1.9l-.06.07a.17.17 0 0 1-.24.02.17.17 0 0 1-.03-.24l.06-.07a4.94 4.94 0 0 1 4.08-2.02c.99 0 1.8.07 2.46.24a4.26 4.26 0 0 0-.33-1.04 2.77 2.77 0 0 0-1.28-1.3 5.87 5.87 0 0 0-2.67-.5c-1.6 0-2.53.38-3.1.79-.29.2-.49.42-.63.6l-.18.23-.02.03Zm8.58 1.3c.67.21 1.2.54 1.61 1 .18-.1.47-.2.86-.28.5-.11 1.18-.2 2.05-.2 1.02 0 1.99.3 2.8.68l-.82-1.85a2.7 2.7 0 0 0-1.4-1.51 6.1 6.1 0 0 0-2.4-.34c-1.5 0-2.61.83-3.04 1.3.16.38.27.77.34 1.2ZM41.25 30c-.1.15-.25.3-.47.44-.41.25-1.06.46-2.03.5-1.2.07-4.11.1-7.16-.19a33.38 33.38 0 0 1-4.48-.68 10.75 10.75 0 0 1-3.5-1.36.17.17 0 0 1-.04-.24c.05-.08.16-.1.23-.04.82.56 2.01.98 3.39 1.3 1.37.33 2.91.54 4.43.68 3.03.28 5.93.25 7.12.2a3.93 3.93 0 0 0 1.86-.46c.35-.22.45-.44.46-.54v-.06l.05-.05c.37-.37.84-.97 1.07-1.55.1-.29.15-.55.1-.77a.73.73 0 0 0-.25-.41l-.02.09c-.18.57-.5 1.3-1.12 1.9a4.1 4.1 0 0 1-2.95 1.04 67 67 0 0 1-9.7-.89c-.85-.17-1.76-.44-2.63-.69l-.52-.15c-1.02-.3-1.9-.52-2.5-.52-.3 0-.46.07-.55.15a.4.4 0 0 0-.12.32c0 .14.05.3.14.44a1 1 0 0 0 .3.34l.15.1c.98.68 5.46 3.78 12.97 3.78 1.61 0 2.81-.14 3.7-.35.88-.21 1.44-.5 1.77-.82a1.23 1.23 0 0 0 .3-1.5Zm-6.12-7.55c-.04.16-.01.28.08.39.1.11.3.22.6.3.58.18 1.48.24 2.57.24a4.4 4.4 0 0 0 2.31-.54c.24-.15.4-.31.51-.45.1-.15.13-.25.13-.3-.02-.17-.17-.47-.66-.75a5.2 5.2 0 0 0-2.53-.5c-1.97 0-2.82 1.1-3 1.6Z"/><path fill-rule="evenodd" d="M32.5 19.66a10.8 10.8 0 0 1 2.54 3.27c.04.09 0 .19-.08.23a.17.17 0 0 1-.23-.08c-.4-.85-1.25-2.12-2.45-3.16a6.53 6.53 0 0 0-4.54-1.75c-2.3.09-3.6.55-4.3 1.03-.69.49-.76.99-.7 1.2l.04.11c.03.1.05.17.08.22v.02a6.3 6.3 0 0 1 4.87-2.13 6.24 6.24 0 0 1 4.08 1.67c.54.16 1 .68 1.33 1.22.34.53.59 1.13.72 1.54.12.1.24.25.25.45.02.25-.12.5-.44.74-.15.11-.32.27-.53.47-.81.77-2.13 2.02-4.87 2.75a.17.17 0 0 1-.09-.33 9.87 9.87 0 0 0 4.44-2.4 81.04 81.04 0 0 0-4.75-.23c-.8 0-1.5-.33-2.04-.74s-.94-.9-1.15-1.23a.17.17 0 0 1 .06-.24.17.17 0 0 1 .23.05c.19.3.56.76 1.07 1.14.5.39 1.13.68 1.83.68 1.47 0 3.96.16 5.1.25.18-.18.34-.33.5-.44.27-.2.31-.36.3-.44a.3.3 0 0 0-.09-.18c-.5.16-1.72.43-3.2.43-2.02 0-3.49-.93-4.21-1.39-.56-.36-1.73-.88-2.24-1.1l-.36-.16.35-.16a7.5 7.5 0 0 1 2.17-.7h5.08a5.9 5.9 0 0 0-6.19-.76c-.64.31-1.1.71-1.47 1.06a6.73 6.73 0 0 1-.62.5.35.35 0 0 1-.18.03c-.16-.01-.23-.15-.27-.24a3.09 3.09 0 0 1-.09-.26c0-.04-.02-.07-.03-.1-.12-.4.06-1.04.83-1.58s2.14-1 4.48-1.1a6.87 6.87 0 0 1 4.77 1.84Zm-.8.95c.42.12.82.55 1.15 1.08.3.46.52.98.65 1.36-.52.15-1.64.39-3.03.39-1.9 0-3.3-.89-4.02-1.34-.48-.3-1.34-.71-1.93-.97a6.6 6.6 0 0 1 1.7-.52h5.47Z"/><path d="m35.55 24.38.2-.27c.3.14.75.21 1.21.24.46.02.9 0 1.16-.02.1-.01.18.06.19.15 0 .1-.06.18-.15.2a8.43 8.43 0 0 1-1.91-.07l1.83 1.88c.06.07.06.18 0 .25a.17.17 0 0 1-.25 0l-2.28-2.36ZM20.97 27.73a.17.17 0 1 1-.34-.07l.06-.15.13-.22c.12-.17.3-.37.55-.55.5-.37 1.29-.63 2.44-.37a.17.17 0 0 1-.08.33c-1.06-.24-1.74.01-2.16.32a2 2 0 0 0-.6.71ZM23.14 25.27c.08.04.11.15.07.23a.51.51 0 0 1-.33.25c-.13.04-.27.05-.4.05h-.41c-.12 0-.2.02-.25.03a.17.17 0 0 1-.09-.33c.1-.03.22-.03.34-.03h.39c.13-.01.24-.03.32-.05.1-.03.12-.06.13-.07a.17.17 0 0 1 .23-.08Z"/><path fill-rule="evenodd" d="M35.53 35.7c.14.13.28.3.38.47a.8.8 0 0 1-.14.97.17.17 0 0 1-.24 0 .17.17 0 0 1 0-.23c.1-.1.14-.2.14-.29a.53.53 0 0 0-.07-.29c-.09-.17-.25-.33-.4-.45-.54.3-.71.77-.73.96v.03a.6.6 0 0 0 0 .36c.05.1.14.21.37.24.52.08 1-.09 1.16-.18l1.75-1.26h1.45l.1 1.27 1.25-1.04a.17.17 0 0 1 .24.02c.06.08.05.18-.02.24l-3.78 3.17c.01.13.05.3.13.48.1.21.24.42.48.55.46.26 1.03.2 1.3.13l1.63-2.06a.17.17 0 0 1 .24-.03c.07.06.08.17.02.24l-1.65 2.09a.64.64 0 0 0-.04.47c.06.13.21.3.66.32.48.03.79 0 .98-.05l.18-.08a.16.16 0 0 0 .03-.03v-.01l1.54-1.91a.17.17 0 0 1 .24-.03c.08.06.09.17.03.24l-1.5 1.87a.66.66 0 0 0 0 .4c.03.06.07.11.14.15.06.05.16.08.31.09a.9.9 0 0 0 .48-.18c.2-.12.39-.3.59-.5.39-.39.75-.87.96-1.2.05-.07.16-.1.24-.04.08.05.1.16.05.23-.22.34-.6.84-1.01 1.26-.2.2-.43.4-.65.54-.2.14-.44.24-.67.23a.95.95 0 0 1-.49-.14.67.67 0 0 1-.26-.32.85.85 0 0 1-.05-.26l-.07.02c-.24.06-.59.1-1.09.07-.53-.04-.83-.24-.95-.54a.87.87 0 0 1-.05-.47c-.35.06-.86.05-1.3-.2a1.48 1.48 0 0 1-.63-.71c-.05-.1-.08-.19-.1-.28-.13.08-.3.1-.48.04a.47.47 0 0 1-.28-.22.6.6 0 0 1-.06-.31c0-.11.03-.22.06-.32a1.19 1.19 0 0 1-.4-.4.66.66 0 0 1-.08-.42c0-.13.05-.28.1-.4l.1-.23c-.25.06-.55.1-.88.04-.35-.05-.55-.23-.63-.46a.94.94 0 0 1-.04-.52 2.1 2.1 0 0 0-.15-.3 1.28 1.28 0 0 0-.29-.35.65.65 0 0 0-.52-.12c-.19.04-.4.18-.58.53a.75.75 0 0 0-.08.45c.02.14.08.29.18.45a4.81 4.81 0 0 0 .52.67l.39.46c.3.39.42.88.45 1.32.03.4-.01.78-.07 1.03.5.9 2.37 2.69 6.17 2.69 1.83 0 3.12-.28 3.99-.63.85-.34 1.3-.76 1.47-1.04v-.08a4.92 4.92 0 0 0-.35-.85 12.45 12.45 0 0 0-1.38-2.08c-.33-.44-.69-.94-1.08-1.41a6.7 6.7 0 0 0-1.7-1.58 4.11 4.11 0 0 1-1.33-1.26 2.47 2.47 0 0 0-1.26-.94 1.12 1.12 0 0 0-.82.1c-.28.13-.56.35-.84.6-.18.16-.34.33-.5.49l-.3.3a4.4 4.4 0 0 1-.51.43Zm10.39 6.07a5.26 5.26 0 0 0-.37-.88c-.27-.5-.64-1.09-1.05-1.62l-.35-.49c-.33-.44-.7-.95-1.1-1.43a7.01 7.01 0 0 0-1.8-1.66 3.79 3.79 0 0 1-1.23-1.17 2.8 2.8 0 0 0-1.42-1.06 1.45 1.45 0 0 0-1.06.11c-.33.16-.64.4-.93.67l-.53.5-.28.28c-.25.25-.47.43-.65.51-.46.21-.73.54-.88.83-.1-.16-.22-.33-.38-.45a1 1 0 0 0-.8-.19c-.3.07-.6.29-.81.71a1.1 1.1 0 0 0-.12.65c.03.21.12.4.23.6a5.13 5.13 0 0 0 .56.7l.37.45c.25.32.36.73.38 1.13.03.4-.02.78-.08 1l-.01.05.03.06c.5 1.01 2.51 2.93 6.5 2.93 1.86 0 3.2-.28 4.11-.65a3.33 3.33 0 0 0 1.66-1.21l.08-.15a.17.17 0 0 0-.07-.22Zm-9.7-4.2c-.11.13-.25.34-.33.55-.05.11-.08.22-.08.31-.01.1 0 .16.03.2a.86.86 0 0 0 .28.3l2.51-2.56h-.77l-1.65 1.2Zm2.69-.98-2.58 2.62c-.05.1-.1.23-.1.34 0 .06 0 .1.02.13.01.03.03.05.08.06.13.04.2.01.23-.02.05-.04.08-.1.1-.14v-.06L39 37.57l-.08-.98Z"/><path d="M31.54 18.28a6.23 6.23 0 0 0-1.81.17.17.17 0 0 1-.08-.33c.45-.12 1.19-.23 1.91-.18.72.05 1.48.25 1.92.8.42.53.66 1.16.78 1.73.13.57.14 1.1.12 1.4a.17.17 0 1 1-.34-.02c.02-.28 0-.76-.11-1.3a3.88 3.88 0 0 0-.71-1.59c-.36-.44-.99-.63-1.68-.68Z"/><path fill-rule="evenodd" d="M26.94 20.69c-.17.32-.6 1.09-.56 1.51.45.27 1.56.88 2.41 1.15 1.07.34 1.86-.63 1.86-1.46 0-.67-.32-1.17-.48-1.33h-3.16a2.7 2.7 0 0 1-.07.13Zm.38 1.06a.43.43 0 0 0 0-.87c-.24 0-.43.2-.43.44s.2.43.43.43Zm.3.76a.3.3 0 0 0 .3-.3.3.3 0 0 0-.3-.3.3.3 0 0 0-.3.3c0 .17.14.3.3.3Zm2.3-.65c0 .36-.28.65-.63.65a.64.64 0 0 1-.64-.65c0-.36.28-.64.64-.64.35 0 .64.28.64.64ZM35.85 23.39c-.06-.56-.07-1.8.38-2.26.46-.46 2.03-.53 2.76-.5.22.2.63.85.57 1.7-.06.84-.63 1.21-.91 1.3-.6.03-2.01.03-2.8-.24Zm.85-1.2c.24 0 .44-.2.44-.44s-.2-.44-.44-.44c-.23 0-.43.2-.43.44s.2.43.43.43Zm.3.75a.3.3 0 0 0 .3-.3.3.3 0 0 0-.3-.3.3.3 0 0 0-.3.3c0 .17.14.3.3.3Zm2.31-.65c0 .36-.29.65-.64.65a.64.64 0 0 1-.64-.65c0-.35.29-.64.64-.64.35 0 .64.29.64.64Z"/><path d="M40.39 32.27a1.8 1.8 0 0 1-.97 1.95l-.2-.45c.26-.12.8-.57.67-1.42l.5-.08Z"/></svg>