<?xml version="1.0" encoding="utf-8"?>
<!-- Generator: Adobe Illustrator 27.7.0, SVG Export Plug-In . SVG Version: 6.00 Build 0)  -->
<svg version="1.1" id="Layer_1" xmlns="http://www.w3.org/2000/svg" xmlns:xlink="http://www.w3.org/1999/xlink" x="0px" y="0px"
	 viewBox="0 0 500 500" style="enable-background:new 0 0 500 500;" xml:space="preserve">
<style type="text/css">
	.st0{fill:#4C20F0;}
</style>
<g id="Icons-_x2B_-illo">
	<g id="phunwallet_icons" transform="translate(-255.000000, -120.000000)">
		<g id="labels" transform="translate(54.000000, 28.000000)">
		</g>
		<g id="phun_mark_purple" transform="translate(255.000000, 120.000000)">
			<g id="logo_pc_mark">
				<path class="st0" d="M250,0c138.1,0,250,111.9,250,250S388.1,500,250,500S0,388.1,0,250S111.9,0,250,0z M38.9,218.1
					C30.2,275,44.4,331.9,78.7,378s84.1,76.3,140.9,85c10.7,1.7,21.5,2.4,32.2,2.4c45.7,0,90-14.6,127.4-42.3
					c46-34.3,76.1-84.3,84.8-141.2c1.4-6.2-2.8-12.1-9-13.2s-12.1,3.5-13.2,9.7c-7.6,50.6-34.6,95.7-75.8,126.2
					s-91.7,43.4-142.6,35.7c-50.5-7.6-95.5-34.7-126-76s-43.3-91.9-35.6-142.9C77.3,116.8,175.2,44,279.8,59.9
					c6.2,1,12.1-3.5,13.2-9.7c1-6.2-3.5-12.1-9.7-13.2C165.9,19.4,56.5,100.9,38.9,218.1z M331,253.8l-1.7,12.1l5.2,0.7
					c-5.5,27.1-26,50.6-55,62.1c-28.4,11.1-57.4,8-78.9-8.3l2.8-3.5l-9.7-7.3l-15.9,21.5l9.7,7.3l3.1-4.2
					c26,19.8,61.6,23.9,95.2,10.8c0.7-0.3,1-0.3,1.7-0.7c33.6-13.9,57.8-42.3,64-74.9l4.2,0.7l1.7-12.1L331,253.8z M150.7,200.4
					c-12.5,5.9-18,20.8-12.1,33.6c5.9,12.5,20.8,18,33.6,12.1c12.5-5.9,18-20.8,12.1-33.6C178.4,199.7,163.1,194.5,150.7,200.4z
					 M286.3,145.3c-12.5,5.9-18,20.8-12.1,33.6c5.9,12.5,20.8,18,33.6,12.1c12.5-5.9,18-20.8,12.1-33.6
					C313.7,144.9,298.8,139.4,286.3,145.3z"/>
			</g>
		</g>
	</g>
</g>
</svg>
