<?xml version="1.0" encoding="utf-8"?>
<!-- Generator: Adobe Illustrator 27.7.0, SVG Export Plug-In . SVG Version: 6.00 Build 0)  -->
<svg version="1.1" id="Layer_1" xmlns="http://www.w3.org/2000/svg" xmlns:xlink="http://www.w3.org/1999/xlink" x="0px" y="0px"
	 viewBox="0 0 500 500" style="enable-background:new 0 0 500 500;" xml:space="preserve">
<style type="text/css">
	.st0{fill:#FDE74E;}
</style>
<circle class="st0" cx="250" cy="249.9" r="250"/>
<path d="M224.5,231.1c0-20.9-0.1-41.8,0-62.6c0.1-10.8,2.4-21.2,6.4-31.3c3.8-9.6,9.3-17.9,17.4-24.3c8.7-6.9,18.7-10.4,29.9-10.9
	c17.2-0.8,33.3,3.3,48,11.8c14.8,8.5,26.2,20.7,34.4,35.7c7.4,13.4,12.2,27.7,14.8,43c2.2,12.7,2.2,25.3,1.2,37.8
	c-1,11.5-4,22.8-8.1,33.9c-4,10.7-9.1,20.6-15.7,29.9c-11.3,15.8-25.7,27.8-43.1,36.4c-10.9,5.4-22.3,8.8-34.2,11.2
	c-5.9,1.2-11.1,7.3-11.1,13.4c0,21.5,0,43,0,64.4c0,8.5-3.8,14.7-11.3,18.7c-9.6,5.1-22.3,0.8-26.4-9.2c-1.5-3.8-2.3-8.1-2.3-12.2
	c-0.2-19.2-0.5-38.4,0-57.6c0.4-12.9-5.3-17.1-16.2-19.5c-26.6-5.8-48-19.6-64-41.5c-5.8-8-11.2-16.5-15.5-25.4
	c-3.6-7.5-5.6-15.8-8.1-23.8c-4.7-15.1-5.3-30.6-4.3-46.2c1-14,4.2-27.6,10-40.4c5.6-12.4,13.2-23.4,23.1-32.9
	c7.6-7.2,16.2-12.8,25.6-17.3c12.5-5.9,25.8-9.2,39.6-10c4.3-0.3,7.7,1.7,10,5.3c5.3,8.6-0.3,16-7.7,18.1
	c-12.2,3.5-20.8,11.1-27.1,21.7c-4.9,8.3-8,17.3-10.2,26.7c-4.9,21.2-4.8,42.5-2.5,63.9c1.5,14.1,4.6,27.8,10.4,40.6
	c5.5,12,14,21.9,25.4,28.9c4.3,2.6,10.1-0.7,11-6.2c0.3-1.8,0.3-3.6,0.3-5.4C224.5,274.3,224.5,252.7,224.5,231.1
	C224.5,231.1,224.5,231.1,224.5,231.1z M265.3,231c0,20,0,40,0,60.1c0,3.4-0.1,6.8,0.1,10.1c0.6,8.3,7.1,12.1,14.6,8.6
	c1.1-0.5,2.2-1,3.3-1.5c15.4-7.2,25.9-19.1,32.8-34.4c3.9-8.6,6.2-17.5,7.8-26.9c2-12.1,1.9-24.3,0.5-36.4
	c-1.5-13.5-4.9-26.8-10.8-39.1c-5.8-12.1-12.6-23.6-26.5-28.3c-5.5-1.8-14.4-1.7-18.1,5.3c-2.5,4.7-3.6,9.7-3.6,14.8
	C265.3,185.8,265.3,208.4,265.3,231z"/>
</svg>
