<?xml version="1.0" encoding="utf-8"?>
<!-- Generator: Adobe Illustrator 27.7.0, SVG Export Plug-In . SVG Version: 6.00 Build 0)  -->
<svg version="1.1" id="Layer_1" xmlns="http://www.w3.org/2000/svg" xmlns:xlink="http://www.w3.org/1999/xlink" x="0px" y="0px"
	 viewBox="0 0 500 500" style="enable-background:new 0 0 500 500;" xml:space="preserve">
<style type="text/css">
	.st0{fill:#1149FF;}
	.st1{fill:#FFFFFF;}
</style>
<circle class="st0" cx="250" cy="250" r="250"/>
<path class="st1" d="M138.9,214.5c0-68,49.9-118.8,120.4-118.8c70,0,121.3,50.8,121.3,119.7c0,67.5-49.5,117.8-123.7,117.8h-57.3
	v67.3c0,3.3-0.5,3.7-3.7,3.7h-26.6c0,0-23.4,0-26.6,0c-3.3,0-3.7-0.5-3.7-3.7V214.5z M320,214.9c0-35.9-22.4-63.3-60.7-63.3
	c-38.8,0-59.7,27.5-59.7,62.9v62.9h57.4C297.6,277.4,320,250.8,320,214.9z"/>
</svg>
