<?xml version="1.0" encoding="utf-8"?>
<!-- Generator: Adobe Illustrator 27.0.1, SVG Export Plug-In . SVG Version: 6.00 Build 0)  -->
<svg version="1.1" id="pltc" xmlns="http://www.w3.org/2000/svg" xmlns:xlink="http://www.w3.org/1999/xlink" x="0px" y="0px"
	 viewBox="0 0 500 500" style="enable-background:new 0 0 500 500;" xml:space="preserve">
<style type="text/css">
	.st0{filter:url(#Adobe_OpacityMaskFilter);}
	.st1{fill-rule:evenodd;clip-rule:evenodd;fill:#FFFFFF;}
	
		.st2{mask:url(#mask-2_00000098913318512795946000000000728556533134379166_);fill:url(#Fill-2_00000063591532171612061010000016449262876968032703_);}
</style>
<defs>
	<filter id="Adobe_OpacityMaskFilter" filterUnits="userSpaceOnUse" x="53.8" y="1.3" width="392.4" height="497.5">
		<feColorMatrix  type="matrix" values="1 0 0 0 0  0 1 0 0 0  0 0 1 0 0  0 0 0 1 0"/>
	</filter>
</defs>
<mask maskUnits="userSpaceOnUse" x="53.8" y="1.3" width="392.4" height="497.5" id="mask-2_00000098913318512795946000000000728556533134379166_">
	<g class="st0">
		<path id="path-1_00000070818022431324065300000009528810586358734232_" class="st1" d="M250,1.3l-79.3,79.2l104.9,104.9l0.4,0.3
			l2.2,2.1l20.7-20.7l-86.5-86.5l0.4-0.4L250,42.8l37.6,37.7l-0.4,0.4l-27.6,27.7l20.7,20.7l2.6-2.5l0,0l46.3-46.4L250,1.3L250,1.3z
			 M259.5,225.5l20.8,20.7l86.5-86.5l37.6,37.7l-0.4,0.4l-27.7,27.6l20.9,20.9l48.8-48.9l-79.3-79.2L259.5,225.5z M53.8,197.3
			l107.3,107.3l20.7-20.7l-2.4-2.6l0,0l-84-84l0.4-0.4l37.2-37.3l28.1,28L182,167l-48.8-48.9L53.8,197.3z M142.7,225.5l20.7,20.8
			l73.7-73.7l3.1-3.3l-20.7-20.7L142.7,225.5z M318.1,227.8l86.4,86.4l-0.4,0.4l-37.2,37.3l-28.1-28l-20.7,20.8l2.5,2.5l-0.1,0.1
			l46.2,46.2l79.3-79.3L338.8,207L318.1,227.8z M201.2,227.8l76.9,76.8l20.7-20.7L222,207L201.2,227.8z M333.9,268l-77.2,77.2v124.2
			h-13.5V345.1L222,323.8l-20.9,20.9l12.6,12.7v102.3l-0.2,0.1l-9.5,9.6h-70.9v29.4h233.8v-29.4h-71l-0.2-0.2l-9.6-9.6V357.3
			l0.2-0.2l71-71l-20.8-20.8L333.9,268z M133.1,351.9l-0.4-0.4l-37.2-37.3l0.4-0.4l24.4-24.4l3.1-3.3l-20.7-20.7l-48.8,48.8
			l79.2,79.3l107.2-107.4l-20.7-20.7L133.1,351.9z"/>
	</g>
</mask>
<linearGradient id="Fill-2_00000101101737055816435450000008535151565538589089_" gradientUnits="userSpaceOnUse" x1="8.3395" y1="492.6927" x2="4.0284" y2="498.1581" gradientTransform="matrix(43.3801 0 0 -55 -21.1901 27528)">
	<stop  offset="0" style="stop-color:#24B1C6"/>
	<stop  offset="1" style="stop-color:#D852D8"/>
</linearGradient>
<path id="Fill-2" style="mask:url(#mask-2_00000098913318512795946000000000728556533134379166_);fill:url(#Fill-2_00000101101737055816435450000008535151565538589089_);" d="
	M250,1.3l-79.3,79.2l104.9,104.9l0.4,0.3l2.2,2.1l20.7-20.7l-86.5-86.5l0.4-0.4L250,42.8l37.6,37.7l-0.4,0.4l-27.6,27.7l20.7,20.7
	l2.6-2.5l0,0l46.3-46.4L250,1.3L250,1.3z M259.5,225.5l20.8,20.7l86.5-86.5l37.6,37.7l-0.4,0.4l-27.7,27.6l20.9,20.9l48.8-48.9
	l-79.3-79.2L259.5,225.5z M53.8,197.3l107.3,107.3l20.7-20.7l-2.4-2.6l0,0l-84-84l0.4-0.4l37.2-37.3l28.1,28L182,167l-48.8-48.9
	L53.8,197.3z M142.7,225.5l20.7,20.8l73.7-73.7l3.1-3.3l-20.7-20.7L142.7,225.5z M318.1,227.8l86.4,86.4l-0.4,0.4l-37.2,37.3
	l-28.1-28l-20.7,20.8l2.5,2.5l-0.1,0.1l46.2,46.2l79.3-79.3L338.8,207L318.1,227.8z M201.2,227.8l76.9,76.8l20.7-20.7L222,207
	L201.2,227.8z M333.9,268l-77.2,77.2v124.2h-13.5V345.1L222,323.8l-20.9,20.9l12.6,12.7v102.3l-0.2,0.1l-9.5,9.6h-70.9v29.4h233.8
	v-29.4h-71l-0.2-0.2l-9.6-9.6V357.3l0.2-0.2l71-71l-20.8-20.8L333.9,268z M133.1,351.9l-0.4-0.4l-37.2-37.3l0.4-0.4l24.4-24.4
	l3.1-3.3l-20.7-20.7l-48.8,48.8l79.2,79.3l107.2-107.4l-20.7-20.7L133.1,351.9z"/>
</svg>
