<?xml version="1.0" encoding="utf-8"?>
<!-- Generator: Adobe Illustrator 24.0.0, SVG Export Plug-In . SVG Version: 6.00 Build 0)  -->
<svg version="1.1" id="Layer_1" xmlns="http://www.w3.org/2000/svg" xmlns:xlink="http://www.w3.org/1999/xlink" x="0px" y="0px"
	 viewBox="0 0 1956.6 1955.9" style="enable-background:new 0 0 1956.6 1955.9;" xml:space="preserve">
<style type="text/css">
	.st0{fill-rule:evenodd;clip-rule:evenodd;fill:#DEC685;}
</style>
<g>
	<path class="st0" d="M891,1136c-6.8-8.8-13.9-18.1-20.9-27.9c-7.8-11-10.5-21.6-8.1-32.7c5.2-24.2,34.1-45.4,44.8-51.5l-13.2-23.8
		c-2,1.1-49,28.2-57.9,69.3c-4.1,18.8,0.1,37.2,12.5,54.6c7.2,10.1,14.5,19.6,21.5,28.7c34.9,45.5,50.7,68.7,29.2,97.6
		c-9.2,12.3-19.8,20.3-31.1,28.7c-28,21-57,42.7-47.2,123.5l26.7-3.3c-7.9-65.1,10.7-79,36.5-98.3c11.8-8.8,25.1-18.8,36.7-34.3
		C955.4,1219.8,924.1,1179.1,891,1136"/>
	<path class="st0" d="M891.9,1006.7c-12.1,7.7-44.5,31.1-51.6,63.7c-3.8,17.4,0.1,34.5,11.8,50.8c7.2,10.1,14.4,19.5,21.3,28.5
		c35.4,46.2,52.8,71.7,29.3,103.3c-9.6,12.9-20.5,21-32.1,29.7c-27.6,20.7-53.7,40.2-45.9,114.4l17.3-2.2
		c-6.7-63.8,13.4-78.9,38.8-97.9c11.6-8.7,24.6-18.4,35.8-33.3c32.8-44,4-81.5-29.4-125c-6.8-8.9-14-18.2-21-28.1
		c-8.7-12.2-11.6-24.1-8.9-36.5c5.1-23.3,30-43.6,43.1-52.1L891.9,1006.7L891.9,1006.7L891.9,1006.7z M816.4,1407.8l-0.6-4.7
		c-10.2-83.6,21.3-107.1,49-127.9c11-8.2,21.5-16.1,30.2-27.8c18.7-25.1,7.5-44-29.2-91.8c-7.4-9.5-14.6-19.1-21.6-28.8
		c-13.2-18.5-17.7-38.2-13.3-58.4c9.1-41.9,54.9-69.4,60.2-72.4l4.2-2.4l17.8,32.1l-4,2.3c-9.5,5.4-37.7,25.9-42.5,48.4
		c-2.1,9.6,0.3,19.1,7.3,29c7,9.8,14,19,20.8,27.8c32.7,42.6,66.5,86.7,29.5,136.4c-12,16-25.6,26.2-37.6,35.2
		c-25.4,19-42.2,31.6-34.6,93.9l0.6,4.7L816.4,1407.8L816.4,1407.8L816.4,1407.8z M568.4,565.9c-139.3-5.5-172,47.1-174.9,92.3
		c-1.3,20.4,0.2,43.1,1.9,67.2c3.6,52.8,7.3,107.5-20.3,135.1c-16.2,16.2-42.6,22.6-80.7,19.6l-2.1,27.2c6.7,0.5,13.1,0.8,19.3,0.8
		c36.4,0,63.5-9.3,82.4-28.2c36.4-36.4,32.1-100.1,28.3-156.3c-1.6-23.1-3-44.9-1.9-63.6c3.1-48.1,52.5-70.7,147-66.8L568.4,565.9
		L568.4,565.9z"/>
	<path class="st0" d="M297.3,903c42.5,2.6,72.9-6,93.3-26.4c34.8-34.9,30.6-97.5,26.9-152.7c-1.6-23.2-3-45.1-1.9-64.2
		c3.2-50.4,52.7-74.4,147.2-71.4l0.7-17.8C459,567.2,402,597.7,398.2,658.5c-1.3,20.3,0.2,42.7,1.9,66.5
		c3.6,53.9,7.4,109.7-21.7,138.8c-16.5,16.5-42.5,23.5-79.6,21.3L297.3,903L297.3,903z M311.6,912.8c-6.3,0-12.8-0.2-19.7-0.8
		l-4.7-0.4l2.8-36.6l4.7,0.4c36.6,2.9,61.8-3.1,76.9-18.3c26.1-26.1,22.4-79.7,19-131.5c-1.6-24.1-3.2-46.9-1.9-67.8
		c3-47.3,36.6-102.3,179.8-96.7l4.7,0.2l-1.4,36.7l-4.7-0.2c-91.3-3.7-139.2,17.3-142.1,62.4c-1.2,18.4,0.3,40.1,1.9,63
		c3.9,57.2,8.2,122.1-29.6,160C377.4,903.2,349.3,912.8,311.6,912.8L311.6,912.8L311.6,912.8z"/>
	<path class="st0" d="M774.3,1024.2c-6.8-8.9-13.9-18.1-20.9-28c-8.7-12.2-11.7-23.6-9.2-35c4.3-19.4,23.2-34.1,31.9-39.9
		c18.8,7.5,41.6,12.5,69.4,13.6v0.2c1.9,0,3.9,0,5.8-0.1c1.9,0.1,3.8,0.1,5.8,0.1v-0.2c77.3-3,116.4-36.6,136.2-69.6
		c18.5,7.5,71.5,34.7,69.1,100.4c-1.2,32.4-28.3,63.3-54.6,93.2c-37.3,42.6-79.7,90.9-44.4,148.2l22.9-14.4
		c-23-37.4,0.4-68.7,41.7-115.7c29.4-33.5,59.8-68.2,61.3-110.3c2.1-58.7-31.4-95.7-63-115.2c26.4-2.7,59.9-11.7,68-28.5
		c2.9-6,10.5-21.9-62.3-195.1c-5.2-24.8-19.9-95.9-24.2-130.5c54.1-74.4,29.9-150.7-19-194.1c-50.6-44.8-134.3-61.2-198.9-10.3
		c-18.5-42.3-65.3-72.1-127.5-79.8c-110.6-13.6-191.3,45.4-219.4,106c-36.3,78.3-16.3,133.4,2.9,162.8
		c-59.9,0.6-101.6,15.3-126.8,44.4C278.7,573,292.2,643.3,303,699.9c5,26.3,11.3,59,4.9,67c-21,26.4-44.8,18.8-54.1,14.3
		c-15.9-7.7-25.9-23-23.1-35.6l-26.3-5.8c-5.4,25,10.5,52.8,37.9,66c24.2,11.7,59.7,12.1,86.7-21.9c14.2-17.8,8.2-49.3,0.5-89.2
		c-9.6-50.7-21.7-113.7,10-150.4c23.1-26.7,68.6-38.1,135.3-34.3l9.1-24.3c-0.7-0.5-63.9-52.6-16.4-154.9
		c34.4-74.2,123.5-99,191.8-90.6c47.3,5.8,101.2,29.7,111,79.5l22.8,6.9c40.7-41.8,116.9-57,178-2.8c37,32.8,62.3,93.9,13.9,158.9
		c-123.9-19.2-216.6-2.7-275.2,49.5c-35.6,31.6-51,69.6-57.7,98.3c-2.9-2.3-6-4.2-9.3-5.8c-9.2-4.2-27.8-8.7-49.8,7.8
		c-21.8,16.4-30.7,41-25.1,69.1c6.6,33.5,32.4,67.4,58,86.5c-12.2,11.9-24.7,27.9-28.9,47.2c-4.1,18.8,0.1,37.2,12.5,54.6
		c7.2,10.1,14.5,19.6,21.5,28.7c34.9,45.5,50.7,68.7,29.2,97.6c-9.2,12.3-19.9,20.3-31.2,28.7c-28,21-57,42.7-47.2,123.5l26.7-3.3
		c-7.9-65.1,10.7-79,36.5-98.2c11.8-8.8,25.1-18.8,36.7-34.3c34.9-46.8,3.6-87.5-29.5-130.7c-7.1-9.2-14.1-18.5-20.9-27.9
		c-7.8-11-10.4-21.7-8.1-32.7c3.3-15.4,16.2-29.6,27.9-39.4c0.8,0.3,3.2-2.6,3.2-2.6c5.5-4.3,10.4-7.6,13.7-9.4v0l-6.6-11.9
		l-6.6-11.9c-2.4,1.4-4.7,2.8-7,4.4c-20.7-13.1-47.8-44.5-53.7-74.1c-3.6-18,1.3-31.7,14.8-42c8.3-6.3,15.8-7.9,22.5-4.8
		c8,3.6,14.6,14.1,15.3,24.3l12.7-1l14.2-0.6c-0.1-0.7-1.8-70.6,53.9-119.8c52.7-46.6,138.4-60.7,254.6-42.5
		c6.7,46.1,24.4,128.7,25.2,132.6l1.2-0.3c29.3,69.8,59.4,151.1,60.6,169.5c-8.5,7.4-44.3,14.1-59.7,14c3.9-15.3,4-26.1,4-26.5h-27
		c0,4.4-1.6,105.8-135.3,108.6C718.3,905,716,803.6,715.9,799.2l-13.4,0.1H689c0,1,1,68.7,60.5,108.2
		c-12.2,10.4-26.9,26.6-31.6,47.7c-4.3,19.2,0.2,38.4,13.6,57.1c7.2,10.1,14.5,19.6,21.5,28.7c34.9,45.5,50.7,68.6,29.2,97.5
		c-9.2,12.3-19.9,20.3-31.1,28.8c-28,21-57,42.6-47.2,123.5l26.7-3.3c-7.9-65.1,10.7-79,36.5-98.3c11.8-8.8,25.1-18.8,36.7-34.3
		C838.6,1108,807.3,1067.3,774.3,1024.2"/>
	<path class="st0" d="M694,804c1.4,15.8,9.8,67.5,58.2,99.5l5.2,3.5l-4.8,4.1c-11.3,9.6-25.6,25.1-30,45.1
		c-4,17.9,0.3,35.8,12.8,53.3c7.2,10.1,14.4,19.6,21.4,28.6c35.3,46.1,52.7,71.6,29.2,103.2c-9.6,12.8-20.4,21-31.9,29.6
		c-27.8,20.8-53.9,40.3-46.1,114.6l17.4-2.2c-6.7-63.8,13.4-79,38.8-97.9c11.6-8.7,24.6-18.4,35.7-33.3c32.7-43.9,4-81.4-29.3-124.9
		l3.7-3l-3.8,2.9c-6.8-8.9-13.9-18.2-21-28.1c-9.5-13.3-12.8-26.1-9.9-38.8c4.7-21.3,25.3-37.1,33.9-42.9l2.1-1.4l2.3,0.9
		c19.5,7.8,42.4,12.3,67.8,13.3l4.4,0.2h1.2l3.5,0l2.2-0.2c62.5-2.5,107-25.1,132.4-67.3l2.1-3.4l3.7,1.5
		c17.5,7.1,74.6,35.6,72.1,105c-1.3,34-29,65.6-55.7,96.1c-35.4,40.3-75.3,85.8-46.4,138.5l14.9-9.4c-20.6-38.3,4.4-71.6,44.5-117.3
		c28.9-32.9,58.7-66.9,60.2-107.3c2.3-62.4-37.1-96.4-60.8-111l-11.8-7.3l13.8-1.4c27.2-2.8,57.5-11.9,64.2-25.8
		c6.4-13.3-14.6-77.6-62.4-191.2c-4.8-22.7-20.1-96.5-24.5-131.8l-0.3-1.8l1.1-1.6c52.4-72,28.5-146.2-18.4-187.8
		c-48.1-42.6-129.7-59.8-192.8-10.1l-4.8,3.8l-2.4-5.6c-17.9-40.9-64.2-69.7-123.7-77c-108.3-13.3-187.1,44.2-214.5,103.3
		c-34.5,74.4-17.7,127.1,2.5,158.3l4.7,7.2l-8.6,0.1c-58.6,0.6-98.9,14.6-123.2,42.7c-38.9,44.9-25.7,114-15.1,169.5
		c6.9,35.8,11.2,61.8,4,70.8c-23.1,29-49.6,20.6-59.9,15.6c-16.2-7.8-26.6-22.5-26.3-36.2l-17.3-3.8c-2.1,21.6,12.4,44.6,36,56.1
		c22.5,10.9,55.6,11.2,80.9-20.5c12.8-16.2,7-46.7-0.4-85.4c-9.9-51.7-22.1-116,11-154.3c23.6-27.3,69.2-39.5,135.7-36.1l6.8-18.1
		c-11.9-11.5-58.7-64.5-15.1-158.3c35.4-76.4,126.7-101.8,196.6-93.2c48,5.9,102.8,30.1,114.5,80.4l17.4,5.3
		c42.7-41.9,120.2-56.3,182.5-1c38.2,33.9,64.9,97.5,14.5,165.3l-1.7,2.3l-2.8-0.4c-122.6-19-213.9-2.8-271.3,48.3
		c-35.3,31.4-50.1,69.4-56.2,95.8l-1.7,7.2l-5.8-4.6c-3-2.3-5.7-4-8.3-5.3c-8.2-3.8-25-7.8-44.9,7.3c-20.3,15.3-28.6,38.2-23.4,64.4
		c6.7,33.9,33.1,66.4,56.2,83.6l4.5,3.3l-4,3.9c-15,14.4-24.2,29.5-27.6,44.8c-3.8,17.4,0.1,34.5,11.8,50.8
		c6.8,9.5,13.7,18.5,20.3,27.1l1.1,1.5c35.4,46.1,52.8,71.6,29.3,103.2c-9.6,12.9-20.6,21.1-32.2,29.7
		c-27.6,20.7-53.7,40.2-45.9,114.5l17.4-2.1c-6.7-63.9,13.5-79,38.9-97.9c11.7-8.8,24.7-18.5,35.7-33.3c32.8-44,4-81.5-29.4-125
		c-7-9.1-14-18.3-21-28c-8.7-12.1-11.6-24.1-8.9-36.4c3.8-17.4,18.2-32.5,29.5-42.1l2-1.7l0.3,0.1l0.4-0.4c4-3.3,7.7-6,11-8.1
		l-8.6-15.5c-0.9,0.6-1.7,1.1-2.6,1.7L648,776l-2.6-1.6c-22.7-14.3-49.9-47.1-55.8-77.1c-3.9-19.7,1.7-35.4,16.6-46.7
		c9.8-7.4,19-9.3,27.3-5.4c8.3,3.8,15.2,13.3,17.4,23.5l18.2-1c0.6-17,6.4-75.5,55.5-118.8c53.7-47.5,140.6-62.1,258.4-43.6l3.5,0.6
		l0.5,3.4c5.7,38.9,19,103.3,24.1,127.7l0.4-0.1l1.5,3.6c28.6,68.3,59.7,151.5,61,171l0.2,2.4l-1.8,1.5
		c-10.1,8.7-47.2,15.1-62.4,15.1h-0.4l-6,0l1.4-5.8c1.7-6.8,2.9-13.7,3.6-20.6h-17.4c-1.7,21.4-16.3,106-139.8,108.6
		c-123-2.6-138.1-87.3-140-108.6L694,804L694,804L694,804z M699.7,1295.9l-0.6-4.7c-10.2-83.6,21.3-107.1,49.1-127.8
		c11.1-8.3,21.4-16.1,30.2-27.8c18.7-25.1,7.6-44-29.1-91.8c-7-9.1-14.3-18.7-21.6-28.9c-14.1-19.8-18.9-40.2-14.3-60.9
		c4.5-19.8,17.2-35.5,28.6-46.2c-56.9-41.4-57.6-108-57.6-108.7v-4.7l36.3-0.1l0.1,4.7c0,4.2,2.3,101.2,130.8,104
		c129-2.7,130.5-99.7,130.5-103.9v-4.7h36.4v4.7c0,0.1-0.1,8.6-2.8,21.6c15.8-1.1,40.1-6.4,48.7-11.3
		c-3.2-19.9-27.9-88.5-58.4-161.8l-2,0.5l-1-4.6c-4.4-20.6-18.4-87.6-24.7-129.5c-113.1-17.2-196.3-3.1-247.3,41.9
		c-54,47.6-52.4,115.4-52.3,116.1l0.1,4.7l-36.1,2.1l-0.4-4.7c-0.7-8.5-6.2-17.4-12.6-20.4c-5-2.3-10.8-0.9-17.7,4.3
		c-12.1,9.2-16.3,21-13,37.3c5.2,26.1,28.9,55.5,49,69.3c2.7-1.7,4.4-2.7,4.7-2.9l4.1-2.2l17.7,31.9l-4.1,2.3
		c-3.6,2.1-8.6,5.5-13.1,9.1c-1,1.4-2.4,2.6-4,3.3c-8.5,7.3-22.2,21-25.5,36c-2.1,9.7,0.3,19.2,7.3,29c6.9,9.7,13.9,18.8,20.6,27.5
		c32.9,42.9,66.7,87,29.7,136.7c-11.8,15.9-25.4,26-37.3,35c-25.7,19.2-42.4,31.7-34.9,94.1l0.6,4.7l-36.1,4.5l-0.6-4.7
		c-10.1-83.6,21.3-107.1,49.1-127.9c11-8.2,21.4-16,30.2-27.8c18.7-25.1,7.5-44-29.2-91.8l-1.1-1.5c-6.7-8.7-13.6-17.8-20.4-27.3
		c-13.3-18.5-17.7-38.2-13.3-58.4c3.4-15.7,12.3-31,26.4-45.7c-23.5-19-48.8-51.8-55.6-86c-5.9-30,3.6-56.2,26.9-73.8
		c23.9-18.1,44.4-13,54.6-8.4c1.5,0.7,3,1.5,4.4,2.3c9.5-36.3,29.5-69,57.4-94c59.3-52.6,152.2-69.7,276.2-51
		c44.3-61.7,19.9-119.4-14.9-150.3c-58.9-52.2-132.3-37.7-171.5,2.6l-2,2l-28.3-8.5l-0.5-2.8c-9.3-47.3-61.4-70.1-107-75.7
		c-66.5-8.2-153.5,15.8-186.9,87.9c-45.6,98.3,14.5,148.7,15.1,149.3l2.6,2.1L477.9,515l-3.5-0.2c-65.2-3.9-109.4,7.2-131.5,32.7
		c-30.2,34.9-18.4,96.7-8.9,146.4c7.9,41.1,14.1,73.5-1.5,93c-28.8,36.1-66.6,35.7-92.4,23.1c-29.3-14.1-46.3-44.1-40.4-71.3l1-4.6
		l35.6,7.8l-1,4.6c-2.2,10.4,6.8,23.8,20.6,30.4c10.2,4.9,30.1,9.8,48.3-13c5-6.3-2.1-43.3-5.9-63.1c-11-57.5-24.7-129.1,17.2-177.4
		c25-29,65-43.9,122-45.8c-19.3-33.8-32.7-87.3,1.2-160.3c28.8-62.1,111.3-122.6,224.2-108.7c60.3,7.4,107.9,36.1,128.7,77.2
		c66.4-48.4,150.4-30.1,200.2,14.1c49.7,44.1,75.2,122.6,20.8,198.9c4.7,35.6,19.5,107,23.9,128.4c73.4,174.2,65.7,190.3,62,198.1
		c-7.6,15.8-33.8,25.2-59.3,29.5c25,18.5,56.9,53.7,54.8,112.4c-1.6,43.8-32.5,79.1-62.5,113.2c-43.5,49.6-61.8,76.7-41.2,110.2
		l2.4,4l-30.8,19.4l-2.5-4.1c-37.1-60.3,6.4-110,44.9-153.8c25.7-29.3,52.2-59.6,53.4-90.2c2.1-58.1-40.4-84.6-62.5-94.3
		c-19.1,29.7-57.4,63.9-133.4,68.1v0.2l-4.7,0.2h-16.3v-0.4c-23.7-1.3-45.2-5.7-64.1-12.8c-8.5,6-24.3,19.1-27.9,35.6
		c-2.2,10,0.5,20.2,8.4,31.3c7,9.8,14.1,19,20.8,27.8l-3.7,2.9l3.8-2.8c32.7,42.6,66.4,86.7,29.4,136.3
		c-11.9,16-25.6,26.2-37.6,35.2c-25.5,19.1-42.2,31.6-34.7,94l0.6,4.7L699.7,1295.9L699.7,1295.9L699.7,1295.9z"/>
	<path class="st0" d="M550.4,429.5c-19.6,25.3-19.9,57.5-0.8,82.1c12,15.4,28.7,23.8,45.3,23.8c6.9,0,13.8-1.5,20.3-4.5
		c27.8-12.8,34.4-23.2,52.2-51.3c8.9-13.9,21-33,40.6-60.1c15.1-20.8,31.2-31.8,48.1-32.5c27.4-1,50.4,24.8,50.6,25.1l10.2-8.9
		l10.2-8.9c-1.2-1.4-29.9-34.6-69.1-34.6c-0.9,0-1.8,0-2.8,0.1c-25.5,1-48.7,15.7-68.9,43.6c-14.5,20-28.3,40.6-41.5,61.5
		c-16.7,26.3-20.2,31.8-40.8,41.3c-12.4,5.7-25.6-1.6-33.2-11.5c-8.9-11.4-13.3-30.1,0.9-48.4L550.4,429.5z"/>
	<path class="st0" d="M551.3,436.2c-15.4,22.9-14.8,50.8,2,72.4c15.3,19.7,39.8,27.2,59.8,18c26.5-12.2,32.5-21.6,50.2-49.6
		c8.9-13.9,21-33,40.8-60.4c15.9-22.1,33.3-33.6,51.6-34.4c23.5-0.9,43.3,15.9,51,23.3l13.4-11.7c-8.3-8.5-32-29.6-62.4-29.6
		c-0.8,0-1.6,0-2.5,0.1c-24.1,0.9-46,14.9-65.3,41.7c-20.1,27.9-32.4,47.2-41.3,61.2c-17,26.7-21,33-42.8,43
		c-14.7,6.7-30.2-1.6-38.9-12.8c-11.7-14.5-12.4-35-1.9-50.4L551.3,436.2L551.3,436.2z M594.8,540.1c-18.4,0-36.3-9.4-49-25.7
		c-20.5-26.3-20.1-60.8,0.8-87.9l2.9-3.8l28.6,22.7l-2.8,3.7c-12.5,16.1-8.7,32.6-0.9,42.6c6.4,8.3,17.5,14.6,27.5,10
		c19.3-8.9,22.2-13.6,38.7-39.5c9-14.2,21.4-33.6,41.7-61.7c21.1-29.2,45.5-44.5,72.5-45.6c0.9-0.1,1.9-0.1,2.9-0.1
		c41.6,0,71.5,34.8,72.7,36.3l3,3.6l-27.5,23.9l-3.1-3.5c-0.2-0.2-21.1-23.5-45.5-23.5h-1.3c-15.3,0.7-30.2,10.9-44.4,30.5
		c-14.1,19.5-27.6,39.5-40.4,59.9c-17.9,28.1-25.3,39.7-54.3,53.1C610.1,538.4,602.5,540.1,594.8,540.1L594.8,540.1z M1363.9,1534.8
		c66.2-19.6,98.2-100.9,77.8-201.1l-26.4,5.5c14.7,71.9,1,156.1-63.6,170.8c-61.8,14.1-121.5-40.4-145.1-132.6
		c-14.1-55.2-10.3-106.7,10.6-141.3c12.6-20.9,30.6-34.2,53.4-39.4c14.9-3.6,30.4-3.2,45.1,1.1l7.6-26.2
		c-19.1-5.6-39.3-6.1-58.6-1.6c-11.4,2.6-22.3,7-32.4,13.1l-0.5-1c-74,38.4-156.5,57.5-239.8,55.7l-0.5,27.2
		c3.6,0.1,7.1,0.1,10.7,0.1c64.4,0,128.2-11.9,187.5-34.4c-20.4,40.3-23.9,95.4-9.1,153.4c17.8,69.4,54.6,120,99.1,142.4
		c-55.4,10.4-119.6,18.5-163.9,18.5c-65.3,0-129.7-9.3-191.3-27.8l-7.6,26.1c64.6,19.3,131.6,29,199,28.9
		c72.2,0,188.8-19.7,248.2-37.3L1363.9,1534.8L1363.9,1534.8z"/>
	<path class="st0" d="M922.7,1540.4c62.3,18.2,127.2,27.4,193.1,27.4c70.2,0,182.4-18.7,242.7-35.9l4.1-1.6
		c63.5-18.8,93.5-95.2,75.4-191l-17.1,3.6c13.6,73-1.8,156.6-68.1,171.8c-64.5,14.6-126.4-41.3-150.7-136.1
		c-14.4-56.3-10.4-109.1,11.1-144.8c13.3-22.1,32.3-36.1,56.4-41.6c14.1-3.3,28.8-3.3,42.9,0l5-17.1c-16.9-4.2-34.7-4.3-51.6-0.3
		c-10.9,2.5-21.4,6.7-31,12.5l-4.4,2.7l-0.7-1.3c-72.2,36.6-152.2,55.2-233.1,54.1l-0.3,17.8c65.9,0.7,130.4-10.7,191.7-34.1
		l11.4-4.4l-5.5,10.9c-19.9,39.3-23.1,94-8.8,150.1c17,66.2,52.2,117,96.7,139.4l12.5,6.3l-13.8,2.6
		c-62.1,11.6-123.7,18.6-164.8,18.6c-63.7,0.1-127-8.9-188.2-26.7L922.7,1540.4L922.7,1540.4L922.7,1540.4z M1115.8,1577.3
		c-67.8,0.1-135.3-9.7-200.3-29.1l-4.5-1.3l10.3-35.2l4.6,1.3c61.1,18.3,125.1,27.6,189.9,27.6c37.1,0,93.7-6.1,150.3-16.1
		c-41.5-26.1-73.9-75.8-90-138.9c-13.9-54.3-12.2-105.7,4.6-146.2c-60.7,21.6-124.8,32-189.3,30.7l-4.7-0.1l0.7-36.7l4.7,0.1
		c3.4,0.1,6.7,0.1,10.1,0.1c79.6,0,158.3-19.1,227.5-55.2l4.2-2.2l0.5,0.9c9.2-5.1,19.1-8.8,29.4-11.1c20.1-4.7,41.1-4.2,60.9,1.6
		l4.5,1.3l-10.2,35.2l-4.6-1.4c-13.9-4-28.6-4.4-42.7-1.1c-21.6,5-38.5,17.5-50.4,37.3c-20.2,33.6-23.9,83.7-10.1,137.6
		c22.9,89.6,80.4,142.7,139.4,129.2c61.6-14,74.3-95.5,60.1-165.3l-0.9-4.6l35.6-7.5l1,4.7c20.5,100.8-10.3,182.4-76.7,205.1
		l0.1,0.4l-4.4,1.3C1305.7,1557.5,1188.5,1577.3,1115.8,1577.3L1115.8,1577.3z M978.4,633l-63.1-26.9l-10.6,0.1L799,652.5l10.7,25
		l100.5-43.9l57.8,24.6L978.4,633L978.4,633z"/>
	<path class="st0" d="M805.2,654.9l7,16.3l97.9-42.8l55.3,23.5l6.8-16.4l-57.9-24.7l-8.6,0.1L805.2,654.9L805.2,654.9z M807.2,683.7
		L792.8,650l111.9-48.5l11.6-0.1l0.9,0.4l67.4,28.7l-14.1,33.8l-60.3-25.6L807.2,683.7L807.2,683.7z"/>
	<path class="st0" d="M896.5,684.9c0,12.4,10.6,22.5,23.6,22.5s23.6-10.1,23.6-22.5c0-12.4-10.6-22.5-23.6-22.5
		S896.5,672.6,896.5,684.9"/>
	<path class="st0" d="M920.1,667.2c-10.4,0-18.9,8-18.9,17.8c0,9.8,8.4,17.8,18.9,17.8s18.9-8,18.9-17.8
		C939,675.2,930.5,667.2,920.1,667.2 M920.1,712.1c-15.6,0-28.3-12.2-28.3-27.2c0-15,12.7-27.2,28.3-27.2s28.4,12.2,28.4,27.2
		C948.5,699.9,935.7,712.1,920.1,712.1"/>
	<path class="st0" d="M1410,966.8l-230.6,92.6l92.9-292.5c0.4,0,0.8,0.1,1.2,0.1c0.8,0,1.5-0.2,2.3-0.2l137.6,182.4
		c-2.4,4.3-3.7,9.1-3.7,14C1409.7,964.4,1409.9,965.6,1410,966.8L1410,966.8L1410,966.8z M696.5,1397.2c5.8,6.7,14.3,11.1,24,11.1
		c0.7,0,1.4-0.2,2.1-0.2l126.1,213.1c-45.3-8.9-89.6-22.5-132.1-40.7c-78.3-33.5-149.4-81.6-209.6-141.8L696.5,1397.2z
		 M391.6,1048.9c1.9,10.5,9.3,19.2,19.4,23l48.9,315.1c-41.8-51-75.8-107.5-101.4-168.8l-18.1-7l-10,4.7
		c-21.6-63.3-34-129.4-36.7-196.3L391.6,1048.9L391.6,1048.9z M1656.7,1639.7c-87.2,88.5-190.7,159.1-304.9,207.9
		c-118,50.6-245.1,76.5-373.5,76.3c-129.5,0-255.1-25.7-373.5-76.3c-114.2-48.8-217.8-119.5-304.9-207.9
		c-82.1-82.9-148.5-180-196.1-286.6l235.4-111.3c34.8,78.9,83.7,150.8,144.4,212c63.6,64.5,139.1,116.1,222.4,151.7
		c86,36.8,178.7,55.8,272.2,55.6c56.2,0,112-6.7,165.7-19.9l-6.4-26.4c-83.2,20.3-169.5,24.5-254.2,12.3l-137.2-232
		c3.5-5,5.5-10.9,5.5-17c0-16.7-14-30.3-31.3-30.3c-14.6,0-26.8,9.8-30.2,22.9l-198.8,43.5L438,1069.9c9.3-5.2,15.7-14.9,15.7-26.1
		c0-16.7-14-30.2-31.3-30.2c-8.8,0-16.8,3.6-22.5,9.3L293,991c0-0.5-4.9-1.4-4.9-1.4H266c0,81.8,13.5,161.7,39.9,237.9l-94.5,44.7
		c-32.6-90.6-49.2-186.3-49.1-282.6c0-20.3,0.7-40.6,2.1-60.5l-26.9-2c-1.5,20.5-2.2,41.6-2.2,62.5c0,101.3,17.3,200.2,51.5,294.2
		l-94.1,44.5C52.2,1220,31.5,1105.3,31.7,989.6c0-129.3,25.1-254.7,74.4-372.8c47.4-113.6,116.2-216.9,202.8-304.4
		c86-87.3,188.2-157,300.9-205.2C726.3,57.4,851.6,31.8,978.3,32c127.8,0,251.8,25.3,368.5,75.3c112.7,48.2,214.9,117.9,300.9,205.2
		c86.6,87.4,155.5,190.8,202.8,304.3c49.4,118.1,74.6,244.8,74.4,372.8c0,113.4-19.6,224.2-57.8,329.7l-97.3-35.6
		c34.2-94.3,51.6-193.8,51.5-294.1c0-470.2-378.1-852.7-842.9-852.7c-65.7,0-131.1,7.6-194.5,22.8l6.2,26.5
		c61.4-14.6,124.7-22.1,188.3-22.1c206.8,0,395.7,78.4,539.6,207l26.4,217.8c-10.5,4.9-17.3,15.4-17.4,27l0,0.2l-236.9,95.1
		c-5-3.1-10.7-4.7-16.6-4.7c-1.1,0-2.1,0.2-3.1,0.3l-103.3-221.2c4.7-5.3,7.3-12.2,7.4-19.3c0-8.1-3.4-15.9-9.3-21.5l39-109.9
		c13.7,4.8,27.4,10.1,40.8,15.8c81.6,34.9,155.6,85.4,217.9,148.7l19-19.3c-64.7-65.7-141.6-118.2-226.4-154.5
		c-50.7-21.7-103.8-37.3-158.1-46.6l-4.4,26.9c29,4.9,57.6,11.9,85.7,20.7l-39,109.9c-15.5,1.8-27.6,14.4-27.6,29.9
		c0,16.4,13.6,29.7,30.4,30.1l104.7,224.3c-3.1,4.7-4.8,10.3-4.9,16c0,6.5,2.2,12.5,5.8,17.5l-94.9,298.7
		c-15,2.2-26.6,14.6-26.6,29.8c0,16.7,14,30.2,31.3,30.2c16.5,0,29.8-12.4,31-28.1l232.7-93.4l-43.4,221.1
		c-13.5,3.3-23.1,15.2-23.3,29.1c0,16.7,14,30.2,31.3,30.2c17,0,30.7-13.1,31.2-29.5l303.5-137.7c5.3,4.2,12,6.7,19.4,6.7
		c17.2,0,31.3-13.6,31.3-30.2c0-16.7-14-30.3-31.3-30.3c-16.9,0-30.7,13.1-31.2,29.3L1405.5,1218l-0.7-0.6l44.2-225
		c13.5-3.3,23.1-15.3,23.3-29.1c0-16.7-14-30.2-31.3-30.2c-1.9,0-3.7,0.2-5.5,0.5l-135.9-180.1c3.3-4.8,5.2-10.4,5.2-16.6
		c0-0.7-0.2-1.3-0.2-2l235.3-94.5c5.2,3.6,11.5,5.9,18.4,5.9c17.2,0,31.3-13.6,31.3-30.2c0-12.1-7.5-22.5-18.1-27.3L1548.6,400
		c157.5,155.7,246,368.1,245.7,589.6c0,98-16.7,193.7-49.8,284.8l-110.3-40.4l-4.6,12.8l4.6-12.8l-25.1-9.2l-16.9,7.2
		c-26,58.7-60.3,113.5-101.7,162.6l20.5,17.7c40.4-47.8,74.2-100.8,100.6-157.6l13.4,4.9l231.6,84.9
		C1808.8,1454.4,1741,1554.5,1656.7,1639.7L1656.7,1639.7L1656.7,1639.7z M1951.9,989.6c0-132.9-25.8-261.9-76.5-383.4
		c-48.7-116.8-119.6-223.1-208.6-313c-88.5-89.8-193.6-161.4-309.4-211c-119.8-51.3-248.7-77.7-379-77.5
		c-131.3,0-258.9,26.1-379,77.5c-115.9,49.6-221,121.2-309.4,211c-89,89.9-159.9,196.2-208.6,313C30.5,727.6,4.5,858,4.7,989.6
		c0,122.8,22.7,242.9,66.3,356.5l2.9,5.9c49.2,114.4,119.4,218.5,207,307c89.6,90.9,196.1,163.5,313.4,213.7
		c121.3,52,252,78.7,384,78.5c133.1,0,262.3-26.4,384-78.5c117.4-50.2,223.8-122.8,313.4-213.7c90.2-91.1,162-198.8,211.3-317.1
		l0.8-1.7C1930.3,1228.2,1952,1109.4,1951.9,989.6L1951.9,989.6L1951.9,989.6z"/>
	<path class="st0" d="M1275.1,773.7l-88.2,277.6l218-87.6v-0.5c0-4.6,1-9.1,2.9-13.5L1275.1,773.7z M1171.9,1067.5L1269,762l5.3,0.2
		l3.8-0.3l141,186.9l-1.5,2.7c-2,3.6-3.1,7.6-3.2,11.8c0,0.7,0.1,1.3,0.2,1.9l0.5,3.6l-3.3,2.4L1171.9,1067.5L1171.9,1067.5
		L1171.9,1067.5z M340.2,1206.1l21.9,8.5l0.8,1.8c23,55,53.1,106.7,89.7,153.8l-45.8-294.9c-9.4-4.4-16.4-12.7-19.1-22.7l-89-26.5
		c3.2,62.6,14.8,124.2,34.5,183.3L340.2,1206.1L340.2,1206.1z M467.3,1403.4l-11-13.4c-41.7-50.9-75.9-107.5-101.4-168.1l-14.3-5.6
		l-13,6.1l-1.7-5c-21.7-63.8-34.2-130.3-37-197.6l-0.3-6.7l107.2,31.9l0.5,2.9c1.5,8.7,7.8,16.2,16.4,19.5l2.6,1L467.3,1403.4
		L467.3,1403.4L467.3,1403.4z M516.5,1441.4c58.5,56.9,126.9,102.6,201.9,134.7c38.7,16.6,79.3,29.4,120.7,38.3l-119.2-201.5
		c-9.4-0.1-18.4-3.9-25.1-10.6L516.5,1441.4z M858.1,1627.9l-10.4-2.1c-45.6-9-90.2-22.7-133-41c-78.8-33.7-150.5-82.2-211.1-142.8
		l-6.1-6.1l200.7-43.9l1.9,2.1c5.1,6,12.6,9.4,20.4,9.4l4.7-0.3L858.1,1627.9L858.1,1627.9z M110.1,1355.5
		c47.2,104.4,112.6,199.5,193.2,280.9c86.7,88,189.8,158.3,303.4,206.9c117.4,50.3,243.9,76.2,371.6,75.9
		c128.8,0,253.9-25.6,371.6-75.9c113.6-48.6,216.7-118.9,303.4-206.9l3.3,3.3l-3.3-3.3c82.8-83.6,149.5-181.6,196.9-289.2
		l-236.3-86.6c-26.3,55.7-59.7,107.7-99.4,154.7l-3.1,3.7l-27.6-23.9l3-3.6c41.1-48.8,75.1-103.1,101-161.4l0.8-1.7l20.3-8.7
		l132.7,48.6c31.9-89.5,48.1-183.7,47.9-278.7c0-217.5-83.2-421.7-234.6-576.5l20.9,172.4c11.3,6.2,18.5,17.8,18.5,30.4
		c0,19.3-16.2,35-36,35c-6.7,0-13.2-1.8-18.9-5.3l-229.8,92.3c-0.2,5.4-1.6,10.6-4.2,15.3l132.2,175.3c1.1-0.1,2.2-0.2,3.4-0.2
		c19.8,0,36,15.7,36,34.9c0,14.8-9.7,27.9-23.9,32.8l-42.1,214.3l293.6-133.3c2.3-17.9,17.7-31.1,35.7-30.9c19.9,0,36,15.7,36,35
		c0,19.3-16.2,34.9-36,34.9c-7.1,0-13.9-2-19.9-5.9l-298.4,135.4c-2,17.4-17.4,31-35.7,31c-19.8,0-36-15.7-36-35
		c0-14.8,9.7-27.9,23.9-32.8l41.2-209.8l-222.1,89.2c-2.7,16.7-17.8,29.4-35.4,29.4c-19.8,0-36-15.7-36-34.9
		c0-16.1,11.7-30.2,27.6-33.9l93.4-293.8c-6.6-10.4-7.1-23.6-1.1-34.5L1139.4,501c-17.9-1.9-32.1-16.9-32.1-34.7
		c0-16.7,12.2-30.8,28.8-34.1l36.4-102.6c-26.4-8-53.2-14.4-80.4-19.1l-4.6-0.8l6-36.2l4.7,0.8c54.7,9.3,108.1,25.1,159.2,46.9
		c85.4,36.5,162.8,89.3,227.9,155.5l3.3,3.3l-25.7,26l-3.4-3.4c-61.9-62.8-135.4-113-216.4-147.6c-11.9-5-23.9-9.7-36.1-14.1
		l-36.4,102.7c10.6,12,11.5,29.7,2,42.6l100.6,215.5c6,0.4,11.9,1.4,17.2,4.2l232-93.1c1-11,7.2-20.7,16.9-26.5l-25.8-212.8
		c-148.3-132-338.3-204.7-535.2-204.7c-63.3,0-126.3,7.4-187.2,21.9l-4.6,1.1l-8.4-35.7l4.6-1.1c64.1-15.3,129.7-23,195.6-23
		c467.4,0,847.6,384.7,847.6,857.4c0,100.1-16.9,198-50.2,291.2l88.4,32.4c37.1-103.9,56.1-213.3,56-323.6
		c0-128.6-24.9-253.4-74-371c-47.2-113-115.7-215.9-201.8-302.9c-85.6-86.9-187.3-156.2-299.4-204.2
		C1229.1,62,1104.3,36.5,978.3,36.7c-127.1,0-250.4,25.2-366.7,74.9c-112.1,48-213.8,117.3-299.4,204.1
		C135.1,495.2,35.9,737.4,36.4,989.6c0,114,19.9,225.8,59,332.2l85.6-40.5c-33.5-93.6-50.5-192.3-50.4-291.8c0-21,0.7-42.1,2.2-62.8
		l0.3-4.7l36.3,2.7l-0.3,4.7c-1.4,20-2.1,40.1-2.1,60.2c0,94.9,15.8,187.8,47.1,276.1l86-40.7c-25.7-75.8-38.9-155.4-38.8-235.4
		v-4.7h26.9c2.3,0.3,4.6,0.9,6.7,1.8l103.8,31c6.6-5.6,14.9-8.7,23.8-8.7c19.8,0,36,15.7,36,35c0,11.3-5.8,21.9-15.3,28.4
		l52.2,336.2l191.2-41.9c5.2-14.3,18.8-23.7,34-23.6c19.9,0,36,15.7,36,35c0,6-1.6,11.9-4.7,17.2l134.6,227.6
		c85.1,11.8,169.9,7.1,250.1-12.6l4.6-1.1l8.6,35.6l-4.6,1.1c-54.6,13.4-110.6,20.1-166.9,20c-95.1,0-187.3-18.8-274.1-55.9
		c-83.9-35.9-159.9-87.7-223.9-152.7c-60-60.5-108.5-131.3-143.4-209L110.1,1355.5L110.1,1355.5z M978.3,1928.7
		c-130.1,0-256.4-25.8-375.3-76.7c-114.7-49.1-218.8-120.1-306.4-209c-82.5-83.3-149.2-180.8-197-287.9l-1.9-4.2l244-115.4l1.9,4.4
		c34.5,78.4,83.2,149.7,143.4,210.6c63.1,64.1,138.2,115.3,220.9,150.7c85.4,36.6,177.4,55.4,270.4,55.2c54.2,0,108.1-6.3,160-18.7
		l-4.2-17.3c-82.3,19.5-167.6,23.3-251.3,11.3l-2.2-0.3l-140-236.6l1.8-2.5c3-4.2,4.6-9.2,4.6-14.3c0-14.1-11.9-25.6-26.6-25.6
		c-12-0.1-22.5,7.8-25.7,19.4l-0.7,2.8l-206.6,45.2l-54.7-352.5l2.9-1.6c8.1-4.3,13.2-12.7,13.3-21.9c0-14.1-11.9-25.5-26.5-25.5
		c-7.2,0-14.1,2.8-19.2,7.9l-2,2l-113-33.8l-1-0.2l-16.5,0.1c0.4,78.9,13.8,157.1,39.6,231.6l1.4,4l-103,48.7l-1.8-4.9
		c-32.8-91.2-49.5-187.3-49.3-284.2c0-18.7,0.6-37.6,1.8-56.2l-17.4-1.3c-1.3,19.1-1.9,38.3-1.9,57.4c0,100.6,17.3,199.1,51.3,292.6
		l1.5,4l-102.7,48.6l-1.8-4.8C47.6,1221.2,26.8,1105.9,27,989.6c0-129.9,25.2-255.9,74.8-374.6c47.6-114.1,116.8-218,203.8-305.9
		C392,221.4,494.7,151.4,607.9,103c117-50.1,243-75.9,370.4-75.7c128.4,0,253,25.4,370.4,75.7c113.2,48.4,216,118.4,302.4,206.2
		c87,87.9,156.2,191.7,203.9,305.9c49.6,118.7,75,246,74.7,374.6c0.1,113-19.6,225.1-58.1,331.3l-1.6,4.5l-106.2-38.9l1.6-4.4
		c34-93.7,51.3-192.7,51.2-292.4c0-467.6-376-848-838.2-848c-63.8,0-127.3,7.3-188.8,21.6l4,17.3c60.6-14.1,122.6-21.1,184.8-21.1
		c199.9,0,392.6,74,542.8,208.2l1.3,1.2l27,222.9l-3,1.5c-8.9,4.1-14.6,12.9-14.7,22.7v3.2l-3,1.4l-239.1,96l-2-1.2
		c-4.8-2.9-10.4-4.7-15.7-3.9l-3.4,0.5l-2.4-3l-104.6-224l2-2.3c4-4.5,6.2-10.2,6.3-16.2c0-6.9-2.9-13.4-7.8-18.1l-2.2-2.1
		l41.6-117.3l4.5,1.6c14.9,5.3,28.4,10.4,41,15.9c80.7,34.5,154,84.2,216,146.3l12.4-12.5c-63.6-63.8-138.8-114.7-221.6-150.1
		c-48.9-20.9-100-36.2-152.4-45.5l-2.9,17.6c26.6,4.7,54,11.5,81.6,20l4.7,1.5l-41.6,117.3l-3,0.3c-13.3,1.6-23.4,12.4-23.4,25.2
		c0,13.7,11.6,25.1,25.8,25.4l2.9,0.1l107,229.3l-1.4,2.2c-2.6,4-4.1,8.7-4.1,13.4c0,5.2,1.7,10.3,4.9,14.6l1.4,2l-96.6,303.8
		l-2.9,0.4c-12.8,1.9-22.5,12.7-22.5,25.1c0,14.1,11.9,25.5,26.6,25.5c13.7,0,25.3-10.4,26.3-23.7l0.2-2.9l2.7-1.1l240.8-96.7
		l-45.7,232.6l-2.9,0.7c-11.4,2.7-19.5,12.8-19.7,24.5c0,14.1,11.9,25.5,26.6,25.5c14.2,0,26.1-11.2,26.4-24.9l0.1-3l308.7-140.1
		l2.3,1.7c4.7,3.7,10.5,5.7,16.4,5.7c14.6,0,26.6-11.4,26.6-25.5s-11.9-25.5-26.6-25.5c-14.4,0-26,10.8-26.4,24.7l-0.1,2.9l-2.7,1.2
		l-306.2,139l-5-3.6l0.3-3.4l44.8-228l2.9-0.7c11.4-2.7,19.5-12.8,19.7-24.5c0-14-11.9-25.5-26.5-25.5c-1.6,0-3.1,0.2-4.7,0.4
		l-2.8,0.5l-139.6-185.1l1.9-2.8c2.8-4.1,4.4-9,4.4-14c-0.1-0.6-0.2-1.2-0.2-1.8l-0.2-3.4l3.1-1.3l237.7-95.4l2.1,1.5
		c4.6,3.3,10,5,15.7,5c14.6,0,26.6-11.5,26.6-25.5c-0.2-10-6.2-19-15.3-23l-2.4-1.1L1542.2,387l9.7,9.6
		C1711.3,554.3,1799,765,1799,989.6c0,98.5-16.9,194.9-50.1,286.4l-1.6,4.5L1637,1240l-3,8.3l-8.9-3.2l3-8.4l-18.9-7l-13.4,5.8
		c-25.5,57.1-58.7,110.4-98.7,158.4l13.3,11.5c38.7-46.6,71.3-98,96.8-152.9l1.9-3.9l253.8,93l-2,4.6
		c-48,110.5-116.1,211.1-200.9,296.7c-87.6,88.9-191.6,159.9-306.4,209C1235,1902.8,1107.3,1928.9,978.3,1928.7z M978.3,9.5
		c-130.7,0-257.6,25.9-377.1,77.1c-115.3,49.3-219.9,120.7-307.9,210C204.6,386,134.1,491.8,85.7,608
		C35.1,728.9,9.2,858.6,9.4,989.6c0,121.4,22.2,240.7,66,354.8l2.7,5.5c49,113.9,118.9,217.6,206.1,305.8
		c89.2,90.5,195.1,162.8,311.9,212.7c120.7,51.7,250.7,78.3,382.1,78.1c132.5,0,261-26.3,382.1-78.1
		c116.8-50,222.8-122.2,311.9-212.7c89.8-90.7,161.2-197.8,210.3-315.6l0.9-1.9c42.1-111.4,63.7-229.5,63.6-348.5
		c0.2-131-25.7-260.7-76.2-381.6c-48.5-116.2-119-222-207.6-311.5c-88-89.3-192.6-160.7-307.9-210C1236.3,35.5,1108,9.3,978.3,9.5z
		 M978.3,1955.9c-133.7,0-263.6-26.5-385.8-78.9c-117.9-50.4-224.9-123.4-315-214.7c-88-88.9-158.6-193.6-208-308.5l-2.8-5.7
		C22.6,1233.8,0,1112.2,0,989.6c0-133.6,25.9-263.2,77-385.3C125.9,487,197,380.2,286.5,289.9c88.9-90.2,194.5-162.2,310.9-212
		C717.8,26.3,847.4-0.2,978.3,0c131.9,0,260.1,26.2,380.9,77.8c116.4,49.8,222,121.8,310.9,212c89.5,90.4,160.6,197.1,209.6,314.5
		c51,122,77.2,253,76.9,385.3c0,120.8-21.6,239.3-64.3,352.2l-1,2.1c-49.5,118.8-121.6,226.9-212.2,318.4
		c-90,91.4-197,164.3-315,214.7C1242.2,1929.3,1110.9,1956.2,978.3,1955.9L978.3,1955.9z"/>
	<path class="st0" d="M1609.9,719.8c35.7,85.4,54,177.2,53.8,269.8h27c0-97.3-18.8-191.6-55.9-280.4L1609.9,719.8L1609.9,719.8
		L1609.9,719.8z"/>
	<path class="st0" d="M1668.4,984.9h17.5c-0.4-92.5-18.6-184-53.7-269.5l-16.1,6.9C1650.2,805.6,1668,894.8,1668.4,984.9
		L1668.4,984.9L1668.4,984.9z M1695.3,994.3h-36.4v-4.7c0.2-92-18-183.1-53.4-268l-1.8-4.3l33.5-14.3l1.8,4.4
		c37.4,89.4,56.5,185.4,56.3,282.3L1695.3,994.3L1695.3,994.3z M345.2,1437.4l10.6,12.8c1.1,1.3,10.3,13.1-0.7,22.4
		c-2.4,2.3-5.6,3.6-8.9,3.7c-7.2,0-13-6.9-13.1-6.9l-10.6-12.8L345.2,1437.4L345.2,1437.4L345.2,1437.4z M347.9,1393.1l-107.1,90.6
		l20.4,24.7l38.1-32.2l10.6,12.8c0.7,0.8,16.3,19.4,38,19.4c9.7,0,19-3.7,27.6-11c27.3-23.1,14.1-53.8,3.4-66.7L347.9,1393.1
		L347.9,1393.1L347.9,1393.1z"/>
	<path class="st0" d="M329.1,1457.2l7.6,9.2c1.2,1.4,5.4,5.2,9.4,5.2c1.2,0,3.1-0.3,5.9-2.6c6.9-5.9,2.4-13,0.1-15.9l-7.5-9.1
		L329.1,1457.2z M346.2,1481.1c-9.4,0-16.4-8.3-16.7-8.6l-13.6-16.4l29.9-25.3l13.6,16.5c6.7,8.2,8.9,20.4-1.3,29
		C354.8,1479.2,350.6,1481,346.2,1481.1L346.2,1481.1z M299.9,1469.4l13.6,16.5c0.2,0.2,14.6,17.7,34.3,17.7
		c8.5,0,16.8-3.3,24.5-9.9c24.5-20.7,12.5-48.4,2.8-60.2l-28-33.9l-99.8,84.5l14.4,17.4L299.9,1469.4L299.9,1469.4L299.9,1469.4z
		 M260.6,1515.1l-26.5-32l114.3-96.7l34.1,41.3c11.8,14.2,26.1,47.8-4,73.3c-9.5,8.1-19.8,12.1-30.6,12.1c-24.3,0-41.5-21-41.6-21.1
		l-7.5-9.1L260.6,1515.1L260.6,1515.1z M514.5,1559.2l-78.6,117l64.1,44l16.9-25.3l-37.6-25.9l61.6-91.7L514.5,1559.2L514.5,1559.2z
		"/>
	<path class="st0" d="M442.5,1674.9l56.3,38.7l11.7-17.4l-37.7-25.9l61.6-91.7l-18.6-12.8L442.5,1674.9L442.5,1674.9z M501.3,1726.8
		l-71.9-49.4l83.8-124.8l34.2,23.4l-61.6,91.8l37.6,25.9L501.3,1726.8L501.3,1726.8L501.3,1726.8z M727,1772.8
		c-0.1,0.1-3.4,10.2-13.6,10.2c-2.3,0-4.6-0.4-6.8-1.2c-14.8-4.9-11.8-17.1-11.1-19.4l29.5-91l-30.3-10.1l-29.4,91
		c-0.1,0.4-13.4,43.4,32,58.4c6.4,2.1,12.5,3.2,18.3,3.2c25,0,38.2-20.4,41.7-31.2l29.4-91l-30.3-10L727,1772.8L727,1772.8z"/>
	<path class="st0" d="M697.7,1667.4l-27.9,86.4c-0.5,1.6-11.6,39,29,52.5c5.9,1.9,11.6,3,16.8,3c22.2,0,34-18.3,37.2-27.9l28-86.5
		l-21.3-7.1l-28,86.6c-3.8,10.4-15.3,15.8-25.8,12c-0.1-0.1-0.3-0.1-0.4-0.2c-15.8-5.2-16.3-18.4-14.2-25.3l28-86.6L697.7,1667.4
		L697.7,1667.4z M715.6,1818.7c-6.3,0-13-1.2-19.8-3.4c-50-16.5-35.2-63.9-35-64.4l30.9-95.5l39.3,13l-30.9,95.4
		c-0.9,2.9-2,10.1,8.1,13.5c1.7,0.6,3.5,0.9,5.3,1c6.3,0,8.7-6.1,9.1-7l30.9-95.4l39.3,13l-30.9,95.4
		C757.9,1796.2,743.3,1818.7,715.6,1818.7L715.6,1818.7z M913.2,1745l32.3,1l-3.4,110.6l31.9,1l3.4-110.7l32.5,1l1-30.5l-96.8-3
		L913.2,1745L913.2,1745z"/>
	<path class="st0" d="M947,1852.1l22.4,0.7l3.4-110.7l32.5,1l0.7-21l-87.3-2.8l-0.6,21.1l32.3,1L947,1852.1z M978.6,1862.6
		l-41.3-1.3l3.4-110.6l-32.3-1l1.2-39.9l106.3,3.3l-1.3,39.9l-32.5-1L978.6,1862.6L978.6,1862.6L978.6,1862.6z M1211.9,1798.5
		c-1.9,0.5-3.9,0.8-5.8,0.9c-10.5,0-13.6-9.9-13.9-11l-12.8-48.7c0-0.1-0.9-3.8,0.1-7.9c1.3-5.5,5.3-9.1,12.1-10.9
		c1.9-0.5,3.9-0.8,5.9-0.8c10.5,0,13.6,9.9,13.9,11l12.8,48.7C1224.6,1782.1,1226.9,1794.5,1211.9,1798.5L1211.9,1798.5
		L1211.9,1798.5z M1242.1,1722.7c-3-11.6-15.9-33.6-42.7-33.6c-5.3,0.1-10.5,0.8-15.6,2.2c-24.1,6.4-32.4,21.6-35.2,33.1
		c-3,12.3-0.2,23-0.1,23.4l12.8,48.8c3,11.6,15.9,33.6,42.7,33.6c4.9,0,10.1-0.7,15.6-2.2c46.3-12.4,35.4-56.1,35.3-56.5
		L1242.1,1722.7L1242.1,1722.7z"/>
	<path class="st0" d="M1197.4,1724.7c-1.6,0-3.1,0.2-4.7,0.7c-6.6,1.8-8.1,4.9-8.7,7.4c-0.7,2.9-0.1,5.7-0.1,5.7l12.8,48.7
		c0.4,1.4,3.3,9.5,14,6.8c9.8-2.6,9.7-9.3,8.8-13.1l-12.7-48.7C1206.5,1731.4,1204.5,1724.7,1197.4,1724.7L1197.4,1724.7z
		 M1206,1804.1c-10.7,0-16.6-7.8-18.5-14.5l-12.8-48.8c-0.1-0.3-1.2-5,0.1-10.2c1.8-7.2,7-12,15.5-14.3c2.3-0.6,4.7-1,7.1-1
		c11.5,0,17,9.1,18.5,14.5l12.7,48.7c2.2,8.9-0.6,20.6-15.5,24.5C1210.8,1803.7,1208.4,1804,1206,1804.1L1206,1804.1L1206,1804.1z
		 M1199.4,1693.8c-4.5,0-9.4,0.7-14.4,2c-21.8,5.9-29.3,19.3-31.8,29.6c-2.7,11.2-0.2,21-0.2,21.1l12.8,48.8
		c2.7,10.4,14.2,30.1,38.1,30.1c4.5,0,9.4-0.7,14.4-2.1c41.3-11.1,32.4-49.2,31.9-50.8l-12.8-48.7
		C1234.8,1713.5,1223.3,1693.8,1199.4,1693.8L1199.4,1693.8z M1203.9,1834.9c-29.6,0-43.8-24.3-47.2-37.1l-12.8-48.8
		c-2-8.5-1.9-17.3,0.1-25.7c3.1-12.8,12.2-29.5,38.6-36.5c5.8-1.6,11.5-2.4,16.9-2.4c29.7,0,43.9,24.3,47.2,37.1l12.8,48.8
		c4.2,16.8,1.6,51.5-38.7,62.3C1215,1834.1,1209.3,1834.9,1203.9,1834.9L1203.9,1834.9L1203.9,1834.9z M1418.5,1588.7l35.6,58.8
		l-65.5-40.3l-25.5,15.8l73,120.5l27.2-16.8l-35.6-58.8l65.5,40.3l25.5-15.8l-73-120.6L1418.5,1588.7L1418.5,1588.7z"/>
	<path class="st0" d="M1369.6,1624.5l68.1,112.5l19.2-11.8l-43.3-71.5l79.6,49l19-11.8l-68.1-112.5l-19.2,11.8l43.3,71.5l-79.6-49
		L1369.6,1624.5L1369.6,1624.5z M1434.6,1750.1l-77.9-128.7l31.9-19.8l51.3,31.6l-27.9-46.1l35.2-21.8l77.9,128.7l-31.9,19.8
		l-51.3-31.6l27.9,46.1L1434.6,1750.1L1434.6,1750.1z M1584.2,1444.7c-19.2,21.9-20.3,47.2-2.8,62.9c5.3,4.8,12.5,7.2,21.2,7.2
		c12,0,25.6-4.4,37.6-8.4c9.6-3.1,18.6-6.1,24.5-6.1c1.4,0,3.4,0.2,4.4,1c6.6,5.9-2.3,16.5-2.6,16.9l-25,28.5l22.4,20.1l25-28.6
		c10.5-12,15.9-25.5,15.1-38c-0.6-9.6-5-18.6-12.3-24.9c-5.3-4.8-12.4-7.2-21.1-7.2c-12,0-25.7,4.5-37.7,8.4
		c-9.6,3.2-18.7,6.1-24.6,6.1c-1.4,0-3.4-0.2-4.4-1.1c-6.5-5.9,2.5-16.4,2.9-16.9l24.8-28.4l-22.6-20.2L1584.2,1444.7L1584.2,1444.7
		z"/>
	<path class="st0" d="M1648.1,1546.5l15.4,13.8l21.8-25c9.7-11.1,14.7-23.3,14-34.6c-0.5-8.4-4.4-16.2-10.7-21.7c-4.4-4-10.5-6-18-6
		c-11.2,0-24.5,4.4-36.2,8.2c-14.9,4.9-28.5,8.7-33.7,4.1c-7.2-6.5-3.5-16.4,2.4-23.5l21.9-25l-15.6-13.9l-21.7,24.8
		c-17.3,19.8-18.7,42.4-3.3,56.2c4.5,4,10.5,6,18.1,6c11.2,0,24.4-4.3,36-8.1c14.9-4.9,28.4-8.7,33.6-4.1c7.3,6.5,3.4,16.7-2.1,23.4
		L1648.1,1546.5L1648.1,1546.5z M1664.4,1573.7l-29.5-26.4l28.1-32.1c1.5-1.8,5.4-7.7,3.2-10.1c0,0.1-0.5,0-1.4,0
		c-5.2,0-14.3,2.9-23.1,5.8c-12.4,4.1-26.3,8.6-39,8.6c-9.9,0-18.1-2.8-24.4-8.4c-19.6-17.6-18.6-45.5,2.4-69.5l28-32l29.6,26.5
		l-27.9,31.9c-1.6,1.9-5.6,7.8-3.5,10.2c0.1-0.1,0.6,0,1.4,0c5.3,0,14.3-3,23.2-5.9c12.4-4.1,26.4-8.7,39.2-8.7
		c9.9,0,18.1,2.8,24.3,8.4c8.4,7.5,13.2,17.3,13.8,28.1c0.8,13.7-5,28.4-16.3,41.3L1664.4,1573.7L1664.4,1573.7L1664.4,1573.7z"/>
</g>
</svg>
