<?xml version="1.0" encoding="utf-8"?>
<!-- Generator: Adobe Illustrator 25.4.1, SVG Export Plug-In . SVG Version: 6.00 Build 0)  -->
<svg version="1.1" id="Layer_1" xmlns="http://www.w3.org/2000/svg" xmlns:xlink="http://www.w3.org/1999/xlink" x="0px" y="0px"
	 viewBox="0 0 500 500" style="enable-background:new 0 0 500 500;" xml:space="preserve">
<style type="text/css">
	.st0{fill:#F1396D;}
</style>
<g>
	<path class="st0" d="M465.56,132.87v-29.75c0-21.62-17.59-39.22-39.22-39.22h-29.41V39.39c0-21.62-17.59-39.22-39.22-39.22h-58.82
		c-21.62,0-39.22,17.59-39.22,39.22v421.57c0,21.62,17.59,39.22,39.22,39.22h58.82c21.62,0,39.22-17.59,39.22-39.22v-63.73h9.8
		c21.62,0,39.22-17.59,39.22-39.22v-39.22h14.71c21.62,0,39.22-17.59,39.22-39.22v-78.43v-29.41
		C499.87,151.79,484.87,135.3,465.56,132.87z M480.26,201.16v78.43c0,10.81-8.8,19.61-19.61,19.61h-53.92h-29.41
		c-10.81,0-19.61-8.8-19.61-19.61v-12.52c5.84-3.4,9.8-9.65,9.8-16.89c0-10.83-8.78-19.61-19.61-19.61
		c-10.83,0-19.61,8.78-19.61,19.61c0,7.24,3.97,13.49,9.8,16.89v12.52c0,21.62,17.59,39.22,39.22,39.22h29.41h19.61v39.22
		c0,10.81-8.8,19.61-19.61,19.61h-56.64c-3.4-5.84-9.65-9.8-16.89-9.8c-10.83,0-19.61,8.78-19.61,19.61
		c0,10.83,8.78,19.61,19.61,19.61c7.24,0,13.49-3.97,16.89-9.8h27.23v63.73c0,10.81-8.8,19.61-19.61,19.61h-58.82
		c-10.81,0-19.61-8.8-19.61-19.61V39.39c0-10.81,8.8-19.61,19.61-19.61h58.82c10.81,0,19.61,8.8,19.61,19.61V63.9
		c-21.62,0-39.22,17.59-39.22,39.22v12.52c-5.84,3.4-9.8,9.65-9.8,16.89c0,10.83,8.78,19.61,19.61,19.61
		c10.83,0,19.61-8.78,19.61-19.61c0-7.24-3.97-13.49-9.8-16.89v-12.52c0-10.81,8.8-19.61,19.61-19.61h49.02
		c10.81,0,19.61,8.8,19.61,19.61v29.41h-9.8c-21.62,0-39.22,17.59-39.22,39.22v12.52c-5.84,3.4-9.8,9.65-9.8,16.89
		c0,10.83,8.78,19.61,19.61,19.61c10.83,0,19.61-8.78,19.61-19.61c0-7.24-3.97-13.49-9.8-16.89v-12.52
		c0-10.81,8.8-19.61,19.61-19.61h12.25h7.35h4.9c10.81,0,19.61,8.8,19.61,19.61V201.16z M347.91,259.98c-5.41,0-9.8-4.4-9.8-9.8
		c0-5.41,4.4-9.8,9.8-9.8c5.41,0,9.8,4.4,9.8,9.8C357.71,255.58,353.31,259.98,347.91,259.98z M343.01,387.43
		c0,5.41-4.4,9.8-9.8,9.8c-5.41,0-9.8-4.4-9.8-9.8s4.4-9.8,9.8-9.8C338.61,377.63,343.01,382.03,343.01,387.43z M347.91,122.73
		c5.41,0,9.8,4.4,9.8,9.8c0,5.41-4.4,9.8-9.8,9.8c-5.41,0-9.8-4.4-9.8-9.8C338.1,127.13,342.5,122.73,347.91,122.73z M406.73,191.36
		c5.41,0,9.8,4.4,9.8,9.8c0,5.41-4.4,9.8-9.8,9.8c-5.41,0-9.8-4.4-9.8-9.8C396.93,195.75,401.33,191.36,406.73,191.36z"/>
	<path class="st0" d="M-0.13,171.75v29.41l0,78.43c0,21.62,17.59,39.22,39.22,39.22h14.71v39.22c0,21.62,17.59,39.22,39.22,39.22
		h9.8v63.73c0,21.62,17.59,39.22,39.22,39.22h58.82c21.62,0,39.22-17.59,39.22-39.22V39.39c0-21.62-17.59-39.22-39.22-39.22h-58.82
		c-21.62,0-39.22,17.59-39.22,39.22V63.9H73.4c-21.62,0-39.22,17.59-39.22,39.22v29.75C14.87,135.3-0.13,151.79-0.13,171.75z
		 M19.48,171.75c0-10.81,8.8-19.61,19.61-19.61h4.9h7.35h12.25c10.81,0,19.61,8.8,19.61,19.61v12.52c-5.84,3.4-9.8,9.65-9.8,16.89
		c0,10.83,8.78,19.61,19.61,19.61c10.83,0,19.61-8.78,19.61-19.61c0-7.24-3.97-13.49-9.8-16.89v-12.52
		c0-21.62-17.59-39.22-39.22-39.22h-9.8v-29.41c0-10.81,8.8-19.61,19.61-19.61h49.02c10.81,0,19.61,8.8,19.61,19.61v12.52
		c-5.84,3.4-9.8,9.65-9.8,16.89c0,10.83,8.78,19.61,19.61,19.61c10.83,0,19.61-8.78,19.61-19.61c0-7.24-3.97-13.49-9.8-16.89v-12.52
		c0-21.62-17.59-39.22-39.22-39.22V39.39c0-10.81,8.8-19.61,19.61-19.61h58.82c10.81,0,19.61,8.8,19.61,19.61v421.57
		c0,10.81-8.8,19.61-19.61,19.61h-58.82c-10.81,0-19.61-8.8-19.61-19.61v-63.73h27.23c3.4,5.84,9.65,9.8,16.89,9.8
		c10.83,0,19.61-8.78,19.61-19.61c0-10.83-8.78-19.61-19.61-19.61c-7.24,0-13.49,3.97-16.89,9.8H93.01
		c-10.81,0-19.61-8.8-19.61-19.61v-39.22h19.61h29.41c21.62,0,39.22-17.59,39.22-39.22v-12.52c5.84-3.4,9.8-9.65,9.8-16.89
		c0-10.83-8.78-19.61-19.61-19.61c-10.83,0-19.61,8.78-19.61,19.61c0,7.24,3.97,13.49,9.8,16.89v12.52
		c0,10.81-8.8,19.61-19.61,19.61H93.01H39.08c-10.81,0-19.61-8.8-19.61-19.61v-78.43V171.75z M142.03,250.18c0-5.41,4.4-9.8,9.8-9.8
		c5.41,0,9.8,4.4,9.8,9.8c0,5.41-4.4,9.8-9.8,9.8C146.42,259.98,142.03,255.58,142.03,250.18z M166.54,377.63
		c5.41,0,9.8,4.4,9.8,9.8s-4.4,9.8-9.8,9.8c-5.41,0-9.8-4.4-9.8-9.8S161.13,377.63,166.54,377.63z M161.63,132.53
		c0,5.41-4.4,9.8-9.8,9.8c-5.41,0-9.8-4.4-9.8-9.8c0-5.41,4.4-9.8,9.8-9.8C157.24,122.73,161.63,127.13,161.63,132.53z
		 M102.81,201.16c0,5.41-4.4,9.8-9.8,9.8s-9.8-4.4-9.8-9.8c0-5.41,4.4-9.8,9.8-9.8S102.81,195.75,102.81,201.16z"/>
</g>
</svg>
