<svg id="Layer_1" xmlns="http://www.w3.org/2000/svg" viewBox="0 0 466 466" width="2500" height="2500"><style>.st0{fill:#393534}.st1{fill:#f2f2f2}.st2{fill:#fff}.st3{fill:#e1ded9}</style><g id="Po.et"><g transform="translate(-121 -292)" id="Ellipse"><path id="path0_fill" class="st0" d="M587 525c0 128.7-104.3 233-233 233S121 653.7 121 525s104.3-233 233-233 233 104.3 233 233z"/></g><g transform="translate(-119 -290)" id="Ellipse_1_"><path id="path1_fill" class="st1" d="M557.9 525c0 112.6-91.3 203.9-203.9 203.9S150.1 637.6 150.1 525 241.4 321.1 354 321.1 557.9 412.4 557.9 525z"/></g><g id="poe"><g id="Group"><g transform="translate(-110.56 -283.616)" id="Vector"><path id="path2_fill" class="st2" d="M422.7 459.9L276.3 609.6l-3.2-60.3 88.3-89.4 36.6-38 23.7-7.8 17.2 4.5L455 432l-19.4 22.3-12.9 5.6z"/></g><g transform="translate(-101.969 -282.328)" id="Shape"><path id="path3_fill" class="st3" d="M427.4 462.8L398.1 493h44.4l5-5.1c3.5-3.6 6.3-8 8.2-12.7 1.9-4.8 2.8-9.9 2.8-15 0-10.2-3.8-19.9-10.6-27.3l-20.2 21c1.1 1.2 1.6 2.9 1.6 4.5-.1 1.6-.8 3.2-1.9 4.4z"/></g><g transform="translate(-109.362 -272.234)" id="Shape_1_"><path id="path4_fill" class="st3" d="M314.4 579.8l-23.9 24.8h44.4l24.1-24.8h-44.6z"/></g><g transform="translate(-107.056 -274.811)" id="Shape_2_"><path id="path5_fill" class="st3" d="M324.1 569.8h44.4l26.5-27.5h-44.4l-26.5 27.5z"/></g><g transform="translate(-104.571 -277.511)" id="Shape_3_"><path id="path6_fill" class="st3" d="M433 503h-44.4l-28.4 29.3h44.4L433 503z"/></g></g><g transform="translate(-113 -284)" id="Shape_4_"><path id="path7_fill" class="st0" d="M456.1 423.7c-4.6-4.8-10.1-8.6-16.1-11.2s-12.5-3.9-19-3.9-13 1.3-19 3.9-11.5 6.5-16.1 11.3l-115 118.8c-1.1 1.3-1.8 3-1.7 4.7v61.2l-31.7 33.1h17.4l23.5-24.3h58.8c.8 0 1.6-.1 2.4-.5.7-.3 1.4-.9 1.9-1.5l114.3-118.4.2-.2c9.3-9.7 14.5-22.8 14.4-36.4.1-6.8-1.2-13.5-3.7-19.7-2.3-6.5-6-12.1-10.6-16.9zm-66.8 13.8l5-5.1c7.1-7.3 16.7-11.4 26.7-11.4s19.6 4.1 26.7 11.4c.2.2.2.4.4.4 6.8 7.4 10.6 17.3 10.6 27.6-.1 10.3-4 20.1-11 27.4l-5 5.1h-44.4l29.1-30.2c1.1-1.1 1.8-2.7 1.8-4.3s-.5-3.2-1.6-4.4c-.2-.2-.2-.2-.2-.4-1.1-1.2-2.7-1.8-4.3-1.8-1.6 0-3.2.7-4.3 1.8l-29.5 30.6v-46.7zm-98.8 167.1l23.9-24.8h44.4l-23.9 24.8h-44.4zm69.7-72.3l28.4-29.5H433l-28.4 29.5h-44.4zm34.7 10l-26.5 27.5H324l26.5-27.5h44.4zm-43.7-65.4l28.4-29.5v46.7l-28.4 29.5v-46.7zM315 514.4l26.5-27.5v46.7L315 561.1v-46.7zm-33.8 35.1l24.3-25v46.7l-24.3 25"/></g></g></g></svg>