<?xml version="1.0" encoding="utf-8"?>
<!-- Generator: Adobe Illustrator 27.7.0, SVG Export Plug-In . SVG Version: 6.00 Build 0)  -->
<svg version="1.1" id="Layer_1" xmlns="http://www.w3.org/2000/svg" xmlns:xlink="http://www.w3.org/1999/xlink" x="0px" y="0px"
	 viewBox="0 0 500 500" style="enable-background:new 0 0 500 500;" xml:space="preserve">
<style type="text/css">
	.st0{fill:#FEE45D;}
</style>
<path class="st0" d="M250,0L250,0c138.1,0,250,111.9,250,250l0,0c0,138.1-111.9,250-250,250l0,0C111.9,500,0,388.1,0,250l0,0
	C0,111.9,111.9,0,250,0z"/>
<path d="M250,312.5c0-34.5-28-62.5-62.5-62.5c-34.5,0-62.5,28-62.5,62.5c0,34.5,28,62.5,62.5,62.5C222,375,250,347,250,312.5z"/>
<path d="M268.3,356.7c24.4,24.4,64,24.4,88.4,0c24.4-24.4,24.4-64,0-88.4L268.3,356.7z"/>
<path d="M294.2,294.2c24.4-24.4,24.4-64,0-88.4c-24.4-24.4-64-24.4-88.4,0L294.2,294.2z"/>
<path d="M356.7,231.7c24.4-24.4,24.4-64,0-88.4c-24.4-24.4-64-24.4-88.4,0L356.7,231.7z"/>
<path d="M231.7,143.3c-24.4-24.4-64-24.4-88.4,0c-24.4,24.4-24.4,64,0,88.4L231.7,143.3z"/>
</svg>
