<?xml version="1.0" encoding="utf-8"?>
<!-- Generator: Adobe Illustrator 24.0.0, SVG Export Plug-In . SVG Version: 6.00 Build 0)  -->
<svg version="1.1" id="Layer_1" xmlns="http://www.w3.org/2000/svg" xmlns:xlink="http://www.w3.org/1999/xlink" x="0px" y="0px"
	 viewBox="0 0 1280 1280" style="enable-background:new 0 0 1280 1280;" xml:space="preserve">
<style type="text/css">
	.st0{fill:none;}
	.st1{fill-rule:evenodd;clip-rule:evenodd;fill:#3CB054;}
	.st2{fill-rule:evenodd;clip-rule:evenodd;fill:#FFFFFF;}
</style>
<path class="st0" d="M0,0h1280v1280H0V0z"/>
<circle class="st1" cx="640" cy="640" r="640"/>
<path class="st2" d="M727,979.8c-11.4,1-20.4,1.2-25.9,1.2c-180.3,0.4-326.7-146.4-326.7-326.8c0-1.4,0-2.9,0-4.3v-4.6h0V298.9h0
	c109.4-1.7,379.5,22.1,528.4,229.3c38.6,53.6,61.3,119.4,61.3,190.4c0,42.6-8.2,83.4-23.1,120.7l-0.1-0.1
	c-9.5,25.3-34.9,77.5-101.2,110.7c-10.7,5.3-21.6,9.8-32.3,13.5c47.6-182.1-14.6-445.8-290.8-572.6
	C684.2,494.8,816.7,756.7,727,979.8z"/>
</svg>
