<?xml version="1.0" encoding="utf-8"?>
<!-- Generator: Adobe Illustrator 24.0.0, SVG Export Plug-In . SVG Version: 6.00 Build 0)  -->
<svg version="1.1" id="Layer_1" xmlns="http://www.w3.org/2000/svg" xmlns:xlink="http://www.w3.org/1999/xlink" x="0px" y="0px"
	 viewBox="0 0 90.2 145.7" style="enable-background:new 0 0 90.2 145.7;" xml:space="preserve">
<style type="text/css">
	.st0{fill-rule:evenodd;clip-rule:evenodd;fill:#020202;}
	.st1{fill-rule:evenodd;clip-rule:evenodd;fill:#EA7437;}
</style>
<path class="st0" d="M38.4,145.7h13.8c-12.4-19.9-24.7-39.9-37.1-59.8c-1.9-3-2.4-5.8-1-9.4c0.7-1.7,2.1-3.3,3.4-4.5
	c-0.4-0.5-0.8-1.1-1.2-1.7c-2-3.1-3.4-6.5-4.3-10.1C-0.5,66.3-3.3,78.6,3.9,90.8L38.4,145.7z M33.1,101.9c8.1,0.9,15.6,0.9,23.6,0
	c9.8-1.1,18.6-3.4,24-7c5.7-3.7,9.5-9.6,9.5-16.5c0-8-4.9-14.2-11.6-17.8c-0.6,3-1.6,5.8-2.9,8.3c-0.7,1.4-1.5,2.7-2.5,3.9
	c1.5,1.6,2.9,3.6,2.9,5.5c0,3.2-3.6,6.7-6.3,8.2c-3.1,1.7-7.6,2.8-11.1,3.2c-4.6,0.5-9.2,0.7-13.8,0.8c-2.4,0-5-0.1-7.4-0.3
	c-4.1-0.2-8.5-0.5-12.5-1.6L33.1,101.9z"/>
<path class="st1" d="M45.4,0c12.4,20.3,8.1,32.4,6.4,40c-2.6,11.8,12.3,15.7,13.4,2c0.3-3.2,0.1-6.9-0.1-10.4
	c15.3,24.6,5.3,46.8-19.7,46.8c-21,0-32.8-19.2-24.5-38.3c-0.9,10.1,6.2,13.4,5,8.7c-0.3-1.2-0.9-3.2-1.4-7.3
	C22.6,21.9,46.7,16.9,45.4,0z"/>
</svg>
