<?xml version="1.0" encoding="utf-8"?>
<!-- Generator: Adobe Illustrator 26.0.1, SVG Export Plug-In . SVG Version: 6.00 Build 0)  -->
<svg version="1.1" id="Layer_1" xmlns="http://www.w3.org/2000/svg" xmlns:xlink="http://www.w3.org/1999/xlink" x="0px" y="0px"
	 viewBox="0 0 60 60" style="enable-background:new 0 0 60 60;" xml:space="preserve">
<style type="text/css">
	.st0{fill:#3CEAAA;}
	.st1{fill-rule:evenodd;clip-rule:evenodd;fill-opacity:0.6;}
</style>
<circle class="st0" cx="30" cy="30" r="30"/>
<path class="st1" d="M22.6,15.9c1.8-1.8,4.7-1.8,6.5,0l4.9,4.8l0.8-0.8c1.8-1.8,4.7-1.8,6.5,0l4.8,4.7c1.9,1.8,1.9,4.8,0,6.7
	l-13,12.8c-1.8,1.8-4.7,1.8-6.5,0l-13-12.8c-1.9-1.8-1.9-4.8,0-6.7L22.6,15.9z M30.8,24l-4.8-4.7L17,28l4.8,4.7L30.8,24z M25.2,36
	l4.8,4.7l4.8-4.7L30,31.3L25.2,36z M33.3,28l4.8,4.7L43,28l-4.8-4.7L33.3,28z"/>
</svg>
