<?xml version="1.0" encoding="utf-8"?>
<!-- Generator: Adobe Illustrator 24.0.0, SVG Export Plug-In . SVG Version: 6.00 Build 0)  -->
<svg version="1.1" id="Layer_1" xmlns="http://www.w3.org/2000/svg" xmlns:xlink="http://www.w3.org/1999/xlink" x="0px" y="0px"
	 viewBox="0 0 50 50" style="enable-background:new 0 0 50 50;" xml:space="preserve">
<style type="text/css">
	.st0{fill:#071630;}
	.st1{opacity:0.9;fill:url(#SVGID_2_);enable-background:new    ;}
	.st2{fill:url(#SVGID_3_);}
</style>
<g>
	<g>
		<g>
			<path id="SVGID_1_" class="st0" d="M25,0c13.8,0,25,11.2,25,25S38.8,50,25,50S0,38.8,0,25S11.2,0,25,0L25,0z"/>
		</g>
	</g>
</g>
<linearGradient id="SVGID_2_" gradientUnits="userSpaceOnUse" x1="81.16" y1="-2000.9203" x2="81.16" y2="-1976.6095" gradientTransform="matrix(1 0 0 -1 -55.91 -1963.6)">
	<stop  offset="0" style="stop-color:#3F5CAA"/>
	<stop  offset="0.2" style="stop-color:#3F5FAC"/>
	<stop  offset="0.33" style="stop-color:#4168B2"/>
	<stop  offset="0.46" style="stop-color:#4378BD"/>
	<stop  offset="0.57" style="stop-color:#468ECC"/>
	<stop  offset="0.64" style="stop-color:#48A0D9"/>
	<stop  offset="0.8" style="stop-color:#3ABBEC"/>
	<stop  offset="0.9" style="stop-color:#35C6F4"/>
</linearGradient>
<path class="st1" d="M41.1,36.1c0,0.7-0.6,1.2-1.5,1.2c-0.8,0-1.4-0.5-1.4-1.2V17.8c0-0.1,0-0.1-0.1-0.1l0,0c-0.1,0-0.1,0-0.2,0
	L26.4,32.4c-0.5,0.5-1.4,0.7-2,0.3c-0.2-0.1-0.3-0.2-0.4-0.3L12.5,17.7c-0.1,0-0.1,0-0.2,0l-0.1,0.1v18.4c0,0.7-0.7,1.2-1.5,1.2
	s-1.4-0.5-1.4-1.2v-22c0-0.4,0.3-0.8,0.6-1c0.7-0.4,1.5-0.2,2,0.3l12.7,16.1c0.3,0.3,0.7,0.3,1,0.1c0,0,0.1,0,0.1-0.1l12.7-16.1
	c0.3-0.4,0.8-0.6,1.3-0.6c0.8,0,1.5,0.5,1.5,1.2L41.1,36.1z"/>
<linearGradient id="SVGID_3_" gradientUnits="userSpaceOnUse" x1="81.16" y1="-2000.9401" x2="81.16" y2="-1976.6" gradientTransform="matrix(1 0 0 -1 -55.91 -1963.6)">
	<stop  offset="0" style="stop-color:#4068B1"/>
	<stop  offset="0.13" style="stop-color:#3D7FC1"/>
	<stop  offset="0.39" style="stop-color:#39A5DD"/>
	<stop  offset="0.59" style="stop-color:#36BDEE"/>
	<stop  offset="0.72" style="stop-color:#35C6F4"/>
</linearGradient>
<path class="st2" d="M41.1,36.1c0,0.6-0.6,1.2-1.5,1.2c-0.5,0-1-0.2-1.3-0.6L25.7,20.6c-0.3-0.3-0.7-0.3-1-0.1c0,0-0.1,0.1-0.2,0.3
	L12,36.8c-0.5,0.6-1.3,0.7-2,0.3c-0.4-0.2-0.6-0.6-0.6-1V14.2c0-0.7,0.6-1.2,1.4-1.2c0.8,0,1.5,0.5,1.5,1.2v18.4
	c0,0.1,0,0.1,0.1,0.1s0.1,0,0.2,0l11.2-14.3c0.1-0.2,0.5-0.6,0.7-0.7c0.7-0.4,1.5-0.3,2,0.3l11.4,14.7c0,0,0.1,0,0.2,0
	c0.1,0,0.1-0.1,0.1-0.1l0,0V14.2c0-0.7,0.6-1.2,1.4-1.2s1.5,0.5,1.5,1.2V36.1z"/>
</svg>
