<?xml version="1.0" encoding="utf-8"?>
<!-- Generator: Adobe Illustrator 24.0.0, SVG Export Plug-In . SVG Version: 6.00 Build 0)  -->
<svg version="1.1" id="qnt" xmlns="http://www.w3.org/2000/svg" xmlns:xlink="http://www.w3.org/1999/xlink" x="0px" y="0px"
	 viewBox="0 0 451.3 488.6" style="enable-background:new 0 0 451.3 488.6;" xml:space="preserve">
<path d="M102.3,29l124.1,145.4l83.3-49c0,0-100.5-134.4-127.3-124.9C157.2,10.1,102.3,29,102.3,29z"/>
<path d="M312.8,125.4c0,0,18.9-33.2,28.3-77.5c0,0,94.3,37.9,58.1,132.8L312.8,125.4z"/>
<path d="M399.2,180.8l7.9,99.6l36.1-4.7c0,0,9.4-3.2,7.9-20.5c-1.6-19-4.7-58.5-4.7-58.5s1.6-9.5-20.4-12.6
	C399.2,179.2,399.2,180.8,399.2,180.8z"/>
<path d="M407,280.4l-72.3,58.5l33,64.8c0,0,7.9,25.3,31.4-3.2c22-28.5,31.4-33.2,29.8-50.6C427.5,332.5,422.7,291.4,407,280.4z"/>
<path d="M333.2,338.8l-99-44.3L147.8,470c0,0-6.3,12.6,15.7,14.2c22,3.2,58.1,11.1,77-7.9C259.4,459,333.2,338.8,333.2,338.8z"/>
<path d="M234.2,293l-9.4-117L11.1,190.3c0,0-12.6,1.6-11,25.3C1.7,247.2,4.8,282,4.8,282s-1.6,14.2,26.7,15.8
	C59.8,299.3,231.1,299.3,234.2,293z"/>
</svg>
