<?xml version="1.0" encoding="utf-8"?>
<!-- Generator: Adobe Illustrator 27.0.1, SVG Export Plug-In . SVG Version: 6.00 Build 0)  -->
<svg version="1.1" id="qrdo" xmlns="http://www.w3.org/2000/svg" xmlns:xlink="http://www.w3.org/1999/xlink" x="0px" y="0px"
	 viewBox="0 0 500 500" style="enable-background:new 0 0 500 500;" xml:space="preserve">
<style type="text/css">
	.st0{fill:url(#SVGID_1_);}
	.st1{fill:url(#SVGID_00000077314592714881253190000007616506504391663551_);}
</style>
<linearGradient id="SVGID_1_" gradientUnits="userSpaceOnUse" x1="1" y1="167.3689" x2="495.0461" y2="167.3689">
	<stop  offset="0" style="stop-color:#FEE000"/>
	<stop  offset="0.8724" style="stop-color:#1BD866"/>
</linearGradient>
<path class="st0" d="M494.2,201.3c-11.1-55.7-41.4-106.5-85.3-143C364.4,21.4,307.9,1,250,1C112.7,1,1,112.7,1,250
	c0,16.3,1.6,32.7,4.8,48.5c0.1,0.4,0.1,0.7,0.2,1.1c4.1,20.2,21.8,34.1,41.7,34.1c2.8,0,5.6-0.3,8.5-0.9c23-4.7,37.9-27.1,33.3-50.2
	C87.2,272,86.1,261,86.1,250c0-90.4,73.5-163.9,163.9-163.9c78,0,145.6,55.4,160.7,131.7c4.6,23.1,27,38,50,33.5
	C483.8,246.7,498.8,224.3,494.2,201.3z"/>
<linearGradient id="SVGID_00000163031404470025233460000000128182532749443751_" gradientUnits="userSpaceOnUse" x1="5.9614" y1="332.9985" x2="499" y2="332.9985">
	<stop  offset="0" style="stop-color:#06ABFF"/>
	<stop  offset="0.7125" style="stop-color:#FF3CE9"/>
</linearGradient>
<path style="fill:url(#SVGID_00000163031404470025233460000000128182532749443751_);" d="M438.3,412.8
	C476.1,369.1,499,312.2,499,250c0-16.4-1.6-32.8-4.8-48.7c-4.6-23.1-27-38-50-33.5c-23.1,4.6-38,27-33.5,50
	c2.1,10.5,3.1,21.3,3.1,32.2c0,35.5-11.4,68.4-30.6,95.3l-16-19.6c-14.9-18.2-41.7-20.9-59.9-6.1c-18.2,14.9-20.9,41.7-6.1,59.9
	l16.1,19.8c-20.6,9.3-43.4,14.5-67.5,14.5c-77.7,0-145.2-55.2-160.6-131.2c4.7,23-10.2,45.5-33.3,50.2c-2.8,0.6-5.7,0.9-8.5,0.9
	c-19.8,0-37.6-13.9-41.7-34.1C17.2,355.1,47.5,405.7,91.4,442c44.5,36.8,100.8,57,158.6,57c44.5,0,86.3-11.7,122.5-32.3l11.3,13.9
	c8.4,10.3,20.7,15.7,33,15.7c9.5,0,19-3.1,26.9-9.6c18.2-14.9,20.9-41.7,6.1-59.9L438.3,412.8z"/>
</svg>
