<?xml version="1.0" encoding="utf-8"?>
<!-- Generator: Adobe Illustrator 27.7.0, SVG Export Plug-In . SVG Version: 6.00 Build 0)  -->
<svg version="1.1" id="Layer_1" xmlns="http://www.w3.org/2000/svg" xmlns:xlink="http://www.w3.org/1999/xlink" x="0px" y="0px"
	 viewBox="0 0 500 500" style="enable-background:new 0 0 500 500;" xml:space="preserve">
<style type="text/css">
	.st0{fill:#43A1FF;}
	.st1{fill:none;}
	.st2{fill:none;stroke:#DAE9FD;}
	.st3{fill:#FFFFFF;}
	.st4{opacity:0.174;fill:#478EFE;enable-background:new    ;}
</style>
<g>
	<circle id="타원_2053" class="st0" cx="250" cy="250" r="250"/>
	<circle class="st1" cx="250" cy="250" r="250"/>
	<circle class="st2" cx="250" cy="250" r="249.1"/>
	<path id="패스_11626" class="st3" d="M344.7,317.6l-41.9-42.9l0,0c21.1-27.6,34.7-60.2,39.2-94.7c1.8-12.8-7.1-24.6-19.9-26.4
		c-1-0.1-2-0.2-3-0.2l0,0c-11.6,0.1-21.4,8.7-22.9,20.2c-3.2,24.2-12.3,47.3-26.4,67.3l-39.2-40.1c0.3-0.4,0.5-0.9,0.8-1.3
		c6.1-11.1,9.9-23.3,11.2-35.8c0.6-5.1-3.1-9.7-8.2-10.3c-0.3,0-0.6-0.1-0.9-0.1h-73.5c-5.1,0-9.3,4.3-9.2,9.4v74.9
		c-0.1,5.1,4.1,9.3,9.2,9.4c0.3,0,0.7,0,1,0c12.7-1.4,25-5.4,36-11.9c0.4-0.2,0.8-0.5,1.3-0.8l39,39.9l0.1,0.1
		c-19.5,14.6-42.5,24.1-66.6,27.4c-11.4,1.6-19.9,11.5-19.8,23v0.7c-0.1,12.7,10,23,22.7,23.2c1,0,2,0,3.1-0.2
		c17-2.3,33.6-6.9,49.4-13.7c15.9-6.8,30.8-15.8,44.3-26.7l41.7,42.7c8.8,9,23.2,9.3,32.2,0.5c0.1-0.1,0.3-0.3,0.4-0.4l0,0
		C353.7,341.6,353.7,326.9,344.7,317.6z"/>
	<path id="패스_11627" class="st4" d="M302.7,274.5L302.7,274.5c-16.3-16.9-42.8-18.5-61.1-3.8c-1.5,1.2-2.9,2.3-4.4,3.5
		l32.9,33.7C282.2,298.1,293.2,286.9,302.7,274.5L302.7,274.5z"/>
</g>
</svg>
