<?xml version="1.0" encoding="UTF-8" standalone="no"?>
<svg
   version="1.1"
   id="Layer_1"
   x="0px"
   y="0px"
   viewBox="0 0 2500 2500"
   xml:space="preserve"
   xmlns="http://www.w3.org/2000/svg"
   xmlns:svg="http://www.w3.org/2000/svg"><defs
   id="defs3" />&#10;<style
   type="text/css"
   id="style1">&#10;	.st0{fill-rule:evenodd;clip-rule:evenodd;fill:#0645F7;}&#10;	.st1{fill-rule:evenodd;clip-rule:evenodd;fill:#FFFFFF;}&#10;</style>&#10;<g
   id="Layer_x0020_1">&#10;	<g
   id="_1878996293680">&#10;		<path
   class="st0"
   d="m 1250,0 v 0 c 688,0 1250,563 1250,1250 v 0 c 0,688 -563,1250 -1250,1250 v 0 C 562,2500 0,1937 0,1250 v 0 C 0,562 563,0 1250,0 Z"
   id="path1" />&#10;		<g
   id="g3">&#10;			<path
   class="st1"
   d="m 1968,2008 c -32,0 -57,-25 -57,-57 0,-32 26,-57 57,-57 32,0 57,25 57,57 0,32 -26,57 -57,57 z m -29,-617 c -32,0 -58,-26 -58,-57 0,-32 26,-58 58,-58 32,0 58,26 58,58 0,32 -26,57 -58,57 z m 0,-173 c -32,0 -58,-26 -58,-57 0,-32 26,-57 58,-57 32,0 58,26 58,57 0,32 -26,57 -58,57 z m -117,-103 v 105 h -117 v -121 -9 c 0,-15 6,-30 17,-41 l 137,-135 c 18,-18 46,-24 69,-12 38,19 43,66 15,93 l -121,119 z m 106,481 c -23,12 -51,5 -69,-12 l -137,-135 c -12,-11 -17,-26 -17,-41 v -9 -121 h 117 v 105 l 121,119 c 28,27 22,74 -15,93 z m -281,-559 v 208 208 l 333,331 c 18,18 24,46 13,68 -19,38 -67,43 -95,16 l -351,-349 c -12,-12 -17,-26 -17,-41 v -24 -208 -208 -24 c 0,-15 6,-30 17,-41 l 215,-214 c 18,-18 46,-24 69,-12 37,20 42,67 15,93 l -199,198 z M 1512,932 c -12,12 -27,17 -41,17 h -24 -209 -209 -24 c -15,0 -30,-6 -41,-17 L 749,718 c -18,-18 -24,-46 -13,-68 19,-37 67,-43 94,-16 l 199,198 h 209 209 l 197,-196 c 18,-18 46,-24 69,-12 37,20 42,67 15,93 z m -64,-175 c -12,12 -27,17 -41,17 h -9 -123 V 658 h 107 l 120,-119 c 18,-18 46,-24 69,-12 37,20 42,67 15,93 z M 1324,605 c -32,0 -58,-26 -58,-57 0,-32 26,-57 58,-57 32,0 58,26 58,57 0,32 -26,57 -58,57 z m -238,169 c -15,0 -30,-6 -41,-17 L 908,620 c -18,-18 -24,-46 -13,-68 19,-37 67,-43 94,-16 l 121,120 h 107 v 116 h -123 -9 v 0 z m 64,-169 c -32,0 -58,-26 -58,-57 0,-32 26,-57 58,-57 32,0 58,26 58,57 0,32 -26,57 -58,57 z m -206,408 v 24 208 208 24 c 0,15 -6,30 -17,41 l -215,214 c -18,18 -46,24 -69,12 -37,-20 -42,-67 -15,-93 L 827,1453 V 1245 1037 L 629,841 c -18,-18 -24,-46 -13,-68 19,-38 67,-43 95,-16 l 216,215 c 12,11 17,26 17,41 z m -193,37 c 12,11 17,26 17,41 v 9 121 H 650 V 1116 L 530,998 c -18,-18 -25,-46 -13,-68 20,-37 67,-42 94,-15 l 138,136 z m -217,52 c 32,0 58,26 58,57 0,32 -26,57 -58,57 -32,0 -58,-26 -58,-57 0,-32 26,-57 58,-57 z m 0,173 c 32,0 58,26 58,57 0,32 -26,57 -58,57 -32,0 -58,-26 -58,-57 0,-32 26,-57 58,-57 z m 116,109 v -105 h 117 v 121 9 c 0,15 -6,30 -17,41 l -137,135 c -18,18 -46,24 -69,12 -38,-19 -43,-66 -15,-93 l 121,-119 z m 311,164 c 12,-12 27,-17 41,-17 h 24 209 209 24 c 15,0 30,6 41,17 l 349,347 c 18,18 24,46 13,68 -19,37 -67,43 -94,16 l -333,-332 h -209 -209 l -197,196 c -18,18 -46,24 -69,12 -37,-20 -42,-67 -15,-93 l 216,-215 z m 83,174 c 12,-12 27,-17 41,-17 h 9 123 v 116 h -107 l -120,119 c -18,18 -46,24 -69,12 -37,-20 -42,-67 -15,-93 z m 105,165 c 32,0 58,26 58,57 0,32 -26,58 -58,58 -32,0 -58,-26 -58,-58 0,-32 26,-57 58,-57 z m 257,-182 c 15,0 30,6 41,17 l 137,137 c 18,18 24,46 13,68 -19,37 -67,43 -94,16 l -121,-120 h -107 v -116 h 123 8 v 0 z m -83,182 c 32,0 58,26 58,57 0,32 -26,58 -58,58 -32,0 -58,-26 -58,-58 0,-32 26,-57 58,-57 z"
   id="path2" />&#10;			<path
   class="st1"
   d="m 1821,1116 v 105 h -117 v -121 -9 c 0,-15 6,-30 17,-41 l 137,-135 c 18,-18 46,-24 69,-12 38,19 43,66 15,93 l -121,119 z m 106,481 c -23,12 -51,5 -69,-12 l -137,-135 c -12,-11 -17,-26 -17,-41 v -9 -121 h 117 v 105 l 121,119 c 28,27 22,74 -15,93 z M 1511,933 c -12,12 -27,17 -41,17 h -24 -209 -209 -24 c -15,0 -30,-6 -41,-17 L 748,719 c -18,-18 -24,-46 -13,-68 19,-37 67,-43 94,-16 l 199,198 h 209 209 l 197,-196 c 18,-18 46,-24 69,-12 37,20 42,67 15,93 z m -64,-175 c -12,12 -27,17 -41,17 h -9 -123 V 659 h 107 l 120,-119 c 18,-18 46,-24 69,-12 37,20 42,67 15,93 z M 1323,606 c -32,0 -58,-26 -58,-57 0,-32 26,-57 58,-57 32,0 58,26 58,57 0,32 -26,57 -58,57 z m -238,169 c -15,0 -30,-6 -41,-17 L 907,621 c -18,-18 -24,-46 -13,-68 19,-37 67,-43 94,-16 l 121,120 h 107 v 116 h -123 -9 v 0 z m 64,-169 c -32,0 -58,-26 -58,-57 0,-32 26,-57 58,-57 32,0 58,26 58,57 0,32 -26,57 -58,57 z m -206,408 v 24 208 208 24 c 0,15 -6,30 -17,41 l -215,214 c -18,18 -46,24 -69,12 -37,-20 -42,-67 -15,-93 L 826,1454 V 1246 1038 L 628,842 c -18,-18 -24,-46 -13,-68 19,-38 67,-43 95,-16 l 216,215 c 12,11 17,26 17,41 z m -193,37 c 12,11 17,26 17,41 v 9 121 H 649 V 1117 L 529,999 c -18,-18 -25,-46 -13,-68 20,-37 67,-42 94,-15 l 138,136 z m -217,52 c 32,0 58,26 58,57 0,32 -26,57 -58,57 -32,0 -58,-26 -58,-57 0,-32 26,-57 58,-57 z m 0,173 c 32,0 58,26 58,57 0,32 -26,57 -58,57 -32,0 -58,-26 -58,-57 0,-32 26,-57 58,-57 z m 116,109 v -105 h 117 v 121 9 c 0,15 -6,30 -17,41 l -137,135 c -18,18 -46,24 -69,12 -38,-19 -43,-66 -15,-93 l 121,-119 z m 311,164 c 12,-12 27,-17 41,-17 h 24 209 209 24 c 15,0 30,6 41,17 l 349,347 c 18,18 24,46 13,68 -19,37 -67,43 -94,16 l -333,-332 h -209 -209 l -197,196 c -18,18 -46,24 -69,12 -37,-20 -42,-67 -15,-93 l 216,-215 z m 83,174 c 12,-12 27,-17 41,-17 h 9 123 v 116 h -107 l -120,119 c -18,18 -46,24 -69,12 -37,-20 -42,-67 -15,-93 z m 105,165 c 32,0 58,26 58,57 0,32 -26,58 -58,58 -32,0 -58,-26 -58,-58 0,-32 26,-57 58,-57 z m 257,-182 c 15,0 30,6 41,17 l 137,137 c 18,18 24,46 13,68 -19,37 -67,43 -94,16 l -121,-120 h -107 v -116 h 123 8 v 0 z m -83,182 c 32,0 58,26 58,57 0,32 -26,58 -58,58 -32,0 -58,-26 -58,-58 0,-32 26,-57 58,-57 z"
   id="path3" />&#10;		</g>&#10;	</g>&#10;</g>&#10;</svg>
