<svg xmlns="http://www.w3.org/2000/svg" viewBox="0 0 2183.73 2499.9"><defs><style>.cls-1{fill:#000300;}</style></defs><title>qunqun--logo</title><g id="Layer_2" data-name="Layer 2"><g id="Layer_1-2" data-name="Layer 1"><path class="cls-1" d="M2038.14,483.76,1389.5,78.6A592.7,592.7,0,0,0,783.82,88L106.24,511.31c-122.58,75.47-125.18,228.89-3.15,305.2l569.73,344c49.36,30.87,89.64,122.3,118,173.12L1036,1750.93a68.73,68.73,0,0,0,119.8.32L1444,1262.81c24.07-42.5,55-82.24,96.6-108L2069,835.39c139.62-86.69,111.76-269.84-30.81-351.63Zm-187.5,258.88-442.83,274.94a214.26,214.26,0,0,0-73.35,76.48l-194.66,355.7a50.4,50.4,0,0,1-88-.23L873.8,1119a254.09,254.09,0,0,0-87-91.43L332.31,743.22c-89.58-56-89.12-186.7.88-242.1L869.62,170.83a435.14,435.14,0,0,1,444.66-6.89l531.07,327.69C1950,551.67,1953.16,679,1850.64,742.64Z"/><path class="cls-1" d="M0,1003.13V1855.7A43.09,43.09,0,0,0,21.42,1893l1017.71,593.67c28.95,16.8,64.76,17,93.8,4.2l1029.21-593.92c13.36-11.63,21.59-25.89,21.59-41.3V1009a76.73,76.73,0,0,0-153.46.06v760.18a43.1,43.1,0,0,1-21.38,37.25l-868,510.83a93.48,93.48,0,0,1-94.18,0L163.08,1798.67a43.14,43.14,0,0,1-21.44-37.28V1003.13a70.82,70.82,0,0,0-141.64,0Z"/></g></g></svg>