<?xml version="1.0" encoding="utf-8"?>
<!-- Generator: Adobe Illustrator 26.5.0, SVG Export Plug-In . SVG Version: 6.00 Build 0)  -->
<svg version="1.1" id="raca" xmlns="http://www.w3.org/2000/svg" xmlns:xlink="http://www.w3.org/1999/xlink" x="0px" y="0px"
	 viewBox="0 0 500 500" style="enable-background:new 0 0 500 500;" xml:space="preserve">
<style type="text/css">
	.st0{fill-rule:evenodd;clip-rule:evenodd;fill:#FCC33C;}
</style>
<path class="st0" d="M17.2,226.1c2.2-29.5,16-114.6,101.9-178l0,0.1C172.3,8.8,230.6,1.2,267.3,1.2c11.2-0.1,22.4,0.7,33.5,2.3
	C320.4,6.8,342,25.1,342,48.4c0,24.4-20,40.6-44.1,44.1c-3.5,0.5-10.8-0.1-20.9-0.9v0l0,0c-1.3-0.1-2.7-0.2-4.1-0.3
	c-16.5-1.8-33-2.4-49.5-1.9c-33.6,0.5-73.5,5.6-109.7,23.9c-7.1,3.4-14,7.3-20.6,11.6c-17.7,11.6-33.2,26.1-46,42.9
	c-8.3,10.6-15.2,22.1-20.6,34.4C22.8,210,19.7,217.9,17.2,226.1z M94.6,127.5c-32.8,21.5-57.8,53-71.2,89.9c-3,8.7-5.4,17.6-7,26.7
	v5.1c-0.1,48.3,14,95.5,40.6,135.9c17.1,9.9,64.9,31.5,159.1,31.8c25,0.1,49.9-3.7,73.8-11.3l-0.2,0
	c67.4-21.4,118.5-70.9,124.8-128.6h0c0-0.5,0.1-0.9,0.1-1.4c0-0.2,0-0.4,0.1-0.6c-18-13.9-40.4-20.8-63.1-19.2
	c-22.7,1.6-44,11.4-59.9,27.7c-15.9,16.3-25.2,37.8-26.2,60.5c-1,22.5,6.2,44.6,20.3,62.1c-7.1,1-14.3,1.4-21.5,1.5
	c-40.1,0-78.8-15.1-108.1-42.5c-29.4-27.3-47.3-64.8-50.1-104.8c-2.8-40,9.6-79.6,34.9-110.8c25.2-31.2,61.4-51.7,101.1-57.3
	c-1.3,0-2.7,0-4.1,0c-1.5,0-3,0-4.5,0C194.5,92.3,138.9,98.4,94.6,127.5L94.6,127.5z M197.8,349.6c-7.5-18.1-11.4-37.6-11.4-57.2
	c0-24.3,6-48.1,17.4-69.6c11.4-21.4,27.8-39.8,47.8-53.4c20-13.7,43.1-22.2,67.2-25c24.1-2.7,48.5,0.5,71.1,9.3
	c2.2,3.5,4.5,7.4,6.7,11.8c9.2,17.9,19.1,45.8,19.3,83.7c-20.9-16.7-47.3-25.2-74-23.9c-26.8,1.3-52.1,12.4-71.3,31.1
	c-19.2,18.7-30.9,43.8-32.9,70.5c-2,26.7,5.8,53.2,22,74.6c-9.9-0.2-19.8-1.4-29.5-3.6C216.4,384.2,205.3,367.7,197.8,349.6z
	 M426.8,278.6c-4.5,40.7-28.7,78.6-68.1,107c-39.4,28.4-89.6,43.8-141.8,43.8H216c-71.5-0.2-117.2-12.3-143.9-23
	c50.2,64.4,150.7,108.5,243.8,85.8c173.3-42.2,193.2-206.6,145.3-279.3c-13.3-20.2-31-37.1-51.8-49.5
	C422.1,189.1,432.5,227.1,426.8,278.6L426.8,278.6z"/>
</svg>
