<?xml version="1.0" encoding="utf-8"?>
<!-- Generator: Adobe Illustrator 27.0.1, SVG Export Plug-In . SVG Version: 6.00 Build 0)  -->
<svg version="1.1" id="rbn" xmlns="http://www.w3.org/2000/svg" xmlns:xlink="http://www.w3.org/1999/xlink" x="0px" y="0px"
	 viewBox="0 0 500 500" style="enable-background:new 0 0 500 500;" xml:space="preserve">
<style type="text/css">
	.st0{fill:#FC0A54;}
	.st1{fill:#FFFFFF;}
</style>
<path class="st0" d="M250,2L250,2c137,0,248,111,248,248l0,0c0,137-111,248-248,248l0,0C113,498,2,387,2,250l0,0C2,113,113,2,250,2z
	"/>
<path class="st1" d="M249.4,153.3L36.7,376.5c0,0-4.7-7.8-7.4-13c-2.6-5-6.2-13-6.2-13l226.3-241.2l143.8,148.8L248.1,413.7
	l-22.3-21.1l124.6-134.5L249.4,153.3z"/>
</svg>
