<svg id="Layer_1" xmlns="http://www.w3.org/2000/svg" viewBox="0 0 32 32"><style>.st1{fill:#fff}</style><linearGradient id="SVGID_1_" gradientUnits="userSpaceOnUse" y1="16" x2="32" y2="16"><stop offset="0" stop-color="#001c3a"/><stop offset=".6" stop-color="#001e3d"/><stop offset=".7" stop-color="#001f3f"/><stop offset="1" stop-color="#002042"/></linearGradient><circle cx="16" cy="16" r="16" fill="url(#SVGID_1_)"/><g id="Layer_1-2"><path class="st1" d="M9 9.3l1.7-.9.2.4 6.2-3.6-.4-.3-.5-.3-.2-.1-10.2 5.9v.2L8.7 9zM9 13.1l4.9-2.9.2.4L20.4 7l-.5-.3-.5-.2-.2-.1-13.4 7.7v.2l2.9-1.6zM9 14.9l6.5-3.7.2.3L22 7.9l-.5-.2-.5-.3-.2-.1-15 8.6v.3l2.9-1.7zM9 16.7l8.1-4.6.2.3 6.3-3.5-.5-.3-.5-.3-.2-.1-16.6 9.6v.2l2.9-1.6zM9 18.6l9.7-5.6.2.4 6.3-3.6-.5-.3-.4-.2-.3-.2L5.8 19.6v.3l2.9-1.7zM25.8 10.2l-.2-.2L5.8 21.5v.2l2.9-1.6.3.4 9.7-5.7.2.4 7.3-4.1v-.7zM7.1 22.9l1.6-1 .2.4 9.8-5.6.2.4 7.3-4.2v-1.3L6.8 22.7zM18.7 18.6l.2.4 7.3-4.3v-1.3L8.4 23.7l.3.1 1.6-1 .3.4M10.3 24.7l1.7-.9.2.4 6.5-3.8.2.4 7.3-4.2v-1.3L10 24.6zM11.9 25.6l1.7-.9.2.4 4.9-2.8.2.4 7.3-4.2V17.1l-14.6 8.4zM13.2 26.4l.3.2 1.7-1 .2.4 3.3-1.9.2.4 7.3-4.2V19zM15.1 27.5l1.6-1 .3.4 1.7-.9.2.4 7.3-4.2V20.8l-11.3 6.6zM18.8 6.1l-.5-.3-.5-.2-.2-.2-11.8 6.8v.3l2.9-1.7.3.4 3.3-1.9.2.4z"/></g></svg>