<?xml version="1.0" encoding="utf-8"?>
<!-- Generator: Adobe Illustrator 24.0.0, SVG Export Plug-In . SVG Version: 6.00 Build 0)  -->
<svg version="1.1" id="Layer_1" xmlns="http://www.w3.org/2000/svg" xmlns:xlink="http://www.w3.org/1999/xlink" x="0px" y="0px"
	 viewBox="0 0 512 512" style="enable-background:new 0 0 512 512;" xml:space="preserve">
<style type="text/css">
	.st0{fill:#FFFFFF;}
</style>
<circle class="st0" cx="256" cy="256" r="256"/>
<path d="M174.1,95.9L189,78l66.9,80.5L322.7,78l14.9,17.9L203.8,257l52.1,62.7l52.1-62.7l-39.5-47.5l14.9-17.9l46.8,56.4
	c0.3,0.4,0.6,0.7,0.8,1.1l6.6,8l-66.9,80.5l66.9,80.5L322.7,436L174.1,257.1l2.7-3.3c0.2-0.3,0.3-0.5,0.5-0.8l63.6-76.6L174.1,95.9z
	"/>
<path d="M174.2,418.1l55.9-67.3l14.9,17.9L189,436L174.2,418.1z"/>
</svg>
