<?xml version="1.0" encoding="utf-8"?>
<!-- Generator: Adobe Illustrator 26.0.1, SVG Export Plug-In . SVG Version: 6.00 Build 0)  -->
<svg version="1.1" id="Layer_1" xmlns="http://www.w3.org/2000/svg" xmlns:xlink="http://www.w3.org/1999/xlink" x="0px" y="0px"
	 viewBox="0 0 71.2 75.3" style="enable-background:new 0 0 71.2 75.3;" xml:space="preserve">
<style type="text/css">
	.st0{fill-rule:evenodd;clip-rule:evenodd;}
</style>
<g id="Group-7" transform="translate(0.000000, 0.295500)">
	<path id="Fill-5" class="st0" d="M71.2,35.3c0-19.7-16.1-35.7-35.8-35.6C16.9-0.2,1.3,14.5,0.1,32.9c-0.9,13.2,5.4,25.5,16.5,32.5
		l0,5.1l-12,0v-8.2H0V75h21l0-9.7c0-1.5-0.8-2.9-2.1-3.7C9.9,55.8,4.5,46,4.5,35.3c0-17.1,13.8-31,30.9-31.1
		c16.7-0.1,30.7,13.3,31.2,30c0.4,11.1-5.1,21.4-14.4,27.3c-1.3,0.8-2.1,2.2-2.1,3.7l0,9.7h21V62.4h-4.5l0,8.1l-12.1,0l0-5.2
		C65,58.8,71.2,47.6,71.2,35.3"/>
	<path id="Fill-3" class="st0" d="M35.6,30.8c-2.5,0-4.5,2-4.5,4.5c0,2.5,2,4.5,4.5,4.5s4.5-2,4.5-4.5C40,32.8,38,30.8,35.6,30.8"/>
	<path id="Fill-1" class="st0" d="M46.8,34.5c1.6,1.5,3.3,3.3,4.8,4.9c3.3,3.7,3.9,6.1,3.3,7.1c-0.5,0.9-2.9,1.5-7.1,0.8
		c-0.7-0.1-1.4-0.3-2.1-0.4c0.7-3.6,1-7.6,1-11.5C46.8,35,46.8,34.7,46.8,34.5 M32.2,41.1c-3.3-1.9-6.1-3.9-8.4-5.8
		c2.4-2,5.3-4,8.4-5.8c3.1-1.8,6.2-3.3,9.2-4.4c0.5,3,0.8,6.4,0.8,10.2s-0.3,7.2-0.8,10.2C38.5,44.4,35.3,42.9,32.2,41.1 M27.2,46.3
		c-6.3,2.2-10.2,1.4-10.9,0.1c-0.5-0.9,0.1-3.3,2.8-6.5c0.4-0.5,0.9-1,1.4-1.6c2.8,2.4,6.1,4.7,9.5,6.6c0.1,0,0.2,0.1,0.3,0.1
		C29,45.6,27.9,46.1,27.2,46.3 M30.2,22.9c0.5-2,1-3.9,1-3.9c1.5-4.2,3.2-6.1,4.3-6.1c1.5,0,3.5,2.8,4.9,7.7
		c-3.4,1.2-7,2.9-10.5,4.9c-0.1,0.1-0.3,0.2-0.4,0.2C29.8,24.8,30,23.8,30.2,22.9 M51.3,52.1c4.5,0,6.6-1.7,7.6-3.4
		c1.8-3.2,0.5-7.3-3.8-12.3c-2.4-2.8-6.1-6.4-8.6-8.1c-0.2-1.5-0.4-3.1-0.6-4.5c0.7-0.2,1.4-0.3,2.1-0.4c4.1-0.7,6.5-0.1,7.1,0.8
		c0.4,0.6,0.1,1.9-0.8,3.5c-0.7,1.4-1.4,2.2-1.6,2.4c1.3,1.2,2.5,2.4,3.2,3.2c0.4-0.4,1.3-1.5,2.4-3.5c1.6-3.1,1.8-5.8,0.6-7.8
		c-1.2-2.1-4.2-4.3-11.7-3c-0.8,0.1-1.5,0.3-2.3,0.5C42.9,13,39.8,8.4,35.6,8.4c-2.5,0-6,1.6-8.6,9.2c0,0.1-0.7,2.1-1.2,4.3
		c-0.5,2.3-1,4.7-1.4,7.3c-1.4,1-2.7,2-3.8,3c-3.5-3.7-5-6.8-4.3-8.1c0.5-0.8,1.9-1.4,4-1.1c1.2,0.2,2.1,0.4,2.4,0.5
		c0.3-1.7,0.8-3.3,1.1-4.4c-0.5-0.1-1.5-0.4-2.9-0.6c-3.8-0.5-7.1,0.7-8.6,3.3c-2.1,3.7,0.2,8.6,4.9,13.4c-0.6,0.6-1.1,1.2-1.6,1.8
		c-4.9,5.9-4.5,9.6-3.3,11.7c1.3,2.3,4.1,3.5,7.8,3.5c2.5,0,5.4-0.5,8.6-1.6c1.5-0.5,5.1-2,6.8-2.7c1.7,0.8,3.3,1.4,4.9,2
		c-1.4,4.9-3.4,7.7-4.9,7.7c-1.2,0-2.6-1.7-3.8-4.6c0-0.1-0.1-0.3-0.2-0.6c-1.5,0.6-3.1,1.1-4.3,1.4c0.1,0.3,0.2,0.6,0.3,0.8
		c2.4,6.1,5.7,7.4,7.9,7.4c4.3,0,7.3-4.5,9.2-10.9c0.8,0.2,1.6,0.4,2.3,0.5C48.7,52,50,52.1,51.3,52.1"/>
</g>
</svg>
