<?xml version="1.0" encoding="utf-8"?>
<!-- Generator: Adobe Illustrator 27.7.0, SVG Export Plug-In . SVG Version: 6.00 Build 0)  -->
<svg version="1.1" id="Layer_1" xmlns="http://www.w3.org/2000/svg" xmlns:xlink="http://www.w3.org/1999/xlink" x="0px" y="0px"
	 viewBox="0 0 500 500" style="enable-background:new 0 0 500 500;" xml:space="preserve">
<style type="text/css">
	.st0{clip-path:url(#SVGID_00000061435282306117426880000000280086788100799918_);}
	.st1{fill:url(#SVGID_00000140698223876701096610000012575558829397313698_);}
	.st2{fill:url(#SVGID_00000151517567867187716480000010812841190127372171_);}
	.st3{clip-path:url(#SVGID_00000163763978395638861890000012455517104994458509_);}
	.st4{clip-path:url(#SVGID_00000000186739989960278600000000282059910940474794_);}
	.st5{fill:#F8A171;}
	.st6{clip-path:url(#SVGID_00000168807589167446241380000012309275424771330449_);}
	.st7{clip-path:url(#SVGID_00000051380748988491696190000001947419332980684961_);}
	.st8{fill:#FAAA71;}
	.st9{clip-path:url(#SVGID_00000033344961147641487280000006895480964537296260_);}
	.st10{clip-path:url(#SVGID_00000042730996674426666680000000153826993717491360_);}
	.st11{fill:#F9A471;}
	.st12{clip-path:url(#SVGID_00000127757119326676627740000015985577041354582700_);}
	.st13{clip-path:url(#SVGID_00000145055910853347581570000007177572791544058540_);}
	.st14{fill:#F7956B;}
	.st15{clip-path:url(#SVGID_00000147940514582486670850000017369463112589789063_);}
	.st16{clip-path:url(#SVGID_00000043432213473260287730000013421554419995558807_);}
	.st17{fill:#FAAB72;}
	.st18{clip-path:url(#SVGID_00000110470076024110196450000008574573842025531065_);}
	.st19{clip-path:url(#SVGID_00000090254736994463302780000006784208976686112173_);}
	.st20{fill:#F9A571;}
	.st21{clip-path:url(#SVGID_00000018217034963299203770000011977169062360574118_);}
	.st22{clip-path:url(#SVGID_00000019636534977915416290000017428198114096242080_);}
	.st23{fill:#FBB171;}
	.st24{clip-path:url(#SVGID_00000067931252327339139400000010015178092596276393_);}
	.st25{clip-path:url(#SVGID_00000050639981010695745110000014329068407106116799_);}
	.st26{fill:#F89E71;}
	.st27{clip-path:url(#SVGID_00000056413954593616526920000015684795108304911274_);}
	.st28{clip-path:url(#SVGID_00000147940622781080868170000002382815211196369280_);}
	.st29{fill:#FCBB71;}
	.st30{fill:#FFD48A;}
	.st31{clip-path:url(#SVGID_00000164506764237045399920000003946576650373952918_);}
	.st32{filter:url(#Adobe_OpacityMaskFilter);}
	.st33{clip-path:url(#SVGID_00000168100933094542914840000008285420270118635939_);fill-opacity:0.7;}
	
		.st34{clip-path:url(#SVGID_00000168100933094542914840000008285420270118635939_);mask:url(#x_00000168107214506505596610000010739466417785568427_);}
	.st35{fill:#F04B36;}
	.st36{fill:#FE8C2C;}
	.st37{fill:#FEFEFE;}
	.st38{fill:#FECAA8;}
	.st39{fill:#FE7837;}
</style>
<g>
	<defs>
		<path id="SVGID_1_" d="M500.2,250.2c0,138.1-111.9,250-250,250c-138.1,0-250-111.9-250-250c0-138.1,111.9-250,250-250
			C388.3,0.2,500.2,112.1,500.2,250.2z"/>
	</defs>
	<clipPath id="SVGID_00000088094352861994499420000005412960996391482772_">
		<use xlink:href="#SVGID_1_"  style="overflow:visible;"/>
	</clipPath>
	<g style="clip-path:url(#SVGID_00000088094352861994499420000005412960996391482772_);">
		
			<linearGradient id="SVGID_00000061468516628257390210000015156694453940486273_" gradientUnits="userSpaceOnUse" x1="-1.9884" y1="1.3749" x2="498.5149" y2="495.7093" gradientTransform="matrix(1 0 0 -1 0 499.8898)">
			<stop  offset="0" style="stop-color:#FFD275"/>
			<stop  offset="0.132" style="stop-color:#FECA74"/>
			<stop  offset="0.358" style="stop-color:#FBB570"/>
			<stop  offset="0.652" style="stop-color:#F79569"/>
			<stop  offset="1" style="stop-color:#F2665F"/>
		</linearGradient>
		<path style="fill:url(#SVGID_00000061468516628257390210000015156694453940486273_);" d="M0.2,0.2h499.3v499.3H0.2V0.2z"/>
		
			<linearGradient id="SVGID_00000140012942646794014270000013400721399745539217_" gradientUnits="userSpaceOnUse" x1="-1.9884" y1="1.3749" x2="498.5149" y2="495.7093" gradientTransform="matrix(1 0 0 -1 0 499.8898)">
			<stop  offset="0" style="stop-color:#FFD275"/>
			<stop  offset="0.132" style="stop-color:#FECA74"/>
			<stop  offset="0.358" style="stop-color:#FBB570"/>
			<stop  offset="0.652" style="stop-color:#F79569"/>
			<stop  offset="1" style="stop-color:#F2665F"/>
		</linearGradient>
		<path style="fill:url(#SVGID_00000140012942646794014270000013400721399745539217_);" d="M0.2,0.2h499.3v499.3H0.2V0.2z"/>
	</g>
</g>
<g>
	<defs>
		<rect id="SVGID_00000072239499484098855830000013182795593840391051_" x="60.1" y="92" width="71.9" height="89.9"/>
	</defs>
	<clipPath id="SVGID_00000018947883931526361270000014110756722008468910_">
		<use xlink:href="#SVGID_00000072239499484098855830000013182795593840391051_"  style="overflow:visible;"/>
	</clipPath>
	<g style="clip-path:url(#SVGID_00000018947883931526361270000014110756722008468910_);">
		<g>
			<defs>
				<path id="SVGID_00000053533787358328849270000009949323604052784525_" d="M500.2,250.2c0,138.1-111.9,250-250,250
					c-138.1,0-250-111.9-250-250c0-138.1,111.9-250,250-250C388.3,0.2,500.2,112.1,500.2,250.2z"/>
			</defs>
			<clipPath id="SVGID_00000138571488054889004530000000135273101995558575_">
				<use xlink:href="#SVGID_00000053533787358328849270000009949323604052784525_"  style="overflow:visible;"/>
			</clipPath>
			<g style="clip-path:url(#SVGID_00000138571488054889004530000000135273101995558575_);">
				<path class="st5" d="M126.4,180.4H67.2c-3.1,0-5.5-2.5-5.6-5.5V97.8c0-3.1,2.5-5.5,5.6-5.6h59.2c3.1,0,5.5,2.5,5.5,5.6v77.1
					C131.9,177.9,129.4,180.4,126.4,180.4L126.4,180.4z"/>
			</g>
		</g>
	</g>
</g>
<g>
	<defs>
		<rect id="SVGID_00000141433040541173021990000013608200895423296401_" x="68.1" y="0.2" width="53.9" height="61.9"/>
	</defs>
	<clipPath id="SVGID_00000031929510630356345410000004251203352183406263_">
		<use xlink:href="#SVGID_00000141433040541173021990000013608200895423296401_"  style="overflow:visible;"/>
	</clipPath>
	<g style="clip-path:url(#SVGID_00000031929510630356345410000004251203352183406263_);">
		<g>
			<defs>
				<path id="SVGID_00000001625753719885007280000009037089142510533276_" d="M500.2,250.2c0,138.1-111.9,250-250,250
					c-138.1,0-250-111.9-250-250c0-138.1,111.9-250,250-250C388.3,0.2,500.2,112.1,500.2,250.2z"/>
			</defs>
			<clipPath id="SVGID_00000060013125598078348770000015198810384050035634_">
				<use xlink:href="#SVGID_00000001625753719885007280000009037089142510533276_"  style="overflow:visible;"/>
			</clipPath>
			<g style="clip-path:url(#SVGID_00000060013125598078348770000015198810384050035634_);">
				<path class="st8" d="M114.7,61.8H75.3c-3.1,0-5.5-2.5-5.5-5.5V2.1c0-3.1,2.5-5.5,5.5-5.5h39.4c3.1,0,5.5,2.5,5.5,5.5v54.1
					C120.2,59.3,117.8,61.7,114.7,61.8z"/>
			</g>
		</g>
	</g>
</g>
<g>
	<defs>
		<rect id="SVGID_00000013896466155338744280000013033483421892613522_" x="130" y="4.2" width="143.8" height="83.9"/>
	</defs>
	<clipPath id="SVGID_00000142887695540413079410000010467599818779557522_">
		<use xlink:href="#SVGID_00000013896466155338744280000013033483421892613522_"  style="overflow:visible;"/>
	</clipPath>
	<g style="clip-path:url(#SVGID_00000142887695540413079410000010467599818779557522_);">
		<g>
			<defs>
				<path id="SVGID_00000031897360785385327930000001320063658550995895_" d="M500.2,250.2c0,138.1-111.9,250-250,250
					c-138.1,0-250-111.9-250-250c0-138.1,111.9-250,250-250C388.3,0.2,500.2,112.1,500.2,250.2z"/>
			</defs>
			<clipPath id="SVGID_00000125604784785549766310000000337101864352216765_">
				<use xlink:href="#SVGID_00000031897360785385327930000001320063658550995895_"  style="overflow:visible;"/>
			</clipPath>
			<g style="clip-path:url(#SVGID_00000125604784785549766310000000337101864352216765_);">
				<path class="st11" d="M266.9,87.6H137.5c-3.1,0-5.5-2.5-5.5-5.5V11.4c0-3.1,2.5-5.5,5.5-5.5h129.4c3.1,0,5.5,2.5,5.5,5.5v70.7
					C272.5,85.2,270,87.6,266.9,87.6C266.9,87.6,266.9,87.6,266.9,87.6L266.9,87.6z"/>
			</g>
		</g>
	</g>
</g>
<g>
	<defs>
		<rect id="SVGID_00000013185894776541063810000000450343652293996433_" x="337.7" y="78.1" width="79.9" height="165.8"/>
	</defs>
	<clipPath id="SVGID_00000028323565901845548140000009884251633529193882_">
		<use xlink:href="#SVGID_00000013185894776541063810000000450343652293996433_"  style="overflow:visible;"/>
	</clipPath>
	<g style="clip-path:url(#SVGID_00000028323565901845548140000009884251633529193882_);">
		<g>
			<defs>
				<path id="SVGID_00000089544048535842315730000000754594144912982405_" d="M500.2,250.2c0,138.1-111.9,250-250,250
					c-138.1,0-250-111.9-250-250c0-138.1,111.9-250,250-250C388.3,0.2,500.2,112.1,500.2,250.2z"/>
			</defs>
			<clipPath id="SVGID_00000083791880641629432290000004902479575534229676_">
				<use xlink:href="#SVGID_00000089544048535842315730000000754594144912982405_"  style="overflow:visible;"/>
			</clipPath>
			<g style="clip-path:url(#SVGID_00000083791880641629432290000004902479575534229676_);">
				<path class="st14" d="M410.5,243h-67.2c-3.1,0-5.5-2.5-5.5-5.5V84c0-3.1,2.5-5.5,5.5-5.5h67.2c3.1,0,5.5,2.5,5.5,5.5v153.5
					C416.1,240.5,413.6,243,410.5,243z"/>
			</g>
		</g>
	</g>
</g>
<g>
	<defs>
		<rect id="SVGID_00000130622949918842421330000002626689277228765333_" x="277.8" y="179.9" width="45.9" height="71.9"/>
	</defs>
	<clipPath id="SVGID_00000109004411956949477280000017880415790482770334_">
		<use xlink:href="#SVGID_00000130622949918842421330000002626689277228765333_"  style="overflow:visible;"/>
	</clipPath>
	<g style="clip-path:url(#SVGID_00000109004411956949477280000017880415790482770334_);">
		<g>
			<defs>
				<path id="SVGID_00000046326098426938828880000016091241797489768116_" d="M500.2,250.2c0,138.1-111.9,250-250,250
					c-138.1,0-250-111.9-250-250c0-138.1,111.9-250,250-250C388.3,0.2,500.2,112.1,500.2,250.2z"/>
			</defs>
			<clipPath id="SVGID_00000074400680915702692970000017332283012866386341_">
				<use xlink:href="#SVGID_00000046326098426938828880000016091241797489768116_"  style="overflow:visible;"/>
			</clipPath>
			<g style="clip-path:url(#SVGID_00000074400680915702692970000017332283012866386341_);">
				<path class="st17" d="M316.2,250.4h-31.4c-3.1,0-5.5-2.5-5.5-5.5v-57.9c0-3.1,2.5-5.5,5.5-5.5h31.4c3.1,0,5.5,2.5,5.5,5.5v57.9
					C321.8,247.9,319.3,250.4,316.2,250.4z"/>
			</g>
		</g>
	</g>
</g>
<g>
	<defs>
		<rect id="SVGID_00000084494157503009058110000017390527428365024423_" x="239.8" y="283.8" width="33.9" height="57.9"/>
	</defs>
	<clipPath id="SVGID_00000110456394065719762360000002171740770450024351_">
		<use xlink:href="#SVGID_00000084494157503009058110000017390527428365024423_"  style="overflow:visible;"/>
	</clipPath>
	<g style="clip-path:url(#SVGID_00000110456394065719762360000002171740770450024351_);">
		<g>
			<defs>
				<path id="SVGID_00000118363606306595747230000015534220089622470291_" d="M500.2,250.2c0,138.1-111.9,250-250,250
					c-138.1,0-250-111.9-250-250c0-138.1,111.9-250,250-250C388.3,0.2,500.2,112.1,500.2,250.2z"/>
			</defs>
			<clipPath id="SVGID_00000029015832337832631260000014937759546622882205_">
				<use xlink:href="#SVGID_00000118363606306595747230000015534220089622470291_"  style="overflow:visible;"/>
			</clipPath>
			<g style="clip-path:url(#SVGID_00000029015832337832631260000014937759546622882205_);">
				<path class="st20" d="M266.9,340H246c-3.1,0-5.5-2.5-5.5-5.5v-45c0-3.1,2.5-5.5,5.5-5.5h20.9c3.1,0,5.5,2.5,5.5,5.5v45
					C272.5,337.6,270,340,266.9,340z"/>
			</g>
		</g>
	</g>
</g>
<g>
	<defs>
		<rect id="SVGID_00000163043999032456375290000016623412020463260571_" x="287.8" y="343.7" width="35.9" height="53.9"/>
	</defs>
	<clipPath id="SVGID_00000094608025396664882930000000320307110449632164_">
		<use xlink:href="#SVGID_00000163043999032456375290000016623412020463260571_"  style="overflow:visible;"/>
	</clipPath>
	<g style="clip-path:url(#SVGID_00000094608025396664882930000000320307110449632164_);">
		<g>
			<defs>
				<path id="SVGID_00000024681150902855458950000011868802917201803173_" d="M500.2,250.2c0,138.1-111.9,250-250,250
					c-138.1,0-250-111.9-250-250c0-138.1,111.9-250,250-250C388.3,0.2,500.2,112.1,500.2,250.2z"/>
			</defs>
			<clipPath id="SVGID_00000142140573255945453060000005021388725894191242_">
				<use xlink:href="#SVGID_00000024681150902855458950000011868802917201803173_"  style="overflow:visible;"/>
			</clipPath>
			<g style="clip-path:url(#SVGID_00000142140573255945453060000005021388725894191242_);">
				<path class="st23" d="M316.2,397.1h-22.8c-3.1,0-5.5-2.5-5.5-5.5v-41.3c0-3.1,2.5-5.5,5.5-5.5h22.8c3.1,0,5.5,2.5,5.5,5.5v41.3
					C321.8,394.6,319.3,397.1,316.2,397.1L316.2,397.1z"/>
			</g>
		</g>
	</g>
</g>
<g>
	<defs>
		<rect id="SVGID_00000096031185701324226670000015650986019830283655_" x="321.7" y="399.6" width="51.9" height="85.9"/>
	</defs>
	<clipPath id="SVGID_00000150099595925210102010000015456017854290416038_">
		<use xlink:href="#SVGID_00000096031185701324226670000015650986019830283655_"  style="overflow:visible;"/>
	</clipPath>
	<g style="clip-path:url(#SVGID_00000150099595925210102010000015456017854290416038_);">
		<g>
			<defs>
				<path id="SVGID_00000024713742542698301700000011152311722169245322_" d="M500.2,250.2c0,138.1-111.9,250-250,250
					c-138.1,0-250-111.9-250-250c0-138.1,111.9-250,250-250C388.3,0.2,500.2,112.1,500.2,250.2z"/>
			</defs>
			<clipPath id="SVGID_00000180356653846791688180000018151689581876704385_">
				<use xlink:href="#SVGID_00000024713742542698301700000011152311722169245322_"  style="overflow:visible;"/>
			</clipPath>
			<g style="clip-path:url(#SVGID_00000180356653846791688180000018151689581876704385_);">
				<path class="st26" d="M327.3,400.1H368c3.1,0,5.5,2.5,5.5,5.5v74c0,3.1-2.5,5.5-5.5,5.5h-40.7c-3.1,0-5.5-2.5-5.5-5.5v-74
					C321.8,402.7,324.3,400.1,327.3,400.1z"/>
			</g>
		</g>
	</g>
</g>
<g>
	<defs>
		<rect id="SVGID_00000085933517010797889520000012323771862663106469_" x="0.2" y="339.7" width="189.7" height="159.8"/>
	</defs>
	<clipPath id="SVGID_00000020365625734843377970000017976611819101700780_">
		<use xlink:href="#SVGID_00000085933517010797889520000012323771862663106469_"  style="overflow:visible;"/>
	</clipPath>
	<g style="clip-path:url(#SVGID_00000020365625734843377970000017976611819101700780_);">
		<g>
			<defs>
				<path id="SVGID_00000059273127892944034670000004065670883450444940_" d="M500.2,250.2c0,138.1-111.9,250-250,250
					c-138.1,0-250-111.9-250-250c0-138.1,111.9-250,250-250C388.3,0.2,500.2,112.1,500.2,250.2z"/>
			</defs>
			<clipPath id="SVGID_00000011744754824786994800000001735769459898352311_">
				<use xlink:href="#SVGID_00000059273127892944034670000004065670883450444940_"  style="overflow:visible;"/>
			</clipPath>
			<g style="clip-path:url(#SVGID_00000011744754824786994800000001735769459898352311_);">
				<path class="st29" d="M-1.2,499.1h183.7c3.1,0,5.5-2.5,5.5-5.6V345.6c0-3.1-2.5-5.5-5.5-5.6H-1.2c-3.1,0-5.5,2.5-5.5,5.6v147.9
					C-6.7,496.6-4.3,499.1-1.2,499.1z"/>
			</g>
		</g>
	</g>
</g>
<path class="st30" d="M250.2,23.3c30.6,0,60.3,6,88.3,17.8c27,11.4,51.3,27.8,72.1,48.6c20.9,20.8,37.2,45.1,48.6,72.1
	c11.8,28,17.8,57.6,17.8,88.3c0,30.7-6,60.3-17.8,88.3c-11.4,27-27.8,51.3-48.6,72.1c-20.8,20.8-45.1,37.2-72.1,48.6
	c-28,11.8-57.6,17.8-88.3,17.8c-30.6,0-60.3-6-88.3-17.8c-27-11.4-51.3-27.8-72.1-48.6c-20.8-20.8-37.2-45.1-48.6-72.1
	c-11.8-27.9-17.8-57.6-17.8-88.3c0-30.6,6-60.3,17.8-88.3c11.4-27,27.8-51.3,48.6-72.1c20.8-20.8,45.1-37.2,72.1-48.6
	C189.8,29.3,219.5,23.3,250.2,23.3 M250.2,0.2c-138.1,0-250,111.9-250,250c0,138.1,111.9,250,250,250c138.1,0,250-111.9,250-250
	C500.2,112.1,388.2,0.2,250.2,0.2z"/>
<g>
	<defs>
		<path id="SVGID_00000098186369560563080490000003205950163254902679_" d="M500.2,250.2c0,138.1-111.9,250-250,250
			c-138.1,0-250-111.9-250-250c0-138.1,111.9-250,250-250C388.3,0.2,500.2,112.1,500.2,250.2z"/>
	</defs>
	<clipPath id="SVGID_00000140006158513663197400000002630369254664044466_">
		<use xlink:href="#SVGID_00000098186369560563080490000003205950163254902679_"  style="overflow:visible;"/>
	</clipPath>
	<g style="clip-path:url(#SVGID_00000140006158513663197400000002630369254664044466_);">
		<g>
			<defs>
				<rect id="SVGID_00000031911863343579737360000010264745826853050022_" x="0.2" y="0.2" width="499.3" height="499.3"/>
			</defs>
			<clipPath id="SVGID_00000134251837325568834390000017692575731598948489_">
				<use xlink:href="#SVGID_00000031911863343579737360000010264745826853050022_"  style="overflow:visible;"/>
			</clipPath>
			<defs>
				<filter id="Adobe_OpacityMaskFilter" filterUnits="userSpaceOnUse" x="-16" y="-16" width="532.4" height="532.3">
					<feColorMatrix  type="matrix" values="1 0 0 0 0  0 1 0 0 0  0 0 1 0 0  0 0 0 1 0"/>
				</filter>
			</defs>
			
				<mask maskUnits="userSpaceOnUse" x="-16" y="-16" width="532.4" height="532.3" id="x_00000168107214506505596610000010739466417785568427_">
				<g class="st32">
					<path style="clip-path:url(#SVGID_00000134251837325568834390000017692575731598948489_);fill-opacity:0.7;" d="M0.2,0.2h499.3
						v499.3H0.2V0.2z"/>
				</g>
			</mask>
			
				<g style="clip-path:url(#SVGID_00000134251837325568834390000017692575731598948489_);mask:url(#x_00000168107214506505596610000010739466417785568427_);">
				<path class="st35" d="M250.2,516.3c-35.9,0-70.8-7-103.6-20.9c-31.7-13.4-60.1-32.6-84.6-57c-24.5-24.4-43.6-52.9-57-84.6
					C-8.9,321-16,286.1-16,250.2c0-35.9,7-70.8,20.9-103.6C18.4,114.9,37.5,86.4,62,62s52.9-43.6,84.6-57C179.4-9,214.2-16,250.2-16
					c35.9,0,70.8,7,103.6,20.9c31.7,13.4,60.1,32.6,84.6,57s43.6,52.9,57,84.6c13.9,32.8,20.9,67.7,20.9,103.6
					c0,35.9-7,70.8-20.9,103.6c-13.4,31.7-32.6,60.1-57,84.6s-52.9,43.6-84.6,57C321,509.3,286.1,516.3,250.2,516.3L250.2,516.3z
					 M250.2,39.5c-28.5,0-56,5.5-82,16.6c-25.1,10.6-47.6,25.8-67,45.2s-34.6,41.9-45.2,67c-11,25.9-16.6,53.5-16.6,82
					c0,28.5,5.5,56,16.6,82c10.6,25.1,25.8,47.6,45.2,67s41.9,34.6,67,45.2c25.9,11,53.5,16.6,82,16.6c28.5,0,56-5.5,82-16.6
					c25.1-10.6,47.6-25.8,67-45.2s34.6-41.9,45.2-67c11-25.9,16.6-53.5,16.6-82c0-28.5-5.5-56-16.6-82c-10.6-25.1-25.8-47.6-45.2-67
					s-41.9-34.6-67-45.2C306.2,45,278.6,39.5,250.2,39.5L250.2,39.5z"/>
			</g>
		</g>
	</g>
</g>
<path class="st30" d="M250.2,23.3c30.6,0,60.3,6,88.3,17.8c27,11.4,51.3,27.8,72.1,48.6c20.9,20.8,37.2,45.1,48.6,72.1
	c11.8,28,17.8,57.6,17.8,88.3c0,30.7-6,60.3-17.8,88.3c-11.4,27-27.8,51.3-48.6,72.1c-20.8,20.8-45.1,37.2-72.1,48.6
	c-28,11.8-57.6,17.8-88.3,17.8c-30.6,0-60.3-6-88.3-17.8c-27-11.4-51.3-27.8-72.1-48.6c-20.8-20.8-37.2-45.1-48.6-72.1
	c-11.8-27.9-17.8-57.6-17.8-88.3c0-30.6,6-60.3,17.8-88.3c11.4-27,27.8-51.3,48.6-72.1c20.8-20.8,45.1-37.2,72.1-48.6
	C189.8,29.3,219.5,23.3,250.2,23.3 M250.2,0.2c-138.1,0-250,111.9-250,250c0,138.1,111.9,250,250,250c138.1,0,250-111.9,250-250
	C500.2,112.1,388.2,0.2,250.2,0.2z"/>
<path class="st36" d="M196.3,297.6c2.9,2.8,5.7,5.6,8.6,8.5c1.8,1.7,2.3,1.8,3.9,0c3.6-3.7,7.2-7.3,10.7-10.9
	c0.6-0.7,1.2-0.9,2.2-0.6c6.2,2.2,12.6,2.4,19,1.7c2.5-0.3,2.5-0.3,2.7,2.4c-2.1,0.2-4.1,0.5-6.1,0.6c-1.5,0.1-3,0-4.5,0H231
	c-2.5-0.6-5-1-7.5-1.8c-1.3-0.4-2.3-0.2-3.2,0.8c-3.5,3.7-7,7.3-10.5,10.9c-1.4,1.4-2,1.4-3.4,0c-3-3-6-5.9-8.9-9
	C196.8,299.5,196.7,298.4,196.3,297.6L196.3,297.6z"/>
<g>
	<path class="st37" d="M103.2,401c-0.4-0.2-0.7-0.5-1.1-0.8c-1.7-1.8-3.5-3.6-5.2-5.4c-0.2-0.2-0.3-0.5-0.5-0.8l5.2-4.9l5.1-4.8
		l7.7-7.2c0.5-0.4,1.1-0.8,1.6-1.3c4.1-3.8,8.2-7.6,12.2-11.4l37.6-35.1c7-6.6,14.1-13.2,21.1-19.7c1.5-1.4,3.2-1.3,4.7,0.1
		c0.7,0.7,1.3,1.5,2,2.2c1.4,1.6,1.4,3.1-0.1,4.6c-1.4,1.3-2.8,2.7-4.3,4c-6.7,6.3-13.5,12.6-20.2,18.9
		c-9.8,9.2-19.6,18.3-29.4,27.5c-5.3,5-10.6,9.9-15.9,14.9c-0.8,0.7-1.5,1.6-2.2,2.4l-8.8,8l-4.8,4.5L103.2,401z M116.3,412.9
		l-7.1-6.5l4.3-4.2l4.7-4.3l8.1-7.6c0.3-0.2,0.6-0.4,0.8-0.6c4.2-3.9,8.3-7.8,12.5-11.7l31.1-29.1c4-3.8,8-7.5,12-11.2
		c1.5-1.4,3.2-1.3,4.7,0.2c0.5,0.6,1,1.1,1.4,1.6c2.2,2.3,2.2,3.6-0.1,5.7c-9.3,8.6-18.4,17.3-27.7,26c-3.2,3-6.4,5.9-9.5,8.9
		c-3.2,3-6.3,6-9.4,9l-8.4,7.8l-5.8,5.5l-3.2,3l-1.8,1.6l-3.5,3.2L116.3,412.9z M84.5,379.8l3-3.2l1.3-1.1l3.7-3.6l3.8-3.6
		c0.5-0.3,0.9-0.6,1.2-0.9c1.7-1.7,3.4-3.4,5.1-5l2.2-2.2c0.6-0.3,1.1-0.6,1.5-1.1c2.6-2.4,5.1-4.8,7.7-7.2
		c4.2-3.9,8.3-7.9,12.5-11.8c1.8-1.6,3.6-3.2,5.4-4.9c6.2-5.8,12.5-11.7,18.8-17.6c2.1-2,4.4-3.9,6.6-5.8c1.5-0.2,2.6,0.3,3.6,1.4
		c0.5,0.6,1,1.1,1.4,1.6c1.9,2.2,1.8,3.4-0.3,5.4c-2.2,2-4.4,4.1-6.6,6.1c-10.5,9.8-21.1,19.7-31.6,29.6c-3.2,3-6.4,5.9-9.5,8.8
		c-1.8,1.7-3.5,3.5-5.3,5.2c-0.8,0.7-1.7,1.3-2.5,2.1c-1.7,1.6-3.4,3.3-5.1,4.9l-5.2,4.8l-5.8,5.3c-1.3-1.5-2.7-3-4-4.6
		C85.8,381.8,85.2,380.8,84.5,379.8L84.5,379.8z M198.1,297.4c-1.3-2-1.3-2,0.3-4c2.9-3.4,5.8-6.7,8.7-10c0.5-0.6,0.8-1,0.4-1.8
		c-2.8-4.4-3.8-9.4-3.8-14.6c0-0.1,0-0.2,0-0.3c0.2-2,0.2-2-1.6-2.6c-6.1-2-12.3-4.1-18.4-6.1c-3.6-1.1-7.1-2.3-10.7-3.4
		c-1.8-1.3-1.8-1.8-0.4-3.5c7.2-8.1,14.3-16.2,21.6-24.3c0.7-0.8,1.8-1.3,2.8-1.7c1.5-0.6,3.1-0.9,4.7-1.3c0.2,0,0.4,0,0.6-0.1
		c8-1.9,16.1-3.8,24.1-5.8c0.4-0.1,0.7-0.3,0.9-0.6c2-2.3,4.1-4.7,6.1-7c5-5.8,10.3-11.4,16.1-16.4c3.8-3.3,7.7-6.6,11.5-9.8
		c2.4-1.8,4.8-3.6,7.3-5.4c10.4-7.6,21.3-14.2,33.1-19.4c4-1.8,8.1-3.2,12.2-4.9c0.3,0,0.5-0.1,0.8-0.2c8.2-2.7,16.6-4.5,25.2-5.4
		c0.3,0,0.6,0,0.8,0c4.2,0.1,8.4,0.1,12.6,0.3c2.5,0.1,2.5,0.3,3.1,3c0.3,5.8,0,11.6-0.9,17.3c-2.7,15.9-8.9,30.5-17.2,44.2
		c-13.3,22.1-30.3,41.1-50,57.7c-0.8,0.6-1.3,1.5-1.5,2.4c-2,9.6-4.1,19.3-6.2,28.9c-0.2,0.8-0.6,1.6-1.2,2.2
		c-8.3,7.5-16.6,14.9-25,22.2c-0.5,0.4-1.3,0.4-2.1,0.6c-0.5-0.8-1-1.6-1.3-2.4c-1.4-4.2-2.8-8.3-4.2-12.5
		c-1.5-4.8-3.1-9.7-4.6-14.5c0-0.2-0.3-0.3-0.4-0.5c-0.1-2.5-0.2-2.5-2.5-2.2c-5.9,0.6-11.8,0.5-17.5-1.5c-0.9-0.3-1.4-0.1-2,0.6
		c-3.2,3.4-6.6,6.7-9.8,10.1c-1.6,1.6-2,1.6-3.6,0C203.3,302.5,200.7,299.9,198.1,297.4L198.1,297.4z M264.8,235l0.3,0.4
		c0.1,0.3,0.4,0.6,0.6,0.9c5.3,5.1,11.6,6.9,18.8,5.4c2.7-0.6,5.3-1.7,7.4-3.6c4.5-3.5,6.9-8.1,7.4-13.7c0.3-3.9-0.2-7.7-2.4-11.1
		c-0.1-0.2-0.2-0.4-0.3-0.6c-7.5-12.6-26.1-12.5-33.4,0.2c-3.1,5.4-3.6,11.1-1.3,16.9C262.8,231.6,263.8,233.3,264.8,235L264.8,235z
		"/>
</g>
<path class="st38" d="M291.6,238.2c-2.1,1.9-4.6,3-7.4,3.5c-7.1,1.5-13.4-0.3-18.7-5.4c-0.2-0.3-0.4-0.6-0.6-0.9l-0.3-0.4v0
	c-0.1-0.4-0.2-0.7-0.4-1.1c-2.3-4.3-2.7-8.8-1.2-13.5c1-2.9,2.7-5.5,5-7.4c4.7-4.1,10.1-5.3,16-3.7c3.1,0.8,5.7,2.6,7.9,5
	c4.9,5.3,6,13.6,2.3,19.8C293.5,235.6,292.5,236.9,291.6,238.2L291.6,238.2z"/>
<path class="st39" d="M296.6,213.6c-0.3-0.1-0.6-0.2-0.8-0.4c-3.6-4.2-8-6.5-13.6-6.9c-4.7-0.4-8.9,0.8-12.6,3.5
	c-4.7,3.4-7.5,8-7.8,13.9c-0.1,1.9,0.1,3.8,0.2,5.7c0,0.2-0.1,0.4-0.2,0.6c-2.3-5.8-1.8-11.5,1.3-16.8c7.3-12.6,25.8-12.7,33.3-0.2
	C296.4,213.2,296.5,213.4,296.6,213.6L296.6,213.6z"/>
</svg>
