<svg id="Layer_1" data-name="Layer 1" xmlns="http://www.w3.org/2000/svg" viewBox="0 0 125.89 138.22"><title>ruff-ruff-logo</title><path d="M64.77,83.92c.87,6.24.13,13.11,5.57,18.71,3.18,3.27,1.93,8.31-1.41,11.17a9.11,9.11,0,0,1-11.92.14c-3.58-3-5-8.16-1.72-11.55C60.67,96.77,60.18,90,60.82,83.3c.16-1.64,1-3.82-1.71-4.49-2.47-.61-4.34-3.75-7.56-1.07-5.26,4.37-11.87,7-14.09,14.71-1.36,4.69-6.89,6.18-11.28,4.42a9,9,0,0,1-5.8-9.94c.88-4.8,5.25-8.83,10.07-7.6C37.64,81.16,43,77.57,48.87,75c1.25-.55,3.73-1,2.92-2.7-1.36-2.79,1.11-6.86-2.57-8.54-5.77-2.63-11.06-6.6-18.32-4.55-5,1.4-9.36-2.25-10.36-7.09a9.48,9.48,0,0,1,6.5-11c4.66-1.31,10,.94,11.18,5.89,1.84,7.42,8.61,9.25,13.39,13.34.33.28,1.15.52,1.33.35,2.18-2.09,4.92-3.35,7.3-5.08,1.55-1.13.37-3.76.19-5.7C60,45,59.57,40.27,55.67,36.22c-3.51-3.64-2.59-8.91,1-12.06A9.07,9.07,0,0,1,69,24.35c3.47,3.24,4.14,8.4.68,12.13-3.09,3.33-4.08,7-4.57,11.23C64.18,55.38,65,57,72,60.2c.66.31,1.23.57,1.8.1,4.73-3.93,11.34-5.68,13.29-12.79A9,9,0,0,1,97.9,40.83a8.52,8.52,0,0,1,.9.26c4.37,1.44,7,6.48,5.91,11.31a8.76,8.76,0,0,1-10.29,6.87c-.28-.06-.56-.13-.83-.21C86.24,56.84,81,61.28,75.5,64.15c-2.75,1.42-1.1,5.77-2.19,8.7-.61,1.65,2.24,2,3.63,2.64,5.81,2.75,11.3,5.85,18.45,4,4.59-1.2,8.8,3,9.44,7.63A8.82,8.82,0,0,1,98.93,97c-4.47,1.58-9.71-.13-11.06-5-2.22-8-9.14-10.6-14.76-14.71C70.12,75.16,64.6,79.47,64.77,83.92Z" style="fill:#09cbcd"/><path d="M68.81,0l51,29.38c-8.67,6.69-10.36,6.81-19,1.81q-12.51-7.25-25-14.44C68,12.25,66.94,9.78,68.81,0Z" style="fill:#09cbcd"/><path d="M5.61,108.81c6.43-5.75,12.27-6.65,19.31-1.84,7.68,5.24,16,9.46,24.11,14.15,8.38,4.86,9.14,6.55,7.49,17.1Z" style="fill:#09cbcd"/><path d="M5.79,29.34,56.59,0c1.89,9.89.92,12.15-7,16.72-8.2,4.76-16.71,9.07-24.54,14.38C18.1,35.83,12.23,35.2,5.79,29.34Z" style="fill:#09cbcd"/><path d="M119.67,108.53,69,138.14c-2.07-9.45-.92-12.14,6.83-16.63,8.35-4.83,17-9.25,25-14.62C107.56,102.33,113.29,102.78,119.67,108.53Z" style="fill:#09cbcd"/><path d="M0,39.51c8.31,2.38,11.56,7.27,11,15.66-.68,9.43-.15,19-.16,28.43,0,9.12-1.38,11-10.81,14.26Z" style="fill:#08cbcd"/><path d="M125.39,98c-9.84-4-10.69-5.19-10.69-15.06V51a11.08,11.08,0,0,1,9.07-10.91c2.86-.57,2,1.59,2,2.77.08,8.31,0,16.62,0,24.93V96.74A6.3,6.3,0,0,1,125.39,98Z" style="fill:#08cbcd"/></svg>