<?xml version="1.0" encoding="utf-8"?>
<!-- Generator: Adobe Illustrator 26.0.1, SVG Export Plug-In . SVG Version: 6.00 Build 0)  -->
<svg version="1.1" id="Layer_1" xmlns="http://www.w3.org/2000/svg" xmlns:xlink="http://www.w3.org/1999/xlink" x="0px" y="0px"
	 viewBox="0 0 172.2 173.1" style="enable-background:new 0 0 172.2 173.1;" xml:space="preserve">
<style type="text/css">
	.st0{fill:url(#SVGID_1_);}
	.st1{fill:#27233E;}
	.st2{fill:url(#SVGID_00000072254982906073155600000004562562255627525002_);}
	.st3{fill:url(#SVGID_00000119802495695804344090000007609176479922193575_);}
</style>
<linearGradient id="SVGID_1_" gradientUnits="userSpaceOnUse" x1="86.55" y1="783.04" x2="86.55" y2="770.0601" gradientTransform="matrix(1 0 0 1 0 -668)">
	<stop  offset="0" style="stop-color:#B5E0DA"/>
	<stop  offset="0.63" style="stop-color:#3CBAB2"/>
	<stop  offset="0.97" style="stop-color:#00A89E"/>
	<stop  offset="1" style="stop-color:#00A69C"/>
</linearGradient>
<polygon class="st0" points="81.4,102.1 82.5,107.5 84.6,104.8 86.6,115 88.6,104.8 90.6,107.5 91.7,102.1 "/>
<path class="st1" d="M92,93.4V78c0-3-5.4-10.6-5.4-10.6S81.2,75,81.2,78v15.4c-3.5,1.1-6.6,3.4-8.8,6.4h28.4
	C98.6,96.8,95.5,94.5,92,93.4z"/>
<linearGradient id="SVGID_00000032642042356041694250000018136826273975415446_" gradientUnits="userSpaceOnUse" x1="144" y1="785.1" x2="144" y2="768.98" gradientTransform="matrix(1 0 0 1 0 -668)">
	<stop  offset="0" style="stop-color:#B5E0DA"/>
	<stop  offset="0.63" style="stop-color:#3CBAB2"/>
	<stop  offset="0.97" style="stop-color:#00A89E"/>
	<stop  offset="1" style="stop-color:#00A69C"/>
</linearGradient>
<path style="fill:url(#SVGID_00000032642042356041694250000018136826273975415446_);" d="M152.1,109c0-4.5-3.6-8.1-8.1-8.1
	s-8.1,3.6-8.1,8.1s3.6,8.1,8.1,8.1l0,0C148.5,117.1,152.1,113.4,152.1,109z M139.3,109c0-2.6,2.1-4.7,4.7-4.7s4.7,2.1,4.7,4.7
	s-2.1,4.7-4.7,4.7l0,0C141.4,113.7,139.3,111.6,139.3,109z"/>
<linearGradient id="SVGID_00000166656113954037065390000004903023955343834279_" gradientUnits="userSpaceOnUse" x1="86.1024" y1="841.1" x2="86.1024" y2="668" gradientTransform="matrix(1 0 0 1 0 -668)">
	<stop  offset="0" style="stop-color:#B5E0DA"/>
	<stop  offset="0.63" style="stop-color:#3CBAB2"/>
	<stop  offset="0.97" style="stop-color:#00A89E"/>
	<stop  offset="1" style="stop-color:#00A69C"/>
</linearGradient>
<path style="fill:url(#SVGID_00000166656113954037065390000004903023955343834279_);" d="M86.6,0C38.8,0.1,0.1,38.8,0,86.6
	c0,33,20.3,59.5,47.2,61.8c16.4,1.4,32.2-4.5,42.6-9.6c6.2-2.6,12-6.1,17.2-10.4l1.1-0.9l0,0c0.8-0.7,1.6-1.4,2.4-2.1
	c9.8-9.2,21.4-25.9,21.4-52.7v-3l-45-30.9L42,69.6v2.9c0,26.8,11.6,43.4,21.4,52.7c1.1,1.1,2.3,2.1,3.6,3.2c4.1-1.5,8.2-3,12.2-4.8
	c-10.2-6.6-25-20.9-25.9-48.2L87,52.3l33.7,23.1c-0.8,22-10.7,35.5-19.3,43.1l-1.1,0.8c-0.3,0.2-26.2,19.9-52.1,17.8
	c-16.1-1.3-29.2-14.5-34.5-32.8c4.1-2.9,5.1-8.7,2.2-12.8c-1.1-1.6-2.7-2.8-4.6-3.4c0-0.6,0-1.1,0-1.7c0-10.6,2.2-21.1,6.6-30.7
	c2.6,1.1,5.5,1.6,8.3,1.6c12.1,0,21.9-9.8,21.8-21.9c0-3.6-0.9-7.1-2.6-10.2c-0.2-0.5-0.5-0.9-0.8-1.3c34.5-23.2,81.3-14,104.5,20.5
	c0.3,0.4,0.6,0.9,0.9,1.3c-6.6,5.6-7.4,15.5-1.8,22.1c3,3.5,7.4,5.6,12,5.6c0.2,0,0.5,0,0.7,0c0.8,4.3,1.2,8.7,1.2,13.1
	c0,39.1-31.1,70-75.6,75.4C50.8,166.4,28,151.6,28,151.6c13.3,14.7,31.9,21.5,58.6,21.5c47.8-0.5,86.1-39.7,85.6-87.5
	C171.7,38.5,133.6,0.5,86.6,0z M14,98.2c-0.2,1-0.7,1.9-1.3,2.6C12,97.9,11.6,95,11.4,92C13.5,93.3,14.5,95.8,14,98.2z M42.4,26.8
	c4.8,9,1.4,20.3-7.7,25.1c-4.8,2.6-10.5,2.9-15.6,0.9C24.5,42.2,32.3,33,41.8,25.9C42,26.2,42.2,26.5,42.4,26.8L42.4,26.8z
	 M160.1,70.1c-6.8,0-12.4-5.5-12.4-12.3c0-3.5,1.4-6.8,4-9.1C155.6,55.3,158.4,62.5,160.1,70.1L160.1,70.1z"/>
</svg>
