<?xml version="1.0" encoding="utf-8"?>
<!-- Generator: Adobe Illustrator 26.2.1, SVG Export Plug-In . SVG Version: 6.00 Build 0)  -->
<svg version="1.1"
	 id="svg4586" inkscape:version="0.92.4 (5da689c313, 2019-01-14)" sodipodi:docname="sapp-slider-logo.svg" xmlns:cc="http://creativecommons.org/ns#" xmlns:dc="http://purl.org/dc/elements/1.1/" xmlns:inkscape="http://www.inkscape.org/namespaces/inkscape" xmlns:rdf="http://www.w3.org/1999/02/22-rdf-syntax-ns#" xmlns:sodipodi="http://sodipodi.sourceforge.net/DTD/sodipodi-0.dtd" xmlns:svg="http://www.w3.org/2000/svg"
	 xmlns="http://www.w3.org/2000/svg" xmlns:xlink="http://www.w3.org/1999/xlink" x="0px" y="0px" viewBox="0 0 500 500"
	 style="enable-background:new 0 0 500 500;" xml:space="preserve">
<style type="text/css">
	.st0{fill:#6666FF;}
</style>
<g id="g24" transform="scale(0.34828727,0.3599111)">
	<path id="path8" inkscape:connector-curvature="0" class="st0" d="M1137.4,207.3c-4.7,0-8.9,0-13.6,0.4h-120.8v25.6
		c42.8,0,85.2,0.4,128,0c10.6,0.4,22-0.4,31.8,3c8.5,3.8,15.7,12,22.5,18.4c68.6,71.7,139,141.3,207.6,213
		c-225.8,229.7-452.1,459.4-678,689.1C488.2,926.7,262.4,697,36.1,466.9c67.8-68.3,134.3-137,202.1-205.3
		c12.3-11.5,23.3-27.7,42.4-27.3c54.7-0.9,109.7,0.4,164.8-0.4c0.8,0,2.1,0,3,0h95.3l14-26.5H366.2l0,0H306
		c-15.7,0-31.4-0.9-46.6,1.7c-9.7,2.1-17.8,9.8-24.6,16.2c-65.3,66.2-130.1,132.3-194.9,198.9c-13.6,14.1-27.1,29.9-42.8,41.4v1.7
		c36,33.7,69.5,70,104.2,105c204.7,207.9,409.3,415.4,614,622.9c226.7-230.1,453-459.8,679.2-689.9c12.7-12.8,24.2-25.6,38.1-37.1
		V466c-12.7-11.1-24.2-23.9-36-35.9c-67.8-69.2-136-137.9-203.4-207.5c-6.4-6-13.6-13.2-22.9-14.5
		C1159.4,207.7,1148.4,207.3,1137.4,207.3z"/>
	<path id="path10" inkscape:connector-curvature="0" class="st0" d="M1003.1,254.7v26h83.5c17.4,0.4,34.3,0,51.3,1.7
		c8.1,0.4,13.1,6.4,18.6,11.5c55.9,56.8,111.4,114.4,167.8,171.2c-191.9,195.5-383.9,391.1-575.8,586.6
		c-10.6,11.1-21.6,21.8-32.6,32.9C513.2,878,310.7,671.8,107.7,465.6c54.2-56.4,108.9-111.9,163.6-167.4c5.5-6,11.9-11.1,18.6-14.9
		c8.5-1.7,16.9-2.6,25.4-2.1c70.3,0.4,140.7,0.4,211,0.4c0-7.3,1.7-14.1,4.2-20.5v-0.4c0-0.4,0-0.4,0.8-1.3c0.4-1.3,1.3-2.1,1.7-3.4
		H372.6l0,0c-23.3,0-46.6,0-69.9,0h-0.4c-12.3,0.4-23.7,0-33.9,8.1c-13.1,10.2-23.7,23.5-35.2,35.4
		c-54.7,54.6-109.7,110.1-163.6,166.1C284.8,685,500.1,904,715.8,1123.1c204.2-207.9,408.1-415.4,612.3-622.9
		c10.6-11.1,23.3-21.8,32.2-34.6c-3.4-5.1-7.2-10.2-11.9-14.5c-51.7-52.5-102.5-105-154.2-157.1c-11-11.1-21.2-23.5-33.9-32.9
		c-9.7-6.8-24.2-6.4-35.6-6.4L1003.1,254.7z M372.6,255.1c52.5,0,105.1,0,158.1,0H372.6z M528.9,264.9c-1.7,4.7-2.1,9.8-2.5,14.9
		l0,0C526.4,274.8,527.2,270.1,528.9,264.9z"/>
	<path id="path12" inkscape:connector-curvature="0" class="st0" d="M344.6,304.2L344.6,304.2c-5.9,0.4-11.9,0.4-17.8,0.4
		c-1.3,0-2.1,0-3.4,0c-7.6,0-15.3,0.9-22.9,2.6c-8.5,3-15.7,10.2-21.6,15.8c-46.6,47.4-92.4,94.8-138.6,142.2
		C331.5,660.7,523.8,855,714.9,1050.5c19.9-19.2,39.4-39.7,58.9-59.3c171.6-175.5,343.6-350.5,516.1-525.5
		c-41.9-44.8-86-87.9-128.8-132.3c-8.1-9-16.5-16.6-26.3-23.5c-8.1-4.7-18.6-4.7-28-4.7h-103.8v26.5c30.5,0,60.6,0,91.1-0.4
		c11,0.4,23.7-0.9,32.2,6.8c11,9.8,21.6,20.1,31.8,31.2c30.5,32,63.1,62.8,92.4,95.6c-8.5,12-20.3,22.6-30.9,33.3
		c-168.6,170.8-336,342.8-505.1,513.2C548.4,842.1,382.3,673.1,216.2,504c-12.3-12.8-26.3-24.8-36.9-38.8
		c7.6-11.5,19.1-21.3,28.4-31.2c27.1-27.7,55.1-55.9,82.2-83.7c5.9-6.4,12.7-12.4,20.8-16.6c8.1-2.1,16.1-3,24.2-2.6
		c64.8,0.4,129.2,0.4,194.1,0.4v-0.4h26.3c-0.4,0-0.8,0-1.3-0.4c-10.6-6-19.1-15.4-23.7-26.5H344.6z"/>
	<path id="path14" inkscape:connector-curvature="0" class="st0" d="M369.2,353.7c-20.3,0-40.7,2.1-58.5,12.4
		c-16.1,9-28,25.6-40.3,38.8c-19.1,20.5-39,40.1-59.3,59.8c30.5,32.9,62.7,64,94.1,96.5c136.4,139.2,272.9,277.9,409.7,416.7
		c167.8-170.8,335.6-341.5,503.4-511.9c-25.4-27.3-52.5-52.5-77.5-79.4c-7.6-9-16.1-17.5-25.8-24.3c-9.7-6.4-22.9-6-33.9-6.4h-78.4
		v25.6c27.5,0.4,55.1,0.9,82.6,0.9c14.4-0.4,22,9.4,31.4,18.4c20.8,21.8,41.9,43.5,63.1,64.9c-154.2,158.8-310.6,315.9-464.8,474.3
		C570,793,425.9,646.2,281.5,498.9c-10.6-10.7-22.5-21.3-30.9-33.7c11.4-14.9,26.3-27.3,39-41.4c12.7-12.4,23.7-26.5,37.7-37.1
		c5.9-4.7,13.1-4.3,20.3-4.7c60.2-1.7,120.8-0.9,181.4-0.9v-0.4h55.5c-6.4-7.3-10.6-15.8-13.1-25.2V355H473c-1.7,0-3.4,0-4.7,0
		C435.3,354.2,402.2,353.7,369.2,353.7z"/>
	<path id="path16" inkscape:connector-curvature="0" class="st0" d="M368.3,404.5c-8.9,0.4-19.5-0.4-28,3.4
		c-10.2,5.5-18.2,15.4-26.3,23.5c-10.2,10.7-22,20.9-30.9,32.9c5.5,10.7,16.1,19.2,24.6,28.2C443.3,630,578.1,768.3,713.7,905.3
		c143.6-146.9,287.7-293.3,431.8-439.7c-16.9-17.5-33.5-36.3-52.1-52.1c-8.9-9-19.1-7.7-30.9-8.1h-60.2V431h34.7
		c14.4,0.4,30.1,0,42.8,8.1c10.6,6.8,19.1,17.9,27.5,27.3C975.9,600.1,844.6,733.3,713.7,867.3C581.9,733.7,450.9,599.2,319.2,466
		c9.7-10.2,18.2-20.5,31.4-26.9c16.9-8.5,36.9-9,55.5-8.5c40.7,1.3,81.4,0.4,122,0.4l0,0h90.3c-3.4-8.1-4.2-17.1-3-25.6H511.5l0,0
		C464.1,404.5,416.2,405,368.3,404.5z"/>
	<path id="path26" inkscape:connector-curvature="0" class="st0" d="M953.9,365.7c-0.4-44.4-1.3-90.5-1.3-132.3v-26.5H607.7
		l-7.2,14.5c-1.3,3-4.7,9.4-7.6,15.8c-2.1,4.7-4.7,9.4-5.5,11.5c-3.8,7.3-6.8,14.1-9.3,20.5c-8.5,23.9,3.8,50.4,27.5,58.9
		c4.7,1.7,9.7,2.6,15.3,2.6h3c-6.4,14.9-3.8,32,6.8,44.4c8.5,11.1,21.6,17.5,35.6,17.9c1.3,0,2.1,0,3.4,0l-0.4,0.9
		c-11,22.2-2.1,48.2,21.2,61.5c7.2,4.3,15.3,6.4,23.7,6.4c1.3,0,2.1,0,3.4,0l-3.8,7.3c-17.8,34.2-36,68.3-54.2,102.9
		c-8.9,15.4-8.1,35,3,49.5c8.9,12,23.3,19.2,38.1,19.2c16.1,0,31.4-9,39-23.5c12.3-22.6,24.6-45.3,33.9-64
		c5.9-11.5,11.4-21.8,15.7-29.5c10.2-19.6,19.5-36.7,27.5-52.9c13.1-25.6,25-47.8,36.9-69.2c1.7-3,3-3,3.4-3h1.3
		c3.8,0.4,7.2,3.4,7.6,7.7c1.7,8.5,2.5,17.1,3,25.6c0,2.1,0,4.7,0,6.8c0,8.1,0,17.1,0.8,26c2.1,25.6,22.5,45.7,48.3,47
		c1.3,0,2.1,0,3,0c8.9,0.4,17.8-3,24.6-9.4c6.8-6.8,10.2-16.2,9.7-26C954.8,440.8,954.3,402.4,953.9,365.7z M919.6,485.2
		c-12.7-0.4-22.9-10.2-23.3-23.1c-0.8-10.2-0.8-20.5-0.8-31.2c0-10.2-1.3-20.5-3.4-30.7c-3-14.5-14.4-25.6-28.8-28.2
		c-13.1-2.6-26.3,3.8-32.2,15.8c-19.9,35-37.7,71.3-64.8,122.5c-11,20.5-29.7,57.2-49.2,93.1c-7.6,14.1-25.4,11.1-33.1,1.3
		c-5.1-6-5.1-14.9-0.8-21.3c24.6-46.1,48.7-92.6,72.9-138.7c5.9-11.1,11.4-21.8,17.4-32.9c5.1-9.8,3-19.2-5.9-24.3
		c-8.9-5.1-17.4-2.6-22.9,7.7c-5.5,9.8-10.6,20.1-16.1,29.9c-5.5,9.8-15.3,12-25,6c-11-6.4-15.3-16.6-10.6-26.5
		c8.9-17.9,18.6-35.4,27.5-53.4c4.7-8.1,1.7-18.4-6.4-22.6c-2.1-1.3-4.7-2.1-7.2-2.1c-5.9-0.4-11.4,2.6-14,7.7
		c-3.8,6.8-7.2,14.1-11,20.9c-7.2,12.4-20.8,13.2-30.5,1.7c-4.7-5.1-5.5-12.4-2.1-18.4c7.2-13.7,14.4-27.3,21.6-41
		c5.1-9.8,3-19.2-5.5-24.3s-17.8-2.1-23.3,8.1c-2.5,4.3-4.7,9-7.2,13.2c-3.8,7.7-13.1,11.1-21.2,6.8c-0.4,0-0.8-0.4-0.8-0.4
		c-8.5-4.3-12.7-14.1-9.7-23.1c2.5-6.4,5.5-12.4,8.5-18.4c2.5-5.1,10.6-21.8,13.1-26.9h302.5c0,77.3,2.1,165.6,2.5,242.9
		C928.9,483.5,925.9,485.2,919.6,485.2L919.6,485.2z"/>
	<path id="path30" inkscape:connector-curvature="0" class="st0" d="M810.3,544.2l-16.1,30.7c2.5,9,3.8,18.8,3.8,28.2
		c0,55.9-45.3,101.6-100.8,101.6S596.3,659,596.3,603.1c0-42.3,25.8-79.8,65.3-94.8l16.5-31.6c-69.5,10.7-117.4,75.6-106.8,145.6
		s75,118.3,144.5,107.6c69.5-10.7,117.4-75.6,106.8-145.6C820.9,570.2,816.6,556.5,810.3,544.2L810.3,544.2z"/>
</g>
</svg>
