<?xml version="1.0" encoding="utf-8"?>
<!-- Generator: Adobe Illustrator 27.7.0, SVG Export Plug-In . SVG Version: 6.00 Build 0)  -->
<svg version="1.1" id="Layer_1" xmlns="http://www.w3.org/2000/svg" xmlns:xlink="http://www.w3.org/1999/xlink" x="0px" y="0px"
	 viewBox="0 0 500 500" style="enable-background:new 0 0 500 500;" xml:space="preserve">
<style type="text/css">
	.st0{fill:#FFFFFF;}
	.st1{fill:#3800D6;}
</style>
<circle class="st0" cx="250" cy="250" r="250"/>
<path class="st1" d="M362,139.1c0,0,14.9-37,13-45.5c-1.8-8.2-1.9-10.8-15.4-20.8c-5.4,2.4-15,5.9-22.9,4.4
	c-11.6-2.2-17.5-6.2-23-11c-5.5-4.9-8.5-12.1-9-16.3c-0.1-1,1-1.8,1.9-1.2c4.8,3.5,8.6,9.8,22.1,14.3c7.7,2.6,14,1.8,17.8,0.5
	c-17.1-11.8-41.9-28-56.6-32.9c-18.9-6.2-27.4,5.9-27.4,5.9l-17.7,28c0,0,29.8,4.4,60.2,21.4C335.4,102.9,362,139.1,362,139.1z"/>
<path class="st1" d="M409.5,181.1c-3.7,0.5-9.4,0.5-16.9-1.4c-29.7-8.3-47.9-57.3-99.3-88.1c-82.1-42.4-126.1-4.1-126.1-4.1
	c-5.7,3.9,0.1,6.3,0.1,6.3l27,13.6l12.7,6.7c0,0-8.1,10.4-24.5,2.4c-5.4-2.3-16.2-3-24.5,4.5c-9.1,5-5.1,19.5-11.8,28.8
	c-6.5,9.2-19.6,7.7-21.1,21.1c-1.2,13.6,9.6,16.2,9.9,26.3c0.3,10.1-3.5,15.9-4.5,18.6c-0.4,1.2-0.6,2.6-0.6,4
	c0.1,1.9,1,3.9,2.3,5.4c1,1.2,1.9,1.9,3,2.6c4.4,3,8.1,6.8,10.5,11.4c0.4,0.8,0.8,1.5,1.3,2.3c0.4,0.6,0.8,1.4,1.3,2.3
	c2.8,5,4,10.9,3,16.7c-0.3,1.5-0.1,3.3,0.4,5c1,3.1,3.7,5.4,6.9,6.3c4.8,1.2,8.9,4,11.7,8c0.3,0.3,0.4,0.6,0.6,0.9
	c3.9,5.4,3.1,13.9,4.6,20c1.5,6.2,6.7,8.1,14.1,12.3c7.4,4.2,9,10.9,5.9,14.1c-3.1,3.2-21.3-4.6-28.6,4.1c-5.4,5-3.1,8.2-5.8,17.7
	c-2.7,9.6-10.9,2.6-15.3,9.2c-4.4,6.7-5,13.9-2.8,28.1c2.2,14.3,16.1,33.9,16.1,33.9s-7.4-25.9,8.7-48.2
	c13.7-16.2,24.3-18.4,39.8-18.6c15.7-0.4,38.8,13.7,43.5,41.5c2.4,18.4-7.6,29-8.3,30c-1.8,2.1-16.6,18.4-36.2,7.4
	c-5.4-3.7-10.1-7.6-13.4-15c-2.3-6.8-3-15.9,0.9-22.1c3.2-5.1,8.3-6.7,9.9-6.8c2.3-0.3,7.3-0.1,10.5,2.3s6.7,6,6,12.2
	s-7.1,8-9.5,7.4c-2.1-0.4-0.6-0.1-0.1,0c-4-0.3-5.8-3.3-6.5-5.5c-0.1-0.5-0.9-0.4-1,0.1c-1.2,8.5,5.3,13.9,9.1,14.8
	c4.2,0.9,10.5,0.8,15.7-4.5c4.5-4.5,6.9-8.3,6.9-18.2c0-8.1-3.3-13.7-8.9-18.6c-7.2-6.7-16.7-9.2-23.2-8.7
	c-6.2,0.5-16.9,3.1-24,14.3c-6.5,10.3-9.4,24.4-3.9,40.2l0.3,0.5c12.6,29.4,42,36.9,62.3,36.9c4.1,0,7.8-0.3,10.9-0.8
	c0.6-0.1,15.2-2.3,29.3-11c17.5-11.6,27.9-28.2,27.9-54.1c0-34.3-15-57.1-45.8-92.8c-5.9-7.3-29.9-37-34.3-42.8
	c-21.4-27.7-45.5-60.4-33.5-85.1c0.4-0.8,0.8-1.4,1.2-2.2c17.8-32.7,68.2-24.7,57.1-22.6c-19.1,3.2-30.6,11.7-34,15.4
	c-3.5,3.7-5.4,6.9-7.7,13c-4,9.9-0.8,25.2,7.7,38.5c36.9,52.3,91.3,117.4,98,133c8.6,19.8,9.9,35.4,9.8,45.1c-0.1,9.6-2.4,25-2.4,25
	s12.7-10.1,18.7-22.5c6-12.3,7.1-18.2,5.3-22.9c-1.9-4.6-6.7-4.8-8.6-12.3s3.5-14.3-2.2-26.3c-2.4-5.3-15.4-13-22.1-21.4
	s-18.9-23.6-28-35.8c-16.4-21.8-21.8-29.3-31.3-41.6c10.3,3.1,23.1,7.3,52.6-6.4c27.4,14,46.1,13.2,52.6,12.8s12.7-3.3,17.5-7.1
	c3.1-2.4,5.4-7.3,6.8-10.5c0.5-1.2-0.6-2.2-1.8-1.8c-23,9.5-44.2,1.8-70.2-12.7l-4.6-2.6l-4.6,2.4c-27.4,14.6-56.1,3.2-58.7,2.2
	c-1-0.5-8.9-4.6-12.3-11.6c-3.5-6.9-4.2-14.3-1.7-20.4c2.1-5,6.9-8.3,14.9-10c6.5-0.8,15,1.7,21.8,4.4c1.5,0.6,3-0.9,2.3-2.3
	c-0.8-2.1-1.3-4.2-1.3-6.5c0-3.9,1.3-7.3,3.3-10.1l9.1,4.2c-1.5,1.5-2.4,3.9-2.2,6.4c0.4,3.3,3.2,6.2,6.5,6.5
	c4.5,0.6,8.2-2.7,8.6-6.9l8.6,4c-1.5,6.3-6.4,11.2-12.7,12.7c-1.3,0.3-1.4,1.9-0.1,2.3c11.7,5.5,45.8,21.4,45.8,21.4
	s19.8,11,37.1,8.9c16.7-0.9,24.1-14.1,14.3-12.8c-9.9,1.3-33.3-8.9-33.3-8.9l-15.7-7.3l6.5-10.1c0,0,22.3,12.7,42.1,17.1
	c13.1,2.8,22-4.6,26.5-10C412.7,183.1,411.4,180.8,409.5,181.1z M226.7,136.5c-8.3,1-21.1,4.9-28.2,8.3c-2.7,1.3-5,2.6-6.9,3.7
	c-6.3,4.1-11.9,10.3-16.4,18.7c-17.6,34.2,14.6,76,40.6,109.7c4.4,5.7,8.3,10.9,11.9,15.8c5.5,7.6,11.6,15,17.5,22.1
	c15.2,18.6,31.8,38.4,39,60.4c1.9,7.7,2.2,14.9,1.3,20.7c-3.1,18-18.7,24.1-18.7,24.1c2.3-7.4,3.6-17.1,2.2-28.1v-0.3
	c-4.8-25.8-25.7-48.7-25.7-48.7c-5-6.7-10.4-13.6-14.8-19.3c-44-56.6-48.4-63-58.8-81.9l-0.1-0.3c-0.3-0.5-0.6-1.2-1-1.8
	c-6-10.1-22.2-37.2-15.2-65.6c1.7-6.5,4.6-12.5,8.9-17.6C187.9,123.1,237.3,134.5,226.7,136.5z"/>
</svg>
