<?xml version="1.0" encoding="utf-8"?>
<!-- Generator: Adobe Illustrator 22.1.0, SVG Export Plug-In . SVG Version: 6.00 Build 0)  -->
<svg version="1.1" id="Layer_1" xmlns="http://www.w3.org/2000/svg" xmlns:xlink="http://www.w3.org/1999/xlink" x="0px" y="0px"
	 viewBox="0 0 197.9 222.2" style="enable-background:new 0 0 197.9 222.2;" xml:space="preserve">
<style type="text/css">
	.st0{fill:url(#SVGID_1_);}
	.st1{fill:url(#SVGID_2_);}
	.st2{fill:url(#SVGID_3_);}
	.st3{fill:url(#SVGID_4_);}
	.st4{fill:url(#SVGID_5_);}
	.st5{fill:url(#SVGID_6_);}
	.st6{fill:url(#SVGID_7_);}
	.st7{fill:url(#SVGID_8_);}
</style>
<title>LEO</title>
<linearGradient id="SVGID_1_" gradientUnits="userSpaceOnUse" x1="56.195" y1="700.57" x2="56.195" y2="798" gradientTransform="matrix(1 0 0 1 -15.82 -616.04)">
	<stop  offset="0" style="stop-color:#F6E93D"/>
	<stop  offset="0.13" style="stop-color:#F8E330"/>
	<stop  offset="0.35" style="stop-color:#F7C730"/>
	<stop  offset="0.64" style="stop-color:#F59C2E"/>
	<stop  offset="0.98" style="stop-color:#EB5E2C"/>
	<stop  offset="1" style="stop-color:#EB5C2C"/>
</linearGradient>
<polygon class="st0" points="46.1,95.2 46.2,95.2 47.9,95.8 49.5,96.4 51.2,96.9 52.8,97.6 54.5,98.2 56.1,98.8 57.8,99.4 59.4,100 
	61,100.6 62.6,101.2 64.3,101.8 65.9,102.5 67.6,103 69.2,103.6 70.9,104.2 72.5,104.9 74.2,105.5 75.8,106 77.4,106.6 79.1,107.3 
	80.8,107.9 80.8,105.3 80.8,104.9 80.8,102.8 80.8,102.8 80.8,101.3 80.8,100.2 80.8,97.6 80.8,95.1 80.8,92.5 80.8,90 80.8,87.3 
	80.8,84.8 80.8,84.5 80.8,84.5 80.8,84.5 78.8,84.5 76.9,84.5 76.9,84.5 76.7,84.5 74.6,84.5 73,84.5 73,84.5 72.4,84.5 70.3,84.5 
	69.2,84.5 69.2,84.5 68.1,84.5 65.9,84.5 65.3,84.5 65.3,84.5 63.8,84.5 61.7,84.5 61.6,84.5 61.5,84.5 59.5,84.5 57.7,84.5 
	57.7,84.5 57.4,84.5 55.2,84.5 53.8,84.5 53.8,84.5 50,84.5 50,84.5 46.2,84.5 46.1,84.5 43.9,84.5 42.3,85.3 38.5,87.3 34.6,89.4 
	30.7,91.3 27,93.3 23.1,95.4 19.2,97.3 15.4,99.4 11.5,101.4 7.7,103.3 3.9,105.4 0.4,107.2 0,164.5 3.9,167.2 7.7,169.9 
	11.5,172.5 15.4,175.3 19.2,178 23.1,180.7 24.8,182 27,179.2 30.7,174.2 31.1,173.7 30.7,173.4 27,170.7 23.1,168 19.2,165.3 
	15.4,162.6 11.5,159.8 10.5,159.2 10.8,112.8 11.5,112.4 15.4,110.5 19.2,108.6 23.1,106.7 27,104.8 30.7,102.8 34.6,100.9 
	38.5,99.1 42.3,97.1 "/>
<linearGradient id="SVGID_2_" gradientUnits="userSpaceOnUse" x1="94.485" y1="757.28" x2="94.485" y2="838.23" gradientTransform="matrix(1 0 0 1 -15.82 -616.04)">
	<stop  offset="0" style="stop-color:#F6E93D"/>
	<stop  offset="0.13" style="stop-color:#F8E330"/>
	<stop  offset="0.35" style="stop-color:#F7C730"/>
	<stop  offset="0.64" style="stop-color:#F59C2E"/>
	<stop  offset="0.98" style="stop-color:#EB5E2C"/>
	<stop  offset="1" style="stop-color:#EB5C2C"/>
</linearGradient>
<polygon class="st1" points="112.3,204.5 109.1,205.8 105.5,207.3 101.9,208.7 98.3,210.2 96.7,210.8 94.8,209.9 91.2,208 
	87.6,206.3 84.1,204.4 80.5,202.6 76.9,200.9 73.3,199 69.7,197.2 66.1,195.4 62.5,193.6 58.9,191.7 55.5,190 51.9,188.2 51.5,188 
	51.5,141.2 48.3,141.2 44.7,141.2 41.1,141.2 41.1,194.4 44.7,196.1 48.3,197.9 51.9,199.8 55.5,201.5 58.9,203.4 62.5,205.2 
	66.1,207 69.7,208.8 73.3,210.6 76.9,212.4 80.5,214.2 84.1,216.1 87.6,217.8 91.2,219.7 94.8,221.4 96.2,222.2 98.3,221.2 
	101.9,219.9 105.5,218.4 109.1,216.9 112.6,215.5 116.2,214.1 112.6,205.1 "/>
<linearGradient id="SVGID_3_" gradientUnits="userSpaceOnUse" x1="139.615" y1="733.63" x2="139.615" y2="824.07" gradientTransform="matrix(1 0 0 1 -15.82 -616.04)">
	<stop  offset="0" style="stop-color:#F6E93D"/>
	<stop  offset="0.13" style="stop-color:#F8E330"/>
	<stop  offset="0.35" style="stop-color:#F7C730"/>
	<stop  offset="0.64" style="stop-color:#F59C2E"/>
	<stop  offset="0.98" style="stop-color:#EB5E2C"/>
	<stop  offset="1" style="stop-color:#EB5C2C"/>
</linearGradient>
<polygon class="st2" points="176.2,139.5 176.4,161.5 175.5,162.3 169.4,166.5 163.3,170.9 157.2,175.3 151.1,179.6 145,183.9 
	139,188.3 132.9,192.6 129.3,195.2 126.8,193.3 120.8,188.6 114.7,184 108.6,179.3 102.6,174.7 101.5,173.9 101.5,150.2 
	102.6,149.2 108.6,142.8 114.7,136.5 120.8,130.1 126.8,123.8 132.7,117.6 126.8,117.6 120.8,117.6 114.7,117.6 108.6,117.6 
	102.6,117.6 96.4,117.6 90.3,117.6 84.3,117.6 78.2,117.6 72.1,117.6 66.1,117.6 60,117.6 66.1,124 72.1,130.3 78.2,136.6 84.3,143 
	90.3,149.3 91.2,150.2 91.2,178.9 96.4,183 102.6,187.7 108.6,192.3 114.7,197 120.8,201.6 126.8,206.3 129,208 132.9,205.2 
	139,201 145,196.6 151.1,192.2 157.2,188 163.3,183.6 169.4,179.2 175.5,175 181.6,170.6 186.6,166.9 187.6,139.9 181.6,139.7 "/>
<linearGradient id="SVGID_4_" gradientUnits="userSpaceOnUse" x1="66.615" y1="633.97" x2="66.615" y2="704.35" gradientTransform="matrix(1 0 0 1 -15.82 -616.04)">
	<stop  offset="0" style="stop-color:#F6E93D"/>
	<stop  offset="0.13" style="stop-color:#F8E330"/>
	<stop  offset="0.35" style="stop-color:#F7C730"/>
	<stop  offset="0.64" style="stop-color:#F59C2E"/>
	<stop  offset="0.98" style="stop-color:#EB5E2C"/>
	<stop  offset="1" style="stop-color:#EB5C2C"/>
</linearGradient>
<polygon class="st3" points="9.9,88.3 10.6,88.3 10.7,58.9 14.6,56.4 19.5,53.5 24.3,50.6 29.1,47.6 33.9,44.7 38.8,41.7 43.5,38.8 
	48.4,35.9 53.2,32.9 58.1,29.9 58.2,29.9 62.8,32.6 67.7,35.3 72.5,38.1 77.3,40.8 82.1,43.5 86.9,46.2 91.7,49 96.4,51.7 
	96.6,51.3 101.4,42.6 96.6,39.8 91.7,37.1 86.9,34.4 82.1,31.7 77.3,28.9 72.5,26.2 67.7,23.5 62.8,20.7 58.1,18 57.9,17.9 
	53.2,20.7 48.4,23.7 43.5,26.7 38.8,29.7 33.9,32.6 29.1,35.5 24.3,38.5 19.5,41.4 14.6,44.4 9.9,47.3 5,50.2 0.4,53.1 0.2,88.2 
	5,88.2 "/>
<linearGradient id="SVGID_5_" gradientUnits="userSpaceOnUse" x1="187.26" y1="657.82" x2="187.26" y2="764.75" gradientTransform="matrix(1 0 0 1 -15.82 -616.04)">
	<stop  offset="0" style="stop-color:#F6E93D"/>
	<stop  offset="0.13" style="stop-color:#F8E330"/>
	<stop  offset="0.35" style="stop-color:#F7C730"/>
	<stop  offset="0.64" style="stop-color:#F59C2E"/>
	<stop  offset="0.98" style="stop-color:#EB5E2C"/>
	<stop  offset="1" style="stop-color:#EB5C2C"/>
</linearGradient>
<polygon class="st4" points="197.9,61.4 195.4,59.4 192.9,57.4 190.4,55.3 187.9,53.3 185.4,51.3 182.8,49.3 180.3,47.3 177.8,45.3 
	175.2,43.2 173.3,41.8 172.6,42.6 170.1,45.7 167.6,48.9 166.9,49.7 167.6,50.4 170.1,52.5 172.6,54.6 175.2,56.7 177.8,58.8 
	180.3,61 182.8,63.1 185.4,65.2 186.6,66.2 186.7,113.5 185.4,114.4 182.8,116 180.3,117.6 177.8,119.2 175.2,120.8 172.6,122.4 
	170.1,124 167.6,125.6 165.1,127.2 162.6,128.8 160.1,130.4 157.5,132 155,133.6 152.5,135.2 150,136.8 147.4,138.4 144.9,140 
	147.4,144 150,148 150.4,148.7 152.5,147.4 155,145.9 157.5,144.3 160.1,142.8 162.6,141.1 165.1,139.6 167.6,138 170.1,136.5 
	172.6,134.9 175.2,133.4 177.8,131.7 180.3,130.2 182.8,128.6 185.4,127.1 187.9,125.5 190.4,124 192.9,122.3 195.4,120.8 
	197.9,119.2 "/>
<linearGradient id="SVGID_6_" gradientUnits="userSpaceOnUse" x1="128.46" y1="616.04" x2="128.46" y2="726.07" gradientTransform="matrix(1 0 0 1 -15.82 -616.04)">
	<stop  offset="0" style="stop-color:#F6E93D"/>
	<stop  offset="0.13" style="stop-color:#F8E330"/>
	<stop  offset="0.35" style="stop-color:#F7C730"/>
	<stop  offset="0.64" style="stop-color:#F59C2E"/>
	<stop  offset="0.98" style="stop-color:#EB5E2C"/>
	<stop  offset="1" style="stop-color:#EB5C2C"/>
</linearGradient>
<polyline class="st5" points="115.4,89.6 115.4,92.2 115.4,94.8 115.4,97.4 115.4,100.1 115.4,102.8 115.4,105.4 115.4,108 
	115.4,110 116.2,109.7 119.6,108.4 123,107 126.3,105.7 129.7,104.3 133.1,102.9 136.4,101.6 139.8,100.2 143.2,98.9 146.5,97.5 
	149.9,96.2 153.2,94.8 153.2,92.2 153.2,92.2 153.2,91.2 153.2,84.3 153.2,32.9 149.4,30.5 145.5,28.3 141.6,26.1 137.8,23.7 
	133.9,21.5 130,19.3 126.2,17 122.3,14.7 118.5,12.4 114.6,10.2 110.7,7.9 106.9,5.6 103.1,3.4 99.2,1.2 97.1,0 95.3,1 91.4,3.1 
	87.5,5.1 83.8,7.3 79.9,9.4 76,11.4 72.1,13.6 76,15.8 79.9,18 82.3,19.5 83.8,18.7 87.5,16.7 91.4,14.6 95.3,12.6 96.8,11.8 
	99.2,13.2 103.1,15.4 106.9,17.6 110.7,19.9 114.6,22.2 118.5,24.4 122.3,26.7 126.2,29 130,31.2 133.9,33.4 137.8,35.8 141.6,38 
	142.9,38.7 142.9,84.3 142,84.3 141.6,84.3 139.8,84.3 137.8,84.3 137.6,84.3 135.3,84.3 133.9,84.3 133.1,84.3 130.9,84.3 
	130,84.3 128.7,84.3 126.5,84.3 126.2,84.3 124.3,84.3 122.3,84.3 122.1,84.3 119.8,84.3 118.5,84.3 117.6,84.3 115.9,84.3 
	115.6,84.3 "/>
<linearGradient id="SVGID_7_" gradientUnits="userSpaceOnUse" x1="150.08" y1="700.41" x2="150.08" y2="726.1" gradientTransform="matrix(1 0 0 1 -15.82 -616.04)">
	<stop  offset="0" style="stop-color:#F6E93D"/>
	<stop  offset="0.13" style="stop-color:#F8E330"/>
	<stop  offset="0.35" style="stop-color:#F7C730"/>
	<stop  offset="0.64" style="stop-color:#F59C2E"/>
	<stop  offset="0.98" style="stop-color:#EB5E2C"/>
	<stop  offset="1" style="stop-color:#EB5C2C"/>
</linearGradient>
<polyline class="st6" points="115.4,110 153.2,94.8 115.4,84.3 "/>
<linearGradient id="SVGID_8_" gradientUnits="userSpaceOnUse" x1="78.9028" y1="719.6874" x2="87.0628" y2="697.2674" gradientTransform="matrix(1 0 0 1 -15.82 -616.04)">
	<stop  offset="0" style="stop-color:#F6E93D"/>
	<stop  offset="0.13" style="stop-color:#F8E330"/>
	<stop  offset="0.35" style="stop-color:#F7C730"/>
	<stop  offset="0.64" style="stop-color:#F59C2E"/>
	<stop  offset="0.98" style="stop-color:#EB5E2C"/>
	<stop  offset="1" style="stop-color:#EB5C2C"/>
</linearGradient>
<polyline class="st7" points="80.8,110 80.8,84.7 46.2,95 80.8,109.9 "/>
</svg>
