<?xml version="1.0" encoding="utf-8"?>
<!-- Generator: Adobe Illustrator 26.0.1, SVG Export Plug-In . SVG Version: 6.00 Build 0)  -->
<svg version="1.1" id="Layer_1" xmlns="http://www.w3.org/2000/svg" xmlns:xlink="http://www.w3.org/1999/xlink" x="0px" y="0px"
	 viewBox="0 0 1956.9 2306.8" style="enable-background:new 0 0 1956.9 2306.8;" xml:space="preserve">
<path d="M412.2,1349c-48.3,115.6-42.4,247.6,22.4,356.1c38.3,65.1,99.6,128.2,180.1,175.5c271.7,161.1,709.7,115.7,879.5-172.3
	c62.9-106.1,67.3-231.2,16.4-342c0.2,0.3-1.2-2.5,0.3,0.4c-154.8-292.3-535-236.4-776.8-405.3C599.7,865.2,629,676.7,760.8,590.7
	c150.2-103.6,396.1-79.8,500.6,77.6c32.4,49.3,45.8,114.8,24.2,170.9c28.1-129-78.1-237.6-195.7-272c-72.5-21.3-164.3-21.9-249.9,14
	c-141.2,50.3-225.6,248.1-80.3,343.9c130.2,83.9,304,95.4,450,139.4c111.3,33.6,216.5,81.4,297,166.1
	c132.4,139.2,149.4,351.4,49.2,513.8c-156.3,254.9-509.1,335.1-784.9,251.5C496.8,1912.8,265.7,1633.6,412.2,1349L412.2,1349z"/>
<path d="M1547.4,958.9c48.5-116.1,42.6-248.8-22.5-357.8c-38.5-65.4-100.1-128.8-181-176.4c-273.1-161.9-713.2-116.3-883.8,173.2
	c-63.2,106.6-67.6,232.3-16.5,343.7c-0.2-0.3,1.2,2.5-0.3-0.4c155.5,293.7,537.5,237.6,780.6,407.2c135.1,96.6,105.7,286-26.8,372.4
	c-150.9,104.1-398,80.1-503-78c-32.5-49.6-46.1-115.4-24.4-171.8c-28.3,129.7,78.5,238.8,196.6,273.3c72.9,21.4,165.1,22,251.1-14.1
	c141.9-50.4,226.8-249.1,80.8-345.4c-127.2-82-296.2-94.5-439.3-136.3c-107.7-31.5-220.5-75.6-299.4-158.2
	c-138-145.7-169-354.5-61.4-528.8c161.3-263,527-339.3,808.3-246.5C1474.3,403.3,1690,681.7,1547.4,958.9L1547.4,958.9z"/>
<path d="M1557.9,1347.4c120.2-76.8,222.9-170.9,281.3-302.6c64.4-145.5,76.3-309.8,21.3-459.3c-118.8-323-481.3-496.2-811.4-508.8
	C715.9,64,336.3,201,171.7,505.6c-112,207.3-94,444,44,632.8c301.1,411.8,922.9,442.9,1342.3,209L1557.9,1347.4z M1565.1,1358.1
	c-479.6,295.9-1224.3,225.2-1500.4-312C-7.3,899.4-22.7,716,36.3,551.3C173.3,170.1,615-14.7,999.8,0.9
	c394.7,16,834.6,241.6,911.8,656.9C1961.2,940.3,1793.9,1201.6,1565.1,1358.1z"/>
<path d="M398.9,959.3c-120.2,76.8-223,170.9-281.3,302.6c-64.4,145.5-76.3,309.8-21.3,459.3c118.8,323,481.3,496.2,811.4,508.8
	c333.2,12.7,712.8-124.3,877.4-428.9c111.9-207.2,94-443.9-44.1-632.7c-301.1-411.8-923-442.9-1342.3-209L398.9,959.3z M391.8,948.7
	c479.5-296,1224.3-225.2,1500.4,312c72,146.7,87.4,330.1,28.4,494.8c-137,381.2-578.8,566-963.5,550.4
	c-394.7-16-834.6-241.6-911.8-656.9C-4.3,1366.5,162.9,1105.2,391.8,948.7L391.8,948.7z"/>
</svg>
