<?xml version="1.0" encoding="utf-8"?>
<!-- Generator: Adobe Illustrator 26.5.0, SVG Export Plug-In . SVG Version: 6.00 Build 0)  -->
<svg version="1.1" id="sha" xmlns="http://www.w3.org/2000/svg" xmlns:xlink="http://www.w3.org/1999/xlink" x="0px" y="0px"
	 viewBox="0 0 500 500" style="enable-background:new 0 0 500 500;" xml:space="preserve">
<style type="text/css">
	.st0{clip-path:url(#SVGID_00000154424064366798707480000007098498432142163118_);}
	.st1{fill:url(#SVGID_00000016055378489151564120000001871793802602318264_);}
	.st2{clip-path:url(#SVGID_00000179625672295401571500000007853926329589950882_);}
	.st3{fill:url(#SVGID_00000160878570504555247980000016985057712361389204_);}
	.st4{clip-path:url(#SVGID_00000080171022320580381470000012484197527259205288_);}
	.st5{fill:url(#SVGID_00000140003153406683755200000008640778832260136590_);}
	.st6{clip-path:url(#SVGID_00000000193671188237648850000011217282718633370764_);}
	.st7{fill:url(#SVGID_00000150066592843471184000000002770191104881136776_);}
	.st8{clip-path:url(#SVGID_00000168825008983230310700000000945493900739058589_);}
	.st9{fill:url(#SVGID_00000115496318662302086840000009623622116024863929_);}
	.st10{clip-path:url(#SVGID_00000004537228759276259770000012685110579626446721_);}
	.st11{fill:url(#SVGID_00000150089776302973827980000011186891671383892103_);}
</style>
<g>
	<defs>
		<path id="SVGID_1_" d="M243.8,478.1c-10.2-5.3-20.6-10.7-30.9-16.5c-20.3-11.2-39.6-24.1-57.6-38.8
			c-21.5-17.6-37.4-36.3-48.3-57.1c-7.9-15.3-13.7-31.5-17.3-48.4c-3.8-17.3-6.2-34.8-7.2-52.5c-0.6-8.8-0.9-17.9-1.3-27.8l-1-21.7
			v-138c43.3-15.2,86.6-30.5,129.9-45.9l22.1-7.8l11.9-4.3c0.4-0.1,0.8-0.2,1.2-0.2c0.4,0,0.9,0.1,1.3,0.2l34.2,12.1
			c43.2,15.3,86.4,30.6,129.7,45.8l-0.9,159.6c-0.4,10.5-0.8,19.3-1.3,27.9c-1,17.7-3.5,35.2-7.2,52.5c-3.6,16.8-9.4,33.1-17.3,48.4
			c-11,20.8-26.8,39.5-48.3,57.1c-18,14.7-37.3,27.7-57.7,38.8c-10.4,5.8-21.1,11.3-30.5,16.1c-0.6,0.3-1.3,0.6-2.1,0.6
			C244.8,478.4,244.3,478.3,243.8,478.1 M245,0.9c-2.4,0-4.9,0.5-7.1,1.3C234,3.7,230,5.1,226,6.5l-22,7.8
			c-45.3,16-90.6,32-135.9,48l-6.3,2.2v151.4l1,22.1c0.4,9.6,0.8,19,1.4,28.2c1.1,18.6,3.6,37.1,7.6,55.3
			c3.9,18.4,10.3,36.2,19,52.9c12.1,23,29.4,43.5,52.9,62.7c18.8,15.4,39,29,60.2,40.7c10.5,5.8,21.1,11.3,31.4,16.7
			c3.1,1.6,6.5,2.4,9.9,2.4c3.7,0,7.3-0.9,10.5-2.7c9.6-4.9,20.4-10.5,31-16.5c21.3-11.7,41.5-25.3,60.3-40.7
			c23.4-19.3,40.7-39.8,52.9-62.7c8.7-16.7,15.1-34.5,19-52.9c4-18.2,6.6-36.7,7.7-55.3c0.6-8.9,0.9-17.9,1.4-28.6l1-173l-6.3-2.2
			c-45.3-15.9-90.5-31.8-135.7-47.9L252.8,2.2c-2.3-0.8-4.7-1.3-7.2-1.3H245z"/>
	</defs>
	<clipPath id="SVGID_00000123431054751663677440000004357159630870227335_">
		<use xlink:href="#SVGID_1_"  style="overflow:visible;"/>
	</clipPath>
	<g style="clip-path:url(#SVGID_00000123431054751663677440000004357159630870227335_);">
		
			<linearGradient id="SVGID_00000178915941729415217740000018265190432568582537_" gradientUnits="userSpaceOnUse" x1="-0.3799" y1="260.6758" x2="1.6791" y2="260.6758" gradientTransform="matrix(160.2092 -160.2092 160.2092 160.2092 -41602.2773 -41428.7695)">
			<stop  offset="0" style="stop-color:#8933EF"/>
			<stop  offset="1" style="stop-color:#FF2DBB"/>
		</linearGradient>
		<polygon style="fill:url(#SVGID_00000178915941729415217740000018265190432568582537_);" points="-186.2,248.9 245.4,-182.7 
			676.9,248.9 245.4,680.5 		"/>
	</g>
</g>
<g>
	<defs>
		<path id="SVGID_00000086680893816156527900000016167581796174050469_" d="M184.3,155.2c0,22,11.9,42.3,31.1,53.2
			c2.6,1.4,5.2,2.7,7.9,3.7l1,0.4c2.7,1,5.5,1.9,8.4,2.5l0,0c4.2,0.9,8.4,1.3,12.7,1.3c4.3,0,8.5-0.5,12.6-1.5l30,124.1h-85.3
			l25.7-106.1c-6-1.4-11.9-3.4-17.4-6.2l-28.5,117.8c-1.4,5.6,2.1,11.3,7.8,12.7c0.8,0.2,1.7,0.3,2.5,0.3h105.4
			c5.8,0,10.5-4.7,10.5-10.5c0-0.8-0.1-1.7-0.3-2.5l-34.8-143.7l-2.7-11.2c-19,14-45.7,10-59.7-9c-14-19-10-45.7,9-59.7
			c19-14,45.7-10,59.7,9c8.7,11.8,10.7,27.2,5.4,40.8l6,24.9c22.3-25.3,19.8-63.9-5.5-86.2c-25.3-22.3-63.9-19.8-86.2,5.5
			C189.7,126.1,184.3,140.4,184.3,155.2"/>
	</defs>
	<clipPath id="SVGID_00000181801673190741006060000003949163587128653959_">
		<use xlink:href="#SVGID_00000086680893816156527900000016167581796174050469_"  style="overflow:visible;"/>
	</clipPath>
	<g style="clip-path:url(#SVGID_00000181801673190741006060000003949163587128653959_);">
		
			<linearGradient id="SVGID_00000088831162040937377320000002099047783670462092_" gradientUnits="userSpaceOnUse" x1="-0.38" y1="260.6035" x2="1.6791" y2="260.6035" gradientTransform="matrix(160.2092 -160.2092 160.2092 160.2092 -41602.2852 -41428.7695)">
			<stop  offset="0" style="stop-color:#8933EF"/>
			<stop  offset="1" style="stop-color:#FF2DBB"/>
		</linearGradient>
		<polygon style="fill:url(#SVGID_00000088831162040937377320000002099047783670462092_);" points="49.3,225.7 245.4,29.7 
			441.4,225.7 245.4,421.8 		"/>
	</g>
</g>
<g>
	<defs>
		<path id="SVGID_00000049179546702864058300000002270915601529838781_" d="M219,56.3l-0.5,0.2c-36.8,13-74.6,26.4-112.1,39.6v101.9
			h18.4V109c33.6-11.8,67.2-23.7,99.8-35.3l0.5-0.2l11.1-3.9V50.2L219,56.3z"/>
	</defs>
	<clipPath id="SVGID_00000162338913269980899160000009574192909598061206_">
		<use xlink:href="#SVGID_00000049179546702864058300000002270915601529838781_"  style="overflow:visible;"/>
	</clipPath>
	<g style="clip-path:url(#SVGID_00000162338913269980899160000009574192909598061206_);">
		
			<linearGradient id="SVGID_00000080166727705578649750000004615984206219462784_" gradientUnits="userSpaceOnUse" x1="-0.3799" y1="260.055" x2="1.6792" y2="260.055" gradientTransform="matrix(160.2092 -160.2092 160.2092 160.2092 -41602.2734 -41428.7734)">
			<stop  offset="0" style="stop-color:#8933EF"/>
			<stop  offset="1" style="stop-color:#FF2DBB"/>
		</linearGradient>
		<polygon style="fill:url(#SVGID_00000080166727705578649750000004615984206219462784_);" points="32.6,124 171.3,-14.7 310,124 
			171.3,262.8 		"/>
	</g>
</g>
<g>
	<defs>
		<path id="SVGID_00000134220967932783270550000010385456787945265307_" d="M106.5,216.3l0.9,19.6v0.1c0.4,9.6,0.8,18.7,1.3,27.2
			l0,0c0.9,16.3,3.1,32.5,6.6,48.4c3.1,14.6,8.1,28.7,14.9,41.9c9.3,17.6,23,33.7,41.7,49.1c16.8,13.6,34.8,25.7,53.7,36.1
			c3.5,1.9,7,3.8,10.5,5.7v-20.9l-1.6-0.9c-18-9.9-35-21.3-50.9-34.3c-16.9-13.9-29-28.1-37.2-43.5c-6.1-11.8-10.5-24.3-13.2-37.2
			c-3.3-15-5.3-30.2-6.2-45.5l0,0l0,0c-0.5-8.2-0.9-17.3-1.3-26.8l0,0l0,0l0,0l0,0l-0.9-18.8L106.5,216.3z"/>
	</defs>
	<clipPath id="SVGID_00000062159087863787154890000002197061313163114915_">
		<use xlink:href="#SVGID_00000134220967932783270550000010385456787945265307_"  style="overflow:visible;"/>
	</clipPath>
	<g style="clip-path:url(#SVGID_00000062159087863787154890000002197061313163114915_);">
		
			<linearGradient id="SVGID_00000168097084778064824900000013137655618779261619_" gradientUnits="userSpaceOnUse" x1="-0.3799" y1="260.6992" x2="1.6792" y2="260.6992" gradientTransform="matrix(160.2092 -160.2092 160.2092 160.2092 -41602.2734 -41428.7695)">
			<stop  offset="0" style="stop-color:#8933EF"/>
			<stop  offset="1" style="stop-color:#FF2DBB"/>
		</linearGradient>
		<polygon style="fill:url(#SVGID_00000168097084778064824900000013137655618779261619_);" points="-7.6,330.4 171.4,151.4 
			350.4,330.4 171.4,509.4 		"/>
	</g>
</g>
<g>
	<defs>
		<path id="SVGID_00000041275056734636411810000000359735900760017329_" d="M254.6,69.6l11.4,4.1h0.1l0,0
			c35.5,12.6,67.8,24,99.7,35.2l-0.5,88.9h18.4L384.3,96c-35.5-12.5-70.8-25-112-39.6l0,0l-17.6-6.2L254.6,69.6z"/>
	</defs>
	<clipPath id="SVGID_00000085226290960292809120000016824080413650864004_">
		<use xlink:href="#SVGID_00000041275056734636411810000000359735900760017329_"  style="overflow:visible;"/>
	</clipPath>
	<g style="clip-path:url(#SVGID_00000085226290960292809120000016824080413650864004_);">
		
			<linearGradient id="SVGID_00000171719172976813414320000013602168147566037687_" gradientUnits="userSpaceOnUse" x1="-0.38" y1="260.5172" x2="1.6791" y2="260.5172" gradientTransform="matrix(160.2092 -160.2092 160.2092 160.2092 -41602.2773 -41428.7695)">
			<stop  offset="0" style="stop-color:#8933EF"/>
			<stop  offset="1" style="stop-color:#FF2DBB"/>
		</linearGradient>
		<polygon style="fill:url(#SVGID_00000171719172976813414320000013602168147566037687_);" points="180.7,124 319.4,-14.8 
			458.2,124 319.4,262.8 		"/>
	</g>
</g>
<g>
	<defs>
		<path id="SVGID_00000150796841008735509650000000156219878133025920_" d="M365.3,216.3l-0.1,19.8c-0.4,9.8-0.7,18-1.3,26.1
			c-0.8,15.3-2.9,30.5-6.2,45.5c-2.7,13-7.2,25.5-13.2,37.3c-8.2,15.4-20.3,29.7-37.2,43.6c-15.9,13-32.9,24.4-50.9,34.3l-1.7,0.9
			v20.9c3.5-1.9,7.1-3.8,10.6-5.8c18.9-10.4,36.9-22.5,53.7-36.1c18.8-15.5,32.5-31.5,41.8-49.2c6.8-13.2,11.8-27.3,14.9-41.9
			c3.5-15.9,5.7-32.1,6.7-48.4c0.5-8.2,0.9-16.8,1.3-26.8l0.1-20.2L365.3,216.3z"/>
	</defs>
	<clipPath id="SVGID_00000148624796558220516360000012838216053834048922_">
		<use xlink:href="#SVGID_00000150796841008735509650000000156219878133025920_"  style="overflow:visible;"/>
	</clipPath>
	<g style="clip-path:url(#SVGID_00000148624796558220516360000012838216053834048922_);">
		
			<linearGradient id="SVGID_00000145036042664584994340000005954812475451699357_" gradientUnits="userSpaceOnUse" x1="-0.38" y1="261.1605" x2="1.6791" y2="261.1605" gradientTransform="matrix(160.2092 -160.2092 160.2092 160.2092 -41602.2734 -41428.7617)">
			<stop  offset="0" style="stop-color:#8933EF"/>
			<stop  offset="1" style="stop-color:#FF2DBB"/>
		</linearGradient>
		<polygon style="fill:url(#SVGID_00000145036042664584994340000005954812475451699357_);" points="140.4,330.5 319.1,151.7 
			497.8,330.5 319.1,509.2 		"/>
	</g>
</g>
</svg>
