<?xml version="1.0" encoding="utf-8"?>
<!-- Generator: Adobe Illustrator 26.0.1, SVG Export Plug-In . SVG Version: 6.00 Build 0)  -->
<svg version="1.1" id="Layer_1" xmlns="http://www.w3.org/2000/svg" xmlns:xlink="http://www.w3.org/1999/xlink" x="0px" y="0px"
	 viewBox="0 0 291 291" style="enable-background:new 0 0 291 291;" xml:space="preserve">
<style type="text/css">
	.st0{fill:url(#SVGID_1_);}
	.st1{fill:#ECEDED;}
	.st2{fill:#FFFFFF;}
	.st3{fill:#6C1C00;}
	.st4{fill:#CA3900;}
	.st5{fill:#CB3C00;}
	.st6{fill:#FD7121;}
	.st7{fill:#ECEAEE;}
</style>
<radialGradient id="SVGID_1_" cx="-146.6151" cy="571.6459" r="1" gradientTransform="matrix(145.5 0 0 -145.5 21478 83319.9688)" gradientUnits="userSpaceOnUse">
	<stop  offset="0" style="stop-color:#FFA1A1"/>
	<stop  offset="0.1828" style="stop-color:#FF7E7E"/>
	<stop  offset="0.5731" style="stop-color:#FF3A3A"/>
	<stop  offset="0.8559" style="stop-color:#FF1010"/>
	<stop  offset="1" style="stop-color:#FF0000"/>
</radialGradient>
<circle class="st0" cx="145.5" cy="145.5" r="145.5"/>
<path class="st1" d="M169.6,185.2l27.1,26.1c-3.7,2.8-6.1,7.2-6.1,12.2c0,8.5,6.9,15.4,15.5,15.4c8.5,0,15.5-6.9,15.5-15.4
	c0-0.7-0.1-1.4-0.2-2.1c0.7,0.1,1.4,0.2,2.1,0.2c8.5,0,15.5-6.9,15.5-15.4c0-8.5-6.9-15.4-15.5-15.4c-4.9,0-9.3,2.3-12.1,5.9
	L184,170.3C173.7,169.9,169.1,175.1,169.6,185.2z"/>
<path class="st2" d="M236.9,198.6c-2.7-4.7-7.7-7.8-13.4-7.8c-4.9,0-9.3,2.3-12.1,5.9L184,170.3c-6.1-0.2-10.2,1.5-12.4,5l24,23.1
	c-2.3,1.8-4.1,4.2-5.1,6.9l6.2,6c-2.3,1.8-4.1,4.1-5.1,6.9c2.7,4.7,7.7,7.8,13.4,7.8c8.5,0,15.5-6.9,15.5-15.4
	c0-0.7-0.1-1.4-0.2-2.1c0.7,0.1,1.4,0.2,2.1,0.2C229.1,208.7,234.7,204.5,236.9,198.6z"/>
<path d="M206,241c-9.7,0-17.5-7.8-17.5-17.5c0-4.7,1.8-9,5.1-12.3l-25.5-24.5c-0.4-0.4-0.6-0.9-0.6-1.4c-0.3-5.8,1-10.2,3.9-13.1
	c2.8-2.8,7.1-4.2,12.7-4c0.5,0,1,0.2,1.4,0.6l25.8,24.8c3.3-3.2,7.6-5,12.2-5c9.7,0,17.5,7.8,17.5,17.5c0,9.6-7.8,17.4-17.4,17.5
	C223.5,233.2,215.7,241,206,241z M171.6,184.3l26.5,25.5c0.4,0.4,0.7,1,0.6,1.6c0,0.6-0.3,1.2-0.8,1.5c-3.3,2.6-5.3,6.4-5.3,10.6
	c0,7.3,6,13.3,13.4,13.3c7.4,0,13.4-6,13.4-13.3c0-0.5,0-1.1-0.1-1.8c-0.1-0.6,0.1-1.3,0.6-1.8c0.5-0.5,1.1-0.7,1.8-0.6
	c0.7,0.1,1.3,0.1,1.9,0.1c7.4,0,13.4-6,13.4-13.3c0-7.3-6-13.3-13.4-13.3c-4.1,0-7.9,1.9-10.5,5.1c-0.4,0.5-0.9,0.7-1.5,0.8
	c-0.6,0-1.2-0.2-1.6-0.6l-26.7-25.8c-4-0.1-6.9,0.9-8.8,2.8C172.5,177,171.5,180.1,171.6,184.3z"/>
<path class="st3" d="M215.2,133.3l0.1-0.1l-0.6-0.6c-0.5-0.6-1-1.3-1.6-1.9c-0.9-0.9-1.8-1.7-2.8-2.5l-54.8-54.3l-78.9,82.9
	c5.1,11,31.4,20.4,46.7,43.6c1,3.8,2.8,7.2,5.4,10c13.3,14,43,7.6,66.3-14.4C217.1,175.2,225.5,148.1,215.2,133.3z"/>
<path class="st4" d="M215.2,133.3l0.1-0.1l-0.6-0.6c-0.5-0.6-1-1.3-1.6-1.9c-0.9-0.9-1.8-1.7-2.8-2.5l-53-52.5l-58.8,65.1
	c5.1,11,31.2,40.5,37.2,49.6c6.1,9.1,18.7,15.8,26,17.5c7.1,1.7,12.2,1.9,17.1,0.3c5.6-3.3,11.1-7.4,16.3-12.3
	C217.1,175.2,225.5,148.1,215.2,133.3z"/>
<path d="M148.3,220.5c-8.9,0-16.3-2.8-21.5-8.3c-2.8-2.9-4.8-6.5-6-10.7c-8.4-12.5-20.2-21-29.7-27.8c-8.1-5.8-18-13.5-20.5-18.9
	c-0.5-1,3.3,0.9,4,0.1L153.6,72c0.5-0.5,0.8-0.6,1.6-0.6c0.7,0,4.3,2.4,4.8,2.9l52.2,51.9c1.1,0.8,2.1,1.7,3,2.7
	c0.5,0.6,1.1,1.2,1.6,1.9l0.5,0.5c0.3,0.3,0.6,0.7,0.7,1.2c10.4,16.2,1.6,44.1-20.9,65.4c-11.6,11-25.2,18.6-38.2,21.4
	C155.2,220.1,151.6,220.5,148.3,220.5z M80,157.2c2.6,3.7,8.1,7.6,14.3,12.1c10,7.2,22.4,16.1,31.3,29.6c0.2,0.2,0.3,0.5,0.4,0.8
	c0.9,3.5,2.5,6.4,4.8,8.8c5.8,6.1,15.3,8,26.9,5.5c12-2.6,24.7-9.7,35.6-20c20.6-19.4,29.2-45.4,19.7-59.1c-0.1-0.1-0.1-0.2-0.2-0.3
	l0,0c-0.1-0.1-0.2-0.2-0.3-0.3c-0.5-0.7-0.9-1.2-1.4-1.6c-0.7-0.8-1.6-1.5-2.5-2.2c-0.1-0.1-0.2-0.2-0.3-0.3l-52.8-52.4L80,157.2z"
	/>
<path class="st5" d="M141.3,142.2c23.3-22,31.3-51.2,18-65.2c-13.3-14-43-7.6-66.3,14.4c-23.3,22-31.3,51.2-18,65.2
	C88.3,170.7,118,164.2,141.3,142.2z"/>
<path class="st6" d="M159.2,77c-13.3-14-43-7.6-66.3,14.4c-10,9.4-17.1,20.2-21,30.5c-1.1,9,0.8,17.1,6.1,22.7
	c13.3,14,43,7.6,66.3-14.4c10-9.4,17.1-20.2,21-30.5C166.5,90.7,164.6,82.6,159.2,77z"/>
<path d="M94.4,166.4c-8.8,0-16.1-2.8-21.2-8.2c-14.2-15-6.1-45.7,18.1-68.6c24.2-22.9,55.5-29.3,69.7-14.3
	c14.2,15,6.1,45.7-18.1,68.6c-11.6,10.9-25.1,18.5-38,21.3C101.2,166.1,97.7,166.4,94.4,166.4z M139.6,71.9
	c-13.5,0-30.6,7.5-45.1,21.2C72.3,114.2,64.3,142,76.7,155c5.9,6.2,15.5,8.1,27.2,5.6c12.1-2.6,24.8-9.8,35.7-20.1
	c22.3-21.1,30.3-48.8,17.9-61.8C153.2,74.1,146.9,71.9,139.6,71.9z"/>
<path class="st7" d="M118.4,103.1l-24.9-24c3.8-2.9,6.2-7.5,5.9-12.7c-0.3-7.7-6.7-14.1-14.4-14.4c-8.7-0.4-15.9,6.5-15.9,15.1
	c0,0.7,0.1,1.4,0.2,2.1c-0.7-0.1-1.4-0.2-2.1-0.2c-8.9,0-16.1,7.7-15.1,16.8c0.8,6.9,6.4,12.6,13.4,13.3c5.5,0.6,10.5-1.8,13.6-5.7
	l25.1,24.2c1.2,1.1,2.7,1.7,4.3,1.6c7.4-0.5,11.1-4.6,11.5-11.8C120.2,105.9,119.6,104.3,118.4,103.1z"/>
<path class="st2" d="M93.6,79.2c2-1.5,3.6-3.5,4.6-5.9l0.4-5.2c2.3-1.7-1-3.3,0-6c-2.1-5.6-7.3-9.7-13.5-10
	c-8.7-0.4-15.9,6.5-15.9,15.1c0,0.7,0.1,1.4,0.2,2.1c-0.7-0.1-1.4-0.2-2.1-0.2c-6.6,0-12.1,4.2-14.3,10c1.9,5.3,6.9,8.7,12.6,9.9
	c5.3,1,12.9,1,16-2.9l33.4,30.1c0.3,0.3,0.7,0.6,1.1,0.8c2.5-2,3.9-5.1,4.1-9.3c0.1-1.7-0.5-3.3-1.7-4.5L93.6,79.2z"/>
<path d="M108.2,121.5c-2,0-3.9-0.8-5.4-2.2L79.2,96.5c-3.7,3.6-8.7,5.3-13.9,4.8c-7.9-0.9-14.3-7.2-15.2-15.1
	c-0.5-4.9,1-9.8,4.3-13.4c3.2-3.6,7.9-5.7,12.7-5.7c0-4.7,1.9-9.1,5.3-12.3c3.4-3.3,8-4.9,12.7-4.7c8.8,0.4,16,7.6,16.4,16.4
	c0.2,4.8-1.6,9.4-5,12.8l23.3,22.4c1.6,1.6,2.5,3.8,2.4,6c-0.5,8.4-5.1,13.2-13.4,13.7C108.6,121.5,108.4,121.5,108.2,121.5z
	 M79.1,91.5c0.5,0,1,0.2,1.4,0.6l25.1,24.2c0.7,0.7,1.8,1.1,2.8,1c6.2-0.4,9.3-3.6,9.6-9.9c0.1-1.1-0.3-2.1-1.1-2.9l-24.9-24
	c-0.4-0.4-0.7-1-0.6-1.6c0-0.6,0.3-1.1,0.8-1.5c3.4-2.6,5.3-6.7,5.1-11c-0.3-6.7-5.8-12.2-12.5-12.5c-3.6-0.2-7.1,1.1-9.7,3.6
	c-2.6,2.5-4.1,5.9-4.1,9.5c0,0.5,0,1.1,0.1,1.8c0.1,0.6-0.1,1.3-0.6,1.7c-0.5,0.5-1.1,0.7-1.7,0.6c-0.7-0.1-1.3-0.1-1.8-0.1
	c-3.7,0-7.3,1.6-9.8,4.4c-2.5,2.8-3.7,6.4-3.3,10.2c0.7,6,5.5,10.9,11.6,11.5c4.5,0.5,8.9-1.3,11.8-4.9c0.4-0.5,0.9-0.7,1.5-0.8
	C79,91.5,79.1,91.5,79.1,91.5z"/>
</svg>
