<?xml version="1.0" encoding="utf-8"?>
<!-- Generator: Adobe Illustrator 27.0.1, SVG Export Plug-In . SVG Version: 6.00 Build 0)  -->
<svg version="1.1" id="si" xmlns="http://www.w3.org/2000/svg" xmlns:xlink="http://www.w3.org/1999/xlink" x="0px" y="0px"
	 viewBox="0 0 500 500" style="enable-background:new 0 0 500 500;" xml:space="preserve">
<path d="M491.3,64.7c-71.2-17.3-178.3-29-247.9-29C71.2,35.7,1,84.4,1,162.4c0,56,25.7,89.6,78.4,106.8c9,2.9,34.8,9.5,73,5
	c77.5-9.1,98.3-20.4,98.3-20.4s-114.1-12-151.5-55.1c-7.5-8.6-10.9-19.7-10.8-30.8c0.1-12.2,5.9-24.1,14.7-31.7
	c16.5-14.1,53.8-21.4,120.5-22.1c75.1-0.8,153.6,5.3,216.3,18.8c30,6.5,42-19.9,44.6-32.2C486.7,90.4,491.3,64.7,491.3,64.7
	L491.3,64.7z"/>
<path d="M1,436.3c72.3,16.7,181.1,28,251.8,28c175,0,246.2-46.9,246.2-122.2c0-54-26.1-86.4-79.7-103c-9.1-2.8-35.4-9.1-74.1-4.8
	c-78.8,8.7-99.9,19.7-99.9,19.7s115.9,11.5,153.9,53.1c7.6,8.3,11.1,19,11,29.7c-0.1,11.7-6,23.3-14.9,30.5
	c-16.8,13.6-54.7,20.6-122.4,21.3c-76.3,0.8-156-5.1-219.6-18.1c-30.5-6.3-42.6,19.2-45.3,31.1C5.8,411.5,1,436.3,1,436.3L1,436.3z"
	/>
</svg>
