<?xml version="1.0" encoding="utf-8"?>
<!-- Generator: Adobe Illustrator 27.0.1, SVG Export Plug-In . SVG Version: 6.00 Build 0)  -->
<svg version="1.1" id="sld" xmlns="http://www.w3.org/2000/svg" xmlns:xlink="http://www.w3.org/1999/xlink" x="0px" y="0px"
	 viewBox="0 0 500 500" style="enable-background:new 0 0 500 500;" xml:space="preserve">
<style type="text/css">
	.st0{fill-rule:evenodd;clip-rule:evenodd;fill:#37DBFF;}
	.st1{fill-rule:evenodd;clip-rule:evenodd;fill:#1346FF;}
</style>
<polygon id="Fill-1" class="st0" points="42.5,208.5 1,250 42.5,291.5 109.7,359 151.2,317.5 84,250 114.4,219.1 72.9,177.6 "/>
<polygon id="Fill-2" class="st0" points="457.5,208.5 390.2,142 348.7,183.5 416,250 385.4,280.7 426.9,322.2 499,250 "/>
<polygon id="Fill-3" class="st1" points="250,1 208.5,42.5 146.2,104.7 104.8,146.2 146.2,187.8 312.3,353.7 250,416 183.3,349 
	141.8,390.5 208.5,457.5 250,499 291.5,457.5 395.2,353.7 353.8,312.3 187.7,146.2 250,84 317.2,151.6 358.6,110.1 291.5,42.5 "/>
</svg>
