<?xml version="1.0" encoding="utf-8"?>
<!-- Generator: Adobe Illustrator 26.2.1, SVG Export Plug-In . SVG Version: 6.00 Build 0)  -->
<svg version="1.1" id="Layer_1" xmlns="http://www.w3.org/2000/svg" xmlns:xlink="http://www.w3.org/1999/xlink" x="0px" y="0px"
	 viewBox="0 0 500 500" style="enable-background:new 0 0 500 500;" xml:space="preserve">
<style type="text/css">
	.st0{fill:#0B4431;}
	.st1{fill:none;stroke:#FFFFFF;stroke-width:3.1343;stroke-miterlimit:10;}
	.st2{fill:#77BAA1;}
	.st3{fill:#F3ACBB;}
	.st4{fill:#89B772;}
	.st5{fill:#F08FA2;}
	.st6{fill:#F8D0D9;}
	.st7{fill:#DD8843;}
	.st8{fill:#EBB646;}
	.st9{fill:#FFFFFF;}
	.st10{fill:#A5D4C1;}
</style>
<path class="st0" d="M245.4,500c-0.3,0-0.3,0-0.6,0C140.1,499.7,90,449.5,66.2,407.8C44.2,369,35.8,326.3,41.7,281.2
	c4.7-37.6,19.7-77.1,43.6-113.5c15-23.2,34.8-46.7,55.8-65.8C156.4,87.8,169,78.7,179,74.7c-3.1-12.9-5-33.2-5.6-40.1v-1.3
	c-0.3-16,17.6-23.2,23.5-25.7c11.3-4.7,24.8-7.2,37.6-7.5c12.9-0.3,25.7,0.6,36.4,3.1c6.6,1.6,26.3,6,26.6,22.9l0.9,28.8
	c0,5.3-0.3,10-0.9,14.4c56.1,19.7,103.7,79,123.2,111l0,0c7.8,12.9,27,47.6,35.4,91.2c10,52.3,1.6,99-25.4,139.5
	C375.2,493.4,275.8,500,245.4,500z M189.7,106.9c-12.5,6.9-48.9,37.3-75.9,79.3c-26.6,41.1-64.6,122.6-17.9,205
	c27.6,48.9,79.3,74.9,149.2,75.2c0.3,0,0.3,0,0.6,0c26,0,111-5.6,156.4-74c53.6-80.2,0.6-175.8-10.7-194l0,0
	c-9.7-16-29.5-42-53.9-63.9l-102.5-15.7l-77.7,15.4l41.1-23.2c-1.6-0.6-3.1-1.3-4.7-2.2C192.2,108.2,190.6,107.6,189.7,106.9z
	 M283.4,106.3l38.6,15c-10.3-7.5-21-14.1-32.3-18.5c-1.6,0.9-3.1,1.9-5,2.8C284.3,106,284,106.3,283.4,106.3z M192.5,105.7
	L192.5,105.7z M207.5,39.9c1.6,12.9,3.4,26,4.7,29.8c2.5,6.9,6.6,11.3,12.9,13.8l12.5,5l10.7-6c5.6-3.1,9.4-7.8,9.7-8.1l1.3-1.9
	l0.6-0.3c0.9-1.3,4.1-6.3,3.8-16V36.4c-6-1.6-16.3-2.8-28.5-2.5C223.5,34.2,213.2,37.4,207.5,39.9z"/>
<path class="st1" d="M443.8,287.8"/>
<path class="st2" d="M416,401.6c-51.4,77.4-146.7,81.5-171.1,81.5c-30.7,0-118.8-3.8-163.9-83.7C37.6,322.9,58,240.5,99.4,176.8
	c32.3-49.8,78.7-87.4,90.6-88.1c2.2,0,5.6,2.2,11,4.7c7.5,3.4,19.1,7.8,37.3,6.3c21-1.9,32.3-5.6,38.9-9.1c7.5-3.8,9.4-6.9,12.5-5.6
	c53.9,18.2,99.7,77.4,116.3,104.4C423.8,218.8,472.7,316.6,416,401.6z"/>
<path class="st3" d="M109.1,232.9c0,0-23.5,57.4-18.5,100.3c4.7,41.4,32.6,102.8,100.9,117.9c68.3,15,112.5-2.5,150.4-19.4
	c37.6-16.9,63.6-52.3,67.4-85.9c3.8-33.5,4.1-82.4-14.7-122.2"/>
<path class="st4" d="M275.8,127.6c-2.2,7.8-37.9,15.4-54.2,11c-16-4.4-17.2-14.7-21-45.1c7.5,3.4,19.1,7.8,37.3,6.3
	c21-1.9,32.3-5.6,38.9-9.1C277.4,98.5,278,120.1,275.8,127.6z"/>
<path class="st5" d="M190.9,415.4c-1.9-4.4-2.2-9.1-1.6-13.8c2.2-16.9,14.1-61.7,75.9-95.6c77.4-42.6,118.2-6.6,118.2-6.6
	s24.4,21.6,6,73c-18.5,51.1-109.1,69.9-109.1,69.9S208.1,458.9,190.9,415.4z"/>
<path class="st5" d="M116.3,321.6c-5,0-5.3-19.7,0.9-28.5c10-14.1,27.3-0.9,27.3-0.9S129.5,321.6,116.3,321.6z"/>
<path class="st6" d="M394.6,223.5c0-7.5-63.9-13.5-142.9-13.5s-142.9,15.4-142.9,22.9c0,7.5,63.9,20.7,142.9,20.7
	S394.6,231.1,394.6,223.5z"/>
<g>
	<path class="st7" d="M190,33c0,0,5.3,32.9,7.5,42.3c1.9,7.8,14.1,24.8,36.7,27.3c24.1,2.5,37.9-18.5,37.9-18.5s9.7-9.1,9.1-28.5
		c-0.6-19.4-0.9-28.8-0.9-28.8S229.5,31.4,190,33z"/>
	<path class="st8" d="M280.2,26.7c0-4.7-21-10.3-45.4-9.7C210,17.6,189.7,28.3,190,33c0,4.7,21,11.9,45.4,11.3
		C260.2,43.6,280.2,31.4,280.2,26.7z"/>
</g>
<path class="st9" d="M120.7,242c-2.5-0.6-4.4-2.2-6-4.4c-4.4-6.9-10.7-25.1,14.4-59.9c32.6-45.8,50.1-30.4,50.1-30.4
	s21.6,11-1.9,49.5c-0.3,0.3-0.3,0.6-0.6,0.9C174.6,203.2,151.4,250.5,120.7,242z"/>
<path class="st9" d="M353.3,426.6c-5.3-0.9-8.8-5.6-7.8-11c1.3-6.6,5-16.6,16-26.3c16.9-15,29.1-1.6,32,2.2c0.6,0.9,0.9,1.9,1.3,2.8
	c0.6,3.1,0.3,9.4-8.1,18.8C376.8,423.8,364.9,428.8,353.3,426.6z"/>
<path class="st10" d="M431.6,287.8c3.1,8.1-20.1-22.3-23.2-22.6c-4.7-0.6-28.5,57-34.5,58.6c-7.5,1.9-68.6-42.6-81.8-41.4
	c-23.5,1.6-71.8,72.4-78,73.7c-7.5,1.3-61.4-63.3-80.9-65.8c-6.6-0.9-52,54.2-55.8,50.1c-1.9-1.9-6.3-45.8-5.6-58
	c0.6-7.8,6,30.7,8.1,30.7c3.8,0.3,45.4-41.4,54.2-40.7c7.8,0.6,69.6,55.5,75.5,54.2c6-1.3,65.8-60.2,78.7-62.1
	c10-1.3,63.3,37.3,77.7,34.8c8.8-1.3,35.7-48.9,40.4-50.1C410.6,248.9,428.2,279,431.6,287.8z"/>
</svg>
