<?xml version="1.0" encoding="utf-8"?>
<!-- Generator: Adobe Illustrator 24.0.0, SVG Export Plug-In . SVG Version: 6.00 Build 0)  -->
<svg version="1.1" id="Layer_1" xmlns="http://www.w3.org/2000/svg" xmlns:xlink="http://www.w3.org/1999/xlink" x="0px" y="0px"
	 viewBox="0 0 24 24" style="enable-background:new 0 0 24 24;" xml:space="preserve">
<style type="text/css">
	.st0{fill-rule:evenodd;clip-rule:evenodd;fill:url(#SVGID_1_);}
	.st1{fill:#FFFFFF;}
	.st2{fill-rule:evenodd;clip-rule:evenodd;fill:url(#SVGID_2_);}
</style>
<linearGradient id="SVGID_1_" gradientUnits="userSpaceOnUse" x1="36.8327" y1="1001.3662" x2="10.8712" y2="998.6022" gradientTransform="matrix(1 0 0 -1 -12 1012)">
	<stop  offset="0" style="stop-color:#1ADBC5"/>
	<stop  offset="1" style="stop-color:#04D3DD"/>
</linearGradient>
<path class="st0" d="M12,24c6.6,0,12-5.4,12-12c0-6.6-5.4-12-12-12C5.4,0,0,5.4,0,12C0,18.6,5.4,24,12,24z"/>
<path class="st1" d="M19.2,16.1l-1.4-0.8l1.1-0.3c0.3-0.1,0.5-0.4,0.4-0.7s-0.4-0.5-0.6-0.4l-1.2,0.3c-0.6,0.2-1.2,0.1-1.7-0.2
	c-0.5-0.3-0.8-0.8-0.8-1.4v-0.2c0-0.6,0.3-1.1,0.8-1.4c0.5-0.3,1.1-0.4,1.7-0.2c1.4,0.4,1.3,0.4,1.4,0.4c0.2,0,0.4-0.2,0.5-0.4
	c0.1-0.3-0.1-0.6-0.4-0.7l-1.1-0.3L19.2,9c0.3-0.1,0.3-0.5,0.2-0.7c-0.1-0.3-0.5-0.3-0.7-0.2l-1.4,0.8l0.3-1.1
	c0.1-0.3-0.1-0.6-0.4-0.7c-0.3-0.1-0.6,0.1-0.6,0.4l-0.3,1.3c-0.1,0.6-0.5,1-1,1.3c-0.5,0.3-1.1,0.3-1.6,0l-0.1-0.1
	c-0.5-0.3-0.8-0.8-0.8-1.4c0-0.6,0.2-1.2,0.7-1.6l0.9-0.9c0.2-0.2,0.2-0.5,0-0.8c-0.2-0.2-0.5-0.2-0.7,0l-0.8,0.8V4.5
	c0-0.3-0.2-0.5-0.5-0.5c-0.3,0-0.5,0.2-0.5,0.5v1.7l-0.8-0.8c-0.2-0.2-0.5-0.2-0.7,0c-0.2,0.2-0.2,0.5,0,0.8L10.9,7
	c0.4,0.4,0.7,1,0.7,1.6c0,0.6-0.3,1.1-0.8,1.4l-0.1,0.1c-0.5,0.3-1.1,0.3-1.6,0c-0.5-0.3-0.9-0.8-1-1.3L7.6,7.5
	C7.5,7.2,7.2,7,6.9,7.1C6.7,7.2,6.5,7.5,6.6,7.8l0.3,1.1L5.5,8.1C5.2,7.9,4.9,8,4.7,8.3C4.6,8.5,4.7,8.9,4.9,9l1.4,0.8l-1.1,0.3
	c-0.3,0.1-0.5,0.4-0.4,0.7c0.1,0.2,0.3,0.4,0.5,0.4c0.1,0,0,0,1.4-0.4c0.6-0.2,1.2-0.1,1.7,0.2c0.5,0.3,0.8,0.8,0.8,1.4v0.2
	c0,0.6-0.3,1.1-0.8,1.4c-0.5,0.3-1.1,0.4-1.7,0.2L5.5,14c-0.3-0.1-0.6,0.1-0.6,0.4c-0.1,0.3,0.1,0.6,0.4,0.7l1.1,0.3l-1.4,0.8
	c-0.5,0.3-0.3,1,0.3,1c0.2,0,0.1,0,1.7-0.9l-0.3,1.1c-0.1,0.3,0.1,0.6,0.4,0.7c0.3,0.1,0.6-0.1,0.6-0.4l0.3-1.3c0.1-0.6,0.5-1,1-1.3
	c0.5-0.3,1.1-0.3,1.6,0l0.1,0.1c0.5,0.3,0.8,0.8,0.8,1.4c0,0.6-0.2,1.2-0.7,1.6L10,19c-0.2,0.2-0.2,0.5,0,0.8c0.2,0.2,0.5,0.2,0.7,0
	l0.8-0.8v1.7c0,0.3,0.2,0.5,0.5,0.5c0.3,0,0.5-0.2,0.5-0.5V19l0.8,0.8c0.1,0.1,0.2,0.2,0.4,0.2c0.5,0,0.7-0.6,0.4-0.9l-0.9-0.9
	c-0.4-0.4-0.7-1-0.7-1.6c0-0.6,0.3-1.1,0.8-1.4l0.1-0.1c0.5-0.3,1.1-0.3,1.6,0c0.5,0.3,0.9,0.8,1,1.3l0.3,1.3
	c0.1,0.2,0.3,0.4,0.5,0.4c0.3,0,0.6-0.3,0.5-0.7l-0.3-1.1l1.4,0.8c0.3,0.1,0.6,0.1,0.7-0.2C19.5,16.6,19.5,16.3,19.2,16.1z
	 M13.8,12.6c0,0.6-0.3,1.2-0.9,1.5c-0.6,0.3-1.2,0.3-1.8,0c-0.5-0.3-0.9-0.9-0.9-1.5v0c0-0.6,0.3-1.2,0.9-1.5c0.6-0.3,1.2-0.3,1.8,0
	C13.5,11.3,13.8,11.9,13.8,12.6L13.8,12.6z"/>
<linearGradient id="SVGID_2_" gradientUnits="userSpaceOnUse" x1="36.8327" y1="1001.3662" x2="10.8712" y2="998.6022" gradientTransform="matrix(1 0 0 -1 -12 1012)">
	<stop  offset="0" style="stop-color:#1ADBC5"/>
	<stop  offset="1" style="stop-color:#04D3DD"/>
</linearGradient>
<path class="st2" d="M12,24c6.6,0,12-5.4,12-12c0-6.6-5.4-12-12-12C5.4,0,0,5.4,0,12C0,18.6,5.4,24,12,24z"/>
<path class="st1" d="M19.2,16.1l-1.4-0.8l1.1-0.3c0.3-0.1,0.5-0.4,0.4-0.7s-0.4-0.5-0.6-0.4l-1.2,0.3c-0.6,0.2-1.2,0.1-1.7-0.2
	c-0.5-0.3-0.8-0.8-0.8-1.4v-0.2c0-0.6,0.3-1.1,0.8-1.4c0.5-0.3,1.1-0.4,1.7-0.2c1.4,0.4,1.3,0.4,1.4,0.4c0.2,0,0.4-0.2,0.5-0.4
	c0.1-0.3-0.1-0.6-0.4-0.7l-1.1-0.3L19.2,9c0.3-0.1,0.3-0.5,0.2-0.7c-0.1-0.3-0.5-0.3-0.7-0.2l-1.4,0.8l0.3-1.1
	c0.1-0.3-0.1-0.6-0.4-0.7c-0.3-0.1-0.6,0.1-0.6,0.4l-0.3,1.3c-0.1,0.6-0.5,1-1,1.3c-0.5,0.3-1.1,0.3-1.6,0l-0.1-0.1
	c-0.5-0.3-0.8-0.8-0.8-1.4c0-0.6,0.2-1.2,0.7-1.6l0.9-0.9c0.2-0.2,0.2-0.5,0-0.8c-0.2-0.2-0.5-0.2-0.7,0l-0.8,0.8V4.5
	c0-0.3-0.2-0.5-0.5-0.5c-0.3,0-0.5,0.2-0.5,0.5v1.7l-0.8-0.8c-0.2-0.2-0.5-0.2-0.7,0c-0.2,0.2-0.2,0.5,0,0.8L10.9,7
	c0.4,0.4,0.7,1,0.7,1.6c0,0.6-0.3,1.1-0.8,1.4l-0.1,0.1c-0.5,0.3-1.1,0.3-1.6,0c-0.5-0.3-0.9-0.8-1-1.3L7.6,7.5
	C7.5,7.2,7.2,7,6.9,7.1C6.7,7.2,6.5,7.5,6.6,7.8l0.3,1.1L5.5,8.1C5.2,7.9,4.9,8,4.7,8.3C4.6,8.5,4.7,8.9,4.9,9l1.4,0.8l-1.1,0.3
	c-0.3,0.1-0.5,0.4-0.4,0.7c0.1,0.2,0.3,0.4,0.5,0.4c0.1,0,0,0,1.4-0.4c0.6-0.2,1.2-0.1,1.7,0.2c0.5,0.3,0.8,0.8,0.8,1.4v0.2
	c0,0.6-0.3,1.1-0.8,1.4c-0.5,0.3-1.1,0.4-1.7,0.2L5.5,14c-0.3-0.1-0.6,0.1-0.6,0.4c-0.1,0.3,0.1,0.6,0.4,0.7l1.1,0.3l-1.4,0.8
	c-0.5,0.3-0.3,1,0.3,1c0.2,0,0.1,0,1.7-0.9l-0.3,1.1c-0.1,0.3,0.1,0.6,0.4,0.7c0.3,0.1,0.6-0.1,0.6-0.4l0.3-1.3c0.1-0.6,0.5-1,1-1.3
	c0.5-0.3,1.1-0.3,1.6,0l0.1,0.1c0.5,0.3,0.8,0.8,0.8,1.4c0,0.6-0.2,1.2-0.7,1.6L10,19c-0.2,0.2-0.2,0.5,0,0.8c0.2,0.2,0.5,0.2,0.7,0
	l0.8-0.8v1.7c0,0.3,0.2,0.5,0.5,0.5c0.3,0,0.5-0.2,0.5-0.5V19l0.8,0.8c0.1,0.1,0.2,0.2,0.4,0.2c0.5,0,0.7-0.6,0.4-0.9l-0.9-0.9
	c-0.4-0.4-0.7-1-0.7-1.6c0-0.6,0.3-1.1,0.8-1.4l0.1-0.1c0.5-0.3,1.1-0.3,1.6,0c0.5,0.3,0.9,0.8,1,1.3l0.3,1.3
	c0.1,0.2,0.3,0.4,0.5,0.4c0.3,0,0.6-0.3,0.5-0.7l-0.3-1.1l1.4,0.8c0.3,0.1,0.6,0.1,0.7-0.2C19.5,16.6,19.5,16.3,19.2,16.1z
	 M13.8,12.6c0,0.6-0.3,1.2-0.9,1.5c-0.6,0.3-1.2,0.3-1.8,0c-0.5-0.3-0.9-0.9-0.9-1.5v0c0-0.6,0.3-1.2,0.9-1.5c0.6-0.3,1.2-0.3,1.8,0
	C13.5,11.3,13.8,11.9,13.8,12.6L13.8,12.6z"/>
</svg>
