<?xml version="1.0" encoding="utf-8"?>
<!-- Generator: Adobe Illustrator 27.7.0, SVG Export Plug-In . SVG Version: 6.00 Build 0)  -->
<svg version="1.1" id="Layer_1" xmlns="http://www.w3.org/2000/svg" xmlns:xlink="http://www.w3.org/1999/xlink" x="0px" y="0px"
	 viewBox="0 0 500 500" style="enable-background:new 0 0 500 500;" xml:space="preserve">
<style type="text/css">
	.st0{fill:url(#SVGID_1_);}
	.st1{clip-path:url(#SVGID_00000041253041503746188240000012487080619834366605_);}
	.st2{fill:#FFFEFF;}
</style>
<linearGradient id="SVGID_1_" gradientUnits="userSpaceOnUse" x1="446.002" y1="566.7865" x2="104.3006" y2="14.3216" gradientTransform="matrix(1 0 0 -1 0 499.8898)">
	<stop  offset="0" style="stop-color:#34B0DF"/>
	<stop  offset="1" style="stop-color:#1E88D3"/>
</linearGradient>
<path class="st0" d="M250,500c138.1,0,250-111.9,250-250C500,111.9,388.1,0,250,0C111.9,0,0,111.9,0,250C0,388.1,111.9,500,250,500z
	"/>
<g>
	<defs>
		<rect id="SVGID_00000015312993149786463780000000918737646729620628_" x="100.9" y="107.9" width="325.7" height="265.7"/>
	</defs>
	<clipPath id="SVGID_00000015336414486600097980000003078799666155002763_">
		<use xlink:href="#SVGID_00000015312993149786463780000000918737646729620628_"  style="overflow:visible;"/>
	</clipPath>
	<g style="clip-path:url(#SVGID_00000015336414486600097980000003078799666155002763_);">
		<path class="st2" d="M384.5,107.9h-86.4c-22,0-39.9,17.8-39.9,39.9v186c0,22,17.9,39.9,39.9,39.9h86.4c22,0,39.9-17.8,39.9-39.9
			v-186C424.4,125.7,406.6,107.9,384.5,107.9z"/>
	</g>
</g>
<path class="st2" d="M163,347c-18.1,0-33.4-2.8-45.8-8.5c-12.3-5.7-21.6-13.4-28-23.2c-6.2-9.9-9.3-21.3-9.3-34.1h47.9
	c0,4.6,1.2,8.9,3.7,12.8c2.7,3.7,6.6,6.7,11.7,8.8c5.2,2.1,11.7,3.2,19.7,3.2c6.9,0,12.8-0.9,17.6-2.7c5-1.8,8.7-4.3,11.2-7.5
	c2.7-3.2,4-7,4-11.5c0-5.7-2.4-10-7.2-13.1c-4.8-3.2-12.9-5.2-24.2-6.1l-12.5-1.1c-20.1-1.8-36.1-8.1-47.9-18.9
	C92,234.4,86.1,220,86.1,202.1c0-12.8,2.9-23.7,8.8-32.8c6-9.1,14.5-16,25.3-20.8c10.8-4.8,23.6-7.2,38.4-7.2c16,0,29.5,2.7,40.5,8
	c11.2,5.3,19.7,12.9,25.6,22.6c5.9,9.6,8.8,20.8,8.8,33.6h-47.9c0-4.3-1.1-8.2-3.2-11.7c-2.1-3.6-5.2-6.3-9.3-8.3
	c-3.9-2.1-8.7-3.2-14.4-3.2c-5.3,0-9.9,0.9-13.6,2.7c-3.6,1.6-6.3,3.9-8.3,6.9c-1.8,3-2.7,6.4-2.7,10.1c0,5,1.7,9.2,5.1,12.8
	c3.4,3.6,9.2,5.7,17.6,6.4l12.5,1.1c14.6,1.2,27.4,4.4,38.6,9.6c11.2,5,20,11.8,26.4,20.5c6.4,8.7,9.6,19.4,9.6,32
	c0,12.6-3.3,23.6-9.9,33c-6.4,9.4-15.6,16.7-27.7,21.8C194.3,344.4,179.9,347,163,347z"/>
</svg>
