<?xml version="1.0" encoding="UTF-8"?><svg id="spike" xmlns="http://www.w3.org/2000/svg" xmlns:xlink="http://www.w3.org/1999/xlink" viewBox="0 0 500 500"><defs><style>.cls-1{fill:url(#linear-gradient);}.cls-2{fill:#fff;}.cls-3{fill:url(#linear-gradient-2);}</style><linearGradient id="linear-gradient" x1="36.57" y1="463.63" x2="463.42" y2="36.78" gradientUnits="userSpaceOnUse"><stop offset="0" stop-color="#0f2fca"/><stop offset="1" stop-color="#099cfa"/></linearGradient><linearGradient id="linear-gradient-2" x1="-18.85" y1="368.95" x2="122.42" y2="227.68" gradientUnits="userSpaceOnUse"><stop offset="0" stop-color="#f2f1ff"/><stop offset="1" stop-color="#1963de"/></linearGradient></defs><path class="cls-1" d="M496.66,124.15v247.06c0,81.09-48.13,125.45-125.45,125.45H128.28c-69.08,0-116.45-37.21-124.29-104.88-.77-6.57-1.15-13.42-1.15-20.56V128.28C2.83,50.84,52.91,2.83,122.78,2.83h251.18c40.08,0,72.86,14.44,94.4,39.27,15.51,17.84,25.22,41.06,27.68,68.14h0c.41,4.55,.62,9.18,.62,13.92Z"/><path class="cls-3" d="M145.25,250.51L3.98,391.78c-.77-6.57-1.15-13.42-1.15-20.56v-69.61l74.06-74.06c12.53-12.53,32.85-12.54,45.39-.03,.01,.01,.03,.03,.03,.03l22.95,22.95Z"/><path class="cls-2" d="M496.04,110.24h0s-222.46,220.84-222.46,220.84c-13.22,13.11-34.52,13.08-47.69-.07l-103.59-103.45s-.01-.01-.03-.03c-.44-.58-7.82-9.7-21.97-9.7h92.33c9.07,0,17.73,3.6,24.15,10.01l32.91,32.91L468.36,42.1c15.51,17.84,25.22,41.06,27.68,68.14Z"/></svg>