<?xml version="1.0" encoding="utf-8"?>
<!-- Generator: Adobe Illustrator 26.5.0, SVG Export Plug-In . SVG Version: 6.00 Build 0)  -->
<svg version="1.1" id="ssv" xmlns="http://www.w3.org/2000/svg" xmlns:xlink="http://www.w3.org/1999/xlink" x="0px" y="0px"
	 viewBox="0 0 500 500" style="enable-background:new 0 0 500 500;" xml:space="preserve">
<style type="text/css">
	.st0{fill:#72C7FB;}
	.st1{fill:#1BA5F8;}
</style>
<path class="st0" d="M175.7,393.7l62.6-76.9c6.6-7.7,18.7-7.7,25.3,0l62.6,76.9c4.4,5.5,4.4,14.3,0,20.9l-62.6,76.9
	c-6.6,7.7-18.7,7.7-25.3,0l-62.6-76.9C171.3,408,171.3,399.2,175.7,393.7z"/>
<path class="st1" d="M421.9,205.8l-62.6-76.9c-6.6-7.7-18.7-7.7-25.3,0l-62.6,76.9c-4.4,5.5-4.4,14.3,0,20.9l62.6,76.9
	c6.6,7.7,18.7,7.7,25.3,0l62.6-76.9C426.3,221.2,426.3,212.4,421.9,205.8z M166.9,128.8c-6.6-7.7-18.7-7.7-25.3,0L79,205.8
	c-4.4,5.5-4.4,14.3,0,20.9l62.6,76.9c6.6,7.7,18.7,7.7,25.3,0l62.6-76.9c4.4-5.5,4.4-14.3,0-20.9L166.9,128.8z M326.3,84.9
	L263.6,7.9c-6.6-7.7-18.7-7.7-25.3,0l-62.6,76.9c-4.4,5.5-4.4,14.3,0,20.9l62.6,76.9c6.6,7.7,18.7,7.7,25.3,0l62.6-76.9
	C330.7,100.3,330.7,91.5,326.3,84.9z"/>
</svg>
