<?xml version="1.0" encoding="utf-8"?>
<!-- Generator: Adobe Illustrator 19.2.1, SVG Export Plug-In . SVG Version: 6.00 Build 0)  -->
<svg version="1.1" id="Logo" xmlns="http://www.w3.org/2000/svg" xmlns:xlink="http://www.w3.org/1999/xlink" x="0px" y="0px"
	 viewBox="0 0 590.9 590.9" style="enable-background:new 0 0 590.9 590.9;" xml:space="preserve">
<style type="text/css">
	.st0{fill:#171FC9;}
</style>
<g>
	<path class="st0" d="M295.5,0C132.3,0,0,132.3,0,295.5s132.3,295.5,295.5,295.5s295.5-132.3,295.5-295.5S458.7,0,295.5,0z
		 M221.6,397.6l-2.8,2.8c-5.8,5.8-12,11.3-18.4,16.4l-7.4,5.8c-0.5,0.4-1.1,0.6-1.7,0.6c-0.5,0-1-0.1-1.4-0.4
		c-1-0.6-1.5-1.7-1.2-2.9l2.9-13.1c3.2-14.2,2.5-29.1-2-43l-1.6-4.8c-1.8-5.6-4-11.1-6.3-16.5l0,0L147.6,262l-3.7-11
		c-1.1-3.4-1.9-6.9-2.3-10.5l-0.6-5.5c-1.7-15.5,3.6-30.7,14.6-41.7l2.8-2.8c5.8-5.8,12-11.3,18.4-16.4l7.4-5.8
		c0.9-0.7,2.1-0.8,3.1-0.2c1,0.6,1.5,1.7,1.2,2.9l-2.9,13.1c-3.2,14.2-2.5,29.1,2,43l1.6,4.8c1.8,5.6,4,11.1,6.3,16.5l34.2,80.5
		l3.7,11c1.1,3.4,1.9,6.9,2.3,10.5l0.6,5.5C237.9,371.3,232.6,386.6,221.6,397.6z M337,424l-3.6,3.6c-7.3,7.3-15.1,14.3-23.2,20.6
		l-9.6,7.6c-0.5,0.4-1.2,0.6-1.8,0.6c-0.5,0-1.1-0.2-1.6-0.5c-1.1-0.7-1.6-1.9-1.3-3.1l3.8-16.9c4-18,3.1-36.8-2.6-54.3l-2-6.1
		c-2.3-7.1-5-14.1-8-20.9l0,0L244,253.1l-4.6-13.8c-1.4-4.2-2.4-8.7-2.9-13.1l-0.8-7c-2.2-19.4,4.5-38.4,18.2-52.3l3.6-3.6
		c7.3-7.3,15.1-14.3,23.2-20.6l9.6-7.6c1-0.8,2.3-0.9,3.4-0.2c1.1,0.7,1.6,1.9,1.3,3.1l-3.8,16.9c-4,18-3.1,36.8,2.6,54.3l2,6.1
		c2.3,7,5,14.1,8,20.9l43.1,101.6l4.6,13.8c1.4,4.2,2.4,8.7,2.9,13.1l0.8,7C357.4,391.1,350.7,410.2,337,424z M435.4,397.6l-2.8,2.8
		c-5.8,5.8-12,11.3-18.4,16.4l-7.4,5.8c-0.5,0.4-1.1,0.6-1.7,0.6c-0.5,0-1-0.1-1.4-0.4c-1-0.6-1.5-1.7-1.2-2.9l2.9-13.1
		c3.2-14.2,2.5-29.1-2-43l-1.6-4.8c-1.8-5.6-4-11.1-6.3-16.5l0,0L361.3,262l-3.7-11c-1.1-3.4-1.9-6.9-2.3-10.5l-0.6-5.5
		c-1.7-15.5,3.6-30.7,14.6-41.7l2.8-2.8c5.8-5.8,12-11.3,18.4-16.4l7.4-5.8c0.9-0.7,2.1-0.8,3.1-0.2c1,0.6,1.5,1.7,1.2,2.9
		l-2.9,13.1c-3.2,14.2-2.5,29.1,2,43l1.6,4.8c1.8,5.6,4,11.1,6.3,16.5l34.2,80.5l3.7,11c1.1,3.4,1.9,6.9,2.3,10.5l0.6,5.5
		C451.7,371.3,446.4,386.6,435.4,397.6z"/>
</g>
</svg>
