<?xml version="1.0" encoding="utf-8"?>
<!-- Generator: Adobe Illustrator 26.0.1, SVG Export Plug-In . SVG Version: 6.00 Build 0)  -->
<svg version="1.1" id="Layer_1" xmlns="http://www.w3.org/2000/svg" xmlns:xlink="http://www.w3.org/1999/xlink" x="0px" y="0px"
	 viewBox="0 0 18.6 26" style="enable-background:new 0 0 18.6 26;" xml:space="preserve">
<style type="text/css">
	.st0{fill:#00A3FF;}
	.st1{opacity:0.6;fill:#00A3FF;enable-background:new    ;}
	.st2{opacity:0.2;fill:#00A3FF;enable-background:new    ;}
</style>
<path class="st0" d="M1.7,11.7L1.5,12c-2.3,3.6-1.8,8.3,1.3,11.3C4.5,25.1,6.9,26,9.3,26C9.3,26,9.3,26,1.7,11.7z"/>
<path class="st1" d="M9.3,16l-7.6-4.4C9.3,26,9.3,26,9.3,26C9.3,22.9,9.3,19.3,9.3,16z"/>
<path class="st1" d="M16.9,11.7l0.2,0.3c2.3,3.6,1.8,8.3-1.3,11.3C14,25.1,11.7,26,9.3,26C9.3,26,9.3,26,16.9,11.7z"/>
<path class="st2" d="M9.3,16l7.6-4.4C9.3,26,9.3,26,9.3,26C9.3,22.9,9.3,19.3,9.3,16z"/>
<path class="st2" d="M9.3,6.3v7.5l6.6-3.7L9.3,6.3z"/>
<path class="st1" d="M9.3,6.3l-6.6,3.8l6.6,3.7V6.3z"/>
<path class="st0" d="M9.3,0L2.7,10.1l6.6-3.8V0z"/>
<path class="st1" d="M9.3,6.3l6.6,3.8L9.3,0V6.3z"/>
</svg>
