<?xml version="1.0" encoding="utf-8"?>
<!-- Generator: Adobe Illustrator 24.0.0, SVG Export Plug-In . SVG Version: 6.00 Build 0)  -->
<svg version="1.1" id="STRONG_Token" xmlns="http://www.w3.org/2000/svg" xmlns:xlink="http://www.w3.org/1999/xlink" x="0px"
	 y="0px" viewBox="0 0 563.2 563.2" style="enable-background:new 0 0 563.2 563.2;" xml:space="preserve">
<style type="text/css">
	.st0{fill:#0E67AE;}
	.st1{fill:none;stroke:#0E67AE;stroke-width:26;stroke-miterlimit:10;}
</style>
<path class="st0" d="M111.6,119.1h234c0.7,0,1.3,0.2,1.8,0.6l95.2,70c1.4,1,1.6,2.9,0.6,4.3c-0.6,0.8-1.5,1.2-2.5,1.2H193.6
	c-1.7,0-3.1,1.4-3.1,3.1V288c0,1.7,1.4,3.1,3.1,3.1l0,0h157.5c1.7,0,3.1,1.4,3.1,3.1v65.4c0,1.7-1.4,3.1-3.1,3.1H110.5
	c-1.7,0-3.1-1.4-3.1-3.1c0,0,0,0,0,0l1.1-237.3C108.5,120.5,109.8,119.2,111.6,119.1C111.5,119.1,111.6,119.1,111.6,119.1z"/>
<path class="st0" d="M448.9,450.8H205.4c-0.7,0-1.3-0.2-1.8-0.6l-89.5-66.2c-1.4-1-1.6-2.9-0.6-4.3c0.6-0.8,1.5-1.2,2.5-1.2H367
	c1.7,0,3.1-1.4,3.1-3.1c0,0,0,0,0,0v-97.3c0-1.7-1.4-3.1-3.1-3.1H211.8c-1.7,0-3.1-1.4-3.1-3c0,0,0,0,0,0v-57.7c0-1.7,1.4-3.1,3-3.1
	c0,0,0,0,0,0H450c1.7,0,3.1,1.4,3.1,3.1c0,0,0,0,0,0L452,447.8C451.9,449.5,450.6,450.8,448.9,450.8z"/>
<circle class="st1" cx="281.6" cy="281.6" r="268.6"/>
</svg>
