<?xml version="1.0" encoding="utf-8"?>
<!-- Generator: Adobe Illustrator 27.0.1, SVG Export Plug-In . SVG Version: 6.00 Build 0)  -->
<svg version="1.1" id="stz" xmlns="http://www.w3.org/2000/svg" xmlns:xlink="http://www.w3.org/1999/xlink" x="0px" y="0px"
	 viewBox="0 0 500 500" style="enable-background:new 0 0 500 500;" xml:space="preserve">
<style type="text/css">
	.st0{fill:url(#SVGID_1_);}
	.st1{fill:url(#SVGID_00000125561816172073985010000008714819902162003617_);}
	.st2{fill:#FF4299;}
</style>
<radialGradient id="SVGID_1_" cx="405.7317" cy="76.8551" r="558.5939" gradientUnits="userSpaceOnUse">
	<stop  offset="0" style="stop-color:#FF4299"/>
	<stop  offset="0.9426" style="stop-color:#005EE6"/>
</radialGradient>
<path class="st0" d="M198.7,465.1c-9.3,0-28.7-1.6-38.9-5.1c-1.2-0.4-1.8-1.9-1.1-3l30.9-51.5c0.7-1.2,2-1.9,3.3-2
	c1-0.1,1-0.1,5.8-0.1c68.9,0,124.8-55.8,124.8-124.7c0-24.8-2.7-42.7-14-59.5c-1-1.5-0.9-3.4,0-4.8l33-50.1c0.8-1.2,2.6-1.3,3.5-0.2
	c29.4,35.8,39.1,76.8,39.1,114.7C385.1,381.5,301.5,465.1,198.7,465.1z"/>
<radialGradient id="SVGID_00000067221133906120823200000017587449707818751395_" cx="405.7317" cy="76.8551" r="558.5939" gradientUnits="userSpaceOnUse">
	<stop  offset="0" style="stop-color:#FF4299"/>
	<stop  offset="1" style="stop-color:#005EE6"/>
</radialGradient>
<path style="fill:url(#SVGID_00000067221133906120823200000017587449707818751395_);" d="M385.4,96.9l-61.4,40.8
	c-1.1,0.7-2.5,0.6-3.5-0.2c-33.8-29.2-76.9-45.2-121.7-45.2c-102.8,0-186.4,83.6-186.4,186.4c0,13.5,1.5,26.9,4.4,40
	c3.6,16.2,4.5,32.8,2.1,49.2L2.2,483.3c-0.3,2.2,2.4,3.6,4,2L385.4,96.9z M198.7,153.9c23.8,0,46.8,6.7,66.6,19.3
	c1.2,0.8,1.2,2.5,0,3.3L79.2,300c-1.5,1-3.5,0.1-3.8-1.7c-1-6.4-1.5-13-1.5-19.7C73.9,209.9,129.9,153.9,198.7,153.9z"/>
<path class="st2" d="M494.7,10.1c1.5,0,2.7,1.1,2.8,2.6c0.2,5-0.5,16.6-10.2,28.2c-13,15.4-26.2,21.3-27.8,40.7
	c-1.6,19.4-5.4,33.7-7.6,41.8c-0.6,2.1-1.1,4-1.6,5.7c-0.7,2.4-4.1,2.6-5,0.3c-4.7-11.1-14.7-32.8-26.6-46.2
	c-13.8-15.6-34.6-28.8-45.6-35.1c-2.4-1.4-1.7-4.9,1-5.3c8.1-1.2,20.7-2.8,31.9-3.3c18.1-0.8,28.3,3,37.8-4.9
	C453,27.1,465,9.8,494.7,10.1z"/>
</svg>
