<?xml version="1.0" encoding="utf-8"?>
<!-- Generator: Adobe Illustrator 26.0.1, SVG Export Plug-In . SVG Version: 6.00 Build 0)  -->
<svg version="1.1"
	 id="svg10" sodipodi:docname="Sui SUI Coin Icon 256x256.svg" xmlns:inkscape="http://www.inkscape.org/namespaces/inkscape" xmlns:sodipodi="http://sodipodi.sourceforge.net/DTD/sodipodi-0.dtd" xmlns:svg="http://www.w3.org/2000/svg"
	 xmlns="http://www.w3.org/2000/svg" xmlns:xlink="http://www.w3.org/1999/xlink" x="0px" y="0px" viewBox="0 0 256 256"
	 style="enable-background:new 0 0 256 256;" xml:space="preserve">
<style type="text/css">
	.st0{fill:#6FBCF0;}
	.st1{fill-rule:evenodd;clip-rule:evenodd;fill:#FFFFFF;stroke:#FFFFFF;stroke-width:5.8052;stroke-opacity:0;}
</style>
<sodipodi:namedview  bordercolor="#666666" borderopacity="1.0" id="namedview12" inkscape:current-layer="svg10" inkscape:cx="48.20339" inkscape:cy="122.0339" inkscape:deskcolor="#d1d1d1" inkscape:pagecheckerboard="0" inkscape:pageopacity="0.0" inkscape:showpageshadow="2" inkscape:window-height="705" inkscape:window-maximized="1" inkscape:window-width="1366" inkscape:window-x="-8" inkscape:window-y="-8" inkscape:zoom="0.81944445" pagecolor="#ffffff" showgrid="false">
	</sodipodi:namedview>
<circle id="path1579" class="st0" cx="128" cy="128" r="128"/>
<path id="path8" class="st1" d="M66.6,194.6c12.8,22.2,35.8,35.5,61.4,35.5c25.6,0,48.6-13.3,61.4-35.5c12.8-22.2,12.8-48.7,0-70.9
	l-54-93.6c-3.3-5.7-11.5-5.7-14.8,0l-54,93.6C53.7,145.9,53.7,172.4,66.6,194.6L66.6,194.6z M112.8,74.6l11.5-20
	c1.6-2.8,5.8-2.8,7.4,0l44.3,76.8c8.1,14.1,9.7,30.4,4.6,45.4c-0.5-2.4-1.3-4.9-2.3-7.4c-6.1-15.5-20-27.4-41.2-35.4
	c-14.6-5.5-23.9-13.7-27.6-24.2C104.7,96.2,109.8,81.4,112.8,74.6L112.8,74.6z M93.1,108.6L80,131.4c-10,17.4-10,38.1,0,55.5
	c10,17.4,28,27.7,48,27.7c13.3,0,25.7-4.6,35.5-12.7c1.3-3.2,5.2-14.9,0.3-27c-4.5-11.2-15.3-20.1-32.2-26.5
	c-19-7.2-31.4-18.5-36.8-33.5C94.1,112.8,93.6,110.7,93.1,108.6z"/>
</svg>
