<?xml version="1.0" encoding="utf-8"?>
<!-- Generator: Adobe Illustrator 27.7.0, SVG Export Plug-In . SVG Version: 6.00 Build 0)  -->
<svg version="1.1" id="Layer_1" xmlns="http://www.w3.org/2000/svg" xmlns:xlink="http://www.w3.org/1999/xlink" x="0px" y="0px"
	 viewBox="0 0 500 500" style="enable-background:new 0 0 500 500;" xml:space="preserve">
<style type="text/css">
	.st0{fill:url(#SVGID_1_);filter:url(#Adobe_OpacityMaskFilter);}
	.st1{mask:url(#mask0-911594_00000157279346823693876550000005593994782145956760_);}
	.st2{fill:#31D8A4;}
	.st3{fill:#FFFFFF;}
	.st4{fill:#0E052F;}
</style>
<defs>
	<filter id="Adobe_OpacityMaskFilter" filterUnits="userSpaceOnUse" x="0" y="0" width="500" height="500">
		<feColorMatrix  type="matrix" values="1 0 0 0 0  0 1 0 0 0  0 0 1 0 0  0 0 0 1 0"/>
	</filter>
</defs>
<mask maskUnits="userSpaceOnUse" x="0" y="0" width="500" height="500" id="mask0-911594_00000157279346823693876550000005593994782145956760_">
	
		<linearGradient id="SVGID_1_" gradientUnits="userSpaceOnUse" x1="250" y1="499.8898" x2="250" y2="-231.1706" gradientTransform="matrix(1 0 0 -1 0 499.8898)">
		<stop  offset="0" style="stop-color:#08021E"/>
		<stop  offset="1" style="stop-color:#1F0777"/>
	</linearGradient>
	<circle class="st0" cx="250" cy="250" r="250"/>
</mask>
<g class="st1">
	<circle class="st2" cx="250" cy="250" r="250"/>
	<circle class="st3" cx="250" cy="250" r="216.7"/>
</g>
<circle class="st4" cx="250" cy="250" r="191.7"/>
<path class="st3" d="M243.6,336.5c-8.3-0.7-16.2-2.5-23.5-5.5c-7.3-3.2-13.7-7.2-19-12.2c-5.3-5-9.6-10.8-12.7-17.2
	c-3.2-6.5-4.8-13.6-5-21.2h30.8c0.3,8.2,3.2,15,8.5,20.5c5.5,5.3,12.5,8.4,21,9.2v-49.5l-11.8-1.8c-13.5-1.8-24.2-6.9-32.2-15.2
	c-7.8-8.3-11.8-18.9-11.8-31.8c0-6.7,1.5-12.9,4.5-18.8c3-6,7.1-11.2,12.2-15.8c5.2-4.7,11.1-8.4,17.8-11.2
	c6.8-2.8,13.9-4.6,21.2-5.2v-23.3h18.3v23.8c7.5,1,14.4,3,20.8,6c6.3,2.8,11.8,6.5,16.5,11c4.7,4.5,8.3,9.7,11,15.5
	c2.8,5.8,4.4,12.1,4.8,18.8h-30.7c-0.3-6-2.6-11.2-6.8-15.5c-4-4.5-9.2-7.6-15.5-9.2v45.8l8.5,1.2c6.3,1,12.3,2.8,18,5.2
	c5.7,2.5,10.6,5.8,14.8,9.8c4.3,4,7.7,8.8,10,14.5c2.5,5.5,3.8,11.8,3.8,18.8c0,7.5-1.4,14.3-4.3,20.5c-2.7,6-6.5,11.3-11.5,16
	c-4.8,4.5-10.7,8.3-17.5,11.2c-6.7,2.8-13.9,4.7-21.7,5.5V362h-18.3V336.5z M261.8,309.8c7.8-1.3,13.9-4.2,18.2-8.5
	c4.3-4.5,6.5-10.2,6.5-17c0-6.3-2.1-11-6.2-14c-4.2-3.2-8.9-5.2-14.2-6.2l-4.2-0.8V309.8z M243.6,187c-7,1-13,3.6-18,7.8
	c-4.8,4-7.2,9.4-7.2,16.2c0,5.8,1.6,10.2,4.8,13.2c3.3,2.8,7.7,4.7,13,5.5l7.5,1.2V187z"/>
</svg>
