<svg xmlns="http://www.w3.org/2000/svg" xmlns:xlink="http://www.w3.org/1999/xlink" viewBox="0 0 19.22 31.02"><defs><style>.cls-1{fill:#fff;}.cls-1,.cls-3,.cls-5{fill-rule:evenodd;}.cls-2{mask:url(#mask);}.cls-3{fill:#242328;}.cls-4{mask:url(#mask-2-2);}.cls-5{fill:#a573ff;}</style><mask id="mask" x="0.61" y="0" width="12.78" height="12.79" maskUnits="userSpaceOnUse"><g id="mask-2"><polygon id="path-1" class="cls-1" points="0.61 0 13.39 0 13.39 12.79 0.61 12.79 0.61 0"/></g></mask><mask id="mask-2-2" x="0" y="11.89" width="18.61" height="19.13" maskUnits="userSpaceOnUse"><g id="mask-4"><polygon id="path-3" class="cls-1" points="0 11.89 18.61 11.89 18.61 31.02 0 31.02 0 11.89"/></g></mask></defs><title>suterusu-suter-logo</title><g id="Layer_2" data-name="Layer 2"><g id="Layer_1-2" data-name="Layer 1"><g id="Group-20"><g class="cls-2"><path id="Fill-18" class="cls-3" d="M1.1,12.3h0a1.67,1.67,0,0,1,0-2.37L10.52.49a1.7,1.7,0,0,1,2.38,0,1.7,1.7,0,0,1,0,2.38L3.47,12.3a1.67,1.67,0,0,1-2.37,0"/></g></g><g id="Group-23"><g class="cls-4"><path id="Fill-21" class="cls-3" d="M18.12,18.71h0a1.68,1.68,0,0,1,0,2.38L8.7,30.52a1.68,1.68,0,1,1-2.38-2.37l9.43-9.44a1.68,1.68,0,0,1,2.37,0m-17.63,2h0a1.7,1.7,0,0,1,0-2.38l6-6a1.67,1.67,0,0,1,2.37,0,1.7,1.7,0,0,1,0,2.38l-6,6a1.68,1.68,0,0,1-2.37,0"/></g></g><path id="Fill-24" class="cls-5" d="M18.73,10.29h0a1.68,1.68,0,0,1,0,2.37l-6,6a1.68,1.68,0,1,1-2.37-2.38l6-6a1.67,1.67,0,0,1,2.37,0"/></g></g></svg>