<?xml version="1.0" encoding="utf-8"?>
<!-- Generator: Adobe Illustrator 27.7.0, SVG Export Plug-In . SVG Version: 6.00 Build 0)  -->
<svg version="1.1" id="Layer_1" xmlns="http://www.w3.org/2000/svg" xmlns:xlink="http://www.w3.org/1999/xlink" x="0px" y="0px"
	 viewBox="0 0 500 500" style="enable-background:new 0 0 500 500;" xml:space="preserve">
<style type="text/css">
	.st0{fill:url(#SVGID_1_);}
</style>
<linearGradient id="SVGID_1_" gradientUnits="userSpaceOnUse" x1="251.4726" y1="500.8808" x2="246.5706" y2="-342.2565" gradientTransform="matrix(1 0 0 -1 0 500.8898)">
	<stop  offset="0" style="stop-color:#3068EF"/>
	<stop  offset="1" style="stop-color:#1322AC"/>
</linearGradient>
<path class="st0" d="M479,303l-0.6,0.7c-0.3,0.3-0.6,0.6-0.9,0.9L304.3,477.4c-30.2,30.1-79.1,30.1-109.2,0l-47.8-47.7
	c-3.4-3.4-3.4-8.9,0-12.2c1-1,2.2-1.7,3.6-2.2c51.3-15.8,92.9-34.1,124.9-54.8C352,311.2,419.8,292,479,303z M442.7,160.7
	c63.9,20.1,56.5,67.2,57.3,85.7c-70-36.7-154.2-23.3-252.7,40.4c-73.4,47.4-134.8,67-184.4,58.7C13.4,337.2,2.2,276.6,0,260.6
	c54.4,27.5,127.4,11.7,218.9-47.4C304.2,158.1,378.7,140.6,442.7,160.7z M304.3,22.6l44.9,44.9c3.4,3.4,3.4,8.9,0,12.2
	c-1.2,1.2-2.7,2-4.4,2.4c-65,13.1-117.1,32.3-156.1,57.5C121.9,182.7,65,202.8,17.9,199.7l0,0L195.1,22.6
	C225.2-7.5,274.1-7.5,304.3,22.6z"/>
</svg>
