<svg id="Layer_1" data-name="Layer 1" xmlns="http://www.w3.org/2000/svg" viewBox="0 0 2500 2499.93"><title>lamden-tau-logo</title><path d="M262.86,959.74,0,1222.55H525.68Z" style="fill:#a02870"/><path d="M525.61,1277.45H.09l262.75,262.79,262.77-262.79Z" style="fill:#80286c"/><path d="M882.15,920.93,619.31,658.11v525.61Z" style="fill:#c42c79"/><path d="M564.44,1183.72V658.11L301.62,920.93Z" style="fill:#a02870"/><path d="M921,882.1l262.8-262.77H658.14Z" style="fill:#c42c79"/><path d="M630.69,591.89l0,0v-.07Z" style="fill:#fff"/><path d="M921,301.62,658.11,564.46h525.66Z" style="fill:#e4327f"/><path d="M1540.24,262.82,1277.45,0V525.61Z" style="fill:#0a8b4b"/><path d="M1222.55,525.63V0L959.74,262.82Z" style="fill:#e4327f"/><path d="M882.15,1579,619.31,1316.23v525.61Z" style="fill:#632a69"/><path d="M301.65,1579l262.81,262.79V1316.23Z" style="fill:#80286c"/><path d="M1579.05,882.1l262.81-262.77H1316.25Z" style="fill:#167b55"/><path d="M1316.23,564.44h525.63L1579.05,301.62Z" style="fill:#0a8b4b"/><path d="M1183.79,1935.49H658.11l262.82,262.84,262.86-262.84Z" style="fill:#402863"/><path d="M921,1617.85,658.16,1880.62h525.56Z" style="fill:#632a69"/><path d="M1908.07,1211.15l0,0,0,0Z" style="fill:#fff"/><path d="M2198.35,920.93,1935.54,658.14V1183.7Z" style="fill:#21695e"/><path d="M1617.85,920.93l262.84,262.82V658.11Z" style="fill:#167b55"/><path d="M959.76,2237.14l262.79,262.79V1974.32Z" style="fill:#402863"/><path d="M1277.45,1974.34v525.57l262.81-262.77Zm301.6,224,262.84-262.84H1316.21Z" style="fill:#223160"/><path d="M1579.05,1617.85l-262.77,262.77h525.53Z" style="fill:#1e4561"/><path d="M1935.56,1316.23v525.58L2198.35,1579Z" style="fill:#245661"/><path d="M1908.09,1288.78" style="fill:#fff"/><path d="M1617.85,1579l262.84,262.82V1316.21Z" style="fill:#1e4561"/><path d="M2237.16,1540.24,2500,1277.42H1974.37Z" style="fill:#245661"/><path d="M2237.16,959.74,1974.3,1222.55H2500Z" style="fill:#21695e"/></svg>