<?xml version="1.0" encoding="utf-8"?>
<!-- Generator: Adobe Illustrator 27.7.0, SVG Export Plug-In . SVG Version: 6.00 Build 0)  -->
<svg version="1.1" id="Layer_1" xmlns="http://www.w3.org/2000/svg" xmlns:xlink="http://www.w3.org/1999/xlink" x="0px" y="0px"
	 viewBox="0 0 500 500" style="enable-background:new 0 0 500 500;" xml:space="preserve">
<style type="text/css">
	.st0{fill:#FFFFFF;}
</style>
<circle cx="250" cy="250" r="250"/>
<rect x="166.7" y="229.1" class="st0" width="41.9" height="41.9"/>
<rect x="124.8" y="187.2" class="st0" width="41.9" height="41.9"/>
<rect x="83" y="229.1" class="st0" width="41.9" height="41.9"/>
<rect x="124.8" y="270.9" class="st0" width="41.9" height="41.9"/>
<path class="st0" d="M404.7,196.2c-3-30.8-29.5-41.1-63.1-44.1v-19.7h-26V151c-6.8,0-13.8,0.1-20.8,0.3v-18.9h-26v19.7
	c-5.6,0.1-40.2,0.1-40.2,0.1l-0.1,22.9l21.7,0.1v150.2h-21.7l-0.2,22.6c6.3,0,34.3,0.1,40.4,0.2v19.5h26v-19
	c7.1,0.2,14,0.2,20.8,0.2v18.8h26v-19.4c43.7-2.5,74.3-13.5,78.1-54.5c3.1-33-12.5-47.8-37.3-53.8
	C397.4,232.2,406.9,218.7,404.7,196.2L404.7,196.2z M368.2,288.6c0,32.3-55.3,28.6-72.9,28.6v-57.2
	C313,259.9,368.2,254.9,368.2,288.6L368.2,288.6z M356.2,207.8c0,29.4-46.1,25.9-60.8,25.9v-51.9
	C310.1,181.8,356.2,177.2,356.2,207.8z"/>
</svg>
