<svg viewBox="0 0 410.23 353.46" xmlns="http://www.w3.org/2000/svg" xmlns:xlink="http://www.w3.org/1999/xlink"><linearGradient id="a" gradientUnits="userSpaceOnUse" x1="86.84" x2="402.88" y1="37.2" y2="298.75"><stop offset="0" stop-color="#ea3570"/><stop offset=".88" stop-color="#138fc9"/></linearGradient><path d="m0 61.89c-1.07-31.89 23.65-58.62 55.25-59.72a57 57 0 0 1 46.52 21.44c-13.42 5.49-52.82 26.3-71.93 87a57.8 57.8 0 0 1 -29.84-48.72zm40.7 46.85h107.89a108.58 108.58 0 0 0 -42.91-70.42c-2.47-1.82-4.59-3.23-6.23-4.25a177.37 177.37 0 0 0 -58.71 74.67zm222 0h104.67a177.48 177.48 0 0 0 -56.25-72.83c-1.56 1-3.51 2.3-5.72 3.93a108.56 108.56 0 0 0 -42.68 68.9zm-136.3 86.34a111 111 0 0 0 23.49-73.67h-113.89a177.84 177.84 0 0 0 -5.79 87.83c41.81-.63 58.29-28 58.29-28l11.12 12.9c-18.42 23.6-46.39 29.63-65.77 30.69q2 7.23 4.67 14.2c43.39-1.52 70.89-22.19 87.9-43.95zm38.6-48.72c-4.92 28.11-15.4 49-28.37 64.59 7.28 9.14 28 28.86 71.31 28.13 0 0 34 3.07 66.4-26.65-12.92-15.56-23.34-36.43-28.34-64.55 0 0-13.88-83.21 48.45-123.22a175.76 175.76 0 0 0 -78.24-24.43v67h-20.21v-67.23a175.69 175.69 0 0 0 -79.54 23c62.48 40 48.54 123.36 48.54 123.36zm196.93-143.27a57.82 57.82 0 0 0 -53.66 19.51c50.83 27.87 65.52 70.18 70.9 87.82a57 57 0 0 0 30.27-41.32c5.23-31.18-16.04-60.74-47.51-66.01zm-49.54 187.85 12-12.78s14.89 25.48 54.16 27.26a178.46 178.46 0 0 0 2.33-28.78 176.63 176.63 0 0 0 -8.81-55.23h-110.82a111 111 0 0 0 23.41 75.19c16.54 21.17 43 41.32 84.38 43.75a174.72 174.72 0 0 0 6.24-19.44c-19.18-1.38-45.28-7.75-62.89-29.97zm-116.95 83.57v-12.62c-22.9-2.22-48-12.37-73.24-36.44-27.51 23.09-60.2 28.87-76.33 30.29a177.34 177.34 0 0 0 101.53 88.45 86.57 86.57 0 0 0 29.89-21.46 72.06 72.06 0 0 0 18.15-48.22zm-19.84 76.67a178.6 178.6 0 0 0 60.61-.64 160.48 160.48 0 0 1 -30.39-47.07 160.81 160.81 0 0 1 -30.22 47.71zm40.74-89.33v13a69.23 69.23 0 0 0 17.38 46.32 86.65 86.65 0 0 0 30.47 21.83 177.42 177.42 0 0 0 97.47-86.07c-16.6-1.88-45.59-8.08-70.76-28.26-10.48 8.81-38.52 29.56-74.56 33.18z" fill="url(#a)"/></svg>