<svg xmlns="http://www.w3.org/2000/svg" viewBox="0 0 120.64 99.98"><title>tera--logo</title><g id="Layer_2" data-name="Layer 2"><g id="Layer_1-2" data-name="Layer 1"><path d="M120.53,97.82h0s0,0,0,0l0-.06,0,0a.56.56,0,0,0,0-.08L61.66.82v0L61.58.7A1.53,1.53,0,0,0,59.46.25,1.63,1.63,0,0,0,59,.68l-.08.13Q53,10.59,47,20.32a3.39,3.39,0,0,0,0,3.87Q54.93,37.09,62.81,50a3.66,3.66,0,0,1,0,4.19C54.15,68.43,45,83.4,36.26,97.7a1.55,1.55,0,0,0,.63,2.09,1.51,1.51,0,0,0,.72.18H63a1.53,1.53,0,0,0,1.36-.81h0l.87-1.46L77,78.36h0a1.53,1.53,0,0,1,2.09-.61,1.44,1.44,0,0,1,.53.48l0,0v0l11.66,19,1.08,1.77a1.55,1.55,0,0,0,1.35.8h.71a2.16,2.16,0,0,0,.36,0H119.1a1.54,1.54,0,0,0,1.54-1.53A1.56,1.56,0,0,0,120.53,97.82Z"/><path d="M52.85,55.15l.85-1.4a3,3,0,0,0,0-3.43l-5.22-8.46-6-9.67a1.53,1.53,0,0,0-2.12-.5,1.51,1.51,0,0,0-.55.57L.18,97.71a1.54,1.54,0,0,0,.63,2.08,1.42,1.42,0,0,0,.73.19H24.82a1.54,1.54,0,0,0,1.35-.8h0l.89-1.48a1.63,1.63,0,0,0,.11-.17h0l1-1.6C36.46,82.18,44.4,69.05,52.71,55.37A2,2,0,0,0,52.85,55.15Z"/></g></g></svg>