<svg id="Layer_1" data-name="Layer 1" xmlns="http://www.w3.org/2000/svg" viewBox="0 0 456.2 456.2"><title>ternio-tern-logo</title><circle cx="228.1" cy="228.1" r="228.1" style="fill:#1b2d45"/><path d="M357.2,209.6v-56L228.1,78.9l-66.7,38.6,52.8,30.9-13.1,8.4-53.3-31.4L99,153.7,99.2,303l66.9,38.3V280.7l12.8,7.4v60.5l50,28.9,128.4-75V224.7l-52,30.5V240.4ZM165.7,192.1l7.1-3.9,52.6,30.4,56-31.3,8.4,4.8v8.4l-53,30.8v63l-8.7,5.9-6.8-4.8V235.1l-55.6-32.5Zm28.4,73-55-30.3v60.3L124.8,287l-.3-117.8,22-13.1,13.5,8.4-21.5,13,.1,39.8L194,249.8v15.3Zm137.2,6.2v16.3L227.7,347.2l-21.8-12.9V318.8l22.2,12.5,35.6-20.6V246.6l13.4-8.6.4,64.5ZM281.1,156l-55.3,32-12.3-7.6,54-31.9-53.1-30.7,13.7-8,102.8,59.6v24.8l-14.4,8.5V177.2Z" style="fill:#719cd0"/></svg>