<?xml version="1.0" encoding="UTF-8" standalone="no"?>
<!-- Generator: Adobe Illustrator 26.5.0, SVG Export Plug-In . SVG Version: 6.00 Build 0)  -->

<svg
   version="1.1"
   x="0px"
   y="0px"
   viewBox="0 0 476 476"
   xml:space="preserve"
   id="svg9"
   xmlns="http://www.w3.org/2000/svg"
   xmlns:svg="http://www.w3.org/2000/svg"><defs
   id="defs9" />&#10;<style
   type="text/css"
   id="style1">&#10;	.st0{display:none;}&#10;	.st1{display:inline;}&#10;	.st2{fill:#00287B;}&#10;	.st3{fill:url(#SVGID_1_);}&#10;	.st4{fill:url(#SVGID_00000183968759758230446580000005458199197919406471_);}&#10;	.st5{fill:url(#SVGID_00000015350653047559776420000001924433851983944581_);}&#10;	.st6{fill:#FFFFFF;}&#10;</style>&#10;<g
   id="Layer_1"
   class="st0"
   transform="translate(-18,-18)">&#10;	<g
   class="st1"
   id="g4">&#10;		<path
   class="st2"
   d="M 498,110.8 H 14 V 94 C 14,49.8 49.8,14 94,14 h 324 c 44.2,0 80,35.8 80,80 z"
   id="path1" />&#10;		<linearGradient
   id="SVGID_1_"
   gradientUnits="userSpaceOnUse"
   x1="44.610901"
   y1="262.61349"
   x2="104.5358"
   y2="566.41882">&#10;			<stop
   offset="1.348970e-03"
   style="stop-color:#00C99D"
   id="stop1" />&#10;			<stop
   offset="1"
   style="stop-color:#7038CA"
   id="stop2" />&#10;		</linearGradient>&#10;		<path
   class="st3"
   d="M 110.8,498 H 94 C 49.8,498 14,462.2 14,418 V 207.6 h 16.8 c 44.2,0 80,35.8 80,80 z"
   id="path2"
   style="fill:url(#SVGID_1_)" />&#10;		<rect
   x="207.60001"
   y="110.8"
   class="st2"
   width="96.800003"
   height="387.20001"
   id="rect2" />&#10;		&#10;			<linearGradient
   id="SVGID_00000051366942501956938750000012103358904822927237_"
   gradientUnits="userSpaceOnUse"
   x1="348.90259"
   y1="659.80432"
   x2="463.17801"
   y2="311.40359">&#10;			<stop
   offset="1.348970e-03"
   style="stop-color:#00C99D"
   id="stop3" />&#10;			<stop
   offset="1"
   style="stop-color:#7038CA"
   id="stop4" />&#10;		</linearGradient>&#10;		<path
   style="fill:url(#SVGID_00000051366942501956938750000012103358904822927237_)"
   d="M 418,498 H 401.2 V 287.6 c 0,-44.2 35.8,-80 80,-80 H 498 V 418 c 0,44.2 -35.8,80 -80,80 z"
   id="path4" />&#10;	</g>&#10;</g>&#10;<g
   id="Layer_2"
   transform="translate(-18,-18)">&#10;	<g
   id="g9">&#10;		&#10;			<linearGradient
   id="SVGID_00000151540006773444072650000002773149543797671581_"
   gradientUnits="userSpaceOnUse"
   x1="87.708603"
   y1="87.708603"
   x2="424.29141"
   y2="424.29141">&#10;			<stop
   offset="1.348970e-03"
   style="stop-color:#00C99D"
   id="stop5" />&#10;			<stop
   offset="1"
   style="stop-color:#7038CA"
   id="stop6" />&#10;		</linearGradient>&#10;		<circle
   style="fill:url(#SVGID_00000151540006773444072650000002773149543797671581_)"
   cx="256"
   cy="256"
   r="238"
   id="circle6" />&#10;		<g
   id="g8">&#10;			<path
   class="st6"
   d="M 388.2,176.7 H 123.8 v -16.9 c 0,-19.9 16.1,-36 36,-36 h 192.4 c 19.9,0 36,16.1 36,36 z"
   id="path6" />&#10;			<path
   class="st6"
   d="m 176.7,388.2 h -16.9 c -19.9,0 -36,-16.1 -36,-36 V 229.6 h 16.9 c 19.9,0 36,16.1 36,36 z"
   id="path7" />&#10;			<rect
   x="229.60001"
   y="176.7"
   class="st6"
   width="52.900002"
   height="211.60001"
   id="rect7" />&#10;			<path
   class="st6"
   d="M 352.2,388.2 H 335.3 V 265.6 c 0,-19.9 16.1,-36 36,-36 h 16.9 v 122.7 c 0,19.8 -16.1,35.9 -36,35.9 z"
   id="path8" />&#10;		</g>&#10;	</g>&#10;</g>&#10;</svg>
