<?xml version="1.0" encoding="UTF-8" standalone="no"?>
<svg
   viewBox="0 0 56.105804 56.105804"
   version="1.1"
   id="svg1"
   xmlns="http://www.w3.org/2000/svg"
   xmlns:svg="http://www.w3.org/2000/svg"
   xmlns:rdf="http://www.w3.org/1999/02/22-rdf-syntax-ns#"
   xmlns:cc="http://creativecommons.org/ns#"
   xmlns:dc="http://purl.org/dc/elements/1.1/">
  <defs
     id="defs1" />
  <title
     id="title1">Group 3</title>
  <path
     d="m 53.772087,28.817729 c -0.0053,0.173831 -0.241949,0.219748 -0.310321,0.05954 -0.02927,-0.06913 -0.05929,-0.13851 -0.08982,-0.20789 -0.05576,-0.126904 -0.04011,-0.274496 0.04314,-0.385505 0.01716,-0.02271 0.05222,-0.06862 0.0941,-0.123371 0.112523,-0.147088 0.274748,-0.125138 0.274748,0.0381 0,0.214197 -0.005,0.399633 -0.01186,0.619128 m -1.245321,-3.400917 c -0.191743,0.34539 -0.683463,0.361284 -0.896399,0.02826 -0.03305,-0.05147 -0.06635,-0.102936 -0.09991,-0.154656 -0.767477,-1.178463 -1.650757,-2.33523 -2.637225,-3.45945 -0.242202,-0.276009 -0.04415,-0.709197 0.323188,-0.709449 h 0.0088 c 2.305207,0 3.513693,0.569426 3.882546,1.264747 0.307798,0.581537 0.21344,1.598533 -0.581032,3.030551 m -0.515183,12.055092 c -0.123624,0.31461 -0.253051,0.627201 -0.389037,0.936766 -0.02119,0.04264 -0.04112,0.08578 -0.06307,0.128165 -0.848463,1.633096 -2.272155,2.919037 -4.174701,3.813922 -0.426881,0.200573 -0.893876,-0.189977 -0.76672,-0.644106 0.631743,-2.261055 1.109839,-4.713096 1.419655,-7.283715 0.05778,-0.479358 0.294175,-0.919358 0.659496,-1.23523 0.782362,-0.676903 1.513004,-1.352798 2.185115,-2.023899 l 0.0073,-0.0076 c 0.330757,-0.33 0.894885,-0.187958 1.02961,0.259611 0.664037,2.207316 0.700872,4.263256 0.09234,6.056055 m -5.171514,8.163211 c -0.193509,0.20688 -0.391055,0.411238 -0.592386,0.612568 -0.350688,0.350184 -0.709701,0.689014 -1.076536,1.016239 -0.231353,0.206124 -0.581285,-0.05172 -0.450344,-0.332775 0.03734,-0.08023 0.07443,-0.160963 0.111261,-0.242454 0.154152,-0.33984 0.303005,-0.68851 0.447821,-1.043739 0.03431,-0.08376 0.106468,-0.14633 0.194266,-0.168784 0.364817,-0.09259 0.720551,-0.194771 1.06695,-0.306537 0.280803,-0.09032 0.500803,0.250023 0.298968,0.465482 M 43.042294,43.59406 c -0.767982,0.111261 -1.575574,0.183165 -2.420505,0.212935 -2.061491,0.07216 -4.241307,-0.105711 -6.480413,-0.517958 -0.272982,-0.05021 -0.325459,-0.419312 -0.07796,-0.54445 0.488441,-0.247248 0.977134,-0.500046 1.465574,-0.758899 3.426147,-1.816009 6.622958,-3.801055 9.421399,-5.836307 0.209908,-0.152638 0.499037,0.0275 0.456399,0.283578 -0.388028,2.332454 -0.925413,4.528165 -1.600298,6.521284 -0.115046,0.339587 -0.40922,0.588349 -0.764197,0.639817 m -0.79195,3.1075 c -1.836949,3.612844 -4.099266,5.641284 -6.292202,5.600412 -2.383417,-0.04238 -4.760023,-2.524449 -6.520023,-6.809151 l -0.002,-0.0048 c -0.111766,-0.271972 0.01665,-0.583302 0.286101,-0.700366 0.01867,-0.0083 0.03734,-0.0164 0.05601,-0.02472 0.11555,-0.05021 0.245229,-0.05929 0.366835,-0.02498 3.292179,0.923899 6.535917,1.406032 9.575046,1.406032 0.330252,0 0.658234,-0.0056 0.98344,-0.0169 0.380711,-0.01362 0.755367,-0.03507 1.123463,-0.06433 0.341354,-0.027 0.578762,0.333532 0.423349,0.638808 m -10.87789,6.870458 c -1.092179,0.140276 -2.200505,0.212179 -3.319679,0.212179 -5.001468,0 -9.785206,-1.417385 -13.892293,-4.062179 -0.282569,-0.182156 -0.162477,-0.620642 0.173325,-0.636032 0.06963,-0.0033 0.134725,-0.0068 0.191996,-0.01034 1.043738,-0.06787 2.188142,-0.220757 3.428165,-0.459679 2.637729,-0.507362 5.569885,-1.377775 8.640046,-2.549931 0.275252,-0.104954 0.582546,0.03154 0.694564,0.304014 7.57e-4,0.0018 0.0013,0.0033 0.002,0.0048 1.189817,2.896835 2.654129,5.085734 4.298326,6.478143 0.27172,0.230344 0.136743,0.673624 -0.216468,0.719036 M 16.492431,35.543119 c 2.267363,-1.846284 4.924014,-3.688532 7.838257,-5.432637 0.06257,3.727385 0.471285,7.305917 1.19461,10.538302 -1.080826,-0.46094 -2.158371,-0.968555 -3.226582,-1.523348 -2.06906,-1.075275 -4.015757,-2.279725 -5.806285,-3.582317 m -7.051353,9.987294 c -0.5409174,-1.020528 0.1581881,-3.384519 3.709725,-6.977431 l 0.0018,-0.0018 C 13.52344,38.17656 13.487867,37.56172 13.073853,37.235505 12.93156,37.123739 12.790275,37.010711 12.65,36.897683 c -0.353716,-0.285848 -0.865619,-0.25961 -1.186789,0.06206 -0.07039,0.07039 -0.122867,0.123371 -0.138257,0.139266 -1.7753898,1.822316 -3.0179356,3.509151 -3.7140136,5.026445 -0.1972936,0.429908 -0.793211,0.47633 -1.0540826,0.08174 C 3.8015596,38.042079 2.3216055,33.16146 2.3216055,28.052767 c 0,-1.826353 0.1897248,-3.623692 0.5588303,-5.369564 0.055757,-0.264151 0.4283945,-0.281055 0.5066055,-0.02271 0.5338532,1.762522 1.4027523,3.585596 2.6034174,5.429105 1.6161927,2.482064 3.7475688,4.868005 6.2732803,7.056652 0.862087,0.747041 1.772614,1.46961 2.722247,2.166697 1.925,1.412591 4.016766,2.716192 6.242248,3.872454 0.986468,0.51266 1.947202,1.001858 2.931147,1.444885 0.547729,0.246491 1.171146,0.265665 1.730229,0.04617 0.463968,-0.181652 0.931216,-0.370619 1.401239,-0.567156 0.511146,-0.213188 0.788417,-0.770505 0.652935,-1.307638 -0.0169,-0.06711 -0.03027,-0.121101 -0.03784,-0.15289 -0.774793,-3.260642 -1.205458,-6.931261 -1.256169,-10.775963 l -0.0015,7.57e-4 c -5.05e-4,-0.04566 -2.52e-4,-0.09209 -7.57e-4,-0.138257 -0.0023,-0.21016 -0.001,-0.421835 -0.0048,-0.631491 -0.0013,-0.06686 7.57e-4,-0.180137 0.0015,-0.247247 5.05e-4,-0.02674 0,-0.05323 0,-0.07972 2.52e-4,0 7.57e-4,-2.53e-4 0.001,-2.53e-4 0.0013,-0.240688 0.003,-0.481123 0.0073,-0.722568 0.01186,-0.659496 0.03557,-1.314198 0.06963,-1.963601 -5.05e-4,2.52e-4 -7.57e-4,5.04e-4 -0.0013,7.57e-4 0.238922,-4.639427 1.025574,-8.998808 2.277202,-12.665895 0.115803,-0.339335 -0.06509,-0.707683 -0.404426,-0.823486 -0.330757,-0.113028 -0.661262,-0.221009 -0.991262,-0.32445 -0.333784,-0.104701 -0.690527,0.07544 -0.803303,0.406698 -1.356582,3.982454 -2.193692,8.707156 -2.416972,13.706857 -0.02851,0.634266 -0.373647,1.211514 -0.919862,1.535207 -2.96117,1.754954 -5.680643,3.615367 -8.03,5.490665 -0.48945,0.390803 -1.188556,0.375917 -1.661858,-0.03456 C 11.41578,31.340665 9.4340138,29.123257 7.9358945,26.822592 4.9918807,22.301995 4.2922706,18.04328 5.9664908,14.833096 c 0.00454,-0.0076 0.00858,-0.01539 0.012867,-0.02271 0.2134404,-0.35422 0.4354587,-0.703647 0.6665596,-1.04828 1.9237386,-2.546399 5.5042886,-4.0220641 10.2529586,-4.1888302 0.300482,-0.010596 0.602982,-0.015894 0.908257,-0.015894 2.912729,0 6.038647,0.4806202 9.217798,1.3979592 l 7.57e-4,-7.57e-4 c 0.06963,0.02018 0.139266,0.04112 0.208899,0.06156 0.05374,0.01589 0.107477,0.03078 0.161216,0.04693 -2.53e-4,2.53e-4 -2.53e-4,2.53e-4 -2.53e-4,5.05e-4 0.734679,0.219495 1.471629,0.462453 2.209335,0.727867 2.53e-4,-2.52e-4 2.53e-4,-2.52e-4 2.53e-4,-5.05e-4 0.01716,0.0061 0.03431,0.01287 0.05147,0.01892 0.192247,0.06938 0.384243,0.140528 0.576238,0.212936 0.06005,0.02271 0.120344,0.04566 0.18039,0.06888 0.05777,0.0222 0.11555,0.04365 0.173578,0.0661 l -7.57e-4,0.001 c 1.552615,0.600964 3.103968,1.299817 4.635894,2.096055 2.965207,1.540505 5.679381,3.346422 8.041354,5.327684 -4.50773,1.032638 -9.747363,3.024748 -15.015505,5.710665 -0.242959,0.124128 -0.402913,0.368349 -0.418303,0.640826 -0.01842,0.326468 -0.04264,0.982935 -0.06005,1.504679 -0.01085,0.327477 0.335551,0.544449 0.625689,0.392064 l 0.003,-0.0018 c 5.215918,-2.738899 10.421491,-4.786009 14.891881,-5.867843 0.835596,-0.202087 1.376514,-1.004633 1.259197,-1.856125 -0.08225,-0.594908 -0.174839,-1.180482 -0.277271,-1.755711 -0.128669,-0.722569 -0.524266,-1.368693 -1.108073,-1.813234 -2.093784,-1.595 -4.401261,-3.05805 -6.871468,-4.34172 -1.664604,-0.864821 -3.353709,-1.62271 -5.046347,-2.2690866 -0.362041,-0.1382569 -0.517202,-0.5661468 -0.328234,-0.9044725 1.743853,-3.1196101 3.817959,-4.8667431 5.838578,-4.8667431 0.02094,0 0.04188,0 0.06282,5.045e-4 2.383418,0.042638 4.760023,2.5244496 6.520023,6.8091517 0.890849,2.168968 1.581124,4.670206 2.052913,7.388417 -0.0025,-0.0023 -0.005,-0.0043 -0.0073,-0.0066 0.201331,1.160046 0.363556,2.358946 0.483899,3.588877 -0.01034,0.0066 -0.02144,0.01236 -0.03179,0.01892 0.01413,0.01438 0.02901,0.02876 0.04339,0.04339 0.199564,2.063762 0.28383,4.212798 0.244473,6.405734 -0.02473,1.38711 -0.09865,2.755046 -0.218234,4.093463 -3.188739,2.576927 -7.131331,5.141491 -11.464977,7.43812 -1.424198,0.754862 -2.848143,1.4575 -4.258212,2.10438 -0.02195,0.01009 -0.04365,0.01993 -0.0656,0.03002 -0.107729,0.0492 -0.215711,0.09915 -0.32344,0.147844 -0.001,-2.52e-4 -0.0018,-5.04e-4 -0.0025,-7.57e-4 -1.168372,0.528556 -2.325642,1.0175 -3.463739,1.46406 2.53e-4,2.52e-4 2.53e-4,7.57e-4 5.05e-4,0.001 -0.06433,0.02523 -0.128165,0.04945 -0.192248,0.07443 -0.07998,0.03128 -0.159954,0.06206 -0.239679,0.09284 -0.190986,0.07316 -0.381215,0.145321 -0.57094,0.216216 -0.05222,0.01943 -0.104702,0.03986 -0.156927,0.05904 -0.230344,0.08553 -0.459426,0.168532 -0.687752,0.250276 -0.02851,0.01009 -0.05702,0.02094 -0.08528,0.03103 -5.05e-4,-2.53e-4 -7.57e-4,-2.53e-4 -10e-4,-5.05e-4 -2.438922,0.868647 -4.762294,1.524862 -6.879542,1.932316 -5.116261,0.984955 -7.5254125,0.229335 -8.074151,-0.805825 M 13.115734,7.0957569 c 4.330367,-3.1009404 9.504908,-4.7741514 14.937041,-4.7741514 1.433785,0 2.849152,0.1173165 4.236009,0.3461468 0.371377,0.061307 0.49601,0.535367 0.199817,0.7677293 -1.343968,1.053578 -2.592569,2.6125 -3.697615,4.6341285 C 28.521284,8.562844 27.949335,8.8040367 27.408417,8.6516514 23.747385,7.6210321 20.14539,7.1361238 16.817385,7.2529358 15.589725,7.296078 14.427156,7.4204587 13.334977,7.621789 13.028188,7.6783027 12.862179,7.277156 13.115734,7.0957569 M 48.43633,25.848738 c -0.0076,-0.294931 0.370872,-0.420825 0.541927,-0.180642 0.21016,0.294931 0.412752,0.591376 0.606766,0.889335 0.257844,0.396101 0.497775,0.789931 0.720803,1.181239 0.139013,0.243968 0.105711,0.55 -0.08351,0.757385 -0.300481,0.33 -0.626444,0.671101 -0.980412,1.024817 -0.129175,0.128922 -0.260872,0.258096 -0.395092,0.387522 -0.166514,0.160964 -0.445803,0.03835 -0.43672,-0.193256 0.0164,-0.422088 0.02851,-0.845688 0.03608,-1.271308 0.01564,-0.871926 0.01186,-1.737546 -0.0098,-2.595092 M 45.767821,9.3906193 c 0.16172,0.1533945 0.321674,0.3093119 0.479862,0.4675 2.479542,2.4795417 4.389404,5.3768807 5.666514,8.5323167 0.128922,0.318142 -0.141284,0.651169 -0.479105,0.590367 -0.738968,-0.132707 -1.570528,-0.191996 -2.491147,-0.176606 -0.638051,0.0106 -1.192592,-0.436468 -1.30461,-1.064679 C 47.139037,14.934266 46.415711,12.342959 45.486766,10.081399 45.433784,9.9524771 45.380298,9.8250688 45.326055,9.698922 45.207982,9.4236697 45.550596,9.1842431 45.767821,9.3906193 M 55.499794,22.218234 C 54.391216,16.951101 51.784518,12.111606 47.889105,8.2161927 42.590688,2.9177752 35.546147,0 28.052775,0 20.559656,0 13.514862,2.9177752 8.216445,8.2161927 6.9277294,9.5049083 5.7815596,10.897317 4.7822248,12.373739 4.4850229,12.769335 4.2188532,13.187133 3.9822018,13.624358 1.3863532,17.937821 0,22.88883 0,28.052775 c 0,7.493372 2.9180275,14.537913 8.216445,19.83633 5.298417,5.298418 12.343211,8.216698 19.83633,8.216698 7.493372,0 14.537913,-2.91828 19.83633,-8.216698 2.500734,-2.500481 4.47039,-5.390252 5.853968,-8.532316 0.169037,-0.348165 0.316629,-0.704656 0.443532,-1.068211 1.25945,-3.218257 1.919198,-6.676193 1.919198,-10.235803 0,-1.959312 -0.201331,-3.887087 -0.59062,-5.761881 -0.0053,-0.02422 -0.01009,-0.04844 -0.01539,-0.07266"
     id="Fill-1"
     style="fill:#000000;fill-rule:evenodd;stroke:none;stroke-width:1" />
  <metadata
     id="metadata1">
    <rdf:RDF>
      <cc:Work
         rdf:about="">
        <dc:title>Group 3</dc:title>
      </cc:Work>
    </rdf:RDF>
  </metadata>
</svg>
