<?xml version="1.0" encoding="utf-8"?>
<!-- Generator: Adobe Illustrator 27.5.0, SVG Export Plug-In . SVG Version: 6.00 Build 0)  -->
<svg version="1.1" id="Layer_1" xmlns="http://www.w3.org/2000/svg" xmlns:xlink="http://www.w3.org/1999/xlink" x="0px" y="0px"
	 viewBox="0 0 500 500" style="enable-background:new 0 0 500 500;" xml:space="preserve">
<style type="text/css">
	.st0{fill:#14F195;}
	.st1{fill:#14B572;}
</style>
<path class="st0" d="M493.9,162.2C412.7,144,324,165,260.4,226c-3.7,3.4-6.5,7.3-10,10.9c-3.5-4-7.4-7.8-11.1-11.5
	c-62.9-61.4-151.4-83.2-232.8-65.6c-18.9,78.4,2.8,164.1,66,225.6c34.3,33.3,75.9,54.5,120,64.6c0,0.4,0.2,0.8,0.2,1.3
	c81.1,18.2,169.9-2.7,233.5-63.7C489.6,326.2,512.1,240.6,493.9,162.2z"/>
<path class="st1" d="M334.8,442.7c-2.8-73.6-31-146.5-84.2-205.6c-54,58.5-82.9,130.8-86.8,204.2c9.3,3.4,18.9,6.1,28.4,8.4
	c0,0.4,0.2,0.8,0.2,1.3C239.6,461.4,289.1,458.7,334.8,442.7z"/>
<path class="st0" d="M334.2,68.3c-0.2-3.6-0.7-7.3-1.1-10.9c-8.7-2.9-17.8-6.3-26.7-8.4c0-0.4,0,0.4,0,0
	c-46.2-10.5-95-8.4-140.2,6.7c-0.7,4.4-1.1,8.8-1.5,13.4c0.2,3.6,0.7,7.3,1.1,10.9c8.7,2.9,17.8,6.3,26.7,8.4c0,0.4,0-0.4,0,0
	c46.2,10.5,95,8.4,140.2-6.7C333.3,77.1,333.8,72.7,334.2,68.3z"/>
</svg>
