<?xml version="1.0" encoding="utf-8"?>
<!-- Generator: Adobe Illustrator 27.5.0, SVG Export Plug-In . SVG Version: 6.00 Build 0)  -->
<svg version="1.1" id="Layer_1" xmlns="http://www.w3.org/2000/svg" xmlns:xlink="http://www.w3.org/1999/xlink" x="0px" y="0px"
	 viewBox="0 0 500 500" style="enable-background:new 0 0 500 500;" xml:space="preserve">
<style type="text/css">
	.st0{fill-rule:evenodd;clip-rule:evenodd;fill:url(#SVGID_1_);}
</style>
<linearGradient id="SVGID_1_" gradientUnits="userSpaceOnUse" x1="325.431" y1="448.0679" x2="220.5764" y2="173.1726" gradientTransform="matrix(1 0 0 -1 0 502)">
	<stop  offset="0" style="stop-color:#7A1DF2"/>
	<stop  offset="1" style="stop-color:#FF0083"/>
</linearGradient>
<path class="st0" d="M205.7,3.2C113,19.8,35.8,90.2,7.3,184.2c-5.2,17.1-7,35.6-6.7,67.4c0.5,51.2,11.7,92.6,35.1,129.9l14.2,22.5
	l78.6-46.6l78.6-46.6l1.1,94.6l1.1,94.6H249h39.8v-93.4c0-65.2,1.3-93.4,4.4-93.4c2.4,0,37.6,19.9,78.3,44.3
	c57.1,34.3,75.4,43.4,80.3,40.4c6.6-4,39-63.7,36-66.2c-0.9-0.8-54.9-33.1-119.8-71.9l-118.1-70.5l-79.6,48
	c-43.8,26.4-81.9,48-84.6,48c-3.7,0-4.6-9.6-3.4-38.8c1.4-33.3,3.4-42.5,14.2-65.7C149.5,68,296.6,48.2,379.7,142.7
	c16,18.2,31.3,51.3,36.6,79c2.2,11.7,4.5,21.6,5,21.9c0.5,0.4,18,10.8,38.8,23.1l37.9,22.5l1.2-32.8c1.7-44.8-4.6-74.1-25.2-116.3
	c-21.3-43.8-44.8-70.9-84-97.1C338.2,8.5,265.1-7.3,205.7,3.2z"/>
</svg>
