<?xml version="1.0" encoding="utf-8"?>
<!-- Generator: Adobe Illustrator 24.0.0, SVG Export Plug-In . SVG Version: 6.00 Build 0)  -->
<svg version="1.1" id="Layer_1" xmlns="http://www.w3.org/2000/svg" xmlns:xlink="http://www.w3.org/1999/xlink" x="0px" y="0px"
	 viewBox="0 0 39.9 40" style="enable-background:new 0 0 39.9 40;" xml:space="preserve">
<style type="text/css">
	.st0{fill-rule:evenodd;clip-rule:evenodd;fill:#94FEBF;}
</style>
<path class="st0" d="M29.4,8.6c5.7,0.5,10.2,5.1,10.5,10.8C39.6,10,31.8,2.5,22.3,2.8c-5.6,0.2-10.8,3-13.8,7.7
	C9,4.8,13.6,0.3,19.3,0C9.8,0.4,2.5,8.5,2.9,18c0.2,5.4,3,10.4,7.5,13.4C4.7,30.9,0.3,26.3,0,20.6C0.2,30,8.1,37.5,17.5,37.3
	c5.6-0.1,10.7-3,13.8-7.6c-0.5,5.6-5.1,10-10.7,10.3c9.4-0.3,16.8-8.2,16.5-17.7C36.9,16.8,34.1,11.6,29.4,8.6z M19.9,27.2
	c-1.9,0-3.7-0.7-5-2.1c-2.8-2.8-2.7-7.3,0-10s7.3-2.7,10,0s2.7,7.3,0,10C23.6,26.5,21.8,27.2,19.9,27.2z"/>
</svg>
