<?xml version="1.0" encoding="utf-8"?>
<!-- Generator: Adobe Illustrator 27.7.0, SVG Export Plug-In . SVG Version: 6.00 Build 0)  -->
<svg version="1.1" id="Layer_1" xmlns="http://www.w3.org/2000/svg" xmlns:xlink="http://www.w3.org/1999/xlink" x="0px" y="0px"
	 viewBox="0 0 500 500" style="enable-background:new 0 0 500 500;" xml:space="preserve">
<style type="text/css">
	.st0{fill:#FFFFFF;}
</style>
<circle class="st0" cx="250" cy="250" r="250"/>
<path d="M327.7,112.3l-6.3,31.4h-45.3l-6.3-31.4h-37.9l-6.3,31.4h-39.8l-6.3-31.4h-45.1l8.2,82.9h214.9l8.2-83.1L327.7,112.3z
	 M145,211.2l1.1,16l4.2,45.6l0.2,2.1l0,0l7.6,82.6l91.8,80.5l0.2-0.9l0.2,0.9l91.8-80.5l12-130.2L355,212l0.3-0.8L145,211.2
	L145,211.2z M173.5,243.9h56.4v141.5l-47.9-43.6L173.5,243.9z M271.9,383.9v-140h54.7l-8.5,97.8L271.9,383.9z"/>
</svg>
