<?xml version="1.0" encoding="utf-8"?>
<!-- Generator: Adobe Illustrator 24.0.0, SVG Export Plug-In . SVG Version: 6.00 Build 0)  -->
<svg version="1.1" id="Layer_1" xmlns="http://www.w3.org/2000/svg" xmlns:xlink="http://www.w3.org/1999/xlink" x="0px" y="0px"
	 viewBox="0 0 106.4 95.1" enable-background="new 0 0 106.4 95.1" xml:space="preserve">
<g>
	<g>
		<polygon fill="#5569FF" points="34.4,95.1 97.3,95.1 106.4,78.8 43.6,78.8 		"/>
		<polygon fill="#5569FF" points="95.3,59.1 77,59.1 67.9,75.3 86.1,75.3 		"/>
		<polygon fill="#5C00E9" points="95.3,55.6 63.9,0 45.6,0 77.1,55.6 		"/>
		<polygon fill="#00BFE9" points="0,77.1 9.1,93.2 40.6,37.6 31.4,21.5 		"/>
		<polygon fill="#00BFE9" points="31.4,93.2 40.6,77.1 31.4,60.9 22.3,77.1 		"/>
		<polygon fill="#5C00E9" points="34.5,19.7 43.6,35.9 61.9,35.9 52.7,19.7 		"/>
		<polygon fill="#243269" points="106.4,75.3 98.3,61 90.2,75.3 		"/>
		<polygon fill="#243269" points="64.9,73.5 74,57.4 64.9,41.2 55.7,57.4 		"/>
		<polygon fill="#243269" points="34.4,59.1 43.6,75.3 45.6,75.3 61.9,75.3 52.7,59.1 		"/>
		<polygon fill="#243269" points="43.6,39.4 34.4,55.6 52.7,55.6 61.8,39.4 		"/>
		<polygon fill="#243269" points="12.1,95.1 28.4,95.1 20.3,80.7 		"/>
		<polygon fill="#243269" points="42.6,1.8 34.4,16.2 50.7,16.2 		"/>
	</g>
</g>
</svg>
