<?xml version="1.0" encoding="utf-8"?>
<!-- Generator: Adobe Illustrator 27.7.0, SVG Export Plug-In . SVG Version: 6.00 Build 0)  -->
<svg version="1.1" id="Layer_1" xmlns="http://www.w3.org/2000/svg" xmlns:xlink="http://www.w3.org/1999/xlink" x="0px" y="0px"
	 viewBox="0 0 500 500" style="enable-background:new 0 0 500 500;" xml:space="preserve">
<style type="text/css">
	.st0{fill:#696364;}
	.st1{fill:#FFFFFF;}
	.st2{fill:#EC2027;}
</style>
<path class="st0" d="M411.6,66.5c0.3,7.2-5.3,13.3-12.5,13.6c-7.2,0.3-13.3-5.3-13.6-12.5c-0.3-7.2,5.3-13.3,12.5-13.6
	C405.2,53.7,411.3,59.3,411.6,66.5z"/>
<path class="st0" d="M362.2,83.6c8.7,0.6,15.2,8.1,14.6,16.8c-0.6,8.7-8.1,15.2-16.8,14.6c-8.7-0.6-15.2-8.1-14.6-16.8
	C346,89.5,353.5,83,362.2,83.6z"/>
<path class="st0" d="M372.2,41.2c0.3,7.2-5.3,13.3-12.5,13.6c-7.2,0.3-13.3-5.3-13.6-12.5c-0.3-7.2,5.3-13.3,12.5-13.6
	C365.8,28.3,371.9,33.9,372.2,41.2z"/>
<path class="st0" d="M324.3,113.1c10.6,0.7,18.7,9.9,17.9,20.6c-0.7,10.6-9.9,18.7-20.6,17.9c-10.6-0.7-18.7-9.9-17.9-20.6
	C304.5,120.4,313.7,112.4,324.3,113.1z"/>
<path class="st0" d="M322.6,60.2c8.7,0.6,15.2,8.1,14.6,16.8c-0.6,8.7-8.1,15.2-16.8,14.6c-8.7-0.6-15.2-8.1-14.6-16.8
	C306.4,66.2,314,59.6,322.6,60.2z"/>
<path class="st0" d="M330.4,24.5c0.3,7.2-5.3,13.3-12.5,13.6c-7.2,0.3-13.3-5.3-13.6-12.5c-0.3-7.2,5.3-13.3,12.5-13.6
	C324,11.7,330.1,17.3,330.4,24.5z"/>
<path class="st0" d="M283.2,94.7c10.6,0.7,18.7,9.9,17.9,20.6c-0.7,10.6-9.9,18.7-20.6,17.9c-10.6-0.7-18.7-9.9-17.9-20.6
	C263.3,102,272.5,94,283.2,94.7z"/>
<path class="st0" d="M282.7,149.7c12.3,0.8,21.5,11.5,20.7,23.7c-0.8,12.3-11.5,21.5-23.7,20.7c-12.3-0.8-21.5-11.5-20.7-23.7
	C259.8,158.1,270.4,148.9,282.7,149.7z"/>
<path class="st0" d="M278.1,49.2c8.7,0.6,15.2,8.1,14.6,16.8c-0.6,8.7-8.1,15.2-16.8,14.6c-8.7-0.6-15.2-8.1-14.6-16.8
	C261.9,55.1,269.4,48.6,278.1,49.2z"/>
<path class="st0" d="M285.9,16.3c0.3,7.2-5.3,13.3-12.5,13.6c-7.2,0.3-13.3-5.3-13.6-12.5c-0.3-7.2,5.3-13.3,12.5-13.6
	C279.5,3.5,285.6,9.1,285.9,16.3z"/>
<polygon class="st1" points="254.6,261.2 262.6,261.2 262.6,253.3 "/>
<polygon class="st1" points="245.4,238.8 240.1,238.8 240.1,244 "/>
<path class="st2" d="M115,261.2H0.1C2.7,321.9,27,376.9,65.3,418.8l81.3-81.3C128.9,316.6,117.4,290.2,115,261.2z"/>
<path class="st2" d="M162.5,353.4l-81.3,81.3c42.2,38.6,97.8,63,159,65.3V385.1C210.6,383,183.8,371.4,162.5,353.4z"/>
<path class="st2" d="M262.6,384.9v115c60.7-3,115.7-27.7,157.5-66.4l-81.2-81.2C318,370.4,291.6,382.2,262.6,384.9z"/>
<path class="st2" d="M354.5,336.2l81.3,81.3c37.7-41.8,61.5-96.3,64.1-156.3H385C382.7,289.6,371.6,315.5,354.5,336.2z"/>
<path class="st2" d="M147.7,161.2L66.5,79.9C27.5,122,2.8,177.5,0.1,238.8h115C117.4,209.2,129.4,182.3,147.7,161.2z"/>
<path class="st2" d="M385,238.8h115c-2.7-60.6-26.9-115.7-65.3-157.6l-81.3,81.3C371.1,183.4,382.6,209.8,385,238.8z"/>
<path class="st2" d="M240.1,114.9V0C179.6,2.3,124.5,26.2,82.5,64.2l81.3,81.3C184.8,128.1,211.2,117,240.1,114.9z"/>
<polygon class="st1" points="240.1,253.6 240.1,261.2 247.8,261.2 "/>
<polygon class="st1" points="247.8,261.2 251.2,264.6 254.6,261.2 "/>
<polygon class="st1" points="257.1,238.8 251.2,232.9 245.4,238.8 "/>
<polygon class="st1" points="240.1,244 235.3,248.8 240.1,253.6 "/>
<polygon class="st1" points="262.6,244.3 262.6,238.8 257.1,238.8 "/>
<polygon class="st1" points="262.6,253.3 267.1,248.8 262.6,244.3 "/>
<circle class="st0" cx="250" cy="250" r="51.1"/>
</svg>
