<?xml version="1.0" encoding="utf-8"?>
<!-- Generator: Adobe Illustrator 24.0.0, SVG Export Plug-In . SVG Version: 6.00 Build 0)  -->
<svg version="1.1" id="Layer_1" xmlns="http://www.w3.org/2000/svg" xmlns:xlink="http://www.w3.org/1999/xlink" x="0px" y="0px"
	 viewBox="0 0 255 63.8" style="enable-background:new 0 0 255 63.8;" xml:space="preserve">
<style type="text/css">
	.st0{fill:#FF4A4A;}
</style>
<g>
	<path class="st0" d="M163.4,63.8h-10.8c-2,0-3.7-1.6-3.7-3.7V31.7l-18.9,11.8c-1.6,1-3.6,1-5.2,0L106,31.7v28.4
		c0,2-1.6,3.7-3.7,3.7H91.6c-2,0-3.7-1.6-3.7-3.7l0,0V5.3c0-2.7,2.2-4.9,4.9-4.9c1,0,1.9,0.3,2.7,0.9l29.8,20.5
		c1.2,0.9,2.9,0.9,4.1,0l29.8-20.5c2.2-1.5,5.3-0.9,6.8,1.3c0.6,0.8,0.8,1.8,0.9,2.7v54.8C167,62.1,165.4,63.8,163.4,63.8
		C163.4,63.8,163.4,63.8,163.4,63.8z"/>
	<path class="st0" d="M71.8,63.7h-67c-2.7,0-4.9-2.2-4.9-4.9c0,0,0,0,0,0V3.7C0,1.6,1.6,0,3.7,0h10.8c2,0,3.7,1.6,3.7,3.7l0,0v41.9
		h40.6V3.7c0-2,1.6-3.7,3.7-3.7H73c2,0,3.7,1.6,3.7,3.7v55.1C76.7,61.5,74.5,63.7,71.8,63.7L71.8,63.7z"/>
	<path class="st0" d="M183.2,0h67c2.7,0,4.9,2.2,4.9,4.9V60c0,2-1.6,3.7-3.6,3.7c0,0,0,0,0,0h-10.8c-2,0-3.7-1.6-3.7-3.7
		c0,0,0,0,0,0V20.5c0-1.3-1.1-2.4-2.4-2.4l0,0h-35.7c-1.3,0-2.4,1.1-2.4,2.4c0,0,0,0,0,0V60c0,2-1.6,3.7-3.7,3.7H182
		c-2,0-3.7-1.6-3.7-3.7c0,0,0,0,0,0V4.9C178.3,2.2,180.5,0,183.2,0C183.2,0,183.2,0,183.2,0L183.2,0z"/>
	<path class="st0" d="M211.3,29.7H222c2,0,3.7,1.6,3.7,3.7v10.9c0,2-1.6,3.7-3.7,3.7h-10.7c-2,0-3.7-1.6-3.7-3.7V33.3
		C207.6,31.3,209.3,29.7,211.3,29.7z"/>
</g>
</svg>
