<?xml version="1.0" encoding="utf-8"?>
<!-- Generator: Adobe Illustrator 27.0.1, SVG Export Plug-In . SVG Version: 6.00 Build 0)  -->
<svg version="1.1" id="uniqo" xmlns="http://www.w3.org/2000/svg" xmlns:xlink="http://www.w3.org/1999/xlink" x="0px" y="0px"
	 viewBox="0 0 500 500" style="enable-background:new 0 0 500 500;" xml:space="preserve">
<style type="text/css">
	.st0{fill:#303EF5;}
</style>
<path class="st0" d="M305,144.1h-7.2c-12.5,0-24.6,0.8-36.2,2.4c-11.6,1.6-22,4.5-31.1,8.8c-8.7,4.2-15.9,10.1-21.7,17.5
	c-5.3,7.5-8,17.2-8,29.2v295.8h11.6c11.6,0,22.9-1,34-2.9c11.1-1.6,21-4.7,29.7-9.3c8.7-4.2,15.7-10.1,21-17.5
	c5.3-7.5,8-17.1,8-28.8V144.1z"/>
<path class="st0" d="M159.6,96.7h-7.2c-12.5,0-24.6,0.8-36.1,2.4c-11.6,1.6-21.9,4.5-31.1,8.8c-8.7,4.2-15.9,10.1-21.7,17.5
	c-5.3,7.5-7.9,17.2-7.9,29.2l0,295.8h11.6c11.6,0,22.9-1,34-2.9c11.1-1.6,21-4.7,29.6-9.3c8.7-4.2,15.7-10.1,21-17.5
	c5.3-7.5,7.9-17.1,7.9-28.8V96.7z"/>
<path class="st0" d="M450.5,2h-7.2c-12.5,0-24.6,0.8-36.1,2.4C395.6,6,385.2,9,376.1,13.2c-8.7,4.2-15.9,10.1-21.7,17.5
	c-5.3,7.5-7.9,17.2-7.9,29.2v295.8H358c11.6,0,22.9-1,34-2.9c11.1-1.6,21-4.7,29.6-9.3c8.7-4.2,15.7-10.1,21-17.5
	c5.3-7.5,7.9-17.1,7.9-28.8V2z"/>
</svg>
