<?xml version="1.0" encoding="utf-8"?>
<!-- Generator: Adobe Illustrator 26.0.1, SVG Export Plug-In . SVG Version: 6.00 Build 0)  -->
<svg version="1.1" id="Layer_1" xmlns="http://www.w3.org/2000/svg" xmlns:xlink="http://www.w3.org/1999/xlink" x="0px" y="0px"
	 viewBox="0 0 45 45" style="enable-background:new 0 0 45 45;" xml:space="preserve">
<style type="text/css">
	.st0{fill:#7A52D1;}
	.st1{fill-rule:evenodd;clip-rule:evenodd;fill:#FFFFFF;}
</style>
<path class="st0" d="M0,22.5C0,14.1,0,9.9,1.8,6.8C3,4.7,4.7,3,6.8,1.8C9.9,0,14.1,0,22.5,0s12.6,0,15.8,1.8C40.3,3,42,4.7,43.2,6.8
	C45,9.9,45,14.1,45,22.5s0,12.6-1.8,15.8c-1.2,2.1-2.9,3.8-4.9,4.9C35.1,45,30.9,45,22.5,45S9.9,45,6.8,43.2C4.7,42,3,40.3,1.8,38.2
	C0,35.1,0,30.9,0,22.5z"/>
<path class="st1" d="M12,23v-8.5h4.2v8.5c0,2.2,0.6,3.6,1.7,4.6c1.1,1,2.5,1.6,4.6,1.6c2.2,0,3.6-0.6,4.6-1.6c1-1,1.7-2.5,1.7-4.7
	v-8.5H33V23c0,3-0.9,5.7-2.9,7.6c-2,1.9-4.5,2.8-7.6,2.8c-3,0-5.6-0.9-7.6-2.8C12.9,28.7,12,26,12,23z M24.6,22.9v-8.3h-4.2v8.3
	c0,0.8,0.2,1.3,0.6,1.7c0.4,0.4,0.8,0.6,1.5,0.6c0.7,0,1.2-0.2,1.5-0.6C24.4,24.2,24.6,23.7,24.6,22.9z"/>
</svg>
