<?xml version="1.0" encoding="utf-8"?>
<!-- Generator: Adobe Illustrator 27.0.1, SVG Export Plug-In . SVG Version: 6.00 Build 0)  -->
<svg version="1.1" id="usdn" xmlns="http://www.w3.org/2000/svg" xmlns:xlink="http://www.w3.org/1999/xlink" x="0px" y="0px"
	 viewBox="0 0 500 500" style="enable-background:new 0 0 500 500;" xml:space="preserve">
<style type="text/css">
	.st0{fill:#00FFB4;}
	.st1{fill:#05DA9B;}
	.st2{fill:#FFFFFF;}
</style>
<path class="st0" d="M495.7,249c-25.8,14.5-67.8,32.2-119.6,32.2c-87.9,0-176.5-71-247.5-71C59.9,210.2,5.9,246.7,2.6,249L249.2,2.4
	L495.7,249z"/>
<path class="st1" d="M496.3,249.6L249.2,496.7L2,249.6l0.6-0.6c3.3-2.3,57.3-38.8,126.1-38.8c71,0,159.5,71,247.5,71
	c51.8,0,93.8-17.7,119.6-32.2L496.3,249.6z"/>
<path class="st2" d="M332.7,306.5c0-37.1-26.1-57.8-87.4-69.2c-33.1-6.2-49.7-19.5-49.3-39.6c0-0.5,0-0.8,0-1.2
	c0-11.3,5-37.6,51.3-37.6c23,0,39,6.8,47.6,20.2c6.6,10.3,6.7,21.3,6.7,21.4l14.6,0.1l14.6,0.3c0-1.1,0.3-27.8-19.9-48.4
	c-12.8-13-30.3-20.5-52.3-22.3v-28.8h-20.8V130c-52.1,3.7-70.9,37.3-70.9,66.4l0,0.6c-0.4,20.5,8.6,56.8,73.1,68.8
	c63.6,11.9,63.6,30.5,63.6,40.6c0,5.2-1.1,18.4-11.2,28.5c-9.1,9.1-23.4,13.6-42.5,13.6c-0.1,0-0.3,0-0.4,0c-48.3-0.2-61-28-61-42.6
	h-29.2c0,17.2,7.6,34.5,20.9,47.4c10.1,9.8,28,21.3,57.5,23.9v29.2h20.8v-28.9c23-1.4,41.3-8.8,54.4-21.9
	C325.5,343.1,332.7,325.2,332.7,306.5z"/>
</svg>
