<?xml version="1.0" encoding="utf-8"?>
<!-- Generator: Adobe Illustrator 27.7.0, SVG Export Plug-In . SVG Version: 6.00 Build 0)  -->
<svg version="1.1" id="Layer_1" xmlns="http://www.w3.org/2000/svg" xmlns:xlink="http://www.w3.org/1999/xlink" x="0px" y="0px"
	 viewBox="0 0 500 500" style="enable-background:new 0 0 500 500;" xml:space="preserve">
<style type="text/css">
	.st0{fill-rule:evenodd;clip-rule:evenodd;fill:#FFAA1D;}
	.st1{fill-rule:evenodd;clip-rule:evenodd;fill:#242A47;}
	.st2{fill-rule:evenodd;clip-rule:evenodd;fill:#FFFFFF;}
	.st3{fill:#242A47;}
</style>
<circle id="椭圆形" class="st0" cx="250" cy="250" r="250"/>
<circle id="椭圆形备份" class="st1" cx="250" cy="250" r="211.5"/>
<circle id="椭圆形备份-2" class="st2" cx="250" cy="250" r="173.1"/>
<path id="路径" class="st3" d="M264.6,371.1h-24.1v-27.4c-16.6-2-35.3-9.4-48.2-21.2l15.8-24.1c13.4,10.5,26.3,16.6,40.3,16.6
	c17.1,0,25-7.7,25-21.5c0-32.8-74.2-30-74.2-81c0-26.5,15.8-44.9,41.4-49.7v-28.2h24.1v27.8c17.5,2.4,30,11.2,40.5,22.1l-18,20.6
	c-10.1-9.2-18.8-14.5-31.3-14.5c-14.5,0-22.3,6.8-22.3,20.1c0,30.2,74.2,25.6,74.2,80.1c-0.2,26.7-15.1,46.6-43.1,51.9L264.6,371.1z
	"/>
</svg>
