<?xml version="1.0" encoding="utf-8"?>
<!-- Generator: Adobe Illustrator 27.7.0, SVG Export Plug-In . SVG Version: 6.00 Build 0)  -->
<svg version="1.1" id="Layer_1" xmlns="http://www.w3.org/2000/svg" xmlns:xlink="http://www.w3.org/1999/xlink" x="0px" y="0px"
	 viewBox="0 0 500 500" style="enable-background:new 0 0 500 500;" xml:space="preserve">
<style type="text/css">
	.st0{fill:#231F20;}
</style>
<path class="st0" d="M480.4,153c-24-57.1-68.5-103.3-124.7-129.5C299.6-2.8,235.7-7.2,176.4,11.1C117.2,29.3,66.8,68.9,35.1,122.2
	C3.4,175.5-7.3,238.7,4.9,299.4c12.3,60.8,46.7,114.8,96.5,151.7s111.6,53.8,173.3,47.7c61.7-6.2,118.9-35,160.5-81
	c41.6-46,64.7-105.7,64.7-167.7C500,216.7,493.4,183.7,480.4,153z M487.4,250.1c0,15.1-1.4,30.1-4.3,44.9h-80.3L257,149.1V13.4
	C384.8,16.8,487.4,121.4,487.4,250.1z M244.5,13.4v135.7L98.6,295H18.3c-2.8-14.8-4.3-29.9-4.3-44.9
	C14.1,121.4,116.6,16.8,244.5,13.4z M250.7,486.7c-110.9,0-203.9-76.2-229.6-179.1h82.7l146.9-146.9l146.9,146.9h82.7
	C454.7,410.5,361.6,486.7,250.7,486.7z"/>
</svg>
