<?xml version="1.0" encoding="utf-8"?>
<!-- Generator: Adobe Illustrator 27.5.0, SVG Export Plug-In . SVG Version: 6.00 Build 0)  -->
<svg version="1.1" id="Layer_1" xmlns="http://www.w3.org/2000/svg" xmlns:xlink="http://www.w3.org/1999/xlink" x="0px" y="0px"
	 viewBox="0 0 500 500" style="enable-background:new 0 0 500 500;" xml:space="preserve">
<style type="text/css">
	.st0{fill-rule:evenodd;clip-rule:evenodd;fill:#0023EF;}
	.st1{fill-rule:evenodd;clip-rule:evenodd;fill:#FFFFFF;filter:url(#Adobe_OpacityMaskFilter);}
	.st2{mask:url(#mask0_00000140720523514025074150000013267001864220713905_);}
</style>
<path class="st0" d="M125.6,68l107.9,107.8c4,4,4,10.5,0,14.5l-108,107.9c-4,4-10.5,4-14.6,0L3,190.4c-4-4-4-10.5,0-14.5L111,68
	C115.1,64,121.6,64,125.6,68z M257.3,201.8l107.9,107.8c4,4,4,10.5,0,14.5L257.2,432c-4,4-10.5,4-14.6,0L134.8,324.2
	c-4-4-4-10.5,0-14.5l108-107.9C246.8,197.8,253.3,197.8,257.3,201.8z M389.1,68L497,175.8c4,4,4,10.5,0,14.5L389,298.2
	c-4,4-10.5,4-14.6,0L266.5,190.4c-4-4-4-10.5,0-14.5L374.5,68C378.5,64,385.1,64,389.1,68z"/>
<defs>
	<filter id="Adobe_OpacityMaskFilter" filterUnits="userSpaceOnUse">
		<feColorMatrix  type="matrix" values="1 0 0 0 0  0 1 0 0 0  0 0 1 0 0  0 0 0 1 0"/>
	</filter>
</defs>
<mask maskUnits="userSpaceOnUse" id="mask0_00000140720523514025074150000013267001864220713905_">
	<path class="st1" d="M125.6,68l107.9,107.8c4,4,4,10.5,0,14.5l-108,107.9c-4,4-10.5,4-14.6,0L3,190.4c-4-4-4-10.5,0-14.5L111,68
		C115.1,64,121.6,64,125.6,68z M257.3,201.8l107.9,107.8c4,4,4,10.5,0,14.5L257.2,432c-4,4-10.5,4-14.6,0L134.8,324.2
		c-4-4-4-10.5,0-14.5l108-107.9C246.8,197.8,253.3,197.8,257.3,201.8z M389.1,68L497,175.8c4,4,4,10.5,0,14.5L389,298.2
		c-4,4-10.5,4-14.6,0L266.5,190.4c-4-4-4-10.5,0-14.5L374.5,68C378.5,64,385.1,64,389.1,68z"/>
</mask>
<g class="st2">
</g>
</svg>
