<?xml version="1.0" encoding="utf-8"?>
<!-- Generator: Adobe Illustrator 27.7.0, SVG Export Plug-In . SVG Version: 6.00 Build 0)  -->
<svg version="1.1" id="Layer_1" xmlns="http://www.w3.org/2000/svg" xmlns:xlink="http://www.w3.org/1999/xlink" x="0px" y="0px"
	 viewBox="0 0 500 500" style="enable-background:new 0 0 500 500;" xml:space="preserve">
<style type="text/css">
	.st0{fill:#F1ECE2;}
	.st1{fill:#5E93FF;}
	.st2{fill:#3180F4;}
	.st3{fill:#FDBF41;}
	.st4{fill:#404A5A;}
	.st5{fill:#C18B00;}
	.st6{fill:#E7AA24;}
	.st7{fill:#FF1100;}
	.st8{fill:#007FFF;}
	.st9{fill:#215CB5;}
	.st10{fill:#FEC35E;}
	.st11{opacity:0.48;fill:url(#SVGID_1_);enable-background:new    ;}
</style>
<path class="st0" d="M457.8,383.4c-0.3,0.2-0.6,0.5-1,0.7c-0.3,0.2-0.6,0.5-1,0.7c-0.6,0.4-1.3,0.9-1.9,1.3c-0.1,0-0.2,0.1-0.2,0.2
	c-0.5,0.3-1.1,0.7-1.6,1c-0.8,0.5-1.6,0.9-2.4,1.4c-5.5,3.1-11.4,5.6-17.3,7.8c-5.6,2.1-11.3,3.9-17,5.5c-8.2,2.3-16.5,4.2-24.9,5.9
	c-8.1,1.6-16.3,3-24.5,4.2c-8.2,1.2-16.4,2.2-24.7,3.1c-2.7,0.3-5.4,0.5-8.1,0.8c-5.4,0.5-10.9,0.9-16.3,1.3
	c-2.7,0.2-5.4,0.3-8.1,0.5c-6.1,0.3-12.2,0.6-18.3,0.8c-1.1,0-2.2,0.1-3.3,0.1c-1,0-2,0.1-3.1,0.1c2.5-3.1,5-6.2,7.3-9.4
	c0.3-0.4,0.7-0.8,1-1.2c5.2-6.9,10.1-14,14.8-21.2c0.5,0,1,0,1.4-0.1c3-0.2,6-0.4,9-0.6c2.3-0.2,4.5-0.3,6.8-0.5
	c15.9-1.2,31.6-3,47.4-5.4c4.6-0.7,9.1-1.5,13.7-2.3c10.6-2,21.1-4.3,31.5-7.3c2.3-0.6,4.5-1.3,6.8-2c1.1-0.4,2.3-0.7,3.4-1.1
	c1.7,0.3,3.3,1,4.9,1.6c1.4,0.5,2.8,1.1,4.2,1.6c4,1.6,7.9,3.3,11.7,5.3c1.5,0.8,3,1.6,4.4,2.5c1.9,1.2,3.8,2.4,5.5,3.8
	c0.5,0.4,0.7,0.6,0.5,0.8C458.1,383.1,458,383.2,457.8,383.4L457.8,383.4z"/>
<path class="st1" d="M310.8,456.4c-0.3,0.2-0.7,0.2-1,0.1c0.1-0.1,0.2-0.1,0.2-0.1c0.1,0,0.3,0,0.4,0
	C310.6,456.3,310.7,456.3,310.8,456.4L310.8,456.4z"/>
<path class="st1" d="M309.5,456.5c-0.4,0.2-0.8,0.2-1.3,0.1C308.6,456.3,309,456.3,309.5,456.5z"/>
<path class="st1" d="M307.9,456.6c-0.4,0.2-0.8,0.2-1.3,0.1C307,456.4,307.4,456.4,307.9,456.6z"/>
<path class="st1" d="M306.3,456.6c-0.4,0.2-0.8,0.2-1.2,0.1c0,0,0,0,0,0C305.5,456.5,305.9,456.5,306.3,456.6L306.3,456.6z"/>
<path class="st1" d="M303.8,456.6c0.3-0.1,0.6,0,0.8,0.1c-0.4,0.2-0.8,0.2-1.3,0.1C303.5,456.7,303.7,456.6,303.8,456.6z"/>
<path class="st1" d="M302.4,456.6c0.2,0,0.4,0,0.6,0.1c-0.4,0.2-0.8,0.2-1.2,0.1C302,456.7,302.2,456.6,302.4,456.6L302.4,456.6z"/>
<path class="st1" d="M301.2,456.8c0.1,0,0.2,0,0.3,0.1c-0.4,0.2-0.8,0.2-1.2,0.1C300.5,456.7,300.8,456.7,301.2,456.8
	C301.1,456.8,301.1,456.8,301.2,456.8L301.2,456.8L301.2,456.8z"/>
<path class="st1" d="M299.8,456.9c-0.5,0.2-1,0.2-1.5,0.1C298.8,456.7,299.3,456.8,299.8,456.9z"/>
<path class="st1" d="M298,457c-0.4,0.2-0.8,0.2-1.2,0.1C297.1,456.8,297.6,456.8,298,457z"/>
<path class="st1" d="M404,360.5c0.2,0,0.4,0,0.6,0.1c0.3,0,0.5,0.1,0.8,0.3c-0.6,0-1.1-0.2-1.6-0.4
	C403.9,360.4,403.9,360.4,404,360.5C404,360.5,404,360.5,404,360.5L404,360.5z"/>
<path class="st2" d="M173.8,493.8c0,0.1,0.1,0.2,0.1,0.3l-8.4,0c0-0.1,0.1-0.2,0.1-0.3c0.7,0,1.4,0,2,0
	C169.8,493.8,171.8,493.8,173.8,493.8L173.8,493.8z"/>
<path class="st3" d="M427.1,367.3c-1.1,0.4-2.3,0.7-3.4,1.1c-2.3,0.7-4.5,1.4-6.8,2c-10.4,3-20.9,5.3-31.5,7.3
	c-4.5,0.8-9.1,1.6-13.7,2.3c-15.7,2.5-31.5,4.2-47.4,5.4c-2.3,0.2-4.5,0.3-6.8,0.5c-3,0.2-6,0.4-9,0.6c-0.5,0-1,0-1.4,0.1
	c3.2-5,6.4-10,9.5-15.1c4.4-7.4,8.6-14.9,12.6-22.4c7.6,0.7,15.3,1.4,22.9,2.4c0.6,0.1,1.1,0.2,1.7,0.3c3.4,0.2,6.8,0.8,10.2,1.3
	c4.3,0.6,8.7,1.3,13,2.1c5.8,1,11.7,2.1,17.5,3.3c3.1,0.7,6.2,1.4,9.4,2.1c0.5,0.3,1,0.4,1.6,0.4c6.7,1.7,13.3,3.5,19.9,5.7
	C425.9,366.7,426.6,366.8,427.1,367.3L427.1,367.3z"/>
<path class="st0" d="M204.8,416.5c2.7,0.2,5.4,0.4,8.1,0.6C210.2,417,207.5,416.8,204.8,416.5z"/>
<path class="st4" d="M118.6,476.8c-0.2,0-0.4-0.1-0.5-0.2c0,0,0,0,0,0c0,0,0.1,0,0.1,0c0,0,0,0,0.1,0c0,0,0,0,0.1,0c0,0,0.1,0,0.1,0
	c0,0,0,0,0,0C118.5,476.7,118.5,476.7,118.6,476.8C118.5,476.7,118.5,476.7,118.6,476.8L118.6,476.8z"/>
<path class="st4" d="M118,476.6c-0.2,0-0.4,0-0.5-0.2c0,0,0.1,0,0.2,0h0C117.8,476.3,117.9,476.4,118,476.6
	C118,476.5,118,476.5,118,476.6L118,476.6z"/>
<path class="st4" d="M117.5,476.3c-0.2,0-0.4,0-0.5-0.3c0,0,0,0,0,0h0C117.2,476,117.4,476.1,117.5,476.3L117.5,476.3z"/>
<path class="st4" d="M117,476L117,476c-0.2,0-0.4,0.1-0.5-0.2v0C116.7,475.7,116.9,475.8,117,476L117,476z"/>
<path class="st4" d="M114.9,474.7c0.2,0.1,0.3,0.2,0.5,0.3c0.1,0.1,0.2,0.1,0.4,0.2c0.2,0.1,0.4,0.2,0.5,0.4c0,0.1,0.1,0.2,0.1,0.2
	c-0.7-0.1-1.3-0.3-1.9-0.8L114.9,474.7L114.9,474.7z"/>
<path class="st0" d="M163.4,451.9c-0.6,0.1-1.2,0.2-1.8,0.3c-2.3,0.3-4.5,0.5-6.8,0.5c-0.8,0-1.5,0-2.3,0c-0.8,0-1.5,0-2.3-0.1
	c-0.3,0-0.6-0.1-1-0.1c-0.3,0-0.6-0.1-1-0.1c-0.4,0-0.7-0.2-1.1-0.5c-0.9-0.8-1.8-1.7-2.6-2.5C150.8,450.4,157.1,451.2,163.4,451.9
	L163.4,451.9z"/>
<path class="st0" d="M261.8,346.3c-4.5,0-9,0.1-13.5,0.1c-7.5,11.6-15.6,22.8-24.4,33.5c-1.9,2.2-3.7,4.4-5.7,6.6
	c-4.8,5.5-9.9,10.8-15.2,15.9c-4.6,4.4-9.4,8.7-14.4,12.7c-3.9,3.1-7.9,6.1-12.1,8.9c-7.7,5.1-15.8,9.5-24.5,12.7
	c-4.4,1.6-8.9,2.9-13.6,3.7c-0.3,0-0.5,0.2-0.8,0.2c0,0.1,0,0.2,0.1,0.2c0,0,0,0.1,0.1,0.1c0.3,0.5,0.7,1,1,1.5c0.7,1,1.4,2,2.2,2.9
	c1.1,1.4,2.3,2.8,3.6,4.1c6.3,0.9,12.5,1.7,18.8,2.5c1.7-0.3,3.3-0.6,5-1c3.8-0.9,7.5-2.1,11.2-3.5c1.8-0.7,3.6-1.5,5.4-2.3
	s3.5-1.7,5.3-2.6c0.8-0.4,1.5-0.8,2.3-1.2c5.2-2.9,10.2-6.1,15-9.5c4.8-3.5,9.4-7.2,13.8-11.1c0.6-0.6,1.3-1.1,1.9-1.7
	c0.5-0.4,0.9-0.8,1.4-1.3c2.9-2.6,5.7-5.3,8.4-8.1c1.1-1.1,2.1-2.1,3.1-3.2c3.4-3.6,6.8-7.3,10-11c1.9-2.3,3.9-4.5,5.7-6.9
	c0.2-0.3,0.5-0.6,0.7-0.8c1.3-1.6,2.6-3.2,3.8-4.9c4-5.1,7.8-10.4,11.5-15.7c2-2.9,3.9-5.8,5.9-8.8c1.1-1.7,2.1-3.3,3.2-5
	c1.4-2.3,2.8-4.6,4.2-6.9C274.7,346.3,268.3,346.3,261.8,346.3L261.8,346.3z"/>
<path class="st5" d="M90.4,464.2c-0.2,0-0.4,0-0.5-0.2C90.1,463.9,90.3,464,90.4,464.2z"/>
<path class="st3" d="M223.6,347.2c-3.2,0.2-6.4,0.3-9.6,0.5c-3.5,5-7.2,9.9-11,14.7c-3.7,4.7-7.6,9.3-11.6,13.8
	c-2.3,2.5-4.6,5.1-6.9,7.5c-1.7,1.8-3.4,3.5-5.1,5.2c-6.9,6.8-14.1,13.1-21.9,18.9c-1.3,1-2.6,1.9-3.9,2.8c-4.4,3-8.9,5.8-13.6,8.4
	c-3.4,1.8-6.9,3.5-10.5,5c0,0.2,0,0.3,0.1,0.5c0.5,1.4,1,2.7,1.6,4.1c0.6,1.3,1.2,2.7,1.8,4c1.3,2.6,2.7,5.1,4.2,7.6l0,0
	c0.1,0.2,0.3,0.3,0.4,0.4c0.3-0.1,0.5-0.2,0.8-0.2c4.6-0.8,9.1-2.1,13.6-3.7c8.7-3.2,16.8-7.6,24.5-12.7c4.2-2.8,8.2-5.7,12.1-8.9
	c5-4,9.8-8.3,14.4-12.7c5.3-5.1,10.3-10.4,15.2-15.9c1.9-2.2,3.8-4.4,5.7-6.6c8.8-10.7,16.9-21.9,24.4-33.5
	C240.1,346.6,231.8,346.8,223.6,347.2L223.6,347.2z"/>
<path class="st6" d="M386.2,223.1c0,0-0.1,0-0.2,0C386.1,223.1,386.1,223.1,386.2,223.1z"/>
<path class="st6" d="M385.3,223.5c0.3,0,0.5,0,0.4-0.4c0.1,0,0.2,0,0.4,0c-0.1,0-0.1,0-0.2,0c-0.1,0.1-0.1,0.2-0.1,0.4
	C385.6,223.6,385.5,223.6,385.3,223.5c-0.1,0.1-0.2,0.1-0.3,0.1c-0.2,0-0.4,0-0.6-0.1c-0.5-0.1-0.9-0.2-1.4-0.3
	C383.8,223.2,384.6,223.4,385.3,223.5L385.3,223.5z"/>
<path class="st0" d="M150.8,379.3c0.3,0.1,0.6,0.1,1,0.2c-6.3,6.1-12.9,11.8-20,17c-2.6,1.9-5.1,3.8-7.9,5.4c-0.5-2.2-0.7-4.5-1-6.8
	c-0.9-7.2-1.2-14.5-1.2-21.7c1.8,0.4,3.5,0.8,5.3,1.2c5.2,1.2,10.3,2.2,15.5,3.2C145.2,378.3,148,378.8,150.8,379.3L150.8,379.3z"/>
<path class="st7" d="M179.7,350.7c-0.7,0.1-1.5,0.2-2.3,0.2c-7.4,9.5-15.4,18.5-24,26.9c-0.5,0.5-1.1,1.1-1.6,1.6
	c0.3,0,0.5,0.1,0.8,0.1c-0.3,0-0.5-0.1-0.8-0.1c-6.3,6.1-12.9,11.8-20,17c-2.6,1.9-5.1,3.8-7.9,5.4c0,0.3,0,0.6,0.1,0.9
	c0,0.1,0,0.2,0,0.3c0.1,0.3,0.1,0.7,0.2,1c0,0.3,0.1,0.6,0.2,0.8c0.1,0.7,0.3,1.4,0.4,2.1c0.8,4,1.8,7.9,2.9,11.8
	c0.5,1.7,1,3.5,1.9,5.2c3.6-1.5,7.1-3.1,10.5-5c4.7-2.5,9.2-5.4,13.6-8.4c1.3-0.9,2.6-1.8,3.9-2.8c7.8-5.7,15-12.1,21.9-18.9
	c1.7-1.7,3.4-3.4,5.1-5.2c2.4-2.5,4.7-5,6.9-7.5c4-4.5,7.8-9.1,11.6-13.8c3.8-4.8,7.5-9.7,11-14.7
	C202.6,348.5,191.1,349.4,179.7,350.7L179.7,350.7z"/>
<path class="st0" d="M152.5,379.6c-0.3,0-0.5-0.1-0.8-0.1C152,379.5,152.3,379.5,152.5,379.6z"/>
<path class="st7" d="M151.8,379.4c-0.3,0-0.6-0.1-1-0.2L151.8,379.4L151.8,379.4z"/>
<path class="st7" d="M142.4,377.8c2.8,0.5,5.6,1,8.4,1.5C148,378.8,145.2,378.3,142.4,377.8z"/>
<path class="st3" d="M172.5,351.6c1.6-0.3,3.3-0.5,4.9-0.7c-7.4,9.5-15.4,18.5-24,26.9c-0.5,0.5-1.1,1.1-1.6,1.6l-1-0.2
	c-2.8-0.5-5.6-1-8.4-1.5c-5.2-1-10.4-2-15.5-3.2c-1.8-0.4-3.5-0.8-5.3-1.2c0-2.7,0-5.5,0.1-8.2c0-1.6,0.1-3.2,0.2-4.9
	c6-1.4,12-2.7,18-3.8c10.3-1.9,20.7-3.5,31.1-4.8c0.2,0,0.3,0,0.5-0.1c0.2,0,0.4,0,0.6,0C172.3,351.6,172.4,351.6,172.5,351.6
	L172.5,351.6z"/>
<path class="st8" d="M356.4,219.5c6,0.7,12,1.5,18.1,2.2c0,0.1-0.1,0.1-0.1,0.2c-3.7-0.5-7.5-0.9-11.2-1.4c-1.1-0.1-2.2-0.2-3.3-0.3
	c-1.1-0.1-2.2-0.2-3.2-0.5C356.5,219.6,356.4,219.6,356.4,219.5L356.4,219.5z"/>
<path class="st0" d="M326.9,238.2c0.2-0.8,0.4-1.7,0.7-2.6C327.3,236.5,327.1,237.3,326.9,238.2z"/>
<path class="st0" d="M499.8,359.1c0-8.3,0-16.6,0-24.8c-0.5-2.3-1.3-4.6-2.5-6.6c-2.1-3.3-4.5-6.2-7.6-8.6
	c-3.2-2.5-6.5-4.8-10.1-6.8c-4.9-2.7-10-5-15.1-7.3c-0.9-0.4-1.8-0.6-2.8-1c-11.5-4.5-23.4-7.9-35.4-10.8
	c-7.7-1.9-15.4-3.5-23.2-4.9c-8.7-1.6-17.5-3-26.3-4.2c-6.1-0.8-12.1-1.6-18.2-2.3c-2.7-0.3-5.4-0.6-8.1-0.9c-7.6-0.7-15.3-1.4-23-2
	c-4.5-0.3-9.1-0.6-13.6-0.9c-3.8-0.2-7.7-0.4-11.5-0.6c-6.1-0.3-12.1-0.5-18.2-0.6c-0.4,0-0.9,0-1.3,0c-9.6-0.2-19.1-0.3-28.7-0.2
	c-0.2,0-0.3,0-0.5,0c-9.9,0.1-19.7,0.3-29.5,0.7c-0.6,0-1.2,0.1-1.8,0.1c-11.7,0.5-23.3,1.2-34.9,2.2c-17.1,1.4-34.1,3.4-51,6
	c-0.4,0.1-0.8,0.1-1.2,0.2c-0.6,2.3-1.2,4.6-2.1,6.9c-0.6,2.3-1.1,4.6-1.7,6.9c-1.6,6.1-3,12.2-4.2,18.4c0.9-0.2,1.7-0.3,2.6-0.4
	c1.1-0.2,2.3-0.4,3.4-0.6c1.7-0.3,3.4-0.5,5-0.8c6.1-0.9,12.2-1.8,18.2-2.6c6.1-0.8,12.2-1.5,18.3-2.1c4.1-0.4,8.1-0.8,12.2-1.1
	c6.2-0.5,12.3-1,18.5-1.3c5.8-0.4,11.6-0.6,17.5-0.9c1.5-0.1,3-0.1,4.5-0.2c2.2-0.1,4.5-0.2,6.7-0.2c1.4,0,2.9-0.1,4.3-0.1
	c5.2-0.1,10.5-0.2,15.7-0.3c2,0,3.9,0,5.9,0c3.4,0,6.8,0,10.1,0c1.2,0,2.4,0,3.7,0c1.3,0,2.6,0,3.9,0c3.6,0.1,7.1,0.2,10.7,0.3
	s7.1,0.2,10.7,0.4c0.6,0,1.2,0.1,1.8,0.1c3.8,0.2,7.7,0.4,11.5,0.6c2.9,0.2,5.9,0.3,8.8,0.5c4.4,0.3,8.8,0.6,13.3,1
	c4.1,0.3,8.1,0.7,12.2,1.1c0.1,0,0.3,0,0.4,0c2.9,0.3,5.8,0.6,8.8,0.9c4.7,0.5,9.3,1,14,1.6c4.7,0.6,9.3,1.3,14,2
	c1.9,0.3,3.9,0.6,5.8,0.9c5.8,0.9,11.6,2,17.3,3.1c3.4,0.7,6.8,1.4,10.1,2.1c3.4,0.7,6.7,1.5,10.1,2.3c5.1,1.3,10.2,2.6,15.2,4.1
	c6.7,2,13.3,4.2,19.8,6.8c1.6,0.6,3.2,1.3,4.9,2c2.4,1.1,4.9,2.2,7.2,3.4c0.6,0.3,1.2,0.6,1.8,0.9c0.5,0.2,0.9,0.5,1.4,0.7
	c0.6,0.3,1.2,0.6,1.8,0.9c0.8,0.4,1.5,0.8,2.2,1.3c2.7,1.9,5.5,3.6,8,5.7c0.6,0.5,1.1,1,1.7,1.5c0.6,0.5,1.3,1.1,1.9,1.7
	c1,1,1.9,2,2.7,3.1c0.4,0.5,0.8,1.1,1.1,1.7c0.3,0.5,0.6,1,0.8,1.5s0.5,1,0.7,1.6c0.2,0.5,0.4,1.1,0.6,1.7c0.1,0.4,0.3,0.8,0.4,1.2
	c0,0,0,0,0,0v0C499.9,362.4,499.7,360.7,499.8,359.1L499.8,359.1z"/>
<path class="st3" d="M499.9,331c0-6.3,0-12.5,0-18.8c0-2.9,0-5.8,0-8.7c-0.5-1.6-0.8-3.3-1.6-4.9c-1.9-3.9-4.7-7.1-8-9.9
	c-3.6-3.1-7.5-5.6-11.7-7.9c-6-3.3-12.2-6.1-18.7-8.5c-7.4-2.8-15-5.2-22.6-7.3c-5.8-1.6-11.7-3.1-17.6-4.4
	c-6.7-1.5-13.5-2.9-20.3-4.1c-7-1.2-14.1-2.4-21.2-3.4c-3.4-0.5-6.7-0.9-10.1-1.3c-7.5-1-15.1-1.8-22.6-2.5
	c-1.4-0.1-2.8-0.3-4.2-0.4c-5.7-0.4-11.4-0.9-17.1-1.3c-0.8-0.1-1.6-0.1-2.4-0.2c-3.8-0.3-7.6-0.5-11.4-0.7c-5-0.2-9.9-0.4-14.9-0.6
	c0,0-0.1,0-0.1,0c-5.2-0.2-10.4-0.4-15.5-0.5c-4.6-0.1-9.1-0.1-13.7-0.1c-2,0-4,0-6,0c-8,0-16,0.1-24,0.3c-0.1,0-0.2,0-0.3,0
	c-9.4,0.3-18.8,0.6-28.2,1.3c-7.2,0.5-14.4,0.9-21.6,1.5c-2.9,0.2-5.8,0.6-8.7,0.9c-10.1,1-20.3,2.2-30.3,3.6c-0.1,0-0.2,0-0.3,0
	c-4,10.4-7.7,21-10.9,31.8c-0.1,0.3-0.2,0.5-0.2,0.8c0.4-0.1,0.8-0.1,1.2-0.2c16.9-2.7,33.9-4.6,51-6c11.6-1,23.2-1.7,34.9-2.2
	c0.6,0,1.2-0.1,1.8-0.1c9.8-0.4,19.7-0.6,29.5-0.7c0.2,0,0.3,0,0.5,0c9.6-0.1,19.1,0,28.7,0.2c0.4,0,0.9,0,1.3,0
	c6.1,0.1,12.1,0.3,18.2,0.6c3.9,0.2,7.7,0.4,11.5,0.6c4.5,0.3,9.1,0.5,13.6,0.9c7.7,0.6,15.3,1.2,23,2c2.7,0.3,5.4,0.6,8.1,0.9
	c6.1,0.7,12.1,1.4,18.2,2.3c8.8,1.2,17.5,2.6,26.3,4.2c7.8,1.5,15.5,3.1,23.2,4.9c12,2.9,23.9,6.3,35.4,10.8c0.9,0.4,1.8,0.6,2.8,1
	c5.1,2.3,10.2,4.6,15.1,7.3c3.6,2,6.8,4.3,10.1,6.8c3.1,2.4,5.5,5.3,7.6,8.6c1.3,2,2,4.3,2.5,6.6C500,333.1,499.9,332,499.9,331
	L499.9,331z"/>
<path class="st0" d="M322.2,94c4.2,6.5,7.2,13.6,9.5,20.9c0.7,2.3,1.3,4.6,1.9,6.9c1,3.9,1.7,7.8,2.3,11.7c0.2,1.1,0.3,2.3,0.5,3.5
	c0.3,2.3,0.5,4.6,0.8,6.9c0.1,1.2,0.2,2.3,0.3,3.5c0.4,6.3,0.6,12.6,0.4,19c-0.2,6.6-0.6,13.2-1.2,19.8c-0.7,6.6-1.6,13.1-2.7,19.6
	c-0.6,3.9-1.4,7.8-2.2,11.6c-6.3-0.5-12.5-0.9-18.8-1.2c-3-0.1-6-0.3-9.1-0.5c2-8.8,3.8-17.6,5.1-26.5c1.5-9.9,2.5-19.8,2.9-29.7
	c0.3-8.5,0.3-16.9-0.4-25.4c-0.6-7.1-1.5-14-3-21c-1.7-7.8-4.1-15.3-7.6-22.6c-1.4-2.9-3-5.6-4.6-8.3c1.3-0.4,2.7-0.5,4-0.6
	c0.7-0.1,1.4-0.1,2.1-0.2c0.6,0,1.2-0.1,1.8-0.1c1,0,2,0,2.9,0c0.7,0,1.4,0,2.1,0.1c0.5,0,1.1,0.1,1.6,0.1c0.1,0,0.2,0,0.3,0
	c0.2,0,0.3,0.1,0.5,0.1c0.2,0.1,0.3,0.1,0.4,0.2c0.2,0.1,0.4,0.3,0.6,0.5c0.5,0.4,0.9,0.9,1.4,1.3c0.9,0.9,1.8,1.8,2.6,2.7
	C318.7,88.9,320.5,91.3,322.2,94L322.2,94z"/>
<path class="st3" d="M308.5,113.2c1.5,6.9,2.5,13.9,3,21c0.7,8.5,0.7,16.9,0.4,25.4c-0.4,10-1.4,19.9-2.9,29.7
	c-1.3,8.9-3.1,17.8-5.1,26.5c-2.3-0.1-4.6-0.2-6.9-0.3c-5.2-0.2-10.4-0.3-15.7-0.4c-1.9,0-3.9-0.1-5.8-0.1c1.9-7.2,3.6-14.4,5-21.7
	c1.1-5.5,2-10.9,2.9-16.4c0.5-3.7,1-7.4,1.5-11.1c0.4-3.9,0.8-7.8,1-11.7c0.3-4.2,0.4-8.3,0.5-12.5c0.1-5.6-0.1-11.1-0.5-16.7
	c-0.3-3.7-0.6-7.3-1.1-11c-0.6-5-1.5-9.9-2.7-14.8c-1-3.9-2-7.8-3.5-11.6c1-0.6,2.1-1,3.2-1.4c2.2-0.8,4.5-1.6,6.8-2.2
	c2.3-0.6,4.6-1.1,7-1.5c0.2,0,0.3-0.1,0.5-0.1c0.1,0,0.2,0,0.3,0c1.6,2.7,3.2,5.4,4.6,8.3C304.4,97.8,306.8,105.4,308.5,113.2
	L308.5,113.2z"/>
<path class="st2" d="M374.2,100.4C374.2,100.4,374.1,100.3,374.2,100.4c-0.1-0.1-0.1-0.1-0.1-0.1L374.2,100.4L374.2,100.4
	L374.2,100.4z"/>
<path class="st8" d="M499.8,393.9c0-0.4,0-0.8,0-1.2c0-6.5,0-13,0-19.4c0-2.8,0-5.6-0.1-8.4c0-0.2,0.1-0.3,0.1-0.5
	c0-0.1-0.1-0.2-0.2-0.3c0,0,0,0,0,0c0,0,0,0,0,0c-0.1-0.4-0.3-0.8-0.4-1.2c-0.2-0.6-0.4-1.1-0.6-1.7c-0.2-0.5-0.5-1.1-0.7-1.6
	c-0.3-0.5-0.5-1-0.8-1.5c-0.3-0.6-0.7-1.1-1.1-1.7c-0.8-1.1-1.7-2.2-2.7-3.1c-0.6-0.6-1.2-1.2-1.9-1.7c-0.5-0.5-1.1-1-1.7-1.5
	c-2.5-2.1-5.3-3.9-8-5.7c-0.7-0.5-1.5-0.9-2.2-1.3c-0.6-0.3-1.2-0.6-1.8-0.9c-0.5-0.2-0.9-0.5-1.4-0.7c-0.6-0.3-1.2-0.6-1.8-0.9
	c-2.4-1.2-4.8-2.3-7.2-3.4c-1.6-0.7-3.2-1.4-4.9-2c-6.5-2.6-13.1-4.8-19.8-6.8c-5-1.5-10.1-2.8-15.2-4.1c-3.4-0.8-6.7-1.6-10.1-2.3
	s-6.7-1.4-10.1-2.1c-5.8-1.1-11.5-2.2-17.3-3.1c-1.9-0.3-3.9-0.6-5.8-0.9c-4.7-0.7-9.3-1.4-14-2c-4.7-0.6-9.3-1.2-14-1.6
	c-2.9-0.3-5.8-0.6-8.8-0.9c-0.1,0-0.3,0-0.4,0c-4.1-0.4-8.1-0.8-12.2-1.1c-4.4-0.4-8.8-0.7-13.3-1c-2.9-0.2-5.9-0.4-8.8-0.5
	c-3.8-0.2-7.7-0.4-11.5-0.6c-0.6,0-1.2-0.1-1.8-0.1c-3.6-0.2-7.1-0.3-10.7-0.4s-7.1-0.2-10.7-0.3c-1.3,0-2.6,0-3.9,0
	c-1.2,0-2.4,0-3.7,0c-3.4,0-6.8,0-10.1,0c-2,0-4,0-5.9,0c-5.2,0-10.5,0.1-15.7,0.3c-1.4,0-2.9,0.1-4.3,0.1c-2.2,0.1-4.5,0.1-6.7,0.2
	c-1.5,0.1-3,0.1-4.5,0.2c-5.8,0.2-11.6,0.5-17.5,0.9c-6.2,0.4-12.4,0.8-18.5,1.3c-4.1,0.3-8.2,0.7-12.2,1.1
	c-6.1,0.6-12.2,1.3-18.3,2.1c-6.1,0.8-12.2,1.6-18.2,2.6c-1.7,0.3-3.4,0.5-5,0.8c-1.1,0.2-2.3,0.4-3.4,0.6c-0.9,0.2-1.7,0.3-2.6,0.4
	c1.2-6.2,2.6-12.3,4.2-18.4c0.6-2.3,1.2-4.6,1.7-6.9c0.8-2.3,1.4-4.6,2.1-6.9c0.1-0.3,0.2-0.5,0.2-0.8c3.2-10.7,6.8-21.3,10.9-31.8
	c2.6-6.6,5.3-13.2,8.2-19.7c1.9-4.4,3.9-8.7,6-13c6.8-14.2,14.4-27.9,22.9-41.2c7.9-12.5,16.4-24.5,25.8-35.9
	c0.2-0.2,0.3-0.5,0.5-0.7c2.8-3.2,5.6-6.5,8.5-9.7c9.4-10.4,19.5-20.1,30.7-28.5c2.8-2.1,5.6-4.1,8.4-6.1c0.3-0.2,0.6-0.2,0.9-0.2
	c0.1-0.4,0.5-0.6,0.8-0.8c5.8-3.7,11.8-7,18.1-9.7c0.2-0.1,0.4-0.2,0.7-0.3c0.1,0,0.1,0,0.2,0c0.1,0,0.2,0,0.2,0
	c1-0.6,2.1-1,3.2-1.4c2.2-0.8,4.5-1.6,6.8-2.2c2.3-0.6,4.6-1.1,7-1.5c0.2,0,0.3-0.1,0.5-0.1c0.1,0,0.2,0,0.3,0
	c1.3-0.4,2.7-0.5,4-0.6c0.7-0.1,1.4-0.1,2.1-0.2c0.6,0,1.2-0.1,1.8-0.1c1,0,2,0,2.9,0c0.7,0,1.4,0,2.1,0.1c0.5,0,1.1,0.1,1.6,0.1
	c0.1,0,0.2,0,0.3,0c0.2,0,0.3,0.1,0.5,0.1c0.2,0.1,0.3,0.1,0.4,0.2c0.2,0.1,0.4,0.3,0.6,0.5c0.5,0.4,0.9,0.9,1.4,1.3
	c0.9,0.9,1.8,1.8,2.6,2.7c2.1,2.3,3.9,4.8,5.6,7.5c4.2,6.5,7.2,13.6,9.5,20.9c0.7,2.3,1.3,4.6,1.9,6.9c1,3.9,1.7,7.8,2.3,11.7
	c0.2,1.1,0.3,2.3,0.5,3.5c0.3,2.3,0.5,4.6,0.8,6.9c0.1,1.2,0.2,2.3,0.3,3.5c0.4,6.3,0.6,12.6,0.4,19c-0.2,6.6-0.6,13.2-1.2,19.8
	c-0.7,6.6-1.6,13.1-2.7,19.6c-0.6,3.9-1.4,7.8-2.2,11.6c1,0.1,2,0.2,3,0.2c7.3,0.6,14.5,1.3,21.8,2c-0.1-0.1-0.1-0.1-0.2-0.2
	c6,0.7,12,1.5,18.1,2.2c0,0.1-0.1,0.1-0.1,0.2c0.4,0,0.7,0.1,1.1,0.2c1.2-6,2.3-11.9,3.2-17.9c0.8-5.4,1.5-10.8,2.1-16.2
	c0.5-5.1,1-10.1,1.2-15.2c0.1-2.4,0.3-4.9,0.4-7.4c0-0.3-0.2-0.7,0.3-0.9c0-4.6,0-9.1,0-13.7c-0.2-0.1-0.3-0.3-0.3-0.5
	c-0.1-0.9-0.2-1.8-0.2-2.8c-0.2-6.6-0.8-13.2-1.7-19.8c-1-7.3-2.4-14.4-4.4-21.5c-0.5-1.8-0.9-3.6-1.7-5.2l-0.2-0.6
	c0,0-0.1,0-0.1-0.1c0,0,0,0,0-0.1c0-0.2-0.1-0.4-0.2-0.6c-2.9-8.4-6.7-16.4-12-23.7c-5-7-11.1-12.8-18.7-17.2
	c-2.8-1.6-5.9-2.8-8.8-4.2c-0.3-0.1-0.6-0.1-0.9-0.2c-0.3-0.3-0.7-0.4-1-0.6c-6.8-3-13.6-6-20.4-9c-0.9-0.4-1.7-1-2.7-1.1
	c-0.2-0.1-0.3-0.1-0.5-0.2c-1.2-0.4-2.4-0.6-3.5-1.2c-0.1,0-0.2-0.1-0.3-0.1c0,0-0.1,0-0.2,0c0,0,0,0,0,0c-0.1,0.1-0.2,0-0.3-0.1
	c-2.2-0.6-4.4-1-6.6-1.3c-1.6-0.2-3.2-0.4-4.8-0.5c-0.5,0-1.1,0-1.6-0.1c-1.6,0-3.2,0-4.8,0c-2.1,0.1-4.2,0.3-6.4,0.6
	c-3.7,0.5-7.3,1.3-11,2.3c-0.5,0.2-1,0.3-1.6,0.5c-6.8,2-13.3,4.8-19.6,8c-2.1,1.1-4.2,2.2-6.2,3.4c-1.9,1.1-3.7,2.2-5.5,3.3
	c-0.6,0.4-1.2,0.8-1.8,1.2c-0.6,0.4-1.2,0.8-1.8,1.2c-1.2,0.8-2.4,1.6-3.5,2.5c-0.6,0.4-1.2,0.8-1.7,1.3c0,0,0,0.1,0,0.1
	c0,0,0,0.1,0,0.1c0,0-0.1,0.1-0.2,0.1h0c0,0,0,0.1,0,0.1c0,0.1,0,0.1-0.1,0.1c0,0-0.1,0-0.1,0c0,0,0,0-0.1,0
	c-2.6,1.8-5.1,3.7-7.5,5.6c-1.1,0.9-2.2,1.8-3.2,2.6c-0.2,0.1-0.3,0.3-0.5,0.4c-1.1,0.9-2.2,1.9-3.2,2.8c0,0,0,0,0,0.1
	c0,0.1,0,0.1-0.1,0.2c0,0,0,0,0,0c0,0-0.1,0-0.1,0c0,0.1-0.1,0.1-0.1,0.2c-0.1,0.1-0.1,0.1-0.2,0.2c-0.1,0.1-0.2,0.1-0.3,0.1
	c0,0.1,0,0.2-0.1,0.2c-0.1,0.1-0.3,0-0.4,0c-0.4,0.4-0.8,0.8-1.2,1.3c0,0,0,0.1-0.1,0.1c0,0,0,0,0,0.1c0,0.1,0,0.1-0.1,0.1h0
	c0,0-0.1,0-0.2,0c-0.4,0.3-0.8,0.6-1.1,0.9c0,0-0.1,0-0.1,0.1c-1.3,1.3-2.7,2.5-4,3.8c-0.1,0.1-0.2,0.2-0.3,0.2
	c-0.4,0.4-0.8,0.8-1.3,1.2c-1.1,1-2.1,1.9-3.2,3c-0.5,0.6-1.1,1.1-1.6,1.7c-3.1,3.2-6.3,6.4-9.3,9.7c-3.8,4.2-7.6,8.6-11.2,13
	c-0.5,0.6-1,1.3-1.6,1.9c-0.1,0.1-0.2,0.2-0.2,0.3c-0.1,0.2-0.2,0.3-0.3,0.5c-0.1,0.2-0.3,0.4-0.4,0.6c-0.1,0.2-0.2,0.3-0.3,0.4
	c0,0-0.1,0.1-0.1,0.1c-0.2,0.2-0.3,0.3-0.5,0.5c0,0,0,0.1,0,0.1c0,0,0,0.1,0,0.1c0,0,0,0,0,0c0,0-0.1,0-0.1,0
	c-0.1,0.4-0.4,0.6-0.7,0.9c0,0,0,0,0,0c-0.1,0.1-0.2,0.2-0.2,0.3c0,0-0.1,0.1-0.1,0.2c0,0.1,0,0.1-0.1,0.2c0,0,0,0,0,0.1
	c0,0.1,0,0.1-0.1,0.2c0,0,0,0,0,0c0,0,0,0-0.1,0c0,0,0,0-0.1,0c-0.7,0.8-1.3,1.7-2,2.5c0,0-0.1,0.1-0.1,0.1c0,0.1,0,0.2,0,0.3
	c0,0.1,0,0.1-0.1,0.2c0,0,0,0,0,0.1c0,0-0.1,0.1-0.2,0.1c-0.1,0-0.2,0.1-0.3,0.1c-0.1,0.1-0.2,0.2-0.3,0.3c0,0-0.1,0.1-0.1,0.1
	c-0.1,0.1-0.2,0.2-0.2,0.3c-1.7,2.3-3.4,4.6-5.1,6.9c0,0.1,0,0.1-0.1,0.2c0,0,0,0,0,0c0,0-0.1,0-0.1,0c-1.2,1.7-2.4,3.3-3.6,5
	c-0.2,0.3-0.5,0.7-0.7,1c-1.7,2.6-3.4,5.2-5.1,7.7c-0.9,1.3-1.7,2.6-2.5,3.9c-0.8,1.3-1.7,2.6-2.6,3.8c-1.5,2-2.7,4.2-4,6.3
	c-0.6,0.9-1.1,1.8-1.7,2.8c-6.2,10.3-12.2,20.7-17.4,31.6c-0.3,0.6-0.6,1.2-1,1.8c-0.3,0.6-0.7,1.2-1,1.8c-1.8,3.5-3.5,7.1-5.1,10.6
	c-0.6,1.3-1.2,2.7-1.8,4c-0.8,1.7-1.6,3.5-2.4,5.2c-1,2.2-2,4.5-2.9,6.7c-0.4,0.9-0.8,1.9-1.2,2.8c-0.5,1.2-1,2.4-1.5,3.6
	c-1.7,4.2-3.4,8.4-5,12.7c-0.5,1.2-0.9,2.5-1.4,3.7c-1.1,3-2.2,6-3.2,9.1c-0.3,0.7-0.5,1.5-0.8,2.2c-0.2,0.6-0.4,1.1-0.6,1.7
	c-0.5,1.4-1,2.9-1.4,4.3c-0.6,1.8-1.1,3.5-1.6,5.3c-0.4,1.3-0.8,2.5-1.2,3.8c-0.9,2.8-2,5.6-2.4,8.6c0,0.2-0.2,0.3-0.3,0.4
	c-0.5,1.2-0.7,2.5-1,3.8c-0.2,0.6-0.3,1.2-0.5,1.8c-0.2,0.6-0.4,1.2-0.5,1.8c-0.7,2.6-1.4,5.2-2,7.8c-0.6,2.4-1.1,4.7-1.7,7.1
	c-0.6,2.7-1.2,5.4-1.7,8c-0.5,2.3-1,4.7-1.4,7.1c-0.3,1.9-0.7,3.7-1,5.6c-0.3,1.6-0.5,3.3-0.8,4.9c-0.3,2.1-0.6,4.2-0.9,6.3
	c-0.3,1.9-0.5,3.8-0.7,5.7c-0.6,5.2-1.1,10.4-1.6,15.6c-0.1,1.5-0.2,3-0.3,4.5c-0.1,1.5-0.2,3-0.2,4.5c-0.1,3-0.2,6-0.3,8.9
	c0,0.7,0,1.4,0,2c0,0.2,0,0.4,0,0.6c0,3.8,0.1,7.6,0.3,11.4c0,0.2,0,0.3,0,0.5c0,0.7,0.1,1.4,0.1,2c0.1,2.8,0.4,5.5,0.7,8.3
	c0.2,1.9,0.4,3.7,0.6,5.6c0,0.3,0.1,0.5,0.1,0.8c0.5,3.8,1.1,7.5,1.8,11.3c1.4,7,3.2,13.8,5.7,20.5c0,0.1,0.1,0.2,0.1,0.3
	c1.9,4.9,4.1,9.7,6.7,14.3c4.4,7.5,9.8,14.2,16.6,19.5c0.8,0.6,1.6,1.2,2.5,1.8c0.8,0.6,1.7,1.1,2.5,1.6c0.2,0.1,0.3,0.2,0.5,0.3
	c0.1,0.1,0.2,0.1,0.4,0.2c0.2,0.1,0.4,0.2,0.5,0.4c0,0.1,0.1,0.2,0.1,0.2v0c0.2,0,0.4,0,0.5,0.3h0c0.2,0,0.4,0.1,0.5,0.3
	c0.1,0,0.1,0,0.2,0h0c0.1,0,0.3,0.1,0.3,0.2c0,0,0,0,0,0c0,0,0,0,0,0c0,0,0.1,0,0.1,0c0,0,0,0,0.1,0c0,0,0,0,0.1,0c0,0,0.1,0,0.1,0
	c0,0,0,0,0,0c0,0,0.1,0.1,0.1,0.1c0,0,0,0,0,0c0.3,0.3,0.7,0.4,1,0.5c7.5,3.3,15.1,6.7,22.6,10c3.7,1.6,7.4,3.4,11.4,4.5
	c3.9,1.1,8,1.8,12,2c0.7,0,1.4,0,2,0c2,0,4.1,0,6.1,0c2-0.1,3.9-0.3,5.9-0.6c7.9-1.2,15.6-3.5,22.9-6.7
	c13.5-5.8,25.6-13.7,37.1-22.8c2.5-2,5-4.1,7.4-6.2c8.5,0.2,16.9,0.2,25.4,0.1c8.1-0.1,16.2-0.2,24.2-0.5c0.4-0.2,0.8-0.2,1.2-0.1
	c0.1,0,0.2,0,0.4,0c0.5-0.2,1-0.2,1.5-0.1h0.4c0.3-0.2,0.6-0.2,0.9-0.2c0,0,0,0,0,0h0c0.1,0,0.2,0.1,0.3,0.1h0.4
	c0.2-0.1,0.4-0.2,0.6-0.2c0.2,0,0.4,0,0.6,0.1c0.1,0,0.2,0,0.4,0c0.1-0.1,0.3-0.1,0.4-0.2c0.3-0.1,0.6,0,0.8,0.1c0.1,0,0.2,0,0.3,0
	c0,0,0,0,0,0c0.4-0.2,0.8-0.2,1.2,0c0.1,0,0.2,0,0.3,0c0.4-0.3,0.8-0.2,1.3-0.1c0.1,0,0.2,0,0.3,0c0.4-0.2,0.8-0.2,1.3-0.1
	c0.1,0,0.2,0,0.3,0c0.1-0.1,0.2-0.1,0.2-0.1c0.1,0,0.3,0,0.4,0c0.1,0,0.3,0,0.4,0.1c1.8-0.1,3.7-0.2,5.5-0.3
	c14.1-0.8,28.2-1.9,42.2-3.5c21.3-2.4,42.5-5.6,63.5-10.3c14.3-3.2,28.3-7.1,41.9-12.6c7.3-2.9,14.4-6.3,20.9-10.7
	c3.9-2.7,7.6-5.7,10.5-9.5c1.8-2.4,3.3-5,3.9-8.1c0.2-0.2,0.3-0.5,0.3-0.8c0.1-2.2,0.2-4.4,0-6.6L499.8,393.9z M310.3,347.7
	c-3.9-0.2-7.8-0.5-11.8-0.6C302.5,347.3,306.4,347.5,310.3,347.7z M223.1,419.1c-0.6,0.6-1.3,1.1-1.9,1.7
	c-4.5,3.9-9.1,7.6-13.8,11.1c-4.8,3.4-9.8,6.7-15,9.5c-0.7,0.4-1.5,0.8-2.3,1.2c-1.7,0.9-3.5,1.8-5.3,2.6c-1.8,0.8-3.6,1.6-5.4,2.3
	c-3.6,1.4-7.3,2.6-11.2,3.5c-1.7,0.4-3.3,0.7-5,1c-0.6,0.1-1.2,0.2-1.8,0.3c-2.3,0.3-4.5,0.5-6.8,0.5c-0.8,0-1.5,0-2.3,0
	c-0.8,0-1.5,0-2.3-0.1c-0.3,0-0.7-0.1-1-0.1c-0.3,0-0.6-0.1-1-0.1c-0.4,0-0.7-0.2-1.1-0.5c-0.9-0.8-1.8-1.7-2.6-2.5
	c-1.3-1.3-2.4-2.7-3.6-4.1c-0.7-0.9-1.5-1.9-2.2-2.9c-0.3-0.5-0.7-1-1-1.5c0,0,0-0.1-0.1-0.1c0-0.1,0-0.2-0.1-0.2
	c-0.1-0.1-0.3-0.3-0.4-0.4l0,0c-1.6-2.5-3-5-4.2-7.6c-0.6-1.3-1.2-2.6-1.8-4c-0.6-1.3-1.1-2.7-1.6-4.1c-0.1-0.2,0-0.3-0.1-0.5
	c-0.9-1.6-1.3-3.4-1.9-5.2c-1.2-3.9-2.2-7.8-2.9-11.8c-0.1-0.7-0.3-1.4-0.4-2.1c-0.1-0.3-0.1-0.6-0.2-0.8c-0.1-0.3-0.1-0.7-0.2-1
	c0-0.1,0-0.2,0-0.3c0-0.3,0-0.6-0.1-0.9c-0.5-2.2-0.7-4.5-1-6.8c-0.9-7.2-1.2-14.5-1.2-21.7c0-2.7,0-5.5,0.1-8.2
	c0-1.6,0.1-3.2,0.2-4.9c6-1.4,12-2.7,18-3.8c10.3-1.9,20.7-3.5,31.1-4.8c0.2,0,0.3,0,0.5-0.1c0.2,0,0.4,0,0.6,0c0.1,0,0.2,0,0.4,0.1
	c1.6-0.3,3.3-0.5,4.9-0.7c0.8-0.1,1.5-0.2,2.3-0.2c11.4-1.3,22.9-2.2,34.3-2.9c3.2-0.2,6.4-0.4,9.6-0.5c8.2-0.4,16.4-0.6,24.7-0.8
	c4.5-0.1,9-0.1,13.5-0.1c6.4,0,12.8,0.1,19.3,0.2c-1.4,2.3-2.8,4.6-4.2,6.9c-1,1.7-2.1,3.3-3.2,5c-1.9,2.9-3.9,5.9-5.9,8.8
	c-3.7,5.4-7.5,10.6-11.5,15.7c-1.3,1.6-2.5,3.2-3.8,4.9c-0.2,0.3-0.5,0.6-0.7,0.8c-1.9,2.3-3.8,4.6-5.7,6.9c-3.2,3.8-6.6,7.4-10,11
	c-1,1.1-2.1,2.2-3.1,3.2c-2.7,2.8-5.5,5.4-8.4,8.1c0.9,0,1.8,0.1,2.6,0.1c-0.9,0-1.8-0.1-2.6-0.1
	C224.1,418.2,223.6,418.7,223.1,419.1L223.1,419.1z M238.4,418.3c3.3,0.1,6.7,0.2,10,0.3C245.1,418.5,241.8,418.5,238.4,418.3z
	 M458.2,382.9c-0.1,0.1-0.2,0.2-0.5,0.4c-0.3,0.2-0.6,0.5-1,0.7c-0.3,0.2-0.6,0.5-1,0.7c-0.6,0.4-1.3,0.9-1.9,1.3
	c-0.1,0-0.2,0.1-0.2,0.2c-0.5,0.3-1.1,0.7-1.6,1c-0.8,0.5-1.6,0.9-2.4,1.4c-5.5,3.1-11.4,5.6-17.3,7.8c-5.6,2.1-11.3,3.9-17,5.5
	c-8.2,2.3-16.5,4.2-24.9,5.9c-8.1,1.6-16.3,3-24.5,4.2c-8.2,1.2-16.4,2.2-24.7,3.1c-2.7,0.3-5.4,0.5-8.1,0.8
	c-5.4,0.5-10.9,0.9-16.3,1.3c-2.7,0.2-5.4,0.3-8.1,0.5c-6.1,0.3-12.2,0.6-18.3,0.8c-1.1,0-2.2,0.1-3.3,0.1c-1,0-2,0.1-3.1,0.1
	c2.5-3.1,5-6.2,7.3-9.4c0.3-0.4,0.7-0.8,1-1.2c4.9-6.6,9.6-13.3,14.1-20.1c0.2-0.4,1.5-2.3,1.9-2.9c2.9-4.4,5.6-8.8,8.3-13.3
	c4.4-7.4,8.6-14.9,12.6-22.4c7.6,0.7,15.3,1.4,22.9,2.4c0.6,0.1,1.1,0.2,1.7,0.3c3.4,0.2,6.8,0.8,10.2,1.3c4.3,0.6,8.7,1.3,13,2.1
	c5.8,1,11.7,2.1,17.5,3.3c3.1,0.7,6.2,1.4,9.4,2.1c0,0,0.1,0,0.1,0c0,0,0.1,0,0.1,0c0.2,0,0.4,0,0.6,0.1c0.3,0,0.5,0.1,0.8,0.3
	c6.7,1.7,13.3,3.5,19.9,5.7c0.6,0.2,1.3,0.3,1.8,0.8c1.7,0.3,3.3,1,4.9,1.6c1.4,0.5,2.8,1.1,4.2,1.6c4,1.6,7.9,3.3,11.7,5.3
	c1.5,0.8,3,1.6,4.4,2.5c1.9,1.2,3.8,2.4,5.5,3.8C458.3,382.6,458.4,382.7,458.2,382.9L458.2,382.9z"/>
<path class="st7" d="M499.9,274c-0.2-3.6-1.6-6.8-3.7-9.7c-3-4.1-6.8-7.3-10.9-10.2c-7.1-4.8-14.8-8.4-22.7-11.6
	c-4.4-1.8-8.9-3.3-13.4-4.8c-6.9-2.2-13.8-4.1-20.8-5.8c-8.8-2.1-17.5-4-26.4-5.6c-5.4-1-10.8-1.9-16.2-2.7c-0.2,0-0.3,0-0.5,0
	c-0.1,0-0.2,0-0.3,0c-0.2,0-0.4,0-0.6-0.1c-0.5-0.1-0.9-0.2-1.4-0.3c-1.6-0.3-3.2-0.5-4.8-0.8c-0.9-0.1-1.9-0.3-2.8-0.4
	c-0.4-0.1-0.7-0.1-1.1-0.2c-3.7-0.5-7.5-0.9-11.2-1.4c-1.1-0.1-2.2-0.2-3.3-0.3c-1.1-0.1-2.2-0.2-3.2-0.5c-7.3-0.7-14.5-1.4-21.8-2
	c-1-0.1-2-0.2-3-0.2c-6.3-0.5-12.5-0.9-18.8-1.2c-3-0.1-6-0.3-9.1-0.5c-2.3-0.1-4.6-0.2-6.9-0.3c-5.2-0.2-10.4-0.3-15.7-0.4
	c-1.9,0-3.9-0.1-5.8-0.1c-3.3-0.1,0,0,0,0s3.6-14.4,5-21.7c1.1-5.5,2-10.9,2.9-16.4c0.5-3.7,1-7.4,1.5-11.1c0.4-3.9,0.8-7.8,1-11.7
	c0.3-4.2,0.4-8.3,0.5-12.5c0.1-5.6-0.1-11.1-0.5-16.7c-0.3-3.7-0.6-7.3-1.1-11c-0.6-5-1.5-9.9-2.7-14.8c-1-3.9-2-7.8-3.5-11.6
	c-0.1,0-0.2,0-0.2,0c-0.1,0-0.2,0-0.2,0c-0.2,0.1-0.5,0.2-0.7,0.3c-6.3,2.7-12.3,6-18.1,9.7c-0.3,0.2-0.7,0.4-0.8,0.8
	c1.4,8.8,2,17.6,2.1,26.5c0.1,12.7-0.8,25.3-2.6,37.9c-1.3,9.5-3.1,18.9-5.2,28.2c-1.8,8.1-3.9,16.1-6.3,24.1
	c-5.7,0.1-11.4,0.2-17.1,0.4c-7.6,0.3-15.2,0.6-22.7,1.1c-6.7,0.4-13.4,0.9-20.1,1.4c-8.7,0.8-17.3,1.6-26,2.7
	c-2.1,4.3-4.1,8.6-6,13c-2.9,6.5-5.6,13.1-8.2,19.7c0.1,0,0.2,0,0.3,0c10.1-1.4,20.2-2.6,30.3-3.6c2.9-0.3,5.8-0.6,8.7-0.9
	c7.2-0.6,14.4-1,21.6-1.5c9.4-0.6,18.8-1,28.2-1.3c0.1,0,0.2,0,0.3,0c8-0.2,16-0.3,24-0.3c2,0,4,0,6,0c4.6,0,9.1,0.1,13.7,0.1
	c5.2,0.1,10.4,0.3,15.5,0.5c0,0,0.1,0,0.1,0c5,0.2,9.9,0.4,14.9,0.6c3.8,0.2,7.6,0.5,11.4,0.7c0.8,0.1,1.6,0.1,2.4,0.2
	c5.7,0.4,11.4,0.8,17.1,1.3c1.4,0.1,2.8,0.3,4.2,0.4c7.6,0.7,15.1,1.5,22.6,2.5c3.4,0.4,6.7,0.9,10.1,1.3c7.1,1,14.2,2.2,21.2,3.4
	c6.8,1.2,13.6,2.5,20.3,4.1c5.9,1.3,11.8,2.8,17.6,4.4c7.7,2.1,15.2,4.5,22.6,7.3c6.4,2.4,12.6,5.2,18.7,8.5
	c4.1,2.3,8.1,4.8,11.7,7.9c3.2,2.8,6.1,5.9,8,9.9c0.8,1.6,1.1,3.2,1.6,4.9c0-3.2,0-6.5,0.1-9.7c0-4.8,0-9.7,0-14.5
	C500,277.6,500,275.8,499.9,274L499.9,274z"/>
<path class="st4" d="M309.1,43.4c-1.2-0.4-2.4-0.6-3.5-1.2c0-0.2,0-0.3,0-0.5c1.4,0.4,2.7,1,3.9,1.8
	C309.4,43.6,309.3,43.5,309.1,43.4L309.1,43.4z"/>
<path class="st4" d="M305.1,42c0,0,0.1,0,0.1,0.1c0,0,0,0,0,0c-0.1,0.1-0.2,0-0.3-0.1C304.9,42,305,42,305.1,42z"/>
<path class="st4" d="M164.5,129.9c0,0,0,0.1-0.1,0.2c0,0,0,0,0,0c0,0-0.1,0-0.1,0c0,0,0,0,0,0v0C164.3,130.1,164.4,130,164.5,129.9
	C164.5,130,164.5,129.9,164.5,129.9L164.5,129.9z"/>
<path class="st4" d="M170.8,122c0,0-0.1,0.1-0.2,0.1c-0.1,0-0.2,0.1-0.3,0.1c0-0.1,0-0.1,0-0.2c0,0,0-0.1,0-0.1
	c0-0.1,0.1-0.2,0.1-0.2c0-0.1,0.1-0.1,0.2-0.2c0.1,0,0.2-0.1,0.2-0.1c0,0.1,0,0.2,0,0.3C170.9,121.8,170.8,121.9,170.8,122
	C170.8,122,170.8,122,170.8,122L170.8,122z"/>
<path class="st9" d="M173.1,118.8C173.1,118.8,173.1,118.8,173.1,118.8C173.1,118.8,173.1,118.8,173.1,118.8c-0.1,0-0.1,0-0.2,0
	c0.1-0.1,0.2-0.2,0.2-0.3c0,0,0,0,0,0.1C173.2,118.7,173.2,118.7,173.1,118.8L173.1,118.8z"/>
<path class="st9" d="M174.4,117c0-0.1,0.1-0.1,0.1-0.2c0,0,0.1,0,0.1,0c0,0,0,0.1,0,0.1c0,0,0,0.1,0,0.1c0,0,0,0,0,0
	C174.4,117,174.4,117,174.4,117C174.4,117,174.4,117,174.4,117L174.4,117z"/>
<path class="st10" d="M281.7,31.3c0.3-0.1,0.5,0,0.6,0.2C282,31.6,281.8,31.7,281.7,31.3L281.7,31.3z"/>
<path class="st3" d="M281.6,31.3L281.6,31.3L281.6,31.3L281.6,31.3z"/>
<path class="st4" d="M210,78.9c0.1-0.1,0.2-0.2,0.3-0.2c0,0,0,0,0,0.1c0,0.1,0,0.1-0.1,0.1h0C210.2,78.9,210.1,78.9,210,78.9z"/>
<path class="st4" d="M211.8,77.1c0.1,0,0.2-0.1,0.3-0.1c0,0.1,0,0.2-0.1,0.2c-0.1,0.1-0.3,0-0.4,0C211.7,77.2,211.7,77.2,211.8,77.1
	z"/>
<path class="st4" d="M212.9,76.4c0,0,0,0.1-0.1,0.2c0,0,0,0,0,0c0,0-0.1,0-0.1,0C212.8,76.5,212.9,76.4,212.9,76.4
	C212.9,76.3,212.9,76.4,212.9,76.4L212.9,76.4z"/>
<path class="st4" d="M227.9,64.5C227.9,64.5,227.9,64.5,227.9,64.5c-0.1,0.1-0.2,0.2-0.2,0.2c0.1-0.1,0.2-0.2,0.3-0.3
	C227.9,64.4,227.9,64.5,227.9,64.5L227.9,64.5z"/>
<path class="st4" d="M227.6,64.7C227.6,64.7,227.6,64.7,227.6,64.7c0,0.1,0,0.2-0.1,0.2c0,0-0.1,0-0.1,0c0,0,0,0-0.1,0
	C227.5,64.7,227.6,64.7,227.6,64.7L227.6,64.7z"/>
<path class="st0" d="M305.6,41.7c-7.5-3.3-14.9-6.6-22.4-10c-0.3-0.1-0.6,0-0.9-0.2c-0.3,0.1-0.5,0.1-0.6-0.2
	c-0.3,0.1-0.6,0-0.9-0.1c-6.5-2-13.2-2.6-20.1-2.2c-9,0.5-17.7,2.7-26.1,5.9c-2.6,1-5.2,2.1-7.8,3.3c-0.6,0.3-1.3,0.6-1.9,0.9
	c-0.7,0.4-1.5,0.7-2.2,1.1c-1,0.5-1.9,1-2.9,1.5c-5.1,2.8-10,5.9-14.8,9.2c-1,0.7-2,1.4-3,2.1l-0.6,0.4c-2.4,1.7-4.7,3.5-6.9,5.3
	c-5.7,4.5-11.1,9.3-16.4,14.4c-14.6,14-27.7,29.4-39.6,45.8c-0.3,0.4-0.6,0.9-0.9,1.3c0,0,0,0.1-0.1,0.1c0,0-0.1,0-0.1,0.1
	c-1.1,1.5-2.1,3-3.2,4.6c-1.8,2.5-3.5,5.1-5.3,7.7c-1.6,2.4-3.2,4.9-4.8,7.4c-1.3,2-2.5,3.9-3.7,5.9c-1.1,1.8-2.2,3.6-3.2,5.3
	c-1.5,2.5-3,5.1-4.5,7.6c-0.7,1.3-1.5,2.6-2.2,3.9c-0.1,0.2-0.2,0.3-0.3,0.4c0,0.2-0.1,0.3-0.1,0.4c-0.1,0.1-0.1,0.2-0.2,0.3
	c-0.7,1.2-1.3,2.4-2,3.7c-2.5,4.6-5,9.2-7.3,13.9c-1,2-2,3.9-2.9,5.9c-5.2,10.7-10.1,21.6-14.5,32.6c-2.4,5.8-4.6,11.7-6.8,17.7
	c-1.1,3.1-2.3,6.3-3.3,9.5c-2,5.9-3.8,11.8-5.6,17.7c-0.7,2.4-1.4,4.9-2.1,7.3c0,0.1,0,0.1,0,0.2c-1.1,3.8-2.1,7.7-3,11.6
	c-0.9,3.5-1.7,7-2.5,10.5c-0.7,3-1.3,6-1.9,9c-0.1,0.7-0.3,1.4-0.4,2.1c-0.1,0.3-0.1,0.6-0.2,0.9c0,0.1,0,0.2-0.1,0.3
	c-0.1,0.6-0.2,1.1-0.3,1.7c-0.9,4.7-1.6,9.4-2.3,14.2c-0.6,4.6-1.2,9.1-1.7,13.7c-0.1,1-0.2,2.1-0.3,3.1c0,0.1,0,0.2,0,0.2
	c-0.1,0.8-0.1,1.3-0.2,1.9c-0.2,2.6-0.4,5.1-0.5,7.7c-0.2,2.6-0.3,5.1-0.3,7.7c0,0.3,0,0.7,0,1c-0.2,4.9-0.2,9.9,0,14.8
	c0.2,4.7,0.4,9.3,0.8,13.9c0.4,4.6,1,9.2,1.8,13.8c0.4,2.3,0.8,4.5,1.3,6.7c1.6,7.5,3.8,14.8,6.7,21.9c0.2,0.5,0.4,1,0.6,1.5
	c0.2,0.5,0.4,1,0.6,1.5c0.5,1.1,1.1,2.3,1.6,3.4c0.9,1.9,1.9,3.7,3,5.5c2.9,4.9,6.3,9.4,10.4,13.6c1.1,1.1,2.2,2.1,3.3,3.1
	c2.1,1.9,4.4,3.6,6.8,5.1c0.5,0.3,1,0.5,1.3,0.9c0,0.1,0.1,0.1,0.1,0.2c0.2,0,0.4,0,0.5,0.2c0.9,0.2,1.7,0.9,2.6,1.2
	c4.6,2,9.2,4.1,13.8,6.1c2.6,1.2,5.2,2.3,7.9,3.4l0.3-0.3c-0.8-0.5-1.7-1-2.5-1.6c-0.9-0.6-1.7-1.2-2.5-1.8
	c-6.8-5.3-12.2-12-16.6-19.5c-2.7-4.6-4.9-9.4-6.7-14.3c0-0.1-0.1-0.2-0.1-0.3c-2.5-6.7-4.3-13.5-5.7-20.5
	c-0.7-3.7-1.3-7.5-1.8-11.3c0-0.3-0.1-0.5-0.1-0.8c-0.2-1.9-0.5-3.7-0.6-5.6c-0.3-2.8-0.5-5.5-0.6-8.3c0-0.7-0.1-1.4-0.1-2
	c0-0.2,0-0.3,0-0.5c-0.1-3.8-0.3-7.6-0.3-11.4c0-0.2,0-0.4,0-0.6c0-0.7,0-1.4,0-2c0.1-3,0.2-6,0.3-8.9c0.1-1.5,0.1-3,0.2-4.5
	c0.1-1.5,0.2-3,0.3-4.5c0.4-5.2,0.9-10.4,1.6-15.6c0.2-1.9,0.5-3.8,0.7-5.7c0.3-2.1,0.6-4.2,0.9-6.3c0.3-1.6,0.5-3.3,0.8-4.9
	c0.3-1.9,0.7-3.7,1-5.6c0.4-2.4,0.9-4.7,1.4-7.1c0.6-2.7,1.1-5.4,1.7-8c0.5-2.4,1.1-4.7,1.7-7.1c0.6-2.6,1.3-5.2,2-7.8
	c0.2-0.6,0.3-1.2,0.5-1.8c0.2-0.6,0.4-1.2,0.5-1.8c0.3-1.3,0.6-2.5,1-3.8c0.1-0.1,0.3-0.3,0.3-0.4c0.4-3,1.4-5.8,2.4-8.6
	c0.4-1.3,0.8-2.5,1.2-3.8c0.5-1.8,1.1-3.5,1.6-5.3c0.5-1.5,0.9-2.9,1.4-4.3c0.2-0.6,0.4-1.1,0.6-1.7c0.3-0.7,0.5-1.5,0.8-2.2
	c1.1-3,2.1-6.1,3.2-9.1c0.5-1.2,0.9-2.5,1.4-3.7c1.6-4.2,3.3-8.5,5-12.7c0.5-1.2,1-2.4,1.5-3.6c0.4-1,0.8-1.9,1.2-2.8
	c1-2.2,1.9-4.5,2.9-6.7c0.8-1.8,1.6-3.5,2.4-5.2c0.6-1.3,1.2-2.7,1.8-4c1.7-3.6,3.4-7.1,5.1-10.6c0.3-0.6,0.7-1.2,1-1.8
	c0.3-0.6,0.7-1.2,1-1.8c5.1-10.9,11.2-21.3,17.4-31.6c0.6-0.9,1.1-1.8,1.7-2.8c1.3-2.1,2.5-4.3,4-6.3c0.9-1.3,1.8-2.5,2.6-3.8
	c0.8-1.3,1.7-2.6,2.5-3.9c1.8-2.5,3.4-5.2,5.1-7.7c0.2-0.3,0.5-0.7,0.7-1c1.2-1.7,2.4-3.3,3.6-5c0,0,0,0,0,0v0c0,0,0.1-0.1,0.1-0.1
	c0,0,0.1,0,0.1,0c1.7-2.3,3.4-4.6,5.1-6.9c0.1-0.1,0.2-0.2,0.2-0.3c0,0,0.1-0.1,0.1-0.1c0.1-0.1,0.2-0.2,0.3-0.3c0-0.1,0-0.1,0-0.2
	c0,0,0-0.1,0-0.1c0-0.1,0.1-0.2,0.1-0.2c0-0.1,0.1-0.1,0.2-0.2c0.1,0,0.2-0.1,0.2-0.1c0,0,0.1-0.1,0.1-0.1c0.7-0.8,1.3-1.7,2-2.5
	c0.1-0.1,0.2-0.2,0.2-0.3c0-0.1,0-0.1,0.1-0.2c0,0,0-0.1,0.1-0.2c0.1-0.1,0.1-0.2,0.2-0.3c0,0,0,0,0,0c0.3-0.3,0.6-0.5,0.7-0.9
	c0,0,0,0,0-0.1c0-0.1,0.1-0.1,0.1-0.2c0,0,0.1,0,0.1,0c0.2-0.2,0.4-0.3,0.5-0.5c0,0,0.1-0.1,0.1-0.1c0.1-0.1,0.2-0.3,0.3-0.4
	c0.1-0.2,0.3-0.4,0.4-0.6c0.1-0.2,0.2-0.3,0.3-0.5c0.1-0.1,0.2-0.2,0.2-0.3c0.5-0.6,1-1.3,1.6-1.9c3.6-4.4,7.4-8.8,11.2-13
	c3-3.3,6.1-6.5,9.3-9.7c0.5-0.6,1.1-1.1,1.6-1.7c1-1,2.1-2,3.2-3c0.4-0.4,0.8-0.8,1.3-1.2c0.1-0.1,0.2-0.2,0.3-0.2
	c1.3-1.3,2.7-2.5,4-3.8c0,0,0.1,0,0.1-0.1c0.3-0.3,0.7-0.6,1.1-0.9c0.1-0.1,0.2-0.2,0.3-0.2c0,0,0,0,0.1-0.1
	c0.4-0.4,0.8-0.8,1.2-1.3c0.1-0.1,0.1-0.2,0.2-0.2c0.1,0,0.2-0.1,0.3-0.1c0.1,0,0.2-0.1,0.3-0.1c0.1,0,0.1-0.1,0.2-0.2
	c0,0,0.1-0.1,0.1-0.2c0.1-0.1,0.2-0.2,0.2-0.3c1.1-1,2.1-1.9,3.2-2.8c0.2-0.1,0.3-0.3,0.5-0.4c1.1-0.9,2.1-1.8,3.2-2.6
	c2.4-1.9,4.9-3.8,7.5-5.6c0.1,0,0.2-0.1,0.3-0.1h0c0.1-0.1,0.2-0.2,0.3-0.3c0.6-0.4,1.2-0.9,1.7-1.3c1.2-0.8,2.4-1.7,3.5-2.5
	c0.6-0.4,1.2-0.8,1.8-1.2c0.6-0.4,1.2-0.8,1.8-1.2c1.8-1.1,3.7-2.3,5.5-3.3c2-1.2,4.1-2.3,6.2-3.4c6.3-3.2,12.8-6,19.6-8
	c0.5-0.2,1-0.3,1.6-0.5c3.6-1,7.3-1.8,11-2.3c2.1-0.3,4.2-0.5,6.4-0.6c1.6-0.1,3.2-0.1,4.8,0c0.5,0,1.1,0,1.6,0.1
	c1.6,0.1,3.2,0.3,4.8,0.5c2.2,0.3,4.4,0.7,6.6,1.3c0.1,0,0.1,0,0.2,0c0.1,0,0.1,0,0.1,0.1c0,0,0.1,0,0.2,0c0.1,0,0.2,0.1,0.3,0.1
	c0-0.2,0-0.3,0-0.5C305.6,41.8,305.6,41.8,305.6,41.7L305.6,41.7z"/>
<path class="st3" d="M281.7,31.3c-0.1-0.5-0.6-0.5-0.9-0.7c-6.4-2.9-12.9-5.7-19.3-8.6c-1.7-0.8-3.4-1.6-5.2-2.2
	c-0.2,0.1-0.4,0.1-0.6,0c-4.4-1.5-9-2.2-13.6-2.5c-4.2-0.3-8.5,0-12.7,0.6c-3.5,0.5-6.9,1.2-10.3,2.1c-6.6,1.8-12.9,4.2-19,7.2
	c-2.3,1.2-4.6,2.5-6.9,3.7c-0.8,0.4-1.6,0.8-2.3,1.2c-6.6,3.9-13,8.2-19.1,12.9c-1.5,1.2-3.1,2.3-4.5,3.6c-0.9,0.8-1.8,1.7-2.8,2.4
	c-0.2,0.1-0.4,0.3-0.6,0.4c-0.2,0.2-0.3,0.3-0.5,0.4v0c-0.1,0.2-0.2,0.4-0.3,0.5c-0.1,0.1-0.2,0.1-0.2,0.1c0,0-0.1,0-0.2,0h0
	c0,0-0.1,0-0.2,0c0,0-0.1,0.1-0.1,0.1c-0.5,0.4-0.8,1-1.3,1.4c-0.1,0.1-0.2,0.1-0.2,0.2c-1.3,0.7-2,1.9-3.2,2.7
	c-1.1,0.8-2,1.8-3,2.8c-4.9,4.5-9.6,9.4-14.2,14.2c-1.4,1.5-2.7,3.1-4.1,4.7c-0.8,0.9-1.7,1.7-2.4,2.6c-2.1,2.4-4.1,4.9-6.2,7.3
	c-1.5,1.8-3,3.7-4.4,5.6c-1.1,1.5-2.4,2.9-3.6,4.4c-3.5,4.5-6.9,9.2-10.2,13.8c-3.3,4.6-6.3,9.3-9.4,14c-2.8,4.2-5.4,8.6-8.1,12.9
	c-1,1.6-1.9,3.3-2.9,4.9c-1.7,2.8-3.3,5.6-4.8,8.4c-0.9,1.1-1.5,2.5-2.2,3.7c-1.5,2.6-2.9,5.3-4.2,8c-0.4,0.9-1,1.6-1.4,2.5
	c-1.2,2.4-2.4,4.9-3.7,7.3c-3.1,6.1-5.9,12.3-8.7,18.5c-3.1,6.7-5.8,13.6-8.6,20.5c-1.8,4.7-3.7,9.3-5.2,14.1
	c-0.2,0.8-0.7,1.5-1,2.3c-1.4,4.1-2.8,8.3-4.2,12.4c-1.3,3.8-2.4,7.7-3.6,11.5c-1.1,3.7-2.1,7.4-3.1,11.2
	c-1.9,7.2-3.7,14.5-5.3,21.9c-0.4,1.9-0.8,3.9-1.2,5.8c-1.3,6.6-2.4,13.3-3.4,20c-0.9,6.4-1.6,12.8-2.2,19.2c0,0.6-0.1,1.2-0.1,1.8
	c0,0.5,0,1.1,0,1.6c0-0.5,0-1.1,0-1.6c-0.3,3.5-0.5,7-0.6,10.6c-0.2,4-0.2,8.1-0.2,12.1c0,1.9,0.2,3.9,0.2,5.8
	c0,2.9,0.2,5.9,0.4,8.8c0.1,1.1,0.1,2.2,0.2,3.2c0,0.2,0,0.4,0.1,0.6c0.3,2.8,0.6,5.7,1,8.5c0.4,2.7,0.8,5.5,1.3,8.2
	c0.7,3.8,1.4,7.6,2.6,11.2c0.4,1.1,0.6,2.4,0.9,3.5c0.7,2.6,1.5,5.1,2.4,7.6c1.3,3.6,2.8,7.1,4.5,10.5c2.5,5.3,5.7,10.2,9.3,14.8
	c3.5,4.3,7.5,8.2,12,11.4c0.2,0.1,0.4,0.3,0.6,0.4c0.3,0.2,0.7,0.4,1,0.6c0.2,0.1,0.4,0.2,0.6,0.4c0.6,0.4,1.3,0.8,1.9,1.2
	c0,0,0,0,0,0c0.2,0.1,0.4,0.3,0.5,0.4c0,0,0,0.1,0,0.1c0.1,0.2,0.3,0.2,0.5,0.2c7.9,3.5,15.7,7,23.6,10.4c0.3,0.1,0.6,0.3,1,0.3
	c0-0.1-0.1-0.1-0.1-0.2c-0.3-0.4-0.9-0.6-1.3-0.9c-2.4-1.5-4.7-3.2-6.8-5.1c-1.1-1-2.2-2-3.3-3.1c-4.1-4.1-7.5-8.7-10.4-13.6
	c-1.1-1.8-2.1-3.6-3-5.5c-0.6-1.1-1.1-2.3-1.6-3.4c-0.2-0.5-0.4-1-0.6-1.5c-0.2-0.5-0.4-1-0.6-1.5c-3-7.1-5.1-14.4-6.7-21.9
	c-0.5-2.2-0.9-4.5-1.3-6.7c-0.8-4.6-1.4-9.2-1.8-13.8c-0.4-4.6-0.7-9.3-0.8-13.9c-0.2-4.9-0.1-9.9,0-14.8c0-0.3,0-0.7,0-1
	c0.1-2.6,0.2-5.1,0.3-7.7c0.2-2.6,0.3-5.1,0.5-7.7c0-0.6,0.1-1.1,0.2-1.9c0-0.1,0-0.2,0-0.2c0.1-1,0.2-2.1,0.3-3.1
	c0.5-4.6,1.1-9.2,1.7-13.7c0.7-4.7,1.5-9.5,2.3-14.2c0.1-0.6,0.2-1.1,0.3-1.7c0-0.1,0-0.2,0.1-0.3c0.1-0.3,0.1-0.6,0.2-0.9
	c0.1-0.7,0.3-1.4,0.4-2.1c0.6-3,1.2-6,1.9-9c0.8-3.5,1.6-7,2.5-10.5c1-3.9,1.9-7.7,3-11.6c0-0.1,0-0.1,0-0.2
	c0.7-2.4,1.4-4.9,2.1-7.3c1.8-5.9,3.6-11.8,5.6-17.7c1.1-3.2,2.2-6.3,3.3-9.5c2.1-5.9,4.4-11.8,6.8-17.7c4.5-11,9.3-21.9,14.5-32.6
	c1-2,1.9-4,2.9-5.9c2.4-4.7,4.8-9.3,7.3-13.9c0.7-1.2,1.3-2.4,2-3.7c0.1-0.1,0.1-0.2,0.2-0.3c0.1-0.1,0.1-0.3,0.1-0.4
	c0.1-0.2,0.2-0.3,0.3-0.4c0.7-1.3,1.5-2.6,2.2-3.9c1.5-2.6,3-5.1,4.5-7.6c1.1-1.8,2.2-3.6,3.2-5.3c1.2-2,2.5-4,3.7-5.9
	c1.6-2.5,3.2-5,4.8-7.4c1.7-2.6,3.5-5.1,5.3-7.7c1.1-1.5,2.1-3,3.2-4.6c0,0,0-0.1,0-0.1c0,0,0,0,0-0.1c0,0,0.1-0.1,0.2-0.1
	c0.3-0.4,0.6-0.9,0.9-1.3c11.9-16.4,24.9-31.8,39.6-45.8c5.3-5,10.7-9.8,16.4-14.4c2.3-1.8,4.6-3.6,6.9-5.3l0.6-0.4
	c1-0.7,2-1.4,3-2.1c4.8-3.3,9.7-6.4,14.8-9.2c1-0.5,1.9-1,2.9-1.5c0.7-0.4,1.5-0.8,2.2-1.1c0.6-0.3,1.3-0.6,1.9-0.9
	c2.6-1.2,5.1-2.3,7.8-3.3c8.4-3.2,17-5.4,26.1-5.9c6.8-0.4,13.5,0.2,20.1,2.2C281.1,31.3,281.3,31.5,281.7,31.3
	C281.6,31.4,281.6,31.3,281.7,31.3L281.7,31.3z M26.3,365.4c0,0.1,0,0.3,0,0.4C26.3,365.6,26.3,365.5,26.3,365.4z"/>
<path class="st5" d="M137.4,120.3c0,0,0.1-0.1,0.2-0.1C137.6,120.3,137.6,120.4,137.4,120.3c0.1,0.1,0,0.1,0,0.1
	C137.4,120.4,137.4,120.4,137.4,120.3C137.4,120.4,137.4,120.3,137.4,120.3L137.4,120.3z"/>
<path class="st5" d="M162.5,52.1c0.1-0.1,0.2-0.2,0.3-0.2c0.1,0,0.2,0,0.3,0v0c-0.1,0.2-0.2,0.4-0.3,0.5c-0.1,0.1-0.2,0.1-0.2,0.1
	c0,0-0.1,0-0.2,0h0c0,0-0.1,0-0.2,0C162.4,52.4,162.4,52.2,162.5,52.1L162.5,52.1z"/>
<path class="st7" d="M254.8,19.3c-5.8-2.6-11.7-5.2-17.5-7.8c-6.7-3-13.6-4.9-20.9-5.3c-1.8,0-3.7,0-5.5,0c-0.7,0-1.5,0-2.2,0
	c-3.7,0.2-7.3,0.7-10.9,1.5c-10.7,2.3-20.6,6.4-30.1,11.7c-9.6,5.3-18.5,11.5-26.9,18.4c-1.1,0.9-2.2,1.7-3.2,2.7
	c-0.1,0-0.2,0.1-0.2,0.2v0.1c0,0,0,0,0,0c0,0,0,0,0,0c-0.2,0.2-0.5,0.4-0.7,0.6c-9.4,8-18,16.7-26.3,25.9
	c-9.8,10.9-18.8,22.4-27.2,34.4c-12.5,17.8-23.7,36.5-33.6,56c-6.7,13.1-12.8,26.5-18.2,40.1c-5.7,14.2-10.9,28.7-15.1,43.4
	c-0.5,1.6-1,3.2-1.5,4.9c-3.4,12.2-6.4,24.4-8.8,36.9c-2,10.5-3.6,21.1-4.6,31.8C0.5,322.5,0,330.2,0,338c0,3.5,0,7.1,0,10.6
	c0,0.5,0.1,1,0.1,1.5c0,0.8,0,1.5,0,2.3c0,4.3,0.4,8.6,0.8,12.9c0.7,7,1.7,13.9,3.3,20.8c1.9,8.6,4.6,16.9,8.3,24.9
	c4,8.5,9.2,16.3,16.1,22.8c4,3.8,8.5,7,13.5,9.3c4.4,2.1,8.9,4,13.5,6c3.1,1.4,6.1,2.8,9.3,4c-0.2-0.1-0.4-0.3-0.5-0.4c0,0,0,0,0,0
	c-0.6-0.4-1.2-0.8-1.9-1.2c-0.2-0.1-0.4-0.2-0.6-0.4c-0.3-0.2-0.7-0.4-1-0.6c-0.2-0.1-0.4-0.3-0.6-0.4c-4.5-3.2-8.5-7-12-11.4
	c-3.7-4.6-6.8-9.5-9.3-14.8c-1.6-3.4-3.2-7-4.5-10.5c-0.3-0.3-0.7-0.6-1-1c0.3,0.3,0.7,0.7,1,1c-0.9-2.5-1.7-5-2.4-7.6
	c-0.3-1.2-0.5-2.4-0.9-3.5c-1.2-3.7-1.9-7.5-2.6-11.2c-0.5-2.7-0.9-5.4-1.3-8.2c-0.4-2.8-0.6-5.7-1-8.5c0-0.2,0-0.4-0.1-0.6
	c0,3.6,0,7.2,0,10.8c0-3.6,0-7.2,0-10.8c-0.1-1.1-0.2-2.2-0.2-3.2c-0.2-2.9-0.4-5.9-0.4-8.8c0-1.9-0.2-3.9-0.2-5.8
	c0-4,0.1-8.1,0.2-12.1c0.1-3.5,0.3-7,0.6-10.6c0-0.6,0.1-1.2,0.1-1.8c0.6-6.4,1.3-12.8,2.2-19.2c0.9-6.7,2.1-13.4,3.4-20
	c0.4-1.9,0.8-3.9,1.2-5.8c1.5-7.3,3.3-14.6,5.3-21.9c1-3.7,2-7.5,3.1-11.2c1.1-3.9,2.3-7.7,3.6-11.5c1.4-4.2,2.8-8.3,4.2-12.4
	c0.3-0.8,0.7-1.5,1-2.3c1.5-4.8,3.3-9.5,5.2-14.1c2.7-6.9,5.5-13.7,8.6-20.5c2.9-6.2,5.6-12.5,8.7-18.5c1.2-2.4,2.5-4.9,3.7-7.3
	c0.4-0.9,1-1.6,1.4-2.5c1.3-2.7,2.7-5.4,4.2-8c0.7-1.3,1.3-2.6,2.2-3.7c1.5-2.9,3.1-5.7,4.8-8.4c1-1.6,1.9-3.3,2.9-4.9
	c2.7-4.3,5.2-8.7,8.1-12.9c3.1-4.7,6.2-9.5,9.4-14c3.3-4.6,6.7-9.3,10.2-13.8c1.1-1.5,2.4-2.8,3.6-4.4c1.4-1.9,2.8-3.8,4.4-5.6
	c2.1-2.4,4.1-4.9,6.2-7.3c0.8-0.9,1.6-1.7,2.4-2.6c1.4-1.5,2.6-3.2,4.1-4.7c4.6-4.9,9.3-9.7,14.2-14.2c1-0.9,1.9-2,3-2.8
	c1.1-0.8,1.9-2,3.2-2.7c0.1,0,0.2-0.1,0.2-0.2c0.5-0.4,0.8-1,1.3-1.4c0,0,0.1-0.1,0.1-0.1c0-0.2,0.1-0.3,0.2-0.4
	c0.1-0.1,0.2-0.2,0.3-0.2c0.1,0,0.2,0,0.3,0c0.2-0.1,0.3-0.3,0.5-0.4c0.2-0.2,0.4-0.3,0.6-0.4c1-0.7,1.9-1.6,2.8-2.4
	c1.4-1.3,3-2.4,4.5-3.6c6.1-4.7,12.5-9,19.1-12.9c0.8-0.4,1.5-0.8,2.3-1.2c2.3-1.2,4.6-2.6,6.9-3.7c6.1-3,12.4-5.4,19-7.2
	c3.4-0.9,6.8-1.6,10.3-2.1c4.2-0.6,8.5-0.8,12.7-0.6c4.6,0.3,9.2,1,13.6,2.5c0.2,0.1,0.4,0.1,0.6,0
	C255.8,19.5,255.3,19.5,254.8,19.3L254.8,19.3z"/>
<path class="st7" d="M162.7,50.4c0,0-0.1-0.1-0.1-0.1C162.6,50.4,162.6,50.4,162.7,50.4z"/>
<path class="st7" d="M161.9,49.9c0.2,0.1,0.3,0.2,0.5,0.3C162.2,50.1,162,50,161.9,49.9z"/>
<path class="st10" d="M216.4,6.2h-5.5c-0.7,0-1.5,0-2.2,0c0-0.1-0.1-0.2-0.1-0.3c2.6,0,5.3,0,7.9,0C216.4,6,216.4,6.1,216.4,6.2z"/>
<path class="st5" d="M137.3,40.8L137.3,40.8L137.3,40.8L137.3,40.8L137.3,40.8C137.4,40.9,137.4,40.9,137.3,40.8L137.3,40.8z"/>
<linearGradient id="SVGID_1_" gradientUnits="userSpaceOnUse" x1="290.9089" y1="145.5233" x2="288.8095" y2="91.3048" gradientTransform="matrix(1 0 0 -1 0 499.8898)">
	<stop  offset="0.16" style="stop-color:#191919"/>
	<stop  offset="0.97" style="stop-color:#191919;stop-opacity:0"/>
</linearGradient>
<path class="st11" d="M458,383.2c0.8-0.6,0.8-0.6,0-1.2c-1.8-1.4-3.6-2.6-5.5-3.8c-6.4-3.9-13.3-6.8-20.3-9.4
	c-1.6-0.6-3.2-1.3-4.9-1.6c-0.5-0.5-1.2-0.6-1.8-0.8c-6.5-2.2-13.2-4-19.9-5.7c-0.6,0-1.1-0.2-1.6-0.4c-3.1-0.7-6.3-1.4-9.4-2.1
	c-5.8-1.3-11.6-2.3-17.4-3.3c-4.3-0.7-8.7-1.4-13-2.1c-3.4-0.5-6.8-1-10.2-1.3c-0.6-0.1-1.1-0.2-1.7-0.3c-12-1.5-23.9-2.6-35.9-3.4
	c-7.8-0.5-15.7-1-23.5-1.3c-10.3-0.4-20.5-0.6-30.8-0.6c-12.7,0-25.5,0.3-38.2,0.9c-14.7,0.7-29.4,1.8-44,3.5
	c-2.4,0.3-4.8,0.4-7.2,0.9c-0.5-0.1-1,0-1.4,0c-10.4,1.3-20.8,2.9-31.1,4.8c-6.1,1.1-12.2,2.4-18.2,3.9l-0.1,0.2
	c0,0-1.6,22.4,1.9,44.3c5.9,1.4,11.9,2.7,17.9,3.8c5.4,1,10.7,1.9,16.1,2.7c7.6,1.1,15.1,2.2,22.7,3c7.4,0.8,14.8,1.6,22.2,2.1
	c4.4,0.3,8.8,0.7,13.1,1c6.5,0.4,13,0.7,19.5,0.9c5.9,0.2,11.8,0.4,17.8,0.5c9.5,0.1,19,0.1,28.4-0.1c9.1-0.2,18.3-0.5,27.4-1.1
	c10.9-0.6,21.7-1.5,32.6-2.6c16.5-1.7,32.9-4,49.2-7.3c14.2-2.8,28.3-6.3,41.9-11.3c5.9-2.2,11.8-4.7,17.3-7.8
	C452.8,386.8,455.5,385.1,458,383.2L458,383.2z"/>
</svg>
