<?xml version="1.0" encoding="utf-8"?>
<!-- Generator: Adobe Illustrator 27.0.1, SVG Export Plug-In . SVG Version: 6.00 Build 0)  -->
<svg version="1.1" id="vina" xmlns="http://www.w3.org/2000/svg" xmlns:xlink="http://www.w3.org/1999/xlink" x="0px" y="0px"
	 viewBox="0 0 500 500" style="enable-background:new 0 0 500 500;" xml:space="preserve">
<style type="text/css">
	.st0{fill:#DB1472;}
	.st1{fill:#FFFFFF;}
</style>
<path class="st0" d="M497.1,250c0,136.5-110.6,247.1-247.1,247.1c-1.5,0-3.1,0-4.6-0.1c-59.3-1.1-113.5-23-155.6-58.8
	c-53.2-45.3-87-112.8-87-188.2C2.9,113.6,113.5,3,250,3C386.5,3,497.1,113.6,497.1,250z"/>
<path class="st1" d="M387.5,317.3c0.6,2.4,14.9,43.5-39.7,51c-42.1,5.8-60.2-20.7-60.2-20.7s-11.4,14.3-41.3,14.3
	c-29.4,0-51.4-24.6-52.2-25.6c0.6,1.1,19.5,37.6,49.4,39.7c18.7,1.3,25.4-3.6,25.8-3.8c-0.4,0.8-12.2,26.5-16.6,51.6
	c-4.4,25.5-6.2,48.3-6.8,62.5c-0.2,5.4-0.4,8.7-0.4,10.8c-59.3-1.1-113.5-23-155.6-58.8c3.5-12.2,8.9-32,14.2-54
	c8.9-37.2,17.3-86.9,34.2-127.8c15-36.4,25.9-50,25.9-50s-6.6-27.6-0.4-58.4c6.2-30.8,23.7-58,44.4-58c20.7,0,20.2,18,18.5,34.7
	c-1.8,16.7-7.9,36.5-11,46.2c-3.1,9.7-4.8,12.8-4.8,12.8s29.5,0.9,33.6-1.8c4.2-2.7,10.4-9.2,15.4-18.1c5-8.9,16.9-30.2,25.5-41.2
	c8.6-11,18.4-18.4,25.5-21c7.1-2.7,8.6-1.2,9.8,1.8c1.2,3,7.1,14.8,3.6,28.2c-3.6,13.3-10.7,26.1-23.7,43.3
	c-13,17.2-17.5,24-17.5,24s9.5,4.1,24.3,13.6c14.8,9.5,19.9,13.6,20.2,18.7c0.3,5,0,10.1,2.1,11.3c2.1,1.2,18.1,11,36.8,28.4
	c18.7,17.5,24.9,26.7,25.2,29.1c0.3,2.4-0.6,6.8-2.1,10.4C387.8,313.8,386.9,315,387.5,317.3z"/>
<path class="st0" d="M192,214.3c0,0-7.1-0.6-12.2-14.4c-5.1-13.8-4.7-35.8,0.3-50.4c5-14.6,12-24.9,18.8-24.4
	c5.9,0.5,10.8,5.1,9.6,15.2s-5.1,17.5-11.6,34.6s-6.9,21.7-6.8,28.1C190.3,209.4,192,214.3,192,214.3z"/>
<path class="st0" d="M211.6,261.1c0,0,2.3,1.8,7.4,1.8c5.1,0,18.7-10.7,32.1-10.7c13.3,0,27.5,21.8,27.5,21.8s-6-6.6-16.9-6.6
	c-10.9,0-12.7,6.7-27.9,6.7C218.5,274.1,211.6,261.1,211.6,261.1z"/>
<path class="st0" d="M376.5,310.8c0,0-6.9-12.4-18.1-12.4c-11.2,0-10.7,5.5-10.7,6.9s1.1,4.4,6.9,4.4S372.4,308.8,376.5,310.8z"/>
</svg>
