<?xml version="1.0" encoding="utf-8"?>
<!-- Generator: Adobe Illustrator 27.7.0, SVG Export Plug-In . SVG Version: 6.00 Build 0)  -->
<svg version="1.1" id="Layer_1" xmlns="http://www.w3.org/2000/svg" xmlns:xlink="http://www.w3.org/1999/xlink" x="0px" y="0px"
	 viewBox="0 0 500 500" style="enable-background:new 0 0 500 500;" xml:space="preserve">
<style type="text/css">
	.st0{fill:#4E529A;}
	.st1{fill:#8C8DFC;}
	.st2{fill:#6E5795;}
	.st3{fill:#CC99FF;}
</style>
<g>
	<path class="st0" d="M44.5,197.2L0,166.6h133.5l75.1,122.1L153,258.2l-36.2,58.3h119.6v119.3H127.3c-16.7,0-31.9-9.3-39.6-24
		L19.6,280c-7-13.6-6.6-29.8,1.2-42.9L44.5,197.2z"/>
	<path class="st1" d="M44.5,197.2L0,166.6h133.5l75.1,122.1L153,258.2l-36.2,58.3c-17.1,29.4-35.9,64.8-29.1,95.3L19.6,280
		c-7-13.6-6.6-29.8,1.2-42.9L44.5,197.2z"/>
	<path class="st0" d="M395.1,65.7l47.6-25.5l-61.1,118.4l-143.2,10.7l52.7-35.4l-35.4-58.7l-54.8,106.1L94.6,126.6l50-96.8
		c7.6-14.8,22.9-24.1,39.5-24.1l148.6-0.1c15.3,0,29.5,7.8,37.7,20.8L395.1,65.7z"/>
	<path class="st1" d="M395.1,65.7l47.6-25.5l-61.1,118.4l-143.2,10.7l52.7-35.4l-35.4-58.7c-18.3-28.7-41.3-61.6-71.6-69.4
		l148.6-0.1c15.3,0,29.5,7.8,37.7,20.8L395.1,65.7z"/>
	<path class="st2" d="M328.3,440.6l-4.2,53.7L257.3,379l68.4-125.9l1.3,63.3l68.7,2.1l-59.8-103.3l103.6-59.7l54.6,94.3
		c8.3,14.4,7.9,32.2-1.1,46.2l-80.3,124.7c-8.3,12.8-22.6,20.5-37.9,20.4L328.3,440.6z"/>
	<path class="st3" d="M328.3,440.6l-4.2,53.7L257.3,379l68.4-125.9l1.3,63.3l68.7,2.1c34.1,0.1,74.3-1.4,97.3-22.5l-80.3,124.7
		c-8.3,12.8-22.6,20.5-37.9,20.4L328.3,440.6z"/>
</g>
</svg>
