<svg xmlns="http://www.w3.org/2000/svg" viewBox="0 0 1692.83 1709.39"><defs><style>.cls-1{fill:#048657;}.cls-1,.cls-2{fill-rule:evenodd;}.cls-2{fill:#fff;}</style></defs><title>v</title><g id="Layer_2" data-name="Layer 2"><g id="Layer_1-2" data-name="Layer 1"><g id="Page-1"><g id="Group-Copy-4"><path id="Combined-Shape" class="cls-1" d="M1440.08,245.48q-7.38-7.08-14.89-13.89L835,1057.36,609.49,766.77H242.41L139.25,885.43H331.18l458.24,598.14q22.94,21.79,45.58,21.79t43.19-21.79L1602.73,471.33q-6.29-13-13-25.75c65.72,121.51,103.08,260.91,103.08,409.11,0,472-378.95,854.7-846.41,854.7S0,1326.73,0,854.69,379,0,846.42,0c231.27,0,440.89,93.67,593.66,245.48Z"/><path id="Path-2-Copy-6" class="cls-2" d="M139.25,885.43,242.41,766.77H609.49L835,1057.36l590.19-825.77q52.72,47.76,98.37,109a797.7,797.7,0,0,1,79.17,130.76L878.19,1483.57q-20.54,21.79-43.19,21.79t-45.58-21.79L331.18,885.43Z"/></g></g></g></g></svg>