<?xml version="1.0" encoding="utf-8"?>
<!-- Generator: Adobe Illustrator 27.7.0, SVG Export Plug-In . SVG Version: 6.00 Build 0)  -->
<svg version="1.1" id="Layer_1" xmlns="http://www.w3.org/2000/svg" xmlns:xlink="http://www.w3.org/1999/xlink" x="0px" y="0px"
	 viewBox="0 0 500 500" style="enable-background:new 0 0 500 500;" xml:space="preserve">
<style type="text/css">
	.st0{fill-rule:evenodd;clip-rule:evenodd;fill:#FCC8F0;}
	.st1{fill-rule:evenodd;clip-rule:evenodd;fill:#FFFFFF;filter:url(#Adobe_OpacityMaskFilter);}
	.st2{mask:url(#mask0_00000008150485656709359470000007328276443011764653_);}
	.st3{fill:#F3AE35;}
	.st4{fill-rule:evenodd;clip-rule:evenodd;fill:#FFFFFF;}
	.st5{fill:#FFE453;}
	.st6{fill:#F8A915;}
	.st7{fill-rule:evenodd;clip-rule:evenodd;fill:#301D37;}
	.st8{fill:#FFFFFF;}
	.st9{fill:#F1A922;}
	.st10{fill:#E99C0B;}
	.st11{fill:#D47B00;}
	.st12{fill:#DBD7DA;}
	.st13{fill:#D7D9D7;}
	.st14{fill:#FFEE8A;}
	.st15{fill:#F4C257;}
	.st16{fill:#301D37;}
</style>
<path class="st0" d="M249.3,500c138.1,0,250-111.9,250-250S387.3,0,249.3,0s-250,111.9-250,250S111.2,500,249.3,500z"/>
<defs>
	<filter id="Adobe_OpacityMaskFilter" filterUnits="userSpaceOnUse" x="-29.4" y="53.4" width="418.4" height="369">
		<feColorMatrix  type="matrix" values="1 0 0 0 0  0 1 0 0 0  0 0 1 0 0  0 0 0 1 0"/>
	</filter>
</defs>
<mask maskUnits="userSpaceOnUse" x="-29.4" y="53.4" width="418.4" height="369" id="mask0_00000008150485656709359470000007328276443011764653_">
	<path class="st1" d="M249.3,500c138.1,0,250-111.9,250-250S387.3,0,249.3,0s-250,111.9-250,250S111.2,500,249.3,500z"/>
</mask>
<g class="st2">
	<path class="st3" d="M182.2,135.9l-1-8l8.2-10.7l19.6-9.7l26.7-4.6l24.4,2.6l12,6.2l4.4,7.8l-1.5,9.2l-10-6.8l-13.2-2.4h-14.4
		l-18.2,2.4l-12.7,3.6l-10.2,5.2l-8.7,7.7h-3.5L182.2,135.9z"/>
	<path class="st4" d="M218,106c-1.1,2.6-2.9,8.7,0.6,14.6c0.2,0.4,0.4,0.8,0.4,1.3l0.3-0.1l18.2-2.4h14.4l13.2,2.4l10,6.8l1.5-9.2
		l-4.4-7.8l-12-6.2l-24.4-2.6L218,106z"/>
	<path class="st5" d="M234.4,166.2c26.5-3.7,46.5-17.3,44.6-30.2c-1.8-13-24.8-20.5-51.2-16.7c-26.5,3.7-46.5,17.3-44.6,30.2
		C185,162.4,207.9,169.9,234.4,166.2z"/>
	<path class="st6" d="M199.9,128.6c0,0-5.2,11.1-3.4,17.4c1.7,6.3,12.5,14.3,45.3,16.9c32.8,2.6-33.5,3.5-33.5,3.5l-15.2-6l-8.7-7.5
		l-1.5-8l3.8-7.7L199.9,128.6z"/>
	<path class="st7" d="M227.1,114.3c28.8-4.1,54.5,4.3,56.8,21l-9.8,1.4c-1.3-9.3-21.5-15.9-45.7-12.5c-24.1,3.4-41.8,15.3-40.4,24.6
		l-9.8,1.4C175.9,133.5,198.3,118.4,227.1,114.3z"/>
	<path class="st7" d="M282,119.6L282,119.6c-2.3-16.7-28-25.1-56.8-21s-51.2,19.2-48.9,35.8l2,15.7c2.3,16.7,28,25.1,56.8,21
		c28.8-4.1,51.2-19.2,48.9-35.8L282,119.6z M186.1,133c-1.3-9.4,16.3-21.3,40.4-24.7c24.1-3.4,44.3,3.2,45.7,12.5l2,15.8
		c1.3,9.4-16.3,21.3-40.4,24.7s-44.4-3.2-45.7-12.5L186.1,133z"/>
	<path class="st3" d="M221.1,199l-2.5-8.6l7.2-13.2l20-14.2l28.7-9.8l27.5-1.4l14.3,4.7l6.2,7.8l0,10.4l-12.3-5.7l-15-0.3l-15.9,2.5
		l-19.7,5.8l-13.5,6.2l-10.3,7.5l-8.2,10.1l-3.9,0.6L221.1,199z"/>
	<path class="st4" d="M254.7,158.8c-0.7,3.1-1.7,10.4,3.3,16.6c0.3,0.4,0.5,0.9,0.6,1.4l0.4-0.2l19.6-5.9l15.8-2.5l14.9,0.4l12.3,6
		l0-10.7l-6.2-8.1l-14.3-4.9l-27.4,1.3L254.7,158.8z"/>
	<path class="st5" d="M284.3,218.5c28.7-8.8,48.5-27.3,44.2-41.3c-4.3-14.1-31-18.3-59.8-9.6c-28.7,8.8-48.5,27.3-44.2,41.3
		C228.8,223,255.6,227.3,284.3,218.5z"/>
	<path class="st8" d="M295.3,164.5c0,0,44.6,19.5-16.4,50.5c-7.1,3.2-20.1,7.3-20.1,7.3l33.6-4.1L313,206l15-15.6l2.3-11.2l-4.2-6.2
		l-10.2-6.7L295.3,164.5z"/>
	<path class="st6" d="M240.1,182.4c0,0-14.5,36.3,34.2,36.4l-18.5,4l-17.7-4l-10.8-6.8l-3.1-8.6l2.8-9.1L240.1,182.4z"/>
	<path class="st7" d="M266.8,161.9c31.4-9.6,61.6-4.8,67.2,13.5l-11.3,3.5c-3-9.8-26.4-13.6-52.4-5.6c-26,7.9-43.3,24.1-40.3,33.9
		l-11.3,3.5C213.1,192.4,235.4,171.5,266.8,161.9z"/>
	<path class="st7" d="M286,224.7c31.4-9.6,53.7-30.6,48.1-49l-5-15.3c-5.7-18.3-35.8-23.2-67.1-13.6c-31.4,9.6-53.7,30.6-48.1,49
		l5,15.4C224.4,229.5,254.6,234.4,286,224.7z M317.7,163.9l0,0.1l5,15.3c3,9.8-14.3,26.1-40.2,34.1c-25.9,8-49.3,4.2-52.3-5.8
		l-5-15.4c-3-9.8,14.3-26.1,40.2-34.1C291.3,150.2,314.7,154,317.7,163.9z"/>
	<path class="st9" d="M214.6,249.5l1.6-11.6l15.2-12l30.4-6.5l38.1,3.3l32.3,12.5l14,13l3,12.5l-5.5,12.3l-11.1-13.2l-17-8.1
		l-19.6-5.2l-25.7-3.3l-18.7,0.4l-15.8,3.6l-14.7,7.7l-4.8-1.3L214.6,249.5z"/>
	<path class="st4" d="M269.4,219.6c-1.3,2.8-5,12.6,4.1,16.7c2.6,1.2-0.1,3.1-5.6,5.4l2,0l25.5,3.4l19.5,5.2l16.9,8l11.2,12.7
		l5.3-11.7l-3.1-12l-14-12.6L299,222.4L269.4,219.6z"/>
	<path class="st10" d="M276.2,305.5c37.6,4.6,69.8-6.4,72-24.7c2.2-18.3-26.4-36.9-64-41.5c-37.5-4.6-69.8,6.4-72,24.7
		C210,282.3,238.6,300.9,276.2,305.5z"/>
	<path class="st11" d="M289.8,254.9c6.1,2.3,14.7,6,17.8,6.2c3.4,0,22-0.1,28.5,1.3c9.3,2,10.7,15.5,10.7,15.5l-10.7,6.4l-11.5-3.3
		l-7.3,1.5l-6.9,0l-9.4,0l-15.5,4.1l-21.2,1.8l-13,0.1l-10.6-2.1l-14.8-2.9c0,0-8.4-3.8-8.8-8.2C215.7,257.9,261,244.1,289.8,254.9z
		"/>
	<path class="st7" d="M275.5,311.4c40.4,5,75.9-7.2,78.6-29.9c2.8-22.7-28.7-43.1-69.1-48.1c-40.4-5-75.9,7.2-78.6,29.9
		C203.6,285.9,235.1,306.4,275.5,311.4z M276.9,299.6c-34.7-4.3-60.5-21-58.8-34.9c1.7-13.9,30.7-23.8,65.4-19.5
		c34.7,4.3,60.5,21,58.8,34.9C340.6,294,311.6,303.9,276.9,299.6z"/>
	<path class="st7" d="M354.6,280.9l0-0.4l1-17.6c2.6-22.8-29-43.3-69.4-48.3c-40.6-5-76.3,7.3-79.1,30.2l0,0.4l-1,17.6
		c-2.6,22.8,29,43.3,69.4,48.3C316.1,316.1,351.8,303.8,354.6,280.9z M343.9,261.6l0,0.4l-1,17.6c-1.9,14-31.1,24-65.8,19.7
		c-34.9-4.3-60.8-21.2-59.1-35.2l0-0.4l1-17.6c1.9-14,31.1-24,65.8-19.7C319.7,230.7,345.6,247.5,343.9,261.6z"/>
	<path class="st8" d="M184.9,277.8l-6.6,17l-3.8,18.7l1.8,26.3l8.6,24.7l8.8,13.8l17.1,21l10,6.3l52.5,4.1h25.1l34.9-7.8l26.1-16.4
		l16.1-25.8l6.6-19.8V326l-6.6-9.2l-12.4-3.4l-6.6-15.4l-16.2-13.4l-24.6-4.4l-17.3,1.8l-10.7-10.6l-14.4-4.5l-24.6,2.5l-28,8.2
		H184.9z"/>
	<path class="st12" d="M372.7,325.2c0,0-8.8,21.4-17.3,19.2c-8.4-2.1,4.5-24.3,4.5-24.3l9.2-3.5L372.7,325.2z"/>
	<path class="st12" d="M281.3,324.7c0,0,1,7,9.1,3.5c12.6-5.5,26.4-21.3,24.9-41.3l-13.2-6.6l-0.8,11.9L281.3,324.7z"/>
	<path class="st13" d="M189.6,374.5c0,0,64.1,17.3,104.7,14.1c40.6-3.3,54.2-9.3,83.3-32.3l-14.6,22.3l-14.3,16.7l-25.8,10.4
		l-39.4,4l-56.6-4l-16.2-3.7L189.6,374.5z"/>
	<path class="st14" d="M206.4,401.9l-12.7-23.7l-13.4-25.1l-5.8-26.6l3-26.1l7.5-22.6H-12.7l40,143.2l20.1-8.9l31.6-6.2l33.9-4h52.7
		H206.4z"/>
	<path class="st15" d="M188.1,371.9c0,0-91.7-7.5-171.2,9.6C-62.6,398.6,27.3,421,27.3,421l25.8-8.7l71.4-10.3h66.6h19.7
		L188.1,371.9z"/>
	<path class="st8" d="M-4.6,277.8l89.4-3.1l100,3.1l-5,14.1c0,0-114.1-2.6-181.2,3L-4.6,277.8z"/>
	<path class="st16" d="M-22.1,286.5c58.6-3.3,102.5-4.8,131.4-4.3c14.8,0.2,28,0.5,43.6,1c1.5,0,21.6,0.7,27,0.9
		c9.4,0.3,16.7,0.4,23.9,0.4c12.7,0.1,25.6-1.9,38.7-5.2c5.9-1.5,17.9-5.1,16.7-4.8c8.1-2.2,21.3-0.1,30.6,8.2
		c1.3,1.2,1.9,1.8,2.8,2.9c2.1,2.8,3.1,5.9,2.6,9.8c-0.8,6-5.1,13.4-13.9,22.1c-2.7,2.7-2.8,7.1-0.1,9.8c2.7,2.7,7.1,2.8,9.8,0.1
		c20.2-19.9,22.5-37.2,12.6-50.2c-0.9-1.1-1.7-2.1-2.7-3.1c-0.6-0.6-0.9-0.8-1.8-1.7c-13.1-11.8-31.1-14.6-43.4-11.3
		c0.9-0.2-11,3.4-16.5,4.7c-12.1,3.1-23.9,4.8-35.3,4.8c-7,0-14.3-0.2-23.5-0.4c-5.3-0.2-25.4-0.8-26.9-0.9
		c-15.7-0.5-28.9-0.8-43.8-1c-29.3-0.4-73.4,1-132.4,4.3c-3.8,0.2-6.7,3.5-6.5,7.3C-29.2,283.8-25.9,286.8-22.1,286.5z"/>
	<path class="st16" d="M178.6,275c-21.5,48.4-11.5,92.9,29.5,132c2.8,2.6,7.1,2.5,9.8-0.2c2.6-2.8,2.5-7.1-0.2-9.8
		c-36.9-35.2-45.6-73.5-26.5-116.4c1.6-3.5,0-7.6-3.5-9.1S180.2,271.5,178.6,275z"/>
	<path class="st16" d="M41.4,422.1c34.2-10,70.3-15,108.2-15c24.1,0,42.2,1.3,71,4.4c0.1,0,9.2,1,11.7,1.3c4.4,0.5,8.1,0.8,11.6,1.2
		c14.2,1.4,26,2,38.2,2c26,0,45.5-3.2,62-11.6c19.8-10.1,34.1-27.3,42.8-53.3c6.6-19.6-3.8-44.6-20.4-44.6c-3.8,0-6.9,3.1-6.9,6.9
		c0,3.8,3.1,6.9,6.9,6.9c1.7,0,4.5,2.6,6.5,7.3c2.4,5.8,2.8,12.9,0.8,19c-14,41.7-41,55.4-91.7,55.4c-11.7,0-23.1-0.6-36.9-2
		c-3.5-0.3-7.1-0.7-11.4-1.2c-2.6-0.3-11.6-1.3-11.7-1.3c-29.3-3.2-47.8-4.5-72.5-4.5c-39.2,0-76.6,5.2-112.1,15.5
		c-3.7,1.1-5.8,4.9-4.7,8.6C33.9,421,37.8,423.1,41.4,422.1z"/>
	<path class="st16" d="M299.6,288.9c19.1-3.1,32.5-1.8,40.2,3.4c5.8,3.9,10.2,8.4,13.1,13c2.2,3.5,3.3,6.7,3.3,8.3
		c0,6.8-2.2,14.5-6.9,19.6c-2.6,2.8-2.4,7.2,0.4,9.8c2.8,2.6,7.2,2.4,9.8-0.4c7.4-8,10.5-18.9,10.5-28.9c0-9.9-8.6-23.3-22.5-32.7
		c-11.2-7.6-27.9-9.2-50.2-5.5c-3.8,0.6-6.3,4.2-5.7,7.9C292.2,287,295.8,289.5,299.6,288.9z"/>
	<path class="st4" d="M158.3,172.9c-4.7,22.8-15.9,32.4-20.8,35.6c4.9,3.2,16.1,12.8,20.8,35.6c4.7-22.8,15.9-32.4,20.8-35.6
		C174.2,205.3,163,195.7,158.3,172.9z"/>
	<path class="st4" d="M336.2,53.4c-5.1,24.9-17.4,35.5-22.7,39c5.3,3.5,17.6,14,22.7,39c5.1-24.9,17.4-35.5,22.7-39
		C353.6,88.8,341.3,78.3,336.2,53.4z"/>
</g>
</svg>
