<?xml version="1.0" encoding="utf-8"?>
<!-- Generator: Adobe Illustrator 24.0.0, SVG Export Plug-In . SVG Version: 6.00 Build 0)  -->
<svg version="1.1" id="Layer_1" xmlns="http://www.w3.org/2000/svg" xmlns:xlink="http://www.w3.org/1999/xlink" x="0px" y="0px"
	 viewBox="0 0 124.7 124.7" style="enable-background:new 0 0 124.7 124.7;" xml:space="preserve">
<style type="text/css">
	.st0{fill:#A566FF;}
</style>
<title>ewf_logo</title>
<path class="st0" d="M62.3,0C27.9,0,0,27.9,0,62.3s27.9,62.3,62.3,62.3s62.3-27.9,62.3-62.3l0,0C124.7,27.9,96.8,0,62.3,0z M59.5,93
	c-3.4,2.4-7.5,3.8-11.6,3.8c-7.2,0-13.8-3.9-18.8-11.1c-4.5-6.9-7-14.9-7.2-23.1c0-0.3,0.2-0.6,0.5-0.7l4.9-2.2c0.4-0.2,0.8,0,1,0.4
	c0,0.1,0.1,0.2,0.1,0.3l0,0c0,8.2,2.2,15.9,6.1,21.6c3.7,5.4,8.5,8.3,13.5,8.3c2.7,0,5.4-0.8,7.6-2.3c0.3-0.2,0.8-0.1,1,0.2
	c1,1.3,2,2.5,3.1,3.7C59.8,92.2,59.8,92.7,59.5,93C59.5,93,59.5,93,59.5,93z M95.6,85.7C90.7,92.8,84,96.8,76.8,96.8
	S63,92.8,58,85.7c-4.7-6.8-7.3-15.8-7.3-25.3c0-8.8,5.1-15.7,11.5-15.7s11.5,6.9,11.5,15.7c0.1,7.7-1.7,15.2-5.3,22
	c-0.2,0.4-0.7,0.5-1,0.3c-0.1,0-0.1-0.1-0.2-0.2c-0.6-0.7-1.2-1.4-1.7-2.1c-0.6-0.9-1.1-1.7-1.6-2.7c-0.1-0.2-0.1-0.5,0-0.7
	c2.3-5.3,3.4-11,3.4-16.7c0-4.3-2.2-9.2-5.1-9.2s-5.1,4.9-5.1,9.2c0,8.2,2.2,15.9,6.1,21.6c3.7,5.4,8.5,8.3,13.5,8.3s9.8-3,13.5-8.3
	c3.9-5.7,6.1-13.4,6.1-21.6s-2.2-15.9-6.1-21.6c-1.1-1.7-2.5-3.2-4-4.5c-0.3-0.3-0.3-0.8-0.1-1.1c0.1-0.1,0.2-0.2,0.3-0.2l4.9-2.2
	c0.3-0.1,0.6-0.1,0.8,0.2c1.3,1.3,2.4,2.7,3.4,4.1c4.7,6.8,7.3,15.8,7.3,25.3S100.3,78.9,95.6,85.7z"/>
</svg>
