<?xml version="1.0" encoding="utf-8"?>
<!-- Generator: Adobe Illustrator 27.0.1, SVG Export Plug-In . SVG Version: 6.00 Build 0)  -->
<svg version="1.1" id="win" xmlns="http://www.w3.org/2000/svg" xmlns:xlink="http://www.w3.org/1999/xlink" x="0px" y="0px"
	 viewBox="0 0 500 500" style="enable-background:new 0 0 500 500;" xml:space="preserve">
<style type="text/css">
	.st0{fill:#FBC509;}
</style>
<path class="st0" d="M47.4,330.5c-0.4,0-0.7,0-1.1,0c-8.8-0.5-16.3-6.7-18.3-15.3L1.5,201.9C-1,191.2,5.7,180.5,16.3,178
	c10.7-2.5,21.4,4.1,23.9,14.8l11,47.1l18-51.2c2.8-8,10.3-13.3,18.7-13.3c0.1,0,0.1,0,0.2,0c8.5,0.1,16,5.5,18.7,13.6l16.5,49.6
	l11-45.9c2.6-10.7,13.3-17.2,24-14.7c10.7,2.6,17.2,13.3,14.7,24l-27.3,113.3c-2.1,8.6-9.6,14.8-18.5,15.2
	c-8.8,0.4-16.9-5.2-19.7-13.6l-20.1-60.4l-21.3,60.7C63.4,325.2,55.8,330.5,47.4,330.5z"/>
<path class="st0" d="M218.8,327.7c-11,0-19.9-8.9-19.9-19.9V192.4c0-11,8.9-19.9,19.9-19.9s19.9,8.9,19.9,19.9v115.4
	C238.6,318.8,229.7,327.7,218.8,327.7z"/>
<path class="st0" d="M376.1,330.5c-11,0-19.9-8.9-19.9-19.9V243c0-14.9-12.1-27-27-27c-14.9,0-27,12.1-27,27v67.6
	c0,11-8.9,19.9-19.9,19.9s-19.9-8.9-19.9-19.9V243c0-36.8,29.9-66.7,66.7-66.7s66.7,29.9,66.7,66.7v67.6
	C395.9,321.6,387.1,330.5,376.1,330.5z"/>
<path d="M477.1,332.8c-6.8,0-13.5-3.2-17.7-9.2l-40.1-57.8c-5.2-7.4-5.1-17.3,0.1-24.7l40.6-57.6c6.8-9.7,20.3-12,30-5.2
	c9.7,6.8,12,20.3,5.2,30l-31.9,45.3l31.5,45.4c6.8,9.8,4.4,23.2-5.4,29.9C485.6,331.6,481.3,332.8,477.1,332.8z"/>
<path d="M299.5,413.9c-36.9,0-74.6-10.5-112.7-31.6c-6-3.3-8.2-10.9-4.9-16.9c3.3-6,10.9-8.2,16.9-4.9c69,38.1,133.3,38.2,196.7,0.2
	c5.9-3.5,13.5-1.6,17,4.3c3.5,5.9,1.6,13.5-4.3,17C373,403.3,336.6,413.9,299.5,413.9z"/>
<path d="M385.2,146.3c-1.9,0-3.8-0.6-5.5-1.8L351,122.8c-2.3-1.7-3.6-4.5-3.6-7.4c0-2.9,1.4-5.6,3.8-7.3l28-20.3c4.1-3,9.8-2,12.7,2
	c3,4.1,2,9.8-2,12.7l-18,13.1l18.9,14.3c4,3,4.8,8.7,1.8,12.7C390.7,145,387.9,146.3,385.2,146.3z"/>
<circle cx="218.2" cy="117.8" r="26"/>
</svg>
