<?xml version="1.0" encoding="utf-8"?>
<!-- Generator: Adobe Illustrator 26.0.1, SVG Export Plug-In . SVG Version: 6.00 Build 0)  -->
<svg version="1.1" id="svg898" xmlns="http://www.w3.org/2000/svg" xmlns:xlink="http://www.w3.org/1999/xlink" x="0px" y="0px"
	 viewBox="0 0 64 64" style="enable-background:new 0 0 64 64;" xml:space="preserve">
<style type="text/css">
	.st0{fill:#FF2AD4;}
	.st1{fill:#FFFFFF;}
	.st2{fill:#FFCC00;}
</style>
<path id="path6" class="st0" d="M61.5,19.5C54.6,3.3,35.8-4.3,19.5,2.5s-23.9,25.7-17,41.9s25.7,23.9,41.9,17
	c7.7-3.2,13.8-9.3,17-17C64.8,36.5,64.8,27.5,61.5,19.5z"/>
<path class="st1" d="M7.4,26.3h8.2v15.6v6.4l4.6-4.4l11.9-11.2l11.8,11.2l4.6,4.4v-6.4l0-15.6h8.1c0.4,1.8,0.6,3.7,0.6,5.6
	c0,13.9-11.3,25.3-25.2,25.3S6.7,45.8,6.7,31.9C6.7,30,6.9,28.1,7.4,26.3 M5.3,23.5C0.7,38.3,8.9,54,23.7,58.6s30.5-3.7,35-18.4
	c0.8-2.7,1.3-5.5,1.3-8.3c0-2.8-0.4-5.6-1.3-8.4H45.8l-0.1,18.4L32.1,28.8L18.3,41.9V23.5H5.3z"/>
<path class="st2" d="M18.3,20.8H21v2.8v12l9.1-8.7l1.9-1.8l1.9,1.8l9.1,8.6v-12v-2.7h14.7C51.5,6.6,34.9,0.2,20.8,6.4
	c-6.4,2.8-11.6,8-14.4,14.4H18.3z"/>
</svg>
