<?xml version="1.0" encoding="utf-8"?>
<!-- Generator: Adobe Illustrator 27.7.0, SVG Export Plug-In . SVG Version: 6.00 Build 0)  -->
<svg version="1.1" id="Layer_1" xmlns="http://www.w3.org/2000/svg" xmlns:xlink="http://www.w3.org/1999/xlink" x="0px" y="0px"
	 viewBox="0 0 500 500" style="enable-background:new 0 0 500 500;" xml:space="preserve">
<style type="text/css">
	.st0{fill:#00A3FF;}
	.st1{fill:#FFFFFF;}
	.st2{opacity:0.6;fill:#FFFFFF;enable-background:new    ;}
	.st3{opacity:0.2;fill:#FFFFFF;enable-background:new    ;}
</style>
<rect y="0" class="st0" width="500" height="500"/>
<path class="st1" d="M147.4,232.3l-2.8,4.3c-31.6,48.4-24.5,111.8,17,152.5c24.4,23.9,56.4,35.9,88.3,35.9
	C249.9,424.9,249.9,424.9,147.4,232.3z"/>
<path class="st2" d="M249.9,290.8l-102.5-58.5c102.5,192.6,102.5,192.6,102.5,192.6C249.9,382.9,249.9,334.9,249.9,290.8z"/>
<path class="st2" d="M352.6,232.3l2.8,4.3c31.6,48.4,24.5,111.8-17,152.5c-24.4,23.9-56.4,35.9-88.3,35.9
	C250.1,424.9,250.1,424.9,352.6,232.3z"/>
<path class="st3" d="M250,290.8l102.5-58.5C250,424.9,250,424.9,250,424.9C250,382.9,250,334.9,250,290.8z"/>
<path class="st3" d="M250.1,160v101l88.3-50.5L250.1,160z"/>
<path class="st2" d="M250.1,160l-88.4,50.5l88.4,50.5V160z"/>
<path class="st1" d="M250.1,75.1l-88.4,135.5l88.4-50.7V75.1z"/>
<path class="st2" d="M250.1,159.9l88.4,50.7L250.1,75V159.9z"/>
</svg>
