<?xml version="1.0" encoding="utf-8"?>
<!-- Generator: Adobe Illustrator 27.7.0, SVG Export Plug-In . SVG Version: 6.00 Build 0)  -->
<svg version="1.1" id="Layer_1" xmlns="http://www.w3.org/2000/svg" xmlns:xlink="http://www.w3.org/1999/xlink" x="0px" y="0px"
	 viewBox="0 0 500 500" style="enable-background:new 0 0 500 500;" xml:space="preserve">
<style type="text/css">
	.st0{fill:#FFFFFF;}
</style>
<path class="st0" d="M250,15.4L250,15.4c129.6,0,234.6,105,234.6,234.6l0,0c0,129.6-105,234.6-234.6,234.6l0,0
	c-129.6,0-234.6-105-234.6-234.6l0,0C15.4,120.4,120.4,15.4,250,15.4z"/>
<path d="M316.2,140v-27.7H183.8V140h52.3v27.7h-52.3v164.6h52.3V360h-52.3v27.7h132.3V360h-52.3v-27.7h4.2
	c26.6,0,48.1-21.5,48.1-48.1c0-13.4-7.7-34.2-27.7-34.2c20,0,27.7-20.8,27.7-34.2c0-26.6-21.5-48.1-48.1-48.1h-4.2V140H316.2z
	 M211.5,195.4h24.6v40.8h-24.6V195.4z M211.5,304.6v-40.8h24.6v40.8H211.5z M268.1,304.6h-4.2v-40.8h4.2c11.3,0,20.4,9.1,20.4,20.4
	S279.3,304.6,268.1,304.6z M268.1,195.4c11.3,0,20.4,9.1,20.4,20.4s-9.1,20.4-20.4,20.4h-4.2v-40.8H268.1z"/>
<path d="M250,500c-66.8,0-129.6-26-176.8-73.2C26,379.6,0,316.8,0,250c0-66.8,26-129.6,73.2-176.8C120.4,26,183.2,0,250,0
	s129.6,26,176.8,73.2C474,120.4,500,183.2,500,250c0,66.8-26,129.6-73.2,176.8C379.6,474,316.8,500,250,500z M250,30.8
	c-58.6,0-113.6,22.8-155,64.2c-41.4,41.4-64.2,96.5-64.2,155c0,58.6,22.8,113.6,64.2,155c41.4,41.4,96.5,64.2,155,64.2
	s113.6-22.8,155-64.2c41.4-41.4,64.2-96.5,64.2-155c0-58.6-22.8-113.6-64.2-155C363.6,53.6,308.6,30.8,250,30.8z"/>
</svg>
