<?xml version="1.0" encoding="utf-8"?>
<!-- Generator: Adobe Illustrator 27.0.1, SVG Export Plug-In . SVG Version: 6.00 Build 0)  -->
<svg version="1.1" id="xai" xmlns="http://www.w3.org/2000/svg" xmlns:xlink="http://www.w3.org/1999/xlink" x="0px" y="0px"
	 viewBox="0 0 500 500" style="enable-background:new 0 0 500 500;" xml:space="preserve">
<style type="text/css">
	.st0{fill:#FFFFFF;}
</style>
<path d="M250,0L250,0c138.1,0,250,111.9,250,250l0,0c0,138.1-111.9,250-250,250l0,0C111.9,500,0,388.1,0,250l0,0
	C0,111.9,111.9,0,250,0z"/>
<path class="st0" d="M313.7,240.8c-4.4,0-8.5-1.7-11.6-4.8L264,197.9c-6.4-6.4-6.4-16.8,0-23.2l69.9-69.9c6.4-6.4,16.8-6.4,23.2,0
	l38.1,38.1c6.4,6.4,6.4,16.8,0,23.2L325.3,236C322.2,239.1,318,240.8,313.7,240.8z"/>
<path class="st0" d="M345.5,400c-4.4,0-8.5-1.7-11.6-4.8L264,325.3c-7.7-7.7-20.3-7.7-28,0l-69.9,69.9c-6.4,6.4-16.8,6.4-23.2,0
	l-38.1-38.1c-6.4-6.4-6.4-16.8,0-23.2l69.9-69.9c7.7-7.7,7.7-20.3,0-28l-69.9-69.9c-6.4-6.4-6.4-16.8,0-23.2l38.1-38.1
	c6.4-6.4,16.8-6.4,23.2,0l69.9,69.9c6.4,6.4,6.4,16.8,0,23.2L197.9,236c-7.7,7.7-7.7,20.3,0,28l38.1,38.1c7.7,7.7,20.3,7.7,28,0
	l38.1-38.1c6.4-6.4,16.8-6.4,23.2,0l69.9,69.9c6.4,6.4,6.4,16.8,0,23.2l-38.1,38.1C354.1,398.3,349.9,400,345.5,400z"/>
</svg>
