<?xml version="1.0" encoding="utf-8"?>
<!-- Generator: Adobe Illustrator 27.0.1, SVG Export Plug-In . SVG Version: 6.00 Build 0)  -->
<svg version="1.1" id="xch" xmlns="http://www.w3.org/2000/svg" xmlns:xlink="http://www.w3.org/1999/xlink" x="0px" y="0px"
	 viewBox="0 0 500 500" style="enable-background:new 0 0 500 500;" xml:space="preserve">
<style type="text/css">
	.st0{fill:#3AAC59;}
</style>
<path class="st0" d="M300.1,216.9h43.3v125.5h-43.3V216.9z"/>
<path class="st0" d="M240.7,207.4c-16.6,0-33.7,3.9-37.9,11.3c-0.1,0.1-0.1,0.2-0.2,0.3v-52.6h-44.5V250c4.4,2,9,4.3,13.6,6.9
	c1.5,0.9,2.8,1.6,3.8,2.2c0.6,0.4,1.2,0.7,1.8,1.1c0.1,0-25.4,39.4-60.1,47.6c-20.5,4.9-44.7-1-49.6-21.4c-0.2-0.8-0.3-1.7-0.4-2.5
	c3.3-1.9,6.6-3.7,10-5.3c8.5-3.7,15-6.4,17.4-7.4c0.2-0.1,0.4-0.2,0.6-0.2h0c0,0,0,0,0,0c20.2-7.3,37.2-9.8,37.2-9.8
	c-15.4-1.3-28.7-0.3-39.8,1.9h0c0,0-0.1,0-0.2,0.1c-10,2-18.3,4.9-24.7,7.8c3.6-14.7,16.5-27.5,31.7-31.1c1.3-0.3,2.7-0.6,4.1-0.8
	c0.4-0.1,0.8-0.1,1.2-0.2c1.1-0.1,2.1-0.3,3.2-0.3c0.4,0,0.7-0.1,1-0.1c1.4-0.1,2.8-0.1,4.1-0.1c0.3,0,0.5,0,0.8,0
	c1.2,0,2.3,0.1,3.4,0.1c0.4,0,0.8,0.1,1.2,0.1c0.4,0,0.8,0.1,1.2,0.1c6.6,0.7,14.6,2.4,23.6,5.4v-28.9c-4.3-1.3-8.9-2.6-13.7-3.8
	c-12.5-3.3-34.1-6.8-57.6-1.2c-37.9,9.2-48.6,36.9-48.6,70.8c0,4.3,0.4,8.4,1,12.2C16.3,298.8,8.2,305,0.9,312
	c0,0,10.9-4.8,25.3-11.2c9.6,32.6,43.2,43.6,68.5,43.6c26.4,0,43.3-7.5,63.5-20v15.8h44.5v-78.4c0-0.1,0.1-0.2,0.2-0.3v-1.3
	c4.2-11.2,11.4-14.1,19.4-14.1c10.6,0,17.2,7.4,17.2,19.3v74.9h44.4v-87.6C283.8,225.1,266.4,207.4,240.7,207.4z"/>
<path class="st0" d="M321.1,155.4c-13.4,0-22.9,9.4-22.9,22.7c0,13.3,9.5,22.8,22.9,22.8s22.9-9.4,22.9-22.8
	C344,164.8,334.5,155.4,321.1,155.4z"/>
<path class="st0" d="M491.2,269.2L491.2,269.2l0-55.9h-44.5l-0.3,7.9c-42.9-27.4-70.3,0.8-70.3,0.8c-13.1,11.9-20.7,30.7-20.7,54.3
	c0,41.8,25.3,66.7,58.1,66.7c12.3,0,23.6-2.8,33.5-16.2c1.1,3.1,3.6,10.8,5.5,13.5h46.3C490.9,327.3,491,282.4,491.2,269.2z
	 M424,306.8c-14.4,0-24.6-12.4-24.6-30.1c0-17.7,10.2-30.1,24.6-30.1c10.1,0,18.1,6.1,22,15.9V291
	C442.1,300.7,434.1,306.8,424,306.8z"/>
</svg>
