<?xml version="1.0" encoding="utf-8"?>
<!-- Generator: Adobe Illustrator 27.0.1, SVG Export Plug-In . SVG Version: 6.00 Build 0)  -->
<svg version="1.1" id="xcm" xmlns="http://www.w3.org/2000/svg" xmlns:xlink="http://www.w3.org/1999/xlink" x="0px" y="0px"
	 viewBox="0 0 500 500" style="enable-background:new 0 0 500 500;" xml:space="preserve">
<style type="text/css">
	.st0{fill-rule:evenodd;clip-rule:evenodd;fill:#FF7E62;}
</style>
<path class="st0" d="M452.8,495.1c37.9,0,59.5-43.9,36.4-74.1l-10.6-13.3c-14.6-19-37.1-30.1-61-30.2h-94.2
	c-39.1,0-75.9-17.6-100.5-49.4c-13.8-18.1-22.5-39.4-25.4-62c-4.7-40,8.6-78.4,36.4-106.3c23.8-23.9,56.2-37.3,90-37.3h78.2
	c12.1,0.1,23.6-5.6,30.9-15.3l3.9-5.1c5.9-7.5,0.4-18.8-9.4-18.8H323.7c-46.5,0-90.3,19.2-122.4,54.1
	c-26.6,28.6-42.2,66.7-43.8,105.9C155.4,289.9,173,335.1,206,368c31.7,31.8,73.1,49,117.7,49h93.9c12.1,0,23.5,5.5,30.9,15.3
	l3.9,5.1c3.9,5.1,3,12.5-2.2,16.4c-2.1,1.6-4.6,2.4-7.2,2.4H323.7c-54.8,0-106.4-21.6-145.1-60.4c-80.2-80.4-80.2-211,0-291.4
	c38.7-38.8,90.3-60.4,145.1-60.4h138.1c12.1,0.1,23.6-5.6,30.9-15.3l3.9-5.1c5.9-7.5,0.4-18.8-9.4-18.8H323.3
	c-65.3,0-126.7,25.5-172.9,71.8c-95.4,95.7-95.4,251,0,346.7c45.7,46.1,108,71.9,172.9,71.8H452.8z M115.2,56.7
	c4.7-4.7,0.8-12.9-5.9-12.9l-19.6-0.4c-9.8,0-19.2,4.7-25,12.5C23.2,111.8,0.8,179.6,1,249.2C1,320.6,23.7,388,65.1,443.3
	c5.9,7.8,15.3,12.2,25,12.2h19.5c7,0,10.6-7.8,5.9-12.9c-48.5-51.8-75.5-120-75.5-193C40.1,177.1,66.7,109.2,115.2,56.7L115.2,56.7z
	"/>
</svg>
