<?xml version="1.0" encoding="utf-8"?>
<!-- Generator: Adobe Illustrator 26.0.1, SVG Export Plug-In . SVG Version: 6.00 Build 0)  -->
<svg version="1.1"
	 id="svg865" xmlns:cc="http://creativecommons.org/ns#" xmlns:dc="http://purl.org/dc/elements/1.1/" xmlns:inkscape="http://www.inkscape.org/namespaces/inkscape" xmlns:rdf="http://www.w3.org/1999/02/22-rdf-syntax-ns#" xmlns:sodipodi="http://sodipodi.sourceforge.net/DTD/sodipodi-0.dtd" xmlns:svg="http://www.w3.org/2000/svg"
	 xmlns="http://www.w3.org/2000/svg" xmlns:xlink="http://www.w3.org/1999/xlink" x="0px" y="0px" viewBox="0 0 250.7 256"
	 style="enable-background:new 0 0 250.7 256;" xml:space="preserve">
<sodipodi:namedview  bordercolor="#666666" borderopacity="1" gridtolerance="10" guidetolerance="10" id="namedview867" inkscape:current-layer="g878" inkscape:cx="143.49908" inkscape:cy="196.02697" inkscape:pageopacity="0" inkscape:pageshadow="2" inkscape:window-height="878" inkscape:window-maximized="1" inkscape:window-width="1440" inkscape:window-x="0" inkscape:window-y="0" inkscape:zoom="0.98547004" objecttolerance="10" pagecolor="#ffffff" showgrid="false">
	</sodipodi:namedview>
<g id="g878" transform="scale(5.7045955)">
	<g id="g885" transform="translate(0.46495016)">
		<path id="path855" style="fill-rule:evenodd;clip-rule:evenodd;fill:#278DC1;" d="M-0.5,22.4C-0.5,10,9.4,0,21.5,0
			c12.1,0,22,10,22,22.4s-9.8,22.4-22,22.4C9.4,44.9-0.5,34.8-0.5,22.4z"/>
		<path id="path857" style="fill-rule:evenodd;clip-rule:evenodd;fill:#FFFFFE;" d="M15.2,20.7c-1.5,0-2.6-1.2-2.6-2.7
			c0-1.5,1.2-2.7,2.6-2.7c1.5,0,2.6,1.2,2.6,2.7C17.8,19.5,16.7,20.7,15.2,20.7z M20,10.6h-2.1V14c-0.8-0.5-1.7-0.8-2.6-0.8
			c-2.6,0-4.8,2.2-4.8,4.9c0,2.7,2.1,4.9,4.8,4.9c2.6,0,4.8-2.2,4.8-4.9c0,0,0,0,0,0h0V10.6z"/>
		<path id="path859" style="fill-rule:evenodd;clip-rule:evenodd;fill:#FFFFFE;" d="M27.8,24.2c1.5,0,2.6,1.2,2.6,2.7
			c0,1.5-1.2,2.7-2.6,2.7c-1.5,0-2.6-1.2-2.6-2.7C25.2,25.4,26.4,24.2,27.8,24.2z M23,34.3h2.1v-3.4c0.8,0.5,1.7,0.8,2.6,0.8
			c2.6,0,4.8-2.2,4.8-4.9c0-2.7-2.1-4.9-4.8-4.9c-2.6,0-4.8,2.2-4.8,4.9c0,0,0,0,0,0h0L23,34.3z"/>
		<path id="path861" style="fill-rule:evenodd;clip-rule:evenodd;fill:#FFFFFE;" d="M25.3,14c1.5,0,2.6,1.2,2.6,2.7
			c0,1.5-1.2,2.7-2.6,2.7s-2.6-1.2-2.6-2.7C22.7,15.2,23.9,14,25.3,14z M25.4,11.9L25.4,11.9C25.4,11.9,25.4,11.9,25.4,11.9
			c-2.7,0-4.8,2.2-4.8,4.9c0,2.7,2.1,4.9,4.8,4.9c2.6,0,4.8-2.2,4.8-4.9c0-1-0.3-1.9-0.8-2.7h3.3v-2.2H25.4z"/>
		<path id="path863" style="fill-rule:evenodd;clip-rule:evenodd;fill:#FFFFFE;" d="M17.7,30.8c-1.5,0-2.6-1.2-2.6-2.7
			c0-1.5,1.2-2.7,2.6-2.7c1.5,0,2.6,1.2,2.6,2.7C20.3,29.6,19.1,30.8,17.7,30.8z M17.6,33L17.6,33C17.7,33,17.7,33,17.6,33
			c2.7,0,4.8-2.2,4.8-4.9c0-2.7-2.1-4.9-4.8-4.9c-2.6,0-4.8,2.2-4.8,4.9c0,1,0.3,1.9,0.8,2.7h-3.3V33H17.6z"/>
	</g>
</g>
</svg>
