<svg xmlns="http://www.w3.org/2000/svg" viewBox="0 0 490 507"><circle cx="242.5" cy="428.5" r="78.5" fill="#22b24c"/><circle cx="407.5" cy="344.5" r="70.5" fill="#cecccc"/><circle cx="52.5" cy="169.5" r="52.5" fill="#cecccc"/><circle cx="324.5" cy="43.5" r="43.5" fill="#22b24c"/><path fill="#343433" d="M437.7 115a54.4 54.4 0 0 0-42.7 18l-.1.2-2.5 3a47 47 0 0 1-3 3.4c-10.5 11.3-35.9 31.5-70.2 14.6a51.7 51.7 0 0 1-13.9-10 88.2 88.2 0 0 0-62.8-26.2l-4.4.1a31.4 31.4 0 0 1-12.3-1.9c-19.7-7.1-25.3-23.5-26.4-36a47.7 47.7 0 0 1 3-20.7 43.5 43.5 0 1 0-53.5 26.7c45.7 18.6 30.7 53.8 24.4 65.2a88 88 0 0 0-19.2 55 89.2 89.2 0 0 0 .7 11.8 1.4 1.4 0 0 0 0 .3c1.4 15.1-.3 56.1-56.4 57.5a71.9 71.9 0 0 1-10-.6 69.4 69.4 0 0 0-7.9-.4 68.5 68.5 0 1 0 68.4 71h.1v-3.5c.3-13.1 5.6-59.5 63.5-52.7 0 0 19.5 5.2 30 5.2a88.5 88.5 0 0 0 81.9-54.7c5.6-12.8 34.9-45 85.4-22.8a54.6 54.6 0 0 0 5.2 2.5 54.5 54.5 0 1 0 22.7-105z"/></svg>