<?xml version="1.0" encoding="utf-8"?>
<!-- Generator: Adobe Illustrator 27.7.0, SVG Export Plug-In . SVG Version: 6.00 Build 0)  -->
<svg version="1.1" id="Layer_1" xmlns="http://www.w3.org/2000/svg" xmlns:xlink="http://www.w3.org/1999/xlink" x="0px" y="0px"
	 viewBox="0 0 500 500" style="enable-background:new 0 0 500 500;" xml:space="preserve">
<style type="text/css">
	.st0{fill:#FFFFFF;}
	.st1{fill:url(#SVGID_1_);}
</style>
<path class="st0" d="M500,250c0,138.1-111.9,250-250,250S0,388.1,0,250S112,0,250,0S500,111.9,500,250z"/>
<linearGradient id="SVGID_1_" gradientUnits="userSpaceOnUse" x1="47.056" y1="-171.1102" x2="1047.0403" y2="-171.1102" gradientTransform="matrix(0.5 0 0 -0.5 -23.5 164.4449)">
	<stop  offset="0" style="stop-color:#29235C"/>
	<stop  offset="1" style="stop-color:#00A19A"/>
</linearGradient>
<path class="st1" d="M372.6,145.5h104.6C437.6,59.6,350.8,0,250,0C112,0,0,111.9,0,250c0,0.7,0,1.3,0,2H252L130.6,359.4H25.2
	C65.7,442.6,151.2,500,250,500c137.4,0,248.9-110.9,250-248H252L372.6,145.5z"/>
</svg>
