<?xml version="1.0" encoding="utf-8"?>
<!-- Generator: Adobe Illustrator 24.0.0, SVG Export Plug-In . SVG Version: 6.00 Build 0)  -->
<svg version="1.1" id="Layer_1" xmlns="http://www.w3.org/2000/svg" xmlns:xlink="http://www.w3.org/1999/xlink" x="0px" y="0px"
	 viewBox="0 0 226.1 226.1" style="enable-background:new 0 0 226.1 226.1;" xml:space="preserve">
<style type="text/css">
	.st0{display:none;fill:#E4232D;}
	.st1{display:none;}
	.st2{display:inline;fill:none;stroke:#FFFFFF;stroke-width:1.438;}
	.st3{display:inline;fill:none;stroke:#FFFFFF;stroke-width:1.445;}
	.st4{display:inline;}
	.st5{fill:none;stroke:#FFFFFF;stroke-width:1.438;}
	.st6{fill:#FFFFFF;stroke:#FFFFFF;stroke-width:1.438;}
	.st7{display:none;fill:#2F3034;}
	.st8{display:inline;fill:#FF0000;}
	.st9{display:none;fill:#E3242D;}
	.st10{fill:#E3242D;}
</style>
<path class="st0" d="M237.6,94.4l-20.5-4.5l13.9-16.2c-12.1-12-38-15.1-64.7-6.5c-3.8,1.2-7.5,2.7-11.1,4.3
	c0.4-3.9,0.7-7.9,0.7-11.8c0-28-11-51.7-26.1-59.5l-11.1,18.2L107.9,0.3C92.8,8.1,81.8,31.8,81.8,59.8c0,4,0.2,7.9,0.7,11.8
	c-3.6-1.7-7.4-3.1-11.1-4.3c-26.7-8.7-52.6-5.5-64.7,6.5l13.9,16.2L0,94.4c2.8,16.8,21.9,34.5,48.5,43.2c3.7,1.2,7.5,2.2,11.4,3
	c-2.6,2.9-5.1,5.9-7.4,9.1C36,172.4,31,198,38.6,213.2l19.7-8.2l-2.1,20.9c16.8,2.6,39.6-10.1,56.1-32.8c2.4-3.3,4.5-6.7,6.5-10.2
	c2,3.5,4.2,6.9,6.5,10.2c16.5,22.7,39.3,35.4,56.1,32.8l-2.1-20.9l19.7,8.2c7.7-15.2,2.6-40.8-13.8-63.5c-2.3-3.2-4.8-6.2-7.4-9.1
	c3.8-0.8,7.6-1.8,11.4-3C215.7,128.9,234.8,111.2,237.6,94.4L237.6,94.4z"/>
<g class="st1">
	<path class="st2" d="M179.6,141.4l-58.8,42.5L62,141.4l22.5-68.8h72.6L179.6,141.4z"/>
	<path class="st3" d="M120.5,147.7l34.9-3.1 M85.6,144.6l34.9,3.1"/>
	<g class="st4">
		<path class="st5" d="M155.3,144.6l-34.9,20.1l-34.9-20.1v-40.3l34.9-20.1l34.9,20.1V144.6z M155.3,104.2l-34.9-3 M85.6,104.3
			l34.9-3.2 M155.3,104.3l-14.7,31.7 M120.5,164.7l20.1-28.7 M85.6,104.3l14.7,31.7 M120.5,164.7l-20.1-28.7"/>
		<path class="st5" d="M140.6,136.1l-20.1-34.9l-20.1,34.9H140.6z"/>
		<path class="st5" d="M100.3,112.6l20.1,34.9l20.1-34.9H100.3z M85.6,104.3l14.7,8.2 M140.6,112.6l14.7-8.2 M120.5,147.4v17.3"/>
		<g transform="translate(81 83)">
			<circle class="st6" cx="39.5" cy="81.7" r="2.4"/>
			<circle class="st6" cx="4.6" cy="21.3" r="2.4"/>
			<circle class="st6" cx="19.3" cy="53.1" r="2.4"/>
			<circle class="st6" cx="59.6" cy="53.1" r="2.4"/>
			<circle class="st6" cx="39.5" cy="18.2" r="2.4"/>
			<circle class="st6" cx="74.3" cy="21.3" r="2.4"/>
		</g>
		<path class="st5" d="M155.3,144.6l-14.7-32 M120.5,84.2l20.1,28.3 M85.6,144.6l14.7-32 M120.5,84.2l-20.1,28.3 M120.5,164.7
			l-29.1-2.3 M149.5,163l-29.1,1.8 M73.2,107.3l12.4-2.9 M168.4,107.3l-13.1-2.9 M85.6,144.6L62,141.3 M155.3,144.6l24.2-3.3
			 M84.5,72.5l36,11.7 M157.1,72.5l-36.6,11.7"/>
	</g>
	<path class="st2" d="M120.8,72.6l-0.3-54.1 M73.2,107.3L22.5,89.9 M60.3,205l31.1-42.5 M181.3,205L149.5,163 M219.1,89.9
		l-50.7,17.4 M179.6,141.4l39.5-51.5 M157.1,72.6l62,17.4 M84.5,72.6l36-54.1 M157.1,72.6l-36.6-54.1 M61.9,140.6L22.5,89.9
		 M84.5,72.6l-62,17.4 M61.9,140.6L60.3,205 M120.8,183.9L60.3,205 M179.6,141.4l1.7,63.6 M120.8,183.9l60.5,21.1"/>
</g>
<path class="st7" d="M291.4,18.4l11.7-0.1l0.1,19.8L326,38l-0.1-19.8l11.7-0.1l0.3,53.1l-11.7,0.1L326,48.4l-22.7,0.1l0.1,22.9
	l-11.7,0.1L291.4,18.4z M360.8,48.5l-20.1-30.3l14.6-0.1l11.4,19.8L378.4,18l13.9-0.1l-19.8,30.5l0.1,22.6l-11.7,0.1L360.8,48.5z
	 M395.5,17.9l19.7-0.1c2.6,0,5.2,0.2,7.8,0.7c2.3,0.4,4.5,1.3,6.4,2.5c1.9,1.2,3.4,2.9,4.4,4.9c1.2,2.4,1.7,5.1,1.7,7.8
	c0.1,2.7-0.4,5.3-1.5,7.8c-0.9,2-2.3,3.7-4.1,5c-1.9,1.3-4,2.2-6.2,2.7c-2.6,0.6-5.2,0.8-7.8,0.8l-8.6,0l0.1,20.7L395.7,71
	L395.5,17.9L395.5,17.9z M407.3,40.3l7.8,0c1,0,2-0.1,3-0.3c0.9-0.2,1.8-0.5,2.6-1c0.8-0.5,1.4-1.2,1.9-2c0.5-1,0.7-2,0.7-3.1
	c0-1.2-0.3-2.3-1-3.3c-0.6-0.8-1.5-1.5-2.4-1.9c-1-0.5-2.1-0.7-3.3-0.8c-1.1-0.1-2.3-0.2-3.5-0.2l-6,0L407.3,40.3z M442.4,17.6
	l36.1-0.2l0.1,10.8l-24.4,0.1l0.1,9.9l23-0.1l0.1,10.8l-23,0.1l0.1,10.8l25.7-0.1l0.1,10.8l-37.4,0.2L442.4,17.6z M488.5,17.4
	l20.6-0.1c2.6,0,5.2,0.2,7.7,0.7c2.3,0.5,4.4,1.3,6.4,2.6c1.9,1.2,3.4,2.9,4.4,4.9c1.2,2.4,1.7,5.1,1.7,7.7c0.1,3.4-0.9,6.8-2.9,9.6
	c-2.1,2.7-5.1,4.5-8.5,5l13.6,22.3l-14,0.1l-11.2-21.2l-5.8,0l0.1,21.2l-11.7,0.1L488.5,17.4L488.5,17.4L488.5,17.4z M500.3,39.3
	l6.9,0c1.1,0,2.2-0.1,3.3-0.1c1.1-0.1,2.2-0.3,3.2-0.7c0.9-0.4,1.7-1,2.4-1.8c0.7-1,1-2.2,0.9-3.4c0.1-1.1-0.2-2.3-0.8-3.2
	c-0.5-0.8-1.3-1.4-2.1-1.8c-0.9-0.4-1.9-0.7-2.9-0.8c-1.1-0.1-2.1-0.2-3.2-0.2l-7.7,0L500.3,39.3z M536.8,17.1l11.7-0.1l0.2,42.3
	l21.7-0.1l0.1,10.8l-33.4,0.2L536.8,17.1z M576.3,16.9l36.1-0.2l0.1,10.8l-24.4,0.1l0.1,9.9l23-0.1l0.1,10.8l-23,0.1l0.1,10.8
	L614,59l0.1,10.8L576.6,70L576.3,16.9z M622.4,16.7l17.6-0.1c4.1,0,8.2,0.4,12.1,1.4c3.6,0.8,7,2.4,10,4.6c2.9,2.2,5.2,5,6.8,8.2
	c1.8,3.9,2.7,8.1,2.6,12.4c0.1,3.9-0.7,7.8-2.4,11.4c-1.5,3.2-3.8,6-6.5,8.3c-2.8,2.3-6,4-9.5,5.1c-3.7,1.2-7.5,1.8-11.3,1.8
	l-19.1,0.1L622.4,16.7z M634.3,58.9l6.1,0c2.5,0,5.1-0.3,7.5-0.9c2.2-0.5,4.2-1.4,6-2.8c1.7-1.3,3.1-3.1,4-5c1-2.4,1.5-5,1.4-7.6
	c0-2.3-0.5-4.7-1.5-6.8c-0.9-1.9-2.3-3.5-4-4.7c-1.8-1.3-3.7-2.2-5.8-2.8c-2.3-0.6-4.6-0.9-7-0.9l-6.9,0L634.3,58.9z M726.9,65.5
	c-3.4,1.8-7,3.1-10.8,4c-3.8,0.8-7.6,1.2-11.5,1.3c-3.9,0.1-7.8-0.6-11.5-1.9c-3.4-1.2-6.5-3.1-9.1-5.5c-2.6-2.5-4.7-5.5-6-8.8
	c-1.5-3.7-2.2-7.6-2.2-11.5c-0.1-4,0.6-7.9,2.1-11.6c1.3-3.3,3.3-6.3,5.9-8.8c2.6-2.5,5.7-4.4,9-5.6c3.7-1.4,7.6-2,11.5-2
	c4-0.1,7.9,0.4,11.7,1.5c3.5,1,6.8,2.8,9.4,5.2l-8.2,9c-1.5-1.6-3.4-2.9-5.4-3.7c-2.4-0.9-4.9-1.3-7.5-1.2c-2.3,0-4.6,0.4-6.8,1.3
	c-2,0.8-3.7,2-5.2,3.6c-1.5,1.6-2.6,3.4-3.3,5.5c-1.5,4.4-1.5,9.3,0.1,13.7c0.7,2,1.9,3.8,3.4,5.4c1.5,1.5,3.3,2.7,5.2,3.5
	c2.2,0.9,4.5,1.3,6.8,1.2c2.2,0,4.5-0.3,6.6-0.9c1.5-0.5,3-1,4.4-1.8l0-8.6l-9.5,0L706,37.8l20.8-0.1L726.9,65.5z M736.7,16.1
	l36.1-0.2l0.1,10.8l-24.4,0.1l0.1,9.9l23-0.1l0.1,10.8l-23,0.1l0.1,10.8l25.7-0.1l0.1,10.8l-37.4,0.2L736.7,16.1z M782.7,15.9
	l20.6-0.1c2.6,0,5.2,0.2,7.7,0.7c2.3,0.5,4.4,1.3,6.4,2.6c1.9,1.2,3.4,2.9,4.4,4.9c1.2,2.4,1.7,5.1,1.7,7.8c0.1,3.4-0.9,6.8-2.9,9.6
	c-2.1,2.7-5.1,4.5-8.5,5l13.6,22.3l-14,0.1l-11.2-21.2l-5.8,0l0.1,21.2L783,68.9L782.7,15.9L782.7,15.9z M794.5,37.8l6.9,0
	c1.1,0,2.2,0,3.3-0.1c1.1-0.1,2.2-0.3,3.2-0.7c0.9-0.4,1.7-1,2.4-1.8c0.7-1,1-2.2,0.9-3.4c0-1.1-0.2-2.3-0.8-3.2
	c-0.5-0.8-1.3-1.4-2.1-1.8c-0.9-0.4-1.9-0.7-2.9-0.8c-1.1-0.1-2.1-0.2-3.2-0.2l-7.7,0L794.5,37.8z"/>
<path class="st0" d="M291.4,100.9h14.1v103.7h-14.1V100.9z M328.3,100.9h36.5c26.5,0,33.3,16,33.3,29c0,13.2-9.8,25.6-25.5,27.4
	l29.4,47.3h-17.6L358,158.9h-15.7v45.7h-14.1V100.9z M342.3,146.6h18.5c11.1,0,22.3-2.6,22.3-16.7c0-14.1-11.1-16.7-22.3-16.7h-18.5
	V146.6z M407.4,152.8c0-30.8,22.4-54.5,54.1-54.5c31.6,0,54.1,23.7,54.1,54.5s-22.4,54.5-54.1,54.5
	C429.9,207.3,407.4,183.5,407.4,152.8z M500.6,152.8c0-22.7-15.4-41.3-39.1-41.3c-23.7,0-39.1,18.6-39.1,41.3s15.4,41.3,39.1,41.3
	C485.2,194.1,500.6,175.5,500.6,152.8z M532.5,100.9h14.1V144h53.8v-43.1h14.1v103.7h-14.1v-47.5h-53.8v47.5h-14.1V100.9z
	 M670.9,100.9h12.7l44.4,103.7h-16.4L701.3,179h-49.4l-10.3,25.6h-16.4L670.9,100.9z M696.1,166.7l-19.3-47.6h-0.3l-19.6,47.6H696.1
	L696.1,166.7z"/>
<g class="st1">
	<path class="st8" d="M172.5,78.3c-5.4,0-9.7-4.4-9.7-9.7h-22.6h-7.8c-5.4,0-9.7-4.4-9.7-9.7s4.4-9.7,9.7-9.7h7.8h65.8
		c-20.4-29.5-54.4-48.8-93-48.8C59.5,0.3,14.8,37.3,3,87.2h86.5h7.8c5.4,0,9.7,4.4,9.7,9.7s-4.4,9.7-9.7,9.7h-7.8H66.9
		c0,5.4-4.4,9.7-9.7,9.7h-7.8H0c0.1,4.9,0.6,9.7,1.3,14.4h0.1c34.4,6.3,73.6,9.8,115.1,9.8c38.7,0,75.3-3.1,107.9-8.6
		c1-6.1,1.5-12.3,1.5-18.7c0-12.2-1.9-24-5.5-35h-40.2L172.5,78.3L172.5,78.3z"/>
	<path class="st8" d="M42.5,191v10.6c19.3,15.4,43.8,24.7,70.5,24.7c26.7,0,51.2-9.2,70.5-24.7V191H42.5z"/>
	<path class="st8" d="M19.7,177.1h81.6v-13.4c-28.9,0.2-56.6,1.1-82.1,2.6v10C19.3,176.6,19.5,176.8,19.7,177.1"/>
	<path class="st8" d="M206.3,177.1c0.2-0.2,0.3-0.5,0.5-0.7v-10c-25.5-1.5-53.2-2.4-82.1-2.6v13.4L206.3,177.1L206.3,177.1z"/>
</g>
<g>
	<g id="Page-1">
		<g id="Desktop" transform="translate(-532.000000, -1231.000000)">
			<g id="Manifest" transform="translate(0.000000, 900.000000)">
				<g id="SORAMITSU-MANIFESTO" transform="translate(532.000000, 331.000000)">
					<path id="Shape_11_" class="st9" d="M768.7,175.2c7.8,0.9,15.4,2.7,22.9,5.5L790,185c-4-1.7-7.9-3.1-12.2-3.8
						c-3.5-0.9-7.2-1.5-10.8-2L768.7,175.2z M771.4,165.5c6.1,0.8,12,2.1,17.8,4l-1.4,4.3c-3-1.2-6.3-2.1-9.5-2.7
						c-2.9-0.6-5.8-1.2-8.7-1.5L771.4,165.5z M771.9,156c6.3,0.8,12.5,2,18.6,3.7l-1.4,4.3c-6.1-2-12.4-3.4-18.8-4L771.9,156z"/>
					<path id="Shape_12_" class="st9" d="M800.1,158.6c1.8,3.2,3.2,6.7,4.3,10.4l-4.3,1.4c-0.9-3.7-2.1-7.2-4-10.5L800.1,158.6z
						 M825,158.8c-0.5,1.1-0.8,2.3-0.9,3.4c-2.4,11.4-8.1,18.5-18.6,23.6c-0.8-1.5-1.8-2.9-3.1-4c3.7-1.4,7-3.4,9.9-6.1
						c2.7-2.7,4.9-5.9,6.1-9.8c1.1-2.6,1.7-5.5,1.8-8.4L825,158.8z M809.2,156.9c1.8,3.2,3.2,6.6,4.3,10.1l-4.3,1.4
						c-0.9-3.5-2.1-7-4-10.2L809.2,156.9z"/>
				</g>
			</g>
		</g>
	</g>
	<path class="st9" d="M612.1,81.4v65.2h-11.4V94.3l-16.6,38.9h-12.2l-16.5-38.8v52.2h-10.5V81.4h15.5l17.2,40.3h1.6l17.1-40.3
		L612.1,81.4L612.1,81.4z"/>
	<path class="st9" d="M629.3,81.4h11.5v65.2h-11.5V81.4L629.3,81.4z"/>
	<path class="st9" d="M701.3,91.6h-19.1v55h-11.5v-55h-19.1V81.4h49.8L701.3,91.6L701.3,91.6z"/>
	<path class="st9" d="M705.6,127.1h11.3c0,5.5,4,11.2,15.1,11.2c10.1,0,14.8-4.7,14.8-10.5c0-4.8-4.1-8-12.5-8.8l-6.2-0.5
		c-12.2-1-20.1-8-20.1-18.7c0-12.2,9.3-20.2,23.5-20.2c14.4,0,23.7,8.1,23.7,20.7h-11.3c0-5.4-3.9-10.6-12.3-10.6
		c-8.3,0-12.2,4.7-12.2,10.1c0,4.3,3.1,7.9,9.8,8.4l6.2,0.5c13.8,1.3,22.9,7.8,22.9,19c0,12.2-10.3,20.6-26.2,20.6
		C715,148.3,705.6,139.4,705.6,127.1z"/>
	<path class="st9" d="M769.5,120.5v-39H781v39.8c0,9.9,5.8,16.3,16.3,16.3c10.4,0,16.2-6.3,16.2-16.3V81.4H825v39
		c0,16.8-9.6,27.9-27.7,27.9C779.2,148.3,769.5,137.3,769.5,120.5z"/>
</g>
<g>
	<path class="st10" d="M43.9,112.9V94.3h59.8V75.2H43.9V56.7h138.2v18.6h-59.8v19.1h59.8v18.6h-59.8l60.1,89.4
		c26.6-20.7,43.7-53,43.7-89.3C226.1,50.6,175.5,0,113.1,0C50.6,0,0,50.6,0,113.1c0,36.3,17.1,68.6,43.7,89.3l60.1-89.4
		C103.8,112.9,43.9,112.9,43.9,112.9z"/>
	<path class="st10" d="M59.2,212.5c16,8.7,34.3,13.6,53.8,13.6c19.5,0,37.8-4.9,53.8-13.6l-53.8-80.2L59.2,212.5z"/>
</g>
</svg>
