<?xml version="1.0" encoding="utf-8"?>
<!-- Generator: Adobe Illustrator 27.0.1, SVG Export Plug-In . SVG Version: 6.00 Build 0)  -->
<svg version="1.1" id="xprt" xmlns="http://www.w3.org/2000/svg" xmlns:xlink="http://www.w3.org/1999/xlink" x="0px" y="0px"
	 viewBox="0 0 500 500" style="enable-background:new 0 0 500 500;" xml:space="preserve">
<style type="text/css">
	.st0{fill:#E50913;}
</style>
<path d="M398.3,229.1c0,23-5.3,44.1-15.8,63.3c-10.6,18.9-26.8,34.1-48.6,45.8c-21.9,11.7-49,17.5-81.4,17.5h-59.9v142.5H95.8v-397
	h156.6c31.7,0,58.4,5.5,80.3,16.4c21.9,10.9,38.3,26,49.2,45.2C392.9,182.2,398.3,204.2,398.3,229.1z M245.1,278.9
	c18.5,0,32.2-4.3,41.3-13c9-8.7,13.6-20.9,13.6-36.8s-4.5-28.1-13.6-36.8c-9-8.7-22.8-13-41.3-13h-52.6v99.5H245.1z"/>
<path class="st0" d="M398.3,0.7H95.8v63.9h302.6V0.7z"/>
</svg>
