<?xml version="1.0" encoding="utf-8"?>
<!-- Generator: Adobe Illustrator 26.0.1, SVG Export Plug-In . SVG Version: 6.00 Build 0)  -->
<svg version="1.1" id="Layer_1" xmlns="http://www.w3.org/2000/svg" xmlns:xlink="http://www.w3.org/1999/xlink" x="0px" y="0px"
	 viewBox="0 0 298.7 298.9" style="enable-background:new 0 0 298.7 298.9;" xml:space="preserve">
<path style="fill:#8D33E5;" d="M149.3,0.4c51.2,0,99.5,15.6,144,41.1l3.3,1.5l-1,3.5c-0.1,50.1-13.7,99.2-39.3,142.2
	c-24.8,44-60.9,80.7-104.6,106.2l-2.4,1.7l-2.6-1.8C102.5,269.2,69,233.1,43.6,188.8C18.2,144.6,2.9,95.4,2.9,44.3l-0.4-2.4l1.7-1.4
	C48.5,15,98,0.1,149.2,0.1"/>
<path style="fill:#7000DF;" d="M294.9,40.1C250.7,14.4,200.5,0.7,149.3,0.5v294.4l3.3,2c44.1-25.7,80.6-62.5,105.9-106.7
	c25.7-44,39.3-93.9,39.4-144.8v-3.6L294.9,40.1z"/>
<path style="fill:#7000DF;" d="M298.4,44.8v-3.9l-3.3-1.9C250.7,13.5,200.4,0,149.2,0S47.7,13.5,3.4,39L0,40.9v3.9
	C0.2,96,13.7,146.2,39.3,190.4c25.6,44.3,62.4,81,106.7,106.6l3.3,1.9l3.3-1.9c44.3-25.5,81.1-62.3,106.7-106.5
	C285,146.2,298.6,96,298.7,44.8H298.4z M149.1,284.1C63.2,233.9,8.2,144.1,7.6,44.6c43.3-24.3,92-37.1,141.7-37.1
	S247.7,20.3,291,44.6c-0.5,99.7-55.6,189.3-141.7,239.4L149.1,284.1z"/>
<path style="fill:#8D33E5;" d="M149.3,284C63.2,233.9,8.2,144.1,7.6,44.6C50.9,20.3,99.7,7.5,149.3,7.5V0C98.1,0,47.7,13.4,3.3,39
	L0,40.9v3.9C0.1,96,13.7,146.2,39.3,190.4c25.6,44.3,62.4,81,106.7,106.6l3.3,1.9V284z"/>
<path style="fill:#3F017F;" d="M243.1,93c0-1.1-0.2-2.3-0.6-3.3c-3.3-9.6-8.3-18.6-14.6-26.5c-1.5-2.1-3.3-4-4.9-6l-1.3-1.5
	c-0.5-0.6-1.2-1.1-1.9-1.5c-1.4-0.8-2.9-1.2-4.5-1.2c-0.8,0.1-1.5,0.2-2.3,0.5c-0.4,0.1-0.7,0.2-1,0.4c0,0-54.3,29.4-62.8,33.8
	c-8.4-4.4-62.4-34-63.7-34.1c-0.7-0.3-1.5-0.4-2.3-0.5c-1.6,0-3.2,0.4-4.5,1.2c-0.7,0.4-1.3,0.9-1.8,1.5l-1.3,1.5
	c-1.7,1.9-3.3,3.8-4.9,6c-6,7.7-10.9,16.2-14.4,25.3c-0.7,1.4-1,2.9-1,4.4c0,1.5,0.3,3.1,0.9,4.4c0.6,1.4,1.6,2.6,2.8,3.6
	c0.2,0.2,0.4,0.4,0.7,0.5l0.7,0.5l1,0.7L70,108l17,10.6l17,10.7l14.1,8.5l0.2,59.7v6.6v3.3c0,0.6,0,1.3,0,1.9
	c0.1,1.1,0.4,2.3,0.8,3.3c0.9,2,2.2,3.7,3.9,5c1.7,1.3,3.7,2.2,5.8,2.7c2.1,0.5,4.3,1,6.5,1.3c9.2,1.3,18.4,1.3,27.6,0
	c3.3-0.5,4.1-0.7,6.3-1.2c2.2-0.5,4.2-1.4,5.9-2.8c1.7-1.3,3.1-3,3.9-5c0.4-1.1,0.7-2.2,0.8-3.3c0-0.7,0-1.3,0-1.9
	c0,0,0.7-53.9,0.5-69.5l14-8.5l17.4-10.8l17.1-10.7l8.5-5.3c1.8-0.9,3.3-2.2,4.3-3.9C242.6,96.9,243.2,95,243.1,93L243.1,93z"/>
<path style="fill:#F4A900;" d="M124.6,134.4c0-5-1.1-10-3.3-14.6c-2.2-4.5-5.4-8.5-9.3-11.6c-11.2-8.9-28.6-12.1-45.5-8.5
	c-1.1,0.2-4.2-1.7-5.3-1.9c0,0-0.3-0.2,0.3,0.3c0.6,0.5,0.5,1,0.6,1.1l62.4,35.8V134.4z"/>
<path style="fill:#78B6E4;" d="M179.2,95.2c13.3-5.2,24.8-18.6,30.1-35c0.4-1.2,2.5-1.5,3.3-2.3c0.3-0.2-0.7-1.3-0.4-1.5l-63,36.3
	l0.8,0.4c4.4,2.5,9.2,4.1,14.3,4.4c5,0.4,10.1-0.4,14.8-2.3H179.2z"/>
<path style="fill:#20B5AC;" d="M172.9,136.1c-4.3,2.5-8,6-10.8,10.2c-2.8,4.2-4.5,8.9-5.2,13.9c-2,14.1,3.9,30.7,15.5,43.3
	c0.9,0.9,0.8,2.7,1,3.9c0,0.3,0.4,0.3,0.7,0.5l0.3-72.5L172.9,136.1z"/>
<path style="fill:#3F017F;" d="M159.9,162.8c0.9-5,2.9-9.6,5.8-13.7c2.9-4.1,6.8-7.4,11.2-9.8l-2.6-4l-1.4,0.9
	c-4.3,2.5-8,6-10.8,10.2c-2.8,4.2-4.5,8.9-5.2,13.9c-1.7,12.3,2.6,26.7,11.6,38.6C161.8,188.1,158.7,175.5,159.9,162.8L159.9,162.8z
	"/>
<path style="fill:#3F017F;" d="M179.8,91.5c-4.7,1.7-9.8,2.3-14.8,1.8c-5-0.5-9.8-2.2-14.1-4.9l-2.3,4.2l1.4,0.9
	c4.3,2.5,9.2,4,14.2,4.3c5,0.4,10-0.4,14.6-2.3c13.2-6,23.8-16.5,29.9-29.7c0-0.2-0.9-1.3-1.8,0.7C200.9,77.6,191.4,86.4,179.8,91.5
	L179.8,91.5z"/>
<path style="fill:#3F017F;" d="M108.4,110.4c3.7,3,6.7,6.9,8.6,11.3c1.9,4.4,2.7,9.2,2.4,14l4.8,1.5l1.5-1.6
	c0.3-10-4.1-22.7-12-29.2c-9.2-7.8-28.6-10.4-41.6-8.4c-0.5,0-0.7,0.8,2.7,0.7C87,98.5,98.9,102.6,108.4,110.4L108.4,110.4z"/>
<path style="fill:#FFFFFF;" d="M149.3,216.2c-6.7,0-13.4-0.9-19.9-2.6c-1.4-0.4-2.6-1.2-3.4-2.3c-0.9-1.1-1.4-2.5-1.4-3.9v-73
	c0-5-1.1-10-3.2-14.5c-2.1-4.5-5.3-8.5-9.2-11.6c-11.2-8.9-28.6-12.1-45.5-8.5c-0.8,0.2-1.7,0.2-2.6,0.1c-0.9-0.1-1.7-0.5-2.4-0.9
	c-1.5-0.9-2.6-2.4-3-4.1c-0.3-1.3-0.2-2.6,0.3-3.8c2.1-6,4.8-11.9,7.9-17.5c3.3-5.8,7.3-11.2,12.1-15.9c1-1,2.4-1.6,3.8-1.8
	c1.4-0.2,2.9,0.1,4.1,0.8l61.5,35.4l1.6,1c4.4,2.5,9.2,4.1,14.3,4.4c5,0.4,10.1-0.4,14.7-2.4c13.3-5.2,24.8-18.6,30.1-35
	c0.3-0.8,0.7-1.6,1.2-2.3c0.6-0.7,1.3-1.2,2.1-1.6c0.8-0.4,1.6-0.7,2.5-0.8c0.9-0.1,1.8,0,2.6,0.3c1.2,0.4,2.3,1.1,3.1,2.1
	c4.2,4.9,7.9,10.1,11.2,15.7c3.4,5.8,6,12,7.7,18.5c0.3,1.4,0.2,2.9-0.3,4.2c-0.6,1.3-1.5,2.4-2.8,3.1l-61.9,35.7l-1.7,1
	c-4.3,2.5-8,6-10.7,10.2s-4.6,8.9-5.2,13.8c-2,14.1,3.9,30.7,15.5,43.3c0.8,0.9,1.4,2,1.6,3.1c0.2,1.2,0.2,2.4-0.2,3.5
	c-0.4,1.1-1.1,2.1-2,2.9c-1,0.8-2.1,1.3-3.3,1.5C162.1,215.5,155.7,216.1,149.3,216.2L149.3,216.2z"/>
</svg>
