<svg enable-background="new 0 0 386.4 335.5" viewBox="0 0 386.4 335.5" xmlns="http://www.w3.org/2000/svg"><g fill="#8c91c7"><path d="m289 0-193.2.9-95.8 167.8 97.4 166.9 193.2-.9 95.8-167.8zm-10.6 313.8-169 .8-85.2-146 83.8-146.8 169-.8 85.2 146z"/><path d="m307.1 133.6h-11.2l-20.7-108-117.1 37v-10.3l115.8-36.3 9.3 4.3z"/><path d="m126.9 44-7.3 4.6-19-29.3h10.3z"/><path d="m128.9 93h9.7v145h-9.7z"/><path d="m103.2 311.3 5.8 10.1 12.6-23.8-6.4-7.3z"/><path d="m278.9 321.1-2.8.3-115.4-39.6 2.5-8.2 110.4 36.8 23-110.8h9.6z"/><path d="m365.4 172h-28l.6-9.9 27.6-.1z"/><path d="m161.2 257.3 119.7-68.6-6.4-7.7-117.5 68.5z"/><path d="m107.3 250.2-89.1-78.2 1.4-12 92.8-82.4 5.2 8-90.7 82.2 86.8 75.7z"/><path d="m277.9 155.2-122-71.1 4.7-8.4 121.6 70.9z"/></g><path d="m306.2 130.3c-20.4 0-37 16.6-37 37s16.6 37 37 37 37-16.6 37-37-16.5-37-37-37zm0 64.4c-15.1 0-27.3-12.2-27.3-27.3s12.2-27.3 27.3-27.3 27.3 12.2 27.3 27.3-12.2 27.3-27.3 27.3z" fill="#f43b7b"/><path d="m135.6 38c-16.4 0-29.7 13.3-29.7 29.7s13.3 29.7 29.7 29.7 29.7-13.3 29.7-29.7c-.1-16.5-13.3-29.7-29.7-29.7zm0 50.6c-11.6 0-21-9.4-21-21s9.4-21 21-21 21 9.4 21 21-9.4 21-21 21z" fill="#5aa2da"/><path d="m133.5 233.6c-19 0-34.5 15.4-34.5 34.5s15.4 34.5 34.5 34.5c19 0 34.5-15.4 34.5-34.5s-15.4-34.5-34.5-34.5zm0 59c-13.6 0-24.5-11-24.5-24.5 0-13.6 11-24.5 24.5-24.5 13.6 0 24.5 11 24.5 24.5.1 13.5-10.9 24.5-24.5 24.5z" fill="#f66f4d"/></svg>