<?xml version="1.0" encoding="utf-8"?>
<!-- Generator: Adobe Illustrator 24.0.0, SVG Export Plug-In . SVG Version: 6.00 Build 0)  -->
<svg version="1.1" id="Layer_1" xmlns="http://www.w3.org/2000/svg" xmlns:xlink="http://www.w3.org/1999/xlink" x="0px" y="0px"
	 viewBox="0 0 192 192" style="enable-background:new 0 0 192 192;" xml:space="preserve">
<style type="text/css">
	.st0{fill:url(#SVGID_1_);}
	.st1{fill-rule:evenodd;clip-rule:evenodd;fill:url(#SVGID_2_);}
	.st2{fill-rule:evenodd;clip-rule:evenodd;fill:url(#SVGID_3_);}
	.st3{fill-rule:evenodd;clip-rule:evenodd;fill:url(#SVGID_4_);}
	.st4{fill-rule:evenodd;clip-rule:evenodd;fill:url(#SVGID_5_);}
	.st5{fill-rule:evenodd;clip-rule:evenodd;fill:url(#SVGID_6_);}
	.st6{fill-rule:evenodd;clip-rule:evenodd;fill:url(#SVGID_7_);}
	.st7{fill-rule:evenodd;clip-rule:evenodd;fill:url(#SVGID_8_);}
	.st8{fill-rule:evenodd;clip-rule:evenodd;fill:url(#SVGID_9_);}
	.st9{fill-rule:evenodd;clip-rule:evenodd;fill:url(#SVGID_10_);}
	.st10{fill-rule:evenodd;clip-rule:evenodd;fill:url(#SVGID_11_);}
	.st11{fill-rule:evenodd;clip-rule:evenodd;fill:url(#SVGID_12_);}
	.st12{fill-rule:evenodd;clip-rule:evenodd;fill:url(#SVGID_13_);}
	.st13{fill-rule:evenodd;clip-rule:evenodd;fill:url(#SVGID_14_);}
	.st14{fill-rule:evenodd;clip-rule:evenodd;fill:url(#SVGID_15_);}
	.st15{fill-rule:evenodd;clip-rule:evenodd;fill:url(#SVGID_16_);}
	.st16{fill-rule:evenodd;clip-rule:evenodd;fill:url(#SVGID_17_);}
</style>
<linearGradient id="SVGID_1_" gradientUnits="userSpaceOnUse" x1="-91.4561" y1="643.5232" x2="209.6929" y2="1058.7672" gradientTransform="matrix(1 0 0 1 0 -806)">
	<stop  offset="0" style="stop-color:#000000"/>
	<stop  offset="1" style="stop-color:#050606"/>
</linearGradient>
<circle class="st0" cx="96" cy="96" r="96"/>
<linearGradient id="SVGID_2_" gradientUnits="userSpaceOnUse" x1="97.2327" y1="868.2606" x2="87.9184" y2="848.9413" gradientTransform="matrix(1 0 0 1 0 -806)">
	<stop  offset="0" style="stop-color:#46EFFA"/>
	<stop  offset="0.9369" style="stop-color:#2000E3"/>
</linearGradient>
<path class="st1" d="M108.2,59.6L95.9,57l-12.2,2.6L96,45L108.2,59.6z"/>
<linearGradient id="SVGID_3_" gradientUnits="userSpaceOnUse" x1="108.6237" y1="884.9746" x2="87.0731" y2="859.9857" gradientTransform="matrix(1 0 0 1 0 -806)">
	<stop  offset="0" style="stop-color:#46EFFA"/>
	<stop  offset="0.9369" style="stop-color:#2000E3"/>
</linearGradient>
<path class="st2" d="M108.7,59.6L96.9,82L96,83.8L83.6,59.6L96,57L108.7,59.6z"/>
<linearGradient id="SVGID_4_" gradientUnits="userSpaceOnUse" x1="113.4696" y1="891.8318" x2="94.6726" y2="866.6028" gradientTransform="matrix(1 0 0 1 0 -806)">
	<stop  offset="0" style="stop-color:#46EFFA"/>
	<stop  offset="0.9369" style="stop-color:#2000E3"/>
</linearGradient>
<path class="st3" d="M122.1,76L96,83.8l12.3-24.1L122.1,76z"/>
<linearGradient id="SVGID_5_" gradientUnits="userSpaceOnUse" x1="123.1612" y1="878.6277" x2="98.4632" y2="849.0623" gradientTransform="matrix(1 0 0 1 0 -806)">
	<stop  offset="0" style="stop-color:#46EFFA"/>
	<stop  offset="0.9369" style="stop-color:#2000E3"/>
</linearGradient>
<path class="st4" d="M125.8,70.8l-3.7,5.1L96,45.1L125.8,70.8z"/>
<linearGradient id="SVGID_6_" gradientUnits="userSpaceOnUse" x1="120.1103" y1="903.4759" x2="101.0073" y2="878.1993" gradientTransform="matrix(1 0 0 1 0 -806)">
	<stop  offset="0" style="stop-color:#46EFFA"/>
	<stop  offset="0.9369" style="stop-color:#2000E3"/>
</linearGradient>
<path class="st5" d="M122.1,76L96,83.7l8.1,16.7L122.1,76z"/>
<linearGradient id="SVGID_7_" gradientUnits="userSpaceOnUse" x1="141.9993" y1="898.2668" x2="118.9333" y2="880.8912" gradientTransform="matrix(1 0 0 1 0 -806)">
	<stop  offset="0" style="stop-color:#46EFFA"/>
	<stop  offset="0.9369" style="stop-color:#2000E3"/>
</linearGradient>
<path class="st6" d="M140,100.2L122.1,76l3.8-5.3L140,100.2z"/>
<linearGradient id="SVGID_8_" gradientUnits="userSpaceOnUse" x1="142.4238" y1="914.8436" x2="113.0938" y2="900.6379" gradientTransform="matrix(1 0 0 1 0 -806)">
	<stop  offset="0" style="stop-color:#46EFFA"/>
	<stop  offset="0.9369" style="stop-color:#2000E3"/>
</linearGradient>
<path class="st7" d="M122.1,122V76l18,24.3L122.1,122z"/>
<linearGradient id="SVGID_9_" gradientUnits="userSpaceOnUse" x1="127.8954" y1="907.7473" x2="98.5269" y2="893.572" gradientTransform="matrix(1 0 0 1 0 -806)">
	<stop  offset="0" style="stop-color:#46EFFA"/>
	<stop  offset="0.9369" style="stop-color:#2000E3"/>
</linearGradient>
<path class="st8" d="M122.1,122V75.9l-18,24.4L122.1,122z"/>
<linearGradient id="SVGID_10_" gradientUnits="userSpaceOnUse" x1="145.8319" y1="930.9397" x2="116.9719" y2="916.1317" gradientTransform="matrix(1 0 0 1 0 -806)">
	<stop  offset="0" style="stop-color:#46EFFA"/>
	<stop  offset="0.9369" style="stop-color:#2000E3"/>
</linearGradient>
<path class="st9" d="M140.2,142.6v-42.4L122.1,122l18.1,21.9V142.6z"/>
<linearGradient id="SVGID_11_" gradientUnits="userSpaceOnUse" x1="89.2245" y1="890.4767" x2="70.4282" y2="865.2476" gradientTransform="matrix(1 0 0 1 0 -806)">
	<stop  offset="0" style="stop-color:#46EFFA"/>
	<stop  offset="0.9369" style="stop-color:#2000E3"/>
</linearGradient>
<path class="st10" d="M69.9,76L96,83.8L83.7,59.6L69.9,76z"/>
<linearGradient id="SVGID_12_" gradientUnits="userSpaceOnUse" x1="93.1909" y1="878.7591" x2="68.4928" y2="849.1936" gradientTransform="matrix(1 0 0 1 0 -806)">
	<stop  offset="0" style="stop-color:#46EFFA"/>
	<stop  offset="0.9369" style="stop-color:#2000E3"/>
</linearGradient>
<path class="st11" d="M66.2,70.8l3.7,5.1L96,45.1L66.2,70.8z"/>
<linearGradient id="SVGID_13_" gradientUnits="userSpaceOnUse" x1="95.3096" y1="902.4954" x2="76.2069" y2="877.2188" gradientTransform="matrix(1 0 0 1 0 -806)">
	<stop  offset="0" style="stop-color:#46EFFA"/>
	<stop  offset="0.9369" style="stop-color:#2000E3"/>
</linearGradient>
<path class="st12" d="M69.9,76L96,83.7l-8.1,16.7L69.9,76z"/>
<linearGradient id="SVGID_14_" gradientUnits="userSpaceOnUse" x1="70.5352" y1="900.1017" x2="47.4687" y2="882.726" gradientTransform="matrix(1 0 0 1 0 -806)">
	<stop  offset="0" style="stop-color:#46EFFA"/>
	<stop  offset="0.9369" style="stop-color:#2000E3"/>
</linearGradient>
<path class="st13" d="M52,100.2L69.9,76l-3.8-5.3L52,100.2z"/>
<linearGradient id="SVGID_15_" gradientUnits="userSpaceOnUse" x1="75.6497" y1="907.7848" x2="46.3196" y2="893.5791" gradientTransform="matrix(1 0 0 1 0 -806)">
	<stop  offset="0" style="stop-color:#46EFFA"/>
	<stop  offset="0.9369" style="stop-color:#2000E3"/>
</linearGradient>
<path class="st14" d="M69.9,122V76l-18,24.3L69.9,122z"/>
<linearGradient id="SVGID_16_" gradientUnits="userSpaceOnUse" x1="90.2178" y1="914.757" x2="60.8498" y2="900.5817" gradientTransform="matrix(1 0 0 1 0 -806)">
	<stop  offset="0" style="stop-color:#46EFFA"/>
	<stop  offset="0.9369" style="stop-color:#2000E3"/>
</linearGradient>
<path class="st15" d="M69.9,122V75.9l18,24.4L69.9,122z"/>
<linearGradient id="SVGID_17_" gradientUnits="userSpaceOnUse" x1="71.8137" y1="938.319" x2="42.9537" y2="923.511" gradientTransform="matrix(1 0 0 1 0 -806)">
	<stop  offset="0" style="stop-color:#46EFFA"/>
	<stop  offset="0.9369" style="stop-color:#2000E3"/>
</linearGradient>
<path class="st16" d="M51.8,142.6v-42.4L69.9,122l-18.1,21.9C51.8,143.9,51.8,142.6,51.8,142.6z"/>
</svg>
