<?xml version="1.0" encoding="utf-8"?>
<!-- Generator: Adobe Illustrator 27.7.0, SVG Export Plug-In . SVG Version: 6.00 Build 0)  -->
<svg version="1.1" id="Layer_1" xmlns="http://www.w3.org/2000/svg" xmlns:xlink="http://www.w3.org/1999/xlink" x="0px" y="0px"
	 viewBox="0 0 500 500" style="enable-background:new 0 0 500 500;" xml:space="preserve">
<style type="text/css">
	.st0{fill:#FFFFFF;}
	.st1{fill:#0090BF;}
	.st2{fill:url(#SVGID_1_);}
	.st3{fill-rule:evenodd;clip-rule:evenodd;fill:#FFFFFF;}
</style>
<g>
	<path class="st0" d="M0,111.1C0,49.7,49.7,0,111.1,0h277.8C450.3,0,500,49.7,500,111.1v277.8c0,61.4-49.7,111.1-111.1,111.1H111.1
		C49.7,500,0,450.3,0,388.9V111.1z"/>
	<path class="st1" d="M0,111.1C0,49.7,49.7,0,111.1,0h277.8C450.3,0,500,49.7,500,111.1v277.8c0,61.4-49.7,111.1-111.1,111.1H111.1
		C49.7,500,0,450.3,0,388.9V111.1z"/>
	
		<linearGradient id="SVGID_1_" gradientUnits="userSpaceOnUse" x1="-2.719459e-05" y1="-0.1101" x2="500" y2="499.8899" gradientTransform="matrix(1 0 0 -1 0 499.8898)">
		<stop  offset="0" style="stop-color:#5500FF"/>
		<stop  offset="1" style="stop-color:#5500FF;stop-opacity:0"/>
	</linearGradient>
	<path class="st2" d="M0,111.1C0,49.7,49.7,0,111.1,0h277.8C450.3,0,500,49.7,500,111.1v277.8c0,61.4-49.7,111.1-111.1,111.1H111.1
		C49.7,500,0,450.3,0,388.9V111.1z"/>
	<path class="st3" d="M227.2,90.4c51.1,7.3,89.1,41.1,95.1,96.7H300l50,44.4l50-44.4h-24.1c-5.9-66-64-98.1-127-98.1
		C241.7,88.9,234.4,89.4,227.2,90.4z M258.2,144.1c-13.6-12.6-32.1-19.5-54.1-19.5c-36.1,0-71.3,12.9-71.3,54.4
		c0,34.6,39.7,43.2,84.1,52.8c56.1,12.1,119.5,25.7,119.5,95.6c0,59.2-50.8,87.5-102.3,93.6c6.8,0.9,13.6,1.3,20.6,1.3
		c86.9,0,132.4-43.7,132.4-102.1c0-71.3-70-87.2-94-92.6l-0.4-0.1l-2.3-0.6c-77.7-19.5-92.6-23.3-92.6-47.5
		c0-26.7,25.8-36.1,48.1-36.1C250.1,143.3,254.2,143.5,258.2,144.1z M120.8,298.1c0,53.5,44.6,88.4,92.7,88.4
		c24.7,0,51.1-5,66.7-20.8c-7.9,1.6-15.8,2.1-22.8,2.1c-37.4,0-70.4-27.4-70.4-69.7h24.1l-55.6-55.6L100,298.1H120.8z"/>
</g>
</svg>
