<?xml version="1.0" encoding="utf-8"?>
<!-- Generator: Adobe Illustrator 26.2.1, SVG Export Plug-In . SVG Version: 6.00 Build 0)  -->
<svg version="1.1" id="Layer_1" xmlns="http://www.w3.org/2000/svg" xmlns:xlink="http://www.w3.org/1999/xlink" x="0px" y="0px"
	 viewBox="0 0 500 500" style="enable-background:new 0 0 500 500;" xml:space="preserve">
<style type="text/css">
	.st0{display:none;}
	.st1{display:inline;}
	.st2{clip-path:url(#SVGID_00000139974908120530827000000002700354441149900217_);fill:none;}
	.st3{clip-path:url(#SVGID_00000177464660949941053360000012754069626836138654_);fill:#CE1111;}
	.st4{display:none;fill:#752525;}
	.st5{fill:#1111FF;}
</style>
<g class="st0">
	<g class="st1">
		<g>
			<defs>
				<rect id="SVGID_1_" x="-529.7" y="101.4" width="1353.7" height="315"/>
			</defs>
			<clipPath id="SVGID_00000132778040363933151980000015302665997131357056_">
				<use xlink:href="#SVGID_1_"  style="overflow:visible;"/>
			</clipPath>
			
				<rect x="-529.7" y="101.4" style="clip-path:url(#SVGID_00000132778040363933151980000015302665997131357056_);fill:none;" width="1353.7" height="315"/>
		</g>
	</g>
	<g class="st1">
		<g>
			<defs>
				<rect id="SVGID_00000120527195927279140230000001834029928127982494_" x="-529.7" y="101.4" width="1353.7" height="315"/>
			</defs>
			<clipPath id="SVGID_00000053511529139786472730000013388052326860111753_">
				<use xlink:href="#SVGID_00000120527195927279140230000001834029928127982494_"  style="overflow:visible;"/>
			</clipPath>
			<path style="clip-path:url(#SVGID_00000053511529139786472730000013388052326860111753_);fill:#CE1111;" d="M-296.6,337.8v-19.2
				c0-4.2-3.5-7.7-7.7-7.7h-87.8l92.4-112.8v-26.4h-137.1c-4.2,0-7.7,3.5-7.7,7.7v19.2c0,4.2,3.5,7.7,7.7,7.7h83.1l-92.4,112.8v26.4
				h141.8C-300.1,345.5-296.6,342-296.6,337.8"/>
		</g>
	</g>
</g>
<path class="st4" d="M-469.8,414.4h196.7c31.5,0,57.2-25.6,57.3-57.1V160.5c0-31.5-25.7-57.2-57.2-57.2h-196.8
	c-31.5,0-57.2,25.7-57.2,57.2v196.7C-527,388.7-501.3,414.4-469.8,414.4 M-489.7,355.6V162.2c0-11.9,9.7-21.6,21.6-21.6h193.4
	c11.9,0,21.6,9.7,21.6,21.6v193.4c0,11.9-9.7,21.6-21.6,21.6h-193.4C-480,377.2-489.7,367.5-489.7,355.6"/>
<path class="st5" d="M90,30.2v65.4c0,3.7,3,6.6,6.6,6.6h164.7L3.2,360.2h120.1l258.1-258.1V102c8.5-8.4,13.9-19.9,13.9-32.8
	c0-24-18.5-43.7-42-45.5v-0.2h-3.7H96.8C93,23.5,90,26.5,90,30.2z"/>
<path class="st5" d="M409.8,469.8v-65.4c0-3.7-3-6.6-6.6-6.6H238.7l258.1-258.1H376.5L118.4,397.9v0.2c-8.5,8.4-13.9,19.9-13.9,32.8
	c0,24,18.5,43.7,42,45.5v0.2h3.7h253C406.8,476.6,409.8,473.5,409.8,469.8z"/>
</svg>
