<!-- Generated by IcoMoon.io -->
<svg version="1.1" xmlns="http://www.w3.org/2000/svg" width="1024" height="1024" viewBox="0 0 1024 1024">
<title></title>
<g id="icomoon-ignore">
</g>
<path d="M430.261 440.586c-25.812 0-49.904-14.627-61.949-37.858-17.208-33.556-3.441-75.716 30.975-92.925 9.465-5.162 20.65-7.744 30.975-7.744 25.812 0 49.904 14.627 61.949 37.858 17.208 33.556 3.441 75.716-30.114 92.925-10.325 5.162-20.65 7.744-31.835 7.744zM349.382 581.693c-1.721 0-2.582 0-4.302 0-37.858-2.582-67.112-35.277-64.531-73.135 1.721-37.858 34.417-67.112 73.135-64.531 37.858 1.721 67.112 34.417 64.531 73.135-1.721 35.277-31.835 64.531-68.833 64.531zM431.121 721.941c-13.767 0-26.673-4.302-37.858-11.185-15.488-10.325-25.812-25.812-29.255-43.881s0-36.137 9.465-51.625c12.906-19.79 34.417-30.975 57.647-30.975 13.767 0 26.673 4.302 37.858 11.185 15.488 10.325 25.812 25.812 30.114 43.881 3.441 18.068 0 36.137-9.465 51.625-13.767 18.929-35.277 30.975-58.508 30.975zM593.739 721.941c-25.812 0-49.904-14.627-61.949-37.858-8.604-16.347-9.465-35.277-4.302-52.485 6.023-17.208 18.068-31.835 34.417-39.579 9.465-5.162 20.65-7.744 30.975-7.744 25.812 0 49.904 14.627 61.949 37.858 17.208 33.556 3.441 75.716-30.975 92.925-8.604 4.302-19.79 6.883-30.114 6.883zM674.618 580.833c-1.721 0-2.582 0-4.302 0-37.858-1.721-67.112-34.417-64.531-73.135 2.582-37.858 34.417-67.112 73.135-65.391 18.068 0.861 35.277 9.465 47.323 23.231s18.068 31.835 17.208 49.904c-1.721 36.997-32.696 65.391-68.833 65.391zM592.879 439.725c-13.767 0-26.673-4.302-37.858-11.185-31.835-20.65-40.44-63.67-19.79-95.505 12.906-19.79 34.417-30.975 57.647-30.975 13.767 0 26.673 4.302 37.858 11.185 31.835 20.65 40.44 63.67 19.79 95.505-12.906 19.79-34.417 30.975-57.647 30.975zM361.428 184.183c8.604 17.208 1.721 37.858-15.488 46.462s-37.858 1.721-46.462-15.488c-8.604-17.208-1.721-37.858 15.488-46.462s37.858-1.721 46.462 15.488zM152.348 478.444c18.929 0.861 33.556 17.208 32.696 36.137s-17.208 33.556-36.137 32.696c-18.929-0.861-33.556-17.208-32.696-36.137s17.208-33.556 36.137-32.696zM302.92 806.261c10.325-15.488 31.835-20.65 47.323-9.465 16.347 10.325 20.65 31.835 10.325 47.323s-31.835 20.65-47.323 10.325c-16.347-11.185-20.65-31.835-10.325-48.183zM662.572 839.817c-8.604-17.208-1.721-37.858 15.488-46.462s37.858-1.721 46.462 15.488c8.604 17.208 1.721 37.858-15.488 46.462s-37.858 1.721-46.462-15.488zM871.652 545.556c-18.929-0.861-33.556-17.208-32.696-36.137s17.208-33.556 36.137-32.696c18.929 0.861 33.556 17.208 32.696 36.137s-17.208 33.556-36.137 32.696zM721.080 217.739c-10.325 16.347-31.835 20.65-47.323 10.325-16.347-10.325-20.65-31.835-10.325-47.323 10.325-16.347 31.835-20.65 47.323-10.325 16.347 10.325 20.65 30.975 10.325 47.323zM285.712 78.351c5.162 11.185 0.861 24.091-9.465 30.114-11.185 5.162-24.091 0.861-30.114-9.465-5.162-11.185-0.861-24.091 9.465-30.114 11.185-6.023 24.952-1.721 30.114 9.465zM23.285 490.489c12.046 0.861 21.511 11.185 20.65 23.231s-11.185 21.511-23.231 20.65c-12.046-0.861-21.511-11.185-20.65-23.231s11.185-20.65 23.231-20.65zM249.574 924.138c6.883-10.325 20.65-12.906 30.975-6.023s12.906 20.65 6.023 30.975c-6.883 10.325-20.65 12.906-30.975 6.023s-12.906-20.65-6.023-30.975zM738.288 945.648c-5.162-11.185-0.861-24.091 9.465-30.114 11.185-5.162 24.091-0.861 30.114 9.465 5.162 11.185 0.861 24.091-9.465 30.114-11.185 6.023-24.952 1.721-30.114-9.465zM1000.714 533.511c-12.046-0.861-21.511-11.185-20.65-23.231s11.185-21.511 23.231-20.65c12.046 0.861 21.511 11.185 20.65 23.231-0.861 11.185-11.185 20.65-23.231 20.65zM774.426 99.861c-6.883 10.325-20.65 12.906-30.975 6.023s-12.906-20.65-6.023-30.975c6.883-10.325 20.65-12.906 30.975-6.023s12.906 20.65 6.023 30.975zM292.595 339.917c18.929 12.046 24.091 36.997 12.046 55.926s-36.997 24.091-55.926 12.046c-18.929-12.046-24.091-36.997-12.046-55.926 12.046-19.79 37.858-24.952 55.926-12.046zM253.016 615.249c19.79-10.325 44.741-1.721 54.206 18.068 10.325 19.79 1.721 44.741-18.068 54.206-19.79 10.325-44.741 1.721-54.206-18.068-10.325-19.79-1.721-43.881 18.068-54.206zM468.98 788.193c0.861-22.371 20.65-39.579 43.020-37.858 22.371 0.861 39.579 20.65 37.858 43.020-0.861 22.371-20.65 39.579-43.020 37.858-21.511-1.721-38.718-20.65-37.858-43.020zM731.405 684.942c-18.929-12.046-24.091-36.997-12.046-55.926s36.997-24.091 55.926-12.046c18.929 12.046 24.091 36.997 12.046 55.926s-37.858 24.091-55.926 12.046zM770.984 408.751c-19.79 10.325-44.741 1.721-54.206-18.068-10.325-19.79-1.721-44.741 18.068-54.206 19.79-10.325 44.741-1.721 54.206 18.068 10.325 19.79 1.721 43.881-18.068 54.206zM551.579 235.807c-0.861 22.371-20.65 39.579-43.020 37.858-22.371-0.861-39.579-20.65-37.858-43.020 0.861-22.371 20.65-39.579 43.020-37.858s39.579 20.65 37.858 43.020zM142.023 266.783c12.906 8.604 16.347 25.812 7.744 39.579-8.604 12.906-25.812 17.208-39.579 7.744-12.906-8.604-16.347-25.812-7.744-39.579 8.604-12.906 26.673-16.347 39.579-7.744zM114.49 709.895c13.767-6.883 30.975-1.721 37.858 12.906 6.883 13.767 1.721 30.975-12.906 37.858-13.767 6.883-30.975 1.721-37.858-12.906-6.883-13.767-0.861-30.975 12.906-37.858zM481.886 955.112c0.861-15.488 14.627-27.533 30.114-26.673s27.533 14.627 26.673 30.114c-0.861 15.488-14.627 27.533-30.114 26.673s-27.533-14.627-26.673-30.114zM881.977 757.217c-12.906-8.604-16.347-25.812-7.744-39.579 8.604-12.906 25.812-17.208 39.579-8.604 12.906 8.604 16.347 25.812 7.744 39.579s-26.673 17.208-39.579 8.604zM909.51 314.105c-13.767 6.883-30.975 1.721-37.858-12.906-6.883-13.767-1.721-30.975 12.906-37.858 13.767-6.883 30.975-1.721 37.858 12.906 6.883 13.767 0.861 30.975-12.906 37.858zM539.533 68.887c-0.861 15.488-14.627 27.533-30.114 26.673s-27.533-14.627-26.673-30.114c0.861-15.488 14.627-27.533 30.114-26.673s27.533 14.627 26.673 30.114z"></path>
</svg>
