<!-- Generated by IcoMoon.io -->
<svg version="1.1" xmlns="http://www.w3.org/2000/svg" width="1024" height="1024" viewBox="0 0 1024 1024">
<title></title>
<g id="icomoon-ignore">
</g>
<path d="M307.503 208.157c24.005-24.005 56.562-37.49 90.51-37.49h156.654c23.565 0 42.667 19.103 42.667 42.667s-19.102 42.667-42.667 42.667h-156.654c-11.316 0-22.168 4.495-30.17 12.497l-35.346 35.346c-24.005 24.005-56.562 37.49-90.51 37.49h-71.32c-23.564 0-42.667 19.103-42.667 42.667v426.667c0 23.565 19.103 42.667 42.667 42.667h597.333c23.565 0 42.667-19.102 42.667-42.667v-298.667c0-23.565 19.102-42.667 42.667-42.667s42.667 19.102 42.667 42.667v298.667c0 70.694-57.306 128-128 128h-597.333c-70.692 0-128-57.306-128-128v-426.667c0-70.692 57.308-128 128-128h71.32c11.316 0 22.168-4.495 30.17-12.497zM256 597.333c0-117.82 95.513-213.333 213.333-213.333s213.333 95.514 213.333 213.333-95.514 213.333-213.333 213.333c-117.821 0-213.333-95.514-213.333-213.333zM469.333 469.333c-70.692 0-128 57.306-128 128s57.308 128 128 128c70.694 0 128-57.306 128-128s-57.306-128-128-128zM682.667 213.333c0-23.564 19.102-42.667 42.667-42.667h256c23.565 0 42.667 19.103 42.667 42.667s-19.102 42.667-42.667 42.667h-256c-23.565 0-42.667-19.103-42.667-42.667zM853.333 42.667c23.565 0 42.667 19.103 42.667 42.667v256c0 23.564-19.102 42.667-42.667 42.667s-42.667-19.103-42.667-42.667v-256c0-23.564 19.102-42.667 42.667-42.667z"></path>
</svg>
