<?xml version="1.0" encoding="utf-8"?>
<!-- Generator: Adobe Illustrator 21.0.2, SVG Export Plug-In . SVG Version: 6.00 Build 0)  -->
<svg version="1.1" id="Layer_1" xmlns="http://www.w3.org/2000/svg" xmlns:xlink="http://www.w3.org/1999/xlink" x="0px" y="0px"
	 viewBox="0 0 32 32" style="enable-background:new 0 0 32 32;" xml:space="preserve">
<style type="text/css">
	.st0{fill:#F44336;}
	.st1{fill:#7CB342;}
</style>
<path class="st0" d="M24.7,18H7.3c-0.3,0-0.6,0.1-0.9,0.4C6.1,18.7,6,19,6,19.3c0,0.4,0.1,0.7,0.4,0.9l8.7,9.3
	c0.2,0.3,0.5,0.4,0.9,0.4s0.6-0.1,0.9-0.4l8.7-9.3c0.2-0.3,0.4-0.6,0.4-0.9c0-0.4-0.1-0.7-0.4-0.9C25.4,18.1,25.1,18,24.7,18z"/>
<path class="st1" d="M7.3,14h17.5c0.3,0,0.6-0.1,0.9-0.4c0.2-0.3,0.4-0.6,0.4-0.9c0-0.4-0.1-0.7-0.4-0.9l-8.7-9.3
	C16.6,2.1,16.3,2,16,2c-0.3,0-0.6,0.1-0.9,0.4l-8.7,9.3C6.1,12,6,12.3,6,12.7c0,0.4,0.1,0.7,0.4,0.9C6.6,13.9,6.9,14,7.3,14z"/>
</svg>
