<!-- Generated by IcoMoon.io -->
<svg version="1.1" xmlns="http://www.w3.org/2000/svg" width="1024" height="1024" viewBox="0 0 1024 1024">
<title></title>
<g id="icomoon-ignore">
</g>
<path d="M291.26 974.074l24.002-110.486c26.77-123.23-67.454-239.626-193.984-239.626h-109.946c34.674 154.836 139.71 283.226 279.928 350.112z"></path>
<path d="M340.48 994.122c54.164 19.342 112.534 29.878 173.374 29.878 245.184 0 450.26-171.114 501.524-400.038h-335.408c-151.188 0-281.902 105.076-313.888 252.32l-25.6 117.84z"></path>
<path d="M1024.122 572.758c2.368-19.938 3.586-40.23 3.586-60.806 0-268.622-207.582-488.936-471.616-510.342l-72.020 331.526c-26.772 123.228 67.452 239.622 193.98 239.622h346.068z"></path>
<path d="M503.87 0c-279.186 5.302-503.87 232.48-503.87 511.952 0 20.576 1.218 40.866 3.584 60.806h116.782c151.186 0 281.902-105.074 313.89-252.32l69.612-320.438z"></path>
</svg>