<!-- Generated by IcoMoon.io -->
<svg version="1.1" xmlns="http://www.w3.org/2000/svg" width="1024" height="1024" viewBox="0 0 1024 1024">
<title></title>
<g id="icomoon-ignore">
</g>
<path d="M856.68 64.697c-78.083 0-142.78 53.542-158.397 124.932h-377.028c-17.847-71.39-82.545-124.932-158.397-124.932-89.237 0-162.858 73.619-162.858 162.857 0 62.466 35.695 118.24 89.237 145.011v176.246c0 227.554 196.322 410.492 423.878 410.492s423.878-182.939 423.878-410.492v-176.246c51.31-26.771 87.007-82.545 87.007-145.011-2.233-89.237-75.852-162.857-167.32-162.857zM296.715 401.569c0-24.54 20.078-46.85 46.85-46.85s46.85 20.078 46.85 46.85-20.078 46.85-46.85 46.85-46.85-20.080-46.85-46.85zM508.654 878.989c-84.776 0-156.166-91.468-156.166-203.015s69.159-203.015 156.166-203.015c87.008 0 156.164 91.468 156.164 203.015s-69.156 203.015-156.164 203.015zM675.972 448.417c-26.769 0-46.846-20.078-46.846-46.85 0-24.54 20.078-46.85 46.846-46.85 24.54 0 46.85 20.078 46.85 46.85s-20.077 46.85-46.85 46.85zM428.34 591.198c-13.386 0-26.771 6.691-31.233 17.846-4.462 13.386-2.231 26.773 6.693 35.695l80.314 80.314c13.386 13.386 35.693 13.386 49.079 0l80.314-80.314c8.924-8.924 13.386-22.309 6.691-35.695-4.46-13.386-17.846-17.846-31.233-17.846h-160.624z"></path>
</svg>
