<!-- Generated by IcoMoon.io -->
<svg version="1.1" xmlns="http://www.w3.org/2000/svg" width="1024" height="1024" viewBox="0 0 1024 1024">
<title></title>
<g id="icomoon-ignore">
</g>
<path d="M235.714 320.135l148.376-146.457 149.015 146.457 86.339-83.781-235.355-235.994-235.355 235.994zM0.36 384.090l86.339-86.339 86.979 86.339-86.979 86.339zM235.714 448.045l148.376 147.097 149.015-147.097 86.339 84.421-235.355 235.355-235.355-234.715zM594.502 384.090l86.339-86.339 86.979 86.339-86.339 86.339zM472.348 384.090l-88.258-88.258-87.618 88.258 87.618 87.618zM448.045 982.070h36.454v41.571h-36.454v-41.571zM767.82 900.847c0.54 4.082 0.848 8.802 0.848 13.593 0 60.4-48.964 109.363-109.363 109.363-2.099 0-4.182-0.059-6.252-0.176l0.287 0.013c-2.296 0.173-4.975 0.271-7.676 0.271-60.047 0-108.724-48.677-108.724-108.724 0-4.151 0.233-8.248 0.686-12.278l-0.045 0.495v-166.283h31.338v164.364c-0.527 3.489-0.827 7.515-0.827 11.611 0 45.211 36.651 81.862 81.862 81.862 1.416 0 2.823-0.036 4.222-0.107l-0.196 0.008c1.402 0.088 3.041 0.138 4.691 0.138 44.152 0 79.944-35.792 79.944-79.944 0-4.111-0.31-8.149-0.908-12.092l0.055 0.443v-166.283h30.059v163.725zM933.464 865.671c63.955 13.431 90.177 35.815 90.177 78.665-2.066 44.626-38.748 80.024-83.697 80.024-3.863 0-7.666-0.262-11.39-0.767l0.434 0.048c-0.473 0.005-1.031 0.008-1.591 0.008-43.528 0-83.073-17.053-112.319-44.842l0.070 0.066 19.826-23.024c24.041 24.482 57.49 39.654 94.483 39.654 0.285 0 0.57-0.001 0.853-0.003h-0.044c37.094 0 63.955-19.826 63.955-47.966s-14.070-40.931-72.269-53.083-93.374-34.536-93.374-80.583c2.801-42.93 38.307-76.69 81.699-76.69 3.439 0 6.828 0.212 10.155 0.624l-0.398-0.040c0.809-0.016 1.763-0.025 2.719-0.025 36.112 0 69.17 13.069 94.704 34.736l-0.212-0.175-18.547 23.663c-21.16-17.542-48.592-28.186-78.509-28.186-1.179 0-2.354 0.017-3.526 0.049l0.172-0.004c-35.815 0-59.478 19.826-59.478 45.408s14.71 40.931 76.106 54.362z"></path>
</svg>
