<!-- Generated by IcoMoon.io -->
<svg version="1.1" xmlns="http://www.w3.org/2000/svg" width="1024" height="1024" viewBox="0 0 1024 1024">
<title></title>
<g id="icomoon-ignore">
</g>
<path d="M313.6 428.8l198.4-198.4 198.4 198.4 115.2-115.2-313.6-313.6-313.6 313.6 115.2 115.2zM0 512l115.2-115.2 115.2 115.2-115.2 115.2-115.2-115.2zM313.6 595.2l198.4 198.4 198.4-198.4 115.2 115.2-313.6 313.6-313.6-313.6 115.2-115.2zM793.6 512l115.2-115.2 115.2 115.2-115.2 115.2-115.2-115.2zM627.2 512l-115.2-115.2-115.2 115.2 115.2 115.2 115.2-115.2z"></path>
</svg>
