<!-- Generated by IcoMoon.io -->
<svg version="1.1" xmlns="http://www.w3.org/2000/svg" width="1024" height="1024" viewBox="0 0 1024 1024">
<title></title>
<g id="icomoon-ignore">
</g>
<path d="M1008 512c0 273.934-222.066 496-496 496s-496-222.066-496-496 222.066-496 496-496 496 222.066 496 496zM724.698 441.34c9.874-65.998-40.382-101.478-109.1-125.146l22.292-89.404-54.426-13.562-21.702 87.048c-14.308-3.566-29.004-6.928-43.606-10.26l21.858-87.62-54.396-13.562-22.306 89.372c-11.844-2.698-23.47-5.364-34.754-8.168l0.062-0.28-75.060-18.74-14.478 58.124s40.382 9.254 39.53 9.826c22.044 5.502 26.028 20.088 25.36 31.65l-25.392 101.85c1.52 0.388 3.488 0.946 5.658 1.814-1.814-0.45-3.752-0.946-5.752-1.426l-35.592 142.676c-2.698 6.696-9.534 16.74-24.942 12.928 0.542 0.79-39.56-9.874-39.56-9.874l-27.020 62.294 70.828 17.654c13.176 3.302 26.090 6.758 38.8 10.012l-22.524 90.426 54.364 13.562 22.306-89.466c-0.128 0.559 14.408 4.432 29.005 8.151l14.369 3.103-22.23 89.046 54.426 13.562 22.524-90.256c92.808 17.562 162.598 10.478 191.972-73.454 23.672-67.58-1.178-106.562-50.008-131.982 35.56-8.196 62.348-31.584 69.494-79.898zM600.344 615.698c-16.82 67.58-130.616 31.046-167.51 21.886l29.888-119.798c36.892 9.206 155.2 27.434 137.622 97.912zM617.178 440.364c-15.346 61.472-110.062 30.24-140.786 22.584l27.096-108.654c30.726 7.656 129.672 21.946 113.69 86.070z"></path>
</svg>
