<!-- Generated by IcoMoon.io -->
<svg version="1.1" xmlns="http://www.w3.org/2000/svg" width="1024" height="1024" viewBox="0 0 1024 1024">
<title></title>
<g id="icomoon-ignore">
</g>
<path d="M328.427 21.928c12.586-13.985 30.217-21.928 48.671-21.928h119.452c15.079 0 22.898 18.641 12.618 30.070l-236.237 262.503h130.548l132.742 146.286h-263.29l263.29 292.577h-159.123c-18.454 0-36.085-7.947-48.671-21.928l-267.066-296.771c-23.832-26.48-23.832-67.554 0-94.034zM695.566 1002.068c-12.586 13.985-30.217 21.932-48.671 21.932h-119.452c-15.079 0-22.906-18.641-12.618-30.070l236.237-262.503h-130.544l-132.746-146.286h263.298l-263.298-292.577h159.131c18.454 0 36.085 7.939 48.671 21.928l267.066 296.771c23.832 26.488 23.832 67.554 0 94.034z"></path>
</svg>
