<!-- Generated by IcoMoon.io -->
<svg version="1.1" xmlns="http://www.w3.org/2000/svg" width="1024" height="1024" viewBox="0 0 1024 1024">
<title></title>
<g id="icomoon-ignore">
</g>
<path d="M352 192h387.2c-0.364 5.33-2.23 10.163-5.172 14.154l0.052-0.074-128.64 234.24h-236.8c-4.326 9.612-8.599 17.59-13.336 25.251l0.536-0.931-16.64 28.8c-6.4 12.8-14.080 23.68-19.2 35.84s-24.32 42.88-36.48 64l-37.12 64c-4.811 7.094-9.502 15.275-13.582 23.803l-0.498 1.157-76.8 134.4c-2.038 5.191-4.852 9.65-8.349 13.473l0.029-0.033h-128c-0.987-0.054-2.142-0.085-3.305-0.085-5.648 0-11.125 0.732-16.341 2.105l0.446-0.1c1.925-11.99 6.68-22.617 13.559-31.52l-0.119 0.16c6.4-14.080 15.36-25.6 21.76-40.32q78.72-139.52 156.8-280.32c12.8-19.2 21.76-40.96 33.92-64l44.8-78.72c4.48-10.88 11.52-21.12 16.64-32l57.6-102.4c2.196-4.147 4.749-7.721 7.71-10.912l-0.030 0.032zM801.28 328.96l76.8-135.68h140.8l5.12-1.28-12.8 21.76-100.48 184.32-41.6 74.24v3.2l-196.48 353.92h-384c6.4-15.36 16-30.080 23.68-44.8l110.080-202.24h236.8l145.28-256z"></path>
</svg>
