<!-- Generated by IcoMoon.io -->
<svg version="1.1" xmlns="http://www.w3.org/2000/svg" width="1024" height="1024" viewBox="0 0 1024 1024">
<title></title>
<g id="icomoon-ignore">
</g>
<path d="M589.796 810.24c3.753 0.139 8.16 0.219 12.587 0.219 47.766 0 93.374-9.245 135.129-26.044l-2.436 0.866c46.738-19.521 84.577-52.614 109.502-94.317l0.578-1.043c18.054-30.185 28.729-66.585 28.729-105.479 0-90.552-57.864-167.589-138.633-196.153l-1.456-0.449c32.582-15.579 59.384-38.686 78.924-67.167l0.436-0.673c19.789-30.525 31.555-67.848 31.555-107.918 0-12.985-1.235-25.681-3.595-37.977l0.2 1.255c-8.182-42.734-29.18-79.601-58.777-107.424l-0.103-0.096c-45.043-39.404-103.463-64.529-167.652-67.813l-0.668-0.027h-460.8v106.88c20.907 0.009 40.537 5.465 57.552 15.026l-0.592-0.306c35.471 19.002 60.086 54.245 63.963 95.518l0.037 0.482c0.118 2.019 0.186 4.379 0.186 6.756 0 31.662-11.975 60.526-31.642 82.312l0.096-0.108c-21.214 24.007-52.077 39.067-86.457 39.067-0.88 0-1.758-0.010-2.633-0.030l0.13 0.002v97.28c23.983 1.293 45.934 8.997 64.462 21.412l-0.462-0.292c33.728 21.696 55.749 59.039 55.749 101.526 0 1.433-0.025 2.86-0.075 4.28l0.006-0.206c0.212 2.802 0.333 6.070 0.333 9.366 0 19.806-4.368 38.593-12.192 55.448l0.339-0.814c-19.461 41.575-60.763 69.954-108.742 70.4h-0.058v108.8zM711.396 599.040c-9.174 39.62-37.288 71.116-74.062 84.852l-0.818 0.268c-20.106 6.116-43.215 9.638-67.146 9.638-6.326 0-12.594-0.246-18.796-0.729l0.821 0.051h-161.92v-245.12h134.4c13.707-1.226 29.652-1.926 45.76-1.926s32.053 0.699 47.805 2.069l-2.045-0.143c33.544 5.823 61.8 24.846 79.728 51.413l0.272 0.427c12.405 19.368 19.774 42.997 19.774 68.346 0 10.956-1.376 21.59-3.966 31.74l0.192-0.886zM391.396 117.12h172.8c2.094-0.122 4.544-0.192 7.010-0.192 36.515 0 69.46 15.29 92.779 39.818l0.051 0.054c16.591 19.658 26.674 45.278 26.674 73.253 0 9.204-1.091 18.153-3.152 26.724l0.158-0.777c-8.834 40.677-39.359 72.483-78.594 83.025l-0.766 0.175c-16.708 4.019-35.891 6.324-55.612 6.324-5.879 0-11.71-0.205-17.486-0.608l0.778 0.044h-147.2v-228.48zM598.116 906.88h-448v115.2l426.88 1.92h294.4v-115.2h-275.2z"></path>
</svg>
