<!-- Generated by IcoMoon.io -->
<svg version="1.1" xmlns="http://www.w3.org/2000/svg" width="1024" height="1024" viewBox="0 0 1024 1024">
<g id="icomoon-ignore">
</g>
<path fill="#000" d="M1002.022 105.932h-498.91c-58.144 0-112.068 19.694-155.206 53.455h170.211c221.321 0 387.781 202.097 346.048 419.197l-31.416 161.302-2.813 13.129c52.969-37.039 90.715-92.714 103.821-157.334l0.275-1.623 89.56-461.867c0.259-1.269 0.408-2.727 0.408-4.22 0-12.15-9.832-22.004-21.974-22.038h-0.003z"></path>
<path fill="#000" d="M517.179 230.659h-183.341c-119.101 0-221.79 84.402-244.297 201.627l-89.091 459.523c-2.813 13.598 7.971 26.259 21.569 26.259h520.949c104.88-0.059 195.057-74.322 215.226-177.245l34.229-176.775c33.292-172.555-98.938-333.388-274.776-333.388h-0.469z"></path>
</svg>
