<!-- Generated by IcoMoon.io -->
<svg version="1.1" xmlns="http://www.w3.org/2000/svg" width="1024" height="1024" viewBox="0 0 1024 1024">
<title></title>
<g id="icomoon-ignore">
</g>
<path d="M402.894 262.72c0-0.007 0-0.016 0-0.024 0-111.165-90.117-201.283-201.283-201.283s-201.283 90.117-201.283 201.283c0 111.165 90.117 201.283 201.283 201.283v0c111.101-0.137 201.131-90.158 201.283-201.244v-0.015zM100.331 262.72c0-0.014 0-0.031 0-0.048 0-55.949 45.356-101.305 101.305-101.305s101.305 45.356 101.305 101.305c0 55.949-45.356 101.305-101.305 101.305-0.009 0-0.017 0-0.026 0h0.001c-55.889-0.096-101.172-45.371-101.281-101.246v-0.010zM489.006 755.889c-59.058 0-106.933 47.875-106.933 106.933s47.875 106.933 106.933 106.933c59.058 0 106.933-47.875 106.933-106.933 0-0.008 0-0.017 0-0.025v0.001c-0.082-59.020-47.911-106.84-106.927-106.909h-0.007zM489.006 916.639c-29.722 0-53.817-24.095-53.817-53.817s24.095-53.817 53.817-53.817c29.714 0 53.803 24.081 53.817 53.792v0.001c-0.027 29.716-24.103 53.8-53.813 53.841h-0.004zM715.771 8.248c-9.18-5.19-20.159-8.248-31.853-8.248-24.495 0-45.857 13.42-57.132 33.31l-0.17 0.326-497.033 892.472c-5.365 9.296-8.53 20.447-8.53 32.336 0 36.205 29.35 65.556 65.556 65.556 24.67 0 46.157-13.627 57.345-33.764l0.171-0.335 496.936-892.472c5.222-9.198 8.299-20.205 8.299-31.931 0-24.469-13.401-45.808-33.264-57.078l-0.325-0.17zM702.848 755.889c-59.058 0-106.933 47.875-106.933 106.933s47.875 106.933 106.933 106.933c59.058 0 106.933-47.875 106.933-106.933 0-0.008 0-0.017 0-0.025v0.001c-0.069-59.025-47.906-106.854-106.928-106.909h-0.005zM702.848 916.639c-29.722 0-53.817-24.095-53.817-53.817s24.095-53.817 53.817-53.817c29.714 0 53.803 24.081 53.817 53.792v0.001c-0.027 29.716-24.103 53.8-53.813 53.841h-0.004zM916.715 755.889c-59.048 0.014-106.909 47.884-106.909 106.933 0 59.058 47.875 106.933 106.933 106.933s106.933-47.875 106.933-106.933c0-0.008 0-0.017 0-0.025v0.001c-0.082-59.028-47.925-106.854-106.952-106.909h-0.005zM916.715 916.639c-29.722 0-53.817-24.095-53.817-53.817s24.095-53.817 53.817-53.817c29.714 0 53.803 24.081 53.817 53.792v0.001c-0.027 29.716-24.103 53.8-53.813 53.841h-0.004z"></path>
</svg>
