<!-- Generated by IcoMoon.io -->
<svg version="1.1" xmlns="http://www.w3.org/2000/svg" width="1024" height="1024" viewBox="0 0 1024 1024">
<title></title>
<g id="icomoon-ignore">
</g>
<path d="M1022.687 279.134c13.512-130.961-80.64-201.022-132.318-219.771-11.458-4.167-25.571-0.307-31.241 10.497-5.534 10.536-3.909 22.447 5.397 29.592 2.689 4.289 15.167 27.962 11.775 93.289-0.63 12.102-2.303 44.251-67.972 44.256-7.183 0-13.786-0.439-19.178-0.971-4.675-9.755-12.336-22.535-24.043-40.313-19.451-29.538-49.936-45.149-88.165-45.149-22.111 0-46.954 5.646-68.162 15.494-22.677 10.531-75.77 16.821-96.788 18.597-21.018-1.771-74.106-8.062-96.783-18.597-21.208-9.848-46.051-15.494-68.162-15.494-38.229 0-68.714 15.611-88.165 45.149-11.702 17.777-19.368 30.558-24.043 40.308-5.392 0.537-12 0.976-19.183 0.976-65.664 0-67.338-32.154-67.967-44.256-3.392-65.327 9.086-88.999 11.775-93.289 9.306-7.149 10.931-19.056 5.397-29.592-5.67-10.799-19.773-14.664-31.241-10.497-51.668 18.749-145.821 88.814-132.308 219.775 9.355 90.639 49.858 127.082 84.485 141.497-28.045 26.839-58.134 62.746-59.003 93.874-0.595 21.452 5.017 38.41 16.679 50.399 12.346 12.697 30.167 18.866 54.469 18.866 11.053 0 23.741-1.249 38.79-3.811 34.53-5.871 68.65-14.337 90.063-20.061 11.307 30.748 32.915 87.74 51.4 126.399 19.666 41.128 29.274 79.825 32.066 92.284-3.699 22.53-12.995 102.141 30.88 146.011 34.447 34.452 102.395 41.684 153.331 41.684 8.598 0 14.854-0.244 17.524-0.366 2.674 0.122 8.93 0.366 17.524 0.366 50.936 0 118.889-7.232 153.336-41.684 43.875-43.87 34.579-123.476 30.88-146.011 2.796-12.483 12.4-51.166 32.066-92.284 18.485-38.658 40.093-95.656 51.4-126.399 21.413 5.724 55.533 14.186 90.063 20.061 15.050 2.562 27.742 3.811 38.79 3.811 24.307 0 42.123-6.173 54.469-18.866 11.663-11.99 17.275-28.947 16.679-50.404-0.869-31.124-30.958-67.030-59.003-93.869 34.633-14.415 75.131-50.853 84.485-141.502zM288.145 495.684c0-20.149 9.081-38.898 24.917-51.439 9.218-7.31 22.34-6.988 31.212 0.752l61.003 53.327c8.857 7.749 10.926 20.715 4.919 30.831-11.79 19.837-33.408 32.163-56.416 32.163-36.189 0.005-65.634-29.445-65.634-65.634zM412.192 898.599c-4.387 1.708-8.994 2.572-13.683 2.572-22.399 0-41.962-19.471-48.682-48.457-7.72-33.3 3.884-64.156 27.591-73.364 4.397-1.713 9.003-2.572 13.683-2.572 22.399 0 41.962 19.471 48.682 48.452 7.72 33.305-3.884 64.161-27.591 73.369zM674.876 852.718c-6.72 28.977-26.283 48.457-48.682 48.457 0 0 0 0-0.005 0-4.685-0.005-9.286-0.869-13.683-2.577-23.702-9.203-35.306-40.059-27.586-73.364 6.72-28.977 26.283-48.452 48.682-48.452 4.68 0 9.282 0.864 13.678 2.567 23.711 9.208 35.316 40.064 27.596 73.369zM670.216 561.324c-23.009 0-44.627-12.322-56.416-32.163-6.007-10.116-3.943-23.082 4.919-30.831l61.003-53.327c8.867-7.739 21.989-8.062 31.212-0.752 15.835 12.541 24.917 31.29 24.917 51.439 0 36.184-29.445 65.634-65.634 65.634z"></path>
</svg>
