<!-- Generated by IcoMoon.io -->
<svg version="1.1" xmlns="http://www.w3.org/2000/svg" width="1024" height="1024" viewBox="0 0 1024 1024">
<title></title>
<g id="icomoon-ignore">
</g>
<path d="M711.667 373.131s-52.482-16.64-55.682-14.721l-255.369-335.371s-49.281 22.401-52.482 24.961l215.688 267.53c-3.84 4.48-52.482 4.48-56.962 4.48l-227.848-225.928-39.041 44.801 188.807 181.126c-3.84 4.48-46.722 21.761-50.562 26.881l-181.766-138.245c0 3.201-22.401 49.281-24.321 52.482l147.205 104.964c0 4.48-37.121 34.562-40.322 39.681l-110.084-58.242s0 53.762 0 56.322l64.002 40.322-4.48 9.601-58.882-11.52 42.241 32.001c-84.483 117.764-64.642 306.571 43.521 436.495l-40.322-112.644h8.321l74.882 169.606s50.562 16.64 54.402 15.361l-120.324-263.049s14.721-37.121 17.28-38.401l185.606 337.932c3.84 0 56.962 6.4 64.002 3.84l-222.728-373.132s57.602 28.801 64.002 26.241l234.888 343.052c3.201 0 52.482-16.64 55.042-19.201l-224.007-302.73c3.84 0 60.802 11.52 64.002 8.321l231.048 256.009s42.881-35.202 45.442-38.401l-197.127-206.087c3.84-4.48 52.482-13.441 56.322-17.92l192.006 159.365 33.921-46.722-162.566-128.004c0-5.12 42.881-30.081 46.082-35.202l135.045 82.563c0-3.201 7.040-53.762 8.321-56.322l-91.523-61.443c0-3.84 30.081-34.562 32.001-37.761l59.522 12.16-43.521-32.001c82.563-108.804 58.882-320.011-52.482-448.016l56.322 147.845s-32.001 4.48-35.202 6.4l-101.763-216.328c-3.201 0-56.962-23.040-60.802-21.121l151.046 303.37c-3.201 0-39.681-4.48-42.881 0l-191.366-328.331c-3.84 0-54.402 6.4-57.602 8.961z"></path>
</svg>
