<!-- Generated by IcoMoon.io -->
<svg version="1.1" xmlns="http://www.w3.org/2000/svg" width="1024" height="1024" viewBox="0 0 1024 1024">
<title></title>
<g id="icomoon-ignore">
</g>
<path d="M320 272v352c0 8.832-7.168 16-16 16h-48v112c0 8.832-7.168 16-16 16h-32c-8.832 0-16-7.168-16-16v-112h-48c-8.832 0-16-7.168-16-16v-352c0-8.832 7.168-16 16-16h48v-112c0-8.832 7.168-16 16-16h32c8.832 0 16 7.168 16 16v112h48c8.832 0 16 7.168 16 16zM608 560v256c0 8.832-7.168 16-16 16h-48v112c0 8.832-7.168 16-16 16h-32c-8.832 0-16-7.168-16-16v-112h-48c-8.832 0-16-7.168-16-16v-256c0-8.832 7.168-16 16-16h48v-112c0-8.832 7.168-16 16-16h32c8.832 0 16 7.168 16 16v112h48c8.832 0 16 7.168 16 16zM896 208v480c0 8.832-7.168 16-16 16h-48v112c0 8.832-7.168 16-16 16h-32c-8.832 0-16-7.168-16-16v-112h-48c-8.832 0-16-7.168-16-16v-480c0-8.832 7.168-16 16-16h48v-112c0-8.832 7.168-16 16-16h32c8.832 0 16 7.168 16 16v112h48c8.832 0 16 7.168 16 16z"></path>
</svg>
