<!-- Generated by IcoMoon.io -->
<svg version="1.1" xmlns="http://www.w3.org/2000/svg" width="1024" height="1024" viewBox="0 0 1024 1024">
<title></title>
<g id="icomoon-ignore">
</g>
<path d="M694.005 1024c-44.858 0.002-88.121-25.026-108.959-67.597l-60.313-112.927-34.214 65.309c-0.876 1.676-1.874 3.288-2.978 4.822-22.454 31.16-59.399 42.234-86.751 42.234-0.22 0-0.44 0-0.662-0.002-30.568-0.202-61.007-13.318-83.505-35.99-23.366-23.544-36.232-54.799-36.232-88.011v-517.913c0-47.238 26.616-88.943 69.459-108.839 42.436-19.708 90.951-13.444 126.939 16.298l263.497 196.224c17.718 13.194 21.384 38.254 8.192 55.973-13.196 17.718-38.254 21.384-55.973 8.19l-264.385-196.886c-0.654-0.488-1.294-0.994-1.918-1.522-18.094-15.28-37.22-8.24-42.656-5.718-5.432 2.522-23.152 12.592-23.152 36.28v517.915c0 25.774 21.218 43.876 40.264 44 0.060 0 0.124 0 0.184 0 7.784 0 16.342-3.224 20.606-7.596l67.517-128.877c6.876-13.128 20.452-21.378 35.272-21.438 0.054 0 0.108 0 0.16 0 14.76 0 28.326 8.128 35.284 21.156l96.303 180.312c0.272 0.508 0.532 1.022 0.78 1.542 9.6 20.004 33.796 28.708 53.933 19.386 10.026-4.636 17.59-12.916 21.304-23.316 3.602-10.082 3.14-20.916-1.282-30.62l-97.193-172.954c-6.96-12.386-6.828-27.534 0.348-39.796 7.174-12.262 20.316-19.798 34.524-19.798h137.137c23.208-1.186 32.474-19.462 34.774-25.078 2.36-5.758 8.77-25.916-7.792-43.482-15.154-16.074-14.41-41.388 1.662-56.545 16.074-15.156 41.39-14.408 56.545 1.664 32.82 34.81 41.872 84.119 23.618 128.685-18.152 44.32-58.943 72.955-106.451 74.729-0.496 0.020-0.994 0.028-1.492 0.028h-69.639l64.393 114.587c0.394 0.704 0.77 1.418 1.122 2.144 14.262 29.412 16.060 62.565 5.064 93.347-10.994 30.784-33.386 55.295-63.055 69.017-16.246 7.506-33.378 11.062-50.28 11.064zM325.619 157.086c19.372-10.622 26.462-34.936 15.84-54.307l-34-62.001c-10.622-19.37-34.932-26.46-54.305-15.838s-26.462 34.936-15.84 54.307l34 62.001c7.276 13.268 20.972 20.774 35.108 20.774 6.5 0 13.096-1.588 19.196-4.936zM241.032 248.048c8.854-20.24-0.376-43.826-20.614-52.681l-64.001-28c-20.24-8.856-43.824 0.376-52.681 20.614-8.854 20.24 0.376 43.826 20.614 52.681l64.001 28c5.218 2.284 10.658 3.364 16.012 3.364 15.41-0.002 30.096-8.958 36.668-23.978zM490.337 118.663l22-66.001c6.986-20.958-4.34-43.612-25.298-50.596-20.95-6.99-43.612 4.34-50.596 25.298l-22 66.001c-6.986 20.958 4.34 43.612 25.298 50.596 4.196 1.4 8.46 2.064 12.654 2.064 16.746 0 32.356-10.602 37.942-27.362zM596.198 220.158l54.001-40c17.752-13.15 21.482-38.2 8.334-55.953-13.15-17.752-38.202-21.482-55.953-8.334l-54.001 40c-17.752 13.15-21.482 38.2-8.334 55.953 7.848 10.594 19.932 16.194 32.174 16.194 8.274 0 16.62-2.558 23.778-7.86zM159.242 445.156l60.001-24c20.512-8.204 30.488-31.484 22.284-51.995-8.206-20.514-31.488-30.49-51.995-22.284l-60.001 24c-20.512 8.204-30.488 31.484-22.284 51.995 6.256 15.64 21.276 25.156 37.15 25.156 4.946 0 9.972-0.924 14.844-2.872z"></path>
</svg>
