<!-- Generated by IcoMoon.io -->
<svg version="1.1" xmlns="http://www.w3.org/2000/svg" width="1024" height="1024" viewBox="0 0 1024 1024">
<title></title>
<g id="icomoon-ignore">
</g>
<path d="M1017.513 434.342c-2.427-15.996-13.458-29.342-28.684-34.742l-80.668-28.684c-4.772-13.516-10.184-26.657-16.184-39.367l36.711-77.254c6.929-14.568 5.283-31.799-4.284-44.826-30.941-42.082-67.91-79.052-109.88-109.851-13.040-9.573-30.212-11.201-44.809-4.255l-77.207 36.681c-12.711-6-25.869-11.401-39.396-16.173l-28.696-80.68c-5.401-15.197-18.711-26.198-34.671-28.655-56.709-8.715-98.68-8.715-155.477 0-15.943 2.456-29.272 13.458-34.671 28.655l-28.696 80.68c-13.528 4.772-26.686 10.173-39.385 16.173l-77.236-36.681c-14.568-6.94-31.769-5.313-44.797 4.255-41.97 30.8-78.94 67.769-109.88 109.851-9.573 13.029-11.213 30.253-4.284 44.826l36.711 77.254c-6 12.688-11.401 25.857-16.184 39.367l-80.68 28.713c-15.215 5.401-26.228 18.741-28.672 34.713-4.402 28.913-6.458 53.565-6.458 77.683 0 24.083 2.057 48.77 6.458 77.683 2.427 15.996 13.458 29.342 28.684 34.742l80.668 28.684c4.784 13.54 10.202 26.686 16.184 39.396l-36.711 77.224c-6.929 14.568-5.283 31.799 4.272 44.797 30.9 42.053 67.869 79.023 109.892 109.88 13.029 9.573 30.23 11.23 44.809 4.255l77.207-36.681c12.711 6 25.869 11.401 39.396 16.173l28.696 80.68c5.401 15.197 18.711 26.198 34.671 28.655 28.373 4.372 53.794 6.488 77.736 6.488s49.369-2.116 77.736-6.488c15.955-2.456 29.272-13.458 34.671-28.655l28.696-80.68c13.528-4.772 26.686-10.173 39.396-16.173l77.207 36.681c14.598 6.97 31.799 5.313 44.826-4.255 42.070-30.911 79.040-67.881 109.88-109.88 9.555-12.999 11.201-30.23 4.272-44.797l-36.711-77.224c6-12.711 11.413-25.887 16.184-39.396l80.668-28.684c15.226-5.401 26.257-18.741 28.684-34.742 4.402-28.913 6.458-53.594 6.458-77.683s-2.051-48.775-6.453-77.683zM934.090 550.757l-75.679 26.915c-13.228 4.684-23.401 15.426-27.385 28.913-6.758 22.854-15.655 44.48-26.469 64.308-6.711 12.341-7.128 27.144-1.099 39.825l34.325 72.194c-16.584 19.916-34.924 38.286-54.87 54.852l-72.182-34.284c-12.7-6.088-27.456-5.6-39.814 1.087-19.857 10.801-41.494 19.687-64.366 26.457-13.458 3.973-24.2 14.139-28.896 27.368l-26.927 75.708c-27.485 2.797-49.968 2.797-77.454 0l-26.927-75.708c-4.701-13.199-15.444-23.401-28.896-27.368-22.884-6.77-44.538-15.655-64.366-26.457-12.359-6.741-27.144-7.17-39.814-1.087l-72.182 34.313c-19.928-16.602-38.268-34.942-54.87-54.881l34.325-72.194c6.029-12.688 5.612-27.485-1.099-39.825-10.784-19.769-19.687-41.424-26.469-64.337-3.984-13.458-14.169-24.2-27.385-28.884l-75.679-26.915c-1.428-13.769-2.116-26.457-2.116-38.738s0.688-24.941 2.116-38.709l75.697-26.939c13.211-4.684 23.383-15.426 27.368-28.884 6.77-22.854 15.673-44.509 26.469-64.366 6.711-12.312 7.128-27.144 1.099-39.796l-34.325-72.194c16.613-19.94 34.954-38.309 54.87-54.881l72.212 34.313c12.641 6.088 27.485 5.6 39.814-1.087 19.816-10.801 41.453-19.687 64.337-26.457 13.458-3.973 24.2-14.169 28.896-27.368l26.927-75.708c27.227-2.827 49.751-2.827 77.454 0l26.927 75.708c4.701 13.199 15.444 23.401 28.896 27.368 22.884 6.77 44.538 15.655 64.366 26.457 12.359 6.741 27.115 7.17 39.814 1.087l72.182-34.313c19.916 16.572 38.256 34.942 54.87 54.881l-34.325 72.194c-6.029 12.658-5.612 27.485 1.099 39.796 10.831 19.916 19.728 41.541 26.469 64.337 3.984 13.487 14.157 24.23 27.385 28.913l75.679 26.915c1.428 13.769 2.116 26.457 2.116 38.738s-0.688 24.964-2.116 38.732zM512.003 298.545c-112.019 0-203.16 91.135-203.16 203.16s91.135 203.16 203.16 203.16 203.16-91.135 203.16-203.16-91.14-203.16-203.16-203.16zM512.003 617.097c-63.626 0-115.393-51.767-115.393-115.393s51.767-115.393 115.393-115.393 115.393 51.767 115.393 115.393-51.767 115.393-115.393 115.393z"></path>
</svg>
