<!-- Generated by IcoMoon.io -->
<svg version="1.1" xmlns="http://www.w3.org/2000/svg" width="1024" height="1024" viewBox="0 0 1024 1024">
<title></title>
<g id="icomoon-ignore">
</g>
<path d="M680.988 378.868c-36.774-35.974-87.152-58.171-142.714-58.171s-105.941 22.197-142.751 58.207l0.037-0.036c-36.317 36.261-58.783 86.384-58.783 141.754s22.466 105.494 58.78 141.751l0.003 0.003c36.808 36.162 87.315 58.484 143.034 58.484s106.227-22.323 143.064-58.514l-0.030 0.029 17.279-19.199-94.716-92.156-15.999 17.279c-12.414 12.522-29.62 20.275-48.638 20.275s-36.225-7.753-48.633-20.27l-0.005-0.005c-12.104-12.247-19.58-29.089-19.58-47.678s7.477-35.432 19.587-47.685l-0.006 0.007c12.382-12.331 29.46-19.954 48.318-19.954s35.937 7.624 48.32 19.956l-0.002-0.002 255.99 252.79c-70.144 98.901-184.043 162.773-312.881 163.193h-0.066c-1.127 0.012-2.46 0.019-3.793 0.019-208.888 0-378.225-169.337-378.225-378.225s169.337-378.225 378.225-378.225c124.874 0 235.613 60.516 304.492 153.82l0.73 1.035-85.757 96.636 94.076 92.796 155.514-174.073c-82.019-179.909-260.297-302.708-467.256-302.708-282.759 0-511.979 229.221-511.979 511.979s229.221 511.979 511.979 511.979c0.026 0 0.053 0 0.079 0h-0.004c1.889 0.026 4.12 0.041 6.355 0.041 128.245 0 245.137-48.611 333.254-128.412l-0.422 0.377c59.006-52.162 106.231-116.202 138.145-188.515l1.369-3.477z"></path>
</svg>
