<!-- Generated by IcoMoon.io -->
<svg version="1.1" xmlns="http://www.w3.org/2000/svg" width="1024" height="1024" viewBox="0 0 1024 1024">
<title></title>
<g id="icomoon-ignore">
</g>
<path d="M921.6-0.001h-614.401c-56.473 0-102.4 45.926-102.4 102.4v102.4h-102.4c-56.473 0-102.4 45.926-102.4 102.4v614.401c0 56.473 45.926 102.4 102.4 102.4h614.401c56.473 0 102.4-45.926 102.4-102.4v-102.4h102.4c56.473 0 102.4-45.926 102.4-102.4v-614.401c0-56.473-45.926-102.4-102.4-102.4zM716.801 921.6h-614.401v-614.401h102.4v409.6c0 56.473 45.926 102.4 102.4 102.4h409.6zM921.447 716.801h-614.247v-614.401h614.401z"></path>
</svg>
