<!-- Generated by IcoMoon.io -->
<svg version="1.1" xmlns="http://www.w3.org/2000/svg" width="1024" height="1024" viewBox="0 0 1024 1024">
<title></title>
<g id="icomoon-ignore">
</g>
<path d="M82.058 855.142c-23.992 23.996-23.987 62.878 0.009 86.87s62.88 23.992 86.871-0.008l343.075-343.134 343.093 343.093c23.992 23.992 62.878 23.992 86.87 0s23.992-62.878 0-86.87l-343.101-343.101 343.086-343.142c23.984-23.996 23.984-62.88-0.017-86.871-23.992-23.992-62.878-23.987-86.87 0.009l-343.078 343.14-343.095-343.101c-23.993-23.993-62.876-23.993-86.871 0s-23.995 62.876 0 86.871l343.112 343.107z"></path>
</svg>
