<svg width="897" height="1024" viewBox="0 0 897 1024" fill="none" xmlns="http://www.w3.org/2000/svg">
<path d="M625.133 824H561.362L485.017 754.667V719.111L564.057 644.444V526.222L667.348 459.556L785.009 547.556L625.133 824ZM361.068 637.333L372.745 526.222L334.123 426.667H562.261L524.537 526.222L535.315 637.333H447.294H361.068ZM413.163 754.667L336.818 824.889H272.149L111.374 547.556L229.934 460.445L334.123 526.222V644.444L413.163 719.111V754.667ZM271.25 221.334H624.235L666.45 399.111H229.934L271.25 221.334ZM448.192 0L0 256V768L448.192 1024L896.384 768V256L448.192 0Z" fill="black"/>
</svg>
