<!-- Generated by IcoMoon.io -->
<svg version="1.1" xmlns="http://www.w3.org/2000/svg" width="1024" height="1024" viewBox="0 0 1024 1024">
<title></title>
<g id="icomoon-ignore">
</g>
<path d="M1023.989 515.571c-3.542-151.386-76.035-235.989-147.614-282.776-53.656-34.933-119.314-55.707-189.824-55.707-0.886 0-1.771 0.003-2.657 0.010l0.137-0.001h-17.138v-164.238h-161.325v164.238h-175.664v-164.238h-161.382v164.238h-168.522l0.743 168.522h167.095v332.076h-167.838v163.495h168.522v169.951h161.382v-169.951h175.664v169.951h161.382v-169.951h28.564c0.596 0.004 1.3 0.006 2.003 0.006 58.361 0 113.262-14.811 161.15-40.877l-1.771 0.883c171.379-93.116 167.095-285.632 167.095-285.632zM840.099 592.236c-10.859 20.925-25.419 38.477-42.973 52.419l-0.329 0.253c-27.012 20.89-61.362 33.485-98.653 33.485-0.584 0-1.168-0.003-1.75-0.009l0.089 0.001h-366.123v-332.305l367.095-0.915c0.563-0.007 1.227-0.010 1.891-0.010 17.464 0 34.33 2.55 50.251 7.298l-1.242-0.318c39.167 11.777 70.91 37.923 89.751 72.169l0.394 0.782c13.703 24.555 21.771 53.87 21.771 85.070 0 30.008-7.463 58.273-20.635 83.039l0.464-0.957z"></path>
</svg>
