<!-- Generated by IcoMoon.io -->
<svg version="1.1" xmlns="http://www.w3.org/2000/svg" width="1024" height="1024" viewBox="0 0 1024 1024">
<title></title>
<g id="icomoon-ignore">
</g>
<path d="M474.547 796.623c9.585 9.586 22.827 15.514 37.453 15.514s27.869-5.929 37.453-15.514l199.744-199.744c9.585-9.585 15.513-22.826 15.513-37.452s-5.929-27.868-15.513-37.452v0c-9.585-9.585-22.826-15.513-37.452-15.513s-27.868 5.929-37.452 15.513l-109.327 109.327v-578.337c0-29.252-23.713-52.966-52.966-52.966s-52.966 23.713-52.966 52.966v0 578.337l-109.327-109.327c-9.585-9.585-22.826-15.513-37.452-15.513s-27.868 5.929-37.452 15.513v0c-9.585 9.585-15.513 22.826-15.513 37.452s5.929 27.868 15.513 37.452v0zM971.034 459.034c-29.252 0-52.966 23.713-52.966 52.966v0 406.069h-812.138v-406.069c0-29.252-23.713-52.966-52.966-52.966s-52.966 23.713-52.966 52.966v0 423.724c0 48.754 39.522 88.276 88.276 88.276v0h847.448c48.754 0 88.276-39.522 88.276-88.276v0-423.724c0-29.252-23.713-52.966-52.966-52.966v0z"></path>
</svg>
