<!-- Generated by IcoMoon.io -->
<svg version="1.1" xmlns="http://www.w3.org/2000/svg" width="1024" height="1024" viewBox="0 0 1024 1024">
<title></title>
<g id="icomoon-ignore">
</g>
<path d="M999.685 70.24c-29.227-44.607-80.291-71.476-133.37-70.198-27.885 0.688-55.248 9.32-79.174 24.965-36.663 22.679-49.774 44.311-62.458 65.236-8.198 13.522-16.671 27.501-34.727 45.927-4.512 4.602-9.848 4.848-12.626 4.59-2.802-0.266-8.040-1.518-11.65-6.94-13.69-20.565-35.339-34.731-60.966-39.889-25.613-5.152-51.054-0.47-71.642 13.182l-39.025 25.875c-20.611 13.668-34.813 35.297-39.987 60.906-5.176 25.621-0.478 51.066 13.228 71.654l3.124 4.692-292.829 194.4c-30.441 20.103-38.321 54.91-45.275 85.621-5.51 24.343-10.716 47.337-24.517 56.492-18.407 12.214-23.425 37.039-11.212 55.446 7.7 11.604 20.409 17.887 33.365 17.885 7.594 0 15.276-2.16 22.079-6.674 13.986-9.282 37.247-5.088 61.872-0.648 30.889 5.566 65.902 11.878 96.275-8.278l199.994-133.176c18.387-12.244 23.367-37.075 11.124-55.46-12.246-18.387-37.075-23.371-55.462-11.124l-199.704 132.982c-5.71 2.144-25.919-1.49-38.037-3.676-7.194-1.294-14.958-2.696-23.119-3.828 2.082-7.778 3.786-15.3 5.366-22.279 2.74-12.098 7.308-32.279 11.56-36.681l292.849-194.41 102.011 153.237c13.692 20.569 35.343 34.735 60.962 39.887 6.792 1.368 13.572 2.042 20.251 2.042 18.511 0 36.265-5.188 51.394-15.22l39.029-25.877c20.609-13.67 34.809-35.297 39.985-60.908 5.174-25.619 0.476-51.064-13.232-71.656l-3.14-4.716c-3.538-5.312-2.73-10.504-1.932-13.126 0.796-2.62 3.012-7.382 8.916-9.834 19.851-8.244 34.817-11.746 50.66-15.456 25.095-5.876 51.046-11.952 85.957-35.103 42.273-28.031 67.832-75.004 68.374-125.654 0.324-30.341-8.076-59.46-24.293-84.211zM911.394 213.437c-22.933 15.208-37.673 18.655-59.984 23.879-17.433 4.082-37.193 8.708-63.102 19.465-26.481 10.996-46.449 33.033-54.78 60.458-8.334 27.429-4 56.846 11.888 80.713l3.14 4.716c1.896 2.85 7.434 13.346-4.376 21.559l-39.025 25.875c-2.896 1.92-15.164 5.908-21.809-4.368l-149.465-224.523c-1.896-2.848-7.884-13.196 4.378-21.557l39.025-25.875c10.712-5.76 19.897 1.494 21.809 4.368 16.061 24.127 41.843 39.529 70.732 42.253 28.841 2.712 57.012-7.574 77.27-28.241 24.533-25.035 36.437-44.671 46.001-60.448 10.586-17.463 15.9-26.229 36.491-38.895l1.076-0.686c11.526-7.606 24.537-11.796 37.629-12.12 25.579-0.634 50.302 12.422 64.482 34.065 7.596 11.596 11.37 24.889 11.214 39.517-0.256 24.113-12.44 46.481-32.591 59.844zM149.569 745.061c-7.58-8.314-18.309-13.052-29.559-13.052s-21.981 4.738-29.559 13.052c-0.878 0.962-21.721 23.895-42.773 52.804-32.519 44.655-47.665 78.37-47.665 106.101 0 66.188 53.83 120.034 119.996 120.034s119.996-53.846 119.996-120.034c0-27.731-15.146-61.446-47.665-106.101-21.051-28.907-41.897-51.84-42.773-52.804zM120.008 944.002c-22.055 0-39.999-17.959-39.999-39.969 0.006-0.156 0.966-16.065 32.549-59.37 2.494-3.422 4.994-6.756 7.452-9.964 2.322 3.036 4.686 6.184 7.052 9.42 31.521 43.099 32.907 59.3 32.947 59.898-0.030 22.051-17.961 39.985-40.001 39.985z"></path>
</svg>
