<!-- Generated by IcoMoon.io -->
<svg version="1.1" xmlns="http://www.w3.org/2000/svg" width="1024" height="1024" viewBox="0 0 1024 1024">
<title></title>
<g id="icomoon-ignore">
</g>
<path d="M910.2 275.8l-64.8 64.8-162-162.2 64.8-64.8c13.2-13.2 36.2-13.2 49.4 0l112.6 112.8c13.6 13.6 13.6 35.8 0 49.4zM368.8 817.8l-162-162.2 418.8-419.4 162 162.2-418.8 419.4zM169.4 733.8l121.2 121.4-168.8 47.6 47.6-169zM968 168.6l-112.6-112.8c-22-22-101.4-63.6-164.8 0l-570.6 571c-5 5-8.6 11-10.4 17.8l-86 306.2c-4 14.2 0.2 29.4 10.4 40 10.4 10.6 31.2 12.4 40 10.4l306-86.2c6.8-1.8 12.8-5.4 17.8-10.4l570.2-571c45.4-45.4 45.4-119.4 0-165z"></path>
</svg>
