<!-- Generated by IcoMoon.io -->
<svg version="1.1" xmlns="http://www.w3.org/2000/svg" width="1024" height="1024" viewBox="0 0 1024 1024">
<title></title>
<g id="icomoon-ignore">
</g>
<path d="M928.101 265.182l-67.713 67.713-169.283-169.492 67.713-67.713c13.793-13.793 37.827-13.793 51.621 0l117.662 117.871c14.211 14.211 14.211 37.409 0 51.621zM362.363 831.547l-169.283-169.492 437.627-438.254 169.283 169.492-437.627 438.254zM153.999 743.771l126.648 126.857-176.388 49.74 49.74-176.597zM988.499 153.163l-117.662-117.871c-22.989-22.989-105.958-66.459-172.208 0l-596.251 596.669c-5.225 5.225-8.987 11.494-10.868 18.6l-89.866 319.965c-4.18 14.838 0.209 30.722 10.868 41.798 10.868 11.077 32.603 12.957 41.798 10.868l319.756-90.075c7.106-1.881 13.375-5.643 18.6-10.868l595.833-596.669c47.441-47.441 47.441-124.768 0-172.417z"></path>
</svg>
