<!-- Generated by IcoMoon.io -->
<svg version="1.1" xmlns="http://www.w3.org/2000/svg" width="1024" height="1024" viewBox="0 0 1024 1024">
<title></title>
<g id="icomoon-ignore">
</g>
<path d="M42.667 341.333c23.595 0 42.667-19.072 42.667-42.667v-170.667c0-23.552 19.115-42.667 42.667-42.667h170.667c23.595 0 42.667-19.072 42.667-42.667s-19.072-42.667-42.667-42.667h-170.667c-70.571 0-128 57.429-128 128v170.667c0 23.595 19.072 42.667 42.667 42.667zM981.333 682.667c-23.595 0-42.667 19.072-42.667 42.667v170.667c0 23.552-19.115 42.667-42.667 42.667h-170.667c-23.595 0-42.667 19.072-42.667 42.667s19.072 42.667 42.667 42.667h170.667c70.571 0 128-57.429 128-128v-170.667c0-23.595-19.072-42.667-42.667-42.667zM298.667 938.667h-170.667c-23.552 0-42.667-19.115-42.667-42.667v-170.667c0-23.595-19.072-42.667-42.667-42.667s-42.667 19.072-42.667 42.667v170.667c0 70.571 57.429 128 128 128h170.667c23.595 0 42.667-19.072 42.667-42.667s-19.072-42.667-42.667-42.667zM896 0h-170.667c-23.595 0-42.667 19.072-42.667 42.667s19.072 42.667 42.667 42.667h170.667c23.552 0 42.667 19.115 42.667 42.667v170.667c0 23.595 19.072 42.667 42.667 42.667s42.667-19.072 42.667-42.667v-170.667c0-70.571-57.429-128-128-128zM213.333 330.667v362.667c0 64.725 52.608 117.333 117.333 117.333h362.667c64.725 0 117.333-52.608 117.333-117.333v-362.667c0-64.725-52.608-117.333-117.333-117.333h-362.667c-64.725 0-117.333 52.608-117.333 117.333z"></path>
</svg>
