<!-- Generated by IcoMoon.io -->
<svg version="1.1" xmlns="http://www.w3.org/2000/svg" width="1024" height="1024" viewBox="0 0 1024 1024">
<title></title>
<g id="icomoon-ignore">
</g>
<path d="M861.894 795.204l-106.557-479.986v-0.8c-0.949-3.424-2.548-6.397-4.669-8.915l0.029 0.035-219.914-295.991c-4.427-5.825-11.359-9.547-19.159-9.547s-14.733 3.722-19.116 9.488l-0.043 0.059-219.674 295.991c-2.088 2.485-3.686 5.457-4.6 8.714l-0.040 0.166-106.637 479.986v8.8c0.048 1.449 0.337 2.817 0.829 4.085l-0.029-0.085 0.4 1.6c1.827 4.371 4.871 7.931 8.708 10.346l0.092 0.054 2 1.28h0.88l324.231 199.994c3.564 2.212 7.887 3.523 12.517 3.523 0.128 0 0.255-0.001 0.382-0.003h-0.019c4.811-0.097 9.293-1.421 13.171-3.67l-0.131 0.070 324.47-200.474h0.88l2-1.28c3.021-2.157 5.53-4.818 7.453-7.885l0.067-0.115c1.389-1.753 2.272-3.962 2.399-6.372l0.001-0.028c0.427-1.395 0.673-2.999 0.673-4.66 0-1.559-0.216-3.067-0.621-4.496l0.028 0.116zM535.503 224.82v-128.796l169.515 228.393-40.399 125.436zM796.936 775.124h-187.275l67.198-208.794zM697.019 504.812l30.479-94.717 53.518 241.033zM754.937 822.323l-200.474 123.756 39.999-123.756zM428.866 822.323l39.999 123.756-200.714-123.756zM378.628 510.332l132.876-231.273 133.676 231.513-85.118 264.552h-96.557zM413.347 776.004h-187.275l119.996-208.794zM487.505 224.82l-129.116 223.993-40.399-124.396 169.515-228.393zM241.832 651.848l53.678-240.953 30.479 94.717zM544.543 822.323l-33.039 100.877-31.999-100.877z"></path>
</svg>
