<!-- Generated by IcoMoon.io -->
<svg version="1.1" xmlns="http://www.w3.org/2000/svg" width="1024" height="1024" viewBox="0 0 1024 1024">
<title></title>
<g id="icomoon-ignore">
</g>
<path d="M745.172 920.32h-235.224c21.922-21.922 425.582-425.582 448.428-448.43 46.256-46.256 46.256-121.52 0-167.774l-253.932-253.934c-46.256-46.254-121.516-46.25-167.774 0.002l-501.896 501.898c-46.36 46.36-46.37 121.408 0 167.774l253.93 253.932c22.884 22.882 52.864 34.422 82.92 34.666 0.324 0.006 0.64 0.050 0.968 0.050h372.582c24.35 0 44.092-19.742 44.092-44.092-0.002-24.35-19.744-44.092-44.094-44.092zM599.026 112.542c11.87-11.87 31.186-11.876 43.062 0l253.93 253.93c11.872 11.872 11.872 31.188 0 43.062l-219.77 219.77-296.992-296.992 219.77-219.77zM351.060 911.43l-253.93-253.93c-11.9-11.894-11.902-31.158 0-43.062l219.77-219.77 296.992 296.992-219.77 219.77c-11.826 11.826-31.174 11.89-43.062 0zM979.906 920.32h-74.54c-24.352 0-44.092 19.742-44.092 44.092s19.742 44.092 44.092 44.092h74.54c24.35 0 44.092-19.742 44.092-44.092s-19.738-44.092-44.092-44.092zM904.594 814.908c0-24.35-19.742-44.092-44.092-44.092h-74.54c-24.35 0-44.092 19.742-44.092 44.092s19.742 44.092 44.092 44.092h74.54c24.352 0.002 44.092-19.74 44.092-44.092z"></path>
</svg>
