<!-- Generated by IcoMoon.io -->
<svg version="1.1" xmlns="http://www.w3.org/2000/svg" width="320" height="512" viewBox="0 0 320 512">
<title></title>
<g id="icomoon-ignore">
</g>
<path fill="#000" d="M155.219 4.952c-1.138 2.724-35.523 60.462-76.413 128.31-40.889 67.846-74.684 124.247-75.103 125.335-0.543 1.416 21.671 15.235 77.892 48.454l78.653 46.474 78.631-46.498c56.49-33.406 78.417-47.062 77.868-48.493-2.841-7.405-155.746-258.534-157.413-258.534-1.125 0-2.977 2.228-4.115 4.953zM3.889 292.020c3.031 5.182 155.709 219.999 156.347 219.98 1.055-0.033 157.153-220.617 156.549-221.221-0.57-0.568-146.476 85.366-152.563 89.855l-3.731 2.753-75.544-44.601c-41.55-24.53-77.079-45.591-78.954-46.799-3.107-2.002-3.295-2-2.104 0.035z"></path>
</svg>
