<!-- Generated by IcoMoon.io -->
<svg version="1.1" xmlns="http://www.w3.org/2000/svg" width="640" height="1024" viewBox="0 0 640 1024">
<title></title>
<g id="icomoon-ignore">
</g>
<path d="M310.437 9.905c-2.276 5.447-71.047 120.925-152.826 256.619-81.779 135.691-149.369 248.493-150.205 250.67-1.086 2.831 43.342 30.469 155.784 96.909l157.307 92.947 157.262-92.997c112.98-66.813 156.833-94.123 155.736-96.985-5.683-14.811-311.492-517.068-314.827-517.068-2.25 0-5.954 4.456-8.23 9.906zM7.779 584.040c6.062 10.363 311.418 439.998 312.695 439.959 2.11-0.065 314.306-441.234 313.099-442.443-1.139-1.137-292.953 170.732-305.126 179.709l-7.462 5.506-151.089-89.203c-83.1-49.060-154.159-91.182-157.908-93.598-6.215-4.004-6.589-3.999-4.209 0.070z"></path>
</svg>
