<!-- Generated by IcoMoon.io -->
<svg version="1.1" xmlns="http://www.w3.org/2000/svg" width="640" height="1024" viewBox="0 0 640 1024">
<title></title>
<g id="icomoon-ignore">
</g>
<path d="M621.412 827.53c-2.628-13.26-15.67-21.744-28.848-18.738-21.384 4.878-54.844 10.826-90.852 10.826-113.526 0-203.858-69.58-242.922-170.898h227.378c11.39 0 20.926-7.934 23.385-18.576l0.031-0.162 12.746-56.72c3.372-15.004-8.038-29.262-23.416-29.262h-268.474c-2.42-28.656-2.828-56.574 0.274-84.49h293.186c0 0 0.001 0 0.001 0 11.436 0 21.005-7.999 23.415-18.708l0.030-0.16 13.024-59.51c3.276-14.968-8.122-29.132-23.446-29.132h-276.556c41.266-89.982 125.38-150.060 235.238-150.060 28.972 0 57.128 4.5 75.702 8.29 12.432 2.536 24.694-4.996 28.004-17.246l23.982-88.736c3.644-13.482-4.93-27.232-18.652-29.834-24.208-4.59-63.222-10.414-105.372-10.414-194.368 0-351.21 120.504-409.12 288h-66.15c-13.254 0-24 10.746-24 24v59.51c0 13.254 10.746 24 24 24h43.138c-2.018 27.214-2.362 58.574-0.362 84.49h-42.776c-13.254 0-24 10.746-24 24v56.72c0 13.254 10.746 24 24 24h60.228c50.050 180.664 206.3 311.28 415.042 311.28 52.602 0 97.124-9.088 122.202-15.576 12.334-3.19 20.054-15.416 17.576-27.914l-17.636-88.98z"></path>
</svg>
