<?xml version="1.0" encoding="iso-8859-1"?>
<!-- Generator: Adobe Illustrator 18.0.0, SVG Export Plug-In . SVG Version: 6.00 Build 0)  -->
<!DOCTYPE svg PUBLIC "-//W3C//DTD SVG 1.1//EN" "http://www.w3.org/Graphics/SVG/1.1/DTD/svg11.dtd">
<svg version="1.1" id="Capa_1" xmlns="http://www.w3.org/2000/svg" xmlns:xlink="http://www.w3.org/1999/xlink" x="0px" y="0px"
	 viewBox="0 0 447.308 447.308" style="enable-background:new 0 0 447.308 447.308;" xml:space="preserve">
<path d="M426.652,0H263.368c-8.364,0.03-15.892,5.053-19.082,12.731c-3.175,7.755-1.42,16.609,4.474,22.503l35.676,35.676
	L70.926,284.435L35.25,248.76c-5.909-5.909-14.779-7.649-22.503-4.475c-7.71,3.191-12.733,10.719-12.733,19.083l-0.014,163.3
	c0.014,11.404,9.251,20.64,20.64,20.64h163.313c8.366-0.014,15.893-5.036,19.083-12.716c3.191-7.74,1.421-16.609-4.473-22.518
	l-35.676-35.691l213.494-213.511l35.691,35.678c5.907,5.907,14.777,7.679,22.517,4.503c7.681-3.221,12.717-10.732,12.717-19.098
	v-163.3C447.307,9.252,438.072,0,426.652,0z"/>
<g>
</g>
<g>
</g>
<g>
</g>
<g>
</g>
<g>
</g>
<g>
</g>
<g>
</g>
<g>
</g>
<g>
</g>
<g>
</g>
<g>
</g>
<g>
</g>
<g>
</g>
<g>
</g>
<g>
</g>
</svg>
