<!-- Generated by IcoMoon.io -->
<svg version="1.1" xmlns="http://www.w3.org/2000/svg" width="1024" height="1024" viewBox="0 0 1024 1024">
<title></title>
<g id="icomoon-ignore">
</g>
<path d="M972.799 0.001h-307.199c-28.277 0-51.2 22.924-51.2 51.2s22.924 51.2 51.2 51.2v0h183.603l-424.601 424.601c-9.643 9.323-15.631 22.376-15.631 36.828 0 28.277 22.924 51.2 51.2 51.2 14.452 0 27.504-5.987 36.814-15.617l424.616-424.616v183.603c0 28.277 22.924 51.2 51.2 51.2s51.2-22.924 51.2-51.2v0-307.199c0-28.277-22.924-51.2-51.2-51.2v0zM870.4 439.706c-28.277 0-51.2 22.924-51.2 51.2v0 366.744c-0.029 35.306-28.643 63.919-63.945 63.949h-588.904c-35.306-0.029-63.919-28.643-63.949-63.945v-588.904c0.029-35.306 28.643-63.919 63.945-63.949h318.568c28.277 0 51.2-22.924 51.2-51.2s-22.924-51.2-51.2-51.2v0h-318.566c-91.825 0.116-166.232 74.523-166.348 166.338v588.81c0.059 91.869 74.487 166.334 166.338 166.45h588.81c91.869-0.059 166.334-74.487 166.45-166.338v-366.755c0-28.277-22.924-51.2-51.2-51.2v0z"></path>
</svg>
