<!-- Generated by IcoMoon.io -->
<svg version="1.1" xmlns="http://www.w3.org/2000/svg" width="1024" height="1024" viewBox="0 0 1024 1024">
<title></title>
<g id="icomoon-ignore">
</g>
<path d="M833.524 493.249c-4.688-14.146-16.546-24.72-31.139-27.776l-200.841-42.035 60.589-374.893c3-18.582-6.766-36.887-23.884-44.727-17.132-7.854-37.361-3.32-49.471 11.104l-390.629 464.57c-8.886 10.574-11.984 24.874-8.272 38.185 3.71 13.31 13.77 23.94 26.856 28.376l194.798 66.113-78.557 361.096c-4.046 18.624 4.994 37.627 22 46.233 6.012 3.042 12.486 4.506 18.89 4.506 11.718 0 23.242-4.924 31.391-14.16l419.927-475.704c9.86-11.174 13.042-26.742 8.34-40.889zM448.978 833.808l52.303-240.377c4.534-20.814-7.282-41.699-27.442-48.535l-172.197-58.441 253.699-301.692-42.789 264.75c-3.572 22.070 10.854 43.053 32.743 47.643l169.547 35.477-265.864 301.176z"></path>
</svg>
