<!-- Generated by IcoMoon.io -->
<svg version="1.1" xmlns="http://www.w3.org/2000/svg" width="1024" height="1024" viewBox="0 0 1024 1024">
<title></title>
<g id="icomoon-ignore">
</g>
<path d="M307.2 972.8c-28.277 0-51.2-22.924-51.2-51.2v0-870.399c0-28.277 22.924-51.2 51.2-51.2s51.2 22.924 51.2 51.2v0 870.399c0 28.277-22.924 51.2-51.2 51.2v0zM307.2 1024c-14.137-0.004-26.935-5.736-36.198-15.001l-153.6-153.6c-8.892-9.198-14.372-21.744-14.372-35.569 0-28.277 22.924-51.2 51.2-51.2 13.825 0 26.371 5.48 35.584 14.387l117.388 117.388 117.402-117.402c9.198-8.892 21.744-14.372 35.569-14.372 28.277 0 51.2 22.924 51.2 51.2 0 13.825-5.48 26.371-14.387 35.584l-153.585 153.585c-9.263 9.266-22.061 14.999-36.198 15.001h-0.001zM716.8 1024c-28.277 0-51.2-22.924-51.2-51.2v0-870.399c0-28.277 22.924-51.2 51.2-51.2s51.2 22.924 51.2 51.2v0 870.399c0 28.277-22.924 51.2-51.2 51.2v0zM870.4 256.001c-14.137-0.004-26.935-5.736-36.198-15.001l-117.402-117.402-117.402 117.402c-9.198 8.892-21.744 14.372-35.569 14.372-28.277 0-51.2-22.924-51.2-51.2 0-13.825 5.48-26.371 14.387-35.584l153.585-153.585c9.265-9.262 22.063-14.99 36.198-14.99s26.934 5.729 36.198 14.99l153.6 153.6c9.262 9.265 14.99 22.063 14.99 36.198 0 28.273-22.916 51.193-51.188 51.2h-0.001z"></path>
</svg>
