<!-- Generated by IcoMoon.io -->
<svg version="1.1" xmlns="http://www.w3.org/2000/svg" width="1024" height="1024" viewBox="0 0 1024 1024">
<title></title>
<g id="icomoon-ignore">
</g>
<path d="M144.999 796.415c-27.289-54.835-42.599-116.684-42.599-182.016 0-226.047 183.552-409.599 409.599-409.599 15.412 0 30.618 0.87 45.568 2.509 28.057 3.124 53.401-17.152 56.525-45.26 3.124-28.057-17.152-53.401-45.26-56.525-18.637-2.048-37.632-3.124-56.832-3.124-282.572 0-511.999 229.426-511.999 511.999 0 81.715 19.2 159.027 53.351 227.583 12.544 25.344 43.315 35.635 68.607 23.040s35.635-43.315 23.040-68.607zM813.261 336.998c-63.795 134.553-163.737 345.446-168.14 353.996l-0.973 1.638c-26.726 45.107-75.93 75.366-132.147 75.366-84.787 0-153.6-68.813-153.6-153.6 0-42.342 17.152-80.742 44.953-108.543l1.177 1.229 0.973-3.174c30.822-27.648 379.698-337.407 379.698-337.407 18.227-16.128 45.26-17.255 64.717-2.663s25.958 40.858 15.565 62.874l-5.735 12.032c101.017 93.542 164.25 227.276 164.25 375.653 0 81.715-19.2 159.027-53.351 227.583-12.544 25.344-43.315 35.635-68.607 23.040s-35.635-43.315-23.040-68.607c27.289-54.835 42.599-116.684 42.599-182.016 0-106.957-41.113-204.441-108.339-277.401zM665.805 409.344c-94.055 83.507-188.518 167.424-190.003 168.908-9.268 9.268-15.001 22.016-15.001 36.148 0 28.262 22.938 51.2 51.2 51.2 18.944 0 35.482-10.343 44.39-25.651 1.382-2.406 55.603-116.838 109.415-230.605zM405.504 503.911l-2.15 1.945 2.202-2.099z"></path>
</svg>
