<!-- Generated by IcoMoon.io -->
<svg version="1.1" xmlns="http://www.w3.org/2000/svg" width="1024" height="1024" viewBox="0 0 1024 1024">
<title></title>
<g id="icomoon-ignore">
</g>
<path d="M940.284 316.31c11.079-33.241 16.625-67.699 16.625-103.388 0-47.591-10.473-92.312-31.391-134.157-43.888 0-82.658 8.007-116.308 24.003-33.633 16-71.991 40.819-115.054 74.459-54.148-13.126-111.601-19.69-172.305-19.69-66.466 0-129.853 7.184-190.157 21.541-43.893-34.465-82.662-59.791-116.304-76s-72.614-24.311-116.924-24.311c-20.923 41.845-31.383 86.568-31.383 134.157 0 36.105 5.535 70.978 16.614 104.613-55.801 65.236-83.697 146.462-83.697 243.695 0 85.343 12.713 153.232 38.153 203.701 13.542 26.656 31.178 50.247 52.924 70.766 21.737 20.507 46.559 37.133 74.459 49.855 27.904 12.708 56 23.281 84.311 31.682 28.309 8.406 59.588 14.566 93.846 18.448 34.256 3.914 64.511 6.475 90.766 7.714 26.255 1.216 55.379 1.839 87.389 1.839 37.737 0 71.982-0.931 102.766-2.765 30.773-1.843 65.943-6.365 105.537-13.527 39.588-7.184 74.463-16.935 104.624-29.238 30.154-12.303 59.084-29.949 86.775-52.917 27.691-22.983 49.324-50.26 64.923-81.854 25.011-50.874 37.53-118.778 37.53-203.701-0.015-97.644-27.913-179.283-83.718-244.923zM866.463 763.995c-13.131 26.88-29.749 47.99-49.848 63.391-20.108 15.387-45.13 27.691-75.075 36.933-29.96 9.227-58.664 15.275-86.154 18.138-27.499 2.875-58.052 4.307-91.702 4.307h-103.386c-33.639 0-64.21-1.431-91.693-4.307-27.486-2.862-56.202-8.91-86.154-18.138-29.941-9.242-54.963-21.545-75.071-36.933-20.108-15.403-36.722-36.51-49.85-63.391-13.126-26.88-19.692-58.36-19.692-94.459 0-49.245 14.155-91.096 42.466-125.542 28.309-34.465 66.665-51.691 115.071-51.691 17.648 0 57.649 4.304 120.007 12.922 29.126 4.511 61.334 6.768 96.612 6.768 35.288 0 67.492-2.25 96.614-6.768 63.19-8.619 103.177-12.922 120.009-12.922 48.404 0 86.759 17.235 115.069 51.691 28.311 34.461 42.457 76.297 42.457 125.542 0 36.105-6.565 67.602-19.679 94.459zM359.684 572.304c-12.514-13.956-27.38-20.933-44.615-20.933-17.239 0-32.107 6.986-44.619 20.933-12.506 13.941-21.332 29.536-26.458 46.749-5.136 17.248-7.697 34.064-7.697 50.484 0 16.403 2.567 33.221 7.697 50.467 5.119 17.224 13.941 32.81 26.458 46.749 12.519 13.956 27.38 20.935 44.619 20.935 17.235 0 32.107-6.992 44.615-20.935 12.51-13.941 21.332-29.525 26.458-46.749 5.13-17.245 7.697-34.064 7.697-50.467 0-16.405-2.561-33.236-7.697-50.484-5.128-17.207-13.941-32.795-26.458-46.749zM753.533 572.304c-12.51-13.956-27.38-20.933-44.61-20.933-17.224 0-32.103 6.986-44.619 20.933-12.51 13.941-21.33 29.536-26.449 46.749-5.141 17.248-7.708 34.064-7.708 50.484 0 16.403 2.567 33.221 7.708 50.467 5.119 17.224 13.941 32.81 26.449 46.749 12.519 13.956 27.395 20.935 44.619 20.935 17.23 0 32.103-6.992 44.61-20.935 12.504-13.941 21.33-29.525 26.464-46.749 5.128-17.245 7.693-34.064 7.693-50.467 0-16.405-2.565-33.236-7.693-50.484-5.132-17.207-13.961-32.795-26.464-46.749z"></path>
</svg>
