<!-- Generated by IcoMoon.io -->
<svg version="1.1" xmlns="http://www.w3.org/2000/svg" width="1024" height="1024" viewBox="0 0 1024 1024">
<title></title>
<g id="icomoon-ignore">
</g>
<path d="M1003.52 436.224c-21.504-32.768-54.272-64.512-86.016-97.28l-75.776 75.776c26.624 21.504 48.128 48.128 70.656 80.896v16.384c-70.656 108.544-205.824 178.176-352.256 189.44l-107.52 107.52c21.504 0 37.888 5.12 59.392 5.12 205.824 0 389.12-92.16 491.52-242.688 27.648-43.008 27.648-97.28 0-135.168zM657.408 452.608l259.072-259.072c16.384-16.384 16.384-43.008 0-59.392s-43.008-16.384-59.392 0l-107.52 107.52c-75.776-32.768-156.672-48.128-237.568-48.128-205.824 0-389.12 92.16-491.52 242.688-26.624 37.888-26.624 92.16 0 135.168 48.128 75.776 123.904 135.168 210.944 178.176l-80.896 80.896c-16.384 16.384-16.384 43.008 0 59.392s43.008 16.384 59.392 0l242.688-242.688zM468.992 517.12c0-5.12 0-11.264 0-11.264 0-26.624 21.504-48.128 48.128-48.128h11.264zM355.328 500.736c0 32.768 11.264 64.512 32.768 92.16l-70.656 70.656c-86.016-32.768-156.672-86.016-205.824-156.672 0-5.12 0-11.264 0-16.384 81.92-113.664 232.448-189.44 400.384-189.44 54.272 0 102.4 5.12 145.408 21.504l-53.248 54.272c-26.624-16.384-59.392-26.624-92.16-26.624-86.016 0-156.672 69.632-156.672 150.528z"></path>
</svg>
