<!-- Generated by IcoMoon.io -->
<svg version="1.1" xmlns="http://www.w3.org/2000/svg" width="1024" height="1024" viewBox="0 0 1024 1024">
<title></title>
<g id="icomoon-ignore">
</g>
<path d="M371.2 239.36l-51.2 183.040-320 41.6zM458.24 980.48l79.36-334.080-104.32-42.88zM320 422.4l-83.2 174.72-236.8-132.48zM458.24 980.48l-24.32-377.6-196.48-6.4zM320 422.4l113.92 180.48-196.48-6.4zM371.2 239.36l268.8 33.28-320 149.76zM931.2 156.16l-169.6 195.84 12.8-181.12zM1024 43.52l-92.8 112 72.96 8.96zM840.32 256l163.2-92.8-72.32-8.96zM537.6 646.4l8.32-224-112.64 181.12zM546.56 422.4l-112.64 181.12-113.92-181.12zM640 272.64l-94.080 149.76h-225.92zM545.92 422.4l-7.68 224 204.8 209.92zM851.2 739.2l-108.8-268.8v384zM761.6 352l-19.2 119.040-197.12-48zM862.080 512l-119.68-41.6 19.2-119.040zM904.32 732.16l-128-208.64h74.24zM662.4 228.48l99.2 123.52 12.8-181.12zM742.4 470.4l-196.48-48 198.4 433.92zM851.2 739.2l42.88 24.32-150.4 92.8zM904.32 729.6l-161.92-259.2 108.8 268.8zM662.4 228.48l-116.48 192 216.32-70.4z"></path>
</svg>
