<!-- Generated by IcoMoon.io -->
<svg version="1.1" xmlns="http://www.w3.org/2000/svg" width="1024" height="1024" viewBox="0 0 1024 1024">
<title></title>
<g id="icomoon-ignore">
</g>
<path d="M627.188 314.901c0.078-3.057 0.122-6.656 0.122-10.267 0-118.951-48.224-226.639-126.188-304.578l-0.001-0.001h-3.84c-4.48 287.969-149.744 364.761-228.456 468.43-48.617 59.314-78.084 135.952-78.084 219.473 0 153.248 99.203 283.324 236.896 329.515l2.451 0.713c97.27 26.877-22.398-47.995-38.396-206.698-19.198-191.979 236.775-337.884 236.775-496.587zM710.379 411.531h-3.84c-17.698 69.863-47.264 131.045-86.756 184.442l1.005-1.422c-156.783 238.055-63.993 351.962-16.638 414.676 28.797 35.836 0 0 72.312-36.476 88.384-54.485 148.577-147.362 157.346-254.794l0.077-1.179c0.801-9.121 1.258-19.734 1.258-30.454 0-109.982-48.086-208.735-124.38-276.378l-0.385-0.335z"></path>
</svg>
