<!-- Generated by IcoMoon.io -->
<svg version="1.1" xmlns="http://www.w3.org/2000/svg" width="1024" height="1024" viewBox="0 0 1024 1024">
<title></title>
<g id="icomoon-ignore">
</g>
<path d="M512 0c-282.317 0-512 229.686-512 512.003s229.683 511.997 512 511.997 512-229.68 512-511.997c0-282.317-229.683-512.003-512-512.003zM512 930.909c-230.99 0-418.909-187.92-418.909-418.906s187.92-418.912 418.909-418.912 418.909 187.926 418.909 418.912c0 230.986-187.923 418.906-418.909 418.906zM511.994 217.212c-34.214 0-62.048 27.853-62.048 62.089 0 34.205 27.834 62.033 62.048 62.033s62.048-27.828 62.048-62.033c0-34.236-27.834-62.089-62.048-62.089zM512 434.424c-25.706 0-46.545 20.84-46.545 46.545v279.273c0 25.706 20.84 46.545 46.545 46.545s46.545-20.84 46.545-46.545v-279.273c0-25.706-20.84-46.545-46.545-46.545z"></path>
</svg>
