<!-- Generated by IcoMoon.io -->
<svg version="1.1" xmlns="http://www.w3.org/2000/svg" width="1024" height="1024" viewBox="0 0 1024 1024">
<title></title>
<g id="icomoon-ignore">
</g>
<path d="M803.254 80.929c0 32.753-26.551 59.303-59.303 59.303s-59.303-26.551-59.303-59.303c0-32.753 26.551-59.303 59.303-59.303v0c32.753 0 59.303 26.551 59.303 59.303v0zM810.794 237.306c0 27.747-22.494 50.241-50.241 50.241s-50.241-22.494-50.241-50.241c0-27.747 22.494-50.241 50.241-50.241s50.241 22.494 50.241 50.241zM787.449 368.962c0 23.463-19.020 42.483-42.483 42.483s-42.483-19.020-42.483-42.483c0-23.463 19.020-42.483 42.483-42.483s42.483 19.020 42.483 42.483zM742.428 475.896c0 20.020-16.229 36.248-36.248 36.248s-36.248-16.229-36.248-36.248c0-20.020 16.229-36.248 36.248-36.248v0c20.020 0 36.248 16.229 36.248 36.248v0zM685.010 556.078c-0.041 17.186-13.982 31.101-31.174 31.101-17.217 0-31.174-13.957-31.174-31.174s13.957-31.174 31.174-31.174v0c0.022 0 0.047 0 0.073 0 17.177 0 31.101 13.925 31.101 31.101 0 0.051 0 0.102 0 0.153v-0.008zM622.155 613.134c0 14.774-11.977 26.751-26.751 26.751s-26.751-11.977-26.751-26.751c0-14.774 11.977-26.751 26.751-26.751v0c14.774 0 26.751 11.977 26.751 26.751v0zM942.087 267.175c-5.291 22.811-25.439 39.553-49.498 39.553-28.028 0-50.748-22.721-50.748-50.748s22.721-50.748 50.748-50.748c4.213 0 8.307 0.513 12.22 1.481l-0.349-0.073c22.473 5.543 38.877 25.525 38.877 49.34 0 3.969-0.456 7.832-1.317 11.538l0.067-0.343zM918.017 398.034c-4.546 19.070-21.439 33.031-41.592 33.031-23.583 0-42.701-19.118-42.701-42.701s19.118-42.701 42.701-42.701c3.438 0 6.781 0.406 9.984 1.173l-0.291-0.058c19.055 4.589 32.994 21.486 32.994 41.641 0 3.41-0.399 6.726-1.153 9.906l0.058-0.29zM873.141 502.503c-3.869 16.174-18.202 28.012-35.3 28.012-20.020 0-36.248-16.229-36.248-36.248s16.229-36.248 36.248-36.248c2.982 0 5.88 0.36 8.652 1.039l-0.248-0.052c16.090 3.931 27.845 18.223 27.845 35.261 0 2.922-0.346 5.763-0.998 8.485l0.050-0.247zM815.289 582.033c-3.304 13.727-15.477 23.768-29.995 23.768-17.017 0-30.811-13.795-30.811-30.811s13.795-30.811 30.811-30.811c2.488 0 4.907 0.295 7.223 0.851l-0.21-0.042c13.742 3.294 23.798 15.474 23.798 30.003 0 2.499-0.298 4.928-0.859 7.254l0.043-0.211zM751.925 637.494c-2.844 11.782-13.294 20.398-25.758 20.398-14.614 0-26.462-11.848-26.462-26.462s11.848-26.462 26.462-26.462c2.142 0 4.225 0.255 6.219 0.735l-0.181-0.036c11.798 2.8 20.438 13.246 20.438 25.709 0 2.17-0.262 4.28-0.757 6.298l0.037-0.181zM689.070 672.582c-2.429 10.158-11.431 17.594-22.169 17.594-12.573 0-22.764-10.192-22.764-22.764s10.192-22.764 22.764-22.764c1.847 0 3.641 0.22 5.361 0.635l-0.155-0.032c10.141 2.442 17.56 11.436 17.56 22.162 0 1.834-0.216 3.617-0.626 5.325l0.032-0.155zM1019.732 445.81c-7.113 14.445-21.73 24.208-38.626 24.208-23.704 0-42.918-19.216-42.918-42.918s19.216-42.918 42.918-42.918c6.798 0 13.228 1.581 18.941 4.395l-0.252-0.112c14.445 7.133 24.206 21.762 24.206 38.67 0 6.792-1.576 13.218-4.381 18.929l0.112-0.253zM975 549.264c-6.053 12.068-18.329 20.206-32.505 20.206-20.020 0-36.248-16.229-36.248-36.248s16.229-36.248 36.248-36.248c5.647 0 10.992 1.291 15.757 3.594l-0.216-0.094c12.343 5.957 20.708 18.376 20.708 32.749 0 5.843-1.382 11.363-3.839 16.251l0.095-0.209zM918.671 628.141c-5.247 10.556-15.956 17.684-28.332 17.684-17.417 0-31.536-14.119-31.536-31.536s14.119-31.536 31.536-31.536c5.034 0 9.793 1.18 14.015 3.277l-0.184-0.082c10.556 5.267 17.68 15.989 17.68 28.375 0 5.028-1.174 9.783-3.263 14.003l0.082-0.185zM856.178 683.167c-4.481 9.393-13.901 15.768-24.811 15.768-15.135 0-27.404-12.269-27.404-27.404s12.269-27.404 27.404-27.404c4.388 0 8.534 1.031 12.211 2.864l-0.159-0.072c9.155 4.586 15.33 13.894 15.33 24.646 0 4.211-0.947 8.202-2.642 11.77l0.071-0.167zM793.104 717.386c-3.875 7.9-11.859 13.241-21.090 13.241-12.933 0-23.416-10.484-23.416-23.416s10.484-23.416 23.416-23.416c3.717 0 7.231 0.866 10.352 2.407l-0.137-0.061c7.888 3.858 13.226 11.825 13.226 21.037 0 3.715-0.868 7.227-2.412 10.346l0.061-0.136zM733.801 734.64c-3.293 6.684-10.057 11.203-17.877 11.203-10.971 0-19.864-8.894-19.864-19.864s8.894-19.864 19.864-19.864c3.154 0 6.136 0.736 8.786 2.044l-0.116-0.052c6.68 3.294 11.195 10.057 11.195 17.873 0 3.151-0.734 6.131-2.040 8.778l0.052-0.116zM782.084 961.63c-17.874-10.439-29.693-29.53-29.693-51.381 0-32.753 26.551-59.303 59.303-59.303s59.303 26.551 59.303 59.303c0 10.91-2.946 21.131-8.085 29.913l0.151-0.281c-10.42 17.876-29.501 29.697-51.343 29.697-10.913 0-21.137-2.952-29.917-8.1l0.279 0.151zM643.179 889.858c-15.123-8.831-25.122-24.982-25.122-43.469 0-27.707 22.461-50.169 50.169-50.169s50.169 22.461 50.169 50.169c0 9.224-2.489 17.866-6.833 25.292l0.128-0.238c-8.81 15.132-24.955 25.14-43.437 25.14-9.233 0-17.881-2.498-25.309-6.854l0.236 0.128zM540.378 803.948c-12.83-7.472-21.316-21.163-21.316-36.835 0-23.463 19.020-42.483 42.483-42.483s42.483 19.020 42.483 42.483c0 7.794-2.098 15.097-5.762 21.377l0.109-0.202c-7.494 12.812-21.187 21.282-36.857 21.282-7.779 0-15.070-2.087-21.345-5.732l0.203 0.109zM470.49 711.731c-10.929-6.38-18.156-18.051-18.156-31.411 0-20.020 16.229-36.248 36.248-36.248s36.248 16.229 36.248 36.248c0 6.652-1.792 12.885-4.918 18.243l0.093-0.172c-6.377 10.941-18.055 18.177-31.423 18.177-6.66 0-12.901-1.797-18.265-4.931l0.171 0.093zM429.456 621.834c-9.424-5.481-15.658-15.532-15.658-27.039 0-17.217 13.957-31.174 31.174-31.174s31.174 13.957 31.174 31.174c0 5.708-1.534 11.058-4.213 15.66l0.079-0.148c-5.522 9.399-15.583 15.61-27.094 15.61-5.685 0-11.017-1.515-15.613-4.163l0.151 0.080zM411.187 538.824c-8.194-4.678-13.627-13.36-13.627-23.311 0-14.774 11.977-26.751 26.751-26.751s26.751 11.977 26.751 26.751c0 4.955-1.348 9.596-3.696 13.575l0.068-0.125c-4.722 8.011-13.305 13.3-23.124 13.3-4.823 0-9.349-1.277-13.256-3.51l0.131 0.069zM636.219 951.988c0 27.828-22.558 50.386-50.386 50.386s-50.386-22.558-50.386-50.386c0-27.828 22.558-50.386 50.386-50.386s50.386 22.558 50.386 50.386zM449.972 902.545c-8.309-7.81-13.483-18.871-13.483-31.141 0-23.583 19.118-42.701 42.701-42.701s42.701 19.118 42.701 42.701c0 11.297-4.387 21.569-11.55 29.206l0.021-0.023c-7.822 8.312-18.895 13.488-31.176 13.488-11.307 0-21.59-4.388-29.238-11.553l0.024 0.022zM382.188 811.56c-7.218-6.647-11.724-16.144-11.724-26.693 0-20.020 16.229-36.248 36.248-36.248s36.248 16.229 36.248 36.248c0 9.712-3.82 18.532-10.038 25.040l0.013-0.013c-6.613 6.921-15.916 11.223-26.224 11.223-9.47 0-18.093-3.632-24.55-9.579l0.026 0.023zM341.878 721.664c-6.009-5.636-9.753-13.627-9.753-22.492 0-17.017 13.795-30.811 30.811-30.811s30.811 13.795 30.811 30.811c0 8.178-3.186 15.613-8.386 21.129l0.014-0.015c-5.633 5.976-13.602 9.697-22.439 9.697-8.152 0-15.565-3.166-21.076-8.335l0.016 0.015zM325.277 639.306c-5.181-4.855-8.41-11.74-8.41-19.38 0-14.655 11.88-26.534 26.534-26.534s26.534 11.88 26.534 26.534c0 7.026-2.732 13.414-7.19 18.162l0.013-0.014c-4.853 5.167-11.73 8.386-19.357 8.386-7.015 0-13.393-2.722-18.138-7.168l0.014 0.013zM326.365 567.098c-4.423-4.162-7.177-10.055-7.177-16.59 0-12.573 10.192-22.764 22.764-22.764s22.764 10.192 22.764 22.764c0 6.031-2.346 11.514-6.174 15.588l0.011-0.011c-4.154 4.447-10.053 7.219-16.598 7.219-6.043 0-11.534-2.362-15.601-6.214l0.011 0.010zM357.828 966.851c-4.657-6.762-7.437-15.13-7.437-24.146 0-23.704 19.216-42.918 42.918-42.918s42.918 19.216 42.918 42.918c0 14.67-7.36 27.622-18.59 35.362l-0.145 0.094c-6.77 4.672-15.151 7.462-24.183 7.462-14.686 0-27.65-7.377-35.387-18.627l-0.094-0.146zM290.478 876.446c-3.838-5.663-6.127-12.647-6.127-20.166 0-20.020 16.229-36.248 36.248-36.248s36.248 16.229 36.248 36.248c0 12.305-6.131 23.178-15.505 29.731l-0.117 0.078c-5.76 4.030-12.912 6.441-20.626 6.441-12.501 0-23.524-6.328-30.040-15.955l-0.081-0.127zM250.532 788.506c-3.459-4.988-5.526-11.169-5.526-17.834 0-17.417 14.119-31.536 31.536-31.536s31.536 14.119 31.536 31.536c0 10.899-5.529 20.508-13.935 26.172l-0.112 0.071c-4.914 3.316-10.971 5.294-17.489 5.294-10.753 0-20.249-5.382-25.942-13.598l-0.069-0.104zM233.784 706.584c-2.972-4.318-4.747-9.659-4.747-15.415 0-15.135 12.269-27.404 27.404-27.404s27.404 12.269 27.404 27.404c0 9.383-4.716 17.665-11.907 22.605l-0.093 0.060c-4.314 2.95-9.644 4.711-15.385 4.711-9.378 0-17.658-4.698-22.617-11.87l-0.060-0.092zM235.669 634.884c-2.525-3.674-4.032-8.219-4.032-13.115 0-12.892 10.451-23.344 23.344-23.344s23.344 10.451 23.344 23.344c0 7.974-3.999 15.015-10.1 19.226l-0.079 0.051c-3.685 2.547-8.248 4.068-13.166 4.068-7.996 0-15.054-4.021-19.261-10.15l-0.052-0.079zM250.315 574.928c-2.158-3.131-3.447-7.007-3.447-11.183 0-10.971 8.894-19.864 19.864-19.864s19.864 8.894 19.864 19.864c0 6.786-3.402 12.777-8.594 16.36l-0.066 0.043c-3.136 2.167-7.018 3.461-11.204 3.461-6.794 0-12.792-3.412-16.374-8.614l-0.044-0.067zM29.704 502.938c8.493-4.977 18.704-7.916 29.601-7.916 32.753 0 59.303 26.551 59.303 59.303s-26.551 59.303-59.303 59.303c-21.829 0-40.904-11.795-51.199-29.358l-0.151-0.28c-5-8.509-7.953-18.742-7.953-29.665 0-21.855 11.823-40.949 29.421-51.235l0.281-0.151zM161.432 418.406c7.181-4.204 15.813-6.686 25.023-6.686 27.707 0 50.169 22.461 50.169 50.169s-22.461 50.169-50.169 50.169c-18.465 0-34.6-9.976-43.31-24.832l-0.128-0.237c-4.231-7.199-6.731-15.859-6.731-25.101 0-18.496 10.010-34.655 24.908-43.354l0.238-0.128zM287.143 372.732c6.090-3.574 13.413-5.684 21.23-5.684 23.463 0 42.483 19.020 42.483 42.483s-19.020 42.483-42.483 42.483c-15.659 0-29.34-8.472-36.708-21.083l-0.108-0.201c-3.547-6.079-5.64-13.381-5.64-21.172 0-15.648 8.446-29.324 21.028-36.717l0.2-0.108zM401.907 358.45c5.186-3.034 11.419-4.826 18.071-4.826 20.020 0 36.248 16.229 36.248 36.248s-16.229 36.248-36.248 36.248c-13.359 0-25.031-7.227-31.318-17.985l-0.093-0.171c-3.042-5.191-4.839-11.433-4.839-18.093 0-13.368 7.236-25.046 18.006-31.33l0.172-0.093zM500.287 368.020c4.479-2.638 9.868-4.196 15.62-4.196 17.217 0 31.174 13.957 31.174 31.174s-13.957 31.174-31.174 31.174c-11.482 0-21.513-6.207-26.923-15.449l-0.079-0.147c-2.622-4.469-4.171-9.843-4.171-15.578 0-11.464 6.188-21.484 15.407-26.899l0.147-0.079zM581.194 393.901c3.867-2.3 8.528-3.66 13.505-3.66 14.774 0 26.751 11.977 26.751 26.751s-11.977 26.751-26.751 26.751c-9.939 0-18.611-5.42-23.224-13.464l-0.069-0.13c-2.176-3.784-3.458-8.32-3.458-13.157 0-9.797 5.267-18.364 13.122-23.025l0.124-0.068zM121.703 289.65c4.475-1.431 9.622-2.256 14.962-2.256 28.028 0 50.748 22.721 50.748 50.748s-22.721 50.748-50.748 50.748c-22.908 0-42.27-15.178-48.58-36.026l-0.094-0.359c-1.372-4.37-2.163-9.395-2.163-14.605 0-22.652 14.948-41.813 35.518-48.156l0.357-0.095zM247.051 245.136c3.706-1.165 7.968-1.836 12.385-1.836 23.583 0 42.701 19.118 42.701 42.701s-19.118 42.701-42.701 42.701c-19.179 0-35.405-12.644-40.796-30.051l-0.080-0.303c-1.158-3.695-1.825-7.944-1.825-12.347 0-19.165 12.626-35.382 30.013-40.784l0.303-0.081zM360.003 231.796c3.17-1.005 6.815-1.583 10.597-1.583 20.020 0 36.248 16.229 36.248 36.248s-16.229 36.248-36.248 36.248c-16.327 0-30.133-10.795-34.671-25.636l-0.068-0.257c-0.959-3.099-1.51-6.663-1.51-10.355 0-16.239 10.678-29.984 25.396-34.596l0.257-0.069zM457.802 242.164c2.664-0.832 5.728-1.311 8.905-1.311 17.057 0 30.884 13.827 30.884 30.884s-13.827 30.884-30.884 30.884c-13.874 0-25.611-9.149-29.509-21.741l-0.058-0.218c-0.836-2.67-1.317-5.741-1.317-8.923 0-13.881 9.157-25.623 21.76-29.514l0.218-0.058zM537.405 269.133c2.388-0.782 5.136-1.232 7.99-1.232 14.655 0 26.534 11.88 26.534 26.534s-11.88 26.534-26.534 26.534c-11.993 0-22.128-7.957-25.413-18.88l-0.049-0.188c-0.68-2.235-1.072-4.805-1.072-7.467 0-11.801 7.703-21.802 18.356-25.25l0.188-0.053zM599.245 306.252c1.987-0.628 4.273-0.99 6.643-0.99 12.573 0 22.764 10.192 22.764 22.764s-10.192 22.764-22.764 22.764c-10.228 0-18.88-6.746-21.752-16.030l-0.043-0.161c-0.626-1.981-0.987-4.259-0.987-6.621 0-10.195 6.723-18.82 15.978-21.683l0.161-0.043zM237.627 133.128c0.919-0.070 1.992-0.11 3.073-0.11 23.704 0 42.918 19.216 42.918 42.918s-19.216 42.918-42.918 42.918c-22.593 0-41.108-17.457-42.794-39.619l-0.009-0.145c-0.071-0.924-0.111-2.002-0.111-3.088 0-22.635 17.492-41.183 39.695-42.867l0.145-0.009zM349.636 120.15c0.7-0.048 1.518-0.076 2.343-0.076 20.020 0 36.248 16.229 36.248 36.248s-16.229 36.248-36.248 36.248c-18.972 0-34.541-14.575-36.117-33.14l-0.010-0.134c-0.078-0.892-0.123-1.928-0.123-2.976 0-19.195 14.92-34.906 33.797-36.167l0.11-0.006zM445.695 129.647c0.757-0.064 1.638-0.102 2.528-0.102 17.457 0 31.609 14.152 31.609 31.609s-14.152 31.609-31.609 31.609c-16.656 0-30.304-12.883-31.521-29.228l-0.007-0.105c-0.053-0.681-0.082-1.475-0.082-2.277 0-16.567 12.746-30.158 28.967-31.5l0.114-0.008zM525.007 156.254c0.569-0.042 1.233-0.066 1.902-0.066 15.095 0 27.332 12.236 27.332 27.332s-12.236 27.332-27.332 27.332c-14.485 0-26.337-11.268-27.272-25.517l-0.004-0.081c-0.035-0.518-0.055-1.123-0.055-1.734 0-14.426 11.175-26.241 25.341-27.26l0.088-0.005zM586.123 193.736c0.48-0.035 1.039-0.055 1.604-0.055 12.933 0 23.416 10.484 23.416 23.416s-10.484 23.416-23.416 23.416c-12.326 0-22.429-9.524-23.348-21.615l-0.005-0.079c-0.044-0.535-0.069-1.16-0.069-1.79 0-12.356 9.599-22.469 21.747-23.291l0.072-0.004zM630.637 236.654c0.441-0.034 0.953-0.055 1.471-0.055 10.971 0 19.864 8.894 19.864 19.864s-8.894 19.864-19.864 19.864c-10.466 0-19.043-8.095-19.808-18.366l-0.004-0.066c-0.033-0.428-0.052-0.928-0.052-1.432 0-10.453 8.074-19.020 18.326-19.806l0.067-0.004z"></path>
</svg>
