<!-- Generated by IcoMoon.io -->
<svg version="1.1" xmlns="http://www.w3.org/2000/svg" width="1024" height="1024" viewBox="0 0 1024 1024">
<title></title>
<g id="icomoon-ignore">
</g>
<path d="M476.593 108.697c9.134-0.579 19.807-0.908 30.557-0.908 221.507 0 410.321 139.971 482.82 336.29l1.153 3.565c19.689 50.535 31.423 109.008 32.155 170.129l0.003 0.31v215.46c0.456 3.955 0.718 8.54 0.718 13.185s-0.26 9.228-0.768 13.739l0.050-0.554c-5.129 22.28-20.146 40.257-40.072 49.342l-0.447 0.182c-9.074 4.279-19.709 6.776-30.927 6.776-39.839 0-72.322-31.498-73.904-70.949l-0.005-0.144v-201.31c0.55-3.906 0.863-8.419 0.863-13.006 0-15.627-3.643-30.403-10.125-43.525l0.257 0.576c-13.098-21.948-36.723-36.42-63.726-36.42-39.86 0-72.355 31.53-73.906 71.010l-0.004 0.141v203.24c0.924 5.703 1.451 12.276 1.451 18.973s-0.528 13.27-1.544 19.682l0.092-0.708c-7.231 24.285-26.277 42.907-50.305 49.407l-0.504 0.117c-5.829 1.666-12.523 2.624-19.441 2.624-27.017 0-50.621-14.612-63.34-36.365l-0.188-0.347c-6.643-12.995-10.536-28.345-10.536-44.605 0-4.683 0.323-9.291 0.948-13.801l-0.059 0.522v-201.953c-1.466-39.338-33.71-70.673-73.272-70.673-19.76 0-37.695 7.817-50.88 20.527l0.022-0.021c-13.888 13.558-22.504 32.464-22.511 53.382v192.95c0.453 3.985 0.713 8.602 0.713 13.28 0 12.695-1.905 24.946-5.447 36.479l0.232-0.879c-10.127 28.33-36.734 48.237-67.99 48.237-0.065 0-0.131 0-0.195 0h0.010c-0.492 0.012-1.072 0.019-1.653 0.019-31.381 0-58.118-19.89-68.29-47.751l-0.161-0.504c-2.762-9.948-4.348-21.371-4.348-33.164 0-3.947 0.178-7.854 0.526-11.712l-0.036 0.497v-199.381c-1.147-34.634-25.936-63.162-58.69-70.020l-0.481-0.084c-4.287-0.89-9.214-1.4-14.26-1.4-27.042 0-50.665 14.64-63.376 36.426l-0.188 0.348c-6.172 10.526-9.95 23.117-10.289 36.563l-0.002 0.097v220.605c0.003 0.23 0.004 0.502 0.004 0.775 0 22.102-9.954 41.878-25.623 55.092l-0.108 0.088c-12.405 9.943-28.332 15.956-45.665 15.956s-33.26-6.014-45.809-16.068l0.145 0.113c-18.349-12.549-30.235-33.378-30.235-56.984 0-0.317 0.002-0.632 0.006-0.948l-0.001 0.048v-221.248c-0.006-0.918-0.009-2.003-0.009-3.088 0-159.413 72.497-301.895 186.318-396.273l0.852-0.686c79.026-63.74 178.89-104.599 288-111.198l1.424-0.069z"></path>
</svg>
