<!-- Generated by IcoMoon.io -->
<svg version="1.1" xmlns="http://www.w3.org/2000/svg" width="1024" height="1024" viewBox="0 0 1024 1024">
<title></title>
<g id="icomoon-ignore">
</g>
<path d="M340.087 512.104l303.287 303.334 191.435-191.435c34.231-30.822 86.601-29.452 119.172 3.12s33.943 84.941 3.12 119.172l-252.629 252.676c-33.934 33.373-88.359 33.373-122.292 0l-364.48-364.574v216.693c0 47.824-38.769 86.592-86.592 86.592s-86.592-38.769-86.592-86.592v-678.254c0-47.824 38.769-86.592 86.592-86.592s86.592 38.769 86.592 86.592v216.693l364.433-364.48c33.924-33.398 88.369-33.398 122.292 0l252.817 252.629c30.822 34.231 29.452 86.601-3.12 119.172s-84.941 33.943-119.172 3.12l-191.435-191.435-303.427 303.568zM643.514 425.418v0c-35.066-0.019-66.69 21.089-80.122 53.481s-6.027 69.685 18.761 94.486c24.788 24.802 62.077 32.227 94.476 18.812s53.524-45.027 53.524-80.093c0.012-22.991-9.108-45.045-25.357-61.31s-38.292-25.411-61.283-25.423v0.047z"></path>
</svg>
