<!-- Generated by IcoMoon.io -->
<svg version="1.1" xmlns="http://www.w3.org/2000/svg" width="1024" height="1024" viewBox="0 0 1024 1024">
<title></title>
<g id="icomoon-ignore">
</g>
<path d="M242.526 377.264c-29.765 0-53.895 24.13-53.895 53.895v431.157c0 29.765 24.13 53.895 53.895 53.895h538.948c29.765 0 53.895-24.13 53.895-53.895v-431.157c0-29.765-24.13-53.895-53.895-53.895zM242.526 269.475h538.948c89.295 0 161.684 72.389 161.684 161.684v431.157c0 89.295-72.389 161.684-161.684 161.684h-538.948c-89.295 0-161.684-72.389-161.684-161.684v-431.157c0-89.295 72.389-161.684 161.684-161.684zM619.788 269.475v-80.842c0-44.648-36.195-80.842-80.842-80.842h-53.895c-44.648 0-80.842 36.195-80.842 80.842v80.842zM485.052 0h53.895c104.179 0 188.631 84.453 188.631 188.631v188.631h-431.157v-188.631c0-104.179 84.453-188.631 188.631-188.631zM511.999 700.632c-59.53 0-107.789-48.259-107.789-107.789s48.259-107.789 107.789-107.789 107.789 48.259 107.789 107.789-48.259 107.789-107.789 107.789zM565.894 754.527c0 29.765-24.13 53.895-53.895 53.895s-53.895-24.13-53.895-53.895v-107.789c0-29.765 24.13-53.895 53.895-53.895s53.895 24.13 53.895 53.895z"></path>
</svg>
