<?xml version="1.0" encoding="iso-8859-1"?>
<!-- Generator: Adobe Illustrator 19.0.0, SVG Export Plug-In . SVG Version: 6.00 Build 0)  -->
<svg version="1.1" id="Capa_1" xmlns="http://www.w3.org/2000/svg" xmlns:xlink="http://www.w3.org/1999/xlink" x="0px" y="0px"
	 viewBox="0 0 511.999 511.999" style="enable-background:new 0 0 511.999 511.999;" xml:space="preserve">
<g>
	<g>
		<path d="M467.069,212.578L267.381,12.861c-11.777-11.748-30.828-11.609-42.451-0.015c-11.689,11.719-11.689,30.747,0,42.451
			L424.647,255c11.7,11.7,30.721,11.7,42.422,0C478.801,243.268,478.801,224.308,467.069,212.578z"/>
	</g>
</g>
<g>
	<g>
		<path d="M210.115,82.905l-1.503,7.534c-10.587,52.958-36.317,103.269-71.118,144.046l108.647,108.647
			c40.772-34.794,90.39-61.215,143.35-71.815l7.548-1.503L210.115,82.905z"/>
	</g>
</g>
<g>
	<g>
		<path d="M117.575,256.989l-74.253,74.238c-17.545,17.545-17.618,46.029,0,63.647l42.422,42.422
			c17.545,17.545,46.029,17.617,63.647,0l74.246-74.246L117.575,256.989z M128.181,373.664c-5.859,5.859-15.352,5.859-21.211,0
			c-5.859-5.859-5.859-15.352,0-21.211l21.211-21.211c5.859-5.859,15.352-5.859,21.211,0c5.859,5.859,5.859,15.352,0,21.211
			L128.181,373.664z"/>
	</g>
</g>
<g>
	<g>
		<path d="M286.266,445.278l20.405-20.405c17.619-17.616,17.561-46.1,0.001-63.631l-15.156-15.167
			c-8.377,5.627-16.377,11.741-24.155,18.265l18.1,18.127c5.845,5.815,5.886,15.279,0,21.196l-20.742,20.742l-30.482-29.533
			l-42.424,42.424l68.057,65.947c11.614,11.644,30.683,11.71,42.407-0.015c11.704-11.704,11.704-30.732,0-42.437L286.266,445.278z"
			/>
	</g>
</g>
<g>
	<g>
		<path d="M346.864,0c-8.291,0-15,6.709-15,15v30c0,8.291,6.709,15,15,15c8.291,0,15-6.709,15-15V15
			C361.864,6.709,355.155,0,346.864,0z"/>
	</g>
</g>
<g>
	<g>
		<path d="M466.864,120h-30c-8.291,0-15,6.709-15,15s6.709,15,15,15h30c8.291,0,15-6.709,15-15S475.155,120,466.864,120z"/>
	</g>
</g>
<g>
	<g>
		<path d="M447.469,34.394c-5.859-5.859-15.352-5.859-21.211,0l-30,30c-5.859,5.859-5.859,15.352,0,21.211s15.352,5.86,21.211,0
			l30-30C453.328,49.746,453.328,40.253,447.469,34.394z"/>
	</g>
</g>
<g>
</g>
<g>
</g>
<g>
</g>
<g>
</g>
<g>
</g>
<g>
</g>
<g>
</g>
<g>
</g>
<g>
</g>
<g>
</g>
<g>
</g>
<g>
</g>
<g>
</g>
<g>
</g>
<g>
</g>
</svg>
