<!-- Generated by IcoMoon.io -->
<svg version="1.1" xmlns="http://www.w3.org/2000/svg" width="1024" height="1024" viewBox="0 0 1024 1024">
<title></title>
<g id="icomoon-ignore">
</g>
<path d="M121.905 390.095c-67.218 0-121.905 54.686-121.905 121.905s54.686 121.905 121.905 121.905c67.218 0 121.905-54.686 121.905-121.905s-54.686-121.905-121.905-121.905zM512 390.095c-67.218 0-121.905 54.686-121.905 121.905s54.686 121.905 121.905 121.905c67.218 0 121.905-54.686 121.905-121.905s-54.686-121.905-121.905-121.905zM902.095 390.095c-67.218 0-121.905 54.686-121.905 121.905s54.686 121.905 121.905 121.905c67.218 0 121.905-54.686 121.905-121.905s-54.686-121.905-121.905-121.905z"></path>
</svg>
