<!-- Generated by IcoMoon.io -->
<svg version="1.1" xmlns="http://www.w3.org/2000/svg" width="1024" height="1024" viewBox="0 0 1024 1024">
<title></title>
<g id="icomoon-ignore">
</g>
<path d="M502 284h-58c-88.224 0-160 71.776-160 160v60c0 22.092 17.908 40 40 40s40-17.908 40-40v-60c0-44.112 35.888-80 80-80h58c22.092 0 40-17.908 40-40s-17.908-40-40-40zM864 284h-124v-124c0-88.224-71.776-160-160-160h-420c-88.224 0-160 71.776-160 160v420c0 88.224 71.776 160 160 160h124v124c0 88.224 71.776 160 160 160h420c88.224 0 160-71.776 160-160v-420c0-88.224-71.776-160-160-160zM944 864c0 44.112-35.888 80-80 80h-420c-44.112 0-80-35.888-80-80v-164c0-22.092-17.908-40-40-40h-164c-44.112 0-80-35.888-80-80v-420c0-44.112 35.888-80 80-80h420c44.112 0 80 35.888 80 80v164c0 22.092 17.908 40 40 40h164c44.112 0 80 35.888 80 80v420zM700 478c-22.092 0-40 17.908-40 40v62c0 44.112-35.888 80-80 80h-58c-22.092 0-40 17.908-40 40s17.908 40 40 40h58c88.224 0 160-71.776 160-160v-62c0-22.092-17.908-40-40-40z"></path>
</svg>
