<!-- Generated by IcoMoon.io -->
<svg version="1.1" xmlns="http://www.w3.org/2000/svg" width="1024" height="1024" viewBox="0 0 1024 1024">
<title></title>
<g id="icomoon-ignore">
</g>
<path d="M1007.688 641.123l-221.252-383.599c-48.848-79.737-166.657-81.174-213.35 3.592l-232.745 399.403c-43.101 73.272 10.057 165.221 96.977 165.221h465.491c87.639 0 153.008-94.822 104.879-184.616z"></path>
<path d="M688.023 671.294l-13.649-23.705c-12.93-22.269-40.946-69.68-40.946-69.68l-187.489-325.413c-37.354-56.75-113.5-71.835-170.249-34.481-17.958 11.494-32.326 28.016-41.664 47.411l-217.66 377.134c-33.762 58.186-13.649 132.895 45.256 166.657 18.677 10.775 39.509 16.522 61.059 16.522h777.973c-119.964 0.719-158.037-61.778-212.632-154.445z"></path>
<path d="M688.023 671.294l-13.649-23.705c-12.93-22.269-40.946-69.68-40.946-69.68l-120.683-212.632-173.84 295.96c-43.101 73.272 10.057 165.221 96.977 165.221h464.772c-120.683-0.719-158.037-62.497-212.632-155.163z"></path>
</svg>
