<!-- Generated by IcoMoon.io -->
<svg version="1.1" xmlns="http://www.w3.org/2000/svg" width="1024" height="1024" viewBox="0 0 1024 1024">
<title></title>
<g id="icomoon-ignore">
</g>
<path d="M1009.009 475.801l-153.603-153.603c-9.198-8.892-21.744-14.373-35.57-14.373-28.277 0-51.202 22.924-51.202 51.202 0 13.826 5.481 26.372 14.387 35.584l66.189 66.189h-286.010v-286.010l66.203 66.203c9.198 8.892 21.744 14.373 35.57 14.373 28.277 0 51.202-22.924 51.202-51.202 0-13.826-5.481-26.372-14.387-35.584l-153.589-153.589c-9.265-9.262-22.064-14.991-36.199-14.991s-26.935 5.729-36.199 14.991l-153.603 153.603c-8.892 9.198-14.373 21.744-14.373 35.57 0 28.277 22.924 51.202 51.202 51.202 13.826 0 26.372-5.481 35.584-14.387l66.189-66.189v286.010h-286.010l66.203-66.203c8.892-9.198 14.373-21.744 14.373-35.57 0-28.277-22.924-51.202-51.202-51.202-13.826 0-26.372 5.481-35.584 14.387l-153.589 153.589c-9.262 9.265-14.991 22.064-14.991 36.199s5.729 26.935 14.991 36.199l153.603 153.603c9.198 8.892 21.744 14.373 35.57 14.373 28.277 0 51.202-22.924 51.202-51.202 0-13.826-5.481-26.372-14.387-35.584l-66.189-66.189h286.010v286.010l-66.203-66.203c-9.198-8.892-21.744-14.373-35.57-14.373-28.277 0-51.202 22.924-51.202 51.202 0 13.826 5.481 26.372 14.387 35.584l153.589 153.589c9.265 9.262 22.064 14.991 36.199 14.991s26.935-5.729 36.199-14.991l153.603-153.603c8.892-9.198 14.373-21.744 14.373-35.57 0-28.277-22.924-51.202-51.202-51.202-13.826 0-26.372 5.481-35.584 14.387l-66.189 66.189v-286.010h286.010l-66.203 66.203c-9.643 9.323-15.632 22.377-15.632 36.829 0 28.277 22.924 51.202 51.202 51.202 14.452 0 27.505-5.987 36.814-15.617l153.618-153.618c9.262-9.265 14.991-22.064 14.991-36.199s-5.729-26.935-14.991-36.199v0z"></path>
</svg>
