<!-- Generated by IcoMoon.io -->
<svg version="1.1" xmlns="http://www.w3.org/2000/svg" width="1024" height="1024" viewBox="0 0 1024 1024">
<title></title>
<g id="icomoon-ignore">
</g>
<path d="M309.541 743.905h-84.604v-542.643c0-6.716-5.445-12.16-12.16-12.16v0h-84.326c-0.033-0.001-0.071-0.001-0.11-0.001-1.524 0-2.978 0.294-4.311 0.827l0.078-0.028-116.29 44.369c-4.61 1.798-7.818 6.204-7.818 11.359 0 0.001 0 0.002 0 0.003v0 71.922c0.008 6.71 5.45 12.146 12.16 12.146 1.509 0 2.954-0.275 4.288-0.778l-0.084 0.028 108.785-40.13v455.156h-104.234c-6.716 0-12.16 5.445-12.16 12.16v0 66.57c0 6.716 5.445 12.16 12.16 12.16v0h288.381c6.716 0 12.16-5.445 12.16-12.16v0-66.64c0-0.001 0-0.001 0-0.003 0-6.631-5.306-12.022-11.905-12.158h-0.013zM719.564 373.561h-84.29c-5.752 0.003-10.57 4.001-11.832 9.368l-0.016 0.083-38.636 170.631-38.011-170.597c-1.237-5.465-6.052-9.485-11.807-9.485-0.015 0-0.029 0-0.043 0h-86.859c-0.010 0-0.023 0-0.035 0-6.697 0-12.126 5.429-12.126 12.126 0 0.012 0 0.025 0 0.037v-0.002 436.916c0 0.010 0 0.023 0 0.035 0 6.697 5.429 12.126 12.126 12.126 0.012 0 0.025 0 0.037 0h47.425c6.716 0 12.16-5.445 12.16-12.16v0-292.968l37.212 149.228c1.367 5.344 6.134 9.233 11.812 9.242h51.806c5.651-0.004 10.399-3.862 11.76-9.088l0.019-0.085 38.463-151.208v294.878c0 6.716 5.445 12.16 12.16 12.16v0h48.642c6.716 0 12.16-5.445 12.16-12.16v0-436.916c0 0 0 0 0 0 0-6.704-5.425-12.141-12.124-12.16h-0.002zM996.027 589.5c-18.762-19.457-44.925-29.325-77.759-29.325h-18.693c-0.473 0.025-1.027 0.040-1.584 0.040-8.654 0-16.493-3.492-22.183-9.145l0.002 0.002c-5.605-5.783-9.059-13.678-9.059-22.379 0-0.451 0.009-0.899 0.028-1.345l-0.002 0.064v-47.461c-0.004-0.177-0.006-0.385-0.006-0.593 0-9.379 4.009-17.821 10.406-23.707l0.023-0.021c7.091-6.496 16.58-10.476 26.998-10.476 0.721 0 1.437 0.019 2.148 0.057l-0.1-0.004h95.687c6.716 0 12.16-5.445 12.16-12.16v0-47.322c0-6.716-5.445-12.16-12.16-12.16v0h-89.258c-39.158 0-69.976 9.972-91.552 29.707s-32.973 49.823-32.973 88.564v23.592c0 37.663 10.215 67.127 30.367 87.487s47.635 30.784 81.651 30.784h18.728c9.207 0 15.67 2.328 19.701 7.192 4.369 5.607 7.005 12.751 7.005 20.51 0 0.681-0.020 1.357-0.061 2.027l0.004-0.093v65.076c0.003 0.153 0.004 0.333 0.004 0.513 0 9.437-4.081 17.92-10.573 23.783l-0.028 0.025c-7.067 6.497-16.536 10.479-26.934 10.479-0.743 0-1.481-0.020-2.215-0.061l0.102 0.004h-95.061c-6.716 0-12.16 5.445-12.16 12.16v0 47.427c0 6.716 5.445 12.16 12.16 12.16v0h88.669c39.158 0 69.942-9.972 91.517-29.707s32.973-49.79 32.973-88.564v-41.381c0.069-37.524-9.346-66.398-27.97-85.749z"></path>
</svg>
