<!-- Generated by IcoMoon.io -->
<svg version="1.1" xmlns="http://www.w3.org/2000/svg" width="1024" height="1024" viewBox="0 0 1024 1024">
<title></title>
<g id="icomoon-ignore">
</g>
<path d="M269.259 1024c104.032 0 188.676-84.645 188.676-188.676v-529.143l386.386-179.064v349.782c-26.667-14.449-57.18-22.671-89.58-22.671-104.032 0-188.676 84.645-188.676 188.676s84.645 188.676 188.676 188.676 188.676-84.645 188.676-188.676v-593.352c0-16.903-8.629-32.662-22.871-41.758-14.274-9.096-32.209-10.323-47.516-3.194l-485.482 224.983c-17.5 8.114-28.709 25.645-28.709 44.952v394.782c-26.667-14.449-57.18-22.671-89.58-22.671-104.032 0-188.676 84.645-188.676 188.676s84.645 188.676 188.676 188.676zM754.741 732.485c-49.387 0-89.58-40.194-89.58-89.58s40.194-89.58 89.58-89.58 89.58 40.194 89.58 89.58-40.193 89.58-89.58 89.58zM269.259 745.742c49.387 0 89.58 40.194 89.58 89.58s-40.194 89.58-89.58 89.58-89.58-40.194-89.58-89.58 40.193-89.58 89.58-89.58z"></path>
</svg>
