<?xml version="1.0" encoding="iso-8859-1"?>
<!-- Generator: Adobe Illustrator 18.0.0, SVG Export Plug-In . SVG Version: 6.00 Build 0)  -->
<!DOCTYPE svg PUBLIC "-//W3C//DTD SVG 1.1//EN" "http://www.w3.org/Graphics/SVG/1.1/DTD/svg11.dtd">
<svg version="1.1" id="Capa_1" xmlns="http://www.w3.org/2000/svg" xmlns:xlink="http://www.w3.org/1999/xlink" x="0px" y="0px"
	 viewBox="0 0 302.141 302.141" style="enable-background:new 0 0 302.141 302.141;" xml:space="preserve">
<g>
	<path d="M24.067,26.975c0.438,1.726,1.648,3.155,3.279,3.871c1.631,0.716,3.501,0.64,5.069-0.206l4.681-2.527v56.4
		c0,3.192,2.588,5.78,5.78,5.78h11.356c3.192,0,5.78-2.588,5.78-5.78V7.067c0-3.192-2.588-5.78-5.78-5.78h-8.661
		c-1.605,0-3.186,0.396-4.601,1.154l-16.376,8.764c-2.342,1.254-3.528,3.943-2.875,6.518L24.067,26.975z"/>
	<path d="M161.08,84.513V74.56c0-3.192-2.588-5.78-5.78-5.78h-18.85c13.229-13.198,22.759-25.185,22.759-40.186
		C159.209,14.823,149.894,0,129.444,0c-9.513,0-18.644,3.285-25.709,9.251l-0.408,0.344c-1.973,1.667-2.601,4.441-1.538,6.795
		l3.878,8.586c0.743,1.646,2.213,2.849,3.973,3.254c1.76,0.405,3.607-0.037,4.995-1.192l0.714-0.594
		c2.211-1.842,6.707-4.931,11.99-4.931c6.112,0,8.604,2.425,8.604,8.302c-0.09,8.794-7.824,17.561-26.341,35.184l-8.285,8.045
		c-1.121,1.088-1.753,2.584-1.753,4.146v7.323c0,3.192,2.588,5.78,5.78,5.78H155.3C158.492,90.293,161.08,87.705,161.08,84.513z"/>
	<path d="M186.485,85.065l0.462,0.303c4.366,2.866,13.095,6.212,23.328,6.212c23.504,0,34.21-15.187,34.21-29.296
		c0-8.366-3.784-15.699-10.092-20.527c4.609-4.558,7.168-10.494,7.168-17.139C241.56,12.76,232.722,0,213.317,0
		c-10.38,0-19.27,3.831-23.73,7.111l-0.424,0.311c-2.061,1.515-2.88,4.205-2.015,6.612l3.185,8.862
		c0.613,1.704,1.988,3.022,3.716,3.562c1.728,0.539,3.61,0.238,5.083-0.815l0.76-0.543c2.662-1.903,7.23-3.823,11.434-3.823
		c6.849,0,6.849,3.488,6.849,4.978c0,5.208-7.757,6.38-10.475,6.38h-6.438c-3.192,0-5.78,2.588-5.78,5.78v9.133
		c0,3.192,2.588,5.78,5.78,5.78h6.438c3.066,0,13.076,0.633,13.166,8.839c0.018,0.978-0.144,3.459-2.038,5.388
		c-2.226,2.268-5.944,2.744-8.671,2.744c-5.468,0-10.978-2.256-13.347-3.773l-0.751-0.481c-1.486-0.951-3.326-1.171-4.994-0.597
		c-1.669,0.574-2.984,1.878-3.571,3.542l-3.288,9.317C183.321,80.817,184.261,83.605,186.485,85.065z"/>
	<path d="M74.118,188.92h-4.865v-41.476c0-3.192-2.588-5.78-5.78-5.78H51.286c-1.888,0-3.656,0.922-4.738,2.469l-34.261,49.027
		c-0.678,0.971-1.042,2.126-1.042,3.311v7.714c0,3.192,2.588,5.78,5.78,5.78h29.546v14.924c0,3.192,2.588,5.78,5.78,5.78h11.122
		c3.192,0,5.78-2.588,5.78-5.78v-14.924h4.865c3.192,0,5.78-2.588,5.78-5.78V194.7C79.898,191.508,77.31,188.92,74.118,188.92z
		 M46.571,188.92h-5.939l5.939-8.255V188.92z"/>
	<path d="M284.305,263.73l-44.128-44.127c-0.469-0.469-0.961-0.901-1.46-1.32c12.638-25.838,8.253-57.968-13.194-79.417
		c-26.992-26.992-70.91-26.99-97.902,0c-26.99,26.991-26.99,70.91,0,97.901c13.496,13.496,31.224,20.244,48.951,20.244
		c10.446,0,20.885-2.363,30.466-7.049c0.419,0.499,0.85,0.991,1.319,1.46l44.128,44.127c4.394,4.393,10.152,6.59,15.91,6.59
		c5.758,0,11.517-2.197,15.91-6.59C293.092,286.764,293.091,272.517,284.305,263.73z M148.833,215.556
		c-15.294-15.295-15.294-40.181,0-55.476c7.648-7.646,17.692-11.471,27.738-11.471c10.046,0,20.091,3.824,27.738,11.471
		c15.294,15.295,15.294,40.181,0,55.476C189.015,230.851,164.128,230.851,148.833,215.556z"/>
</g>
<g>
</g>
<g>
</g>
<g>
</g>
<g>
</g>
<g>
</g>
<g>
</g>
<g>
</g>
<g>
</g>
<g>
</g>
<g>
</g>
<g>
</g>
<g>
</g>
<g>
</g>
<g>
</g>
<g>
</g>
</svg>
