<!-- Generated by IcoMoon.io -->
<svg version="1.1" xmlns="http://www.w3.org/2000/svg" width="1024" height="1024" viewBox="0 0 1024 1024">
<title></title>
<g id="icomoon-ignore">
</g>
<path d="M1017.173 456.96v0c-20.949-84.475-86.191-149.717-169.073-170.331l-1.594-0.336c-16.533-4.069-35.514-6.402-55.040-6.402s-38.507 2.334-56.679 6.738l1.639-0.336c4.069-16.533 6.402-35.514 6.402-55.040s-2.334-38.507-6.738-56.679l0.336 1.639c-20.949-84.475-86.191-149.717-169.073-170.331l-1.594-0.336c-16.525-4.271-35.496-6.722-55.040-6.722s-38.515 2.452-56.623 7.064l1.583-0.342c-102.483 25.201-177.307 116.299-177.307 224.873 0 19.532 2.422 38.499 6.981 56.616l-0.34-1.596c-16.533-4.069-35.514-6.402-55.040-6.402s-38.507 2.334-56.679 6.738l1.639-0.336c-102.333 25.945-176.838 117.232-176.838 225.92 0 128.534 104.197 232.731 232.731 232.731 19.846 0 39.111-2.484 57.503-7.158l-1.61 0.347c-2.885 13.73-4.538 29.508-4.538 45.671 0 128.189 103.918 232.107 232.107 232.107 105.242 0 194.124-70.043 222.573-166.055l0.417-1.642c4.069-16.533 6.402-35.514 6.402-55.040s-2.334-38.507-6.738-56.679l0.336 1.639c16.428 4.163 35.288 6.551 54.706 6.551 108.624 0 199.788-74.755 224.853-175.624l0.335-1.594c4.237-16.462 6.669-35.36 6.669-54.827s-2.432-38.365-7.009-56.408l0.34 1.581zM286.72 737.28c21.128-84.378 86.288-149.538 169.063-170.326l1.604-0.341c-21.217 84.33-86.336 149.449-169.058 170.323l-1.609 0.344zM286.72 286.72c84.33 21.217 149.449 86.336 170.323 169.058l0.344 1.609c-84.378-21.128-149.538-86.288-170.326-169.063l-0.341-1.604zM567.040 457.387c-4.167 16.53-6.558 35.506-6.558 55.040s2.391 38.51 6.897 56.651l-0.339-1.611c-16.525-4.271-35.496-6.722-55.040-6.722s-38.515 2.452-56.623 7.064l1.583-0.342c4.271-16.525 6.722-35.496 6.722-55.040s-2.452-38.515-7.064-56.623l0.342 1.583c16.53 4.167 35.506 6.558 55.040 6.558s38.51-2.391 56.651-6.897l-1.611 0.339zM737.707 737.707c-84.33-21.217-149.449-86.336-170.323-169.058l-0.344-1.609c84.102 21.196 149.043 86.138 169.896 168.634l0.344 1.606zM567.040 457.387v0c21.217-84.33 86.336-149.449 169.058-170.323l1.609-0.344c-21.267 84.202-86.388 149.182-169.064 169.9l-1.603 0.34z"></path>
</svg>
