<!-- Generated by IcoMoon.io -->
<svg version="1.1" xmlns="http://www.w3.org/2000/svg" width="1024" height="1024" viewBox="0 0 1024 1024">
<g id="icomoon-ignore">
</g>
<path fill="#000" d="M660.556 341.126h-296.016c-12.612 0.041-22.825 10.254-22.865 22.861v296.020c0.041 12.612 10.254 22.825 22.861 22.865h296.020c12.612-0.041 22.825-10.254 22.865-22.861v-296.020c-0.041-12.612-10.254-22.825-22.861-22.865h-0.004zM318.882 0.548h-296.016c-12.612 0.041-22.825 10.254-22.865 22.861v296.020c0.041 12.612 10.254 22.825 22.861 22.865h296.020c12.612-0.041 22.825-10.254 22.865-22.861v-296.020c-0.082-12.596-10.271-22.784-22.858-22.865h-0.008zM1001.135 0.548h-296.016c-12.612 0.041-22.825 10.254-22.865 22.861v296.020c0.041 12.612 10.254 22.825 22.861 22.865h296.020c12.612-0.041 22.825-10.254 22.865-22.861v-296.020c-0.041-12.612-10.254-22.825-22.861-22.865h-0.004zM318.882 681.705h-296.016c-12.612 0.041-22.825 10.254-22.865 22.861v296.020c0.041 12.612 10.254 22.825 22.861 22.865h296.020c12.612-0.041 22.825-10.254 22.865-22.861v-296.020c-0.082-12.596-10.271-22.784-22.858-22.865h-0.008zM1001.135 681.705h-296.016c-12.612 0.041-22.825 10.254-22.865 22.861v296.020c0.041 12.612 10.254 22.825 22.861 22.865h296.020c12.612-0.041 22.825-10.254 22.865-22.861v-296.020c-0.041-12.612-10.254-22.825-22.861-22.865h-0.004z"></path>
</svg>
