<svg xmlns="http://www.w3.org/2000/svg" xml:space="preserve" style="enable-background:new 0 0 2500 2500" viewBox="560.1 549.1 1401.7 1400.2"><path d="M0 0h2500v2500H0z" style="fill:none"/><path d="M1464.3 1015.3h-405.2a31.4 31.4 0 0 0-31.3 31.3v405.2a31.4 31.4 0 0 0 31.3 31.3h405.2a31.4 31.4 0 0 0 31.3-31.3v-405.2a31.4 31.4 0 0 0-31.3-31.3zM996.6 549.1H591.4a31.4 31.4 0 0 0-31.3 31.3v405.2a31.4 31.4 0 0 0 31.3 31.3h405.2a31.4 31.4 0 0 0 31.3-31.3V580.4a31.5 31.5 0 0 0-31.3-31.3zM1930.5 549.1h-405.2a31.4 31.4 0 0 0-31.3 31.3v405.2a31.4 31.4 0 0 0 31.3 31.3h405.2a31.4 31.4 0 0 0 31.3-31.3V580.4a31.4 31.4 0 0 0-31.3-31.3zM996.6 1481.5H591.4a31.4 31.4 0 0 0-31.3 31.3V1918a31.4 31.4 0 0 0 31.3 31.3h405.2a31.4 31.4 0 0 0 31.3-31.3v-405.2a31.5 31.5 0 0 0-31.3-31.3zM1930.5 1481.5h-405.2a31.4 31.4 0 0 0-31.3 31.3V1918a31.4 31.4 0 0 0 31.3 31.3h405.2a31.4 31.4 0 0 0 31.3-31.3v-405.2a31.4 31.4 0 0 0-31.3-31.3z"/></svg>