<!-- Generated by IcoMoon.io -->
<svg version="1.1" xmlns="http://www.w3.org/2000/svg" width="1024" height="1024" viewBox="0 0 1024 1024">
<title></title>
<g id="icomoon-ignore">
</g>
<path d="M1001.766 687.878l-126.882-69.214 126.88-69.208c29.646-16.172 29.648-58.742 0.002-74.914l-126.882-69.212 126.88-69.208c29.648-16.172 29.648-58.742 0-74.914l-469.334-256c-12.736-6.946-28.126-6.946-40.862 0l-469.334 256c-29.648 16.172-29.648 58.742 0 74.914l126.88 69.208-126.882 69.212c-29.646 16.172-29.646 58.742 0.002 74.914l126.88 69.208-126.882 69.214c-29.646 16.172-29.646 58.742 0.002 74.914l469.334 256c12.736 6.946 28.126 6.946 40.862 0l469.334-256c29.648-16.172 29.648-58.742 0.002-74.914zM512 91.268l380.232 207.398-380.232 207.4-380.232-207.4 380.232-207.398zM238.21 453.934l253.36 138.19c0.748 0.408 1.506 0.786 2.27 1.146 0.050 0.024 0.098 0.052 0.148 0.074 0.352 0.164 0.712 0.304 1.068 0.458 0.622 0.27 1.244 0.53 1.876 0.768 1.392 0.526 2.804 0.978 4.234 1.354 0.124 0.032 0.248 0.076 0.372 0.106 2.486 0.63 5.018 1.022 7.56 1.196 1.934 0.132 3.876 0.132 5.81 0 2.542-0.174 5.072-0.568 7.56-1.196 0.126-0.032 0.248-0.074 0.372-0.106 1.428-0.376 2.84-0.828 4.234-1.354 0.63-0.238 1.254-0.5 1.876-0.768 0.356-0.154 0.716-0.292 1.068-0.458 0.050-0.024 0.098-0.052 0.148-0.074 0.764-0.36 1.522-0.738 2.27-1.146l253.36-138.19 106.444 58.064-380.24 207.4-380.234-207.4 106.444-58.064zM512 932.732l-380.234-207.4 106.444-58.064 253.36 138.19c0.748 0.408 1.506 0.786 2.27 1.146 0.050 0.024 0.098 0.052 0.148 0.074 0.352 0.164 0.712 0.304 1.068 0.458 0.622 0.27 1.244 0.53 1.876 0.768 1.392 0.526 2.804 0.978 4.234 1.354 0.124 0.032 0.248 0.076 0.372 0.106 0.132 0.034 0.266 0.056 0.398 0.088 6.614 1.606 13.52 1.606 20.134 0 0.132-0.032 0.266-0.054 0.398-0.088 0.126-0.032 0.248-0.074 0.372-0.106 1.428-0.376 2.84-0.828 4.234-1.354 0.63-0.238 1.254-0.5 1.876-0.768 0.356-0.154 0.716-0.292 1.068-0.458 0.050-0.024 0.098-0.052 0.148-0.074 0.764-0.36 1.522-0.738 2.27-1.146l253.36-138.19 106.444 58.064-380.24 207.4z"></path>
</svg>
