<!-- Generated by IcoMoon.io -->
<svg version="1.1" xmlns="http://www.w3.org/2000/svg" width="640" height="1024" viewBox="0 0 640 1024">
<title></title>
<g id="icomoon-ignore">
</g>
<path d="M616 704h-90.99c-13.254 0-24 10.746-24 24v101.696h-245.010v-253.696h168c13.254 0 24-10.746 24-24v-80c0-13.254-10.746-24-24-24h-168v-127.112c0-64.532 49.124-114.172 123.584-114.172 47.316 0 91.756 23.010 115.304 37.698 10.302 6.426 23.776 4.102 31.376-5.37l56.986-71.026c8.466-10.552 6.558-26.010-4.238-34.162-32.764-24.736-105.86-69.856-203.15-69.856-163.81 0-279.862 105.484-279.862 251.922v132.078h-56c-13.254 0-24 10.746-24 24v80c0 13.254 10.746 24 24 24h56v256h-72c-13.254 0-24 10.746-24 24v80c0 13.254 10.746 24 24 24h592c13.254 0 24-10.746 24-24v-208c0-13.254-10.746-24-24-24z"></path>
</svg>
