<!-- Generated by IcoMoon.io -->
<svg version="1.1" xmlns="http://www.w3.org/2000/svg" width="1024" height="1024" viewBox="0 0 1024 1024">
<title></title>
<g id="icomoon-ignore">
</g>
<path d="M1014.585 602.746l-98.897-139.672c-16.347-23.024-48.25-28.6-71.398-12.2l-139.646 98.876c-23.051 16.322-28.549 48.275-12.2 71.351 16.347 23.051 48.25 28.574 71.398 12.2l46.771-33.116c-10.045 34.017-25.4 66.37-46.822 95.615-59.601 81.376-151.351 128.024-251.798 128.024-91.176 0-177.124-39.674-235.772-108.85-18.247-21.499-50.549-24.151-72.176-5.924-21.549 18.299-24.223 50.6-5.924 72.176 78.15 92.148 192.545 144.997 313.872 144.997 131.5 0 256.497-63.524 334.398-169.92 28.303-38.635 48.686-81.335 62.054-126.237l22.543 31.84c9.999 14.1 25.8 21.626 41.851 21.626 10.199 0 20.551-3.052 29.547-9.426 23.051-16.338 28.549-48.291 12.2-71.362zM331.546 402.896c-16.374-23.096-48.327-28.574-71.378-12.222l-46.781 33.116c10.035-34.027 25.384-66.37 46.781-95.59 59.601-81.351 151.376-128.024 251.823-128.024 91.201 0 177.15 39.674 235.797 108.85 18.299 21.524 50.6 24.223 72.15 5.924 21.601-18.299 24.248-50.6 5.95-72.176-78.15-92.148-192.55-144.997-313.897-144.997-131.475 0-256.497 63.524-334.418 169.92-28.287 38.625-48.659 81.335-62.022 126.263l-22.554-31.861c-16.374-23.101-48.302-28.574-71.372-12.227s-28.549 48.302-12.227 71.372l98.876 139.672c9.999 14.1 25.8 21.626 41.851 21.626 10.225 0 20.551-3.052 29.527-9.401l139.672-98.876c23.071-16.347 28.544-48.296 12.222-71.372z"></path>
</svg>
