<!-- Generated by IcoMoon.io -->
<svg version="1.1" xmlns="http://www.w3.org/2000/svg" width="1024" height="1024" viewBox="0 0 1024 1024">
<title></title>
<g id="icomoon-ignore">
</g>
<path d="M131.62 0h223.753c29.077 0 52.648 23.571 52.648 52.648s-23.571 52.648-52.648 52.648v0h-175.62l319.835 319.835c30.907-19.011 68.346-30.273 108.416-30.273 0.027 0 0.055 0 0.082 0h207.954c116.115 0 210.591 94.477 210.591 210.591v207.959c0 116.115-94.477 210.591-210.591 210.591h-207.959c-116.115 0-210.591-94.477-210.591-210.591v-207.959c0-0.045 0-0.098 0-0.152 0-38.7 10.505-74.947 28.818-106.044l-0.533 0.979-320.48-320.48v175.62c0 29.077-23.571 52.648-52.648 52.648s-52.648-23.571-52.648-52.648v0-223.753c0.082-72.658 58.961-131.537 131.612-131.62h0.008zM502.787 813.409c0.067 58.126 47.169 105.228 105.289 105.296h207.965c58.126-0.067 105.228-47.169 105.296-105.289v-207.966c-0.067-58.126-47.169-105.228-105.289-105.296h-207.965c-58.126 0.067-105.228 47.169-105.296 105.289v0.007z"></path>
</svg>
