<!-- Generated by IcoMoon.io -->
<svg version="1.1" xmlns="http://www.w3.org/2000/svg" width="1024" height="1024" viewBox="0 0 1024 1024">
<title></title>
<g id="icomoon-ignore">
</g>
<path d="M85.419 42.497c-56.944 0-56.944 85.418 0 85.418h853.25c56.944 0 56.944-85.418 0-85.418zM511.252 213.247c-11.037 0.323-21.552 4.757-29.333 12.578l-120.917 120.666c-38.563 40.323 20.23 99.036 60.5 60.416l90.333-90.333 90.75 90.333c40.247 43.626 103.958-20.349 60.167-60.416l-120.667-120.666c-8.149-8.192-19.275-12.74-30.833-12.578zM511.252 383.331c-23.598 0.484-42.379 19.903-41.917 43.5v170.334c0 56.944 85.417 56.944 85.417 0v-170.334c0.476-24.218-19.281-43.976-43.5-43.5zM633.252 603.665c-11.611 0.084-22.684 4.902-30.667 13.336l-90.75 90.749-90.333-90.749c-8.033-8.257-19.063-12.917-30.583-12.917-38.571-0.323-57.71 46.67-29.917 73.417l120.917 120.666c16.643 16.545 43.523 16.545 60.167 0l120.667-120.666c28.394-26.558 9.377-74.154-29.5-73.833zM85.419 981.414h853.25c58.161 1.29 58.161-86.619 0-85.334h-855.458c-57.948 0-53.512 86.996 2.208 85.334z"></path>
</svg>
