<!-- Generated by IcoMoon.io -->
<svg version="1.1" xmlns="http://www.w3.org/2000/svg" width="1024" height="1024" viewBox="0 0 1024 1024">
<title></title>
<g id="icomoon-ignore">
</g>
<path d="M972.801 234.804l-183.604-183.604c-29.645-29.696-81.664-51.2-123.596-51.2h-512.001c-84.685 0-153.6 68.915-153.6 153.6v716.8c0 84.685 68.915 153.6 153.6 153.6h716.8c84.685 0 153.6-68.915 153.6-153.6v-512.001c0-41.933-21.556-93.952-51.2-123.596zM409.601 102.401h204.8v102.4h-204.8zM716.801 921.601h-409.6v-153.6c0-28.211 22.938-51.2 51.2-51.2h307.2c28.262 0 51.2 22.988 51.2 51.2zM921.601 870.402c0 28.211-22.938 51.2-51.2 51.2h-51.2v-153.6c0-84.685-68.915-153.6-153.6-153.6h-307.2c-84.685 0-153.6 68.915-153.6 153.6v153.6h-51.2c-28.262 0-51.2-22.988-51.2-51.2v-716.8c0-28.211 22.938-51.2 51.2-51.2h153.6v153.6c0 28.262 22.886 51.2 51.2 51.2h307.2c28.314 0 51.2-22.938 51.2-51.2v-132.403l183.604 183.604c10.291 10.291 21.197 36.608 21.197 51.2z"></path>
</svg>
