<!-- Generated by IcoMoon.io -->
<svg version="1.1" xmlns="http://www.w3.org/2000/svg" width="1024" height="1024" viewBox="0 0 1024 1024">
<title></title>
<g id="icomoon-ignore">
</g>
<path d="M847.886 838.655c-18.422 0-39.932 8.898-64.497 26.62l-136.217-50.168 138.241-50.207c23.223 15.041 44.713 22.566 64.536 22.566 21.815 0 36.16-11.285 43.007-33.785 1.358-4.778 2.039-9.942 2.039-15.401 0-28.616-18.438-44.017-55.302-46.036 14.995-15.018 22.546-29.738 22.546-44.071 0-14.975-7.888-27.657-23.568-37.901-8.194-4.058-16.732-6.128-25.591-6.128-30.055 0-50.539 24.21-61.461 72.718l-239.625 89.129-239.621-87.059c-10.921-49.847-31.432-74.788-61.453-74.788-8.871 0-17.413 2.070-25.61 6.128-14.995 10.24-22.515 22.925-22.515 37.901 0 14.333 7.521 29.053 22.515 44.071-37.529 2.019-56.308 17.42-56.308 46.040 0 5.455 0.692 10.623 2.035 15.397 7.528 22.5 21.861 33.785 43.027 33.785 19.78 0 41.282-7.524 64.517-22.562l139.262 50.203-137.243 49.124c-23.889-17.045-45.019-25.575-63.453-25.575-21.873 0-37.228 11.289-46.11 33.785-1.346 4.778-2.035 9.877-2.035 15.378 0 28.647 18.774 44.044 56.308 46.063-14.995 15.022-22.515 29.742-22.515 44.075 0 14.968 7.521 27.599 22.515 37.901 9.583 5.462 18.778 8.143 27.672 8.143 27.958 0 48.137-23.892 60.424-71.666l238.588-87.059 238.608 87.059c12.294 47.777 32.786 71.666 61.441 71.666 8.205 0 17.049-2.681 26.631-8.143 15.676-10.302 23.568-22.933 23.568-37.901 0-14.333-7.555-29.053-22.546-44.075 36.86-2.019 55.302-17.416 55.302-46.063 0-5.501-0.685-10.596-2.039-15.378-8.201-22.5-23.219-33.785-45.073-33.785zM187.38 498.678c37.537 42.996 90.444 74.44 158.748 94.185v15.42c0 19.095 6.468 35.15 19.44 48.098 12.96 12.991 29.007 20.159 48.129 21.521 19.792 1.381 34.45-2.043 44.017-10.236 15.006 10.898 31.738 16.36 50.191 16.36 17.061 0 32.783-5.091 47.1-15.331 9.559 7.482 23.548 10.592 41.998 9.211 19.099-2.043 35.162-9.385 48.125-22.008 12.96-12.693 19.44-28.515 19.44-47.611v-11.258c73.724-19.13 130.739-51.209 171.031-96.32 38.914-42.976 58.366-93.825 58.366-152.558 0-12.995-1.373-26.639-4.112-40.996-13.637-87.318-53.921-159.39-120.813-216.038-70.323-60.725-156.005-91.117-257.042-91.117-101.060 0-186.737 30.047-257.030 90.069-66.915 57.395-106.843 129.765-119.811 217.083-2.743 14.356-4.116 28.001-4.116 40.996 0 57.348 18.767 107.489 56.338 150.531v0zM591.374 235.014c20.14-23.54 44.543-35.32 73.202-35.32 29.37 0 54.106 11.78 74.254 35.32 20.117 23.506 30.214 52.017 30.214 85.446 0 33.46-10.093 61.979-30.214 85.527-20.148 23.587-44.887 35.32-74.254 35.32-28.659 0-53.062-11.733-73.202-35.32-20.159-23.548-30.229-52.068-30.229-85.527-0.004-33.429 10.070-61.94 30.229-85.446zM482.821 469.757c9.888-12.793 19.594-19.219 29.177-19.219 9.555 0 18.577 7.083 27.127 21.312 8.53 14.167 12.832 27.641 12.832 40.5 0 19.583-13.002 29.328-38.945 29.328-17.076 0-29.699-4.395-37.881-13.138-4.785-5.459-7.153-12.174-7.153-20.306 0.004-12.801 4.94-25.618 14.844-38.477zM276.47 235.014c20.484-23.54 45.069-35.32 73.732-35.32 28.651 0 53.24 11.78 73.736 35.32 20.488 23.506 30.748 52.017 30.748 85.446 0 33.46-10.256 61.979-30.748 85.527-20.492 23.587-45.085 35.32-73.736 35.32-28.662 0-53.247-11.733-73.732-35.32-20.473-23.548-30.732-52.068-30.732-85.527 0-33.429 10.26-61.94 30.732-85.446z"></path>
</svg>
