<?xml version="1.0" encoding="iso-8859-1"?>
<!-- Generator: Adobe Illustrator 19.0.0, SVG Export Plug-In . SVG Version: 6.00 Build 0)  -->
<svg version="1.1" id="Capa_1" xmlns="http://www.w3.org/2000/svg" xmlns:xlink="http://www.w3.org/1999/xlink" x="0px" y="0px"
	 viewBox="0 0 511.251 511.251" style="enable-background:new 0 0 511.251 511.251;" xml:space="preserve">
<g>
	<g>
		<polygon points="289.979,202.346 221.328,202.346 215.995,223.679 295.312,223.679 		"/>
	</g>
</g>
<g>
	<g>
		<path d="M504.955,416.17L307.856,42.559c-9.941-19.947-29.952-32.32-52.203-32.32s-42.261,12.395-52.117,32.107L6.224,416.383
			c-9.131,18.283-8.171,39.552,2.581,56.939c10.709,17.344,29.269,27.691,49.621,27.691h394.389
			c20.373,0,38.933-10.347,49.643-27.691C513.211,455.956,514.171,434.687,504.955,416.17z M168.55,402.986
			c10.389,2.624,22.165,5.611,32.171,13.675c11.989,9.664,13.12,25.109,11.904,32.704c-0.832,5.248-5.376,8.981-10.517,8.981
			c-0.555,0-1.131-0.043-1.707-0.128c-5.824-0.939-9.771-6.421-8.853-12.224c0,0,1.067-8.448-4.224-12.715
			c-6.379-5.141-15.339-7.424-24-9.6c-15.147-3.84-35.904-9.088-35.904-34.496c0-25.749,20.736-30.997,35.904-34.837
			c8.661-2.197,17.621-4.459,24-9.6c5.333-4.267,4.245-12.629,4.245-12.715c-0.939-5.803,3.029-11.285,8.853-12.224
			c5.824-0.853,11.264,3.029,12.224,8.853c1.216,7.595,0.085,23.04-11.925,32.704c-10.005,8.064-21.781,11.051-32.149,13.675
			c-17.024,4.309-19.797,6.251-19.797,13.803C148.774,396.735,151.547,398.676,168.55,402.986z M275.43,402.986
			c10.389,2.624,22.165,5.611,32.171,13.696c11.989,9.643,13.12,25.088,11.925,32.683c-0.853,5.248-5.376,8.981-10.517,8.981
			c-0.555,0-1.131-0.043-1.707-0.128c-5.803-0.939-9.771-6.4-8.853-12.224c0,0,1.088-8.448-4.224-12.715
			c-6.379-5.141-15.339-7.424-24-9.6c-15.168-3.84-35.904-9.088-35.904-34.496c0-25.749,20.736-30.997,35.883-34.837
			c8.683-2.197,17.643-4.459,24-9.579c5.333-4.288,4.245-12.779,4.245-12.864c-0.789-5.781,3.2-11.179,9.003-12.032
			c5.76-0.853,11.136,3.051,12.075,8.789c1.216,7.595,0.064,23.04-11.947,32.704c-10.005,8.064-21.781,11.051-32.149,13.675
			c-17.003,4.309-19.776,6.251-19.776,13.803C255.654,396.735,258.427,398.676,275.43,402.986z M340.987,277.012
			c0,5.888-4.779,10.667-10.667,10.667h-10.667v10.667c0,5.888-4.779,10.667-10.667,10.667s-10.667-4.779-10.667-10.667v-10.667
			h-85.333v10.667c0,5.888-4.779,10.667-10.667,10.667s-10.667-4.779-10.667-10.667v-10.667h-10.667
			c-5.888,0-10.667-4.779-10.667-10.667v-21.333c0-14.635,9.92-26.859,23.339-30.656l8.981-35.925
			c1.195-4.757,5.461-8.085,10.347-8.085h85.333c4.885,0,9.173,3.328,10.347,8.085l8.981,35.925
			c13.419,3.797,23.339,16.043,23.339,30.656V277.012z"/>
	</g>
</g>
<g>
</g>
<g>
</g>
<g>
</g>
<g>
</g>
<g>
</g>
<g>
</g>
<g>
</g>
<g>
</g>
<g>
</g>
<g>
</g>
<g>
</g>
<g>
</g>
<g>
</g>
<g>
</g>
<g>
</g>
</svg>
