<!-- Generated by IcoMoon.io -->
<svg version="1.1" xmlns="http://www.w3.org/2000/svg" width="1024" height="1024" viewBox="0 0 1024 1024">
<g id="icomoon-ignore">
</g>
<path fill="#000" d="M166.414 723.353c6.266-6.262 14.76-9.776 23.618-9.776h817.229c14.888 0 22.338 18.001 11.808 28.524l-161.482 161.353c-6.268 6.262-14.761 9.779-23.618 9.779h-817.227c-14.888 0-22.34-18.003-11.809-28.527l161.483-161.353z"></path>
<path fill="#000" d="M166.414 120.545c6.266-6.261 14.76-9.777 23.618-9.777h817.229c14.888 0 22.338 18.002 11.808 28.526l-161.482 161.354c-6.268 6.261-14.761 9.777-23.618 9.777h-817.227c-14.888 0-22.34-18.002-11.809-28.526l161.483-161.354z"></path>
<path fill="#000" d="M857.586 420.029c-6.268-6.262-14.761-9.776-23.618-9.776h-817.227c-14.888 0-22.34 18.001-11.809 28.524l161.483 161.353c6.266 6.262 14.76 9.779 23.618 9.779h817.229c14.888 0 22.338-18.003 11.808-28.527l-161.482-161.353z"></path>
</svg>
