<!-- Generated by IcoMoon.io -->
<svg version="1.1" xmlns="http://www.w3.org/2000/svg" width="1024" height="1024" viewBox="0 0 1024 1024">
<title></title>
<g id="icomoon-ignore">
</g>
<path d="M802.999 500.612v-300.612c0-66.168-53.832-120-120-120h-130.854c-16.51-46.562-60.996-80-113.146-80s-96.636 33.438-113.146 80h-132.854c-66.168 0-120 53.832-120 120v624c0 66.168 53.832 120 120 120h258.878c16.51 46.556 60.978 80 113.146 80l265.978-0.148c66.168 0 120-53.826 120-119.984v-254.412l-148.002-148.844zM814.711 625.85h-51.712c-22.056 0-40-17.944-40-40v-52.234l91.712 92.234zM318.999 160h80v-40c0-22.056 17.944-40 40-40s40 17.944 40 40v40h80v78h-240v-78zM444.999 517.986v346.014h-252c-22.056 0-40-17.944-40-40v-624c0-22.056 17.944-40 40-40h46v158h400v-158h44c22.056 0 40 17.944 40 40v220.158l-22.032-22.158h-135.968c-66.168 0-120 53.826-120 119.986zM870.999 903.868c0 22.048-17.944 39.984-40.022 39.984l-265.978 0.148c-22.056 0-40-17.938-40-39.986v-386.028c0-22.048 17.944-39.986 40-39.986h78v107.852c0 66.168 53.832 120 120 120h108v198.016z"></path>
</svg>
