<!-- Generated by IcoMoon.io -->
<svg version="1.1" xmlns="http://www.w3.org/2000/svg" width="1024" height="1024" viewBox="0 0 1024 1024">
<title></title>
<g id="icomoon-ignore">
</g>
<path d="M797.512 1001.429c-8.508-0.001-16.52-2.133-23.529-5.892l0.267 0.131-262.276-137.888-262.276 137.888c-6.753 3.627-14.775 5.759-23.297 5.759-27.616 0-50.003-22.387-50.003-50.003 0-3.017 0.267-5.971 0.779-8.84l-0.045 0.303 50.003-292.018-212.093-206.793c-9.285-9.086-15.041-21.746-15.041-35.749 0-25.061 18.438-45.818 42.488-49.442l0.276-0.034 293.198-42.662 131.168-265.737c8.348-16.651 25.284-27.88 44.843-27.88s36.494 11.229 44.712 27.592l0.131 0.288 131.168 265.737 293.198 42.662c24.351 3.635 42.816 24.403 42.816 49.484 0 14.030-5.779 26.711-15.085 35.791l-0.011 0.010-212.194 206.733 50.103 292.018c0.459 2.544 0.721 5.472 0.721 8.46 0 27.616-22.387 50.003-50.003 50.003-0.008 0-0.014 0-0.022 0h0.001z"></path>
</svg>
