<!-- Generated by IcoMoon.io -->
<svg version="1.1" xmlns="http://www.w3.org/2000/svg" width="1024" height="1024" viewBox="0 0 1024 1024">
<title></title>
<g id="icomoon-ignore">
</g>
<path d="M797.51 1001.429c-0.003 0-0.007 0-0.011 0-8.506 0-16.513-2.132-23.516-5.89l0.266 0.13-262.277-137.889-262.277 137.889c-6.752 3.627-14.776 5.758-23.295 5.758-27.616 0-50.003-22.387-50.003-50.003 0-3.017 0.267-5.971 0.779-8.841l-0.045 0.303 50.003-292.019-212.093-206.793c-9.285-9.087-15.042-21.745-15.042-35.749 0-25.062 18.437-45.817 42.488-49.442l0.276-0.034 293.199-42.663 131.168-265.737c8.349-16.651 25.285-27.88 44.843-27.88s36.494 11.229 44.712 27.592l0.131 0.288 131.168 265.737 293.199 42.663c24.352 3.636 42.817 24.404 42.817 49.484 0 14.030-5.778 26.711-15.085 35.791l-0.010 0.010-212.193 206.733 50.103 292.019c0.459 2.544 0.721 5.471 0.721 8.461 0 27.616-22.387 50.003-50.003 50.003-0.007 0-0.015 0-0.022 0h0.001zM511.973 751.294c8.507 0 16.517 2.124 23.53 5.871l-0.269-0.131 195.872 102.987-37.402-218.014c-0.458-2.542-0.72-5.468-0.72-8.456 0-14.033 5.78-26.716 15.091-35.797l0.010-0.010 158.47-154.45-218.994-31.922c-16.587-2.502-30.313-12.85-37.451-27.074l-0.131-0.288-98.006-198.433-98.006 198.433c-7.284 14.531-21.043 24.885-37.388 27.328l-0.274 0.034-218.914 31.822 158.57 154.45c9.321 9.092 15.101 21.774 15.101 35.807 0 2.987-0.262 5.913-0.764 8.757l0.044-0.301-37.402 218.114 195.872-102.987c6.715-3.6 14.689-5.722 23.156-5.74h0.005z"></path>
</svg>
