<!-- Generated by IcoMoon.io -->
<svg version="1.1" xmlns="http://www.w3.org/2000/svg" width="1024" height="1024" viewBox="0 0 1024 1024">
<title></title>
<g id="icomoon-ignore">
</g>
<path d="M512 819.199c-287.078 0-511.999-134.963-511.999-307.199 0-92.979 66.56-179.199 182.118-236.39 6.541-3.254 14.246-5.158 22.396-5.158 28.277 0 51.2 22.924 51.2 51.2 0 19.903-11.357 37.153-27.943 45.625l-0.289 0.134c-79.463 39.322-125.082 92.058-125.082 144.589 0 96.87 168.243 204.8 409.599 204.8 1.13 0.007 2.467 0.011 3.804 0.011 44.969 0 88.931-4.308 131.497-12.535l-4.332 0.697c3.374-0.792 7.249-1.247 11.23-1.247 28.277 0 51.2 22.924 51.2 51.2 0 25.298-18.349 46.313-42.464 50.458l-0.304 0.043c-44.062 8.767-94.717 13.783-146.545 13.783-1.436 0-2.873-0.004-4.308-0.012l0.222 0.001zM563.2 921.599c-28.272-0.006-51.19-22.927-51.19-51.2 0-14.136 5.729-26.934 14.99-36.198l66.201-66.201-66.201-66.201c-8.892-9.198-14.372-21.744-14.372-35.569 0-28.277 22.924-51.2 51.2-51.2 13.825 0 26.371 5.48 35.584 14.387l102.385 102.385c9.262 9.265 14.99 22.063 14.99 36.198s-5.729 26.934-14.99 36.198l-102.399 102.399c-9.263 9.266-22.061 14.999-36.198 15.001h-0.001zM819.199 753.664c-0.125 0.001-0.271 0.001-0.419 0.001-28.277 0-51.2-22.924-51.2-51.2 0-20.159 11.651-37.597 28.586-45.948l0.3-0.133c79.513-39.116 125.132-91.853 125.132-144.384 0-96.87-168.243-204.8-409.599-204.8-0.874-0.004-1.907-0.006-2.94-0.006-32.563 0-64.604 2.236-95.978 6.56l3.636-0.41c-1.77 0.217-3.818 0.341-5.897 0.341-28.277 0-51.2-22.924-51.2-51.2 0-25.333 18.398-46.368 42.562-50.474l0.302-0.042c31.914-4.567 68.771-7.175 106.237-7.175 1.153 0 2.305 0.002 3.457 0.007h-0.178c287.078 0 511.999 134.963 511.999 307.199 0 92.979-66.56 179.199-182.118 236.39-6.602 3.326-14.389 5.274-22.632 5.274-0.018 0-0.035 0-0.053 0h0.002zM460.8 409.601c-14.137-0.004-26.935-5.736-36.198-15.001l-102.399-102.399c-9.262-9.265-14.99-22.063-14.99-36.198s5.729-26.934 14.99-36.198l102.399-102.399c9.323-9.643 22.376-15.631 36.828-15.631 28.277 0 51.2 22.924 51.2 51.2 0 14.452-5.987 27.504-15.617 36.814l-66.216 66.216 66.201 66.201c9.262 9.265 14.99 22.063 14.99 36.198 0 28.273-22.916 51.193-51.188 51.2h-0.001z"></path>
</svg>
