<!-- Generated by IcoMoon.io -->
<svg version="1.1" xmlns="http://www.w3.org/2000/svg" width="1024" height="1024" viewBox="0 0 1024 1024">
<title></title>
<g id="icomoon-ignore">
</g>
<path d="M938.582 270.221c-4.413-4.031-9.435-7.506-14.888-10.251l-0.381-0.174c-3.675-1.987-6.788-3.972-9.749-6.152l0.228 0.159c-8.702-6.239-17.322-12.643-26.023-19.046-15.023-11.083-30.62-22.576-46.054-33.329-13.969-11.116-29.615-21.681-46.062-30.996l-1.798-0.938c-7.281-3.62-15.729-6.468-24.6-8.117l-0.602-0.093-5.993-1.396c-15.351-4.516-29.553-8.208-41.045-10.754-13.134-3.284-27.173-6.568-41.045-9.77-18.060-5.007-36.12-9.933-55.084-14.859s-38.337-9.112-56.726-13.134c-9.933-2.462-20.031-4.761-30.128-7.060s-20.031-4.432-29.881-6.896c-6.896-1.642-13.791-3.448-20.687-5.335s-14.12-3.695-21.18-5.335c-13.956-3.284-27.008-6.568-40.226-9.851-6.896-1.642-14.037-3.53-21.18-5.335s-14.448-3.695-21.426-5.335l-20.277-5.007-19.949-4.844c-6.649-1.642-13.299-3.119-19.949-4.598s-12.971-2.791-19.702-4.516c-15.433-3.202-31.194-7.388-46.711-11.493l-11.575-2.462-11.739-2.462c-12.888-2.462-26.105-5.747-38.912-8.948-6.485-1.642-12.971-3.448-19.456-5.254s-13.299-3.776-20.195-5.5-15.515-3.448-23.232-5.254-15.761-3.776-23.56-5.418h-0.657c-1.611-0.297-3.467-0.467-5.362-0.467-8.066 0-15.413 3.078-20.932 8.123l0.024-0.021c-6.809 6.792-11.021 16.186-11.021 26.562 0 1.314 0.068 2.612 0.199 3.891l-0.013-0.161c2.393 14.483 5.876 27.321 10.488 39.606l-0.472-1.433c8.208 24.627 17.486 49.83 26.352 73.882 4.516 12.396 9.030 24.627 13.546 36.613s9.030 24.627 13.628 36.695c4.104 10.179 7.634 21.015 11.001 31.441 2.053 6.157 4.022 12.314 6.075 18.224 8.208 24.627 17.486 49.256 26.434 72.569 3.202 8.208 6.321 16.91 9.358 25.284s6.157 16.91 9.441 25.531l7.634 19.866c5.007 12.806 10.179 26.023 14.448 38.994 3.202 9.605 6.321 19.128 9.441 28.733 7.143 22.001 14.612 44.74 22.576 66.494 6.321 18.388 13.381 36.613 20.195 54.263 4.022 10.426 8.208 20.851 11.821 31.112 2.053 5.993 3.858 12.314 5.663 18.553s3.776 12.888 5.911 19.374c3.695 10.344 7.634 20.687 11.575 30.949s7.717 20.44 11.411 30.62c9.030 24.627 18.060 48.516 27.254 72.651 5.663 13.463 11.164 27.993 17.814 47.039 2.627 8.208 4.926 15.844 7.225 23.642s5.254 18.388 8.208 27.501c5.747 15.597 11.739 31.031 17.732 46.464s11.821 30.703 17.404 45.808c3.021 12.791 13.355 22.518 26.249 24.603l0.185 0.025c1.946 0.31 4.194 0.489 6.481 0.492h0.004c0.241 0.006 0.525 0.010 0.81 0.010 11.921 0 22.412-6.123 28.499-15.397l0.080-0.129c11.411-16.419 23.232-33.657 35.136-50.651s23.889-34.233 35.382-50.979 22.33-32.837 32.837-49.256c8.208-12.15 16.419-24.627 24.627-36.613l14.695-20.769c8.208-11.903 17.239-24.627 25.284-36.367 8.208-10.426 15.105-21.262 21.918-31.852l8.208-11.985c11.985-17.322 23.971-34.396 35.874-51.554s23.725-33.905 35.464-50.897c15.351-21.015 31.278-42.77 46.054-65.017 10.836-15.515 21.59-31.606 31.934-47.203l19.046-28.404c33.986-50.569 68.875-101.219 102.615-150.228 5.351-6.864 8.579-15.611 8.579-25.112 0-12.552-5.634-23.788-14.512-31.317l-0.059-0.049zM707.165 235.579c-6.649 7.060-13.217 13.956-20.112 20.933l-14.612 15.433c-5.007 5.172-10.015 10.344-14.941 15.679l-19.784 21.508c-6.568 7.143-13.052 14.284-19.702 21.262l-83.652 90.957c-11.739 12.56-23.396 25.859-34.561 38.665l-1.805 1.971-1.149-1.396-4.844-6.403c-13.217-17.65-25.694-34.314-39.814-51.389l-56.561-66.412-59.106-71.010-20.277-24.627c-14.202-16.419-28.897-34.151-42.853-51.389-19.374-24.627-39.404-49.256-60.091-73.308l-10.098-11.739q-4.022-4.926-8.208-9.851l524.978 127.57c-4.516 4.761-8.702 9.194-12.806 13.546zM299.498 308.969c5.582 7.306 11.164 14.53 16.419 21.426 14.859 18.963 30.784 37.352 46.217 55.247 11.493 13.463 22.739 27.008 33.986 40.554s22.658 27.090 33.905 40.389c4.186 5.5 8.702 10.672 13.052 15.844 7.291 8.070 14.174 16.884 20.406 26.173l0.528 0.836c0.451 1.862 0.709 3.999 0.709 6.198s-0.259 4.336-0.748 6.384l0.038-0.186c-0.356 2.677-0.563 5.782-0.574 8.934v0.014c0.007 0.123 0.010 0.266 0.010 0.41s-0.004 0.289-0.011 0.43l0.001-0.020c-0.772 1.633-1.275 3.535-1.394 5.54l-0.002 0.042-4.844 54.673-0.903 10.098c-3.776 29.225-7.306 56.808-10.261 85.704-2.299 21.18-3.776 42.359-5.254 62.8-0.657 10.015-1.396 20.031-2.217 30.128-0.985 13.134-2.709 25.777-4.516 39.158-0.985 6.977-1.971 14.12-2.873 21.508l-3.119 33.739q-15.351-43.344-30.62-86.525c-32.18-91.039-65.674-185.199-99.741-277.635-23.807-65.674-47.531-131.347-70.517-195.707-19.128-53.277-38.747-108.033-58.532-162.46l46.874 53.442c7.717 9.358 15.105 18.717 22.411 28.157s14.859 18.963 22.986 28.733c7.143 8.208 14.612 16.419 21.918 25.203 5.663 6.568 11.164 13.709 16.664 20.769zM489.293 845.767v-1.068c-0.007-0.123-0.010-0.266-0.010-0.41s0.004-0.289 0.011-0.43l-0.001 0.020c0.781-1.658 1.283-3.589 1.394-5.625l0.002-0.039c0.492-6.403 0.985-12.888 1.396-19.374 0.985-13.381 1.805-26.023 3.448-38.665 1.642-15.187 3.53-30.292 5.335-45.48s3.695-30.456 5.335-45.561c1.724-13.299 3.367-27.501 4.186-40.554 0.574-6.731 0.985-13.628 1.477-20.523 0.903-12.888 1.805-26.269 3.367-39.076l0.74-6.157c2.217-18.471 4.516-37.598 7.471-55.905v0c0.872-0.837 1.872-1.549 2.967-2.103l0.070-0.033c11.903-6.157 23.889-12.56 35.792-18.963s24.053-12.724 36.038-18.8c10.179-5.335 20.605-10.426 31.031-15.515s21.015-10.344 31.441-15.761l171.408-90.054-159.587 233.469-187.661 274.105c1.068-9.276 2.381-18.224 4.35-27.501zM667.679 359.865c10.589-10.589 21.508-21.59 31.441-32.837l15.187-17.075c9.605-10.836 18.635-21.098 28.404-31.441 8.208-9.605 17.157-18.224 26.434-27.336 2.627-2.545 5.254-5.090 7.799-7.717v0l31.441 21.754 41.045 26.762 0.74 0.574c-78.891 41.045-155.318 80.368-232.32 119.444z"></path>
</svg>
