<!-- Generated by IcoMoon.io -->
<svg version="1.1" xmlns="http://www.w3.org/2000/svg" width="1024" height="1024" viewBox="0 0 1024 1024">
<title></title>
<g id="icomoon-ignore">
</g>
<path d="M316.174-2.451c-14.377-2.059-15.076-2.74-8.219-3.42 13.017-2.059 43.151 0.68 64.386 5.479 49.309 11.637 93.821 41.771 141.090 94.519l12.337 14.377 17.816-2.74c76.024-12.337 154.107-2.74 219.174 27.394 17.816 8.219 45.89 24.655 49.309 28.774 1.379 1.379 3.42 10.278 4.799 19.176 4.799 32.193 2.74 56.168-7.538 74.644-5.479 10.278-5.479 13.017-2.059 21.915 2.74 6.858 10.958 11.637 18.496 11.637 16.436 0 33.554-26.034 41.771-62.327l3.42-14.377 6.159 6.858c34.932 39.032 62.327 93.141 66.427 131.493l1.379 10.278-6.159-8.898c-10.278-15.757-19.856-26.034-32.873-34.932-23.295-15.757-47.95-20.555-113.016-23.974-58.908-3.42-92.46-8.219-125.333-19.176-56.168-18.496-84.922-42.471-151.368-130.813-29.453-39.032-47.95-60.267-66.427-78.083-40.411-39.032-80.823-59.587-133.552-67.806zM826.427 84.531c1.379-26.034 4.799-43.151 12.337-58.908 2.74-6.159 5.479-11.637 6.159-11.637s-0.68 4.799-2.74 10.278c-5.479 15.076-6.159 36.293-2.74 60.267 4.799 30.814 6.858 34.932 39.731 68.486 15.076 15.757 32.873 35.613 39.731 43.831l11.637 15.076-11.637-10.958c-14.377-13.698-47.25-39.731-54.788-43.151-4.799-2.74-5.479-2.74-8.898 0.68-2.74 2.74-3.42 6.858-3.42 26.714-0.68 30.814-4.799 49.99-15.076 69.865-5.479 10.278-6.159 8.219-1.379-3.42 3.42-8.898 4.118-13.017 4.118-42.471 0-59.587-6.858-73.965-48.63-97.939-10.278-6.159-28.075-15.076-38.352-19.856-10.958-4.799-19.176-8.898-18.496-8.898 1.379-1.379 41.771 10.278 57.528 17.116 23.974 9.597 28.075 10.278 30.814 9.597 2.059-2.059 3.42-7.538 4.118-24.655zM344.268 186.59c-28.774-39.731-47.25-101.359-43.151-147.249l1.379-14.377 6.858 1.379c12.337 2.059 33.554 10.278 43.831 16.436 27.394 16.436 39.731 39.032 51.369 95.2 3.42 16.436 8.219 35.613 10.278 41.771 3.42 10.278 16.436 34.252 27.394 49.309 7.538 10.958 2.74 16.436-14.377 15.076-26.034-2.74-60.948-26.714-83.562-57.528zM791.494 484.506c-135.611-54.788-183.542-102.058-183.542-182.181 0-11.637 0.68-21.236 0.68-21.236 0.68 0 5.479 4.118 11.637 8.898 27.394 21.915 58.208 31.512 143.83 43.831 49.99 7.538 78.764 13.017 104.797 21.915 82.863 27.394 134.232 83.562 146.569 159.585 3.42 21.915 1.379 63.687-4.118 85.602-4.799 17.116-18.496 48.63-21.915 49.309-0.68 0-2.059-3.42-2.059-8.898-1.379-28.774-15.757-56.168-39.731-77.384-28.774-24.655-65.746-43.151-156.148-79.443zM695.614 507.102c-1.379-10.278-4.799-23.295-6.858-28.774l-3.42-10.278 6.159 7.538c8.898 10.278 15.757 22.596 21.915 39.731 4.799 13.017 4.799 17.116 4.799 38.352 0 20.555-0.68 25.335-4.799 36.992-6.858 18.496-15.076 31.512-28.774 45.89-24.655 25.335-56.848 39.032-102.738 45.21-8.219 0.68-31.512 2.74-52.049 4.118-51.369 2.74-85.602 8.219-116.436 19.176-4.118 1.379-8.219 2.74-8.898 2.059-1.379-1.379 19.856-13.698 36.992-21.915 23.974-11.637 48.63-17.816 102.738-27.394 26.714-4.118 54.108-9.597 60.948-12.337 67.806-21.236 101.359-73.965 90.401-138.351zM757.941 617.378c-17.816-39.032-21.915-76.024-12.337-110.957 1.379-3.42 2.74-6.858 4.118-6.858s5.479 2.059 9.597 4.799c8.219 5.479 25.335 15.076 69.165 39.032 55.469 30.134 86.981 53.429 108.897 80.123 19.176 23.295 30.814 49.99 36.293 82.863 3.42 18.496 1.379 63.007-3.42 81.503-15.076 58.208-49.309 104.797-99.299 131.493-7.538 4.118-13.698 6.858-14.377 6.858s2.059-6.858 6.159-15.076c16.436-34.932 18.496-68.486 6.159-106.158-7.538-23.295-23.295-51.369-54.788-98.62-37.672-54.788-46.57-69.165-56.168-89.041zM247.689 826.954c50.689-42.471 113.016-72.604 170.544-82.183 24.655-4.118 65.746-2.74 88.342 3.42 36.293 9.597 69.165 30.134 86.302 55.469 16.436 24.655 23.974 45.89 31.512 93.141 2.74 18.496 6.159 37.672 6.858 41.771 5.479 24.655 16.436 43.831 30.134 54.108 21.236 15.757 58.208 16.436 94.519 2.74 6.159-2.059 11.637-4.118 11.637-3.42 1.379 1.379-17.116 13.698-29.453 19.856-17.116 8.898-30.814 11.637-49.309 11.637-32.873 0-60.948-17.116-83.562-51.369-4.799-6.858-14.377-26.714-22.596-45.21-23.974-55.469-36.293-71.905-64.386-90.401-24.655-15.757-56.168-19.176-80.123-7.538-31.512 15.076-39.731 55.469-17.816 80.123 8.898 10.278 25.335 18.496 39.032 20.555 25.335 3.42 47.25-16.436 47.25-41.771 0-16.436-6.159-26.034-22.596-33.554-21.915-9.597-45.89 1.379-45.21 22.596 0 8.898 4.118 14.377 13.017 18.496 5.479 2.74 5.479 2.74 1.379 2.059-19.856-4.118-24.655-28.774-8.898-44.511 19.176-19.176 59.587-10.958 73.285 15.757 5.479 10.958 6.159 32.873 1.379 46.57-11.637 30.134-44.511 45.89-78.083 36.992-22.596-6.159-32.193-12.337-59.587-40.411-47.95-49.309-66.427-58.908-134.931-69.165l-13.017-2.059 14.377-13.698zM-112.555-275.033c159.585 193.819 405.454 495.176 417.792 511.612 10.278 13.698 6.159 26.714-10.958 36.293-9.597 5.479-29.453 10.958-39.032 10.958-10.958 0-23.974-5.479-32.873-14.377-6.159-6.159-32.873-45.21-93.141-139.031-45.89-71.905-84.922-131.493-85.602-132.191-2.74-1.379-2.74-1.379 80.823 147.929 52.729 93.821 69.865 127.393 69.865 131.493 0 8.898-2.74 13.698-13.698 26.034-18.496 20.555-26.714 43.831-32.873 92.46-6.858 54.108-25.335 92.46-78.083 157.526-30.814 38.352-35.613 45.21-43.151 60.948-9.597 19.176-12.337 30.134-13.698 54.788-1.379 26.034 1.379 42.471 8.898 67.125 6.858 21.915 14.377 36.293 32.873 64.386 15.757 24.655 25.335 43.151 25.335 49.99 0 5.479 1.379 5.479 26.034 0 58.908-13.698 107.537-36.992 134.232-65.746 16.436-17.816 20.555-27.394 20.555-52.049 0-15.757-0.68-19.176-4.799-28.774-6.858-15.076-19.856-27.394-47.95-46.57-36.992-25.335-52.729-45.89-56.848-73.285-3.42-23.295 0.68-39.032 21.236-82.183 21.236-44.511 26.714-63.007 30.134-108.217 2.059-28.774 5.479-40.411 13.698-49.309 8.898-9.597 16.436-13.017 37.672-15.757 34.932-4.799 57.528-13.698 75.344-30.814 15.757-14.377 22.596-28.774 23.295-49.99l0.68-15.757-8.898-9.597c-32.193-36.992-478.059-527.368-480.099-527.368-0.68 0 10.278 13.017 23.295 29.453zM97.701 698.881c7.538-13.017 3.42-29.453-8.898-37.672-11.637-7.538-29.453-4.118-29.453 6.159 0 2.74 1.379 5.479 5.479 6.858 6.159 3.42 6.858 6.858 2.059 14.377s-4.799 14.377 1.379 19.176c9.597 7.538 22.596 3.42 29.453-8.898zM375.082 338.63c10.958-3.42 32.193-1.379 42.471 4.118 19.856 10.278 34.252 32.873 30.814 49.309-3.42 19.856-35.613 36.293-73.285 36.293-19.176 0-26.034-2.74-33.554-12.337-4.799-6.159-6.159-26.034-3.42-36.992 4.799-17.816 20.555-35.613 36.992-40.411zM418.913 372.871c5.479-8.219 3.42-17.116-6.858-23.295-18.496-11.637-46.57-2.059-46.57 15.757 0 8.898 14.377 18.496 28.075 18.496 8.898 0 21.236-5.479 25.335-10.958z"></path>
</svg>
