<!-- Generated by IcoMoon.io -->
<svg version="1.1" xmlns="http://www.w3.org/2000/svg" width="1024" height="1024" viewBox="0 0 1024 1024">
<title></title>
<g id="icomoon-ignore">
</g>
<path d="M242.526 377.264c-29.765 0-53.895 24.13-53.895 53.895v431.157c0 29.765 24.13 53.895 53.895 53.895h538.948c29.765 0 53.895-24.13 53.895-53.895v-431.157c0-29.765-24.13-53.895-53.895-53.895zM242.526 269.475h538.948c89.295 0 161.684 72.389 161.684 161.684v431.157c0 89.295-72.389 161.684-161.684 161.684h-538.948c-89.295 0-161.684-72.389-161.684-161.684v-431.157c0-89.295 72.389-161.684 161.684-161.684zM404.21 323.369c0 29.765-24.13 53.895-53.895 53.895s-53.895-24.13-53.895-53.895v-107.789c0-119.061 96.518-215.579 215.579-215.579 63.618 0 122.845 27.788 163.509 75.078 19.406 22.569 16.843 56.597-5.726 76.003s-56.597 16.843-76.003-5.726c-20.399-23.722-49.905-37.566-81.779-37.566-59.53 0-107.789 48.259-107.789 107.789zM511.999 700.632c-59.53 0-107.789-48.259-107.789-107.789s48.259-107.789 107.789-107.789 107.789 48.259 107.789 107.789-48.259 107.789-107.789 107.789zM565.894 754.527c0 29.765-24.13 53.895-53.895 53.895s-53.895-24.13-53.895-53.895v-107.789c0-29.765 24.13-53.895 53.895-53.895s53.895 24.13 53.895 53.895z"></path>
</svg>
