<!-- Generated by IcoMoon.io -->
<svg version="1.1" xmlns="http://www.w3.org/2000/svg" width="1024" height="1024" viewBox="0 0 1024 1024">
<title></title>
<g id="icomoon-ignore">
</g>
<path d="M133.547 813.588l355.21-355.21c5.946-5.953 14.165-9.635 23.242-9.635s17.296 3.682 23.242 9.635l355.21 355.21c5.944 5.941 14.154 9.615 23.222 9.615s17.278-3.674 23.222-9.615v0l77.489-77.53c5.941-5.944 9.615-14.154 9.615-23.222s-3.674-17.278-9.615-23.222l-479.142-479.184c-5.946-5.953-14.165-9.635-23.242-9.635s-17.296 3.682-23.242 9.635l-479.143 479.184c-5.941 5.944-9.615 14.154-9.615 23.222s3.674 17.278 9.615 23.222l77.489 77.53c5.944 5.941 14.154 9.615 23.222 9.615s17.278-3.674 23.222-9.615v0z"></path>
</svg>
