<!-- Generated by IcoMoon.io -->
<svg version="1.1" xmlns="http://www.w3.org/2000/svg" width="1024" height="1024" viewBox="0 0 1024 1024">
<title></title>
<g id="icomoon-ignore">
</g>
<path d="M349.707 290.164l109.327-109.327v578.336c0 29.252 23.713 52.965 52.965 52.965s52.965-23.713 52.965-52.965v0-578.336l109.327 109.327c9.594 9.645 22.878 15.615 37.554 15.615 29.252 0 52.965-23.713 52.965-52.965 0-14.677-5.97-27.959-15.613-37.551l-199.746-199.748c-9.585-9.586-22.827-15.514-37.453-15.514s-27.869 5.929-37.453 15.514l-199.744 199.746c-9.645 9.594-15.615 22.878-15.615 37.554 0 29.252 23.713 52.965 52.965 52.965 14.677 0 27.959-5.97 37.551-15.613l0.002-0.002zM971.033 459.036c-29.252 0-52.965 23.713-52.965 52.965v0 406.068h-812.136v-406.068c0-29.252-23.713-52.965-52.965-52.965s-52.965 23.713-52.965 52.965v0 423.723c0 48.754 39.522 88.276 88.276 88.276v0h847.446c48.754 0 88.276-39.522 88.276-88.276v0-423.723c0-29.252-23.713-52.965-52.965-52.965v0z"></path>
</svg>
