<!-- Generated by IcoMoon.io -->
<svg version="1.1" xmlns="http://www.w3.org/2000/svg" width="1024" height="1024" viewBox="0 0 1024 1024">
<title></title>
<g id="icomoon-ignore">
</g>
<path d="M1003.259 444.399c-102.426-151.59-286.792-242.749-491.643-242.749s-389.217 92.183-491.643 242.749c-26.631 37.897-26.631 92.183 0 135.202 97.304 145.444 286.792 242.749 491.643 242.749s389.217-92.183 491.643-242.749c27.655-43.019 27.655-97.304 0-135.202zM912.1 515.073c-80.916 118.814-232.506 194.609-400.484 194.609s-318.544-75.795-400.484-194.609c0-5.121 0-11.267 0-16.388 81.94-113.692 232.506-189.487 400.484-189.487s318.544 75.795 400.484 194.609c5.121 0 5.121 11.267 0 11.267zM511.616 352.216c-86.038 0-156.711 70.674-156.711 156.711s70.674 156.711 156.711 156.711 156.711-70.674 156.711-156.711-70.674-156.711-156.711-156.711zM511.616 558.092c-26.631 0-48.14-21.509-48.14-48.14s21.509-49.164 48.14-49.164 48.14 21.509 48.14 48.14-21.509 49.164-48.14 49.164z"></path>
</svg>
