<!-- Generated by IcoMoon.io -->
<svg version="1.1" xmlns="http://www.w3.org/2000/svg" width="1024" height="1024" viewBox="0 0 1024 1024">
<title></title>
<g id="icomoon-ignore">
</g>
<path d="M496.135 34.148c59.24-51.342 167.038-21.968 169.465 77.382v799.749c0 73.61-86.824 142.552-169.465 77.382l-284.833-246.857h-108.902c-53.071 0-102.4-43.015-102.4-102.4v-256c0-54.84 45.406-102.4 102.4-102.4h108.877zM563.2 111.531l-299.268 259.366c-8.146 7.060-21.049 12.509-33.533 12.509h-128v256h128c10.778 0 21.241 3.401 29.924 9.655l302.877 262.219zM921.497 196.024c65.91 81.404 102.503 182.858 102.503 289.781 0 120.25-46.326 233.347-127.794 318.504-19.548 20.432-51.958 21.15-72.39 1.602s-21.15-51.958-1.602-72.39c63.414-66.286 99.386-154.106 99.386-247.716 0-83.249-28.408-162.008-79.687-225.343-17.794-21.977-14.402-54.217 7.573-72.011s54.217-14.402 72.011 7.573zM825.167 325.281c29.417 47.921 45.234 103.122 45.234 160.524 0 71.123-24.307 138.66-68.084 192.875-17.765 22.001-50 25.434-72 7.669s-25.434-50-7.669-72c29.2-36.162 45.354-81.048 45.354-128.544 0-38.354-10.511-75.036-30.103-106.952-14.794-24.098-7.249-55.627 16.849-70.42s55.627-7.249 70.42 16.849z"></path>
</svg>
