<!-- Generated by IcoMoon.io -->
<svg version="1.1" xmlns="http://www.w3.org/2000/svg" width="1024" height="1024" viewBox="0 0 1024 1024">
<title></title>
<g id="icomoon-ignore">
</g>
<path d="M496.136 34.949c55.64-52.765 166.704-20.886 169.465 77.382v799.749c0 83.164-97.798 135.951-169.465 77.382l-284.833-246.857h-108.903c-53.071 0-102.4-43.021-102.4-102.4v-256c0-54.84 44.887-102.4 102.4-102.4h108.877zM563.201 112.332l-299.268 259.366c-8.146 7.060-20.767 12.509-33.533 12.509h-128.001v256h128.001c10.778 0 21.241 3.401 29.924 9.655l302.877 262.219zM804.205 373.602l66.196 66.178 66.196-66.178c19.994-19.994 52.412-19.994 72.408 0 18.942 18.942 20.804 51.048 0 72.408l-66.181 66.192 66.181 66.199c19.994 19.994 19.994 52.412 0 72.408-18.942 18.942-50.269 21.568-72.408-0.286l-66.196-65.899-66.196 66.185c-19.994 19.994-52.412 19.994-72.408 0-18.942-18.942-21.001-50.509 0-72.408l66.181-66.199-66.181-66.192c-19.994-19.994-19.994-52.412 0-72.408 18.942-18.942 50.65-21.688 72.408 0z"></path>
</svg>
