<!-- Generated by IcoMoon.io -->
<svg version="1.1" xmlns="http://www.w3.org/2000/svg" width="1024" height="1024" viewBox="0 0 1024 1024">
<title></title>
<g id="icomoon-ignore">
</g>
<path d="M505.48 25.67c54.7-51.59 169.060-25.49 172.66 78.84v814.82c0 81.29-96.3 141.12-172.66 78.84l-290.2-251.51h-110.95c-54.070 0-104.33-43.89-104.33-104.33v-260.82c0-55.87 45-104.33 104.33-104.33h110.93zM573.81 104.51l-304.91 264.26c-9.168 7.781-21.089 12.57-34.124 12.74h-130.446v260.82h130.41c11.449 0.003 22.037 3.692 30.64 9.944l-0.15-0.104 308.58 267.16zM897.91 322.29c28.937 46.544 46.090 103.028 46.090 163.518 0 74.706-26.163 143.302-69.827 197.124l0.457-0.582c-9.64 11.87-24.234 19.393-40.585 19.393-28.809 0-52.163-23.354-52.163-52.163 0-12.458 4.367-23.896 11.654-32.866l-0.076 0.096c28.782-35.493 46.21-81.213 46.21-131.004 0-40.294-11.414-77.923-31.185-109.829l0.515 0.893c-4.839-7.765-7.708-17.193-7.708-27.29 0-28.809 23.354-52.163 52.163-52.163 18.711 0 35.122 9.852 44.327 24.652l0.128 0.221z"></path>
</svg>
