<!-- Generated by IcoMoon.io -->
<svg version="1.1" xmlns="http://www.w3.org/2000/svg" width="1024" height="1024" viewBox="0 0 1024 1024">
	<title></title>
	<g id="icomoon-ignore">
	</g>
	<path
		d="M634.709 114.005c-24.762-42.929-70.415-71.36-122.709-71.36s-97.947 28.431-122.346 70.679l-0.363 0.681-371.627 662.101c-11.125 19.248-17.69 42.34-17.69 66.965 0 25.492 7.035 49.342 19.269 69.712l-0.342-0.614c24.588 41.66 69.25 69.167 120.337 69.167 0.399 0 0.798-0.002 1.196-0.005h743.192c0.337 0.003 0.736 0.005 1.135 0.005 51.087 0 95.749-27.508 119.982-68.519l0.354-0.648c11.892-19.757 18.927-43.606 18.927-69.099 0-24.625-6.564-47.717-18.039-67.622l0.349 0.656zM931.456 869.205c-9.714 16.157-27.151 26.8-47.073 26.8-0.266 0-0.531-0.002-0.796-0.006h-743.213c-0.202 0.003-0.442 0.004-0.681 0.004-19.975 0-37.45-10.698-47.010-26.677l-0.138-0.249c-4.533-7.418-7.218-16.395-7.218-25.998 0-9.278 2.506-17.972 6.877-25.44l-0.129 0.238 371.627-662.144c10.492-15.78 28.197-26.039 48.299-26.039s37.807 10.259 48.166 25.826l0.133 0.212 371.627 662.101c4.25 7.235 6.761 15.936 6.761 25.223 0 9.612-2.689 18.596-7.356 26.241l0.126-0.222zM512 298.667c-23.564 0-42.667 19.103-42.667 42.667v0 256c0 23.564 19.103 42.667 42.667 42.667s42.667-19.103 42.667-42.667v0-256c0-23.564-19.103-42.667-42.667-42.667v0zM554.667 768c0 23.564-19.103 42.667-42.667 42.667s-42.667-19.103-42.667-42.667c0-23.564 19.103-42.667 42.667-42.667s42.667 19.103 42.667 42.667z">
	</path>
</svg>
