<!-- Generated by IcoMoon.io -->
<svg version="1.1" xmlns="http://www.w3.org/2000/svg" width="1024" height="1024" viewBox="0 0 1024 1024">
<title></title>
<g id="icomoon-ignore">
</g>
<path d="M512 475.376c73.873 0 143.289-35.212 195.462-99.153l306.998-376.223h-180.186l-217.717 266.825c-27.962 34.285-65.090 53.141-104.558 53.141s-76.576-18.877-104.538-53.141l-217.727-266.825h-180.176l306.978 376.223c52.183 63.941 121.599 99.153 195.462 99.153zM707.473 645.659c-52.183-63.941-121.599-99.123-195.473-99.123s-143.289 35.182-195.473 99.123l-308.713 378.341h180.186l219.452-268.942c27.962-34.285 65.090-53.141 104.548-53.141s76.636 18.867 104.548 53.141l219.452 268.942h180.186z"></path>
</svg>
