<!-- Generated by IcoMoon.io -->
<svg version="1.1" xmlns="http://www.w3.org/2000/svg" width="768" height="1024" viewBox="0 0 768 1024">
<title></title>
<g id="icomoon-ignore">
</g>
<path d="M702.416 64h-130.554c0 0 0 0 0 0-9.413 0-17.561 5.42-21.493 13.309l-0.063 0.139-110.78 226.326c-29.026 69.408-54.266 143.864-54.266 143.864h-2.524s-25.24-74.456-54.266-143.864l-110.78-226.326c-3.993-8.028-12.14-13.448-21.552-13.448-0.001 0-0.001 0-0.002 0h-130.552c-18.114 0-29.7 19.3-21.18 35.286l160.24 300.714h-116.644c-13.254 0-24 10.746-24 24v64c0 13.254 10.746 24 24 24h176.324l39.676 74.456v53.544h-216c-13.254 0-24 10.746-24 24v64c0 13.254 10.746 24 24 24h216v184c0 13.254 10.746 24 24 24h112c13.254 0 24-10.746 24-24v-184h216c13.254 0 24-10.746 24-24v-64c0-13.254-10.746-24-24-24h-216v-53.544l39.676-74.456h176.324c13.254 0 24-10.746 24-24v-64c0-13.254-10.746-24-24-24h-116.644l160.24-300.714c8.52-15.986-3.064-35.286-21.18-35.286z"></path>
</svg>
