<?xml version="1.0" encoding="utf-8"?>
<!-- Generator: Adobe Illustrator 27.0.1, SVG Export Plug-In . SVG Version: 6.00 Build 0)  -->
<svg version="1.1" id="read" xmlns="http://www.w3.org/2000/svg" xmlns:xlink="http://www.w3.org/1999/xlink" x="0px" y="0px"
	 viewBox="0 0 500 500" style="enable-background:new 0 0 500 500;" xml:space="preserve">
<path d="M345.9,482.1h152.2L384.6,320.3c59.1-24.5,97.8-71.6,97.8-142.6v-1.4c0-45.8-14.2-81.6-42.2-108.1
	c-12-12-26.7-22.1-44.2-30.1v-0.7h-1.6c-28.6-12.6-64.7-19.6-109.1-19.6H60.4v19.6V88c-3.5,5-8,11.8-12.4,18.9
	c-9.1,14.7-9.3,26.1-9.3,26.1s-15.4,20.5-21.4,45.1c-6,24.5-5,45.1-5,45.1c-0.1,0.2-0.4,1.3-0.9,3.3c-1.6,6.5-4.1,22.4,0.2,46.5
	c5.6,32.2-9.8,89.3-9.8,89.3c1.7-5.7,3.8-10.7,6.3-15.2c5.2-14.1,12-36.3,13.7-60c2.8-39.6,36.1-55.4,36.1-55.4s-6.2,2.3-17.9,8.7
	c-11.7,6.4-19.6,17.8-19.6,17.8s-1.1-12.4,5.8-35.6c6.9-23.2,32.3-38.4,32.3-38.4s-7.5,0-18.1,5c-10.5,5-15.5,10.9-15.5,10.9
	s0.7-16.5,15.5-47c5.2-10.7,12.6-18.5,20.1-24.1c6.3-4.7,12.5-7.8,17.5-9.9l0.5-0.2l1-0.4l0.5-0.2c0.7-0.2,1.2-0.5,1.8-0.6l0.3-0.2
	h0.1l0.4-0.2l0.4-0.2l0.3-0.2l0.4-0.2l0.2-0.1l0.2-0.1c0.3-0.1,0.7-0.2,1-0.3l0.3-0.1l0.2-0.1l0.2-0.1H86l0.2-0.1l0.2-0.1l0.2-0.1
	h0.1l0.2-0.1h0.1h0.2h0.2l0.2-0.1h0.1h0.1h0.1h0.1H88H88h0.1c-11.6-1.7-26.9,3.4-36.8,9c1.3-3.3,6-13,9-17.3
	c6.1-9.6,15.2-21.1,27.6-28.9C112.7,63,148,69,148,69s-10.3-6.2-25.1-5.9c-14.8,0.3-21,2.7-21,2.7S116.7,49.7,149,43
	c25.2-5.3,43.3-0.2,50,2.3c1.6-5.7,3.3-9.6,3.3-9.6s3.3-1.7,16.4,3.5c4.2,1.7,7.9,3.6,11,5.4c0,0,8.6,5.4,18.6,14.9
	c10,9.6,33.3,12,48.8,24.7c5.5,4.6,11.9,10.5,16.4,16c9.8,11.9,10.6,22,10.6,22s25.1,15.2,44.1,38.7c16.5,20.9,33,41,45.1,49.3
	c16.4,11.3,6.5,11.6,8.4,28.6c1.9,17-15.9,27.6-24.1,29.1c-8.2,1.5-15.1,8.9-15.1,8.9c-10.2,6-28.7,3.4-34.3-6.9
	c-7-13.1-6.4-13.7-15.3-17.4c-8.9-3.7-4.8-10.9-4.8-10.9s-4.5-4-13.4-4.4c-8.4-0.3-26.9-2.6-29.2-2.8H285c-1.1-0.2-2.1-0.3-3.2-0.4
	c-6.8,1-14.8,1.6-23.2,0.5C275.1,315.6,326.8,357.4,345.9,482.1z"/>
<path d="M317.1,225.3c0,0,15.6-2.3,31.5,10.6l0.2,0.2c0.7-0.5,1.5-1,2.5-1.4c7-3.8,18.1-0.7,18.1-0.7s-6.5-0.2-12.9,2.7
	c-1.8,0.8-3,1.9-3.7,3c-2,3-0.9,6.4-0.1,7.6c1.2,1.5,5.6,2.3,9.9,6.2c4.3,3.9,3.9,13,11.2,14.4c1.6,0.3,3.1,0.2,4.6-0.2
	c-1.9-1.4-4-3.9-6.5-6.9c2.6,3.1,4.8,5.5,6.5,6.9c4.9-1.2,8.4-5.5,8.4-5.5s-3.1-1.7-5.1-4.8c-2-3.1-6.4-5.6-6.4-5.6s4.8-1,8.5,1.4
	c3.7,2.4,4.2,5.6,10.3,7.1c6,1.4,14.5-3,14.5-3c2.4-1.3,4.5-3,6.3-5.3c6.7-8.8,0.8-17.1,0.8-17.1s-1.9,5.9-4.8,7.9
	c-2.9,2-3.8,2-3.8,2s5.5-9.3,2.6-14.4c-2.9-5.1-12.8-3.1-15.3-2.3c-2.5,1-2.4,5.4-2.4,5.4s-7.3-4.3-6.2-14
	c1.1-9.6,7.4-12.5,7.4-12.5s-22.6-32.6-42.8-47.1C330.3,145.1,320,142,320,142s1,6.6,1,11.4c0,4.8-0.3,7.2-0.3,7.2
	s-12.2,0.7-22.3-7.7c-1-0.9-1.9-1.8-2.6-2.7c-0.6-0.7-1.1-1.4-1.5-2.2c-2.4-3.9-3.2-8.1-3.4-11.4c-0.2-3.5,0.3-6,0.3-6s0,0-3.1-3.1
	c-3.1-3.1-10.9-8.7-10.9-8.7s11.6,1.5,20.9,6.3c9.4,4.7,10.5,5.4,10.5,5.4s-1.3-25.8-46.8-31.1c-2.6-0.3-4.9-0.6-7.2-0.7
	c0.1-4.1-0.9-14.3-10.6-26.1c-12.7-15.4-33.9-22.6-33.9-22.6s-6,13.5-2.3,29.4c2.3,9.9,9,16.5,13.7,20c0,0,5.9,3.6,9.4,5.2
	c3.5,1.6,3.5,1.6,3.5,1.6l-11.1-2c0,0-58.2,9.8-90.4,46.5c-32.2,36.7-34.6,98-35,143c-0.4,45-7.1,61.9-7.1,61.9s1.1-11.2,2.1-34.1
	c1.1-23-10.1-97.8,16.8-155.1c26.9-57.3,102.8-67.1,102.8-67.1s0,0-2.1-1.9c-2.1-1.9-3.8-6.2-3.8-6.2
	c-112.1,18.7-127,95.6-127,191.1c0,58,5.3,140.8-45.6,183.9c0,0,38.6-2.7,67.9-33.8c29.3-31.1,24.3-59.5,24.3-59.5
	s10.7,22.3,0.7,45.3c-10,23-17.5,31.5-17.5,31.5s68.2-31.5,52.5-97.7c-11.6-49-4.1-80.3,0.6-93.2c0,0-2.2,20.4,1.5,38.7
	c1.1,9.1,3.2,18.4,7.1,27.1c13.9,31.5,16.3,60.8,10.4,86.5c-6,25.7-25,50.4-25,50.4c75.6-35,72.9-131,53.1-175.9
	c0,0,0,21.5-4.6,34.3c-4.6,12.8-11.3,19.9-11.3,19.9s12-34.1-9.4-78.7c-21.4-44.6-3.9-75.6-3.9-75.6s5.8,18.5,12,25.7
	c6.1,7.2,9.4,8.8,9.4,8.8s-8.3-16.3-7.1-39.4c1.3-23.2,10.3-30.3,10.3-30.3s-3.1,10.1-0.5,20c2.6,10,4.7,12.3,4.7,12.3
	s2.9-16.3,12-26.2c0.5-0.6,1-1,1.4-1.5c-0.4,4.5-0.5,9.8,0.3,15.2c0,0,0.7,27,24.9,42.6c24.3,15.7,49.8,8.3,67.2,5.2
	c17.3-3.1,28.1-3.1,28.1-3.1S328.8,216.8,317.1,225.3z M292,139.8c-0.1-0.2-0.1-0.2-0.2-0.4L292,139.8z"/>
</svg>
