<?xml version="1.0" encoding="iso-8859-1"?>
<!-- Generator: Adobe Illustrator 19.0.0, SVG Export Plug-In . SVG Version: 6.00 Build 0)  -->
<svg version="1.1" id="Layer_1" xmlns="http://www.w3.org/2000/svg" xmlns:xlink="http://www.w3.org/1999/xlink" x="0px" y="0px"
	 viewBox="0 0 500 500" style="enable-background:new 0 0 500 500;" xml:space="preserve">
<path id="XMLID_4_" style="fill:#1F6FCD;" d="M214.256,347.921c-13.84,1.81-32.129-11.681-31.711-30.955
	c0.4-18.428,12.818-31.669,32.733-31.847c15.979-0.143,30.657,15.183,30.373,30.901
	C245.315,334.622,232.229,347.919,214.256,347.921z M358.336,251.315c-0.139-18.327-11.864-31.119-30.849-31.89
	c-16.51-0.671-29.869,11.694-31.762,27.794c-2.22,18.879,11.593,34.659,30.228,35.272
	C343.23,283.286,358.472,269.169,358.336,251.315z M213.941,154.337c-13.37,0.011-31.435,10.947-31.633,31.392
	c-0.16,16.546,12.523,31.51,31.927,31.737c17.472,0.205,30.8-13.616,30.805-31.714C246.372,169.268,230.273,154.324,213.941,154.337
	z M176.689,283.161c17.763-0.532,30.665-12.901,31.239-31.65c0.517-16.896-14.318-31.607-31.289-31.76
	c-17.287-0.157-31.333,13.905-31.338,31.371C143.993,268.87,159.607,283.672,176.689,283.161z M257.647,185.884
	c0.735,18.227,11.667,30.415,30.604,31.296c19.639,0.914,31.982-15.875,32.339-31.047c0.362-15.403-13.791-32.932-31.733-31.554
	C273.318,152.834,256.94,168.365,257.647,185.884z M289.29,285.167c-18.972,0.445-30.924,12.517-31.355,31.285
	c-0.428,18.664,15.582,31.676,31.928,31.691c16.127,0.015,32.38-15.742,30.366-31.094
	C322.163,301.35,308.625,284.714,289.29,285.167z M140.462,168.401c-10.217-0.308-18.017,7.015-18.26,17.142
	c-0.278,11.625,6.641,19.457,17.372,19.665c10.222,0.199,17.822-7.171,18.062-17.513
	C157.887,176.911,150.584,168.706,140.462,168.401z M344.784,186.692c0.109,9.798,8.053,17.497,18.194,17.631
	c10.297,0.136,18.786-8.052,18.622-17.962c-0.169-10.222-8.246-18.007-18.643-17.971
	C352.851,168.426,344.672,176.663,344.784,186.692z M233.081,122.58c-0.614,9.364,8.61,17.582,18.26,17.466
	c9.885-0.118,18.282-8.249,18.231-17.653c-0.058-10.721-7.485-18.421-17.844-18.5C238.91,104.068,233.78,111.927,233.081,122.58z
	 M364.008,297.292c-9.831-0.207-18.721,8.106-19.205,17.957c-0.462,9.403,8.292,18.365,18.347,18.783
	c9.487,0.394,18.291-8.365,18.455-18.36C381.761,306.237,373.385,297.489,364.008,297.292z M140.504,334.262
	c9.34-0.112,18.987-8.887,18.156-17.786c-0.971-10.386-5.56-17.856-18.273-18.193c-10.442-0.277-18.079,7.048-18.102,17.109
	C122.257,326.865,129.525,334.393,140.504,334.262z M268.847,380.439c0.017-10.207-8.22-18.247-18.47-18.03
	c-9.989,0.212-17.785,8.023-17.799,17.831c-0.015,10.917,7.293,18.394,17.957,18.371
	C260.804,398.589,268.83,390.625,268.847,380.439z M419.26,235.279c-8.108-0.177-15.804,6.934-16.121,14.896
	c-0.328,8.232,7.079,16.265,15.497,16.349c6.969,0.069,15.587-5.083,15.336-15.218C434.212,242.821,427.453,235.458,419.26,235.279z
	 M152.831,107.864c0.349,8.197,7.217,14.33,15.632,13.958c8.646-0.382,14.743-7.278,14.341-16.222
	c-0.389-8.651-7.515-15.738-15.515-15.428C158.278,90.52,152.4,97.714,152.831,107.864z M84.528,235.919
	c-7.949-0.048-15.8,7.583-15.909,15.463c-0.112,8.132,7.314,15.661,15.466,15.681c8.573,0.02,15.179-6.27,15.223-14.498
	C99.362,242.698,93.39,235.973,84.528,235.919z M152.975,396.025c-0.046,9.102,6.607,16.24,15.232,16.341
	c8.532,0.1,15.381-7.027,15.451-16.078c0.063-8.229-6.446-14.679-14.891-14.755C159.568,381.452,153.018,387.461,152.975,396.025z
	 M335.497,381.102c-8.641,0.161-15.444,7.114-15.265,15.599c0.17,8.044,7.671,15.614,15.499,15.641
	c7.545,0.026,15.193-8.038,15.186-16.01C350.909,387.8,343.967,380.944,335.497,381.102z M334.613,120.925
	c8.585,0.163,15.701-6.354,16.083-14.729c0.355-7.789-7.283-15.855-15.207-16.06c-8.824-0.228-15.095,5.97-15.269,15.092
	C320.039,114.68,325.609,120.755,334.613,120.925z M251.246,57.443c6.966-0.003,12.246-5.493,12.205-12.691
	c-0.044-7.693-4.708-12.779-11.851-12.924c-7.403-0.15-12.745,5.297-12.696,12.943C238.95,51.882,244.369,57.446,251.246,57.443z
	 M72.994,367.774c6.573,0.438,13.502-6.125,13.529-12.812c0.024-6.169-6.29-12.756-12.597-13.14
	c-5.848-0.356-12.877,6.433-13,12.556C60.793,361.001,66.505,367.341,72.994,367.774z M250.612,444.924
	c-6.284,0.045-12.5,6.379-12.607,12.845c-0.108,6.523,5.889,12.792,12.342,12.9c6.837,0.114,13.17-6.239,13.091-13.133
	C263.366,451.29,256.846,444.879,250.612,444.924z M442.93,147.25c-0.235-6.159-6.871-12.479-13.164-12.537
	c-6.016-0.055-12.899,6.869-12.829,12.905c0.073,6.194,6.866,13.2,12.671,13.069C435.995,160.541,443.161,153.314,442.93,147.25z
	 M442.982,353.629c-0.142-6.791-5.7-11.899-12.885-11.844c-6.815,0.053-12.72,5.925-12.472,12.402
	c0.262,6.861,5.772,12.175,12.599,12.151C438.049,366.311,443.142,361.239,442.982,353.629z M60.859,148.479
	c-0.128,7.394,4.829,12.289,12.391,12.236c7.392-0.051,12.353-5.127,12.17-12.453c-0.184-7.418-4.997-12.122-12.376-12.096
	C65.792,136.191,60.988,141.046,60.859,148.479z M354.924,54.137c-0.111,6.337,4.321,9.32,9.485,9.621
	c5.394,0.314,9.472-2.768,9.72-9.043c0.237-5.99-3.565-10.432-9.169-10.603C359.702,43.951,355.022,48.52,354.924,54.137z
	 M14.917,251.595c-0.185,4.614,5.587,10.89,10.198,10.242c5.356-0.752,9.29-3.9,9.642-9.785c0.326-5.448-4.453-9.971-10.075-9.989
	C19.695,242.047,15.121,246.511,14.917,251.595z M355.666,448.159c-0.124,4.763,5.169,9.906,10.274,9.983
	c4.189,0.063,9.745-5.725,9.466-10.213c-0.367-5.909-3.863-8.919-8.323-9.444C359.754,438.364,355.822,442.138,355.666,448.159z
	 M138.314,44.356c-5.112-0.997-9.85,4.294-9.945,10.061c-0.095,5.788,2.844,9.029,8.448,9.571
	c6.085,0.588,10.352-3.362,10.551-10.562C147.814,48.21,143.563,45.38,138.314,44.356z M488.202,250.84
	c-0.378-5.659-3.593-9.484-9.377-10.243c-5.306-0.696-9.561,4.131-9.845,10.165c-0.316,6.717,4.158,8.484,8.559,9.664
	C483.468,260.541,488.542,255.925,488.202,250.84z M139.434,438.531c-4.58-0.478-11.161,4.917-10.851,9.602
	c0.371,5.603,3.75,9.612,9.446,10.102c5.732,0.492,9.389-2.699,10.192-7.181C148.887,444.143,144.838,439.095,139.434,438.531z"/>
</svg>
