<?xml version="1.0" encoding="utf-8"?>
<!-- Generator: Adobe Illustrator 26.2.1, SVG Export Plug-In . SVG Version: 6.00 Build 0)  -->
<svg version="1.1" id="Layer_1" xmlns="http://www.w3.org/2000/svg" xmlns:xlink="http://www.w3.org/1999/xlink" x="0px" y="0px"
	 viewBox="0 0 500 500" style="enable-background:new 0 0 500 500;" xml:space="preserve">
<style type="text/css">
	.st0{clip-path:url(#SVGID_00000064355053133955331120000001557571123278603142_);}
	.st1{fill:url(#SVGID_00000124123085549785559380000017037052835601045921_);}
	.st2{fill:#FFFFFF;}
	.st3{opacity:0.8;}
	
		.st4{fill:none;stroke:url(#SVGID_00000062156552193582264090000014650617245516981664_);stroke-width:3.4588;stroke-miterlimit:10;}
	
		.st5{fill:none;stroke:url(#SVGID_00000084515329872431536810000002112464913004844223_);stroke-width:3.4588;stroke-miterlimit:10;}
	
		.st6{fill:none;stroke:url(#SVGID_00000050628130967062132520000015874742934136522404_);stroke-width:3.2426;stroke-miterlimit:10;}
	
		.st7{fill:none;stroke:url(#SVGID_00000025417085789098109790000007478322621863382149_);stroke-width:3.0264;stroke-miterlimit:10;}
	
		.st8{fill:none;stroke:url(#SVGID_00000161602294182409372020000018168782454208553094_);stroke-width:2.8103;stroke-miterlimit:10;}
	
		.st9{fill:none;stroke:url(#SVGID_00000164495254909475981890000002234876607804095113_);stroke-width:2.8103;stroke-miterlimit:10;}
</style>
<g>
	<defs>
		<path id="SVGID_1_" d="M250,0L250,0c138.1,0,250,111.9,250,250l0,0c0,138.1-111.9,250-250,250l0,0C111.9,500,0,388.1,0,250l0,0
			C0,111.9,111.9,0,250,0z"/>
	</defs>
	<clipPath id="SVGID_00000021805078271498331990000011831846978605322399_">
		<use xlink:href="#SVGID_1_"  style="overflow:visible;"/>
	</clipPath>
	<g style="clip-path:url(#SVGID_00000021805078271498331990000011831846978605322399_);">
		
			<radialGradient id="SVGID_00000056419081251148079670000011577080834567401397_" cx="2.3554" cy="502.6374" r="3.4014" gradientTransform="matrix(0 82.5756 82.5756 0 -41255.5859 81.7023)" gradientUnits="userSpaceOnUse">
			<stop  offset="0.1667" style="stop-color:#073183"/>
			<stop  offset="1" style="stop-color:#0054F9"/>
		</radialGradient>
		<path style="fill:url(#SVGID_00000056419081251148079670000011577080834567401397_);" d="M250,0L250,0c138.1,0,250,111.9,250,250
			l0,0c0,138.1-111.9,250-250,250l0,0C111.9,500,0,388.1,0,250l0,0C0,111.9,111.9,0,250,0z"/>
		<g>
			<path class="st2" d="M420,172c-1,6.1-2.3,9.1-3.7,12.5l0,0c-1.5,3.7-3.3,7.9-4.9,16.3c-0.6,3.4-0.9,5.8-1.2,8l0,0.1l0,0.1
				c-0.4,3.5-0.7,5.8-2.1,10c-1.1,3.4-3.1,9.1-7.7,15.2c-3.7,4.9-10,13.2-18.3,14.2c-0.7,0-2.2,0.1-2.9-0.2
				c-23.6-12.1-43.9-21-50.9-23c-8.2-2.3-7.1-20.1-6.2-35.8c0.4-7,0.8-13.7,0.5-19.3c-1.1-19.8-4.7-41.5-21.9-52.1
				c-10.3-6.3-23.6-8.2-36.3-8.2c2.4-1.1,5-2.6,7.8-4.3l0.1-0.1c7.5-4.3,16.8-9.7,26-10.7c3-0.3,6-0.6,8.9-1
				c18.6-2.1,34.7-3.9,51.6,1.9c7.7,2.6,23.5,11.4,27.5,19.6c2.9,5.8,7.7,10.3,17.4,19.2c5,4.7,8.3,7.4,10.8,9.4l0.1,0.1
				c3.4,2.8,4.1,3.4,5.1,5.5C422.7,155.8,421.6,162.6,420,172z"/>
			<path class="st2" d="M333.6,253.3c1.4,0.5,1.9,2.1,1.1,3.3c-2.5,3.8-5.3,8.9-8.6,15.1c-1.6,3-3.2,5.9-4.5,8.1
				c-4.6,7.9-4.9,14.5-5.2,19.8c-0.3,5.6-0.6,8.1-3.9,10.3c-2.7,1.8-5.5,2.4-25,5.4c-3.4,0.5-4.9,1.2-6.2,1.8
				c-0.2,0.1-0.4,0.2-0.6,0.3c-1.3,0.6-2.7-0.6-2.6-2.1c0.1-2.7,0.2-6,0.2-10.2v-0.8c0.1-3.8-0.1-6.9-0.2-9.4c-0.3-5-0.3-7.1,1-9.2
				c1.6-2.6,2.9-3.4,5-4.7c2.9-1.8,6.9-4.3,12.8-12.5c3.1-4.3,3.8-6.6,4.3-8.6c0.2-0.8,0.3-1.1,2.7-3c2.6-1.9,10.3-7.8,20.3-6.2
				C326.8,251.2,330.1,252.1,333.6,253.3L333.6,253.3z"/>
			<path class="st2" d="M256.8,343.1c-0.4,0.6-0.9,0.8-1.6,0.8c-2,0.1-3.5-0.4-4.4-1.6c-2-2.4-1.7-7.3-1.3-10.2l8.2-2.2
				C258.3,334.4,258.6,340.7,256.8,343.1z"/>
			<path class="st2" d="M257.4,313.5c-0.1,1.2-0.3,2.5-0.3,4c0,0.5,0,1.1,0,1.6c0,1.3,0.1,3.5-0.1,4.4c-2.6,0.9-4.8,0.9-7.6,0.9
				c0-0.8,0-2.1,0-2.9c0-0.6,0.1-1.3,0.1-1.9c0-0.7,0-1.4,0-2c0-1.6,0-4.2,0.4-4.9c0.8-0.1,1.6-0.3,2.4-0.5c1.7-0.4,3.9-0.8,5.3-0.6
				C257.6,312,257.5,312.8,257.4,313.5z"/>
			<path class="st2" d="M242.2,340.6c-0.4,4.2-1.7,9.4-5.7,10.2c-1.8,0.4-2.6-0.2-3.2-0.7c-2.7-2.5-3.1-9.9-2.7-15.3
				c1.8,0,4.1-0.4,6.9-0.9c1.7-0.3,3.4-0.7,4.7-1C242.4,334.9,242.5,337.7,242.2,340.6z"/>
			<path class="st2" d="M240.3,325.5l-8.9,3.1c0.5-3.5,1.1-8.3,1.3-11.6c0.2-2.3,0.8-3,1-3.1c0.1-0.1,0.2-0.2,0.5-0.2
				c0.1,0,0.1,0,0.2,0l0.2,0l5.6-0.3C240.4,316.1,240.4,321.9,240.3,325.5z"/>
			<path class="st2" d="M225.9,322.7c-0.5,1.3-1.1,5.1-1.5,7.8l-11.2-0.3c0.6-3.5,1.5-7,2.5-9.8c1-2.8,2-4.9,3-5.5
				c1.1-0.7,3.6-0.8,5.1,0.5C226.3,317.5,227,319.9,225.9,322.7z"/>
			<path class="st2" d="M221.8,356.9c-0.9,1.2-1.8,1.8-3,1.9c-1.2,0.1-2.2-0.1-2.9-0.8c-3.5-3.2-3.2-13.8-3.1-18.9
				c4.6-1.1,9.6-2,12-2.1C225.1,341.2,225.2,352.2,221.8,356.9z"/>
			<path class="st2" d="M207.2,329.9c-0.5,1.5-1.1,2.8-1.5,4c-1.3,0.4-5.3,0.1-9.3-0.8l2.8-17.6c4.6-1.2,9.9-1.6,11.2-0.2
				C212,317.1,208.6,326.1,207.2,329.9z"/>
			<path class="st2" d="M202.1,359.6c-2.2,2.7-5.4,3.9-9.9,3.9c-3.1-0.1-4.3-1.2-4.8-2.1c-2.5-4-0.1-13.4,2.4-19.4l15.1,0.9
				c0.2,1.1,0.3,2.3,0.3,3.7C205.4,350.8,204.9,356.2,202.1,359.6z"/>
			<path class="st2" d="M327.2,232c-13.6-3.9-12.4-23.8-11.3-43c0.4-6.8,0.8-13.3,0.5-18.5c-1-18-4.1-37.6-18.6-46.5
				c-15.6-9.5-41.1-7.4-56.8-5.4c0,0,0,0,0,0c0,0,0,0,0,0c-5.8,1.7-11.2,2.9-15.3,2.7c-9.3-0.5-16.5-4.4-22.9-7.8
				c-5-2.7-9.3-5-13.4-5c-0.2,0-0.4,0-0.7,0c-12.2,0.8-17.8,3.8-22.9,8.3c-1.3,1.1-2.8,4.4-8,19.2c-2.6,7.4-3.1,11.5-3.5,15.5
				c-0.4,3.6-0.9,7.3-2.8,12.9c-1.3,3.8-2.3,7.1-3.3,10.3c-2.5,8.5-4.5,15.1-10.5,23.1c-0.7,0.9-1.6,2.3-2.6,3.9
				c-1.4,2.1-3,4.8-5.3,7.9c-1.6,2.2-5.2,10.3-5,12.8c0.3,3.9,1.6,6.4,3,9.2c1.5,2.8,3.1,6,3.4,10.4l0,0.7c0.5,7-0.5,10.5-13.7,22.3
				c-8.5,7.6-14.5,14.9-18.6,20.3c-0.4,0.5,0.1,1.2,0.7,1.1c0.1,0,0.3,0,0.4,0c0.3,0,0.5,0,0.8,0c0.3,0,0.5,0,0.8,0
				c0.3,0,0.5,0,0.8,0.1c3.2,0.4,6.3,1.7,8.6,4.1c0.4,0.4,1,0.5,1.5,0.3c2.2-0.9,4.5-0.8,6.8-0.5c2.7,0.3,5.4,1,7.3,2.7
				c0.7,0.6,1.7,1,2.6,0.8c2.1-0.4,4.3-0.4,6.4,0.4c1.5,0.6,2.8,1.4,3.9,2.5c1,1,2.7,1.2,3.9,0.5c0.5-0.3,1-0.5,1.6-0.7
				c2.9-1,6.1-0.4,8.9,0.6c1.4,0.5,2.8,0.9,4.1,1.8c2.1,1.4,3.4,3.3,4.3,5.5c0.7,1.7,3,2.2,4.4,1.2c1.8-1.3,3.2-1.4,4.7-0.8
				c0.6,0.3,1.1,0.6,1.4,1c1.1,1.2,2.7,2.4,4.3,2.1c4.4-1,9.6-0.3,13.5,1.7c1.4,0.8,2.8,1.9,3.9,3.6c0,0,0,0,0,0c0,0,0,0,0,0
				l0.1-0.8c0.1-0.3,0.3-0.6,0.6-0.7l0.9-0.3c2.2-0.7,13.5-3.9,17.8,0.7c0.2,0.2,0.5,0.2,0.7,0c0.6-0.7,1.1-1,1.4-1.2
				c2.9-1.7,7.7-1.8,11,0.9c0.7,0.5,1.7,0.3,2.2-0.3c0.3-0.4,0.6-0.8,1-1.1c1.1-1,2.6-1.5,4.2-1.4l6.2-0.3c1.6-0.1,6.4-0.4,7.9-0.7
				c0.1,0,0.2,0,0.4-0.1c0.6-0.1,1.4-0.3,2.2-0.4c3-0.7,6.4-1.4,9.2-0.1c2.7,1.2,2.3,4.3,2,7c-0.1,1.1-0.3,2.2-0.3,3.3
				c0,0.5,0,1,0,1.5c0,2.3,0.1,4.5-0.4,6.1c0,0,0,0,0,0c0,0,0,0,0,0l0.3,1.3c0.3,1.3,1.6,2,2.7,1.3c2.1-1.3,4.2-2.9,4.9-3.9
				c0.1-0.1,0.1-0.2,0.1-0.3c0.1-0.3,0.3-0.8,0.5-1.9c0.4-2.3,0.8-7,0.8-16.4c0-0.5,0-0.9,0-1c0.1-3.5-0.1-6.3-0.2-8.8
				c-0.3-5.1-0.5-9.2,2.1-13.3c2.5-4,4.9-5.5,7.2-7c2.7-1.7,5.7-3.6,10.9-10.6c2.5-3.5,2.8-4.9,3.1-6c0.6-2.6,1.4-4.2,5.3-7.1
				c3.2-2.4,12.8-9.7,25.7-7.5c4.3,0.7,11.1,3,17.9,5.7c0,0,0,0,0,0c0,0,0,0,0,0c0.2,0.1,0.5,0.2,0.7,0.3c0.1,0.1,0.2,0.1,0.3,0.2
				c5.9,2.3,11.6,5,15.4,7.1c1.1,0.6,2.4,0.2,3.2-0.7c1.2-1.4,2.4-2.3,3.8-3.1c0.5-0.3,1-0.6,1.4-0.9c1.3-1.1,1.3-3.4-0.2-4.1
				C349.8,238.8,332.8,233.6,327.2,232L327.2,232z M197.4,236.2c-4.2,18.4-32.8,38.7-45.8,38.7h-0.3c-0.2,0-0.4,0-0.7-0.1
				c-0.2,0-0.5-0.1-0.8-0.2c-0.1,0-0.3-0.1-0.4-0.1c-2.4-0.7-5.6-2.6-8.1-5c-1.7-1.7-3-3.6-3.5-5.8c-0.1-0.4-0.2-0.7-0.2-1.1
				c-0.7-3.1-1.6-7.1,1.2-13.5c0.4-0.9,0.7-1.7,1-2.4c0.1-0.2,0.2-0.5,0.3-0.7c0.3-0.7,0.6-1.3,0.8-1.9c0.4-1,0.7-1.8,1-2.5
				c0.1-0.3,0.2-0.5,0.3-0.8c0.8-2.2,0.9-3,1-3.9c0.1-0.7,0.2-1.5,0.5-2.7c0.8-3.5,1.2-6.4,1.6-9c0.7-4.7,1.2-8.7,3.8-12.5
				c0.4-0.6,0.9-1.2,1.4-1.7c0.2-0.2,0.4-0.3,0.6-0.5c0.2-0.2,0.4-0.3,0.6-0.5c0.6-0.4,1.3-0.8,2-1.1c0.2-0.1,0.5-0.2,0.7-0.3
				c0.5-0.2,1-0.3,1.6-0.5c2.3-0.6,5.1-0.7,8.2-0.3c3.5,0.3,6.6,0.9,9.5,1.7c2.4,0.7,4.5,1.4,6.3,2.1c0.2,0.1,0.4,0.1,0.5,0.2
				c0.3,0.1,0.7,0.3,1,0.4c0.5,0.2,0.9,0.4,1.4,0.6c0.6,0.3,1.1,0.5,1.5,0.7l0.4,0.2c2,0.9,3.7,1.9,5.2,3c0.7,0.5,1.4,1.1,2,1.6
				c0.2,0.2,0.4,0.4,0.6,0.6c0.2,0.2,0.4,0.4,0.6,0.6C198.6,225.4,198.3,232.1,197.4,236.2z M210.6,166.3l-0.6,3.3
				c-1.3,7.5-4.2,17.9-15.1,20.5c-10.4,2.6-12.9,3.1-20.3,3.4c-0.2,0-0.3,0-0.5,0c-5.4,0-15.9-3.4-17.7-11.9
				c-1.2-5.5,1.2-9.4,5.2-16c0.7-1.1,1.4-2.2,2.1-3.5c5.3-8.9,7.3-15.3,9-20.4c1.6-5,3-9.2,6.4-12.6c0.8-0.8,1.7-1.6,2.8-2.3
				c0.7-0.5,1.4-0.9,2.1-1.3c1-0.5,2-0.9,3.1-1.3c2.4-0.8,5-1.2,7.6-1.2c5.1,0,10.1,1.5,13.7,4.3c1.6,1.3,3.9,3.9,5.3,11.6
				C214.5,143,213.3,150.2,210.6,166.3z M288,187.7c-3.7,6.4-5.8,9.9-9,12.6c-6.4,5.3-13.9,6.6-20,6.6c-4.4,0-8.2-0.7-10.4-1.1
				c-6.4-1.2-18.2-3.3-22.1-12.6c-0.8-1.8-0.8-3-0.8-4.5c0-1.5,0-3.9-0.7-9.8l0-0.4c-0.3-2.7-0.7-5.7,0.1-9.5l0.1-0.5
				c2.2-11.3,2.8-13.1,3.3-14c1.2-2.2,3.9-3.1,6.1-2c2.2,1.1,3.1,3.7,2,5.9c-0.2,0.6-0.9,3.1-2.6,11.8l-0.1,0.5
				c-0.5,2.5-0.3,4.3,0,6.7l0,0.4c0.7,6.4,0.7,9.3,0.7,10.8c0,0.3,0,0.6,0,0.8c0,0.1,0,0.2,0.1,0.2c0.7,1.6,2.1,2.8,3.8,3.8
				c1.5,0.8,3.1-0.6,2.8-2.3c-1.9-9.8-1.7-21.1,2-28.1c1.2-2.4,3.6-6.3,5.8-10c0,0,0,0,0,0c0,0,0,0,0,0c0.2-0.4,0.4-0.7,0.7-1.1
				c0.2-0.3,0.4-0.6,0.5-0.9c1-1.6,1.9-3.1,2.6-4.3c0.1-0.2,0.2-0.3,0.3-0.5c0.1-0.1,0.1-0.2,0.2-0.3c0.2-0.3,0.3-0.5,0.4-0.7
				c0.1-0.1,0.1-0.2,0.2-0.3c0,0,0-0.1,0.1-0.1c0.1-0.1,0.1-0.2,0.2-0.3c0.1-0.2,0.2-0.3,0.3-0.4c0,0,0,0,0,0c0,0,0,0,0-0.1
				c0,0,0,0,0,0c0.5-0.8,1.1-1.5,1.6-2.3c1.2-1.6-0.2-3.7-2-2.9c-3.2,1.4-5.3,3.1-5.8,3.4c-2,1.6-4.8,1.2-6.4-0.7
				c-1.6-2-1.2-4.8,0.7-6.4c2.3-1.8,14.7-10.9,29.5-6.6c10.7,3,16.3,11.2,18.4,14.3c1.7,2.5,6.9,10.1,6.7,20.6
				C297.5,171.4,294.1,177.2,288,187.7L288,187.7z"/>
			<path class="st2" d="M191.7,132.5c-0.8,1.8-1.7,4.1-2.6,6.6c-2.3,5.7-4.9,12.2-6.1,14.6c-2.1,4.1-3.8,6.6-5.1,8.7
				c-1.5,2.4-2.7,4.3-3.7,6.9c-1.6,4.6-1.9,9.7-0.8,15.3c-2.8-0.3-7.5-2.3-8-4.7c-0.4-1.8,0.7-3.8,4.1-9.4c0.7-1.1,1.4-2.3,2.2-3.6
				c5.8-9.7,8.1-17,9.8-22.2c1.9-5.8,2.7-8.2,5.7-10.2C188.4,133.4,190,132.8,191.7,132.5z"/>
			<path class="st2" d="M186.1,336.4c-3.1,6.4-7.1,12.4-9.5,15.3c-2-5.5-5.5-18-4.6-28.1c0-0.3,0.1-0.6,0.1-0.9
				c0.4-3.1,1.2-6,2.7-8.3c1-1.5,3.7-2.4,6.7-2.4c2.3,0,4.7,0.5,6.8,1.6h0c1.1,0.6,2.7,1.8,2.8,5.4
				C191.3,323.9,189,330.4,186.1,336.4z"/>
			<path class="st2" d="M358.5,264.4c0.2,0.2,0.4,0.5,0.3,0.8c-0.9,1.9-2.1,3.2-3.4,4.8c-1.6,1.9-3.4,4.1-5.2,7.5
				c-2.4,4.8-3.2,9.2-3.6,20.4c-0.5,13.2,0,20.5,0.4,25.9c0.4,5.2,0.6,8.3-0.3,13.4c-1.9,10.2-6.2,17-11.8,25.6
				c-6.9,10.7-14.1,21.8-26,25.4c-1.1,0.3-1.1,0.3-4.2,0.4c-2.7,0-7.2,0-15.7,0.3c-15.5,0.6-23.3,0.8-30,2.1
				c-7,1.4-10.6,2.8-14.2,4.3c-3.2,1.3-6.2,2.5-12,3.7c-3.4,0.7-8.6,1.5-26.1,1.5c-18.2,0-29.2,0-43.8-1.6c-19.9-2.3-30-3.4-36.6-7
				c-15.7-8.4-22.3-23.4-33.3-48.3c0,0,0-0.1-0.1-0.1c-0.1-0.3,0.2-0.6,0.5-0.4c0.5,0.3,1.1,0.6,1.6,0.8c0.5,0.2,1,0.3,1.5,0.4
				c1,0.2,2,0.2,3.1,0c0.2,0,0.4-0.1,0.5-0.1c0,0,0.1,0,0.1,0c0.2-0.1,0.4,0,0.5,0.2c0.7,1.9,1.8,3.6,3.7,4.6c1.9,1,4,1,6.1,1
				c2.1,0,4.3-0.2,6.4-0.4c1.1-0.1,2.3,0.4,2.7,1.5c1.9,4.7,4.4,8.1,8,8.6c0.2,0,0.5,0.1,0.8,0.1c0.7,0,1.7-0.2,3.2-1
				c1.7-1,4.4-0.4,5.7,1.2c0.8,0.9,1.6,1.6,2.4,2.2c3.7,3.8,12.8,5.7,20.4,5.7c4.2,0,7.9-0.5,10.1-1.6c3.1-1.5,3.1-3.9,3-4.8
				c-0.3-1.7-0.5-3.4-0.7-5c0-0.2,0.3-0.3,0.4-0.1c0.5,1,1,2.2,2.5,2.5c0.2,0,0.3,0.1,0.5,0.1c2.1,0,5.4,0.7,6,2.7
				c0.3,1,0.7,2,1.3,2.9c1.3,2,3.9,4.4,9,4.5h0.4c5.9,0,10.5-1.9,13.5-5.7c0.2-0.2,0.4-0.5,0.6-0.8c1.1-1.6,4.4-1.6,5.8-0.3
				c1.6,1.5,3.6,2.2,5.8,2.2c0.4,0,0.7,0,1.1-0.1c2.6-0.3,4.9-1.7,6.6-4.1c1.1-1.6,1.9-3.5,2.5-5.6c0.2-0.6,1-0.8,1.5-0.4
				c1.1,1,2.9,2.1,5.6,2.1c0.6,0,1.3-0.1,2.1-0.2c5.1-1,7.7-5.3,8.9-10.1c0-0.2,0.3-0.2,0.4-0.1c1.3,1.6,3.7,3.4,7.9,3.4
				c0.2,0,0.4,0,0.7,0c2.2-0.1,4.1-1.1,5.4-2.8c1.6-2.1,2.2-5.1,2.4-8.1c0.1-1.1,0.8-2.1,1.8-2.6c4.3-1.9,9.5-5.7,11-8.4
				c0,0,0,0,0-0.1c0.5-0.8,1.2-1.5,2.1-1.7c3.2-0.6,4.7-1.3,6-1.8c1.1-0.5,2-0.9,4.5-1.3c19.7-3,23.6-3.7,27.8-6.5
				c6.4-4.3,6.7-10.1,7-15.8c0.3-4.8,0.6-10.2,4.3-16.6c1.4-2.3,2.9-5.2,4.6-8.3c2.8-5.3,6.8-12.6,9.7-16.6c0.7-0.9,1.9-1.2,2.9-0.8
				C351.6,260.6,357.2,263.4,358.5,264.4L358.5,264.4z"/>
			<path class="st2" d="M166.9,323c-0.8,6.8-1.3,15.9-0.2,27.8c0.3,3.3,0.7,6.8,1.3,10.3c-0.9,0.5-3.7,1.2-8.7,1.1
				c-7.1-0.1-14.1-1.9-16.2-4.2l-0.3-0.3c-1.7-1.4-2.9-2.3-3-4.8c-0.1-0.8,0.3-1.7,1.1-2.9c0.4-0.7,1-1.4,1.7-2.4
				c1.2-1.6,2.7-3.6,4.2-6.2c4.5-7.5,6.2-9.9,8.3-12.8c0.2-0.2,0.3-0.5,0.5-0.7c1.3-1.7,2.8-3.8,5-7.2c1.7-2.5,3.1-4.5,4.2-6.1
				c1.9-2.6,3.2-4,4-4.8c-0.1,1.2-0.4,2.8-0.6,4.3C167.8,316.7,167.3,319.6,166.9,323L166.9,323z"/>
			<path class="st2" d="M163.7,217c0,0.1-0.1,0.1-0.1,0.2c-0.9,1.3-2,2.7-3.3,5.6c-3.4,7.6-3.5,11.8-3.5,15.3c0,1.8-0.1,3.2-0.5,4.9
				c-0.3,1.1-0.9,2.4-1.5,3.8c-2,4.6-4.6,10.6-3.5,18.7c-1.6-0.8-4.1-2.6-4.5-3.5c-0.1-0.4-0.2-0.9-0.3-1.3
				c-0.6-2.5-0.9-4.2,0.7-7.9c4.2-9.7,4.7-12.1,5.1-14.7c0.1-0.6,0.1-1,0.3-1.8c0.9-3.8,1.4-7.1,1.7-9.8c0.6-4,1-6.7,2.3-8.7
				c0.5-0.7,1.9-1.1,3.9-1.1c0.8,0,1.7,0.1,2.7,0.2l0.2,0C163.5,217,163.6,217,163.7,217z"/>
			<path class="st2" d="M158.1,313.1c-0.2-2.3-0.6-4.7-1.5-6.9c-0.1-0.1-0.3-0.7-0.4-0.8c-0.2-0.3-0.3-0.5-0.5-0.8c0,0,0,0,0,0
				c0,0,0,0,0,0c-0.1-0.1-0.2-0.2-0.3-0.3c-0.1-0.1-0.3-0.3-0.4-0.4c0,0-0.1-0.1-0.1-0.1c-0.1-0.1-0.2-0.1-0.3-0.2
				c-0.2-0.1-0.3-0.2-0.5-0.3c-0.1,0-0.2-0.1-0.3-0.1c0,0,0,0,0,0c0,0-0.1,0-0.1,0c0,0,0,0-0.1,0c0,0,0,0-0.1,0s0,0,0,0
				c-0.1,0-0.1,0-0.1,0c-1.4-0.5-2.7-1-4.2-1.3c0,0,0,0-0.1,0h0c-0.2,0-0.5,0-0.5,0c-0.2,0-0.4,0-0.6,0c-0.1,0-0.2,0-0.3,0h-0.1
				c0,0-0.1,0-0.1,0c0,0,0,0-0.1,0c0,0,0,0,0,0c-0.3,0.1-0.7,0.2-1,0.3c-0.1,0.1-0.3,0.1-0.4,0.2c-0.1,0.1-0.2,0.2-0.4,0.2
				c0,0,0,0,0,0l0,0c-0.2,0.2-0.3,0.3-0.5,0.5c-0.1,0.1-0.2,0.2-0.3,0.4c0,0,0,0,0,0c0,0,0,0,0,0c0,0,0,0,0,0c0,0,0,0,0,0
				c0,0.1-0.1,0.1-0.1,0.2c-0.5,0.8-1.1,1.7-1.7,2.5c-1.3,2-2.7,4-4,6c-1.2,1.8-2.5,3.6-3.7,5.4c-0.7,1-1.4,2-2,3
				c-0.1,0.2-0.2,0.3-0.3,0.5c0.8,0.2,1.6,0.3,2.4,0.5c1.8,0.3,3.6,0.7,5.5,0.9c3.8,0.5,7.7,0.8,11.6,0.6c0.2,0,0.4,0,0.5,0
				c0.9-1.3,2-2.9,3.4-5c0.8-1.2,1.5-2.3,2.2-3.3C158.4,314.3,158.2,313.8,158.1,313.1L158.1,313.1z"/>
			<path class="st2" d="M144.5,328.9c-0.3,2.9-3.6,10.6-8.8,17.8c-4.3,6.1-6.9,7.5-7.4,7.6c-2.1-0.3-4.1-5.4-5.7-10.5
				c-0.7-2.1-1.2-4.1-1.7-5.9c-1.1-3.9-1.3-9.1-1.1-12.3c4.3,2.4,12,3.1,22.6,3.1h0C143.1,328.8,143.8,328.9,144.5,328.9z"/>
			<path class="st2" d="M136.9,304.7L136.9,304.7c-0.1,0.1-0.1,0.2-0.1,0.2c-1.8,2.7-3.7,5.4-5.5,8.1c-1,1.4-1.9,2.8-2.9,4.2
				c-0.5,0.8-1.2,1.6-1.8,2.5c-1.5-0.4-3-0.7-4.5-1.1c-1.2-0.4-2.4-0.7-3.6-1.2c-0.2-0.1-0.5-0.2-0.7-0.3c-0.2-0.4-0.5-0.8-0.8-1
				c0,0,0,0,0,0c0.4-0.9,0.9-1.8,1.3-2.7c0.8-1.6,1.7-3.2,2.6-4.8c1.6-2.8,3.6-5.7,6.4-7.5c0.1-0.1,0.3-0.2,0.4-0.3
				c1.1-0.7,2.1-1.1,3.5-1.3c0.2,0,1.1,0,1.5,0c0.1,0,0.1,0,0.2,0h0c0,0,0.1,0,0.2,0.1c0.3,0.1,0.6,0.2,1,0.3
				c0.1,0.1,0.2,0.1,0.3,0.2c0.3,0.2,0.6,0.3,0.8,0.5c-0.4-0.3,0.6,0.7,0.6,0.6C136.4,302.2,136.7,303.2,136.9,304.7z"/>
			<path class="st2" d="M122.3,297c-3.4,2.8-5.9,6.5-7.9,10.4c-1.2,2.2-2.2,4.3-3.3,6.5c-0.1,0.2-0.2,0.4-0.3,0.7
				c-1-0.2-2.1-0.5-3.1-0.8c-1.1-0.3-2.1-0.7-3.2-1.2c-0.5-0.2-0.9-0.5-1.4-0.7c1-1.9,2.2-3.8,3.4-5.6c1.6-2.5,3.4-5,5.3-7.4
				c0.7-0.9,1.5-1.9,2.5-2.5c1-0.6,2.3-0.5,3.5-0.4c1.3,0.1,2.6,0.1,3.8,0.6C121.9,296.7,122.2,296.9,122.3,297z"/>
			<path class="st2" d="M116.9,342.7c-0.2,0.1-0.3,0.3-0.4,0.5c-0.1,0-0.2,0.1-0.3,0.1c-0.8,0.1-1.7,0.1-2.5,0.2
				c-1.6,0.1-3.2,0.2-4.8,0.1c-0.9,0-1.7-0.2-2.1-0.7c-0.6-0.9-0.8-2.4-1-3.6c-1-5.8-1.2-11.9-0.4-17.7c3,1.1,6.2,1.9,9.4,2.5
				c-0.7,5.3,0.5,13.1,1.2,15.5C116.3,340.4,116.6,341.6,116.9,342.7z"/>
			<path class="st2" d="M107.2,295.1c-2.7,3.3-5.1,6.8-7.3,10.4c-0.9,1.5-1.9,3-2.6,4.6c-1.1-0.3-2-0.7-3-1.4
				c-0.8-0.5-1.5-1-2.3-1.6c-0.2-0.2-0.7-0.6-1-0.8c-0.1-0.1-0.1-0.1-0.2-0.2c0.2-0.7,0.7-1.5,0.9-2c0.6-1.2,1.2-2.4,1.8-3.6
				c1.2-2.2,2.6-4.4,4.2-6.4c0.6-0.7,1.1-1.7,2.1-1.9c0.8-0.2,1.9-0.1,2.6,0C104.3,292.7,105.9,293.6,107.2,295.1L107.2,295.1z"/>
			<path class="st2" d="M86.5,309.5c0-0.2,0.3-0.2,0.4,0c0.7,1,1.7,1.8,2.7,2.6c0.5,0.4,0.9,0.7,1.4,1c0.1,0.1,0.1,0.1,0.1,0.2
				c-1.1,4.5-1.8,9.2-1.9,13.9c0,0.3-0.4,0.3-0.5,0.1C87.4,321.7,85.6,312.8,86.5,309.5z"/>
			<path class="st2" d="M99.6,319.4c-0.5,4-0.8,8-0.6,12.1c0.1,2.2,0.3,4.4,0.6,6.6c0,0,0,0,0,0v0c-0.5-0.1-1-0.1-1.5-0.1
				c0.1,0-0.2,0-0.3,0h0c-0.1,0-0.2,0-0.2,0c-0.6-0.1-0.6-0.2-1.1-0.5c-0.6-0.4-1.2-1.1-1.6-1.8c-1.1-1.9-1.3-4.1-1.4-6.3
				c-0.2-4.2,0.2-8.3,1-12.4c0.7,0.3,1.2,0.5,2.2,0.9C97.7,318.6,98.7,319,99.6,319.4L99.6,319.4L99.6,319.4z"/>
		</g>
		<g class="st3">
			
				<linearGradient id="SVGID_00000109018955508812644630000006519578294772030597_" gradientUnits="userSpaceOnUse" x1="-35.2028" y1="557.0478" x2="537.7429" y2="-44.289" gradientTransform="matrix(1 0 0 -1 0 501)">
				<stop  offset="0.2057" style="stop-color:#89D0FF"/>
				<stop  offset="0.3984" style="stop-color:#EBBF9A"/>
				<stop  offset="0.6015" style="stop-color:#EB8280"/>
				<stop  offset="0.8411" style="stop-color:#A281FF"/>
			</linearGradient>
			
				<path style="fill:none;stroke:url(#SVGID_00000109018955508812644630000006519578294772030597_);stroke-width:3.4588;stroke-miterlimit:10;" d="
				M205.7,529.4c-18.3,0-35.7-1.2-50.2-2.3l-4-0.3l-4-0.6c-1.8-0.2-4.1-0.5-6.4-0.8c-14-1.5-40.1-4.4-68.9-17.9l-4.5-2.1l-4.2-2.3
				c-55.3-31-76-77.7-87.2-102.8c-0.7-1.6-1.6-3.5-2.4-5.3c-5.6-11.5-9.2-21.9-12.2-31.4l-0.7-2.1l-0.6-2.1
				c-8-28.5-10.1-53.2-6.4-77.5c3.7-24.5,12.8-46.7,28.5-70l8.2-13.3c1.7-2.7,2.8-5.7,3.5-8.8c6.2-30.8,20.3-52.7,27.3-63.1
				c1.9-12.6,5.1-25,9.4-37.1l0.6-1.8l0.7-1.8c0.1-0.3,0.3-0.8,0.5-1.6C35.9,75.1,43.3,53.1,62,30l7-8.5l7.2-6.5
				C94.6-1.7,116.5-14,140.3-21.2c13.3-4,27-6.4,40.9-7.2l1.3-0.1l2-0.1c2.4-0.1,4.8-0.2,7.1-0.2c8.6,0,17.3,0.7,25.8,2.2
				c5.3,0.9,10.8,0.3,15.8-1.8c14.8-6.2,30.3-10.3,46.2-12.4c1.3-0.2,2.5-0.3,3.4-0.5c2.5-0.3,6.5-0.8,11.3-1.2
				c8.4-0.8,21.2-1.8,35.2-1.8c27.2,0,50.6,3.5,71.6,10.8l1.8,0.6l1.7,0.7c46.3,17.5,69.8,41.9,86.8,63.5l0.8,1l2.3,2.1
				c15.3,12,28.3,26.6,38.4,43.2l3.2,5.2l2.7,5.4c22.6,46.2,15.4,88.8,12.7,104.9L551,194c-1.9,11.8-5,23.4-9.3,34.6
				c-1.5,10.8-4.1,21.5-7.6,31.8c-6,18.4-14.9,35.7-26.3,51.4c-6.6,9.3-14,17.9-22.1,25.8c-2.9,2.8-4.8,6.5-5.3,10.4
				c-0.4,2.4-0.8,4.9-1.2,7.3c-6.6,35.6-22.2,60.3-28.5,70.2l-19.2,27.6c-23.1,28.8-50.6,47.8-83.8,58l-8,2.5l-8.7,1.5
				c-9.9,1.8-20,2.6-30.1,2.6c-1.4,0-2.8,0-4.3,0h-0.4l-1.7,0.1l-1.8,0.1h-0.1c-3.8,0.1-7.7,0.8-11.3,1.9
				C259.7,526.3,235.4,529.4,205.7,529.4L205.7,529.4z"/>
			
				<linearGradient id="SVGID_00000150797659269567558940000009251732671340425861_" gradientUnits="userSpaceOnUse" x1="-12.8301" y1="531.3049" x2="515.3585" y2="-25.3267" gradientTransform="matrix(1 0 0 -1 0 501)">
				<stop  offset="0.2057" style="stop-color:#89D0FF"/>
				<stop  offset="0.3984" style="stop-color:#EBBF9A"/>
				<stop  offset="0.6015" style="stop-color:#EB80DA"/>
				<stop  offset="0.8411" style="stop-color:#A281FF"/>
			</linearGradient>
			
				<path style="fill:none;stroke:url(#SVGID_00000150797659269567558940000009251732671340425861_);stroke-width:3.4588;stroke-miterlimit:10;" d="
				M205.7,510.4c-17.5,0-34.4-1.1-48.5-2.2l-3.4-0.3l-3.4-0.5c-2.1-0.3-4.6-0.6-7.1-0.8c-13.6-1.5-36.4-4-61.8-15.9l-3.7-1.8
				l-3.5-1.9c-48.8-27.4-66.9-68-77.7-92.3C-4,393-5,390.9-5.9,389c-5-10.3-8.3-19.8-11.1-28.6l-0.6-1.8l-0.5-1.7
				c-7.1-25.4-9-47-5.8-68.2c3.2-21.1,11.2-40.7,25.2-61.2l10.5-17.1c1.8-3,3.1-6.4,3.7-9.9c5.2-29,18.9-49.6,25.1-59l0.8-1.2
				l0.3-0.5c0.1-0.3,0.3-0.6,0.4-0.9c0.4-1.2,0.8-2.4,1.1-3.6c1.6-11.9,4.5-23.6,8.6-34.9l0.6-1.5l0.6-1.5c0.2-0.5,0.4-1,0.9-2.6
				c3-8.9,9.1-27.5,25.3-47.4l5.9-7.1l6-5.4c16-14.5,35-25.2,55.6-31.4c11.7-3.5,23.8-5.6,36-6.3l1.1-0.1l1.7-0.1
				c2-0.1,4.1-0.1,6.1-0.1c8.8,0,17.5-2.5,26.1-0.8c6.6,1.4,13.5,0.6,19.7-2.1c11.6-5.1,27.1-7.1,44.9-9.3c1.3-0.2,2.4-0.3,3.2-0.4
				c2.3-0.3,6.1-0.7,10.6-1.2c7.9-0.8,20-1.7,33-1.7c24.7,0,45.7,3.1,64.3,9.5l1.5,0.5l1.5,0.6c41,15.5,61.3,36.2,77.1,56.3
				c0.9,1.1,1.8,2.3,2.1,2.7l0.4,0.3l3,2.7l0.4,0.4c13.6,10.4,25.2,23.3,34.1,38l2.6,4.3l2.2,4.5c19.5,39.7,13.4,75.9,10.8,91.3
				l-0.1,0.8c-1.8,11.2-4.9,22.2-9,32.8c-1.3,10.3-3.6,20.4-7,30.3c-5.3,16.3-13.1,31.6-23.2,45.4c-6.8,9.7-14.7,18.6-23.5,26.5
				c-4.1,3.7-6.7,8.7-7.2,14.2c-0.4,4-1,7.9-1.7,11.8c-5.9,31.4-19.5,53.1-25.8,62.9l-15.6,22.6c-20.7,26.6-45.2,43.9-74.8,53.1
				l-6.7,2.1l-7.3,1.3c-8.7,1.5-17.5,2.3-26.3,2.3c-1.3,0-2.6,0-4,0h-0.4h-0.8c0,0-0.3,0-0.8,0l-1.5,0.1l-1.5,0.1l-3.1,0.1
				c-4.1,0.1-8.1,0.8-12,2.1C256.8,507.5,234,510.4,205.7,510.4L205.7,510.4z"/>
			
				<linearGradient id="SVGID_00000137134468670531184260000012988555757394841739_" gradientUnits="userSpaceOnUse" x1="9.6398" y1="508.9715" x2="493.0666" y2="-2.9447" gradientTransform="matrix(1 0 0 -1 0 501)">
				<stop  offset="0.2057" style="stop-color:#89D0FF"/>
				<stop  offset="0.3984" style="stop-color:#EBBF9A"/>
				<stop  offset="0.6015" style="stop-color:#EB8280"/>
				<stop  offset="0.8411" style="stop-color:#A281FF"/>
			</linearGradient>
			
				<path style="fill:none;stroke:url(#SVGID_00000137134468670531184260000012988555757394841739_);stroke-width:3.2426;stroke-miterlimit:10;" d="
				M205.7,488.1c-16.8,0-33.1-1.1-46.8-2.2l-2.7-0.2l-2.7-0.4c-2.4-0.3-5.1-0.6-7.8-0.9c-13-1.4-32.7-3.6-54.7-13.9l-3-1.4l-2.8-1.6
				c-42.3-23.7-57.9-58.7-68.2-81.9c-0.9-2-1.9-4.2-2.8-6.3c-4.5-9.1-7.5-17.8-10-25.8l-0.4-1.4l-0.4-1.4
				c-6.3-22.2-7.9-40.9-5.2-58.8c2.7-18.1,9.9-35,22.4-53.2l1.5-2.2l1.6-2.1c1-1.3,2-2.6,3-3.8l6.3-11.5c2.1-3.8,3.5-7.9,4.1-12.1
				c4-25.9,16.5-44.6,22.2-53.2l0,0c0.3-0.5,0.8-1.1,1-1.5l1.2-2c0.5-1.1,1.1-2.4,1.7-3.9c0.6-1.7,1.2-3.9,2-6.1
				c1.4-11,4-21.9,7.8-32.3l0.4-1.2l0.5-1.2c0.4-1,0.7-1.9,1.3-3.7c2.8-8.3,7.9-23.6,21.4-40.4l4.7-5.7l4.7-4.3
				c13.5-12.3,29.6-21.4,47.1-26.6c10.1-3,20.6-4.8,31.2-5.4l0.9-0.1l1.4-0.1c1.7-0.1,3.4-0.1,5-0.1c9.1,0,18.1,1.1,26.9,3.4
				c7.6,1.9,15.7,1.1,22.7-2.4c11.3-5.5,26.3-11.3,44-13.4c1.2-0.2,2.2-0.3,3.1-0.4c2.2-0.3,5.7-0.7,9.9-1.1
				c7.4-0.7,18.8-1.6,30.9-1.6c22.2,0,40.8,2.7,57,8.3l1.2,0.4l1.2,0.4c37.7,14.2,54.5,32.9,67.4,49.2c2.8,3.6,3.3,4.2,5.2,5.9
				l2.4,2.1l0.9,1c6.2,4.8,18.9,14.7,30,33l2.1,3.5l1.8,3.6c16.3,33.3,11.2,63.3,8.8,77.8l-0.1,0.8c-1.7,10.6-4.7,20.9-8.8,30.9
				l-0.1,0.9c-1.1,9.5-3.2,18.8-6.3,27.9c-4.6,14.2-11.4,27.5-20.2,39.5c-7.3,10.5-16.2,19.9-26.2,27.9c-2.4,1.9-4.3,4.3-5.7,7
				c-1.4,2.7-2.2,5.7-2.3,8.7c-0.3,6-1,11.9-2.1,17.8c-5.1,27.2-17,46.1-23,55.5l-12.1,17.8c-18.2,24.3-39.7,40-65.8,48l-5.4,1.7
				l-5.8,1c-7.4,1.3-14.9,2-22.4,1.9c-1.2,0-2.4,0-3.6,0H297h-1.3c-0.2,0-0.9,0-2.2,0.1l-1.2,0.1l-1.2,0l-6.2,0.2
				c-4.4,0.1-8.7,0.9-12.8,2.3C253.9,485.2,232.6,488.1,205.7,488.1L205.7,488.1z"/>
			
				<linearGradient id="SVGID_00000181793926377737558930000018127170588820921259_" gradientUnits="userSpaceOnUse" x1="32.0972" y1="486.5678" x2="470.6625" y2="19.4992" gradientTransform="matrix(1 0 0 -1 0 501)">
				<stop  offset="0.2057" style="stop-color:#89D0FF"/>
				<stop  offset="0.3984" style="stop-color:#EBBF9A"/>
				<stop  offset="0.6015" style="stop-color:#EB80E7"/>
				<stop  offset="0.8411" style="stop-color:#A281FF"/>
			</linearGradient>
			
				<path style="fill:none;stroke:url(#SVGID_00000181793926377737558930000018127170588820921259_);stroke-width:3.0264;stroke-miterlimit:10;" d="
				M205.7,465.7c-16,0-31.8-1.1-45.1-2.1l-2-0.2l-2-0.3c-2.7-0.4-5.6-0.7-8.4-1c-12.2-1.3-29-3.1-47.6-11.9l-2.2-1.1l-2.1-1.2
				c-35.8-20.1-49-49.8-58.7-71.5c-1-2.2-2-4.6-3.1-6.8c-4.1-8.2-6.7-16.1-8.9-22.9l-0.3-1.1l-0.3-1c-10.5-37.3-6.5-63.4,14.1-93.2
				l1.1-1.6l1.2-1.6c1.4-1.7,2.6-3.4,3.9-5c1.9-2.5,3.8-5,5.9-7.6c1.3-1.6,2.3-3.4,3.1-5.4l2.4-6c1-2.6,1.6-5.3,1.9-8
				c2.1-23.9,13.7-41.3,19.4-50l0,0c0.4-0.6,1.1-1.6,1.3-1.9l1.3-2.2l0.4-0.6c0.7-1.4,2.1-4.5,3.4-7.7c0.7-2.2,1.7-5.6,2.7-8.6
				c0-0.1,0-0.2,0-0.4c1.1-10,3.4-19.9,6.9-29.3l0.3-0.9l0.4-0.9c0.6-1.6,1.1-2.9,1.7-4.8c2.5-7.4,6.6-19.8,17.6-33.3l3.5-4.3
				l3.5-3.2c26-23.6,55.1-25.7,64.9-26.3l0.7-0.1l1-0.1c1.3-0.1,2.6-0.1,3.9-0.1c11.6,0,23,2.4,33.6,6.9c1.9,0.8,3.9,1.1,6,1
				c2-0.1,4-0.6,5.8-1.6h0.1c9.9-5.7,28-16.1,51.1-18.9c1.1-0.2,2.1-0.3,2.9-0.4c2-0.3,5.3-0.6,9.3-1c6.9-0.7,17.5-1.4,28.8-1.4
				c19.6,0,35.9,2.3,49.7,7.1l0.9,0.3l0.9,0.3c32.3,12.2,46.2,27.5,57.7,42.1c3.1,3.9,4.5,5.7,7.9,8.8l1.8,1.6l1.4,1.5l1.1,0.9
				c5.5,4.2,15.6,12.1,24.7,27l1.6,2.6l1.3,2.7c13.1,26.8,9,51.1,6.8,64.2l-0.1,0.8c-1.6,9.5-4.3,18.8-8.1,27.6l-0.3,0.8
				c0,0.2-0.1,0.4-0.1,0.8c-0.2,0.9-0.3,1.6-0.4,2.5l-0.1,1c-0.9,8-2.7,15.9-5.3,23.5c-3.9,12-9.7,23.4-17.2,33.6
				c-7.4,10.5-15.6,19-24.9,25.7c-4.1,3-7.4,6.9-9.7,11.3c-2.3,4.5-3.6,9.4-3.6,14.5c-0.1,6.3-0.7,12.6-1.8,18.8
				c-4.3,23.1-14.1,38.7-20.3,48.2l-8.8,13.1c-15.7,21.9-34.2,35.9-56.5,42.7l-1.2,0.4c-1.9,0.6-3.8,1.1-5.8,1.4l-1.4,0.2
				c-6.1,1.1-12.4,1.6-18.6,1.6c-1.1,0-2.1,0-3.3,0h-0.2c-0.5,0-1.1,0-1.7,0c-0.4,0-1.6,0-3.7,0.1l-0.9,0.1l-0.9,0
				c-3,0.1-6.7,0.2-10,0.4c-4.5,0.2-9,1.1-13.3,2.6C250.8,463,231.2,465.7,205.7,465.7L205.7,465.7z"/>
			<g>
				
					<linearGradient id="SVGID_00000160874720994683791480000001517517738893599617_" gradientUnits="userSpaceOnUse" x1="54.5122" y1="464.2053" x2="448.2976" y2="42.024" gradientTransform="matrix(1 0 0 -1 0 501)">
					<stop  offset="0.2057" style="stop-color:#89D0FF"/>
					<stop  offset="0.3984" style="stop-color:#EBBF9A"/>
					<stop  offset="0.6015" style="stop-color:#EB80D3"/>
					<stop  offset="0.8411" style="stop-color:#A281FF"/>
				</linearGradient>
				
					<path style="fill:none;stroke:url(#SVGID_00000160874720994683791480000001517517738893599617_);stroke-width:2.8103;stroke-miterlimit:10;" d="
					M205.7,443.4c-15.3,0-30.5-1-43.3-2l-1.3-0.1l-1.3-0.2c-3.1-0.4-6.1-0.8-9.1-1.1c-11.2-1.2-25.2-2.7-40.5-9.9l-1.5-0.7l-1.4-0.8
					c-29.4-16.5-40.3-41.2-49.2-61.1c-1.1-2.4-2.2-5-3.4-7.4c-3.5-6.9-5.8-14-7.7-20l-0.2-0.7l-0.2-0.7
					c-8.6-30.7-5.8-50.2,10.9-74.4l0.7-1.1l0.8-1c1.5-1.9,2.8-3.6,4.1-5.3c4.4-5.7,8.6-11.2,14.8-17.9c1.4-1.5,2.2-3.4,2.3-5.4
					l0.5-7.2l-0.2-2.4l0.1-2.5c0.7-19.8,10.6-34.7,15.9-42.8c0.6-0.9,1.3-1.9,1.6-2.5l0.9-1.4l0.8-1.1c1-1.6,3.6-7.2,5.6-12.5
					c0.7-2.2,2-6.5,3.2-9.9c0.3-1.1,0.4-1.3,0.7-3.7c0.9-8.4,2.8-16.6,5.7-24.5l0.2-0.6l0.2-0.6c0.8-2.1,1.4-3.8,2.1-5.8
					c2.1-6.3,5.3-15.9,13.7-26.3l2.4-2.8l2.3-2.1c18.2-16.6,38.1-19.7,51.5-20.6l0.5,0h0.7c1,0,1.9-0.1,2.9-0.1
					c11.4,0,25.1,5.5,32.3,8.8c1.7,0.8,3.6,1.2,5.5,1.3c1.9,0.1,3.8-0.2,5.5-0.9c4.5-1.6,8.8-3.5,13.1-5.7
					c9.1-5.3,24.3-14.1,43.2-16.3c1-0.2,2-0.3,2.7-0.4c1.9-0.2,4.9-0.6,8.6-0.9c6.4-0.6,16.3-1.3,26.7-1.3c17.1,0,31,1.9,42.4,5.9
					l0.6,0.2l0.6,0.2c27,10.2,37.7,21.9,48,35c3.4,4.2,5.7,7.3,10.6,11.7l1.2,1.1l1.1,1.1c1,1,2.1,1.9,3.2,2.7
					c4.6,3.6,12.4,9.6,19.3,20.9l1.1,1.7l0.9,1.8c10,20.3,6.8,39.3,4.9,50.7l-0.1,0.8c-1.3,7.8-3.5,15.5-6.6,22.7v0.1
					c-0.9,1.9-1.5,3.9-1.8,5.9c-0.3,1.4-0.4,2.6-0.6,3.9l-0.1,1c-0.7,6.5-2.1,13-4.3,19.2c-3.2,9.9-8,19.3-14.1,27.7
					c-9.1,13-19.6,22.1-32.3,27.9c-3.1,1.4-5.7,3.6-7.6,6.4c-1.9,2.8-3,6.1-3.1,9.5c-0.1,1.4-0.1,2.5,0,3.2
					c0.6,9.8,1.3,20.8-0.8,32.3c-3.5,18.9-11.5,31.6-17.5,40.9c0,0-27.6,38.4-52.6,46l-2.7,0.8l-2.9,0.5c-4.9,0.9-9.8,1.3-14.8,1.3
					c-0.9,0-1.9,0-2.9,0h-0.1c-0.7,0-1.4,0-2.2,0c-1,0-2.6,0-5.1,0.2l-0.6,0h-0.6c-9.6,0.3-18.7,0.7-21.2,1.2
					c-1.3,0.2-2.7,0.6-3.9,1.1C250,440.5,231.4,443.4,205.7,443.4L205.7,443.4z"/>
				
					<linearGradient id="SVGID_00000090265253997195217690000017985632856552558759_" gradientUnits="userSpaceOnUse" x1="76.9982" y1="441.915" x2="425.9758" y2="64.449" gradientTransform="matrix(1 0 0 -1 0 501)">
					<stop  offset="0.2057" style="stop-color:#89D0FF"/>
					<stop  offset="0.3984" style="stop-color:#EBBF9A"/>
					<stop  offset="0.6015" style="stop-color:#A280EB"/>
					<stop  offset="0.8411" style="stop-color:#A281FF"/>
				</linearGradient>
				
					<path style="fill:none;stroke:url(#SVGID_00000090265253997195217690000017985632856552558759_);stroke-width:2.8103;stroke-miterlimit:10;" d="
					M205.7,421c-14.5,0-29.2-1-41.6-2l-0.7,0l-0.7-0.1c-3.4-0.5-6.6-0.8-9.8-1.2c-10.6-1.1-21.5-2.3-33.5-7.9l-0.7-0.4l-0.7-0.4
					c-22.9-12.9-31.4-32-39.7-50.6c-1.2-2.6-2.4-5.4-3.6-8.1c-2.8-5.5-4.8-11.4-6.5-17.1l-0.1-0.3l-0.1-0.4
					c-6.9-24.5-5.1-36.9,7.8-55.7l0.4-0.6l0.4-0.5c1.5-1.9,2.9-3.7,4.2-5.5c6.2-8.2,11.6-15.2,23.7-26.4l0,0
					c0.9-0.8,1.5-1.9,1.8-3.1c0.3-1.2,0.2-2.4-0.2-3.6l-2.2-6.2c-0.4-2-0.7-3.9-0.9-5.9v-0.1l-0.1-1.7l0-1.2
					c0.4-13.5,7.5-24.1,12.2-31.1c0.7-1.1,1.4-2.1,2-3l0.4-0.7l0.5-0.7c2.5-3.4,6.5-12.6,8.6-18.4c0.6-1.8,2-6.5,3.2-10
					c0.8-2.6,1.4-5.3,1.6-8c0.7-6.7,2.2-13.3,4.6-19.7l0.1-0.3l0.1-0.3c1-2.7,1.8-4.8,2.5-6.9c1.9-5.6,4-12,9.9-19.3l1.2-1.4l1.2-1
					c13-11.8,27.1-14.1,38.1-14.9h0.2h0.4c0.6,0,1.2,0,1.8,0c10.7,0,18.8,4.4,24.3,7.3l1.3,0.7l0.2,0.1c1.5,0.8,2.8,1.5,4,2.1
					c3.4,1.7,7.2,2.1,10.9,1.1c7.4-2,19-6.4,26.8-10.7l0.2-0.1c8.2-4.7,20.5-11.9,35-13.5c0.9-0.1,1.8-0.3,2.6-0.4
					c1.7-0.2,4.5-0.6,7.9-0.9c5.9-0.6,15-1.2,24.5-1.2c14.6,0,26,1.5,35.1,4.6l0.3,0.1l0.3,0.1c21.6,8.2,29.5,16.7,38.3,27.9
					c3.6,4.6,7,8.9,13.4,14.6l0.6,0.6l0.6,0.6c1.7,1.7,3.6,3.4,5.6,4.8c3.8,3,9.1,7.1,13.8,14.8l0.5,0.9l0.4,0.9
					c6.8,13.9,4.5,27.3,2.9,37.1l-0.1,0.8c-1,6.2-2.8,12.2-5.3,17.9c-1.5,3.3-2.5,6.8-3.1,10.3c-0.4,2.1-0.6,3.7-0.8,5.2l-0.1,1.1
					c-0.5,5.1-1.6,10.1-3.3,14.9c-2.5,7.8-6.2,15.2-11.1,21.8c-8.2,11.8-17.3,19.1-29.4,22.9c-5.8,1.8-10.8,5.6-14.1,10.7l-1,1.5
					l-1.1,1.2c-3.1,3.5-2.2,17.1-1.7,25.1c0.6,8.9,1.2,18.1-0.5,26.7c-2.7,14.8-9.1,24.8-14.7,33.5c0,0-21,30.4-40,36.1l-1.4,0.4
					l-1.5,0.3c-3.6,0.6-7.3,1-11,0.9c-0.8,0-1.7,0-2.6,0c-0.8,0-1.7,0-2.6,0c-1.3,0-3.4,0-6.5,0.2h-0.3h-0.3
					c-12.7,0.5-20.4,0.7-24.7,1.6c-2.9,0.5-5.6,1.3-8.3,2.5C244.3,418.7,228.4,421,205.7,421L205.7,421z"/>
			</g>
		</g>
	</g>
</g>
</svg>
