<?xml version="1.0" encoding="utf-8"?>
<!-- Generator: Adobe Illustrator 27.1.1, SVG Export Plug-In . SVG Version: 6.00 Build 0)  -->
<svg version="1.1" id="Layer_1" xmlns="http://www.w3.org/2000/svg" xmlns:xlink="http://www.w3.org/1999/xlink" x="0px" y="0px"
	 viewBox="0 0 500 500" style="enable-background:new 0 0 500 500;" xml:space="preserve">
<style type="text/css">
	.st0{fill:#59018C;}
</style>
<path class="st0" d="M252,1c135.1,1.9,246.2,109.9,246.9,249.2c0.6,136.3-112.3,249.2-248.7,248.8C112.6,498.6,2.4,389.3,1.1,253.1
	C-0.3,112.5,111.5,1.1,252,1z M279.3,374.9c-62.5,0-124.7,0-188.5,0c51.1,58.6,113.1,84.9,188.9,74.5c52.4-7.2,94.7-33.1,129.3-75.1
	c-24.4,0-46.8,0-69.5,0c-9.9-20.2-19.6-40.2-30-61.5C299.1,334.1,289.4,354,279.3,374.9z M299.4,55.2
	c43.2,95.6,86.2,190.7,129.6,286.9C491.3,220.3,416.6,81.9,299.4,55.2z M191.8,57.3c-56,15.5-114,63.7-135,134.3
	c-15.2,51.2-10.7,100.7,13.3,150.2C111,246.1,151.1,152.3,191.8,57.3z M303.2,266.5c-17.8-36.7-35.2-72.5-53.4-109.8
	c-18.2,37.4-35.5,73.2-53.3,109.8C232.5,266.5,267,266.5,303.2,266.5z"/>
</svg>
