<?xml version="1.0" encoding="utf-8"?>
<!-- Generator: Adobe Illustrator 26.5.0, SVG Export Plug-In . SVG Version: 6.00 Build 0)  -->
<svg version="1.1" id="apt" xmlns="http://www.w3.org/2000/svg" xmlns:xlink="http://www.w3.org/1999/xlink" x="0px" y="0px"
	 viewBox="0 0 500 500" style="enable-background:new 0 0 500 500;" xml:space="preserve">
<path d="M385.1,167.6h-43.6c-5.1,0-9.9-2.2-13.3-6l-17.7-20c-5.1-5.7-13.9-6.2-19.7-1.1c-0.4,0.3-0.8,0.7-1.1,1.1l-15.1,17.1
	c-4.9,5.6-12.1,8.9-19.5,8.9H16.6c-6.9,19.7-11.2,40.2-13,61h225.1c3.9,0,7.7-1.6,10.4-4.5l21-21.9c2.6-2.7,6.2-4.2,10-4.2h0.8
	c4,0,7.8,1.7,10.4,4.6l17.7,20c3.3,3.8,8.2,6,13.3,6h183.7c-1.7-20.8-6-41.3-13-61h-97.7H385.1z M139.8,356.9
	c3.9,0,7.7-1.6,10.4-4.5l20.9-21.9c2.6-2.7,6.2-4.2,10-4.2h0.9c4,0,7.8,1.7,10.4,4.6l17.6,20c3.4,3.8,8.2,6,13.3,6h249
	c9.5-19.5,16.3-40.2,20.4-61.5H253.7c-5,0-9.8-2.2-13.2-5.9l-17.7-20c-2.6-3-6.4-4.7-10.4-4.7c-4,0-7.8,1.7-10.3,4.7l-15.1,17.1
	c-5,5.6-12.1,8.8-19.6,8.8H7c4,21.4,10.8,42.1,20.3,61.7L139.8,356.9z M316.5,100.9c4,0,7.8-1.6,10.5-4.5l20.9-21.8
	c2.6-2.7,6.2-4.3,10-4.3h0.9c4,0,7.8,1.7,10.3,4.7l17.7,20c3.4,3.8,8.2,5.9,13.3,5.9h47.3c-82-109.1-236.9-131.2-346-49.2
	c-18.6,14-35.2,30.6-49.2,49.2H316.5z M221.4,418h-64.8c-5.1,0-9.9-2.2-13.2-6l-17.6-20c-5.2-5.8-14-6.2-19.8-1.1
	c-0.4,0.3-0.7,0.7-1.1,1.1l-15.2,17.4c-4.9,5.6-12.1,8.9-19.5,8.9h-1c93,99.8,249.3,105.3,349.1,12.2c4.2-3.9,8.3-8,12.2-12.2
	L221.4,418z"/>
</svg>
