<?xml version="1.0" encoding="utf-8"?>
<!-- Generator: Adobe Illustrator 27.5.0, SVG Export Plug-In . SVG Version: 6.00 Build 0)  -->
<svg version="1.1" id="Layer_1" xmlns="http://www.w3.org/2000/svg" xmlns:xlink="http://www.w3.org/1999/xlink" x="0px" y="0px"
	 viewBox="0 0 500 500" style="enable-background:new 0 0 500 500;" xml:space="preserve">
<style type="text/css">
	.st0{fill:#213147;}
	.st1{fill:#12AAFF;}
	.st2{fill:#9DCCED;}
	.st3{fill:#FFFFFF;}
</style>
<g>
	<path class="st0" d="M45.3,152V348c0,12.5,6.6,24,17.5,30.3l169.8,98c10.8,6.2,24.1,6.2,35,0l169.8-98
		c10.8-6.2,17.5-17.8,17.5-30.3V152c0-12.5-6.6-24-17.5-30.3l-169.8-98c-10.8-6.2-24.1-6.2-35,0l-169.8,98
		C52,127.9,45.3,139.5,45.3,152z"/>
	<g>
		<g>
			<g>
				<path class="st1" d="M287.1,288l-24.2,66.4c-0.7,1.8-0.7,3.9,0,5.7l41.6,114.2l48.2-27.8L294.9,288
					C293.6,284.3,288.5,284.3,287.1,288z"/>
			</g>
			<g>
				<path class="st1" d="M335.6,176.3c-1.3-3.7-6.4-3.7-7.8,0l-24.2,66.4c-0.7,1.8-0.7,3.9,0,5.7l68.2,187.1l48.2-27.8L335.6,176.3z
					"/>
			</g>
		</g>
	</g>
	<path class="st2" d="M250,31c1.2,0,2.4,0.3,3.5,0.9L437.2,138c2.1,1.2,3.5,3.5,3.5,5.9V356c0,2.5-1.3,4.7-3.5,5.9L253.5,468.1
		c-1,0.6-2.2,0.9-3.5,0.9s-2.4-0.3-3.5-0.9L62.9,362c-2.1-1.2-3.5-3.5-3.5-5.9V143.9c0-2.5,1.3-4.7,3.5-5.9L246.6,31.9
		C247.6,31.3,248.9,31,250,31 M250,0c-6.5,0-13.1,1.7-18.9,5.1L47.4,111.2c-11.7,6.7-18.9,19.2-18.9,32.7V356
		c0,13.5,7.3,26.1,18.9,32.8l183.7,106.1c5.8,3.4,12.4,5.1,18.9,5.1c6.5,0,13.1-1.7,18.9-5.1l183.7-106.1
		c11.8-6.7,18.9-19.2,18.9-32.8V143.9c0-13.5-7.3-26.1-18.9-32.8L269,5.1C263.1,1.7,256.5,0,250,0L250,0z"/>
	<polygon class="st0" points="128.6,435.7 145.5,389.4 179.4,417.7 147.7,446.7 	"/>
	<g>
		<path class="st3" d="M234.6,128.8H188c-3.5,0-6.6,2.1-7.8,5.4L80.4,407.9l48.2,27.8l109.9-301.4
			C239.5,131.6,237.5,128.8,234.6,128.8z"/>
		<path class="st3" d="M316.1,128.8h-46.5c-3.5,0-6.6,2.1-7.8,5.4l-114,312.5l48.2,27.8L320,134.4
			C321,131.6,318.9,128.8,316.1,128.8z"/>
	</g>
</g>
</svg>
