<?xml version="1.0" encoding="utf-8"?>
<!-- Generator: Adobe Illustrator 27.7.0, SVG Export Plug-In . SVG Version: 6.00 Build 0)  -->
<svg version="1.1" id="Layer_1" xmlns="http://www.w3.org/2000/svg" xmlns:xlink="http://www.w3.org/1999/xlink" x="0px" y="0px"
	 viewBox="0 0 500 500" style="enable-background:new 0 0 500 500;" xml:space="preserve">
<style type="text/css">
	.st0{fill:#509FE9;}
	.st1{fill:#FFFFFF;}
</style>
<g>
	<path class="st0" d="M249.6,190.7C31.8,189.8,86.8,500,86.8,500h328.1c0,0,53.6-310.2-164.4-309.3H249.6z"/>
	<path class="st0" d="M145.1,241.8c0,0-92.1-28.1-101.8,33.3c-9.8,61.7,78.1,45,78.1,45L145.1,241.8z"/>
	<path class="st0" d="M354.7,241.8c0,0,92.1-28.1,101.8,33.3c9.8,61.7-78.1,45-78.1,45L354.7,241.8z"/>
	<path class="st0" d="M186.1,251.1c-11.2,0-22.8-10.2-31.1-17.4c-5.6-5-11-10-14.5-13.5c-1.4-1.3-2.9-2.6-4.5-3.5
		c-6.7-3.9-18.6-11.9-29.5-24.8c-14.8-17.6-30.2-47.6-18.8-90.4C108.2,24.8,169.3,1.8,172,0.9c8.1-3,17.2,1.5,20.1,9.8
		c2.9,8.3-1.4,17.6-9.6,20.6C180.7,32,134.2,50,118.1,110c-6.2,23-2.2,43.1,11.6,60c11,13.5,24.6,20,24.6,20l2.5,1.3l0.4,0.4
		c-4.3-22,0.9-39.1,7.4-50.6c0.2-0.2,0.2-0.4,0.4-0.6c8.7-15.2,30.2-15,38.9,0.4l1.1,2h0.2c0,0-8.3,5.2-13.6,15.2
		c-6.7,12.8-5.4,28.3,3.4,46.1c4.2,8.1,6.7,14.6,8.1,19.6c3.6,13.9-2.4,20.9-6.3,23.7C193.2,250,189.7,251.1,186.1,251.1z"/>
	<path class="st0" d="M100.8,164.6c-1.1,0-2.2-0.2-3.4-0.4c-24.6-5.6-42.9-17.6-54.3-35.9C24.6,98.7,32,63.9,32.4,62.4
		c2-8.7,10.3-14.1,18.8-12c8.5,2,13.7,10.6,11.9,19.3c0,0.4-2.9,14.4,1.1,29.1c4.9,18.3,18.1,29.4,40,34.4
		c8.5,1.9,13.9,10.6,11.9,19.3C114.5,159.4,108,164.6,100.8,164.6z"/>
	<path class="st0" d="M313.8,251.1c-3.6,0-7.1-1.1-10.5-3.5c-4-3-9.9-9.8-6.3-23.7c1.3-5,4-11.5,8.1-19.6c9-17.8,10.1-33.3,3.4-46.1
		c-5.2-10-13.6-15.2-13.6-15.2h0.2l1.1-2c8.5-15.4,30.2-15.6,38.9-0.4c0.2,0.2,0.2,0.4,0.4,0.6c6.5,11.5,11.8,28.5,7.4,50.7l0.5-0.6
		l2.5-1.3c0,0,13.6-6.5,24.6-20c13.7-16.9,17.7-37,11.6-60c-15.9-60-62.4-78-64.4-78.7c-8.1-3-12.5-12.2-9.6-20.6
		c2.9-8.3,11.9-12.8,20.1-9.8c2.5,0.9,63.9,23.9,84.3,100.6c11.4,42.8-4,72.6-18.8,90.2c-10.9,13-22.8,20.9-29.5,24.8
		c-1.6,0.9-3.3,2-4.5,3.5c-3.4,3.3-8.9,8.5-14.5,13.5C336.6,240.9,325.1,251.1,313.8,251.1z"/>
	<path class="st0" d="M399.2,164.6c-7.2,0-13.7-5.2-15.4-12.6c-1.8-8.7,3.4-17.2,11.9-19.3c21.9-4.8,34.9-16.1,40-34.4
		c4-14.8,1.1-28.9,1.1-29.1c-2-8.7,3.4-17.2,11.9-19.3c8.5-2,17,3.5,18.8,12.2c0.4,1.5,7.8,36.3-10.7,65.9
		c-11.4,18.3-29.7,30.6-54.4,35.9C401.4,164.4,400.3,164.6,399.2,164.6z"/>
	<path class="st1" d="M188.7,333.3H187c-5.4,0-9.8-4.4-9.8-10v-24.4c0-5.6,4.3-10,9.8-10h1.6c5.4,0,9.8,4.4,9.8,10v24.4
		C198.4,328.9,194.1,333.3,188.7,333.3z"/>
	<path class="st1" d="M312.8,333.3h-1.6c-5.4,0-9.8-4.4-9.8-10v-24.4c0-5.6,4.3-10,9.8-10h1.6c5.4,0,9.8,4.4,9.8,10v24.4
		C322.5,328.9,318.2,333.3,312.8,333.3z"/>
	<path class="st1" d="M250,424.4c26.1,0,47.2-21.6,47.2-48.3s-21.1-48.3-47.2-48.3c-26.1,0-47.2,21.6-47.2,48.3
		S223.9,424.4,250,424.4z"/>
	<path class="st0" d="M250,366.5l-22.1,11.3c0,0,1.6,19.3,22.1,19.3s22.1-20.9,22.1-20.9L250,366.5z"/>
	<path class="st0" d="M231,330.9l18.8,13l18.8-13C268.8,330.9,246.7,313.1,231,330.9z"/>
</g>
</svg>
