<?xml version="1.0" encoding="utf-8"?>
<!-- Generator: Adobe Illustrator 26.5.0, SVG Export Plug-In . SVG Version: 6.00 Build 0)  -->
<svg version="1.1" id="Layer_1" xmlns="http://www.w3.org/2000/svg" xmlns:xlink="http://www.w3.org/1999/xlink" x="0px" y="0px"
	 viewBox="0 0 500 500" style="enable-background:new 0 0 500 500;" xml:space="preserve">
<style type="text/css">
	.st0{fill:#0086FF;}
	.st1{fill:#FFC300;}
</style>
<path class="st0" d="M488.8,432.9L415.7,254c-7.3-17.9-24.7-29.5-44-29.5h-173l65.4-158.1c10-24.2-1.5-52-25.7-62.1
	c-24.3-10-52,1.5-62.1,25.7L9.8,432.7c-10,24.2,1.5,52,25.7,62.1c5.9,2.5,12.1,3.6,18.1,3.6c18.7,0,36.4-11.1,43.9-29.4l61.8-149.5
	h180.4l61,149.3c7.5,18.4,25.3,29.5,44,29.5c6,0,12.1-1.1,18-3.5C487.1,484.9,498.7,457.1,488.8,432.9z"/>
<circle class="st1" cx="319.5" cy="145.6" r="48.7"/>
</svg>
