<?xml version="1.0" encoding="utf-8"?>
<!-- Generator: Adobe Illustrator 25.0.1, SVG Export Plug-In . SVG Version: 6.00 Build 0)  -->
<svg version="1.1" id="avax" xmlns="http://www.w3.org/2000/svg" xmlns:xlink="http://www.w3.org/1999/xlink" x="0px" y="0px"
	 viewBox="0 0 500 500" style="enable-background:new 0 0 500 500;" xml:space="preserve">
<style type="text/css">
	.st0{fill-rule:evenodd;clip-rule:evenodd;fill:#E84142;}
	.st1{fill:#FFFFFF;}
</style>
<circle class="st0" cx="250" cy="250" r="250"/>
<path class="st1" d="M338.2,256.5c8.7-15,22.6-15,31.3,0l53.9,94.7c8.7,15,1.6,27.2-15.7,27.2H299c-17.1,0-24.2-12.2-15.7-27.2
	L338.2,256.5z M233.9,74.2c8.7-15,22.4-15,31.1,0l12,21.7l28.3,49.8c6.9,14.2,6.9,30.9,0,45.1l-95.1,164.8
	c-8.7,13.4-23,21.9-39,22.8H92.3c-17.3,0-24.4-12-15.7-27.2L233.9,74.2z"/>
</svg>
