<?xml version="1.0" encoding="utf-8"?>
<!-- Generator: Adobe Illustrator 26.2.1, SVG Export Plug-In . SVG Version: 6.00 Build 0)  -->
<svg version="1.1" id="axs" xmlns="http://www.w3.org/2000/svg" xmlns:xlink="http://www.w3.org/1999/xlink" x="0px" y="0px"
	 viewBox="0 0 500 500" style="enable-background:new 0 0 500 500;" xml:space="preserve">
<style type="text/css">
	.st0{fill:url(#SVGID_1_);}
</style>
<linearGradient id="SVGID_1_" gradientUnits="userSpaceOnUse" x1="251.9557" y1="413.325" x2="251.9557" y2="88.7132">
	<stop  offset="0" style="stop-color:#0057D7"/>
	<stop  offset="0.9993" style="stop-color:#04C8F2"/>
</linearGradient>
<path class="st0" d="M43.7,94.8C-0.3,187.1-6,288.7,35.8,400.1c3,8.1,12.7,11.6,20.9,8.7c7.8-2.7,25-10.7,39.3-19.8
	c33-21,132-102,179-141.5s76.8-63.1,99-77.5c11.9-7.7,19.6-13.2,25.4-16.1c5.6-2.8,12.4-0.3,14.8,5.5
	c23.3,56.1,22.6,116.9-0.6,176.5c-2.4,6.3-9.7,9.2-15.8,6.3C386.6,337,368.3,327,347,310c-25.1-20.1-41-32.5-47.9-37.9
	c-2.3-1.8-5.6-1.5-7.6,0.6L275.7,290c-2.1,2.2-2,5.7,0.2,7.8c47.8,46,102.9,87.2,159.6,114.1c7.4,3.5,16.8,0.4,20.6-6.8
	c51-95.8,57.7-203.4-3.3-308.9c-3.7-6.5-12.3-8.4-18.9-5c-10.8,5.5-29.3,16.9-58,39.9c-51,41-125,104-178,144
	c-38.4,29-81,58.5-99.8,70.9c-5.9,3.9-13.9,1.3-16.4-5.3C59,280.4,58.6,217.8,81.6,159.3c1.8-4.7,7.1-7.1,11.8-5.4
	c17.1,6.3,32.6,15,45.7,27.9l-55,51.9c-1.3,1.2-2.1,3-2.1,4.8v22c0,2.7,2.8,4.4,5.2,3.1c4.9-2.6,12.6-7.3,20.8-14.6
	c13.6-12.1,55.8-47.8,55.8-47.8l28.9,27.1c1.6,1.5,4.2,1.6,5.9,0.2l23.6-19.6c2.1-1.7,2.2-4.8,0.3-6.7
	c-51-49.3-105.2-89.4-165.2-112.8C52,87.4,46.1,89.8,43.7,94.8z"/>
</svg>
