<?xml version="1.0" encoding="utf-8"?>
<!-- Generator: Adobe Illustrator 26.5.0, SVG Export Plug-In . SVG Version: 6.00 Build 0)  -->
<svg version="1.1" baseProfile="tiny" id="bico" xmlns="http://www.w3.org/2000/svg" xmlns:xlink="http://www.w3.org/1999/xlink"
	 x="0px" y="0px" viewBox="0 0 500 500" overflow="visible" xml:space="preserve">
<circle cx="249.9" cy="250.3" r="246.6"/>
<path fill="#EA4300" d="M294,130.5c-11.3-11.3-26.8-18.2-44-18.2h-62.5c17.3,0,31.4,14,31.4,31.4v62.7v30.5h31.1
	c19.6,0,37-9,48.4-23.2c8.6-10.7,13.8-24.3,13.8-39.1C312.2,157.4,305.2,141.8,294,130.5z"/>
<path fill="#FFFFFF" d="M320.5,229.2c-6.4-6.4-13.9-11.7-22.1-15.5c-11.4,14.1-28.9,23.2-48.4,23.2h-31.1v-30.5v-62.7
	c0-17.3-14-31.4-31.4-31.4c-0.9,0-1.7,0-2.5,0.1c-16.1,1.3-28.8,14.8-28.8,31.3v218.7h7.4h55.3h46.6c43.1,0,78-34.9,78-78
	C343.3,262.8,334.6,243.3,320.5,229.2z"/>
</svg>
