<?xml version="1.0" encoding="utf-8"?>
<!-- Generator: Adobe Illustrator 26.2.1, SVG Export Plug-In . SVG Version: 6.00 Build 0)  -->
<svg version="1.1" id="bit" xmlns="http://www.w3.org/2000/svg" xmlns:xlink="http://www.w3.org/1999/xlink" x="0px" y="0px"
	 viewBox="0 0 500 500" style="enable-background:new 0 0 500 500;" xml:space="preserve">
<style type="text/css">
	.st0{fill:#E64072;}
</style>
<path class="st0" d="M251.4,500h-86.5c-10.6,0-19.1-8.6-19.1-19.1c0-10.6,8.6-19.1,19.1-19.1h86.5c77.8,0,141.1-63.3,141.1-141.1
	s-63.3-141.1-141.1-141.1h-46.5c-10.5,0-19.1,8.6-19.1,19.1s8.6,19.1,19.1,19.1h45.2c56.6,0,102.7,46.1,102.7,102.7
	c0,56.6-46.1,102.7-102.7,102.7H124.2c-30.4,0-55.1-24.7-55.1-55.1V19.1C69.1,8.6,77.7,0,88.3,0s19.1,8.6,19.1,19.1v348.7
	c0,9.3,7.5,16.8,16.8,16.8h125.9c35.5,0,64.4-28.9,64.4-64.4s-28.9-64.4-64.4-64.4h-45.2c-31.6,0-57.4-25.7-57.4-57.4
	s25.7-57.4,57.4-57.4h46.5c98.9,0,179.4,80.5,179.4,179.4S350.4,500,251.4,500z"/>
</svg>
