<?xml version="1.0" encoding="UTF-8"?>
<svg
  version="1.1"
  id="blk"
  x="0px"
  y="0px"
  viewBox="0 0 500 500"
  style="enable-background: new 0 0 500 500"
  xml:space="preserve"
  xmlns="http://www.w3.org/2000/svg"
  xmlns:svg="http://www.w3.org/2000/svg"
>
  <style type="text/css">
    .st0 {
      fill: url(#LG1);
    }
  </style>
  <linearGradient
    id="LG1"
    x1="161.0725"
    y1="108.5425"
    x2="352.3425"
    y2="378.57"
    gradientUnits="userSpaceOnUse"
  >
    <stop offset="0" stop-color="#deb354" />
    <stop offset="1" stop-color="#c89550" />
  </linearGradient>
  <circle class="st0" cx="256.03748" cy="242.60748" r="198.5775" />
  <path
    d="m 281.2,221.25 c 16.09,-20.92 11.035,-60.2875 -8.4475,-73.75 -19.4825,-13.4625 -40,-6.7225 -43.9675,-2.9325 -3.9675,3.79 -3.785,92.09 -3.785,92.09 0,0 40.1075,5.52 56.2,-15.4075 m 2.985,37.5875 c -15.0575,-6.5525 -59.1925,-4.8275 -59.1925,-4.8275 0,0 -0.685,22.2975 0.9175,64.025 1.6025,41.7275 15.865,41.5 30.6925,42.07 14.8275,0.57 43.1075,-0.46 52.4175,-36.44 9.31,-35.98 -9.77,-58.27 -24.835,-64.82"
  />
  <path
    d="M 250,0 C 111.93,0 0,111.93 0,250 0,388.07 111.93,500 250,500 388.07,500 500,388.0725 500,250 500,111.9275 388.0725,0 250,0 m 101.5475,179.935 c 0.6875,41.725 -35.6925,53.45 -35.6925,53.45 0,0 14.8275,-14.33 14.1375,-51.0325 -0.69,-36.7025 -28.275,-54.83 -28.275,-54.83 0,0 49.1425,10.6875 49.83,52.4125 m -163.565,196.035 -50.3475,2.415 v -4.5975 c 0,0 30.8075,-3.105 30.8075,-57.1275 V 178.61 c 0,-45.75 -30.8075,-53.68 -30.8075,-53.68 v -4.135 l 50.3475,2.41 V 375.97 m 80.46,2.585 C 246.545,378.73 205.91,375.74 205.91,375.74 V 123.555 c 26.785,-0.3475 36.1525,-3.9675 58.22,-0.865 22.0675,3.1025 41.0375,24.6575 46.21,46.21 5.1725,21.5525 -0.3425,42.07 -7.4175,53.275 -7.075,11.205 -22.585,18.97 -22.585,18.97 0,0 23.45,7.93 31.73,14.825 8.28,6.895 24.31,25.69 18.1025,66.555 -6.2075,40.865 -39.8325,55.86 -61.73,56.03 m 58.195,-9.305 c 0,0 23.875,-20.3475 22.825,-61.6025 C 348.41,266.3925 326.635,247 326.635,247 c 0,0 44.91,11.0375 45.425,60.175 0.515,49.1375 -45.425,62.075 -45.425,62.075"
  />
</svg>
