<?xml version="1.0" encoding="UTF-8" standalone="no"?>
<!-- Generator: Adobe Illustrator 26.0.1, SVG Export Plug-In . SVG Version: 6.00 Build 0)  -->

<svg
   version="1.1"
   id="bnb"
   x="0px"
   y="0px"
   viewBox="0 0 500 500"
   style="enable-background:new 0 0 500 500;"
   xml:space="preserve"
   xmlns="http://www.w3.org/2000/svg"
   xmlns:svg="http://www.w3.org/2000/svg">
<style
   type="text/css">
	.st0{fill:#f0b90b;}
	.st1{fill:#FFFFFF;}
</style>
<path
   class="st0"
   d="M 250,0 C 388.08093,0 500,111.91907 500,250 500,388.08093 388.08093,500 250,500 111.91907,500 0,388.08093 0,250 0,111.91907 111.91907,0 250,0 Z"/>
<path
   class="st1"
   d="m 137.39984,250 0.18029,66.10577 56.16987,33.05288 v 38.70193 L 104.70753,335.63702 V 230.66907 Z m 0,-66.10577 v 38.52164 L 104.6875,203.0649 v -38.52163 l 32.71234,-19.35096 32.8726,19.35096 z m 79.80769,-19.35096 32.71234,-19.35096 32.8726,19.35096 -32.8726,19.35096 z"/>
<path
   class="st1"
   d="M 161.03766,302.40385 V 263.70192 L 193.75,283.05288 v 38.52164 z m 56.16987,60.61698 32.71234,19.35096 32.8726,-19.35096 v 38.52164 l -32.8726,19.35096 -32.71234,-19.35096 z m 112.5,-198.47756 32.71234,-19.35096 32.8726,19.35096 v 38.52163 l -32.8726,19.35097 V 183.89423 Z M 362.41987,316.10577 362.60016,250 395.3125,230.64904 v 104.96795 l -89.04247,52.22355 v -38.70192 z"/>
<path
   class="st1"
   d="M 338.96233,302.40384 306.25,321.57451 v -38.52163 l 32.71233,-19.35096 z"/>
<path
   class="st1"
   d="m 338.96234,197.59615 0.18029,38.70193 -56.33013,33.05288 v 66.26603 l -32.71234,19.17067 -32.71234,-19.17067 v -66.26603 l -56.33013,-33.05288 v -38.70193 l 32.85257,-19.35096 55.98958,33.21314 56.33013,-33.21314 32.87259,19.35096 z M 161.03766,131.51042 249.91987,79.106571 338.96234,131.51042 306.25,150.86138 249.91987,117.64824 193.75,150.86138 Z"/>
</svg>
