<?xml version="1.0" encoding="utf-8"?>
<!-- Generator: Adobe Illustrator 27.0.1, SVG Export Plug-In . SVG Version: 6.00 Build 0)  -->
<svg version="1.1" id="bsw" xmlns="http://www.w3.org/2000/svg" xmlns:xlink="http://www.w3.org/1999/xlink" x="0px" y="0px"
	 viewBox="0 0 500 500" style="enable-background:new 0 0 500 500;" xml:space="preserve">
<style type="text/css">
	.st0{fill:#FFFFFF;}
	.st1{fill:url(#SVGID_1_);}
	.st2{fill:url(#SVGID_00000156557926982294253240000005418123243154027664_);}
</style>
<path class="st0" d="M250,499c137.5,0,249-111.5,249-249C499,112.5,387.5,1,250,1C112.5,1,1,112.5,1,250C1,387.5,112.5,499,250,499z
	"/>
<linearGradient id="SVGID_1_" gradientUnits="userSpaceOnUse" x1="2470.1736" y1="-478.2254" x2="2041.3468" y2="-2840.6868" gradientTransform="matrix(0.137 0 0 -0.137 0.863 83.4384)">
	<stop  offset="0" style="stop-color:#FF496A"/>
	<stop  offset="1" style="stop-color:#E42648"/>
</linearGradient>
<path class="st1" d="M442.9,94.7c-17.3,3.4-33.7,8.2-47.3,11.2c-30.9,6.9-59.8,30.6-66.2,74c-5.6,38.8,7.4,55.4,1.7,100.5
	c-10,78.7-85.5,105.8-120.8,122.3c-20.4,9.4-69.9,31.1-108,47.7C143.7,480.9,194.7,499,250,499c137.6,0,249-111.4,249-249
	c0-58.6-20.3-112.6-54.2-155C444.2,94.9,443.6,94.8,442.9,94.7z"/>
<linearGradient id="SVGID_00000173143184560821197610000000937878152987402152_" gradientUnits="userSpaceOnUse" x1="1045.0089" y1="-2134.792" x2="1993.1484" y2="542.7662" gradientTransform="matrix(0.137 0 0 -0.137 0.863 83.4384)">
	<stop  offset="1.812290e-03" style="stop-color:#1158F1"/>
	<stop  offset="1" style="stop-color:#119BED"/>
</linearGradient>
<path style="fill:url(#SVGID_00000173143184560821197610000000937878152987402152_);" d="M222,213.5c19.2-41.5,12.2-41.6,26.8-80.5
	c18.4-49.4,75.5-35.3,91.3-33.2c26,3.5,32.8-5.7,87.7-14.6c2.7-0.4,5.3-0.8,7.9-1.1C390.1,33.1,323.8,1,250,1
	C150.9,1,65.4,58.8,25.3,142.7C107.4,163.1,196.1,207.3,222,213.5z M167.6,44.4c7.2,1.1,42.4,44.8,49,156.9c0,0-45.2-10.8-54.9-34.1
	C153.6,148,164.1,122.8,167.6,44.4z M444.4,94.5c0.1,0.2,0.3,0.3,0.4,0.5c-0.6-0.1-1.3-0.1-1.9-0.2
	C443.4,94.6,443.9,94.6,444.4,94.5z M1,250c0-19.9,2.3-39.2,6.7-57.6c9,7.5,18.7,15.9,28.9,25.4c64.9,60.1,170.4,107.6,208.8,63.5
	c0.1,0.1,0.2,0.1,0.2,0.2c-7,9.2-33.8,38.5-85,29.4L79.7,431.6C31.3,386.2,1,321.7,1,250z"/>
</svg>
