<?xml version="1.0" encoding="utf-8"?>
<!-- Generator: Adobe Illustrator 27.1.1, SVG Export Plug-In . SVG Version: 6.00 Build 0)  -->
<svg version="1.1" id="btt" xmlns="http://www.w3.org/2000/svg" xmlns:xlink="http://www.w3.org/1999/xlink" x="0px" y="0px"
	 viewBox="0 0 500 500" style="enable-background:new 0 0 500 500;" xml:space="preserve">
<path d="M494.1,199.9c-3.3-16-8.2-31.8-14.5-46.8c-6.2-14.8-14-29-22.9-42.4c-8.9-13.2-19.1-25.6-30.4-36.8
	c-11.3-11.3-23.8-21.4-36.9-30.4c-13.3-9-27.6-16.7-42.4-22.9C331.8,14.2,316.1,9.3,300.1,6c-16.4-3.3-33.3-5-50.1-5
	s-33.7,1.7-50.1,5c-16,3.3-31.8,8.2-46.8,14.5c-14.8,6.2-29,14-42.4,22.9c-13.2,8.9-25.6,19.1-36.8,30.4s-21.5,23.7-30.4,36.8
	c-9,13.3-16.7,27.6-22.9,42.4C14.2,168.2,9.3,183.9,6,199.9c-3.3,16.4-5,33.3-5,50.1c0,16.9,1.7,33.7,5,50.1
	c3.3,16,8.2,31.8,14.5,46.8c6.2,14.8,14,29,22.9,42.4c8.9,13.2,19.1,25.6,30.4,36.8c11.3,11.3,23.7,21.5,36.8,30.4
	c13.3,9,27.6,16.7,42.4,22.9c15.1,6.3,30.8,11.3,46.8,14.5c16.4,3.3,33.3,5,50.1,5s33.7-1.7,50.1-5c16-3.3,31.8-8.2,46.8-14.5
	c14.8-6.2,29-14,42.4-22.9c13.2-8.9,25.6-19.1,36.8-30.4c11.3-11.3,21.5-23.7,30.4-36.8c9-13.3,16.7-27.6,22.9-42.4
	c6.3-15.1,11.3-30.8,14.5-46.8c3.3-16.4,5-33.3,5-50.1C499.1,233.2,497.4,216.4,494.1,199.9z M250,468.1c-120.4,0-218-97.6-218-218
	s97.6-218,218-218s218,97.6,218,218C468,370.5,370.4,468.1,250,468.1z"/>
<path d="M253.8,449.4c0.7,0,1.4,0,2.1-0.1c0.3,0,0.7,0,1,0c0.7,0,1.4-0.1,2.2-0.1c0.3,0,0.5,0,0.8,0c1,0,2-0.1,2.9-0.2
	c0.1,0,0.1,0,0.2,0c0.9-0.1,1.8-0.1,2.7-0.2c0.3,0,0.5,0,0.8-0.1c0.7-0.1,1.5-0.1,2.2-0.2c0.3,0,0.5-0.1,0.8-0.1
	c0.8-0.1,1.6-0.2,2.4-0.3c0.2,0,0.3,0,0.5-0.1c1-0.1,2-0.2,3-0.4h0.1c0.9-0.1,1.9-0.2,2.8-0.4c0.2,0,0.4-0.1,0.6-0.1
	c0.8-0.1,1.6-0.2,2.4-0.4c0.2,0,0.4-0.1,0.6-0.1c1-0.2,1.9-0.3,2.8-0.5l0,0c2-0.4,4-0.7,5.9-1.1c0.1,0,0.3-0.1,0.4-0.1
	c0.9-0.2,1.7-0.4,2.6-0.6c0.1,0,0.2-0.1,0.4-0.1c2-0.4,3.9-0.9,5.9-1.4l0,0c-24.5,0.8-44.4-2.6-57.1-5.3c-28.2-6-55.1-17-77.8-36.1
	c-37.8-31.8-57.3-77.2-56.8-122.4c0.4-33.8,11.9-67.5,35-95.1c29.1-34.6,70.6-52.7,113-53.6c1.9,0,3.9,0,5.8,0V96.5
	c-2.2,0-4.3,0-6.5,0c-12.9,0.3-25.9,1.8-38.3,4.7c-12.7,2.9-25.1,7.1-36.7,12.6c-12,5.5-23.4,12.4-33.8,20.4
	c-10.8,8.2-20.6,17.6-29.4,28.1c-8.2,9.8-15.3,20.3-21.2,31.4c-5.8,10.9-10.6,22.3-14.1,34.1c-3.4,11.6-5.7,23.6-6.8,35.6
	c-0.3,3.7-0.6,7.5-0.7,11.3c0,1.4-0.1,2.9-0.1,4.3c0,0.7,0,1.5,0,2.2c0.3,12.9,1.8,25.9,4.7,38.3c2.9,12.7,7.1,25.1,12.6,36.7
	c6.4,14,18,34.7,35,50.5l0,0c33.8,26.6,76.5,42.4,122.9,42.4c1,0,2,0,2.9,0C253.2,449.4,253.5,449.4,253.8,449.4z"/>
<path d="M309.6,416.5c-11.9-0.2-26.3-2-37.6-4c-52.6-9.6-97.9-41.6-114.6-90.3c-20.3-59.2,10.9-123,69.5-142.5
	c11.5-3.8,23.1-5.6,34.6-5.7c15.2-0.1,30.1,3,43.9,8.8l14.3-30.4c-4.2-1.8-8.7-3.4-13.1-4.8c-14.7-4.7-29.9-7-45.3-6.9
	c-15.4,0.1-30.7,2.6-45.4,7.4c-18.8,6.2-35.7,16-50.4,29.1c-7,6.2-13.5,13.2-19.1,20.7c-5.6,7.4-10.6,15.4-14.6,23.9
	c-4.1,8.4-7.3,17.1-9.8,26.2c-2.4,9.1-4,18.4-4.6,27.8c-1.3,19.4,1.3,38.7,7.6,57.4c6.3,18.6,16.7,35.7,30.6,50.8
	c12.5,13.6,27.2,23.9,44.9,33.2c18.5,9.7,41.2,14.9,64.9,18.2c15.3,2.1,35.7,2.5,47.8,2.5c10.5-3.9,14.9-5.5,20.6-8
	c4.9-2.3,9.8-4.7,14.5-7.3c4.8-2.8,5.7-3.3,13.8-8.6c0.7-0.5,1.4-1,2.1-1.5C336.8,417,329.5,416.8,309.6,416.5z"/>
<path d="M372.6,378.4c-7.9,0.5-19.1,1.2-31.9,1.2c-22.7,0-50.6-2-74.5-10c-36.7-12.3-71.7-43.8-71.7-82.5s31.4-70.1,70.1-70.1
	c26.3,0,49.2,14.5,61.2,35.9l30.4-15c-4.8-9-10.9-17.1-18.1-24.4c-9.6-9.6-20.6-17-33-22.2c-12.9-5.4-26.5-8.2-40.5-8.2
	c-14,0-27.7,2.7-40.5,8.2c-12.4,5.2-23.5,12.7-33,22.2c-9.6,9.6-17,20.6-22.2,33c-5.4,12.9-8.2,26.5-8.2,40.5c0,14.1,3,28,9,41.4
	c5.2,11.8,12.7,22.8,22.1,33c16.7,17.9,39.4,32.3,63.6,40.4c23.2,7.7,57.7,10.5,90.9,8.2c9.3-0.6,16.2-1.6,28-4
	c11.3-9.1,21.6-19.3,30.7-30.6l0,0C397.2,376.1,382.5,377.7,372.6,378.4z"/>
</svg>
