<?xml version="1.0" encoding="utf-8"?>
<!-- Generator: Adobe Illustrator 27.7.0, SVG Export Plug-In . SVG Version: 6.00 Build 0)  -->
<svg version="1.1" id="Layer_1" xmlns="http://www.w3.org/2000/svg" xmlns:xlink="http://www.w3.org/1999/xlink" x="0px" y="0px"
	 viewBox="0 0 500 500" style="enable-background:new 0 0 500 500;" xml:space="preserve">
<style type="text/css">
	.st0{clip-path:url(#SVGID_00000160873966153546801000000001779968791354746020_);}
	.st1{fill:#FFFFFF;}
	.st2{fill-rule:evenodd;clip-rule:evenodd;}
	.st3{stroke:#FFFFFF;}
	.st4{clip-path:url(#SVGID_00000145033676206078251070000013881040938676911511_);}
	.st5{fill:#F6C361;stroke:#FF3344;stroke-width:2;}
</style>
<g>
	<defs>
		<rect id="SVGID_1_" y="0" width="500" height="500"/>
	</defs>
	<clipPath id="SVGID_00000176738097841869695430000014384883646548044446_">
		<use xlink:href="#SVGID_1_"  style="overflow:visible;"/>
	</clipPath>
	<g style="clip-path:url(#SVGID_00000176738097841869695430000014384883646548044446_);">
		<path class="st1" d="M250,500c138.1,0,250-111.9,250-250C500,111.9,388.1,0,250,0C111.9,0,0,111.9,0,250
			C0,388.1,111.9,500,250,500z"/>
		<path class="st2" d="M426.6,201.2c-57.2-54.4-116-83-176.2-83c-60.1,0-118.9,28.6-176.2,83c-4.9,4.7-5.1,12.4-0.4,17.3
			c4.7,4.9,12.4,5.1,17.3,0.4c54.4-51.7,107.5-76.2,159.3-76.2c51.8,0,104.8,24.5,159.2,76.1c0.9,0.9,1.5,2.1,2,3.4
			c-0.1,0.7-0.2,1.5-0.2,2.3c0,2.9-1,4.4-1.7,5.1c-0.2,0.1-0.3,0.3-0.5,0.4c-1.3,1.3-2.7,2.5-4,3.8c-50.7-42.1-102.3-64.1-155-64.1
			c-55.5,0-109.9,24.4-163.1,71.1c-0.1,0.1-0.2,0.2-0.3,0.2l-0.1,0.1c-4.1,3.5-8.5,7.3-13,11.8c-12.3,11.5-13.2,30.6-2.4,43.8
			c0.1,0.1,0.1,0.2,0.2,0.3c1.1,1.6,2.3,2.7,3.5,3.5c56.8,53.6,115.2,81.8,174.9,81.8c60.1,0,118.9-28.6,176.2-83
			c4.9-4.7,5.1-12.4,0.4-17.3s-12.4-5.1-17.3-0.4c-54.4,51.7-107.5,76.2-159.3,76.2s-104.9-24.5-159.3-76.2c0,0-0.1-0.1-0.1-0.1
			c-3.3-3.6-2.7-8.4,0-10.9c0.1-0.1,0.2-0.2,0.4-0.3c1.3-1.3,2.7-2.6,4.1-3.9c52.9,44.1,107,66.3,162,64.3
			c52.7-1.8,104.3-25.7,154.8-69.9c1.2-0.7,2.2-1.5,3.2-2.6c0.2-0.3,0.4-0.5,0.7-0.8c3.5-3.1,6.9-6.3,10.4-9.6
			c6-5.3,8.8-12.2,9.7-18.8c0.6-1.4,0.9-3,0.9-4.6c0-8.8-3.8-17.3-9.6-23l-0.1-0.1C426.7,201.3,426.7,201.3,426.6,201.2
			C426.6,201.2,426.6,201.2,426.6,201.2z M250.1,194.1c44.4,0,89.8,18.1,136.3,56c-44.5,36.5-87.9,54.7-130.5,56.2
			c-46.3,1.6-93.6-16.4-142.3-56.1C160.2,212.2,205.6,194.1,250.1,194.1z"/>
		<path class="st2" d="M250,204.5c-25.1,0-45.5,20.3-45.5,45.5c0,25.1,20.3,45.5,45.5,45.5s45.5-20.4,45.5-45.5
			C295.5,224.9,275.1,204.5,250,204.5z M250,272.7c12.6,0,22.7-10.2,22.7-22.7c0-12.6-10.2-22.7-22.7-22.7
			c-12.6,0-22.7,10.2-22.7,22.7C227.3,262.6,237.4,272.7,250,272.7z"/>
		<circle class="st3" cx="437.5" cy="437.5" r="61.5"/>
		<g>
			<defs>
				<rect id="SVGID_00000085208627923583481180000000433577172475770767_" x="397.5" y="397.5" width="78.1" height="78.1"/>
			</defs>
			<clipPath id="SVGID_00000101093838710360894460000011323580051365420720_">
				<use xlink:href="#SVGID_00000085208627923583481180000000433577172475770767_"  style="overflow:visible;"/>
			</clipPath>
			<g style="clip-path:url(#SVGID_00000101093838710360894460000011323580051365420720_);">
				<path class="st5" d="M450.5,457.8L450.5,457.8c3.7-3.7,5.8-8.6,5.8-13.8c0-2.7-0.6-5.4-1.7-7.8v0c-0.3-0.6-0.6-1.2-0.9-1.8
					c-0.4,0.5-0.7,0.9-1.1,1.3l0,0c-1.3,1.5-3.2,2.4-5.2,2.5c-1,0.1-2-0.1-2.9-0.4c-0.9-0.3-1.8-0.8-2.6-1.5c-0.9-0.8-1.5-1.7-2-2.8
					s-0.6-2.2-0.5-3.4L450.5,457.8z M450.5,457.8c-3.7,3.7-8.7,5.7-14,5.7s-10.2-2-14-5.7c-3.7-3.7-5.8-8.6-5.8-13.8
					c0-3,0.7-5.9,2-8.6l0,0 M450.5,457.8l-31.7-22.3 M419.8,460.5L419.8,460.5c-4.4-4.4-6.9-10.3-6.9-16.5c0-3.6,0.8-7.1,2.4-10.3
					L419.8,460.5z M419.8,460.5c4.5,4.4,10.4,6.9,16.7,6.9s12.2-2.4,16.7-6.9c4.5-4.4,6.9-10.3,6.9-16.5c0-3.3-0.7-6.4-2-9.4
					c-0.8-1.7-1.8-3.4-2.9-4.9l-1.7-2.2l-1.5,2.4c-0.7,1.1-1.5,2.1-2.4,3.2c-0.7,0.7-1.6,1.2-2.5,1.2l0,0l0,0c-0.5,0-1,0-1.4-0.2
					c-0.5-0.2-0.9-0.4-1.2-0.7l0,0c-0.4-0.4-0.7-0.8-1-1.4c-0.2-0.5-0.3-1.1-0.3-1.6v0c0.3-4.1-1.1-8.7-3.7-13.7l0,0
					c-1.4-2.6-3-4.8-5.1-6.6l-2.7-2.5l-0.6,3.6c-0.2,1.1-0.4,2.1-0.8,3.2c-1,2.6-2.3,5-4.1,7.1l0,0c-1.2,1.5-2.6,2.8-4.1,4l0,0
					 M419.8,460.5l2.2-35 M418.8,435.4c1.3-2.6,3.2-5,5.6-6.8c1.8-1.4,3.4-2.9,4.8-4.6c2-2.5,3.6-5.3,4.8-8.3v0 M418.8,435.4
					l15.2-19.7 M422.1,425.5c-2.8,2.2-5.2,5-6.7,8.1L422.1,425.5z M434,415.7c0-0.1,0.1-0.2,0.1-0.2 M434,415.7l0.1-0.2
					 M434.1,415.5c0.7,0.9,1.4,2,2,3.1c2.5,4.6,3.5,8.5,3.3,11.6L434.1,415.5z M459.3,434.1L459.3,434.1c-1.4-3.1-3.4-5.9-5.9-8.1v0
					l-0.7-0.7l-0.3,0.9c0,0,0,0,0,0c-0.7,2.1-2,4.1-3.8,6.1l0,0l0,0c-0.5,0.6-1.2,0.7-1.6,0.8c-0.5,0-1.2,0-1.8-0.6
					c-0.6-0.5-0.8-1.2-0.8-1.9v0c0.3-4.1-1-8.9-3.9-14.4v0c-2.3-4.4-5.5-7.8-9.5-10.1l0,0l-1-0.6l0.1,1.2l0,0c0.1,2.7-0.2,5.2-1,7.3
					L459.3,434.1z M459.3,434.1c1.4,3.2,2.1,6.5,2.1,10v0c0,3.3-0.7,6.6-2,9.6v0c-1.2,2.9-3,5.6-5.3,7.8l0,0c-2.3,2.3-5,4.1-7.9,5.3
					v0c-3.1,1.3-6.3,1.9-9.7,1.9s-6.6-0.7-9.7-1.9h0 M459.3,434.1l-32.5,32.7 M425.2,420.7L425.2,420.7c-1.2,1.4-2.5,2.7-3.9,3.8
					l0,0c-3,2.3-5.4,5.2-7.1,8.6c-1.7,3.4-2.6,7.1-2.6,10.9L425.2,420.7z M425.2,420.7c1.7-2,3-4.3,3.9-6.8L425.2,420.7z
					 M426.8,466.7c-3-1.2-5.6-3-7.9-5.3c-2.3-2.2-4.1-4.9-5.3-7.8 M426.8,466.7l-13.3-13.1 M413.6,453.6c-1.3-3-2-6.3-2-9.6
					L413.6,453.6z"/>
			</g>
		</g>
	</g>
</g>
</svg>
