<?xml version="1.0" encoding="utf-8"?>
<!-- Generator: Adobe Illustrator 27.0.1, SVG Export Plug-In . SVG Version: 6.00 Build 0)  -->
<svg version="1.1" id="cet" xmlns="http://www.w3.org/2000/svg" xmlns:xlink="http://www.w3.org/1999/xlink" x="0px" y="0px"
	 viewBox="0 0 500 500" style="enable-background:new 0 0 500 500;" xml:space="preserve">
<style type="text/css">
	.st0{fill:#5F5FFF;}
	.st1{fill:#17E5AA;}
</style>
<path class="st0" d="M317.3,166.1c35.6-7.7,72.1,7.9,91.2,38.9c19.1,31,16.6,70.6-6.3,98.9c-22.8,28.3-61.1,39.1-95.3,27
	c-34.3-12.1-57.2-44.5-57.2-80.9h-75.9C173.7,322.6,222,386.4,292,406c70,19.6,144.4-9.8,182.1-71.9s29.4-141.7-20.2-194.8
	c-49.7-53-128.6-66.5-193-32.9C284.5,121.2,303.9,141.7,317.3,166.1z"/>
<path class="st1" d="M181.9,333.8c-35.6,7.7-72.1-7.9-91.2-38.9c-19.1-31-16.6-70.6,6.3-98.9c22.8-28.3,61-39.1,95.3-27
	c34.3,12.1,57.2,44.5,57.2,80.9h75.9c0.1-72.7-48.3-136.5-118.2-156.1c-70-19.6-144.4,9.8-182.1,71.9
	c-37.7,62.1-29.4,141.7,20.2,194.8s128.6,66.5,193,32.9C214.8,378.7,195.4,358.2,181.9,333.8z"/>
</svg>
