<?xml version="1.0" encoding="utf-8"?>
<!-- Generator: Adobe Illustrator 27.0.1, SVG Export Plug-In . SVG Version: 6.00 Build 0)  -->
<svg version="1.1" id="cfg" xmlns="http://www.w3.org/2000/svg" xmlns:xlink="http://www.w3.org/1999/xlink" x="0px" y="0px"
	 viewBox="0 0 500 500" style="enable-background:new 0 0 500 500;" xml:space="preserve">
<style type="text/css">
	.st0{fill-rule:evenodd;clip-rule:evenodd;}
</style>
<path class="st0" d="M59.9,393.2c-14.7-31.5-23-66.7-23-103.8C37,153.8,146.9,43.8,282.5,43.8c75.5,0,143.1,34.1,188.1,87.7
	l26.9-22.5C446,47.7,368.8,8.7,282.5,8.7C127.5,8.7,1.9,134.4,1.9,289.4c0,42.4,9.4,82.6,26.2,118.6L59.9,393.2z"/>
<path class="st0" d="M282.5,456c-92,0-166.6-74.6-166.6-166.6c0-92,74.6-166.6,166.6-166.6c51.2,0,97.1,23.1,127.6,59.5l26.9-22.6
	c-37-44-92.5-72.1-154.5-72.1C171.1,87.7,80.8,178,80.8,289.4c0,111.4,90.3,201.7,201.7,201.7V456z"/>
<path class="st0" d="M343,340.1c-14.5,17.2-36.2,28.2-60.5,28.2c-43.6,0-78.9-35.3-78.9-78.9c0-43.6,35.3-78.9,78.9-78.9
	c24.3,0,46,11,60.5,28.2l30.2-25.4c-21.7-25.9-54.3-42.3-90.7-42.3c-65.4,0-118.4,53-118.4,118.4c0,65.4,53,118.4,118.4,118.4
	c33.4,0,63.5-13.8,85-36L343,340.1z"/>
</svg>
