<?xml version="1.0" encoding="utf-8"?>
<!-- Generator: Adobe Illustrator 27.0.1, SVG Export Plug-In . SVG Version: 6.00 Build 0)  -->
<svg version="1.1" id="crd" xmlns="http://www.w3.org/2000/svg" xmlns:xlink="http://www.w3.org/1999/xlink" x="0px" y="0px"
	 viewBox="0 0 500 500" style="enable-background:new 0 0 500 500;" xml:space="preserve">
<style type="text/css">
	.st0{fill-rule:evenodd;clip-rule:evenodd;fill:url(#SVGID_1_);}
</style>
<linearGradient id="SVGID_1_" gradientUnits="userSpaceOnUse" x1="250" y1="459.5411" x2="250" y2="42.4592" gradientTransform="matrix(1 0 0 -1 0 501)">
	<stop  offset="0" style="stop-color:#57DCF9"/>
	<stop  offset="1" style="stop-color:#4679E7"/>
</linearGradient>
<path class="st0" d="M307.8,16.6C272-4,228-4,192.2,16.6L76.8,83.3C41,103.9,19,142.1,19,183.3v133.4c0,41.3,22,79.4,57.8,100
	l115.5,66.7c35.7,20.6,79.8,20.6,115.5,0l115.5-66.7c35.7-20.6,57.7-58.8,57.7-100l0,0c0-3.4-3.7-5.5-6.6-3.9l-98.8,56.7
	c-0.1,0-0.2,0-0.2-0.1l0,0c0-0.1-0.1-0.1-0.2-0.1c-2.3,1.6-4.6,3.1-7,4.5l-70.1,40.5l0,0c-11,6.4-23.2-2.9-23.2-15.6v-49.1
	c0-9.6,5.1-18.5,13.5-23.3l87-50.2c0,0,0,0,0,0l0,0c0,0,0,0,0,0l92.4-54.4c8.2-4.8,13.3-13.7,13.3-23.2v-15.1
	c0-41.3-22-79.4-57.7-100L307.8,16.6z M298.1,85.7c-29.8-17.2-66.5-17.2-96.3,0l-70.1,40.5c-29.8,17.2-48.1,49-48.1,83.4v80.9
	c0,34.4,18.3,66.2,48.1,83.4l70.1,40.5l0,0c10.1,5.8,21.5-2.5,21.5-14.2v-52.9c0-9.6-5.1-18.4-13.4-23.3l-54.5-31.7
	c-31.7-18.5-31.9-64.2-0.4-83l68.7-40.8c15-8.9,33.6-9,48.7-0.3l70.4,40.8l0,0c11.5,6.7,26.3,11.2,37.8,4.6l18.2-10.5
	c9.7-5.6,15.3-16.8,11.3-27.3c-7.7-20.5-22.4-38.1-42-49.4L298.1,85.7z M244.3,215.7l-44.7,27.2c-6.2,3.8-6.2,12.8,0.1,16.5
	l44.7,26.6c3,1.8,6.7,1.8,9.8,0.1l45.7-26.6c6.3-3.7,6.4-12.8,0.1-16.6l-45.7-27.2C251.1,213.8,247.3,213.8,244.3,215.7z"/>
</svg>
