<?xml version="1.0" encoding="utf-8"?>
<!-- Generator: Adobe Illustrator 26.2.1, SVG Export Plug-In . SVG Version: 6.00 Build 0)  -->
<svg version="1.1" id="Layer_1" xmlns="http://www.w3.org/2000/svg" xmlns:xlink="http://www.w3.org/1999/xlink" x="0px" y="0px"
	 viewBox="0 0 500 500" style="enable-background:new 0 0 500 500;" xml:space="preserve">
<style type="text/css">
	.st0{fill:#FC0A27;}
</style>
<path id="Path_3_" class="st0" d="M441.8,385.6c-11.9,0-21.9,8.3-24.5,19.8l-94.4-4.5c0.4-1.8,0.5-3.6,0.5-5.4
	c0-3.2-0.5-6.5-1.4-9.7l34.4-19.8c8.5,10.4,23.7,12.6,34.7,4.7c11-7.9,13.9-23,6.5-34.4c-7.4-11.3-22.3-14.9-34-8.3
	c-11.7,6.7-16.2,21.4-10.1,33.5l-33.3,19.2c-7.9-16.7-27.5-24.3-44.6-17.3c-17.1,7-25.7,26.3-19.6,43.7l-61.9,14.9
	c-0.4-8.5-4-16.4-9.9-22.5l11.2-15.5c12.6,4.3,26.4-2,31.5-14.4c5-12.4-0.5-26.6-12.6-32.2c-12.1-5.8-26.6-0.9-32.9,10.8
	c-6.3,11.7-2.3,26.4,9,33.5L180,396.1c-7.2-5.4-16.4-7.7-25.4-6.7l-10.6-60.6c13.3-2.9,23.6-13.3,26.4-26.4c2.9-13.3-2.2-27-13-35.1
	c-10.8-8.3-25.4-9.4-37.2-3.1l-26.8-52.3c5.8-2.9,10.4-7.4,13.9-12.8l22.3,5.9c-0.2,1.3-0.4,2.3-0.4,3.6c0,13,9.9,23.9,22.8,25.2
	c13,1.3,24.8-7.6,27.2-20.5s-5.4-25.4-18-28.8c-12.6-3.6-25.7,3.1-30.4,15.3l-21-5.6c2.9-6.8,3.4-14.4,1.6-21.6l62.1-28.6
	c11.5,14.4,32.4,17.4,47.5,6.7s19.1-31.5,9-46.9l39.6-38.7c4.9,3.1,10.4,5,16,5.4v17.1c-13.1,1.4-23,13-22.3,26.3
	c0.7,13.3,11.7,23.7,25,23.7s24.3-10.4,25-23.7c0.7-13.3-9-24.8-22.3-26.3V70.5c5-0.4,9.7-1.8,14-4.1l43.4,49.5
	c-10.1,13.3-9.4,31.8,1.6,44.2c11.2,12.4,29.5,15.3,43.9,6.7c14.4-8.6,20.5-26.1,14.9-41.7l13.5-7.6c8.6,10.1,23.6,11.9,34.2,3.8
	c10.6-7.9,13.1-22.8,5.8-33.8s-22.1-14.4-33.5-7.6c-11.3,6.8-15.5,21.2-9.4,33.1l-12.8,7.2c-5.2-9.5-14.6-16-25.2-17.6
	c-10.6-1.6-21.6,1.8-29.3,9.4l-42.5-48.4c4.1-3.2,7.6-7.6,9.9-12.2l37.2,6.1c2.9,13,15.5,21.4,28.4,19.1
	c13.1-2.2,22.1-14.2,20.7-27.3c-1.4-13.1-13-23-26.1-22.3c-13.3,0.7-23.6,11.5-23.7,24.8l-34.5-5.8c4.9-16.5-3.1-34.2-18.7-41.6
	s-34.2-2-43.7,12.4c-9.5,14.4-7,33.6,5.9,45.1l-38.5,37.6c-5.9-6.8-14.4-11.2-23.4-11.9V61.3c13.1-1.4,23-13,22.3-26.3
	c-0.7-13.3-11.5-23.6-24.8-23.6c-13.3,0-24.3,10.4-25,23.7c-0.7,13.3,9,24.8,22.3,26.3v26.1c-11.9,0.9-22.5,7.9-28.1,18.3
	c-5.6,10.6-5.4,23.2,0.5,33.6l-60.4,27.7c-2.2-5.2-5.6-9.7-9.9-13.3l23.6-42.5c2.2,0.5,4.1,0.9,6.3,0.9c12.8,0,23.4-9.5,25-22.1
	c1.6-12.6-6.7-24.3-18.9-27.3c-12.4-3.1-25,3.6-29.5,15.5s0.7,25.2,11.9,31.1l-22.8,41.4c-13.9-8.3-31.3-5.9-42.6,5.6
	c-11.2,11.5-13.1,29-4.7,42.6c8.5,13.7,25,19.8,40.3,14.9l27.2,53.1c-6.8,5-11.7,12.6-13.3,20.9l-19.8-5.8c0.5-2,0.7-4.1,0.7-6.1
	c0-12.8-9.5-23.4-22.1-24.8c-12.6-1.4-24.3,6.7-27.3,19.1c-3.1,12.4,3.8,25,15.8,29.3c11.9,4.3,25.2-0.9,30.9-12.2l21,6.1
	c0,0.5,0,1.1,0,1.6c0,11.9,5.9,22.8,16,29.1l-13.5,17.6c-9.9-8.8-25-8.3-34.4,1.3s-9.7,24.5-0.7,34.4s23.9,11,34.4,2.5
	c10.4-8.5,12.2-23.4,4.5-34.2l14.6-19.1c4.3,2,9.2,2.9,14,2.9c0.7,0,1.4,0,2.2-0.2l10.8,61c-14.4,4.3-24.5,17.4-25,32.4
	c-0.4,15.1,9,28.6,23.2,33.6s30,0.4,39.2-11.7l50.4,22.5c-0.4,1.8-0.7,3.8-0.7,5.6c0,12.8,9.5,23.6,22.3,25s24.5-6.8,27.3-19.2
	c2.9-12.4-4.1-25-16.2-29.3c-12.1-4.3-25.4,1.3-30.9,12.8l-49.1-21.9c2.2-4,3.6-8.3,4-12.8l64-15.6c4.9,9,13.5,15.3,23.6,17.4
	c10.1,2,20.5-0.5,28.4-6.8L334,443c-5.6,12.2-0.7,26.6,11.2,32.7c11.9,6.3,26.4,2.2,33.3-9.4c6.8-11.5,3.6-26.3-7.4-33.8
	c-11.2-7.6-26.1-5-34.2,5.6L314,418.5c3.4-3.6,5.9-8.1,7.6-12.8l95.2,4.7c0.2,13.9,11.3,24.8,25.2,24.8s25-11.3,24.8-25
	C466.8,396.8,455.6,385.6,441.8,385.6L441.8,385.6z"/>
</svg>
