<?xml version="1.0" encoding="utf-8"?>
<!-- Generator: Adobe Illustrator 27.7.0, SVG Export Plug-In . SVG Version: 6.00 Build 0)  -->
<svg version="1.1" id="Camada_1" xmlns="http://www.w3.org/2000/svg" xmlns:xlink="http://www.w3.org/1999/xlink" x="0px" y="0px"
	 viewBox="0 0 500 500" style="enable-background:new 0 0 500 500;" xml:space="preserve">
<style type="text/css">
	.st0{fill:#FFFFFF;}
</style>
<circle cx="251" cy="249.1" r="241"/>
<path class="st0" d="M249.9,500.1c-137.6,0-250-111.4-250-250s112.4-250,250-250s250,111.4,250,250S387.5,500.1,249.9,500.1z
	 M249.9,21.2C123.4,21.2,21,123.6,21,250.1S124.4,479,249.9,479s228.9-103.4,228.9-228.9S376.5,21.2,249.9,21.2z"/>
<path class="st0" d="M446.7,309.3l-47.2-127.5c-1-4-5-8-9-8h-75.3L270,55.3c-1-3-4-7-7-7c-3-1-8,1-9,3L141.5,175.8H63.2
	c-3,0-6,2-8,4c-2,3-2,6-1,9l47.2,127.5c1,4,5,8,9,8h73.3l45.2,119.5c1,3,4,6,8,6c1,0,1,0,2,0c3,0,5-1,8-3l68.3-73.3l0,0l0,0
	l45.2-50.2h78.3c3,0,6-2,8-4C447.7,316.4,449.7,312.3,446.7,309.3z M257,77.4l40.2,104.4L255,229l-17.1-47.2c-1-4-5-8-9-8h-58.2
	L257,77.4z M77.3,194.9h142.6l19.1,50.2l-52.2,57.2h-70.3L77.3,194.9z M299.1,358.5L299.1,358.5l-56.2,61.2l-40.2-105.4l43.2-47.2
	l18.1,48.2c1,4,5,8,9,8h57.2L299.1,358.5z M281.1,303.3L262,250.1l50.2-55.2h72.3l40.2,106.4H281.1V303.3z"/>
</svg>
