<svg id="Layer_1" xmlns="http://www.w3.org/2000/svg" xmlns:xlink="http://www.w3.org/1999/xlink" viewBox="0 0 1236 1236" width="2500" height="2500"><style>.st0{fill:#988430}.st1{fill:#7a6a2a}.st2{fill:#ba9f33}.st3,.st4,.st5,.st6{clip-path:url(#SVGID_2_);fill:#e2cc85}.st4,.st5,.st6{fill:#f1d789}.st5,.st6{fill:#f4ecb4}.st6{fill:#f3e19d}.st10,.st11,.st7,.st8,.st9{clip-path:url(#SVGID_2_);fill:#f2e8b0}.st10,.st11,.st8,.st9{fill:#f5eec0}.st10,.st11,.st9{fill:#e6db9d}.st10,.st11{fill:#e5cb7a}.st11{fill:#d8c173}.st12,.st13,.st14,.st15,.st16{clip-path:url(#SVGID_2_);fill:#e0cd81}.st13,.st14,.st15,.st16{fill:#dfc57c}.st14,.st15,.st16{fill:#e5cc7c}.st15,.st16{fill:#d2c281}.st16{fill:#e2c270}.st17,.st18,.st19,.st20,.st21{clip-path:url(#SVGID_2_);fill:#ccb360}.st18,.st19,.st20,.st21{fill:#d5b457}.st19,.st20,.st21{fill:#d2b257}.st20,.st21{fill:#d2b159}.st21{fill:#c2a44d}.st22,.st23,.st24,.st25,.st26{clip-path:url(#SVGID_2_);fill:#caa13e}.st23,.st24,.st25,.st26{fill:#b59544}.st24,.st25,.st26{fill:#c89d3a}.st25,.st26{fill:#ceb052}.st26{fill:#cca847}.st27,.st28,.st29,.st30,.st31{clip-path:url(#SVGID_2_);fill:#c39d3c}.st28,.st29,.st30,.st31{fill:#d2ba6b}.st29,.st30,.st31{fill:#c0993a}.st30,.st31{fill:#a88f33}.st31{fill:#e3c571}.st32,.st33,.st34,.st35,.st36{clip-path:url(#SVGID_2_);fill:#d8b65b}.st33,.st34,.st35,.st36{fill:#d3ae4d}.st34,.st35,.st36{fill:#f4efc8}.st35,.st36{fill:#ebcc73}.st36{fill:#e5c66b}.st37,.st38,.st39,.st40,.st41{clip-path:url(#SVGID_2_);fill:#e6bd62}.st38,.st39,.st40,.st41{fill:#b6933f}.st39,.st40,.st41{fill:#c49937}.st40,.st41{fill:#dfc068}.st41{fill:#c99e3d}.st42,.st43,.st44,.st45,.st46{clip-path:url(#SVGID_2_);fill:#b58634}.st43,.st44,.st45,.st46{fill:#e6c367}.st44,.st45,.st46{fill:#dcba5a}.st45,.st46{fill:#e9ce77}.st46{fill:#cdae50}.st47,.st48,.st49,.st50,.st51{clip-path:url(#SVGID_2_);fill:#d2a83e}.st48,.st49,.st50,.st51{fill:#c29637}.st49,.st50,.st51{fill:#ac8132}.st50,.st51{fill:#a67a2e}.st51{fill:#8c6228}.st52,.st53,.st54,.st55,.st56{clip-path:url(#SVGID_2_);fill:#cba94c}.st53,.st54,.st55,.st56{fill:#be9c44}.st54,.st55,.st56{fill:#a17c34}.st55,.st56{fill:#92723a}.st56{fill:#b18e3e}.st57,.st58,.st59,.st60,.st61{clip-path:url(#SVGID_2_);fill:#543e26}.st58,.st59,.st60,.st61{fill:#806031}.st59,.st60,.st61{fill:#b6903c}.st60,.st61{fill:#685026}.st61{fill:#d4b968}.st62,.st63,.st64,.st65,.st66{clip-path:url(#SVGID_2_);fill:#cca849}.st63,.st64,.st65,.st66{fill:#585136}.st64,.st65,.st66{fill:#252211}.st65,.st66{fill:#c3b378}.st66{fill:#e6d89c}.st67,.st68,.st69,.st70,.st71{clip-path:url(#SVGID_2_);fill:#6f674d}.st68,.st69,.st70,.st71{fill:#ac924c}.st69,.st70,.st71{fill:#9f8e57}.st70,.st71{fill:#eac970}.st71{fill:#d7bc6b}.st72,.st73,.st74,.st75,.st76{clip-path:url(#SVGID_2_);fill:#453a25}.st73,.st74,.st75,.st76{fill:#84754b}.st74,.st75,.st76{fill:#f7f7e7}.st75,.st76{fill:#f8f6de}.st76{fill:#d4c38b}.st77,.st78,.st79,.st80,.st81{clip-path:url(#SVGID_2_);fill:#e2d59d}.st78,.st79,.st80,.st81{fill:#cbac5a}.st79,.st80,.st81{fill:#d6bc6f}.st80,.st81{fill:#dfc677}.st81{fill:#c4a859}.st82,.st83,.st84,.st85,.st86{clip-path:url(#SVGID_2_);fill:#927d49}.st83,.st84,.st85,.st86{fill:#6e6342}.st84,.st85,.st86{fill:#39331f}.st85,.st86{fill:#292311}.st86{fill:#3f3824}.st87,.st88,.st89,.st90,.st91{clip-path:url(#SVGID_2_);fill:#2d2815}.st88,.st89,.st90,.st91{fill:#82764f}.st89,.st90,.st91{fill:#2d2816}.st90,.st91{fill:#574f35}.st91{fill:none}.st92,.st93,.st94,.st95,.st96{clip-path:url(#SVGID_2_);fill:#cfb66c}.st93,.st94,.st95,.st96{fill:#dec270}.st94,.st95,.st96{fill:#cbaf59}.st95,.st96{fill:#e3c677}.st96{fill:#ecd592}.st97{opacity:.8;fill:#fff;enable-background:new}</style><circle class="st0" cx="618" cy="618" r="618"/><circle class="st1" cx="618" cy="618" r="598.2"/><circle class="st2" cx="618" cy="618" r="585.6"/><defs><circle id="SVGID_1_" cx="618" cy="618" r="585.6"/></defs><clipPath id="SVGID_2_"><use xlink:href="#SVGID_1_" overflow="visible"/></clipPath><path class="st3" d="M470.2 860l-19.6-37.1 11.4-46.4 81.3-31.4-34.6-71 17.1-71.7 32.1-64.2 99.2-15.6 72.9-69.5L887.4 465l30.9 168.3-59.5 211.9-33.9 109.7-137.4 5.2-63.8-44.2-74.7-31.2z"/><path class="st4" d="M711.2 858.8s-19 8.7-51.4 6.7c-9.4-12.6-75.1-18.5-75.1-18.5s-8.2-2.5-22.7 3.5c-14.6 5.9-28.4 5.2-41.3 8.4-12.9 3.2-25.7-13.6-35.6-17.1-9.9-3.7-23-12.6-23-12.6l-27.7-2.7-55.6-23.5-88.3-88-24 37.6-7.4 46.5 26.7 55.1 71.9 65.5 140.2 35.6 83.1-24.5 104.1-44 26.1-28z"/><path class="st5" d="M213.1 547.8l17.8-53.9 21.2-34.8 68.3-5.7-20.5 59.8-57.1 101.6 23.7 90.7-42 21-12.9-19.8-10.4-45.4-.7-51z"/><path class="st6" d="M289.7 855.1l-13.1-18.3s-3.5-8.7-1.5-16.3c2-7.7 1.7-8.2.7-11.1s-9.4-12.9-8.9-21.5c.5-8.7-.7-11.6 5.7-18.5 6.7-6.7 4.7-18.3 4.7-18.3l8.7 5.4 2-3s3.2 2.5 3.2 6.4c.7-5.4-2.2-30.4 4.4-36.1 6.7-5.7 18.3 26.7 18.3 26.7l-7.2-47-18.5-48.2-32.9-44-2-48.5v-4.2s-15.1 23.2-19.3 41.5c-3 12.6 4.2 27.9 2.7 46-1.2 18-2.7 16.6 1.7 23.7s15.1 21.8 10.9 32.4c-3.7 9.1-16.3 2.7-16.3 2.7s-2.5 7.4-5.9 10.1c-1.2-4.4-2.5-7.2-4.9-9.9-.2 1.7-.7 4-.7 4s-2.2-6.9-4.4-15.6c-3-11.6-6.2-26.9-9.1-35.1-1.2 4.7-4.2 19-4.2 19l1.7 22 8.2 30.2 7.9 19.8 7.7 24.2 6.7 16.3 5.4 12.4 4.7 27.9 22.7 24 12.1 5.4 8.8-4.5z"/><path class="st7" d="M225 503.8s-16.3 27.7-21 55.6c-4.7 27.9-8.9 57.4-5.9 95.4 3 38.3 8.7 61.8 13.3 78.6 7.9 27.9 28.4 66.7 28.4 66.7l.7-1.5s-5.4-9.9-8.2-20.5c-2.7-10.6-3.7-23.2-6.2-28.9-2.2-5.7-5.9-10.6-7.7-17.6-1.7-6.7-2-17.3-7.2-25.2-2.2-3.2-4.9-11.6-5.7-20-1-12.6.5-26.7-.7-38.3-2.2-19.3-3.7-32.4-1.7-42.5 2-10.1 12.4-38.8 18.8-61.6 4.2-14.6 1.7-26.9 9.4-39.6 7.7-12.6 12.4-23.7 14.1-31.4 2-7-20.4 30.8-20.4 30.8z"/><path class="st8" d="M302.3 492.7s-8.4 2.5-12.4 6.9c-4 4.2-5.7 7.7-11.1 14.8-5.4 7.2-5.7 12.9-10.1 21.8-4.4 8.7-14.1 21.8-15.3 26.5-1.2 4.7-3.2 26.7-5.7 37.1-2.2 10.4 2.5 23.2 2.5 23.2l5.7-1.2s0 7.4 5.7 12.4c5.7 4.9 6.7-16.6 6.7-16.6l21.3-71.9 32.1-21.8 3.5-17.6-22.9-13.6z"/><path class="st9" d="M317.9 525.3s-15.1 1-22.5 6.4c-3 2.2-4.2 4-7.4 6.7-5.9 4.9-11.9 9.4-14.8 15.8-3.2 6.4-6.7 16.1-9.1 34.4-1 7.7-1 14.8-1.7 21-1 8.4-2.5 15.1-1.7 19.8 1 9.6 10.9 14.6 11.9 25.5l20.5-10.4 19.3-76.1 41-25.7-23.2-26-12.3 8.6z"/><path class="st10" d="M321.1 1204.6l-91.5 2.2-48.5-3.7s3-35.6 3.7-44c1.7-5.2 7.4-20 9.1-22.7 1.2-4 2.7-14.1-.7-26.5 2.2-3.5 9.1-5.4 16.8-74.4 3-25.7 3.5-45.2 5.7-57.4 3.2-17.3 5.4-23.7 4.9-30.2-.7-10.4-1.5-18-.5-26 1.5-10.6 11.9-23.2 11.6-31.9-.2-6.9-3.7-11.4-6.7-15.6-3-4.2-5.4-7.7-5.4-7.7s20.5-14.1 20.3-70.9c.7.2 1.2.5 1.2.5l10.1 28.7 6.9 8.4 26.5 49.4 34.1 33.1 50.4 33.9 31.6 34.4 3.2 91.7-41.3 53.6-41.5 75.1z"/><path class="st11" d="M335.9 1125.5s.7-11.4 10.1-18.8c1.5 2.5 2.5 4.9 2.2 6.7 1.7-3 13.6-22.2 40.5-27.2 26.9-4.9 33.4-24.5 33.4-24.5l57.1-51.9 65.3-60.1 79.4-27.9 37.1-9.1s.7 2.7-.7 8.7c6.9-.5 22.2-4 38.1-9.6 6.4-2.5 12.4-3.5 15.6-.2 4.7 4.4 5.4 14.8 5.7 21 7.7-1.7 16.6-9.1 23.7-8.4 11.4 1.2 21.5 14.6 33.1 14.6 15.3 0 22.2-9.4 32.9-16.8 6.4-4.4 15.6-9.9 20.8-13.6 12.4-9.1 143.6-49.2 143.6-49.2l46 3 7.4 49.4-4 129.8-210.6 110-332 50.9-135.2-34.6-9.5-42.2z"/><path class="st4" d="M195.5 1204.9s12.1-27.4 17.8-67c4.7-32.4.5-39.8 1.7-50.2 1.7-15.6 19.3-46 20.8-51.9 1.2 12.1 4.7 57.8 17.3 68-2.7 4-7.2 17.8 8.9 28.4-2.7 5.7-8.2 12.6-4.7 23 3.5 10.4 7.7 25.2 5.7 41.5-5.7 1.2-11.9 3.7-16.8 8.4-4.9 4.4-50.7-.2-50.7-.2z"/><path class="st12" d="M402.9 1185.8l73.7-20.5 3.2 1s1.7 1 1.7 4.4c4.7-2.7 8.7-2.2 11.6-4 1.5 3.2 3 13.8 9.6 15.1 6.9 1.5 14.3-3 21.8-8.7 7.4-5.9 15.8-13.3 22.2-16.3 1.2 2 4.2 8.2 6.2 13.3 8.4-6.7 23-33.9 43.8-33.4 2-4.7 9.4-21.8 28.9-34.9 19.3-13.1 31.4-14.1 46.5-12.9 5.9-7.7 13.6-14.6 21.8-19.5 2.5 1 9.4 5.2 18 1.2 8.7-4 18.5-19.5 31.4-21.5 11.4-1.7 20 4.2 20 4.2s37.6-37.3 63.5-49.7c-1-3-3-14.3 27.4-39.3 1.7 1.5.5 5.7 1.7 5.9.5 0 7.9-3.2 17.3-10.4 11.6-8.7 25.5-17.8 33.9-20.3 15.8-4.7 32.6 4.9 32.6 4.9s2-1.5 4.7-2.2c4-.7 6.9-1.2 9.1-2-.2 5.2 2.7 14.1 0 21.8 0 0 4.2 2.5 9.9 4.2-1.7 3.7-5.4 13.1-11.6 17.6 5.2 2.5 5.9 5.4 13.3 7.9-3 4.2-7.9 11.4-10.1 15.8-2.2 4.7-10.1 24.2-13.6 31.6-3.7 7.4-8.7 21-11.1 23.7-2.5 2.7-11.1 14.3-17.8 20 5.9-2.2 30.2-9.6 40.5-12.4-6.2 9.1-63.5 94.2-63.5 94.2L774.1 1199l-56.6 9.6-294.9-.2-26-12.9 6.3-9.7z"/><path class="st13" d="M320.4 522.6s-8.7 0-10.4 1.2c-1.7 1.2 8.7 3.7 11.9 4.9 3.2 1.2 10.1 6.7 11.9 11.1 1.7 4.2 62.5 28.7 62.5 28.7l43-2.2 14.8-20.5-28.2-24.7 19.8-58.3-26.2 4.2-63 37.6-31.6 12.1-4.5 5.9z"/><path class="st14" d="M414.8 541.9s1.7 3.2 5.9 3.2c8.9 0 17.1 2.2 20.5 6.7 5.7 7.2 21.5 30.2 21.5 30.2l37.8 13.6 2.5-44.5-41.3-28.7-47 17.3v2.2z"/><path class="st15" d="M407.4 558.4s6.9.5 15.6-2.7 23-10.1 29.2-7.4c8.7 3.7 6.9 15.3 16.3 25.7 5.7 6.4 16.1 6.2 22 13.1 5.9 6.9 26.2 3.7 26.2 3.7l7.7 41.5-30.9 39.6-10.1 49.2h-41.8L403.4 706l-18.8-45.5 9.4-46 13.4-56.1z"/><path class="st16" d="M488.2 560.4s1.5.5 3.2.5c-1.2 1-3.7 3.2-2.7 8.9s4.2 12.9 1.5 17.3c1.2 1.5 3 3.2 4.7 8.2 1.7 4.9 2.2 9.4 13.3 10.1-2.5 1.5-4.4 3.5-4.4 3.5s7.7 6.7 11.6 12.9c4-.2 14.6-3.5 14.6-3.5l2.2 1.5 4.7-2s-4.4-1.7-1.2-12.4c3-9.4 5.7-8.9 5.9-9.6.2-.7 2.2-10.6 2.2-14.6 1.5-5.2 2.7-21 2.7-21l-3.2-34.9-18-10.9-14.6-14.1-13.8 26-9.1 9.1-.7 22.5 1.1 2.5z"/><path class="st17" d="M531.5 531.2s3.2 9.1 4.4 16.1c.7-2.2.7-4.2.7-4.2s2.5 13.8 3 19.5c1-.2 2-.5 2.2.5.2 1 2.5 12.1 2 18.3 1.2-2.2 6.9-10.9 16.8-16.8 4-2.5 8.7-5.2 13.6-5.4 7.7-.2 13.3 4.9 22.5 4.9 22.2 0 42.3-16.3 57.1-21.3 10.9-3.7 20.3-6.4 26.9-12.4 3.2-2.7 8.9-8.7 14.1-17.6 6.9-11.9 14.1-22.2 21.3-23.5-5.7 1-9.9.7-9.9.7s2.2-2.2 5.9-5.2 8.2-6.7 14.6-6.7c11.4 0 17.1 1.7 23.5 1.7 6.4-.2 10.1-1.7 10.1-1.7s6.7 4.7 21.8 4.7c15.1.2 25.2 1.5 33.1 2.2 7.9.7 34.4-2.2 42-2 7.9.2 14.3 3.5 14.3 3.5L847 415.3l-88-76.9-52.4 37.1-80.6 80.6-78 28.9-16.3 18.3v27.9h-.2z"/><path class="st18" d="M706.5 490.4s2.2-2.2 5.9-5.2 8.2-6.7 14.6-6.7c11.4 0 17.1 1.7 23.5 1.7 6.4-.2 10.1-1.7 10.1-1.7s6.7 4.7 21.8 4.7c15.1.2 25.2 1.5 33.1 2.2 7.9.7 34.4-2.2 42-2 7.9.2 14.3 3.5 14.3 3.5l-11.1-32.1-12.9-24.5L811 390s-44.2-26-44.5-26.2c-.2-.2-15.3-4.2-15.3-4.2l-40 24.2-36.3 93.9-.7 19.8 23.5 11.1c5.9-9.9 12.4-17.8 18.5-18.8-5.5.6-9.7.6-9.7.6z"/><path class="st19" d="M706 497.1c-3.5.2-6.4-.5-7.2-3-3-8.4-5.4-9.6-7.9-9.6s-5.9 5.4-7.9 5.9-4.4-6.2-4.4-6.2l-2.2-1s-12.9 8.4-22 18.3-24 26.7-30.7 29.7c-6.7 3-29.7 4-37.6 5.7-7.9 1.7-16.6 7.4-17.8 8.7s3.5 2.7 4.2 4c.7 1.2-7.7.7-8.4 2-.5 1 2 6.7 3.2 9.6 2.2-1 4.4-1.7 6.9-1.7 7.7-.2 13.3 4.9 22.5 4.9 22.2 0 42.3-16.3 57.1-21.3 10.9-3.7 20.3-6.4 26.9-12.4 3.2-2.7 8.9-8.7 14.1-17.6 3.8-6.1 7.5-11.8 11.2-16z"/><path class="st20" d="M387.6 992s-2-7.4-20.3-26.5c-5.2-5.4-8.4-9.9-11.9-13.1-8.7-8.2-13.8-10.4-20-15.1-13.6-10.1-28.4-10.1-39.8-22.5-11.4-12.4-24.7-36.1-33.9-60.3-9.1-24.2-11.6-31.9-11.6-32.6s2.5-5.4 5.7-4.7c3.2.7 3.2 6.9 4 8.4.2.5 2.5 3.7 5.4 6.9 4.7 5.4 11.4 11.9 14.8 21.5-.7-8.2-3.5-17.3-3.5-17.3s17.6 11.1 32.6 22.7c15.1 11.6 21.3 15.6 25.7 23 4.4 7.4 14.8 26.9 19.8 32.6s73.2 27.2 73.2 27.2l32.4 24.2 16.1 35.3-12.6 19.8-24.2 5.2-39.3-17.6-12.6-17.1z"/><path class="st21" d="M300.3 870.4s8.2 13.1 28.2 25.5c18 10.9 46.5 20.8 71.9 26.7 14.6 3.5 29.2 6.2 42.3 6.4 35.3.5 59.6-9.6 89.7-12.9 16.3-1.7 36.3-3 57.1-7.9 26.7-6.4 42.5-13.6 64-23.7 15.6-7.2 29.9-12.6 41.5-19.5 16.3-9.6 28.2-20.3 42-23.5-1.7 4.7-3.5 13.1-17.1 21.8 7.2-.2 17.1-.7 17.1-.7s-9.6 5.7-26.5 18.5c-10.4 7.9-24.2 21.3-38.3 30.2-9.1 5.7-19 9.9-25.5 13.3-15.8 8.7-22.2 13.1-32.6 23.7 3.7-.2 4 0 4 0S605 950 595.6 955c-2 0-5.4-.7-11.4 1-4.7 1.5-10.9 4.9-17.3 6.7-9.1 2.7-12.1 1.5-12.1 1.5l1.5 3s-11.9-.2-15.8.2c.7.2.5.5.5.5s-.5 0-2 .7c-1.2.7-3.2 2-6.2 2.7-1.2.2-2.2.2-3.7.5.5 1.2 4.4 7.9 6.2 11.9-1.5 1-24 18-24 18s1 1.5 1.7 3.5c.7 2.2 1 5.4 1.7 6.9 1.7 3 2.7 3.5 2.7 3.5s-2.7.5-7.4 1.7c-4 1-8.9 2.7-15.8 3.7-2 .2-4.2.5-6.4.5 1 2.2 5.4 10.6-2.7 20.3-8.2 9.6-10.6 11.1-13.1 17.3-.7-.5-2-1.5-4-2.5-2.7-1.2-6.4-3-7.7-5.4-.2 1-1.2 4.9-3 9.4-2.5 6.7-6.2 13.3-6.9 18.3-2.7-3-7.7-8.9-14.6-7.7-6.9 1.2-12.4 10.6-13.6 13.3 0-1.7-1.2-3-1.5-1-.2 2.2-4 25.2-25.2 43.8-.2-4.7-.2-15.1-.7-18.5-2 2-4.4 4.9-18.8 11.1-14.1 6.2-11.9 12.4-11.9 12.4s-1.2-9.9 6.4-20.3c7.7-10.4 12.4-15.3 12.4-16.1 0-.2-.2-1.2-1-2.2-1-1-3-2.2-3-3 1.2-.5 13.1-6.2 12.4-18-.7-10.6-5.2-16.1-8.4-20-.5-.5 4.7-4.2 4-5.4-.5-.7-6.9-5.4-7.7-7.9.2-1.2.5-3.2 1-4.4.7-2.2 1.2-3.7 1-5.2-.5-2.5-3.2-9.4-4-10.1.7.2 5.7 0 5.7 0s-4-6.4-4.7-9.4c-.7-3-2.2-10.9-3-12.4 1.7.2 5.9.5 5.9 0 .2-1.5-3.7-4-2-5.9 1.2.2 3.5 1.2 5.7 4-1.2-3.2-3.2-9.4-7.4-11.9 2-.7 8.7-2.5 14.6 1s7.9 8.4 7.9 8.4 3.5 2.7 8.9 6.7c6.2 4.9 14.1 11.9 26.7 16.8 2.7 1.5 9.6 1.5 14.6.5 3-.7 4.7-1.7 6.2-2.5 1.2-.7 2.2-1 2.2-1s-2-4-3.7-6.2c1.7 0 3.7.2 3.7.2s1.2-2.7-4.2-7.9c1.2-1.2 2.7-2 2.7-4-1.7-.2-4.7-2.7-5.4-3.7 1-.7 2.5-3 4.2-3.7-1.5-1.2-5.2-6.2-6.9-6.7 1.7-.5 4.7-2.2 4.7-2.2s-8.4-2.2-11.1-4c-2.7-2-6.7-5.4-9.1-6.4-2.5-1-6.9-1.5-8.7-3.5 1.7.5 4.4 0 6.4 0 1.5 0 2.2.2 2.7.2-.2-.7-.2-2.2 3.7-2.7 3.7-.7 5.4-1.7 5.4-1.7s-3.7-.2-7.9-4.2-7.7-7.2-10.1-7.7c-2.5-.5-7.2 1.7-10.1 1.5-4-.5-5.7-2.5-5.7-2.5s-13.3 1.2-42.8-16.8c-25.5-15.6-36.6-29.4-36.6-29.4s-3-1-6.9-3.2c-9.6-5-22.9-15.4-22.5-29z"/><path class="st22" d="M668.2 270.2s3.5 1 5.9 4c4.7 5.4 7.7 15.6-3 26.5 4.2 1.5 5.9 2 9.6 1.5-3.7 4.4-12.1 13.8-12.6 22-.5 6.7 3.7 8.7 3.7 8.7s-6.4 7.4-6.7 19.8c1.5-1.7 4.9-5.4 9.9-9.4 7.4-5.9 17.6-12.6 24.5-16.8-.2 2.7.7 5.2.7 5.2s12.9-10.6 23.7-5.9c4.9 2.2 2.7 9.1 2.7 9.1s6.7-2.5 11.4 2.2 11.4 16.8 14.8 21.5c1.5 2.2 5.4 6.4 9.4 12.9 4.7 7.7 9.9 18.3 13.6 28.7.2-5.2 1.5-13.3 16.3-8.2 14.8 5.2 31.6 16.1 45.7 37.6 14.1 21.5 17.6 45.7 24.7 54.9 7.2 8.9 14.6 23.7 15.1 29.9s-2.2 26.2 12.6 80.3c4.2-16.8 10.6-54.1 10.6-54.1l3.5-32.9 4-101.8L802 317.6l-83.1-60.3-54.1 5.2 3.4 7.7z"/><path class="st23" d="M865.7 421.7s-1.5-9.9-26.5-26.7c-25-16.6-44.5-16.6-62.5-30.7-13.8-11.1-28.2-36.6-37.6-45-9.1-8.3-10.6-32.3-10.6-32.3l30.7-25.7 45.7-66 38.6-42.5 18.5 25.7 25.7 30.2 14.3 60.6 5.2 88.7-41.5 63.7z"/><path class="st24" d="M896.6 528s1.7-19.3-4.9-39.8-21-56.9-27.7-70.5c-2.7-15.1-.7-16.3 2.2-18 3-1.7 13.8-7.9 19.8-29.7 5.9-21.8 24.5-22.5 24.5-22.5l11.4-8.4 17.3 43.3 15.1 39.1 4.7 29.9 3.5 25.5-8.2 53.9-40.5 36.6-17.2-39.4z"/><path class="st25" d="M321.1 1204.6s-9.1-16.8-9.6-24c-.2-6.9 2.5-11.4 2.5-11.4s-3.5-5.2-6.7-6.4c.7-3.5 2-7.7 4.7-10.6 2.7-3.2 7.9-7.4 8.9-8.9s1.5-3.5 4.4-4c3-.5 6.2-.5 6.2-4.4v-7.2s1.2-.7 2.2-2c.7-1 1.2-2.2 1.7-2.5 1-.5 5.7-2 8.2-1.5 2.5.5 9.1 3.2 12.6 3 7.2-.2 15.6-5.7 28.9-3.2 20 3.7 24.7 17.3 36.3 25 7.9 5.4 16.1 3 17.3 3h2.7c.5 0 4.2-4.2 6.2-4 4 .2 4.4 3.5 6.9 3.7 5.9.7 17.3-3 23-1.5 2.7.7 6.2 3.5 7.2 7.2 1.2 3.7.2 8.4-2.7 11.1-6.2 5.7-12.1 11.1-13.3 15.8 1.7 1.2 4.7 4 4.7 4s-2.7 2.5-7.7 4.9c-2.2 1-5.7 2.7-9.6 3.2-7.4.7-16.6 1.7-22 9.6s-24 3.5-24 3.5l-89-2.4z"/><path class="st26" d="M864 929s15.6-20.8 21-31.1c5.4-10.6-17.1-145.1-17.1-145.1l45.2-148.1-1.2-48.2s2.2-44.5 7.4-63.8c6.2 11.1 25.5 24.5 29.7 31.6 2-13.6 8.7-42.3 7.7-72.9 3.7 5.7 12.6 63 12.6 63l8.9 38.6 11.6 41 12.9 43.3 7.7 29.9 4.4 7.2 3.7 12.6 3.5 13.6 10.1 31.9 5.9 26.2 4.7 47.5s1.7 5.9 2.2 11.1c.2 5.2-.7 8.2-.7 9.1 0 1 1.7 11.4 1 19.3-1 7.9-1 14.1-7.2 19.8-6.2 5.7-10.1 39.6-10.1 39.6l-11.1-7.4s2.2-10.1-3-19.3c-5.2-9.1-15.3-11.1-21-9.6-5.7 1.2-17.1 3-20.8 6.2-3.5 3.2-12.1 13.1-20 17.6-9.9 5.9-26 6.4-34.6 8.4-8.7 2-18.3 7.9-28.4 14.8-10.5 6.8-21.1 11.7-25 13.2z"/><path class="st27" d="M864 1147.5s8.7 5.7 24.7 9.6 56.9 27.4 56.9 27.4l34.4 21 42.5 3.2 37.3-5.2s1.2-15.8-1.2-74.7c-2.5-59.1-4.4-67.5-4.4-71.9 0-4.4-1.5-79.4-3.2-95.7-1.7-16.3-.5-32.9-1-42.5s-5.9-48.7-8.4-58.8c-2.7-10.1-7.9-15.1-8.7-15.1-.7.2-4.9 19-4.9 23.7s-1 16.1-1 19c-.7-.2-1-2-1-2.7-1 2.5-2.2 6.9-2.7 7.4s.7-4.2 0-5.2-2-.5-1.7-3c.2-2.5.7-4.4.7-4.4s-3 4.4-5.2 15.6c-2.2 11.1-2.2 11.4-3 12.4-.7 1.2-4.7 5.2-4.9 6.7-.2 2.7 3.7 5.4 4 6.9.2 2.5-3.5 14.1-4.7 19.8-1.2 5.7-.7 16.8-2 22.5-1 5.2-2 8.2-5.4 10.4 2.5.5 4.9 1.2 4.9 1.2s3.5 14.8-5.4 27.4c-3.2 4.4-4 6.4-7.4 10.4-6.7 7.4-11.9 15.8-12.4 21.3-.5-2-.7-4.9-.7-4.9s-10.4 12.1-14.8 19c-5.7 8.9-13.6 8.4-15.8 10.6-2.2 2.2-2.7 6.2-2 9.4-2 .5-5.7 1.2-8.2 8.9-1.2 4-4.2 7.9-8.9 10.6-4.7 2.7-10.4 3.5-13.3 4.2 2.5.7 3.5.7 4.7 1.5-1.5 2.5-8.4 6.4-16.1 11.4-7.7 4.7-11.4 11.6-13.3 16.1-2 4.2-4.9 6.9-9.6 7.4 2 1.2 4.9 4 6.4 4.9-2.2.5-5.9.5-12.6 6.2-7 5.8-9.4 7.5-12.6 8z"/><path class="st28" d="M715.4 1202.9s6.2-9.6 21.8-15.6c15.6-6.2 32.1-7.4 38.6-9.4 6.2-2 11.1-4.7 18.8-6.2-.7 5.9-1 10.6-2.7 14.6 5.7 1 20-10.1 27.7-12.6 7.7-2.5 25.2-6.2 26.7-7.4 1.5-1.2 4.7-8.4 5.7-8.7 1-.2 3.7 1.5 5.4 1.5 3.2 0 25.7-20.8 43.5-20.5 17.6.2 37.6 14.8 34.6 27.9 4.7-2.7 9.6-5.2 13.6-4.2-.5 1.7-.7 3.7-.7 3.7s9.6-2.2 12.1 1c2.7 3.2 1.2 6.2 7.7 13.8 5.2 6.4 3.7 7.9 2.7 10.1 2.5.7 14.8 4.9 26.2 15.6 11.4 10.6-91 4-91 4l-188.9-1.7-1.8-5.9z"/><path class="st29" d="M1012.5 783.6s-3.2 17.3-8.9 28.2c-5.7 10.9-11.9 26-11.9 26s0-5.4 1.2-10.1c-7.2 4.2-24.7 14.3-29.7 18.8-4.7 4.2-12.6 11.6-14.6 15.1 4.7-13.8 9.6-26.2 10.4-31.9-7.2 5.2-40.8 32.9-58.3 51.2L846.2 925s-8.4 4.7-19.3 9.1c-9.4 4-20.5 7.4-28.7 10.6 2.2-5.9 5.7-11.1 10.6-16.1 5.2-4.9 20.8-21.8 23.2-29.7 2.2-8.2 2.7-13.1-.2-20-2.7.7-8.9 1-13.1 2.2-4.2 1.2-8.7 5.7-8.7 5.7s3.2-18.3 10.1-35.6c-5.2.2-14.1 1.7-14.1 1.7s12.4-20.8 33.6-35.3c-3.5.7-11.4 2.7-19 5.9-12.4 5.2-26 12.9-36.1 17.1 5.7-7.9 45.7-65 69.5-118.2 23.7-53.1 32.6-66.7 37.8-95.2 2.7-14.1 2-34.9 2.7-53.6.7-18.5 3-35.1 1.5-46.2 6.2 7.7 29.4 29.4 30.2 77.9.7 48.5-22.2 114-46.5 149.3 5.9 1.7 21.3 3.7 37.1-23.7s15.6-35.1 21.3-46.5c.7 5.7.5 7.7.5 7.7s23-27.9 33.9-63c2.2 15.1 8.7 28.4-1.5 56.1-9.1 25-21 31.1-21 31.1s5.9-1 14.6-6.2c1.5 3.7 1.2 7.9 3.7 9.4s5.9 4 6.4 6.4c2.7-4 6.9-9.1 8.2-12.9-1 7.9-1.7 42.5 2 60.1 7.7-.7 15.6-1.2 21-15.1-3.7 13.6-3.7 21.8-1.2 33.4 4.1-2.8 7.8-7.8 7.8-7.8z"/><path class="st30" d="M752.7 232.4s-7.7 3.2-20.8 3.2c-11.4 0-8.2-4.4-26-4.4-27.4 0-123.1 15.8-139.9 15.6-10.9-.2 36.8 4.7 36.8 4.7l121.9 1.7 24.5-2 9.1-18.5-5.6-.3z"/><path class="st31" d="M436.6 470.7s-15.6 11.9-22.2 21c-6.7 9.1-10.1 15.1-17.6 22.5 2.5.2 5.2-.7 5.2-.7s0 2-1.2 2.5c2.5-.2 4.4.7 5.7 2-2.2 1.2-8.2 7.2-3.5 14.3 3.5 5.4 10.9 5.9 10.9 5.9s-1.7 4.9 5.4 4.4c15.3-.7 32.4-7.4 40.3-5.7 7.9 2 12.4 2.7 18 12.4 5.9 9.6 11.1 11.1 11.1 11.1s3.5-8.9 2.7-22.2c4.7-11.4 4.7-22.5 4.7-22.5l-5.2-38.3-22.7-28.7-29.4 16.3-2.2 5.7z"/><path class="st32" d="M464.5 465s2.2 5.2 11.4 5.7c-1 2.2-1 2.5-.7 4.2.2 1.7.5 4.2.5 4.2s1.2-.5 2.7-2c.5 2.2-.5 5.7 0 8.2.5 2.5 1.5 4.4 1.5 4.4s.2-.5.5-1c.2-.5 2 5.4 6.9 9.9 0-1.2.5-2 .5-2s0 1.7 1.2 3.5c-.5-.2-1-.7-1-.7s.5 15.8 3.2 24c.7-1 1-1.2 1.2-1.7 0-.5-.2 4.4-.7 7.9-.7 3.5-.2 8.4-.2 8.4s2.7-2.2 5.9-3.5c3-1.2 7.9-4.9 10.9-13.1s4-14.3 4-14.3 1.7 3.2 2 5.9c.2 2.5 4.9 1.2 4.9 1.2l1-10.9 5.9-24.7 5.4-15.3 26-40.5 47-36.1 41 9.4 34.6-47-59.6-35.8-56.4 5.9-51.2 70.9-41 64.3-7.4 10.6z"/><path class="st33" d="M759.9 362.4s-3.5.7-13.6 5.9-17.1 6.9-21 14.6c-4 7.7-4.2 13.8-4.2 13.8s6.9-3 10.9-4c4.2-1 8.9-.7 8.4 1-.5 1.5-2 3.2-2 3.2s7.9-.2 7.7 3.7c-.2 4-1.5 8.2-3 10.1-1.5 2-7.7 4.9-8.4 7.2-1.7 4.7.7 4.9-.2 8.7-.7 3.7-4 10.9-14.8 23.5-11.1 12.6-15.8 21.5-15.8 21.5s-5.4-10.1-8.2-18.8c-2 1-12.6 6.9-12.6 6.9L658.5 374l.5-5.7s2.2-2.7 2.7-7.7c-3.7-1.2-4.2-2.2-9.1-6.9-4.9-4.7-8.9-10.4-17.1-14.3-1.2-2.2-2.7-5.2-8.7-6.4-5.9-1.2-9.6-2.2-9.6-2.2s3.2-1.2 4.7-3.7c-3.7.5-6.7 1.7-14.8 1.5-8.2-.2-9.1-.5-13.6.2s-9.9 2.7-11.9-4.2c-2.2-1.7-6.9-.2-10.9 5.7s-5.4 10.6-13.1 12.9c-.2 1.5-1 5.4-3.5 9.6-2.2 3.7-5.7 7.4-10.4 12.9-7.4 8.7-6.2 23-18 33.9-11.9 10.9 2-30.2 2-30.2l19-45.5 54.1-52.9 84-5.7 8.2 43.5 41 14.1 25.9 39.5z"/><path class="st22" d="M773.2 372l-35.3-50.9-24.7-19s-17.6-32.4-18.8-33.4c-1-.7-17.6-2.5-28.2-3.2l2 4.9s3.5 1 5.9 4c4.7 5.4 7.7 15.6-3 26.5 4.2 1.5 5.9 2 9.6 1.5-3.7 4.4-12.1 13.8-12.6 22-.5 6.7 3.7 8.7 3.7 8.7s-6.4 7.4-6.7 19.8c1.5-1.7 4.9-5.4 9.9-9.4 7.4-5.9 17.6-12.6 24.5-16.8-.2 2.7.7 5.2.7 5.2s12.9-10.6 23.7-5.9c4.9 2.2 2.7 9.1 2.7 9.1s6.7-2.5 11.4 2.2 11.4 16.8 14.8 21.5c1.5 2.2 5.4 6.4 9.4 12.9 4.7 7.7 9.9 18.3 13.6 28.7.2-4 1-9.6 7.9-9.6L773.2 372z"/><path class="st34" d="M244 516.6s-2.5-6.2 0-18.3c2.5-12.1 6.4-17.8 7.7-35.6 1.2-17.8 12.9-40 12.9-40l32.1-14.6 22.7 6.2 6.7 30.4-28.7 15.8s-1.5 6.7-9.6 12.1c-8.2 5.4-19.3 9.6-22 15.1-2.7 5.7-3.5 10.6-3.5 10.6s-8.2-1.7-13.1 3.7c-5.2 5.5-5 10.4-5.2 14.6z"/><path class="st35" d="M308.8 508.5s-2.7 1.7-4.7 5.9c-2-3.2-6.7-22.2-6.9-39.3-.2-17.1-1.2-21.3 2.7-27.2 4-5.9 19.5-12.1 17.3-22.7-2.2-10.1-11.4-14.3-22.7-11.4-7.9 2-13.8 18.8-22 27.2-6.2 6.4-13.6 5.4-15.6 8.9-2.7 4.7-.2 9.4-1 12.4-.2 1-2.7 6.4-7.2 12.9-9.1 13.1-24.5 31.6-26.5 48.2.7-9.4.2-9.6 2.7-20l-1.5-2.5 9.9-32.4 6.4-26.7 14.3-44.7 25.2-45.7 24.5-27.4 25.5 1.7 3 38.3 14.6 71.9 30.7 37.8-49.2 33.1-19.5 1.7z"/><path class="st36" d="M324.1 522.1s-4.2 1-5.7.2c-1.5-.7-3-1.7-2.5-2.7.5-1 3.2-2.7 3.2-3.5 0-.7-.2-2.7-2.5-3s-3 1.2-3 1.2-2.2-1.7-4-2c1.5-.2 3.2-.2 3.2-.2s-4.2-2-8.7-2.5c2.5-1.5 7.4-5.9 10.6-5.9s5.2-.5 4.7-2.2c-.5-1.7-3-4.2-5.7-5.2 1-1.2 1.7-3-.7-7.9-2.5-4.9-1.5-8.2-.7-9.4.7-1.5 3.2-4.2 4.4-5.9 1.2-1.7 2.2-4 4.2-5.2 1-.7 4.2-2 7.4-3.2 3.5-1.2 6.4-2.7 8.4-1.2 2.2 1.5 1.2 3.5 1.2 3.5s6.9-2.5 13.1.7c6.2 3 21.3 4.9 21.3 4.9l5.4 10.9-35.8 30.7-14.8 7.4-3 .5z"/><path class="st37" d="M373.8 471.9s-11.1 7.4-13.6 10.1c1.5.2 4 1.2 3 2.7-1.2 1.5-8.4 6.7-12.4 11.6-4.2 4.9-8.2 11.1-9.6 14.1-1.5 2.7-12.9 10.6-16.8 11.6 8.2 0 24.7-10.1 30.9-10.1-.2 3 1.7 6.4 5.2 6.7 3.5.2 13.6 2.2 27.2-6.2 13.6-8.2 9.1-14.3 14.8-18.3 10.9-7.2 15.3-13.6 21.3-17.6 5.9-4 9.1-4.9 9.1-4.9s.2-3 2-2.7c1.7.2 2.2 1.7 2.2 1.7s10.4-7.4 23.7-9.4c-.5-.2-.7-.7-.7-.7s1-.5 1.2-1c0 0 .7-1 1.2-.5s1.2 4.2 2.2 5.7c2.2-1 6.4-10.4 6.4-10.4l10.1-28.9V399l-7.9 1.5-59.3 25.2-36 37.3-4.2 8.9z"/><path class="st38" d="M544.6 342.4s5.2-1.2 9.1-3.7c-1.2 3.2-1.2 6.7-6.4 14.3-5.2 7.7-5.4 8.7-9.6 16.6-4.2 8.2-4.7 20-8.7 25.2 3.2-1.5 5.7-1.7 5.7-1.7s-4 3.5-5.7 7.2c-1.7 3.7-4.7 11.4-12.1 16.1-7.4 4.7-16.8 7.7-26.9 18.8-10.1 10.9-20.5 24.7-25.7 29.7 2.7-4.7 6.4-14.1 7.4-20.3 1-6.2-.2-13.6 1.5-21.8 1.7-8.2 1.7-14.1 9.9-28.4 8.2-14.3 22.2-64 22.2-64l30.2-9.6 9.1 21.6z"/><path class="st39" d="M522.8 324.1s-9.1 13.1-11.6 24.7-.2 10.6-1.7 16.3c-1.5 5.7 0 10.6 0 10.6s4-7.2 12.6-12.4 15.6-8.9 19.8-13.3c4.2-4.7 7.7-12.4 16.8-18.3-3.7-.5-8.9-2.2-9.9-2 3.7-4.2 14.8-10.6 26-18.3 11.1-7.9 10.4-11.1 28.4-19-5.9 1-8.7-.5-13.6 0 2-4.2 8.9-6.2 15.8-13.1 6.9-6.9-4.4-17.1-4.4-17.1l-52.7 31.9-25.5 30z"/><path class="st40" d="M379.7 300.3l1.2-9.6 15.1-24.2 15.8-42.5v-58.1l-1.2-33.6 2.5-22 1.9-7 2-2.7 12.9 6.7 17.8 24.2 1.7 46.7-17.3 73.7-49.4 53.9z"/><path class="st30" d="M419 97.9s-7.9.2-9.6 33.1c-1.7 32.9-2.5 50.2-3.7 66.5s-4 26.2-5.4 35.8c-1.5 9.6-2.2 22.7-6.7 30.7-2 3.7-6.2 15.3-16.1 24-11.1 9.6-27.7 16.3-30.2 16.8-4.4 1-26.7 3.2-35.8 8.2-3.2 1.7-8.7 3.7-14.8 9.4-12.1 10.9-28.2 30.4-39.8 53.9-17.8 35.1-35.6 134.2-35.6 134.2l4-6.7s.5-8.9 9.4-24.5c8.7-15.6 6.2-33.1 18.3-63 4.7-11.4 10.6-26.2 17.8-38.8 11.4-20.5 25.2-38.1 39.1-47.7 22.7-15.6 47.7-19 47.7-19l26.9-17.8s4.7-9.1 10.9-19.5c8.7-14.6 19.8-30.9 22.2-54.6 3.7-35.1-5.2-58.1-4.7-78.9.5-20.8.7-36.1 4.9-39.8s1.2-2.3 1.2-2.3z"/><path class="st41" d="M419 254.9s11.9-29.2 17.3-55.1c1-5.2 3-10.4 3.5-14.6 2.5-24.5 3.2-34.6 0-48-2.5-9.9-12.1-18.8-17.1-25.7-4.9-7.2-7.2-9.9-6.2-11.4s4.9-4 8.7-3.7c3.7.2 13.3 1 21.3 9.9 7.7 8.9 13.8 39.1 13.8 39.1l6.4 39.8 16.3 50.2-64 19.5z"/><path class="st42" d="M530.5 224.5s-2.2 1-6.2 0c.2 2-.2 5.9-4 8.4-4.2-1.7-43.5 1.7-43.5 1.7s-18.3-3.2-24-27.4c-4-16.1 3-38.3.7-52.9-3.5-21.5-8.4-25.7-8.9-32.4-.5-6.7-1-8.4-1-12.6-2.2-.5-3.5-1.2-5.7-1.2-.5-2 .5-3.7-1.7-7.2 1.2.5 9.4 1.5 19 10.6 7.9 7.4 7.9 10.1 9.1 11.6 1.5 1.5 13.6 11.9 18.8 22.2s15.3 43.3 17.6 48.7c.7 2.2 2.2 4.4 5.9 9.4 5.8 7.2 14.3 19.1 23.9 21.1z"/><path class="st30" d="M465.7 123.6c3.7 5.9 10.6 17.8 16.3 30.4 5.9 13.3 9.4 24.2 16.8 33.1-4-11.6-11.1-34.4-15.3-42.5-4.7-8.6-14.3-17.8-17.8-21z"/><path class="st43" d="M397.7 288s-10.1 2.5-28.9 12.4c-6.2 3.2-12.1 5.9-17.8 8.4-14.8 6.7-30.7 12.9-43.3 16.3 1 1.2 1.5 1.7 1.5 1.7s0 4.9 2.7 7.7c-1.5 1.5-21.5 15.1-15.6 60.6 4-1.5 8.7-3.5 9.4-3.5 1.2.2 1.5 3.5 3 3.5s6.4-2 11.6-8.7c-.2 2.7-3.2 29.9 12.9 48.2 3-3.5 10.6-15.1 10.6-15.1l.2-3.7s.7-12.9 4.9-24.7c4.2-11.9 12.4-20.5 12.4-20.5l42.8-61.1-6.4-21.5z"/><path class="st44" d="M357.7 377.7s-3 2.2-6.4 3.2c-.7-2.5-1.7-11.1 4.2-19.5 6.9-10.1 22-23.2 26.2-33.6 2.7-6.7 1.5-23.5 25.5-45s33.4-28.9 33.4-28.9l38.8-19.5 47.7 18.8-23.7 92.9-18.4 43.5-73.2-13.8-54.1 1.9z"/><path class="st45" d="M385.6 352.5l9.1-11.4V333s10.1-2.7 21-13.8c10.9-11.1 26-32.4 39.3-31.1 13.3 1.5 14.6 28.9 15.1 36.6.5 7.7 2.2 25.2 4.9 34.6 3 9.4-32.4 45-32.4 45l-24 18.3-33-70.1z"/><path class="st46" d="M413.8 447.4s7.4-11.6 2-14.1c3.2-7.2 9.1-14.8 9.1-14.8s4.2-10.4 17.8-23.2c13.6-12.9 22-21.3 24.2-29.9 2.2-8.7 2.2-17.1 2.2-17.1s2.7 2.2 4.7 3.2c2.2 1 12.6 9.6 11.1 26.9-1.5 17.3-7.9 24.5-7.9 24.5s-6.2 6.2-10.6 9.4c-4.7 3.2-6.4 6.9-14.3 7.2 1.2-1 2.7-1.5 2.7-1.5s-8.2-1-12.6 3-13.8 16.3-18.5 20c-4.7 3-9.9 6.4-9.9 6.4z"/><path class="st47" d="M746.3 252.9s-15.8-6.4-36.8-7.2c-21-.7-51.7.5-81.8.7-32.4.2-61.8-11.1-102.6-13.1-6.7-4-23.7-21.5-76.9 15.6 3.2-.2 38.6-8.2 50.9 7.2 12.4 15.3 8.9 41.3 7.2 47.5-3.2 13.8-13.6 33.9-17.8 48s-3.2 21.5-6.2 31.4-9.6 14.8-5.7 26.2c5.2-3.2 7.9-3.2 16.6-22.7 8.7-19.5 6.9-33.4 21.3-49.9 14.1-16.6 37.6-39.3 46.5-45 8.9-5.7 79.8-42.5 154-7.4 17.9-1.9 31.3-31.3 31.3-31.3z"/><path class="st48" d="M478.1 239.3s-.2-1.7-.5-2.2c-1.2-2.5-2.7-4-2.7-4s-17.6-3.2-26.5-2.2c-15.6 1.7-29.7 21-36.3 30.9-6.7 9.9-14.8 25.2-23.7 33.1.2-1.2-.5-2.2-.5-2.2s.5.7-.5 1.7-1 1.5-.5 2l1.5 1.5c.5 0 14.3-6.2 33.1-23.7 20-18.3 35.3-27.7 43.3-30.9 6.1-2.8 13.3-4 13.3-4z"/><path class="st49" d="M819.5 164.1s-3.2 4-7.2 8.4c-8.9 9.4-20.5 20-30.4 30.9-9.4 10.4-20 18.5-31.9 32.1-11.9 13.6-25.7 28.7-29.2 33.1-3.2 4.4-5.7 11.6-5.7 15.3-1.7-1.2-3.7-2.5-3.7-2.5s1 2 3 4.4c2.5 3.5 6.4 7.9 8.4 10.6 3.2 4.4 4.9 9.6 5.2 11.4 1.2.2 8.9 1.7 18.5-14.1 9.6-15.8 22.2-33.1 22.2-33.1l20-29.7 12.6-25.2 15.8-28.2 2.4-13.4z"/><path class="st30" d="M840 143.9s-12.1 9.9-16.8 15.8c-4.7 5.9-15.8 21.5-15.8 21.5l4-.5 20.3-18 7.9-14.1.4-4.7z"/><path class="st50" d="M836.3 938.6s-.2-8.2 4.4-13.1c4.7-4.9 16.6-12.1 28.2-39.1 11.6-26.9 12.9-33.1 12.9-33.1s-20.8 17.8-33.6 22c3-6.2 4.7-10.6 6.2-13.8-1.7-1.5-8.9-3.2-9.6-4 4-4 6.2-13.8 14.3-20.3 10.4-7.9 29.4-21.5 44.2-33.6 14.8-12.1 43.8-40.3 47.5-48.5 2.2 3.2 2.7 5.2 2.7 5.2s-14.6 19-22.2 31.1c-6.7 10.4-6.2 16.3-6.2 16.3l13.8-5.9s4 14.8-14.1 37.3c7.9-3 11.1-1.2 15.6-3.7-7.4 4.7-17.6 11.1-27.2 28.7-9.4 17.6-22.2 38.1-43.8 50.9-21 13.5-33.1 23.6-33.1 23.6z"/><path class="st51" d="M782.1 263.3s-8.2 17.1-9.4 30.4c-.2 3.2-1 5.7-1 9.4-.2 11.9.7 25.2-2 31.4-1-2.5-1.5-4.2-2.5-5.2-1.5 4.2-4.2 17.3-6.4 22.2-1-3.2-3.2-14.3-3-27.4.2-13.1.5-15.6.5-18.3-.5 4-3.2 9.4-4.2 12.6-1.5-2.7-3.2-6.2-5.2-9.1-1.2 2-2.7 4.9-4 6.4-.2-1.2-.7-4.4-1-8.9-.2-5.2-.5-11.9-.2-13.3.5-2.7 4.7-13.3 13.6-23 10.6-11.6 21.5-33.9 24.7-40.8 3.2-6.9 16.8-35.6 16.8-35.6h10.4l-15.1 34.4s-9.1 18.8-13.8 25.7c-4.7 6.9-14.6 26.7-19 34.4 3.2-4.2 5.9-6.4 9.1-10.4 3.1-2.8 11.7-14.9 11.7-14.9z"/><path class="st52" d="M840.2 142.6s-2 7.2-7.9 14.3c-6.2 7.4-19.5 17.3-26 25.2-5.9 7.7-17.8 28.7-12.4 53.6 2-5.4 5.7-16.1 15.6-28.2s20.5-26 25.7-36.8c5.2-10.9 5.9-19.5 5.9-19.5l2-2.5-1.2-5.7-1.7-.4z"/><path class="st30" d="M1042.7 805.9s-4-10.9-5.2-20.8c-1.2-9.9 2-11.9-1.7-23.2-2.2-6.9-6.2-5.9-7.2-6.9s-1.7-11.4-1.5-17.1c.2-5.7-.2-13.1-1.2-16.3-1.5-1.2-2.5-2.2-4.7-9.6-2.5-7.4-3.7-11.1-4.9-13.3s-4.7-4.2-4.7-6.4c0-4.4 4-6.7 4-7.9-.2-2.5-3.2-.5-4-1.2-1-1.2 2.5-8.4 1.2-9.4-.5-.5-4 3.7-4.9 2.5-1-1.2-2.2-13.1-4-21-1.7-7.7-3.5-13.3-3.7-15.6-.2-2.2-13.8-41-17.1-50.4-3.2-9.4-5.7-19.5-6.7-24.2-1-4.7-1.7-14.3-2.2-13.3-.5 1-.2 5.9-1 5.7-.7-.2-3.2-17.3-4-20-.7-2.7-4.9-11.9-5.9-18.5-1-6.7-3.2-24.2-4.7-36.1-1.5-11.9-2.2-16.8-2.2-19.8 0-1.5.5-10.1-1.2-21.8-2-12.6-5.9-27.9-9.4-36.8-6.7-16.8-24.5-59.8-27.7-70.5 0-2.7 3.5-1.2 3.5-1.2s8.7 21.8 15.1 38.6c6.2 16.8 12.1 31.6 13.6 33.1 1.2 1.5 10.6 18 14.8 45s5.7 51.9 8.2 68.5c1.2 7.9 2.2 16.3 4.7 24.7 2.7 9.1 6.9 18.5 12.4 32.9 4.7 12.1 8.2 22.2 10.1 30.9 2.2 11.1 2.2 19.5 3.5 25 1.2 4.7 3 14.1 7.2 27.7s10.4 31.1 14.6 42c8.2 21.8 11.9 40 13.1 49.7 1.1 10 4.8 44.6 3.8 55z"/><path class="st53" d="M840.7 141.4l-.5 1.2s1.5.5 1.2 2.5c0 1 0 4.9-.5 8.2-.5 3.5-1.5 6.2-1.7 8.4 0 4.7.7 10.1-5.9 23.5-2 3.7-3.2 6.9-4.2 9.1-2.5 5.4-3 6.2-5.2 8.7 3.5-2 16.1-9.9 22.5-8.7-4.4 2.5-11.1 7.4-15.3 13.8 1 .2 5.2 1 11.9 0 11.1-1.7 23.5-5.7 34.4-4.9 11.9.7 7.2-14.3 7.2-14.3l-13.8-30.2-26-18.3-4.1 1z"/><path class="st54" d="M908.5 367.6s-11.6-11.6-16.3-51.4c-4.7-40-3.7-98.9-3.7-98.9l-9.4-23s-2-15.3-6.9-21c-4.9-5.7-14.6-15.3-19-20-4.4-4.7-9.4-11.1-12.4-12.1 1.5-2.5 8.2-16.6 33.9-16.8 25.7-.2 33.6 14.1 36.3 19.3 2.7 5.2 14.8 27.7 19.3 70.5 4.2 42.8 4.4 46 3.7 60.8-.5 8.2-3.2 27.2-7.9 47.5-4.3 17.2-9 36.4-17.6 45.1z"/><path class="st51" d="M872.1 401.7s5.4.7 11.1-2.5c3.7-.2 17.1 1.5 27.4-11.6.7 3 2.5 11.1-2.2 18.3 2.5-2.5 6.2-3.5 6.7-4.2.2 3.7 3.7 15.1-11.1 42.8 4-4.4 8.7-4.2 12.9-4.7.2 5.2 3 22.7-4.4 32.1-4.9 6.4-12.9 4.4-12.9 4.4s.2-2.2 0-4.2c-.2-2.7-1.2-5.4-.5-7.2-1-.5-5.2-2.2-10.4-7.2-8.7-8.2-20-22.2-20.8-32.6-1-11.6 9.4-14.1 9.4-14.1s-1.2-1-2.2-2.7c-.5-1.7-1-4.4-3-6.6z"/><path class="st55" d="M795 275.9s-.5-.7-3.2 2.5c.5-3.2 1-6.2 1.2-9.1 1-2.2 2.7-4.9 4.9-7.4-1.5 3-2.5 5.7-2.5 5.7s3.7-6.9 9.1-11.1c3.7-3 8.4-4.4 10.4-7.2 2.2-3 1.7-3.5 2.2-4 0 0 4.9-3.2 12.4-12.6 1-1.2 2.5-2.5 3.5-3.7 1.7-.7 5.7-2.5 10.4-4.9 4.9-2.7 10.4-6.4 13.8-7.9 6.7-3 13.8-2.7 17.1-7.4 2.5-.7 5.2-8.2 4.7-14.6 3.7 1.5 22.7 13.3 29.2 39.1 4.7 18.3-3.7 46.5-7.2 60.1-3.5 13.6-4 23.7-8.9 29.9-6.2 8.2-26.2 19.8-31.1 25.5-4.2 4.7-16.8 16.6-16.3 25.2.5 6.4 8.4 9.9 10.1 11.1 1.7 1.2 1.7 2.7 4.9 2s4.4-2.2 5.7-2.2c1.5.2 1.5.5 2.2.5s1.5-.2 1.5-.2-.5 9.1-21.8 11.9c-1.5.2-3 .7-4.9 1 2.5-1.2 4-1.2 6.7-4.9-3-.5-11.6-1-13.8-1.7.7-1.2 3-4.4 4.9-5.9 1.7-1.5-.2-2-1.7-1.2-.7.5-4 2.7-7.4 5.7-2.5 2.2-4.7 5.2-8.7 7.9-1.2-4-1-11.6 3.7-17.1-1.2.2-3.5 3.7-5.7 3-.2-1.5-.5-6.4.7-10.9s7.7-12.4 7.7-12.4l31.4-56.1 6.7-42.5-71.9 13.9z"/><path class="st56" d="M793.3 278.3s-1.7 1.2 1.7 3.5c-.5.7-1.7 3.2-3.2 4.9-1.7 2-3.5 3.2-4.2 4.9-1.5 3.5-2.7 5.9-2.7 7.4s-.5 11.1-4.7 17.3c-1.5 2.2-3.2 5.9-4.4 8.4-2.5 4.4-4.7 7.9-5.2 9.9-1 3.5-1.7 13.1-1.7 13.1s2.2-2.7 3-3.7c-1.2 2.5-2.5 5.2-4.4 7.2 1.2-1 4.7-3.5 10.6-8.7 8.2-6.9 21-18.5 36.6-27.7-4.7 1.7-8.7 1.7-11.9 2.2 2.5-2.5 25-28.9 36.8-31.4 1.2-1.5 1-3.2 1-3.2l-10.1-1-20.5 4.4-3-15.8-13.7 8.3z"/><path class="st57" d="M825.9 368.3s-2.7 2.7-5.2 9.4c-.7-.7-3-3.2-4.9-6.7-3.7-6.2-9.4-14.1-22.7-9.6-.2-4.2-.5-6.4 0-9.4 2.2-.5 8.9-5.9 15.6-13.8 4.7-5.4 9.1-11.6 12.1-19.5 2-1.5 5.4-4 9.9-6.9 6.4-4.4 14.1-10.4 15.3-17.1-3 1.2-9.4 4.2-19 3.7 3.7-1.7 9.4-3.5 8.7-10.9 1.5-1 2.7-1.7 2.7-1.7s-1.2-.5-3.5-.5c-.2-.7-.5-1.7-2.2-1.2-1.7.5-2 .5-2.2 1.2-.7.2-3 0-4.7 1.2-1.7 1.2-6.4 5.2-8.2 5.9.7-1.2 1.7-3 1.7-3s-4.9.5-8.4 2c-6.4 2.2-13.8 6.2-21.3 10.1.7-1.2 1-2 1.5-2.2.5-.2 1.7-.5 1.7-.7 0-.2-.5-2-.2-2.7.2-.7 4.4-8.9 7.9-13.6 3.5-4.7 4.2-11.4 4.2-11.4l15.3-7.7 43-9.9 27.9 1.7-3.5 19.3-16.5 33.7-14.1 30.7-16.1 18.8-14.8 10.8z"/><path class="st58" d="M895.6 284.8s-16.8 20.8-21.5 24c3-6.4 21.5-44.5 28.2-55.1-1.5-1.2-3.5-1.2 1.2-19.8-4 9.4-5.4 14.3-8.7 16.8-3.2 2.5-3.7 1.7-5.9 1.7.7-1.2.5-2.5.5-2.5s-14.1-1.7-23.7-1.7-28.7 5.2-39.3 9.4c-8.4 3.5-13.1 3.5-16.1 5.7-3 2.5-4.7 5.2-6.2 5.9-1.2.7-6.9 2.5-8.2 4.4-1.2 2-3.2 4.2-3.2 4.7s-.5 1.2 1 .7c.5-.2 4.2-2.2 8.4-4.7 5.7-3.2 12.6-6.9 17.6-9.1 14.3-5.7 18.8-4.7 25.2-5.9 6.7-1.2 16.3-4 22.7-4 6.4-.2 18.5 0 21.3.5-1.2 1-2.2 2.2-1.7 6.4 0 1.2-1 2.5-2 5.4-3 8.2-8.7 21.8-11.9 28.7-4.4 9.4-9.4 17.3-11.9 22.2-2.5 4.9-7.9 17.8-13.3 24.7-5.4 6.9-8.2 11.1-9.9 12.6s-13.8 10.4-12.9 13.6c2.2-.7 16.1-5.9 26.2-17.3 10.1-11.4 12.1-18.3 20-24.5 7.9-6.2 14.1-16.6 17.8-25.2 3.1-8 2.4-10.5 6.3-17.6z"/><path class="st59" d="M533.5 440s-2.2 9.1-7.2 13.6c-4.9 4.4-13.6 8.2-14.6 15.6-1.2 7.4 8.7 11.1 8.7 11.1s-5.4 8.9-5.4 15.6c0 6.9-.2 8.2.5 14.8-1.2.7-2 2-2 2s.5 6.4 5.4 10.4 9.1 6.4 11.6 5.4c.5 1 1 2.5 1 2.5s3.7-9.4 6.2-17.6c2.5-8.4 4.7-7.2 5.7-18.5 1-11.4 11.9-30.7 11.9-30.7l7.4-16.6-12.1-9.4-17.1 1.8z"/><path class="st60" d="M556 456.3s-3.7 3.7-6.9 8.2c-3.2 4.4-5.7 8.4-10.4 10.1-4.7 1.7-7.7 1.7-7.4 6.4s4.7 6.7 7.2 9.1c2.7 2.5 4.9 6.7 3.7 11.4 1.5-.7 4.2-1.5 6.7-6.9s20-38.3 20-38.3H556z"/><path class="st61" d="M624.9 380.4s1.5-4 0-6.9c-1.5-3-10.6-4-15.1-7.4-4.7-3.5-10.4-5.9-15.1-4.4.7-1.7 3.5-5.4 1.2-6.2-2.2-.7-10.4 3-12.6 4.7-2.2 1.7-7.2 3.7-8.2 4.9s-2.7 3.5-3.7 2.5c-1-.7-1.5-2.5-3.2-1.5-1.7 1-9.9 7.7-11.4 11.6s-4.9 12.6-15.1 22.5c-10.1 9.9-14.6 16.3-11.6 20 3 3.7 4.4 1 4.9 4.2.2 1.5.5 5.4-.5 9.4-1.2 5.2-3.2 10.1-.5 11.1 6.9 2.2 13.6-2 15.1-.7 3 2.7-1.7 12.4 5.4 14.3 7.2 2 14.3-1.7 14.3-1.7l26.2-14.1 25.2-13.3 12.9-25.5-6.9-21.3-1.3-2.2z"/><path class="st62" d="M600.2 441.3s-4.4-6.7 1-12.6c5.4-5.9 13.1-8.4 16.1-12.1-1-1.2-2.2-1.5-2.2-1.5s2.7-5.4 8.7-8.2c-1.5-1.5-3.5-2.7-5.7-2.7-4.9 0-7.9 3-12.4 3-4.4 0-4.9-2.2-4.9-2.2s7.4-.7 6.7-4c-.7-3.5-2-3.5-2-3.5s14.3-5.9 16.8-9.1c2.5-3.2 2.2-6.9 2.7-8.4 1.7 0 11.6-5.2 15.6-3s1.2 8.2 1.2 8.2 12.1-9.1 18.3-18c5.4.5 7.9-3.7 11.9-3.7 4.9 0 12.6 6.7 14.1 21 1 8.2 2.5 12.9 1 27.4-.7 8.2-.5 25.7 2 34.4 1.7 6.9 5.7 6.2 5.7 6.2s-.7 3-3.5 5.4c-2.7 2.5-3 9.1-2.7 11.6.5 2.5 1.5 5.4 1.5 5.4s-3.2 3.7-4 6.2c-.7 2.5-4 4.2-6.4 4.2-2.5 0-1.2-.2-4.4 0s-4.2.7-6.2 0-3.5-1.5-2.7-7.9c.7-6.4-24.7-21.3-24.7-21.3l-41.5-14.8z"/><path class="st63" d="M552.5 504.5s9.1 12.1 46.5 12.1c17.8 0 24-1.7 27.7-2.7 4-1 19-6.9 34.1-24.7 13.6-16.1 10.6-22.7 10.6-22.7l-7.9-1.2-25.7 3.5-76.1 32.4-9.2 3.3z"/><path class="st64" d="M580.4 507.5s-32.4 7.2-32.4-13.3c0-20 20-41 25-44.7 5.2-3.7 17.6-7.9 17.6-7.9h29.9l5.7 15.1-2.5 32.6-43.3 18.2z"/><path class="st65" d="M610.3 447.7s-6.2-5.7-20.3 2-25.5 23.7-26.2 38.3c-.7 12.9 10.6 22.5 28.2 23 13.1.5 21-1 25-2-1-1.2-6.2-7.7-6.2-7.7l-.5-53.6z"/><path class="st66" d="M604.2 450.9s-1.5-1.2-5.9 1.2c-3.7 2-9.1 7.2-13.3 10.9-2.7 2.2-4.4 3.2-5.9 4.9-6.2 7.4-11.4 19.5-8.4 25.5 3 5.9 12.9 12.9 38.1 8.2l-4.6-50.7z"/><path class="st64" d="M596 463.3s-4 6.2-4 16.1c0 10.1 5.7 26.2 26.7 27.4 16.1 1 26.9-23.2 38.6-32.6 8.9-7.2 14.3-7.4 14.3-7.4s-9.1-9.9-33.4-22.7c-24-12.9-50.9-14.6-65.5 5.2 6.9-.5 29.2-6.2 29.2-6.2l10.9 3.5-16.8 16.7z"/><path class="st67" d="M627.4 476.4c-.7-1.5-1.2-3.5 1.7-4 3-.5 4.2-.2 5.2 2s2 4 .5 4.9c-1.5.8-5.4 0-7.4-2.9zM622.7 462.3s-1 .7-.5-.7c.2-1.7 1.5-4.7 4.7-4 3.2.7 2.5 4.2 2 5.2s-3.2 2.7-5.2 2-1-2.5-1-2.5z"/><path class="st68" d="M352 468.7s7.9 5.9 17.1 5.7c9.1-.2 20.8-9.6 26.2-15.6 3.2-3.5 5.9-7.2 8.9-10.1 2.5-2.5 4.2-3.7 5.4-5.4 1.7-2 3.5-5.7 4.4-6.9-2.2 1.7-5.4 4.7-8.7 6.7-3.2 2-10.1 5.7-12.9 6.7-2.7 1-30.7 15.8-30.7 15.8l-9.7 3.1z"/><path class="st69" d="M364.1 394.8s4.4-3 12.9-4.9c8.2-2 24.7-3.5 24.7-3.5l13.6 5.9 5.4 20.5-9.9 21.3-12.6 7.9-14.3-23-19.8-24.2z"/><path class="st70" d="M346.3 413.1l-4.7 3.5s1.2-2.2 2.2-8.9c1-6.7 6.2-23 13.8-32.4s7.4-8.9 7.4-8.9-2.2-.5-4 1c1-2.2 7.4-10.1 13.8-14.1s8.9-5.2 15.6-2c6.7 3.2 8.4 4.9 13.3 4.7s9.1-5.4 9.1-5.4 1 3.2-2.7 10.6c-3.7 7.4-18.3 22.5-18.3 22.5l-30.4 20.8-15.1 8.6z"/><path class="st71" d="M368.8 392.3s22 3 28.7-3.2c.2.7 1 .7 1 1.2s-.5 1-.5 1 1.2-.2 2.2-.2c1 .2 1.7.5 2.7.5 1 0 2.2-.2 2.2-.2s-.2 1.7-1.5 2.5c1 0 2 .2 2 1s.2 3.2-1 3.7c-1.5.5-3-.2-3-.2s0 2.7 1.5 5.4c2 3.7 6.2 7.9 11.9 6.7 0 0 3 7.2-9.6 23.2-1.7 2.2-3.5 5.2-5.7 7.7-1.7 4-2 5.9-2 5.9s21.3-8.2 27.4-26.9c6.2-18.8 7.4-37.3 6.2-54.6-.2-4.9-1-8.4-2.2-10.9-3-6.2-11.4-5.2-14.8-1.7-4.9 4.9-13.1 17.1-24.5 25.5-11.6 8.4-12.1 9.9-21 13.6z"/><path class="st63" d="M342.4 419.3s-4.2 2.5-6.4 11.9c-2.2 9.6 2 21.3 4.4 25 2.5 3.7 7.9 13.8 19.3 14.3 2.5 0 5.4-.5 8.2-1.7 4-1.7 7.9-4.4 11.1-6.9 4.9-3.7 8.9-6.9 8.4-7.2-1.2-.5-30.2-24.5-30.2-24.5L346.3 418l-3.9 1.3z"/><path class="st72" d="M369.8 459.1s5.9-.5 9.4-2.7-20.5-26-20.5-26l1.7 25.7 9.4 3z"/><path class="st73" d="M344.3 417.5s-3 5.7-3 7.2c-.5 4.9 1 20.3 2.2 25.2 1.2 5.2 7.7 13.1 16.1 13.1 5.2 0 12.4-3.2 12.4-4 0-1-7.4-2-9.4-5.7-1.2-2-1.7-6.9-2-11.9-.2-3.2-.2-6.7 1-7.9 2.7-3 3.2-11.6 3.2-11.6l9.6-17.8h-12.6l-15.1 9.4-2.4 4z"/><path class="st64" d="M340.6 423s9.9-13.1 18.8-16.1c8.9-3 12.9-1.2 12.9-1.2l-5.2 13.3-7.4 8.2.5 4.2s-1.2 11.1 6.2 18.8c7.4 7.7 12.9 7.4 16.1 7.4 3.2 0 12.4-2.7 17.1-13.8 4.2-10.4 7.7-23.7-.7-37.1-8.2-13.3-22.7-13.8-25.5-13.8-2.8.1-24.8 1.1-32.8 30.1z"/><path class="st74" d="M594.5 467.5c-3.7-1.7-.2-12.1 3.5-15.3 3.7-3.2 8.4-6.9 16.6-7.4 3-.2 5.9 1.7 5.4 3.7-.7 3.7-5.9 8.9-10.6 12.6-6.5 5.1-10.7 8.3-14.9 6.4z"/><path class="st75" d="M394.5 410.8c2.7-.2 6.2 2 6.9 4.9.7 3.2-1.7 9.6-6.9 9.6-4.2 0-6.4-5.2-6.4-6.7s.7-3 1-3.5c.2-.3.7-3.8 5.4-4.3z"/><path class="st76" d="M355.5 413.1s-6.9 3.2-10.1 9.9c-3.2 6.7-2.5 13.3-2 15.8s3 8.7 4.7 10.9c1.7 2.2 4 3.7 5.7 3.5 1.7-.2 5.2-4.7 5.2-7.4s.2-14.1 3.5-20.3c2.9-6.2-7-12.4-7-12.4z"/><path class="st77" d="M356.5 412.6c-1.2.7-3.2 1.7-2.7 3 .5 1.2 4.7 2 6.2 4.9 1.7 3 1.7 6.2 1.2 7.7.5-.2 2-1 3.5-2.5 2.2-2.5 4.9-5.9 7.2-5.9 1.5 0 3 .7 4.4.7 2.2 0 4.4-.7 4.7-3 .5-3-4.2-5.7-6.9-5.2.5-2 1.2-4.9-1-6.9s-9.1 1.5-10.6 2.5c-1.6 1-6 4.7-6 4.7z"/><path class="st78" d="M515.4 622.7l14.8-4.4 4.2 3s3 6.4 7.7 7.2c-1.5 3.2-5.4 5.9-5.2 8.2s2.2 4 2.2 4-13.3 22 12.9 44.2c-6.2 2.5-14.1 5.9-18.3 7.9 3 .7 9.4 2 12.1 4.4 2.7 2.5 2.7 3.2 5.2 4.7s4 3.5 3.5 4.4c-1.7-1-7.4-4-8.4-1.2-1 2.7-24.7 1.7-24.7 1.7l-40 7.7s1.5-4-2.7-7.7c-4.9-4.4-10.9.2-17.3-4.7-8.4-6.4-8.7-13.8-11.4-16.6 2.7-1.7 8.2-4.2 21.3-5.9-.5-1-2.2-4-1.2-6.7 1.2-3.5 6.2-5.7 4.7-9.9 2.2-.5 3.2-.5 8.7-7.4 5.2-6.9 8.4-8.4 12.4-8.9s6.4 0 13.8-6.9c5.2-4.9 3.5-9.1 3.5-9.1s3.4-1.1 2.2-8z"/><path class="st79" d="M471.7 624.9c.2-1 1-1.5 6.4-1s39.6-3.2 48.9-3.7c9.4-.7 42.5-.2 58.6 3.2s32.4 7.4 40.3 9.4c7.9 2.2 10.4 3 10.1 4-.2 1-2 2-3 1.7-1-.2-27.2-8.2-35.3-9.9s-36.1-6.2-51.4-5.9c-14.3.2-20-.2-32.1 1.2-12.1 1.5-32.1 3.5-38.1 2.7-5.9-.7-4.7-.7-4.4-1.7z"/><path class="st80" d="M552.2 703.3s20.5 11.1 27.9 24.7c5.4 10.1-3.2 15.1-3.2 15.1s11.6 0 10.1 6.4c-.7 4-20 14.8-32.9 20.5-13.1 5.7-12.6 5.4-19 6.4-6.2 1-23.2-2-26.7 3-3.5 4.9-2 10.1-1 10.9 1 .7 9.1 1.7 9.1 1.7s-1.7 4.7-18.5 5.2-21 1.7-22 3.5c-1 1.7 3.2.7 10.9 2 7.7 1.2 18.5 2 18.5 2s-3.5 3-12.6 5.4c-10.4 2.7-26.7 5.2-31.6 8.2 2.5 1.7 6.2 4.2 7.9 4.4-4.2 1-10.1 3.2-11.1 4 1.5 1 3.5 2.2 3.5 2.2s-8.4 10.1-13.3 12.6-33.1 15.6-42.8 13.1c-24.2-6.4-27.2-32.9-33.1-34.9-8.9-3-13.1 3-21-1.2 3.5-2.5 5.4-4 9.1-5.7-4-2-24.7-15.1-24.7-15.1s-2.5-5.7-7.2-13.8c-4-6.9-9.9-16.1-14.3-24.2-9.6-17.8-10.1-26-18.8-36.1 1.5-2 6.7-1.7 6.7-1.7l72.9 24 129.3 3.7 33.6-48 14.3 1.7z"/><path class="st81" d="M360.7 776.5s1 1.2 2.7 2.2c2.5 1.7 6.2 3.7 8.7 6.7 1-1.5 3.5-4.2 7.9 0s9.9 1.2 13.3 2.2c3.5 1.2 3.7 1.7 3.7 1.7s2-1.7 6.4-3.5c2.7-1 5.9-1.7 9.4-2.7 3.2-.7 6.7-1.7 9.1-1.7 2.2 1.5 10.1 9.9 41.8-2.5 29.9-11.6 36.8-12.9 41.8-11.1.5-1.2 1-3.5 8.7-3.2 0-3.2-6.4-14.1-6.4-14.1l-35.3-12.1h-19.3L395.3 749l-32.1 18.3-2.5 9.2z"/><path class="st82" d="M341.4 756.2s.7 5.4 8.7 11.1c7.9 5.7 10.4 9.1 10.4 9.1s1.5-2 2.7-4c1.2-2.2 2.2-4.7 4.2-5.4 4-1.7 13.1 1.5 15.1 1 1.7-.5 1.2-4 3-4 4.2-.2 6.9 2.7 8.4 2.7s5.2-.2 5.7-1 .7-9.1 6.4-13.1c6.2-4.4 13.8-2.5 15.8-1.5 0 1.5.2 5.2 4.2 5.4 4 .2 4.4-.5 7.9.7s7.7-.2 9.6 5.7c1.7-.5 5.7-1 4.7-6.7 2-1.5 3.7-2.5 7.9-8.4 1-1.5 2.7-3.2 4-5.4 3.5 0 7.7-.7 13.3 4.2-1.7 1.2-2.7 2-3.2 3.2.5.5 2.5 2.5 4 4.7 1.5 2 2.5 4.4 4.4 4.9 4.2 1.2 11.1-.5 18.8 0 7.4.5 13.6 3.2 16.3 4.9 1-.5 1-.7 3.5-.2 2.5.5 4.4.7 1.7-2.5 1.5.7 3.2 2.2 4.7.7 1.5-1.5 2.7-3.7 6.9-4.2s5.7.2 7.4-4.2c2.2-5.4-5.4-5.4-5.4-5.4s3.5-3.2 7.4-7.4c4.7-4.4 10.1-10.1 11.4-17.1 2.2-12.9-10.4-14.6-10.4-14.6l-61.1 18.8-74.7-3.7-63.7 31.7z"/><path class="st83" d="M286.5 579.7s-2 2.5-3.2 8.4c-1.2 5.9-.7 5.2-1.7 9.4s-13.3 46-8.7 60.1 12.6 19.3 17.6 30.7c1 2.5 2 4 2.5 6.2 1.7 7.4.2 13.1 2.2 20.5.7 2.5 2.5 5.4 5.2 8.4 5.9 6.2 15.6 12.1 19.8 16.3 5.9 6.2 14.3 18.8 25 20 5.7.7 13.8-1.7 20.5-5.7 5.9-3.7 9.6-8.9 15.8-11.9 4.4-2.2 9.1-3 13.3-4 8.7-1.7 16.6-2 21.3-1 7.2 1.5 24.2 6.7 33.6 6.7 3.7 0 12.4-.5 21.8-3 14.3-4.2 31.6-11.4 43-14.6 6.7-2 12.1-2.5 17.6-3.7 9.4-2.2 17.3-5.2 21.8-10.9-3-3.5-6.7-8.9-26.7-8.7-22.7.5-48.9 13.1-61.8 15.1-12.9 2-18.5 3.7-32.9-1.5-14.1-5.2-14.6-8.7-14.6-8.7s-14.8-10.4-21-36.8c-6.2-26.5 0-45.7 16.1-64 4.2-4.7 3.2-8.9 3.2-8.9s10.6-14.3 7.7-27.7c-3.2-13.3-23.7-10.6-23.7-10.6l-113.7 19.9z"/><path class="st84" d="M303.6 624.2s-1.5 2.7-1.2 5.4c.2 2.7 1 6.2 9.1 14.1 6.9 6.9 5.4 14.6 5.4 14.6s3.5.7 12.9-3.7c7.4-3.5 9.9 2.7 9.9 2.7s3-1.7 6.9-2.2c4-.5 6.2-2 6.2-2s8.7 8.9 16.3 13.1c6.9 3.7 10.9 6.2 14.3 3.7 3.2-2.2 3.2-6.7 3-8.7 0 0-1-2.5-3-5.2-2.2-3.2-5.7-6.9-5.9-9.9-.5-6.9 5.2-15.1 4-17.1-1.2-2-5.7-2.5-16.8 1.5-11.5 3.8-61.1-6.3-61.1-6.3z"/><path class="st85" d="M329.8 668.9s-5.7-5.4-3.7-31.6c3-.2 7.2.7 7.2.7s3.1 20.3-3.5 30.9z"/><path class="st64" d="M289.2 559.7s1-.7 2.2-2c-2 3.7-11.1 18.5-3.7 41.8 7.4 23.2 26 40.5 48.9 41.3s34.9-10.4 48.7-27.2c5.4-6.7 11.6-15.1 17.1-20.8 8.2-8.9 14.6-11.4 14.6-20 0-17.6-18-25.5-44.5-33.4-26.5-7.9-50.4-6.9-62.8-1.5-12.1 5.9-17.3 12.1-20.5 21.8z"/><path class="st86" d="M374.3 676.8l2-1s.5-7.9 3.7-7.7c3.2.5 4.7 4.7 4.4 6.2-.2 1.5-1 4-4.2 3.7-4.2.1-5.9-1.2-5.9-1.2z"/><path class="st87" d="M365.4 643.2s2-.7 4.4 1.7c2 0 10.6-1 13.3.7 2.7 1.7 3.5 3.2 3.5 3.2s-10.1 2.2-15.6 0c-5.6-1.9-5.6-5.6-5.6-5.6z"/><path class="st88" d="M409.9 644.7c0-.5-5.4-4.2-11.1-5.4-1-.2-1.2.5-2 .5-.5-.2-.7-1.7-.7-1.7l-3.2 1.7s-.5.7 1.2 2c1.5 1.2 4 2.2 4.7 4.2.7 2 .7 2.7 1 3 .2.2 3.7 0 5.4-1 1.7-1.1 4.9-2.6 4.7-3.3z"/><path class="st89" d="M359.4 665s1-6.9 7.7-7.2c6.9-.5 8.2 6.2 8.2 6.2l-4 4c0-.1-3-4.3-11.9-3z"/><path class="st90" d="M402.9 635.3s-3.7 4-11.9 5.2c-.7-1-2.2-3 0-6.2s4.7-4.2 7.2-3.2c2.5.5 4.2 2.2 4.7 4.2z"/><path class="st88" d="M418 640.2c.2-1-.5-1.2 0-1.7s3.2-1.5 3.7-1c.2.2 0 1 0 2s0 2-.5 2.7c-.7 1-2.7 1.5-3.7 1.2-1-.2-1.2-1.7-1.2-2 .5-.2 1.7-.7 1.7-1.2zM435.1 629.4c0-.5 1.7-1.5 2.7-1.5 1.5 0 1.5 1.2 1.7 1.5.5.2.5-.2 1 .7.5 1 1.2 2.5.7 3.5s-2.5 1.7-3 1.5c-.7-.5-2.9-5-3.1-5.7z"/><path class="st83" d="M400.7 642.5s2.2.5 5.2 3c-1 .7-2.5 1.5-2.5 1.5s-.2-2.3-2.7-4.5z"/><path class="st63" d="M395.8 620.5c-.5-.5 1.5-1.7 2.7-1.5 1.2.2 1.7 1 3 1.2s1.5-.5 2-1 2.2-.2 2.5 0c.2.2.5.7.5.7s0-1.2 1-2c1-.7 2-.7 2.7-.5.2.7 1.2 3.2 1 3.7-.2.5-3.2 1.2-3.7.7.5 1.2 2.7 3.7 3 4.2.2.5-2.2 1.7-3.2 1.5-1.4-.1-10-5.1-11.5-7zM408.9 603.9s-.2-.7-1-1.2c-.7-.2-3 0-3 1.2s2 7.9 4.2 11.4c2.5 3.5 4.2 6.4 5.9 7.2 1.7.7 2.7-.5 3-1 .2-.5.7-4.2.5-12.9-.2-8.7-.5-17.1-1-17.6s-2.5-.5-3.2.5-5.2 10.9-5.4 12.4z"/><path class="st90" d="M400 655.1s-3.5-2.2-6.9-.7c-3.2 1.5-3 7.4-3 7.4s2.2 1 4.4-.5 5-4 5.5-6.2z"/><path class="st88" d="M406.6 663c-.2-2-2-2-2-3 .2-1 1.2-1.7 2.2-1.7 1 0 2 1.2 3.2 2 1.2.7 3 2 3.2 3.5s-2 5.7-4.4 5.7c-2.4-.1-1.7-4.5-2.2-6.5zM425.9 660.3s-4 1.2-3.7 0c.2-1.2 1.2-1.5 2.5-1.5.5-.5 1.5-1.2 2.5-1.2s1.5.5 1.5.5 2.7-1.2 3.5-.5c.7.7.2.7.7 1.5.5.7 1.2 2.2 1.2 3s-3 2.5-5.4 2.2c-2.8-.6-2.3-3.5-2.8-4zM449.2 655.8s1.2.7.2 1.5c-.7.7-4.2 2-7.2 2.2-3 0-5.7.5-5.7-.5s2.5-3 4-3.5c.5-.7 1.5-1.2 2.5-1.2 1.2 0 5.9-.5 7.2-.7 1.2-.2 2.2.5 1.5 1.5-.3.7-2.5.7-2.5.7zM456.1 624.9s-1.5 3.2-3.2 3.2c-1.7-.2-1.7-.7-1.7-1.2 0-.7 1.7-2.5 1.5-3-.5 0-1.7 0-1.5-1.2 0-1 1.7-2.2 3.2-2 .5-.5 2.2-1.5 4-1.5 1.7 0 3.2.5 3.2 1.5s-2 3.2-2.7 3.7c-.8.8-1.8 1.3-2.8.5zM433.3 684s-2 .2-2 1.2c0 .5.5.5 1.2.2.5 0 1.2-.2 1.2-.2.2.2.2 1.2 1.7 1.2.7 0 2.2-.5 3.5-1.2 1.2-.5 2.2-1 2.2-2-.5-1.7-1.5-2.5-3-2.5s-2.2.5-2.2.5-.5-1-2.2 0c-1.7 1-1.5 1-1 1.5.9.8.6 1.3.6 1.3zM422 694.4c0-.5 2.5-1.5 3.2-1.2.7.2 2.7 4 2.7 4.4 0 .5-2.5 1.7-3.5 1.7s-2.7-1.7-2.7-2c0-.2 1.2-.5 1.2-.7.3-.5-.9-1.7-.9-2.2zM414.1 679.8c.5-.2.5-.7 1.2-1.2s1.5-.2 1.5-.2.5-1 1.7-1.2c1.2-.2 2.2 0 2 .5 0 1.5 1 2.5 1 3.7 0 1.2-.7 2.7-3.2 3.7-2.5.7-5.9.7-6.4.5-.5-.2-1-2.2-.5-3.2.4-1.1 1.9-2.1 2.7-2.6z"/><path class="st83" d="M417.3 680.5s-1.7 1-1.7 1.5c-.2.5-.2 1.2-.2 1.5s2.2-.2 2.5-.5c.1-.2-.6-2-.6-2.5z"/><path class="st63" d="M402.4 675.8c1 .2 2.7 0 4 .5 1 .5 1.7 1.5.7 2.7-1 1.2-2 3-4.2 2.7-2.5-.2-4.9-1.5-4.9-2.5-.2-1.2.5-2.7 1.2-3.5 1-.8 1.5-.3 3.2.1z"/><path class="st90" d="M401.2 676.8s-3.2 2.5-4 3.7c-1 1.2-5.9 7.4-7.4 8.7.5-1 1.7-2.5 1.7-2.5s-3 1.7-4.2 5.4c-1.2 3.7 6.7 5.7 11.9 7.2s7.2 2 7.2 2-3-4.4-4.9-9.1c-2-4.7-3-5.2-1.7-7.4 1-2.2 2.5-3.7 2.5-5.4-.6-1.6-1.1-2.6-1.1-2.6z"/><path class="st64" d="M287.2 684.7s.7.2 2.2 0c1.5-.2 17.1-5.9 33.4-4.9 7.2.5 20 1.5 36.1 5.9 20.5 5.4 46 16.1 62.5 22.2 4.4 1.7 8.7 4.7 11.9 5.9 12.6 4.9 13.1 4.9 20.5 6.2 8.7 1.2 17.6-1.7 26.9-3.7 11.4-2.5 30.9-3.7 48-6.2 8.9-1.2 16.3-3.7 16.3-3.7s-13.6 13.6-46.2 18.5c-16.3 2.5-29.7 1.7-39.8.5-10.4-1-17.3-2.5-22.5-4-5.9-1.7-18-6.2-32.9-9.9-10.4-2.7-22-4.7-35.3-7.2-32.8-6-68.4-12.9-81.1-19.6z"/><path class="st91" d="M270.2 557.9l-83.3-77.8"/><path class="st92" d="M270.2 552c-3.5-3.2-7.2-6.4-10.6-9.6-3.5-3.2-6.9-6.4-10.4-9.6l-10.4-9.9c-1.7-1.7-3.5-3.2-5.2-4.9-1.7-1.5-3.7-3.2-5.4-4.7-13.8-13.1-27.7-26.2-41.3-39.3 14.1 12.9 27.9 25.7 42 38.8l4.9 4.9c1.7 1.7 3.5 3.2 5.2 4.9l10.4 9.6c3.5 3.2 6.9 6.4 10.4 9.9s6.9 6.7 10.4 9.9zM87 550s50.2 5.2 74.7 8.7c22.7 3.2 93.7 14.1 93.7 14.1M87 550c14.1 1.2 28.2 2.7 42.3 4.2 7.2.7 14.1 1.5 21 2.2l10.6 1.2c3.5.5 6.9 1 10.4 1.5l42 6.7 21 3.5c6.9 1.2 13.8 2.5 21 3.7-6.9-.7-14.1-1.7-21-2.7l-21-3-42-6.2c-3.5-.5-6.9-1.2-10.4-1.7l-10.6-1.2c-6.9-.7-14.1-1.7-21-2.5-14.1-1.7-28.2-3.5-42.3-5.7zM250.4 585.9s-53.6 13.6-71.7 18.8C160.9 609.6 107 626 107 626"/><path class="st92" d="M250.4 585.9c-11.9 3.5-23.7 6.9-35.8 10.1l-35.8 9.6c-11.9 3.5-23.7 6.9-35.6 10.4l-17.8 4.9c-5.9 1.7-11.9 3.2-18 4.9 5.9-2 11.9-4 17.8-5.7l17.8-5.7c11.9-3.7 23.7-7.2 35.6-10.9 12.1-3 24-6.2 36.1-9.1 11.5-2.9 23.6-5.8 35.7-8.5zM114.5 659c5.9-2.2 73.9-33.9 89.7-41.3 7.9-3.7 30.9-11.9 30.9-11.9"/><path class="st92" d="M114.5 659c5.2-2 10.1-4.4 15.1-6.7l14.8-6.9 29.7-14.3c9.9-4.7 19.5-9.9 29.7-14.3 5.2-2.2 10.4-4 15.6-5.7l7.9-2.5c2.7-.7 5.2-1.5 7.9-2.2-9.9 4.7-20.3 8.7-30.2 13.3-9.9 4.9-20 8.9-30.2 13.3l-30.2 13.3c-10.1 4.1-20 8.5-30.1 12.7zM121.1 686.7s61.6-36.1 82.8-47.7c11.1-6.2 47-24 47-24"/><path class="st92" d="M121.1 686.7c10.4-6.4 21-12.9 31.6-19.5l15.8-9.6c5.4-3.2 10.6-6.2 16.1-9.4 5.4-3.2 10.6-6.4 16.1-9.4 2.7-1.7 5.4-3 8.2-4.2l8.4-4.2c11.1-5.4 22.2-10.9 33.9-15.6-10.6 6.7-21.5 12.4-32.4 18.3-5.4 3-10.9 5.7-16.3 8.7-5.4 3-10.6 6.2-16.1 9.1-5.4 3.2-10.6 6.2-16.1 9.1l-16.3 8.9c-11.1 6-22 11.9-32.9 17.8zM250.4 622.9s-38.3 29.4-50.7 38.8c-12.4 9.4-48.9 35.8-48.9 35.8"/><path class="st92" d="M250.4 622.9c-7.9 6.7-16.3 13.1-24.5 19.3l-24.7 19c-8.4 6.2-16.6 12.6-25 18.8-8.4 6.2-16.8 12.1-25.7 17.8 7.9-6.7 16.3-12.9 24.7-19s17.1-12.1 25.2-18.3l24.7-19c8.5-6.2 16.7-12.6 25.3-18.6zM206.7 692.9s8.9-7.4 20-17.8c13.8-12.9 30.7-29.4 36.1-32.4"/><path class="st92" d="M206.7 692.9c4.4-4.4 9.1-8.7 13.8-12.9l7.2-6.2c2.2-2 4.7-4.2 6.9-6.4 4.4-4.4 8.7-9.1 13.1-13.6 2.2-2.2 4.4-4.4 6.9-6.4 1.2-1 2.5-2 4-2.7 1.2-.7 2.5-2 4.2-2.2-1 1.5-2.2 2.2-3.2 3.5-1.2 1-2.2 2.2-3.2 3.2-2.2 2.2-4.7 4.2-6.9 6.2-4.7 4-9.6 7.9-14.3 12.1-4.7 4.2-9.1 8.7-13.8 12.9-5.1 4.3-9.8 8.5-14.7 12.5zM266.5 652.9s-32.6 31.9-39.3 37.1"/><path class="st92" d="M266.5 652.9c-3 3.5-6.2 6.7-9.4 9.6l-9.9 9.4c-3.2 3.2-6.2 6.4-9.6 9.6-3.5 3-6.7 5.9-10.4 8.7l9.6-9.4c3.2-3.2 6.7-5.9 10.1-9.1l9.6-9.4c3.3-3.3 6.5-6.5 10-9.4zM268 670.2s-3.7 10.9-10.6 24.5c-8.4 16.8-21 37.8-26.5 48.5"/><path class="st92" d="M268 670.2c0 3.7-1 6.9-2.2 10.1-1.2 3.2-2.5 6.4-4 9.4s-3.2 6.2-4.9 9.1c-1.7 3-3.7 5.9-5.2 8.9l-10.1 17.8c-3.5 5.9-6.9 11.9-10.6 17.6 2.5-6.4 5.9-12.4 9.1-18.3 3.5-5.9 6.7-11.9 9.9-18 1.5-3 3-6.2 4.2-9.4 1.5-3.2 3-6.2 4.2-9.1 1.5-3.2 2.7-6.2 4.2-9.1 1.7-3.1 3.1-6.1 5.4-9z"/><path class="st93" d="M303.6 752.2s-9.9 13.1-8.9 29.7c2.7-8.7 6.1-22 8.9-29.7zM313 765.3s-3.5 35.6-6.4 53.1c4.1-20.2 4.9-18.5 6.4-53.1zM378.5 820.5s-14.8 43.5-15.1 55.6c3.2-12.4 9.4-37.8 15.1-55.6z"/><path class="st94" d="M413.1 749.5s24 39.6 42 73.4c-4.9-17-16.1-48.2-42-73.4z"/><path class="st95" d="M477.6 807.8s18.8 32.4 35.6 71.9c-2-17-7.4-46.1-35.6-71.9z"/><path class="st96" d="M667.2 866.2c4-2.5 11.9-16.1 18.8-19.5 6.9-3.5 12.1-4.2 18.3-11.1 6.2-7.2 7.9-11.6 21.5-17.3 19-8.2 5.9-18.8 5.9-18.8s3.2-3.2 6.7-5.7c4.9-3.7 10.6-8.2 10.1-16.1-.7-13.3-3.2-32.6-14.1-43.8 10.6-2.2 30.9-3.7 43.5-6.9 14.6-3.7 21.3-8.9 21.3-8.9s-8.4-14.3 5.2-28.7c13.6-14.3 24.7-23 32.9-39.1-9.4-1.2-23.7-6.2-60.3 7.7 2.7 1.2 5.7 3.2 5.7 3.2s-22.5 6.2-30.7 13.1c-14.3 12.1-16.1 22-31.6 29.4-15.6 7.4-31.1 5.4-44 11.4-12.9 5.9-14.8 11.1-19.5 13.3 1 1.2-.2 3.2 1.7 4.9-1.2 1.7-8.2 13.1-15.3 13.1.7 2.7 6.7 4.7 6.7 4.7s-4.4 3.2-15.6 4c5.7 5.9 11.1 12.4 26 21.8-1.2 2.5-6.2 6.2-4.2 10.9 2.2 4.7 7.9 11.1 30.7 16.3-11.6.5-25.2 3.2-43.5.7-18.3-2.2-21.3-3.5-32.6-.7 1.2 1.2 4.4 1.2 7.2 4.4-3 .2-21.8-2.2-28.2 6.2-6.7 8.7-9.6 23-9.1 32.6-3.5 1.7-6.9 4.7-5.2 10.9s10.6 8.2 16.3 12.1c5.7 4.2 6.2 5.7 11.6 4.7 5.7-1.2 14.1-6.9 19-6.9s8.4 3.7 8.4 3.7 13.3-6.4 14.6-5.2c1.2 1.2.2 8.9 1.5 10.1 1.3.9 16.3-8 20.3-10.5z"/><path class="st97" d="M957.9 466c-62.5-161.4-217-191.3-217-191.3H300.1l1.7 164.4h87.8v367.1h-89.5v164.1h428.6c103.3 0 186.1-103.8 186.1-103.8C1047.4 678.3 957.9 466 957.9 466zM731 755.9s-33.6 48.5-70.2 48.5h-73.2l-1.7-364.9h93.9s43.5 9.1 73.9 95.2c0 0 40.3 123.3-22.7 221.2z"/></svg>