<?xml version="1.0" encoding="utf-8"?>
<!-- Generator: Adobe Illustrator 27.7.0, SVG Export Plug-In . SVG Version: 6.00 Build 0)  -->
<svg version="1.1" id="Layer_1" xmlns="http://www.w3.org/2000/svg" xmlns:xlink="http://www.w3.org/1999/xlink" x="0px" y="0px"
	 viewBox="0 0 500 500" style="enable-background:new 0 0 500 500;" xml:space="preserve">
<style type="text/css">
	.st0{fill:#00EDBE;}
	.st1{fill:#141BEB;}
</style>
<g id="icon_logo" transform="translate(-347.682 -127.304)">
	<g id="Group_40313" transform="translate(347.682 127.304)">
		<g id="Group_40312" transform="translate(0)">
			<g id="Group_39074" transform="translate(0)">
				<path id="Path_32914" class="st0" d="M247.3,0C109.2,1.7-1.3,115,0.4,253.1s115,248.6,253.1,246.9
					c136.8-1.7,246.9-113.1,246.9-250C499.5,111.1,386.2-0.8,247.3,0z"/>
			</g>
		</g>
	</g>
	<g id="Group_45823" transform="translate(59.986)">
		<g id="Group_45822">
			<path id="Path_95273" class="st1" d="M635,284.9c-0.7-12.5,2.4-24.9,8.8-35.7h-204c-7.7,0-13.9,6.2-14,13.9c0,0,0,0,0,0v43.6
				c0,7.7,6.3,13.9,14,13.9h0h204C637.4,309.8,634.3,297.4,635,284.9"/>
			<path id="Path_95274" class="st1" d="M393.9,378c0.7,12.5-2.4,24.9-8.8,35.7h204c7.7,0,13.9-6.2,14-13.9v0v-43.6
				c0-7.7-6.3-13.9-14-13.9c0,0,0,0,0,0h-204C391.5,353.1,394.6,365.5,393.9,378"/>
			<path id="Path_95275" class="st1" d="M635,471.1c-0.7-12.5,2.4-24.9,8.8-35.7h-204c-7.7,0-13.9,6.2-14,13.9l0,0v43.6
				c0,7.7,6.3,13.9,14,13.9l0,0h204C637.4,496,634.3,483.6,635,471.1"/>
		</g>
	</g>
</g>
</svg>
