<?xml version="1.0" encoding="utf-8"?>
<!-- Generator: Adobe Illustrator 27.0.1, SVG Export Plug-In . SVG Version: 6.00 Build 0)  -->
<svg version="1.1" id="erg" xmlns="http://www.w3.org/2000/svg" xmlns:xlink="http://www.w3.org/1999/xlink" x="0px" y="0px"
	 viewBox="0 0 500 500" style="enable-background:new 0 0 500 500;" xml:space="preserve">
<style type="text/css">
	.st0{fill-rule:evenodd;clip-rule:evenodd;}
</style>
<path class="st0" d="M234.2,314h96.4v44.8H169.4v-40.7l63.4-70.2l-63.1-65.8v-40.8h160.8v44.8h-94.3l58.5,61.3L234.2,314L234.2,314z
	"/>
<path d="M250,46.3l144,59.7L453.7,250l-59.7,144.1L250,453.8l-144-59.7L46.3,250l59.7-144L250,46.3z M250,1c-2.6,0-5.1,0.5-7.5,1.5
	L80.3,69.7c-4.8,2-8.6,5.8-10.6,10.5L2.5,242.5c-2,4.8-2,10.1,0,14.9l67.2,162.3c2,4.8,5.8,8.6,10.6,10.5l162.3,67.2
	c4.8,2,10.1,2,14.9,0l162.3-67.2c4.8-2,8.6-5.8,10.5-10.5l67.2-162.3c2-4.8,2-10.1,0-14.9L430.3,80.3c-2-4.8-5.8-8.6-10.6-10.5
	L257.5,2.5C255.1,1.5,252.6,1,250,1z"/>
</svg>
