<?xml version="1.0" encoding="utf-8"?>
<!-- Generator: Adobe Illustrator 27.1.1, SVG Export Plug-In . SVG Version: 6.00 Build 0)  -->
<svg version="1.1" id="Layer_1" xmlns="http://www.w3.org/2000/svg" xmlns:xlink="http://www.w3.org/1999/xlink" x="0px" y="0px"
	 viewBox="0 0 500 500" style="enable-background:new 0 0 500 500;" xml:space="preserve">
<style type="text/css">
	.st0{fill:#7E6BE4;}
</style>
<path class="st0" d="M250,1C112.5,1,1,112.5,1,250s111.5,249,249,249s249-111.5,249-249S387.5,1,250,1z M304.7,415.7l-98.8-141.8
	c-11-15.7-8.6-37.3,5.6-50.2l10.1-9.2c14.5-13.2,15.5-35.6,2.3-50.1c-13.2-14.4-35.6-15.5-50.1-2.3l-10.1,9.2
	c-40.3,36.8-47.2,98.2-16,143l75.3,108.2c-83.5-13-147.7-85.4-147.7-172.5c0-76.5,49.4-141.4,117.9-165.1L291.6,226
	c11,15.7,8.6,37.3-5.6,50.2l-10.1,9.2c-14.5,13.2-15.5,35.6-2.3,50.1c7,7.7,16.5,11.6,26.2,11.6c8.6,0,17-3,23.9-9.3l10.1-9.2
	c40.3-36.8,47.2-98.2,16-143L274.2,77.2C359.1,88.9,424.6,162,424.6,250C424.6,327.2,374.3,392.7,304.7,415.7z"/>
</svg>
