<?xml version="1.0" encoding="utf-8"?>
<!-- Generator: Adobe Illustrator 26.2.1, SVG Export Plug-In . SVG Version: 6.00 Build 0)  -->
<svg version="1.1" id="flux" xmlns="http://www.w3.org/2000/svg" xmlns:xlink="http://www.w3.org/1999/xlink" x="0px" y="0px"
	 viewBox="0 0 500 500" style="enable-background:new 0 0 500 500;" xml:space="preserve">
<style type="text/css">
	.st0{fill:#2B61D1;}
	.st1{fill:#FFFFFF;}
</style>
<path id="Path_81" class="st0" d="M251.7,0C389.7,0.9,500.9,113.6,500,251.7C499.1,389.7,386.4,500.9,248.3,500
	C110.9,499.1,0,387.4,0,250C0.5,111.5,113.1-0.5,251.7,0z"/>
<path id="Path_73" class="st1" d="M281.5,395.2l-28.7,16.6l-61.6-35.5l28-16.1l0.7-0.4l1.1,0.6L281.5,395.2z"/>
<path id="Path_74" class="st1" d="M391.5,171.5v33.3l-60.6-35l-16.4-9.5l-16.4,9.5l-77,44.5l-16.4,9.5v19.6l-29.6-17.1l-16.4-9.5
	l-16.4,9.5l-27.9,16.1v-70.9l138.7-80.1L391.5,171.5z"/>
<path id="Path_75" class="st1" d="M391.5,242.7v89l-77,44.4h-0.1l-77-44.4v-89l77.1-44.5L391.5,242.7z"/>
<path id="Path_76" class="st1" d="M202.8,280.4v51.2l-44.3,25.6l-44.3-25.6v-51.2l44.3-25.6L202.8,280.4z"/>
</svg>
