<?xml version="1.0" encoding="utf-8"?>
<!-- Generator: Adobe Illustrator 27.7.0, SVG Export Plug-In . SVG Version: 6.00 Build 0)  -->
<svg version="1.1" id="Layer_1" xmlns="http://www.w3.org/2000/svg" xmlns:xlink="http://www.w3.org/1999/xlink" x="0px" y="0px"
	 viewBox="0 0 500 500" style="enable-background:new 0 0 500 500;" xml:space="preserve">
<style type="text/css">
	.st0{fill-rule:evenodd;clip-rule:evenodd;fill:#F0D1CC;}
	.st1{fill:#846A67;}
	.st2{fill:#83605B;}
	.st3{fill:#654A49;}
	.st4{fill:#664F4E;}
	.st5{fill:#55403F;}
	.st6{fill:#432F30;}
	.st7{fill:#CC9C95;}
	.st8{fill:#513C3C;}
	.st9{fill:#7C6462;}
	.st10{fill:#C3958E;}
	.st11{fill:#554142;}
	.st12{fill:#6B4944;}
	.st13{fill:#4F3B3B;}
	.st14{fill:#442F2F;}
	.st15{fill:#93645E;}
	.st16{fill:#6F5555;}
	.st17{fill:#836867;}
	.st18{fill:#6E5655;}
	.st19{fill:#453333;}
	.st20{fill:#D79C93;}
	.st21{fill:#705655;}
	.st22{fill:#7B6362;}
	.st23{fill:#EFAC9E;}
	.st24{fill:#745757;}
</style>
<path class="st0" d="M250,500c138.1,0,250-111.9,250-250S388.1,0,250,0S0,111.9,0,250S111.9,500,250,500z"/>
<path class="st1" d="M200,150l50-25l50,25v37.5H200V150z"/>
<path class="st2" d="M200,150l50,25l12.5,43.8L250,262.5l-50-25V150z"/>
<path class="st3" d="M300,150l-50,25v87.5l50-25V150z"/>
<path class="st1" d="M200,262.5l50-25l50,25V300H200V262.5z"/>
<path class="st4" d="M200,262.5l50,25l12.5,43.8L250,375l-50-25V262.5z"/>
<path class="st5" d="M300,262.5l-50,25V375l50-25V262.5z"/>
<path class="st6" d="M100,262.5l50-25l50,25V300H100V262.5z"/>
<path class="st7" d="M100,262.5l50,25l12.5,43.8L150,375l-50-25V262.5z"/>
<path class="st8" d="M200,262.5l-50,25V375l50-25V262.5z"/>
<path class="st9" d="M100,150l50-25l50,25v37.5H100V150z"/>
<path class="st10" d="M100,150l50,25l12.5,43.8L150,262.5l-50-25V150z"/>
<path class="st11" d="M200,150l-50,25v45.3v42.2l50-25V150z"/>
<path class="st1" d="M200,100l50-25l50,25v37.5H200V100z"/>
<path class="st12" d="M200,100l50,25l12.5,43.8L250,212.5l-50-25V100z"/>
<path class="st13" d="M300,100l-50,25v87.5l50-25V100z"/>
<path class="st14" d="M300,262.5l50-25l50,25V300H300V262.5z"/>
<path class="st15" d="M300,262.5l50,25l12.5,43.8L350,375l-50-25V262.5z"/>
<path class="st16" d="M400,262.5l-50,25V375l50-25V262.5z"/>
<path class="st17" d="M300,150l50-25l50,25v37.5H300V150z"/>
<path class="st15" d="M300,150l50,25l12.5,43.8L350,262.5l-50-25V150z"/>
<path class="st18" d="M400,150l-50,25v87.5l50-25V150z"/>
<path class="st19" d="M200,312.5l50-25l50,25V350H200V312.5z"/>
<path class="st20" d="M200,312.5l50,25l12.5,43.8L250,425l-50-25V312.5z"/>
<path class="st21" d="M300,312.5l-50,25V425l50-25V312.5z"/>
<path class="st22" d="M200,200l50-25l50,25v37.5H200V200z"/>
<path class="st23" d="M200,200l50,25l12.5,43.8L250,312.5l-50-25V200z"/>
<path class="st24" d="M300,200l-50,25v87.5l50-25V200z"/>
</svg>
