<?xml version="1.0" encoding="utf-8"?>
<!-- Generator: Adobe Illustrator 27.1.1, SVG Export Plug-In . SVG Version: 6.00 Build 0)  -->
<svg version="1.1" id="ftc" xmlns="http://www.w3.org/2000/svg" xmlns:xlink="http://www.w3.org/1999/xlink" x="0px" y="0px"
	 viewBox="0 0 500 500" style="enable-background:new 0 0 500 500;" xml:space="preserve">
<style type="text/css">
	.st0{fill:#354A51;}
</style>
<path class="st0" d="M250,1C112.6,1,1,112.6,1,250s111.6,249,249,249s249-111.6,249-249S387.4,1,250,1z M250,22.7
	c125.7,0,227.3,101.7,227.3,227.3S375.7,477.3,250,477.3S22.7,375.7,22.7,250S124.3,22.7,250,22.7z M376.8,87.6
	c-38.9,20-73.1,50-105.1,79.1c-3.9,3.6-11.9,8.9-13.4,12.7c-1.2,3-1,8.1-1.6,12c-0.5,3.9-1,8.1-1.6,11.6c-1.2,7.5-2.3,14.9-6.9,20
	c-5.6-4.5-5.2-16-7.1-24.9c-1.2-0.4-1.9,1.2-2.8,2.1c-7,6.8-15.2,14.8-22.4,21.6c-2.7,18.4-5.2,38.1-9.4,55.4
	c-1.3,5.3-2.5,11.5-6.4,15c-4.8-8.5-5-23.2-5.2-36.5c-0.1-5.2-0.7-10.4-0.4-15.3c-1.2-0.5-2.4,1.4-3.5,2.5c-3.1,3.2-7.2,7.6-10.3,11
	c1.3,19.9,4.3,44.9,3.1,66.6c-0.3,5.2-0.8,11.7-3.3,12.1c-3.8,0.6-8.8-14.3-10-17.4c-2.7-7.7-4.3-14-6.5-21.1
	c-1.4-0.6-1.9,1.6-2.4,2.4c-6.9,11.5-7.4,30.2-6.1,49.9c-6.4-13.6-13.9-25.9-22.3-37c-1.8-2.4-3.2-1.8-2,1.1
	c5.3,12.7,9.9,27.8,13.8,42.3c-7.5-10.7-19.1-18.5-31.8-24.7c-4.2-2.1-5.4,0.3-1.9,3.7c8.6,8.2,16.3,17.3,24.2,26.2
	c-4.7,5.1-8.1,16.1-4.1,25.2c1.6-3.1,2.8-5.9,4.9-9.5c1.4-2.4,3.7-7.2,7.3-6.9c3.4,0.3,6,9,4.7,13.9c-2.6,10.2-14,22-18.4,28.6
	c-1.8,2.7-1.8,4.6,0.3,2.7c9.5-8.7,19-17.8,25.4-29.1c8.2,7.2,18.4,11.9,29.2,15.8c3.6,1.3,3.7,0.1,0.2-2.1
	c-3.4-2.2-6.6-4.7-9.3-7.6c-5.2-5.6-10.9-13.2-10.6-22.8c3.2,0.8,3.2,3.9,4.7,5.9c8.4,11.5,25.5,15.6,42.7,17.5
	c3.3,0.4,3.3-1,0.3-1.9c-16.2-4.9-29.6-13.1-35.8-29.9c29.4,4.2,74.2,9.9,100.2-5.5c-32.8,0.3-63.4-2-93.9-4.5
	c9.4-15.8,37-18.6,61.2-18.9c6-0.1,13.7,1.8,17.4,0.5c1.9-0.7,4.3-5.9,6.1-8.4c13.7-19.6,27.6-38.9,40-58.4
	c-9.3-0.3-20.3,1.6-25.1-3.9c3.3-7.4,14-9,24.5-9.1c2.3,0,4.8,0.7,6.9,0c2.9-1,8.6-9.8,11.6-13.7c10.7-14,22.5-29.6,32.5-42.6
	c7.2-9.4,14.5-19,20.5-29.6c5.9-10.5,11.5-23.3,11.8-37.5C391.1,109.2,385.4,95.2,376.8,87.6z M342.9,145.6
	c-20.3,30.4-39.4,61.7-61.8,90.3c-22.3,28.5-47.5,54.5-71,80.9C250.6,256.2,296.5,200.6,342.9,145.6z"/>
</svg>
