<?xml version="1.0" encoding="utf-8"?>
<!-- Generator: Adobe Illustrator 27.1.1, SVG Export Plug-In . SVG Version: 6.00 Build 0)  -->
<svg version="1.1" id="fun" xmlns="http://www.w3.org/2000/svg" xmlns:xlink="http://www.w3.org/1999/xlink" x="0px" y="0px"
	 viewBox="0 0 500 500" style="enable-background:new 0 0 500 500;" xml:space="preserve">
<style type="text/css">
	.st0{fill:#DD2664;}
</style>
<path id="XMLID_4_" class="st0" d="M176,14.8c7.4,6.6,74.2,92.5,78.8,101.5c-44.5-0.9-81.7,14.9-110,49
	c-28.1,34-36.4,73.3-27.8,117.8c31.4-23.8,61-48.1,92.3-71.7c23.1,29.6,45.8,58.6,69,88.3c-15.7,12.9-31.5,24.7-47,36.9
	c-15.3,12-30.6,24.1-46,36.2c32.1,41.1,63.9,81.7,95.9,122.5c-25.1,7.4-83.6,3.7-127.7-15.3c-64.8-28-111-74.7-135.9-140.7
	C-32,207.9,35.4,59.3,176,14.8z M249.8,401c16.2,20.8,32.5,41.6,48.8,62.4c6.2,7.9,12.4,15.7,18.6,23.6c2,2.6,4,4.5,8,3.1
	c17.6-6.4,34.9-13.5,51-23.2c33.4-20,61.1-46,82.2-78.8c22.9-35.6,37.1-74.4,39.4-116.9c1-18.4,1.2-36.9-1.4-55.3
	c-4.1-27.9-12.3-54.3-25.3-79.4c-23.6-45.3-58.1-80.2-102.5-105C335.8,13.2,300.3,4.1,263,1.5c-16.3-1.1-32.7,0-49,1.7
	c-0.7,0.1-1.3,0.6-2.8,1.3c16.4,21,32.5,41.8,48.7,62.5c16.2,20.8,32.4,41.6,49.1,62.8c-31.2,24.4-62,48.5-93.2,72.8
	c24.1,31.7,48.4,62.1,72.6,92.8c15.5-12.1,30.2-23.7,45-35.2c14.8-11.6,29.3-23.6,45-34.7c6.4,28.7,2.3,67.9-18.5,98.3
	c-28.9,42.3-69.7,61.2-122.2,60.2C242.4,390.8,245.9,396,249.8,401z M263.7,396.8c107-13.2,152.2-120.3,121.7-194.5
	c-31.7,24.7-63.2,49.3-95,74.1c-18.6-23.8-36.8-47-55.6-71c15.4-12.8,31.1-24.6,46.6-36.8c15.3-12.1,30.8-24,46.7-36.3
	c-30.2-38.8-60.2-77.2-91-116.7c4.2-0.3,7.5-0.9,10.9-0.8c38.1,0.1,74.2,8.4,108.2,25.6c25,12.7,46.8,29.5,65.9,50
	c22.7,24.3,39.4,52,50.3,83.4c5.5,16,9,32.3,11.2,49.1c2.1,16.4,2.2,32.8,0.9,49c-2.4,29.9-10.5,58.4-24.1,85.4
	c-18.8,37.4-45.8,67.6-80.4,91.1c-16.7,11.3-34.7,19.9-54.8,26.9C304.6,448.9,284.3,423.1,263.7,396.8z"/>
</svg>
