<?xml version="1.0" encoding="utf-8"?>
<!-- Generator: Adobe Illustrator 27.0.1, SVG Export Plug-In . SVG Version: 6.00 Build 0)  -->
<svg version="1.1" id="Layer_1" xmlns="http://www.w3.org/2000/svg" xmlns:xlink="http://www.w3.org/1999/xlink" x="0px" y="0px"
	 viewBox="0 0 500 500" style="enable-background:new 0 0 500 500;" xml:space="preserve">
<style type="text/css">
	.st0{fill:#0E1027;}
	.st1{fill:#53CBC8;}
	.st2{fill:#DC167C;}
</style>
<circle class="st0" cx="250.6" cy="249.7" r="248.6"/>
<path class="st1" d="M397.2,213c1.6,0,2.9-1.3,2.9-2.8c0,0,0,0,0,0c0-64.5-51.5-116.7-115-116.7s-115,52.3-115,116.7c0,0,0,0,0,0
	c0,1.6,1.3,2.8,2.9,2.8H397.2z"/>
<path class="st2" d="M128.3,248.1L128.3,248.1c-4.1,0-7.5-3.4-7.5-7.5v0c0-4.1,3.4-7.5,7.5-7.5h0c4.1,0,7.5,3.4,7.5,7.5v0
	C135.8,244.7,132.4,248.1,128.3,248.1z"/>
<path class="st2" d="M416.8,248.1H153.1c-4.1,0-7.5-3.4-7.5-7.5v0c0-4.1,3.4-7.5,7.5-7.5h263.7c4.1,0,7.5,3.4,7.5,7.5v0
	C424.3,244.7,420.9,248.1,416.8,248.1z"/>
<path class="st2" d="M128.3,312L128.3,312c-4.1,0-7.5-3.4-7.5-7.5v0c0-4.1,3.4-7.5,7.5-7.5h0c4.1,0,7.5,3.4,7.5,7.5v0
	C135.8,308.6,132.4,312,128.3,312z"/>
<path class="st2" d="M386,312h-233c-4.1,0-7.5-3.4-7.5-7.5v0c0-4.1,3.4-7.5,7.5-7.5h233c4.1,0,7.5,3.4,7.5,7.5v0
	C393.5,308.6,390.2,312,386,312z"/>
<path class="st2" d="M87.3,344L87.3,344c-4.1,0-7.5-3.4-7.5-7.5v0c0-4.1,3.4-7.5,7.5-7.5h0c4.1,0,7.5,3.4,7.5,7.5v0
	C94.8,340.6,91.5,344,87.3,344z"/>
<path class="st2" d="M203.5,344h-91.4c-4.1,0-7.5-3.4-7.5-7.5v0c0-4.1,3.4-7.5,7.5-7.5h91.4c4.1,0,7.5,3.4,7.5,7.5v0
	C211,340.6,207.7,344,203.5,344z"/>
<path class="st2" d="M246.5,374.7L246.5,374.7c-4.1,0-7.5-3.4-7.5-7.5v0c0-4.1,3.4-7.5,7.5-7.5h0c4.1,0,7.5,3.4,7.5,7.5v0
	C254,371.3,250.7,374.7,246.5,374.7z"/>
<path class="st2" d="M389.8,374.7H271.3c-4.1,0-7.5-3.4-7.5-7.5v0c0-4.1,3.4-7.5,7.5-7.5h118.5c4.1,0,7.5,3.4,7.5,7.5v0
	C397.3,371.3,393.9,374.7,389.8,374.7z"/>
<path class="st2" d="M174.1,406.4L174.1,406.4c-4.1,0-7.5-3.4-7.5-7.5l0,0c0-4.1,3.4-7.5,7.5-7.5h0c4.1,0,7.5,3.4,7.5,7.5l0,0
	C181.6,403,178.2,406.4,174.1,406.4z"/>
<path class="st2" d="M317.3,406.4H198.9c-4.1,0-7.5-3.4-7.5-7.5l0,0c0-4.1,3.4-7.5,7.5-7.5h118.5c4.1,0,7.5,3.4,7.5,7.5l0,0
	C324.8,403,321.5,406.4,317.3,406.4z"/>
<path class="st2" d="M426.9,344H233.6c-4.1,0-7.5-3.4-7.5-7.5v0c0-4.1,3.4-7.5,7.5-7.5h193.3c4.1,0,7.5,3.4,7.5,7.5v0
	C434.4,340.6,431,344,426.9,344z"/>
<path class="st2" d="M73.5,279.7L73.5,279.7c-4.1,0-7.5-3.4-7.5-7.5l0,0c0-4.1,3.4-7.5,7.5-7.5h0c4.1,0,7.5,3.4,7.5,7.5l0,0
	C81,276.4,77.7,279.7,73.5,279.7z"/>
<path class="st2" d="M293.1,279.7H98.3c-4.1,0-7.5-3.4-7.5-7.5l0,0c0-4.1,3.4-7.5,7.5-7.5h194.8c4.1,0,7.5,3.4,7.5,7.5l0,0
	C300.6,276.4,297.3,279.7,293.1,279.7z"/>
</svg>
