<?xml version="1.0" encoding="utf-8"?>
<!-- Generator: Adobe Illustrator 27.7.0, SVG Export Plug-In . SVG Version: 6.00 Build 0)  -->
<svg version="1.1" id="레이어_1" xmlns="http://www.w3.org/2000/svg" xmlns:xlink="http://www.w3.org/1999/xlink" x="0px"
	 y="0px" viewBox="0 0 500 500" style="enable-background:new 0 0 500 500;" xml:space="preserve">
<style type="text/css">
	.st0{fill:#040000;}
	.st1{fill:#0C1433;}
	.st2{fill:#6FC8EF;}
	.st3{fill:#7ACBEB;}
	.st4{fill:#24BBEE;}
	.st5{fill:#009DD2;}
	.st6{fill:#0EABE1;}
	.st7{fill:#29BBEE;}
	.st8{fill:#97D5EE;}
	.st9{fill:#4ABFED;}
	.st10{fill:#0EADE4;}
	.st11{fill:#4CC0EC;}
	.st12{fill:#04ADE3;}
	.st13{fill:#06AFE2;}
</style>
<g>
	<circle class="st0" cx="250" cy="250" r="250"/>
	<circle class="st1" cx="250" cy="250" r="250"/>
	<g>
		<polygon class="st2" points="133.6,90.9 211.2,135.9 133.6,182.6 		"/>
		<polygon class="st3" points="288.8,89.1 366.4,134.2 288.8,180.9 		"/>
		<polygon class="st2" points="133.6,182.7 211.2,227.7 133.6,274.5 		"/>
		<polygon class="st4" points="288.8,180.9 366.4,226 288.8,272.7 		"/>
		<polygon class="st5" points="288.8,272.6 366.4,317.6 288.8,364.4 		"/>
		<polygon class="st6" points="211.2,227.7 288.8,272.7 211.2,319.5 		"/>
		<polygon class="st7" points="133.6,274.2 211.2,319.2 133.6,366 		"/>
		<polygon class="st8" points="211.2,227.7 133.6,182.6 211.2,135.9 		"/>
		<polygon class="st9" points="366.4,225.9 288.8,180.9 366.4,134.2 		"/>
		<polygon class="st10" points="366.4,317.7 288.8,272.7 366.4,225.9 		"/>
		<polygon class="st11" points="288.8,272.7 211.2,227.7 288.8,180.9 		"/>
		<polygon class="st9" points="211.2,319.5 133.6,274.4 211.2,227.7 		"/>
		<polygon class="st12" points="211.2,410.9 133.6,365.8 211.2,319.1 		"/>
		<polygon class="st13" points="366.4,409.6 288.8,364.6 366.4,317.8 		"/>
	</g>
</g>
</svg>
