<?xml version="1.0" encoding="utf-8"?>
<!-- Generator: Adobe Illustrator 27.5.0, SVG Export Plug-In . SVG Version: 6.00 Build 0)  -->
<svg version="1.1" id="Layer_1" xmlns="http://www.w3.org/2000/svg" xmlns:xlink="http://www.w3.org/1999/xlink" x="0px" y="0px"
	 viewBox="0 0 500 500" style="enable-background:new 0 0 500 500;" xml:space="preserve">
<style type="text/css">
	.st0{fill:#1EEFA4;}
	.st1{fill-rule:evenodd;clip-rule:evenodd;fill:#1EEFA4;}
</style>
<path class="st0" d="M292.3,338.3c0-21.2,17.2-38.4,38.5-38.4h15.4c21.2,0,38.4,17.2,38.4,38.4v15.3c0,21.2-17.2,38.4-38.5,38.4
	h-15.4c-21.2,0-38.4-17.2-38.4-38.4V338.3L292.3,338.3z M330.8,161.7c-21.2,0-38.4,17.2-38.5,38.4c0,0,0,0,0,0v15.4
	c0,21.2,17.2,38.4,38.5,38.4h15.4c21.2,0,38.4-17.2,38.4-38.4v-15.3c0-21.2-17.2-38.4-38.5-38.4L330.8,161.7L330.8,161.7z"/>
<path class="st1" d="M153.8,0.4C68.9,0.4,0,69.2,0,154v192c0,84.8,68.9,153.6,153.8,153.6h192.3c85,0,153.8-68.8,153.8-153.6V154
	C500,69.2,431.1,0.4,346.1,0.4H153.8z M346.2,61.8H153.8c-51,0-92.3,41.3-92.3,92.2v192c0,50.9,41.3,92.2,92.3,92.2h192.3
	c51,0,92.3-41.3,92.3-92.2V154C438.4,103.1,397.1,61.9,346.2,61.8L346.2,61.8z"/>
</svg>
