<?xml version="1.0" encoding="utf-8"?>
<!-- Generator: Adobe Illustrator 26.5.0, SVG Export Plug-In . SVG Version: 6.00 Build 0)  -->
<svg version="1.1" baseProfile="tiny" id="ilv" xmlns="http://www.w3.org/2000/svg" xmlns:xlink="http://www.w3.org/1999/xlink"
	 x="0px" y="0px" viewBox="0 0 500 500" overflow="visible" xml:space="preserve">
<path d="M250.3,66.6c-2.7,81.3-2.6,168.8,0,250.7C252.6,235.5,252.7,148,250.3,66.6z M160,497l0.2,0.6c0.8-0.4,1.6-0.7,2.4-1.2
	c16.1-8.9,33.2-15.4,50.7-21.1c22.2-7.2,44.8-8,67.3-1.8c19.5,5.3,38.3,12.8,56.1,22.2c1.1,0.6,2,1.8,3.7,1.4
	c-0.2-0.3-0.4-0.6-0.6-0.8c-28.1-21.5-56.1-43.1-84.2-64.6c-4-3.1-7.1-2.7-11,0.3C216.4,453.7,188.2,475.4,160,497L160,497z
	 M143.4,188.5c-1.8,2.4-1,4.1,0.8,6c6.7,7.2,10.8,15.8,13.6,25.1c3.5,11.4,4.8,23.2,5.3,35.1c0.8,18.3,0.6,36.5,0.2,54.8
	c-0.5,24.3-0.6,48.7-0.4,73c0.2,26.9-3.5,53-12.1,78.5c-3.3,9.9-6.7,19.9-11.4,30.4c0.8-0.2,1.5-0.6,2.2-0.9
	c24.5-19.7,48.9-39.5,74.4-57.9c3.3-2.4,3.3-5.3,1.3-8.4c-2-3.1-4.2-6-6.5-8.8c-6.8-8.1-9.5-17.5-9.6-27.9
	c-0.2-13.5-0.5-27.1-0.6-40.6c-0.6-49.9-0.2-99.8-0.8-149.7c-0.8-64-0.8-128.1-1.1-192.1V2.5h-0.9c-2.8,25.4-5.7,50.8-10.6,75.9
	C179.5,117.8,168.1,155.8,143.4,188.5L143.4,188.5z M301,118.6c-0.8,57.3-0.1,114.7-1,172c-0.5,29.8-0.4,59.6-0.3,89.4
	c0,15.1-3.1,29-13.9,40.3c-1,1.1-1.9,2.4-2.7,3.6c-2.4,3.5-1.8,6.3,1.8,8.9c24.5,17.7,48,36.7,71.5,55.6c1.1,0.9,2,2.2,4.2,2
	c-7.8-17.6-13.2-35.6-17.6-53.9c-1.7-7.1-3.5-14.2-4.1-21.5c-1.5-17.9-1.1-35.9-1.4-53.8c-0.6-30.7-0.3-61.4-0.4-92.2
	c-0.1-10.5,0.5-21,1.9-31.4c1.9-14,5.3-27.5,14-39.1c5.7-7.6,5.8-7.5,0.2-15.5c-19.4-27.7-29.9-59-37.1-91.6
	c-6.5-29.4-10-59.1-13-89h-1.2C301.3,41.2,301.5,79.9,301,118.6z"/>
</svg>
