<?xml version="1.0" encoding="utf-8"?>
<!-- Generator: Adobe Illustrator 27.7.0, SVG Export Plug-In . SVG Version: 6.00 Build 0)  -->
<svg version="1.1" id="Layer_1" xmlns="http://www.w3.org/2000/svg" xmlns:xlink="http://www.w3.org/1999/xlink" x="0px" y="0px"
	 viewBox="0 0 500 500" style="enable-background:new 0 0 500 500;" xml:space="preserve">
<style type="text/css">
	.st0{fill-rule:evenodd;clip-rule:evenodd;fill:url(#SVGID_1_);}
	.st1{fill-rule:evenodd;clip-rule:evenodd;fill:#FFFFFF;}
</style>
<linearGradient id="SVGID_1_" gradientUnits="userSpaceOnUse" x1="500" y1="-0.1102" x2="67.5" y2="432.3898" gradientTransform="matrix(1 0 0 -1 0 499.8898)">
	<stop  offset="0.1594" style="stop-color:#003CDA"/>
	<stop  offset="1" style="stop-color:#33DFCC"/>
</linearGradient>
<path class="st0" d="M250,500c138.1,0,250-111.9,250-250S388.1,0,250,0S0,111.9,0,250S111.9,500,250,500z"/>
<path class="st1" d="M437.5,248.7L250,61.2L62.5,248.7L250,436.2L437.5,248.7z M134.1,236.5c-2.6,0-4-3.1-2.3-5l114.5-129.1
	c1.2-1.3,3.3-1.4,4.5,0l118.3,129.1c1.8,1.9,0.4,5-2.2,5h-76.7c-0.8,0-1.6-0.3-2.1-0.9L250.8,198c-1.2-1.2-3.2-1.2-4.4,0.1
	l-33.3,37.4c-0.6,0.6-1.4,1-2.2,1H134.1z"/>
</svg>
