<?xml version="1.0" encoding="utf-8"?>
<!-- Generator: Adobe Illustrator 27.7.0, SVG Export Plug-In . SVG Version: 6.00 Build 0)  -->
<svg version="1.1" id="Layer_2_00000037687318045165323870000008339935326185983642_"
	 xmlns="http://www.w3.org/2000/svg" xmlns:xlink="http://www.w3.org/1999/xlink" x="0px" y="0px" viewBox="0 0 500 500"
	 style="enable-background:new 0 0 500 500;" xml:space="preserve">
<style type="text/css">
	.st0{fill:#6FC7BA;}
</style>
<path class="st0" d="M477.6,151.4c-12.5-30.2-32.2-57.8-55.2-80.8c-23-23-51.9-39.4-82.1-51.9C311.4,6.9,279.2,0.3,245.7,0.3
	S178,1.6,148.5,13.5C118.2,26,93.3,49.6,70.3,72.6S21,119.3,8.5,149.5c-11.8,28.9-7.9,64.4-7.9,97.9s2.6,66.4,14.5,95.3
	c12.5,30.2,38.1,51.2,60.4,74.2c23,23,44.7,50.6,73.6,62.4c28.9,11.8,62.4,20.4,95.9,20.4s66.4-9.9,95.3-21.7
	c30.2-12.5,57.2-32.2,80.2-54.5c23-23,40.7-50.6,53.9-80.8c11.8-28.9,25.6-61.8,25.6-94.6l0,0C500.6,213.9,489.5,180.4,477.6,151.4z
	 M316,389.9l-53.2-7.9l15.1-102.5l-111,85.4L134,322.3l97.9-74.9L134,172.5l32.9-42.7l111,85.4l-15.1-102.5l53.2-7.9l21,142.6
	L316,389.9z"/>
</svg>
