<?xml version="1.0" encoding="utf-8"?>
<!-- Generator: Adobe Illustrator 26.5.0, SVG Export Plug-In . SVG Version: 6.00 Build 0)  -->
<svg version="1.1" id="Layer_1" xmlns="http://www.w3.org/2000/svg" xmlns:xlink="http://www.w3.org/1999/xlink" x="0px" y="0px"
	 viewBox="0 0 500 500" style="enable-background:new 0 0 500 500;" xml:space="preserve">
<style type="text/css">
	.st0{fill:#00DACC;}
</style>
<path class="st0" d="M250.1,4.8C112.8,4.8,1.4,116.2,1.4,253.6c0,98.9,57.7,184.3,141.3,224.4c0.7-1.6,3.1-6.2,6.3-10
	c3.9-4.6,10.5-12.8,15.5-23c4.9-10.2,14.1-30.9,16.4-37.8c1.4-4.1,2.1-6.5,2.6-7.9l0.1,0c0,0,1.8-7.5,2.7-12.7
	c0.8-5.2,6.9-21.6,7-22.3c0.2-0.7,4.7,0.7,11.4,0.8c6.7,0.2,25.6-4,35.8-9c10.2-5,16.9-12.9,14.4-17.4c-2.5-4.5-14.1-2-27.6,2.8
	c-13.6,4.9-27.3,13.6-29.1,14.2c-1.8,0.7,0-4.9,1.7-10.7c1.7-5.9,10.2-22.9,10.5-24.3c0.3-1.3,3,0.3,22.1-0.3
	c19.1-0.7,32.3-7.2,41.3-14.4c9-7.2-10.4-4.7-26.4-2c-16.1,2.7-27.9,7-29.8,7.4c-1.8,0.3-1.3-2.5,2.2-9.2
	c3.5-6.7,14.6-24.3,15.4-25.9s6.2,1.5,27.6-1.7c21.4-3.2,36.1-12.9,42.7-17.6c6.5-4.7,1.2-5.9-6.2-5.7c-7.4,0.2-15.6,0.8-26.8,3.3
	c-11.2,2.5-23.1,8.2-25.6,8.9c-2.5,0.7,2.7-5.7,6-10c3.3-4.4,18.6-20.7,19.7-21.9c1.2-1.2,7.4,1.8,23.1,0.8c15.7-1,37-9.4,45.8-16.1
	c8.9-6.7-15.6-4.4-29.1-2.3c-13.6,2-21.1,4.4-24.1,5.2c-3,0.8-0.5-1.3,1.5-2.7c2-1.3,9.4-6.9,27.3-16.9c17.9-10,39.7-24.9,44.2-29.1
	c4.5-4.2,2.3-6.2-2.5-6c-4.9,0.2-16.1,2.8-33.6,13.9c-17.6,11-38.5,31.3-40.2,32.3c-1.7,1,3.3-4.9,9.7-15.6
	c6.4-10.7,11-23.6,13.2-34.3c2.2-10.7-3.8-6.9-11.9,2.2c-8,9-18.9,26.1-24.6,40.3c-5.7,14.2-4.9,24.8-5.9,26.4
	c-1,1.7-10.4,10.7-14.9,16.2c-4.5,5.5-6.7,8.5-7.9,9.4c-1.2,0.8,2.5-10.7,4.7-21.6s1.2-25.4,0.8-33.6c-0.3-8.2-4.4-9.2-10-0.5
	c-5.7,8.7-7.2,24.3-7.9,40.3c-0.7,16.1,1.5,29.8,1.5,31c0,1.2-3.8,5.7-7,10.9c-3.2,5.2-6.2,10.2-8.4,13.7c-2.2,3.5-2.5,3.3-2.8,1.3
	c-0.3-2-0.2-18.6-2.3-33.6c-2.2-15.1-4-20.6-9.5-20.6c-5.5,0-4.7,8.4-4.7,29.3s7.9,43.8,7.9,46s-2,5.7-3.7,9.4
	c-1.7,3.7-5.4,12.4-6.4,14.9c-1,2.5-0.8,2-2,2c-1.2,0-7.5-17.4-13.1-28.8c-5.5-11.4-11.7-18.9-16.9-14.2c-5.2,4.7,3,22.4,10,35.3
	c7,12.9,16.9,20.6,17.1,21.6c0.2,1-1.3,5.2-4,15.4c-2.3,8.6-4,20.6-4.5,24.1c-3.7-0.6-11.1-2.2-17.4-5.9
	c-8.9-5.3-12.5-9.5-16.1-10.5c-3.6-1-12.8-3-18.1-7.9c-5.3-4.9-11.8-15.1-14.5-24.3c-2.6-9.2-4.3-14.1-8.6-17.4
	c-4.3-3.3-10.5-3.6-12.2-7.9c-1.6-4.3-5.3-11.5-6.3-17.4s0-10.9-9.5-16.4c-9.5-5.6-17.8-13.8-19.4-21.1c-1.6-7.2-1-14.1-2.6-15.5
	c-1.6-1.3-3.9-2.6-3.6-6.3c0.3-3.6,4.8-11.6,5.9-14.3c1.1-2.8,1.9-4.8,1-6.4c-1-1.5-2.8-1.5-2.4-2.8c0.4-1.2,1.9-2.5,1.9-4.2
	c0-1.7-0.8-5.8-1-10c-0.1-4.2,1.5-14.1,9.1-22.3c7.6-8.2,13-11.5,13.7-12.9s0.3-2.9-1.1-3.2c-1.4-0.3-3.7-1.2-0.8-2.5
	c2.9-1.2,7.9-1.8,9.8-3.9c1.9-2.1,1.4-3.7,4.3-7.9c2.9-4.2,5.7-6.5,8.5-6.7c2.8-0.1,3.9-0.6,6.1-3.9c2.2-3.3,3.3-5.3,7.5-6
	c4.2-0.7,10.4-0.6,15.8-5.5c5.4-5,18.8-19.5,24.5-24.1c5.7-4.6,10.4-6.5,14.5-9.8c4.2-3.3,13.4-12.7,22.4-16.3
	c9-3.6,28.5-10.7,43.5-10.8c15-0.1,38.1,5.8,44.9,6.8c6.8,1,38.2,1.7,58.5,8.7c20.2,7.1,23.8,11.4,27.8,18
	c4,6.7,12.7,20.1,13.3,22.9c0.6,2.8,0.4,6.5,2.2,9.8c1.8,3.3,20,33.5,21.3,35.7c1.4,2.2,2.1,4.7,0.6,9.4s-4.4,11.8-4.2,19.1
	c0.3,7.3,7.1,16.1,13.7,22.6s18.2,15.7,22.6,18.7c4.4,3,9.8,7.5,5.1,11.9c-4.7,4.4-6.7,6.2-10.3,8.6c-3.6,2.4-8.6,4.3-8.6,6.7
	c0,2.4,2.2,7.2,3.3,8.9c1.1,1.7,3.7,5.1,0,9.1c-3.7,4-5.3,5.4-5.3,7.8c0,2.4,6.2,6,6.2,9.1s-8.2,9.7-8.3,13
	c-0.1,3.3,1.7,10.4,1.7,15.4c0,5-1.2,15.1-6.8,18.4c-5.5,3.3-17.6,4.8-27.2,5.3c-9.6,0.4-36,0.6-39.9,2.6c-3.9,2.1-9,11.9-10.5,18.4
	c-1.5,6.5-5.3,23.6-10.1,35.1c-4.8,11.5-12.9,31.3-16.8,39.1c-3.9,7.8-8.3,16.6-8.6,23c-0.3,6.4,8.3,13.4,9.8,14.4
	c0.4,0.2,1.4,1,2.6,1.9c106.4-28.2,184.8-125.1,184.8-240.4C498.8,116.2,387.5,4.8,250.1,4.8z"/>
</svg>
