<?xml version="1.0" encoding="utf-8"?>
<!-- Generator: Adobe Illustrator 27.0.0, SVG Export Plug-In . SVG Version: 6.00 Build 0)  -->
<svg version="1.1" id="mina" xmlns="http://www.w3.org/2000/svg" xmlns:xlink="http://www.w3.org/1999/xlink" x="0px" y="0px"
	 viewBox="0 0 500 500" style="enable-background:new 0 0 500 500;" xml:space="preserve">
<style type="text/css">
	.st0{fill:#2D2D2D;}
</style>
<g>
	<g>
		<path class="st0" d="M249.9,474.9c-8.4,0.2-16.5-2.7-22.7-8.3c-6.2-5.6-10.1-13.3-10.8-21.6l-3.8-29.6c-36-10.3-57-36.9-62.5-79.2
			L117.6,86.3c-6.9-1.1-14-1.6-21-1.5c-10.4-0.1-20.8,1.3-30.8,4v378.8H2.2V163.1c0-41.3,18.5-70.5,52.3-82.6V60.8
			c0-22.7,13.8-37.9,34.3-37.9s33.3,12.8,36.6,36l2.5,18.2c37,10.3,58.5,40.1,65,88.3l29.9,240.8c17.9,3.5,36.3,3.5,54.2,0
			l29.9-240.7c6.3-48.3,28.1-78,65-88.4l2.5-18.2c3.3-23.2,16.3-36,36.6-36c20.3,0,34.3,15.2,34.3,37.9v19.6
			c33.8,12.1,52.3,41.3,52.3,82.6v304.5h-63.6V88.7c-10-2.7-20.4-4.1-30.8-4c-7-0.1-14.1,0.4-21,1.5L349.7,336
			c-5.4,41.6-26.9,68.9-62.5,79.2l-3.6,29.7c-0.6,8.4-4.4,16.3-10.7,21.9C266.6,472.5,258.3,475.3,249.9,474.9z M224.3,418.2
			l3.3,25.5c0.3,5.6,2.9,10.8,7.1,14.6c4.2,3.7,9.7,5.7,15.3,5.4c2.8,0.2,5.6-0.2,8.2-1.1c2.6-0.9,5.1-2.3,7.2-4.2
			c2.1-1.9,3.8-4.1,5-6.6c1.2-2.5,1.9-5.3,2-8.1l3.3-25.6C258.5,421,241.2,421,224.3,418.2z M445.3,456.4h41V163.1
			c0-35-14.1-59.2-41-70.5V456.4z M13.4,456.4h41.1V92.6c-26.8,11.3-40.8,35.4-40.8,70.5L13.4,456.4z M129.5,89.4l31.7,245.2
			C165.8,370,182.5,393,211,403l-29.3-236.2C176.2,125.2,159.1,99.7,129.5,89.4z M370.2,89.4c-29.6,10.3-46.8,35.8-52.1,77.4
			l-29.3,236c28.5-10,45.2-33,49.7-68.4L370.2,89.4z M65.8,76.8c10.1-2.5,20.5-3.7,30.8-3.6c6.5-0.1,13,0.3,19.4,1.2l-1.9-14.2
			c-2.5-17.4-11-26.2-25.4-26.2S65.8,44.3,65.8,60.7V76.8z M403.1,73.2c10.4-0.1,20.7,1.1,30.8,3.6v-16c0-16.4-8.8-26.6-22.9-26.6
			s-22.9,8.8-25.4,26.2l-1.9,14.2c6.4-0.8,12.9-1.2,19.4-1.2L403.1,73.2z"/>
	</g>
</g>
</svg>
