<?xml version="1.0" encoding="utf-8"?>
<!-- Generator: Adobe Illustrator 27.7.0, SVG Export Plug-In . SVG Version: 6.00 Build 0)  -->
<svg version="1.1" id="Layer_1" xmlns="http://www.w3.org/2000/svg" xmlns:xlink="http://www.w3.org/1999/xlink" x="0px" y="0px"
	 viewBox="0 0 500 500" style="enable-background:new 0 0 500 500;" xml:space="preserve">
<g>
	<path d="M102.9,175.3l-75.8-38.6c-5.9,11.7-11,23.9-15,36.3l81,26.2C95.7,191,99,183,102.9,175.3L102.9,175.3z"/>
	<path d="M167.3,107.3l42,72.4c6.1-3.6,12.7-6.3,19.5-8.1l-21.7-80.8c5.5-1.5,11.2-2.7,16.8-3.6l-13.4-84
		c-12.9,2.1-25.8,5.1-38.2,9.2l26,79.6c-8.3,2.7-16.3,6-24.1,10l-38.2-74.5c-11.6,5.9-22.8,12.9-33.4,20.6l50.2,68.7
		C157.5,113.3,162.4,110.2,167.3,107.3L167.3,107.3z"/>
	<path d="M392.7,167.2l-72.3,42c3.6,6.1,6.3,12.7,8.1,19.5l80.8-21.8c1.5,5.5,2.7,11.1,3.6,16.8l84-13.4
		c-2.1-12.9-5.2-25.8-9.2-38.2l-79.6,26c-2.7-8.3-6.1-16.3-10-24l74.5-38.2c-5.9-11.6-12.9-22.8-20.6-33.4l-68.7,50.2
		C386.6,157.5,389.8,162.3,392.7,167.2L392.7,167.2z"/>
	<path d="M363.2,27c-11.7-5.9-23.9-11-36.3-15l-26.1,81c8.2,2.6,16.2,6,23.9,9.9L363.2,27L363.2,27z"/>
	<path d="M332.9,105.8l-42.5,73.7c6.2,3.5,11.8,7.9,16.9,12.9L426.5,72.9c-9.2-9.2-19.3-17.8-29.8-25.4l-49.1,67.8
		C342.8,111.9,338,108.7,332.9,105.8L332.9,105.8z"/>
	<path d="M105.9,167l73.7,42.5c3.5-6.1,7.9-11.8,12.9-16.9L73,73.5c-9.2,9.2-17.8,19.3-25.4,29.8l67.7,49.2
		C111.9,157.1,108.8,162,105.9,167z"/>
	<path d="M275.8,85.7L288.6,3c-12.7-2-25.7-3-38.6-3h-0.2v168.8h0.2c7.1,0,14.2,0.9,20.9,2.7l21.8-82.2
		C287.2,87.8,281.5,86.6,275.8,85.7z"/>
	<path d="M171.5,229l-82.2-21.9c-1.5,5.6-2.7,11.2-3.6,17L3,211.2C1,224,0,237,0,250h168.8C168.8,242.9,169.7,235.8,171.5,229
		L171.5,229z"/>
	<path d="M397.1,324.7l75.8,38.6c5.9-11.7,11-23.9,15-36.3l-81-26.2C404.3,309,401,317,397.1,324.7L397.1,324.7z"/>
	<path d="M332.7,392.7l-42-72.4c-6.1,3.6-12.7,6.3-19.5,8.1l21.7,80.8c-5.5,1.5-11.2,2.7-16.8,3.6l13.3,84
		c12.9-2.1,25.8-5.1,38.2-9.2l-26-79.6c8.3-2.7,16.3-6,24.1-10l38.2,74.5c11.6-5.9,22.8-12.9,33.4-20.6l-50.2-68.7
		C342.5,386.7,337.6,389.8,332.7,392.7z"/>
	<path d="M107.3,332.8l72.3-42c-3.6-6.1-6.3-12.7-8.1-19.5L90.8,293c-1.5-5.5-2.7-11.1-3.6-16.8l-84,13.4
		c2.1,12.9,5.2,25.8,9.2,38.2l79.6-26c2.7,8.3,6.1,16.3,10,24L27.5,364c5.9,11.6,12.9,22.8,20.6,33.4l68.7-50.2
		C113.4,342.6,110.2,337.7,107.3,332.8L107.3,332.8z"/>
	<path d="M136.8,473c11.7,5.9,23.9,11,36.3,15l26.1-81c-8.2-2.6-16.2-6-23.9-9.9L136.8,473L136.8,473z"/>
	<path d="M167.1,394.2l42.5-73.7c-6.2-3.5-11.8-7.9-16.9-12.9L73.5,427.1c9.2,9.2,19.3,17.8,29.8,25.4l49.1-67.8
		C157.2,388.2,162,391.3,167.1,394.2L167.1,394.2z"/>
	<path d="M394.1,333l-73.7-42.5c-3.5,6.1-7.9,11.8-12.9,16.9L427,426.6c9.2-9.2,17.8-19.3,25.4-29.8l-67.7-49.2
		C388.1,342.9,391.2,338.1,394.1,333L394.1,333z"/>
	<path d="M229.1,328.5l-21.8,82.2c5.6,1.5,11.2,2.7,17,3.5L211.4,497c12.7,2,25.7,3,38.6,3h0.2V331.2H250
		C242.9,331.2,235.9,330.3,229.1,328.5L229.1,328.5z"/>
	<path d="M331.2,250c0,7.1-0.9,14.2-2.7,21l82.2,21.9c1.5-5.6,2.7-11.2,3.6-17l82.7,12.9c2-12.7,3-25.8,3-38.8L331.2,250L331.2,250z
		"/>
</g>
</svg>
