<?xml version="1.0" encoding="utf-8"?>
<!-- Generator: Adobe Illustrator 27.0.1, SVG Export Plug-In . SVG Version: 6.00 Build 0)  -->
<svg version="1.1" id="mxc" xmlns="http://www.w3.org/2000/svg" xmlns:xlink="http://www.w3.org/1999/xlink" x="0px" y="0px"
	 viewBox="0 0 500 500" style="enable-background:new 0 0 500 500;" xml:space="preserve">
<style type="text/css">
	.st0{fill:url(#SVGID_1_);}
	.st1{fill:url(#SVGID_00000078730839076783040270000003036274962672640656_);fill-opacity:0.2;}
	.st2{fill:#FFFFFF;}
</style>
<linearGradient id="SVGID_1_" gradientUnits="userSpaceOnUse" x1="142.7714" y1="561.2777" x2="327.289" y2="27.3546" gradientTransform="matrix(1 0 0 -1 0 501)">
	<stop  offset="0" style="stop-color:#0049FF"/>
	<stop  offset="0.4219" style="stop-color:#6300FF"/>
	<stop  offset="0.8906" style="stop-color:#F43178"/>
</linearGradient>
<path class="st0" d="M217.5,9.7c20.1-11.7,44.9-11.7,65,0l79.6,46.2l79.8,45.8c20.1,11.6,32.6,33.1,32.5,56.3l-0.2,92l0.2,92
	c0,23.2-12.4,44.7-32.5,56.3l-79.8,45.8l-79.6,46.2c-20.1,11.7-44.9,11.7-65,0l-79.6-46.2l-79.8-45.8C38,386.7,25.6,365.2,25.7,342
	l0.2-92l-0.2-92c0-23.2,12.4-44.7,32.5-56.3l79.8-45.8L217.5,9.7z"/>
<radialGradient id="SVGID_00000007394630054786255800000002646102969134521522_" cx="-9.6716" cy="494.9558" r="12.0516" gradientTransform="matrix(1.9545 -44.7102 -44.7102 -1.9545 22398.4766 1044.088)" gradientUnits="userSpaceOnUse">
	<stop  offset="0.2947" style="stop-color:#F43178"/>
	<stop  offset="0.7231" style="stop-color:#000000;stop-opacity:0"/>
</radialGradient>
<path style="fill:url(#SVGID_00000007394630054786255800000002646102969134521522_);fill-opacity:0.2;" d="M217.5,9.7
	c20.1-11.7,44.9-11.7,65,0l79.6,46.2l79.8,45.8c20.1,11.6,32.6,33.1,32.5,56.3l-0.2,92l0.2,92c0,23.2-12.4,44.7-32.5,56.3
	l-79.8,45.8l-79.6,46.2c-20.1,11.7-44.9,11.7-65,0l-79.6-46.2l-79.8-45.8C38,386.7,25.6,365.2,25.7,342l0.2-92l-0.2-92
	c0-23.2,12.4-44.7,32.5-56.3l79.8-45.8L217.5,9.7z"/>
<path class="st2" d="M309.3,194.8c0.2-2.2,1.1-4.2,2.7-5.7c1.6-1.5,3.6-2.4,5.8-2.5h25.2c1.4,0,2.8-0.6,3.8-1.6c1-1,1.6-2.4,1.6-3.8
	V153c0-1.4-0.6-2.8-1.6-3.8c-1-1-2.4-1.6-3.8-1.6h-28.2c-1.4,0-2.8,0.6-3.8,1.6c-1,1-1.6,2.4-1.6,3.8v25.2c-0.1,2.1-0.9,4.1-2.3,5.6
	c-1.4,1.5-3.3,2.6-5.4,2.9h-26c-1.4,0-2.8,0.6-3.8,1.6c-1,1-1.6,2.4-1.6,3.8v25.2c-0.1,2.1-0.9,4.1-2.3,5.6
	c-1.4,1.5-3.3,2.6-5.4,2.9h-23.8c-1.9-0.3-3.7-1.2-5-2.5c-1.4-1.4-2.2-3.1-2.5-5.1v-26c0-1.4-0.6-2.8-1.6-3.8c-1-1-2.4-1.6-3.8-1.6
	h-26.1c-1.9-0.3-3.7-1.2-5-2.5c-1.4-1.4-2.2-3.1-2.5-5.1v-26c0-1.4-0.6-2.8-1.6-3.8c-1-1-2.4-1.6-3.8-1.6h-28.2
	c-1.4,0-2.8,0.6-3.8,1.6c-1,1-1.6,2.4-1.6,3.8v28.2c0,1.4,0.6,2.8,1.6,3.8c1,1,2.4,1.6,3.8,1.6h25.1c2.4,0.1,4.6,1.2,6.3,3
	c0.8,0.9,1.4,2,1.8,3.2c0.4,1.2,0.5,2.4,0.4,3.7l0.1-0.1v20.8c-0.1,2.2-1,4.2-2.4,5.8c-1.4,1.5-3.2,2.4-5.2,2.7h-26
	c-1.4,0-2.8,0.6-3.8,1.6c-1,1-1.6,2.4-1.6,3.8v106.4c0,1.4,0.6,2.8,1.6,3.8c1,1,2.4,1.6,3.8,1.6h28.2c1.4,0,2.8-0.6,3.8-1.6
	c1-1,1.6-2.4,1.6-3.8V233.9c0.1-1.9,0.9-3.7,2.2-5.2c1.6-1.8,3.9-2.8,6.3-3h22.1c1.2,0.1,2.4,0.4,3.5,0.9c1.1,0.5,2.1,1.3,2.9,2.2
	c0.8,0.9,1.4,2,1.7,3.2c0.4,1.2,0.5,2.4,0.3,3.6l0.1-0.1v23.9c0,0.7,0.1,1.4,0.4,2.1c0.3,0.7,0.7,1.3,1.2,1.8
	c0.5,0.5,1.1,0.9,1.8,1.2c0.7,0.3,1.4,0.4,2.1,0.4h28.2c0.7,0,1.4-0.1,2.1-0.4s1.3-0.7,1.8-1.2c0.5-0.5,0.9-1.1,1.2-1.8
	c0.3-0.7,0.4-1.4,0.4-2.1v-25.5c0.2-1.9,0.9-3.7,2.2-5.2c1.6-1.8,3.9-2.8,6.3-3h22.1c2.4,0.1,4.6,1.2,6.3,3c0.8,0.9,1.4,2,1.8,3.2
	c0.4,1.2,0.5,2.4,0.4,3.7l0.1-0.1v102.1c0,1.4,0.6,2.8,1.6,3.8c1,1,2.4,1.6,3.8,1.6h28.2c1.4,0,2.8-0.6,3.8-1.6c1-1,1.6-2.4,1.6-3.8
	V231.2c0-1.4-0.6-2.8-1.6-3.8c-1-1-2.4-1.6-3.8-1.6h-26c-1.9-0.3-3.7-1.2-5-2.5c-1.4-1.4-2.2-3.1-2.5-5.1V194.8z"/>
</svg>
