<?xml version="1.0" encoding="utf-8"?>
<!-- Generator: Adobe Illustrator 27.0.0, SVG Export Plug-In . SVG Version: 6.00 Build 0)  -->
<svg version="1.1" id="nexo" xmlns="http://www.w3.org/2000/svg" xmlns:xlink="http://www.w3.org/1999/xlink" x="0px" y="0px"
	 viewBox="0 0 500 500" style="enable-background:new 0 0 500 500;" xml:space="preserve">
<style type="text/css">
	.st0{fill:#60BEFF;}
	.st1{fill:#1A4199;}
	.st2{fill:#3CA9E5;}
	.st3{fill:#2853C3;}
</style>
<path class="st0" d="M1.7,110.6v272.9c0,1.6,0.4,3.2,1.3,4.7c0.8,1.4,2,2.6,3.5,3.4l119.7,66.9V180L1.7,110.6z"/>
<path class="st1" d="M374.7,41l119.7,66.9c1.5,0.8,2.7,2,3.5,3.4c0.8,1.4,1.3,3,1.3,4.7v272.9l-124.5-69.6V41z"/>
<path class="st2" d="M125.9,458.4l124.5-69.6l-124.5-69.6V458.4z"/>
<path class="st2" d="M130.7,43.7l243.9,136.4v139.1L1.7,110.6l119.7-66.9c1.4-0.8,3-1.2,4.7-1.2C127.7,42.5,129.3,42.9,130.7,43.7z"
	/>
<path class="st3" d="M374.7,41l-124.3,69.6l124.3,69.6V41z"/>
<path class="st3" d="M499.1,388.9l-119.7,66.9c-1.5,0.8-3.1,1.2-4.8,1.2c-1.7,0-3.3-0.4-4.8-1.2L125.9,319.3V180L499.1,388.9z"/>
</svg>
