<?xml version="1.0" encoding="utf-8"?>
<!-- Generator: Adobe Illustrator 27.0.1, SVG Export Plug-In . SVG Version: 6.00 Build 0)  -->
<svg version="1.1" id="oil" xmlns="http://www.w3.org/2000/svg" xmlns:xlink="http://www.w3.org/1999/xlink" x="0px" y="0px"
	 viewBox="0 0 500 500" style="enable-background:new 0 0 500 500;" xml:space="preserve">
<style type="text/css">
	.st0{fill:#F3E6AC;}
</style>
<path class="st0" d="M126.9,156.6c21.7-23,52.8-37.9,89.3-37.9c50.1,0,86.6,25.7,106.9,63.6l128.6,17.6
	C431.3,89,338,15.9,217.5,15.9C120.1,15.9,40.2,63.3,1,140.4L126.9,156.6z"/>
<path class="st0" d="M365,182.3c9.5,18.9,14.9,42,14.9,66.3c0,73.1-48.7,131.3-123.1,131.3c-75.8,0-123.1-58.2-123.1-131.3
	c0-36.5,12.2-69,33.8-93.4L41.6,140.4c-16.2,32.5-25.7,69-25.7,109.6c0,138,104.2,234.1,242.2,234.1S499,388,499,250
	c0-17.6-1.4-33.8-5.4-50.1L365,182.3z"/>
</svg>
