<?xml version="1.0" encoding="utf-8"?>
<!-- Generator: Adobe Illustrator 27.7.0, SVG Export Plug-In . SVG Version: 6.00 Build 0)  -->
<svg version="1.1" id="Layer_1" xmlns="http://www.w3.org/2000/svg" xmlns:xlink="http://www.w3.org/1999/xlink" x="0px" y="0px"
	 viewBox="0 0 500 500" style="enable-background:new 0 0 500 500;" xml:space="preserve">
<style type="text/css">
	.st0{fill:#2BCAB0;}
</style>
<path class="st0" d="M250,0H37.5C16.8,0,0,16.8,0,37.5v425C0,483.2,16.8,500,37.5,500H250c138.1,0,250-111.9,250-250
	C500,111.9,388.1,0,250,0z M118.2,105.1c11-17.6,34.1-22.9,51.7-11.9l171.6,107.3c-6.4,1.1-12.6,3.4-18.1,6.9l-56.2,35.1
	l-137.1-85.7C112.6,145.8,107.2,122.7,118.2,105.1z M187.5,375c0,20.7-16.8,37.5-37.5,37.5c-20.7,0-37.5-16.8-37.5-37.5V158.5
	c3.1,3.5,6.7,6.5,10.8,9.1l64.2,40.1V375L187.5,375z M369.9,281.8L198.3,389c1.3-4.5,2-9.2,2-14v-75.7l129.8-81.1
	c17.6-11,40.7-5.6,51.7,11.9C392.8,247.7,387.4,270.8,369.9,281.8L369.9,281.8z"/>
</svg>
