<?xml version="1.0" encoding="utf-8"?>
<!-- Generator: Adobe Illustrator 27.0.1, SVG Export Plug-In . SVG Version: 6.00 Build 0)  -->
<svg version="1.1" id="poly" xmlns="http://www.w3.org/2000/svg" xmlns:xlink="http://www.w3.org/1999/xlink" x="0px" y="0px"
	 viewBox="0 0 500 500" style="enable-background:new 0 0 500 500;" xml:space="preserve">
<style type="text/css">
	.st0{fill:#00D1FF;}
</style>
<circle cx="249.8" cy="249.7" r="229.2"/>
<path class="st0" d="M249.8,1.8C112.9,1.8,1.9,112.8,1.9,249.7c0,136.9,111,247.9,247.9,247.9c136.9,0,247.9-111,247.9-247.9
	C497.7,112.8,386.7,1.8,249.8,1.8z M249.8,457.9c-24.2,0-47.4-4.2-69-11.8V360c20,12.5,43.7,19.8,69,19.8
	c71.9,0,130.1-58.3,130.1-130.1c0-71.9-58.3-130.1-130.1-130.1c-71.9,0-130.1,58.3-130.1,130.1v162.5
	C72.1,374,41.6,315.4,41.6,249.7c0-115,93.2-208.2,208.2-208.2c115,0,208.2,93.2,208.2,208.2C458,364.7,364.8,457.9,249.8,457.9z
	 M179.7,249.7c0-38.7,31.4-70.1,70.1-70.1c38.7,0,70.1,31.4,70.1,70.1c0,38.7-31.4,70.1-70.1,70.1
	C211.1,319.7,179.7,288.4,179.7,249.7z"/>
</svg>
