<?xml version="1.0" encoding="utf-8"?>
<!-- Generator: Adobe Illustrator 27.7.0, SVG Export Plug-In . SVG Version: 6.00 Build 0)  -->
<svg version="1.1" id="Layer_1" xmlns="http://www.w3.org/2000/svg" xmlns:xlink="http://www.w3.org/1999/xlink" x="0px" y="0px"
	 viewBox="0 0 500 500" style="enable-background:new 0 0 500 500;" xml:space="preserve">
<style type="text/css">
	.st0{fill:#192123;}
	.st1{fill:url(#SVGID_1_);}
	
		.st2{opacity:0.5;clip-path:url(#SVGID_00000013876248052842164110000008565938133097112757_);fill:none;stroke:#FFFFFF;stroke-width:26.7624;stroke-miterlimit:10;enable-background:new    ;}
	
		.st3{opacity:0.5;clip-path:url(#SVGID_00000093888548355154178900000009356311106380688262_);fill:none;stroke:#FFFFFF;stroke-width:13.3812;stroke-miterlimit:10;enable-background:new    ;}
	.st4{fill:#FFFFFF;}
	.st5{clip-path:url(#SVGID_00000070796836236270031720000004053811381862046345_);fill:#19898A;}
	.st6{clip-path:url(#SVGID_00000070796836236270031720000004053811381862046345_);fill:#68FEE2;}
	.st7{clip-path:url(#SVGID_00000070796836236270031720000004053811381862046345_);fill:#1FC9A8;}
	.st8{clip-path:url(#SVGID_00000007388908532359920100000007159490996141190022_);}
	
		.st9{opacity:0.6;clip-path:url(#SVGID_00000143575739609567545390000008929881228733383055_);fill:none;stroke:#FFFFFF;stroke-width:26.7624;stroke-miterlimit:10;enable-background:new    ;}
	
		.st10{opacity:0.6;clip-path:url(#SVGID_00000126293259915172086780000010187434710615972778_);fill:none;stroke:#FFFFFF;stroke-width:13.3812;stroke-miterlimit:10;enable-background:new    ;}
	.st11{clip-path:url(#SVGID_00000057868644287408207440000009529401404198007187_);fill:#FFFFFF;}
	.st12{clip-path:url(#SVGID_00000003808105901498563740000000012193120291913140_);fill:#FFFFFF;}
	.st13{clip-path:url(#SVGID_00000143613163863837600200000002232987039848122800_);fill:#19898A;}
	.st14{clip-path:url(#SVGID_00000143613163863837600200000002232987039848122800_);fill:#68FEE2;}
	.st15{clip-path:url(#SVGID_00000143613163863837600200000002232987039848122800_);fill:#3AC1AC;}
	.st16{clip-path:url(#SVGID_00000072256303465404939990000011503278543158082956_);}
	
		.st17{opacity:0.5;clip-path:url(#SVGID_00000134247933430339820810000009419922205786165918_);fill:none;stroke:#FFFFFF;stroke-width:26.7624;stroke-miterlimit:10;enable-background:new    ;}
	
		.st18{opacity:0.5;clip-path:url(#SVGID_00000155840444241733489350000003538813330260895654_);fill:none;stroke:#FFFFFF;stroke-width:13.3812;stroke-miterlimit:10;enable-background:new    ;}
	.st19{clip-path:url(#SVGID_00000177479910722999731840000005928058198235685515_);fill:#FFFFFF;}
	.st20{clip-path:url(#SVGID_00000172398084595656007420000007064216307902329231_);fill:#19898A;}
	.st21{clip-path:url(#SVGID_00000172398084595656007420000007064216307902329231_);fill:#68FEE2;}
	.st22{clip-path:url(#SVGID_00000172398084595656007420000007064216307902329231_);fill:#1FC9A8;}
	.st23{clip-path:url(#SVGID_00000119077197440812241210000001137165909784592011_);}
	
		.st24{clip-path:url(#SVGID_00000171682919299839362610000006525371234240549046_);fill:none;stroke:#FFFFFF;stroke-width:22.5264;stroke-miterlimit:10;}
	
		.st25{clip-path:url(#SVGID_00000036955476522736331780000001865075081856541568_);fill:none;stroke:#FFFFFF;stroke-width:15.0176;stroke-miterlimit:10;}
	.st26{clip-path:url(#SVGID_00000143590058209962348980000009340929610531851711_);fill:#FFFFFF;}
</style>
<circle class="st0" cx="250" cy="250" r="250"/>
<linearGradient id="SVGID_1_" gradientUnits="userSpaceOnUse" x1="124.9799" y1="467.431" x2="375.0201" y2="34.3487" gradientTransform="matrix(1 0 0 -1 0 500.8898)">
	<stop  offset="7.887628e-04" style="stop-color:#2F353D"/>
	<stop  offset="0.1394" style="stop-color:#314348"/>
	<stop  offset="0.4008" style="stop-color:#376864"/>
	<stop  offset="0.7542" style="stop-color:#41A291"/>
	<stop  offset="1" style="stop-color:#48CFB4"/>
</linearGradient>
<path class="st1" d="M250,19.4c30,0,59.2,5.7,86.8,16.9c28.6,11.6,54.3,28.7,76.3,50.7s39.1,47.7,50.7,76.3
	c11.2,27.6,16.9,56.8,16.9,86.8s-5.7,59.2-16.9,86.8c-11.6,28.6-28.7,54.3-50.7,76.3c-22,22-47.7,39.1-76.3,50.7
	C309.2,475,280,480.6,250,480.6s-59.2-5.7-86.8-16.9c-28.6-11.6-54.3-28.7-76.3-50.7c-22-22-39.1-47.7-50.7-76.3
	C25,309.2,19.4,279.9,19.4,250s5.7-59.2,16.9-86.8c11.6-28.6,28.7-54.3,50.7-76.3s47.7-39.1,76.3-50.7C190.8,25,220,19.4,250,19.4
	 M250,0C186,0,122,24.5,73.2,73.2c-97.6,97.6-97.6,255.9,0,353.5C122,475.5,186,500,250,500s128-24.4,176.8-73.2
	c97.6-97.6,97.6-255.9,0-353.5C378,24.5,314,0,250,0L250,0z"/>
<g>
	<defs>
		<path id="SVGID_00000182513032583182808340000002991565719922473103_" d="M195.8,305.8L295,156.8c0.8-1.3,1.5-2.7,1.9-4.2
			l7.4-30.2c2.9-11.8-9.9-21.1-20.3-14.8L151.4,189c-2.7,1.7-4.8,4.2-5.8,7.3l-9,27.3c-1.1,3.4-0.8,7.1,0.7,10.2l34.9,70.5
			C177,313.7,190.1,314.5,195.8,305.8z"/>
	</defs>
	<clipPath id="SVGID_00000166660708271463833880000001718720213141268906_">
		<use xlink:href="#SVGID_00000182513032583182808340000002991565719922473103_"  style="overflow:visible;"/>
	</clipPath>
</g>
<g>
	<defs>
		<path id="SVGID_00000160168226147631278020000012633976173517354146_" d="M216,392.4l132.6-81.4c2.7-1.7,4.8-4.2,5.8-7.3l9-27.3
			c1.1-3.4,0.8-7.1-0.7-10.2l-34.9-70.5c-4.7-9.4-17.6-10.2-23.4-1.5L205,343.2c-0.8,1.3-1.5,2.7-1.9,4.2l-7.4,30.2
			C192.9,389.4,205.7,398.8,216,392.4z"/>
	</defs>
	<clipPath id="SVGID_00000094615259119042224260000013233433029802310043_">
		<use xlink:href="#SVGID_00000160168226147631278020000012633976173517354146_"  style="overflow:visible;"/>
	</clipPath>
</g>
<g>
	<defs>
		<path id="SVGID_00000155834598986200435290000011228299605077028775_" d="M216,392.4l132.6-81.4c2.7-1.7,4.8-4.2,5.8-7.3l9-27.3
			c1.1-3.4,0.8-7.1-0.7-10.2l-34.9-70.5c-4.7-9.4-17.6-10.2-23.4-1.5L205,343.2c-0.8,1.3-1.5,2.7-1.9,4.2l-7.4,30.2
			C192.9,389.4,205.7,398.8,216,392.4z"/>
	</defs>
	<clipPath id="SVGID_00000081609724604853603670000000891744778592951689_">
		<use xlink:href="#SVGID_00000155834598986200435290000011228299605077028775_"  style="overflow:visible;"/>
	</clipPath>
</g>
<g>
	<defs>
		<polygon id="SVGID_00000114775196710948547220000005143187333626378642_" points="272.8,161.9 147.2,191.6 182.9,325.4 		"/>
	</defs>
	<clipPath id="SVGID_00000174595127771250975540000000344457192087706020_">
		<use xlink:href="#SVGID_00000114775196710948547220000005143187333626378642_"  style="overflow:visible;"/>
	</clipPath>
	
		<line style="opacity:0.5;clip-path:url(#SVGID_00000174595127771250975540000000344457192087706020_);fill:none;stroke:#FFFFFF;stroke-width:26.7624;stroke-miterlimit:10;enable-background:new    ;" x1="290.8" y1="224.6" x2="118.4" y2="309.8"/>
</g>
<g>
	<defs>
		<polygon id="SVGID_00000090999763196996240370000008647932119493053579_" points="272.8,161.9 147.2,191.6 182.9,325.4 		"/>
	</defs>
	<clipPath id="SVGID_00000025434948000163613530000014740632769853781134_">
		<use xlink:href="#SVGID_00000090999763196996240370000008647932119493053579_"  style="overflow:visible;"/>
	</clipPath>
	
		<line style="opacity:0.5;clip-path:url(#SVGID_00000025434948000163613530000014740632769853781134_);fill:none;stroke:#FFFFFF;stroke-width:13.3812;stroke-miterlimit:10;enable-background:new    ;" x1="312.1" y1="177.4" x2="139.7" y2="262.6"/>
</g>
<path class="st4" d="M175.2,183.6c1.6,1.6,4.5,9.7,4.5,9.7s2.5-7.6,4.5-9.7c2-2.1,9.7-4.5,9.7-4.5s-8-2.7-9.7-4.5
	c-1.7-1.7-4.5-9.7-4.5-9.7s-2.6,7.8-4.5,9.7c-1.9,1.9-9.7,4.5-9.7,4.5S173.5,181.9,175.2,183.6z"/>
<path class="st4" d="M227.6,193.6c0.7,0.7,2,4.4,2,4.4s1.1-3.5,2-4.4c0.9-0.9,4.4-2,4.4-2s-3.6-1.2-4.4-2c-0.8-0.8-2-4.4-2-4.4
	s-1.2,3.5-2,4.4s-4.4,2-4.4,2S226.9,192.9,227.6,193.6z"/>
<g>
	<defs>
		<path id="SVGID_00000139999167344811647340000016322565924847067050_" d="M195.8,305.8L295,156.8c0.8-1.3,1.5-2.7,1.9-4.2
			l7.4-30.2c2.9-11.8-9.9-21.1-20.3-14.8L151.4,189c-2.7,1.7-4.8,4.2-5.8,7.3l-9,27.3c-1.1,3.4-0.8,7.1,0.7,10.2l34.9,70.5
			C177,313.7,190.1,314.5,195.8,305.8z"/>
	</defs>
	<clipPath id="SVGID_00000009573978220236222730000016344722898456017069_">
		<use xlink:href="#SVGID_00000139999167344811647340000016322565924847067050_"  style="overflow:visible;"/>
	</clipPath>
	<polygon style="clip-path:url(#SVGID_00000009573978220236222730000016344722898456017069_);fill:#19898A;" points="312.1,90.4 
		147.2,191.6 272.8,161.9 	"/>
	<polygon style="clip-path:url(#SVGID_00000009573978220236222730000016344722898456017069_);fill:#68FEE2;" points="272.8,161.9 
		272.8,161.9 182.9,325.4 296.2,154.8 312.1,90.4 	"/>
	<polygon style="clip-path:url(#SVGID_00000009573978220236222730000016344722898456017069_);fill:#1FC9A8;" points="272.8,161.9 
		147.2,191.6 182.9,325.4 	"/>
	<polygon style="clip-path:url(#SVGID_00000009573978220236222730000016344722898456017069_);fill:#68FEE2;" points="182.9,325.4 
		147.2,191.6 135,228.8 	"/>
</g>
<g>
	<defs>
		<path id="SVGID_00000071538500293398543160000014856153595086924447_" d="M195.8,305.8L295,156.8c0.8-1.3,1.5-2.7,1.9-4.2
			l7.4-30.2c2.9-11.8-9.9-21.1-20.3-14.8L151.4,189c-2.7,1.7-4.8,4.2-5.8,7.3l-9,27.3c-1.1,3.4-0.8,7.1,0.7,10.2l34.9,70.5
			C177,313.7,190.1,314.5,195.8,305.8z"/>
	</defs>
	<clipPath id="SVGID_00000080885719136956934530000017558447413249073561_">
		<use xlink:href="#SVGID_00000071538500293398543160000014856153595086924447_"  style="overflow:visible;"/>
	</clipPath>
	<g style="clip-path:url(#SVGID_00000080885719136956934530000017558447413249073561_);">
		<defs>
			<polygon id="SVGID_00000000222941263465482470000001553473540496580543_" points="272.8,161.9 147.2,191.6 182.9,325.4 			"/>
		</defs>
		<clipPath id="SVGID_00000050636051028650934980000013600855733113139377_">
			<use xlink:href="#SVGID_00000000222941263465482470000001553473540496580543_"  style="overflow:visible;"/>
		</clipPath>
		
			<line style="opacity:0.6;clip-path:url(#SVGID_00000050636051028650934980000013600855733113139377_);fill:none;stroke:#FFFFFF;stroke-width:26.7624;stroke-miterlimit:10;enable-background:new    ;" x1="231.3" y1="286.6" x2="186.8" y2="99.6"/>
	</g>
	<g style="clip-path:url(#SVGID_00000080885719136956934530000017558447413249073561_);">
		<defs>
			<polygon id="SVGID_00000060727091117867702290000000250226737886480059_" points="272.8,161.9 147.2,191.6 182.9,325.4 			"/>
		</defs>
		<clipPath id="SVGID_00000000218888462730231440000000132842808968357044_">
			<use xlink:href="#SVGID_00000060727091117867702290000000250226737886480059_"  style="overflow:visible;"/>
		</clipPath>
		
			<line style="opacity:0.6;clip-path:url(#SVGID_00000000218888462730231440000000132842808968357044_);fill:none;stroke:#FFFFFF;stroke-width:13.3812;stroke-miterlimit:10;enable-background:new    ;" x1="272.5" y1="317.9" x2="228.1" y2="130.8"/>
	</g>
</g>
<g>
	<defs>
		<path id="SVGID_00000065042814203605862670000004961494766026876842_" d="M195.8,305.8L295,156.8c0.8-1.3,1.5-2.7,1.9-4.2
			l7.4-30.2c2.9-11.8-9.9-21.1-20.3-14.8L151.4,189c-2.7,1.7-4.8,4.2-5.8,7.3l-9,27.3c-1.1,3.4-0.8,7.1,0.7,10.2l34.9,70.5
			C177,313.7,190.1,314.5,195.8,305.8z"/>
	</defs>
	<clipPath id="SVGID_00000126294371604821312870000015827428250353072283_">
		<use xlink:href="#SVGID_00000065042814203605862670000004961494766026876842_"  style="overflow:visible;"/>
	</clipPath>
	<path style="clip-path:url(#SVGID_00000126294371604821312870000015827428250353072283_);fill:#FFFFFF;" d="M175.2,183.6
		c1.6,1.6,4.5,9.7,4.5,9.7s2.5-7.6,4.5-9.7c2-2.1,9.7-4.5,9.7-4.5s-8-2.7-9.7-4.5c-1.7-1.7-4.5-9.7-4.5-9.7s-2.6,7.8-4.5,9.7
		c-1.9,1.9-9.7,4.5-9.7,4.5S173.5,181.9,175.2,183.6z"/>
</g>
<g>
	<defs>
		<path id="SVGID_00000128487116811008172000000006507662470912606352_" d="M195.8,305.8L295,156.8c0.8-1.3,1.5-2.7,1.9-4.2
			l7.4-30.2c2.9-11.8-9.9-21.1-20.3-14.8L151.4,189c-2.7,1.7-4.8,4.2-5.8,7.3l-9,27.3c-1.1,3.4-0.8,7.1,0.7,10.2l34.9,70.5
			C177,313.7,190.1,314.5,195.8,305.8z"/>
	</defs>
	<clipPath id="SVGID_00000178170855381500992430000012651065965880657806_">
		<use xlink:href="#SVGID_00000128487116811008172000000006507662470912606352_"  style="overflow:visible;"/>
	</clipPath>
	<path style="clip-path:url(#SVGID_00000178170855381500992430000012651065965880657806_);fill:#FFFFFF;" d="M227.6,193.6
		c0.7,0.7,2,4.4,2,4.4s1.1-3.5,2-4.4c0.9-0.9,4.4-2,4.4-2s-3.6-1.2-4.4-2c-0.8-0.8-2-4.4-2-4.4s-1.2,3.5-2,4.4s-4.4,2-4.4,2
		S226.9,192.9,227.6,193.6z"/>
</g>
<g>
	<defs>
		<path id="SVGID_00000100366230144271634650000015467021303814161073_" d="M216,392.4l132.6-81.4c2.7-1.7,4.8-4.2,5.8-7.3l9-27.3
			c1.1-3.4,0.8-7.1-0.7-10.2l-34.9-70.5c-4.7-9.4-17.6-10.2-23.4-1.5L205,343.2c-0.8,1.3-1.5,2.7-1.9,4.2l-7.4,30.2
			C192.9,389.4,205.7,398.8,216,392.4z"/>
	</defs>
	<clipPath id="SVGID_00000135660638244015735950000007275769752091351464_">
		<use xlink:href="#SVGID_00000100366230144271634650000015467021303814161073_"  style="overflow:visible;"/>
	</clipPath>
	<polygon style="clip-path:url(#SVGID_00000135660638244015735950000007275769752091351464_);fill:#19898A;" points="187.9,409.7 
		352.8,308.5 227.2,338.2 	"/>
	<polygon style="clip-path:url(#SVGID_00000135660638244015735950000007275769752091351464_);fill:#68FEE2;" points="227.2,338.2 
		227.2,338.2 317.1,174.8 203.8,345.2 187.9,409.7 	"/>
	<polygon style="clip-path:url(#SVGID_00000135660638244015735950000007275769752091351464_);fill:#3AC1AC;" points="227.2,338.2 
		352.8,308.5 317.1,174.8 	"/>
	<polygon style="clip-path:url(#SVGID_00000135660638244015735950000007275769752091351464_);fill:#68FEE2;" points="317.1,174.8 
		352.8,308.5 365,271.3 	"/>
</g>
<g>
	<defs>
		<path id="SVGID_00000047060118694538060670000001893859028869266103_" d="M216,392.4l132.6-81.4c2.7-1.7,4.8-4.2,5.8-7.3l9-27.3
			c1.1-3.4,0.8-7.1-0.7-10.2l-34.9-70.5c-4.7-9.4-17.6-10.2-23.4-1.5L205,343.2c-0.8,1.3-1.5,2.7-1.9,4.2l-7.4,30.2
			C192.9,389.4,205.7,398.8,216,392.4z"/>
	</defs>
	<clipPath id="SVGID_00000088839259121223535270000004044045694919868310_">
		<use xlink:href="#SVGID_00000047060118694538060670000001893859028869266103_"  style="overflow:visible;"/>
	</clipPath>
	<g style="clip-path:url(#SVGID_00000088839259121223535270000004044045694919868310_);">
		<defs>
			<polygon id="SVGID_00000147912333720528010140000000457586062681300105_" points="227.2,338.2 352.8,308.5 317.1,174.8 			"/>
		</defs>
		<clipPath id="SVGID_00000023988673441500378990000008433995504509922446_">
			<use xlink:href="#SVGID_00000147912333720528010140000000457586062681300105_"  style="overflow:visible;"/>
		</clipPath>
		
			<line style="opacity:0.5;clip-path:url(#SVGID_00000023988673441500378990000008433995504509922446_);fill:none;stroke:#FFFFFF;stroke-width:26.7624;stroke-miterlimit:10;enable-background:new    ;" x1="368.3" y1="322.1" x2="199.3" y2="230.2"/>
	</g>
	<g style="clip-path:url(#SVGID_00000088839259121223535270000004044045694919868310_);">
		<defs>
			<polygon id="SVGID_00000155861518973611444350000012257522221428220574_" points="227.2,338.2 352.8,308.5 317.1,174.8 			"/>
		</defs>
		<clipPath id="SVGID_00000020358999666459167360000009895666956781397922_">
			<use xlink:href="#SVGID_00000155861518973611444350000012257522221428220574_"  style="overflow:visible;"/>
		</clipPath>
		
			<line style="opacity:0.5;clip-path:url(#SVGID_00000020358999666459167360000009895666956781397922_);fill:none;stroke:#FFFFFF;stroke-width:13.3812;stroke-miterlimit:10;enable-background:new    ;" x1="419" y1="312.3" x2="250.2" y2="220.5"/>
	</g>
</g>
<g>
	<defs>
		<path id="SVGID_00000159454924070761424590000011323995945886204066_" d="M216,392.4l132.6-81.4c2.7-1.7,4.8-4.2,5.8-7.3l9-27.3
			c1.1-3.4,0.8-7.1-0.7-10.2l-34.9-70.5c-4.7-9.4-17.6-10.2-23.4-1.5L205,343.2c-0.8,1.3-1.5,2.7-1.9,4.2l-7.4,30.2
			C192.9,389.4,205.7,398.8,216,392.4z"/>
	</defs>
	<clipPath id="SVGID_00000163074253055125685200000016060751048615997352_">
		<use xlink:href="#SVGID_00000159454924070761424590000011323995945886204066_"  style="overflow:visible;"/>
	</clipPath>
	<path style="clip-path:url(#SVGID_00000163074253055125685200000016060751048615997352_);fill:#FFFFFF;" d="M272.4,336.2
		c-0.7-0.7-2-4.4-2-4.4s-1.1,3.5-2,4.4c-0.9,0.9-4.4,2-4.4,2s3.6,1.2,4.4,2c0.8,0.7,2,4.4,2,4.4s1.2-3.5,2-4.4s4.4-2,4.4-2
		S273.1,336.8,272.4,336.2z"/>
</g>
<g>
	<defs>
		<path id="SVGID_00000060002151547804978440000010648051508002927294_" d="M216,392.4l132.6-81.4c2.7-1.7,4.8-4.2,5.8-7.3l9-27.3
			c1.1-3.4,0.8-7.1-0.7-10.2l-34.9-70.5c-4.7-9.4-17.6-10.2-23.4-1.5L205,343.2c-0.8,1.3-1.5,2.7-1.9,4.2l-7.4,30.2
			C192.9,389.4,205.7,398.8,216,392.4z"/>
	</defs>
	<clipPath id="SVGID_00000139289558501415278050000017727335845336580799_">
		<use xlink:href="#SVGID_00000060002151547804978440000010648051508002927294_"  style="overflow:visible;"/>
	</clipPath>
	<polygon style="clip-path:url(#SVGID_00000139289558501415278050000017727335845336580799_);fill:#19898A;" points="187.9,409.7 
		352.8,308.5 227.2,338.2 	"/>
	<polygon style="clip-path:url(#SVGID_00000139289558501415278050000017727335845336580799_);fill:#68FEE2;" points="227.2,338.2 
		227.2,338.2 317.1,174.8 203.8,345.2 187.9,409.7 	"/>
	<polygon style="clip-path:url(#SVGID_00000139289558501415278050000017727335845336580799_);fill:#1FC9A8;" points="227.2,338.2 
		352.8,308.5 317.1,174.8 	"/>
	<polygon style="clip-path:url(#SVGID_00000139289558501415278050000017727335845336580799_);fill:#68FEE2;" points="317.1,174.8 
		352.8,308.5 365,271.3 	"/>
</g>
<g>
	<defs>
		<path id="SVGID_00000034050064126893626660000003662769498981629094_" d="M216,392.4l132.6-81.4c2.7-1.7,4.8-4.2,5.8-7.3l9-27.3
			c1.1-3.4,0.8-7.1-0.7-10.2l-34.9-70.5c-4.7-9.4-17.6-10.2-23.4-1.5L205,343.2c-0.8,1.3-1.5,2.7-1.9,4.2l-7.4,30.2
			C192.9,389.4,205.7,398.8,216,392.4z"/>
	</defs>
	<clipPath id="SVGID_00000173853145401341238940000001864835457274867331_">
		<use xlink:href="#SVGID_00000034050064126893626660000003662769498981629094_"  style="overflow:visible;"/>
	</clipPath>
	<g style="clip-path:url(#SVGID_00000173853145401341238940000001864835457274867331_);">
		<defs>
			<polygon id="SVGID_00000183209906281096833010000017802933854576059776_" points="227.2,338.2 352.8,308.5 317.1,174.8 			"/>
		</defs>
		<clipPath id="SVGID_00000157278798759478366770000014346524299811104141_">
			<use xlink:href="#SVGID_00000183209906281096833010000017802933854576059776_"  style="overflow:visible;"/>
		</clipPath>
		
			<line style="clip-path:url(#SVGID_00000157278798759478366770000014346524299811104141_);fill:none;stroke:#FFFFFF;stroke-width:22.5264;stroke-miterlimit:10;" x1="379.5" y1="307.3" x2="210.6" y2="215.4"/>
	</g>
	<g style="clip-path:url(#SVGID_00000173853145401341238940000001864835457274867331_);">
		<defs>
			<polygon id="SVGID_00000106833308504490520950000015647725674351600009_" points="227.2,338.2 352.8,308.5 317.1,174.8 			"/>
		</defs>
		<clipPath id="SVGID_00000054956894392362749840000001933917099519901064_">
			<use xlink:href="#SVGID_00000106833308504490520950000015647725674351600009_"  style="overflow:visible;"/>
		</clipPath>
		
			<line style="clip-path:url(#SVGID_00000054956894392362749840000001933917099519901064_);fill:none;stroke:#FFFFFF;stroke-width:15.0176;stroke-miterlimit:10;" x1="430.3" y1="297.5" x2="261.4" y2="205.6"/>
	</g>
</g>
<g>
	<defs>
		<path id="SVGID_00000143590955943806843290000014872342288577328319_" d="M216,392.4l132.6-81.4c2.7-1.7,4.8-4.2,5.8-7.3l9-27.3
			c1.1-3.4,0.8-7.1-0.7-10.2l-34.9-70.5c-4.7-9.4-17.6-10.2-23.4-1.5L205,343.2c-0.8,1.3-1.5,2.7-1.9,4.2l-7.4,30.2
			C192.9,389.4,205.7,398.8,216,392.4z"/>
	</defs>
	<clipPath id="SVGID_00000129182206356563794850000010078955787307606697_">
		<use xlink:href="#SVGID_00000143590955943806843290000014872342288577328319_"  style="overflow:visible;"/>
	</clipPath>
	<path style="clip-path:url(#SVGID_00000129182206356563794850000010078955787307606697_);fill:#FFFFFF;" d="M272.4,336.2
		c-0.7-0.7-2-4.4-2-4.4s-1.1,3.5-2,4.4c-0.9,0.9-4.4,2-4.4,2s3.6,1.2,4.4,2c0.8,0.7,2,4.4,2,4.4s1.2-3.5,2-4.4s4.4-2,4.4-2
		S273.1,336.8,272.4,336.2z"/>
</g>
<g>
	<defs>
		<path id="SVGID_00000091002542886312755930000012781456746350595758_" d="M195.8,305.8L295,156.8c0.8-1.3,1.5-2.7,1.9-4.2
			l7.4-30.2c2.9-11.8-9.9-21.1-20.3-14.8L151.4,189c-2.7,1.7-4.8,4.2-5.8,7.3l-9,27.3c-1.1,3.4-0.8,7.1,0.7,10.2l34.9,70.5
			C177,313.7,190.1,314.5,195.8,305.8z"/>
	</defs>
	<clipPath id="SVGID_00000109734846157414547540000001850643754245985416_">
		<use xlink:href="#SVGID_00000091002542886312755930000012781456746350595758_"  style="overflow:visible;"/>
	</clipPath>
</g>
<g>
	<defs>
		<path id="SVGID_00000105419654769376555350000005791593512071835521_" d="M216,392.4l132.6-81.4c2.7-1.7,4.8-4.2,5.8-7.3l9-27.3
			c1.1-3.4,0.8-7.1-0.7-10.2l-34.9-70.5c-4.7-9.4-17.6-10.2-23.4-1.5L205,343.2c-0.8,1.3-1.5,2.7-1.9,4.2l-7.4,30.2
			C192.9,389.4,205.7,398.8,216,392.4z"/>
	</defs>
	<clipPath id="SVGID_00000183211498906749320880000008954653745365380752_">
		<use xlink:href="#SVGID_00000105419654769376555350000005791593512071835521_"  style="overflow:visible;"/>
	</clipPath>
</g>
<g>
	<defs>
		<path id="SVGID_00000127725714945300365530000006952161597400480657_" d="M216,392.4l132.6-81.4c2.7-1.7,4.8-4.2,5.8-7.3l9-27.3
			c1.1-3.4,0.8-7.1-0.7-10.2l-34.9-70.5c-4.7-9.4-17.6-10.2-23.4-1.5L205,343.2c-0.8,1.3-1.5,2.7-1.9,4.2l-7.4,30.2
			C192.9,389.4,205.7,398.8,216,392.4z"/>
	</defs>
	<clipPath id="SVGID_00000074434898534646959310000008642766893187770498_">
		<use xlink:href="#SVGID_00000127725714945300365530000006952161597400480657_"  style="overflow:visible;"/>
	</clipPath>
</g>
</svg>
