<?xml version="1.0" encoding="utf-8"?>
<!-- Generator: Adobe Illustrator 27.7.0, SVG Export Plug-In . SVG Version: 6.00 Build 0)  -->
<svg version="1.1" id="Layer_1" xmlns="http://www.w3.org/2000/svg" xmlns:xlink="http://www.w3.org/1999/xlink" x="0px" y="0px"
	 viewBox="0 0 500 500" style="enable-background:new 0 0 500 500;" xml:space="preserve">
<style type="text/css">
	.st0{fill-rule:evenodd;clip-rule:evenodd;fill:#231F20;}
</style>
<path class="st0" d="M249.4,499.9c74.1,0,140.6-32.2,186.4-83.4c-21.3-18.5-53.4-19.6-76.1-1.3l-4.3,3.5
	c-41.5,33.5-102,28.5-137.5-11.2c-19.4-21.7-52.5-23.9-74.6-5l-49.9,42.8C136.1,479.4,190.3,499.9,249.4,499.9z M330.4,378.8
	c39.5-31.9,95.1-30.8,133.1,0.1c22.7-37.7,35.8-81.8,35.8-129c0-52.4-16.1-101.1-43.7-141.3c-17.8-3.8-37.1,0.6-51.7,13.6l-4.2,3.7
	c-39.9,35.4-100.6,33.2-137.9-4.9c-20.4-20.8-53.6-21.5-74.8-1.5L129,174.1l-32-34l58.1-54.7c39.7-37.3,102-36.1,140.1,2.9
	c19.9,20.3,52.3,21.5,73.6,2.6l4.2-3.7c12.9-11.5,27.9-19.2,43.6-23.3C372.3,24.1,313.6-0.1,249.4-0.1C122.5-0.1,17.6,94.4,1.5,217
	c38.5-18.5,86.1-11.4,117.5,20.8c19.8,20.3,51.8,22.5,74.2,5l32.5-25.4c40.8-31.9,98.6-30.4,137.6,3.7l63.3,55.1l-30.6,35.2
	l-63.3-55.1c-22.2-19.4-55-20.2-78.3-2.1l-32.5,25.4c-41.1,32.1-99.8,28.2-136.3-9.1c-21.2-21.7-55.9-22.5-78-1.7l-7,6.6
	c5.3,52.2,26.6,99.7,59,137.4l53.3-45.7c41.4-35.5,103.5-31.3,139.8,9.3c19,21.2,51.2,23.9,73.4,6L330.4,378.8z"/>
</svg>
