<?xml version="1.0" encoding="utf-8"?>
<!-- Generator: Adobe Illustrator 27.5.0, SVG Export Plug-In . SVG Version: 6.00 Build 0)  -->
<svg version="1.1" id="Layer_1" xmlns="http://www.w3.org/2000/svg" xmlns:xlink="http://www.w3.org/1999/xlink" x="0px" y="0px"
	 viewBox="0 0 500 500" style="enable-background:new 0 0 500 500;" xml:space="preserve">
<style type="text/css">
	.st0{fill:url(#SVGID_1_);}
	.st1{fill:url(#SVGID_00000107587675451744108000000009282590304190823043_);}
	.st2{fill:url(#SVGID_00000027593225751756061940000011626293049206420912_);}
	.st3{opacity:0.5;fill:url(#SVGID_00000170998188180361071260000002356848979297001660_);enable-background:new    ;}
	.st4{opacity:0.5;fill:url(#SVGID_00000011719959168946053410000008878605108536937390_);enable-background:new    ;}
	.st5{fill:url(#SVGID_00000098923661869067825870000013325216940080377266_);}
	.st6{opacity:0.5;fill:url(#SVGID_00000052100218919246757920000003836946893243550621_);enable-background:new    ;}
	.st7{opacity:0.8;fill:#FFFFFF;enable-background:new    ;}
	.st8{fill:url(#SVGID_00000010997163420772653850000003410461709826805675_);}
	.st9{fill:url(#SVGID_00000181766708575432432250000003563245493996321690_);}
	.st10{fill:url(#SVGID_00000031174729044941499470000015402326144984420260_);}
	.st11{opacity:0.5;fill:url(#SVGID_00000045605364327690063690000015341414757436330682_);enable-background:new    ;}
	.st12{fill:url(#SVGID_00000167392256781091974770000009588050950771560081_);}
	.st13{opacity:0.5;fill:url(#SVGID_00000086690617378821517290000008762838640488628411_);enable-background:new    ;}
	.st14{opacity:0.6;fill:#FFFFFF;enable-background:new    ;}
	.st15{opacity:0.79;fill:url(#SVGID_00000098929682989093779130000017636523066886420157_);enable-background:new    ;}
</style>
<linearGradient id="SVGID_1_" gradientUnits="userSpaceOnUse" x1="99.74" y1="63.5343" x2="-16.9736" y2="60.779" gradientTransform="matrix(1 0 0 -1 0 501)">
	<stop  offset="0" style="stop-color:#4DC7F6"/>
	<stop  offset="0.4695" style="stop-color:#59F4D9"/>
	<stop  offset="1" style="stop-color:#A8F8C0"/>
</linearGradient>
<path class="st0" d="M25.7,463.2C13.6,463,9.3,456,14.4,445.1s13.2-19.6,22.8-26.6c8.1-6,16.4-4.9,24.7-0.4
	c13.4,7.2,23.9,17.7,32.8,29.6c5.5,7.2,3,13-6.4,13.9C77.5,462.4,35.5,463.5,25.7,463.2z"/>
<linearGradient id="SVGID_00000054256723969596058600000001292440398409593516_" gradientUnits="userSpaceOnUse" x1="403.4097" y1="317.2984" x2="319.744" y2="411.2992" gradientTransform="matrix(1 0 0 -1 0 501)">
	<stop  offset="0" style="stop-color:#96F7C6"/>
	<stop  offset="1" style="stop-color:#D2FBDF"/>
</linearGradient>
<path style="fill:url(#SVGID_00000054256723969596058600000001292440398409593516_);" d="M404.1,160.3c1.7,16.2,1.1,32-5.5,47.1
	c-2.3,5.1-4.9,11.3-11.3,11.1c-7-0.2-7.9-7-9.4-12.4c-9-33.3-23.7-63.3-49.9-86.3c-8.3-7.5-18.1-13.4-26.4-20.7
	c-6.2-5.3-13-11.9-8.3-21.1c4.3-8.5,12.8-9.4,21.5-9C363.2,71.4,398.3,107.2,404.1,160.3z"/>
<linearGradient id="SVGID_00000070111686138438975840000015445253299154515595_" gradientUnits="userSpaceOnUse" x1="456.5656" y1="364.6166" x2="372.9" y2="458.6176" gradientTransform="matrix(1 0 0 -1 0 501)">
	<stop  offset="0" style="stop-color:#96F7C6"/>
	<stop  offset="1" style="stop-color:#D2FBDF"/>
</linearGradient>
<path style="fill:url(#SVGID_00000070111686138438975840000015445253299154515595_);" d="M451.2,94.2c1.5,6,2.1,12.2,2.1,18.3
	c0,12.4-1.5,24.3-6.8,35.8c-2.6,5.5-6.6,11.1-13.6,10.2c-6.8-0.9-6.2-7.5-7-12.4c-5.3-26.2-11.9-51.8-33-70.6
	c-6.4-5.8-13.9-10.4-20.7-15.8c-3.6-3-8.3-5.8-7.5-11.3c1.1-6.4,6.4-9.2,12.2-10.4c17.3-4.1,32.8,0.6,46.5,11.1
	C438.4,61,446.9,76.5,451.2,94.2z"/>
<linearGradient id="SVGID_00000036245245721760574230000013677184742651022994_" gradientUnits="userSpaceOnUse" x1="408.1007" y1="323.4466" x2="325.2464" y2="416.5357" gradientTransform="matrix(1 0 0 -1 0 501)">
	<stop  offset="0" style="stop-color:#FFFFFF"/>
	<stop  offset="0.8616" style="stop-color:#FFFFFF;stop-opacity:0"/>
</linearGradient>
<path style="opacity:0.5;fill:url(#SVGID_00000036245245721760574230000013677184742651022994_);enable-background:new    ;" d="
	M398.6,207.4c-0.4,1.1-0.9,2.1-1.5,3.2c4.1-15.1,2.6-30.3-0.9-45.4c-12.4-51.8-51.8-82.9-100.6-79.5c-1.3,0-2.6,0.2-3.8,0.4
	c-0.6-2.6-0.2-5.3,1.3-8.3c4.3-8.3,12.8-9.4,21.5-9c48.8,2.6,84,38.6,89.7,91.5C405.8,176.5,405.2,192.3,398.6,207.4z"/>
<linearGradient id="SVGID_00000031892674399314750480000004142305964698272409_" gradientUnits="userSpaceOnUse" x1="460.4262" y1="368.0559" x2="376.7773" y2="462.0379" gradientTransform="matrix(1 0 0 -1 0 501)">
	<stop  offset="0" style="stop-color:#FFFFFF"/>
	<stop  offset="0.8616" style="stop-color:#FFFFFF;stop-opacity:0"/>
</linearGradient>
<path style="opacity:0.5;fill:url(#SVGID_00000031892674399314750480000004142305964698272409_);enable-background:new    ;" d="
	M453.4,112.6c0,12.4-1.5,24.3-6.8,35.8c-1.3,2.6-2.8,5.3-4.9,7.2c1.5-2.3,2.6-5.3,3.2-8.1c2.8-12.4,1.7-24.3-1.1-36.5
	c-1.3-6-3.2-11.9-6-17.5C429.7,77.2,418,64,400.7,55.9c-11.7-5.5-24.1-7.5-36.2-4.9c0-0.6,0-1.5,0-2.3c1.1-6.4,6.4-9.2,12.2-10.4
	c17.3-4.1,32.8,0.6,46.5,11.1c15.1,11.5,23.7,27.1,28.1,44.8C452.7,100.2,453.4,106.4,453.4,112.6z"/>
<linearGradient id="SVGID_00000165192248632576455190000004181674839647583400_" gradientUnits="userSpaceOnUse" x1="128.5332" y1="10.9808" x2="510.9336" y2="256.0714" gradientTransform="matrix(1 0 0 -1 0 501)">
	<stop  offset="0" style="stop-color:#4DC7F6"/>
	<stop  offset="0.4695" style="stop-color:#59F4D9"/>
	<stop  offset="1" style="stop-color:#A8F8C0"/>
</linearGradient>
<path style="fill:url(#SVGID_00000165192248632576455190000004181674839647583400_);" d="M471.9,182.7
	c-31.3-7.5-42.6,22.2-95.9,98.9c0,0-10.2,17.3-30.5,39.9c-32.2,36-90.4,85.7-174.4,103c-11.7,2.3-24.1,4.3-37.1,5.1
	c-22.4,1.7-36.7,0-44.6-4.1c8.5,5.5,29.2,13.9,29.2,13.9c84.8,29.8,179.1,25.8,261.4-12.6C542.3,341.5,503.2,190,471.9,182.7z"/>
<linearGradient id="SVGID_00000129895635160829014940000015470188050688240314_" gradientUnits="userSpaceOnUse" x1="514.3297" y1="255.3225" x2="126.7618" y2="16.8759" gradientTransform="matrix(1 0 0 -1 0 501)">
	<stop  offset="0" style="stop-color:#FFFFFF"/>
	<stop  offset="0.8616" style="stop-color:#FFFFFF;stop-opacity:0"/>
</linearGradient>
<path style="opacity:0.5;fill:url(#SVGID_00000129895635160829014940000015470188050688240314_);enable-background:new    ;" d="
	M380.2,426.6C298,465,203.7,469.2,118.7,439.4c0,0-20.7-8.3-29.2-13.9c75.3,32.2,189.5,12.6,255.6-18.1
	c130-68.2,130.7-179.3,109.6-224.3c5.3-1.7,10.9-1.7,17.3-0.2C503.2,190,542.3,341.5,380.2,426.6z"/>
<path class="st7" d="M380.2,426.6c-46.7,21.7-97,32.6-147.3,32.4c49.5-0.2,98.7-11.1,144.3-32.4c162-85.1,123.2-236.6,91.7-243.9
	c-2.6-0.6-5.1-1.1-7.5-1.1c3.2-0.2,6.6,0.2,10.2,1.1C503.2,190,542.3,341.5,380.2,426.6z"/>
<linearGradient id="SVGID_00000014619195881380443240000003621981803894591106_" gradientUnits="userSpaceOnUse" x1="91.0298" y1="69.0228" x2="348.4241" y2="236.8457" gradientTransform="matrix(1 0 0 -1 0 501)">
	<stop  offset="0" style="stop-color:#015B7A"/>
	<stop  offset="0.4695" style="stop-color:#0173B5"/>
	<stop  offset="1" style="stop-color:#0047A3"/>
</linearGradient>
<path style="fill:url(#SVGID_00000014619195881380443240000003621981803894591106_);" d="M351.7,270.5c0,17.7-16.4,44.8-54.4,80.4
	c-50.5,47.5-126.2,73.3-126.2,73.3c-11.7,2.3-24.1,4.3-37.1,5.1c-22.4,1.7-36.7,0-44.6-4.1c-0.4-0.2-1.1-0.6-1.5-0.9h-0.2
	c-33.5-21.5,76.1-97.8,125.3-130.3c72.3-38.4,121.9-50.7,133.2-38.2C349.7,259.9,351.7,264.8,351.7,270.5z"/>
<linearGradient id="SVGID_00000065753218494783522290000014848878216548159660_" gradientUnits="userSpaceOnUse" x1="26.8508" y1="238.1836" x2="249.0564" y2="376.9697" gradientTransform="matrix(1 0 0 -1 0 501)">
	<stop  offset="0" style="stop-color:#3308D4"/>
	<stop  offset="0.4695" style="stop-color:#4919DF"/>
	<stop  offset="1" style="stop-color:#420FB0"/>
</linearGradient>
<path style="fill:url(#SVGID_00000065753218494783522290000014848878216548159660_);" d="M242.9,111.1c23.2,12.2-22,64.4-81.9,106.4
	c-0.2,0-0.2,0.2-0.4,0.2c-14.9,10.4-30.5,20-46.5,28.6c-79.9,42.2-108.1,4.3-95.9-13c0,0,0.6-1.1,2.6-3.2l0.2-0.2
	c0.2-0.2,0.2-0.2,0.4-0.4c3.8-3.8,11.5-10.4,26-18.1c23.4-12.4,26.6-17.1,26.6-17.1c6.8-2.3,14.5-6,23-11.1
	c49.9-30.1,110.9-82.3,141.6-74C240,109.8,241.4,110.4,242.9,111.1C242.7,110.9,242.7,110.9,242.9,111.1z"/>
<linearGradient id="SVGID_00000116952053407491495520000002463244429430616478_" gradientUnits="userSpaceOnUse" x1="13.674" y1="170.0144" x2="325.205" y2="315.6915" gradientTransform="matrix(1 0 0 -1 0 501)">
	<stop  offset="0" style="stop-color:#5975FE"/>
	<stop  offset="1" style="stop-color:#7CD5FF"/>
</linearGradient>
<path style="fill:url(#SVGID_00000116952053407491495520000002463244429430616478_);" d="M213.1,294.2c-14.3,7.7-29.4,16.2-45.4,26
	C71.1,378.6,37,352.6,23.2,340.5C9.7,328.7,5,307.6,4.6,306.1c-15.6-50.3,13-72.7,16-76.1c-1.9,1.9-2.6,3.2-2.6,3.2
	c-11.9,17.3,16.2,55.4,95.9,13c15.8-8.3,31.6-18.1,46.5-28.6c0,0,0.2-0.2,0.4-0.2c6.2-4.3,68.9-47.5,104.5-59.7
	c36.7-12.6,59.1,21.5,60.3,23.4c17.1,27.3,25.2,58.4,25.8,89.5c0-5.8-1.7-10.7-5.1-14.5C335,243.5,285.4,255.8,213.1,294.2z"/>
<linearGradient id="SVGID_00000174589681842825537480000016369037576492571319_" gradientUnits="userSpaceOnUse" x1="345.1683" y1="274.6133" x2="14.46" y2="175.6961" gradientTransform="matrix(1 0 0 -1 0 501)">
	<stop  offset="0" style="stop-color:#FFFFFF"/>
	<stop  offset="0.8616" style="stop-color:#FFFFFF;stop-opacity:0"/>
</linearGradient>
<path style="opacity:0.5;fill:url(#SVGID_00000174589681842825537480000016369037576492571319_);enable-background:new    ;" d="
	M351.7,270.5c0-5.8-1.7-10.7-5.1-14.5c-11.5-12.6-61-0.4-133.2,38.2c-14.3,7.7-29.4,16.2-45.4,26c-96.6,58.4-130.7,32.4-144.5,20.3
	C9.9,328.7,5.2,307.6,4.8,306.1c-3.4-10.7-4.7-20.3-4.7-28.6c3.2,7.2,9,17.7,17.5,24.1c14.7,11.1,50.5,34.7,142.8-29.8
	c15.3-10.7,29.8-20.3,43.7-29c36.9-23,68-38.2,90.8-45.4c21.3-6.8,44.1,5.3,50.1,27.1C349.1,239.6,351.4,255,351.7,270.5z"/>
<linearGradient id="SVGID_00000137113317771421644690000008304559494507477664_" gradientUnits="userSpaceOnUse" x1="19.8188" y1="321.2956" x2="233.9048" y2="400.6554" gradientTransform="matrix(1 0 0 -1 0 501)">
	<stop  offset="0" style="stop-color:#E6A9FF"/>
	<stop  offset="1" style="stop-color:#8556FC"/>
</linearGradient>
<path style="fill:url(#SVGID_00000137113317771421644690000008304559494507477664_);" d="M238.7,109.4c-30.9-8.5-91.7,43.9-141.6,74
	c-8.5,5.1-16.2,8.7-23,11.1c-8.7,3-16.2,4.1-22.4,4.1c-0.9,0-1.7,0-2.6,0c-0.2,0-0.2,0-0.4,0c-0.9,0-1.5-0.2-2.1-0.2
	c-0.2,0-0.4,0-0.6,0c-0.6,0-1.3-0.2-1.9-0.2c-0.6-0.2-1.3-0.2-1.9-0.4c-0.9-0.2-1.9-0.4-2.8-0.6c-0.6-0.2-1.3-0.4-1.9-0.6
	c-0.6-0.2-1.3-0.4-1.9-0.6c-0.6-0.2-1.1-0.4-1.7-0.9c-6.6-3.2-9.8-7-9.8-7c7.7-13.6,17.3-26.6,29-38.2
	c49.2-49.2,120.2-63.1,181.8-41.6C234.6,107.9,237.2,108.7,238.7,109.4z"/>
<linearGradient id="SVGID_00000153697163249031867710000000669066067728224912_" gradientUnits="userSpaceOnUse" x1="41.3514" y1="297.2827" x2="213.7268" y2="402.8491" gradientTransform="matrix(1 0 0 -1 0 501)">
	<stop  offset="0" style="stop-color:#FFFFFF"/>
	<stop  offset="0.8616" style="stop-color:#FFFFFF;stop-opacity:0"/>
</linearGradient>
<path style="opacity:0.5;fill:url(#SVGID_00000153697163249031867710000000669066067728224912_);enable-background:new    ;" d="
	M238.7,109.4c-30.9-8.5-91.7,43.9-141.6,74c-8.5,5.1-16.2,8.7-23,11.1c-8.7,3-16.2,4.1-22.4,4.1c-0.9,0-1.7,0-2.6,0
	c-0.2,0-0.2,0-0.4,0c-0.9,0-1.5-0.2-2.1-0.2c-0.2,0-0.4,0-0.6,0c-0.6,0-1.3-0.2-1.9-0.2c-0.6-0.2-1.3-0.2-1.9-0.4
	c-0.9-0.2-1.9-0.4-2.8-0.6c-0.6-0.2-1.3-0.4-1.9-0.6c-0.6-0.2-1.3-0.4-1.9-0.6c-0.6-0.2-1.1-0.4-1.7-0.9c-6.4-3-9.4-6.6-9.8-7
	c2.8-0.6,5.8-1.5,9-2.6c7-2.3,14.7-6,23.2-11.1c45.8-27.5,100.8-74,133.9-75.5c3,0.2,5.8,0.4,8.7,0.9c12.2,1.5,24.3,4.3,36,8.3
	C234.6,107.9,237.4,108.7,238.7,109.4z"/>
<path class="st14" d="M238.7,109.4c-30.9-8.5-91.7,43.9-141.6,74c-8.5,5.1-16.2,8.7-23,11.1c-8.7,3-16.2,4.1-22.4,4.1
	c-0.9,0-1.7,0-2.6,0c-0.2,0-0.2,0-0.4,0c-0.9,0-1.5-0.2-2.1-0.2c-0.2,0-0.4,0-0.6,0c-0.6,0-1.3-0.2-1.9-0.2
	c-0.6-0.2-1.3-0.2-1.9-0.4c-0.9-0.2-1.9-0.4-2.8-0.6c-0.6-0.2-1.3-0.4-1.9-0.6c-0.6-0.2-1.3-0.4-1.9-0.6c-0.6-0.2-1.1-0.4-1.7-0.9
	c8.1,3,20.5,4.5,37.7-1.5c6.8-2.3,14.5-6,23-11.1c49.2-29.6,109.1-81,140.3-74.2C234.6,107.9,237.2,108.7,238.7,109.4z"/>
<path class="st14" d="M166.8,213.2c48.8-37.1,85.9-80.2,80.6-98.5C258.1,131.1,218.8,175.7,166.8,213.2z"/>
<linearGradient id="SVGID_00000164476756820508475380000006897399054831031202_" gradientUnits="userSpaceOnUse" x1="152.4139" y1="152.291" x2="487.1991" y2="351.2426" gradientTransform="matrix(1 0 0 -1 0 501)">
	<stop  offset="0" style="stop-color:#FFFFFF"/>
	<stop  offset="0.8616" style="stop-color:#FFFFFF;stop-opacity:0"/>
</linearGradient>
<path style="opacity:0.79;fill:url(#SVGID_00000164476756820508475380000006897399054831031202_);enable-background:new    ;" d="
	M350.8,263.5c0-0.2,0-0.2,0-0.4c-2.1-10-10-12.4-10-12.4c-17.1-7-64.2,6.4-129.4,41.1c-14.3,7.7-29.4,16.2-45.4,26
	c-96.6,58.4-130.7,32.4-144.5,20.3c-1.7-1.5-3.2-3-4.5-4.7c1.9,2.6,4.1,4.9,6.4,7c13.9,11.9,48,38.2,144.5-20.3
	c16-9.6,31.1-18.3,45.4-26c60.5-32.2,105.1-46,124.7-42.2c1.3,0.2,3.8,1.1,6,3.2c3,3.6,4.7,8.1,4.7,13.6c0.2,17.7-15.8,45-53.3,81.2
	c-35.2,33.9-82.7,57.1-108.1,68c25.2-10.2,73.8-33,109.8-66.9c37.9-35.8,54.4-62.7,54.4-80.4C351.7,268,351.4,265.6,350.8,263.5z"/>
</svg>
