<?xml version="1.0" encoding="utf-8"?>
<!-- Generator: Adobe Illustrator 27.7.0, SVG Export Plug-In . SVG Version: 6.00 Build 0)  -->
<svg version="1.1" id="Layer_1" xmlns="http://www.w3.org/2000/svg" xmlns:xlink="http://www.w3.org/1999/xlink" x="0px" y="0px"
	 viewBox="0 0 500 500" style="enable-background:new 0 0 500 500;" xml:space="preserve">
<style type="text/css">
	.st0{fill:#190232;}
	.st1{fill:#2B2063;}
	.st2{fill:#3C17B8;}
	.st3{fill:#AA5EFF;}
	.st4{fill-rule:evenodd;clip-rule:evenodd;fill:#EF9BC8;}
	.st5{fill-rule:evenodd;clip-rule:evenodd;fill:#190232;}
	.st6{fill-rule:evenodd;clip-rule:evenodd;fill:#3C17B8;}
</style>
<path class="st0" d="M313.6,28.7l63.3,24.4l53.5,123.6l-36.9,195.2L231.4,476L149,443.9L0,303.9l35.2-198.2L165,24L313.6,28.7z
	 M195,166.7l-28.8,62.6l47.6,32.1l51.3-18.7l-2.1-60.8L195,166.7z"/>
<polygon class="st1" points="35.2,105.7 82.8,134.4 134.1,105.8 208.4,42.1 165,24.1 35.2,105.7 "/>
<path class="st2" d="M380,57l120,151.9l-39.2,207.2L231.4,476L52.7,316.4l30.2-182.1L216.9,50l6.4-1.7l154,4.9l3.1,3.9H380z
	 M476.3,215L365.7,74.9l-140.1-4.4l-122.5,77L76.5,307.8l160.8,143.8l204.2-53.3L476.3,215L476.3,215z M258.9,214.7l-21.1,45.6
	l35.3,23.9l38.5-13.9l-1.3-44.1L258.9,214.7L258.9,214.7z M214,259.6l32.7-70.6l85.1,19.2l2.2,77l-64.2,23.4l-59.9-40.5L214,259.6
	L214,259.6z"/>
<path class="st3" d="M371.3,64l116.8,148l-36.9,195.2l-216.8,56.7L64.6,312.1L93,141l129.7-81.6C222.7,59.3,371.3,64,371.3,64z
	 M252.7,202l-28.9,62.4l47.6,32.1l51.3-18.7l-2-60.6L252.7,202z"/>
<polygon class="st4" points="223.6,264.3 271.8,308 323.6,277.4 322.6,277.2 322.6,277.8 271.5,296.5 224,264.4 223.6,264.3 "/>
<polygon class="st4" points="180.8,85.7 242.9,72 359.9,84 476.3,215.5 472.9,292.6 488.1,212 371.3,64 222.7,59.3 180.8,85.7 "/>
<path class="st5" d="M128.3,159.9c4.4,5,10,8.8,16.4,10.8c12.8,4.5,26.4-0.3,28-5.6c1-3.3,7.6-16.9-7.6-22.1
	c-10.1-3.5-37.1,2.2-38.5,7.5c-1.4,5.3,0,6.4,1.9,9.4H128.3z"/>
<path class="st4" d="M128.3,163.4c4.4,5,10.1,8.8,16.4,10.8c13.2,4.5,26.4,0,28-5.6c1-3.3,7.6-16.9-7.6-22.1
	c-10.1-3.5-37.1,2.2-38.5,7.4s0,6.4,1.9,9.4L128.3,163.4z"/>
<path class="st6" d="M127.6,161.7c4.4,5,10.1,8.8,16.4,10.8c13.2,4.5,26.4-0.3,28-5.6c1-3.3,7.6-16.9-7.6-22.1
	c-10.1-3.5-37.1,2.2-38.5,7.5c-1.3,5.3,0,6.4,1.9,9.4H127.6z"/>
<path class="st5" d="M394.5,253.2c4.6,5.3,10.5,9.2,17.2,11.3c13.9,4.7,27.8,0,29.4-5.8c1.1-3.7,8-17.7-8-22.9
	c-10.6-3.7-38.9,2.4-40.7,7.9s0,6.4,2.1,9.9V253.2z"/>
<path class="st4" d="M394.9,256.8c4.6,5.3,10.6,9.2,17.3,11.3c13.9,4.7,27.8,0,29.4-5.9c1-3.4,8-17.7-8-23.2
	c-10.6-3.7-39,2.3-40.7,7.9S392.9,253.4,394.9,256.8z"/>
<path class="st6" d="M394.1,255c4.6,5.3,10.6,9.3,17.3,11.4c13.8,4.7,27.7-0.3,29.4-5.9c1.1-3.5,8-17.7-8-23.2
	c-10.7-3.7-39,2.3-40.7,7.8S392,251.5,394.1,255z"/>
<path class="st5" d="M287.3,433.1c-9.1,4.5-19,6.7-29.1,6.4c-21.4,0-38.5-11.6-38.5-18.9c0-4.6-3.1-24.3,21.6-24.3
	c16.5,0,53.4,18.6,53.3,25.7c-0.1,7.1-2.7,7.8-7.3,10.9V433.1z"/>
<path class="st4" d="M285.1,437.3c-9,4.5-19,6.7-29.1,6.4c-21.4,0-38.5-11.6-38.5-18.9c0-4.5-3.1-24.3,21.6-24.3
	c16.5,0,53.4,18.5,53.3,25.7c-0.1,7.1-2.7,7.8-7.3,10.9V437.3z"/>
<path class="st6" d="M287.1,435.6c-9.1,4.4-19.1,6.6-29.2,6.4c-21.4,0-38.5-11.6-38.5-18.9c0-4.6-3.1-24.3,21.6-24.3
	c16.6,0,53.4,18.5,53.4,25.7c-0.1,7.1-2.8,7.8-7.3,11V435.6z"/>
<path class="st5" d="M274.4,364c-4.2,3.3-9.1,5.7-14.2,7.1c-10.5,3-18.8,0-18.7-3.8c-1.1-7,3.6-13.5,10.5-14.7
	c8-2.2,26,1.7,25.7,5.2c-0.4,3.5-1.3,4.2-3.5,6.4L274.4,364z"/>
<path class="st4" d="M273.3,366.6c-4.2,3.3-9.1,5.7-14.2,7.1c-10.5,3-18.8,0-18.8-3.8c-1.1-7,3.6-13.5,10.6-14.7
	c8-2.3,26,1.7,25.7,5.2c-0.4,3.5-1.3,4.2-3.5,6.4L273.3,366.6z"/>
<path class="st6" d="M274.3,365.5c-4.2,3.3-9.1,5.7-14.2,7.1c-10.4,3-18.8-0.4-18.7-3.9c-1.1-7,3.6-13.5,10.5-14.7
	c8-2.2,26,1.7,25.7,5.3c-0.4,3.5-1.3,4.2-3.5,6.4L274.3,365.5z"/>
<path class="st5" d="M330.4,391.6c-3.9,2.5-8.3,4.1-12.8,4.6c-8.7,1.2-14.3-3.6-13.5-7.1c0.4-6.4,5.1-11.7,11.5-12.8
	c6.4-0.8,19.2,6.4,18.7,9.8c-0.4,2.4-2,4.5-4.2,5.7L330.4,391.6z"/>
<path class="st4" d="M329,393.8c-3.9,2.5-8.3,4.1-12.8,4.6c-8.7,1.2-14.3-3.6-13.5-7.1c0.3-6.4,5.1-11.8,11.4-12.8
	c6.4-0.8,19.6,6.4,18.7,9.8c-0.5,2.4-2,4.5-4.2,5.6L329,393.8z"/>
<path class="st6" d="M330,392.8c-3.8,2.5-8,4.1-12.5,4.7c-8.7,1.1-14.4-3.7-13.5-7.2c0.3-6.4,5.1-11.8,11.4-12.8
	c6.4-0.9,19.2,6.4,18.7,9.8C333.6,390.5,332.2,391.1,330,392.8L330,392.8z"/>
<path class="st2" d="M467.5,320.7c-9.9,10.1-12.8,18.8-28,26.4c-10.1,5.2-21.8,6.8-32.9,4.3l-20.5,7.4c0,0,2.5-0.9,40.4,2.1
	c8.4,0.6,25.7-0.6,32.5,1.5c2.6,0.8-2,11.5-0.4,10.9c5.5-2.2,5.1-12.1,6.4-16.2c2.1-6.5,2.9-13.2,2.5-20V320.7z"/>
<path class="st4" d="M451.9,380.9c1.6-5.2,2.8-10.4,3.6-15.8l-71-2.6l65.6,7.3L451.9,380.9z"/>
<path class="st2" d="M90.6,147.3c-3.7,6.9-2.2,24.4,17.7,37c21.4,13.7,55.5,14.7,62.7,14l28.8,12.5c0,0-3.5-1.5-66.9,1.7
	c-14.1,0.6-41-2-53.8,1.2c-4.7,1.2-3.8,18.3-6,17.2c-7.5-3.8-0.9-19.2-0.9-25.7c1.5-17.6,4.1-35.1,8-52.4l10.3-5.3L90.6,147.3z"/>
<path class="st4" d="M79.5,243.4c0,0,2.6-25,4.1-25.2s116.8-1.3,116.8-1.3L89,225.8C89,225.8,79.5,243.4,79.5,243.4z"/>
</svg>
