<?xml version="1.0" encoding="utf-8"?>
<!-- Generator: Adobe Illustrator 27.1.1, SVG Export Plug-In . SVG Version: 6.00 Build 0)  -->
<svg version="1.1" id="soul" xmlns="http://www.w3.org/2000/svg" xmlns:xlink="http://www.w3.org/1999/xlink" x="0px" y="0px"
	 viewBox="0 0 500 500" style="enable-background:new 0 0 500 500;" xml:space="preserve">
<style type="text/css">
	.st0{fill:#16ADE0;}
	.st1{fill:#FFFFFF;}
</style>
<path class="st0" d="M84.2,24.4h332.3c45.6,0,82.5,36.9,82.5,82.5v313.4c0,22.6-26.1,35.1-43.7,20.9l-17.5-14.1
	c-15.2-12.2-37.2-10.4-50.2,4.2l-29.8,33.5c-12.7,14.3-35,14.2-47.6-0.2l-27.4-31.4c-17.5-20.1-48.9-19.8-66,0.7l-23.5,28.1
	c-13.7,16.4-39,16.3-52.6-0.2l-23.9-29.2c-15.3-18.7-43.5-20.1-60.6-3l-8.6,8.6c-17.2,17.2-46.7,5-46.7-19.4l0.7-312.1
	C1.7,61.3,38.7,24.4,84.2,24.4z"/>
<circle class="st1" cx="344" cy="188.6" r="51.5"/>
<path class="st0" d="M381,173.1c-2.9,4.8-8.2,8.1-14.2,8.1c-9.2,0-16.6-7.4-16.6-16.6c0-5.7,2.9-10.8,7.3-13.8
	c-4.2-1.5-8.7-2.3-13.4-2.3c-22.1,0-40.1,17.9-40.1,40.1s17.9,40.1,40.1,40.1s40.1-17.9,40.1-40.1C384.1,183.1,383,177.8,381,173.1z
	"/>
<circle class="st1" cx="156.1" cy="188.6" r="51.5"/>
<path class="st0" d="M193,173.1c-2.9,4.8-8.2,8.1-14.2,8.1c-9.2,0-16.6-7.4-16.6-16.6c0-5.7,2.9-10.8,7.3-13.8
	c-4.2-1.5-8.7-2.3-13.4-2.3c-22.1,0-40.1,17.9-40.1,40.1s17.9,40.1,40.1,40.1s40.1-17.9,40.1-40.1C196.1,183.1,195,177.8,193,173.1z
	"/>
</svg>
