<?xml version="1.0" encoding="utf-8"?>
<!-- Generator: Adobe Illustrator 27.7.0, SVG Export Plug-In . SVG Version: 6.00 Build 0)  -->
<svg version="1.1" id="Layer_1" xmlns="http://www.w3.org/2000/svg" xmlns:xlink="http://www.w3.org/1999/xlink" x="0px" y="0px"
	 viewBox="0 0 500 500" style="enable-background:new 0 0 500 500;" xml:space="preserve">
<style type="text/css">
	.st0{fill-rule:evenodd;clip-rule:evenodd;fill:#FF3B81;}
	.st1{fill-rule:evenodd;clip-rule:evenodd;fill:#FFFFFF;}
</style>
<path class="st0" d="M250,500c138.1,0,250-111.9,250-250S388.1,0,250,0S0,111.9,0,250S111.9,500,250,500z"/>
<path class="st1" d="M121.5,354.7v2.4H96.3v-45.5l-0.8,2.5l-24.1-7.3L85,263.1l-1.7,2.5l-20.9-13.9l26.1-38.1l-2.5,2l-15.9-19.3
	l37.5-29.9l-4.8,1.8l-9-23.1l44.8-16.9l-5.2,0.3l-1.7-24.7l46.9-3.2l-4.2-1l5.7-24.2l44.8,10.2l-2.8-1.6l12.6-21.5l39.1,22.2
	l-1.5-1.6l18.4-16.9l30.4,32.1l-0.6-1.3L343,86.2l19.5,39.4l-0.2-1.1l24.8-3.9l7.3,45.6l0.5-3.2l24.9,3.9l-7.4,46.2l1.8-3.7
	l22.6,10.9L416,262.5l3.1-3.2l18.4,16.9L405,310.6l3.9-2.2l12.6,21.5l-40.9,23.3l4.1-0.9l5.7,24.2l-45.2,10.3l3.5,0.2l-1.8,24.7
	l-45.2-3.1l2.3,0.9l-9,23.1l-43.3-16.4l2.7,2.2l-15.8,19.3L202.8,409l1.8,2.6l-20.9,13.9l-25.6-37.3l0.8,2.5l-24.1,7.3L121.5,354.7z
	 M121.5,325.2l15.7-4.7l12.2,39.4l13.6-9l23.2,33.9l10.4-12.6l32.2,25.7l5.8-14.8l38.8,14.7l1.1-16l41.5,2.9l-3.8-15.9l40.7-9.3
	l-8.4-14.4l36.3-20.7l-12.4-11.4l28.7-30.3l-15.3-7.4l18.5-37.3l-16.7-2.6l6.6-40.9l-16,2.5l-6.6-40.9l-14.4,6.9l-18.3-37L323,136.7
	l-28.3-29.9l-8.1,13.8l-35.9-20.4l-3.7,15.8l-40.4-9.2l1.2,16.5l-41.4,2.8l6.1,15.7l-39,14.8l10.5,12.8l-32.8,26.1l13.8,9.2
	l-23.6,34.5l15.9,4.8l-12.3,39.7h16.5L121.5,325.2z M238.4,264.4c4.4,3.3,6.6,8.1,6.6,14.4c0.2,5.3-2.3,10.4-6.6,13.5
	c-4.4,3.2-10.6,4.8-18.4,4.8c-21.2,0-31.8-8.9-31.8-26.7h-33.2c0,10.4,2.7,19.6,8,27.4c5.4,7.9,13.1,14.1,23.3,18.7
	c10.7,4.6,22.2,6.9,33.8,6.7c17.8,0,32-4,42.5-11.8c10.5-8,15.8-18.9,15.8-32.9c0-12.5-4.3-23-12.9-31.4
	c-8.6-8.4-22.3-15.5-41.2-21.1c-10.2-3.1-18-6.4-23.3-10c-5.2-3.5-7.8-7.9-7.8-13.2c-0.1-5.3,2.4-10.4,6.7-13.5
	c4.5-3.5,10.8-5.2,18.9-5.2c8.4,0,14.9,2.1,19.5,6.2c4.6,4.1,7,9.8,7,17.2h33.1c0.1-9.2-2.5-18.2-7.5-25.9
	c-4.9-7.6-11.9-13.5-20.9-17.6c-9-4.2-19.2-6.3-30.7-6.3c-11.4,0-21.7,1.9-30.9,5.7c-9.1,3.8-16.1,9.2-21.1,16.1
	c-4.9,6.8-7.3,14.5-7.3,23.3c0,16.8,9.1,30.1,27.4,39.9c6.7,3.6,15.8,7.3,27.3,11.1C226.1,257.5,234,261,238.4,264.4z M346.1,179.9
	l-31.9,116.8l-26.3-1.8l19.9-120.4L346.1,179.9z M310,350.2l8.3-41.3l-35.3-8.5l-8,39.6L310,350.2z"/>
</svg>
