<?xml version="1.0" encoding="utf-8"?>
<!-- Generator: Adobe Illustrator 26.5.0, SVG Export Plug-In . SVG Version: 6.00 Build 0)  -->
<svg version="1.1" id="stg" xmlns="http://www.w3.org/2000/svg" xmlns:xlink="http://www.w3.org/1999/xlink" x="0px" y="0px"
	 viewBox="0 0 500 500" style="enable-background:new 0 0 500 500;" xml:space="preserve">
<style type="text/css">
	.st0{fill:#999999;}
</style>
<path class="st0" d="M299,20.8l13.2,31c26,60.9,74.5,109.3,135.3,135.3l31,13.2c8.1,3.5,14.7,8.4,19.8,14.3
	C482.9,104,395.4,16.4,284.7,1C290.6,6.1,295.5,12.7,299,20.8z M20.8,200.3l31-13.2c60.9-26,109.3-74.5,135.3-135.3l13.2-31
	c3.2-7.6,8.1-14.4,14.3-19.8C104,16.4,16.4,104,1,214.7C6.1,208.8,12.7,203.8,20.8,200.3z M478.6,299l-31,13.2
	c-60.9,26-109.3,74.5-135.3,135.3l-13.2,31c-3.2,7.6-8.1,14.4-14.3,19.8c110.7-15.4,198.2-103,213.7-213.7
	C493.3,290.5,486.7,295.5,478.6,299L478.6,299z M200.3,478.5l-13.2-31c-26-60.9-74.5-109.3-135.3-135.3l-31-13.2
	c-7.6-3.2-14.4-8.1-19.8-14.3c15.4,110.7,103,198.3,213.7,213.7C208.4,492.9,203.5,486.1,200.3,478.5z"/>
<path d="M136.9,225.4l15.3-6.5c30-12.8,53.9-36.7,66.7-66.7l6.5-15.3c9.1-21.4,39.5-21.4,48.6,0l6.5,15.3
	c12.8,30,36.7,53.9,66.7,66.7l15.3,6.5c21.4,9.1,21.4,39.5,0,48.6l-15.3,6.5c-30,12.8-53.9,36.7-66.7,66.7l-6.5,15.3
	c-9.1,21.4-39.5,21.4-48.6,0l-6.5-15.3c-12.8-30-36.7-53.9-66.7-66.7l-15.3-6.5C115.5,264.8,115.5,234.5,136.9,225.4z"/>
</svg>
