<?xml version="1.0" encoding="utf-8"?>
<!-- Generator: Adobe Illustrator 27.7.0, SVG Export Plug-In . SVG Version: 6.00 Build 0)  -->
<svg version="1.1" id="Layer_1" xmlns="http://www.w3.org/2000/svg" xmlns:xlink="http://www.w3.org/1999/xlink" x="0px" y="0px"
	 viewBox="0 0 500 500" style="enable-background:new 0 0 500 500;" xml:space="preserve">
<style type="text/css">
	.st0{fill:#7D00FF;}
	.st1{fill:#FFFFFF;}
</style>
<path class="st0" d="M250,0L250,0c138.1,0,250,111.9,250,250l0,0c0,138.1-111.9,250-250,250l0,0C111.9,500,0,388.1,0,250l0,0
	C0,111.9,111.9,0,250,0z"/>
<path class="st1" d="M406.2,166.7H302.1v34.7h104.2V166.7z M232.6,201.4h-34.7v34.7h34.7V201.4z M197.9,375h34.7V270.8h-34.7V375z
	 M267.4,201.4v34.7h34.7v-34.7H267.4z M267.4,375h34.7V270.8h-34.7V375z M267.4,166.7h-34.7v34.7h34.7V166.7z M93.8,166.7v34.7
	h104.2v-34.7H93.8z M406.2,270.8v-34.7H302.1v34.7H406.2z M232.6,236.1v34.7h34.7v-34.7H232.6z M93.8,236.1v34.7h104.2v-34.7H93.8z"
	/>
</svg>
