<?xml version="1.0" encoding="utf-8"?>
<!-- Generator: Adobe Illustrator 27.0.1, SVG Export Plug-In . SVG Version: 6.00 Build 0)  -->
<svg version="1.1" id="thales" xmlns="http://www.w3.org/2000/svg" xmlns:xlink="http://www.w3.org/1999/xlink" x="0px" y="0px"
	 viewBox="0 0 500 500" style="enable-background:new 0 0 500 500;" xml:space="preserve">
<style type="text/css">
	.st0{fill:#1B314F;}
</style>
<path class="st0" d="M366.9,42.7C334,15.7,292.9,1,250.4,1c-42.5-0.1-83.7,14.7-116.5,41.7c-23.4,19.2-41.7,43.9-53.3,71.8
	c-11.6,28-16,58.4-13,88.5c3,30.1,13.4,59,30.3,84.2c16.9,25.1,39.8,45.7,66.5,59.8c0.6,2.1,1.3,4.2,2.1,6.6
	c2.9,8,6.9,15.7,11.8,22.6c3.7,5.3,9.3,9,15.5,10.5c3.4,0.8,7,1,10.5,0.4c3.5-0.5,6.8-1.8,9.9-3.6c3-1.8,5.6-4.3,7.7-7.1
	c2.1-2.9,3.6-6.1,4.4-9.5c1.9-8.3,2.6-16.9,2.3-25.4c-0.2-8.2-1.1-16.4-2.6-24.4c-0.9-5.4-3.2-10.5-6.5-14.9
	c-3.4-4.4-7.7-7.8-12.8-10h-1.1c-24.4-10.7-44.4-29.3-56.8-52.9c-7.2-14.6-11.2-30.5-11.8-46.7s2.2-32.4,8.3-47.5
	c6.1-15.1,15.3-28.7,27-39.9s25.7-19.9,41-25.4c15.3-5.5,31.6-7.7,47.8-6.4s31.9,5.9,46.2,13.7c14.3,7.8,26.7,18.5,36.6,31.4
	c9.8,12.9,16.8,27.8,20.5,43.6c5.8,26.2,2.3,53.6-9.9,77.6c-12.3,24.1-32.3,43.4-56.9,54.8h-0.5l-3,1.5c-1,0.5-1.9,1.1-2.9,1.7
	l-2.1,1.7c-0.9,0.7-1.8,1.5-2.6,2.4c-2.3,2.3-4.2,4.9-5.7,7.8l-0.9,1.7l-0.5,1.1l-1.2,2.4c-0.5,1.3-1,2.6-1.4,4
	c-0.9,3.7-1.6,7.6-2.1,11.4c-0.6,6.6-0.9,12.2-1.1,17.7l-0.5,31.6c0,10.2-0.3,20.4-0.5,30.6c-0.3,10.6-2.9,21-7.5,30.5l0,0
	c-3.2,6.3-4.7,13.3-4.4,20.3c0.3,7,2.5,13.8,6.3,19.8c3.8,5.9,9,10.8,15.3,14c6.2,3.3,13.2,4.8,20.2,4.6c7-0.3,13.9-2.4,19.8-6.1
	c6-3.7,10.8-8.9,14.2-15.2c3.3-6.2,4.9-13.2,4.7-20.2c-0.2-7-2.3-13.9-5.9-19.9c-5.3-8.7-8.5-18.5-9.2-28.6
	c-0.5-9.7-0.9-19.2-0.6-28.7c0.1-9.2,1-18.4,2.4-27.5c0.3-2,0.7-3.9,1.2-5.6c35-16.3,63.8-43.6,82.1-77.6
	c20-37.1,26.6-80.1,18.4-121.5C421.9,106.7,399.5,69.4,366.9,42.7L366.9,42.7z"/>
<path class="st0" d="M297.5,232l-46.7-46.7l-46.8-46.8l-3.8-3.8c-12.9,13.5-20,31.5-19.9,50.2c0.2,18.7,7.7,36.5,20.9,49.8
	c13.2,13.2,31.1,20.7,49.8,20.9c18.7,0.2,36.7-6.9,50.2-19.9L297.5,232z"/>
</svg>
