<?xml version="1.0" encoding="utf-8"?>
<!-- Generator: Adobe Illustrator 27.0.1, SVG Export Plug-In . SVG Version: 6.00 Build 0)  -->
<svg version="1.1" id="ton" xmlns="http://www.w3.org/2000/svg" xmlns:xlink="http://www.w3.org/1999/xlink" x="0px" y="0px"
	 viewBox="0 0 500 500" style="enable-background:new 0 0 500 500;" xml:space="preserve">
<style type="text/css">
	.st0{fill:#0088CC;}
	.st1{fill-rule:evenodd;clip-rule:evenodd;fill:#FFFFFF;}
</style>
<path class="st0" d="M250,499c137.5,0,249-111.5,249-249C499,112.5,387.5,1,250,1C112.5,1,1,112.5,1,250C1,387.5,112.5,499,250,499z
	"/>
<path class="st1" d="M180.7,165.5h139.7c4.9,0,9.9,0.7,15,3.1c6.2,2.9,9.5,7.4,11.8,10.8c0.2,0.3,0.3,0.5,0.5,0.8
	c2.7,4.8,4.1,10,4.1,15.6c0,5.3-1.3,11.1-4.1,16.1c0,0-0.1,0.1-0.1,0.1l-88.2,151.6c-1.9,3.3-5.5,5.4-9.4,5.4
	c-3.9,0-7.4-2.1-9.4-5.4L154,212.3c0,0,0-0.1-0.1-0.1c-2-3.3-5-8.3-5.6-14.8c-0.5-6,0.9-12,3.9-17.2c3-5.2,7.5-9.4,13-11.9
	C171.1,165.5,177,165.5,180.7,165.5z M239.2,187.2h-58.5c-3.8,0-5.3,0.2-6.3,0.7c-1.4,0.7-2.6,1.8-3.4,3.1c-0.8,1.4-1.2,3-1,4.6
	c0.1,0.9,0.5,2,2.7,5.6c0,0.1,0.1,0.2,0.1,0.2l66.5,116.1V187.2z M260.8,187.2v130.9l68-116.8c0.8-1.4,1.3-3.4,1.3-5.5
	c0-1.7-0.3-3.1-1.1-4.6c-0.8-1.2-1.3-1.8-1.7-2.2c-0.4-0.4-0.6-0.6-1-0.7c-1.6-0.7-3.3-1.1-5.9-1.1H260.8z"/>
</svg>
