<?xml version="1.0" encoding="utf-8"?>
<!-- Generator: Adobe Illustrator 26.5.0, SVG Export Plug-In . SVG Version: 6.00 Build 0)  -->
<svg version="1.1" id="tyzen" xmlns="http://www.w3.org/2000/svg" xmlns:xlink="http://www.w3.org/1999/xlink" x="0px" y="0px"
	 viewBox="0 0 500 500" style="enable-background:new 0 0 500 500;" xml:space="preserve">
<style type="text/css">
	.st0{fill:url(#SVGID_1_);}
	.st1{fill:#FFFFFF;}
</style>
<linearGradient id="SVGID_1_" gradientUnits="userSpaceOnUse" x1="14.5739" y1="335.2268" x2="484.1311" y2="164.322">
	<stop  offset="0" style="stop-color:#EA1845"/>
	<stop  offset="1" style="stop-color:#F9BD5B"/>
</linearGradient>
<circle class="st0" cx="249.4" cy="249.8" r="249.8"/>
<path class="st1" d="M136.6,101.4l123.8,48c2.1,0.8,2.2,3.7,0.2,4.7L204.2,183c-5.1,2.6-11.1,2.9-16.4,0.9l-17.7-6.8
	c-5.9-2.3-10.6-6.8-13.2-12.5l-25.7-57.3C129.6,103.7,133.1,100.1,136.6,101.4z"/>
<path class="st1" d="M308.9,167.3l125.5,48.6c3.9,1.5,4,6.9,0.2,8.6l-55.9,24.3c-8.4,3.6-17.9,3.6-26.2-0.1l-15.6-7
	c-3.3-1.5-7.2-1.4-10.4,0.3l-104.7,54.2c-3.6,1.9-6.5,5-7.9,8.9l-36.4,94.8c-1.9,4.9-8.7,5.1-10.8,0.3l-24.2-53.5
	c-2.9-6.4-3.1-13.8-0.5-20.3l37-94.4c2.5-6.3,7.2-11.5,13.2-14.7l93.3-48.7C292.6,164.8,301.2,164.3,308.9,167.3z"/>
<path class="st1" d="M315.8,280.5l-38.5,99.9c-2.3,5.9-6.8,10.7-12.6,13.2l-53.7,23.6c-5.1,2.3-10.5-2.8-8.4-8.1l33.1-85.9
	c1.8-4.7,5.3-8.6,9.7-10.9l67.2-34.8C314.4,276.5,316.5,278.4,315.8,280.5z"/>
</svg>
