<?xml version="1.0" encoding="utf-8"?>
<!-- Generator: Adobe Illustrator 25.0.1, SVG Export Plug-In . SVG Version: 6.00 Build 0)  -->
<svg version="1.1" id="uni" xmlns="http://www.w3.org/2000/svg" xmlns:xlink="http://www.w3.org/1999/xlink" x="0px" y="0px"
	 viewBox="0 0 500 500" style="enable-background:new 0 0 500 500;" xml:space="preserve">
<style type="text/css">
	.st0{fill:#FF007A;}
	.st1{fill-rule:evenodd;clip-rule:evenodd;fill:#FF007A;}
</style>
<path class="st0" d="M203.2,113.8c-5.4-0.8-5.7-1-3.1-1.3c4.9-0.8,16.3,0.3,24.3,2.1c18.6,4.4,35.3,15.7,53.1,35.6l4.6,5.4l6.7-1
	c28.6-4.6,58-1,82.6,10.3c6.7,3.1,17.3,9.3,18.6,10.8c0.5,0.5,1.3,3.9,1.8,7.2c1.8,12.1,1,21.2-2.8,28.1c-2.1,3.9-2.1,4.9-0.8,8.3
	c1,2.6,4.1,4.4,7,4.4c6.2,0,12.6-9.8,15.7-23.5l1.3-5.4l2.3,2.6c13.2,14.7,23.5,35.1,25,49.5l0.5,3.9l-2.3-3.4
	c-3.9-5.9-7.5-9.8-12.4-13.2c-8.8-5.9-18.1-7.7-42.6-9c-22.2-1.3-34.8-3.1-47.2-7.2c-21.2-7-32-16-57-49.3
	c-11.1-14.7-18.1-22.7-25-29.4C238.3,124.6,223,116.9,203.2,113.8z"/>
<path class="st0" d="M395.4,146.5c0.5-9.8,1.8-16.3,4.6-22.2c1-2.3,2.1-4.4,2.3-4.4c0.3,0-0.3,1.8-1,3.9c-2.1,5.7-2.3,13.7-1,22.7
	c1.8,11.6,2.6,13.2,15,25.8c5.7,5.9,12.4,13.4,15,16.5l4.4,5.7l-4.4-4.1c-5.4-5.2-17.8-15-20.6-16.3c-1.8-1-2.1-1-3.4,0.3
	c-1,1-1.3,2.6-1.3,10.1c-0.3,11.6-1.8,18.8-5.7,26.3c-2.1,3.9-2.3,3.1-0.5-1.3c1.3-3.4,1.5-4.9,1.5-16c0-22.4-2.6-27.9-18.3-36.9
	c-3.9-2.3-10.6-5.7-14.4-7.5c-4.1-1.8-7.2-3.4-7-3.4c0.5-0.5,15.7,3.9,21.7,6.4c9,3.6,10.6,3.9,11.6,3.6
	C394.6,155.1,395.1,153,395.4,146.5z"/>
<path class="st0" d="M213.8,185c-10.8-15-17.8-38.2-16.3-55.5l0.5-5.4l2.6,0.5c4.6,0.8,12.6,3.9,16.5,6.2
	c10.3,6.2,15,14.7,19.3,35.9c1.3,6.2,3.1,13.4,3.9,15.7c1.3,3.9,6.2,12.9,10.3,18.6c2.8,4.1,1,6.2-5.4,5.7
	C235.4,205.6,222.3,196.6,213.8,185z"/>
<path class="st0" d="M382.2,297.2c-51.1-20.6-69.1-38.4-69.1-68.6c0-4.4,0.3-8,0.3-8c0.3,0,2.1,1.5,4.4,3.4
	c10.3,8.3,21.9,11.9,54.2,16.5c18.8,2.8,29.7,4.9,39.5,8.3c31.2,10.3,50.6,31.5,55.2,60.1c1.3,8.3,0.5,24-1.5,32.2
	c-1.8,6.4-7,18.3-8.3,18.6c-0.3,0-0.8-1.3-0.8-3.4c-0.5-10.8-5.9-21.2-15-29.2C430.2,317.9,416.3,310.9,382.2,297.2z"/>
<path class="st0" d="M346.1,305.7c-0.5-3.9-1.8-8.8-2.6-10.8l-1.3-3.9l2.3,2.8c3.4,3.9,5.9,8.5,8.3,15c1.8,4.9,1.8,6.4,1.8,14.4
	c0,7.7-0.3,9.5-1.8,13.9c-2.6,7-5.7,11.9-10.8,17.3c-9.3,9.5-21.4,14.7-38.7,17c-3.1,0.3-11.9,1-19.6,1.5c-19.3,1-32.2,3.1-43.9,7.2
	c-1.5,0.5-3.1,1-3.4,0.8c-0.5-0.5,7.5-5.2,13.9-8.3c9-4.4,18.3-6.7,38.7-10.3c10.1-1.5,20.4-3.6,23-4.6
	C337.6,349.8,350.2,330,346.1,305.7z"/>
<path class="st0" d="M369.6,347.3c-6.7-14.7-8.3-28.6-4.6-41.8c0.5-1.3,1-2.6,1.5-2.6c0.5,0,2.1,0.8,3.6,1.8
	c3.1,2.1,9.5,5.7,26.1,14.7c20.9,11.4,32.8,20.1,41,30.2c7.2,8.8,11.6,18.8,13.7,31.2c1.3,7,0.5,23.7-1.3,30.7
	c-5.7,21.9-18.6,39.5-37.4,49.5c-2.8,1.5-5.2,2.6-5.4,2.6s0.8-2.6,2.3-5.7c6.2-13.2,7-25.8,2.3-40c-2.8-8.8-8.8-19.3-20.6-37.2
	C376.5,360.2,373.2,354.7,369.6,347.3z"/>
<path class="st0" d="M177.4,426.2c19.1-16,42.6-27.3,64.2-31c9.3-1.5,24.8-1,33.3,1.3c13.7,3.6,26.1,11.4,32.5,20.9
	c6.2,9.3,9,17.3,11.9,35.1c1,7,2.3,14.2,2.6,15.7c2.1,9.3,6.2,16.5,11.4,20.4c8,5.9,21.9,6.2,35.6,1c2.3-0.8,4.4-1.5,4.4-1.3
	c0.5,0.5-6.4,5.2-11.1,7.5c-6.4,3.4-11.6,4.4-18.6,4.4c-12.4,0-23-6.4-31.5-19.3c-1.8-2.6-5.4-10.1-8.5-17
	c-9-20.9-13.7-27.1-24.3-34.1c-9.3-5.9-21.2-7.2-30.2-2.8c-11.9,5.7-15,20.9-6.7,30.2c3.4,3.9,9.5,7,14.7,7.7
	c9.5,1.3,17.8-6.2,17.8-15.7c0-6.2-2.3-9.8-8.5-12.6c-8.3-3.6-17.3,0.5-17,8.5c0,3.4,1.5,5.4,4.9,7c2.1,1,2.1,1,0.5,0.8
	c-7.5-1.5-9.3-10.8-3.4-16.8c7.2-7.2,22.4-4.1,27.6,5.9c2.1,4.1,2.3,12.4,0.5,17.5c-4.4,11.4-16.8,17.3-29.4,13.9
	c-8.5-2.3-12.1-4.6-22.4-15.2c-18.1-18.6-25-22.2-50.8-26.1l-4.9-0.8L177.4,426.2z"/>
<path class="st1" d="M41.7,11.1c60.1,73,152.7,186.5,157.4,192.7c3.9,5.2,2.3,10.1-4.1,13.7c-3.6,2.1-11.1,4.1-14.7,4.1
	c-4.1,0-9-2.1-12.4-5.4c-2.3-2.3-12.4-17-35.1-52.4c-17.3-27.1-32-49.5-32.2-49.8c-1-0.5-1-0.5,30.4,55.7
	c19.9,35.3,26.3,48,26.3,49.5c0,3.4-1,5.2-5.2,9.8c-7,7.7-10.1,16.5-12.4,34.8c-2.6,20.4-9.5,34.8-29.4,59.3
	c-11.6,14.4-13.4,17-16.3,23c-3.6,7.2-4.6,11.4-5.2,20.6c-0.5,9.8,0.5,16,3.4,25.3c2.6,8.3,5.4,13.7,12.4,24.3
	c5.9,9.3,9.5,16.3,9.5,18.8c0,2.1,0.5,2.1,9.8,0c22.2-5.2,40.5-13.9,50.6-24.8c6.2-6.7,7.7-10.3,7.7-19.6c0-5.9-0.3-7.2-1.8-10.8
	c-2.6-5.7-7.5-10.3-18.1-17.5c-13.9-9.5-19.9-17.3-21.4-27.6c-1.3-8.8,0.3-14.7,8-31c8-16.8,10.1-23.7,11.4-40.8
	c0.8-10.8,2.1-15.2,5.2-18.6c3.4-3.6,6.2-4.9,14.2-5.9c13.2-1.8,21.7-5.2,28.4-11.6c5.9-5.4,8.5-10.8,8.8-18.8l0.3-5.9l-3.4-3.6
	C201.6,184.7,33.7,0,32.9,0C32.6,0,36.8,4.9,41.7,11.1z M120.9,378c2.8-4.9,1.3-11.1-3.4-14.2c-4.4-2.8-11.1-1.5-11.1,2.3
	c0,1,0.5,2.1,2.1,2.6c2.3,1.3,2.6,2.6,0.8,5.4c-1.8,2.8-1.8,5.4,0.5,7.2C113.4,384.2,118.3,382.6,120.9,378z"/>
<path class="st1" d="M225.4,242.3c-6.2,1.8-12.1,8.5-13.9,15.2c-1,4.1-0.5,11.6,1.3,13.9c2.8,3.6,5.4,4.6,12.6,4.6
	c14.2,0,26.3-6.2,27.6-13.7c1.3-6.2-4.1-14.7-11.6-18.6C237.5,241.7,229.5,241,225.4,242.3z M241.9,255.2c2.1-3.1,1.3-6.4-2.6-8.8
	c-7-4.4-17.5-0.8-17.5,5.9c0,3.4,5.4,7,10.6,7C235.7,259.3,240.3,257.2,241.9,255.2z"/>
</svg>
