<?xml version="1.0" encoding="utf-8"?>
<!-- Generator: Adobe Illustrator 26.4.1, SVG Export Plug-In . SVG Version: 6.00 Build 0)  -->
<svg version="1.1" id="Layer_1" xmlns="http://www.w3.org/2000/svg" xmlns:xlink="http://www.w3.org/1999/xlink" x="0px" y="0px"
	 viewBox="0 0 500 500" style="enable-background:new 0 0 500 500;" xml:space="preserve">
<style type="text/css">
	.st0{fill:#FFFFFF;}
	.st1{fill:#216C58;stroke:#216C58;stroke-width:8.2667;}
	.st2{fill:#216C58;}
	.st3{fill:#FFFFFF;stroke:#216C58;stroke-width:8.2667;}
	.st4{fill-rule:evenodd;clip-rule:evenodd;fill:#FFFFFF;}
</style>
<path class="st0" d="M250,2L250,2c137,0,248,111,248,248l0,0c0,137-111,248-248,248l0,0C113,498,2,387,2,250l0,0C2,113,113,2,250,2z
	"/>
<circle class="st1" cx="250" cy="250" r="231.5"/>
<path class="st2" d="M464.9,250c0,118.7-96.2,214.9-214.9,214.9c-118.7,0-214.9-96.2-214.9-214.9S131.3,35.1,250,35.1
	C368.7,35.1,464.9,131.3,464.9,250z"/>
<rect x="221.1" y="353.3" class="st2" width="24.8" height="24.8"/>
<rect x="262.4" y="353.3" class="st2" width="24.8" height="24.8"/>
<path class="st0" d="M179.7,97.1h157.1c4.6,0,8.3,3.7,8.3,8.3v4.1c0,4.6-3.7,8.3-8.3,8.3H179.7c-4.6,0-8.3-3.7-8.3-8.3v-4.1
	C171.5,100.8,175.2,97.1,179.7,97.1z"/>
<path class="st0" d="M250,126v281.1c0,4.6-3.7,8.3-8.3,8.3h-4.1c-4.6,0-8.3-3.7-8.3-8.3V126H250z"/>
<path class="st0" d="M283.1,126v281.1c0,4.6-3.7,8.3-8.3,8.3h-4.1c-4.6,0-8.3-3.7-8.3-8.3V126H283.1z"/>
<path class="st3" d="M232.4,196L232.4,196L232.4,196c5.8-2.1,13-3.2,21.9-3.2c13.1,0,22.9,2.5,29.9,7.1c5,3.3,8.4,7.5,10.2,12.5
	c1.8,5.1,6.4,9.9,12.9,9.9h38.2c6.8,0,12.9-5.7,11.9-13.1c-1.6-11.4-5.9-21.7-12.9-30.9c-8.8-11.4-20.9-20.2-36.3-26.5
	c-15.3-6.3-33.2-9.3-53.3-9.3c-19.9,0-37.7,3.1-53.6,9.3c-15.8,6.2-28.4,15-37.7,26.4l0,0l0,0c-9.3,11.5-13.9,25-13.8,40.3
	c-0.1,18.7,6.9,33.9,20.9,45.1c13.7,10.9,32,18.7,54.9,23.6c0,0,0,0,0,0l29,6.5l0,0l0,0c9.6,2.1,17.6,4.3,24,6.8l0,0
	c6.4,2.4,10.9,5.2,13.8,8.3l0,0l0,0c2.8,2.8,4.2,6.2,4.2,10.5c0,4.7-1.6,8.8-4.8,12.4c-3.3,3.7-8.2,6.8-14.8,9.1l0,0
	c-6.5,2.3-14.3,3.5-23.5,3.5c-9.3,0-17.6-1.3-24.8-3.7c-7-2.5-12.5-6.1-16.6-10.7c-2.6-3.1-4.4-6.6-5.6-10.8
	c-1.5-5.5-6.3-10.6-12.9-10.6h-38.4c-6.9,0-12.8,5.7-12,13.1c1.6,14,6.3,26.3,14.2,36.6l0,0c9.5,12.2,22.6,21.3,39,27.4l0,0
	c16.5,6.1,35.8,9.1,57.6,9.1c22,0,41.1-2.9,57-9l0,0c16-6.1,28.5-14.7,37.2-26c8.8-11.4,13.3-24.9,13.4-40.3l0,0v-0.1
	c-0.1-10.4-2.2-19.9-6.6-28.2c-4.2-8.2-10.1-15.3-17.6-21.3c-7.5-5.9-16.3-10.9-26.3-14.9c-10-4-20.9-7.1-32.7-9.5l-23.9-5.1l0,0
	l-0.1,0c-5.7-1.1-11-2.5-15.9-4c-4.9-1.6-9.1-3.5-12.7-5.5c-3.5-2.1-6.1-4.4-7.9-7c-1.6-2.3-2.4-5.1-2.3-8.6l0-0.1v-0.1
	c0-4.1,1.3-7.7,4-11C222.4,200.8,226.5,198,232.4,196z"/>
<rect x="229.3" y="179.7" class="st0" width="20.7" height="28.9"/>
<rect x="229.3" y="283.1" class="st0" width="20.7" height="28.9"/>
<rect x="229.3" y="369.9" class="st0" width="20.7" height="28.9"/>
<rect x="262.4" y="179.7" class="st0" width="20.7" height="28.9"/>
<rect x="262.4" y="283.1" class="st0" width="20.7" height="28.9"/>
<rect x="262.4" y="369.9" class="st0" width="20.7" height="28.9"/>
<path class="st4" d="M458,262.4c-3.3,0-6,2.6-6.3,5.8c-9.2,103.3-96,184.3-201.7,184.3s-192.5-81-201.7-184.3
	c-0.3-3.3-3-5.8-6.3-5.8c-3.6,0-6.4,3-6.1,6.6c9.6,109.8,101.8,196,214.1,196s204.5-86.1,214.1-196
	C464.4,265.4,461.6,262.4,458,262.4z M42,237.6c3.3,0,6-2.6,6.3-5.8c9.2-103.3,96-184.3,201.7-184.3s192.5,81,201.7,184.3
	c0.3,3.3,3,5.8,6.3,5.8c3.6,0,6.4-3,6.1-6.6c-9.6-109.8-101.8-196-214.1-196S45.5,121.2,35.9,231C35.6,234.6,38.4,237.6,42,237.6z"
	/>
<div  id="divScriptsUsed" style="display: none" xmlns=""></div>
<script  id="globalVarsDetection" src="chrome-extension://cmkdbmfndkfgebldhnkbfhlneefdaaip/js/wrs_env.js" xmlns=""></script>
</svg>
