<?xml version="1.0" encoding="utf-8"?>
<!-- Generator: Adobe Illustrator 27.1.1, SVG Export Plug-In . SVG Version: 6.00 Build 0)  -->
<svg version="1.1" id="WABI" xmlns="http://www.w3.org/2000/svg" xmlns:xlink="http://www.w3.org/1999/xlink" x="0px" y="0px"
	 viewBox="0 0 500 500" style="enable-background:new 0 0 500 500;" xml:space="preserve">
<style type="text/css">
	.st0{fill-rule:evenodd;clip-rule:evenodd;fill:#FF5847;}
</style>
<path class="st0" d="M249.9,64.7C149.4,64.7,67.6,147.8,67.6,250s81.8,185.3,182.4,185.3S432.3,352.2,432.3,250
	S350.5,64.7,249.9,64.7z M249.9,499C114.8,499,4.9,387.3,4.9,250S114.8,1,249.9,1s245.2,111.7,245.2,249
	C495,387.3,385.1,499,249.9,499z"/>
<path class="st0" d="M195.7,250l54.3,55.2l54.3-55.2l-54.3-55.2L195.7,250z M249.9,382.2c-8.3,0-16.3-3.3-22.2-9.3L129,272.6
	c-12.2-12.4-12.2-32.6,0-45.1l98.8-100.3c12.2-12.4,32.1-12.4,44.4,0l98.8,100.3c12.2,12.4,12.2,32.6,0,45.1l-98.8,100.3
	C266.2,378.8,258.3,382.2,249.9,382.2z"/>
</svg>
