<?xml version="1.0" encoding="utf-8"?>
<!-- Generator: Adobe Illustrator 26.2.1, SVG Export Plug-In . SVG Version: 6.00 Build 0)  -->
<svg version="1.1" id="xcn" xmlns="http://www.w3.org/2000/svg" xmlns:xlink="http://www.w3.org/1999/xlink" x="0px" y="0px"
	 viewBox="0 0 500 500" style="enable-background:new 0 0 500 500;" xml:space="preserve">
<polygon points="428.6,151.6 376.7,181.9 446.7,222.1 446.7,363.4 324.4,434.3 202.1,363.4 202.1,222.1 272.5,181.5 262.6,175.9 
	220.2,151.6 149.8,192.3 149.8,393.7 324.4,494.4 499,393.7 499,192.3 "/>
<polygon points="176.2,6 1.6,106.7 1.6,308.1 72,348.7 114.4,324.5 123.9,318.9 53.4,278.3 53.4,136.5 176.2,66.1 298.5,136.5 
	298.5,278.3 228.4,318.5 280.3,348.7 350.3,308.1 350.3,106.7 "/>
</svg>
