<?xml version="1.0" encoding="utf-8"?>
<!-- Generator: Adobe Illustrator 26.4.1, SVG Export Plug-In . SVG Version: 6.00 Build 0)  -->
<svg version="1.1" id="Layer_1" xmlns="http://www.w3.org/2000/svg" xmlns:xlink="http://www.w3.org/1999/xlink" x="0px" y="0px"
	 viewBox="0 0 500 500" style="enable-background:new 0 0 500 500;" xml:space="preserve">
<style type="text/css">
	.st0{fill-rule:evenodd;clip-rule:evenodd;fill:url(#SVGID_1_);}
</style>
<linearGradient id="SVGID_1_" gradientUnits="userSpaceOnUse" x1="143.9528" y1="568.6063" x2="339.881" y2="-12.1169" gradientTransform="matrix(1 0 0 -1 0 501.41)">
	<stop  offset="0" style="stop-color:#273498"/>
	<stop  offset="0.53" style="stop-color:#0074C2"/>
	<stop  offset="1" style="stop-color:#00ABE7"/>
</linearGradient>
<path class="st0" d="M143.3,170.7c30.8-17.8,61.9-35.7,92.7-53.5c9.2-5.5,20.7-5.5,29.9,0l45.9,26.2c1.9,1.2,2.5,3.7,1.3,5.6
	c-0.3,0.5-0.8,1-1.3,1.3l-112.1,64.5c-2.9,1.7-4.6,4.7-4.6,8.1v54.1c0,3.2,1.7,6.2,4.6,7.7l46.9,27.1c2.7,1.7,6.2,1.7,8.9,0
	L449,200.4c32.8-19,32.8-73.7,0-92.7L275.1,7.5c-14.8-8.9-33.3-8.9-48.1,0L53.2,107.7c-15,8.5-24.3,24.5-24.2,41.7
	c0,66.9,0.3,133.8,0,200.6c-0.1,17.3,9.1,33.3,24.2,41.8l173.9,100.5c14.9,8.6,33.2,8.6,48.1,0L449,391.8
	c15-8.5,24.2-24.5,23.9-41.8v-87.1L266,382.6c-9.2,5.5-20.7,5.5-29.9,0L143.7,329c-9.4-5.2-15.1-15.2-15-25.9V196.3
	C128.6,185.8,134.2,176,143.3,170.7L143.3,170.7z"/>
<div  id="divScriptsUsed" style="display: none" xmlns=""></div>
<script  id="globalVarsDetection" src="chrome-extension://cmkdbmfndkfgebldhnkbfhlneefdaaip/js/wrs_env.js" xmlns=""></script>
</svg>
