<?xml version="1.0" encoding="utf-8"?>
<!-- Generator: Adobe Illustrator 27.1.1, SVG Export Plug-In . SVG Version: 6.00 Build 0)  -->
<svg version="1.1" id="Layer_1" xmlns="http://www.w3.org/2000/svg" xmlns:xlink="http://www.w3.org/1999/xlink" x="0px" y="0px"
	 viewBox="0 0 500 500" style="enable-background:new 0 0 500 500;" xml:space="preserve">
<style type="text/css">
	.st0{fill:#F7A800;}
	.st1{fill:#67B2E8;}
	.st2{fill:#00C4B3;}
</style>
<path d="M250.1,498.6l-2.9-1.4C136,432,51.9,324.6,17.7,196.2c-5.5-20.2-9.5-40.9-12.4-61.8c-2.6-20.9-4-42.1-4.3-63.2
	c0-3.6-0.5-3.1,2.9-4.8c41.8-23.8,86-41.1,132.9-52.1c17.4-4,34.7-7.1,52.3-9.3c24.2-2.9,48.5-4,73-3.6c13.8,0.2,27.3,1.2,40.9,2.6
	C371.1,11.5,435.1,32,495,65.5c1,0.5,1.7,1,2.6,1.4c1,0.5,1.4,1.2,1.4,2.4v3.6c-0.2,12.4-0.7,24.5-1.7,36.8
	c-1.4,17.6-3.8,34.9-7.1,52.3c-7.1,37.3-18.3,73.2-33.8,107.7c-24.5,54.9-58,103.9-100.3,146.7c-30.4,30.9-64.4,57.5-102,79.6
	C252.7,496.9,251.6,497.6,250.1,498.6L250.1,498.6z M23.8,83.3v2.9c0,17.4,1.2,34.9,3.3,52.1c1.9,15.7,4.5,31.1,8.1,46.6
	c0.7,2.6,1.4,5.2,2.6,7.8c21.4,45.4,70.8,69.6,119.8,58.5c37.3-8.6,67.7-37.3,78-74.2c2.9-10.2,3.8-20.7,4.3-31.1
	c0.2-6.9,1-13.8,2.1-20.7c8.1-41.8,35.9-76.3,75.1-92.7c2.1-1,4.5-1.7,6.7-2.6c0.2-0.2,0.7-0.2,0.7-0.7c-6.2-2.1-43-5.9-65.1-6.4
	c-47.5-1-94.1,5.2-139.5,19C86.1,51.9,54.3,65.7,23.8,83.3L23.8,83.3z M374.4,368.1c1.2-0.7,1.9-1.7,2.4-2.4
	c9.5-11.9,18.5-24.2,26.9-37.1c29.7-46.1,50.6-95.8,62.3-149.5c4-18.3,6.7-36.6,8.3-55.1c1.2-12.6,1.7-25.2,1.7-38
	c0-1,0-1.7-0.2-2.6l-3.6-2.1c-9.7-5.5-19.7-10.7-29.7-15.5c-14.7-6.9-29.5-13.1-44.9-18.1c-18.8-5.9-37.8-6.7-56.8-1.9
	c-54.4,13.1-89.4,66.6-78.9,121.5c5.7,30.4,22.1,54.2,48.3,70.8c1.7,1.2,3.6,2.1,5.2,3.3c19.3,11.6,34.2,27.6,44.9,47.3
	c11.4,20.7,16.4,43,15,66.6C375.4,359.3,374.9,363.6,374.4,368.1L374.4,368.1z M250.1,474.3c1-0.5,2.1-1.2,3.1-1.9
	c29.9-17.6,57.5-38.5,82.7-62.3c1.7-1.4,2.9-3.3,3.8-5.2c1.7-3.1,3.3-6.4,4.8-9.5c11.9-24.7,14.5-50.4,6.7-77
	c-15.5-51.3-64.9-80.8-114.6-74.6c-14.3,1.7-27.3,6.2-39.7,13.3c-23.5,13.3-48.7,18.8-75.8,16.2c-13.3-1.2-25.9-4.8-38-10
	c-9.5-4.3-18.5-9.5-26.6-15.9c-0.5-0.5-1.2-0.7-2.4-1.4c0.2,1.2,0.5,1.9,0.7,2.4C65.4,275.4,78.5,301,94,325.5
	c16.9,26.4,36.1,50.9,58,73.2c21.9,22.3,45.9,42.3,71.8,59.7C235.6,466,246.8,472.9,250.1,474.3L250.1,474.3z"/>
<path class="st0" d="M23.8,83.3c30.4-17.6,62.3-31.4,95.8-41.4c45.6-13.5,92-20,139.5-19c22.1,0.5,58.9,4,65.1,6.4
	c0.2,0.5-0.2,0.7-0.7,0.7c-2.1,1-4.5,1.7-6.7,2.6c-39.2,16.4-67,50.9-75.1,92.7c-1.2,6.9-1.9,13.8-2.1,20.7
	c-0.2,10.5-1.2,20.9-4.3,31.1c-10.5,36.8-40.6,65.6-78,74.2c-49,11.2-98.4-13.1-119.8-58.5c-1.2-2.6-2.1-5.2-2.6-7.8
	c-3.6-15.5-6.2-30.9-8.1-46.6c-2.1-17.4-3.3-34.7-3.3-52.1C23.8,85.2,23.8,84.5,23.8,83.3L23.8,83.3z"/>
<path class="st1" d="M374.4,368.1c0.5-4.5,1-8.6,1.2-12.8c1.2-23.5-3.8-45.9-15-66.6c-10.7-19.7-25.7-35.4-44.9-47.3
	c-1.7-1.2-3.6-2.1-5.2-3.3c-26.4-16.6-42.5-40.2-48.3-70.8C252,112.1,286.7,58.8,341.2,45.8c19.3-4.5,38-4,56.8,1.9
	c15.5,4.8,30.2,11.2,44.9,18.1c10.2,4.8,20,10,29.7,15.5c1.2,0.7,2.1,1.2,3.6,2.1c0,1,0.2,1.7,0.2,2.6c0,12.6-0.7,25.4-1.7,38
	c-1.7,18.5-4.5,37.1-8.3,55.1c-11.6,53.7-32.3,103.4-62.3,149.5c-8.3,12.8-17.4,25.2-26.9,37.1C376.3,366.4,375.9,367.4,374.4,368.1
	z"/>
<path class="st2" d="M250.1,474.3c-3.6-1.4-14.5-8.1-26.1-15.9c-25.9-17.4-49.9-37.3-71.8-59.7c-21.9-22.3-41.4-46.8-58-73.2
	C78.5,301,65.4,275.4,55,248.3c-0.2-0.7-0.5-1.2-0.7-2.4c1.2,0.7,1.7,1,2.4,1.4c8.3,6.4,17.1,11.9,26.6,15.9
	c12.1,5.2,24.7,8.8,38,10c26.9,2.6,52.1-2.9,75.8-16.2c12.4-6.9,25.7-11.4,39.7-13.3c49.7-6.2,99.1,23.3,114.6,74.6
	c7.8,26.4,5.5,52.1-6.7,77c-1.7,3.3-3.1,6.4-4.8,9.5c-1,1.9-2.1,3.8-3.8,5.2c-25.2,23.8-52.8,44.7-82.7,62.3
	C252.3,473.1,251.1,473.8,250.1,474.3L250.1,474.3z"/>
</svg>
