<?xml version="1.0" encoding="utf-8"?>
<!-- Generator: Adobe Illustrator 26.5.0, SVG Export Plug-In . SVG Version: 6.00 Build 0)  -->
<svg version="1.1" id="xpr" xmlns="http://www.w3.org/2000/svg" xmlns:xlink="http://www.w3.org/1999/xlink" x="0px" y="0px"
	 viewBox="0 0 500 500" style="enable-background:new 0 0 500 500;" xml:space="preserve">
<style type="text/css">
	.st0{fill-rule:evenodd;clip-rule:evenodd;fill:url(#SVGID_1_);}
</style>
<linearGradient id="SVGID_1_" gradientUnits="userSpaceOnUse" x1="2.8127" y1="496.5555" x2="9.815" y2="496.2301" gradientTransform="matrix(48.5555 0 0 -54 -47.5555 27055)">
	<stop  offset="0" style="stop-color:#7543E3"/>
	<stop  offset="1" style="stop-color:#582ACB"/>
</linearGradient>
<path class="st0" d="M248.2,0.9c32.1,0,59.8,33.1,78.1,86.8c-7.4,2-14.9,4.3-22.5,6.8c-15.2-44.4-36-70.6-55.6-70.6
	c-22.1,0-45.7,33.2-61,88.3c6,1.9,12,4,18.2,6.2c14.6,5.3,28.9,11.3,42.9,17.8l2.5-1.2c10.3-4.7,20.7-9.1,31.2-13.1
	c27.6-10.6,54.4-18.2,78.8-22.2c52.7-8.7,89.7,0.3,104.2,25.3c14.6,25,3.9,61.3-30,102.1c-2,2.3-4,4.7-6,7
	c-5.2-5.7-10.6-11.3-16.2-16.7c29.9-34.4,41.7-64.5,32.1-81c-9.1-15.6-39.1-20.9-80.3-14.1c-9.2,1.5-18.3,3.5-27.4,5.8
	c1.3,6.1,2.6,12.4,3.7,18.8c2.5,14.5,4.5,29.8,5.9,45.7c7.2,5,14.2,10.1,21.1,15.4c26.6,20.4,49.5,41.8,67.1,63
	c33.9,40.9,44.6,77.1,30,102.1c-10.9,18.8-34.5,28.5-67.9,28.5c-11,0-23.2-1-36.3-3.2c-3.4-0.6-6.8-1.2-10.3-1.9
	c2.1-7.1,4-14.6,5.8-22.3c2.8,0.6,5.6,1,8.4,1.5c41.2,6.8,71.2,1.5,80.3-14.1c11-19-6.2-55.9-46.8-96.7c-4.1,3.7-8.3,7.4-12.5,10.9
	c-0.6,0.5-1.3,1.1-1.9,1.6c-11.9,9.8-24.2,19.2-36.8,28c-0.6,7.1-1.3,14.2-2.2,21.3c-12.7,101.2-50,170.6-96.5,170.6
	c-32,0-59.7-33-78-86.5c7.6-2.1,15.1-4.3,22.5-6.8c15.2,44.3,35.9,70.4,55.5,70.4c22.1,0,45.7-33.3,61.1-88.5
	c-6.1-1.9-12.2-4-18.2-6.2c-14.5-5.3-28.7-11.1-42.7-17.6l-0.9,0.4c-8.1,3.7-16.1,7.2-24,10.5c-1.2,0.5-2.4,1-3.6,1.4
	c-45.5,18.2-87,27.6-120,27.6c-32.9,0-57.3-9.3-68.5-28.7c-16.1-27.7-0.9-68.2,37.3-111l16.2,17c-30.9,35.1-43.2,65.8-33.4,82.5
	c11,19,51.8,22.6,107.6,8.3c-1.4-6.2-2.6-12.5-3.7-18.8c-2.6-15.1-4.6-30.3-5.9-45.6c-7.1-4.9-14.2-10-21.1-15.2
	C63.7,241.1,24.8,188.7,24.8,149.7c0-9,2.1-17.3,6.4-24.7c16-27.5,58.7-34.8,114.7-23.7c-2.1,7.2-4.1,14.8-5.8,22.6
	c-46-9-79-4.2-88.7,12.6c-11,18.9,6.2,55.8,46.6,96.5c5.2-4.7,10.6-9.3,16.2-13.9c11.4-9.3,23.2-18.2,35.3-26.5
	c0.6-7.2,1.4-14.4,2.2-21.3C164.3,70.3,201.6,0.9,248.2,0.9z M321.6,322.3c-5.6,3.5-11.3,7-17,10.4c-8.7,5.1-17.5,10-26.4,14.6
	c-1,0.5-2,1-3,1.6c13,5.5,26.2,10.4,39.6,14.7c1.4-6.3,2.6-12.8,3.8-19.5C319.7,337.1,320.7,329.8,321.6,322.3z M174.6,322.3
	c1,7.8,2.1,15.4,3.4,22.7c1.1,6.4,2.3,12.6,3.6,18.6c3.8-1.2,7.5-2.5,11.4-3.8c1.2-0.4,2.3-0.8,3.5-1.3c8.2-2.9,16.3-6.1,24.3-9.5
	l0.2-0.1c-7.9-4.1-15.8-8.4-23.5-12.8c-0.4-0.2-0.8-0.5-1.2-0.7C189,331.2,181.8,326.8,174.6,322.3z M248.2,161.8
	c-13.2,6.4-26.3,13.2-39,20.5c-12.7,7.3-25.2,15-37.4,23.2c-1.1,14.6-1.6,29.1-1.6,43.7c0,15.1,0.6,29.7,1.6,43.7
	c6.8,4.5,13.8,9.1,21,13.5c17.9,11,36.4,21.1,55.4,30.3l2.5-1.2c8.8-4.3,17.6-8.9,26.2-13.6c16.3-8.9,32.2-18.6,47.7-28.9
	c1.1-14.6,1.6-29.2,1.6-43.8c0-15.1-0.6-29.7-1.6-43.7c-12.2-8.2-24.7-15.9-37.4-23.2C274.4,175,261.4,168.1,248.2,161.8
	L248.2,161.8z M248.2,219.6c16.5,0,29.9,13.3,29.9,29.6s-13.4,29.6-29.9,29.6s-29.9-13.3-29.9-29.6S231.7,219.6,248.2,219.6z
	 M348.8,222.7c0.3,8.7,0.5,17.5,0.5,26.5c0,2.2,0,4.3,0,6.5c-0.1,6.8-0.3,13.5-0.5,20.1c6-4.5,11.7-9,17.2-13.5l2-1.6
	c4.6-3.9,9.1-7.7,13.3-11.5C370.9,239.9,360.1,231.1,348.8,222.7z M147.5,222.6c-5.4,4-10.6,8.1-15.5,12.1
	c-6,4.8-11.7,9.7-17.1,14.5c3.9,3.5,8,7,12.2,10.5c6.4,5.3,13.2,10.7,20.3,16c-0.3-8.8-0.5-17.7-0.5-26.5c0-2.2,0-4.3,0.1-6.5
	C147.1,236,147.3,229.3,147.5,222.6z M314.7,134.9c-12.7,4.1-25.1,8.7-37.4,13.8l-2,0.9c7.8,4.1,15.6,8.3,23.5,12.8
	c0.4,0.2,0.8,0.5,1.2,0.7c7.4,4.2,14.6,8.6,21.7,13.1c-0.9-7.6-2.1-15.2-3.4-22.7C317.3,147.2,316.1,141,314.7,134.9z M181.6,134.9
	c-2.9,13.6-5.2,27.4-6.9,41.2c7.1-4.4,14.4-8.8,21.8-13.1l1.1-0.6c7.8-4.4,15.6-8.7,23.6-12.8c-6.9-2.9-13.9-5.7-21-8.3
	C194,139,187.8,136.9,181.6,134.9z"/>
</svg>
