<?xml version="1.0" encoding="utf-8"?>
<!-- Generator: Adobe Illustrator 27.0.1, SVG Export Plug-In . SVG Version: 6.00 Build 0)  -->
<svg version="1.1" id="yfii" xmlns="http://www.w3.org/2000/svg" xmlns:xlink="http://www.w3.org/1999/xlink" x="0px" y="0px"
	 viewBox="0 0 500 500" style="enable-background:new 0 0 500 500;" xml:space="preserve">
<style type="text/css">
	.st0{fill:#FF2C7D;}
	.st1{fill:#FFFFFF;}
</style>
<circle class="st0" cx="250" cy="250" r="249"/>
<rect x="154.9" y="237.6" class="st1" width="202.3" height="22.4"/>
<path class="st1" d="M195.1,149.8l9.4,29c-14.1-5.6-29.7-6.2-31.6-6.2h-0.3c-43.2,0-78.4,35.2-78.4,78.4s35.2,78.4,78.4,78.4
	c26,0,50.2-12.8,64.9-34.4l18.3-24.9h-27.8l-8.7,11.9l-0.2,0.3c-10.5,15.5-27.9,24.7-46.5,24.7c-30.9,0-56-25.1-56-56
	c0-30.8,25-55.9,55.9-56c4.3,0.2,15.7,1.3,24.4,4.9l-32.8,9.2l6,21.6l68.5-19.2L216.4,143L195.1,149.8z"/>
<path class="st1" d="M269.8,213.1l-10.6,14.3H287l0.9-1.2l0.1-0.1c14.9-20.7,32.2-31.2,51.7-31.2c30.9,0,56,25.1,56,56
	s-25.1,56-56,56c-10.3,0-21.6-4.2-30.7-9.9l38-5.1l-2.9-22.2l-70.2,9.4l13.5,72.1l22-4.2l-4.9-26.1c10.9,5.5,22.8,8.3,35.2,8.3
	c43.2,0,78.4-35.2,78.4-78.4s-35.2-78.4-78.4-78.4C313.1,172.6,288.9,186.6,269.8,213.1z"/>
</svg>
