<?xml version="1.0" encoding="utf-8"?>
<!-- Generator: Adobe Illustrator 26.0.1, SVG Export Plug-In . SVG Version: 6.00 Build 0)  -->
<svg version="1.1" id="Layer_1" xmlns="http://www.w3.org/2000/svg" xmlns:xlink="http://www.w3.org/1999/xlink" x="0px" y="0px"
	 viewBox="0 0 2175.1 2499.5" style="enable-background:new 0 0 2175.1 2499.5;" xml:space="preserve">
<linearGradient id="SVGID_1_" gradientUnits="userSpaceOnUse" x1="613.0116" y1="1575.1434" x2="1100.3323" y2="1575.1434" gradientTransform="matrix(4.4634 0 0 -4.4634 -2736.0977 8280.1914)">
	<stop  offset="0" style="stop-color:#508789"/>
	<stop  offset="1" style="stop-color:#7EBBCB"/>
</linearGradient>
<path style="fill:url(#SVGID_1_);" d="M1071.2,4c0,0,8.9-4,18.7-4c9.8,0,16.5,4,16.5,4c344.1,198.2,687.8,396.8,1031.9,595.4
	c22.8,11.2,37.9,34.8,36.6,60.3v1178.8c0.9,22.8-10.7,45.5-31.2,56.7c-60.7,36.6-122.7,70.5-183.9,106.7
	c-284.8,164.3-569.1,329-853.8,492.8c0,0-7.6,4.9-17,4.9c-9.4,0-18.3-4.9-18.3-4.9c-314.2-179.9-628-362-942.2-542.3
	c-32.6-19.6-66.1-37.5-98.2-57.6C11.2,1883.1,0,1860.8,0,1838.5V659.7c-0.4-25,13.8-48.2,36.2-59.8c112-65.6,224.5-129.4,337-194.2
	c148.6-86.6,298.2-171.8,447.2-258C904.3,100.4,986.9,50.9,1071.2,4"/>
<path style="fill:#67A1AA;" d="M570.4,990c-0.4-19.2,24.5-20.5,36.2-11.2c246.4,141.9,492.8,283.4,739.1,425.8
	c14.3,5.8,14.3,22.3,6.2,33.5c-77.7,134.8-156.2,269.6-233.9,404.4c-6.2,9.8-11.6,21-20.1,29.5c-8.9,8.5-22.8,0.9-27.2-8.5
	C990.4,1724.6,911,1585.8,830.2,1447c-4.5-8.9-11.2-17.4-10.3-27.7c0.4-9.4,10.7-13.4,17-18.3c67.4-38.8,135.2-77.7,202.2-116.9
	c-17-15.6-38.4-25-58.5-36.6c-19.6-9.8-37-23.2-56.7-32.6c-6.7-3.6-12.9,1.8-18.7,4.5c-40.6,25-83.5,46.9-124.1,72.3
	c-11.2,6.2-29.9,17.4-38.8,2.2c-26.3-40.2-46.9-83.5-72.3-124.1c-23.2-42-48.7-83-71.9-125.4C589.2,1027,573.6,1011,570.4,990z"/>
<path id="_x23_000000ff" d="M310.2,789.1c-12.5-40.2,25.4-85.3,67-78.6c25.9,2.7,45.5,22.3,68.3,32.6
	c291.5,168.7,582.9,336.5,874.4,505.3c30.8,16.5,59.4,36.6,91.1,51.8c9.4,5.4,21.4,0.9,25.9-8.9c43.3-74.1,86.1-149.1,129.4-223.2
	c12.5-25,30.8-46.9,40.6-73.2c2.7-22.3-28.1-29.9-42.8-17.9c-101.3,57.1-201.7,116.5-302.6,174.5c-8.9,6.7-18.3-0.9-26.3-5.4
	c-32.1-20.5-67-37-99.1-58c70.5-42.4,142.8-82.1,213.8-124.5c121.8-68.7,241.9-140.1,363.8-208.9c23.7-13.8,46.4-29,71.9-40.2
	c35.3-14.7,80.3,13.8,82.6,52.2c2.7,25.4-13.4,47.3-25.9,67.4c-229,397.2-458.8,794-687.8,1191.7c-9.8,16.1-18.7,35.3-37,43.3
	c-23.2,12.1-53.1,7.6-71.9-10.3c-9.4-10.3-15.6-22.8-23.2-34.8C802.5,1643,581.6,1262.7,361.5,881.5
	C344.6,850.3,322.3,822.2,310.2,789.1 M570.4,990c3.1,20.5,18.7,36.6,28.1,54.9c23.2,42,48.7,83,71.9,125.4
	c25.9,40.6,46,83.9,72.3,124.1c8.9,15.2,27.7,4,38.8-2.2c40.6-25.4,83-47.3,124.1-72.3c5.8-2.7,12.1-8,18.7-4.5
	c19.6,9.4,37,22.8,56.7,32.6c20.1,11.6,41.5,21,58.5,36.6c-67.4,39.3-134.8,78.1-202.2,116.9c-6.7,4.9-16.5,8.9-17,18.3
	c-0.9,10.3,6.2,18.7,10.3,27.7c80.8,138.4,160.2,277.6,240.6,416.4c4.5,9.4,18.3,17,27.2,8.5c8.5-8.5,13.8-19.2,20.1-29.5
	c77.7-134.8,156.2-269.6,233.9-404.4c8-10.7,8-27.7-6.2-33.5c-245.9-142.4-492.8-283.9-739.1-425.8C595,969.4,570,970.8,570.4,990
	L570.4,990z"/>
</svg>
