<?xml version="1.0" encoding="utf-8"?>
<!-- Generator: Adobe Illustrator 27.7.0, SVG Export Plug-In . SVG Version: 6.00 Build 0)  -->
<svg version="1.1" id="Layer_1" xmlns="http://www.w3.org/2000/svg" xmlns:xlink="http://www.w3.org/1999/xlink" x="0px" y="0px"
	 viewBox="0 0 500 500" style="enable-background:new 0 0 500 500;" xml:space="preserve">
<style type="text/css">
	.st0{fill:#10151B;}
	.st1{fill:#6C93C7;}
</style>
<circle class="st0" cx="250" cy="250" r="244.6"/>
<path class="st1" d="M250,500c-66.8,0-129.6-26-176.8-73.2C26,379.6,0,316.8,0,250c0-66.8,26-129.6,73.2-176.8
	C120.4,26,183.2,0,250,0c66.8,0,129.6,26,176.8,73.2C474,120.4,500,183.2,500,250c0,66.8-26,129.6-73.2,176.8S316.8,500,250,500z
	 M250,10.8c-63.9,0-124,24.9-169.2,70.1C35.6,126,10.8,186.1,10.8,250c0,63.9,24.9,124,70.1,169.2c45.2,45.2,105.3,70.1,169.2,70.1
	c63.9,0,124-24.9,169.2-70.1s70.1-105.3,70.1-169.2c0-63.9-24.9-124-70.1-169.2C374,35.6,313.9,10.8,250,10.8z"/>
<path class="st1" d="M250,325.5c-0.9,0-1.8-0.2-2.6-0.7l-133.5-85c-2.2-1.4-2.9-4.3-1.5-6.5l135-221c0.9-1.4,2.4-2.3,4.1-2.3
	c0,0,0,0,0,0c1.7,0,3.2,0.9,4.1,2.3l132,221c1.3,2.2,0.6,5.1-1.5,6.5l-133.5,85C251.8,325.3,250.9,325.5,250,325.5z M123.1,234.2
	L250,315.1l127-80.9L251.4,24L123.1,234.2z"/>
<path class="st1" d="M250,325.5c-2.6,0-4.8-2.1-4.8-4.8V141.8l1.5-127.1c0-2.6,2.2-4.7,4.8-4.7c0,0,0,0,0.1,0c2.6,0,4.8,2.2,4.7,4.8
	l-1.5,127.1v178.9C254.8,323.4,252.6,325.5,250,325.5z"/>
<path class="st1" d="M383.5,240.5c-0.6,0-1.3-0.1-1.9-0.4L250,182l-131.5,58.1c-2.4,1.1-5.2,0-6.3-2.4c-1.1-2.4,0-5.2,2.4-6.3
	l133.5-58.9c1.2-0.5,2.6-0.5,3.9,0l133.5,58.9c2.4,1.1,3.5,3.9,2.4,6.3C387.1,239.4,385.3,240.5,383.5,240.5z"/>
<path class="st1" d="M116.5,303.2c-1.9,0-3.6-1.1-4.4-2.9c-1-2.4,0.1-5.2,2.6-6.3l59.3-24.8c2.4-1,5.2,0.1,6.3,2.6
	c1,2.4-0.1,5.2-2.6,6.3l-59.3,24.8C117.8,303.1,117.1,303.2,116.5,303.2z"/>
<path class="st1" d="M383.6,303.2c-0.6,0-1.2-0.1-1.8-0.4l-59.4-24.8c-2.4-1-3.6-3.8-2.6-6.3c1-2.4,3.8-3.6,6.3-2.6l59.4,24.8
	c2.4,1,3.6,3.8,2.6,6.3C387.3,302.1,385.5,303.2,383.6,303.2z"/>
<path class="st1" d="M250.8,490c-1.5,0-3-0.7-3.9-2l-134.3-187c-1.3-1.9-1.2-4.5,0.5-6.1c1.6-1.7,4.2-1.9,6.1-0.6L250.8,383
	l130-88.6c1.9-1.3,4.5-1.1,6.1,0.6c1.6,1.7,1.8,4.2,0.5,6.1L254.7,488C253.8,489.3,252.4,490,250.8,490
	C250.8,490,250.8,490,250.8,490z M135.9,317.1L250.8,477l113.4-159.8l-110.7,75.5c-1.6,1.1-3.7,1.1-5.4,0L135.9,317.1z"/>
<path class="st1" d="M250.8,490c-2.6,0-4.8-2.1-4.8-4.8v-96.5c0-2.6,2.1-4.8,4.8-4.8c2.6,0,4.8,2.1,4.8,4.8v96.5
	C255.6,487.9,253.5,490,250.8,490z"/>
</svg>
