<?xml version="1.0" encoding="utf-8"?>
<!-- Generator: Adobe Illustrator 26.0.1, SVG Export Plug-In . SVG Version: 6.00 Build 0)  -->
<svg version="1.1" id="Layer_1" xmlns="http://www.w3.org/2000/svg" xmlns:xlink="http://www.w3.org/1999/xlink" x="0px" y="0px"
	 viewBox="0 0 185.6 185.6" style="enable-background:new 0 0 185.6 185.6;" xml:space="preserve">
<style type="text/css">
	.st0{fill:url(#SVGID_1_);}
	.st1{fill:#FFFFFF;}
	.st2{clip-path:url(#SVGID_00000044141760761020611380000014920724805358450861_);}
	.st3{opacity:0.8;}
	
		.st4{opacity:0.8;fill:none;stroke:url(#SVGID_00000137132198576349032230000016209738196934323592_);stroke-width:1.0554;stroke-miterlimit:10;enable-background:new    ;}
	
		.st5{opacity:0.8;fill:none;stroke:url(#SVGID_00000006687254865981556760000000530147127117927586_);stroke-width:1.0554;stroke-miterlimit:10;enable-background:new    ;}
	
		.st6{opacity:0.8;fill:none;stroke:url(#SVGID_00000035517379965928027430000010010271205085670824_);stroke-width:0.9894;stroke-miterlimit:10;enable-background:new    ;}
	
		.st7{opacity:0.8;fill:none;stroke:url(#SVGID_00000080917806582070322240000003155992228992681353_);stroke-width:0.9235;stroke-miterlimit:10;enable-background:new    ;}
	
		.st8{opacity:0.8;fill:none;stroke:url(#SVGID_00000167363094587770395830000008658354487576327589_);stroke-width:0.8575;stroke-miterlimit:10;enable-background:new    ;}
	
		.st9{opacity:0.8;fill:none;stroke:url(#SVGID_00000005988563050017086460000007686233232170268041_);stroke-width:0.8575;stroke-miterlimit:10;enable-background:new    ;}
</style>
<g id="Layer_3">
	
		<radialGradient id="SVGID_1_" cx="-109.7066" cy="-1.1131" r="1.0001" gradientTransform="matrix(6.382553e-15 104.235 -104.235 6.382553e-15 -23.2204 11537.7627)" gradientUnits="userSpaceOnUse">
		<stop  offset="0.1667" style="stop-color:#073183"/>
		<stop  offset="1" style="stop-color:#0054F9"/>
	</radialGradient>
	<path class="st0" d="M185.6,92.8C185.6,41.5,144,0,92.8,0C41.5,0,0,41.5,0,92.8c0,51.2,41.5,92.8,92.8,92.8
		C144,185.6,185.6,144,185.6,92.8z"/>
</g>
<g id="Layer_1_00000019678216197568292700000009484231850298271916_">
	<path class="st1" d="M155.9,63.8c-0.4,2.3-0.8,3.4-1.4,4.6l0,0c-0.6,1.4-1.2,2.9-1.8,6.1c-0.2,1.2-0.4,2.2-0.5,3v0.1l0,0
		c-0.2,1.3-0.3,2.2-0.8,3.7c-0.4,1.3-1.1,3.4-2.8,5.6c-1.4,1.8-3.7,4.9-6.8,5.3c-0.3,0-0.8,0-1.1-0.1c-8.8-4.5-16.3-7.8-18.9-8.5
		c-3-0.9-2.6-7.5-2.3-13.3c0.2-2.6,0.3-5.1,0.2-7.2c-0.4-7.4-1.7-15.4-8.1-19.3c-3.8-2.3-8.8-3-13.5-3c0.9-0.4,1.8-1,2.9-1.6l0,0
		c2.8-1.6,6.2-3.6,9.7-4c1.1-0.1,2.2-0.2,3.3-0.4c6.9-0.8,12.9-1.5,19.2,0.7c2.9,1,8.7,4.2,10.2,7.3c1.1,2.1,2.9,3.8,6.4,7.1
		c1.9,1.7,3.1,2.7,4,3.5l0,0c1.3,1,1.5,1.3,1.9,2C156.9,57.8,156.5,60.3,155.9,63.8z"/>
	<path class="st1" d="M124,94.1c0.4,0.1,0.6,0.6,0.3,1c-0.9,1.4-2,3.4-3.3,5.7c-0.6,1.1-1.2,2.2-1.7,3c-1.7,2.9-1.8,5.4-1.9,7.3
		c-0.1,2.1-0.2,3-1.5,3.8c-1,0.7-2.1,0.9-9.3,2c-1.3,0.2-1.8,0.4-2.3,0.7c-0.1,0.1-0.3,0.1-0.4,0.2c-0.4,0.2-0.8-0.2-0.8-0.6
		c0.1-1,0.1-2.3,0.1-4v-0.3c0-1.4,0-2.6-0.1-3.5c-0.1-1.8-0.1-2.6,0.4-3.4c0.6-1,1.1-1.3,1.8-1.8c1.1-0.7,2.6-1.6,4.7-4.6
		c1.2-1.6,1.4-2.5,1.6-3.2c0.1-0.3,0.1-0.4,1-1.1s3.8-2.9,7.5-2.3C121.3,93.2,122.6,93.6,124,94.1z"/>
	<path class="st1" d="M95.3,127.3c-0.2,0.2-0.3,0.3-0.6,0.3c-0.8,0-1.3-0.2-1.6-0.6c-0.7-0.9-0.6-2.7-0.5-3.8l3.1-0.8
		C95.9,124.1,96,126.4,95.3,127.3z"/>
	<path class="st1" d="M95.5,116.3c-0.1,0.4-0.1,0.9-0.1,1.5c0,0.2,0,0.4,0,0.6c0,0.5,0,1.3,0,1.7c-1,0.3-1.8,0.3-2.8,0.3
		c0-0.3,0-0.8,0-1.1c0-0.2,0-0.5,0-0.7c0-0.3,0-0.5,0-0.8c0-0.6,0-1.5,0.1-1.8c0.3,0,0.6-0.1,0.9-0.2c0.6-0.1,1.5-0.3,2-0.2
		C95.6,115.8,95.6,116.1,95.5,116.3z"/>
	<path class="st1" d="M89.9,126.4c-0.1,1.6-0.6,3.5-2.1,3.8c-0.7,0.1-1-0.1-1.2-0.3c-1-0.9-1.1-3.7-1-5.7c0.7,0,1.5-0.1,2.5-0.3
		c0.6-0.1,1.2-0.3,1.7-0.4C89.9,124.3,90,125.3,89.9,126.4z"/>
	<path class="st1" d="M89.2,120.8l-3.3,1.2c0.2-1.3,0.4-3.1,0.5-4.3c0.1-0.8,0.3-1.1,0.4-1.2c0,0,0.1-0.1,0.2-0.1c0,0,0,0,0.1,0h0.1
		l2.1-0.1C89.2,117.3,89.2,119.5,89.2,120.8z"/>
	<path class="st1" d="M83.8,119.8c-0.2,0.5-0.4,1.9-0.5,2.9l-4.1-0.1c0.2-1.3,0.6-2.6,0.9-3.6c0.4-1,0.7-1.8,1.1-2s1.3-0.3,1.9,0.2
		C84,117.8,84.2,118.7,83.8,119.8z"/>
	<path class="st1" d="M82.3,132.5c-0.3,0.4-0.7,0.7-1.1,0.7c-0.5,0.1-0.8-0.1-1.1-0.3c-1.3-1.2-1.2-5.1-1.1-7
		c1.7-0.4,3.6-0.7,4.5-0.8C83.5,126.6,83.6,130.7,82.3,132.5z"/>
	<path class="st1" d="M76.9,122.4c-0.2,0.5-0.4,1-0.5,1.5c-0.5,0.2-2,0-3.5-0.3l1-6.5c1.7-0.5,3.7-0.6,4.1-0.1
		C78.7,117.7,77.4,121,76.9,122.4z"/>
	<path class="st1" d="M75,133.4c-0.8,1-2,1.5-3.7,1.4c-1.2,0-1.6-0.5-1.8-0.8c-0.9-1.5,0-5,0.9-7.2l5.6,0.3c0.1,0.4,0.1,0.9,0.1,1.4
		C76.2,130.2,76,132.2,75,133.4z"/>
	<path class="st1" d="M121.4,86.1c-5.1-1.4-4.6-8.8-4.2-16c0.1-2.5,0.3-4.9,0.2-6.9c-0.4-6.7-1.5-14-6.9-17.3
		c-5.8-3.5-15.3-2.7-21.1-2l0,0l0,0c-2.1,0.6-4.1,1.1-5.7,1c-3.4-0.2-6.1-1.6-8.5-2.9c-1.8-1-3.4-1.9-5-1.9c-0.1,0-0.2,0-0.2,0
		c-4.5,0.3-6.6,1.4-8.5,3.1c-0.5,0.4-1.1,1.6-3,7.1c-1,2.8-1.1,4.3-1.3,5.7c-0.2,1.3-0.3,2.7-1,4.8c-0.5,1.4-0.9,2.6-1.2,3.8
		c-0.9,3.1-1.7,5.6-3.9,8.6c-0.3,0.3-0.6,0.9-1,1.4c-0.5,0.8-1.1,1.8-2,2.9c-0.6,0.8-1.9,3.8-1.8,4.7c0.1,1.5,0.6,2.4,1.1,3.4
		s1.2,2.2,1.3,3.9v0.3c0.2,2.6-0.2,3.9-5.1,8.3c-3.1,2.8-5.4,5.5-6.9,7.5c-0.1,0.2,0,0.4,0.3,0.4c0.1,0,0.1,0,0.1,0
		c0.1,0,0.2,0,0.3,0s0.2,0,0.3,0s0.2,0,0.3,0c1.2,0.1,2.4,0.6,3.2,1.5c0.1,0.2,0.4,0.2,0.6,0.1c0.8-0.3,1.7-0.3,2.5-0.2
		c1,0.1,2.1,0.4,2.8,1.1c0.2,0.2,0.5,0.3,0.8,0.2c0.8-0.2,1.7-0.2,2.5,0.1c0.6,0.2,1.2,0.6,1.6,1.1c0.3,0.3,0.8,0.4,1.2,0.2
		c0.2-0.1,0.5-0.3,0.8-0.4c1.1-0.4,2.3-0.2,3.3,0.2c0.5,0.2,1,0.3,1.5,0.7c0.8,0.6,1.4,1.4,1.7,2.3c0.2,0.5,0.9,0.7,1.3,0.3
		c0.8-0.6,1.4-0.7,2-0.5c0.3,0.1,0.5,0.3,0.7,0.6c0.3,0.4,0.8,0.8,1.2,0.6c1.7-0.5,3.7-0.2,5.2,0.6c0.5,0.3,1.1,0.7,1.4,1.3l0,0l0,0
		v-0.3c0-0.1,0.1-0.2,0.2-0.3l0.3-0.1c0.8-0.3,5-1.5,6.6,0.2c0.1,0.1,0.2,0.1,0.3,0c0.2-0.2,0.4-0.4,0.5-0.4
		c1.1-0.6,2.9-0.7,4.1,0.4c0.2,0.2,0.6,0.1,0.8-0.1c0.1-0.2,0.2-0.3,0.4-0.4c0.4-0.4,1-0.5,1.6-0.5l2.3-0.1c0.6,0,2.4-0.2,2.9-0.3
		h0.1c0.2,0,0.5-0.1,0.8-0.2c1.1-0.2,2.4-0.5,3.4,0s0.9,1.6,0.8,2.6c0,0.4-0.1,0.8-0.1,1.2c0,0.2,0,0.4,0,0.6c0,0.9,0,1.7-0.1,2.3
		l0,0l0,0l0.1,0.5c0,0,0,0,0,0.1c0.1,0.4,0.6,0.7,0.9,0.4c0.8-0.5,1.6-1.1,1.9-1.5v-0.1c0-0.1,0.1-0.3,0.2-0.7
		c0.1-0.9,0.3-2.6,0.3-6.1c0-0.2,0-0.3,0-0.4c0-1.3,0-2.4-0.1-3.3c-0.1-1.9-0.2-3.4,0.8-4.9c0.9-1.5,1.8-2,2.7-2.6
		c1-0.6,2.1-1.3,4-3.9c0.9-1.3,1-1.8,1.1-2.2c0.2-1,0.5-1.6,2-2.6c1.2-0.9,4.7-3.6,9.5-2.8c1.6,0.3,4.1,1.1,6.7,2.1l0,0l0,0
		c0.1,0,0.2,0.1,0.3,0.1h0.1c2.3,0.9,4.4,1.9,5.9,2.7c0.3,0.2,0.7,0.1,1-0.2c0.5-0.6,1-0.9,1.5-1.3c0.2-0.1,0.4-0.2,0.5-0.3
		c0.1,0,0.1-0.1,0.1-0.1c0.4-0.3,0.4-1.1-0.1-1.3C129.9,88.7,123.5,86.7,121.4,86.1z M73.2,87.6C71.6,94.4,61,102,56.2,102h-0.1
		c-0.1,0-0.2,0-0.2,0c-0.1,0-0.2,0-0.3-0.1c-0.1,0-0.1,0-0.2,0c-0.9-0.3-2.1-0.9-3-1.8c-0.6-0.6-1.1-1.4-1.3-2.1
		c0-0.1-0.1-0.3-0.1-0.4c-0.3-1.2-0.6-2.6,0.4-5c0.1-0.3,0.3-0.6,0.4-0.9c0-0.1,0.1-0.2,0.1-0.3c0.1-0.3,0.2-0.5,0.3-0.7
		c0.1-0.4,0.3-0.7,0.4-0.9c0-0.1,0.1-0.2,0.1-0.3c0.3-0.8,0.3-1.1,0.4-1.4c0-0.2,0.1-0.6,0.2-1c0.3-1.3,0.5-2.4,0.6-3.3
		c0.2-1.7,0.5-3.2,1.4-4.6c0.2-0.2,0.3-0.4,0.5-0.6c0.1-0.1,0.1-0.1,0.2-0.2c0.1-0.1,0.1-0.1,0.2-0.2c0.2-0.2,0.5-0.3,0.7-0.4
		c0.1,0,0.2-0.1,0.3-0.1c0.2-0.1,0.4-0.1,0.6-0.2c0.9-0.2,1.9-0.2,3.1-0.1c1.3,0.1,2.5,0.3,3.5,0.6c0.9,0.2,1.7,0.5,2.3,0.8
		c0.1,0,0.1,0.1,0.2,0.1c0.1,0.1,0.2,0.1,0.4,0.2c0.2,0.1,0.3,0.1,0.5,0.2s0.4,0.2,0.6,0.3l0.2,0.1c0.7,0.3,1.4,0.7,1.9,1.1
		c0.3,0.2,0.5,0.4,0.7,0.6c0.1,0.1,0.2,0.1,0.2,0.2c0.1,0.1,0.1,0.1,0.2,0.2C73.7,83.6,73.6,86.1,73.2,87.6z M78.2,61.7L78,62.9
		c-0.5,2.8-1.6,6.6-5.6,7.6c-3.9,0.9-4.8,1.1-7.5,1.3c-0.1,0-0.1,0-0.2,0c-2,0-5.9-1.3-6.6-4.4c-0.4-2,0.5-3.5,1.9-5.9
		c0.2-0.4,0.5-0.8,0.8-1.3c2-3.3,2.7-5.7,3.3-7.6c0.6-1.9,1.1-3.4,2.4-4.7c0.3-0.3,0.6-0.6,1-0.8c0.2-0.2,0.5-0.3,0.8-0.5
		c0.4-0.2,0.8-0.3,1.2-0.5c0.9-0.3,1.9-0.4,2.8-0.4c1.9,0,3.8,0.5,5.1,1.6c0.6,0.5,1.5,1.4,2,4.3C79.6,53.1,79.2,55.8,78.2,61.7z
		 M106.9,69.7c-1.4,2.4-2.1,3.7-3.3,4.7c-2.4,2-5.1,2.4-7.4,2.4c-1.6,0-3-0.3-3.9-0.4c-2.4-0.4-6.7-1.2-8.2-4.7
		c-0.3-0.7-0.3-1.1-0.3-1.7c0-0.5,0-1.5-0.3-3.6v-0.1c-0.1-1-0.2-2.1,0-3.5v-0.2c0.8-4.2,1.1-4.8,1.2-5.2c0.4-0.8,1.4-1.2,2.3-0.7
		c0.8,0.4,1.1,1.4,0.8,2.2c-0.1,0.2-0.3,1.1-1,4.4v0.2c-0.2,0.9-0.1,1.6,0,2.5v0.1c0.3,2.4,0.3,3.4,0.3,4c0,0.1,0,0.2,0,0.3v0.1
		c0.3,0.7,0.9,1.1,1.6,1.5c0.5,0.2,1-0.2,0.9-0.7c-0.7-3.7-0.7-8,0.7-10.7c0.5-0.9,1.3-2.3,2.1-3.7l0,0l0,0c0.1-0.1,0.2-0.3,0.2-0.4
		c0.1-0.1,0.1-0.2,0.2-0.3c0.4-0.6,0.7-1.1,1-1.6c0-0.1,0.1-0.1,0.1-0.2l0.1-0.1c0.1-0.1,0.1-0.2,0.2-0.3c0,0,0-0.1,0.1-0.1l0,0
		l0.1-0.1c0-0.1,0.1-0.1,0.1-0.2l0,0l0,0l0,0c0.3-0.4,0.6-0.8,0.8-1.2c0.4-0.5-0.1-1.1-0.6-0.9c-1.4,0.6-2.3,1.3-2.5,1.4
		c-0.7,0.6-1.8,0.5-2.4-0.3c-0.6-0.7-0.5-1.8,0.3-2.4c0.9-0.7,5.5-4,11-2.5c4,1.1,6,4.2,6.8,5.3c0.6,0.9,2.6,3.7,2.5,7.7
		C110.4,63.6,109.2,65.8,106.9,69.7z"/>
	<path class="st1" d="M71.1,49.2c-0.3,0.7-0.6,1.5-1,2.4c-0.8,2.1-1.8,4.5-2.3,5.4c-0.8,1.5-1.4,2.5-1.9,3.2c-0.6,0.9-1,1.6-1.4,2.6
		c-0.6,1.7-0.7,3.6-0.3,5.7c-1.1-0.1-2.8-0.8-3-1.8c-0.1-0.7,0.3-1.4,1.5-3.5c0.2-0.4,0.5-0.9,0.8-1.3c2.1-3.6,3-6.3,3.6-8.3
		c0.7-2.1,1-3,2.1-3.8C69.9,49.5,70.5,49.3,71.1,49.2z"/>
	<path class="st1" d="M69,124.8c-1.2,2.4-2.6,4.6-3.5,5.7c-0.8-2-2.1-6.7-1.7-10.4c0-0.1,0-0.2,0-0.3c0.1-1.2,0.4-2.2,1-3.1
		c0.4-0.6,1.4-0.9,2.5-0.9c0.8,0,1.7,0.2,2.5,0.6l0,0c0.4,0.2,1,0.7,1,2C71,120.2,70.1,122.6,69,124.8z"/>
	<path class="st1" d="M133,98.1c0.1,0.1,0.1,0.2,0.1,0.3c-0.3,0.7-0.8,1.2-1.3,1.8c-0.6,0.7-1.3,1.5-1.9,2.8
		c-0.9,1.8-1.2,3.4-1.3,7.6c-0.2,4.9,0,7.6,0.2,9.6c0.1,1.9,0.2,3.1-0.1,5c-0.7,3.8-2.3,6.3-4.4,9.5c-2.6,4-5.2,8.1-9.6,9.4
		c-0.4,0.1-0.4,0.1-1.6,0.1c-1,0-2.7,0-5.8,0.1c-5.8,0.2-8.7,0.3-11.1,0.8c-2.6,0.5-3.9,1.1-5.3,1.6c-1.2,0.5-2.3,0.9-4.4,1.4
		c-1.3,0.3-3.2,0.5-9.7,0.6c-6.8,0-10.9,0-16.2-0.6c-7.4-0.8-11.1-1.3-13.6-2.6c-5.8-3.1-8.3-8.7-12.3-17.9l0,0
		c0-0.1,0.1-0.2,0.2-0.2c0.2,0.1,0.4,0.2,0.6,0.3c0.2,0.1,0.4,0.1,0.5,0.1c0.4,0.1,0.8,0.1,1.2,0c0.1,0,0.1,0,0.2-0.1l0,0
		c0.1,0,0.2,0,0.2,0.1c0.3,0.7,0.7,1.3,1.4,1.7s1.5,0.4,2.2,0.4c0.8,0,1.6-0.1,2.4-0.2c0.4,0,0.8,0.2,1,0.5c0.7,1.8,1.6,3,3,3.2
		c0.1,0,0.2,0,0.3,0c0.3,0,0.8-0.1,1.4-0.5c0.5-0.4,1.3-0.1,1.7,0.4c0.3,0.5,0.7,0.8,1.1,1.1c1.4,1.4,4.8,2.1,7.6,2.1
		c1.5,0,2.9-0.2,3.7-0.6c1.2-0.6,1.2-1.4,1.1-1.8c-0.1-0.6-0.2-1.3-0.3-1.9c0-0.1,0.1-0.1,0.1,0c0.2,0.4,0.4,0.8,0.9,0.9
		c0.1,0,0.1,0,0.2,0c0.8,0,2,0.3,2.2,1c0.1,0.4,0.3,0.7,0.5,1.1c0.5,0.7,1.4,1.6,3.3,1.7h0.1c2.2,0,3.9-0.7,5-2.1
		c0.1-0.1,0.1-0.2,0.2-0.3c0.4-0.6,1.6-0.6,2.1-0.1c0.6,0.5,1.3,0.8,2.1,0.8c0.1,0,0.3,0,0.4,0c1-0.1,1.8-0.6,2.5-1.5
		c0.4-0.6,0.7-1.3,0.9-2.1c0.1-0.2,0.4-0.3,0.6-0.1c0.4,0.4,1.1,0.8,2.1,0.8c0.2,0,0.5,0,0.8-0.1c1.9-0.4,2.9-2,3.3-3.7
		c0-0.1,0.1-0.1,0.1,0c0.5,0.6,1.4,1.3,2.9,1.3c0.1,0,0.2,0,0.2,0c0.8,0,1.5-0.4,2-1c0.6-0.8,0.8-2,0.9-3.1c0-0.3,0.2-0.6,0.6-0.8
		c1.6-0.7,3.6-2.2,4.2-3.2c0,0,0-0.1,0.1-0.1c0.1-0.3,0.4-0.5,0.6-0.5c1.3-0.2,1.8-0.5,2.3-0.7c0.4-0.2,0.7-0.3,1.7-0.5
		c7.3-1.1,8.7-1.4,10.3-2.4c2.4-1.6,2.5-3.8,2.6-5.9c0.1-1.8,0.2-3.8,1.6-6.2c0.5-0.9,1.1-1.9,1.7-3.1c1.1-2,2.6-4.8,3.7-6.3
		c0.2-0.3,0.6-0.4,0.9-0.2C130.4,96.7,132.6,97.7,133,98.1z"/>
	<path class="st1" d="M62,119.9c-0.3,2.5-0.5,5.9-0.1,10.3c0.1,1.2,0.3,2.5,0.5,3.8c-0.3,0.2-1.4,0.5-3.2,0.4
		c-2.6-0.1-5.2-0.7-6-1.6l-0.1-0.1c-0.6-0.5-1.1-0.9-1.1-1.8c0-0.3,0.1-0.6,0.4-1.1c0.2-0.2,0.4-0.5,0.6-0.9c0.4-0.6,1-1.3,1.6-2.3
		c1.7-2.8,2.3-3.7,3.1-4.8c0.1-0.1,0.1-0.2,0.2-0.3c0.5-0.6,1-1.4,1.9-2.7c0.6-0.9,1.1-1.7,1.6-2.3c0.7-1,1.2-1.5,1.5-1.8
		c0,0.4-0.1,1-0.2,1.6C62.3,117.5,62.1,118.6,62,119.9z"/>
	<path class="st1" d="M60.7,80.5C60.7,80.6,60.7,80.6,60.7,80.5c-0.4,0.5-0.8,1.1-1.3,2.1c-1.3,2.8-1.3,4.4-1.3,5.7
		c0,0.7,0,1.2-0.2,1.8c-0.1,0.4-0.3,0.9-0.6,1.4c-0.7,1.7-1.7,3.9-1.3,6.9c-0.6-0.3-1.5-1-1.7-1.3c0-0.2-0.1-0.3-0.1-0.5
		c-0.2-0.9-0.3-1.5,0.2-2.9c1.6-3.6,1.8-4.5,1.9-5.5c0-0.2,0.1-0.4,0.1-0.7c0.3-1.4,0.5-2.6,0.6-3.6c0.2-1.5,0.4-2.5,0.9-3.2
		c0.2-0.3,0.7-0.4,1.4-0.4c0.3,0,0.6,0,1,0.1h0.1C60.7,80.5,60.7,80.5,60.7,80.5z"/>
	<path class="st1" d="M58.7,116.2c-0.1-0.9-0.2-1.7-0.6-2.6c0,0-0.1-0.2-0.1-0.3c-0.1-0.1-0.1-0.2-0.2-0.3l0,0l0,0l-0.1-0.1
		c-0.1-0.1-0.1-0.1-0.2-0.1l0,0l-0.1-0.1c-0.1,0-0.1-0.1-0.2-0.1h-0.1l0,0l0,0l0,0l0,0l0,0l0,0c-0.5-0.2-1-0.4-1.6-0.5l0,0l0,0
		c-0.1,0-0.2,0-0.2,0c-0.1,0-0.1,0-0.2,0H55l0,0l0,0l0,0l0,0c-0.1,0-0.2,0.1-0.4,0.1c-0.1,0-0.1,0.1-0.2,0.1l-0.1,0.1l0,0l0,0
		c-0.1,0.1-0.1,0.1-0.2,0.2l-0.1,0.1l0,0l0,0l0,0l0,0v0.1c-0.2,0.3-0.4,0.6-0.6,0.9c-0.5,0.7-1,1.5-1.5,2.2s-0.9,1.3-1.4,2
		c-0.3,0.4-0.5,0.7-0.8,1.1c0,0.1-0.1,0.1-0.1,0.2c0.3,0.1,0.6,0.1,0.9,0.2c0.7,0.1,1.4,0.2,2,0.3c1.4,0.2,2.9,0.3,4.3,0.2
		c0.1,0,0.1,0,0.2,0c0.3-0.5,0.8-1.1,1.3-1.9c0.3-0.4,0.6-0.8,0.8-1.2C58.8,116.7,58.7,116.4,58.7,116.2z"/>
	<path class="st1" d="M53.6,122.1c-0.1,1.1-1.3,3.9-3.2,6.6c-1.6,2.2-2.6,2.8-2.8,2.8c-0.8-0.1-1.5-2-2.1-3.9
		c-0.2-0.8-0.5-1.5-0.6-2.2c-0.4-1.4-0.5-3.4-0.4-4.6c1.6,0.9,4.4,1.1,8.4,1.1l0,0C53.1,122,53.4,122,53.6,122.1z"/>
	<path class="st1" d="M50.8,113.1L50.8,113.1L50.8,113.1c-0.7,1.1-1.4,2.1-2.1,3.1c-0.4,0.5-0.7,1-1.1,1.5c-0.2,0.3-0.5,0.6-0.7,0.9
		c-0.6-0.1-1.1-0.3-1.7-0.4c-0.5-0.1-0.9-0.3-1.4-0.5c-0.1,0-0.2-0.1-0.3-0.1c-0.1-0.1-0.2-0.3-0.3-0.4l0,0c0.2-0.3,0.3-0.7,0.5-1
		c0.3-0.6,0.6-1.2,1-1.8c0.6-1,1.3-2.1,2.4-2.8c0.1,0,0.1-0.1,0.2-0.1c0.4-0.2,0.8-0.4,1.3-0.5c0.1,0,0.4,0,0.6,0h0.1l0,0
		c0,0,0,0,0.1,0s0.2,0.1,0.4,0.1c0,0,0.1,0,0.1,0.1c0.1,0.1,0.2,0.1,0.3,0.2c-0.2-0.1,0.2,0.3,0.2,0.2
		C50.6,112.2,50.7,112.5,50.8,113.1z"/>
	<path class="st1" d="M45.4,110.2c-1.3,1-2.2,2.4-2.9,3.9c-0.4,0.8-0.8,1.6-1.2,2.4c0,0.1-0.1,0.2-0.1,0.2c-0.4-0.1-0.8-0.2-1.1-0.3
		c-0.4-0.1-0.8-0.3-1.2-0.4c-0.2-0.1-0.3-0.2-0.5-0.3c0.4-0.7,0.8-1.4,1.3-2.1c0.6-0.9,1.3-1.9,2-2.7c0.3-0.3,0.6-0.7,0.9-0.9
		c0.4-0.2,0.8-0.2,1.3-0.1c0.5,0,1,0,1.4,0.2C45.2,110.1,45.3,110.2,45.4,110.2z"/>
	<path class="st1" d="M43.4,127.2c-0.1,0.1-0.1,0.1-0.2,0.2h-0.1c-0.3,0-0.6,0.1-0.9,0.1c-0.6,0-1.2,0.1-1.8,0
		c-0.3,0-0.6-0.1-0.8-0.3c-0.2-0.3-0.3-0.9-0.4-1.3c-0.4-2.2-0.4-4.4-0.2-6.6c1.1,0.4,2.3,0.7,3.5,0.9c-0.3,2,0.2,4.9,0.4,5.7
		C43.2,126.3,43.3,126.8,43.4,127.2z"/>
	<path class="st1" d="M39.8,109.5c-1,1.2-1.9,2.5-2.7,3.9c-0.3,0.5-0.7,1.1-1,1.7c-0.4-0.1-0.8-0.3-1.1-0.5s-0.6-0.4-0.8-0.6
		c-0.1-0.1-0.3-0.2-0.4-0.3c0,0-0.1,0-0.1-0.1c0.1-0.3,0.3-0.5,0.3-0.7c0.2-0.5,0.4-0.9,0.7-1.3c0.5-0.8,1-1.6,1.6-2.4
		c0.2-0.3,0.4-0.6,0.8-0.7c0.3-0.1,0.7,0,1,0C38.7,108.6,39.3,109,39.8,109.5z"/>
	<path class="st1" d="M32.1,114.8C32.1,114.7,32.2,114.7,32.1,114.8c0.4,0.4,0.7,0.7,1.1,1c0.2,0.1,0.3,0.3,0.5,0.4c0,0,0,0,0,0.1
		c-0.4,1.7-0.7,3.5-0.7,5.3c0,0.1-0.1,0.1-0.1,0C32.4,119.5,31.8,116.1,32.1,114.8z"/>
	<path class="st1" d="M37,118.5c-0.2,1.5-0.3,3-0.2,4.5c0,0.8,0.1,1.6,0.2,2.5l0,0l0,0c-0.2,0-0.4,0-0.6,0h-0.1l0,0h-0.1
		c-0.2-0.1-0.2-0.1-0.4-0.2s-0.4-0.4-0.6-0.7c-0.4-0.7-0.5-1.5-0.5-2.3c-0.1-1.5,0.1-3.1,0.4-4.6c0.2,0.1,0.5,0.2,0.8,0.3
		C36.3,118.2,36.6,118.4,37,118.5L37,118.5L37,118.5z"/>
</g>
<g>
	<defs>
		<path id="SVGID_00000128454529727717975320000012486895950618847389_" d="M185.6,92.8C185.6,41.5,144,0,92.8,0
			C41.5,0,0,41.5,0,92.8c0,51.2,41.5,92.8,92.8,92.8C144,185.6,185.6,144,185.6,92.8z"/>
	</defs>
	<clipPath id="SVGID_00000112632825680152813190000016325904004000894366_">
		<use xlink:href="#SVGID_00000128454529727717975320000012486895950618847389_"  style="overflow:visible;"/>
	</clipPath>
	
		<g id="Layer_2_00000107572151008996527030000016290061794924690866_" style="clip-path:url(#SVGID_00000112632825680152813190000016325904004000894366_);">
		<g class="st3">
			
				<linearGradient id="SVGID_00000174576723511659957990000012099251455123196824_" gradientUnits="userSpaceOnUse" x1="-12.9962" y1="635.1351" x2="199.6316" y2="858.3003" gradientTransform="matrix(1 0 0 1 0 -656)">
				<stop  offset="0.2057" style="stop-color:#89D0FF"/>
				<stop  offset="0.3984" style="stop-color:#EBBF9A"/>
				<stop  offset="0.6015" style="stop-color:#EB8280"/>
				<stop  offset="0.8411" style="stop-color:#A281FF"/>
			</linearGradient>
			
				<path style="opacity:0.8;fill:none;stroke:url(#SVGID_00000174576723511659957990000012099251455123196824_);stroke-width:1.0554;stroke-miterlimit:10;enable-background:new    ;" d="
				M76.4,196.5c-6.8,0-13.2-0.4-18.6-0.8l-1.5-0.1l-1.5-0.2c-0.7-0.1-1.5-0.2-2.4-0.3c-5.2-0.6-14.9-1.6-25.6-6.6l-1.7-0.8l-1.5-0.9
				C3,175.2-4.6,157.9-8.8,148.6c-0.3-0.6-0.6-1.3-0.9-2c-2.1-4.3-3.4-8.1-4.5-11.7l-0.2-0.8l-0.2-0.8c-3-10.6-3.7-19.7-2.4-28.8
				c1.4-9.1,4.7-17.3,10.6-26l3-4.9c0.6-1,1-2.1,1.3-3.2C0.2,59,5.4,50.9,8,47c0.7-4.7,1.9-9.3,3.5-13.8l0.2-0.7l0.3-0.7
				c0-0.1,0.1-0.3,0.2-0.6C13.4,27.7,16.1,19.6,23,11l2.6-3l2.7-2.4c6.8-6.2,15-10.8,23.8-13.4c4.9-1.5,10-2.4,15.2-2.7h0.5h0.7
				c0.9,0,1.8-0.1,2.6-0.1c3.2,0,6.4,0.3,9.6,0.8c2,0.3,4,0.1,5.9-0.7c5.5-2.3,11.2-3.8,17.1-4.6c0.5-0.1,0.9-0.1,1.3-0.2
				c0.9-0.1,2.4-0.3,4.2-0.5c3.1-0.3,7.9-0.7,13-0.7c10.1,0,18.8,1.3,26.6,4l0.7,0.2l0.6,0.2c17.2,6.5,25.9,15.6,32.2,23.5l0.3,0.4
				l0.9,0.8c5.7,4.4,10.5,9.9,14.3,16l1.2,1.9l1,2c8.4,17.1,5.7,33,4.7,38.9l-0.1,0.3c-0.7,4.4-1.9,8.7-3.4,12.9
				c-0.6,4-1.5,8-2.8,11.8c-2.2,6.8-5.5,13.3-9.7,19.1c-2.4,3.4-5.2,6.7-8.2,9.6c-1.1,1-1.8,2.4-2,3.9c-0.1,0.9-0.3,1.8-0.4,2.7
				c-2.5,13.2-8.2,22.4-10.6,26.1l-7.1,10.2c-8.6,10.7-18.8,17.7-31.1,21.5l-3,0.9l-3.2,0.6c-3.7,0.7-7.4,1-11.2,1c-0.5,0-1,0-1.6,0
				h-0.2h-0.6h-0.7l0,0c-1.4,0-2.8,0.3-4.2,0.7C96.4,195.3,87.4,196.5,76.4,196.5z"/>
			
				<linearGradient id="SVGID_00000078007290311443526780000002645036182949499018_" gradientUnits="userSpaceOnUse" x1="-4.751" y1="644.7373" x2="191.2685" y2="851.3126" gradientTransform="matrix(1 0 0 1 0 -656)">
				<stop  offset="0.2057" style="stop-color:#89D0FF"/>
				<stop  offset="0.3984" style="stop-color:#EBBF9A"/>
				<stop  offset="0.6015" style="stop-color:#EB80DA"/>
				<stop  offset="0.8411" style="stop-color:#A281FF"/>
			</linearGradient>
			
				<path style="opacity:0.8;fill:none;stroke:url(#SVGID_00000078007290311443526780000002645036182949499018_);stroke-width:1.0554;stroke-miterlimit:10;enable-background:new    ;" d="
				M76.4,189.4c-6.5,0-12.8-0.4-18-0.8l-1.2-0.1l-1.2-0.2c-0.8-0.1-1.7-0.2-2.6-0.3c-5.1-0.5-13.5-1.5-22.9-5.9l-1.4-0.7l-1.3-0.7
				c-18.3-10.1-25-25.2-29-34.2c-0.3-0.6-0.6-1.4-1-2.1c-1.9-3.8-3.1-7.4-4.1-10.6l-0.2-0.7l-0.2-0.6C-9.3,123-10,115-8.8,107.1
				c1.2-7.8,4.2-15.1,9.4-22.7l3.9-6.3c0.7-1.1,1.2-2.4,1.4-3.7c1.9-10.8,7-18.4,9.3-21.9l0.3-0.4l0.1-0.2c0-0.1,0.1-0.2,0.1-0.3
				c0.1-0.5,0.3-0.9,0.4-1.3c0.6-4.4,1.7-8.8,3.2-13l0.2-0.6l0.2-0.6c0.1-0.2,0.1-0.4,0.3-1c1.1-3.3,3.4-10.2,9.4-17.6l2.2-2.6
				l2.2-2c5.9-5.4,13-9.4,20.6-11.6C58.8,0,63.2-0.8,67.8-1h0.4h0.6c0.8,0,1.5-0.1,2.2-0.1c3.3,0,6.5-0.9,9.7-0.3
				c2.5,0.5,5,0.2,7.3-0.8c4.3-1.9,10.1-2.6,16.7-3.5c0.5-0.1,0.9-0.1,1.2-0.2c0.9-0.1,2.3-0.3,3.9-0.4c2.9-0.3,7.4-0.6,12.3-0.6
				c9.2,0,17,1.2,23.9,3.5l0.6,0.2l0.5,0.2c15.2,5.8,22.7,13.4,28.6,20.9c0.3,0.4,0.7,0.8,0.8,1l0.1,0.1l1.1,1l0.1,0.2
				c5.1,3.9,9.4,8.7,12.7,14.1l1,1.6l0.8,1.7c7.2,14.7,5,28.2,4,33.9l-0.1,0.3c-0.7,4.2-1.8,8.2-3.3,12.2c-0.5,3.8-1.4,7.6-2.6,11.2
				c-2,6-4.9,11.7-8.6,16.9c-2.5,3.6-5.5,6.9-8.7,9.8c-1.5,1.4-2.5,3.2-2.7,5.3c-0.2,1.5-0.4,2.9-0.6,4.4
				c-2.2,11.7-7.2,19.7-9.6,23.3l-5.8,8.4c-7.7,9.9-16.8,16.3-27.8,19.7l-2.5,0.8l-2.7,0.5c-3.2,0.6-6.5,0.9-9.7,0.8
				c-0.5,0-1,0-1.5,0H110h-0.3c0,0-0.1,0-0.3,0h-0.6h-0.6h-1.1c-1.5,0.1-3,0.3-4.5,0.8C95.3,188.3,86.8,189.4,76.4,189.4z"/>
			
				<linearGradient id="SVGID_00000018943696915612414720000001476804467929569966_" gradientUnits="userSpaceOnUse" x1="3.5765" y1="653.0396" x2="182.9841" y2="843.0211" gradientTransform="matrix(1 0 0 1 0 -656)">
				<stop  offset="0.2057" style="stop-color:#89D0FF"/>
				<stop  offset="0.3984" style="stop-color:#EBBF9A"/>
				<stop  offset="0.6015" style="stop-color:#EB8280"/>
				<stop  offset="0.8411" style="stop-color:#A281FF"/>
			</linearGradient>
			
				<path style="opacity:0.8;fill:none;stroke:url(#SVGID_00000018943696915612414720000001476804467929569966_);stroke-width:0.9894;stroke-miterlimit:10;enable-background:new    ;" d="
				M76.4,181.1c-6.2,0-12.3-0.4-17.4-0.8l-1-0.1l-1-0.1c-0.9-0.1-1.9-0.2-2.9-0.3c-4.8-0.5-12.1-1.3-20.3-5.2l-1.1-0.5l-1-0.6
				c-15.7-8.8-21.5-21.8-25.3-30.4c-0.3-0.7-0.7-1.6-1-2.3c-1.7-3.4-2.8-6.6-3.7-9.6l-0.2-0.5l-0.1-0.5c-2.3-8.2-2.9-15.2-1.9-21.8
				c1-6.7,3.7-13,8.3-19.7l0.6-0.8L9,87.1c0.4-0.5,0.7-1,1.1-1.4l2.3-4.3c0.8-1.4,1.3-2.9,1.5-4.5c1.5-9.6,6.1-16.5,8.2-19.7l0,0
				c0.1-0.2,0.3-0.4,0.4-0.5L23,56c0.2-0.4,0.4-0.9,0.6-1.5s0.5-1.5,0.7-2.3c0.5-4.1,1.5-8.1,2.9-12l0.2-0.5l0.2-0.5
				c0.1-0.4,0.3-0.7,0.5-1.4c1-3.1,2.9-8.8,8-15l1.7-2.1l1.8-1.6c5-4.6,11-7.9,17.5-9.9c3.8-1.1,7.6-1.8,11.6-2H69h0.5
				c0.6,0,1.2,0,1.9,0c3.4,0,6.7,0.4,10,1.3c2.8,0.7,5.8,0.4,8.4-0.9c4.2-2,9.8-4.2,16.3-5c0.4-0.1,0.8-0.1,1.1-0.2
				c0.8-0.1,2.1-0.3,3.7-0.4c2.7-0.3,7-0.6,11.5-0.6c8.2,0,15.1,1,21.2,3.1l0.4,0.2l0.4,0.2c14,5.3,20.2,12.2,25,18.3
				c1.1,1.3,1.2,1.5,1.9,2.2l0.9,0.8l0.3,0.4c2.3,1.8,7,5.5,11.1,12.2l0.8,1.3l0.7,1.3c6.1,12.3,4.2,23.5,3.3,28.9l-0.1,0.3
				c-0.6,3.9-1.7,7.8-3.3,11.5v0.3c-0.4,3.5-1.2,7-2.3,10.3c-1.7,5.3-4.2,10.2-7.5,14.7c-2.7,3.9-6,7.4-9.7,10.4
				c-0.9,0.7-1.6,1.6-2.1,2.6s-0.8,2.1-0.9,3.2c-0.1,2.2-0.4,4.4-0.8,6.6c-1.9,10.1-6.3,17.1-8.5,20.6l-4.5,6.6
				c-6.7,9-14.7,14.8-24.4,17.8l-2,0.6l-2.2,0.4c-2.7,0.5-5.5,0.7-8.3,0.7c-0.4,0-0.9,0-1.4,0h-0.1h-0.5c-0.1,0-0.3,0-0.8,0h-0.5
				h-0.4l-2.3,0.1c-1.6,0.1-3.2,0.3-4.7,0.9C94.2,180.1,86.3,181.1,76.4,181.1z"/>
			
				<linearGradient id="SVGID_00000024689210688303160630000017284372851326692799_" gradientUnits="userSpaceOnUse" x1="11.8926" y1="661.3707" x2="174.6515" y2="834.707" gradientTransform="matrix(1 0 0 1 0 -656)">
				<stop  offset="0.2057" style="stop-color:#89D0FF"/>
				<stop  offset="0.3984" style="stop-color:#EBBF9A"/>
				<stop  offset="0.6015" style="stop-color:#EB80E7"/>
				<stop  offset="0.8411" style="stop-color:#A281FF"/>
			</linearGradient>
			
				<path style="opacity:0.8;fill:none;stroke:url(#SVGID_00000024689210688303160630000017284372851326692799_);stroke-width:0.9235;stroke-miterlimit:10;enable-background:new    ;" d="
				M76.4,172.8c-5.9,0-11.8-0.4-16.7-0.8l-0.7-0.1l-0.7-0.1c-1-0.1-2.1-0.3-3.1-0.4c-4.5-0.5-10.7-1.2-17.7-4.4l-0.8-0.4l-0.8-0.4
				c-13.3-7.5-18.2-18.5-21.8-26.5c-0.4-0.8-0.8-1.7-1.1-2.5c-1.5-3.1-2.5-6-3.3-8.5l-0.1-0.4L9.3,128c-3.9-13.8-2.4-23.5,5.2-34.6
				l0.4-0.6l0.4-0.6c0.5-0.6,1-1.3,1.5-1.9c0.7-0.9,1.4-1.9,2.2-2.8c0.5-0.6,0.9-1.3,1.2-2l0.9-2.2c0.4-1,0.6-2,0.7-3
				c0.8-8.9,5.1-15.3,7.2-18.5l0,0c0.2-0.2,0.4-0.6,0.5-0.7l0.5-0.8l0.2-0.2c0.3-0.5,0.8-1.7,1.2-2.9c0.2-0.8,0.6-2.1,1-3.2v-0.1
				c0.4-3.7,1.3-7.4,2.6-10.9l0.1-0.3l0.1-0.3c0.2-0.6,0.4-1.1,0.6-1.8c0.9-2.7,2.4-7.3,6.5-12.4l1.3-1.6l1.3-1.2
				c9.7-8.8,20.5-9.5,24.1-9.8h0.2h0.4c0.5,0,1,0,1.5,0c4.3,0,8.5,0.9,12.5,2.6c0.7,0.3,1.5,0.4,2.2,0.4c0.8,0,1.5-0.2,2.2-0.6l0,0
				c3.7-2.1,10.4-6,19-7c0.4-0.1,0.8-0.1,1.1-0.1c0.8-0.1,2-0.2,3.4-0.4c2.6-0.2,6.5-0.5,10.7-0.5c7.3,0,13.3,0.9,18.4,2.6l0.3,0.1
				l0.3,0.1c12,4.5,17.1,10.2,21.4,15.6c1.1,1.5,1.7,2.1,2.9,3.3l0.7,0.6l0.5,0.6l0.4,0.3c2,1.6,5.8,4.5,9.2,10l0.6,1l0.5,1
				c4.9,10,3.3,19,2.5,23.8v0.3c-0.6,3.5-1.6,7-3,10.3l-0.1,0.3c0,0.1,0,0.1-0.1,0.3c-0.1,0.3-0.1,0.6-0.1,0.9l-0.1,0.4
				c-0.3,3-1,5.9-2,8.7c-1.5,4.5-3.6,8.7-6.4,12.5c-2.7,3.9-5.8,7.1-9.2,9.6c-1.5,1.1-2.7,2.5-3.6,4.2c-0.9,1.7-1.3,3.5-1.3,5.4
				c0,2.3-0.3,4.7-0.7,7c-1.6,8.6-5.2,14.4-7.5,17.9l-3.3,4.9c-5.8,8.1-12.7,13.3-21,15.9l-0.4,0.1c-0.7,0.2-1.4,0.4-2.1,0.5
				l-0.5,0.1c-2.3,0.4-4.6,0.6-6.9,0.6c-0.4,0-0.8,0-1.2,0h-0.1c-0.2,0-0.4,0-0.6,0s-0.6,0-1.4,0H108h-0.3c-1.1,0-2.5,0.1-3.7,0.1
				c-1.7,0.1-3.3,0.4-4.9,1C93.1,171.8,85.8,172.8,76.4,172.8z"/>
			
				<linearGradient id="SVGID_00000085930422432826479730000016146188682793707422_" gradientUnits="userSpaceOnUse" x1="20.1602" y1="669.7178" x2="166.3016" y2="826.3961" gradientTransform="matrix(1 0 0 1 0 -656)">
				<stop  offset="0.2057" style="stop-color:#89D0FF"/>
				<stop  offset="0.3984" style="stop-color:#EBBF9A"/>
				<stop  offset="0.6015" style="stop-color:#EB80D3"/>
				<stop  offset="0.8411" style="stop-color:#A281FF"/>
			</linearGradient>
			
				<path style="opacity:0.8;fill:none;stroke:url(#SVGID_00000085930422432826479730000016146188682793707422_);stroke-width:0.8575;stroke-miterlimit:10;enable-background:new    ;" d="
				M76.4,164.5c-5.7,0-11.3-0.4-16.1-0.8h-0.5l-0.5-0.1c-1.1-0.2-2.3-0.3-3.4-0.4c-4.2-0.5-9.4-1-15-3.7l-0.6-0.3l-0.5-0.3
				c-10.9-6.1-15-15.3-18.2-22.7c-0.4-0.9-0.8-1.8-1.2-2.8c-1.3-2.6-2.2-5.2-2.9-7.4l-0.1-0.3l-0.1-0.3c-3.2-11.4-2.1-18.6,4.1-27.6
				l0.3-0.4L22,97c0.5-0.7,1-1.3,1.5-2c1.6-2.1,3.2-4.2,5.5-6.7c0.5-0.5,0.8-1.3,0.9-2L30,84l-0.1-0.9v-0.9
				c0.2-7.4,3.9-12.9,5.9-15.9c0.2-0.3,0.5-0.7,0.6-0.9l0.3-0.5l0.3-0.4c0.4-0.6,1.3-2.7,2.1-4.6c0.3-0.8,0.7-2.4,1.2-3.7
				c0.1-0.4,0.1-0.5,0.2-1.4c0.3-3.1,1.1-6.2,2.1-9.1l0.1-0.2l0.1-0.2c0.3-0.8,0.5-1.4,0.8-2.2c0.8-2.4,2-5.9,5.1-9.8l0.9-1.1
				l0.9-0.8c6.8-6.1,14.1-7.3,19.1-7.6h0.2H70c0.4,0,0.7,0,1.1,0c4.2,0,9.3,2,12,3.3c0.6,0.3,1.3,0.5,2,0.5s1.4-0.1,2.1-0.3
				c1.7-0.6,3.3-1.3,4.8-2.1c3.4-2,9-5.2,16-6c0.4-0.1,0.7-0.1,1-0.1c0.7-0.1,1.8-0.2,3.2-0.4c2.4-0.2,6-0.5,9.9-0.5
				c6.3,0,11.5,0.7,15.7,2.2l0.2,0.1l0.2,0.1c10,3.8,14,8.1,17.8,13c1.2,1.6,2.1,2.7,3.9,4.3l0.4,0.4l0.4,0.4c0.4,0.4,0.8,0.7,1.2,1
				c1.7,1.3,4.6,3.6,7.1,7.8l0.4,0.6l0.3,0.7c3.7,7.5,2.5,14.6,1.8,18.8v0.3c-0.5,2.9-1.3,5.7-2.5,8.4l0,0c-0.3,0.7-0.5,1.4-0.7,2.2
				c-0.1,0.5-0.2,1-0.2,1.4l-0.1,0.4c-0.3,2.4-0.8,4.8-1.6,7.1c-1.2,3.7-3,7.2-5.2,10.3c-3.4,4.8-7.3,8.2-12,10.4
				c-1.1,0.5-2.1,1.3-2.8,2.4c-0.7,1-1.1,2.3-1.2,3.5c0,0.5,0,0.9,0,1.2c0.2,3.6,0.5,7.7-0.3,12c-1.3,7-4.3,11.7-6.5,15.2
				c0,0-10.2,14.2-19.5,17.1l-1,0.3l-1.1,0.2c-1.8,0.3-3.6,0.5-5.5,0.5c-0.3,0-0.7,0-1.1,0l0,0c-0.2,0-0.5,0-0.8,0
				c-0.4,0-1,0-1.9,0.1h-0.2h-0.2c-3.6,0.1-6.9,0.2-7.9,0.4c-0.5,0.1-1,0.2-1.5,0.4C92.8,163.5,85.9,164.5,76.4,164.5z"/>
			
				<linearGradient id="SVGID_00000038379881502420268080000011052478818508933564_" gradientUnits="userSpaceOnUse" x1="28.5352" y1="677.9645" x2="158.045" y2="818.0479" gradientTransform="matrix(1 0 0 1 0 -656)">
				<stop  offset="0.2057" style="stop-color:#89D0FF"/>
				<stop  offset="0.3984" style="stop-color:#EBBF9A"/>
				<stop  offset="0.6015" style="stop-color:#A280EB"/>
				<stop  offset="0.8411" style="stop-color:#A281FF"/>
			</linearGradient>
			
				<path style="opacity:0.8;fill:none;stroke:url(#SVGID_00000038379881502420268080000011052478818508933564_);stroke-width:0.8575;stroke-miterlimit:10;enable-background:new    ;" d="
				M76.4,156.3c-5.4,0-10.8-0.4-15.4-0.7h-0.2h-0.2c-1.3-0.2-2.5-0.3-3.6-0.4c-3.9-0.4-8-0.9-12.4-2.9l-0.3-0.1l-0.3-0.1
				c-8.5-4.8-11.7-11.9-14.7-18.8c-0.4-1-0.9-2-1.4-3c-1-2-1.8-4.2-2.4-6.3v-0.1v-0.1c-2.6-9.1-1.9-13.7,2.9-20.7l0.1-0.2l0.1-0.2
				c0.6-0.7,1.1-1.4,1.6-2c2.3-3,4.3-5.6,8.8-9.8l0,0c0.3-0.3,0.6-0.7,0.7-1.2c0.1-0.4,0.1-0.9-0.1-1.3l-0.8-2.3
				c-0.2-0.7-0.3-1.5-0.3-2.2l0,0v-0.6v-0.5c0.2-5,2.8-8.9,4.5-11.5c0.3-0.4,0.5-0.8,0.7-1.1l0.2-0.3l0.2-0.3
				c0.9-1.2,2.4-4.7,3.2-6.8c0.2-0.7,0.7-2.4,1.2-3.7c0.3-1,0.5-2,0.6-3c0.3-2.5,0.8-5,1.7-7.3v-0.1v-0.1c0.4-1,0.7-1.8,0.9-2.6
				c0.7-2.1,1.5-4.5,3.7-7.2l0.4-0.5l0.4-0.4c4.8-4.4,10.1-5.2,14.1-5.5h0.1h0.1c0.2,0,0.5,0,0.7,0c4,0,7,1.6,9,2.7l0.5,0.2h0.1
				c0.6,0.3,1,0.6,1.5,0.8c1.2,0.6,2.7,0.8,4,0.4c2.8-0.7,7.1-2.4,9.9-4h0.1c3-1.8,7.6-4.4,13-5c0.3-0.1,0.7-0.1,1-0.1
				c0.6-0.1,1.7-0.2,2.9-0.3c2.2-0.2,5.6-0.5,9.1-0.5c5.4,0,9.7,0.6,13,1.7h0.1h0.1c8,3,11,6.2,14.2,10.4c1.3,1.7,2.6,3.3,5,5.4
				l0.2,0.2l0.2,0.2c0.6,0.6,1.3,1.2,2.1,1.8c1.4,1.1,3.4,2.6,5.1,5.5l0.2,0.3l0.2,0.3c2.5,5.2,1.7,10.1,1.1,13.8v0.3
				c-0.4,2.3-1,4.5-2,6.7c-0.5,1.2-0.9,2.5-1.1,3.8c-0.1,0.8-0.2,1.4-0.3,1.9l-0.1,0.4c-0.2,1.9-0.6,3.7-1.2,5.5
				c-0.9,2.9-2.3,5.6-4.1,8.1c-3,4.4-6.4,7.1-10.9,8.5c-2.2,0.7-4,2.1-5.2,4l-0.4,0.5l-0.4,0.5c-1.1,1.3-0.8,6.3-0.6,9.3
				c0.2,3.3,0.4,6.7-0.2,9.9c-1,5.5-3.4,9.2-5.5,12.4c0,0-7.8,11.3-14.9,13.4l-0.5,0.2l-0.5,0.1c-1.3,0.2-2.7,0.4-4.1,0.4
				c-0.3,0-0.6,0-1,0c-0.3,0-0.6,0-1,0c-0.5,0-1.2,0-2.4,0.1h-0.1h-0.1c-4.7,0.2-7.6,0.3-9.2,0.6c-1.1,0.2-2.1,0.5-3.1,0.9
				C90.6,155.4,84.8,156.3,76.4,156.3z"/>
		</g>
	</g>
</g>
</svg>
