<?xml version="1.0" encoding="utf-8"?>
<!-- Generator: Adobe Illustrator 24.0.0, SVG Export Plug-In . SVG Version: 6.00 Build 0)  -->
<svg version="1.1" id="Layer_1" xmlns="http://www.w3.org/2000/svg" xmlns:xlink="http://www.w3.org/1999/xlink" x="0px" y="0px"
	 viewBox="0 0 31.8 31.8" style="enable-background:new 0 0 31.8 31.8;" xml:space="preserve">
<style type="text/css">
	.st0{fill:none;stroke:#222326;stroke-width:2.5;}
	.st1{fill:#222326;}
</style>
<circle class="st0" cx="15.9" cy="15.9" r="14.7"/>
<path class="st1" d="M18.7,21.2c-0.1-0.1-0.1-0.3-0.2-0.5c0-0.2-0.1-0.4-0.1-0.6c-0.2,0.2-0.4,0.3-0.6,0.5c-0.2,0.2-0.5,0.3-0.7,0.4
	c-0.3,0.1-0.5,0.2-0.9,0.3c-0.3,0.1-0.7,0.1-1,0.1c-0.6,0-1.1-0.1-1.6-0.3c-0.5-0.2-0.9-0.4-1.3-0.7c-0.4-0.3-0.6-0.7-0.8-1.1
	c-0.2-0.4-0.3-0.9-0.3-1.4c0-1.2,0.5-2.2,1.4-2.8c0.9-0.7,2.3-1,4.1-1h1.7v-0.7c0-0.6-0.2-1-0.5-1.3c-0.4-0.3-0.9-0.5-1.6-0.5
	c-0.6,0-1,0.1-1.3,0.4c-0.3,0.3-0.4,0.6-0.4,1h-3c0-0.5,0.1-1,0.3-1.4c0.2-0.4,0.5-0.8,1-1.2c0.4-0.3,0.9-0.6,1.5-0.8
	c0.6-0.2,1.3-0.3,2.1-0.3c0.7,0,1.3,0.1,1.9,0.3c0.6,0.2,1.1,0.4,1.6,0.8c0.4,0.3,0.8,0.8,1,1.3c0.2,0.5,0.4,1.1,0.4,1.8v5
	c0,0.6,0,1.1,0.1,1.5c0.1,0.4,0.2,0.8,0.3,1v0.2H18.7z M15.8,19.1c0.3,0,0.6,0,0.8-0.1c0.3-0.1,0.5-0.2,0.7-0.3
	c0.2-0.1,0.4-0.2,0.5-0.4c0.1-0.1,0.3-0.3,0.4-0.4v-2h-1.5c-0.5,0-0.9,0-1.2,0.1c-0.3,0.1-0.6,0.2-0.8,0.4c-0.2,0.2-0.4,0.3-0.5,0.6
	c-0.1,0.2-0.1,0.5-0.1,0.7c0,0.4,0.1,0.7,0.4,1C14.8,19,15.3,19.1,15.8,19.1z"/>
</svg>
