<?xml version="1.0" encoding="utf-8"?>
<!-- Generator: Adobe Illustrator 27.7.0, SVG Export Plug-In . SVG Version: 6.00 Build 0)  -->
<svg version="1.1" id="Layer_1" xmlns="http://www.w3.org/2000/svg" xmlns:xlink="http://www.w3.org/1999/xlink" x="0px" y="0px"
	 viewBox="0 0 500 500" style="enable-background:new 0 0 500 500;" xml:space="preserve">
<style type="text/css">
	.st0{fill-rule:evenodd;clip-rule:evenodd;fill:url(#SVGID_1_);}
	.st1{fill-rule:evenodd;clip-rule:evenodd;fill:#FFFFFF;}
	.st2{fill-rule:evenodd;clip-rule:evenodd;fill:#002868;}
	.st3{fill:#FFFFFF;}
</style>
<linearGradient id="SVGID_1_" gradientUnits="userSpaceOnUse" x1="436.3935" y1="406.7209" x2="64.3935" y2="93.7209" gradientTransform="matrix(1 0 0 -1 0 499.8898)">
	<stop  offset="0" style="stop-color:#B6509E"/>
	<stop  offset="1" style="stop-color:#2EBAC6"/>
</linearGradient>
<path class="st0" d="M250,500c138.1,0,250-111.9,250-250S388.1,0,250,0S0,111.9,0,250S111.9,500,250,500z"/>
<path class="st1" d="M250,475c124.3,0,225-100.7,225-225S374.3,25,250,25S25,125.7,25,250S125.7,475,250,475z"/>
<path class="st2" d="M250,450c110.5,0,200-89.5,200-200S360.5,50,250,50S50,139.5,50,250S139.5,450,250,450z"/>
<path class="st1" d="M262.3,118h-24.5c-32,0-50.3,4.6-66.6,13.4c-16.3,8.7-29.1,21.5-37.8,37.8c-8.7,16.3-13.4,34.6-13.4,66.6v24.5
	c0,32,4.6,50.3,13.4,66.6c8.7,16.3,21.5,29.1,37.8,37.8c16.3,8.7,34.6,13.4,66.6,13.4h24.5c32,0,50.3-4.6,66.6-13.4
	c16.3-8.7,29.1-21.5,37.8-37.8c8.7-16.3,13.4-34.6,13.4-66.6v-24.5c0-32-4.6-50.3-13.4-66.6c-8.7-16.3-21.5-29.1-37.8-37.8
	C312.5,122.6,294.3,118,262.3,118z M178.2,144.6c15.1-8.1,31.6-11.6,59.5-11.6h24.5c27.9,0,44.4,3.5,59.5,11.6
	c13.7,7.3,24.3,18,31.6,31.6c8.1,15.1,11.6,31.6,11.6,59.5v24.5c0,27.9-3.5,44.4-11.6,59.5c-7.3,13.7-18,24.3-31.6,31.6
	c-15.1,8.1-31.6,11.6-59.5,11.6h-24.5c-27.9,0-44.4-3.5-59.5-11.6c-13.7-7.3-24.3-18-31.6-31.6c-8.1-15.1-11.6-31.6-11.6-59.5v-24.5
	c0-27.9,3.5-44.4,11.6-59.5C153.9,162.6,164.5,151.9,178.2,144.6z"/>
<path class="st3" d="M307.1,191.8c1.6,0,2.9,1.3,2.9,2.9v25.2c0,1.6-1.3,2.9-2.9,2.9h-39.9v78.4c0,1.6-1.3,2.9-2.9,2.9h-25.2
	c-1.6,0-2.9-1.3-2.9-2.9v-78.4h-43.3c-1.6,0-2.9-1.3-2.9-2.9v-25.2c0-1.6,1.3-2.9,2.9-2.9H307.1z"/>
</svg>
