<?xml version="1.0" encoding="utf-8"?>
<!-- Generator: Adobe Illustrator 27.7.0, SVG Export Plug-In . SVG Version: 6.00 Build 0)  -->
<svg version="1.1" id="Layer_1" xmlns="http://www.w3.org/2000/svg" xmlns:xlink="http://www.w3.org/1999/xlink" x="0px" y="0px"
	 viewBox="0 0 500 500" style="enable-background:new 0 0 500 500;" xml:space="preserve">
<style type="text/css">
	.st0{fill-rule:evenodd;clip-rule:evenodd;fill:url(#SVGID_1_);}
	.st1{fill-rule:evenodd;clip-rule:evenodd;fill:#FFFFFF;}
	.st2{fill-rule:evenodd;clip-rule:evenodd;fill:#22A079;}
</style>
<linearGradient id="SVGID_1_" gradientUnits="userSpaceOnUse" x1="436.3935" y1="406.7209" x2="64.3935" y2="93.7209" gradientTransform="matrix(1 0 0 -1 0 499.8898)">
	<stop  offset="0" style="stop-color:#B6509E"/>
	<stop  offset="1" style="stop-color:#2EBAC6"/>
</linearGradient>
<path class="st0" d="M250,500c138.1,0,250-111.9,250-250S388.1,0,250,0S0,111.9,0,250S111.9,500,250,500z"/>
<path class="st1" d="M250,475c124.3,0,225-100.7,225-225S374.3,25,250,25S25,125.7,25,250S125.7,475,250,475z"/>
<path class="st2" d="M250,450c110.5,0,200-89.5,200-200S360.5,50,250,50S50,139.5,50,250S139.5,450,250,450z"/>
<path class="st1" d="M274.7,193.6v29.8l0,0c55.2,2.5,96.7,13.5,96.7,26.6c0,13.1-41.5,24.1-96.7,26.6v95.3h-49.2v-95.3
	c-55.3-2.6-96.9-13.5-96.9-26.6c0-13.1,41.6-24.1,96.9-26.6v-29.7h-68v-45.3h185.3v45.3H274.7z M274.7,268.5L274.7,268.5
	L274.7,268.5c48.8-2.2,85.2-10.7,85.2-20.8c0-10.1-36.4-18.7-85.1-20.8V260c-1.4,0.1-9,0.8-24.2,0.8c-12.6,0-21.8-0.5-25-0.8v-33.2
	c-48.9,2.2-85.3,10.7-85.3,20.8c0,10.2,36.5,18.7,85.3,20.9v0c3.1,0.2,12.1,0.5,24.8,0.5C266.2,269,273.3,268.6,274.7,268.5z"/>
</svg>
