<?xml version="1.0" encoding="utf-8"?>
<!-- Generator: Adobe Illustrator 27.0.1, SVG Export Plug-In . SVG Version: 6.00 Build 0)  -->
<svg version="1.1" id="azero" xmlns="http://www.w3.org/2000/svg" xmlns:xlink="http://www.w3.org/1999/xlink" x="0px" y="0px"
	 viewBox="0 0 500 500" style="enable-background:new 0 0 500 500;" xml:space="preserve">
<style type="text/css">
	.st0{fill:#1E242C;}
</style>
<path class="st0" d="M497,274.3v-53.5c0-3.4-2.7-6.1-6.1-6.1H381.1L295.4,18.8c-1.5-3.3-4.8-5.5-8.4-5.5h-72.5
	c-3.6,0-6.9,2.1-8.4,5.5l-86.6,195.9H8.1c-3.4,0-6.1,2.7-6.1,6.1v53.5c0,3.4,2.7,6.1,6.1,6.1h82.4L5.3,473c-2,4.5,1.3,9.6,6.3,9.6
	H75c3.3,0,6.3-2,7.6-5l166-396.1l163.7,395.8c1.6,3.8,5.3,6.3,9.5,6.3h67c4.7,0,7.9-4.9,6-9.2l-84.9-194h81.1
	C494.3,280.4,497,277.6,497,274.3z"/>
</svg>
