<?xml version="1.0" encoding="utf-8"?>
<!-- Generator: Adobe Illustrator 26.5.0, SVG Export Plug-In . SVG Version: 6.00 Build 0)  -->
<svg version="1.1" id="babydoge" xmlns="http://www.w3.org/2000/svg" xmlns:xlink="http://www.w3.org/1999/xlink" x="0px" y="0px"
	 viewBox="0 0 500 500" style="enable-background:new 0 0 500 500;" xml:space="preserve">
<style type="text/css">
	.st0{fill:#2F201C;}
	.st1{fill:#EAA548;}
	.st2{fill:#FFFFFF;}
	.st3{fill:#DCDCDC;}
	.st4{fill:#E08532;}
	.st5{fill:#E08432;}
	.st6{fill:#B8572A;}
	.st7{fill:#F4CB71;}
	.st8{fill:#CF722E;}
	.st9{fill:#DF8432;}
	.st10{fill:#F3DF5A;}
	.st11{fill:#A22B2A;}
	.st12{fill:#FCFCFA;}
	.st13{fill:#FFFCFB;}
	.st14{fill:#C03433;}
	.st15{fill:#C43533;}
	.st16{fill:#D9D9D8;}
	.st17{fill:#D9D9D9;}
	.st18{fill:#F9F8F6;}
	.st19{fill:#C3C3C2;}
	.st20{fill:#FFFFFC;}
	.st21{fill:#CBCCCD;}
	.st22{fill:#CCCECE;}
	.st23{fill:#F9F8F8;}
	.st24{fill:#F7F7F7;}
	.st25{fill:#573E39;}
	.st26{fill:#E18981;}
	.st27{fill:#EAAFA7;}
</style>
<path id="Path_1" class="st0" d="M123.3,361.3c-0.1-15.2,5.1-29.9,14.7-41.6c3.1-4.1,2.3-10-1.8-13.1c-0.4-0.3-0.8-0.6-1.3-0.8
	c-29.8-14.8-51-42.8-57-75.5c-4-25-2.2-50.6,5.4-74.8c1.4-5.3,1.7-10.8,0.8-16.2c-9.8-36.8-8.7-75.7,3.1-111.9
	c9.3-26.8,24-33.1,50.2-20.7c14.8,7.1,28.5,16.2,40.9,27c2.7,3.1,7.3,3.7,10.7,1.5C234.4,15.8,286,16.1,331.4,36
	c3.1,1.5,6.8,0.9,9.2-1.5c11.7-10.3,24.7-19.1,38.6-26.2c6.1-3.1,12.6-5.4,19.3-6.9c10.8-2.5,21.8,2.6,27,12.3
	c7.3,13.4,12,28.1,13.9,43.2c4.7,29.3,3.1,59.2-4.6,87.9c-0.5,2.6-0.3,5.3,0.8,7.7c7.4,21.5,10.3,44.4,8.5,67.1
	c-3.1,37.1-25.3,69.8-58.6,86.3c-4.5,2.1-6.4,7.5-4.3,12c0.3,0.7,0.7,1.3,1.2,1.9c12.5,15.9,17.5,36.4,13.9,56.3
	c0,2.3-1.5,3.8,1.5,6.2c15.9,10.4,24.3,29,21.6,47.8c-1.1,12.3-4.5,24.3-10,35.4c-6,13.8-19.7,22.6-34.7,22.4h-12.4
	c-9.3-0.5-18.6,1.3-27,5.4c-12,5.8-25.9,6.6-38.5,2.3c-0.8,0-1.5-0.8-2.3-0.8c-8.5-9.3-19.3-6.9-30.1-6.9h-16.2c-7,0-14,1.8-20,5.4
	c-15.1,8.1-33.5,7.2-47.8-2.3c-3.2-2.2-6.9-3.2-10.7-3.1h-23.9c-14.9,0-28.5-8.7-34.7-22.3c-5-10.1-8.2-21.1-9.3-32.4
	c-0.3-3.7-2.3-7.1-5.4-9.2c-39.8-25.3-51.6-78-26.3-117.8c0,0,0.1-0.1,0.1-0.1c0.8-0.8,1.5-1.5,1.5-2.3c1.3-2.5,4.2-3.7,6.9-3.1
	c3.1,0.8,3.9,3.1,4.6,6.2c2.1,16.2,9.7,31.2,21.6,42.5C110.1,354.3,116.4,358.5,123.3,361.3"/>
<path id="Path_2" class="st1" d="M87.8,223.3c-2.9-21-1.1-42.3,5.4-62.4c11.1-38.3,34.3-71.8,66.3-95.6c4.6-3.9,5.4-6.9,1.6-11.6
	c-5.8-8-12.3-15.4-19.3-22.4c3.1-3.1,5.4-0.8,7.7,0.8c8.8,5.3,17.1,11.5,24.7,18.5c4.2,3.2,9.9,3.7,14.7,1.6
	c33.4-14.7,70.7-18.5,106.4-10.7c12.2,2.7,24,6.6,35.5,11.6c3.5,1.8,7.8,1.1,10.7-1.6c7.7-6.8,15.9-13,24.6-18.5
	c3.1-2.3,6.2-4.6,10-2.3c-6.6,6.6-12.8,13.5-18.5,20.8c-5.4,7.7-5.4,9.3,2.3,14.7c42.2,32.2,68.4,81.1,71.7,134
	c0.9,7.4,0.7,15-0.8,22.4c-5.9,10.1-16.9,16-28.6,15.4c-16.8,1.1-33.4-4.5-46.2-15.4c-12.4-10.2-24.2-21-35.5-32.4
	c-7.2-7-14.9-13.5-23.1-19.3c-23.1-16.7-54.4-16.4-77.1,0.8c-11.2,8.4-21.7,17.7-31.4,27.8c-7.4,7.6-15.1,14.8-23.2,21.6
	c-13.3,11.4-30.3,17.5-47.8,17C106.1,238.2,94.9,232.7,87.8,223.3"/>
<path id="Path_3" class="st2" d="M87.8,223.3c6.6,5.4,14.2,9.3,22.4,11.6c19.8,3.5,40-2.5,54.7-16.2c13.9-11.6,27-24.7,40.1-37
	c10.1-10.3,22.5-17.9,36.2-22.3c22-5.8,45.4-0.3,62.4,14.7c16.2,13.1,30.8,28.5,47,43.2c14.9,15.5,36.7,22.5,57.8,18.5
	c8.2-2.1,15.6-6.3,21.6-12.3c-0.4,4.2-1.2,8.3-2.3,12.3c-4.2,7.2-8.8,14.2-13.9,20.8c-14.2,14.2-31.3,25.2-50,32.4
	c-22.2,7.6-45.2,12.3-68.6,13.9c-35.5,3.6-71.4,1.8-106.4-5.4c-29.3-4.7-56.6-17.8-78.6-37.7c-7.9-7.2-14.4-15.9-19.3-25.4
	C89.5,230.7,88.4,227.1,87.8,223.3"/>
<path id="Path_4" class="st3" d="M90.9,234.9c5.7,5.6,10.9,11.8,15.4,18.5c10.5,11,22.7,20.1,36.2,27c27,12.3,56,19.4,85.6,20.8
	c37.4,3.6,75.2,1,111.8-7.7c27.4-6,52.5-19.7,72.5-39.3c4-4.5,7.6-9.4,10.7-14.6c0.8-1.5,1.5-3.9,4.6-3.9
	c-6.1,24.1-21.7,44.6-43.2,57c-24.4,14-51.4,22.6-79.4,25.4c-42.2,5.8-85.1,3.4-126.4-6.9c-26.5-5.9-50.7-19.6-69.4-39.3
	C100.1,261.4,93.7,248.6,90.9,234.9"/>
<path id="Path_5" class="st1" d="M292.1,471.5c-1-5.8-1.3-11.8-0.8-17.7v-38.6c0-1.5,0.8-1.5,1.5-0.8c1.5,1.5,0.8,3.9,1.5,6.2
	c15.6-13.9,30.3-28.9,43.9-44.7c8.4-9.2,13.8-20.8,15.4-33.2c0-0.8,0.8-2.3,0.8-3.1c3.1-1.5,5.4-2.3,8.5-3.8c3.9,0,3.9,3.8,4.6,6.2
	c2.6,10.3,2.8,21.1,0.8,31.6c-2.9,18.7-8.6,36.9-16.9,54c-4.4,11.4-10.1,22.3-17,32.4c-1.3,2.6-3.2,5-5.4,6.9
	c-0.9,0.6-2,0.9-3.1,0.8c-10.2-1.4-20.6-0.1-30.1,3.9C294.9,472.3,293.4,472.3,292.1,471.5"/>
<path id="Path_6" class="st1" d="M226.6,427.6c0,14.7,0.8,29.3,0,43.9c-1.4,0.8-3.2,0.8-4.6,0c-9.3-3.7-19.4-4.8-29.3-3.1
	c-2,0.9-4.4,0.6-6.2-0.8c-1.1-3.8-2.6-7.4-4.6-10.7c-13.5-23.4-23.6-48.6-30.1-74.8c-3.2-12.3-3.7-25.2-1.5-37.8
	c0.8-3.1,1.5-7,4.6-8.5c3.1,1.6,5.4,2.3,8.5,3.9c1.5,1.4,2.4,3.3,2.3,5.4c1.3,10.2,5.6,19.9,12.3,27.8
	c13.1,15.8,27.3,30.7,42.4,44.7C223.5,420.2,225.7,423.7,226.6,427.6"/>
<path id="Path_7" class="st3" d="M238.9,451.5V416c0-5.4-2.3-8.5-7.7-7.7c-2-1.8-3.4-4.3-3.9-7c-4.9-14.7-12.2-28.5-21.6-40.9
	c-2.2-4-5.7-7-10-8.5c-1.6-0.8-3.1-0.8-3.1-3.9c12.3,1.6,24.7,4.6,37,5.4c4.6,0,3.1,2.3,1.6,5.4c-4.9,11.2-2.1,24.2,6.9,32.4
	c8.8,8.5,21.9,10.9,33.2,6.2c14.3-6.5,21.3-22.9,16.1-37.8c-2.3-6.2,0-6.2,4.6-6.2c9.3-0.8,18.5-2.3,28.6-3.8
	c0.8,2.3-0.8,3.1-1.5,4.6c-12.7,14.4-21.9,31.5-27,50c-0.8,1.5-0.8,3.1-2.3,3.9c-6.9-0.8-8.5,0.8-8.5,7.7c0,11.6,0,23.1-0.8,34.7
	c-11.9,10.2-29.4,10.6-41.6,0.8"/>
<path id="Path_8" class="st2" d="M192.7,349c14.6,5.4,20,18.5,27,30.8c5.5,8.7,9.1,18.4,10.7,28.6c-4.6,2.3-3.9,6.9-3.9,10.7v8.5
	c-17.9-17.3-34.9-35.6-50.9-54.7c-7.9-9.3-12.2-21-12.3-33.2C173.3,342.8,182.6,345.9,192.7,349"/>
<path id="Path_9" class="st2" d="M288.3,409.1c2.4-13.3,7.6-25.9,15.4-37c4.5-7.8,9.9-15.1,16.1-21.6c11.6-3.1,23.9-6.2,34.7-10
	c1.5,8.7-0.7,17.7-6.2,24.7c-10.7,16.2-23.4,31-37.8,43.9c-6.3,5.8-12.2,12-17.7,18.5c-2.3-3.8,0-7.7-1.5-11.6
	C291.5,413.3,290.4,410.7,288.3,409.1"/>
<path id="Path_10" class="st4" d="M328.3,466.1c16.9-26.2,29.2-55.2,36.2-85.6c4.1-14.7,3.6-30.3-1.5-44.7c0.8-0.8,2.3-1.6,3.1-2.3
	c9.3-4.6,9.3-4.6,13.1,4.6c5.5,15.4,6.1,32.1,1.5,47.8c-7.2,28.1-18.8,54.9-34.5,79.3c-1.5,2.3-3.1,3.9-4.6,6.2
	c-5.4,0-10,0-13.1-5.4"/>
<path id="Path_11" class="st4" d="M154.9,335.9c-6.2,22.2-4.6,45.9,4.6,67.1c6.6,20.4,15.9,39.9,27.8,57.8c1.5,1.7,1.4,4.3-0.3,5.8
	c-0.2,0.1-0.3,0.3-0.5,0.4c-1.2,3.9-5.2,6.2-9.2,5.4c-11.4-14-20.3-30-26.2-47c-8.9-18.1-14.3-37.7-16.2-57.8
	c-0.9-10.6,0.9-21.2,5.4-30.8c3.9-7.7,3.9-7.7,10.7-3.1C152.5,334.3,153.3,335.1,154.9,335.9"/>
<path id="Path_12" class="st5" d="M353.8,476.2c15.7-24.7,27.8-51.4,36.2-79.4c1.5-4.6,3.1-3.1,5.4-0.8c8.4,9.5,12.3,22.1,10.7,34.7
	c-0.9,10.2-3.8,20.2-8.5,29.3c-3.9,8.8-12.1,14.9-21.6,16.2c-7.4,0.4-14.9,0.4-22.4,0"/>
<path id="Path_13" class="st5" d="M152.6,476.2c-16.7,2.9-32.5-8.3-35.4-25c0-0.2-0.1-0.3-0.1-0.5c-5.8-12.9-6.6-27.4-2.3-40.8
	c1.6-5.3,4.5-10.1,8.5-13.9c2.3-2.3,3.9-3.8,4.6,0.8c7.8,26.6,19.2,52,34,75.5c1.5,3.1,1.5,3.9-2.3,3.9L152.6,476.2z"/>
<path id="Path_14" class="st6" d="M414.7,109.2c-11-16.9-24.2-32.2-39.3-45.5c-8.5-6.9-8.5-7.7-0.8-16.2c8.5-9.6,18.3-18,29.3-24.7
	c2,1.5,3.3,3.7,3.9,6.2c5.2,14.1,8,28.9,8.5,43.9c1,7.7,1.3,15.4,0.8,23.1C418.5,101.5,418.5,106.1,414.7,109.2"/>
<path id="Path_15" class="st6" d="M114,23.6c13.2,7.7,24.7,17.9,34,30.1c1.5,2.3,2.3,3.9,0,6.2c-17.2,14-32.1,30.6-44,49.3
	c-2.7-1.6-4.2-4.6-3.8-7.7c-0.9-22.9,1.7-45.7,7.7-67.8C108,29.5,110.4,25.7,114,23.6"/>
<path id="Path_16" class="st7" d="M376.1,29.8c-9.9,3.7-18.8,9.5-26.2,17c-6.5,8.6-18.5,10.9-27.7,5.4C296.7,41,268.8,37,241.2,40.6
	c-19.9,1.5-39.3,7-57,16.2c-2.3,1.5-3.9,0.8-6.2-0.8c-10-7.7-19.3-16.1-30.1-23.1c-1.7-1.4-3.9-2.3-6.2-2.3
	c-6.9-5.4-13.1-10.7-20.8-16.2c6.6,0.8,13,3.2,18.5,7c12.4,7.3,24,15.9,34.7,25.5c2.9,3.8,8.2,4.8,12.3,2.3
	c45.6-21.6,98.5-21.6,144.2,0c3.7,2.3,8.5,1.6,11.6-1.5c13.6-13,29.2-23.7,46.3-31.6c2.3-0.8,3.9-1.6,6.2-2.3c0.8,0,0.8,0,2.3,0.8
	C389.2,19.7,383.1,25.1,376.1,29.8"/>
<path id="Path_17" class="st5" d="M70.1,334.3c0.7-4.3,2-8.4,3.9-12.3c4.7,13.1,12.3,25,22.3,34.7c6.8,6.9,14.9,12.4,23.9,16.2
	c6.2,3.1,6.2,6.2,0.8,10c-5.8,4-10.5,9.3-13.9,15.4c-2.7,0.3-5.4-0.9-6.9-3.1c-14.5-11.4-24.6-27.5-28.6-45.5
	C69.6,344.9,69,339.5,70.1,334.3"/>
<path id="Path_18" class="st8" d="M114,23.6c-9.2,24.6-13.1,50.8-11.6,77c0.1,2.9,0.7,5.7,1.5,8.5c-3.1,6.2-6.2,12.3-10,19.3
	c-2.5-5.3-3.6-11.1-3.1-17c-3-25.1-0.9-50.5,6.2-74.8c0.8-3.1,2.3-6.2,3.1-9.2C104,16.7,104,16.7,114,23.6"/>
<path id="Path_19" class="st8" d="M414.7,109.2c2.3-23,0.7-46.2-4.6-68.6c-2.1-5.8-3.9-11.7-5.4-17.7l0.8-0.8
	c8.5-5.4,8.5-5.4,12.4,3.9c7,17.9,10.7,37,10.7,56.3c0.4,13.4-0.4,26.8-2.3,40.1c-0.3,1.9-0.8,3.7-1.5,5.4
	C421.6,121.5,418.5,115.3,414.7,109.2"/>
<path id="Path_20" class="st9" d="M238.9,451.5c12.5,6.9,27.6,6.9,40.1,0c0,6.9,0.8,13.1,0.8,20c0,3.9-0.8,4.6-3.9,4.6h-34
	c-3.1,0-4.6-0.8-3.9-3.8C238.7,465.4,239,458.4,238.9,451.5"/>
<path id="Path_21" class="st3" d="M70.1,334.3c1.3,25.8,14.8,49.5,36.2,64c-1.7,4-3,8.1-3.8,12.3c-0.8,3.1-1.6,3.9-3.9,1.5
	C74,394.6,62.6,363.7,70.1,334.3"/>
<path id="Path_22" class="st10" d="M253.6,388.3c-9.5-3.1-14.7-13.3-11.6-22.8c3.1-9.5,13.3-14.7,22.8-11.6c1.5,0.5,2.9,1.2,4.2,2
	c6.7,9,4.7,21.8-4.3,28.4C261.4,386.7,257.6,388.1,253.6,388.3"/>
<path id="Path_23" class="st11" d="M151,318.9c-0.8-4.6,0.8-5.4,4.6-3.9c24.8,9,50.8,14.2,77.1,15.4c7.7,0,8.5,0.8,7.7,10
	c-0.8,6.9-5.4,3.1-8.5,3.8c-0.8,0-2.3-0.8-3.1-0.8c0.8-1.5,1.6-1.5,3.1-2.3C203.8,339.2,176.3,331.6,151,318.9"/>
<path id="Path_24" class="st11" d="M288.3,342.8c-10,2.3-10.7,1.5-10.7-7.7c0-4.6,2.3-5.4,6.2-5.4c20.1-0.8,40-3.9,59.4-9.3
	c6.8-1.7,13.5-3.8,20.1-6.2c2.3-0.8,4.6-1.5,3.9,2.3c-4.4,4.7-10,8.2-16.2,10c-19.9,7.3-40.7,11.9-61.8,13.9c-0.8,0-2.3-0.8-1.5,0.8
	C287.5,341.8,287.8,342.4,288.3,342.8"/>
<path id="Path_25" class="st12" d="M191.1,466.1c12.1-2.9,24.8-0.9,35.5,5.4c0,6.9-2.3,12.3-9.2,13.9c-6.9,0.8-13.9,0.8-20.8,0
	c0-3.1,3.1-3.1,4.6-3.1c-3-2.6-5.9-5.5-8.5-8.5C191.1,471.5,189.6,469.2,191.1,466.1"/>
<path id="Path_26" class="st13" d="M292.1,471.5c10.4-6.3,22.9-8.3,34.7-5.4c3.1,2.3,0.8,3.9,0,6.2c-3,4.8-6.9,9-11.6,12.3
	c-3.9,3.1-8.5,0.8-13.1,0.8C295.2,483.9,292.1,480.1,292.1,471.5"/>
<path id="Path_27" class="st14" d="M288.3,342.8c-3.1-0.8-8.5,1.5-8.5-1.5c0-3.9,5.4-1.6,7.7-2.3c20.1-2.2,40-6.3,59.4-12.3
	c6.9-2.3,13.1-6.2,20.1-9.2c0.8,3.8-2.3,4.6-5.4,6.2c-19.2,9.3-39.8,15.3-60.9,17.7C296.6,342.1,292.4,342.7,288.3,342.8"/>
<path id="Path_28" class="st15" d="M151,318.9c2.3-1.5,3.9,0,6.2,1.5c21.4,10.5,44.8,16.5,68.6,17.7c3.9,0.1,7.8,0.7,11.6,1.6
	c1.5,0,3.1,0,2.3,2.3c0,1.5-1.5,1.5-3.1,1.5h-6.9c-25.8-1.5-51-8.4-74-20C153.3,322,151,321.2,151,318.9"/>
<path id="Path_29" class="st16" d="M301.4,485.4c13.1,1.5,17.7-9.3,24.7-17v-2.3h2.3c4.4,1.4,8.6,3.5,12.3,6.2
	C331.8,484.8,315.9,490.1,301.4,485.4"/>
<path id="Path_30" class="st17" d="M191.1,466.1c2.3,7.7,9.3,10.7,13.9,17c-2.3,2.3-6.9-0.8-9.2,2.3c-8-1.3-15.1-6.1-19.3-13.1
	c3.1-1.5,6.2-3.9,9.3-5.4C187.5,467.1,189.4,466.8,191.1,466.1"/>
<path id="Path_31" class="st18" d="M253.6,388.3c16.2-6.9,18.5-11.6,14.7-33.2c8.8,5,11.8,16.1,6.9,24.8
	C270.8,387.5,261.8,391,253.6,388.3"/>
<path id="Path_32" class="st19" d="M259.7,341.3c-3.9,0-7.7,2.3-7.7-4.6c0-6.2,3.1-5.4,6.9-5.4s7.7-1.5,7.7,5.4
	S262,340.5,259.7,341.3"/>
<path id="Path_33" class="st17" d="M196.5,485.4c6.9-0.4,13.9-0.4,20.8,0C210.5,487,203.4,487,196.5,485.4"/>
<path id="Path_34" class="st0" d="M143.3,163.9c-0.3-13.6,10.3-24.9,23.9-25.4c13.8-1.2,26,8.6,27.8,22.3c1.8,7.4-2.2,15-9.3,17.7
	c-9.3,4.7-19.9,6.1-30.1,3.8C147.4,180.3,142.1,172.4,143.3,163.9"/>
<path id="Path_35" class="st0" d="M353,183.2c-5.3-0.4-10.4-1.4-15.4-3.1c-9.9-2.3-16.1-12.3-13.8-22.3c0.3-1.4,0.8-2.7,1.4-3.9
	c4.5-11.8,16.9-18.6,29.3-16.2c12.4,2.4,21.3,13.5,20.8,26.2C375.4,177.1,367.7,183.2,353,183.2"/>
<path id="Path_36" class="st20" d="M208.1,111.5c-0.3,8.5-7.4,15.2-15.9,15c-0.9,0-1.7-0.1-2.6-0.3c-0.9,0.1-1.7-0.2-2.3-0.8
	c-11.6-1.5-17.7-6.9-16.9-15.4c2.1-10.5,11.7-17.7,22.3-17C201.8,94.3,208.5,102.3,208.1,111.5"/>
<path id="Path_37" class="st20" d="M310.6,111.5c-0.1-9.2,7-16.9,16.2-17.7c10.6-0.4,19.9,7.2,21.6,17.7c0.3,4.3-1.7,8.4-5.4,10.7
	c-7.6,5-17.1,5.8-25.5,2.3C313.1,121.7,310.5,116.7,310.6,111.5"/>
<path id="Path_38" class="st0" d="M229.7,184c8.4-10.7,22.2-15.5,35.5-12.3c3.2,0,6.4,0.8,9.3,2.3c9.7,1.6,16.2,10.7,14.6,20.4
	c0,0.1,0,0.3-0.1,0.4c-1,8.6-6.2,16.1-13.9,20c-5.4,3.1-5.4,3.1-0.8,8.5c10,5.4,15.4,4.6,22.4-3.9c2.2-3.2,4.3-6.6,6.2-10
	c0.9-2.6,3.8-3.9,6.4-3c0.5,0.2,0.9,0.4,1.3,0.7c2.7,1.2,3.9,4.4,2.6,7.1c-0.1,0.2-0.2,0.4-0.3,0.6c-3.2,8.4-9.2,15.5-17,20.1
	c-2.3,1.3-4,3.6-4.6,6.2c-1.3,10.4-6.2,19.9-13.9,27c-9.7,10.8-26.4,11.8-37.2,2c-0.5-0.4-0.9-0.8-1.3-1.3
	c-7.6-7.4-12.5-17.2-13.9-27.8c-0.5-3.1-2.1-5.9-4.6-7.7c-6.9-4.7-12.3-11.4-15.4-19.3c-1.6-2.5-0.8-5.8,1.7-7.4
	c0.2-0.1,0.4-0.2,0.6-0.3c2.4-1.5,5.6-0.8,7.1,1.6c0.3,0.4,0.5,0.9,0.6,1.4c1.6,3.6,3.7,7,6.2,10c4.8,6.9,14.3,8.7,21.2,3.9
	c1-0.7,1.9-1.5,2.7-2.3c3.1-3.8,0-4.6-2.3-6.9C231.8,208.4,226.3,195.8,229.7,184"/>
<path id="Path_39" class="st21" d="M229.7,184c-1.5,17.7,8.5,26.2,23.1,32.4c-1.8,2.2-4.2,3.8-6.9,4.6c-14.5-5.4-21.9-21.5-16.6-36
	C229.4,184.6,229.5,184.3,229.7,184"/>
<path id="Path_40" class="st22" d="M274.4,222.5c-3.5-1.4-6.6-3.5-9.3-6.2c11.5-2.7,20.8-11.2,24.7-22.4c2.4,4.9,1.4,10.7-2.3,14.7
	c-3.1,4.3-7,8-11.6,10.7C274.4,220.2,272.8,220.2,274.4,222.5"/>
<path id="Path_41" class="st23" d="M172.6,147c4.6,0.8,7.7,2.3,7.7,7.7c0.3,4.4-3,8.2-7.3,8.5c-0.1,0-0.3,0-0.4,0
	c-4.7,0-8.4-3.8-8.5-8.5c-0.1-4.1,3.1-7.6,7.2-7.8C171.8,146.9,172.2,146.9,172.6,147"/>
<path id="Path_42" class="st24" d="M354.5,156.2c-0.3,4-3.7,7-7.7,6.9c-4.7,0-8.5-3.8-8.5-8.5c-0.1-4.4,3.3-8.1,7.7-8.5
	c4.9,0.2,8.7,4.4,8.5,9.3C354.6,155.8,354.6,156,354.5,156.2"/>
<path id="Path_43" class="st25" d="M259,192.5c-4.7,0.3-9.4-0.3-13.9-1.5c-6.2-3.1-6.2-7.7-0.8-11.6c9.4-4,20.1-3.7,29.3,0.8
	c4.6,3.1,4.6,7.7-0.8,10C268.8,192.9,263.7,193.7,259,192.5"/>
<path id="Path_44" class="st26" d="M272.9,254.9c-3.2,7.7-12,11.3-19.7,8.1c-3.7-1.5-6.6-4.4-8.1-8.1c0.6-1.8,2.1-3.2,3.9-3.9
	C257.1,248.2,266.1,249.7,272.9,254.9"/>
<path id="Path_45" class="st27" d="M272.9,254.9c-8.9-3.5-18.8-3.5-27.8,0c-3.1-2.3-3.8-4.6,0.8-5.4c9-3.1,18.8-3.1,27.8,0
	C278.3,251.1,274.4,253.4,272.9,254.9"/>
</svg>
