<svg id="Layer_1" data-name="Layer 1" xmlns="http://www.w3.org/2000/svg" viewBox="0 0 455 470.14"><title>bluzelle-blz-logo</title><path d="M65.45,336.92a40.62,40.62,0,1,1-.15.15l.15-.15" style="fill:#fdba4d"/><path d="M343.54,72.91a40.66,40.66,0,1,1,0,57.5h0A40.62,40.62,0,0,1,343.49,73l.05,0" style="fill:#fdba4d"/><path d="M117.59,305.64l42.9,42.9,39.3-39.3a77.42,77.42,0,0,1-43-43Z" style="fill:#fdba4d"/><path d="M310.5,200.67l39.3-39.3-42.9-42.9-39.3,39.3a77.35,77.35,0,0,1,25.9,17.1,75.64,75.64,0,0,1,17,25.8" style="fill:#fdba4d"/><path d="M342.17,392.39a40.66,40.66,0,1,1,57.5,0h0a40.62,40.62,0,0,1-57.45.05l-.05-.05" style="fill:#5da9dd"/><path d="M69.53,126.79a40.66,40.66,0,1,1,57.5,0h0a40.62,40.62,0,0,1-57.45,0l0,0" style="fill:#5da9dd"/><path d="M303.66,346.83l42.9-42.9-39.3-39.3a77.42,77.42,0,0,1-43,43" style="fill:#5da9dd"/><path d="M203.07,155.54l-39.3-39.3-42.9,42.9,39.3,39.3a77.35,77.35,0,0,1,17.1-25.9,75.64,75.64,0,0,1,25.8-17" style="fill:#5da9dd"/><path d="M274.92,40.7a40.67,40.67,0,1,1,0-.06v.06" style="fill:#18568c"/><path d="M274.92,429.44a40.67,40.67,0,1,1,0-.06Z" style="fill:#18568c"/><path d="M249,102.7H223.4v50.4a74.86,74.86,0,0,1,25.6,0" style="fill:#18568c"/><path d="M249,319.26a74.86,74.86,0,0,1-25.6,0v50.4H249" style="fill:#18568c"/><path d="M414.3,264.63a40.67,40.67,0,1,1,.06,0h-.06" style="fill:#18578c"/><path d="M40.7,271.54a40.7,40.7,0,1,1,40.7-40.71,40.7,40.7,0,0,1-40.7,40.71h0" style="fill:#18578c"/><path d="M310.81,243.64h50.4V218h-50.4a74.86,74.86,0,0,1,0,25.6Z" style="fill:#18578c"/><path d="M154.21,243.64a74.86,74.86,0,0,1,0-25.6h-50.4v25.6" style="fill:#18578c"/><path d="M290.7,233.84a57.7,57.7,0,1,1-57.7-57.7h0A57.72,57.72,0,0,1,290.7,233.84Z" style="fill:#18568b"/></svg>