<?xml version="1.0" encoding="utf-8"?>
<!-- Generator: Adobe Illustrator 27.5.0, SVG Export Plug-In . SVG Version: 6.00 Build 0)  -->
<svg version="1.1" id="Layer_1" xmlns="http://www.w3.org/2000/svg" xmlns:xlink="http://www.w3.org/1999/xlink" x="0px" y="0px"
	 viewBox="0 0 500 500" style="enable-background:new 0 0 500 500;" xml:space="preserve">
<style type="text/css">
	.st0{fill:#3D8757;}
	.st1{fill:#4FC778;}
</style>
<path class="st0" d="M240.3,331.5l-56.5-98.4l38.1-7.3l49.8,52.2L240.3,331.5z"/>
<path class="st0" d="M290.7,243.1l20-34.1l-143.3-69.6L147,174.2L290.7,243.1z"/>
<path class="st1" d="M332.5,174.2l20.4-34.7h-225l20.6,34.7H332.5z"/>
<path class="st1" d="M209.1,278l31.2,53.4l31.5-53.4H209.1z"/>
<path class="st1" d="M292.1,243.1l20-34.1H168.8l20,34.1H292.1z"/>
<path class="st1" d="M61.1,101.4h358.3l-179.2,306L61.1,101.4z M0,37.1l204.6,425.8L500,101.4L0,37.1z"/>
</svg>
