<?xml version="1.0" encoding="utf-8"?>
<!-- Generator: Adobe Illustrator 24.0.0, SVG Export Plug-In . SVG Version: 6.00 Build 0)  -->
<svg version="1.1" id="Layer_1" xmlns="http://www.w3.org/2000/svg" xmlns:xlink="http://www.w3.org/1999/xlink" x="0px" y="0px"
	 viewBox="0 0 43.9 38.1" style="enable-background:new 0 0 43.9 38.1;" xml:space="preserve">
<style type="text/css">
	.st0{fill:#3B3F4C;}
</style>
<g id="Сгруппировать_775" transform="translate(1120.897 -326.692)">
	<path id="Контур_5101" class="st0" d="M-1077.1,344.2c0-1.8-2-2.8-2.7-3.1c-2.4-8.6-10.3-14.5-19.2-14.4
		c-8.9-0.1-16.8,5.8-19.2,14.4c-0.6,0.3-2.7,1.2-2.7,3.1c0,2.2-0.3,4.3,0,5.3c0.4,1.3,1.6,2.2,2.9,2.3c0.8,2.8,2.3,5.4,4.3,7.5
		c3.6,3.7,8.6,5.6,14.6,5.6s11-1.9,14.6-5.6c2-2.1,3.5-4.7,4.3-7.5c1.4-0.1,2.5-1,2.9-2.3C-1076.8,348.5-1077.1,346.4-1077.1,344.2z
		 M-1080.6,345.7c0,10.6-7.4,17.7-18.3,17.7s-18.3-7.1-18.3-17.7c0-9.7,8.2-17.6,18.3-17.6S-1080.6,336-1080.6,345.7L-1080.6,345.7z
		"/>
	<g id="Сгруппировать_774" transform="translate(6.917 8.66)">
		<path id="Контур_5102" class="st0" d="M-1108.7,334.2c0-1.5-1.2-2.7-2.7-2.7c-1.5,0-2.7,1.2-2.7,2.7c0,1.5,1.2,2.7,2.7,2.7
			l0,0C-1109.9,336.9-1108.7,335.7-1108.7,334.2C-1108.7,334.2-1108.7,334.2-1108.7,334.2z"/>
		<path id="Контур_5103" class="st0" d="M-1104.8,341.5c0.3,0,0.6-0.3,0.6-0.6c0,0,0,0,0,0c0-0.3-0.3-0.6-0.6-0.6l0,0
			c-0.3,0-0.6,0.3-0.6,0.6c0,0,0,0,0,0C-1105.4,341.2-1105.2,341.5-1104.8,341.5L-1104.8,341.5z"/>
		<path id="Контур_5104" class="st0" d="M-1110,344.1c0,2.2,1.8,3.9,3.9,3.9c0,0,0.1,0,0.1,0c2.2,0.1,4-1.6,4.1-3.8
			c0,0,0-0.1,0-0.1c-1.3,0.5-2.7,0.8-4.1,0.9C-1107.4,345-1108.7,344.7-1110,344.1z"/>
		<path id="Контур_5105" class="st0" d="M-1107,341.5c0.3,0,0.6-0.3,0.6-0.6c0,0,0,0,0,0c0-0.3-0.3-0.6-0.6-0.6l0,0
			c-0.3,0-0.6,0.3-0.6,0.6c0,0,0,0,0,0C-1107.6,341.2-1107.3,341.5-1107,341.5L-1107,341.5z"/>
		<path id="Контур_5106" class="st0" d="M-1100.1,331.4c-1.5,0-2.7,1.2-2.7,2.7c0,1.5,1.2,2.7,2.7,2.7l0,0
			c1.5,0,2.7-1.2,2.7-2.7c0,0,0,0,0,0C-1097.4,332.7-1098.6,331.5-1100.1,331.4z"/>
		<path id="Контур_5107" class="st0" d="M-1097.7,327.2c-2.7-0.5-5.5-0.7-8.2-0.5c-2.8-0.1-5.6,0-8.4,0.6
			c-6.4,1.7-6.7,6.2-6.7,11c0,4.8,2.1,9.9,7.8,12.2c2,0.8,4.4,0.9,7.4,0.9c3,0,5.4-0.1,7.3-0.9c5.7-2.3,7.5-7.4,7.5-12.2
			C-1090.8,333.4-1091.1,328.9-1097.7,327.2z M-1100.3,340.3c-0.1,0-0.3,0-0.4,0c0.5,1.3,0.7,2.7,0.8,4c0,3.4-2.7,6.1-6.1,6.1
			c0,0,0,0,0,0c-3.4,0-6.1-2.8-6.1-6.1c0,0,0,0,0,0c0.1-1.4,0.3-2.7,0.8-4c-0.1,0-0.1,0-0.2,0c-3.4,0-6.1-2.8-6.1-6.1c0,0,0,0,0,0
			c0-3.4,2.7-6.1,6.1-6.1c0,0,0,0,0,0c2.4,0,4.7,1.5,5.6,3.7c0.9-2.3,3.1-3.7,5.6-3.7c3.4,0,6.1,2.8,6.1,6.1
			C-1094.2,337.5-1096.9,340.3-1100.3,340.3C-1100.3,340.3-1100.3,340.3-1100.3,340.3z"/>
	</g>
</g>
</svg>
