<?xml version="1.0" encoding="utf-8"?>
<!-- Generator: Adobe Illustrator 27.0.1, SVG Export Plug-In . SVG Version: 6.00 Build 0)  -->
<svg version="1.1" id="bnx" xmlns="http://www.w3.org/2000/svg" xmlns:xlink="http://www.w3.org/1999/xlink" x="0px" y="0px"
	 viewBox="0 0 500 500" style="enable-background:new 0 0 500 500;" xml:space="preserve">
<style type="text/css">
	.st0{fill:url(#SVGID_1_);}
	.st1{fill:url(#SVGID_00000057148915871003811590000017286992119045350328_);}
</style>
<linearGradient id="SVGID_1_" gradientUnits="userSpaceOnUse" x1="202.0298" y1="406.9677" x2="319.6555" y2="98.7047" gradientTransform="matrix(1 0 0 -1 0 502)">
	<stop  offset="0" style="stop-color:#F15F40"/>
	<stop  offset="1" style="stop-color:#EF2356"/>
</linearGradient>
<path class="st0" d="M410.5,368.7l-62.5,33.7l-146.2-15.8l12.5-20.8l-20.8-12.5c-10.4-6.2-6.7-60.4-6.7-60.4
	c-69.5-97.9-32.1-160.7-32.1-160.7c-16.2,75.4,90.4,110.3,90.4,110.3c-21.2-47.9,7.9-73.3,7.9-73.3c23.3,56.2,50.4,58.3,50.4,58.3
	l27.1,2.1l35.4-35.8c-29.6-45.8,5.8-81.6,5.8-81.6c17.1,66.6,52.5,66.6,52.5,66.6l52.5,1.7l-162-162c-23.3-23.3-61.2-23.3-84.9,0
	l-189,189c-23.3,23.3-23.3,61.2,0,84.9l189,189c23.3,23.3,61.2,23.3,84.9,0l103.7-103.7L410.5,368.7z"/>
<linearGradient id="SVGID_00000163784949942517223400000008447350020271937176_" gradientUnits="userSpaceOnUse" x1="243.0128" y1="422.6058" x2="360.6385" y2="114.3428" gradientTransform="matrix(1 0 0 -1 0 502)">
	<stop  offset="0" style="stop-color:#F15F40"/>
	<stop  offset="1" style="stop-color:#EF2356"/>
</linearGradient>
<path style="fill:url(#SVGID_00000163784949942517223400000008447350020271937176_);" d="M303.5,284.1c7.9-2.9,18.3-8.7,26.2-19.6
	c1.7-2.5,4.6-0.8,5.4,2.1c2.1,9.2,5.8,26.6-30.8,23.3C301.4,289.6,300.6,285.4,303.5,284.1z"/>
</svg>
