<?xml version="1.0" encoding="utf-8"?>
<!-- Generator: Adobe Illustrator 27.0.1, SVG Export Plug-In . SVG Version: 6.00 Build 0)  -->
<svg version="1.1" id="bond" xmlns="http://www.w3.org/2000/svg" xmlns:xlink="http://www.w3.org/1999/xlink" x="0px" y="0px"
	 viewBox="0 0 500 500" style="enable-background:new 0 0 500 500;" xml:space="preserve">
<style type="text/css">
	.st0{fill:#FEC829;}
	.st1{fill:#FFFFFF;}
</style>
<circle class="st0" cx="250.2" cy="250.2" r="248.4"/>
<path class="st1" d="M269.6,400.6c-17.3,0-33.2-4.9-47.3-14.6c-12.6-8.6-23.3-21-32.3-36.4c-17.1-29.6-24.2-62.5-24.2-101.3
	c0-34.9,10.8-72.9,30.9-101.5c21.5-30.4,50.8-47.7,78.8-47.7c13.7,0,26,3.2,36.6,9.4c8.9,5.2,16.3,12.6,22.1,21.7
	c9.7,15.4,12.3,32.3,12.3,39.9c0,6.1-0.9,15.6-5.2,26.3c-4.7,11.6-12.4,21.9-22.8,30.7c-11.9,10-27.2,17.1-45.8,22.6
	c8.9,3.3,17.8,7.5,25.2,11.9c27.4,16.5,42.7,39.9,42.7,66.3c0,15.8-5.4,32.9-15.9,46.1c-6.3,7.9-13.6,14.5-22.3,19
	C292.8,398.1,281.7,400.6,269.6,400.6z M201.4,269.3c4.6,24.2,11.3,44.5,20.8,61.2c12.9,22.8,28.6,37.1,47.4,37.1
	c12.6,0,21.5-6,28.9-14.5c7-8,8.5-17.8,8.5-24.7c0-10.2-4.6-25.1-26.5-38.2C266.5,281.8,243.2,271.5,201.4,269.3z M275.5,132.2
	c-8.3,0-16.9,2.9-25.5,8.5c-9,5.9-17.6,16.9-24.8,29.3c-11.4,19.6-16.1,33.7-22.8,55.4c32.8-0.6,71.9-4.4,94.8-23.7
	c14.1-11.9,16.2-24.9,16.2-31.6c0-2.3-0.4-13.4-7.2-22.2C299.4,139.1,289.5,132.2,275.5,132.2z"/>
</svg>
