<?xml version="1.0" encoding="utf-8"?>
<!-- Generator: Adobe Illustrator 24.0.0, SVG Export Plug-In . SVG Version: 6.00 Build 0)  -->
<svg version="1.1" id="Layer_1" xmlns="http://www.w3.org/2000/svg" xmlns:xlink="http://www.w3.org/1999/xlink" x="0px" y="0px"
	 viewBox="0 0 758.9 759.2" style="enable-background:new 0 0 758.9 759.2;" xml:space="preserve">
<g transform="translate(0.000000,813.000000) scale(0.100000,-0.100000)">
	<path d="M3550,8126.9c-804-65-1516-339-2115-817c-795-633-1291-1526-1417-2547c-24-203-24-657,0-860c126-1021,622-1914,1417-2547
		c549-438,1209-711,1930-800c203-24,657-24,860,0c555,68,1072,245,1530,522c931,564,1569,1481,1774,2550c48,249,60,398,60,705
		s-12,456-60,705c-205,1069-843,1986-1774,2550c-455,275-978,455-1520,520C4106,8123.9,3662,8135.9,3550,8126.9z M3580,6209.9
		c691-5,823-12,994-47l96-20l315,315l315,315l252-252l253-253l-294-294l-295-294l18-36c78-153,97-395,46-592
		c-53-205-213-413-401-523c-63-37-74-47-58-52c298-108,467-246,579-477c64-131,88-241,88-402c0-226-48-393-179-612l-19-33l255-255
		l255-255l-253-252l-252-253l-313,313l-313,313l-69-11c-112-18-554-29-1140-30h-550l-312-312l-313-313l-253,252l-253,253l313,312
		l313,313v1335v1335l-285,285l-285,285l252,252l253,253l280-279l280-279L3580,6209.9z"/>
	<path d="M3153,5171.9c-3-348-1-422,11-427c7-3,232-2,500,1c535,6,590,11,704,68c156,79,226,208,215,399c-11,185-108,303-295,357
		c-50,14-131,17-595,21l-538,4L3153,5171.9z"/>
	<path d="M3155,3636.9v-496l563,5c619,5,651,8,767,67c173,87,259,268,232,482c-14,118-53,202-126,273c-144,140-301,165-1048,165
		h-388V3636.9z"/>
</g>
</svg>
