<?xml version="1.0" encoding="utf-8"?>
<!-- Generator: Adobe Illustrator 26.0.1, SVG Export Plug-In . SVG Version: 6.00 Build 0)  -->
<svg version="1.1" id="Layer_1" xmlns="http://www.w3.org/2000/svg" xmlns:xlink="http://www.w3.org/1999/xlink" x="0px" y="0px"
	 viewBox="0 0 54.2 54.2" style="enable-background:new 0 0 54.2 54.2;" xml:space="preserve">
<style type="text/css">
	.st0{fill:#FFFFFF;}
	.st1{fill:url(#SVGID_1_);}
	.st2{fill:url(#SVGID_00000176742620248492217850000008941572123143446409_);}
</style>
<path class="st0" d="M27.1,54.2c15,0,27.1-12.1,27.1-27.1C54.2,12.1,42,0,27.1,0C12.1,0,0,12.1,0,27.1C0,42,12.1,54.2,27.1,54.2z"/>
<linearGradient id="SVGID_1_" gradientUnits="userSpaceOnUse" x1="36.7806" y1="39.8012" x2="30.3926" y2="4.6092" gradientTransform="matrix(1 0 0 -1 0 55.8898)">
	<stop  offset="0" style="stop-color:#FF496A"/>
	<stop  offset="1" style="stop-color:#E42648"/>
</linearGradient>
<path class="st1" d="M48,10.2c-1.9,0.4-3.7,0.9-5.1,1.2c-3.4,0.8-6.5,3.3-7.2,8c-0.6,4.2,0.8,6,0.2,10.9
	c-1.1,8.6-9.3,11.5-13.1,13.3c-2.2,1-7.6,3.4-11.7,5.2c4.5,3.3,10,5.3,16.1,5.3c15,0,27.1-12.1,27.1-27.1c0-6.4-2.2-12.2-5.9-16.9
	C48.2,10.2,48.1,10.2,48,10.2z"/>
<linearGradient id="SVGID_00000062914791107164500290000013177463998386082734_" gradientUnits="userSpaceOnUse" x1="15.5519" y1="15.1248" x2="29.6757" y2="55.0107" gradientTransform="matrix(1 0 0 -1 0 55.8898)">
	<stop  offset="1.812290e-03" style="stop-color:#1158F1"/>
	<stop  offset="1" style="stop-color:#119BED"/>
</linearGradient>
<path style="fill:url(#SVGID_00000062914791107164500290000013177463998386082734_);" d="M24,23.1c2.1-4.5,1.3-4.5,2.9-8.8
	c2-5.4,8.2-3.8,9.9-3.6c2.8,0.4,3.6-0.6,9.5-1.6c0.3,0,0.6-0.1,0.9-0.1c-5-5.5-12.2-9-20.2-9C16.3,0,7,6.3,2.6,15.4
	C11.6,17.6,21.2,22.4,24,23.1z M18.1,4.7c0.8,0.1,4.6,4.9,5.3,17.1c0,0-4.9-1.2-6-3.7C16.6,16,17.7,13.2,18.1,4.7z M48.2,10.2
	C48.2,10.2,48.2,10.2,48.2,10.2c0,0-0.1,0-0.2,0C48.1,10.2,48.2,10.2,48.2,10.2z M0,27.1c0-2.2,0.3-4.3,0.7-6.3c1,0.8,2,1.7,3.1,2.8
	c7.1,6.5,18.5,11.7,22.7,6.9c0,0,0,0,0,0c-0.8,1-3.7,4.2-9.2,3.2L8.6,46.8C3.3,41.9,0,34.9,0,27.1z"/>
</svg>
