<svg xmlns="http://www.w3.org/2000/svg" width="2500" height="2500" viewBox="0 0 2000 2000"><g opacity=".8" fill="#040000"><path d="M692.58 308.22l544.22 544.22L775.16 0 389.19 389.42l303.39-81.2zM1307.42 1691.78L763.2 1147.56 1224.84 2000l385.74-389.42-303.16 81.2M308.22 1307.42l348.94-739.74-534.1 534.33L0 1224.84l389.42 385.74-81.2-303.16M1692.01 692.35l-544.45 544.45L2000 775.16l-389.42-385.97 81.43 303.16"/></g><g opacity=".8" fill="#323333"><path d="M1432.09 656.93l-534.1-533.87L775.16 0l461.64 852.44 195.29-195.51zM567.91 1342.84L1224.84 2000 763.2 1147.56l-195.29 195.28M852.44 763.2L657.16 567.68l-348.94 739.74L852.44 763.2M1342.84 1432.09L2000 775.16l-852.44 461.64 195.28 195.29"/></g><g opacity=".8" fill="#555"><path d="M164 163.77L0 775.16l333.99-179.41L164 163.77zM1836.23 1836.23L2000 1224.84l-333.98 179.19 170.21 432.2M164 1836l611.16 164-179.18-334.21L164 1836zM1836.23 163.77L1224.84 0l179.19 333.99 432.2-170.22z"/></g><g opacity=".8" fill="#323333"><path d="M389.19 389.42L775.16 0 164 163.77l169.99 431.98 55.2-206.33zM1610.58 1610.58L1224.84 2000l611.39-163.77-170.21-432.2-55.44 206.55M389.42 1610.58L0 1224.84 164 1836l431.98-170.21-206.56-55.21zM1610.58 389.19L2000 775.16l-163.77-611.39-432.2 170.22 206.55 55.2"/></g><g opacity=".8" fill="#040000"><path d="M333.99 595.75L0 775.16l77.52 77.28 256.47-256.69zM1666.02 1404.03L2000 1224.84l-77.52-77.28-256.46 256.47M775.16 2000l77.28-77.52-256.46-256.69L775.16 2000M1224.84 0l-77.28 77.52 256.47 256.47L1224.84 0z"/></g></svg>