<?xml version="1.0" encoding="utf-8"?>
<!-- Generator: Adobe Illustrator 27.0.1, SVG Export Plug-In . SVG Version: 6.00 Build 0)  -->
<svg version="1.1" id="clout" xmlns="http://www.w3.org/2000/svg" xmlns:xlink="http://www.w3.org/1999/xlink" x="0px" y="0px"
	 viewBox="0 0 500 500" style="enable-background:new 0 0 500 500;" xml:space="preserve">
<path d="M424.6,278.5c-0.4-7-4.5-13.3-10.9-16.3l-81.6-38.8l87-109.9c0.5-0.6,0.9-1.2,1.3-1.9c3-3.7,4.6-8.4,4.3-13.2
	c-0.4-7-4.5-13.3-10.9-16.3l-156-74.3c-5.4-2.6-11.8-2.5-17.1,0.3L87,87.9c-2.7,1.4-4.9,3.3-6.6,5.7c-1.6,1.3-2.9,3-3.8,4.9
	c-2.4,5.2-1.6,11.1,2.1,15.4l0.8,1c1.1,1.8,2.4,3.3,3.9,4.7L171.8,224L87,268c-2.7,1.4-4.9,3.3-6.6,5.7c-1.6,1.3-2.9,3-3.8,4.9
	c-2.4,5.2-1.6,11.1,2.1,15.4l0.8,1c1.1,1.8,2.4,3.3,4,4.7L243,488.2c2.8,3.3,6.8,5.1,11,5.1c0.1,0,0.2,0,0.2,0.1
	c4.4-0.1,8.4-2.1,11.1-5.5l153.8-194.3c0.6-0.7,1.1-1.5,1.5-2.3C423.4,287.7,424.9,283.2,424.6,278.5z M253.8,291.3L134,149.6
	l105.5,62.1c3,1.8,6.3,2.7,9.7,2.7c3.5,0,7-0.9,10.1-2.9L371.2,143L253.8,291.3z M249.5,25.2l156,74.4l-156.3,95.7L95.9,105
	L249.5,25.2z M243,308.2c2.8,3.2,6.8,5.1,11,5.1c0.1,0,0.2,0,0.2,0c4.4-0.1,8.4-2.1,11.1-5.5l54.6-69l85.6,40.8l-156.3,95.7
	L95.9,285l88.6-46L243,308.2z M253.8,471.4L134,329.7l105.5,62.1c3,1.8,6.3,2.7,9.7,2.7c3.5,0,7-1,10-2.9L371.3,323L253.8,471.4z"/>
</svg>
