<?xml version="1.0" encoding="utf-8"?>
<!-- Generator: Adobe Illustrator 26.0.1, SVG Export Plug-In . SVG Version: 6.00 Build 0)  -->
<svg version="1.1" id="Layer_1" xmlns="http://www.w3.org/2000/svg" xmlns:xlink="http://www.w3.org/1999/xlink" x="0px" y="0px"
	 viewBox="0 0 2000 2013.1" style="enable-background:new 0 0 2000 2013.1;" xml:space="preserve">
<g>
	<path style="fill:#3482FA;" d="M999.6,310.7c-381.5,0-692,312.5-692,696.7s310.5,696.7,692,696.7s692-312.5,692-696.7
		S1381.2,310.7,999.6,310.7 M999.6,1606.4c-328.1,0-595-268.7-595-599s266.9-599.1,595-599.1s595,268.8,595,599.1
		S1327.7,1606.4,999.6,1606.4"/>
	<path style="fill:#3482FA;" d="M1316.3,964.1c-7.4-55.1-28.9-107.3-62.5-151.5c0.9-0.7,1.7-1.4,2.5-2.1l79.8-80.3
		c16.9-17,16.9-44.5,0-61.5c-16.7-16.9-43.9-17-60.8-0.3c-0.1,0.1-0.2,0.2-0.3,0.3l-79.7,80.3c-0.8,0.8-1.4,1.7-2.2,2.5
		c-43.8-33.8-95.7-55.5-150.5-62.9c0-1,0.3-2,0.3-3.1V571.9c0-23.9-19.4-43.2-43.2-43.2c-23.9,0-43.2,19.4-43.2,43.2v113.5
		c0,1.1,0.3,2.1,0.4,3.1c-54.8,7.5-106.7,29.2-150.6,62.9c-0.7-0.8-1.3-1.7-2.1-2.5l-79.7-80.3c-16.7-16.9-44-17-60.9-0.3
		c-0.1,0.1-0.2,0.2-0.3,0.3c-16.9,17-16.9,44.5,0,61.5l79.8,80.3c0.9,0.8,1.7,1.4,2.5,2.1c-33.6,44.2-55.2,96.5-62.5,151.5
		c-1-0.1-2.1-0.3-3.1-0.3H567.1c-24,0-43.5,19.5-43.5,43.5c0,24,19.5,43.5,43.5,43.5h112.8c1,0,2-0.2,3.1-0.3
		c7.3,55.1,28.9,107.3,62.5,151.6c-0.8,0.7-1.7,1.3-2.5,2.1l-79.8,80.2c-16.9,17.1-16.9,44.5,0,61.6c16.7,16.9,43.9,17,60.8,0.3
		c0.1-0.1,0.2-0.2,0.3-0.3l79.8-80.3c0.8-0.8,1.4-1.7,2.1-2.5c43.8,33.8,95.8,55.5,150.6,62.9c-0.1,1-0.4,2.1-0.4,3.1v113.6
		c-0.4,23.9,18.7,43.5,42.6,43.9s43.5-18.7,43.9-42.6c0-0.4,0-0.9,0-1.3v-113.6c0-1-0.3-2-0.3-3.1c54.8-7.5,106.7-29.2,150.5-62.9
		c0.8,0.8,1.4,1.8,2.2,2.5l79.7,80.3c16.7,16.9,43.9,17,60.8,0.3c0.1-0.1,0.2-0.2,0.3-0.3c16.9-17.1,16.9-44.5,0-61.6l-79.7-80.2
		c-0.8-0.8-1.6-1.5-2.5-2.1c33.6-44.3,55.1-96.5,62.5-151.6c1,0.1,2.1,0.3,3.2,0.3h112.7c24,0,43.5-19.5,43.5-43.5
		c0-24-19.5-43.5-43.5-43.5h-112.7C1318.4,963.8,1317.3,964,1316.3,964.1z M999.6,1231.7c-122.9,0-222.8-100.7-222.8-224.4
		s100-224.4,222.8-224.4s223,100.7,223,224.4S1122.5,1231.7,999.6,1231.7z"/>
	<path style="fill:#3482FA;" d="M1759.6,0H240.3C107.8,0,0,108.6,0,241.9v1529.2c0,133.4,107.8,242,240.3,242h1519.4
		c132.5,0,240.4-108.5,240.4-242V241.9C2000,108.6,1892.1,0,1759.6,0z M1890.3,1771.1c0,72.6-58.7,131.6-130.7,131.6H240.3
		c-72.1,0-130.6-59-130.6-131.6V241.9c0-72.5,58.5-131.5,130.6-131.5h1519.4c72,0,130.7,59,130.7,131.5V1771.1z"/>
</g>
</svg>
