<?xml version="1.0" encoding="utf-8"?>
<!-- Generator: Adobe Illustrator 27.0.1, SVG Export Plug-In . SVG Version: 6.00 Build 0)  -->
<svg version="1.1" id="cocn" xmlns="http://www.w3.org/2000/svg" xmlns:xlink="http://www.w3.org/1999/xlink" x="0px" y="0px"
	 viewBox="0 0 500 500" style="enable-background:new 0 0 500 500;" xml:space="preserve">
<style type="text/css">
	.st0{fill:#B912F6;}
	.st1{fill:url(#SVGID_1_);}
	.st2{fill:#7E509E;}
	.st3{fill:#AA61C5;}
	.st4{fill:#BA1DF3;}
</style>
<path class="st0" d="M266.2,497.5c-104.9,0-198.9-66.5-233.8-165.4c-6.3-17.9,3.1-37.6,21-43.9c17.9-6.3,37.6,3.1,43.9,21
	c25.2,71.4,93.1,119.5,168.9,119.5c9.9,0,19.8-0.8,29.4-2.4c18.7-3.1,36.5,9.6,39.6,28.4c3.1,18.8-9.6,36.5-28.4,39.6
	C293.4,496.4,279.8,497.5,266.2,497.5z"/>
<linearGradient id="SVGID_1_" gradientUnits="userSpaceOnUse" x1="127.0839" y1="75.2307" x2="465.8319" y2="75.2307">
	<stop  offset="0" style="stop-color:#A655C5"/>
	<stop  offset="1" style="stop-color:#951CC2"/>
</linearGradient>
<path class="st1" d="M431.4,148.8c-10,0-19.8-4.3-26.6-12.6c-34.2-41.7-84.7-65.7-138.6-65.7c-30.8,0-61.1,7.9-87.8,22.9
	c-16.6,9.3-37.5,3.5-46.9-13.1c-9.3-16.6-3.5-37.5,13.1-46.9c36.9-20.8,79-31.8,121.6-31.8c74.6,0,144.5,33.1,191.9,90.9
	c12,14.7,9.9,36.4-4.8,48.4C446.8,146.2,439.1,148.8,431.4,148.8z"/>
<path class="st2" d="M266.2,382.8C192.7,382.8,133,323,133,249.6s59.8-133.2,133.2-133.2c35.8,0,69.3,14,94.5,39.4
	c13.2,13.3,13.1,34.8-0.2,48c-13.3,13.2-34.8,13.1-48-0.2c-12.3-12.4-28.8-19.3-46.3-19.3c-36,0-65.3,29.3-65.3,65.3
	s29.3,65.3,65.3,65.3c17.9,0,34.6-7.1,47.1-20c13-13.5,34.5-13.9,48-0.9c13.5,13,13.9,34.5,0.9,48
	C336.9,368.2,302.7,382.8,266.2,382.8z"/>
<circle class="st3" cx="65.6" cy="174.4" r="35.5"/>
<circle class="st4" cx="427.9" cy="388.7" r="35.5"/>
</svg>
