<?xml version="1.0" encoding="utf-8"?>
<!-- Generator: Adobe Illustrator 27.7.0, SVG Export Plug-In . SVG Version: 6.00 Build 0)  -->
<svg version="1.1" id="layer_1" xmlns="http://www.w3.org/2000/svg" xmlns:xlink="http://www.w3.org/1999/xlink" x="0px" y="0px"
	 viewBox="0 0 500 500" style="enable-background:new 0 0 500 500;" xml:space="preserve">
<style type="text/css">
	.st0{fill:#FD9500;}
</style>
<g>
	<path class="st0" d="M249.6,45.4c5,0,10,1.3,14.6,3.8l152.1,87.9c8.7,5,14.6,14.6,14.6,25v175.8c0,10.4-5.4,20-14.6,25l-152.5,87.9
		c-4.2,2.5-9.2,3.8-14.6,3.8c-5,0-10-1.3-14.6-3.8L82.9,362.9c-8.8-5-14.6-14.6-14.6-25V162.1c0-10.4,5.4-20,14.6-25l152.5-87.9
		C239.6,46.7,244.6,45.4,249.6,45.4 M249.6,0c-12.9,0-25.4,3.3-37.1,10L60.4,97.9c-22.9,13.3-37.1,37.5-37.1,64.2v175.8
		c0,26.7,14.2,50.8,37.1,64.2L212.9,490c11.7,6.7,24.2,10,37.1,10s25.4-3.3,37.1-10l152.5-87.9c22.9-13.3,37.1-37.5,37.1-64.2V162.1
		c0-26.7-14.2-50.8-37.1-64.2L286.7,10C275.4,3.3,262.5,0,249.6,0L249.6,0z"/>
</g>
</svg>
