<svg xmlns="http://www.w3.org/2000/svg" viewBox="0 0 444.01 444"><defs><style>.cls-1{fill:#ff5c00;}</style></defs><title>streamr-datacoin-logo</title><g id="Layer_2" data-name="Layer 2"><g id="Layer_1-2" data-name="Layer 1"><path class="cls-1" d="M277.61,20.52V7.72A7.71,7.71,0,0,0,269.92,0h-.31a166.67,166.67,0,0,0-158.5,159.64c.19,5.41,4.56,6.82,7.13,6.82h13a7.73,7.73,0,0,0,7.7-7.34A138.88,138.88,0,0,1,270.46,27.77c5.42-.69,7.15-3.65,7.15-7.25m-117,146H173a7.7,7.7,0,0,0,7.63-7.18,97.23,97.23,0,0,1,90.43-89.82,7,7,0,0,0,6.53-7.35V49.45a7.74,7.74,0,0,0-7.75-7.72,4.35,4.35,0,0,0-.51,0A125,125,0,0,0,152.87,158.21a7.74,7.74,0,0,0,7.2,8.24l.51,0m117-75.22V104c0,5.2-4.52,7.08-6.72,7.34a55.58,55.58,0,0,0-48.41,48.28,7.78,7.78,0,0,1-7.68,6.87H202.38a7.7,7.7,0,0,1-7.73-7.66,6,6,0,0,1,0-.74,83.36,83.36,0,0,1,74.52-74.53,7.68,7.68,0,0,1,8.36,6.94,6.28,6.28,0,0,1,0,.75Zm145.88,186c-3.6,0-6.56-1.74-7.26-7.15A138.91,138.91,0,0,0,284.85,138.52a7.71,7.71,0,0,1-7.33-7.7v-13c0-2.57,1.41-6.94,6.81-7.13A166.69,166.69,0,0,1,444,269.17a7.71,7.71,0,0,1-7.4,8h-.31Zm-146-117a7.72,7.72,0,0,1,7.74-7.72,4.61,4.61,0,0,1,.52,0A125,125,0,0,1,402.25,269a7.75,7.75,0,0,1-7.19,8.24l-.51,0H381.88a7,7,0,0,1-7.35-6.53,97.23,97.23,0,0,0-89.84-90.42,7.67,7.67,0,0,1-7.17-7.63Zm75.23,117H340c-5.21,0-7.08-4.52-7.35-6.73a55.58,55.58,0,0,0-48.28-48.4,7.75,7.75,0,0,1-6.87-7.67V202a7.69,7.69,0,0,1,7.65-7.73,6.12,6.12,0,0,1,.74,0,83.35,83.35,0,0,1,74.52,74.51,7.68,7.68,0,0,1-6.94,8.35,6,6,0,0,1-.73,0ZM20.53,166.44c3.6,0,6.56,1.73,7.26,7.14A138.9,138.9,0,0,0,159.17,305.12a7.73,7.73,0,0,1,7.33,7.7v13c0,2.58-1.41,6.95-6.81,7.13A166.68,166.68,0,0,1,0,174.48a7.7,7.7,0,0,1,7.39-8h.32Zm146,117a7.73,7.73,0,0,1-7.75,7.71h-.51A125,125,0,0,1,41.77,174.7a7.72,7.72,0,0,1,7.16-8.25H62.14A7,7,0,0,1,69.49,173a97.24,97.24,0,0,0,89.84,90.42,7.67,7.67,0,0,1,7.17,7.63Zm-75.23-117H104c5.21,0,7.08,4.52,7.35,6.72a55.6,55.6,0,0,0,48.28,48.41,7.74,7.74,0,0,1,6.87,7.66v12.43a7.71,7.71,0,0,1-7.66,7.72c-.25,0-.49,0-.73,0a83.37,83.37,0,0,1-74.53-74.52,7.68,7.68,0,0,1,7-8.36c.24,0,.48,0,.73,0Zm75.27,257c0-3.6,1.73-6.56,7.14-7.25A138.91,138.91,0,0,0,305.24,284.87a7.72,7.72,0,0,1,7.7-7.34h13c2.57,0,6.94,1.41,7.13,6.82A166.68,166.68,0,0,1,174.58,444a7.72,7.72,0,0,1-8-7.4V423.44Zm117-146a7.71,7.71,0,0,1,7.71,7.74c0,.17,0,.34,0,.52A125,125,0,0,1,174.8,402.25a7.75,7.75,0,0,1-8.25-7.19c0-.17,0-.34,0-.51V381.88a7,7,0,0,1,6.53-7.35,97.24,97.24,0,0,0,90.43-89.82,7.67,7.67,0,0,1,7.63-7.18Zm-117,75.22V340c0-5.2,4.53-7.08,6.73-7.34a55.61,55.61,0,0,0,48.41-48.28,7.76,7.76,0,0,1,7.67-6.87h12.43a7.69,7.69,0,0,1,7.72,7.65q0,.38,0,.75A83.38,83.38,0,0,1,175,360.42a7.69,7.69,0,0,1-8.36-7,6,6,0,0,1,0-.73Z"/></g></g></svg>