<?xml version="1.0" encoding="utf-8"?>
<!-- Generator: Adobe Illustrator 24.0.0, SVG Export Plug-In . SVG Version: 6.00 Build 0)  -->
<svg version="1.1" id="Layer_1" xmlns="http://www.w3.org/2000/svg" xmlns:xlink="http://www.w3.org/1999/xlink" x="0px" y="0px"
	 viewBox="0 0 472.4 168" style="enable-background:new 0 0 472.4 168;" xml:space="preserve">
<style type="text/css">
	.st0{fill:#2D1680;}
	.st1{opacity:0.9329;fill:#EF88AA;stroke:#EF88AA;stroke-width:3;stroke-dasharray:229.2358,245.7249;enable-background:new    ;}
	.st2{opacity:0.9329;fill:#EF88AA;stroke:#EF88AA;stroke-width:5;stroke-dasharray:220.3232,236.1712;enable-background:new    ;}
</style>
<path class="st0" d="M0,0h72c42,0,76,34,76,76l0,0H0V0z"/>
<path class="st0" d="M163,0h72c42,0,76,34,76,76l0,0H163V0z"/>
<path class="st0" d="M0,168h72c42,0,76-34,76-76l0,0H0V168z"/>
<path class="st0" d="M163,168h72c42,0,76-34,76-76l0,0H163V168z"/>
<path class="st0" d="M305,0h53.3L472,168h-56.3L305,0z"/>
<path class="st1" d="M424.5,66l-44-64.5h89L424.5,66z"/>
<path class="st2" d="M350,103l-43.5,62.5h85L350,103z"/>
</svg>
