<?xml version="1.0" encoding="utf-8"?>
<!-- Generator: Adobe Illustrator 27.0.1, SVG Export Plug-In . SVG Version: 6.00 Build 0)  -->
<svg version="1.1" id="dexe" xmlns="http://www.w3.org/2000/svg" xmlns:xlink="http://www.w3.org/1999/xlink" x="0px" y="0px"
	 viewBox="0 0 500 500" style="enable-background:new 0 0 500 500;" xml:space="preserve">
<style type="text/css">
	.st0{fill:url(#Контур_10388-2_00000126321345211792447190000000228901965513684159_);}
	.st1{fill:#7FFFD4;}
</style>
<radialGradient id="Контур_10388-2_00000082367098864510585010000012286674172061218199_" cx="7.974" cy="490.1948" r="4.874" gradientTransform="matrix(40.0919 22.6243 9.9822 -17.6891 -5052.9072 8861.2285)" gradientUnits="userSpaceOnUse">
	<stop  offset="0" style="stop-color:#979797"/>
	<stop  offset="1" style="stop-color:#777777"/>
</radialGradient>
<path id="Контур_10388-2" style="fill:url(#Контур_10388-2_00000082367098864510585010000012286674172061218199_);" d="
	M117.1,232.6c-7.4,59.6,25.7,116.8,80.9,140.2c22.4,9.3,46.9,12.5,70.9,9.2l91.1,90.5c-68.9,33.8-149.4,34-218.5,0.6
	c-63-30.5-110.3-86.1-130.1-153.3c-13.9-47.3-13.5-97.7,1.2-144.8L117.1,232.6z"/>
<path id="Контур_10389-2" class="st1" d="M123.2,237.3L12.7,176.3c5.4-16.4,12.4-32.2,20.7-47.3
	C65.7,70.6,120.5,27.9,185,10.8c132.2-36.3,268.8,41.4,305.1,173.5c17.5,63.6,8.9,131.6-23.8,188.9c-8.1,14.2-17.6,27.7-28.2,40.3
	L123.2,237.3z M161.9,149.7l220.3,125.2c5.2-27.8,1.4-56.5-10.8-81.9c-31.8-66.9-111.8-95.3-178.7-63.5
	C181.5,134.7,171.1,141.5,161.9,149.7L161.9,149.7z"/>
</svg>
