<?xml version="1.0" encoding="utf-8"?>
<!-- Generator: Adobe Illustrator 27.7.0, SVG Export Plug-In . SVG Version: 6.00 Build 0)  -->
<svg version="1.1" id="Layer_1" xmlns="http://www.w3.org/2000/svg" xmlns:xlink="http://www.w3.org/1999/xlink" x="0px" y="0px"
	 viewBox="0 0 500 500" style="enable-background:new 0 0 500 500;" xml:space="preserve">
<style type="text/css">
	.st0{fill:#FFFFFF;}
	.st1{fill:#FA9C00;}
	.st2{fill:#242A47;}
</style>
<path id="Fill-504" class="st0" d="M250,500c-75.4,0-143-33.4-188.8-86.2C23.1,370,0,312.7,0,250C0,111.9,111.9,0,250,0
	s250,111.9,250,250S388.1,500,250,500z"/>
<path id="Fill-1" class="st1" d="M93.8,377.6V134.1h152.9c57.8,0,104.9,50.6,104.9,112.7s-47,112.7-104.9,112.7h-18.4v-47.9h18.4
	c33.1,0,60.1-29.1,60.1-64.9c0-35.8-27-64.9-60.1-64.9H138.5v195.6H93.8z"/>
<path id="Fill-3" class="st2" d="M160.7,434.9V211h45.3v176.9h53c73.4,0,133.1-62.4,133.1-139.2c0-76.8-59.7-139.2-133.1-139.2H151
	v-47h108c98.4,0,178.4,83.5,178.4,186.2c0,102.7-80.1,186.2-178.4,186.2H160.7z"/>
</svg>
