<?xml version="1.0" encoding="utf-8"?>
<!-- Generator: Adobe Illustrator 27.5.0, SVG Export Plug-In . SVG Version: 6.00 Build 0)  -->
<svg version="1.1" id="Layer_1" xmlns="http://www.w3.org/2000/svg" xmlns:xlink="http://www.w3.org/1999/xlink" x="0px" y="0px"
	 viewBox="0 0 500 500" style="enable-background:new 0 0 500 500;" xml:space="preserve">
<style type="text/css">
	.st0{clip-path:url(#SVGID_00000130606410197368246790000007605560592087548317_);}
	.st1{fill-rule:evenodd;clip-rule:evenodd;fill:#125C0A;}
	.st2{fill-rule:evenodd;clip-rule:evenodd;fill:#479E17;}
</style>
<g id="Logo_Icon" transform="translate(50 49)">
	<g>
		<defs>
			<rect id="SVGID_1_" x="-50" y="7.7" width="500" height="386.7"/>
		</defs>
		<clipPath id="SVGID_00000106120679891500540910000013852532118950949509_">
			<use xlink:href="#SVGID_1_"  style="overflow:visible;"/>
		</clipPath>
		<g id="Group_1" style="clip-path:url(#SVGID_00000106120679891500540910000013852532118950949509_);">
			<path id="Path_1" class="st1" d="M125.1,281.8c-0.2-0.4-0.4-0.7-0.6-1c-0.5-0.8-1.5-1.1-2.4-0.8c-1.2,0.3-1.6,0.6-2-0.3
				c-0.5-1.4-0.8-2.8-1-4.2c-1-4-2.6-7.9-4.7-11.4c-3.8-5.9-7.3-12.1-10.3-18.4c4.1-4.9,6.8-15.4,9.5-21.6
				c-4.5,7.5-7.8,16.8-14.7,22.7c-1.4,4-3,7.9-4.8,11.7c-1,10.4,3.3,16.3,1.9,19.2c0.6,2,2.1,3.6,4,4.5c0.5,0.8,1,1.7,1.6,2.6
				C109.3,283.7,117.1,282.7,125.1,281.8 M216,277.9c-0.6-0.7-1.4-1.3-2.1-1.9c0.7-2.2,1.6-2.8,1.1-4.4c-0.4-1.3-2.8,0.6-3-1.2
				c0-2.4,0.3-4.7,0.9-7c0.9-4.7,1.2-9.4,0.7-14.1c-0.6-4.8-1.9-9.4-2.7-14.8c3.4,1.2,6.9,2.2,10.5,2.9c-4.5-2.6-9.4-4.6-14.5-5.8
				c-4.4-0.5-8.8-0.4-13.2,0.3c-4.7,0.4-9.4,1.4-13.9,2.8c-4.5,1.6-7.9,5.4-12.8,6.2c-0.9,2.8-0.6,3.2-3.4,3.8
				c0.1,0.5,0.3,1,0.4,1.5c-0.8-0.4-1.5-0.9-2.1-1.6c0,0.6,0.1,1.2,0.3,1.7c-1.6-1.8-2.7-3.9-4.2-5.6c-4-4.6-14.4-7.3-22.7-9.7
				c-5.8-1.6-11.7-2.7-17.6-3.5c3.2,1,6.3,2.2,9.2,3.8c-0.9,4.4-2.4,8.6-4.3,12.6c-1,3.2-1.4,6.5-1.1,9.9c0.8,4.1,2.5,8,5.2,11.3
				c1.5,2.6,3.5,6.8,4.8,9.5c1,1.4,2.3,2.5,3.8,3.2c0.8,0.9,1.6,1.9,2.3,2.9C163.6,278.2,189.8,277.3,216,277.9 M237.2,278.7
				c-0.1-0.1-0.2-0.2-0.2-0.3c0.1-1.9,0.1-2.5-0.7-3.3c-0.4-0.3-1.3,0.8-2.1,0.3c0.1-4.5-0.2-9.1-0.9-13.6c-0.7-8.5-5.6-11.7-7.1-20
				c-0.5,4.1-1.7,8-3.5,11.7c-0.6,6.7,1.7,14.6,0.6,16.8c0.6,1.8,2,3.4,2.6,3.1c1.3,2,2.1,3.2,3.3,5
				C231.8,278.5,234.5,278.6,237.2,278.7 M56.9,307.5c30.2,49.1,81.7,81.2,139.1,86.9c-62.2-1.2-119.9-32.6-154.7-84.2
				c-31,5.6-61.5,13.4-91.3,23.5c38.3-22.3,86.9-37.9,139.6-46.9c-0.4-2.6-0.8-3.9-1.8-4.7c-1.8-1.4-4.6,1.9-3.7-2.5
				c1.7-8.2-0.6-20.1-1.2-28.6c-1.1-5.3-0.9-10.8,0.7-16c1.2-2.5,2.3-5.2,3.2-7.8c0.3-4.1-1-8.1-3.6-11.2
				c-5.1-8.8-3.9-17.3-4.1-27.3c-2.2,10.9-3,22-2.4,33.2c5.9,17.3,2.6,29.7-6.7,45.5c4.2-11.6,0.1-17.6,0.8-26.7
				c-1.4,5.2-1.6,10.7-0.6,16c-6.4-18,2.3-25,2.8-38.4c0.6-16.7,0.1-34.9,6.3-49.3c4.8-11.2,16.9-12.7,30.6-13.1
				c25.4-0.8,40.5,2.2,61.1,2.3c8.9-0.6,17.8-1.7,26.5-3.2c22.1-2.3,41-3.4,60.1-9.3c5-1.5,9.1-4.8,14.4-6.9
				c2.8-1.1,5.9-0.8,8.5,0.7c4,1.8,7.8,4.3,11.1,7.3c4.3-1,8.8-1.6,13.3-1.6c0.7,4.7-4.8,7.8-8.2,9.7c0,2.7-0.1,4.3-0.1,7
				c4.1,4.2,5.3,7.6,9.2,9.9c1.2,1.3,1.4,3.1,0.6,4.6c-0.5,4.8,0.2,5.7-4.1,6.5c-2.1,2.5-5.4,3.5-8.5,2.5c-3.6,1.4-6.1,4.8-9.9,5.5
				c-0.8,0.1-1.7,0.4-2.4,0.9c-1.4,0.8-3,1.2-4.6,1.2c-5.1,0.3-11.9,9.2-14.1,15.8c-0.4,6.4-2,12.7-4.8,18.4c-3.3,5.6-7.2,6-14,14.1
				c0.8-6.2,1.1-12.4,1-18.7c-2,8.8-3,17.7-3,26.7c-0.1,1.3-0.4,2.6-0.9,3.7c-0.4,2.4,0,4.8,0.9,7c1.3,3,2.2,6.2,2.8,9.4
				c0.6,1.9,1.9,3.5,3.7,4.5l3.7,5.7c28.9,2.1,57.5,6.3,85.8,12.4c-2.9,4.5-6.1,8.9-9.4,13.1C238.3,292.6,146.8,293.3,56.9,307.5
				 M295.5,33.4c28.2,16.4,51.8,39.7,68.4,67.7c-58.5-83-173.3-102.9-256.3-44.3c-22.1,15.6-40.5,35.8-53.9,59.3
				c-30.3,53-32.9,117.4-6.9,172.7c-5.4,1.3-10.7,2.6-15.9,4C0,233.7,1.5,162.9,34.9,105.1c51-91.4,166.5-124.2,257.9-73.2
				C293.7,32.4,294.6,32.9,295.5,33.4 M450,333.7c-27.5-9.3-55.7-16.7-84.2-22.2c2.2-3.3,4.3-6.7,6.3-10.2l0.2-0.3
				C399.3,308.8,425.5,319.8,450,333.7"/>
			<path id="Path_2" class="st2" d="M347.3,93.7c48.6,57.3,56.1,138.9,18.7,204.1c-47.9,84.2-155,113.6-239.1,65.6
				c-22.3-12.7-41.6-30.2-56.5-51.2c59.9,72.2,167,82.1,239.2,22.2c15.7-13.1,29-28.9,39.1-46.7c26.7-46.6,30.2-102.9,9.5-152.4
				c-17.6-42.3-52.4-66.2-94-67.9c43.3,11.1,66.8,31.4,81.3,66.5c-80,16.8-77.6-70.2-137.9-83.9C265.2,30.5,317.9,59.1,347.3,93.7"
				/>
		</g>
	</g>
</g>
</svg>
