<?xml version="1.0" encoding="utf-8"?>
<!-- Generator: Adobe Illustrator 24.0.0, SVG Export Plug-In . SVG Version: 6.00 Build 0)  -->
<svg version="1.1" id="Layer_1" xmlns="http://www.w3.org/2000/svg" xmlns:xlink="http://www.w3.org/1999/xlink" x="0px" y="0px"
	 viewBox="0 0 1996.7 1995.7" style="enable-background:new 0 0 1996.7 1995.7;" xml:space="preserve">
<style type="text/css">
	.st0{fill:url(#SVGID_1_);}
</style>
<linearGradient id="SVGID_1_" gradientUnits="userSpaceOnUse" x1="-0.2753" y1="1498.4747" x2="0.7247" y2="1498.4747" gradientTransform="matrix(1996.7329 0 0 -1995.7379 549.6835 2991560.75)">
	<stop  offset="0" style="stop-color:#EB5E57"/>
	<stop  offset="1" style="stop-color:#EA5290"/>
</linearGradient>
<path class="st0" d="M1009.4,852.1h-4c-5,0-8-1-11.5,0h-3.5c-41.2,1.8-79.9,19.8-107.8,50.1v1c-14.4,14.9-25.3,32.8-31.9,52.4
	c-6.3,16.9-9.6,34.8-10,52.9c0.4,71.9,49.2,134.4,118.8,152.2l7.5,1.5c10.5,2.5,21.2,3.6,31.9,3.5c10,0,20-1,29.9-3
	c13.3-2.9,26.2-7.4,38.4-13.5l5-3c1.5,0,2.5-1,4-2l3.3-2l3-2.5h1.5l4-3.3c54.7-37.5,79.6-105.5,62.2-169.5
	c-17.4-64-73.4-109.9-139.6-114.5L1009.4,852.1L1009.4,852.1z M1579.8,1344.8c-89.8,156.7-231.5,270-405.7,316.9
	c-4.4,1.1-8.9,1.8-13.5,2c-26.2-0.1-48.3-19.4-51.8-45.3s12.6-50.5,37.8-57.5l3-0.9c26.1-8.9,40.9-36.4,34-63
	c-5-22.5-26-37.9-49.8-37.9c-3.3-0.1-6.7,0.2-10,1l-3.5,1c-4.3,1-8.6,1.5-13,1.5c-23.8,0.5-44.9-15.4-50.9-38.4
	c-3.4-13.4-1.6-27.6,5-39.8c7.4-12,19-20.9,32.5-25c66.6-17.5,126.7-53.9,173-104.9c44.9-49.3,75.9-109.6,89.9-174.7v-7
	c4-27-14.1-52.4-40.9-57.4l-10-1c-22.5,0.3-42.3,15-48.9,36.5l-1.5,5v3l-1,1.5c0.2,2.3-0.1,4.5-1,6.6c0,1.1-0.4,2.1-1,3v1.4
	c0,0.6-0.4,1.2-1,1.5v3l-1,1c-31.7,113-134.7,191.1-252.1,191.2c-23.1,0-46-2.9-68.4-8.5l-8.5-2h-5c-23.3-0.1-43.7,15.5-49.9,37.9
	c-6.5,26.2,8,53,33.4,61.9c1.3,0.5,2.6,0.8,4,1c25.6,6.7,42.3,31.4,38.8,57.6c-3.4,26.3-25.9,45.8-52.3,45.7
	c-4.5,0.3-9.1-0.2-13.5-1.5c-100.1-26.5-188.5-85.7-251.1-168.2c-60.9-80.6-94.6-178.5-96.2-279.5v-4.5c-1-28.2-24.4-50.4-52.6-49.8
	c-28.2,0.5-50.8,23.6-50.7,51.8c1.3,257.1,175.4,483.1,424,549c13.3,4,24.6,12.9,31.4,25c7.1,12,8.9,26.4,5,39.8
	c-5.8,22.8-26.4,38.8-49.9,38.9c-4.8,0.4-9.5-0.3-14-2c-173.7-45.8-321.7-159.4-410.8-315.3c-89.9-156.7-114.8-339.4-67.9-513.2
	c5.6-22.9,26.1-39.1,49.8-38.9c4.7-0.3,9.5,0.2,14,1.5c27.8,7.5,44.5,35.9,37.4,63.9l-1,3.5c-5.2,26.8,11.2,53,37.6,60
	c4.4,1.4,8.9,2.1,13.5,2c22.3,0.3,42.1-14,48.9-35.2l1-4c6.3-22.3,26.7-37.8,49.9-37.9c5-0.2,10.1,0.3,15,1.5
	c27.8,8,44.1,36.9,36.5,64.9c-18.1,66.4-16.4,136.7,5,202.2c19.6,63.8,56.6,120.8,106.8,164.7v1l3,2l1,1c9,7.1,20.1,10.9,31.5,11
	c15.2-0.1,29.7-6.6,39.8-18c16-18.9,16.4-46.5,1-65.9l-1.5-1.5l-1.5-1.5c-57.3-46.7-92.1-115.5-95.9-189.3s23.8-145.8,76-198.1l8-8
	c12.9-20.7,10-47.4-7-64.9c-9.8-9.7-23.1-15.1-36.9-14.9c-12.3,0.1-24.1,4.5-33.5,12.5h-1.5c0,1-1.5,1.5-2,2
	c-14.9,14.9-37.4,19.4-56.9,11.3c-19.5-8.1-32.2-27.2-32.2-48.3c-0.3-14,5.1-27.5,14.8-37.5c148.7-148,377.5-179.4,560.5-76.8l2,1.5
	h1l1.5,1c7.2,4.5,15.5,6.8,24,6.6c18.6-0.2,35.7-10.3,44.9-26.5c6.7-11.9,8.4-26,4.6-39.1c-3.7-13.1-12.6-24.2-24.5-30.8
	c-84.8-49.8-183.2-74.9-282.5-74.9c-153.8,0-297,58.9-404.3,166.7c-10.2,9.8-23.8,15.2-37.9,15c-13.8,0.2-27.1-5.2-36.9-15
	c-9.8-10-15.2-23.5-15-37.4c-0.2-13.8,5.2-27.1,15-36.9c264.5-263.8,692.7-263.6,956.9,0.5c9.8,10,15.2,23.5,15,37.4
	c0.3,13.8-5.1,27.2-15,36.9c-20.6,20-53.3,20-73.9,0l-3-2.5c-9.7-8.5-22.1-13.1-35-13c-13.5,0-26.4,5.4-35.9,15
	c-19.9,19-19.9,49.9-1.5,70.9l1.5,2c20,20.6,20,53.3,0,73.9c-10,9.8-23.5,15.3-37.5,15.1c-13.8,0.2-27.2-5.2-36.9-15
	c-98.1-98.2-243.7-131.7-374.8-86.2h-1.5l-2,1l-2,1c-25.3,10.5-38.1,38.8-29.2,64.6c7.7,20.3,27.2,33.8,48.9,33.9h8.5l1-1h1.5
	c29.3-11.3,60.5-17.1,91.9-16.9c57.2,0.1,112.8,19,158.2,53.9c44.7,34.4,77.2,82.1,92.9,136.3l1,2v2.5l2,5
	c7.3,19.9,26.2,33.2,47.4,33.4c4.6,0.4,9.2-0.3,13.5-2c26.3-7.1,42.6-33.2,37.6-60l-1-3c-7.4-28.1,9-56.9,36.9-64.9l13.5-1.5
	c23.4,0,44.9,15,49.9,38.4c27.5,100.8,19.9,204.6-19.9,301.5c-38.6,93-106,171.3-192.4,223.2l-2.5,1.5h-0.8c0,1-1,1-1,1.5h-1
	c-19.2,12.6-27.8,36.3-21.1,58.3s27.1,36.9,50.1,36.6c8.8,0.2,17.5-2.3,24.9-7c222.2-129.8,331-394.3,264.6-641.9
	c-3.9-13.4-2.1-27.8,5-39.8c7.1-12.1,18.5-21,32-25c5,0,9-1.5,13.5-1.5c23.8,0.3,44.3,16.7,49.8,39.8
	C1694.3,1004.8,1670,1189.7,1579.8,1344.8L1579.8,1344.8L1579.8,1344.8z M291.9,291.9c-389.2,389.5-389.2,1022,0,1411.8
	c390.3,389.4,1022.3,389.4,1412.7,0c389.5-389.4,389.5-1021.8,0.3-1411.8C1314.4-97.3,682.4-97.3,291.9,291.9L291.9,291.9z"/>
</svg>
