<svg xmlns="http://www.w3.org/2000/svg" viewBox="0 0 94.02968 78.2314"><title>logo-mark</title><polygon points="47.015 40.797 70.522 27.225 47.015 13.572 47.015 40.797" style="fill:#2a3d58"/><polygon points="47.015 40.797 23.507 27.225 47.015 13.572 47.015 40.797" style="fill:#0f2631"/><polygon points="70.522 0 47.015 13.572 70.522 27.225 70.522 0" style="fill:#0f2631"/><polygon points="70.522 0 94.03 13.572 70.522 27.225 70.522 0" style="fill:#2a3d58"/><polygon points="23.507 0 0 13.572 23.507 27.225 23.507 0" style="fill:#0f2631"/><polygon points="23.507 0 47.015 13.572 23.507 27.225 23.507 0" style="fill:#2a3d58"/><polygon points="47.015 78.231 70.522 64.659 47.015 51.007 47.015 78.231" style="fill:#2a3d58"/><polygon points="47.015 78.231 23.507 64.659 47.015 51.007 47.015 78.231" style="fill:#0f2631"/><polygon points="70.522 37.435 47.015 51.007 70.522 64.659 70.522 37.435" style="fill:#0f2631"/><polygon points="70.522 37.435 94.03 51.007 70.522 64.659 70.522 37.435" style="fill:#2a3d58"/><polygon points="23.507 37.435 0 51.007 23.507 64.659 23.507 37.435" style="fill:#0f2631"/><polygon points="23.507 37.435 47.015 51.007 23.507 64.659 23.507 37.435" style="fill:#2a3d58"/></svg>