<?xml version="1.0" encoding="utf-8"?>
<!-- Generator: Adobe Illustrator 24.0.0, SVG Export Plug-In . SVG Version: 6.00 Build 0)  -->
<svg version="1.1" id="Layer_1" xmlns="http://www.w3.org/2000/svg" xmlns:xlink="http://www.w3.org/1999/xlink" x="0px" y="0px"
	 viewBox="0 0 127.4 108.8" style="enable-background:new 0 0 127.4 108.8;" xml:space="preserve">
<style type="text/css">
	.st0{fill:#00BAFF;}
</style>
<g>
	<polygon class="st0" points="127.4,46.8 118.4,37.8 118.4,37.8 109.4,28.8 109.4,28.8 100.4,19.8 81.3,38.9 81.3,56.8 100.4,37.7 
		109.4,46.8 81.3,74.9 78,78.2 78,60.1 78,42.2 78,20.6 81.3,17.3 89.6,9 81.3,0.6 80.7,0 78,2.7 65.3,15.3 65.3,33.3 65.3,54.9 
		65.3,72.8 65.3,90.9 65.3,108.8 78,96.1 81.3,92.8 118.4,55.7 118.4,55.7 127.4,46.8 	"/>
	<polygon class="st0" points="28.5,37.7 47.6,56.8 47.6,38.9 28.5,19.8 19.6,28.8 19.6,28.8 	"/>
	<polygon class="st0" points="46.7,0 46.1,0.6 37.8,9 46.1,17.3 49.4,20.6 49.4,42.2 49.4,60.1 49.4,78.2 46.1,74.9 18,46.8 9,37.8 
		9,37.8 0,46.8 0,46.8 0,46.8 9,55.7 9,55.7 46.1,92.8 49.4,96.1 62.1,108.8 62.1,90.9 62.1,72.8 62.1,54.9 62.1,33.3 62.1,15.3 
		49.4,2.7 	"/>
</g>
</svg>
