<?xml version="1.0" encoding="utf-8"?>
<!-- Generator: Adobe Illustrator 27.0.1, SVG Export Plug-In . SVG Version: 6.00 Build 0)  -->
<svg version="1.1" id="euroc" xmlns="http://www.w3.org/2000/svg" xmlns:xlink="http://www.w3.org/1999/xlink" x="0px" y="0px"
	 viewBox="0 0 500 500" style="enable-background:new 0 0 500 500;" xml:space="preserve">
<style type="text/css">
	.st0{fill-rule:evenodd;clip-rule:evenodd;fill:url(#Logo_00000181786599279606241530000008179156481478902168_);}
	.st1{fill:#FFFFFF;}
</style>
<linearGradient id="Logo_00000121976770608310527830000016046226979365197447_" gradientUnits="userSpaceOnUse" x1="12.1002" y1="489.8898" x2="5.0715" y2="496.9185" gradientTransform="matrix(50 0 0 -50 -49 25051)">
	<stop  offset="0" style="stop-color:#8656EF"/>
	<stop  offset="0.97" style="stop-color:#1AA3FF"/>
</linearGradient>
<path id="Logo" style="fill-rule:evenodd;clip-rule:evenodd;fill:url(#Logo_00000121976770608310527830000016046226979365197447_);" d="
	M1,250C1,112.8,112.3,1.5,249.5,1.5S498,112.8,498,250S386.7,498.5,249.5,498.5S1,387.2,1,250z"/>
<path class="st1" d="M161.3,261.4l-9,12.2c-2.1,4.2,0.9,9.2,5.7,9.2h29.5c9.3,38.5,36.1,64.8,72.1,64.2c25.5,0,44.8-12.7,57.6-38
	c1.6-3.2,0.2-7.2-3.1-8.6l-14.1-6.3c-3.1-1.4-6.7-0.1-8.2,3c-6.6,13.5-17.7,22-32.2,22c-13.2,0-23.8-6.5-31.9-19.5
	c-3.2-5.1-5.7-10.7-7.6-16.9h37.7c2.4,0,4.6-1.3,5.7-3.5l9-12.2c2.1-4.2-0.9-9.2-5.7-9.2h-51c-0.1-2.6-0.2-5.3-0.2-8
	c0-2.7,0-5.4,0.2-8h42c2.4,0,4.6-1.3,5.7-3.5l9-12.2c2.1-4.2-0.9-9.2-5.7-9.2H220c6.8-22.3,21.1-36.9,39.5-36.6
	c14,0,24.9,7.7,31.9,20.2c1.6,2.8,5.1,3.9,8,2.6l14.1-6.2c3.4-1.5,4.8-5.6,3-8.8c-13-23.5-32.1-35.4-57-35.4
	c-22.8,0-41.1,9.1-54.9,27.1c-8.1,10.6-13.8,23-17.1,37.2H167c-2.4,0-4.6,1.3-5.7,3.5l-9,12.2c-2.1,4.2,0.9,9.2,5.7,9.2h26.1
	c-0.1,2.6-0.2,5.3-0.2,8c0,2.7,0,5.4,0.1,8h-17C164.6,257.9,162.4,259.3,161.3,261.4L161.3,261.4z"/>
<path class="st1" d="M86,239.5c5.1-81.7,70.9-147.7,152.6-153c42.9-2.8,82.6,11.1,113.3,35.7c3,2.4,7.2,2.3,10.1-0.3l12-10.7
	c3.6-3.2,3.5-8.8-0.2-11.9C338,69.7,291.5,52.6,241.1,54.8C141.1,59,59.7,139.4,54.4,239.4c-2.3,43.2,9.6,83.7,31.3,117
	c2.6,4,8.2,4.7,11.8,1.5l12-10.7c2.8-2.5,3.5-6.8,1.4-10C93.2,309.2,83.7,275.5,86,239.5L86,239.5z"/>
<path class="st1" d="M413.3,143.5c-2.6-4-8.2-4.7-11.8-1.5l-12,10.7c-2.8,2.5-3.5,6.8-1.4,10c17.7,28,27.2,61.7,24.9,97.7
	c-5.1,81.7-70.9,147.7-152.6,153c-42.9,2.8-82.6-11.1-113.3-35.7c-3-2.4-7.2-2.3-10.1,0.3l-12,10.7c-3.6,3.2-3.5,8.8,0.2,11.9
	c35.8,29.6,82.3,46.7,132.7,44.6c100-4.2,181.4-84.7,186.7-184.6C446.9,217.3,435.1,176.9,413.3,143.5L413.3,143.5z"/>
</svg>
