<?xml version="1.0" encoding="utf-8"?>
<!-- Generator: Adobe Illustrator 24.0.0, SVG Export Plug-In . SVG Version: 6.00 Build 0)  -->
<svg version="1.1" id="Layer_1" xmlns="http://www.w3.org/2000/svg" xmlns:xlink="http://www.w3.org/1999/xlink" x="0px" y="0px"
	 viewBox="0 0 48 41" style="enable-background:new 0 0 48 41;" xml:space="preserve">
<style type="text/css">
	.st0{fill:#06142E;}
</style>
<path class="st0" d="M45.7,0h-21c-1.4,0-2.5,1.1-2.5,2.5v21.6h-7.6c-1.4,0-2.6,1-2.6,2.3s1.2,2.3,2.6,2.3h10.2
	c1.4,0,2.5-1.1,2.5-2.5V15.1h12.4c1.3,0,2.3-1,2.3-2.3c0-1.3-1-2.3-2.3-2.3H27.2V4.6h18.5c1.3,0,2.3-1,2.3-2.3C48,1,47,0,45.7,0z
	 M24.9,36.4H14.2c-1.3,0-2.3,1-2.3,2.3c0,1.3,1,2.3,2.3,2.3h10.7c1.3,0,2.3-1,2.3-2.3C27.2,37.4,26.2,36.4,24.9,36.4L24.9,36.4z
	 M13,10.5H2.3c-1.3,0-2.3,1-2.3,2.3c0,1.3,1,2.3,2.3,2.3H13c1.3,0,2.3-1,2.3-2.3C15.3,11.6,14.3,10.5,13,10.5z"/>
</svg>
