<?xml version="1.0" encoding="utf-8"?>
<!-- Generator: Adobe Illustrator 27.0.1, SVG Export Plug-In . SVG Version: 6.00 Build 0)  -->
<svg version="1.1" id="floki" xmlns="http://www.w3.org/2000/svg" xmlns:xlink="http://www.w3.org/1999/xlink" x="0px" y="0px"
	 viewBox="0 0 500 500" style="enable-background:new 0 0 500 500;" xml:space="preserve">
<style type="text/css">
	.st0{fill:#F4A427;}
	.st1{fill:#FFFFFF;}
	.st2{fill:#F79422;}
	.st3{fill:#221F1F;}
	.st4{fill:#5A595C;}
	.st5{fill:#929497;}
	.st6{fill:#171717;}
</style>
<path class="st0" d="M441.3,370.3c-5.3,63.3-80.2,117-192.2,114.1l0,0c-105.6-2.9-179.5-46.8-184.8-110.3
	c-0.6-8.2-0.3-16.4,0.9-24.5c3.6-24.4,12-47.9,24.6-69.2l7.9,3.6c20.7-8,42.1-14.1,64-18c28.8-4.1,57.9-5,86.9-2.7l0,0
	c29-2.3,58.1-1.3,86.9,2.7c22,4,43.5,10,64.4,18l7.9-3.6l5.5-2.5c12.7,21.5,21.6,45.1,26.1,69.6c1.3,7.5,1.7,15.1,1.1,22.7"/>
<path class="st1" d="M441.3,370.3c-5.3,63.3-79.1,114.2-192.2,114.1l0,0c-105.6-2.9-179.5-46.8-184.8-110.3
	c-0.6-8.2-0.3-16.4,0.9-24.5c11.2-2.4,22.8-2.7,34.2-0.9c21.5,3.5,33.4,16.6,48.5,23.5c8.8,4.1,17.5-2.6,25.5-9.8
	c21.3-20.9,49.8-32.9,79.7-33.4c30.3-0.4,54.5,11.5,81.1,35.7c5.3,5.4,12.5,8.4,20.1,8.4c7-1.9,13.5-5.4,18.8-10.4
	c19.8-13.3,43.8-18.7,67.4-15.2c1.3,7.5,1.7,15.1,1.1,22.7"/>
<path class="st2" d="M130.9,214.3c-7.3,7.3-16.6,12.4-26.7,14.6l-3.9,0.7c-4.1,1.1-8.3,1.8-12.5,2.1c-0.9,0-1.8-0.2-2.7-0.3
	c-2.3-0.6-4.5-1.4-6.7-2.3c-7.2-3.3-13.9-7.6-20.1-12.6c-12.4-10-23.3-21.7-32.4-34.7C-10.8,128.7,0.3,56.2,51.1,16.5
	c3-2.5,7.5-2,10,1c1.4,1.7,1.9,4,1.4,6.1c-4.9,21.3-8.8,54.7,11.2,83.5c17,24.4,53.5,47.8,75.4,47.3c4.9,26.7-2.5,44.7-18.1,60.2"/>
<path class="st3" d="M87.8,235.2c-0.1,0-0.1,0-0.2,0c-1-0.1-2.1-0.2-3.1-0.4c-0.1,0-0.1,0-0.2,0c-2.5-0.6-4.9-1.5-7.2-2.5
	c-7.5-3.5-14.5-7.9-20.8-13.1c-12.6-10.2-23.7-22.1-33-35.3C-14.5,129.3-3.1,54.6,49.1,13.8c2.1-1.7,4.8-2.5,7.6-2.2
	c2.8,0.3,5.3,1.6,7,3.8c2,2.5,2.8,5.9,2.1,9c-7.5,32.5-4,59.7,10.7,80.8c16.8,24,52.1,46.3,72.6,45.9c1.6,0,3.1,1.1,3.4,2.7
	c4.8,26-1.1,45.4-19.1,62.9c-7.8,7.8-17.6,13.1-28.4,15.5c0,0-0.1,0-0.1,0L101,233c-4.2,1.1-8.6,1.9-13,2.2
	C87.9,235.2,87.8,235.2,87.8,235.2z M85.8,228.2c0.6,0.1,1.3,0.2,1.9,0.2c3.9-0.3,7.9-1,11.7-2c0.1,0,0.2,0,0.2-0.1l3.9-0.7
	c9.5-2.1,18.2-6.9,25.1-13.7c0,0,0,0,0,0c15.8-15.4,21.2-31.7,17.6-54.2c-22.9-1.4-57.9-23.8-75.3-48.7
	C55.2,86.3,51.2,57.3,59.2,22.9c0.3-1.2,0-2.4-0.7-3.3c-0.6-0.8-1.5-1.3-2.5-1.4c-1-0.1-2,0.2-2.7,0.8C3.8,57.7-7,128.4,28.7,179.9
	c9,12.7,19.6,24.2,31.8,34c5.9,4.9,12.4,9,19.4,12.2C81.7,227,83.7,227.7,85.8,228.2z"/>
<path class="st4" d="M226.9,121.6l-8.6,85.8h-0.5c-13.4,1.7-31.3,4.5-56,8.4c-22.9,3.6-53.5,19.2-71.5,29.7l-2.7-13.5
	c4.2-0.3,8.4-1.1,12.5-2.1l3.9-0.7c10.1-2.2,19.4-7.3,26.7-14.6c15.6-15.2,23.1-33,18.1-60.2l2.5,0.8c8.1-8.6,17.6-15.7,28.1-21
	C194.2,126.5,210.3,122.2,226.9,121.6"/>
<path class="st3" d="M90.4,249c-0.5,0-0.9-0.1-1.4-0.3c-1-0.4-1.7-1.3-1.9-2.4l-2.7-13.5c-0.2-0.9,0-1.9,0.6-2.7
	c0.6-0.8,1.4-1.2,2.4-1.3c4-0.3,8-1,11.9-2c0.1,0,0.2,0,0.2-0.1l3.9-0.7c9.5-2.1,18.2-6.9,25-13.7c16.4-16,21.6-33.1,17.2-57.2
	c-0.2-1.2,0.2-2.3,1.1-3.1c0.9-0.8,2.1-1,3.2-0.7l0.5,0.2c8-8.2,17.3-15,27.6-20.1c14.9-7.9,31.8-12.4,48.7-13c1,0,1.9,0.4,2.6,1.1
	c0.7,0.7,1,1.7,0.9,2.6l-8.6,85.8c-0.2,1.7-1.6,3-3.3,3H218c-12.2,1.6-28.4,4-55.7,8.4c-25.8,4.1-60.3,23.5-70.3,29.3
	C91.5,248.8,90.9,249,90.4,249z M91.7,235.1l1.1,5.3c4.4-2.5,10.5-5.9,17.7-9.4c-1.8,0.6-3.7,1.1-5.6,1.5c0,0-0.1,0-0.1,0l-3.8,0.7
	C97.9,234,94.8,234.6,91.7,235.1z M153,158.2c3.4,24-2.8,42.3-19.8,58.8c-3,3-6.4,5.7-10,7.9c12.4-5.5,26.1-10.5,38.1-12.4
	c26-4.1,41.9-6.6,54-8.2l7.9-79.2c-14.6,1-29.1,5.2-42,12c-10.3,5.2-19.4,12-27.3,20.3C153.6,157.8,153.3,158,153,158.2z"/>
<path class="st5" d="M422.3,275.4l-5.6,2.5l0,0l-5.5,2.5l-8,3.6c-20.8-8-42.4-14.1-64.4-18c-28.6-5.5-57.7-8.1-86.9-7.8l0,0
	c-29.2-0.3-58.3,2.3-86.9,7.8c-22,4-43.5,10-64.4,18c-2.7-1.2-5.3-2.5-8-3.6l-11.1-5.1c0.3-9.4,0-14.5,0-23.9
	c2.3-1.5,5.1-3.3,8.6-5.3c0.3-0.2,0.6-0.4,0.9-0.5c17-10.6,47.8-26.1,70.5-29.7c24.7-3.9,42.4-6.7,56-8.4c8.7-0.5,17.8-0.9,27.3-1
	c13.9,0,26.7,0,39.4,0.9c13.7,1.7,31.5,4.5,56.5,8.5c23.2,3.6,54.2,19.5,72,30.1l0.7,0.3c3.3,1.9,6,3.7,8.2,5.1
	c0,9.4-0.3,14.5,0,23.9"/>
<path class="st3" d="M100.7,287.4c-0.5,0-0.9-0.1-1.4-0.3c-1-0.5-2-0.9-3-1.4c-1.7-0.8-3.3-1.5-4.9-2.2l-11.2-5.1
	c-1.2-0.6-2-1.8-1.9-3.2c0.2-6,0.2-10.2,0.1-15c0-2.6-0.1-5.4-0.1-8.7c0-1.1,0.6-2.2,1.5-2.8l0.3-0.2c2.2-1.4,5-3.2,8.2-5.1
	c0.4-0.3,0.7-0.5,1.1-0.7c15.2-9.4,47.3-26.2,71.6-30.1c25.4-4.1,42.8-6.7,56.1-8.4c0.1,0,0.1,0,0.2,0c10.1-0.6,19.1-0.9,27.5-1
	c13.9,0,26.9,0,39.7,0.9c0.1,0,0.1,0,0.2,0c14.1,1.8,32.1,4.6,56.7,8.5c27.3,4.3,62.7,24.3,73.1,30.4l0.6,0.3c0.1,0,0.1,0.1,0.2,0.1
	c3,1.8,5.8,3.5,8.4,5.2c0.9,0.6,1.4,1.6,1.5,2.6c0.2,4.5,0.2,8.1,0.2,11.5c0,3.9,0,7.5,0.3,12.3c0.1,1.4-0.7,2.7-2,3.3l-5.6,2.5
	l-5.5,2.5l-8,3.6c-0.8,0.4-1.7,0.4-2.6,0.1c-20.6-7.9-42-14-63.8-17.9c-28-4.7-56.7-7-85.2-7c-0.7,0-1.3,0-2,0
	c-28.6,0-57.3,2.4-85.5,7c-21.7,3.9-43.1,9.9-63.7,17.9C101.5,287.3,101.1,287.4,100.7,287.4z M253.1,255.6
	c28.8,0,57.8,2.4,86.3,7.1c21.7,3.9,43.1,9.9,63.7,17.7l15.7-7.2c-0.2-4-0.2-7.3-0.2-10.5c0-2.9,0-5.9-0.1-9.4
	c-2-1.3-4.2-2.7-6.6-4.1l-0.6-0.3c-0.1,0-0.1-0.1-0.2-0.1c-20.5-12.2-49.9-26.4-70.8-29.7c-24.4-3.9-42.4-6.7-56.4-8.5
	c-12.5-0.9-25.4-0.9-39.1-0.9c-8.3,0.1-17.1,0.4-27,1c-13.3,1.7-30.5,4.4-55.8,8.4c-23.4,3.7-54.5,20.2-69.3,29.3
	c-0.1,0.1-0.3,0.2-0.4,0.2c0,0-0.1,0-0.1,0.1c-0.1,0.1-0.3,0.2-0.5,0.3c-2.6,1.5-4.9,2.9-6.9,4.2c0,2.5,0,4.7,0.1,6.8
	c0.1,4.3,0.1,8.1,0,13.1l9.1,4.2c1.6,0.7,3.3,1.5,5,2.2c0.6,0.3,1.1,0.5,1.7,0.8c20.6-7.9,42-13.8,63.7-17.7
	c28.6-4.7,57.7-7.1,86.6-7.1C251.8,255.6,252.5,255.6,253.1,255.6z"/>
<path class="st5" d="M284.6,207.4c-12.4-0.7-25.5-1.1-39.4-0.9c-9.5,0-18.6,0.5-27.3,1h0.5l8.6-85.8l1.8-17.4
	c6.8-3.8,14.4-5.8,22.2-5.9h1.1c7.8,0.1,15.5,2.1,22.3,5.9l1.7,17.1v0.5L284.6,207.4z"/>
<path class="st3" d="M218.4,210.9h-0.5c-1.8,0-3.3-1.4-3.3-3.2c0-0.8,0.2-1.6,0.7-2.2l8.4-84.1l1.8-17.4c0.1-1.1,0.7-2,1.7-2.6
	c7.3-4.1,15.5-6.2,23.8-6.3h1.1c8.4,0.1,16.6,2.2,23.9,6.3c1,0.5,1.6,1.5,1.7,2.6l1.7,17.1c0,0.1,0,0.2,0,0.3v0.3l8.6,85.4
	c0.1,1-0.2,1.9-0.9,2.6c-0.7,0.7-1.6,1.1-2.6,1c-13.6-0.8-26.4-1.1-39.2-0.9c-9.3,0-18,0.4-26.2,0.9
	C218.8,210.8,218.6,210.9,218.4,210.9z M231.9,106.4l-1.6,15.6l-8.2,81.9c7.3-0.4,15-0.7,23.1-0.7c11.6-0.2,23.4,0.1,35.7,0.7
	l-8.2-81.7c0-0.1,0-0.2,0-0.3v-0.3l-1.5-15.2c-5.9-3-12.5-4.6-19.1-4.7h-1C244.3,101.8,237.8,103.4,231.9,106.4z"/>
<path class="st3" d="M416.4,281.2c-0.9,0-1.7-0.4-2.4-1c-0.1-0.2-0.3-0.3-0.4-0.5c-0.1-0.2-0.2-0.4-0.3-0.6
	c-0.1-0.2-0.1-0.4-0.2-0.6c0-0.2-0.1-0.4-0.1-0.7c0-0.9,0.4-1.7,1-2.4c0.2-0.2,0.3-0.3,0.5-0.4c0.2-0.1,0.4-0.2,0.6-0.3
	c0.2-0.1,0.4-0.1,0.6-0.2c1.1-0.2,2.2,0.1,3,0.9c0.6,0.6,1,1.5,1,2.4c0,0.2,0,0.4-0.1,0.7c0,0.2-0.1,0.4-0.2,0.6
	c-0.1,0.2-0.2,0.4-0.3,0.6c-0.1,0.2-0.3,0.4-0.4,0.5C418.2,280.9,417.3,281.2,416.4,281.2z"/>
<path class="st3" d="M249.2,488.5c-52.5-1.5-98-12.8-131.7-32.9c-34.2-20.4-53.7-48.2-56.4-80.4c-0.6-8.4-0.3-16.9,0.9-25.2
	c3.7-25,12.1-48.7,25-70.4c0.9-1.5,2.7-2,4.3-1.3l6.7,3c20.6-7.8,42-13.8,63.7-17.7c28.8-5.1,58.2-7.7,87.5-7.9
	c29.3-0.2,58.7,2.4,87.5,7.9c21.7,3.9,43.1,9.9,63.7,17.7l7.3-3.1l5.4-2.5c1.6-0.7,3.4-0.1,4.3,1.3c13,21.9,21.9,45.7,26.6,70.7
	c0,0,0,0.1,0,0.1c1.2,7.8,1.5,15.7,0.8,23.5c-2.7,32.1-23.9,61.7-59.8,83.4C348.9,476.5,300.7,488.5,249.2,488.5z M91.3,285.5
	c-11.6,20.3-19.2,42.3-22.6,65.4c-1.1,7.8-1.4,15.8-0.8,23.7c2.5,30,20.9,56,53.1,75.2c32.7,19.5,77.1,30.5,128.4,32
	c50.1,0,97.1-11.7,132.1-32.8c34-20.6,54.1-48.3,56.6-78.2c0,0,0,0,0,0c0.6-7.3,0.4-14.6-0.8-21.9c-4.4-23.2-12.5-45.4-24.3-65.9
	l-2.7,1.3c0,0-0.1,0-0.1,0l-8.6,3.6c-0.8,0.3-1.7,0.4-2.5,0c-20.6-7.9-42-14-63.8-17.9c-28.4-5.4-57.4-8-86.3-7.8
	c-28.9,0.2-57.9,2.8-86.3,7.8c-21.7,3.9-43.2,9.9-63.7,17.9c-0.8,0.3-1.8,0.3-2.6-0.1L91.3,285.5z"/>
<path class="st2" d="M474,181.8c-9.2,13-20.1,24.7-32.5,34.7c-6.1,5-12.9,9.3-20.1,12.6l-3.4,1.4l-2.1,0.7c-4.7,1.3-7.2,0-16.1-1.5
	l-3.9-0.7c-10.1-2.3-19.4-7.3-26.7-14.6c-15.6-15.2-23.1-33-18-60.2c21.7,0.5,58.3-22.9,75.3-47.3c20.1-28.5,16-61.9,11.2-83.2
	c-1-3.8,1.3-7.6,5.1-8.6c2.2-0.6,4.5,0,6.3,1.4C499.8,56.3,510.7,128.8,474,181.8"/>
<path class="st3" d="M412.1,235.1c-2.2,0-4.3-0.4-7.1-1c-1.6-0.3-3.5-0.7-5.8-1.1l-4-0.7c0,0-0.1,0-0.1,0
	c-10.7-2.4-20.5-7.8-28.4-15.5c-18-17.5-23.8-37-19-63.1c0.3-1.6,1.7-2.7,3.3-2.7c0,0,0,0,0.1,0c20.1,0.5,56-22.3,72.5-45.9
	c14.6-20.8,18.1-47.2,10.7-80.6c-0.7-2.6-0.2-5.4,1.2-7.8c1.4-2.4,3.7-4.1,6.4-4.8c3.2-0.8,6.7,0,9.2,2.1
	c52,40.9,63.2,115.5,25.6,169.9c0,0,0,0,0,0c-9.4,13.3-20.5,25.1-33.1,35.4c-6.3,5.2-13.3,9.6-20.7,13.1c0,0-0.1,0-0.1,0.1l-3.4,1.4
	c-0.1,0-0.2,0.1-0.3,0.1l-2.1,0.7C415.1,234.9,413.6,235.1,412.1,235.1z M396.5,225.7l3.9,0.7c2.4,0.4,4.4,0.8,6,1.2
	c4.3,0.9,5.9,1.2,8.6,0.5l1.9-0.6l3.2-1.3c6.9-3.2,13.4-7.3,19.3-12.2c12.1-9.8,22.9-21.3,31.9-34c35.6-51.5,25-122.1-24.3-160.8
	c0,0-0.1,0-0.1-0.1c-0.9-0.8-2.2-1.1-3.3-0.8c-1,0.2-1.8,0.9-2.3,1.7c-0.5,0.9-0.7,1.9-0.4,2.8c7.9,35.5,4,63.5-11.7,86
	c-17.1,24.5-52.7,47.2-75.2,48.7c-3.6,22.7,1.7,39.1,17.6,54.5C378.4,218.8,387,223.6,396.5,225.7z"/>
<path class="st4" d="M416,231.2l-2.9,14.8c-17.8-10.6-48.8-26.7-72-30.1c-25.1-4-42.8-6.7-56.5-8.5l-8.6-85.6
	c15.6,0.8,30.7,5.1,44.5,12.4c10.6,5.3,20.2,12.4,28.3,21l2.5-0.8c-5,26.7,2.4,44.7,18,60.2c7.4,7.3,16.6,12.4,26.7,14.6
	c0.6,0,3.3,1.3,3.9,1.5c5.2,1.8,10.8,2,16.1,0.8"/>
<path class="st3" d="M413.1,249.4c-0.6,0-1.2-0.2-1.7-0.5c-10.1-6-45.2-26-70.8-29.6c-25.5-4.1-42.9-6.7-56.5-8.5
	c-1.5-0.2-2.7-1.4-2.9-3l-8.6-85.6c-0.1-1,0.2-1.9,0.9-2.6s1.6-1.1,2.6-1c15.9,0.8,31.8,5.3,45.8,12.8c10.4,5.1,19.7,11.9,27.8,20.1
	l0.6-0.2c1.1-0.4,2.3-0.1,3.2,0.7c0.9,0.8,1.3,2,1.1,3.1c-4.4,23.4,0.9,41.1,17.1,57.2c6.9,6.9,15.6,11.6,25.1,13.7l3.9,0.7
	c2.1,0.3,3.8,0.7,5.3,1c4.7,0.9,6.3,1.2,9.1,0.4c1.1-0.3,2.3,0,3.2,0.8c0.9,0.8,1.2,2,1,3.1l-2.9,14.8c-0.2,1.1-0.9,2-1.9,2.4
	C414.1,249.3,413.6,249.4,413.1,249.4z M395.8,232.6c5.8,3,10.9,5.8,15,8.2l1.1-5.6c-2.1,0-4.2-0.4-7.1-1c-1.5-0.3-3.2-0.6-5.3-0.9
	L395.8,232.6z M287.7,204.5c13.3,1.8,30.1,4.3,54,8.2c9.6,1.4,20.4,4.9,30.7,9.1c-1.9-1.5-3.7-3-5.4-4.7
	c-16.9-16.8-23.1-35-19.7-58.7c-0.4-0.2-0.7-0.4-1-0.7c-7.9-8.4-17.1-15.2-27.4-20.3c0,0-0.1,0-0.1,0c-12.1-6.5-25.5-10.5-39.1-11.8
	L287.7,204.5z"/>
<rect x="273.2" y="118.5" class="st3" width="2.8" height="6.7"/>
<path class="st2" d="M416.6,228c4.4,5.6,3.5,13.6-2.1,18c-0.5,0.4-1,0.7-1.5,1"/>
<path class="st3" d="M414.7,249.9l-3.4-5.8c0.4-0.2,0.8-0.5,1.1-0.8c4.1-3.2,4.8-9.2,1.6-13.3l5.2-4.1c5.5,7,4.3,17.2-2.7,22.7
	C416,249.1,415.4,249.5,414.7,249.9z"/>
<path class="st2" d="M86.9,228c-4.4,5.6-3.4,13.6,2.2,18c0.5,0.4,1,0.7,1.5,1"/>
<path class="st3" d="M88.9,249.9c-0.7-0.4-1.3-0.8-1.9-1.3c-7-5.5-8.2-15.7-2.7-22.7l5.3,4.1c-1.6,2-2.3,4.5-2,7
	c0.3,2.5,1.6,4.8,3.6,6.3c0.4,0.3,0.7,0.5,1.1,0.8L88.9,249.9z"/>
<path class="st6" d="M231.4,400.2c-1.8,0-3.6-0.2-5.4-0.6c-1.8-0.4-2.9-2.2-2.6-4c0.4-1.8,2.2-2.9,4-2.6c4.1,0.9,8.4,0.4,12.2-1.5
	c0.1,0,0.2-0.1,0.3-0.1c5.3-2,8.9-6.8,9.4-12.3c0-1,0-2,0.1-2.9c0.2-1.7,1.7-3,3.4-3c1.7,0,3.2,1.4,3.3,3.2c0.1,1,0,2,0,2.9
	c0.4,5.5,4.1,10.3,9.4,12.2c0.1,0,0.3,0.1,0.4,0.2c3.7,1.8,8.1,2.4,12.1,1.5c1.8-0.4,3.6,0.8,4,2.6c0.4,1.8-0.8,3.6-2.6,4
	c-5.5,1.2-11.3,0.5-16.3-1.9c-4.4-1.6-8.1-4.5-10.5-8.3c-2.4,3.7-5.9,6.6-10.2,8.3C239,399.3,235.3,400.2,231.4,400.2z"/>
<path class="st6" d="M278.7,354c0,7.8-12.1,18.8-26.7,18.8s-26.7-10.6-26.7-18.4s12.1-10.5,26.7-10.5S278.7,346.2,278.7,354"/>
<path class="st1" d="M263.1,351c0,1.8-5.1,4.3-11.4,4.3c-6.3,0-11.4-2.5-11.4-4.3s5.1-1.5,11.4-1.5C258,349.6,263.1,349.2,263.1,351
	"/>
<path class="st6" d="M226.8,399.4H225c-0.2,0-0.4,0-0.6-0.1c-10.9-2-18.4-11.8-17.5-22.9c0.2-1.8,1.8-3.2,3.6-3.1
	c1.8,0.2,3.2,1.8,3.1,3.6c-0.6,7.5,4.4,14.2,11.8,15.7h1.4c1.8,0,3.3,1.5,3.3,3.3C230.1,397.9,228.6,399.4,226.8,399.4z"/>
<path class="st6" d="M252.7,379.9c-1.8,0-3.3-1.5-3.3-3.3v-9.2c0-1.8,1.5-3.3,3.3-3.3c1.8,0,3.3,1.5,3.3,3.3v9.2
	C256.1,378.4,254.6,379.9,252.7,379.9z"/>
<path class="st6" d="M280.5,399.7h-1.8c-1.8,0-3.3-1.5-3.3-3.3s1.5-3.3,3.3-3.3h1.5c7.4-1.5,12.5-8.5,11.8-16
	c-0.2-1.8,1.2-3.5,3-3.7c1.9-0.2,3.5,1.2,3.7,3c1.1,11.1-6.6,21.3-17.5,23.3C280.9,399.7,280.7,399.7,280.5,399.7z"/>
<path class="st3" d="M476.8,183.8l-5.5-3.8c35.6-51.5,25-122.2-24.3-160.8l4.1-5.3C503.2,54.7,514.4,129.3,476.8,183.8z"/>
<path class="st3" d="M87.8,235.2c-0.1,0-0.1,0-0.2,0c-1-0.1-2.1-0.2-3.1-0.4c-0.1,0-0.1,0-0.2,0c-2.5-0.6-4.9-1.5-7.2-2.5
	c-7.5-3.5-14.5-7.9-20.8-13.1c-12.6-10.2-23.7-22.1-33-35.3C-14.5,129.3-3.1,54.6,49.1,13.8c2.1-1.7,4.8-2.5,7.6-2.2
	c2.8,0.3,5.3,1.6,7,3.8c2,2.5,2.8,5.9,2.1,9c-7.5,32.5-4,59.7,10.7,80.8c16.8,24,52.1,46.3,72.6,45.9c1.6,0,3.1,1.1,3.4,2.7
	c4.8,26-1.1,45.4-19.1,62.9c-7.8,7.8-17.6,13.1-28.4,15.5c0,0-0.1,0-0.1,0L101,233c-4.2,1.1-8.6,1.9-13,2.2
	C87.9,235.2,87.8,235.2,87.8,235.2z M85.8,228.2c0.6,0.1,1.3,0.2,1.9,0.2c3.9-0.3,7.9-1,11.7-2c0.1,0,0.2,0,0.2-0.1l3.9-0.7
	c9.5-2.1,18.2-6.9,25.1-13.7c0,0,0,0,0,0c15.8-15.4,21.2-31.7,17.6-54.2c-22.9-1.4-57.9-23.8-75.3-48.7
	C55.2,86.3,51.2,57.3,59.2,22.9c0.3-1.2,0-2.4-0.7-3.3c-0.6-0.8-1.5-1.3-2.5-1.4c-1-0.1-2,0.2-2.7,0.8C3.8,57.7-7,128.4,28.7,179.9
	c9,12.7,19.6,24.2,31.8,34c5.9,4.9,12.4,9,19.4,12.2C81.7,227,83.7,227.7,85.8,228.2z"/>
<path class="st3" d="M203.3,310.4c0,14.6-8.6,26.3-19.1,26.3c-10.6,0-19.1-11.8-19.1-26.3c0-12.8,6.7-23.5,15.3-25.9l21.3,16.2
	C202.7,303.8,203.2,307.1,203.3,310.4z"/>
<path class="st1" d="M196.2,306.9c0,5.1-3,9.4-6.7,9.4s-6.7-4.3-6.7-9.4s3.1-9.5,6.7-9.5S196.2,301.7,196.2,306.9"/>
<path class="st3" d="M179.9,330.1c-7.3,6-14,12.8-20.1,20.1c-2.9,3.6-5.3,7.5-7.3,11.7c-2,4.2-3.4,8.7-4.1,13.4
	c-0.4,2.3-0.7,4.7-1,7l-0.3,3.6v3.6c-0.3,4.8-0.3,9.7,0,14.5c0.4,4.9,1.1,9.7,2.1,14.5c0.5,2.4,1,4.8,1.7,7.2
	c0.6,2.3,1.4,4.5,2.4,6.7c-1.3-2.1-2.3-4.4-3.2-6.7c-0.9-2.3-1.7-4.6-2.5-6.7c-1.5-4.8-2.8-9.6-3.7-14.5c-0.9-4.9-1.6-9.9-2-14.9
	l-0.2-3.7V382c0-2.5,0.1-5.1,0.3-7.6c0.4-5.2,1.5-10.4,3.3-15.4c1.8-4.9,4.1-9.7,7-14c5.7-8.5,12.2-16.4,19.5-23.7
	c2.4-2.3,6.3-2.2,8.6,0.3c2.1,2.3,2.2,5.8,0.2,8.1L179.9,330.1L179.9,330.1z"/>
<path class="st3" d="M175.5,328.2c-0.5,0.1-0.9,0.1-1.4,0h-0.8h-1.5l-3.1-0.7c-2-0.4-4.1-0.7-6.2-0.7c-4.2-0.3-8.4,0.1-12.5,1.1
	c-2.1,0.5-4.1,1.2-6,2.1c-6.1,2.8-11.2,7.3-14.8,13c1.7-4.4,4.1-8.4,7.2-11.9c1.6-1.8,3.3-3.5,5.2-4.9c1.9-1.5,4-2.8,6.2-3.9
	c4.3-2.5,9-4.3,13.8-5.3c2.5-0.4,4.9-0.7,7.4-0.8c1.3,0,2.5,0,3.7,0h2.7c0,0,0.6,0,0,0c3.4-0.2,6.2,2.4,6.4,5.8s-2.4,6.2-5.8,6.4
	c-0.4,0-0.8,0-1.2-0.1"/>
<path class="st3" d="M340.5,310.4c0,14.6-8.6,26.3-19.1,26.3s-19.1-11.8-19.1-26.3c0-3.3,0.4-6.6,1.3-9.8l21.4-16
	C333.9,286.9,340.5,297.6,340.5,310.4z"/>
<path class="st1" d="M309.3,306.9c0,5.1,3.1,9.4,6.7,9.4c3.6,0,6.7-4.3,6.7-9.4s-3.1-9.5-6.7-9.5
	C312.4,297.4,309.3,301.7,309.3,306.9"/>
<path class="st3" d="M333.9,321.3c7,7.2,13.4,14.9,19.1,23.3c2.9,4.2,5.3,8.7,7.3,13.4c1.9,4.8,3.3,9.8,3.9,14.9
	c0.6,5,0.6,10.1,0,15.2c-0.5,4.9-1.3,9.8-2.3,14.6c-1,4.8-2.2,9.5-3.7,14.2c-0.8,2.3-1.5,4.6-2.5,6.7c-0.9,2.3-1.9,4.6-3.2,6.7
	c1-2.2,1.8-4.4,2.5-6.7c0.7-2.3,1.2-4.6,1.7-7c1-4.7,1.7-9.5,2.2-14.2c0.5-4.8,0.7-9.6,0.7-14.4c0-4.7-0.5-9.3-1.5-13.8
	c-1.1-4.4-2.7-8.7-4.9-12.8c-2.2-4-4.8-7.8-7.7-11.4c-6.1-7.3-12.8-14-20.1-20.1l0,0c-2.4-2.4-2.4-6.2-0.1-8.6
	c2.1-2.2,5.5-2.4,8-0.6l0.5,0.4"/>
<path class="st3" d="M329.5,316.1L329.5,316.1h3.3c1.3-0.1,2.6-0.1,3.9,0c2.6,0.1,5.2,0.3,7.8,0.7c5.2,0.7,10.2,2.2,15,4.3
	c4.7,2.1,9,5,12.6,8.7c3.5,3.6,6.2,7.8,8.1,12.4c-2.7-4-6.1-7.4-10-10c-3.8-2.6-8.1-4.4-12.6-5.3c-4.4-0.9-8.9-1.2-13.4-0.9
	c-2.2,0.1-4.5,0.4-6.7,0.8l-3.3,0.7h-1.6h-0.9h-0.5h-0.9c-3.3,0.5-6.4-1.9-6.9-5.2c-0.5-3.3,1.9-6.4,5.2-6.9
	c0.4-0.1,0.8-0.1,1.2-0.1"/>
</svg>
