<?xml version="1.0" encoding="utf-8"?>
<!-- Generator: Adobe Illustrator 27.7.0, SVG Export Plug-In . SVG Version: 6.00 Build 0)  -->
<svg version="1.1" id="Layer_1" xmlns="http://www.w3.org/2000/svg" xmlns:xlink="http://www.w3.org/1999/xlink" x="0px" y="0px"
	 viewBox="0 0 500 500" style="enable-background:new 0 0 500 500;" xml:space="preserve">
<style type="text/css">
	.st0{fill:#FFFFFF;}
</style>
<path class="st0" d="M250,500c-33.7,0-66.5-6.6-97.3-19.7c-29.8-12.6-56.5-30.6-79.5-53.6c-22.9-22.9-41-49.7-53.6-79.5
	C6.6,316.5,0,283.7,0,250s6.6-66.5,19.7-97.3c12.6-29.8,30.6-56.5,53.6-79.5c23-22.9,49.7-41,79.5-53.6C183.5,6.6,216.3,0,250,0
	s66.5,6.6,97.3,19.7c29.8,12.6,56.5,30.6,79.5,53.6c22.9,22.9,41,49.7,53.6,79.5c13,30.8,19.7,63.6,19.7,97.3s-6.6,66.5-19.7,97.3
	c-12.6,29.8-30.6,56.5-53.6,79.5c-22.9,22.9-49.7,41-79.5,53.6C316.5,493.4,283.7,500,250,500z"/>
<circle cx="250" cy="250" r="236.8"/>
<path class="st0" d="M398,250c0-12.4-3-24.1-8.5-34.3l35-35l-29.5-29.5l-35.7,35.7c-0.3-0.1-0.5-0.2-0.8-0.4
	c-12.9-5.9-27.3-7.8-41.8-5.4c-14.9,2.5-29.5,9.5-42.3,20.4c-8.3,7.1-17.5,14.9-24.7,21.1c-7.4-6.3-16.7-14.2-24.7-21.1
	c-12.8-10.8-27.4-17.9-42.3-20.4c-14.5-2.4-29-0.5-41.8,5.4c-0.2,0.1-0.4,0.2-0.6,0.3l-35.6-35.6l-29.5,29.5l34.8,34.8
	c-5.5,10.2-8.6,22-8.6,34.5c0,12.5,3,24.3,8.6,34.5l-34.8,34.8l29.5,29.5l35.6-35.6c0.2,0.1,0.4,0.2,0.6,0.3
	c12.9,5.9,27.3,7.8,41.8,5.4c14.9-2.5,29.5-9.5,42.3-20.4c7.8-6.6,17.1-14.6,24.7-21.1c7.4,6.3,16.7,14.2,24.7,21.1
	c12.8,10.8,27.4,17.9,42.3,20.4c4.1,0.7,8.2,1,12.3,1c10.3,0,20.3-2.2,29.5-6.4c0.3-0.1,0.5-0.2,0.8-0.4l35.7,35.7l29.5-29.5l-35-35
	C395,274.1,398,262.4,398,250z M198.2,266.7c-13,11-27.8,14.4-39.6,8.9c-9.7-4.5-15.2-13.8-15.2-25.6c0-11.8,5.6-21.1,15.2-25.6
	c3.7-1.7,7.8-2.6,12-2.6c9,0,18.8,3.9,27.6,11.5c6.3,5.3,13.3,11.3,19.6,16.7C211.4,255.5,204.3,261.5,198.2,266.7z M301.5,266.7
	c-6.3-5.3-13.3-11.3-19.6-16.7c6.2-5.3,13.2-11.3,19.6-16.7c13-11,27.8-14.4,39.6-8.9c9.7,4.5,15.2,13.8,15.2,25.6
	s-5.6,21.1-15.2,25.6C329.3,281.1,314.5,277.8,301.5,266.7z"/>
</svg>
