<?xml version="1.0" encoding="utf-8"?>
<!-- Generator: Adobe Illustrator 27.0.1, SVG Export Plug-In . SVG Version: 6.00 Build 0)  -->
<svg version="1.1" id="fx" xmlns="http://www.w3.org/2000/svg" xmlns:xlink="http://www.w3.org/1999/xlink" x="0px" y="0px"
	 viewBox="0 0 500 500" style="enable-background:new 0 0 500 500;" xml:space="preserve">
<style type="text/css">
	.st0{fill-rule:evenodd;clip-rule:evenodd;fill:#181818;}
	.st1{fill:#FFFFFF;}
	.st2{fill:#F7D509;}
</style>
<path class="st0" d="M99.1,8.5h301.8c50,0,90.5,40.5,90.5,90.5v301.8c0,50-40.5,90.5-90.5,90.5H99.1c-50,0-90.5-40.5-90.5-90.5V99.1
	C8.5,49.1,49.1,8.5,99.1,8.5z"/>
<path class="st1" d="M400.9,499H99.1C45,499,1,455,1,400.9V99.1C1,45,45,1,99.1,1h301.8C455,1,499,45,499,99.1v301.8
	C499,455,455,499,400.9,499z M99.1,16.1c-45.8,0-83,37.2-83,83v301.8c0,45.8,37.2,83,83,83h301.8c45.8,0,83-37.2,83-83V99.1
	c0-45.8-37.2-83-83-83H99.1z"/>
<path class="st1" d="M133.1,232.4h-34v-20.4h34c0-0.6,0-1,0-1.5c0.1-5.9-0.1-11.9,0.3-17.8c0.7-11.4,3.6-22.1,10.5-31.5
	c7.2-9.8,17.1-15.4,28.7-18.2c9.5-2.3,19.1-2.5,28.8-1.7c10,0.9,19.9,3.1,29.2,6.7c0.5,0.2,1.1,0.4,1.7,0.7l-5.8,18.4
	c-1.4-0.5-2.6-1.1-3.9-1.5c-12.4-4.6-25.2-5.8-38.2-3.8c-14.8,2.3-23.8,11.6-26.2,26.5c-0.9,5.4-0.8,10.8-0.8,16.2
	c0,2.5,0,4.9,0,7.5h60.3v20.3h-60.2v125.9h-24.4V232.4z"/>
<path class="st2" d="M328.1,295.7c0-0.1-0.1-0.2-0.1-0.3c0-0.1,0.1-0.2,0.1-0.3c5.9-10.7,12.1-21.9,18-32.6
	c2.3-4.1,4.7-8.3,7.1-12.7h-23c0,0-10.2,22.7-14.8,32.9h-0.5c-5.1-10.2-16.1-32.9-16.1-32.9l-24.2-0.1c0.3,0.6,17.6,31.5,25.5,45.5
	c0.1,0.1,0.1,0.2,0.1,0.3l-0.1,0.3c-8,13.8-25.5,45.3-25.8,45.9l24.5-0.1c0,0,11-22.4,16.1-32.4h0.5c4.6,10,14.8,32.4,14.8,32.4
	h23.3C351.1,337.2,334,306.3,328.1,295.7z M265.8,348.8c-4,3.2-8.2,6.6-12.1,9.8c-33.9-30.9-37.7-90.2-0.1-126.1
	c3.9,3.2,8.1,6.6,12.1,9.8c-1.1,1.2-2.1,2.4-3,3.5c-8.2,9.6-13.9,20.3-16.3,32.7c-1.5,7.9-1.8,15.8-1.2,23.8
	c0.6,9,2.7,17.6,6.6,25.8c3.4,7,7.7,13.5,13,19.3C265,347.9,265.4,348.2,265.8,348.8z M361.8,348.8c4,3.2,8.2,6.6,12.1,9.8
	c33.9-30.9,37.7-90.2,0.1-126.1c-3.9,3.2-8.1,6.6-12.1,9.8c1.1,1.2,2.1,2.4,3,3.5c8.2,9.6,13.9,20.3,16.3,32.7
	c1.5,7.9,1.8,15.8,1.2,23.8c-0.6,9-2.7,17.6-6.6,25.8c-3.4,7-7.7,13.5-13,19.3C362.6,347.9,362.2,348.2,361.8,348.8z"/>
</svg>
