<?xml version="1.0" encoding="utf-8"?>
<!-- Generator: Adobe Illustrator 27.0.0, SVG Export Plug-In . SVG Version: 6.00 Build 0)  -->
<svg version="1.1" id="Layer_1" xmlns="http://www.w3.org/2000/svg" xmlns:xlink="http://www.w3.org/1999/xlink" x="0px" y="0px"
	 viewBox="0 0 500 500" style="enable-background:new 0 0 500 500;" xml:space="preserve">
<path d="M430.2,369.5L430.2,369.5l-4.3-4.2c36.9-56.7,45.8-130.1,17.5-197.1c-5-11.9-11-23.1-17.9-33.5l32.7-34.6
	c19-20,34.4-36.7,34.2-37.1c-0.4-1.3-61-59.1-61.7-59.1c-0.5,0-15.8,15.7-33.9,34.9c-16.3,17.2-30.1,31.7-33,34.6
	C307.3,36.7,234,27.8,167.2,56c-10.4,4.4-20.3,9.6-29.7,15.4l-4.6-4.5c-9.9-9.6-19.8-19.1-29.7-28.7C89.9,25.5,76.4,12.5,73.1,9.2
	l-5.9-5.8L37.9,34.7C21.8,51.8,8.5,66.1,8.3,66.4c-0.1,0.3,14.4,14.8,32.3,32L75,131.7c-23.3,34.2-36.5,75.3-36.5,118.4
	c0,41.5,12,80.2,32.7,112.9c-5.7,6.2-18.4,19.7-32.9,35.1c-19.6,20.8-35.6,37.8-35.8,38.2c19.7,19.8,39.7,39.3,60,58.5l2.1,1.7
	l31.1-32.8l35.5-37.7l0.7-0.8c33.5,22.5,73.9,35.7,117.3,35.7c28.2,0.1,56.1-5.6,82.1-16.6c11.8-5,22.9-10.9,33.3-17.7l2.9,2.9
	c22.8,22.2,45.6,44.2,68.6,66.1c0.6,0.2,59.6-62.2,59.5-62.9C495.5,432.4,455,393.1,430.2,369.5z M121,250.2
	c0-70.7,57.5-128.2,128.2-128.2s128.2,57.5,128.2,128.2s-57.5,128.2-128.2,128.2S121,320.9,121,250.2z"/>
</svg>
