<?xml version="1.0" encoding="utf-8"?>
<!-- Generator: Adobe Illustrator 24.0.0, SVG Export Plug-In . SVG Version: 6.00 Build 0)  -->
<svg version="1.1" id="Layer_1" xmlns="http://www.w3.org/2000/svg" xmlns:xlink="http://www.w3.org/1999/xlink" x="0px" y="0px"
	 viewBox="0 0 2500 2500" style="enable-background:new 0 0 2500 2500;" xml:space="preserve">
<style type="text/css">
	.st0{fill:#1666AE;}
	.st1{fill:none;}
	.st2{fill:#7290C9;}
	.st3{fill:#FFFFFA;}
	.st4{fill:#FFFFFF;}
</style>
<title>gbx</title>
<circle class="st0" cx="1250" cy="1250" r="1250"/>
<circle class="st1" cx="719" cy="1716.1" r="27.5"/>
<circle class="st1" cx="1697.9" cy="1452.1" r="27.5"/>
<circle class="st1" cx="900.7" cy="1414.9" r="27.5"/>
<circle class="st1" cx="695.9" cy="980.5" r="30.2"/>
<circle class="st1" cx="1628.4" cy="1384.2" r="27.5"/>
<path class="st1" d="M1818.6,1934.9c-3.2,19.4-21.5,32.5-40.8,29.3c-19.4-3.2-32.5-21.5-29.3-40.8c3.2-19.4,21.5-32.5,40.8-29.3
	c11.7,1.9,21.6,9.5,26.6,20.3l216.3-0.1l-103-103.9l-201.2-0.1c-3.2,19.4-21.5,32.5-40.8,29.3c-19.4-3.2-32.5-21.5-29.3-40.8
	c3.2-19.4,21.5-32.5,40.8-29.3c11.7,1.9,21.6,9.5,26.6,20.3l212.4-0.3l124,124.7l246.1-0.1c120.8-192.4,190.6-420.1,190.6-664.1
	c0.1-102.9-12.5-205.4-37.5-305.2c-19,7.9-40.8-1.1-48.7-20.1c-0.7-1.6-1.2-3.3-1.7-5l-334.8-1.2l-122.6-102.5
	c-18.2,7.5-39-1.2-46.4-19.4c-7.5-18.2,1.2-39,19.4-46.4c18.2-7.5,39,1.2,46.4,19.4c4.5,11,3.2,23.5-3.4,33.3l114.6,94.6l327.5,1.2
	c4.4-13.1,15.8-22.7,29.5-24.9c-3.8-12.3-7.9-24.4-12.1-36.5l-302.8-1.2l-108-89.6c-18.2,7.5-39-1.2-46.4-19.4
	c-7.5-18.2,1.2-39,19.4-46.4c18.2-7.5,39,1.2,46.4,19.4c4.5,11,3.2,23.5-3.4,33.3l100.1,81.6l287.1,1.1
	c-20.7-56-45.4-110.4-73.9-162.9l-220.8-1.5l-98-88.4c-18.2,7.5-39-1.2-46.4-19.4c-7.5-18.2,1.2-39,19.4-46.4
	c18.2-7.5,39,1.2,46.4,19.4c4.5,11,3.2,23.5-3.4,33.3l90.1,80.4l200.9,1.5c-25-43.8-52.5-86.1-82.6-126.7h-64
	c-3.2,19.4-21.5,32.5-40.8,29.3s-32.5-21.5-29.3-40.8c3.2-19.4,21.5-32.5,40.8-29.3c11.7,1.9,21.7,9.6,26.6,20.3l51.1-0.1
	c-29-37.4-60-73.1-93-107.1l-104.1-0.1c-3.2,19.4-21.5,32.5-40.8,29.3c-19.4-3.2-32.5-21.5-29.3-40.8c3.2-19.4,21.5-32.5,40.8-29.3
	c11.7,1.9,21.6,9.5,26.6,20.3l86.2-0.2C1898.4,136.1,1590.1,0,1250,0c-92.5,0-184.7,10.2-274.9,30.4v207.1l96.7,96.7h176.9
	c3.8-19.3,22.5-31.9,41.8-28.1c19.3,3.8,31.9,22.5,28.1,41.8c-3.8,19.3-22.5,31.9-41.8,28.1c-11.7-2.3-21.4-10.2-26-21.2h-188.2
	l-87.5-87.6v223l74,73.1l-1.4,230.2c18.2,7.6,26.7,28.4,19.2,46.6c-7.6,18.2-28.4,26.7-46.6,19.2c-18.2-7.6-26.7-28.4-19.2-46.6
	c4.6-11,14.3-19,26-21.3l1.5-218.9l-77.1-73.8l-0.4-255.4l-0.1-0.1l0.1-0.1l-0.3-206.9C852.2,60.5,756.8,96.8,667,144.4l102.5,102.6
	c16-11.5,38.2-7.8,49.6,8.1c11.5,16,7.8,38.2-8.1,49.6c-16,11.5-38.2,7.8-49.6-8.1c-6.9-9.6-8.6-22.1-4.4-33.2l-109-108.7
	c-43.9,24.2-86.3,51.1-127,80.4l115.3,0.8l72.4,70.2c18.2-7.5,39,1.2,46.4,19.4c7.5,18.2-1.2,39-19.4,46.4
	c-18.2,7.5-39-1.2-46.4-19.4c-4.5-11-3.2-23.5,3.4-33.3l-64.5-62.2l-135.3-1c-61.2,46.8-117.9,99.1-169.5,156.3l-0.1,113.8
	c19.4,3.2,32.5,21.5,29.3,40.8c-3.2,19.4-21.5,32.5-40.8,29.3c-19.4-3.2-32.5-21.5-29.3-40.8c1.9-11.7,9.6-21.7,20.3-26.6l-0.2-92.9
	c-32.7,38.1-63.1,78.2-91,119.9l23.4,23.7l6.9,131.8c18.1,7.6,26.7,28.4,19.1,46.5c-7.6,18.1-28.4,26.7-46.5,19.1
	s-26.7-28.4-19.1-46.5c4.6-10.9,14.3-18.9,26-21.2l-6.9-120.6l-14.6-14.9c-45.9,71.2-84.3,147-114.8,226l279.2,0.1l124-124.6
	l212.4,0.3c8.1-17.9,29.2-25.8,47.1-17.6c17.9,8.1,25.8,29.2,17.6,47.1c-8.1,17.9-29.2,25.8-47.1,17.6
	c-10.8-4.9-18.4-14.9-20.3-26.6l-201.2,0.1l-103,103.8l216.3,0.2c8.1-17.9,29.2-25.8,47.1-17.6c17.9,8.1,25.8,29.2,17.6,47.1
	c-8.1,17.9-29.2,25.8-47.1,17.6c-10.8-4.9-18.4-14.9-20.3-26.6l-530.2,0.1c-19.9,54.5-36,110.4-48.1,167.2H110l148.8,148.8
	l-3.2,24.2l-153.6-153.6H25.1C9.4,1087.3,1.5,1168.6,1.6,1250c0,3.8,0,7.6,0.1,11.3h152v29.1h-53.4l118,118h66.3v24.2h-80.9
	L67.9,1292H2.3c3.1,95.5,17.1,190.3,41.8,282.5h324.7l116.6,132.9l197.7,1.6c3.8-19.3,22.5-31.9,41.8-28.1
	c19.3,3.8,31.9,22.5,28.1,41.8c-3.8,19.3-22.5,31.9-41.8,28.1c-11.7-2.3-21.4-10.2-26-21.2l-215.4-1.6l-109.3-128.7H51
	c23.8,82,56,161.3,96,236.7l44.7-45.5l1.6-89.6c-19.3-3.8-31.9-22.5-28.1-41.8c3.8-19.3,22.5-31.9,41.8-28.1s31.9,22.5,28.1,41.8
	c-2.3,11.7-10.2,21.4-21.2,26l-1.6,100.8l-54.8,55.8c35.6,64.3,76.9,125.4,123.2,182.4l3.8-167.3c-19.4-3.2-32.5-21.5-29.3-40.8
	c3.2-19.4,21.5-32.5,40.8-29.3c19.4,3.2,32.5,21.5,29.3,40.8c-1.9,11.7-9.6,21.7-20.3,26.6l-4,194.4c30.9,36.2,63.9,70.6,98.7,103.1
	h188.9l88.5-88.5c-11-16.3-6.6-38.4,9.7-49.4c16.3-11,38.4-6.6,49.4,9.7c11,16.3,6.6,38.4-9.7,49.4c-9.9,6.6-22.4,7.9-33.4,3.4
	l-96.4,96.5H422.9c18.2,16.1,36.9,31.8,56.1,46.9h169.5l88.5-88.5c-11-16.3-6.7-38.4,9.6-49.4c16.3-11,38.4-6.7,49.4,9.6
	c11,16.3,6.7,38.4-9.6,49.4c-9.9,6.7-22.4,7.9-33.4,3.4l-96.4,96.5H506.5c207.7,154.4,465,245.8,743.5,245.8
	c288.6,0,554.3-98,765.7-262.7h-43.5c-3.2,19.4-21.5,32.5-40.9,29.3c-19.4-3.2-32.5-21.5-29.3-40.9s21.5-32.5,40.9-29.3
	c11.7,1.9,21.7,9.6,26.6,20.3l72.1-0.1c7.7-6.4,15.4-12.8,23-19.3l-99.8-100.6l-201.2-0.1c-3.2,19.4-21.5,32.5-40.8,29.3
	c-19.4-3.2-32.5-21.5-29.3-40.8c3.2-19.4,21.5-32.5,40.8-29.3c11.7,1.9,21.7,9.6,26.6,20.3l212.4-0.3l107.1,107.6
	c82-73.1,154-156.7,214.2-248.5L1818.6,1934.9z M588.6,598.3c-15.5,0-29.3-10.1-34-24.9l-88-0.1c-3.2,19.4-21.5,32.5-40.8,29.3
	c-19.4-3.2-32.5-21.5-29.3-40.8c3.2-19.4,21.5-32.5,40.8-29.3c11.7,1.9,21.7,9.6,26.6,20.3l90.6-0.3c5.6-18.8,25.5-29.5,44.3-23.9
	s29.5,25.5,23.9,44.3C618.2,588,604.3,598.3,588.6,598.3L588.6,598.3z M717.3,557.4c-19.7,0-35.6-15.9-35.6-35.6
	c0-7.1,2.1-14,6-19.8l-64.5-62.2l-279.6-1.2v-21l287.7,1.2l72.4,70.1c18.2-7.5,39,1.2,46.4,19.4c7.5,18.2-1.2,39-19.4,46.4
	C726.5,556.5,722,557.4,717.3,557.4L717.3,557.4z M378.1,1814.2c13.4-14.3,36-15,50.3-1.6c3.4,3.2,6.1,7,8,11.2l90.6-0.3
	c5.6-18.8,25.5-29.5,44.3-23.9c18.8,5.6,29.5,25.5,23.9,44.3s-25.5,29.5-44.3,23.9c-11.3-3.4-20.2-12.2-23.7-23.4l-88-0.1
	c-3.2,19.4-21.5,32.5-40.9,29.4c-19.4-3.2-32.5-21.5-29.4-40.9C370.1,1825.9,373.3,1819.4,378.1,1814.2z M699.5,1907
	c-4.6,0-9.2-0.9-13.5-2.7l-72.4,70.1l-287.7,1.2v-21.1l279.7-1.2l64.5-62.3c-10.9-16.3-6.6-38.4,9.7-49.4
	c16.3-10.9,38.4-6.6,49.4,9.7c10.9,16.3,6.6,38.4-9.7,49.4C713.5,1904.8,706.6,1906.9,699.5,1907L699.5,1907z M731.8,955.1
	c13.7,20.4,8.3,48.1-12.2,61.8s-48.1,8.3-61.8-12.2c-13.7-20.4-8.3-48.1,12.2-61.8c12.3-8.3,28-9.9,41.7-4.2l47.4-37.7l12.1,24.3
	L731.8,955.1z M2330.9,1463c-3.3,3.3-7.2,5.9-11.4,7.7l1.3,140.6l-104.1,87.9l-4,107.6c19.3,3.8,31.9,22.5,28.1,41.8
	c-3.8,19.3-22.5,31.9-41.8,28.1c-19.3-3.8-31.9-22.5-28.1-41.8c2.3-11.7,10.2-21.4,21.2-26l4-118.9l104.1-87.9l-1.3-129.3
	c-19.3-3.8-31.8-22.5-28-41.8c3.8-19.3,22.5-31.8,41.8-28c19.3,3.8,31.8,22.5,28,41.8C2339.3,1451.6,2335.9,1458,2330.9,1463
	L2330.9,1463z M2410.4,1316.8v21l-586.9,1.2l-95.2,92.9c11,16.3,6.6,38.4-9.7,49.4c-16.3,11-38.4,6.6-49.4-9.7
	c-11-16.3-6.6-38.4,9.7-49.4c9.9-6.6,22.4-7.9,33.4-3.4l103.2-100.9L2410.4,1316.8z M1663.9,210.2c13.9-13.9,36.4-13.9,50.3,0
	c13.9,13.9,13.9,36.4,0,50.3c-5,5-11.4,8.4-18.3,9.7l1.6,209.3l87,87l0.4,248.4l15.1,15.1l-14.9,14.9l-0.2-0.2l0.3,212.8H1761V820.8
	l-92-92l-186.6-1.6c-3.8,19.3-22.5,31.9-41.8,28.1c-19.3-3.8-31.9-22.5-28.1-41.8c3.8-19.3,22.5-31.9,41.8-28.1
	c11.7,2.3,21.4,10.2,26,21.2l197.9,1.6l82.8,82.8v-217l-84.1-85.3l-1.6-220.5c-18.1-7.6-26.7-28.4-19.1-46.6
	C1658,217.4,1660.6,213.5,1663.9,210.2L1663.9,210.2z M1220.9,229.6h-93.8l-44.7-51.2c-18.2,7.5-39-1.2-46.4-19.4
	c-7.5-18.2,1.2-39,19.4-46.4s39,1.2,46.4,19.4c4.5,11,3.2,23.5-3.4,33.3l36.8,43.2h307.3l75.4,83.5c18.2-7.5,39,1.2,46.4,19.4
	c7.5,18.2-1.2,39-19.4,46.4c-18.2,7.5-39-1.2-46.4-19.4c-4.5-11-3.2-23.5,3.4-33.3l-67.5-75.6H1220.9L1220.9,229.6z M1212.3,716.4
	c19.7,0,35.7,16,35.7,35.8c0,7.1-2.1,14-6.1,19.9l54.5,53.9h229.7v21.1h-237.8l-62.5-61.8c-18.3,7.5-39.1-1.3-46.6-19.5
	c-7.5-18.3,1.3-39.1,19.5-46.6C1203.1,717.4,1207.7,716.5,1212.3,716.4L1212.3,716.4z M1358.1,1907.4c3.2-3.4,7-6.1,11.2-8.1
	l-0.3-214l20.9,0.4l-0.1,210.9c19.4,3.2,32.5,21.5,29.4,40.9c-3.2,19.4-21.5,32.5-40.9,29.4c-19.4-3.2-32.5-21.5-29.4-40.9
	C1350,1919,1353.2,1912.5,1358.1,1907.4L1358.1,1907.4z M1172.4,1460.2v-22.6h176.3v22.6H1172.4z M900,1450.1
	c-19.6,0-35.6-16-35.5-35.6c0-19.6,16-35.6,35.6-35.5c4.6,0,9.2,0.9,13.5,2.7l61.1-57.2h278.7l98.7-93.8l8.1,19.4l-97.7,94.2
	l-278-0.5l-54.8,50.9c10.9,16.3,6.5,38.4-9.8,49.3C913.8,1447.9,906.9,1450,900,1450.1L900,1450.1z M950.9,2373.9h-24.2l0.3-221.8
	l-0.1-0.1l0.1-0.1l0.3-255.4l77.1-73.9l-1.4-218.9c-19.3-3.8-31.8-22.5-28-41.8c3.8-19.3,22.5-31.8,41.8-28
	c19.3,3.8,31.8,22.5,28,41.8c-2.3,11.6-10.2,21.4-21.2,25.9l1.4,230.2l-74,73.1v223l87.5-87.5h188.1c7.6-18.1,28.4-26.7,46.5-19.1
	c18.1,7.6,26.7,28.4,19.1,46.5c-7.6,18.1-28.4,26.7-46.5,19.1c-10.9-4.6-18.9-14.3-21.2-26h-177l-96.7,96.7L950.9,2373.9z
	 M1495.8,2123.2c-4.6,0-9.2-0.9-13.5-2.7l-44.7,51.2h-307.3l-67.5,75.6c11,16.3,6.6,38.4-9.7,49.4c-16.3,11-38.4,6.6-49.4-9.7
	c-11-16.3-6.6-38.4,9.7-49.4c9.9-6.6,22.4-7.9,33.4-3.4l75.4-83.5h307.2l36.8-43.2c-11-16.3-6.6-38.4,9.7-49.4
	c16.3-11,38.4-6.6,49.4,9.7c11,16.3,6.6,38.4-9.7,49.4C1509.8,2121.1,1502.9,2123.2,1495.8,2123.2L1495.8,2123.2z M1627.6,1419.3
	c-19.6,0-35.6-15.9-35.6-35.6s15.9-35.6,35.6-35.6c4.6,0,9.2,0.9,13.5,2.7l103.2-100.9l287.7-1.2v21l-279.6,1.2l-95.2,92.9
	c10.9,16.3,6.5,38.4-9.8,49.3C1641.5,1417.2,1634.7,1419.3,1627.6,1419.3L1627.6,1419.3z"/>
<path class="st2" d="M753,2157.7c18.2,7.5,39-1.2,46.4-19.4c7.5-18.2-1.2-39-19.4-46.4c-18.2-7.5-39,1.2-46.4,19.4
	c-4.5,11-3.2,23.5,3.4,33.3l-88.5,88.5H478.9c9.1,7.1,18.2,14.1,27.5,21h150.1L753,2157.7z M213.9,1698.8
	c18.1-7.6,26.7-28.4,19.1-46.5c-7.6-18.1-28.4-26.7-46.5-19.1s-26.7,28.4-19.1,46.5c4.6,10.9,14.3,18.9,26,21.2l-1.6,89.6L147,1836
	c3.4,6.5,6.9,12.9,10.5,19.4l54.8-55.7L213.9,1698.8z M692.6,319.3c-11,16.3-6.6,38.4,9.7,49.4s38.4,6.6,49.4-9.7
	c11-16.3,6.6-38.4-9.7-49.4c-9.9-6.6-22.4-7.9-33.4-3.4l-72.4-70.2l-115.3-0.8c-9.4,6.8-18.8,13.8-28,20.8l135.3,1L692.6,319.3z
	 M717.3,486.3c-4.6,0-9.2,0.9-13.5,2.6l-72.4-70.2l-287.7-1.2v21l279.6,1.2l64.5,62.2c-11,16.3-6.6,38.4,9.7,49.4
	c16.3,11,38.4,6.6,49.4-9.7c11-16.3,6.6-38.4-9.7-49.4C731.3,488.4,724.4,486.3,717.3,486.3L717.3,486.3z M699.5,1835.8
	c-19.6,0-35.6,16-35.5,35.6c0,7,2.1,13.9,6,19.7l-64.5,62.3l-279.7,1.2v21l287.7-1.2l72.4-70.1c18.2,7.4,39-1.3,46.4-19.4
	c7.4-18.2-1.3-39-19.4-46.4C708.7,1836.7,704.2,1835.8,699.5,1835.8z M1785.1,844.9l14.9-14.9l-15.1-15.1l0.1,29.8L1785.1,844.9
	L1785.1,844.9z M1678.2,708.3l-197.9-1.6c-7.6-18.1-28.4-26.7-46.5-19.1c-18.1,7.6-26.7,28.4-19.1,46.5
	c7.6,18.1,28.4,26.7,46.5,19.1c10.9-4.6,18.9-14.3,21.2-25.9l186.6,1.6l92,92v-29.7L1678.2,708.3z M1212.3,787.9
	c4.7,0,9.3-0.9,13.6-2.7l62.5,61.8h237.8v-21.1h-229.7l-54.5-53.9c11-16.4,6.6-38.6-9.8-49.6c-16.4-11-38.6-6.6-49.6,9.8
	c-11,16.4-6.6,38.6,9.8,49.6C1198.2,785.8,1205.2,787.9,1212.3,787.9L1212.3,787.9z"/>
<path class="st2" d="M1675.3,268.2l1.6,220.5L1761,574v483.5h24.2l-0.3-212.8V815l-0.4-248.4l-87-87l-1.6-209.3
	c19.3-3.8,31.8-22.5,28-41.7c-3.8-19.3-22.5-31.8-41.7-28c-19.3,3.8-31.8,22.5-28,41.7C1656.4,253.9,1664.4,263.6,1675.3,268.2
	L1675.3,268.2z M2033.9,733.4c11-16.3,6.6-38.4-9.7-49.4c-16.3-11-38.4-6.6-49.4,9.7c-11,16.3-6.6,38.4,9.7,49.4
	c9.9,6.6,22.4,7.9,33.4,3.4l108,89.6l302.8,1.2c-2.5-7-5-14.1-7.6-21l-287.1-1.1L2033.9,733.4z"/>
<path class="st2" d="M2411.4,898.6l-327.5-1.2l-114.6-94.6c11-16.3,6.6-38.4-9.7-49.4c-16.3-11-38.4-6.6-49.4,9.7
	c-11,16.3-6.6,38.4,9.7,49.4c9.9,6.6,22.4,7.9,33.4,3.4l122.6,102.5l334.8,1.2C2408.9,912.7,2409.1,905.4,2411.4,898.6L2411.4,898.6
	z M2044.4,550.2c10.9-16.3,6.6-38.4-9.7-49.3c-16.3-10.9-38.4-6.6-49.3,9.7c-10.9,16.3-6.6,38.4,9.7,49.3c9.8,6.6,22.3,7.9,33.3,3.4
	l98,88.4l220.8,1.5c-3.8-7.1-7.8-14.1-11.8-21.1l-200.9-1.5L2044.4,550.2z M221.3,709.4c-19.3,3.8-31.9,22.4-28.1,41.7
	c3.8,19.3,22.4,31.9,41.7,28.1c19.3-3.8,31.9-22.4,28.1-41.7c-2.3-11.7-10.2-21.4-21.2-26l-6.9-131.8l-23.4-23.7
	c-4,6-7.9,12-11.8,18l14.8,14.8L221.3,709.4z M1495.8,2052.1c-19.7,0-35.6,15.9-35.6,35.6c0,7.1,2.1,14,6,19.8l-36.8,43.2h-307.2
	l-75.4,83.5c-18.2-7.5-39,1.2-46.4,19.4c-7.5,18.2,1.2,39,19.4,46.4s39-1.2,46.4-19.4c4.5-11,3.2-23.5-3.4-33.3l67.5-75.6h307.2
	l44.7-51.2c18.2,7.5,39-1.2,46.4-19.4c7.5-18.2-1.2-39-19.4-46.4C1505.1,2053,1500.4,2052.1,1495.8,2052.1L1495.8,2052.1z
	 M1434.4,229.6l67.5,75.6c-11,16.3-6.6,38.4,9.7,49.4s38.4,6.6,49.4-9.7c11-16.3,6.6-38.4-9.7-49.4c-9.9-6.6-22.4-7.9-33.4-3.4
	l-75.4-83.5h-307.3l-36.8-43.2c11-16.3,6.6-38.4-9.7-49.4c-16.3-11-38.4-6.6-49.4,9.7s-6.6,38.4,9.7,49.4c9.9,6.6,22.4,7.9,33.4,3.4
	l44.7,51.2L1434.4,229.6L1434.4,229.6z M2280.6,1412.7c-13.9,13.9-13.9,36.4,0,50.3c5,5,11.3,8.4,18.3,9.7l1.3,129.3l-104.1,87.9
	l-4,118.9c-18.1,7.6-26.7,28.4-19.1,46.5c7.6,18.1,28.4,26.7,46.5,19.1c18.1-7.6,26.7-28.4,19.1-46.5c-4.6-10.9-14.3-18.9-25.9-21.2
	l4-107.6l104.1-87.9l-1.3-140.6c18.1-7.6,26.7-28.4,19.1-46.5c-7.6-18.1-28.4-26.7-46.5-19.1
	C2287.8,1406.8,2283.9,1409.4,2280.6,1412.7L2280.6,1412.7z M693.2,2089.8c18.2,7.4,38.9-1.3,46.3-19.5c7.4-18.2-1.3-38.9-19.5-46.3
	c-18.2-7.4-38.9,1.3-46.3,19.5c-4.5,11-3.2,23.5,3.4,33.3l-88.5,88.5H399.7c7.6,7.1,15.3,14.1,23.1,21h173.8L693.2,2089.8z"/>
<path class="st2" d="M1224.4,2060.9c3.8,19.3,22.5,31.8,41.7,28c19.3-3.8,31.8-22.5,28-41.7c-3.8-19.3-22.5-31.8-41.7-28
	c-11.6,2.3-21.4,10.2-25.9,21.2h-188.1l-87.5,87.5v-223l74-73.1l-1.4-230.2c18.2-7.6,26.7-28.4,19.2-46.6
	c-7.6-18.2-28.4-26.7-46.6-19.2c-18.2,7.6-26.7,28.4-19.2,46.6c4.6,11,14.3,19,26,21.2l1.4,218.9l-77.1,73.9l-0.3,255.4l-0.1,0.1
	l0.1,0.1l-0.3,221.8h24.2v-216.3l96.7-96.7L1224.4,2060.9z M951,243.2l0.1,0.1l0.3,255.4l77.1,73.8l-1.4,218.9
	c-19.3,3.8-31.8,22.5-28,41.8c3.8,19.3,22.5,31.8,41.8,28c19.3-3.8,31.8-22.5,28-41.8c-2.3-11.6-10.2-21.4-21.2-25.9l1.4-230.2
	l-74-73.1v-223l87.5,87.5h188.2c7.6,18.1,28.4,26.7,46.5,19.1c18.1-7.6,26.7-28.4,19.1-46.5c-7.6-18.1-28.4-26.7-46.5-19.1
	c-10.9,4.6-18.9,14.3-21.2,26h-176.9l-96.7-96.6V30.4c-8.1,1.8-16.2,3.7-24.2,5.7l0.3,206.9L951,243.2z M1760.8,2076.1
	c-8.1-17.9-29.2-25.8-47.1-17.6c-17.9,8.1-25.8,29.2-17.6,47.1c8.1,17.9,29.2,25.8,47.1,17.6c10.8-4.9,18.4-14.9,20.4-26.6
	l201.2,0.1l99.8,100.6c5.3-4.6,10.6-9.2,15.8-13.8l-107.1-107.6L1760.8,2076.1z M1961.4,2205.6c-14.3-13.4-36.8-12.7-50.3,1.6
	c-13.4,14.3-12.7,36.8,1.6,50.3c14.3,13.4,36.8,12.7,50.3-1.6c4.8-5.1,8-11.6,9.2-18.6h43.5c8.7-6.8,17.3-13.7,25.9-20.7l-72.1,0.1
	C1967.5,2212.5,1964.8,2208.8,1961.4,2205.6L1961.4,2205.6z M1410,1956.1c13.4-14.3,12.7-36.8-1.6-50.3c-5.2-4.8-11.6-8-18.6-9.2
	l0.1-210.9l-20.9-0.4l0.3,214c-17.9,8.2-25.8,29.3-17.6,47.1c8.2,17.9,29.3,25.8,47.1,17.6C1403,1962.2,1406.8,1959.4,1410,1956.1
	L1410,1956.1z M316.2,1859.7c13.4-14.3,12.7-36.8-1.6-50.3c-14.3-13.4-36.8-12.7-50.3,1.6c-13.4,14.3-12.7,36.8,1.6,50.3
	c5.1,4.8,11.6,8,18.6,9.2l-3.8,167.3c6.6,8.2,13.4,16.3,20.3,24.3l4-194.4C309.2,1865.8,313,1863.1,316.2,1859.7z M2178.1,473.7
	c-14.3-13.5-36.8-12.7-50.3,1.6c-13.5,14.3-12.7,36.8,1.6,50.3c14.3,13.5,36.8,12.7,50.3-1.6c4.8-5.2,8-11.6,9.2-18.6h64
	c-5.2-6.9-10.4-13.8-15.7-20.7l-51.1,0.1C2184.2,480.6,2181.5,476.9,2178.1,473.7z M2029.3,345.9c-14.3-13.4-36.8-12.7-50.2,1.6
	c-13.4,14.3-12.7,36.8,1.6,50.2s36.8,12.7,50.2-1.6c4.8-5.1,8-11.6,9.1-18.5l104.1,0.1c-6.8-7-13.7-13.9-20.7-20.8l-86.2,0.2
	C2035.4,352.9,2032.7,349.1,2029.3,345.9L2029.3,345.9z M754.7,277c0.6,19.6,17,35.1,36.7,34.5c19.6-0.6,35.1-17,34.5-36.7
	c-0.6-19.6-17-35.1-36.7-34.5c-7.1,0.2-13.9,2.5-19.7,6.7L667,144.4c-6.4,3.4-12.7,6.8-19.1,10.4l109,108.7
	C755.3,267.8,754.5,272.4,754.7,277z M291.6,536.9c-13.5,14.3-12.7,36.8,1.6,50.3s36.8,12.7,50.3-1.6c13.5-14.3,12.7-36.8-1.6-50.3
	c-5.2-4.8-11.6-8-18.6-9.2l0.1-113.8c-7,7.8-13.9,15.7-20.8,23.6l0.2,92.9C298.6,530.8,294.8,533.5,291.6,536.9L291.6,536.9z
	 M1937.7,1789.6l-212.4,0.3c-8.1-17.9-29.2-25.8-47.1-17.6c-17.9,8.1-25.8,29.2-17.6,47.1c8.1,17.9,29.2,25.8,47.1,17.6
	c10.8-4.9,18.4-14.9,20.4-26.6l201.2,0l103,103.8l-216.3,0.1c-8.1-17.9-29.2-25.8-47.1-17.6c-17.9,8.1-25.8,29.2-17.6,47.1
	s29.2,25.8,47.1,17.6c10.8-4.9,18.4-14.9,20.4-26.6l475.9,0.1c4.5-6.9,9-13.9,13.4-20.8l-246.1,0.1L1937.7,1789.6z M616.5,839.3
	c13.4,14.3,36,15.1,50.3,1.6c14.3-13.4,15.1-36,1.6-50.3c-13.4-14.3-36-15.1-50.3-1.6c-3.4,3.2-6.1,7-8.1,11.3l-216.3-0.1l103-103.8
	l201.2-0.1c3.2,19.4,21.5,32.5,40.9,29.3c19.4-3.2,32.5-21.5,29.3-40.9s-21.5-32.5-40.9-29.3c-11.7,1.9-21.6,9.5-26.6,20.3
	l-212.4-0.3l-124,124.6L85,800c-2.7,6.9-5.3,13.9-7.8,20.8l530.2-0.1C608.4,827.7,611.6,834.2,616.5,839.3L616.5,839.3z M430,1862.9
	c4.8-5.1,8-11.6,9.2-18.6l88,0.1c5.9,18.7,25.8,29.2,44.6,23.3c18.7-5.9,29.2-25.8,23.3-44.6c-5.9-18.7-25.8-29.2-44.6-23.3
	c-11.3,3.5-20,12.4-23.4,23.7l-90.6,0.3c-8.1-17.9-29.2-25.8-47.1-17.6c-17.9,8.1-25.8,29.2-17.6,47.1c8.1,17.9,29.2,25.8,47.1,17.6
	C423,1869,426.8,1866.3,430,1862.9L430,1862.9z M588.6,527.2c-15.7,0-29.6,10.3-34.1,25.4l-90.6,0.3c-8.1-17.9-29.2-25.8-47.1-17.6
	s-25.8,29.2-17.6,47.1c8.1,17.9,29.2,25.8,47.1,17.6c10.8-4.9,18.4-14.9,20.4-26.6l88,0.1c5.9,18.7,25.9,29.2,44.6,23.3
	c18.7-5.9,29.2-25.9,23.3-44.6C617.9,537.2,604.2,527.2,588.6,527.2L588.6,527.2z M1712.3,1418.8c-18.2-7.5-39,1.2-46.4,19.4
	c-7.5,18.2,1.2,39,19.4,46.4c18.2,7.5,39-1.2,46.4-19.4c4.5-11,3.2-23.5-3.4-33.3l95.2-92.9l586.9-1.2v-21l-595,1.2L1712.3,1418.8z
	 M1697.9,1479.6c-15.2,0-27.5-12.3-27.5-27.5c0-15.2,12.3-27.5,27.5-27.5c15.2,0,27.5,12.3,27.5,27.5c0,0,0,0,0,0
	C1725.4,1467.3,1713.1,1479.6,1697.9,1479.6z M469.9,1728l215.4,1.6c7.6,18.1,28.4,26.7,46.5,19.1c18.1-7.6,26.7-28.4,19.1-46.5
	c-7.6-18.1-28.4-26.7-46.5-19.1c-10.9,4.6-18.9,14.3-21.2,25.9l-197.8-1.6l-116.6-132.8H44.1c2.2,8.3,4.5,16.5,6.9,24.7h309.6
	L469.9,1728z M699.6,1696.7c10.7-10.7,28.1-10.7,38.9,0c10.7,10.7,10.7,28.1,0,38.9c-10.7,10.7-28.1,10.7-38.9,0
	C688.9,1724.8,688.8,1707.5,699.6,1696.7C699.6,1696.7,699.6,1696.7,699.6,1696.7z"/>
<path class="st2" d="M1657.1,1363.9l95.2-92.9l279.6-1.2v-21l-287.7,1.2l-103.2,100.9c-18.2-7.5-39,1.2-46.4,19.4
	c-7.5,18.2,1.2,39,19.4,46.4c18.2,7.5,39-1.2,46.4-19.4C1665,1386.3,1663.8,1373.8,1657.1,1363.9L1657.1,1363.9z M1628.4,1411.7
	c-15.2,0-27.5-12.3-27.5-27.5c0-15.2,12.3-27.5,27.5-27.5c15.2,0,27.5,12.3,27.5,27.5c0,0,0,0,0,0
	C1655.9,1399.4,1643.6,1411.7,1628.4,1411.7C1628.4,1411.7,1628.4,1411.7,1628.4,1411.7z M929.4,1394.7l54.8-50.9l278,0.5l97.7-94.2
	l-8.1-19.4l-98.7,93.8H974.5l-61.1,57.2c-18.2-7.5-39,1.2-46.5,19.4c-7.5,18.2,1.2,39,19.4,46.5c18.2,7.5,39-1.2,46.5-19.4
	C937.3,1417.1,936.1,1404.5,929.4,1394.7L929.4,1394.7z M900.7,1442.4c-15.2,0-27.5-12.3-27.5-27.5c0-15.2,12.3-27.5,27.5-27.5
	c15.2,0,27.4,12.3,27.5,27.4C928.2,1430.1,915.9,1442.4,900.7,1442.4C900.7,1442.4,900.7,1442.4,900.7,1442.4L900.7,1442.4z
	 M711.8,938.7c-22.8-9.3-48.8,1.5-58.1,24.3c-9.3,22.8,1.5,48.8,24.3,58.1s48.8-1.5,58.1-24.3c5.6-13.8,4.1-29.4-4.2-41.8l39.5-29.8
	L759.2,901L711.8,938.7z M695.9,1010.6c-16.7,0-30.2-13.5-30.2-30.2s13.5-30.2,30.2-30.2s30.2,13.5,30.2,30.2
	C726.1,997.1,712.6,1010.6,695.9,1010.6C695.9,1010.7,695.9,1010.7,695.9,1010.6L695.9,1010.6z M203.7,1432.7h80.9v-24.2h-66.3
	l-118-118.1h53.4v-29.1H1.6c0.1,10.3,0.3,20.5,0.6,30.7h65.6L203.7,1432.7z M255.5,1161.1l3.2-24.2L110,988.1H29
	c-1.4,6.5-2.7,12.9-4,19.4h76.8L255.5,1161.1z M2411.4,898.6c-6.5,19.5,4,40.6,23.5,47.1c8.5,2.8,17.8,2.5,26-0.9
	c-6-24-12.7-47.7-20.1-71.1C2427.2,875.8,2415.8,885.4,2411.4,898.6z M1172.4,1437.6h176.3v22.6h-176.3L1172.4,1437.6z"/>
<path class="st3" d="M1480.7,776.2v186H1326v761.6h868.4V776.2H1480.7z M1992.8,1503.9h-465.3V996.1h465.3V1503.9z"/>
<path class="st4" d="M923.4,1539.4v184.3h-241c0,0-243.4,3.2-385.8-215.9c-75.6-116.5-98.6-259.5-63.3-393.9
	C268,981.9,364.5,825.5,620.9,776.1h564.4v176.4h-498c0,0-262.6,90.2-259.2,308c1.5,95.8,55.4,182.6,138.4,230.5
	c37.4,21.5,78.3,36.2,120.8,43.6L923.4,1539.4z"/>
<path class="st4" d="M687.3,1161.1v173H1001v389.7h184.4v-562.7H687.3z"/>
</svg>
