<?xml version="1.0" encoding="utf-8"?>
<!-- Generator: Adobe Illustrator 27.7.0, SVG Export Plug-In . SVG Version: 6.00 Build 0)  -->
<svg version="1.1" id="Layer_1" xmlns="http://www.w3.org/2000/svg" xmlns:xlink="http://www.w3.org/1999/xlink" x="0px" y="0px"
	 viewBox="0 0 500 500" style="enable-background:new 0 0 500 500;" xml:space="preserve">
<style type="text/css">
	.st0{fill:#5326EC;}
	.st1{fill:#FCFCFF;}
</style>
<circle class="st0" cx="250" cy="250" r="250"/>
<path class="st1" d="M455.1,255.2c-0.4,5.7-0.6,11.5-1.3,17.1c-7.7,60.2-36.1,108.3-85.7,143.5c-37.1,26.3-78.9,38.5-124.3,36.8
	c-52.6-1.9-97.8-21.5-135.7-57.8c-0.3-0.3-0.3-1.7,0-2c47.6-47.1,95.2-94.2,142.9-141.2c1.1-1,2.6-1.6,4.1-1.7
	c66.7,0.1,133.4,0.2,200,0.5L455.1,255.2z"/>
<path class="st1" d="M256.8,46.5c5.6,0.4,11.2,0.7,16.8,1.3c32.7,3.6,62.8,14.4,90.2,32.5c0.2,0.1,0.4,0.3,0.5,0.5L346.9,98
	c-3.8,3.8-7.6,7.5-11.4,11.2c-0.2,0.2-0.5,0.2-0.8,0.3c-0.3,0-0.6,0-0.8-0.1c-27.7-16-57.5-23.3-89.5-22.1
	c-71.5,2.7-134.1,52.9-151.5,122c-10.8,42.8-5,83.5,16.7,122c0.2,0.4,0.2,1.2,0,1.4c-9.5,9.5-19.1,19-28.7,28.4
	c-0.1,0.1-0.2,0.2-0.4,0.3c-0.9-1.4-1.8-2.7-2.6-4.1c-23.4-38-33.7-79.2-30.1-123.7c7.4-92.5,76.9-168.1,169-183.9
	c9.3-1.6,18.8-2,28.3-2.9l1.9-0.2L256.8,46.5z"/>
<path class="st1" d="M359.7,169.4c0.1-8.4,3-16.6,8.5-23.1c5.4-6.5,12.9-10.9,21.3-12.6c8.3-1.6,17-0.3,24.4,3.7
	c7.5,4,13.3,10.5,16.5,18.3c3.2,7.8,3.6,16.5,1.1,24.6c-2.5,8.1-7.7,15-14.8,19.7c-7.1,4.7-15.6,6.8-24,5.9
	c-8.4-0.8-16.3-4.6-22.3-10.6c-3.4-3.4-6.1-7.5-7.9-11.9C360.6,179,359.7,174.2,359.7,169.4z"/>
</svg>
