<?xml version="1.0" encoding="utf-8"?>
<!-- Generator: Adobe Illustrator 27.7.0, SVG Export Plug-In . SVG Version: 6.00 Build 0)  -->
<svg version="1.1" id="Layer_1" xmlns="http://www.w3.org/2000/svg" xmlns:xlink="http://www.w3.org/1999/xlink" x="0px" y="0px"
	 viewBox="0 0 500 500" style="enable-background:new 0 0 500 500;" xml:space="preserve">
<style type="text/css">
	.st0{fill-rule:evenodd;clip-rule:evenodd;}
</style>
<path class="st0" d="M494.8,250c0,138.1-109.6,250-244.8,250C114.8,500,5.2,388.1,5.2,250C5.2,111.9,114.8,0,250,0
	C385.2,0,494.8,111.9,494.8,250z M384.7,251.8l35-50h-50.7l-35,50l36.7,50c-28,64.3-103.2,94.6-167.9,66.1
	c-31.5-14.3-56-39.3-68.2-71.4c-12.2-32.1-10.5-66.1,1.7-96.4c28-64.3,103.2-94.6,167.9-66.1c21,8.9,38.5,23.2,50.7,39.3h56
	C381.2,110.7,318.2,75,253.5,75c-24.5,0-50.7,5.4-75.2,17.9c-42,19.6-75.2,55.4-89.2,100c-15.7,44.6-12.2,91.1,7,132.1
	c42,87.5,146.9,123.2,232.6,82.1c22.7-10.7,42-25,57.7-44.6c15.7-17.9,28-39.3,35-62.5L384.7,251.8z M251.8,251.8l36.7,48.2h50.7
	l-35-48.2l35-50h-50.7L251.8,251.8z"/>
</svg>
