<?xml version="1.0" encoding="utf-8"?>
<!-- Generator: Adobe Illustrator 27.0.1, SVG Export Plug-In . SVG Version: 6.00 Build 0)  -->
<svg version="1.1" id="gns" xmlns="http://www.w3.org/2000/svg" xmlns:xlink="http://www.w3.org/1999/xlink" x="0px" y="0px"
	 viewBox="0 0 500 500" style="enable-background:new 0 0 500 500;" xml:space="preserve">
<style type="text/css">
	.st0{fill:url(#SVGID_1_);}
	.st1{fill:url(#SVGID_00000127032147991801372070000006592886219854216076_);}
	.st2{fill:url(#SVGID_00000026134338868283317080000017903626234133478326_);}
	.st3{fill:url(#SVGID_00000169553548801556426550000000644913453747120551_);}
</style>
<linearGradient id="SVGID_1_" gradientUnits="userSpaceOnUse" x1="176.0718" y1="303.9579" x2="176.0718" y2="156.1618">
	<stop  offset="0" style="stop-color:#56DDB0"/>
	<stop  offset="1" style="stop-color:#156476"/>
</linearGradient>
<path class="st0" d="M225.1,156.2c56.6,0,89.3,11.7,108.1,24c-9.7-3.5-21-3.1-31.2,2.8L107.3,296c-9.3,5.4-19.4,8-29.5,8
	c-10.7,0-21.2-2.9-30.4-8.4c-8.3-5-15.4-12-20.6-21c-5.4-9.4-8-19.8-7.9-29.9c0.2-20,10.7-39.5,29.2-50.3l16-9.3
	C105.8,170.8,163.5,156.2,225.1,156.2z"/>
<linearGradient id="SVGID_00000070103837424897612920000015122969085687116216_" gradientUnits="userSpaceOnUse" x1="178.6717" y1="251.133" x2="273.1861" y2="87.4293">
	<stop  offset="0.3245" style="stop-color:#66F4AF"/>
	<stop  offset="1" style="stop-color:#24637F"/>
</linearGradient>
<path style="fill:url(#SVGID_00000070103837424897612920000015122969085687116216_);" d="M357,206.5c-0.2-0.4-0.4-0.9-0.6-1.4
	c-3.3-11.9-12.3-20.9-23.3-24.9c-18.8-12.3-51.5-24-108.1-24c-61.5,0-119.3,14.7-160.9,28.9l155.7-90.6c7.7-0.8,15.8-1.4,21.9-1.4
	c16.8,0,59.7-1.4,89.2,34.3C353.1,154.1,356.5,193.9,357,206.5z"/>
<linearGradient id="SVGID_00000093140474879590745000000015230114428816528558_" gradientUnits="userSpaceOnUse" x1="349.5156" y1="1.8868" x2="349.5156" y2="497.5019">
	<stop  offset="0" style="stop-color:#50FF93"/>
	<stop  offset="1" style="stop-color:#25C2F1"/>
</linearGradient>
<path style="fill:url(#SVGID_00000093140474879590745000000015230114428816528558_);" d="M479.1,81.2l-1,356.3
	c0,16.6-6.8,31.6-17.7,42.4c-10.9,10.9-25.9,17.6-42.5,17.6c-33.2,0-60.2-26.9-60.2-60.1V215.3c0-1.3-0.1-2.5-0.2-3.8
	c-0.1-1.2-0.3-2.4-0.5-3.6c0-0.4,0-0.8,0-1.3c-0.5-12.6-4-52.4-26-79.1c-29.5-35.8-72.4-34.3-89.2-34.3c-6.1,0-14.2,0.6-21.9,1.4
	l140.7-81.8C413.3-17.9,479.3,20.3,479.1,81.2z"/>
<linearGradient id="SVGID_00000130641110089872080000000010573733652032697477_" gradientUnits="userSpaceOnUse" x1="127.5498" y1="418.8749" x2="250.3298" y2="418.8749">
	<stop  offset="0" style="stop-color:#35DAC6"/>
	<stop  offset="1" style="stop-color:#30C4DB"/>
</linearGradient>
<path style="fill:url(#SVGID_00000130641110089872080000000010573733652032697477_);" d="M134.5,406.1l89.1-51.4
	c11.9-6.9,26.8,1.8,26.7,15.5l-0.5,98.7c-0.1,13.8-12.4,19-26.9,15.3c-37.2-9.3-66.4-27.1-88.5-52.2
	C125.9,422.2,124.6,411.8,134.5,406.1z"/>
</svg>
