<?xml version="1.0" encoding="utf-8"?>
<!-- Generator: Adobe Illustrator 27.5.0, SVG Export Plug-In . SVG Version: 6.00 Build 0)  -->
<svg version="1.1" id="Layer_1" xmlns="http://www.w3.org/2000/svg" xmlns:xlink="http://www.w3.org/1999/xlink" x="0px" y="0px"
	 viewBox="0 0 500 500" style="enable-background:new 0 0 500 500;" xml:space="preserve">
<style type="text/css">
	.st0{fill:#FFAF1D;}
</style>
<path class="st0" d="M293.2,500V294.5c49,5.2,82.2,27.8,82.2,27.8l31.2-35.2c-51.2-36.5-127.2-38-127.2-38L267,111
	c8.2-5.5,13.8-14.8,13.8-25.5c0-16.8-13.8-30.5-30.5-30.5s-30.5,13.8-30.5,30.5c0,10.8,5.5,20.2,13.8,25.5L221,249
	c0,0-76,1.2-127.2,38l31.2,35.2c0,0,33.2-22.5,82.2-27.8V500C15.7,358,0,151.8,0.5,83.2C0.5,69,9,56,22,50.2
	C60.2,33.2,147.5,0,250,0s189.8,33.2,228,50.2c13,5.8,21.5,18.8,21.5,33C500,151.8,484.2,358,293.2,500z"/>
</svg>
