<svg xmlns="http://www.w3.org/2000/svg" viewBox="0 0 2000 1536"><g fill="#56428e" transform="translate(0-240)"><path d="M522.67,240H918.51c-47.6,75-76.82,157.82-75,247.57,117.79,1.2,235.88,1.2,353.67,0,1.51-89.15-22.59-174.38-74.11-247.57h398.55c-27.41,57.22-74.11,110.23-69.59,177.39-1.81,300.27.6,600.85-.3,901.12,39.16,0,78.63,0,118.09.3,28.92-56.92,54.53-115,75-175.28,118.39,3,237.39-3.31,355.17,12.35-116.58,100-177.44,242.15-253.35,371.65-301.25.6-602.5-.9-904.05.9-14.16,109.33,53.62,184.62,132.25,247.57H466c44.28-58.13,133.45-95.47,124.12-180.71,3-290.33,0-581,.9-871.6H849.22v178.9h342.52V697.49q-357.43,0-715.17,0-89,155.41-177.74,310.51,88.57,155.41,178,310.51h88v209h-269C197.62,1354.05,95.8,1182.68,0,1008v-.3C96.1,833.32,198.22,661.95,295.83,488.47c100.32,0,200.63,0,300.95-.9.6-88.85-23.8-173.78-74.11-247.57m326.56,873.41v205.1h342.52v-205.1Z"/><path d="M1477.93,488.47H1746c73.51,117.46,124.12,253,230.16,347,2.11,6.93,6,21.08,8.13,28-113.27,14.76-228,3.31-342.22,9-14.46-62.64-43.08-120.17-74.71-175.28-22.59,0-67.18.3-89.47.3Z"/><path d="m1201.08 1553.73c79.23.3 158.76 0 238-.3-1.81 100.59 69 162.94 138.58 222.57h-512.44c65.67-62 142.49-120.77 135.86-222.27"/></g></svg>