<svg xmlns="http://www.w3.org/2000/svg" viewBox="0 0 61.49 61.57"><defs><style>.cls-1{fill:#fff;}.cls-2{fill:#168dff;}</style></defs><title>hydro</title><g id="Layer_2" data-name="Layer 2"><g id="Layer_1-2" data-name="Layer 1"><circle class="cls-1" cx="30.79" cy="30.79" r="28.17"/><path class="cls-2" d="M32.35,0a30.78,30.78,0,1,0,29.1,32A30.85,30.85,0,0,0,32.35,0Zm-1.7,50.9c-9.9,0-17.5-10-15-19.6a28.65,28.65,0,0,1,3.9-8.3,92.17,92.17,0,0,1,9.9-12.5c.9-1,1.6-1,2.5-.1a79.36,79.36,0,0,1,11.2,14.7c1.8,3.3,3.2,6.7,3.1,10.5A16,16,0,0,1,30.65,50.94Z"/></g></g></svg>