<?xml version="1.0" encoding="utf-8"?>
<!-- Generator: Adobe Illustrator 26.0.1, SVG Export Plug-In . SVG Version: 6.00 Build 0)  -->
<svg version="1.1" id="Layer_1" xmlns="http://www.w3.org/2000/svg" xmlns:xlink="http://www.w3.org/1999/xlink" x="0px" y="0px"
	 viewBox="0 0 506.7 426.7" style="enable-background:new 0 0 506.7 426.7;" xml:space="preserve">
<style type="text/css">
	.st0{fill:#FF5CAA;}
	.st1{fill:none;stroke:#103849;stroke-width:10.667;stroke-linecap:round;stroke-linejoin:round;stroke-miterlimit:10;}
	.st2{fill:none;stroke:#103849;stroke-width:9.333;stroke-linejoin:round;stroke-miterlimit:10;}
	.st3{fill:none;stroke:#103849;stroke-width:18.667;stroke-linejoin:round;stroke-miterlimit:10;}
	.st4{fill:#F0F0F0;}
</style>
<path class="st0" d="M475.4,259.6c0,9.8-1.8,19.2-5.1,27.9c-11.3,29.6-39.9,50.6-73.4,50.6c-34.3,0-63.5-22-74.2-52.7
	c-63.4,4.6-99.7-23.8-114.8-77.8c-38.1-10.4-66.1-45.2-66.1-86.6c0-26.8,11.7-50.8,30.3-67.2c15.8-14,36.6-22.5,59.4-22.5
	c26.1,0,49.6,11.1,66,29c11-7.2,24.2-11.4,38.3-11.4c9.9,0,19.3,2,27.8,5.7c24.7,10.6,42,35,42.4,63.5c0,0.3,0,0.7,0,1l0,1.2v0
	c3.6-0.8,7.3-1.2,11.1-1.2c17.1,0,32.3,8.2,41.9,20.9h0c6.6,8.8,10.6,19.7,10.6,31.6c0,12.3-4.3,24.2-12.2,33.6
	c-0.6,0.7-1.2,1.4-1.9,2.1C467.8,221.2,475.4,239.5,475.4,259.6"/>
<g>
	<path class="st1" d="M334.9,114.7c-14.2,15.4-22.9,36.1-22.9,58.7c0,47.9,38.8,86.7,86.7,86.7c6.2,0,12.3-0.7,18.4-2 M227.7,86.7
		c2.2,31.3,28.3,56,60.1,56 M383.7,131.1c6.4-5.4,14.1-9.1,22.3-10.8 M297.5,60.3c-10.1,6.6-18.4,15.7-24,26.4"/>
	<path class="st2" d="M475.4,259.6c0,43.4-35.2,78.5-78.5,78.5c-34.3,0-63.5-22-74.2-52.7c-63.4,4.6-99.7-23.8-114.8-77.8
		c-38.1-10.4-66.1-45.2-66.1-86.6c0-49.5,40.2-89.7,89.7-89.7c26.1,0,49.6,11.1,66,29c11-7.2,24.2-11.4,38.3-11.4
		c38.8,0,70.2,31.4,70.2,70.2l0,1.2v0c3.6-0.8,7.3-1.2,11.1-1.2c29,0,52.4,23.5,52.4,52.5c0,13.8-5.3,26.4-14.1,35.8
		C467.8,221.2,475.4,239.5,475.4,259.6L475.4,259.6z"/>
	<path class="st1" d="M455.4,207.3c0,0-6.1-6.3-14.4-12.9 M221.3,349.7c-3.4-7.2-5.6-14.9-6.5-22.8"/>
</g>
<path class="st0" d="M375.2,295.1c2.8,7.7,4.2,15.8,4.2,24c0,42.1-37,76.2-82.6,76.2c-33.8,0-62.9-18.8-75.6-45.6
	c-10.5,7.1-23.1,11.3-36.6,11.3c-30.3,0-55.9-20.9-64-49.4c-5.7,1.4-11.6,2.1-17.5,2.1c-39.6,0-71.8-32.1-71.8-71.8
	c0-30.5,19-56.5,45.7-66.9c-1.1-4.4-1.6-8.9-1.6-13.5c0-36,33.4-65.1,74.6-65.1c23.7,0,44.8,9.6,58.5,24.6c11-5.9,23.6-9.3,37.1-9.3
	c41.8,0,75.6,32.4,75.6,72.3c0,0.9,0,1.9-0.1,2.8c34.5,6.3,60.7,38,60.7,76.1C381.9,274.5,379.5,285.3,375.2,295.1"/>
<g>
	<path class="st1" d="M348.5,259.6c12.3,9.1,21.7,21.4,26.8,35.5 M120.6,311.6c-1.7-6.1-2.6-12.4-2.6-19.1c0-27,15.2-50.3,37.2-61.5
		 M95.8,170.5c-6.5,0.7-12.8,2.2-18.7,4.5 M208.6,121L208.6,121 M208.6,121c-9.4,5.1-17.5,12-23.9,20.2"/>
	<path class="st2" d="M375.2,295.1c2.8,7.7,4.2,15.8,4.2,24c0,42.1-37,76.2-82.6,76.2c-33.8,0-62.9-18.8-75.6-45.6
		c-10.5,7.1-23.1,11.3-36.6,11.3c-30.3,0-55.9-20.9-64-49.4c-5.7,1.4-11.6,2.1-17.5,2.1c-39.6,0-71.8-32.1-71.8-71.8
		c0-30.5,19-56.5,45.7-66.9c-1.1-4.4-1.6-8.9-1.6-13.5c0-36,33.4-65.1,74.6-65.1c23.7,0,44.8,9.6,58.5,24.6
		c11-5.9,23.6-9.3,37.1-9.3c41.8,0,75.6,32.4,75.6,72.3c0,0.9,0,1.9-0.1,2.8c34.5,6.3,60.7,38,60.7,76.1
		C381.9,274.5,379.5,285.3,375.2,295.1L375.2,295.1z"/>
	<g>
		<path class="st1" d="M256.7,208.4c13.3-14,31.6-22.6,51.9-22.6c4.3,0,8.5,0.4,12.7,1.1 M316.4,277.8
			c-10.5,13.1-26.6,21.5-44.6,21.5c-31.5,0-57.1-25.6-57.1-57.1c0-13.2,4.5-25.9,12.9-36.1"/>
		<path class="st1" d="M297.1,327.5c0-11.2-2.8-21.8-7.8-31 M177.8,291c9.4-13.9,24.1-24,41.1-27.5 M76,242
			c7.2-2.9,14.9-4.3,22.7-4.3c12.5,0,24.7,3.8,34.9,10.9 M193.4,189.4c-3.9,1.1-8,1.8-12.3,1.8c-11.3,0-22.1-4.4-30.2-12.3
			 M380.7,186.6c6-4.5,13.2-6.9,20.7-6.9c2.1,0,4.1,0.2,6.2,0.5"/>
	</g>
	<path class="st3" d="M461.6,207.3c8.2-10.1,12.6-22.7,12.6-35.8c0-31.5-25.6-57.1-57.1-57.1c-2.2,0-4.4,0.1-6.6,0.4
		c-2.2-39.3-34.9-70.6-74.7-70.6c-13.3,0-26.2,3.5-37.5,10.1c-17.7-17.7-41.7-27.6-66.7-27.7c-42,0-77.6,27.5-89.8,65.5
		c-39.8,3.7-70.9,33.4-70.9,69.4c0,3.6,0.3,7.2,0.9,10.7c-27.5,12.3-45.1,39.3-45.1,69.7c0,42.2,34.3,76.5,76.5,76.5
		c4.8,0,9.6-0.4,14.3-1.3c10,28.8,37,48.6,67.1,48.6c12.2,0,24.2-3.2,34.8-9.3c14.9,26.7,44.7,43.6,77.4,43.6
		c39.8,0,73.5-24.9,83.9-58.8c5.2,1,10.6,1.6,16.1,1.6c45.9,0,83.2-37.3,83.2-83.2C480,240.5,473.5,222.1,461.6,207.3L461.6,207.3z"
		/>
</g>
<path class="st4" d="M231.5,0c-24.6,0-48.4,7.3-68.6,21.2c-17.4,12-31.3,28.2-40.4,47.1C78,79.2,46.2,114.9,44.2,157.3
	C16.7,176.4,0,207.9,0,241.9C0,298.2,45.3,344.1,101.3,345c17.7,29.1,49.2,47.3,83.3,47.3c8.7,0,17.2-1.2,25.5-3.4
	c21.5,23.9,53,37.8,86.7,37.8c22.9,0,45-6.5,64.1-18.7c15.5-10,27.9-23.1,36.6-38.5c60.3-0.3,109.2-49.5,109.2-109.9
	c0-18.6-4.7-36.7-13.6-52.9c5.1-11,7.7-23,7.7-35.1c0-22-8.5-42.8-23.8-58.5c-12.1-12.4-27.5-20.6-44.2-23.8
	c-5.6-18.3-16.5-34.8-31.2-47.4c-18.4-15.6-41.7-24.2-65.8-24.2c-11.2,0-22.5,1.9-33.1,5.6C282,8.2,257.1,0,231.5,0z M231.5,17.3
	c25,0,49.5,9.3,68.3,25.7c11.3-5.3,23.6-8.1,36-8.1c41.5,0,76.3,30.2,83,70.2c35.8,0.9,64.7,30.4,64.7,66.4c0,12.6-3.6,25-10.4,35.7
	c10.5,15.3,16.2,33.7,16.2,52.4c0,51-41.5,92.5-92.5,92.5c-3.3,0-6.6-0.2-9.9-0.5c-14.2,34.4-50.1,57.7-90.1,57.7
	c-32.9,0-63.1-15.4-80.8-40.8c-9.9,4.3-20.6,6.5-31.4,6.5c-31.5,0-60-18.9-73.1-47.7c-2.8,0.3-5.6,0.4-8.4,0.4
	c-47.3,0-85.8-38.5-85.8-85.8c0-31.4,17.2-60.2,44.3-75.1c-0.1-1.8-0.2-3.5-0.2-5.3c0-38.8,31.1-71.4,73.3-77.9
	C150.2,43.7,188.3,17.3,231.5,17.3"/>
</svg>
