<?xml version="1.0" encoding="utf-8"?>
<!-- Generator: Adobe Illustrator 27.0.1, SVG Export Plug-In . SVG Version: 6.00 Build 0)  -->
<svg version="1.1" id="ist" xmlns="http://www.w3.org/2000/svg" xmlns:xlink="http://www.w3.org/1999/xlink" x="0px" y="0px"
	 viewBox="0 0 500 500" style="enable-background:new 0 0 500 500;" xml:space="preserve">
<style type="text/css">
	.st0{fill:url(#SVGID_1_);}
</style>
<linearGradient id="SVGID_1_" gradientUnits="userSpaceOnUse" x1="197.8761" y1="462.5741" x2="291.826" y2="74.2481">
	<stop  offset="0" style="stop-color:#FEBC08"/>
	<stop  offset="0.3394" style="stop-color:#FF5400"/>
	<stop  offset="0.7079" style="stop-color:#FD8EEC"/>
	<stop  offset="1" style="stop-color:#295AFE"/>
</linearGradient>
<path class="st0" d="M377.2,254.2c-2.1-8.5-11.7-13.8-20.1-11.7c-2.1,1.1-5.3,2.1-6.4,3.2l0,0c-4.2,4.2-6.4,10.6-4.2,17
	c2.1,8.5,4.2,18,3.2,27.6v72.1c0,51.9-38.2,97.5-90.1,102.8c-55.1,5.3-103.9-35-109.2-90.1c0-3.2,0-6.4,0-9.5v-73.1
	c0-49.8,33.9-92.2,82.7-100.7c19.1-3.2,37.1-1.1,55.1,6.4c5.3,2.1,11.7,1.1,17-3.2l0,0c6.4-6.4,7.4-15.9,2.1-22.3
	c-2.1-2.1-3.2-3.2-6.4-4.2c-21.2-8.5-45.6-11.7-67.8-8.5c-67.8,8.5-116.6,66.8-116.6,133.5v68.9c0,74.2,60.4,137.8,134.6,136.7
	c72.1-1.1,130.4-60.4,130.4-132.5v-76.3C382.5,278.5,380.4,265.8,377.2,254.2z M148.3,177.9L148.3,177.9c5.3-4.2,6.4-10.6,5.3-17
	c-4.2-13.8-5.3-28.6-2.1-43.5C160,62.3,211.9,26.3,267,34.8s91.1,60.4,82.7,115.5c-7.4,44.5-43.5,78.4-88,83.7
	c-17,2.1-33.9,0-48.8-6.4c-5.3-2.1-11.7-1.1-17,3.2l0,0c-6.4,6.4-7.4,15.9-2.1,22.3c2.1,2.1,3.2,3.2,6.4,4.2
	c23.3,9.5,48.8,12.7,73.1,8.5c72.1-12.7,120.8-81.6,108.1-153.7S298.8-9.7,226.7,3s-120.8,81.6-107,153.7c1.1,4.2,2.1,9.5,3.2,13.8
	c2.1,8.5,11.7,13.8,20.1,10.6C145.1,181,147.2,178.9,148.3,177.9z"/>
</svg>
