<?xml version="1.0" encoding="utf-8"?>
<!-- Generator: Adobe Illustrator 26.2.1, SVG Export Plug-In . SVG Version: 6.00 Build 0)  -->
<svg version="1.1" id="kcs" xmlns="http://www.w3.org/2000/svg" xmlns:xlink="http://www.w3.org/1999/xlink" x="0px" y="0px"
	 viewBox="0 0 500 500" style="enable-background:new 0 0 500 500;" xml:space="preserve">
<style type="text/css">
	.st0{fill:#00D193;}
</style>
<path id="kcs_00000079470378008221028140000010426966028767678133_" class="st0" d="M166.2,250.1l148.1,148.1l93.5-93.5
	c16.7-15,42.3-14.4,58.2,1.5c15.9,15.9,16.6,41.5,1.5,58.2L344.1,487.8c-16.6,16.3-43.1,16.3-59.7,0l-178-178v105.8
	c0,23.4-18.9,42.3-42.3,42.3s-42.3-18.9-42.3-42.3V84.4c0-23.4,18.9-42.3,42.3-42.3s42.3,18.9,42.3,42.3v105.8l177.9-178
	c16.6-16.3,43.1-16.3,59.7,0l123.4,123.4c15,16.7,14.4,42.3-1.5,58.2c-15.9,15.9-41.5,16.6-58.2,1.5l-93.5-93.5L166.2,250.1z
	 M314.3,207.7L314.3,207.7c-17.1,0-32.6,10.3-39.1,26.1s-2.9,34,9.2,46.1s30.3,15.7,46.1,9.2c15.8-6.6,26.1-22,26.1-39.1
	c0-11.2-4.4-22-12.4-29.9C336.3,212.2,325.6,207.7,314.3,207.7L314.3,207.7z"/>
</svg>
