<svg xmlns="http://www.w3.org/2000/svg" viewBox="0 0 2000 2000"><defs><mask id="a" x="0" y="969.7" width="60.61" height="60.61" maskUnits="userSpaceOnUse"><path fill="#fff" d="M0 1030.3v-60.6h60.61v60.6H0"/></mask><mask id="b" x="969.7" y="1939.39" width="60.61" height="60.61" maskUnits="userSpaceOnUse"><path fill="#fff" d="M1030.3 2000h-60.6v-60.61h60.6V2000"/></mask></defs><g fill="#005fff"><path d="M1432.19 727.27H1303V598.1a83 83 0 0 1 83-83h46.19a83 83 0 0 1 83 83v46.2a83 83 0 0 1-83 82.97M697 727.27H567.8a83 83 0 0 1-83-83V598.1a82.94 82.94 0 0 1 83-83H614a83 83 0 0 1 83 83zM614 1515.15h-46.19a83 83 0 0 1-83-83V1386a83 83 0 0 1 83-83H697v129.15a83 83 0 0 1-83 83M1432.19 1515.15H1386a83 83 0 0 1-83-83V1303h129.16a83 83 0 0 1 83 83v46.2a83 83 0 0 1-83 83"/></g><g fill="#0ce"><path d="M1038.25 515.15h-46.2a83 83 0 0 1-83-83V386a83 83 0 0 1 83-83h46.19a83 83 0 0 1 83 83v46.2a83 83 0 0 1-83 83M1038.25 1727.27h-46.2a83 83 0 0 1-83-83v-46.2a83 83 0 0 1 83-83h46.19a83 83 0 0 1 83 83v46.2a83 83 0 0 1-83 83M1644.31 1121.21h-46.19a83 83 0 0 1-83-83V992a83 83 0 0 1 83-83h46.19a83 83 0 0 1 83 83v46.2a83 83 0 0 1-83 83M432.19 1121.21H386a83 83 0 0 1-83-83V992a83 83 0 0 1 83-83h46.19a83 83 0 0 1 83 83v46.2a83 83 0 0 1-83 83"/></g><g fill="#005fff"><path d="M1247 1811.07a60.59 60.59 0 1 1 79.17 32.78 60.61 60.61 0 0 1-79.17-32.78M610.69 265.61a60.59 60.59 0 1 1 79.17 32.78 60.61 60.61 0 0 1-79.17-32.78M1780.76 753a60.59 60.59 0 1 1 32.78-79.17 60.61 60.61 0 0 1-32.78 79.17M265.61 1389.31a60.59 60.59 0 1 1 32.78-79.17 60.61 60.61 0 0 1-32.78 79.17"/></g><g fill="#002dae"><path d="M1734.39 1389.31a60.59 60.59 0 1 1 79.17-32.79 60.58 60.58 0 0 1-79.17 32.79M219.24 753a60.59 60.59 0 1 1 79.17-32.79A60.58 60.58 0 0 1 219.24 753M1359 265.61a60.59 60.59 0 1 1-32.79-79.17 60.58 60.58 0 0 1 32.79 79.17M722.65 1811.07a60.59 60.59 0 1 1-32.79-79.17 60.58 60.58 0 0 1 32.79 79.17"/></g><g fill="#0099c0"><path d="M1645.24 1718.39a30.3 30.3 0 1 1 42.85 0 30.29 30.29 0 0 1-42.85 0M281.61 354.76a30.3 30.3 0 1 1 42.85 0 30.29 30.29 0 0 1-42.85 0M1688.09 354.76a30.3 30.3 0 1 1 0-42.85 30.29 30.29 0 0 1 0 42.85M324.46 1718.39a30.3 30.3 0 1 1 0-42.85 30.29 30.29 0 0 1 0 42.85"/></g><path d="M1969.7 1030.3a30.3 30.3 0 1 1 30.3-30.3 30.31 30.31 0 0 1-30.3 30.3" fill="#0029c0"/><g mask="url(#a)"><path d="M30.3 1030.3a30.3 30.3 0 1 1 30.3-30.3 30.31 30.31 0 0 1-30.3 30.3" fill="#0029c0"/></g><path d="M1030.3 30.3A30.3 30.3 0 1 1 1000 0a30.31 30.31 0 0 1 30.3 30.3" fill="#0029c0"/><g mask="url(#b)"><path d="M1030.3 1969.7a30.3 30.3 0 1 1-30.3-30.3 30.31 30.31 0 0 1 30.3 30.3" fill="#0029c0"/></g><path d="M1202.22 899h45.24a55.58 55.58 0 0 0 55.54-55.58V697h-146.41a55.59 55.59 0 0 0-55.59 55.56V798a101 101 0 1 1-202 0v-47.45A53.59 53.59 0 0 0 845.41 697H697v606h147.3a54.72 54.72 0 0 0 54.7-54.7V1202a101 101 0 0 1 101-101v.2a101 101 0 0 1 101 101v45.67a55.14 55.14 0 0 0 55.14 55.14H1303v-146.86a55.14 55.14 0 0 0-55.14-55.14H1202a101 101 0 0 1-101-101h.2a101 101 0 0 1 101-101" fill="#003ec5"/></svg>