<?xml version="1.0" encoding="utf-8"?>
<!-- Generator: Adobe Illustrator 27.0.1, SVG Export Plug-In . SVG Version: 6.00 Build 0)  -->
<svg version="1.1" id="kira" xmlns="http://www.w3.org/2000/svg" xmlns:xlink="http://www.w3.org/1999/xlink" x="0px" y="0px"
	 viewBox="0 0 500 500" style="enable-background:new 0 0 500 500;" xml:space="preserve">
<style type="text/css">
	.st0{fill:url(#SVGID_1_);}
</style>
<linearGradient id="SVGID_1_" gradientUnits="userSpaceOnUse" x1="25.6048" y1="478.2174" x2="473.3141" y2="30.5081">
	<stop  offset="0" style="stop-color:#0F90FF"/>
	<stop  offset="0.5008" style="stop-color:#7D23BA"/>
	<stop  offset="1" style="stop-color:#FF0476"/>
</linearGradient>
<path class="st0" d="M365.7,297.4c-6.7-6.7-18.4-6.7-25.1,0l-53.8,53.8l-49.5-49.5c-28.7-28.7-28.7-75.3,0-103.9L354.5,80.5
	c0.3-0.3,0.8-0.5,1.3-0.5h81.7L252.3,265.2l25.1,25.1L492.4,75.2l0,0c5.2-5.1,6.8-12.8,4-19.5l0,0c-2.8-6.7-9.3-11.1-16.6-11.1
	H355.8c-10,0-19.3,3.9-26.4,10.9L212.3,172.6c-38.7,38.7-42,99.6-10.1,142.2L97.7,419.2H37.6V81.8h63v279.8l35.5-33.7V78.2
	c0-17.6-14.3-31.9-31.9-31.9H34c-17.6,0-31.9,14.3-31.9,31.9v376.5h110.3l114-114l35.5,35.5l-77.6,77.6l49.7,0.5L353.2,335
	l83.3,83.3h-79.6l-21-21l-25.1,25.1l26.2,26.2c3.3,3.3,7.8,5.2,12.5,5.2l129.8,0c7.2,0,13.6-4.3,16.4-11c2.7-6.6,1.2-14.3-3.8-19.3
	L365.7,297.4z"/>
</svg>
