<?xml version="1.0" encoding="utf-8"?>
<!-- Generator: Adobe Illustrator 27.0.1, SVG Export Plug-In . SVG Version: 6.00 Build 0)  -->
<svg version="1.1" id="kiro" xmlns="http://www.w3.org/2000/svg" xmlns:xlink="http://www.w3.org/1999/xlink" x="0px" y="0px"
	 viewBox="0 0 500 500" style="enable-background:new 0 0 500 500;" xml:space="preserve">
<style type="text/css">
	.st0{fill:#1B5784;}
	.st1{fill:#4CC2F1;}
	.st2{fill:#348EBC;}
	.st3{fill:#26364B;}
</style>
<polygon class="st0" points="264.4,223.5 148.8,223.5 90.7,323.8 148.8,424.1 264.4,424.1 322.4,323.8 "/>
<polygon class="st1" points="322.4,323.8 264.4,223.5 148.8,223.5 206.3,323.8 "/>
<polygon class="st2" points="148.8,223.5 90.7,323.8 148.8,424.1 206.3,323.8 "/>
<path class="st3" d="M421.9,50.9L308.1,248.6l28.3,49.8l114.3-197.8L421.9,50.9z M393.1,1h-28.9L250.4,198.8h28.9l6.9,12l7.3,12.6
	L407.3,25.7L393.1,1z M278.2,1L163.9,198.8H221L335.3,1H278.2z"/>
<polygon class="st3" points="464.9,125.9 278.7,449.1 134.4,449.1 62.6,324.2 185.9,110.7 128.6,110.7 5.4,324.2 106.1,498.4 
	307,498.4 493.8,175.2 "/>
</svg>
