<?xml version="1.0" encoding="utf-8"?>
<!-- Generator: Adobe Illustrator 27.7.0, SVG Export Plug-In . SVG Version: 6.00 Build 0)  -->
<svg version="1.1" id="Layer_1" xmlns="http://www.w3.org/2000/svg" xmlns:xlink="http://www.w3.org/1999/xlink" x="0px" y="0px"
	 viewBox="0 0 500 500" style="enable-background:new 0 0 500 500;" xml:space="preserve">
<style type="text/css">
	.st0{fill:#E53935;}
</style>
<g>
	<path class="st0" d="M250,0c138.1,0,250,111.9,250,250S388.1,500,250,500C111.9,500,0,388.1,0,250S111.9,0,250,0z M250,23.3
		C124.8,23.3,23.3,124.8,23.3,250S124.8,476.7,250,476.7S476.7,375.2,476.7,250S375.2,23.3,250,23.3z"/>
	<path class="st0" d="M397,158v-21.2h-67.1c-3.6-13.7-7.2-25.8-11.1-36.9l-22.6,3.9c4.3,10.8,8.1,21.8,11.5,32.9h-71.1V158H397z
		 M225.1,315.5V180.2H192c6.9-10.1,13.8-22.5,20.6-37.5v-15.7h-54c2.9-6.5,5.6-13,8.2-19.9l-21-6.5c-9.8,32-25.2,57.7-45.8,77.6
		l4.9,23.1c4.2-3.9,8.5-7.8,12.4-12.1v126.2H225.1z M169.4,180.2h-43.9c8.9-10.9,16.9-22.4,23.9-34.6h41.3
		C183.5,158.7,176.6,170.4,169.4,180.2z M304.4,400c16.4,0,24.9-9.1,24.9-27.1V280h52.1v-92.6H253.9V280h52.4v87.4
		c0,8.1-3.3,12.4-9.8,12.4c-7.5,0-15.4-0.6-23.3-1.6l4.6,21.8L304.4,400L304.4,400z M161.9,238.3h-24.2v-38.8h24.2V238.3z
		 M204.8,238.3h-23.9v-38.8h23.9V238.3z M359.1,259.5h-82.9v-51.2h82.9V259.5z M204.8,296h-23.9v-38.8h23.9L204.8,296L204.8,296z
		 M161.9,296h-24.2v-38.8h24.2V296z M382.6,385l17.4-12.1c-8.8-20.9-21.3-45-37.7-72.7L345,310.7C360.7,337.7,373.5,362.5,382.6,385
		L382.6,385z M245.4,390.5c14.4-22.5,26.9-49.2,37.3-79.9l-19-9.1c-10.1,29.3-22.3,54.8-36,76.3L245.4,390.5L245.4,390.5z
		 M218.2,368.4l16-3.9c-4.6-15.6-9.2-29.4-14.4-41.1l-15.4,4.6C209.8,341.1,214.4,354.6,218.2,368.4z M183.5,387.3l17-2
		c-2-24.8-5.6-44.3-10.8-58.7l-16.4,2C178.6,342.3,181.9,361.9,183.5,387.3z M121,396.1c6.9-19.2,11.1-41.1,13.1-65.9l-17.7-2.3
		c-1.6,23.5-6.2,44.3-13.4,62.6C102.9,390.5,121,396.1,121,396.1z M148.5,392.2l17-2c-0.7-25.8-2.3-46.3-4.6-61.3l-15.7,2
		C146.8,345.2,147.8,365.8,148.5,392.2L148.5,392.2z"/>
</g>
</svg>
