<svg id="Layer_1" data-name="Layer 1" xmlns="http://www.w3.org/2000/svg" viewBox="0 0 119.85 119.85"><title>likecoin-like-logo</title><path d="M56,49a1.7,1.7,0,0,1-1.13-3,36.39,36.39,0,0,0,7.32-8.4c1.41-2.47,3.69-3.74,6.07-3.42a1.71,1.71,0,1,1-.46,3.38h0c-1.39-.19-2.32,1.15-2.66,1.73a39.23,39.23,0,0,1-8,9.26A1.67,1.67,0,0,1,56,49M27.28,77.87a1.71,1.71,0,0,1-1.1-3,48,48,0,0,1,6.28-4.19,1.7,1.7,0,0,1,1.52,3,45.53,45.53,0,0,0-5.61,3.76,1.71,1.71,0,0,1-1.09.4" style="fill:#28646e;fill-rule:evenodd"/><path d="M70.12,61.7c.68.63,1.47.36,2.19-.33,4.94-4.72,10.17-12.09,11.91-15.93a1.49,1.49,0,0,1,1.93-.95c.95.38.94,2,.08,3.79a60.5,60.5,0,0,1-11.7,16.34,1.3,1.3,0,0,0,0,1.93c.55.49,1.45.46,2.28-.39a68.39,68.39,0,0,0,7.31-8.53,1.6,1.6,0,0,1,1.64-.85c.82.16.95.95.7,1.9-.41,1.53-4.72,7.19-6.43,9.09-4.63,5.17-9.26,8-18.17,12.63C58.78,82,56.45,83.57,55,86c-1.29,2.16-1.67,2.87-1.8,3.14A2.18,2.18,0,0,0,54.19,92,2.1,2.1,0,0,0,57,91s0-.08,0-.11-.06,0,1.62-2.8a12.07,12.07,0,0,1,5.25-4.63C72.81,79.39,76.46,76.18,81.64,71a59.69,59.69,0,0,0,6.51-8.91c2.49-4.2,1.18-7.79-1.07-8.4a.29.29,0,0,1-.2-.35.24.24,0,0,1,0-.08,22.4,22.4,0,0,0,2.87-6.64c.44-2.17-.18-4.81-3.15-5.45a.29.29,0,0,1-.22-.34h0c.19-.69.38-1.56.5-2.13a4.84,4.84,0,0,0-3.3-5.84,5,5,0,0,0-4,.84.4.4,0,0,1-.52-.06,3.11,3.11,0,0,0-2.23-1c-1.87,0-3.7.54-5,3.41-1,2-2.39,4.81-6.58,9.46A72.4,72.4,0,0,1,52.56,56.18c-.59.38-1.41.29-1.32-.49C51.4,54.44,52.74,46,53,43.56c.37-4-1.79-5.86-4.22-6.18-2-.27-5,.3-6.68,4.85a102.54,102.54,0,0,0-4.72,14.09A43.32,43.32,0,0,0,37,73.71a1.68,1.68,0,0,1-.21,1.16,67.15,67.15,0,0,0-4.35,7.54,2.16,2.16,0,0,0,.89,2.74,2.11,2.11,0,0,0,2.85-.83l.06-.12c.64-1.35,2-3.9,2.48-5a36.5,36.5,0,0,0,1.74-3.82,5.74,5.74,0,0,0,0-3.35,34.74,34.74,0,0,1,.35-14,145.24,145.24,0,0,1,5-15.66c.51-1.26,1.23-1.65,2-1.58s2.1.41,1.71,3c-.71,4.59-1.71,10.42-2,12.39-.16,1-.34,3.21,1.43,4.24,1.39.8,2.92.36,4.6-.77a86.71,86.71,0,0,0,14.45-12.3c4.31-4.84,5.68-7.73,6.79-10.34a1.92,1.92,0,0,1,2.26-1c.46.13,1,.75.63,2.06-1,3.19-4.9,10.48-12.48,17.32a1.49,1.49,0,0,0-.3,2.17,1.41,1.41,0,0,0,2.09,0A50.25,50.25,0,0,0,79.37,41a30.32,30.32,0,0,0,1.49-3.82,1.69,1.69,0,0,1,1.78-1.34c.83.17,1.38,1,1.12,2.43a24.72,24.72,0,0,1-1.86,5.17c-2.18,4.64-6.8,10.85-11.78,16.18a1.41,1.41,0,0,0,0,2.05M39.31,38.6c.26-.23.16-.53.09-.76-.37-1.18-2.46-6.08-3-7.06a.75.75,0,0,0-1-.42,8,8,0,0,0-2,1.46,7.78,7.78,0,0,0-1.71,1.83.73.73,0,0,0,.29,1c.9.68,5.49,3.39,6.6,3.9.23.11.51.25.77,0Zm-10,1.65c-.57,0-.81.24-.88.63a8.17,8.17,0,0,0,.19,2.5,8.16,8.16,0,0,0,.67,2.41.75.75,0,0,0,1,.3c1-.42,5.74-2.93,6.76-3.61.21-.14.47-.31.41-.66h0M77.11,82c-.35,0-.45.33-.54.56-.42,1.15-1.73,6.32-1.9,7.43a.74.74,0,0,0,.54.94,8,8,0,0,0,2.51.08,8.24,8.24,0,0,0,2.47-.41.75.75,0,0,0,.4-1c-.31-1.08-2.3-6-2.87-7.11-.12-.22-.26-.5-.61-.48Zm3-2.39c-.17.31,0,.55.19.74.77,1,4.5,4.77,5.36,5.49a.75.75,0,0,0,1.09,0,8,8,0,0,0,1.36-2.1A7.78,7.78,0,0,0,89,81.4c0-.4-.1-.72-.65-.87-1.08-.3-6.34-1.16-7.57-1.23-.25,0-.56,0-.72.26ZM61.83,108.26a1.91,1.91,0,1,1-1.9-1.9,1.9,1.9,0,0,1,1.9,1.9m0-96.66a1.91,1.91,0,1,1-1.9-1.91,1.9,1.9,0,0,1,1.9,1.91m12.44,94.52a1.9,1.9,0,1,1-2.33-1.35,1.9,1.9,0,0,1,2.33,1.35h0m-25-93.37a1.9,1.9,0,1,1-3.68,1h0a1.9,1.9,0,0,1,3.68-1m36.48,88.08a1.9,1.9,0,1,1-3.29,1.9h0a1.9,1.9,0,0,1,3.29-1.9h0M37.41,17.12a1.9,1.9,0,1,1-3.27,1.94l0,0a1.9,1.9,0,0,1,3.29-1.9m58,75.64a1.9,1.9,0,0,1-2.69,2.69h0a1.9,1.9,0,0,1,2.69-2.69M27.1,24.41a1.9,1.9,0,1,1-2.69,2.69h0a1.9,1.9,0,0,1,2.69-2.69m75.63,58a1.9,1.9,0,0,1-1.86,3.32l0,0a1.9,1.9,0,0,1,1.9-3.3M19,34.12a1.9,1.9,0,1,1-1.9,3.29h0A1.9,1.9,0,0,1,19,34.12M107.1,70.6a1.9,1.9,0,0,1-.92,3.69l-.06,0a1.9,1.9,0,1,1,1-3.67m-93.36-25a1.91,1.91,0,1,1-1,3.69h0a1.91,1.91,0,0,1,1-3.68M108.26,58a1.9,1.9,0,1,1-1.9,1.9,1.9,1.9,0,0,1,1.9-1.9M11.6,58a1.9,1.9,0,1,1,0,3.8h0a1.9,1.9,0,0,1,0-3.8m94.52-12.45a1.9,1.9,0,0,1,1,3.66l-.05,0a1.9,1.9,0,0,1-1-3.68m-93.37,25a1.9,1.9,0,1,1,1,3.66h0a1.9,1.9,0,0,1-1-3.67m88.08-36.48a1.9,1.9,0,1,1,1.9,3.29h0a1.9,1.9,0,0,1-1.9-3.29M17.12,82.44A1.9,1.9,0,1,1,16.43,85a1.91,1.91,0,0,1,.69-2.58m75.64-58a1.9,1.9,0,1,1,0,2.69,1.91,1.91,0,0,1,0-2.69h0M24.41,92.76a1.9,1.9,0,1,1,0,2.69,1.89,1.89,0,0,1,0-2.69m58-75.64a1.9,1.9,0,1,1,.7,2.6,1.91,1.91,0,0,1-.7-2.6h0M34.12,100.83a1.9,1.9,0,1,1,3.31,1.86l0,0a1.9,1.9,0,0,1-3.29-1.9M70.6,12.75a1.9,1.9,0,0,1,3.7.88l0,.11a1.9,1.9,0,0,1-3.67-1m-25,93.37a1.9,1.9,0,1,1,3.69.93l0,0a1.9,1.9,0,0,1-3.67-1" style="fill:#28646e;fill-rule:evenodd"/><path d="M59.93,119.85h0A59.93,59.93,0,1,0,0,59.93,60,60,0,0,0,59.93,119.85Zm0-114.78A54.86,54.86,0,1,1,5.07,59.93,54.92,54.92,0,0,1,59.93,5.07Z" style="fill:#28646e"/></svg>