<?xml version="1.0" encoding="utf-8"?>
<!-- Generator: Adobe Illustrator 26.5.0, SVG Export Plug-In . SVG Version: 6.00 Build 0)  -->
<svg version="1.1" id="Layer_1" xmlns="http://www.w3.org/2000/svg" xmlns:xlink="http://www.w3.org/1999/xlink" x="0px" y="0px"
	 viewBox="0 0 500 500" style="enable-background:new 0 0 500 500;" xml:space="preserve">
<style type="text/css">
	.st0{fill:#2EB6EA;}
	.st1{fill:#745DDF;}
	.st2{fill:#FFFFFF;}
</style>
<path class="st0" d="M296.7,332.2c-3.9,19.9-24,34.4-45.8,34.4c-53.8,0-51.7-64.4-51.7-64.4L130.7,322c13,73.2,49.2,99.5,90,107.9
	v65.7C97.7,481.5,2.2,377,2.2,250.3V10.9c0-4.2,3.4-7.5,7.5-7.5h211v69.2c-50.2,16.3-71.8,64.7-71.8,94.3c0,36,19,69.6,79.6,95.8
	C282.8,286.1,303.6,297.1,296.7,332.2z"/>
<path class="st1" d="M496,250.3c0,68.2-27.6,129.9-72.3,174.6c-34.6,34.6-79.5,59-129.6,68.2v-65.7c41.7-15.4,75.4-58.7,75.4-112
	c0-66.9-55.3-88.7-102.9-110.5c-47.7-21.8-46.1-33-46.1-37.5c0-4.6,1-32.4,35.5-32.4c34.5,0,50.2,42.1,50.2,42.1l56.3-37.5
	c0,0-19.2-48.8-68.3-66.3V7.4C409,28.6,496,129.3,496,250.3z"/>
<path class="st2" d="M369.5,315.4c0,53.3-33.8,96.6-75.4,112v65.7c-14.6,2.7-29.6,4.1-45,4.1c-9.6,0-19.1-0.6-28.4-1.6v-65.7
	c-40.8-8.5-77-34.7-90-107.9l68.5-19.8c0,0-2,64.4,51.7,64.4c21.8,0,41.9-14.5,45.8-34.4c6.9-35.1-13.9-46.1-68.2-69.5
	c-60.6-26.2-79.6-59.8-79.6-95.8c0-29.6,21.6-78,71.8-94.3V3.3h28.4c15.4,0,30.4,1.4,45,4.1v65.7c49.2,17.5,68.3,66.3,68.3,66.3
	L306.1,177c0,0-15.7-42.1-50.2-42.1c-34.5,0-35.5,27.9-35.5,32.4c0,4.6-1.5,15.7,46.1,37.5C314.2,226.6,369.5,248.5,369.5,315.4z"/>
</svg>
