<?xml version="1.0" encoding="utf-8"?>
<!-- Generator: Adobe Illustrator 27.0.1, SVG Export Plug-In . SVG Version: 6.00 Build 0)  -->
<svg version="1.1" id="mask" xmlns="http://www.w3.org/2000/svg" xmlns:xlink="http://www.w3.org/1999/xlink" x="0px" y="0px"
	 viewBox="0 0 500 500" style="enable-background:new 0 0 500 500;" xml:space="preserve">
<style type="text/css">
	.st0{fill:#1C68F3;}
	.st1{fill-rule:evenodd;clip-rule:evenodd;fill:#FFFFFF;}
</style>
<path class="st0" d="M250.3,498.5c137.1,0,248.2-111.1,248.2-248.2c0-137.1-111.1-248.2-248.2-248.2S2,113.2,2,250.3
	C2,387.4,113.2,498.5,250.3,498.5z"/>
<path class="st1" d="M400.1,189.3v82.4H148.8l-10.8,0c11.4,50,56.8,87.4,111.1,87.4c44.9,0,83.7-25.5,102.2-62.6h48.7v69.2
	c0,16.4-13.5,29.7-30.2,29.7H128.7c-16.7,0-30.2-13.3-30.2-29.7V189.3H400.1z M322.5,296.4c-16,23-42.9,38.1-73.3,38.1
	s-57.3-15.1-73.3-38.1H322.5z M184.8,209c-23.6,0-43.2,17.2-46.4,39.6h25.7c2.8-8.6,11-14.8,20.7-14.8s17.9,6.2,20.7,14.8h25.7
	C228,226.2,208.5,209,184.8,209z M313.8,209c-23.6,0-43.2,17.2-46.4,39.6h25.7c2.8-8.6,11-14.8,20.7-14.8s17.9,6.2,20.7,14.8h25.7
	C357,226.2,337.4,209,313.8,209z M369.9,98.6c16.7,0,30.2,13.3,30.2,29.7v36.3H98.6v-36.3c0-16.4,13.5-29.7,30.2-29.7H369.9z"/>
</svg>
