<?xml version="1.0" encoding="utf-8"?>
<!-- Generator: Adobe Illustrator 26.0.1, SVG Export Plug-In . SVG Version: 6.00 Build 0)  -->
<svg version="1.1" id="Layer_1" xmlns="http://www.w3.org/2000/svg" xmlns:xlink="http://www.w3.org/1999/xlink" x="0px" y="0px"
	 viewBox="0 0 221.8 166.4" style="enable-background:new 0 0 221.8 166.4;" xml:space="preserve">
<style type="text/css">
	.st0{fill:#205E2F;}
	.st1{fill:#43B649;}
	.st2{fill:#1E3B1C;}
	.st3{fill:#139146;}
	.st4{fill:#55B8E9;}
	.st5{fill:#4C8CB2;}
	.st6{fill:#4091CE;}
	.st7{fill:#50B2D8;}
	.st8{fill:#076DB5;}
	.st9{fill:#408FCD;}
	.st10{fill:#257DC1;}
	.st11{fill:#17B175;}
	.st12{fill:#0CA2C6;}
	.st13{fill:#2D84C6;}
	.st14{fill:#0CA0D2;}
	.st15{fill:url(#SVGID_1_);}
	.st16{fill:url(#SVGID_00000072269636554451001360000013371392716496727689_);}
	.st17{fill:#76C043;}
	.st18{fill:#56B947;}
	.st19{fill:#34B44A;}
	.st20{fill:#64BC46;}
	.st21{fill:#1B3F71;}
	.st22{fill:#025999;}
	.st23{fill:#0C2949;}
	.st24{fill:#0E4C85;}
	.st25{fill:#358ACA;}
	.st26{fill:#472A7D;}
	.st27{fill:#5C2D90;}
	.st28{fill:#22134C;}
	.st29{fill:#362265;}
	.st30{fill:#F8993A;}
	.st31{fill:#7E8281;}
	.st32{fill:#E76C24;}
	.st33{fill:#C87237;}
	.st34{fill:#F05423;}
	.st35{fill:#E43925;}
	.st36{fill:#F3732A;}
	.st37{fill:#F15722;}
	.st38{fill:#AC2E7F;}
	.st39{fill:#C23C5D;}
	.st40{fill:#BE3F26;}
	.st41{fill:#DE2D26;}
	.st42{fill:#8E52A0;}
	.st43{fill:#71449A;}
	.st44{fill:#8D3293;}
	.st45{fill:#824D9E;}
	.st46{fill:#AB2823;}
	.st47{fill:#8E1E1C;}
	.st48{fill:#DF4326;}
</style>
<path class="st0" d="M63,147.3v-39.2l-9.9,26.5L63,147.3z"/>
<path class="st1" d="M41.6,119.6l11.4,15l9.9-26.5v-0.4L41.6,119.6z"/>
<path class="st2" d="M41.6,166.2l21.3-18.8L53,134.7L41.6,166.2z"/>
<path class="st3" d="M33.2,116.4l8.1,50l0.4-0.2l11.4-31.6l-11.4-15L33.2,116.4z"/>
<path class="st4" d="M76.8,99.8l34.2,19.4L93.8,90.3L76.8,99.8z"/>
<path class="st5" d="M93.8,90.3l17.2,28.9V80.6L93.8,90.3z"/>
<path class="st6" d="M76.2,61v38.6l0.6,0.2l17-9.5L76.4,61.2L76.2,61z"/>
<path class="st7" d="M111,80.4L76.4,61.2l17.4,29.1l17.2-9.7V80.4z"/>
<path class="st8" d="M41.6,41.5V80l17.2-9.5L41.6,41.5z"/>
<path class="st9" d="M58.8,70.5L41.6,80l34.6,19.6L58.8,70.5z"/>
<path class="st10" d="M76.2,61l-16.3-9.1L41.6,41.5l17.2,28.9L76.2,61L76.2,61z"/>
<path class="st8" d="M76.2,61.2l-17.4,9.3l17.4,29.1V61.2z"/>
<path class="st11" d="M41.6,80L20.9,49L0,56.7L41.6,80z"/>
<path class="st12" d="M0,18.1v38.6L20.9,49L0.2,18.3L0,18.1z"/>
<path class="st13" d="M0.2,18.3L20.9,49l20.5-7.7L17,27.6L0.2,18.3z"/>
<path class="st14" d="M41.6,80V41.5l-0.2-0.2L20.9,49L41.6,80z"/>
<path class="st3" d="M0,96.4v46.5v0.2l20.9-11.7l-20.7-35H0z"/>
<linearGradient id="SVGID_1_" gradientUnits="userSpaceOnUse" x1="0.2442" y1="697.7898" x2="41.4442" y2="697.7898" gradientTransform="matrix(1 0 0 1 0 -583.8898)">
	<stop  offset="0" style="stop-color:#1E3B1C"/>
	<stop  offset="0.3548" style="stop-color:#43B649"/>
	<stop  offset="1" style="stop-color:#000000"/>
</linearGradient>
<path class="st15" d="M0.2,96.4l20.7,35l20.5-11.7L0.2,96.4z"/>
<linearGradient id="SVGID_00000173130186851901483360000002026463705709516948_" gradientUnits="userSpaceOnUse" x1="0.1315" y1="732.6898" x2="41.5607" y2="732.6898" gradientTransform="matrix(1 0 0 1 0 -583.8898)">
	<stop  offset="0" style="stop-color:#1E3B1C"/>
	<stop  offset="1" style="stop-color:#000000"/>
</linearGradient>
<path style="fill:url(#SVGID_00000173130186851901483360000002026463705709516948_);" d="M0,143.1l17,9.5l7.7,4.2l17,9.5l-20.7-35
	L0,143.1z"/>
<path class="st0" d="M20.9,131.4l20.7,35v-46.7L20.9,131.4z"/>
<path class="st17" d="M0.4,56.9L0,56.7v39.7l21.1-8.3L0.4,56.9z"/>
<path class="st18" d="M0,96.4l41.4,23.3h0.2V119L21.1,88L0,96.4z"/>
<path class="st19" d="M0.4,56.9l20.7,31.2L41.4,80L0.4,56.9z"/>
<path class="st20" d="M21.2,88.1l20.5,31V97V80h-0.2L21.2,88.1z"/>
<path class="st18" d="M54.7,97.2l-13,22.5L63,107.8L54.7,97.2z"/>
<path class="st17" d="M41.6,80.2v39.5l13-22.5L41.6,80.2z"/>
<path class="st19" d="M41.6,80v0.2l13,17l4.3-7.3L41.6,80z"/>
<path class="st20" d="M54.7,97.2l8.3,10.5V91.9l-3.9-2L54.7,97.2z"/>
<path class="st21" d="M76,22.9L32.5,0.1l4.6,20.4L76,23.1V22.9z"/>
<path class="st22" d="M37.1,20.5l4.6,21l0.4,0.2l34-18.6L37.1,20.5z"/>
<path class="st23" d="M32.5,0.1L0,17.9l37.1,2.6L32.5,0.1z"/>
<path class="st24" d="M0,17.9v0.2l41.6,23.5l-4.6-21L0,17.9z"/>
<path class="st25" d="M76.2,61l0.4,0.2l0.2-0.2l34-19.6l-34.6,0.2V61z"/>
<path class="st10" d="M76.2,41.5l34.6-0.2L76,22.9L76.2,41.5z"/>
<path class="st9" d="M76.2,61V41.5L42,41.7L76.2,61z"/>
<path class="st8" d="M42.1,41.7l34.2-0.2l-0.2-18.6L42.1,41.7z"/>
<path class="st26" d="M159,147.3v-39.2l9.7,26.5L159,147.3z"/>
<path class="st27" d="M180.4,119.6l-11.6,15l-9.7-26.5v-0.4L180.4,119.6z"/>
<path class="st28" d="M180.4,166.2l-21.3-18.8l9.7-12.7L180.4,166.2z"/>
<path class="st29" d="M188.8,116.4l-8.1,50l-0.4-0.2l-11.6-31.6l11.6-15L188.8,116.4z"/>
<path class="st30" d="M145.2,99.8l-34.4,19.4l17.4-28.9L145.2,99.8z"/>
<path class="st31" d="M128.2,90.3l-17.4,28.9V80.6L128.2,90.3z"/>
<path class="st32" d="M145.6,61v38.6l-0.4,0.2l-17-9.5l17.2-29.1L145.6,61z"/>
<path class="st33" d="M111,80.4l34.4-19.2l-17.2,29.1l-17.4-9.7L111,80.4z"/>
<path class="st34" d="M180.4,41.5v38.4L163,70.4L180.4,41.5z"/>
<path class="st35" d="M163,70.5l17.4,9.5l-34.8,19.6L163,70.5z"/>
<path class="st36" d="M145.6,61l16.4-9.1l18.4-10.3L163,70.5l-17.4-9.3V61z"/>
<path class="st37" d="M145.6,61.2l17.4,9.3l-17.4,29.1V61.2z"/>
<path class="st38" d="M180.4,80l20.7-31l20.7,7.7L180.4,80z"/>
<path class="st39" d="M221.8,18.1v38.6L201.1,49l20.5-30.8L221.8,18.1z"/>
<path class="st40" d="M221.6,18.3L201.1,49l-20.5-7.7L205,27.5L221.6,18.3z"/>
<path class="st41" d="M180.4,80V41.5l0.2-0.2l20.5,7.7L180.4,80z"/>
<path class="st29" d="M221.8,96.4v46.5v0.2l-20.7-11.7L221.8,96.4z"/>
<path class="st27" d="M221.8,96.4l-20.7,35l-20.5-11.7L221.8,96.4z"/>
<path class="st28" d="M221.8,143.1l-16.8,9.5l-7.9,4.2l-16.8,9.5l20.7-35L221.8,143.1z"/>
<path class="st26" d="M201.1,131.4l-20.7,35v-46.7L201.1,131.4z"/>
<path class="st42" d="M221.3,56.9l0.4-0.2v39.7l-20.9-8.3L221.3,56.9z"/>
<path class="st43" d="M221.8,96.4l-41.2,23.3h-0.2V119l20.5-31L221.8,96.4z"/>
<path class="st44" d="M221.4,56.9l-20.5,31.2L180.6,80L221.4,56.9z"/>
<path class="st45" d="M200.9,88.1l-20.5,31V97V80h0.2L200.9,88.1z"/>
<path class="st43" d="M167.1,97.2l13.3,22.5l-21.3-11.9L167.1,97.2z"/>
<path class="st42" d="M180.4,80.2v39.5l-13.3-22.5L180.4,80.2z"/>
<path class="st44" d="M180.4,80v0.2l-13.3,17l-4.1-7.3L180.4,80z"/>
<path class="st45" d="M167.1,97.2l-8.1,10.5V91.9l3.9-2L167.1,97.2z"/>
<path class="st46" d="M145.8,22.9L189.3,0l-4.4,20.5l-39.1,2.6V22.9z"/>
<path class="st41" d="M184.9,20.5l-4.6,21l-0.4,0.2l-34.2-18.6L184.9,20.5z"/>
<path class="st47" d="M189.3,0.1l32.5,17.8l-36.9,2.6L189.3,0.1z"/>
<path class="st48" d="M221.8,17.9v0.2l-41.4,23.5l4.6-21L221.8,17.9z"/>
<path class="st37" d="M145.6,61l-0.4,0.2V61L111,41.4l34.8,0.2L145.6,61z"/>
<path class="st36" d="M145.8,41.5L111,41.3l34.8-18.4V41.5z"/>
<path class="st35" d="M145.6,61l0.2-19.4l34.2,0.2L145.6,61z"/>
<path class="st34" d="M179.9,41.7l-34.2-0.2V22.9L179.9,41.7z"/>
<path class="st30" d="M110.8,80.4h0.2l34.2-19.2h-34.4V80.4z"/>
<path class="st32" d="M111,41.3l-0.2,0.2v19.6h34.4V61L111,41.3z"/>
<path class="st4" d="M111,80.4V61.2H76.6L111,80.4z"/>
<path class="st6" d="M110.8,41.3l-34,19.6l-0.2,0.2H111V41.5L110.8,41.3z"/>
</svg>
