<svg id="Artwork" xmlns="http://www.w3.org/2000/svg" viewBox="0 0 628.5 308.3"><title>metadium-meta-logo</title><path d="M423.7,499.4v70.9a14.19,14.19,0,0,1-14.2,14.2H338.6a14.19,14.19,0,0,1-14.2-14.2V499.4a14.19,14.19,0,0,1,14.2-14.2h70.9A14.19,14.19,0,0,1,423.7,499.4Zm98.6,95.1H451.4a14.19,14.19,0,0,0-14.2,14.2V779.3a14.19,14.19,0,0,0,14.2,14.2h70.9a14.19,14.19,0,0,0,14.2-14.2V608.7A14.19,14.19,0,0,0,522.3,594.5Zm211.2,0H680a38.09,38.09,0,0,1-38.1-38.1v-57a14.19,14.19,0,0,0-14.2-14.2H556.8a14.19,14.19,0,0,0-14.2,14.2v70.9a14.19,14.19,0,0,0,14.2,14.2h26a31.08,31.08,0,0,1,4.3-.3h23.2a38.09,38.09,0,0,1,38.1,38.1V779.2a14.19,14.19,0,0,0,14.2,14.2h70.9a14.19,14.19,0,0,0,14.2-14.2V608.7A14.19,14.19,0,0,0,733.5,594.5Zm205.3,0H885.3a38.09,38.09,0,0,1-38.1-38.1v-57A14.19,14.19,0,0,0,833,485.2H762a14.19,14.19,0,0,0-14.2,14.2v70.9A14.19,14.19,0,0,0,762,584.5h26a31.08,31.08,0,0,1,4.3-.3h23.2a38.09,38.09,0,0,1,38.1,38.1V779.2a14.19,14.19,0,0,0,14.2,14.2h70.9a14.19,14.19,0,0,0,14.2-14.2V608.7A14,14,0,0,0,938.8,594.5Z" transform="translate(-324.4 -485.2)" style="fill:#231f20"/></svg>