<?xml version="1.0" encoding="utf-8"?>
<!-- Generator: Adobe Illustrator 26.0.1, SVG Export Plug-In . SVG Version: 6.00 Build 0)  -->
<svg version="1.1" id="Layer_1" xmlns:xodm="http://www.corel.com/coreldraw/odm/2003"
	 xmlns="http://www.w3.org/2000/svg" xmlns:xlink="http://www.w3.org/1999/xlink" x="0px" y="0px" viewBox="0 0 2500 2500"
	 style="enable-background:new 0 0 2500 2500;" xml:space="preserve">
<style type="text/css">
	.st0{fill:none;}
	.st1{fill:#00DACC;}
</style>
<g id="Layer_x0020_1">
	<g id="_2286616454016">
		<circle class="st0" cx="1250" cy="1250" r="1250"/>
		<path id="Path_1" class="st1" d="M2500,1223C2485,544,1930,0,1250,0C560,0,0,560,0,1250c0,498,296,949,753,1147
			c61-91,107-192,138-297c25-64,52-126,81-187c36,11,74,17,113,17c105,0,205-42,278-116l4-4l0,0c-43-16-89-24-135-24
			c-85,0-168,28-236,80c35-72,72-142,111-210c42,15,86,22,130,22c98,0,192-37,264-103l4-4l0,0c-48-20-100-31-152-31
			c-77,0-152,23-216,65c39-64,78-126,120-185c32,9,66,13,99,13c110,0,215-46,289-128l3-4l0,0c-38-13-79-19-119-19
			c-80,0-158,25-223,71c3-4,7-9,10-14c25-32,51-65,77-96c162-53,282-191,311-360l1-6h-1c-169,44-298,180-333,351c-25,30-50,61-74,92
			c17-44,25-90,25-137c0-67-17-132-50-190l0,0l-3,4c-49,67-76,148-76,231c0,61,14,122,42,177c-40,56-78,114-115,175c5-24,7-49,7-73
			c0-100-39-196-108-268l0,0l-2,5c-19,46-28,96-28,145c0,94,34,184,95,255c-37,64-71,130-105,198c3-21,5-43,5-64
			c0-108-43-212-120-287l0,0l-2,5c-14,42-22,87-22,131c0,103,39,202,110,277c-22,47-43,94-63,143c-5-5-12-9-19-11
			c-36-10-70-26-101-45c-26-16-54-28-83-38c-113-37-96-91-155-201c-19-22-39-44-60-65c-20-13-36-30-47-51c-13-26-21-54-24-83
			c-1-33-22-61-53-71c-166-57-92-273-86-301c-3-36-11-72-24-107c-1-4-2-9-3-14c-2-9-3-19-3-29c0-36,13-71,37-98c20-20,89-52,104-71
			s25-40,40-57c46-46,100-85,159-114c48-26,56-93,75-114c31-36,79-36,115-67c18-16,44-24,61-41c83-76,189-125,301-139
			c18-1,37-2,56-2c60,0,119,8,176,23c11,2,22,4,32,7c172,6,379,42,455,115c37,36,65,80,80,130c12,38,29,75,50,109l46,75
			c21,33,32,72,32,111c0,16-2,32-5,48c-5,14-7,29-7,44c0,13,2,25,5,37c24,37,53,70,85,100c13,13,27,24,42,33c35,21,70,44,102,69
			c0,2,0,4,0,6c0,19-9,36-24,46c-29,26-86,67-86,67c2,12,6,23,10,33c8,15,27,38,21,57c-6,20-47,37-36,59c11,23,41,29,32,50
			c-8,20-49,55-45,70s38,155-40,179c-96,19-193,30-291,32c-32,2-61,20-76,48s-24,58-28,89c-28,111-66,220-112,325s-3,6-7,16
			c-10,21-17,43-19,66c7,17,17,32,29,45c10,11,24,18,40,18c5,0,11-1,16-2c506-176,845-654,845-1190c0-7,0-15,0-22l0,0L2500,1223z"/>
	</g>
</g>
</svg>
