<svg xmlns="http://www.w3.org/2000/svg" viewBox="0 0 2499.5 2419.9"><title>i</title><g id="Layer_2" data-name="Layer 2"><g id="Layer_1-2" data-name="Layer 1"><path d="M1817.8,280.7c76.3,0,138.3-63,138.3-140.4S1894.1,0,1817.8,0c-76.3.4-138.3,63.3-138.3,140.7S1741.5,280.7,1817.8,280.7Zm40.8,364.8a118,118,0,0,0,117.1-118.89h0c0-65.4-52.4-118.9-117.1-118.9s-117.1,53.1-117.1,118.9,52.3,118.89,117.1,118.89ZM2180.1,692c64.4,0,116.8-53.1,116.8-118.6s-52.4-118.6-116.8-118.6-116.8,53.1-116.8,118.6S2115.8,692,2180.1,692Zm-38.6,312.1c55.2,0,99.9-45.4,99.9-101.3s-44.7-101.3-99.9-101.3-99.9,45.4-99.9,101.3S2086.3,1004.1,2141.5,1004.1Zm257.4,101.2c55.6,0,100.6-45.7,100.6-102s-45-102-100.6-102a101.3,101.3,0,0,0-100.6,102h0c0,56.3,45.1,102,100.6,102ZM1818,961.9a103,103,0,0,0,102.4-103.6h0v-.2c0-57.3-45.7-103.8-102.4-103.8s-102.4,46.4-102.4,103.8C1715.6,915.1,1761.4,961.9,1818,961.9Zm-92.8,248.3c47.5,0,85.8-39,85.8-86.9a86.2,86.2,0,0,0-85.49-86.9h-.31c-47.5,0-85.8,39-85.8,86.9s38.3,86.9,85.8,86.9Zm322,43.9a85.69,85.69,0,0,0,85.1-86.28h0v-.21c0-47.8-38-86.5-85.1-86.5s-85.1,38.7-85.1,86.5a85.39,85.39,0,0,0,84.28,86.49h.82Zm256.7,100.8c47.5,0,85.8-39,85.8-87.2s-38.3-87.2-85.8-87.2-85.8,39-85.8,87.2a86.3,86.3,0,0,0,85.39,87.2Zm-126.8,188.4c40.1,0,72.5-33.1,72.5-73.5s-32.4-73.5-72.5-73.5-72.5,33.1-72.5,73.5,32.4,73.5,72.5,73.5Zm-257.9-99.2c40.8,0,74.2-33.8,74.2-75.3s-33.1-75.3-74.2-75.3-74.2,33.8-74.2,75.3,33.4,75.3,74.2,75.3Zm-321.6-46a74.61,74.61,0,0,0,.1-149.2h-.1a74.61,74.61,0,0,0-.1,149.2Zm178.8,177c35.5,0,64-29.2,64-64.7a64.1,64.1,0,0,0-63.49-64.7h-.51c-35.5,0-64,29.2-64,64.7a64,64,0,0,0,63.29,64.7h.71ZM2034.2,1676c35.5,0,64.7-29.2,64.7-65.4s-28.8-65.4-64.7-65.4a65.4,65.4,0,0,0,0,130.8ZM1889,1751.7c28.1,0,51-23.2,51-51.7a51.4,51.4,0,0,0-51-51.7c-28.1,0-51,23.2-51,51.7A51.6,51.6,0,0,0,1889,1751.7Zm-137.6,40.6a46.39,46.39,0,0,0,46.1-46.68v-.12c0-26-20.8-46.8-46.1-46.8a46.39,46.39,0,0,0-46.1,46.68v.12a46,46,0,0,0,45.19,46.79Zm-120.5-134.6c30.3,0,54.9-25,54.9-55.6s-24.6-55.6-54.9-55.6-54.9,25-54.9,55.6A55.49,55.49,0,0,0,1630.9,1657.7Zm-176.8-127.5c35.2,0,64-28.8,64-64.7s-28.5-64.7-64-64.7c-35.2,0-64,28.8-64,64.7A64.6,64.6,0,0,0,1454.1,1530.2Zm524.3,810.6c76,0,137.6-62.6,137.6-139.7s-61.6-139.7-137.6-139.7-137.6,62.6-137.6,139.7,61.6,139.7,137.6,139.7ZM1628.9,2164c63.3,0,114.7-52.1,114.7-116.4s-51.4-116.4-114.7-116.4-114.7,52.1-114.7,116.4S1565.5,2164,1628.9,2164Zm-199.7,255.9c64,0,115.7-52.4,115.7-117.5,0-64.7-51.7-117.5-115.7-117.5s-115.7,52.4-115.7,117.5a116.6,116.6,0,0,0,115.69,117.5Zm-60.1-471.5a101,101,0,0,0,100.3-101.7h0A101,101,0,0,0,1369.1,1745h0a101,101,0,0,0-100.3,101.7h0c.1,56,45.1,101.7,100.3,101.7Zm-199.2,259.4c55.2,0,99.9-45.4,99.9-101.3s-44.7-101.3-99.9-101.3-99.9,45.4-99.9,101.3a100.31,100.31,0,0,0,99.29,101.3Zm-214.7,176c55.2,0,99.6-45.4,99.6-101,0-55.9-44.7-101-99.6-101-55.2,0-99.6,45.4-99.6,101s44.7,101,99.6,101ZM776.5,2154.7a85.89,85.89,0,0,0,85.1-86.2c0-47.5-38-86.2-85.1-86.2a86.21,86.21,0,0,0,0,172.4Zm215.1-176.8a85.7,85.7,0,0,0,85.1-86.2c0-47.8-38-86.2-85.1-86.2a86.21,86.21,0,0,0-.3,172.4Zm200.7-259.3a85.69,85.69,0,0,0,85.1-86.28h0v-.21c0-47.8-38-86.5-85.1-86.5a85.69,85.69,0,0,0-85.1,86.28h0v.21c0,47.8,38,86.5,85.1,86.5Zm-307,35.7c40.8,0,73.9-33.4,73.9-74.9s-33.1-74.9-73.9-74.9-73.9,33.4-73.9,74.9,33.1,74.9,73.9,74.9Zm-214,176.1a73.6,73.6,0,0,0,73.2-74h0v-.2a73.5,73.5,0,0,0-72.79-74.2h-.41a73.6,73.6,0,0,0-73.2,74h0v.2a73.7,73.7,0,0,0,73.2,74.2ZM622.1,1724a63.8,63.8,0,0,0,63.3-64c0-35.5-28.5-64-63.3-64s-63.3,28.8-63.3,64C558.8,1695.5,587.3,1724,622.1,1724Zm-1.8-181.1a54.7,54.7,0,0,0,54.2-55.2h0c0-30.3-24.3-55.2-54.2-55.2s-54.2,24.6-54.2,55.2S590.4,1542.9,620.3,1542.9Zm29.8-150.6c25.7,0,46.1-21.1,46.1-46.8s-20.8-46.8-46.1-46.8c-25.7,0-46.1,21.1-46.1,46.8S624.4,1392.3,650.1,1392.3Zm184.5-25.2c30.3,0,54.9-25,54.9-55.6s-24.6-55.6-54.9-55.6-54.9,25-54.9,55.6a55.4,55.4,0,0,0,54.9,55.6Zm202.5-78.9c35.2,0,64-29.2,64-64.7a64.1,64.1,0,0,0-63.49-64.7h-.51c-35.2,0-64,29.2-64,64.7a64.2,64.2,0,0,0,63.7,64.7h.3Zm48.2,205.4a72.66,72.66,0,1,0-.3,0Zm-248.1,54.7c35.2,0,63.3-28.8,63.3-64.4s-28.5-64.4-63.3-64.4a63.69,63.69,0,0,0-63.3,64.09v.31a63.49,63.49,0,0,0,62.58,64.39h.72Zm-700-95.5c75.6,0,137.2-62.3,137.2-139s-61.6-139-137.2-139S0,1237.2,0,1313.9s61.6,138.9,137.2,138.9Zm311.4-248.2c65.1,0,117.5-53.5,117.5-119.3S513.3,966,448.6,966a118.3,118.3,0,0,0-117.5,119.09v.21c0,66.2,52.8,119.3,117.5,119.3Zm-121.5-306c64.7,0,116.8-53.1,116.8-118.6S391.5,661.4,327.1,661.4A117.59,117.59,0,0,0,210.3,779.79V780A117.41,117.41,0,0,0,326.49,898.6Zm300.2-145c55.2,0,100.3-45.4,100.3-101.7s-45-101.7-100.3-101.7S527,595.6,527,651.9s45.1,101.7,100.3,101.7ZM750,1058.9c55.6,0,100.6-45.7,100.6-102s-45-102-100.6-102-100.6,45.7-100.6,102S694.4,1058.9,750,1058.9Zm273.2-63.4a86.21,86.21,0,0,0,85.5-86.89h0a85.51,85.51,0,1,0-171-2.62c0,.88,0,1.75,0,2.62h0a85.91,85.91,0,0,0,84.89,86.9Zm236,.8c40.8,0,73.9-33.4,73.9-74.6s-33.1-74.6-73.9-74.6a74.6,74.6,0,0,0,0,149.2Zm195,44.9c34.1,0,62.3-28.1,62.3-63s-27.8-63-62.3-63a62.79,62.79,0,0,0-62.3,63C1392.3,1012.7,1420,1041.2,1454.2,1041.2Zm25.4-229.8a54.59,54.59,0,0,0,54.2-54.9c0-30.3-24.3-54.9-54.2-54.9s-54.2,24.6-54.2,54.9a54.59,54.59,0,0,0,54.2,54.9Zm-150-75.2a62.46,62.46,0,1,0-.31,0Zm-192.7-45.6a73.8,73.8,0,0,0,73.2-74.2c0-41.2-32.7-74.2-73.2-74.2s-73.2,33.4-73.2,74.2a73.6,73.6,0,0,0,73,74.2h.2Zm-235.6.3c47.5,0,85.8-39,85.8-86.9s-38.3-86.9-85.8-86.9-85.8,39-85.8,86.9a86.6,86.6,0,0,0,85.8,86.9ZM584,473.6c53.8,0,97.1-44,97.1-98.5s-43.6-98.5-97.1-98.5c-53.8,0-97.1,44-97.1,98.5S530.5,473.6,584,473.6Zm273.1-59.7c47.5,0,85.8-39,85.8-86.9s-38.3-86.9-85.8-86.9-85.8,39-85.8,86.9S809.6,413.9,857.1,413.9ZM1093,415c40.8,0,73.9-33.4,73.9-74.9s-33.1-74.9-73.9-74.9a74.3,74.3,0,0,0-73.9,74.7h0v.2A74.59,74.59,0,0,0,1093,415Zm193.6,44.6c34.5,0,62.3-28.1,62.3-63s-27.8-63-62.3-63a63,63,0,0,0,0,126Zm148.7,77.2a56,56,0,0,0,55.6-56.3c0-31.3-25-56.3-55.6-56.3s-55.6,25.3-55.6,56.3,25,56.3,55.6,56.3Zm109.1,88.6a46,46,0,0,0,45.7-46.3h0V579a46,46,0,0,0-45.6-46.4h-.1a46,46,0,0,0-45.7,46.3h0v.1a45.69,45.69,0,0,0,45,46.39h.72Z"/></g></g></svg>