<?xml version="1.0" encoding="utf-8"?>
<!-- Generator: Adobe Illustrator 24.0.0, SVG Export Plug-In . SVG Version: 6.00 Build 0)  -->
<svg version="1.1" id="Layer_1" xmlns="http://www.w3.org/2000/svg" xmlns:xlink="http://www.w3.org/1999/xlink" x="0px" y="0px"
	 viewBox="0 0 23 23" style="enable-background:new 0 0 23 23;" xml:space="preserve">
<style type="text/css">
	.st0{fill:#005AFF;}
	.st1{fill:#0000FF;}
</style>
<g transform="translate(-128.24 -124.46)">
	<path class="st0" d="M147.1,136l-7.4,7.4l0.5,0.5c2.2,2.4,5.2,3.6,8.4,3.6c0.8,0,1.6-0.1,2.4-0.3c0.2-0.8,0.3-1.6,0.3-2.4
		c0-3.2-1.3-6.2-3.6-8.4L147.1,136z M139.3,128.1c-2.2-2.4-5.2-3.6-8.4-3.6c-0.8,0-1.6,0.1-2.4,0.3c-0.2,0.8-0.3,1.6-0.3,2.4
		c0,3.2,1.3,6.2,3.6,8.4l0.5,0.5l7.4-7.4L139.3,128.1z"/>
	<path class="st0" d="M147.6,135.5c2.4-2.2,3.6-5.2,3.6-8.4c0-0.8-0.1-1.6-0.3-2.4c-0.8-0.2-1.6-0.3-2.4-0.3c-3.2,0-6.2,1.3-8.4,3.6
		l-0.5,0.5l7.4,7.4L147.6,135.5z M131.9,136.4c-2.4,2.2-3.6,5.2-3.6,8.4c0,0.8,0.1,1.6,0.3,2.4c0.8,0.2,1.6,0.3,2.4,0.3
		c3.2,0,6.2-1.3,8.4-3.6l0.5-0.5l-7.4-7.4L131.9,136.4z"/>
	<path class="st1" d="M132.4,136l7.4-7.4l7.4,7.4l-7.4,7.4L132.4,136z"/>
</g>
</svg>
