<?xml version="1.0" encoding="utf-8"?>
<!-- Generator: Adobe Illustrator 24.0.0, SVG Export Plug-In . SVG Version: 6.00 Build 0)  -->
<svg version="1.1" id="Layer_1" xmlns="http://www.w3.org/2000/svg" xmlns:xlink="http://www.w3.org/1999/xlink" x="0px" y="0px"
	 viewBox="0 0 88.5 44.1" style="enable-background:new 0 0 88.5 44.1;" xml:space="preserve">
<style type="text/css">
	.st0{fill:url(#SVGID_1_);}
</style>
<linearGradient id="SVGID_1_" gradientUnits="userSpaceOnUse" x1="213.909" y1="20.075" x2="15.427" y2="20.075" gradientTransform="matrix(1 0 0 -1 0 42.15)">
	<stop  offset="0" style="stop-color:#3600C9"/>
	<stop  offset="1" style="stop-color:#9E00E7"/>
</linearGradient>
<path class="st0" d="M40.5,27.9L25.8,42.6c-2.1,2.1-5.5,2.1-7.6,0L1.6,25.9c-2.1-2.1-2.1-5.5,0-7.6L18.3,1.6c2.1-2.1,5.5-2.1,7.6,0
	l14.7,14.7c2.1,2.1,5.5,2.1,7.6,0L62.8,1.6c2.1-2.1,5.5-2.1,7.6,0L87,18.3c2.1,2.1,2.1,5.5,0,7.6L70.4,42.6c-2.1,2.1-5.5,2.1-7.6,0
	L48.1,27.9C46,25.8,42.6,25.8,40.5,27.9z"/>
</svg>
