<svg id="Layer_1" xmlns="http://www.w3.org/2000/svg" viewBox="0 0 544 275.6" ><style>.st0{fill:url(#path0_fill_1_)}</style><g transform="translate(258 254.895)"><linearGradient id="path0_fill_1_" gradientUnits="userSpaceOnUse" x1="-1060.445" y1="-243.025" x2="-1043.452" y2="-243.025" gradientTransform="translate(33690.758 7663.028) scale(32.0137)"><stop offset="0" stop-color="#c51f5d"/><stop offset="1" stop-color="#2f2361"/></linearGradient><path id="path0_fill" class="st0" d="M284.4-76.9L108-253.3c-2.1-2.1-6.1-2.1-8.2 0L13.2-167l-84.9-84.9c-2.3-2.3-5.9-2.3-8.2 0l-26.5 26-97.4 95.5-21.3 20.9-31.3 30.5c-1.2 1.2-1.6 2.6-1.6 4.2s.7 3 1.6 4.2l88 88c2.3 2.3 6.1 2.3 8.2 0L-75.7-67 9.9 18.6c2.3 2.3 6.1 2.3 8.2 0l84.7-84.7L188 19.1c1.2 1.2 2.6 1.6 4.2 1.6s3-.5 4.2-1.6l88-88c1.2-1.2 1.6-2.6 1.6-4.2 0-1.7-.5-2.9-1.6-3.8zm-15.8 7.3L218-88.2l-23.2-50 13.4 1.9 63.6 63.6-3.2 3.1zM240-41l-15-32.1 34.5 12.7L240-41zm-348.3-115.7l-71.3 19.2 71.3-70.1v50.9zm-88.5 35.9l50-13.4-3.3 56.3-60.8-28.9 14.1-14zm62-16.6l8.9-2.3 23.7 36.4-37.1 41.1 4.5-75.2zm40.5 24.8l-19.9-30.5 11.3-3 28.4 11.7-19.8 21.8zm-2.3-43.6v-21.3l67.6 5.6 16.9 50.7-84.5-35zm57.2 65.9l24.2 14.8 4 56.5-34.2-34 6-37.3zm32.9 6.4l-30.7-19 2.3-14.8 28.9 12c.7.5 1.4.9 2.3.9l29.1 12.2 12.2 36.1-44.1-27.4zm43.8-10.4L69-110.7 45.8-69.4l-8.5-24.9zm43.9-35.6l-29.3 15.2 7-49.7 40.8 24.9-18.5 9.6zm30.7-16l-54.7-33.3-9.6-5.9L62-199.4l62.2 20.2 5.9 23.9-18.2 9.4zm29.8-11.5l-14.5-60.3 67.6 67.6-53.1-7.3zm.5 11.8l12.4 1.6L168-17.8l-35.7-35.7 9.9-92.1zm24.2 3.5l14.8 2.1 21.1 45.5-25.8 47.9-10.1-95.5zm-62.7-98.8l7.3 7.3 9.9 41.1-49.5-16 32.3-32.4zm-86.5 86.6l22.1-22.1L48-171l-8.9 62.9-9.1 4.7-28.1-11.5-23-69.2 30 30c2.4 1.9 5.9 1.9 8.3-.2zM-76-239.2l36.4 36.3 6.3 19-63.3-5.4v-29.8l20.6-20.1zM-220-98l69 32.6-1.9 31-61.7-10.8-29.3-29.3L-220-98zm55.6 103.2l-35.9-35.9 46.4 8.2-1.2 18.1-9.3 9.6zM-80-79.3l-62.4 62.4 1.6-26.7.2-.2 77.4-85.6 17.1 7-3.5 21.6-6.1 37.5-16-16c-2.2-2.3-5.9-2.3-8.3 0zM14.1 6.4L1.4-6.3-2.8-68l46.4 28.6 4.2 12.2L14.1 6.4zM103-80c-1.4 0-3 .5-4.2 1.6l-42 42-6.1-18.1L88-120.7l42-21.6-8.4 78.1-14.3-14.3c-1.2-1-2.9-1.5-4.3-1.5zm89.2 86.8L180.9-4.5l-2.3-21.6 29.8-55.4 22.8 49.3-39 39z"/></g></svg>