<?xml version="1.0" encoding="utf-8"?>
<!-- Generator: Adobe Illustrator 27.0.1, SVG Export Plug-In . SVG Version: 6.00 Build 0)  -->
<svg version="1.1" id="nrv" xmlns="http://www.w3.org/2000/svg" xmlns:xlink="http://www.w3.org/1999/xlink" x="0px" y="0px"
	 viewBox="0 0 500 500" style="enable-background:new 0 0 500 500;" xml:space="preserve">
<style type="text/css">
	.st0{fill:#4C51BF;}
</style>
<ellipse transform="matrix(0.9871 -0.1602 0.1602 0.9871 -74.0786 46.1852)" class="st0" cx="249.4" cy="482.6" rx="16.6" ry="16.6"/>
<path class="st0" d="M50.6,150.6c9.2,0,16.6-7.4,16.6-16.6c0-0.2,0-0.4,0-0.6l0,0.1L138.7,89c3,3.4,7.5,5.6,12.4,5.6
	c4.5,0,8.6-1.8,11.6-4.8l66.7,42.6c0,0.5-0.1,1-0.1,1.6c0,11,9,20,20,20c11,0,20-9,20-20c0-0.4,0-0.7-0.1-1.1l69.1-41.9
	c3,2.9,7,4.6,11.5,4.6c9.2,0,16.6-7.4,16.6-16.6c0-9.2-7.4-16.6-16.6-16.6c-9,0-16.3,7.2-16.5,16.1l-0.3-0.4l-69.3,42
	c-3.6-3.8-8.8-6.2-14.5-6.2c-5.5,0-10.5,2.2-14.1,5.9l-67.6-43.2c-0.7-8.5-7.8-15.2-16.5-15.2c-8.2,0-15,6-16.3,13.8L61,121.1
	c-2.8-2.3-6.5-3.7-10.4-3.7c-9.2,0-16.6,7.4-16.6,16.6S41.4,150.6,50.6,150.6z"/>
<ellipse transform="matrix(0.9732 -0.2298 0.2298 0.9732 2.6682 57.7733)" class="st0" cx="249.4" cy="17.4" rx="16.6" ry="16.6"/>
<path class="st0" d="M449.4,232.9c-9.2,0-16.6,7.4-16.6,16.6c0,0.7,0.1,1.4,0.2,2.1L364.6,293c-3.7-3.9-8.8-6.4-14.6-6.4
	c-6.6,0-12.4,3.2-16.1,8.1l-58.8-37.6c0.8-2.4,1.2-5,1.2-7.7c0-2.2-0.3-4.4-0.8-6.5l61.1-37c3.6,3.2,8.3,5.2,13.4,5.2
	c11,0,20-9,20-20c0-0.9-0.1-1.7-0.2-2.5l69.1-41.8c2.9,2.4,6.5,3.8,10.5,3.8c9.2,0,16.6-7.4,16.6-16.6s-7.4-16.6-16.6-16.6
	c-9.2,0-16.6,7.4-16.6,16.6c0,0.1,0,0.3,0,0.4l-69.4,42c-3.6-3.3-8.3-5.3-13.5-5.3c-11,0-20,9-20,20c0,0.9,0.1,1.8,0.2,2.6
	l-61.6,37.3c-4.6-4.6-11-7.4-18-7.4c-7.8,0-14.7,3.5-19.4,8.9l-63.5-40.5c0-0.3,0-0.6,0-0.9c0-11-9-20-20-20s-20,9-20,20
	c0,1.6,0.2,3.2,0.6,4.7l-66.6,41.3c-2.9-2.7-6.9-4.4-11.2-4.4c-9.2,0-16.6,7.4-16.6,16.6S41.4,266,50.6,266c9,0,16.3-7.1,16.5-16
	l0,0l68.8-42.7c3.3,2.4,7.4,3.9,11.8,3.9c5.7,0,10.9-2.4,14.5-6.3l63,40.2c-0.2,1.4-0.4,2.8-0.4,4.3c0,2.6,0.4,5.1,1.1,7.5
	L166,293.2c-3.7-4.1-9-6.7-14.9-6.7c-11,0-20,9-20,20c0,1,0.1,1.9,0.2,2.8l-69.6,43.3c-2.9-2.7-6.9-4.4-11.2-4.4
	c-9.2,0-16.6,7.4-16.6,16.6c0,9.2,7.4,16.6,16.6,16.6c9,0,16.3-7.1,16.5-16l0,0l70.7-43.9c3.5,3.1,8.2,5.1,13.3,5.1c11,0,20-9,20-20
	c0-0.1,0-0.3,0-0.4l62.2-37.7c4.6,4.1,10.6,6.6,17.2,6.6c6.6,0,12.6-2.5,17.1-6.5l62.4,39.9c1,10.1,9.5,18.1,19.9,18.1
	c11,0,20-9,20-20c0-0.3,0-0.5,0-0.8l70.3-42.6c2.6,1.8,5.8,2.8,9.2,2.8c9.2,0,16.6-7.4,16.6-16.6S458.6,232.9,449.4,232.9z"/>
<path class="st0" d="M449.4,348.3c-9,0-16.4,7.2-16.6,16.2L359,409.2c-2.6-1.7-5.7-2.7-9-2.7c-3.7,0-7.2,1.2-9.9,3.3l-70.7-45.2
	c0-0.3,0.1-0.7,0.1-1c0-11-9-20-20-20c-11,0-20,9-20,20c0,1.4,0.1,2.7,0.4,4.1l-68.3,41.4c-2.8-2.3-6.5-3.7-10.4-3.7
	c-9.2,0-16.6,7.4-16.6,16.6s7.4,16.6,16.6,16.6c9.2,0,16.6-7.4,16.6-16.6c0-0.2,0-0.4,0-0.6l0,0.1l69.4-42c3.4,2.7,7.7,4.3,12.4,4.3
	c5.7,0,10.8-2.4,14.5-6.2l69.6,44.5c0,0.4-0.1,0.8-0.1,1.2c0,9.2,7.4,16.6,16.6,16.6s16.6-7.4,16.6-16.6c0-0.8-0.1-1.6-0.2-2.3
	l72-43.6c2.9,2.6,6.8,4.2,11,4.2c9.2,0,16.6-7.4,16.6-16.6C466,355.7,458.6,348.3,449.4,348.3z"/>
</svg>
