<?xml version="1.0" encoding="utf-8"?>
<!-- Generator: Adobe Illustrator 27.0.1, SVG Export Plug-In . SVG Version: 6.00 Build 0)  -->
<svg version="1.1" id="ntic" xmlns="http://www.w3.org/2000/svg" xmlns:xlink="http://www.w3.org/1999/xlink" x="0px" y="0px"
	 viewBox="0 0 500 500" style="enable-background:new 0 0 500 500;" xml:space="preserve">
<style type="text/css">
	.st0{fill:url(#SVGID_1_);}
</style>
<radialGradient id="SVGID_1_" cx="131.6393" cy="282.9562" r="103.5813" gradientTransform="matrix(3.4444 0 0 3.4444 -295.7276 -871.2525)" gradientUnits="userSpaceOnUse">
	<stop  offset="0" style="stop-color:#8E388E"/>
	<stop  offset="1" style="stop-color:#1D4C8B"/>
</radialGradient>
<path class="st0" d="M476.8,198L369.3,92.3c-25.9-25.5-67.4-26-93.9-1.1L244.8,120l-22.7-23.2c-25.7-26.3-67.8-27-94.4-1.6
	L22.3,195.8c-27.5,26.3-28.5,69.9-2.1,97.4l109,113.4c25.7,26.7,68.2,27.5,94.9,1.9l29.6-28.5l25.1,24.5c25.6,25,66.5,25.2,92.3,0.5
	l105-100.5C506.3,275.5,506.7,227.3,476.8,198z M206.9,389.9c-15.9,15.7-41.4,15.7-57.3,0L40.4,282.6c-18.9-18.6-18.8-49,0.2-67.4
	l104.6-101.5c15.8-15.3,40.8-15.6,56.9-0.6l8,7.4l-69.7,67.6c-11,10.7-11.1,28.4-0.2,39.2l77.7,76.9c9.9,9.8,25.7,9.8,35.6,0
	l76.2-75.2c0,0,8.4,10.9,7.8,22.8s-10.4,19.4-10.4,19.4L206.9,389.9z M460.3,282.6L354,385.9c-15.8,15.3-40.8,15.5-56.8,0.4
	l-6.5-6.1l85.3-81c13-12.3,13.2-33,0.6-45.6L300.7,178c-10.2-10.2-26.7-10.1-36.8,0.1L189.7,253c0,0-6.7-11-6.1-22.9
	c0.6-11.8,8.7-19.3,8.7-19.3l99-99.9c16.5-16.6,43.4-16.5,59.7,0.3l110.1,113.1C477,240.6,476.6,266.7,460.3,282.6z"/>
</svg>
