<svg id="Layer_1" data-name="Layer 1" xmlns="http://www.w3.org/2000/svg" viewBox="0 0 212 212"><title>okb-okb-logo</title><g id="Path-raw"><circle id="Oval" cx="106" cy="48" r="48" style="fill:#88bdf3"/><circle id="Oval-Copy" cx="106" cy="164" r="48" style="fill:#3075ee"/><circle id="Oval-Copy-2" cx="164" cy="106" r="48" style="fill:#5795f1"/><circle id="Oval-Copy-3" cx="48" cy="106" r="48" style="fill:#205fec"/><path id="Combined-Shape" d="M94.7,94.7A48,48,0,0,1,59.4,59.4,48.31,48.31,0,0,1,94.7,94.7Z" style="fill:#134bef"/><path id="Combined-Shape-2" data-name="Combined-Shape" d="M59.3,152.7a48,48,0,0,1,35.3-35.3A48.31,48.31,0,0,1,59.3,152.7Z" style="fill:#0932e8"/><path id="Combined-Shape-3" data-name="Combined-Shape" d="M117.3,117.3a48,48,0,0,1,35.3,35.3A48.31,48.31,0,0,1,117.3,117.3Z" style="fill:#164bea"/><path id="Combined-Shape-4" data-name="Combined-Shape" d="M152.7,59.3a48,48,0,0,1-35.3,35.3A48.31,48.31,0,0,1,152.7,59.3Z" style="fill:#3170f1"/></g></svg>