<?xml version="1.0" encoding="utf-8"?>
<!-- Generator: Adobe Illustrator 24.0.0, SVG Export Plug-In . SVG Version: 6.00 Build 0)  -->
<svg version="1.1" id="Layer_1" xmlns="http://www.w3.org/2000/svg" xmlns:xlink="http://www.w3.org/1999/xlink" x="0px" y="0px"
	 viewBox="0 0 256.7 278.2" style="enable-background:new 0 0 256.7 278.2;" xml:space="preserve">
<path d="M127.8,8.9C138.4,7.7,148,2.8,158.3,0c1.4,2.8,3.1,6.2,6.8,6.2c3.7,0.6,5.8-3,7.5-5.7c8.9,3.5,17.1,8.4,26.2,11.4
	c4.7,1.6,10.4,1.3,14,5.3c4.3,4.7,4.4,11.5,3.7,17.4c-0.9,4.7-3.6,9.7-8.6,10.9c-4.8,1.2-9.6,2-14.1,4c-7.3,2.9-14,7.4-21.7,9.5
	c-1-1.8-2.1-3.5-3.2-5.3c-2.3,0-4.8-0.2-6.9,1c-1.4,1.2-2.3,2.9-3.3,4.4c-11.2-0.6-21.2-7.2-32.5-7c-11.7,0.2-23.3,3-33.9,7.9
	c-23,9.1-41.6,27.8-51.9,50.2c-5.6,12.5-9.1,26-9.6,39.7c-0.4,23.5,6.7,47.4,21.1,66.1c6.9,10,16.2,18.2,26.2,25
	c21.2,14.9,48.3,20.4,73.9,17.3c31.2-3.7,60.4-21.6,77.9-47.7c11.7-16.3,18.2-35.9,19.7-55.8c1.8-15.8-0.9-31.8-5.8-46.8
	c-3.8-12.3-10.5-23.5-18.2-33.7c-3.9-5.4-8.8-9.8-13.4-14.5c9.2,6.7,16.8,15.3,23.2,24.7c11.6,16.4,18.4,35.9,20.9,55.8
	c0.6,12.5,1,25.2-1.9,37.4c-4.9,25.1-18.1,48.4-36.7,65.9c-9.1,9.3-20.3,16-31.7,22.1c-11,5.4-22.9,9.3-35.1,10.8
	c-24.9,4.2-51.1,0.9-74.1-9.7c-4.8-2.4-9.4-5.2-14.1-7.7c-18.5-11.5-34.4-27.5-45.2-46.4C7.8,194.5,0.6,174.6,0,154
	c0.1-10-0.6-20,1.3-29.9c5.1-30.1,20.1-58.6,42.9-79c12.3-11.6,27-20.3,42.6-26.6C99.8,12.9,113.8,10.4,127.8,8.9z"/>
<path d="M118.8,106.4c5.9-0.8,12-0.8,18,0c12.7,2.8,23.8,12,28.8,24.1c5.9,12.1,4.2,26.8-2.6,38.2c-5.8,8.6-14.3,15.6-24.5,18.1
	c-4.4,0.8-8.9,2.4-13.5,1.6c-6.2-1-12.6-2.3-18-5.7c-13.3-7.4-21.9-22.7-20.9-38c0-8.7,4-16.9,9.1-23.8
	C100.8,113.4,109.6,108.5,118.8,106.4z"/>
</svg>
