<?xml version="1.0" encoding="utf-8"?>
<!-- Generator: Adobe Illustrator 27.7.0, SVG Export Plug-In . SVG Version: 6.00 Build 0)  -->
<svg version="1.1" id="Layer_1" xmlns="http://www.w3.org/2000/svg" xmlns:xlink="http://www.w3.org/1999/xlink" x="0px" y="0px"
	 viewBox="0 0 500 500" style="enable-background:new 0 0 500 500;" xml:space="preserve">
<style type="text/css">
	.st0{fill:#318BF5;}
</style>
<g>
	<path class="st0" d="M447.3,95.5l-0.3-0.2L447.3,95.5c-14.6-19.2-40.6-41-40.6-41C376.9,30.9,340.9,13.7,300,5.4
		C231.3-8.7,165.2,5.4,112.8,40.5C60.2,75.3,21.4,131.2,7.3,200.9c-15.4,76.2,3,148.9,45.3,203.6c0,0,3.9,5.4,11.4,13.6l0.1,0
		c29.5-29.5,39.7-73.1,27.5-113.1c-8.6-28.8-10-59.2-4-88.6c9.8-48.4,37.6-89,75.8-113.6c33.7-21.4,75.3-30.4,119.8-21.3
		c95.6,19.5,147.4,110.7,129,202.2c-9.8,48.4-37.6,88.9-75.8,113.5c-33.7,21.4-75.3,30.4-119.8,21.3c-8.4-1.7-16.6-4-24.7-7
		c-38.2-13.8-80.9-4.2-109.5,24.7c3.3,3,6.9,6.1,10.8,9.2c29.8,23.6,65.9,40.8,106.7,49.1c68.7,14,134.8-0.1,187.2-35.1
		c52.6-34.8,91.4-90.8,105.5-160.4C508,222.9,489.7,150.3,447.3,95.5L447.3,95.5L447.3,95.5z M93.3,445.5l1-1l0.1,0.1L93.3,445.5z"
		/>
</g>
</svg>
