<?xml version="1.0" encoding="utf-8"?>
<!-- Generator: Adobe Illustrator 27.7.0, SVG Export Plug-In . SVG Version: 6.00 Build 0)  -->
<svg version="1.1" id="Layer_1" xmlns="http://www.w3.org/2000/svg" xmlns:xlink="http://www.w3.org/1999/xlink" x="0px" y="0px"
	 viewBox="0 0 500 500" style="enable-background:new 0 0 500 500;" xml:space="preserve">
<style type="text/css">
	.st0{fill:#FFFFFF;}
	.st1{fill:#F00A19;}
</style>
<ellipse class="st0" cx="251" cy="250.2" rx="203.2" ry="225.3"/>
<path class="st1" d="M283.4,236.7c6.2,10.9,15.2,11.8,21.2,2.7c7.9-11.9,14.5-25.6,17.3-39.4c1.8-8.9,1.2-21.6-9.2-28.1
	c-7.1-4.5-17.3-4-21.1,2.2c-6.2,10.3-16,20-13.2,35.2C281.1,217.5,278.3,227.7,283.4,236.7z M216.6,232.4c6.4-0.5,11.2-2.6,14.2-9.9
	c5-12.3,11.5-23.8,8.5-38.3c0.7-8.5,1.4-17.4-3.6-25.9c-7.5-12.7-16.9-11.7-25.4-2.7c-15.1,16.1-17.6,46.3-7.8,66.8
	C205.7,229,209.6,232.9,216.6,232.4z M345.7,243.2c-3.5-3.4-11.5,2.9-14.9,8.7c-3.2,5.5-2.7,11.7,2,15.3c7.9,5.9,3.1,10.9,1.3,17.3
	c-9.1,34.1-34.8,49.2-65.9,56.1c-21.8,4.9-44.6-1.7-61.6-13.4c-18.5-12.7-29.7-34.2-39.9-55.2c-7.3-15.1-13.3-27.9,5.8-38.6
	c6.3-3.5,10.1-9.9,6.9-17.9c-3.3-8.2-10.9-8.6-17.7-7.4c-8.7,1.7-17.7,0.3-25.4-4c-5.6-2.9-12-4.8-17.3,1.2
	c-5.3,6-1.4,11.8,0.1,17.7c2.2,8.8,11.7,13.8,11.7,24c0,28.8,10.8,52.3,28.7,75.9c21.7,28.5,47.7,42.7,81.5,49.8
	c13.5,2.9,24.1-4.8,40.1-1.1c25.4,0.9,43.7-19.5,61.7-36.4c18-16.9,18.1-47.6,42.3-61.8c7.7-4.5,7.4-13.4,3.9-20.8
	C379.2,231.8,358.9,255.8,345.7,243.2z M496.1,198.6c-2.4-18.6-8.6-36.2-12.3-54.5c-6.7-33.1-33.5-57.3-54.6-83.1
	c-8.4-10.2-18.6-22-30-27.7C365.7,16.7,329.4,5.2,292.6,0.9c-34.6-4-69.8,3.3-103.3,14c-9.7,3.1-20.3,1.5-29.6,8.8
	c-24.6,19.5-52.5,34.4-75,56.9c-8.1,8.2-15.6,16.9-22.5,26.1c-14,18.5-20.6,42.4-36.3,59c-2.3,2.4-3.5,5.6-4.4,8.8
	c-3.5,12.4-4.1,24.8-9,36.8c-5,12.6-10.6,24.4-8.8,38.5c1.5,11.6,3.8,22.5,3.5,34.2c5.3,29.2,7.2,58.9,17.2,87.2
	c4.4,12.2,13.2,21.2,20.3,31.1c23,32.3,45.4,66.4,88.6,75.5c6.1,1.3,12.4,3,17.9,5.9c35,18.4,73.1,17.2,110.3,14.6
	c46.8-3.3,88.8-22.4,124.1-53.8c7.9-7.1,19.2-8.5,25.4-17.7c15-22.1,35.4-40.4,46.1-65.5c10.6-24.8,20.2-50,31.5-74.5
	c4.1-8.8,5.1-17.9,5.3-27.2c0.1-5.3-0.1-10.7-0.1-16.1C493.9,228.6,497.9,213.4,496.1,198.6L496.1,198.6z M434.3,256.6
	c-9.3,55-31,106.9-81.4,140.7c-26.4,17.7-51.3,36-85.8,36.7c-13.4,0.3-26.7,10.9-42.4,7.7c-32.6-5.4-61.5-17.1-91.1-35.2
	c-37-22.6-43.2-60.3-63.7-90.7c-1.8-2.6-3-7.4-1.8-10.1c10.5-22.7-2.5-45.5,0.2-68.8c2.5-21.2,11.8-38.3,19.5-56
	c10.8-24.6,28.9-45.3,48.7-63.9c25.5-24,52.4-46.9,89-49.3c14.5-0.9,25.7-10.2,40.3-9.4c55.1,3.2,99.6,22.2,134.9,68.5
	C431.4,167,441.9,211.2,434.3,256.6L434.3,256.6z"/>
</svg>
