<?xml version="1.0" encoding="utf-8"?>
<!-- Generator: Adobe Illustrator 24.0.0, SVG Export Plug-In . SVG Version: 6.00 Build 0)  -->
<svg version="1.1" id="Layer_1" xmlns="http://www.w3.org/2000/svg" xmlns:xlink="http://www.w3.org/1999/xlink" x="0px" y="0px"
	 viewBox="0 0 512 512" style="enable-background:new 0 0 512 512;" xml:space="preserve">
<style type="text/css">
	.st0{fill:#8A67AC;}
	.st1{fill:#8C69AF;}
	.st2{fill:#B49AC9;}
	.st3{fill:#E5E5E5;}
	.st4{fill:url(#SVGID_1_);}
</style>
<g>
	<g>
		<path d="M256,211c-24.8,0-45,20.2-45,45c0,8.3,6.7,15,15,15s15-6.7,15-15c0-8.3,6.7-15,15-15c8.3,0,15-6.7,15-15
			S264.3,211,256,211z"/>
	</g>
</g>
<g>
	<g>
		<path d="M475.8,282.6c22.3-16.7,36.2-43,36.2-71.6c0-38.6-25.2-72.6-61.5-85c-5-53.8-50-96-104.5-96c-5.1,0-10.3,0.4-15.7,1.4
			C310.5,11.3,283.9,0,256,0s-54.5,11.3-74.3,31.4c-5.5-0.9-10.7-1.4-15.7-1.4c-55,0-100.5,42.9-105.5,96C24.8,138.4,0,172.4,0,211
			c0,28.8,13.8,55.2,35.8,71.8C12,296.6,0,312.8,0,331c0,0.4,0,0.8,0,1.3C1,431.5,115.4,512,256,512s255-80.5,256-179.8
			c0-0.4,0-0.8,0-1.3C512,312.7,499.8,296.4,475.8,282.6z M482,211c0,25.1-16.4,47.7-40.3,56.4c-22.7-8-50.2-14.5-80.9-19
			c-0.8-11.1-3.4-21.7-7.4-31.6l84.4-63.3C463.7,160.8,482,184.3,482,211z M330.5,61.8c5.6-1.2,10.7-1.8,15.5-1.8
			c39,0,71,30.2,74.6,68.8l-82.5,61.9c-10.8-13.5-24.8-24.3-40.9-31.2L330.5,61.8z M331,256c0,41.4-33.6,75-75,75s-75-33.6-75-75
			s33.6-75,75-75S331,214.6,331,256z M256,30c17.5,0,34.3,6.3,47.7,17.6l-35.6,104.1c-4-0.5-8-0.7-12.1-0.7c-4.1,0-8.1,0.2-12.1,0.7
			L208.3,47.6C221.7,36.3,238.5,30,256,30z M166,60c4.8,0,9.8,0.6,15.5,1.8l33.3,97.6c-16.1,6.9-30.2,17.7-41,31.3l-83.4-62
			C94.2,90.8,127.3,60,166,60z M30,211c0-26.8,17.9-50.3,43.3-57.6l85.3,63.4c-4,9.9-6.5,20.5-7.3,31.6c-31,4.6-58.6,11.1-81.4,19.2
			C46.2,259.1,30,236.4,30,211z M256,482c-96.5,0-179.1-41.5-211.4-98c56.8,28.4,147,37,211.4,37c64.4,0,154.6-8.7,211.4-37
			C434.3,441.9,350.5,482,256,482z M256,391c-140.2,0-226-36.8-226-60c0-6.5,8.9-17.5,33.7-28.8c22.4-10.1,53.8-18.4,89.7-23.9
			c1.1,5.2,2.6,10.2,4.5,15.1c-19.9,12.9-32.5,26.9-33.1,27.6c-5.5,6.2-5,15.6,1.2,21.2s15.7,5,21.2-1.2c0.1-0.1,9.9-10.9,25.4-21.3
			C191.8,344.8,222,361,256,361s64.2-16.2,83.4-41.3c15.4,10.4,25.3,21.2,25.4,21.3c5.5,6.2,15,6.7,21.2,1.2
			c6.2-5.5,6.7-15,1.2-21.2c-0.6-0.7-13.2-14.6-33.1-27.6c1.9-4.9,3.4-9.9,4.5-15.1c84,12.8,123.4,37.8,123.4,52.6
			C482,353.9,397.4,391,256,391z"/>
	</g>
</g>
<path class="st0" d="M482,211c0,25.1-16.4,47.7-40.3,56.4c-22.7-8-50.2-14.5-80.9-19c-0.8-11.1-3.4-21.7-7.4-31.6l84.4-63.3
	C463.7,160.8,482,184.3,482,211z"/>
<path class="st0" d="M330.5,61.8c5.6-1.2,10.7-1.8,15.5-1.8c39,0,71,30.2,74.6,68.8l-82.5,61.9c-10.8-13.5-24.8-24.3-40.9-31.2
	L330.5,61.8z"/>
<circle cx="256" cy="256" r="75"/>
<path class="st0" d="M256,30c17.5,0,34.3,6.3,47.7,17.6l-35.6,104.1c-4-0.5-8-0.7-12.1-0.7c-4.1,0-8.1,0.2-12.1,0.7L208.3,47.6
	C221.7,36.3,238.5,30,256,30z"/>
<path class="st0" d="M166,60c4.8,0,9.8,0.6,15.5,1.8l33.3,97.6c-16.1,6.9-30.2,17.7-41,31.3l-83.4-62C94.2,90.8,127.3,60,166,60z"/>
<path class="st0" d="M30,211c0-26.8,17.9-50.3,43.3-57.6l85.3,63.4c-4,9.9-6.5,20.5-7.3,31.6c-31,4.6-58.6,11.1-81.4,19.2
	C46.2,259.1,30,236.4,30,211z"/>
<path class="st1" d="M256,482c-96.5,0-179.1-41.5-211.4-98c56.8,28.4,147,37,211.4,37c64.4,0,154.6-8.7,211.4-37
	C434.3,441.9,350.5,482,256,482z"/>
<path class="st2" d="M256,391c-140.2,0-226-36.8-226-60c0-6.5,8.9-17.5,33.7-28.8c22.4-10.1,53.8-18.4,89.7-23.9
	c1.1,5.2,2.6,10.2,4.5,15.1c-19.9,12.9-32.5,26.9-33.1,27.6c-5.5,6.2-5,15.6,1.2,21.2s15.7,5,21.2-1.2c0.1-0.1,9.9-10.9,25.4-21.3
	C191.8,344.8,222,361,256,361s64.2-16.2,83.4-41.3c15.4,10.4,25.3,21.2,25.4,21.3c5.5,6.2,15,6.7,21.2,1.2c6.2-5.5,6.7-15,1.2-21.2
	c-0.6-0.7-13.2-14.6-33.1-27.6c1.9-4.9,3.4-9.9,4.5-15.1c84,12.8,123.4,37.8,123.4,52.6C482,353.9,397.4,391,256,391z"/>
<circle class="st3" cx="255.9" cy="256.1" r="75"/>
<linearGradient id="SVGID_1_" gradientUnits="userSpaceOnUse" x1="200.47" y1="276.91" x2="273.47" y2="276.91" gradientTransform="matrix(1 0 0 -1 0 514)">
	<stop  offset="5.586592e-03" style="stop-color:#F2F2F2"/>
	<stop  offset="1" style="stop-color:#FFFFFF"/>
</linearGradient>
<circle class="st4" cx="237" cy="237.1" r="36.5"/>
</svg>
