<?xml version="1.0" encoding="utf-8"?>
<!-- Generator: Adobe Illustrator 23.0.3, SVG Export Plug-In . SVG Version: 6.00 Build 0)  -->
<svg version="1.1" id="Layer_1" xmlns="http://www.w3.org/2000/svg" xmlns:xlink="http://www.w3.org/1999/xlink" x="0px" y="0px"
	 viewBox="0 0 200 200" style="enable-background:new 0 0 200 200;" xml:space="preserve">
<style type="text/css">
	.st0{fill:#FFFFFF;}
	.st1{fill:#D95E59;}
	.st2{fill:#FF6666;}
	.st3{fill:#FFF4C7;}
	.st4{fill:#016273;}
</style>
<rect x="66.5" y="14" class="st0" width="70" height="70"/>
<path class="st1" d="M168.9,31.1L31.1,168.9c38.1-38,99.8-38,137.8,0c17.7-17.6,28.6-42,28.6-69C197.5,73.1,186.6,48.7,168.9,31.1z
	 M114,196.5c-2.3,0.3-4.6,0.6-7,0.8C109.3,197.1,111.7,196.8,114,196.5z"/>
<path class="st2" d="M167.6,29.8c-0.4-0.4-0.9-0.8-1.3-1.3c-1-1-2.1-1.9-3.2-2.8c-0.2-0.2-0.5-0.4-0.7-0.6c-0.6-0.5-1.2-1-1.8-1.5
	l0,0c-1-0.8-1.9-1.5-2.9-2.2c-1.3-1-2.7-1.9-4-2.8c-0.7-0.5-1.4-0.9-2-1.3c-2.1-1.3-4.2-2.5-6.3-3.6c-0.7-0.4-1.4-0.7-2.1-1.1
	c-1.4-0.7-2.9-1.4-4.3-2c-2-0.9-4.1-1.7-6.1-2.4c-1-0.3-1.9-0.7-2.9-1c-0.6-0.2-1.1-0.3-1.7-0.5c-4.1-1.2-8.3-2.2-12.6-2.9
	c-0.6-0.1-1.1-0.2-1.6-0.3c-1.2-0.2-2.3-0.3-3.5-0.4c-1.2-0.1-2.3-0.2-3.5-0.3c-1-0.1-2.1-0.1-3.2-0.2c-0.5,0-1,0-1.5,0
	c-1.9-0.1-3.8,0-5.6,0c-0.6,0-1.1,0-1.7,0.1c-0.7,0-1.4,0.1-2.1,0.1S91.5,2.9,90.8,3c-0.8,0.1-1.6,0.1-2.3,0.3
	c-0.6,0.1-1.1,0.1-1.7,0.2c-0.3,0-0.6,0.1-0.9,0.1c-0.7,0.1-1.3,0.2-2,0.3c-0.8,0.1-1.5,0.3-2.3,0.4c-0.6,0.1-1.2,0.2-1.8,0.4
	c-0.4,0.1-0.7,0.2-1.1,0.2C78.1,5,77.8,5,77.5,5.1c-0.4,0.1-0.8,0.2-1.3,0.3c-0.5,0.1-0.9,0.2-1.4,0.4c-0.2,0-0.5,0.1-0.8,0.2
	c-0.4,0.1-0.8,0.2-1.2,0.3c-0.5,0.1-0.9,0.3-1.3,0.4C71.2,6.8,71,6.9,70.7,7c-0.6,0.2-1.2,0.4-1.7,0.6c-0.2,0-0.3,0.1-0.5,0.2
	c-0.7,0.2-1.3,0.5-2,0.7C65.7,8.7,65,9,64.3,9.3c-1.1,0.4-2.2,0.9-3.3,1.4l0,0c-1.1,0.5-2.2,1-3.2,1.5c-0.6,0.3-1.2,0.6-1.8,0.9
	c-0.6,0.3-1.2,0.6-1.8,0.9c-17,9.1-31,23.1-40.1,40.1c-0.3,0.6-0.6,1.2-0.9,1.8c-0.3,0.6-0.6,1.2-0.9,1.8c-0.5,1.1-1,2.1-1.5,3.2
	l0,0c-0.5,1.1-0.9,2.2-1.4,3.3c-0.4,0.8-0.7,1.5-1,2.3c-0.2,0.6-0.4,1.2-0.6,1.8c-0.1,0.4-0.3,0.8-0.4,1.2c-0.1,0.3-0.2,0.7-0.3,1
	c-0.2,0.5-0.3,1-0.5,1.5c-0.1,0.2-0.1,0.4-0.2,0.6c-0.2,0.6-0.4,1.3-0.5,1.9c0,0.1,0,0.2-0.1,0.3c-0.2,0.6-0.3,1.2-0.5,1.8
	c-0.1,0.3-0.2,0.6-0.2,0.9C5,78,4.9,78.4,4.8,78.9c-0.1,0.2-0.1,0.4-0.2,0.7c-0.1,0.7-0.3,1.3-0.4,2c-0.2,0.8-0.3,1.5-0.4,2.3
	c-0.1,0.8-0.3,1.5-0.4,2.3c-0.2,1.2-0.3,2.3-0.4,3.5c-0.1,1.2-0.2,2.3-0.3,3.5c-0.1,1-0.1,2.1-0.2,3.2c0,0.5,0,1,0,1.5
	c-0.1,1.9,0,3.8,0,5.6c0,0.6,0,1.1,0.1,1.7c0,0.7,0.1,1.4,0.1,2.2c0,0.7,0.1,1.5,0.2,2.2c0.1,0.7,0.1,1.4,0.2,2.2c0,0.1,0,0.1,0,0.2
	c0.1,0.5,0.1,1,0.2,1.5c0.1,0.4,0.1,0.9,0.2,1.3c0,0.2,0.1,0.4,0.1,0.6c0.1,0.6,0.2,1.3,0.3,1.9c0,0.1,0,0.2,0,0.3
	c0.1,0.7,0.3,1.5,0.4,2.2c0.1,0.6,0.3,1.3,0.4,1.9c4.1,18.3,13.4,34.6,26.2,47.4l138-138C168.5,30.6,168,30.2,167.6,29.8z
	 M117.1,65.5c-9.4,9.6-24.8,9.6-34.4,0c-9.5-9.5-9.5-25,0-34.4s25-9.5,34.4,0S126.6,56.1,117.1,65.5z"/>
<path class="st3" d="M168.9,169c-7.7,7.7-16.7,14.1-26.6,18.9c-2.1,1-4.3,2-6.5,2.8c-0.7,0.3-1.5,0.6-2.2,0.8
	c-0.6,0.2-1.2,0.4-1.7,0.6c-0.4,0.1-0.8,0.3-1.2,0.4c-0.3,0.1-0.7,0.2-1,0.3c-0.5,0.2-1,0.3-1.5,0.5c-0.2,0.1-0.4,0.1-0.6,0.2
	c-0.6,0.2-1.3,0.4-1.9,0.5c-0.1,0-0.2,0-0.3,0.1c-0.6,0.2-1.2,0.3-1.8,0.5c-0.3,0.1-0.6,0.2-0.9,0.2c-0.5,0.1-0.9,0.2-1.4,0.3
	c-0.2,0.1-0.4,0.1-0.7,0.2c-0.7,0.1-1.3,0.3-2,0.4c-0.8,0.2-1.5,0.3-2.3,0.4c-0.8,0.1-1.5,0.3-2.3,0.4c-2.3,0.3-4.6,0.6-7,0.8
	c-1,0.1-2.1,0.1-3.2,0.2c-0.5,0-1,0-1.5,0c-1.9,0.1-3.8,0-5.6,0c-0.6,0-1.1,0-1.7-0.1c-0.7,0-1.4-0.1-2.2-0.1
	c-0.7,0-1.5-0.1-2.2-0.2c-0.7-0.1-1.4-0.1-2.2-0.2c-0.1,0-0.1,0-0.2,0c-0.5-0.1-1-0.1-1.5-0.2c-0.4-0.1-0.9-0.1-1.3-0.2
	c-0.2,0-0.4-0.1-0.6-0.1c-0.6-0.1-1.3-0.2-1.9-0.3c-0.1,0-0.2,0-0.3,0c-0.7-0.1-1.5-0.3-2.2-0.4c-19-3.9-36.1-13.3-49.3-26.6
	C69.2,130.9,130.8,130.9,168.9,169z"/>
<path class="st4" d="M91.4,39.7c-4.8,4.8-4.8,12.5,0,17.3s12.5,4.8,17.3,0c4.8-4.8,4.8-12.5,0-17.3C103.8,34.9,96.1,34.9,91.4,39.7z
	"/>
</svg>
