<?xml version="1.0" encoding="utf-8"?>
<!-- Generator: Adobe Illustrator 27.0.1, SVG Export Plug-In . SVG Version: 6.00 Build 0)  -->
<svg version="1.1" id="polyx" xmlns="http://www.w3.org/2000/svg" xmlns:xlink="http://www.w3.org/1999/xlink" x="0px" y="0px"
	 viewBox="0 0 500 500" style="enable-background:new 0 0 500 500;" xml:space="preserve">
<style type="text/css">
	.st0{opacity:0.9;fill:#FFFFFF;enable-background:new    ;}
	.st1{fill:url(#SVGID_1_);}
	.st2{fill-rule:evenodd;clip-rule:evenodd;fill:url(#SVGID_00000068656789364375669170000008962006564302081470_);}
</style>
<circle class="st0" cx="250" cy="250" r="249"/>
<linearGradient id="SVGID_1_" gradientUnits="userSpaceOnUse" x1="274.6129" y1="374.446" x2="273.7311" y2="-73.63" gradientTransform="matrix(1 0 0 -1 0 502)">
	<stop  offset="0" style="stop-color:#FF2E72"/>
	<stop  offset="0.9349" style="stop-color:#4A125E"/>
</linearGradient>
<path class="st1" d="M309.4,237.1c-7.5,6.6-19.6,10.2-37.1,10.2h-78.1v118.9h32.6v-88h49.5c15.6,0,29.2-2.8,40.7-8.5l0,0
	c11.8-5.9,21-14.2,27.7-24.9c6.7-10.7,10-23.4,10-37.9c0-14.4-3.2-29.1-10-39.9c-6.6-10.7-15.9-18.9-27.7-24.5
	c-11.6-5.9-25.2-8.8-40.8-8.8h-82.2v30.9h78.1c17.5,0,29.6,3.6,37.1,10.2c7.4,6.6,11.4,18.4,11.4,32.1
	C320.8,220.3,316.9,230.2,309.4,237.1z"/>
<linearGradient id="SVGID_00000063623688946714737770000013461151946660390846_" gradientUnits="userSpaceOnUse" x1="250.2411" y1="374.494" x2="249.3592" y2="-73.582" gradientTransform="matrix(1 0 0 -1 0 502)">
	<stop  offset="0" style="stop-color:#FF2E72"/>
	<stop  offset="0.9349" style="stop-color:#4A125E"/>
</linearGradient>
<path style="fill-rule:evenodd;clip-rule:evenodd;fill:url(#SVGID_00000063623688946714737770000013461151946660390846_);" d="
	M499,250c0,137.5-111.5,249-249,249C112.5,499,1,387.5,1,250C1,112.5,112.5,1,250,1C387.5,1,499,112.5,499,250z M466.4,250
	c0,119.5-96.9,216.4-216.4,216.4S33.6,369.5,33.6,250c0-119.5,96.9-216.4,216.4-216.4S466.4,130.5,466.4,250z"/>
</svg>
