<?xml version="1.0" encoding="utf-8"?>
<!-- Generator: Adobe Illustrator 24.0.0, SVG Export Plug-In . SVG Version: 6.00 Build 0)  -->
<svg version="1.1" id="Layer_1" xmlns="http://www.w3.org/2000/svg" xmlns:xlink="http://www.w3.org/1999/xlink" x="0px" y="0px"
	 viewBox="0 0 865.8 888" style="enable-background:new 0 0 865.8 888;" xml:space="preserve">
<style type="text/css">
	.st0{display:none;}
	.st1{display:inline;}
	.st2{fill:#825C3C;}
	.st3{fill:#6B4B32;}
	.st4{fill:#936747;}
</style>
<g>
	<g class="st0">
		<path class="st1" d="M178.9,660.1c4.3-0.3,7.5-0.5,9.8-0.7c6.8-0.5,17.2-0.9,20.8-0.9c19.2,0,28.9,2.4,36.5,9.3
			c7.1,6.2,11,15.3,11,25.1c0,21.5-15.4,34.5-40.8,34.5c-1.1,0-3,0-5-0.1v20.4h-32.3L178.9,660.1L178.9,660.1z M211.2,702.9
			c1.3,0,3,0.1,3.6,0.1c7.3,0,11.4-3.2,11.4-9c0-5.4-4.7-9.4-11-9.4h-4V702.9L211.2,702.9z"/>
		<path class="st1" d="M324.1,690.8c5.8,5.4,9,12.8,9.5,21.6c1.3,21.7-15,37.4-38.8,37.4c-11.9,0-21.7-3.5-28.3-10.1
			c-5.8-5.8-9.5-14.6-9.5-22.8c0-20.8,14.4-34.9,36.8-36.2C305.3,680.1,316.7,683.8,324.1,690.8z M286.6,715.1
			c0.4,6.8,4.2,11.7,9.1,11.7c5.5,0,8.7-4.8,7.9-12.2c-0.7-6.3-4.3-10.5-9-10.5C289.7,704.1,286.2,708.6,286.6,715.1z"/>
		<path class="st1" d="M403.6,690.8c5.8,5.4,9,12.8,9.5,21.6c1.3,21.7-15,37.4-38.8,37.4c-11.9,0-21.7-3.5-28.3-10.1
			c-5.8-5.8-9.5-14.6-9.5-22.8c0-20.8,14.4-34.9,36.8-36.2C384.8,680.1,396.2,683.8,403.6,690.8z M366.2,715.1
			c0.4,6.8,4.2,11.7,9.1,11.7c5.5,0,8.7-4.8,7.9-12.2c-0.7-6.3-4.3-10.5-9-10.5C369.3,704.1,365.8,708.6,366.2,715.1z"/>
		<path class="st1" d="M479.4,692.1c-4.8-3.9-8.5-5.4-13.7-5.4c-8.9,0-15.4,7.1-15.4,16.8s7.4,17.3,16.5,17.3
			c5.8,0,10.2-1.7,15.6-5.8l13.8,25c-11.4,7.9-23.3,11.3-36.5,10.3c-25.9-1.7-43.6-20.9-43.6-47.5c0-11.9,4.8-24.2,12.9-32.2
			c8.5-8.5,21.5-13.7,33.9-13.7c13.3,0,22.5,3,33.3,10.6L479.4,692.1z"/>
		<path class="st1" d="M560.6,690.8c5.8,5.4,9,12.8,9.5,21.6c1.3,21.7-15,37.4-38.8,37.4c-11.9,0-21.7-3.5-28.3-10.1
			c-5.8-5.8-9.5-14.6-9.5-22.8c0-20.8,14.4-34.9,36.8-36.2C541.8,680.1,553.2,683.8,560.6,690.8z M523.2,715.1
			c0.4,6.8,4.2,11.7,9.1,11.7c5.5,0,8.7-4.8,7.9-12.2c-0.7-6.3-4.3-10.5-9-10.5C526.3,704.1,522.8,708.6,523.2,715.1z"/>
		<path class="st1" d="M605,747.7h-30.3v-64.3H605V747.7z M603.3,668.1c0,7-4.8,11.5-12.2,11.5c-7.3,0-12.2-4.7-12.2-11.5
			s5-11.5,12.2-11.5S603.3,661.3,603.3,668.1z"/>
		<path class="st1" d="M633.5,681.3c4,2.5,5.2,4.7,6.2,10.3c6.3-7.4,13.5-10.9,23.1-10.9c8.7,0,16.4,4.3,19.7,11
			c1.7,3.3,2.3,7.3,2.3,14.5v41.5h-30.3v-33.4c0-5.5-1.7-7.8-6.2-7.8c-2.3,0-4.6,1.1-6.7,3.3v37.9h-30.3v-40
			c0-14.1-0.5-16.8-3.8-21.6L633.5,681.3z"/>
	</g>
	<path class="st2" d="M730.7,597.8c-14-23.7-33.2-45.8-51.6-63c-13.2-2.4-26.3-4.9-38.4-10.3c-8.8-3.9-16.6-11.3-18.4-20.8
		c-3.5-18.9,14.8-29.4,31.4-29.1c11.8,0.1,18.2,3.5,33.8,8.6c5.3-4.6-0.7-32.4-1.9-38.8c-8.4-46.8-50.5-74.8-83.6-104.3
		c-28.7-25.6-61.4-50.8-81.8-83.4c-20-31.9-31.4-69.2-31.4-106.9c0-32.4,8.5-64.5,24.3-92.7c-30.3,7.3-59,19.6-86,34.7
		c-52,48.1-88.9,109.4-124,170.7c-9.6,15.4-14.8,33.7-15.6,51.6c0.1,0,0.3,0.1,0.4,0.1c15.5,4,33.9,9.6,42.6,24.2
		c11.6,19.2-8.5,40.6-28.3,36c-16.3-3.8-31.4-9.7-46.9-14.6c-41.9,4.2-76.3,38.8-91.1,76.8c-10.2,28.7-7.2,59,9.2,84.3
		c6-0.2,11.9,0,17.9,0.4c17.6,1.4,39.6,5,55.1,13.8c13.7,7.8,22,24.1,11.7,38.3c-14.9,20.5-37.5,3.4-55.3-0.8
		c-1.6-0.4-3.2-0.7-4.8-0.9c-74.6,19.4-94.6,110.8-56.2,169.8c11.5,17.7,26.3,32.9,42.1,46.8c11.7,10.3,33.6,33,48.9,35.9
		c56.8,10.8,116,15,171.8,16c89,1.5,178.1-7.5,265.2-25.7c8.2-1.7,16.4-3.6,24.6-5.7c7.7-2,19.9-21.6,24.8-27.9
		C760,728.3,764.5,654.9,730.7,597.8z"/>
	<path d="M816.7,554.6c-15.1-17-33.2-31.8-53.4-43.7c7.1-8.6,21.5-42.9,22.9-48.4c4.3-17.2,4.7-35.4,1.9-52.9
		c-10.7-67.1-71-97-123.3-129.1c-37.6-23.1-75-56.6-87.7-100.3c-8.1-27.7-3-57.6,10.6-82.6c7-12.9,16.3-24.7,27.3-34.4
		c9.6-8.5,21.6-13.7,25.1-27.2C652.9-13.3,546,1,521.8,5.1c-83.3,14.3-158.7,62.8-221.7,117.1c-28.4,24.5-57.1,48.5-79.2,79.1
		c-10.8,15-20.1,31.2-26.4,48.6c-1.6,4.4-11.4,54.5-8.9,54c-12.4,2.2-24.4,6.1-35.9,11.6c-47,22.7-78.9,72.2-89.3,122.3
		c-7.8,37.8-3,80.7,20.6,112.3c-1.4-1.8-24.4,17.3-26.7,19.3C12.5,606-8.4,664.8,3.1,719.5c5.6,26.7,18.7,51.5,37.2,71.6
		c48.1,52.2,122.3,70.2,189.6,81.7c105,18,214.7,18.5,320.7,9.4c102.2-8.7,231.4-25.4,290.1-120.5
		C884.7,690.7,866.9,611,816.7,554.6z M817.8,691.5c-4.6,37.4-26.1,69.8-57.6,90.2c-27,17.5-58.7,26.3-90.2,32.9
		c-87.1,18.2-176.2,27.3-265.2,25.7c-83.7-1.4-174.7-10.3-254.5-37.3c-42.1-14.3-83-42.6-96.7-85c-22.1-67.8,36.5-127.5,98.3-143.9
		c16.6-4.4,34.4-5.3,51.1-1.3c17.9,4.2,40.5,21.3,55.3,0.8c10.3-14.2,2-30.5-11.7-38.3c-15.5-8.9-37.6-12.4-55.1-13.8
		c-10.4-0.8-21-0.7-31.4,0.5c-3.6,0.4-30.3,8.2-31.3,7.2c-60.9-58.5,2.3-175.6,80.4-177.2c34-0.7,61.3,15,93.2,22.4
		c19.8,4.6,39.9-16.8,28.3-36c-8.8-14.6-27.2-20.2-42.6-24.2c-4.1-1-52.5-9.7-52.5-10.6c-1.3-53.4,44.4-95.9,80.7-129
		c64.8-59,147.5-119,243.6-124.5c-37.6,24.7-41.3,88.8-34.4,128.6c14.5,83.1,82.3,126.8,150.3,165.1c19.5,11,39.7,23.7,52.4,42.5
		c11.5,17,14.5,38.9,10.7,58.8c-1.6,8.4-4.7,16.4-7.9,24.2c-0.9,2.1-9,23.3-11,22.8c-42.9-10.1-48.4-17.4-66.1-17.6
		c-16.6-0.2-34.9,10.2-31.4,29.1c1.7,9.5,9.6,16.9,18.4,20.8c25.7,11.3,55.5,9.8,81.8,22C779,572.4,825.9,625.8,817.8,691.5z"/>
	<g>
		<path d="M352.5,677.6c6.2,5.2,13.7,9.2,20.1,12.2c41.7,19.6,93.2,19.7,134.3-1.5c10.9-5.6,24.8-12,31.3-23
			c7.5-12.8,0.3-31.4-14.1-35.4c-5.7-1.6-11.8-0.9-17.4,1c-16.6,5.5-27.2,15.8-44.5,20.1c-15.5,3.8-32,3.5-47.4-0.6
			c-15.1-4.1-31.9-16.8-47.1-19.2c-11.4-1.8-22.4,7-26.4,17.3C337.2,659.8,343.9,670.5,352.5,677.6z"/>
	</g>
	<g>
		<path d="M321.9,507.1c-1.7,22.6,13.5,46.9,38.6,45c23.5-1.8,38.1-27.2,33.5-49.1c-6.1-29.2-43.9-42.5-63.8-17.8
			C325.2,491.4,322.5,499.2,321.9,507.1z"/>
	</g>
	<g>
		<path d="M486.6,507.1c-1.7,22.6,13.5,46.9,38.6,45c23.5-1.8,38.1-27.2,33.5-49.1c-6.1-29.2-43.9-42.5-63.8-17.8
			C489.9,491.4,487.2,499.2,486.6,507.1z"/>
	</g>
	<g>
		<path class="st3" d="M640.7,820.4c2.4-0.4,4.8-0.9,7.2-1.3C645.5,819.5,643.1,819.9,640.7,820.4z"/>
		<path class="st3" d="M669.5,532.9c-0.2,0-0.4-0.1-0.6-0.1C669.1,532.9,669.3,532.9,669.5,532.9z"/>
		<path class="st3" d="M625.4,823.1c2.5-0.4,5-0.9,7.6-1.3C630.5,822.2,628,822.6,625.4,823.1z"/>
		<path class="st3" d="M623.3,507.2c0.4,1.1,0.9,2.1,1.4,3.2C624.1,509.4,623.7,508.3,623.3,507.2z"/>
		<path class="st3" d="M622.4,503.9c0.2,1.1,0.5,2.2,0.9,3.3C622.9,506.1,622.6,505,622.4,503.9z"/>
		<path class="st3" d="M624.7,510.5c0.5,1,1.2,2,1.8,2.9C625.9,512.5,625.3,511.5,624.7,510.5z"/>
		<path class="st3" d="M658.1,474.8c-0.1,0-0.3,0-0.5,0C657.8,474.8,658,474.8,658.1,474.8z"/>
		<path class="st3" d="M664.7,531.9c-0.3-0.1-0.7-0.2-1.1-0.2C663.9,531.8,664.3,531.9,664.7,531.9z"/>
		<path class="st3" d="M656.2,474.7c-0.1,0-0.2,0-0.4,0C655.9,474.7,656,474.7,656.2,474.7z"/>
		<path class="st3" d="M659.8,530.8c-0.4-0.1-0.9-0.2-1.3-0.3C658.9,530.6,659.4,530.7,659.8,530.8z"/>
		<path class="st3" d="M655.8,817.5c2-0.4,4-0.8,6-1.2C659.8,816.7,657.8,817.1,655.8,817.5z"/>
		<path class="st3" d="M628.8,516.2c-0.8-0.8-1.5-1.7-2.2-2.7C627.3,514.4,628,515.3,628.8,516.2z"/>
		<path class="st3" d="M648.5,527.5c0.5,0.2,1.1,0.4,1.6,0.5C649.6,527.9,649.1,527.7,648.5,527.5z"/>
		<path class="st3" d="M643.6,525.7c0.6,0.2,1.1,0.5,1.7,0.7C644.8,526.2,644.2,525.9,643.6,525.7z"/>
		<path class="st3" d="M559.8,50.1c-19.9,1.1-39.1,4.7-57.8,10c3.7-1,7.4-2,11.2-2.9c-15.8,28.2-24.3,60.3-24.3,92.7
			c0,37.7,11.5,75,31.4,106.9c20.4,32.7,53.2,57.9,81.8,83.4c33.1,29.5,75.2,57.5,83.6,104.3c1.1,6.4,7.1,34.2,1.9,38.8
			c-8.3-2.7-14-5-19.3-6.5c10.2,2.9,22.1,8.5,51.5,15.4c2,0.5,10.1-20.7,11-22.8c3.2-7.9,6.3-15.8,7.9-24.2
			c3.9-20,0.8-41.8-10.7-58.8c-12.7-18.9-32.9-31.6-52.4-42.5c-67.9-38.3-135.8-82-150.3-165.2C518.5,138.9,522.3,74.8,559.8,50.1z"
			/>
		<path class="st3" d="M653.4,529.1c0.5,0.1,1,0.3,1.5,0.4C654.4,529.4,653.9,529.2,653.4,529.1z"/>
		<path class="st3" d="M637.6,523c1,0.5,2,1,3,1.5C639.6,524,638.6,523.5,637.6,523z"/>
		<path class="st3" d="M631.6,518.8c0.8,0.7,1.7,1.4,2.6,2C633.3,520.2,632.4,519.5,631.6,518.8z"/>
		<path class="st3" d="M631.4,518.6c-0.8-0.7-1.7-1.5-2.4-2.3C629.7,517.1,630.5,517.9,631.4,518.6z"/>
		<path class="st3" d="M634.5,521.1c0.9,0.6,1.9,1.2,2.8,1.8C636.4,522.3,635.4,521.7,634.5,521.1z"/>
		<path class="st3" d="M622.3,495.6c1.4-8.6,8-14.8,16.2-18.2C630.2,480.8,623.7,487,622.3,495.6z"/>
		<path class="st3" d="M480.2,67.2c2.2-0.8,4.3-1.5,6.5-2.3C484.5,65.6,482.3,66.4,480.2,67.2z"/>
		<path class="st3" d="M475.2,69.1c-1.8,0.7-3.6,1.3-5.4,2.1l0,0C471.6,70.5,473.4,69.8,475.2,69.1z"/>
		<path class="st3" d="M477.5,839.2c1.3-0.1,2.7-0.1,4.1-0.2C480.2,839.1,478.8,839.2,477.5,839.2z"/>
		<path class="st3" d="M530.2,835.6c1.6-0.1,3.3-0.3,4.9-0.4C533.5,835.3,531.8,835.5,530.2,835.6z"/>
		<path class="st3" d="M499.6,60.8c-2.9,0.8-5.7,1.7-8.6,2.6C493.9,62.5,496.7,61.6,499.6,60.8z"/>
		<path class="st3" d="M492.2,838.5c1.2-0.1,2.4-0.1,3.6-0.2C494.6,838.3,493.4,838.4,492.2,838.5z"/>
		<path class="st3" d="M694.3,809c-3.7,1-7.4,1.9-11.1,2.7C686.9,810.8,690.6,809.9,694.3,809z"/>
		<path class="st3" d="M463.3,839.8c1.1,0,2.2-0.1,3.4-0.1C465.6,839.7,464.4,839.8,463.3,839.8z"/>
		<path class="st3" d="M722.6,546.5c-13.9-6.4-28.7-9-43.5-11.7c18.5,17.2,37.6,39.3,51.6,63c33.8,57.1,29.3,130.5-11.4,183.2
			c-4.9,6.3-17,25.8-24.7,27.9c23.1-6.1,45.6-14.3,65.6-27.1c31.6-20.4,53-52.8,57.6-90.2C825.9,625.8,779,572.4,722.6,546.5z"/>
		<path class="st3" d="M660.1,475.1c-0.1,0-0.2,0-0.3,0C659.9,475,660,475,660.1,475.1z"/>
		<path class="st3" d="M681.8,812c-3.3,0.8-6.7,1.5-10.1,2.2C675.1,813.5,678.5,812.8,681.8,812z"/>
		<path class="st3" d="M664,475.7c-0.3,0-0.5-0.1-0.8-0.2C663.5,475.6,663.7,475.7,664,475.7z"/>
		<path class="st3" d="M544.2,834.2c2.1-0.2,4.1-0.4,6.2-0.6C548.3,833.8,546.2,834,544.2,834.2z"/>
		<path class="st3" d="M668.2,476.7c-0.4-0.1-0.9-0.2-1.3-0.3C667.4,476.5,667.8,476.6,668.2,476.7z"/>
		<path class="st3" d="M662.3,475.4c-0.2,0-0.5-0.1-0.7-0.1C661.8,475.3,662.1,475.3,662.3,475.4z"/>
		<path class="st3" d="M666.8,476.3c-0.7-0.2-1.4-0.3-2-0.5C665.4,476,666.1,476.2,666.8,476.3z"/>
		<path class="st3" d="M558.9,832.6c2.2-0.2,4.5-0.5,6.7-0.8C563.4,832.1,561.2,832.4,558.9,832.6z"/>
		<path class="st3" d="M610,825.6c2.7-0.4,5.3-0.8,7.9-1.3C615.3,824.8,612.7,825.2,610,825.6z"/>
		<path class="st3" d="M573.9,830.8c2.5-0.3,5-0.7,7.5-1C578.9,830.2,576.4,830.5,573.9,830.8z"/>
		<path class="st3" d="M602.8,826.7c-3.8,0.6-7.6,1.1-11.5,1.7C595.2,827.9,599,827.3,602.8,826.7z"/>
	</g>
	<g>
		<path class="st4" d="M258.4,573.6c0.6-0.9,1.2-1.8,1.7-2.7C259.6,571.8,259,572.7,258.4,573.6c-8,11.1-18.3,11.2-28.8,8.3
			C240.1,584.8,250.3,584.7,258.4,573.6z"/>
		<path class="st4" d="M303.3,262.5c35-61.3,72-122.6,124-170.7c3.3-1.9,6.7-3.7,10.1-5.5c-45.2,23.8-85.8,56.2-121.1,88.3
			c-36.3,33.1-82,75.6-80.7,129c0,0.9,46,9.1,52.1,10.5C288.5,296.2,293.7,277.9,303.3,262.5z"/>
		<path class="st4" d="M246.6,535.3c-0.8-0.4-1.6-0.9-2.4-1.3C245,534.4,245.8,534.8,246.6,535.3c0.5,0.3,0.9,0.6,1.4,0.9
			C247.6,535.9,247.1,535.6,246.6,535.3z"/>
		<path class="st4" d="M302.4,374.4c6.3,1.5,12.7,0.3,18-2.6C315,374.7,308.7,375.9,302.4,374.4c-16.3-3.8-31.4-9.7-46.9-14.6
			C270.9,364.7,286.1,370.7,302.4,374.4z"/>
		<path class="st4" d="M444.1,82.9c-2.2,1.1-4.5,2.2-6.7,3.4C439.7,85.1,441.9,84,444.1,82.9z"/>
		<path class="st4" d="M293.4,315.7c4.6,1.3,9.3,2.8,13.9,4.7C302.7,318.4,298,316.9,293.4,315.7z"/>
		<path class="st4" d="M469.8,71.2L469.8,71.2c-0.1,0-0.2,0.1-0.4,0.1C469.5,71.3,469.7,71.2,469.8,71.2z"/>
		<path class="st4" d="M463.6,73.8c-1.7,0.7-3.4,1.4-5,2.1C460.3,75.2,461.9,74.5,463.6,73.8z"/>
		<path class="st4" d="M453.5,78.4c-1.8,0.9-3.7,1.7-5.6,2.6C449.8,80.1,451.6,79.2,453.5,78.4z"/>
		<path class="st4" d="M233,824.3c-15.2-2.9-37.2-25.6-48.9-35.9c-15.7-13.9-30.5-29.1-42.1-46.8c-38.5-59-18.5-150.4,56.1-169.7
			c-15.3-2.7-31.3-1.6-46.3,2.3C90,590.6,31.5,650.3,53.5,718.1c13.8,42.3,54.6,70.6,96.7,85c43.1,14.6,89.6,23.9,136.4,29.6
			C268.7,830.4,250.7,827.7,233,824.3z"/>
		<path class="st4" d="M317,835.8c-6.4-0.6-12.7-1.2-19.1-1.9C304.3,834.6,310.7,835.2,317,835.8z"/>
		<path class="st4" d="M286.8,832.6c3.6,0.4,7.1,0.8,10.7,1.2C293.9,833.5,290.3,833,286.8,832.6z"/>
		<path class="st4" d="M426.7,840.5c1.2,0,2.4,0,3.7,0C429.1,840.5,427.9,840.5,426.7,840.5z"/>
		<path class="st4" d="M334.3,837.2c4,0.3,8,0.6,11.9,0.8C342.2,837.8,338.3,837.5,334.3,837.2z"/>
		<path class="st4" d="M160.1,521.9c4.5-0.5,9-0.8,13.5-0.9c-16.3-25.3-19.4-55.6-9.2-84.3c14.8-38.1,49.1-72.6,91.1-76.8
			c-14.7-4.6-29.7-8.2-46.3-7.9c-78,1.6-141.3,118.6-80.4,177.2C129.8,530.1,156.5,522.4,160.1,521.9z"/>
		<path class="st4" d="M387.2,839.9c1.2,0,2.5,0.1,3.7,0.1C389.6,840,388.4,839.9,387.2,839.9z"/>
		<path class="st4" d="M320.2,836.1c2.9,0.2,5.9,0.5,8.8,0.7C326.1,836.6,323.1,836.3,320.2,836.1z"/>
		<path class="st4" d="M353.9,838.5c2,0.1,4.1,0.2,6.2,0.3C358,838.7,355.9,838.6,353.9,838.5z"/>
		<path class="st4" d="M371,839.3c1.3,0,2.6,0.1,3.9,0.2C373.6,839.4,372.3,839.4,371,839.3z"/>
	</g>
</g>
</svg>
