<svg id="Layer_1" data-name="Layer 1" xmlns="http://www.w3.org/2000/svg" viewBox="0 0 31.5 31.5"><title>presearch-pre-logo</title><rect x="2" y="1.88" width="27.5" height="27.5" style="fill:#fff"/><path d="M11.32,19.39h2.94a5.68,5.68,0,0,0,2.43-.55,6.08,6.08,0,0,0,1.89-1.45,6.71,6.71,0,0,0,1.2-2.11,6.94,6.94,0,0,0,.44-2.44,6.06,6.06,0,0,0-.47-2.36,7.31,7.31,0,0,0-1.27-2.07,6.33,6.33,0,0,0-1.93-1.49,5.22,5.22,0,0,0-2.44-.58H6.37V25.13h5Zm0-8.51h2.5a1.34,1.34,0,0,1,.91.44,2.2,2.2,0,0,1,.47,1.59,2.12,2.12,0,0,1-.43,1.53,1.12,1.12,0,0,1-.84.44H11.32Z" style="fill:#2d8eff"/><path d="M0,1.81V29.69A1.81,1.81,0,0,0,1.81,31.5H29.69a1.81,1.81,0,0,0,1.81-1.81V1.81A1.81,1.81,0,0,0,29.69,0H1.81A1.81,1.81,0,0,0,0,1.81Zm26,26H5.48A1.81,1.81,0,0,1,3.67,26V5.48A1.81,1.81,0,0,1,5.48,3.67H26a1.81,1.81,0,0,1,1.81,1.81V26A1.81,1.81,0,0,1,26,27.79Z" style="fill:#2d8eff"/><rect x="13.53" y="21.6" width="11.59" height="3.56" style="fill:#2d8eff"/></svg>