<?xml version="1.0" encoding="utf-8"?>
<!-- Generator: Adobe Illustrator 27.7.0, SVG Export Plug-In . SVG Version: 6.00 Build 0)  -->
<svg version="1.1" id="Layer_1" xmlns="http://www.w3.org/2000/svg" xmlns:xlink="http://www.w3.org/1999/xlink" x="0px" y="0px"
	 viewBox="0 0 500 500" style="enable-background:new 0 0 500 500;" xml:space="preserve">
<style type="text/css">
	.st0{fill:#DFF141;}
</style>
<path class="st0" d="M319.2,123.7L46.4,395.4C-33.7,282.8-7.4,126.6,105.1,46.4s268.8-53.8,348.9,58.8c4.3,6,8.2,12.1,11.9,18.4
	L319.2,123.7L319.2,123.7z"/>
<path class="st0" d="M346.3,190.5L92,443.9c-6.8-5.5-13.3-11.4-19.4-17.6L336,163.8h148.9c3.2,8.8,5.9,17.7,8.1,26.7L346.3,190.5
	L346.3,190.5z M390.2,297.8h105.2c-26.6,135.6-158.1,224-293.8,197.4c-2.6-0.5-5.1-1.1-7.7-1.6C193.9,493.6,390.2,297.8,390.2,297.8
	z"/>
<path class="st0" d="M500,249.7c0,2.7,0,5.3-0.1,8H373.5L150.8,479.5c-8.5-3.7-16.8-7.8-24.9-12.4l237.2-236.4h136.2
	C499.8,236.9,500,243.3,500,249.7z"/>
</svg>
