<?xml version="1.0" encoding="utf-8"?>
<!-- Generator: Adobe Illustrator 24.0.0, SVG Export Plug-In . SVG Version: 6.00 Build 0)  -->
<svg version="1.1" id="Layer_1" xmlns="http://www.w3.org/2000/svg" xmlns:xlink="http://www.w3.org/1999/xlink" x="0px" y="0px"
	 viewBox="0 0 46.9 46.9" style="enable-background:new 0 0 46.9 46.9;" xml:space="preserve">
<style type="text/css">
	.st0{fill:#005CC7;}
</style>
<path id="Path" class="st0" d="M9.9,31.8v5.1H15v-1.3h7.1v11.3C10.3,46.2,0.6,36.5,0,24.7h11.3v7L9.9,31.8z"/>
<path id="Path_1_" class="st0" d="M31.7,35.6v1.3h5.1v-5.1h-1.3v-7h11.3c-0.6,11.8-10.4,21.4-22.2,22.1V35.6H31.7z"/>
<path id="Path_2_" class="st0" d="M22.1,11.5h9.7V10H37v5.7h-5.1v-1.6h-9.7v10.6l11,0.1v7h-1.3V33H15v-1.3h-1.2V15.1h1.3V10H10v5.1
	h1.3v7H0C0.6,10.2,10.4,0.6,22.1,0V11.5z"/>
</svg>
