<?xml version="1.0" encoding="utf-8"?>
<!-- Generator: Adobe Illustrator 26.5.0, SVG Export Plug-In . SVG Version: 6.00 Build 0)  -->
<svg version="1.1" id="Layer_1" xmlns="http://www.w3.org/2000/svg" xmlns:xlink="http://www.w3.org/1999/xlink" x="0px" y="0px"
	 viewBox="0 0 500 500" style="enable-background:new 0 0 500 500;" xml:space="preserve">
<style type="text/css">
	.st0{fill:url(#Path_2416_00000119108186443317518450000002955316315136622500_);}
	.st1{fill:url(#Path_2417_00000093150332295633106840000000763363850923981746_);}
</style>
<linearGradient id="Path_2416_00000142159591834156445190000001335471609017128581_" gradientUnits="userSpaceOnUse" x1="8.6215" y1="498.5074" x2="8.6215" y2="483.631" gradientTransform="matrix(33.5566 0 0 -16.4609 -39.7679 8245.8867)">
	<stop  offset="0" style="stop-color:#7D0753"/>
	<stop  offset="1" style="stop-color:#F55D0E"/>
</linearGradient>
<path id="Path_2416" style="fill:url(#Path_2416_00000142159591834156445190000001335471609017128581_);" d="M-0.1,40h140.7
	l94.4,151.3L313.9,40h152.6c0,0-60.8,109.9-95.2,171.4c-33-4.3-64.5-16.5-91.7-35.6c0,0,49,59.2,219.5,109.1
	c-177-6.2-309.6-112.1-364.5-168.5c5.9,28.7,19.5,55.2,39.4,76.6C82.8,138.7-0.1,40-0.1,40z"/>
<linearGradient id="Path_2417_00000074439610779089268240000003384577125325205692_" gradientUnits="userSpaceOnUse" x1="8.8727" y1="494.7177" x2="8.8727" y2="479.8414" gradientTransform="matrix(22.2227 0 0 -21.5 -25.4899 10776.6016)">
	<stop  offset="0" style="stop-color:#7D0753"/>
	<stop  offset="1" style="stop-color:#F55D0E"/>
</linearGradient>
<path id="Path_2417" style="fill:url(#Path_2417_00000074439610779089268240000003384577125325205692_);" d="M337,275.4L235.3,460
	c0,0-69.6-123.6-103.1-185.7c25.2,13.7,52.4,23.2,80.5,28.4C145.3,276.1,77.6,219,6.4,140.2c79,60.4,146.1,95.4,249.8,138.3
	c-19.4-17.5-35.7-38.3-48.2-61.2C249.3,240.3,292.4,259.7,337,275.4z"/>
</svg>
