<?xml version="1.0" encoding="utf-8"?>
<!-- Generator: Adobe Illustrator 26.0.1, SVG Export Plug-In . SVG Version: 6.00 Build 0)  -->
<svg version="1.1" id="Layer_1" xmlns="http://www.w3.org/2000/svg" xmlns:xlink="http://www.w3.org/1999/xlink" x="0px" y="0px"
	 viewBox="0 0 135.9 157" style="enable-background:new 0 0 135.9 157;" xml:space="preserve">
<style type="text/css">
	.st0{fill:#6E318C;}
	.st1{fill:#89298C;}
	.st2{fill:#AD2686;}
</style>
<g>
	<g>
		<path class="st0" d="M118.7,32.5c1.7,0.3,3,0.5,4.3,0.8s2.6,0.5,4.3,0.9c1.7,1.6,3,2.7,4.3,3.9c1.3,1.1,2.6,2.2,4.3,3.7
			c0,2.1,0,3.1,0,5.2c-1.7-0.3-3-0.5-4.3-0.6c-1.3-0.2-2.6-0.3-4.3-0.5c-1.7-1.3-3-2.3-4.3-3.4c-1.3-1-2.6-2.1-4.3-3.5
			c0-1.3,0-2.3,0-3.2C118.7,34.8,118.7,33.8,118.7,32.5z"/>
		<path class="st0" d="M98.9,21.9c1.7,0.1,3,0.3,4.3,0.4s2.6,0.3,4.3,0.6c1.7,1.7,3,3,4.3,4.2c1.3,1.2,2.6,2.5,4.3,4.1
			c0,1.3,0,2.3,0,3.3s0,2,0,3.3c-1.7-0.1-3-0.2-4.3-0.2s-2.6-0.1-4.3-0.1c-1.7-1.5-3-2.6-4.3-3.7c-1.3-1.1-2.6-2.3-4.3-3.9
			c0-1.6,0-2.8,0-4C98.9,24.6,98.9,23.5,98.9,21.9z"/>
		<path class="st1" d="M79.1,11.2c1.7,0,3,0,4.3,0s2.6,0.1,4.3,0.2c1.7,1.9,3,3.2,4.3,4.6s2.6,2.7,4.3,4.4c0,1.6,0,2.9,0,4.1
			s0,2.5,0,4.1c-1.7,0-3,0.1-4.3,0.1c-1.3,0.1-2.6,0.1-4.3,0.3c-1.7-1.6-3-2.9-4.3-4.1c-1.3-1.3-2.6-2.5-4.3-4.3c0-1.9,0-3.3,0-4.7
			C79.1,14.5,79.1,13.1,79.1,11.2z"/>
		<path class="st1" d="M39.6,20.5c1.7-1.7,3-3.1,4.3-4.4c1.3-1.4,2.6-2.7,4.3-4.6c1.7-0.1,3-0.2,4.3-0.2s2.6-0.1,4.3,0
			c0,1.9,0,3.3,0,4.7s0,2.8,0,4.7c-1.7,1.7-3,3-4.3,4.3s-2.6,2.5-4.3,4.1c-1.7-0.1-3-0.2-4.3-0.3c-1.3-0.1-2.6-0.1-4.3-0.1
			c0-1.6,0-2.9,0-4.1C39.6,23.3,39.6,22.1,39.6,20.5z"/>
		<path class="st2" d="M19.8,31.1c1.7-1.6,3-2.8,4.3-4.1c1.3-1.2,2.6-2.5,4.3-4.2c1.7-0.3,3-0.4,4.3-0.6c1.3-0.1,2.6-0.3,4.3-0.4
			c0,1.6,0,2.8,0,4s0,2.4,0,4c-1.7,1.6-3,2.8-4.3,3.9c-1.3,1.2-2.6,2.3-4.3,3.7c-1.7,0-3,0-4.3,0.1c-1.3,0-2.6,0.1-4.3,0.2
			c0-1.3,0-2.3,0-3.3C19.8,33.5,19.8,32.5,19.8,31.1z"/>
		<path class="st2" d="M0,41.8c1.7-1.4,3-2.6,4.3-3.7c1.3-1.1,2.6-2.3,4.3-3.9c1.7-0.4,3-0.7,4.3-0.9c1.3-0.3,2.6-0.5,4.3-0.8
			c0,1.3,0,2.3,0,3.2c0,1,0,1.9,0,3.2c-1.7,1.4-3,2.5-4.3,3.5s-2.6,2.1-4.3,3.4c-1.7,0.1-3,0.3-4.3,0.5S1.7,46.6,0,46.9
			C0,44.9,0,43.9,0,41.8z"/>
		<path class="st0" d="M118.7,46.8c1.7,0,3,0,4.3,0.1c1.3,0,2.6,0.1,4.3,0.2c1.7,1.3,3,2.2,4.3,3.1c1.3,0.9,2.6,1.8,4.3,3
			c0,2.1,0,3.1,0,5.2c-1.7,0-3,0-4.3,0.1s-2.6,0.1-4.3,0.3c-1.7-1-3-1.8-4.3-2.7c-1.3-0.8-2.6-1.6-4.3-2.8c0-1.3,0-2.3,0-3.2
			S118.7,48.1,118.7,46.8z"/>
		<path class="st0" d="M98.9,39.4c1.7-0.2,3-0.2,4.3-0.3s2.6-0.1,4.3-0.2c1.7,1.4,3,2.5,4.3,3.5s2.6,2,4.3,3.4c0,1.3,0,2.3,0,3.3
			s0,2,0,3.3c-1.7,0.2-3,0.3-4.3,0.5s-2.6,0.4-4.3,0.6c-1.7-1.2-3-2.1-4.3-3s-2.6-1.9-4.3-3.2c0-1.6,0-2.8,0-4S98.9,41,98.9,39.4z"
			/>
		<path class="st1" d="M79.1,32c1.7-0.3,3-0.5,4.3-0.7s2.6-0.3,4.3-0.5c1.7,1.6,3,2.8,4.3,3.9c1.3,1.1,2.6,2.3,4.3,3.7
			c0,1.6,0,2.9,0,4.1c0,1.2,0,2.5,0,4.1c-1.7,0.3-3,0.6-4.3,0.9c-1.3,0.3-2.6,0.6-4.3,1c-1.7-1.3-3-2.4-4.3-3.4s-2.6-2.1-4.3-3.6
			c0-1.9,0-3.3,0-4.7C79.1,35.3,79.1,33.9,79.1,32z"/>
		<path class="st1" d="M39.6,38.4c1.7-1.5,3-2.6,4.3-3.7c1.3-1.1,2.6-2.3,4.3-3.9c1.7,0.2,3,0.3,4.3,0.5s2.6,0.4,4.3,0.7
			c0,1.9,0,3.3,0,4.7s0,2.8,0,4.7c-1.7,1.5-3,2.5-4.3,3.6c-1.3,1-2.6,2.1-4.3,3.4c-1.7-0.4-3-0.7-4.3-1c-1.3-0.3-2.6-0.5-4.3-0.8
			c0-1.6,0-2.9,0-4.1C39.5,41.3,39.6,40.1,39.6,38.4z"/>
		<path class="st2" d="M19.8,45.8c1.7-1.3,3-2.3,4.3-3.3s2.6-2.1,4.3-3.5c1.7,0,3,0.1,4.3,0.2c1.3,0.1,2.6,0.1,4.3,0.3
			c0,1.6,0,2.8,0,4s0,2.4,0,4c-1.7,1.3-3,2.3-4.3,3.2c-1.3,0.9-2.6,1.8-4.3,3c-1.7-0.3-3-0.5-4.3-0.6c-1.3-0.2-2.6-0.3-4.3-0.5
			c0-1.3,0-2.3,0-3.3C19.8,48.1,19.8,47.1,19.8,45.8z"/>
		<path class="st2" d="M0,53.2c1.7-1.2,3-2.1,4.3-3c1.3-0.9,2.6-1.9,4.3-3.1c1.7-0.1,3-0.2,4.3-0.2s2.6-0.1,4.3-0.1
			c0,1.3,0,2.3,0,3.2s0,1.9,0,3.2c-1.7,1.2-3,2-4.3,2.8s-2.6,1.6-4.3,2.7c-1.7-0.1-3-0.2-4.3-0.3S1.7,58.3,0,58.3
			C0,56.3,0,55.2,0,53.2z"/>
		<path class="st0" d="M118.7,61c1.7-0.3,3-0.5,4.3-0.6c1.3-0.2,2.6-0.3,4.3-0.5c1.7,1,3,1.7,4.3,2.4c1.3,0.7,2.6,1.4,4.3,2.3
			c0,2.1,0,3.1,0,5.2c-1.7,0.3-3,0.5-4.3,0.8s-2.6,0.6-4.3,1c-1.7-0.7-3-1.3-4.3-1.9s-2.6-1.2-4.3-2.1c0-1.3,0-2.3,0-3.2
			C118.7,63.3,118.7,62.3,118.7,61z"/>
		<path class="st0" d="M98.9,56.9c1.7-0.4,3-0.7,4.3-1s2.6-0.6,4.3-0.9c1.7,1.2,3,2,4.3,2.8s2.6,1.6,4.3,2.6c0,1.3,0,2.3,0,3.3
			s0,2,0,3.3c-1.7,0.4-3,0.8-4.3,1.2c-1.3,0.4-2.6,0.8-4.3,1.4c-1.7-0.9-3-1.6-4.3-2.3c-1.3-0.7-2.6-1.4-4.3-2.5c0-1.6,0-2.8,0-4
			C98.9,59.7,98.9,58.5,98.9,56.9z"/>
		<path class="st1" d="M79.1,52.9c1.7-0.6,3-1,4.3-1.4s2.6-0.8,4.3-1.2c1.7,1.3,3,2.2,4.3,3.2c1.3,0.9,2.6,1.8,4.3,3
			c0,1.6,0,2.9,0,4.1s0,2.5,0,4.1c-1.7,0.6-3,1.1-4.3,1.6s-2.6,1-4.3,1.7c-1.7-1-3-1.9-4.3-2.7c-1.3-0.8-2.6-1.7-4.3-2.8
			c0-1.9,0-3.3,0-4.7C79.1,56.2,79.1,54.8,79.1,52.9z"/>
		<path class="st1" d="M39.6,56.4c1.7-1.2,3-2.1,4.3-3c1.3-0.9,2.6-1.9,4.3-3.2c1.7,0.5,3,0.8,4.3,1.2s2.6,0.8,4.3,1.4
			c0,1.9,0,3.3,0,4.7s0,2.8,0,4.7c-1.7,1.2-3,2-4.3,2.8s-2.6,1.6-4.3,2.7c-1.7-0.7-3-1.2-4.3-1.7c-1.3-0.5-2.6-1-4.3-1.6
			c0-1.6,0-2.9,0-4.1C39.6,59.3,39.6,58,39.6,56.4z"/>
		<path class="st2" d="M19.8,60.5c1.7-1,3-1.8,4.3-2.6s2.6-1.6,4.3-2.8c1.7,0.3,3,0.6,4.3,0.9c1.3,0.3,2.6,0.6,4.3,1
			c0,1.6,0,2.8,0,4s0,2.4,0,4c-1.7,1-3,1.8-4.3,2.5c-1.3,0.7-2.6,1.4-4.3,2.3c-1.7-0.6-3-1-4.3-1.4s-2.6-0.7-4.3-1.2
			c0-1.3,0-2.3,0-3.3C19.8,62.8,19.8,61.8,19.8,60.5z"/>
		<path class="st2" d="M0,64.5c1.7-0.9,3-1.6,4.3-2.3c1.3-0.7,2.6-1.4,4.3-2.4c1.7,0.2,3,0.3,4.3,0.5s2.6,0.4,4.3,0.6
			c0,1.3,0,2.3,0,3.2c0,1,0,1.9,0,3.2c-1.7,0.9-3,1.5-4.3,2.1s-2.6,1.2-4.3,1.9c-1.7-0.4-3-0.7-4.3-1S1.7,69.8,0,69.5
			C0,67.6,0,66.6,0,64.5z"/>
		<path class="st0" d="M118.7,75.2c1.7-0.6,3-1,4.3-1.4s2.6-0.8,4.3-1.2c1.7,0.7,3,1.2,4.3,1.7s2.6,1,4.3,1.5c0,2.1,0,3.1,0,5.2
			c-1.7,0.6-3,1.1-4.3,1.5c-1.3,0.5-2.6,1-4.3,1.7c-1.7-0.5-3-0.8-4.3-1.2c-1.3-0.4-2.6-0.8-4.3-1.4c0-1.3,0-2.3,0-3.2
			S118.7,76.5,118.7,75.2z"/>
		<path class="st0" d="M98.9,74.5c1.7-0.7,3-1.3,4.3-1.7c1.3-0.5,2.6-1,4.3-1.6c1.7,0.9,3,1.5,4.3,2.1s2.6,1.2,4.3,1.9
			c0,1.3,0,2.3,0,3.3s0,2,0,3.3c-1.7,0.7-3,1.3-4.3,1.9s-2.6,1.2-4.3,2.1c-1.7-0.6-3-1.1-4.3-1.6s-2.6-1-4.3-1.7c0-1.6,0-2.8,0-4
			C98.9,77.3,98.9,76.1,98.9,74.5z"/>
		<path class="st1" d="M79.1,73.7c1.7-0.9,3-1.5,4.3-2.1s2.6-1.2,4.3-2c1.7,1,3,1.7,4.3,2.5c1.3,0.7,2.6,1.4,4.3,2.3
			c0,1.6,0,2.9,0,4.1s0,2.4,0,4.1c-1.7,0.9-3,1.6-4.3,2.3c-1.3,0.7-2.6,1.4-4.3,2.4c-1.7-0.7-3-1.3-4.3-2c-1.3-0.6-2.6-1.2-4.3-2.1
			c0-1.9,0-3.3,0-4.7C79.1,77,79.1,75.6,79.1,73.7z"/>
		<path class="st1" d="M39.6,74.4c1.7-0.9,3-1.6,4.3-2.3c1.3-0.7,2.6-1.4,4.3-2.5c1.7,0.8,3,1.3,4.3,2c1.3,0.6,2.6,1.2,4.3,2.1
			c0,1.9,0,3.3,0,4.7c0,1.4,0,2.8,0,4.7c-1.7,0.9-3,1.5-4.3,2.1s-2.6,1.2-4.3,2c-1.7-1-3-1.7-4.3-2.4c-1.3-0.7-2.6-1.4-4.3-2.3
			c0-1.6,0-2.9,0-4.1C39.6,77.2,39.6,76,39.6,74.4z"/>
		<path class="st2" d="M19.8,75.1c1.7-0.7,3-1.3,4.3-1.9s2.6-1.2,4.3-2.1c1.7,0.6,3,1.1,4.3,1.6c1.3,0.5,2.6,1,4.3,1.7
			c0,1.6,0,2.8,0,4s0,2.4,0,4c-1.7,0.7-3,1.3-4.3,1.7c-1.3,0.5-2.6,1-4.3,1.6c-1.7-0.9-3-1.5-4.3-2.1s-2.6-1.2-4.3-1.9
			c0-1.3,0-2.3,0-3.3C19.8,77.5,19.8,76.5,19.8,75.1z"/>
		<path class="st2" d="M0,75.9c1.7-0.6,3-1.1,4.3-1.5c1.3-0.5,2.6-1,4.3-1.7c1.7,0.5,3,0.8,4.3,1.2c1.3,0.4,2.6,0.8,4.3,1.4
			c0,1.3,0,2.3,0,3.2s0,1.9,0,3.2c-1.7,0.6-3,1-4.3,1.4s-2.6,0.8-4.3,1.2c-1.7-0.7-3-1.2-4.3-1.7s-2.6-1-4.3-1.5C0,79,0,78,0,75.9z"
			/>
		<path class="st0" d="M118.7,89.5c1.7-0.9,3-1.5,4.3-2.1s2.6-1.2,4.3-1.9c1.7,0.4,3,0.7,4.3,1s2.6,0.5,4.3,0.8c0,2.1,0,3.1,0,5.2
			c-1.7,0.9-3,1.5-4.3,2.3c-1.3,0.7-2.6,1.4-4.3,2.4c-1.7-0.2-3-0.3-4.3-0.5s-2.6-0.4-4.3-0.7c0-1.3,0-2.3,0-3.2
			C118.7,91.7,118.7,90.8,118.7,89.5z"/>
		<path class="st0" d="M98.9,92c1.7-1,3-1.7,4.3-2.5c1.3-0.7,2.6-1.4,4.3-2.3c1.7,0.6,3,1,4.3,1.3c1.3,0.4,2.6,0.8,4.3,1.2
			c0,1.3,0,2.3,0,3.3s0,2,0,3.3c-1.7,1-3,1.8-4.3,2.6c-1.3,0.8-2.6,1.6-4.3,2.8c-1.7-0.3-3-0.6-4.3-0.9s-2.6-0.6-4.3-1
			c0-1.6,0-2.8,0-4C98.9,94.8,98.9,93.6,98.9,92z"/>
		<path class="st1" d="M79.1,94.6c1.7-1.2,3-2,4.3-2.8s2.6-1.6,4.3-2.7c1.7,0.7,3,1.2,4.3,1.7s2.6,1,4.3,1.6c0,1.6,0,2.9,0,4.1
			s0,2.4,0,4.1c-1.7,1.2-3,2.1-4.3,3s-2.6,1.9-4.3,3.2c-1.7-0.5-3-0.8-4.3-1.2c-1.3-0.4-2.6-0.8-4.3-1.4c0-1.9,0-3.3,0-4.7
			C79.1,97.9,79.1,96.5,79.1,94.6z"/>
		<path class="st1" d="M39.6,92.4c1.7-0.6,3-1.1,4.3-1.6c1.3-0.5,2.6-1,4.3-1.7c1.7,1,3,1.9,4.3,2.7c1.3,0.8,2.6,1.7,4.3,2.8
			c0,1.9,0,3.3,0,4.7c0,1.4,0,2.8,0,4.7c-1.7,0.6-3,1-4.3,1.4s-2.6,0.8-4.3,1.2c-1.7-1.3-3-2.2-4.3-3.2c-1.3-0.9-2.6-1.8-4.3-3
			c0-1.6,0-2.9,0-4.1C39.6,95.2,39.6,94,39.6,92.4z"/>
		<path class="st2" d="M19.8,89.8c1.7-0.4,3-0.8,4.3-1.2c1.3-0.4,2.6-0.8,4.3-1.3c1.7,0.9,3,1.6,4.3,2.3c1.3,0.7,2.6,1.5,4.3,2.5
			c0,1.6,0,2.8,0,4s0,2.4,0,4c-1.7,0.4-3,0.7-4.3,1c-1.3,0.3-2.6,0.5-4.3,0.9c-1.7-1.1-3-2-4.3-2.8s-2.6-1.6-4.3-2.6
			c0-1.3,0-2.3,0-3.3S19.8,91.1,19.8,89.8z"/>
		<path class="st2" d="M0,87.2c1.7-0.3,3-0.5,4.3-0.8c1.3-0.3,2.6-0.6,4.3-1c1.7,0.7,3,1.3,4.3,1.9s2.6,1.2,4.3,2.1
			c0,1.3,0,2.3,0,3.2c0,1,0,1.9,0,3.2c-1.7,0.3-3,0.5-4.3,0.7s-2.6,0.3-4.3,0.5c-1.7-1-3-1.7-4.3-2.4C3,93.9,1.7,93.2,0,92.3
			C0,90.3,0,89.3,0,87.2z"/>
		<path class="st0" d="M118.7,103.7c1.7-1.2,3-2,4.3-2.8s2.6-1.6,4.3-2.7c1.7,0.1,3,0.2,4.3,0.3c1.3,0.1,2.6,0.1,4.3,0.1
			c0,2.1,0,3.1,0,5.2c-1.7,1.2-3,2.1-4.3,3s-2.6,1.9-4.3,3.1c-1.7,0.1-3,0.2-4.3,0.2s-2.6,0.1-4.3,0.1c0-1.3,0-2.3,0-3.2
			C118.7,106,118.7,105,118.7,103.7z"/>
		<path class="st0" d="M98.9,109.6c1.7-1.3,3-2.3,4.3-3.2c1.3-0.9,2.6-1.8,4.3-3c1.7,0.3,3,0.5,4.3,0.6c1.3,0.2,2.6,0.3,4.3,0.5
			c0,1.3,0,2.3,0,3.3s0,2,0,3.3c-1.7,1.3-3,2.3-4.3,3.4c-1.3,1-2.6,2.1-4.3,3.5c-1.7,0-3-0.1-4.3-0.1c-1.3-0.1-2.6-0.1-4.3-0.3
			c0-1.6,0-2.8,0-4C98.9,112.4,98.9,111.2,98.9,109.6z"/>
		<path class="st1" d="M79.1,115.4c1.7-1.5,3-2.5,4.3-3.6c1.3-1,2.6-2.1,4.3-3.4c1.7,0.4,3,0.7,4.3,1s2.6,0.5,4.3,0.8
			c0,1.6,0,2.9,0,4.1s0,2.5,0,4.1c-1.7,1.5-3,2.6-4.3,3.7s-2.6,2.3-4.3,3.9c-1.7-0.2-3-0.3-4.3-0.5s-2.6-0.4-4.3-0.7
			c0-1.9,0-3.3,0-4.7C79.1,118.7,79.1,117.3,79.1,115.4z"/>
		<path class="st1" d="M39.6,110.3c1.7-0.3,3-0.6,4.3-0.9c1.3-0.3,2.6-0.6,4.3-1c1.7,1.3,3,2.4,4.3,3.4s2.6,2.1,4.3,3.6
			c0,1.9,0,3.3,0,4.7c0,1.4,0,2.8,0,4.7c-1.7,0.3-3,0.5-4.3,0.7c-1.3,0.2-2.6,0.4-4.3,0.5c-1.7-1.6-3-2.8-4.3-3.9
			c-1.3-1.1-2.6-2.3-4.3-3.7c0-1.6,0-2.9,0-4.1S39.6,112,39.6,110.3z"/>
		<path class="st2" d="M19.8,104.5c1.7-0.2,3-0.3,4.3-0.5s2.6-0.3,4.3-0.6c1.7,1.2,3,2.1,4.3,3c1.3,0.9,2.6,1.9,4.3,3.2
			c0,1.6,0,2.8,0,4s0,2.4,0,4c-1.7,0.2-3,0.2-4.3,0.3c-1.3,0.1-2.6,0.1-4.3,0.1c-1.7-1.4-3-2.5-4.3-3.5s-2.6-2-4.3-3.4
			c0-1.3,0-2.3,0-3.3C19.8,106.8,19.8,105.8,19.8,104.5z"/>
		<path class="st2" d="M0,98.6c1.7,0,3,0,4.3-0.1c1.3-0.1,2.6-0.1,4.3-0.3c1.7,1,3,1.8,4.3,2.7c1.3,0.8,2.6,1.7,4.3,2.8
			c0,1.3,0,2.3,0,3.2c0,1,0,1.9,0,3.2c-1.7,0-3,0-4.3-0.1c-1.3,0-2.6-0.1-4.3-0.2c-1.7-1.3-3-2.2-4.3-3.1s-2.6-1.8-4.3-3
			C0,101.7,0,100.7,0,98.6z"/>
		<path class="st0" d="M118.7,117.9c1.7-1.4,3-2.5,4.3-3.5s2.6-2.1,4.3-3.4c1.7-0.1,3-0.3,4.3-0.4c1.3-0.2,2.6-0.3,4.3-0.6
			c0,2.1,0,3.1,0,5.2c-1.7,1.4-3,2.6-4.3,3.7s-2.6,2.3-4.3,3.9c-1.7,0.4-3,0.7-4.3,1s-2.6,0.5-4.3,0.8c0-1.3,0-2.3,0-3.2
			C118.7,120.2,118.7,119.2,118.7,117.9z"/>
		<path class="st0" d="M98.9,127.1c1.7-1.6,3-2.8,4.3-3.9s2.6-2.3,4.3-3.7c1.7,0,3,0,4.3-0.1c1.3,0,2.6-0.1,4.3-0.2
			c0,1.3,0,2.3,0,3.3s0,2,0,3.3c-1.7,1.6-3,2.8-4.3,4.1c-1.3,1.2-2.6,2.5-4.3,4.2c-1.7,0.3-3,0.4-4.3,0.6c-1.3,0.2-2.6,0.3-4.3,0.4
			c0-1.6,0-2.8,0-4C98.9,129.9,98.9,128.7,98.9,127.1z"/>
		<path class="st1" d="M79.1,136.3c1.7-1.7,3-3,4.3-4.3s2.6-2.5,4.3-4.1c1.7,0.1,3,0.2,4.3,0.3s2.6,0.1,4.3,0.1c0,1.6,0,2.9,0,4.1
			c0,1.2,0,2.5,0,4.1c-1.7,1.7-3,3.1-4.3,4.4c-1.3,1.4-2.6,2.7-4.3,4.6c-1.7,0.1-3,0.2-4.3,0.2s-2.6,0.1-4.3,0c0-1.9,0-3.3,0-4.7
			C79.1,139.6,79.1,138.2,79.1,136.3z"/>
		<g>
			<polygon class="st1" points="59.3,9.8 67.9,0 76.5,9.8 76.5,19.5 67.9,20.6 59.3,19.5 			"/>
			<polygon class="st1" points="59.3,31.1 67.9,22.7 76.5,31.1 76.5,40.7 67.9,43.4 59.3,40.7 			"/>
			<polygon class="st1" points="59.3,52.4 67.9,45.4 76.5,52.4 76.5,62 67.9,66.1 59.3,62 			"/>
			<polygon class="st1" points="59.3,73.6 67.9,68.1 76.5,73.6 76.5,83.3 67.9,88.8 59.3,83.3 			"/>
			<polygon class="st1" points="59.3,94.9 67.9,90.9 76.5,94.9 76.5,104.6 67.9,111.5 59.3,104.6 			"/>
			<polygon class="st1" points="59.3,116.2 67.9,113.6 76.5,116.2 76.5,125.9 67.9,134.2 59.3,125.9 			"/>
			<path class="st1" d="M59.3,137.5l8.6-1.2l8.6,1.2v9.7l-8.6,9.8c0,0-7.5-8.5-8.6-9.8C59.3,145.2,59.3,137.5,59.3,137.5z"/>
		</g>
		<path class="st1" d="M39.6,128.3c1.7,0,3-0.1,4.3-0.1c1.3-0.1,2.6-0.1,4.3-0.3c1.7,1.6,3,2.9,4.3,4.1c1.3,1.3,2.6,2.5,4.3,4.3
			c0,1.9,0,3.3,0,4.7s0,2.8,0,4.7c-1.7,0-3,0-4.3,0s-2.6-0.1-4.3-0.2c-1.7-1.9-3-3.3-4.3-4.6c-1.3-1.4-2.6-2.7-4.3-4.4
			c0-1.6,0-2.9,0-4.1C39.6,131.2,39.6,129.9,39.6,128.3z"/>
		<path class="st2" d="M19.8,119.1c1.7,0.1,3,0.2,4.3,0.2s2.6,0.1,4.3,0.1c1.7,1.5,3,2.6,4.3,3.7c1.3,1.1,2.6,2.3,4.3,3.9
			c0,1.6,0,2.8,0,4s0,2.4,0,4c-1.7-0.1-3-0.3-4.3-0.4c-1.3-0.1-2.6-0.3-4.3-0.6c-1.7-1.7-3-3-4.3-4.2s-2.6-2.5-4.3-4.1
			c0-1.3,0-2.3,0-3.3C19.8,121.5,19.8,120.5,19.8,119.1z"/>
		<path class="st2" d="M0,110c1.7,0.3,3,0.5,4.3,0.6c1.3,0.2,2.6,0.3,4.3,0.4c1.7,1.3,3,2.3,4.3,3.4c1.3,1,2.6,2.1,4.3,3.5
			c0,1.3,0,2.3,0,3.2c0,1,0,1.9,0,3.2c-1.7-0.3-3-0.5-4.3-0.8s-2.6-0.5-4.3-1c-1.7-1.6-3-2.7-4.3-3.9c-1.3-1.1-2.6-2.3-4.3-3.7
			C0,113.1,0,112,0,110z"/>
	</g>
</g>
</svg>
