<svg xmlns="http://www.w3.org/2000/svg" viewBox="0 0 203.23 201.81"><defs><style>.cls-1,.cls-2{fill:#fcd15a;}.cls-1{fill-rule:evenodd;}</style></defs><g id="Calque_2" data-name="Calque 2"><g id="Calque_3" data-name="Calque 3"><g id="Clip-2"><path id="path-2" class="cls-1" d="M134.77,88.91h-1.41c-7.05.7-12,6.35-11.29,13.4h0c0,1.42-.7,3.53-2.12,4.24h0c-.7.7-1.41.7-2.82.7h0a2.59,2.59,0,0,1-2.11-.7h0a12,12,0,0,0-7.06-2.12h-1.41c-7.06.71-12,6.35-11.29,13.41h0c0,2.11-.71,3.53-2.12,4.23h0c-.7.71-1.41.71-2.82.71h0a2.59,2.59,0,0,1-2.12-.71h0A11.37,11.37,0,0,0,81.85,120h0a12.66,12.66,0,0,0-12.7,12.71h0a12.65,12.65,0,0,0,12.7,12.7h1.41a12.76,12.76,0,0,0,11.29-11.29h0V132h0c0-1.41.71-3.53,2.12-4.23h0c.71-.71,1.41-.71,2.82-.71h0a2.59,2.59,0,0,1,2.12.71h0a11.93,11.93,0,0,0,7.06,2.11h1.41a12.75,12.75,0,0,0,11.29-11.29h0v-2.11h0q0-3.18,2.11-4.24h0c.71-.7,1.41-.7,2.83-.7h0a2.59,2.59,0,0,1,2.11.7h0a12,12,0,0,0,7.06,2.12h0a12.65,12.65,0,0,0,12.7-12.7h0c-.71-7.06-6.35-12.7-13.41-12.7h0"/></g><path id="Fill-1" class="cls-1" d="M134.77,88.91h-1.41c-7.05.7-12,6.35-11.29,13.4h0c0,1.42-.7,3.53-2.12,4.24h0c-.7.7-1.41.7-2.82.7h0a2.59,2.59,0,0,1-2.11-.7h0a12,12,0,0,0-7.06-2.12h-1.41c-7.06.71-12,6.35-11.29,13.41h0c0,2.11-.71,3.53-2.12,4.23h0c-.7.71-1.41.71-2.82.71h0a2.59,2.59,0,0,1-2.12-.71h0A11.37,11.37,0,0,0,81.85,120h0a12.66,12.66,0,0,0-12.7,12.71h0a12.65,12.65,0,0,0,12.7,12.7h1.41a12.76,12.76,0,0,0,11.29-11.29h0V132h0c0-1.41.71-3.53,2.12-4.23h0c.71-.71,1.41-.71,2.82-.71h0a2.59,2.59,0,0,1,2.12.71h0a11.93,11.93,0,0,0,7.06,2.11h1.41a12.75,12.75,0,0,0,11.29-11.29h0v-2.11h0q0-3.18,2.11-4.24h0c.71-.7,1.41-.7,2.83-.7h0a2.59,2.59,0,0,1,2.11.7h0a12,12,0,0,0,7.06,2.12h0a12.65,12.65,0,0,0,12.7-12.7h0c-.71-7.06-6.35-12.7-13.41-12.7h0"/><g id="Clip-5"><path id="path-5" class="cls-1" d="M108,72.68h-1.41c-7.06.7-12,6.35-11.29,13.41h0q0,3.16-2.12,4.23h0c-.7.7-1.41.7-2.82.7h0a2.61,2.61,0,0,1-2.12-.7h0a11.9,11.9,0,0,0-7-2.12H79.73a12.93,12.93,0,0,0-11.29,12.7h0a12.65,12.65,0,0,0,12.71,12.7h1.41a12.75,12.75,0,0,0,11.29-11.29h0V100.2h0Q93.85,97,96,96h0c.71-.7,1.42-.7,2.83-.7h0a2.59,2.59,0,0,1,2.11.7h0A11.89,11.89,0,0,0,108,98.08h1.41a12.92,12.92,0,0,0,11.29-12.7h0A12.64,12.64,0,0,0,108,72.68h0"/></g><path id="Fill-4" class="cls-1" d="M108,72.68h-1.41c-7.06.7-12,6.35-11.29,13.41h0q0,3.16-2.12,4.23h0c-.7.7-1.41.7-2.82.7h0a2.61,2.61,0,0,1-2.12-.7h0a11.9,11.9,0,0,0-7-2.12H79.73a12.93,12.93,0,0,0-11.29,12.7h0a12.65,12.65,0,0,0,12.71,12.7h1.41a12.75,12.75,0,0,0,11.29-11.29h0V100.2h0Q93.85,97,96,96h0c.71-.7,1.42-.7,2.83-.7h0a2.59,2.59,0,0,1,2.11.7h0A11.89,11.89,0,0,0,108,98.08h1.41a12.92,12.92,0,0,0,11.29-12.7h0A12.64,12.64,0,0,0,108,72.68h0"/><g id="Clip-8"><path id="path-8" class="cls-1" d="M101.61,0C45.87,0,0,45.16,0,100.9H0c0,55.75,45.87,100.91,101.61,100.91h0A109.37,109.37,0,0,0,141.12,194h0c37.4-15.52,62.1-52.21,62.1-92.43h0C203.92,45.16,158.06,0,101.61,0Zm-72,100.2c0-39.52,32.45-71.27,72-71.27h0a72.11,72.11,0,0,1,50.8,21.17h0c13.41,13.41,21.17,31.75,21.17,50.1h0c0,39.51-32.46,71.26-72,71.26h0c-39.52,0-72-31.75-72-71.26Z"/></g><path id="Fill-7" class="cls-1" d="M101.61,0C45.87,0,0,45.16,0,100.9H0c0,55.75,45.87,100.91,101.61,100.91h0A109.37,109.37,0,0,0,141.12,194h0c37.4-15.52,62.1-52.21,62.1-92.43h0C203.92,45.16,158.06,0,101.61,0Zm-72,100.2c0-39.52,32.45-71.27,72-71.27h0a72.11,72.11,0,0,1,50.8,21.17h0c13.41,13.41,21.17,31.75,21.17,50.1h0c0,39.51-32.46,71.26-72,71.26h0c-39.52,0-72-31.75-72-71.26Z"/><path class="cls-2" d="M90.6,77.29l-.55-2.66h.06a1.78,1.78,0,0,0,1-2.33h0l2.06-1.36c.11.11.22.16.27.27l-2.55,6.14a.66.66,0,0,0-.27-.06m.05-9.72,2.06,1.36a2,2,0,0,0,0,1.36h0l-2.06,1.35a1.82,1.82,0,0,0-2.39-.16l-1.08-1a1.63,1.63,0,0,0,0-1.84l1.08-1a2,2,0,0,0,1.09.38,1.59,1.59,0,0,0,1.3-.49m-5.27-4.45.33-.16,2.23,2.28a1.7,1.7,0,0,0-.22,1.68h0c0,.11,0,.16.11.27l-1.09,1a1.78,1.78,0,0,0-2.12,0l-1.84-1.85a1.8,1.8,0,0,0-.06-2.12l1-1.19a1.73,1.73,0,0,0,1.62.16M91,67a1.78,1.78,0,0,0-1-2.33h0l.54-2.77a.7.7,0,0,0,.32,0l2.5,6.3c-.11,0-.22.16-.32.21h0ZM72.84,62.09c.22-.11.87-.44,1-1l2.44.49a2.25,2.25,0,0,0,.27,1l-2.22,2.23a1.78,1.78,0,0,0-1-.33Zm13.3.38a2,2,0,0,0,.33-1.14l2.39-.54a1.62,1.62,0,0,0,1,.92l-.55,2.77a2.83,2.83,0,0,0-.7.11.83.83,0,0,0-.27.16ZM82,58.18l1.42,2a1.79,1.79,0,0,0-.11,2.33l-1,1.2a1.85,1.85,0,0,0-1.85,0l-.92-1a1.82,1.82,0,0,0-.17-2.39l1.36-2.07a1.73,1.73,0,0,0,.54.11,1.67,1.67,0,0,0,.76-.16m-8,2.28v-.33l5.81-2.55c.11.11.22.27.32.38L78.71,60a1.78,1.78,0,0,0-2.34,1Zm8.58-2.66a1,1,0,0,0,.21-.33h0l6,2.28v.38l-2.39.6A1.77,1.77,0,0,0,84,59.81H84Zm-1.31-3a1.8,1.8,0,0,0-1.73,1.46,1.66,1.66,0,0,0,0,.77l-5.81,2.49a1.91,1.91,0,0,0-.27-.32,1.81,1.81,0,0,0-2.56,2.55c.06,0,.11.11.17.11a12.54,12.54,0,0,0-2.56,6.46v1.3a13,13,0,0,0,13,13h0a11.21,11.21,0,0,0,1.3-.11,12.79,12.79,0,0,0,6.63-2.72c0,.06.05.06.05.11a1.53,1.53,0,0,0,2.17-2.17.63.63,0,0,0-.21-.16l2.55-6.14a1.79,1.79,0,1,0,.87-3.47h-.06a1.07,1.07,0,0,0-.43-.06.65.65,0,0,0-.33.06l-2.49-6.3a1.82,1.82,0,0,0-1.91-3.09,1.58,1.58,0,0,0-.59.59l-6-2.28a1.74,1.74,0,0,0-1.41-2.06c-.11,0-.22-.06-.33-.06h0Z"/></g></g></svg>