<?xml version="1.0" encoding="utf-8"?>
<!-- Generator: Adobe Illustrator 27.7.0, SVG Export Plug-In . SVG Version: 6.00 Build 0)  -->
<svg version="1.1" id="Layer_1" xmlns="http://www.w3.org/2000/svg" xmlns:xlink="http://www.w3.org/1999/xlink" x="0px" y="0px"
	 viewBox="0 0 500 500" style="enable-background:new 0 0 500 500;" xml:space="preserve">
<style type="text/css">
	.st0{fill-rule:evenodd;clip-rule:evenodd;fill:#53B267;}
	.st1{fill:#FFFFFF;fill-opacity:0.5;}
	.st2{fill:#FFFFFF;}
	.st3{fill-rule:evenodd;clip-rule:evenodd;fill:#FFFFFF;}
</style>
<path class="st0" d="M250,500c138.1,0,250-111.9,250-250S388.1,0,250,0S0,111.9,0,250S111.9,500,250,500z"/>
<path class="st1" d="M142.2,345.4l-21.3-15.1L255,145.4l21.3,15.1L142.2,345.4z"/>
<path class="st2" d="M178.5,258.6c-33,0-59.7-26.4-59.7-59s26.7-59,59.7-59h87.8c7.2,0,13.1,5.8,13.1,13s-5.9,13-13.1,13h-87.8
	c-18.5,0-33.5,14.8-33.5,33.1c0,18.3,15,33.1,33.5,33.1h7.2h34c33,0,59.7,26.4,59.7,59s-26.7,59-59.7,59h-87.8
	c-7.2,0-13.1-5.8-13.1-13c0-7.2,5.9-13,13.1-13h87.8c18.5,0,33.5-14.8,33.5-33.1c0-18.3-15-33.1-33.5-33.1h-34H178.5z"/>
<path class="st3" d="M301.2,344.4v-52.6H316v35.8h17.9v-29.1H348v29.1h18.5v-37.1h14.7v53.9H301.2z M301.2,284.7v-62.1H316v22.6
	h65.3V262H316v22.6H301.2z M301.2,196.6v16.8h80v-16.8h-33v-31.1h33v-16.8h-80v16.8h32.1v31.1H301.2z"/>
</svg>
