<?xml version="1.0" encoding="utf-8"?>
<!-- Generator: Adobe Illustrator 27.0.1, SVG Export Plug-In . SVG Version: 6.00 Build 0)  -->
<svg version="1.1" id="sfm" xmlns="http://www.w3.org/2000/svg" xmlns:xlink="http://www.w3.org/1999/xlink" x="0px" y="0px"
	 viewBox="0 0 500 500" style="enable-background:new 0 0 500 500;" xml:space="preserve">
<style type="text/css">
	.st0{fill:url(#SVGID_1_);}
	.st1{fill:url(#SVGID_00000003799532385204047160000000506672641010903193_);}
	.st2{fill:url(#SVGID_00000055672209721051942600000005487231441361559741_);}
</style>
<linearGradient id="SVGID_1_" gradientUnits="userSpaceOnUse" x1="250.8627" y1="170.6847" x2="250.8627" y2="208.1439" gradientTransform="matrix(1 0 0 -1 0 502.89)">
	<stop  offset="0" style="stop-color:#B5E0DA"/>
	<stop  offset="0.63" style="stop-color:#3CBAB2"/>
	<stop  offset="0.97" style="stop-color:#00A89E"/>
	<stop  offset="1" style="stop-color:#00A69C"/>
</linearGradient>
<polygon class="st0" points="236,294.7 239.2,310.5 245.1,302.6 250.9,332.2 256.6,302.6 262.6,310.5 265.8,294.7 "/>
<path d="M266.6,269.7v-44.4c0-8.7-15.6-30.6-15.6-30.6s-15.7,21.9-15.7,30.6v44.4c-10.2,3.3-19.1,9.8-25.4,18.5h82
	C285.6,279.5,276.8,273,266.6,269.7z"/>
<linearGradient id="SVGID_00000071556723202668025740000015849966525189069730_" gradientUnits="userSpaceOnUse" x1="416.7019" y1="164.7685" x2="416.7019" y2="211.2895" gradientTransform="matrix(1 0 0 -1 0 502.89)">
	<stop  offset="0" style="stop-color:#B5E0DA"/>
	<stop  offset="0.63" style="stop-color:#3CBAB2"/>
	<stop  offset="0.97" style="stop-color:#00A89E"/>
	<stop  offset="1" style="stop-color:#00A69C"/>
</linearGradient>
<path style="fill:url(#SVGID_00000071556723202668025740000015849966525189069730_);" d="M440,314.8c0-12.8-10.4-23.3-23.3-23.3
	s-23.3,10.4-23.3,23.3c0,12.8,10.4,23.3,23.3,23.3l0,0C429.5,338,439.9,327.6,440,314.8z M403.1,314.8c0-7.5,6.1-13.6,13.6-13.7
	c7.5,0,13.6,6.1,13.7,13.6c0,7.5-6.1,13.6-13.6,13.7c0,0,0,0,0,0C409.2,328.4,403.1,322.3,403.1,314.8z"/>
<linearGradient id="SVGID_00000010311832165966892340000005046792468887806096_" gradientUnits="userSpaceOnUse" x1="249.5426" y1="3.0995" x2="249.5426" y2="502.6805" gradientTransform="matrix(1 0 0 -1 0 502.89)">
	<stop  offset="0" style="stop-color:#B5E0DA"/>
	<stop  offset="0.63" style="stop-color:#3CBAB2"/>
	<stop  offset="0.97" style="stop-color:#00A89E"/>
	<stop  offset="1" style="stop-color:#00A69C"/>
</linearGradient>
<path style="fill:url(#SVGID_00000010311832165966892340000005046792468887806096_);" d="M250.9,0.2C113,0.4,1.2,112.1,1.1,250
	c0,95.2,58.5,171.8,136.1,178.3c47.2,3.9,92.9-12.9,122.9-27.8c18-7.4,34.7-17.5,49.5-30l3.2-2.7l0,0c2.4-2.1,4.7-4.1,6.8-6.2
	c28.2-26.7,61.7-74.7,61.7-152v-8.5l-129.5-88.8l-129.5,88.8v8.5c0,77.3,33.6,125.3,61.7,152c3.3,3.1,6.8,6.2,10.3,9.1
	c11.8-4.3,23.6-8.7,35.1-13.8c-29.4-19.1-72-60.4-74.9-139l97.2-66.7l97.2,66.7c-2.3,63.5-30.9,102.5-55.8,124.5l-3.1,2.4
	c-0.8,0.6-75.8,57.5-150.3,51.3c-46.6-3.9-84.4-41.8-99.5-94.5c12-8.5,14.8-25.1,6.3-37.1c-3.3-4.6-7.9-8.1-13.3-9.8
	c0-1.6,0-3.1,0-4.8c0-30.6,6.4-60.8,19-88.7c7.6,3.1,15.8,4.7,24,4.7c34.9-0.1,63.1-28.4,63-63.3c0-10.3-2.6-20.4-7.4-29.5
	c-0.7-1.3-1.5-2.6-2.3-3.8c99.6-66.9,234.6-40.4,301.6,59.2c0.8,1.2,1.7,2.5,2.5,3.7c-19.1,16.1-21.5,44.7-5.3,63.8
	c8.6,10.2,21.3,16,34.6,16c0.7,0,1.4,0,2.1,0c2.3,12.5,3.4,25.2,3.5,37.9c0,112.8-89.8,202-218.2,217.7
	c-102.7,12.6-168.5-30-168.5-30c38.4,42.4,92.1,62.1,169,62.1c138-1.5,248.6-114.5,247.1-252.5C496.5,111.4,386.7,1.7,250.9,0.2z
	 M41.5,283.6c-0.6,2.8-1.9,5.4-3.8,7.6c-1.8-8.4-3.1-16.9-3.8-25.5C39.9,269.5,43,276.6,41.5,283.6z M123.4,77.7
	c13.9,26.1,4,58.5-22.1,72.4c-13.9,7.4-30.4,8.3-45,2.5c15.4-30.6,37.8-57.2,65.4-77.6C122.3,75.8,122.9,76.7,123.4,77.7L123.4,77.7
	z M463,202.5c-19.7,0-35.7-15.9-35.7-35.6c0-10,4.2-19.5,11.5-26.3c11.2,19.3,19.4,40.1,24.3,61.9L463,202.5z"/>
</svg>
