<?xml version="1.0" encoding="utf-8"?>
<!-- Generator: Adobe Illustrator 27.0.1, SVG Export Plug-In . SVG Version: 6.00 Build 0)  -->
<svg version="1.1" id="sfp" xmlns="http://www.w3.org/2000/svg" xmlns:xlink="http://www.w3.org/1999/xlink" x="0px" y="0px"
	 viewBox="0 0 500 500" style="enable-background:new 0 0 500 500;" xml:space="preserve">
<style type="text/css">
	.st0{fill:#4A22EF;}
</style>
<path class="st0" d="M219.3,1c-15.2,0-29.7,6-40.4,16.7L10.6,186.1C4.2,192.5,1,200.8,1,209.2c0,8.4,3.2,16.7,9.6,23.1l110.3,110.3
	V147.3c0-14.6,11.7-26.4,26.3-26.4c61.6,0,211.5,0,231.9,0L499,1L219.3,1z"/>
<path class="st0" d="M120.9,379.1h231.8c14.6,0,26.4-11.8,26.4-26.4V157.4l110.3,110.3c6.4,6.4,9.6,14.7,9.6,23.1
	c0,8.4-3.2,16.7-9.6,23.1L321.1,482.3C310.4,493,295.8,499,280.7,499L1,499L120.9,379.1z"/>
</svg>
