<?xml version="1.0" encoding="utf-8"?>
<!-- Generator: Adobe Illustrator 25.4.1, SVG Export Plug-In . SVG Version: 6.00 Build 0)  -->
<svg version="1.1" id="shib" xmlns="http://www.w3.org/2000/svg" xmlns:xlink="http://www.w3.org/1999/xlink" x="0px" y="0px"
	 viewBox="0 0 500 500" style="enable-background:new 0 0 500 500;" xml:space="preserve">
<style type="text/css">
	.st0{fill:#F4A817;}
	.st1{fill:#F00500;}
	.st2{fill:#FFFEFE;}
	.st3{fill:#F28F1F;}
	.st4{fill:#F28B20;}
	.st5{fill:#1F1712;}
	.st6{fill:#1F1713;}
	.st7{fill:#F2991D;}
	.st8{fill:#F6D9A7;}
	.st9{fill:#1D1919;}
	.st10{fill:#171413;}
	.st11{fill:#F7DDB0;}
</style>
<path class="st0" d="M156.8,205.5c3.1,0.2,6.6-0.2,10.2-0.5c3.7-0.3,7.4-1,10.9-2.3c2.2-0.8,4.2-2.1,5-4.3c1.6-4.2,1.9-8.6,0.7-12.9
	c-1.9-6.6-6.8-11.1-12.1-15.2c-4.6-3.6-9.8-5-15.4-4c-9.8,1.6-19.7,10.3-20.9,20.5c-0.5,4.5-0.8,8.8,1.8,12.8c1.7,2.7,3.5,5,7.1,5.3
	C148.2,205.2,152.3,205.5,156.8,205.5z M341.1,205.5c2.2,0.2,5.7-0.3,9.2-0.5c3.1-0.2,6-0.9,7.9-3.8c2.6-4.1,3.7-8.6,3.1-13.4
	c-1.2-8.4-6.1-14.3-13.2-18.5c-5.7-3.3-11.7-4.4-18.1-2.1c-3.7,1.3-6.7,3.8-9.5,6.5c-5,4.7-8.8,10-9.3,17.1
	c-0.5,6.5,2.1,10.5,8.3,12.3C326.1,205.1,332.9,205.4,341.1,205.5z M374.7,234c0-4.1,0-8.3-1.3-12.2c-1.6-5-1.2-5.1-6.1-4.6
	c-6.7,0.6-12.8,3.4-18.7,6.4c-8.5,4.2-16.5,9.2-24.3,14.4c-6.4,4.2-13,8.1-18.5,13.5c-4.4,4.3-8.2,8.8-9.2,15.2
	c-0.3,2,0.3,3.1,2.5,3.6c2,0.5,4,0.9,6.1,0.9c7.8,0,15.5-1.4,23.1-3.3c9.7-2.4,19.2-5.6,28.1-10.2c5.9-3.1,11.5-6.6,16.1-11.6
	c1.2-1.3,2.1-2.7,2-4.6C374.3,238.9,374.6,236.4,374.7,234z M126.2,233.3c0.1,1.8,0.4,4.8,0.4,7.7c-0.1,2.8,1.3,4.7,3.1,6.4
	c7.6,7.4,17,11.7,26.8,15.4c6.3,2.4,12.8,4.2,19.5,5.7c6.6,1.5,13.3,2.5,20.1,2.7c2.4,0.1,4.8-0.2,7.2-1c2-0.7,2.6-1.6,2.3-3.6
	c-0.3-1.7-0.8-3.4-1.6-4.9c-3-6.1-7.7-10.7-13.2-14.4c-14.1-9.7-28.3-19.1-44.1-26c-4.8-2.1-9.7-3.8-15.1-3.7
	c-1.8,0-2.6,0.8-3.3,2.3C126.7,223.9,126.6,228,126.2,233.3z M76.7,31.4c-1.2-0.2-1.4,0.2-2.4,2.5c-3.8,8.6-4.9,17.8-5.4,27
	C68.5,66.6,69,72.3,69.5,78c0.3,4,0.8,7.9,1.4,11.8c0.7,4.3,1.4,8.7,2.3,13c1.1,5.7,2.4,11.4,3.8,17c1.8,7,3.7,14,5.7,21
	c1.7,5.8,3.5,11.5,5.3,17.2c0.1,0.4,0.3,0.9,0.8,0.9c0.5,0,0.6-0.4,0.8-0.7c3.9-6.1,7.8-12.3,12.2-18.1c5.5-7.2,11.1-14.3,17.4-20.9
	c5.1-5.3,10.3-10.5,16-15.2c5.3-4.4,10.6-8.6,16.3-12.4c1-0.7,1-1.2,0.2-2.1c-3.8-4-7.5-8.2-11.4-12.1c-6.6-6.6-13.3-13.1-20.5-19.1
	c-5.2-4.4-10.4-8.6-16-12.5c-5.8-4-11.9-7.7-18.2-10.8C82.7,33.6,79.7,32.3,76.7,31.4z M362.2,106.2c0.9,1.6,2.6,2.3,3.8,3.6
	c5.4,5.5,11,10.8,16,16.7c4,4.7,7.8,9.5,11.4,14.5c3.8,5.2,7.5,10.6,10.9,16c0.5,0.8,0.6,2.1,1.7,2.1c0.3,0,0.8-1.5,1-2.4
	c2.1-7.1,4.4-14.2,6.5-21.4c2.3-8.1,4.5-16.3,6.3-24.5c2-9,3.7-18.1,4.7-27.3c0.7-6.1,1.1-12.2,1.3-18.4c0.2-5.5-0.5-10.9-1.1-16.3
	c-0.1-0.4-0.3-0.7-0.3-1.1c-0.6-5.1-2.2-9.9-4.3-14.6c-1-2.3-1.3-2.3-3.7-1.4c-8.4,3.3-16.3,7.6-23.8,12.7
	c-11.6,8-22.3,17.3-32.4,27.1c-5.9,5.7-11.6,11.7-17.1,17.8c-0.8,0.9-1,1.4,0.2,2.3c4.5,3.3,9,6.6,13.4,10.1
	C358.5,103.3,360.1,105.2,362.2,106.2z M359.6,43.9c5.2-5,10.2-10.2,15.7-14.9c9.9-8.6,20.5-16.1,32.6-21.5
	c7.8-3.5,15.9-6.1,24.5-6.7c1.2-0.1,2,0.1,2.7,1.3c3.2,5.1,5.2,10.6,6.7,16.3c3.2,11.8,3.6,23.9,3.2,36c-0.4,9.9-1.4,19.7-2.8,29.5
	c-1.1,7.8-2.5,15.5-3.9,23.2c-0.5,2.9-1.3,5.8-1.7,8.8c-0.2,0.6-0.4,1.2-0.5,1.8c-2.2,10-4.7,20-7.3,29.9
	c-3.1,11.7-6.3,23.3-10.1,34.8c-1.1,3.4-0.4,5.9,0.9,8.8c3.7,8.3,8.5,16.1,11.6,24.6c2.3,6.1,4.5,12.2,6.3,18.4
	c3,10.1,5.3,20.5,7,30.9c1,6.4,1.8,12.8,2.4,19.3c0.5,5.6,0.8,11.2,1,16.8c0.1,2.1,0.9,4.3,0.1,6.5c-2.9-0.4-5.8-1-8.7-1.3
	c-9.5-1-19-1.5-28.6-0.5c-11.1,1.1-21.7,3.6-31.9,7.9c-13.3,5.5-25,13.5-35.5,23.4c-2.8,2.7-5.5,5.5-8.4,8.3
	c-1.1-3.3-2.2-6.5-3.2-9.7c-3.1-9.1-7.7-17.5-11.8-26.1c-1.3-2.6-2.8-5-4.7-7.2c-6.7-7.7-14.2-14.4-22.8-19.8
	c-13.4-8.2-28.1-11.8-43.6-11.9c-8.1,0-16,1.6-23.7,4c-15.2,4.8-27.5,13.9-37.9,25.7c-3.8,4.3-6.3,9.4-9.3,14.2
	c-4,6.5-7.6,13.3-10.6,20.3c-1.5,3.4-2.9,6.8-4.5,10.4c-0.7-0.8-1.3-1.4-1.9-2.1c-17.9-19.8-39.4-33.5-66.3-37.6
	c-10-1.5-20-1.6-30-0.8c-5,0.4-9.9,1.3-14.8,2.1c0.1-5.6,0.6-11.2,1-16.8c0.6-7.3,1.6-14.6,2.9-21.8c1-6.1,2.4-12.2,3.8-18.3
	c2.3-9.7,5.1-19.2,8.5-28.6c0.6-1.8,1.6-3.6-0.1-5.3c-0.1-0.1,0.1-0.3,0.2-0.6c1.1,1.4,1.7,1.2,2.2-0.4c3.4-9.1,7.3-18,11.4-26.9
	c0.4-0.9,0.7-1.7,0.3-2.7c-3.7-9.3-6.9-18.8-9.6-28.5c-2.1-7.3-4-14.7-5.6-22.2c-1.2-5.4-2.4-10.8-3.6-16.2c-0.3-4.5-1.4-8.8-2-13.3
	c-1-6.8-1.9-13.7-2.7-20.5c-0.7-7.1-1.2-14.1-1.6-21.2c-0.3-6.9-0.4-13.8-0.2-20.7c0.3-8.5,0.9-17,3.1-25.3
	c1.2-4.5,2.7-8.9,5.2-12.9c2.9-4.6,5.2-5.4,10.6-4.6c9.4,1.5,17.6,5.5,25.5,10.6c10.5,6.7,19.8,14.9,28.6,23.6
	c3.5,3.5,7.1,7,10.6,10.5c0.2,0.3,0.4,0.6,0.7,0.9c4.6,5.1,9.3,10,13.9,15.2c6.5,7.3,12.9,14.6,19.2,22c1.3,1.5,2.3,1.7,4.1,1
	c11.1-4.6,22.6-7.8,34.4-10c10.2-1.9,20.5-2.6,30.8-2.9c14.8-0.5,29.5,0.2,44.2,2.6c13.1,2.2,25.9,5.5,38.4,10.2
	c2.8,1.1,2.8,1.1,4.6-1.4c5.5-7.7,11.4-15.1,17.4-22.5C350.1,54.5,354.9,49.2,359.6,43.9z"/>
<path class="st1" d="M448,307.6c0.8-2.2-0.1-4.3-0.1-6.5c-0.2-5.6-0.5-11.2-1-16.8c-0.6-6.4-1.4-12.9-2.4-19.3
	c-1.7-10.5-4-20.8-7-30.9c-1.9-6.2-4.1-12.3-6.3-18.4c-3.2-8.5-7.9-16.4-11.6-24.6c-1.3-2.9-2-5.5-0.9-8.8
	c3.8-11.5,7-23.1,10.1-34.8c2.6-9.9,5.1-19.9,7.3-29.9c0.1-0.6,0.3-1.2,0.5-1.8c5.9,8.5,11,17.4,15.7,26.6
	c6.1,11.9,11.1,24.2,15.2,36.9c3.5,10.9,6.2,22,8.2,33.3c2.8,16.2,4.1,32.6,3.8,49c-0.2,12.5-1.3,24.9-3.3,37.3
	c-5.2,31.1-15.7,60.4-31.9,87.5c-16.5,27.6-37.5,51.1-63.4,70.1c-14.3,10.6-29.7,19.3-46.1,26.2c-9.6,4.1-19.4,7.4-29.5,10.1
	c-10.9,2.9-22,4.8-33.3,6c-13.8,1.4-27.6,1.5-41.3,0.3c-11.5-1-22.8-3-34.1-5.8c-15.4-3.8-30.1-9.3-44.2-16.3
	c-33.7-16.8-61.5-40.7-83.9-71c-11.8-15.9-21.4-33.1-29-51.4c-4.4-10.5-8-21.2-10.9-32.1c-3-11.4-5.2-22.9-6.6-34.7
	c-2.1-17.1-2.3-34.2-1-51.4c1.1-13.9,3.3-27.7,6.7-41.3c6.9-27.2,17.8-52.6,33.2-76.1c0.1-0.1,0.2-0.2,0.2-0.3
	c1.2,5.4,2.4,10.8,3.6,16.2c1.6,7.5,3.5,14.9,5.6,22.2c2.7,9.6,5.9,19.2,9.6,28.5c0.4,1,0.1,1.8-0.3,2.7c-4.1,8.8-8,17.7-11.4,26.9
	c-0.6,1.6-1.1,1.8-2.2,0.4c-0.1,0.3-0.2,0.6-0.2,0.6c1.7,1.8,0.7,3.5,0.1,5.3c-3.3,9.4-6.1,18.9-8.5,28.6
	c-1.5,6.1-2.8,12.1-3.8,18.3c-1.2,7.2-2.3,14.5-2.9,21.8c-0.4,5.6-0.9,11.2-1,16.8c-0.5,7,0.2,13.8,2,20.6c2.7,10,7.1,19.2,12.5,28
	c10.9,17.6,25,32.5,40.6,46c21.6,18.8,45.5,34,71.5,46c5.1,2.4,10.2,4.8,15.5,6.7c3.9,1.4,7.8,2.8,11.7,4.2c2.4,0.8,4.9,1.7,7.4,2.5
	c9.2,2.8,18.6,4.7,28.2,5.7c10.9,1.1,21.8,0.4,32.6-1.4c9.7-1.6,19.2-4,28.5-7c9.6-3.1,19-6.8,28.2-11.1c13-6,25.4-12.9,37.4-20.8
	c11.3-7.4,21.9-15.6,31.9-24.8c4.2-3.9,8.5-7.8,12.1-12.3c0.5-0.1,0.7-0.5,0.9-0.9l0.1,0l0-0.1c0.2-0.2,0.4-0.3,0.6-0.5
	c6.8-7.6,13.1-15.6,18.4-24.4c2.9-4.9,6-9.7,8.4-14.9c4.4-9.4,7.5-19.2,9-29.6C447.9,315.2,448.2,311.4,448,307.6z"/>
<path class="st1" d="M359.6,43.9c-4.7,5.3-9.5,10.5-14,16c-6,7.3-11.9,14.7-17.4,22.5c-1.8,2.6-1.8,2.5-4.6,1.4
	c-12.4-4.7-25.3-8-38.4-10.2c-14.6-2.4-29.4-3.1-44.2-2.6c-10.3,0.4-20.7,1-30.8,2.9c-11.8,2.2-23.3,5.4-34.4,10
	c-1.8,0.7-2.8,0.5-4.1-1c-6.3-7.4-12.7-14.7-19.2-22c-4.6-5.1-9.3-10.1-13.9-15.2c-0.2-0.3-0.4-0.6-0.7-0.9
	c13.5-7.9,27.7-14.5,42.6-19.4c12.4-4.1,25.1-7.1,38.1-9c16.6-2.4,33.2-2.7,49.9-1.4c11.4,0.9,22.7,2.9,33.9,5.6
	c19.7,4.9,38.3,12.5,56,22.4C358.9,43.4,359.3,43.7,359.6,43.9z"/>
<path class="st2" d="M402.1,395.7L402.1,395.7l0-0.1L402.1,395.7z M403.3,394.6L403.3,394.6L403.3,394.6L403.3,394.6z M405.1,393
	l-0.1,0.1l0.1,0L405.1,393z M401.7,396.3c-0.1,0-0.1-0.1-0.2,0c-0.2,0.1-0.2,0.1,0,0.2c0,0,0.1,0,0.2,0
	C401.7,396.5,401.7,396.4,401.7,396.3z M278.3,462.7h-1.7C277.2,463.1,277.7,462.9,278.3,462.7z M272.7,463.5
	c1.3,0.4,2.2,0.1,3.2-0.4C274.7,462.7,273.9,463.3,272.7,463.5z M253,392.2L253,392.2c-5.3-0.1-10.6-0.1-15.9-0.1
	c-3.2,0-3.1,0-3,3.2c0,0.8,0.4,1.2,1,1.6c1.6,1,3.3,1.6,5,2.3c1.2,0.5,1.8,0.4,2.3-1c0.9-2.8,1-2.7,3.9-2.5c1,0.1,1.5,0.5,1.9,1.2
	c1,1.6,2,3.3,3,4.9c1.5,2.5,4,2.7,6,0.4c0.8-1,1.7-2,2.5-3c2.8-3.3,2.8-3.3,6.1-0.5c0.5,0.4,0.8,1,1.6,0.8c2.7-0.6,4.7-3.2,4.8-5.9
	c0-1.4-0.5-1.6-1.7-1.6C264.6,392.2,258.8,392.2,253,392.2z M307.1,376c-5.3,0-10.6,0-15.8,0c-0.8,0-1.2,0.5-1.4,1
	c-0.5,1.4-1.5,1.7-2.9,1.6c-4.1-0.1-8.2-0.1-12.4-0.1c-2.1,0-4.6,0.6-6.2-0.3c-1.7-1-2.6-3.4-3.5-5.3c-0.7-1.3-1.5-2-3-1.8
	c-0.9,0.2-1.3-0.2-1.3-1.2c0.1-4.7,0-9.4,0-14.1c0-0.8,0.2-1.2,1-1.5c3.6-1.2,6.9-3.1,9.9-5.4c5.9-4.5,10.1-10.2,11.5-17.7
	c1-5.1,0.5-10.3,0.6-15.5c0.2-6.2-6.1-12.6-12.3-12.6c-11.6,0-23.1,0-34.7,0c-7,0-11.7,4.7-11.7,11.7c0,3.3,0.2,6.6,0,9.9
	c-0.4,6.8,2.4,12.2,6.9,16.9c5.5,5.7,12.2,9.4,19.4,12.5c0.7,0.3,1.4,0.4,1.4,1.5c0,4.7,0,9.5,0,14.2c0,0.7-0.2,1.3-1,1.1
	c-1.9-0.5-2.6,0.8-3.3,2.1c-0.8,1.5-1.8,3-2.6,4.5c-0.4,0.7-0.8,0.9-1.6,0.9c-7.4,0-14.7,0-22.1-0.4c-0.6,0-1.1,0-1.2-0.8
	c0-1.2-0.8-1.3-1.8-1.3c-5.1,0-10.2-0.1-15.4-0.1c-0.4,0-1-0.3-1.1,0.4c-0.1,0.6-0.2,1.2,0.3,1.8c0.9,0.9,1.7,1.8,2.7,2.6
	c1.2,1,1.7,2.1,1.8,3.7c0.1,2.2,0.5,4.3,0.9,6.4c0.4,1.8,0.9,2.3,2.6,1.8c1.2-0.4,2.5-0.5,2.7,1.4c0.3,2.6,1.1,5.1,2,7.6
	c1.1,3.3,2.4,6.6,4.5,9.4c2.4-2.5,2.6-5.4,2.5-8.5c-0.2-5.9-0.1-11.7-0.1-17.6c0.8,0.1,1.8,0.1,2.7,0.3c7.8,1.6,15.7,2.2,23.6,2.5
	c12.8,0.5,25.4-0.6,38-2.8c1.4-0.2,1.7,0.1,1.6,1.4c-0.1,6-0.1,12-0.2,18c0,2.8,1.9,4.5,3.2,6.8c2-5.3,4-10.3,5.9-15.3
	c1.1-2.9,1.1-2.9,4.1-2.9c0.9,0,1.6,0,1.8-1C304.6,386.6,305.8,381.4,307.1,376z M408.4,389.9c0.1-0.1,0.2-0.2,0.3-0.4
	c-0.1,0-0.1-0.1-0.2-0.1C408.4,389.5,408.3,389.7,408.4,389.9c-0.2,0.1-0.3,0.2-0.4,0.3c-0.5,0-0.8,0.2-0.8,0.7
	c-0.2,0-0.3,0.1-0.5,0.1c0,0.1,0.1,0.1,0.1,0.2c0.1-0.1,0.2-0.2,0.3-0.3c0.4-0.1,0.6-0.4,0.8-0.8C408.1,390.1,408.2,390,408.4,389.9
	z M406.1,392.1c0.1-0.1,0.3-0.1,0.1-0.3C406.2,391.9,406.1,392,406.1,392.1c-0.1,0-0.2,0.1-0.2,0.1C406,392.2,406,392.2,406.1,392.1
	z M404.2,394c0.1-0.1,0.2-0.2,0.2-0.2c-0.2-0.2-0.2,0-0.3,0.1c0,0.1-0.1,0.2-0.1,0.2C404.1,394.1,404.2,394.1,404.2,394z
	 M409.9,389.2c-3.7,4.5-7.9,8.4-12.1,12.3c-9.9,9.2-20.6,17.4-31.9,24.8c-11.9,7.9-24.4,14.8-37.4,20.8c-9.2,4.2-18.6,8-28.2,11.1
	c-9.3,3-18.8,5.4-28.5,7c-10.8,1.8-21.7,2.5-32.6,1.4c-9.6-0.9-19-2.8-28.2-5.7c-2.5-0.8-5-1.7-7.4-2.5c-3.9-1.4-7.8-2.7-11.7-4.2
	c-5.3-2-10.4-4.4-15.5-6.7c-26-12-49.9-27.3-71.5-46c-15.6-13.5-29.6-28.3-40.6-46c-5.4-8.8-9.8-18-12.5-28
	c-1.8-6.7-2.5-13.6-2-20.6c4.9-0.8,9.8-1.7,14.8-2.1c10-0.8,20-0.7,30,0.8c26.9,4.1,48.3,17.7,66.3,37.6c0.6,0.6,1.2,1.3,1.9,2.1
	c1.5-3.6,3-7,4.5-10.4c3-7,6.7-13.7,10.6-20.3c2.9-4.8,5.5-9.9,9.3-14.2c10.4-11.9,22.7-21,37.9-25.7c7.7-2.4,15.6-4,23.7-4
	c15.6,0,30.3,3.6,43.6,11.9c8.7,5.3,16.2,12.1,22.8,19.7c1.9,2.2,3.5,4.6,4.7,7.2c4.2,8.6,8.8,17,11.8,26.1c1.1,3.2,2.1,6.4,3.2,9.7
	c2.9-2.8,5.6-5.6,8.4-8.3c10.4-9.9,22.2-17.9,35.5-23.4c10.2-4.2,20.9-6.7,31.9-7.9c9.6-1,19.1-0.5,28.6,0.5
	c2.9,0.3,5.8,0.9,8.7,1.3c0.1,3.8-0.2,7.6-0.7,11.3c-1.5,10.3-4.6,20.1-9,29.6c-2.4,5.2-5.5,10-8.4,14.9
	c-5.2,8.8-11.6,16.8-18.4,24.4c-0.2,0.2-0.4,0.3-0.6,0.5c-0.3-0.8,0.7-1.2,0.6-2.1c-0.8,0.7-1.6,1.1-1.7,2.2l0,0
	c-0.2,0.1-0.6,0.1-0.6,0.3c-0.1,0.5,0.3,0.4,0.6,0.5L409.9,389.2z"/>
<path class="st3" d="M76.7,31.4c3,0.9,6.1,2.2,9,3.7c6.3,3.1,12.4,6.8,18.2,10.8c5.6,3.9,10.8,8.1,16,12.5
	c7.1,6,13.9,12.5,20.5,19.1c3.9,3.9,7.6,8.1,11.4,12.1c0.8,0.8,0.8,1.4-0.2,2.1c-5.7,3.8-11,8.1-16.3,12.4
	c-5.7,4.7-10.8,9.9-16,15.2c-6.3,6.5-12,13.6-17.4,20.9c-4.4,5.8-8.3,11.9-12.2,18.1c-0.2,0.3-0.3,0.7-0.8,0.7
	c-0.6,0-0.7-0.5-0.8-0.9c-1.8-5.7-3.7-11.5-5.3-17.2c-2-7-4-14-5.7-21c-1.4-5.6-2.7-11.3-3.8-17c-0.8-4.3-1.6-8.6-2.3-13
	c-0.6-3.9-1.1-7.9-1.4-11.8c-0.5-5.7-1-11.4-0.7-17.1c0.5-9.3,1.6-18.4,5.4-27C75.3,31.5,75.5,31.2,76.7,31.4z"/>
<path class="st4" d="M424.8,48.8c0.6,5.4,1.3,10.9,1.1,16.3c-0.2,6.1-0.6,12.3-1.3,18.4c-1,9.2-2.7,18.3-4.7,27.3
	c-1.8,8.2-3.9,16.4-6.3,24.5c-2,7.2-4.3,14.2-6.5,21.4c-0.3,0.9-0.7,2.4-1,2.4c-1.1-0.1-1.2-1.3-1.7-2.1c-3.5-5.5-7.1-10.8-10.9-16
	c-3.7-4.9-7.5-9.8-11.4-14.5c-5-5.9-10.6-11.2-16-16.7c-1.2-1.2-2.9-2-3.8-3.6c0.3-0.4,0.8-0.8,1-1.3c2.4-5,5-9.8,7.9-14.5
	c4.3-7.1,9.1-14,14.7-20.2c5.9-6.5,12.5-12.1,20.4-16.1C412,51.1,418.2,49.1,424.8,48.8z"/>
<path class="st5" d="M126.2,233.3c0.3-5.3,0.5-9.4,2.1-13.3c0.7-1.6,1.5-2.3,3.3-2.3c5.4-0.1,10.3,1.6,15.1,3.7
	c15.8,6.8,30,16.2,44.1,26c5.4,3.8,10.1,8.4,13.2,14.4c0.8,1.6,1.3,3.2,1.6,4.9c0.3,2-0.3,2.9-2.3,3.6c-2.3,0.8-4.8,1.1-7.2,1
	c-6.8-0.2-13.5-1.3-20.1-2.7c-6.6-1.5-13.1-3.3-19.5-5.7c-9.8-3.7-19.1-8-26.8-15.4c-1.8-1.8-3.2-3.6-3.1-6.4
	C126.7,238.1,126.3,235.1,126.2,233.3z"/>
<path class="st6" d="M374.7,234c-0.1,2.5-0.4,5-0.3,7.5c0,1.9-0.9,3.3-2,4.6c-4.5,5-10.1,8.5-16.1,11.6c-8.9,4.6-18.4,7.9-28.1,10.2
	c-7.6,1.8-15.2,3.2-23.1,3.3c-2.1,0-4.1-0.4-6.1-0.9c-2.1-0.5-2.8-1.7-2.5-3.6c1-6.3,4.9-10.9,9.2-15.2c5.5-5.4,12.1-9.3,18.5-13.5
	c7.9-5.2,15.9-10.2,24.3-14.4c6-3,12-5.8,18.7-6.4c4.9-0.4,4.5-0.4,6.1,4.6C374.8,225.7,374.7,229.8,374.7,234z"/>
<path class="st7" d="M424.8,48.8c-6.6,0.2-12.8,2.3-18.7,5.2c-7.9,4-14.5,9.6-20.4,16.1c-5.6,6.2-10.4,13-14.7,20.2
	c-2.8,4.7-5.5,9.5-7.9,14.5c-0.2,0.5-0.7,0.9-1,1.3c-2.2-1-3.7-2.9-5.5-4.4c-4.3-3.5-8.9-6.8-13.4-10.1c-1.2-0.9-1-1.4-0.2-2.3
	c5.5-6.1,11.2-12.1,17.1-17.8c10.2-9.8,20.8-19.1,32.4-27.1c7.4-5.1,15.4-9.4,23.8-12.7c2.4-1,2.7-0.9,3.7,1.4
	c2.1,4.6,3.7,9.5,4.3,14.6C424.5,48.1,424.7,48.5,424.8,48.8z"/>
<path class="st2" d="M341.1,205.5c-8.2-0.1-15-0.4-21.7-2.4c-6.2-1.8-8.9-5.8-8.3-12.3c0.6-7.1,4.4-12.5,9.3-17.1
	c2.8-2.6,5.8-5.1,9.5-6.5c6.4-2.3,12.4-1.2,18.1,2.1c7.1,4.2,12,10.1,13.2,18.5c0.7,4.8-0.4,9.3-3.1,13.4c-1.9,2.9-4.8,3.6-7.9,3.8
	C346.8,205.2,343.3,205.7,341.1,205.5z"/>
<path class="st2" d="M156.8,205.5c-4.5,0-8.6-0.3-12.6-0.6c-3.6-0.3-5.4-2.6-7.1-5.3c-2.6-4-2.3-8.3-1.8-12.8
	c1.2-10.2,11.1-18.8,20.9-20.5c5.7-1,10.8,0.5,15.4,4c5.3,4.1,10.1,8.6,12.1,15.2c1.2,4.3,0.9,8.7-0.7,12.9c-0.9,2.3-2.9,3.5-5,4.3
	c-3.5,1.3-7.2,2-10.9,2.3C163.4,205.3,159.9,205.7,156.8,205.5z"/>
<path class="st8" d="M409.8,388.4c0.1-1.1,1-1.5,1.7-2.2c0.1,0.9-0.9,1.3-0.6,2.1c0,0,0,0.1,0,0.1l-0.1,0
	C410.5,388.4,410.1,388.4,409.8,388.4z"/>
<path class="st2" d="M409.8,388.4c0.3,0,0.6,0,1,0c-0.2,0.4-0.4,0.8-0.9,0.9c0,0-0.1-0.1-0.1-0.1
	C409.8,388.9,409.8,388.6,409.8,388.4L409.8,388.4z"/>
<path class="st9" d="M307.1,376c-1.3,5.4-2.6,10.6-3.8,15.9c-0.2,1-0.9,1-1.8,1c-3,0-3,0-4.1,2.9c-1.9,5-3.8,9.9-5.9,15.3
	c-1.3-2.4-3.2-4.1-3.2-6.8c0.1-6,0.1-12,0.2-18c0-1.4-0.2-1.7-1.6-1.4c-12.6,2.2-25.2,3.3-38,2.8c-7.9-0.3-15.8-0.9-23.6-2.5
	c-0.9-0.2-1.8-0.2-2.7-0.3c0,5.9-0.1,11.8,0.1,17.6c0.1,3.2-0.1,6.1-2.5,8.5c-2.1-2.8-3.4-6.1-4.5-9.4c-0.8-2.5-1.7-4.9-2-7.6
	c-0.2-1.9-1.5-1.7-2.7-1.4c-1.8,0.5-2.3,0-2.6-1.8c-0.4-2.1-0.8-4.3-0.9-6.4c-0.1-1.6-0.6-2.7-1.8-3.7c-1-0.8-1.8-1.7-2.7-2.6
	c-0.5-0.5-0.4-1.2-0.3-1.8c0.1-0.7,0.7-0.4,1.1-0.4c5.1,0,10.2,0.1,15.4,0.1c1,0,1.7,0.2,1.8,1.3c0,0.8,0.6,0.8,1.2,0.8
	c7.4,0.4,14.7,0.4,22.1,0.4c0.8,0,1.3-0.2,1.6-0.9c0.8-1.5,1.8-3,2.6-4.5c0.7-1.3,1.4-2.6,3.3-2.1c0.9,0.2,1-0.4,1-1.1
	c0-4.7,0-9.5,0-14.2c0-1-0.7-1.2-1.4-1.5c-7.2-3.1-13.9-6.9-19.4-12.5c-4.5-4.7-7.3-10.1-6.9-16.9c0.2-3.3,0-6.6,0-9.9
	c0-7,4.7-11.7,11.7-11.7c11.6,0,23.1,0,34.7,0c6.2,0,12.5,6.4,12.3,12.6c-0.2,5.2,0.3,10.4-0.6,15.5c-1.4,7.5-5.5,13.2-11.5,17.7
	c-3,2.3-6.3,4.2-9.9,5.4c-0.8,0.3-1,0.7-1,1.5c0,4.7,0,9.4,0,14c0,1,0.3,1.4,1.3,1.2c1.5-0.3,2.3,0.4,3,1.8c1,1.9,1.9,4.4,3.5,5.3
	c1.6,0.9,4.1,0.3,6.2,0.3c4.1,0,8.2,0,12.4,0.1c1.4,0,2.4-0.2,2.9-1.6c0.2-0.6,0.6-1,1.4-1C296.6,376,301.8,376,307.1,376z"/>
<path class="st10" d="M253,392.2c5.8,0,11.6,0,17.4,0c1.2,0,1.8,0.2,1.7,1.6c-0.1,2.7-2.1,5.2-4.8,5.9c-0.8,0.2-1.1-0.4-1.6-0.8
	c-3.3-2.8-3.3-2.8-6.1,0.5c-0.8,1-1.7,2-2.5,3c-1.9,2.3-4.4,2.2-6-0.4c-1-1.6-2-3.3-3-4.9c-0.4-0.7-0.9-1.1-1.9-1.2
	c-2.9-0.2-3-0.3-3.9,2.5c-0.5,1.4-1.1,1.5-2.3,1c-1.7-0.7-3.5-1.3-5.1-2.3c-0.6-0.4-1-0.8-1-1.6c-0.1-3.2-0.2-3.2,3-3.2
	C242.4,392.1,247.7,392.1,253,392.2L253,392.2z"/>
<path class="st8" d="M272.7,463.5c1.2-0.2,2.1-0.8,3.2-0.4C274.9,463.6,274,463.9,272.7,463.5z"/>
<path class="st8" d="M278.3,462.7c-0.6,0.3-1.1,0.4-1.7,0H278.3z"/>
<path class="st8" d="M409.8,388.4c0,0.3,0,0.5,0,0.8c-0.2-0.1-0.7,0-0.6-0.5C409.3,388.5,409.6,388.4,409.8,388.4z"/>
<path class="st8" d="M407.2,391c0-0.5,0.2-0.8,0.8-0.7l0,0C407.8,390.6,407.6,390.9,407.2,391L407.2,391z"/>
<path class="st11" d="M407.2,391c-0.1,0.1-0.2,0.2-0.3,0.3c0-0.1-0.1-0.1-0.1-0.2C406.9,391.1,407,391,407.2,391L407.2,391z"/>
<path class="st11" d="M401.7,396.3c0,0,0,0.1,0,0.1c0,0-0.1,0.1-0.2,0c-0.2-0.1-0.2-0.2,0-0.2C401.6,396.3,401.7,396.3,401.7,396.3z
	"/>
<path class="st8" d="M408.3,389.8c0.1-0.2,0.1-0.3,0.2-0.5c0.1,0,0.1,0.1,0.2,0.1C408.6,389.6,408.5,389.8,408.3,389.8L408.3,389.8z
	"/>
<path class="st8" d="M408,390.2c0.1-0.1,0.2-0.3,0.4-0.4c0,0,0.1,0.1,0.1,0.1C408.2,390,408.1,390.1,408,390.2L408,390.2z"/>
<path class="st11" d="M406,392.1c0.1-0.1,0.1-0.2,0.2-0.2C406.5,392,406.2,392.1,406,392.1L406,392.1z"/>
<path class="st11" d="M406.1,392.1c-0.1,0.1-0.2,0.1-0.2,0.2C405.9,392.2,406,392.1,406.1,392.1
	C406.1,392.1,406.1,392.1,406.1,392.1z"/>
<path class="st11" d="M405.1,393l0,0.1l-0.1,0L405.1,393z"/>
<path class="st11" d="M404.1,393.9c0.1-0.1,0.1-0.3,0.3-0.1c0,0-0.1,0.1-0.2,0.2L404.1,393.9z"/>
<path class="st11" d="M404.3,394c-0.1,0-0.2,0.1-0.2,0.1c0-0.1,0.1-0.2,0.1-0.2C404.1,393.9,404.3,394,404.3,394z"/>
<path class="st11" d="M403.3,394.6l0-0.1L403.3,394.6L403.3,394.6z"/>
<path class="st11" d="M402.1,395.7l0-0.1L402.1,395.7L402.1,395.7z"/>
</svg>
