<?xml version="1.0" encoding="utf-8"?>
<!-- Generator: Adobe Illustrator 27.7.0, SVG Export Plug-In . SVG Version: 6.00 Build 0)  -->
<svg version="1.1" id="Layer_1" xmlns="http://www.w3.org/2000/svg" xmlns:xlink="http://www.w3.org/1999/xlink" x="0px" y="0px"
	 viewBox="0 0 500 500" style="enable-background:new 0 0 500 500;" xml:space="preserve">
<style type="text/css">
	.st0{fill:url(#SVGID_1_);}
	.st1{opacity:0.8;fill:url(#SVGID_00000044858368092768441800000008111438576874578057_);enable-background:new    ;}
	.st2{fill:url(#SVGID_00000054252542961773834150000008490648876384630169_);}
</style>
<linearGradient id="SVGID_1_" gradientUnits="userSpaceOnUse" x1="96.1408" y1="834.475" x2="411.3584" y2="1280.1272" gradientTransform="matrix(1 0 0 1 0 -802)">
	<stop  offset="0" style="stop-color:#EAE4D7"/>
	<stop  offset="1" style="stop-color:#DB16EB"/>
</linearGradient>
<path class="st0" d="M250,500c138.1,0,250-111.9,250-250S388.1,0,250,0S0,111.9,0,250S111.9,500,250,500z"/>
<linearGradient id="SVGID_00000162329290843220272380000018399076742976296097_" gradientUnits="userSpaceOnUse" x1="218.2911" y1="896.418" x2="255.9036" y2="1163.2233" gradientTransform="matrix(1 0 0 1 0 -802)">
	<stop  offset="0" style="stop-color:#FFFFFF"/>
	<stop  offset="1" style="stop-color:#FFFFFF;stop-opacity:0.56"/>
</linearGradient>
<path style="opacity:0.8;fill:url(#SVGID_00000162329290843220272380000018399076742976296097_);enable-background:new    ;" d="
	M279.2,86.7l5.5,1.8l82.4,25.7c1,0.3,1.6,1.3,1.3,2.3l-6.1,22.3c-0.2,0.7-0.8,1.3-1.6,1.4l-1,0.1c-0.7,0.1-1.3,0.6-1.6,1.3
	L322,252.8c-0.1,0.3-0.1,0.6-0.1,0.9c0.6,4.9,1.6,17.1,0.8,30.7c-1,17.5-17.2,26.7-27,31.6c-9.8,4.9-16.7,5.8-23.5,6.8
	c-7.7,1.1-16.7,5.8-23,10.2c-19.4,10.8-60.3,33.5-68.2,37.4c-7.8,3.9-21.6,4.2-27.4,3.9c-11.6,0.5-37-4.5-45.9-28.2
	c-8.9-23.6,5.4-43.4,13.7-50.4c0.1-0.1,0.2-0.1,0.2-0.2c28-16.7,87-51.8,99.9-59.1c13-7.6,17.6-16.6,18.3-20.1l33.7-104.1
	c0.3-0.8,0-1.6-0.7-2.1l-1.7-1.3c-0.7-0.5-0.9-1.4-0.7-2.2l6.3-18.7C277.1,86.9,278.2,86.4,279.2,86.7z"/>
<linearGradient id="SVGID_00000096029436331730152460000017785951530712941737_" gradientUnits="userSpaceOnUse" x1="214.6986" y1="913.8765" x2="284.4361" y2="1174.1375" gradientTransform="matrix(1 0 0 1 0 -802)">
	<stop  offset="0" style="stop-color:#FFFFFF"/>
	<stop  offset="1" style="stop-color:#FFFFFF;stop-opacity:0.8"/>
</linearGradient>
<path style="fill:url(#SVGID_00000096029436331730152460000017785951530712941737_);" d="M274.2,96.8l5.7,1.1l84.9,15.6
	c1,0.2,1.7,1.1,1.6,2.2l-3.4,22.8c-0.1,0.8-0.7,1.4-1.4,1.6l-1,0.3c-0.7,0.2-1.2,0.8-1.4,1.5L337,256.5c-0.1,0.3,0,0.6,0,0.9
	c1.2,4.8,3.7,16.8,4.5,30.3c1.1,17.5-13.8,28.6-23,34.6c-9.1,6-15.8,7.8-22.5,9.6c-7.5,2-15.8,7.8-21.6,12.9
	c-18,13.1-55.8,40.6-63.1,45.4c-7.3,4.8-20.9,6.8-26.8,7.2c-11.4,1.9-37.3,0-49-22.4c-11.7-22.4,0.1-43.7,7.5-51.7
	c0.1-0.1,0.1-0.1,0.2-0.2c25.8-20.1,80.1-62,92-70.9c12-8.9,15.4-18.3,15.6-22l20.8-107.4c0.2-0.8-0.2-1.6-0.9-2l-1.8-1
	c-0.7-0.4-1.1-1.2-0.9-2.1l4-19.4C272.2,97.3,273.2,96.6,274.2,96.8z"/>
</svg>
