<?xml version="1.0" encoding="utf-8"?>
<!-- Generator: Adobe Illustrator 26.5.0, SVG Export Plug-In . SVG Version: 6.00 Build 0)  -->
<svg version="1.1" id="Layer_1" xmlns="http://www.w3.org/2000/svg" xmlns:xlink="http://www.w3.org/1999/xlink" x="0px" y="0px"
	 viewBox="0 0 500 500" style="enable-background:new 0 0 500 500;" xml:space="preserve">
<style type="text/css">
	.st0{fill:#29296E;}
	.st1{fill:#FAFAFA;}
	.st2{fill:#FF4F0A;}
</style>
<path id="Fill-1" class="st0" d="M497.5,249.7c0,136.9-110.9,247.8-247.8,247.8S1.9,386.5,1.9,249.7S112.8,1.9,249.7,1.9
	S497.5,112.8,497.5,249.7"/>
<path id="Fill-4" class="st1" d="M365,183.4l-6.3-19.5c-1.3-4-4.4-7-8.4-8.3l-19.6-6c-2.7-0.8-2.7-4.6,0-5.5l19.5-6.3
	c4-1.3,7-4.4,8.3-8.4l6-19.6c0.8-2.7,4.6-2.7,5.5,0l6.3,19.5c1.3,4,4.4,7,8.4,8.3l19.6,6c2.7,0.8,2.7,4.6,0,5.5l-19.5,6.3
	c-4,1.3-7,4.4-8.3,8.4l-6,19.6C369.7,186.1,365.9,186.1,365,183.4"/>
<path id="Fill-6" class="st2" d="M24.4,245.8c5.9-11.5,17.5-20.2,29.6-25.7c12.2-5.4,25.7-8.8,38.9-9.9c26.7-2.4,52.6,2,76.3,9.8
	c12.2,3.6,23.1,8.7,34.4,13.8c5.5,2.6,10.6,5.6,15.9,8.5l14.6,8.5c16.1,9.9,31.7,18.6,46.3,25.4c14.7,6.7,27.9,11.3,40.4,13.6
	c12.5,2.3,25.2,2.3,40.8-1.3c15.5-3.5,32.9-11.1,51.2-20.8c18.3-9.7,37.1-21.6,58.6-33.2c-2.2,24.3-9,47.1-19.8,69.1
	c-11,21.7-26.3,43-48.6,60.1c-21.9,17.3-52,29.4-82.6,31.2c-30.6,2.1-59.8-4.7-84.6-14.8c-24.9-10.3-46.4-23.8-65.4-38.8
	c-5.3-4.1-8.1-6.5-12-9.8l-10.9-9.5c-7.3-5.7-14.4-12.6-21.6-18.2c-14.4-12.1-28.7-24.2-44.4-34.6c-7.9-5.3-16-10.3-25.3-14.6
	c-4.6-2.1-9.5-4.1-14.7-5.6C36.3,247,30.8,246,24.4,245.8"/>
<path id="Fill-8" class="st1" d="M24.4,245.8c3-25,14.7-48.5,33.4-68.4c18.6-19.8,47.6-35,79.9-37c15.9-1.1,32,0.7,46.9,4.8
	c14.8,4.1,28.6,10.1,41.1,17.1c6.2,3.5,12.1,7.4,17.9,11.3l15.5,11.7l24.2,19.1c15.7,12.5,30.7,24,44.5,33.6
	c14,9.6,25.9,16.5,37.2,20.6c11.3,4.5,25.5,5.6,44.3,0.9c9.3-2.2,19.1-6.1,29.5-10.3c10.3-4.4,21.1-9.6,32.8-14.7
	c-1.4,12.6-4,25.1-8.8,36.8c-4.7,11.9-10.8,23.5-19.4,34.3c-4.4,5.3-9.1,10.6-14.6,15.5c-5.5,4.8-11.6,9.3-18.3,13.3
	c-13.4,7.8-29.3,13.4-45.6,15.5c-16.3,2-32.7,1-47.6-2.1c-15-3.1-28.6-8-41.2-13.8c-25-11.6-45.9-26.2-64.4-41.7
	c-9.3-7.7-18-15.8-26.2-24l-9.7-9.8c-2.9-2.8-5.9-5.7-8.8-8.3c-12-10.6-23-18.6-35-23.6c-12-5.2-27.4-7.4-46.2-3.8
	C67,226.2,46.4,234.4,24.4,245.8"/>
<path id="Fill-10" class="st1" d="M123.5,374.7c0,7.4-6,13.4-13.4,13.4s-13.4-6-13.4-13.4s6-13.4,13.4-13.4S123.5,367.3,123.5,374.7
	"/>
<path id="Fill-12" class="st1" d="M123.5,374.7c0,7.4-6,13.4-13.4,13.4s-13.4-6-13.4-13.4s6-13.4,13.4-13.4S123.5,367.3,123.5,374.7
	"/>
</svg>
