<?xml version="1.0" encoding="utf-8"?>
<!-- Generator: Adobe Illustrator 27.7.0, SVG Export Plug-In . SVG Version: 6.00 Build 0)  -->
<svg version="1.1" id="Layer_1" xmlns="http://www.w3.org/2000/svg" xmlns:xlink="http://www.w3.org/1999/xlink" x="0px" y="0px"
	 viewBox="0 0 500 500" style="enable-background:new 0 0 500 500;" xml:space="preserve">
<style type="text/css">
	.st0{fill-rule:evenodd;clip-rule:evenodd;fill:#25292E;}
	.st1{fill:#FFFFFF;fill-opacity:0.5;}
	.st2{fill:#FFFFFF;}
	.st3{fill-rule:evenodd;clip-rule:evenodd;fill:#FFFFFF;}
</style>
<path class="st0" d="M250,500c138.1,0,250-111.9,250-250S388.1,0,250,0S0,111.9,0,250S111.9,500,250,500z"/>
<path class="st1" d="M142.2,345.4l-21.3-15.1L255,145.4l21.3,15.1L142.2,345.4z"/>
<path class="st2" d="M178.5,258.6c-33,0-59.7-26.4-59.7-59s26.7-59,59.7-59h87.8c7.2,0,13.1,5.8,13.1,13s-5.9,13-13.1,13h-87.8
	c-18.5,0-33.5,14.8-33.5,33.1c0,18.3,15,33.1,33.5,33.1h7.2h34c33,0,59.7,26.4,59.7,59s-26.7,59-59.7,59h-87.8
	c-7.2,0-13.1-5.8-13.1-13c0-7.2,5.9-13,13.1-13h87.8c18.5,0,33.5-14.8,33.5-33.1c0-18.3-15-33.1-33.5-33.1h-34H178.5z"/>
<path class="st3" d="M365.1,250.8c-2.3,2.7-5.2,4.2-9,4.5l-0.2,15.6c4.8-0.1,9.1-1.4,13-4c3.9-2.6,6.9-6.2,9.1-10.9
	c2.2-4.6,3.3-9.9,3.3-15.8c0-5.5-1-10.5-3.1-14.9c-2.1-4.4-4.9-7.9-8.5-10.3c-3.6-2.5-7.7-3.7-12.3-3.7c-4.7,0-8.5,1-11.3,3.1
	c-2.8,2.1-4.9,4.8-6.3,8.2c-1.4,3.4-2.6,7.6-3.5,12.5c-0.9,4.9-1.7,8.5-2.4,10.8c-0.7,2.3-1.6,4.1-2.7,5.4c-1.1,1.3-2.7,1.9-4.7,1.9
	c-2.8,0-4.9-1.1-6.4-3.2c-1.5-2.1-2.3-4.9-2.3-8.5c0-3.8,1-6.9,3-9.2c2-2.3,4.6-3.7,7.8-4v-15.6c-4.5,0.1-8.6,1.4-12.1,3.9
	c-3.6,2.5-6.4,5.9-8.4,10.3s-3.1,9.2-3.1,14.7c0,5.3,1,10.1,3,14.3s4.7,7.5,8.1,9.9s7.3,3.5,11.7,3.5c4.8,0,8.6-1,11.6-3.1
	c2.9-2.1,5.1-4.8,6.6-8.1c1.5-3.3,2.7-7.4,3.6-12.3c1-4.9,1.8-8.6,2.5-11c0.7-2.4,1.6-4.2,2.8-5.5c1.2-1.3,2.8-2,4.8-2
	c2.9,0,5.1,1.2,6.7,3.5c1.6,2.4,2.4,5.4,2.4,9.2C368.5,244.4,367.3,248,365.1,250.8z M349,325.1h-43.6V341h42.8
	c10.7,0,18.9-2.6,24.6-7.7c5.7-5.2,8.5-12.7,8.5-22.7s-2.8-17.5-8.5-22.7c-5.7-5.2-13.9-7.8-24.6-7.8h-42.8V296H349
	c6.1,0,10.7,1.2,13.8,3.6c3.1,2.4,4.6,6.1,4.6,11.1s-1.5,8.7-4.6,11C359.7,323.9,355.1,325.1,349,325.1z M305.4,201.6v-25.8
	c0-7.4,1.6-14,4.8-19.7c3.2-5.7,7.6-10.1,13.3-13.1c5.7-3.1,12.2-4.6,19.5-4.6c7.3,0,13.8,1.5,19.5,4.6c5.7,3.1,10.1,7.5,13.3,13.1
	c3.2,5.7,4.8,12.2,4.8,19.7v25.8H305.4z M360.6,160.3c4.4,3.7,6.6,8.9,6.6,15.6v9.9h-48.4v-9.9c0-6.7,2.2-11.9,6.6-15.6
	c4.4-3.7,10.3-5.6,17.6-5.6C350.3,154.7,356.2,156.5,360.6,160.3z"/>
</svg>
