<?xml version="1.0" encoding="utf-8"?>
<!-- Generator: Adobe Illustrator 26.0.1, SVG Export Plug-In . SVG Version: 6.00 Build 0)  -->
<svg version="1.1" id="Layer_1" xmlns="http://www.w3.org/2000/svg" xmlns:xlink="http://www.w3.org/1999/xlink" x="0px" y="0px"
	 viewBox="0 0 69 46" style="enable-background:new 0 0 69 46;" xml:space="preserve">
<style type="text/css">
	.st0{fill:#7C47EE;}
</style>
<path class="st0" d="M69,0H46v7.7h23V0z M30.7,7.7H23v7.7h7.7V7.7z M23,46h7.7V23H23V46z M38.3,7.7v7.7H46V7.7H38.3z M38.3,46H46V23
	h-7.7V46z M38.3,0h-7.7v7.7h7.7V0z M0,0v7.7h23V0H0z M69,23v-7.7H46V23H69z M30.7,15.3V23h7.7v-7.7H30.7z M0,15.3V23h23v-7.7H0z"/>
</svg>
