<?xml version="1.0" encoding="UTF-8"?>
<svg xmlns:xodm="http://www.corel.com/coreldraw/odm/2003" xmlns="http://www.w3.org/2000/svg" xmlns:xlink="http://www.w3.org/1999/xlink" version="1.1" id="Layer_1" x="0px" y="0px" viewBox="0 0 2500 2500" style="enable-background:new 0 0 2500 2500;" xml:space="preserve">
<style type="text/css">
	.st0{fill:#A40B5D;}
</style>
<g id="Layer_x0020_1">
	<path class="st0" d="M1252,1497c384,318,786,435,1016,476c-226,319-596,527-1017,527s-791-209-1017-527c233-41,634-158,1017-476   l0,0h2l0,0H1252z M1250,1384L1250,1384c0,0-243,202-705,291c-185,34-342,31-466,10c-51-140-79-288-79-435C0,579,531,27,1195,0   l-69,295l123-92l123,92L1303,0c664,27,1195,579,1195,1250c0,154-27,301-79,435c-123,21-281,24-466-10c-462-89-705-291-705-291l0,0   l0,0H1250z M716,1230c-353,45-634-79-634-79l308,277l0,0l209,188c0,0-38-123,27-188c164-17,397-82,623-257c229,174,459,236,624,253   c65,65,27,188,27,188l209-185l308-277c0,0-284,123-634,79c-321-40-521-178-534-188v-1c0,0,0,0-1,0l0,0l0,0c-13,7-210,145-534,188   L716,1230z M1521,757c65,21,79,144,79,144l312-271c0,0-195,34-380,10c-172-24-277-136-281-140l0,0l0,0l0,0l0,0   c-4,4-106,120-277,140c-185,24-380-10-380-10l312,271c0,3,14-120,75-140c89-24,188-68,270-147c79,79,185,120,271,144L1521,757z    M1675,1062c103,27,113,140,113,140l130-120l212-195c0,0-247,72-500,38c-235-30-375-172-380-178l0,0l0,0l0,0l0,0   c-5,5-145,148-380,178c-253,34-500-38-500-38l212,195l0,0l130,120c0,0,10-113,113-140c123-27,281-82,424-198l0,0   c147,116,302,171,425,198H1675z M1391,497c58,34,123,110,123,110l226-205c0,0-178,21-291-27c-131-54-196-127-199-130l0,0l0,0l0,0   l0,0c-3,3-68,83-199,137c-113,45-291,27-291,27l226,202c0-3,65-75,123-113c48-24,99-65,140-120c41,62,93,96,140,120L1391,497z    M1120,1768c-72,72-72,188,0,260c17,17,41,31,62,41v281h137v-281c24-10,45-24,62-41c72-72,72-188,0-260c-69-72-188-72-260,0H1120z"></path>
</g>
</svg>
