<svg xmlns="http://www.w3.org/2000/svg" viewBox="0 0 500 500"><rect width="500" height="500" fill="#ee2b3b"/><path d="M104.4,444.34V267.5H61.71v-35H104.4V55.66H238.56q45.06,0,68.93,5.56,33.4,7.69,57,27.84,30.75,26,46,66.42t15.24,92.4q0,59.4-18.82,102.21t-45.08,62.17q-26.25,19.37-60.45,27.58-18.83,4.5-56.74,4.5Zm51.43-45.86h83q38.71,0,60.45-7.16t34.47-19.89q18.3-18.29,28.63-49.05t10.34-75q0-45.6-10.2-72.91t-26.65-43.75q-16.44-16.44-36.59-22.8t-61.77-6.37H155.83v131H263v35H155.83Z" fill="#fff"/></svg>