<?xml version="1.0" encoding="utf-8"?>
<!-- Generator: Adobe Illustrator 27.0.1, SVG Export Plug-In . SVG Version: 6.00 Build 0)  -->
<svg version="1.1" id="tko" xmlns="http://www.w3.org/2000/svg" xmlns:xlink="http://www.w3.org/1999/xlink" x="0px" y="0px"
	 viewBox="0 0 500 500" style="enable-background:new 0 0 500 500;" xml:space="preserve">
<style type="text/css">
	.st0{fill:#17A84B;}
	.st1{fill:#077FA2;}
</style>
<path class="st0" d="M247.8,157.5c-27.8,0.3-46.6,19.8-46.4,48.1c0,30.1,18.9,49.5,47.6,49.5h0.9v-97.6H247.8z"/>
<path class="st1" d="M298.3,205.8c-0.3-26.6-21.8-48.1-48.5-48.3v97.6C276.8,255,298.5,233,298.3,205.8
	C298.3,206,298.3,206,298.3,205.8L298.3,205.8z"/>
<path class="st0" d="M250,498.8V269.2l-9.5,0.2c-21.1,0-37.5,16.3-40.2,37.8c-1.4,10.8-1.4,14.3-1.7,17.9
	c-0.5,8.6-2.7,12.2-11.3,7.2c-12.4-7-24.4-15-35.6-23.7C86.1,247.1,92.2,146.4,172.8,91c18.9-12.9,30.1-27.3,25.4-51.4
	C191.6,6.1,162.5-9,133,8C55.5,52.5,17.7,121.1,14.7,196.6c0,21.7,2.7,43.3,8.1,64.4c0.2,1.2,0.3,2.2,0.5,3.4
	C36.9,333,75.7,384.4,141.6,417.2c14.3,6.7,28.9,12.2,44,16.5c7.6,1.4,13.1,8.2,12.7,16c0.2,4.8,0.7,9.5,1.5,14.3
	c3.8,21.5,20.6,34.9,43,35.1"/>
<path class="st1" d="M366.5,8C337-9,307.9,6.1,301.4,39.7c-4.8,24.1,6.5,38.5,25.4,51.4c80.4,55.3,86.8,156,21.1,217.6
	c-11.3,8.8-23.2,16.7-35.6,23.7c-8.8,5-10.8,1.4-11.3-7.2c0-6-0.5-12-1.5-17.9c-2.7-21.5-18.9-37.6-40.2-37.8l-9.3-0.2l-0.2,228.9
	l0,0v0.7l7.2-0.2c22.3,0,39.2-13.6,43-35.1c0.9-4.6,1.4-9.5,1.5-14.3c-0.2-7.7,5.2-14.6,12.9-16c15.1-4.3,29.7-9.8,44-16.5
	c65.8-33.2,104.7-84.2,118.2-152.8c0.2-1.2,0.3-2.4,0.5-3.4c5.3-21,8.1-42.6,8.1-64.4C481.8,120.9,444,52.5,366.5,8z"/>
</svg>
