<?xml version="1.0" encoding="utf-8"?>
<!-- Generator: Adobe Illustrator 24.0.0, SVG Export Plug-In . SVG Version: 6.00 Build 0)  -->
<svg version="1.1" id="Layer_1" xmlns="http://www.w3.org/2000/svg" xmlns:xlink="http://www.w3.org/1999/xlink" x="0px" y="0px"
	 viewBox="0 0 2481.6 2500" style="enable-background:new 0 0 2481.6 2500;" xml:space="preserve">
<style type="text/css">
	.st0{fill:#121747;}
	.st1{fill:#FFFFFF;}
	.st2{fill:#52DEB8;}
</style>
<path class="st0" d="M0,0h2481.6v2500H0V0z"/>
<path class="st1" d="M1468,2003.7c0,125.2-101.5,226.7-226.7,226.7s-226.7-101.5-226.7-226.7V496.9c0-125.2,101.5-226.7,226.7-226.7
	S1468,371.7,1468,496.9"/>
<path class="st2" d="M2231.6,1405.9c0,125.2-101.5,226.7-226.7,226.7c-125.2,0-226.7-101.5-226.7-226.7V834.1
	c0-125.2,101.5-226.7,226.7-226.7c125.2,0,226.7,101.5,226.7,226.7"/>
<path class="st1" d="M704.7,2004.4c2.1,124.8-97.4,227.6-222.2,229.6c-124.8,2.1-227.6-97.4-229.6-222.2c0-2.5,0-5,0-7.4v-338.8
	c-2.1-124.8,97.4-227.6,222.2-229.6s227.6,97.4,229.6,222.2c0,2.5,0,5,0,7.4"/>
</svg>
