<?xml version="1.0" encoding="utf-8"?>
<!-- Generator: Adobe Illustrator 26.0.1, SVG Export Plug-In . SVG Version: 6.00 Build 0)  -->
<svg version="1.1" id="Layer_1" xmlns="http://www.w3.org/2000/svg" xmlns:xlink="http://www.w3.org/1999/xlink" x="0px" y="0px"
	 viewBox="0 0 20.2 24" style="enable-background:new 0 0 20.2 24;" xml:space="preserve">
<style type="text/css">
	.st0{fill:#178DD0;}
</style>
<path class="st0" d="M0.3,12.7c0.1-0.7,0.1-1.1,0.5-1.4c0.3-0.3,0.7-0.2,1.4-0.1c0.4,0,1,0.1,1.6,0.2c0.6,0.1,1.1,0.2,1.6,0.4
	c0.7,0.2,1,0.4,1.5,1c0.5,0.6,0.5,1.2,0.5,2.3c0,0.8,0,1.9,0,3.4c0,1.9,0,3.2,0,4.1c0,0.7,0,1.1-0.2,1.3C6.9,24,6.5,24,5.8,24
	c-0.7,0-1.5,0-2.3,0c-0.2,0-0.4,0-0.6,0c-1.2,0-1.7,0-2.2-0.4c-0.4-0.4-0.5-0.9-0.6-2c-0.1-1.1-0.2-2.4-0.2-4
	C0,15.6,0.1,13.9,0.3,12.7z"/>
<path class="st0" d="M19.9,12.7c-0.1-0.7-0.1-1.1-0.5-1.4c-0.3-0.3-0.7-0.2-1.4-0.1c-0.4,0-1,0.1-1.6,0.2c-0.6,0.1-1.1,0.2-1.6,0.4
	c-0.7,0.2-1,0.4-1.5,1c-0.5,0.6-0.5,1.2-0.5,2.3c0,0.8,0,1.9,0,3.4c0,1.9,0,3.2,0,4.1c0,0.7,0,1.1,0.2,1.3c0.2,0.2,0.6,0.2,1.3,0.2
	c0.7,0,1.5,0,2.3,0c0.2,0,0.4,0,0.6,0c1.2,0,1.7,0,2.2-0.4s0.5-0.9,0.6-2c0.1-1.1,0.2-2.4,0.2-4C20.2,15.6,20.1,13.9,19.9,12.7z"/>
<path class="st0" d="M0.3,3.2c0-1.3,0-1.9,0.4-2.3c0.4-0.4,1-0.5,2.3-0.6C4.8,0.2,7.4,0,10.2,0s5.4,0.2,7.3,0.3
	c1.2,0.1,1.9,0.1,2.3,0.6c0.4,0.4,0.4,1.1,0.4,2.3v0.6c0,1.3,0,1.9-0.4,2.3c-0.4,0.4-1,0.5-2.2,0.6C15.8,6.9,13.2,7,10.2,7
	C7.3,7,4.7,6.9,2.9,6.7C1.7,6.6,1.1,6.6,0.7,6.2C0.3,5.7,0.3,5.1,0.3,3.8V3.2z"/>
</svg>
