<?xml version="1.0" encoding="utf-8"?>
<!-- Generator: Adobe Illustrator 26.0.1, SVG Export Plug-In . SVG Version: 6.00 Build 0)  -->
<svg version="1.1" id="Layer_1" xmlns="http://www.w3.org/2000/svg" xmlns:xlink="http://www.w3.org/1999/xlink" x="0px" y="0px"
	 viewBox="0 0 42 42" style="enable-background:new 0 0 42 42;" xml:space="preserve">
<style type="text/css">
	.st0{fill:#FFFFFF;}
	.st1{fill:#216C58;stroke:#216C58;stroke-width:0.7;}
	.st2{fill:#216C58;}
	.st3{fill:#FFFFFF;stroke:#216C58;stroke-width:0.7;}
	.st4{fill-rule:evenodd;clip-rule:evenodd;fill:#FFFFFF;}
</style>
<path class="st0" d="M21,0L21,0c11.6,0,21,9.4,21,21l0,0c0,11.6-9.4,21-21,21l0,0C9.4,42,0,32.6,0,21l0,0C0,9.4,9.4,0,21,0z"/>
<circle class="st1" cx="21" cy="21" r="19.6"/>
<path class="st2" d="M39.2,21c0,10.1-8.1,18.2-18.2,18.2C10.9,39.2,2.8,31.1,2.8,21S10.9,2.8,21,2.8C31.1,2.8,39.2,10.9,39.2,21z"/>
<rect x="18.5" y="29.8" class="st2" width="2.1" height="2.1"/>
<rect x="22" y="29.8" class="st2" width="2.1" height="2.1"/>
<path class="st0" d="M15,8h13.3C28.7,8,29,8.4,29,8.7v0.4c0,0.4-0.3,0.7-0.7,0.7H15c-0.4,0-0.7-0.3-0.7-0.7V8.7
	C14.3,8.4,14.7,8,15,8z"/>
<path class="st0" d="M21,10.5v23.8c0,0.4-0.3,0.7-0.7,0.7h-0.4c-0.4,0-0.7-0.3-0.7-0.7V10.5H21z"/>
<path class="st0" d="M23.8,10.5v23.8c0,0.4-0.3,0.7-0.7,0.7h-0.4c-0.4,0-0.7-0.3-0.7-0.7V10.5H23.8z"/>
<path class="st3" d="M19.5,16.4L19.5,16.4L19.5,16.4c0.5-0.2,1.1-0.3,1.9-0.3c1.1,0,1.9,0.2,2.5,0.6c0.4,0.3,0.7,0.6,0.9,1.1
	c0.2,0.4,0.5,0.8,1.1,0.8h3.2c0.6,0,1.1-0.5,1-1.1c-0.1-1-0.5-1.8-1.1-2.6c-0.7-1-1.8-1.7-3.1-2.2c-1.3-0.5-2.8-0.8-4.5-0.8
	c-1.7,0-3.2,0.3-4.5,0.8c-1.3,0.5-2.4,1.3-3.2,2.2l0,0l0,0c-0.8,1-1.2,2.1-1.2,3.4c0,1.6,0.6,2.9,1.8,3.8c1.2,0.9,2.7,1.6,4.6,2
	c0,0,0,0,0,0l2.5,0.5l0,0l0,0c0.8,0.2,1.5,0.4,2,0.6l0,0c0.5,0.2,0.9,0.4,1.2,0.7l0,0l0,0c0.2,0.2,0.4,0.5,0.4,0.9
	c0,0.4-0.1,0.7-0.4,1.1c-0.3,0.3-0.7,0.6-1.3,0.8l0,0c-0.5,0.2-1.2,0.3-2,0.3c-0.8,0-1.5-0.1-2.1-0.3c-0.6-0.2-1.1-0.5-1.4-0.9
	c-0.2-0.3-0.4-0.6-0.5-0.9c-0.1-0.5-0.5-0.9-1.1-0.9H13c-0.6,0-1.1,0.5-1,1.1c0.1,1.2,0.5,2.2,1.2,3.1l0,0c0.8,1,1.9,1.8,3.3,2.3
	l0,0c1.4,0.5,3,0.8,4.9,0.8c1.9,0,3.5-0.2,4.8-0.8l0,0c1.4-0.5,2.4-1.2,3.1-2.2c0.7-1,1.1-2.1,1.1-3.4l0,0v0c0-0.9-0.2-1.7-0.6-2.4
	c-0.4-0.7-0.9-1.3-1.5-1.8c-0.6-0.5-1.4-0.9-2.2-1.3c-0.8-0.3-1.8-0.6-2.8-0.8l-2-0.4l0,0l0,0c-0.5-0.1-0.9-0.2-1.3-0.3
	c-0.4-0.1-0.8-0.3-1.1-0.5c-0.3-0.2-0.5-0.4-0.7-0.6c-0.1-0.2-0.2-0.4-0.2-0.7l0,0v0c0-0.3,0.1-0.7,0.3-0.9
	C18.7,16.8,19,16.6,19.5,16.4z"/>
<rect x="19.2" y="15.1" class="st0" width="1.8" height="2.4"/>
<rect x="19.2" y="23.8" class="st0" width="1.8" height="2.5"/>
<rect x="19.2" y="31.1" class="st0" width="1.8" height="2.4"/>
<rect x="22.1" y="15.1" class="st0" width="1.8" height="2.4"/>
<rect x="22.1" y="23.8" class="st0" width="1.8" height="2.5"/>
<rect x="22.1" y="31.1" class="st0" width="1.8" height="2.4"/>
<path class="st4" d="M38.6,22c-0.3,0-0.5,0.2-0.5,0.5C37.3,31.3,30,38.2,21,38.2S4.7,31.3,3.9,22.5c0-0.3-0.3-0.5-0.5-0.5
	c-0.3,0-0.5,0.3-0.5,0.6c0.8,9.3,8.6,16.6,18.1,16.6s17.3-7.3,18.1-16.6C39.2,22.3,38.9,22,38.6,22z M3.4,20c0.3,0,0.5-0.2,0.5-0.5
	C4.7,10.7,12,3.9,21,3.9s16.3,6.9,17.1,15.6c0,0.3,0.3,0.5,0.5,0.5c0.3,0,0.5-0.3,0.5-0.6C38.3,10.1,30.5,2.8,21,2.8
	S3.7,10.1,2.9,19.4C2.8,19.7,3.1,20,3.4,20z"/>
</svg>
