<?xml version="1.0" encoding="utf-8"?>
<!-- Generator: Adobe Illustrator 27.5.0, SVG Export Plug-In . SVG Version: 6.00 Build 0)  -->
<svg version="1.1" id="Layer_1" xmlns="http://www.w3.org/2000/svg" xmlns:xlink="http://www.w3.org/1999/xlink" x="0px" y="0px"
	 viewBox="0 0 500 500" style="enable-background:new 0 0 500 500;" xml:space="preserve">
<style type="text/css">
	.st0{fill:url(#SVGID_1_);}
	.st1{fill:url(#SVGID_00000093894963326196756270000007504491451586311078_);}
	.st2{fill:url(#SVGID_00000062179707859253734580000011512767126619248786_);}
	.st3{fill:url(#SVGID_00000129888479856249352190000014596128947153111684_);}
	.st4{fill:url(#SVGID_00000173859950617124335600000005745018641456390325_);}
	.st5{fill:url(#SVGID_00000047772368883603977900000015798164446699432361_);}
	.st6{fill:url(#SVGID_00000158733841131106705030000011080684233845416076_);}
	.st7{fill:url(#SVGID_00000014632283326713346560000012499084399569426084_);}
	.st8{fill:url(#SVGID_00000168809373462494761300000002609974281031899790_);}
	.st9{fill:url(#SVGID_00000151517565277911359310000017293199275321882778_);}
</style>
<linearGradient id="SVGID_1_" gradientUnits="userSpaceOnUse" x1="473.7648" y1="394.5793" x2="195.633" y2="155.2888" gradientTransform="matrix(1 0 0 -1 0 502)">
	<stop  offset="0" style="stop-color:#02F0FE"/>
	<stop  offset="1" style="stop-color:#4D7EFE"/>
</linearGradient>
<path class="st0" d="M392,187.5l-71,125c-22,38.7-62.6,62.5-106.6,62.5v0l35.5-62.5l35.5-62.5l35.5-62.5l35.5-62.5L392,187.5z"/>
<linearGradient id="SVGID_00000029024301001583078970000001309982808964704930_" gradientUnits="userSpaceOnUse" x1="373.5011" y1="334.8715" x2="231.2271" y2="122.2864" gradientTransform="matrix(1 0 0 -1 0 502)">
	<stop  offset="0" style="stop-color:#4D4AFE"/>
	<stop  offset="1" style="stop-color:#4D7EFE;stop-opacity:0"/>
</linearGradient>
<path style="fill:url(#SVGID_00000029024301001583078970000001309982808964704930_);" d="M392,187.5l-71,125
	c-22,38.7-62.6,62.5-106.6,62.5v0l35.5-62.5l35.5-62.5l35.5-62.5l35.5-62.5L392,187.5z"/>
<linearGradient id="SVGID_00000018957268268870310340000015296020109387205777_" gradientUnits="userSpaceOnUse" x1="488.8846" y1="377.0025" x2="210.7528" y2="137.7111" gradientTransform="matrix(1 0 0 -1 0 502)">
	<stop  offset="0" style="stop-color:#02F0FE"/>
	<stop  offset="1" style="stop-color:#4D7EFE"/>
</linearGradient>
<path style="fill:url(#SVGID_00000018957268268870310340000015296020109387205777_);" d="M498.6,125l-35.5,62.5L427.5,250L392,312.5
	l0,0c-21.9,38.7-62.5,62.5-106.5,62.5h-71.1c43.9,0,84.6-23.8,106.6-62.5l71-125L356.5,125H498.6z"/>
<linearGradient id="SVGID_00000155858813003286086070000010481317897324519333_" gradientUnits="userSpaceOnUse" x1="3.8584" y1="462.3657" x2="341.4585" y2="352.9211" gradientTransform="matrix(1 0 0 -1 0 502)">
	<stop  offset="0" style="stop-color:#02F0FE"/>
	<stop  offset="1" style="stop-color:#4D7EFE"/>
</linearGradient>
<path style="fill:url(#SVGID_00000155858813003286086070000010481317897324519333_);" d="M356.5,125H72.4l22.5-39.6l13-22.9l142.1,0
	c43.5,0,83.8,23.4,105.9,61.4L356.5,125z"/>
<linearGradient id="SVGID_00000002355603333087724330000010173117517649699771_" gradientUnits="userSpaceOnUse" x1="69.4997" y1="407.7151" x2="349.4937" y2="408.5501" gradientTransform="matrix(1 0 0 -1 0 502)">
	<stop  offset="0" style="stop-color:#4D4AFE"/>
	<stop  offset="1" style="stop-color:#4D7EFE;stop-opacity:0"/>
</linearGradient>
<path style="fill:url(#SVGID_00000002355603333087724330000010173117517649699771_);" d="M356.5,125H72.4l22.5-39.6l13-22.9l142.1,0
	c43.5,0,83.8,23.4,105.9,61.4L356.5,125z"/>
<linearGradient id="SVGID_00000003811086700398732950000011236642283479101331_" gradientUnits="userSpaceOnUse" x1="11.3371" y1="485.4354" x2="348.9367" y2="375.9913" gradientTransform="matrix(1 0 0 -1 0 502)">
	<stop  offset="0" style="stop-color:#02F0FE"/>
	<stop  offset="1" style="stop-color:#4D7EFE"/>
</linearGradient>
<path style="fill:url(#SVGID_00000003811086700398732950000011236642283479101331_);" d="M355.9,123.9
	c-22.1-38-62.4-61.4-105.9-61.4l-142.1,0l-13,22.9L72.4,125L36.9,62.5L1.4,0l71,0l71,0h71.1c5.5,0,10.9,0.4,16.3,1.1
	c2.7,0.4,5.3,0.8,8,1.4c1.1,0.2,2.2,0.5,3.3,0.7c2.9,0.7,5.7,1.4,8.5,2.3c2.5,0.8,5,1.6,7.4,2.6c1.4,0.5,2.8,1.1,4.2,1.7
	c3.5,1.5,6.9,3.2,10.3,5c0,0,0,0,0.1,0c5.8,3.2,11.4,6.8,16.7,10.9c1.1,0.8,2.1,1.7,3.2,2.5c2,1.7,4,3.5,6,5.3
	c1,0.9,1.9,1.9,2.9,2.8c7.6,7.7,14.2,16.4,19.7,26.1h0L355.9,123.9z"/>
<linearGradient id="SVGID_00000014621988367358732380000010071385277643745471_" gradientUnits="userSpaceOnUse" x1="147.5374" y1="2.9973" x2="68.799" y2="373.7935" gradientTransform="matrix(1 0 0 -1 0 502)">
	<stop  offset="0" style="stop-color:#02F0FE"/>
	<stop  offset="1" style="stop-color:#4D7EFE"/>
</linearGradient>
<path style="fill:url(#SVGID_00000014621988367358732380000010071385277643745471_);" d="M72.4,250l71.1,125h0L72.4,250z"/>
<linearGradient id="SVGID_00000060716327059591344930000005692832392360093825_" gradientUnits="userSpaceOnUse" x1="178.6126" y1="9.5981" x2="99.8743" y2="380.3932" gradientTransform="matrix(1 0 0 -1 0 502)">
	<stop  offset="0" style="stop-color:#02F0FE"/>
	<stop  offset="1" style="stop-color:#4D7EFE"/>
</linearGradient>
<path style="fill:url(#SVGID_00000060716327059591344930000005692832392360093825_);" d="M214.5,375L214.5,375l-71,0l-71-125
	c-21.8-38.3-22-85.4-0.6-123.9l0.6-1.1l13,22.9l22.5,39.6l35.5,62.5l35.5,62.5L214.5,375z"/>
<linearGradient id="SVGID_00000033353888002248876780000007662790391448308924_" gradientUnits="userSpaceOnUse" x1="191.5127" y1="109.1164" x2="46.2883" y2="357.3011" gradientTransform="matrix(1 0 0 -1 0 502)">
	<stop  offset="0" style="stop-color:#4D4AFE"/>
	<stop  offset="1" style="stop-color:#4D7EFE;stop-opacity:0"/>
</linearGradient>
<path style="fill:url(#SVGID_00000033353888002248876780000007662790391448308924_);" d="M214.5,375L214.5,375l-71,0l-71-125
	c-21.8-38.3-22-85.4-0.6-123.9l0.6-1.1l13,22.9l22.5,39.6l35.5,62.5l35.5,62.5L214.5,375z"/>
<linearGradient id="SVGID_00000060744122065447905400000015100374324028456622_" gradientUnits="userSpaceOnUse" x1="155.2917" y1="4.5171" x2="76.5542" y2="375.3134" gradientTransform="matrix(1 0 0 -1 0 502)">
	<stop  offset="0" style="stop-color:#02F0FE"/>
	<stop  offset="1" style="stop-color:#4D7EFE"/>
</linearGradient>
<path style="fill:url(#SVGID_00000060744122065447905400000015100374324028456622_);" d="M214.5,375.1l-71,124.9l-35.5-62.5
	l-21.7-38.2l-13.8-24.3l-35.5-62.5l0,0c-2.1-3.6-3.9-7.3-5.6-11.1c-1.7-3.8-3.1-7.6-4.4-11.5c-0.4-1.1-0.7-2.2-1-3.3
	c-0.4-1.4-0.8-2.9-1.2-4.3c-1.4-5.5-2.5-11.1-3.2-16.7c-0.1-1.2-0.3-2.3-0.4-3.5c-0.1-1.2-0.2-2.5-0.3-3.7c0-0.2,0-0.4,0-0.6
	c-0.1-1.3-0.2-2.5-0.2-3.8c0,0,0,0,0,0c0-1.2-0.1-2.5-0.1-3.7c0-13.6,2.1-27.2,6.4-40.2c0.9-2.6,1.8-5.2,2.8-7.7
	c0.5-1.3,1.1-2.5,1.6-3.8c1.1-2.5,2.3-5,3.6-7.4c0.6-1.2,1.3-2.4,2-3.6v0l34.9-61.4c-21.3,38.5-21.1,85.6,0.6,123.9l71,125
	L214.5,375.1L214.5,375.1z"/>
</svg>
