<?xml version="1.0" encoding="utf-8"?>
<!-- Generator: Adobe Illustrator 27.1.1, SVG Export Plug-In . SVG Version: 6.00 Build 0)  -->
<svg version="1.1" id="viu" xmlns="http://www.w3.org/2000/svg" xmlns:xlink="http://www.w3.org/1999/xlink" x="0px" y="0px"
	 viewBox="0 0 500 500" style="enable-background:new 0 0 500 500;" xml:space="preserve">
<style type="text/css">
	.st0{fill:#FFFFFF;}
	.st1{fill:url(#SVGID_1_);}
	.st2{fill:url(#SVGID_00000103261268057734681400000013159331040964365756_);}
</style>
<circle class="st0" cx="250" cy="250" r="249"/>
<linearGradient id="SVGID_1_" gradientUnits="userSpaceOnUse" x1="205.9726" y1="368.2453" x2="205.9726" y2="97.7863" gradientTransform="matrix(1 0 0 -1 0 500)">
	<stop  offset="0" style="stop-color:#56DDF7"/>
	<stop  offset="1" style="stop-color:#0591D7"/>
</linearGradient>
<path class="st1" d="M190.2,369.2l-64.7-167.1c-10.3-26.6,2.9-56.5,29.5-66.8l0,0c26.6-10.3,56.5,2.9,66.8,29.5l64.7,167.1
	c10.3,26.6-2.9,56.5-29.5,66.8l0,0C230.4,409,200.5,395.8,190.2,369.2z"/>
<linearGradient id="SVGID_00000063613026783693549360000013940015571540837554_" gradientUnits="userSpaceOnUse" x1="315.4093" y1="367.1333" x2="315.4093" y2="216.8652" gradientTransform="matrix(1 0 0 -1 0 500)">
	<stop  offset="0" style="stop-color:#B20F08"/>
	<stop  offset="1" style="stop-color:#FB4E3A"/>
</linearGradient>
<path style="fill:url(#SVGID_00000063613026783693549360000013940015571540837554_);" d="M276.3,250.1l-18.1-46.9
	c-10.3-26.6,2.9-56.5,29.5-66.8l0,0c26.6-10.3,56.5,2.9,66.8,29.5l18.1,46.9c10.3,26.6-2.9,56.5-29.5,66.8l0,0
	C316.5,289.9,286.6,276.8,276.3,250.1z"/>
</svg>
