<?xml version="1.0" encoding="utf-8"?>
<!-- Generator: Adobe Illustrator 26.2.1, SVG Export Plug-In . SVG Version: 6.00 Build 0)  -->
<svg version="1.1" id="Layer_1" xmlns="http://www.w3.org/2000/svg" xmlns:xlink="http://www.w3.org/1999/xlink" x="0px" y="0px"
	 viewBox="0 0 500 500" style="enable-background:new 0 0 500 500;" xml:space="preserve">
<style type="text/css">
	.st0{fill:#0E0037;}
</style>
<path class="st0" d="M250,472.7c-37.6,0-72.9-14.7-99.5-41.2L41.1,322.2c-54.8-54.9-54.8-144.1,0-199l54.7-54.7
	c26.6-26.6,62-41.3,99.6-41.3h109.3c37.6,0,72.9,14.7,99.5,41.2l54.7,54.7c54.8,54.8,54.8,144.1,0,199L349.5,431.5
	C323,458.1,287.6,472.7,250,472.7z M195.4,71.4c-25.8,0-50,10-68.2,28.3l-54.8,54.7c-37.6,37.6-37.6,98.8,0,136.5l109.3,109.3
	c18.2,18.2,42.5,28.3,68.2,28.3c25.8,0,50-10,68.2-28.3l109.3-109.3c37.6-37.6,37.6-98.8,0-136.5l-54.7-54.7
	c-18.2-18.2-42.5-28.3-68.2-28.3H195.4z"/>
<path class="st0" d="M250,407c-22.1,0-43-8.6-58.6-24.3l-98.9-98.8c-32.3-32.3-32.3-84.8,0-117.2l49.5-49.4
	c15.7-15.7,36.5-24.2,58.6-24.2h98.8c22.1,0,43,8.6,58.6,24.3l49.5,49.5c32.3,32.3,32.3,84.8,0,117.2l-98.8,98.7
	C293,398.4,272.1,407,250,407z M200.6,137.2c-10.3,0-20,4-27.3,11.3L123.8,198c-15,15-15,39.5,0,54.7l98.8,98.8
	c14.6,14.6,40.1,14.6,54.7,0l98.8-98.8c15-15,15-39.5,0-54.7l-49.5-49.5c-7.3-7.3-17-11.3-27.3-11.3H200.6z"/>
<path class="st0" d="M250,342.3L136.6,228.8l71.2-71.1h84.5l71.2,71.1L250,342.3z"/>
</svg>
