<?xml version="1.0" encoding="utf-8"?>
<!-- Generator: Adobe Illustrator 25.4.1, SVG Export Plug-In . SVG Version: 6.00 Build 0)  -->
<svg version="1.1" id="warp" xmlns="http://www.w3.org/2000/svg" xmlns:xlink="http://www.w3.org/1999/xlink" x="0px" y="0px"
	 viewBox="0 0 500 500" style="enable-background:new 0 0 500 500;" xml:space="preserve">
<style type="text/css">
	.st0{fill-rule:evenodd;clip-rule:evenodd;fill:#62D066;}
</style>
<path class="st0" d="M76.4,392.3c-21,0-37.7-17.6-37.7-38.9V38.9C38.7,17.5,55.4,0,76.4,0c21,0,37.7,17.5,37.7,38.9v314.5
	C114.1,374.8,97.4,392.3,76.4,392.3z"/>
<path class="st0" d="M287.7,461.1c0,21.3-16.8,38.9-37.7,38.9c-21,0-37.7-17.6-37.7-38.9V113.9c0-21.3,16.8-38.9,37.7-38.9
	c21,0,37.7,17.6,37.7,38.9V461.1z"/>
<path class="st0" d="M423.6,398.2c-21,0-37.7-17.6-37.7-38.9V38.9c0-21.4,16.8-38.9,37.7-38.9c21,0,37.7,17.5,37.7,38.9v320.4
	C461.3,380.6,444.6,398.2,423.6,398.2z"/>
</svg>
