<?xml version="1.0" encoding="utf-8"?>
<!-- Generator: Adobe Illustrator 27.7.0, SVG Export Plug-In . SVG Version: 6.00 Build 0)  -->
<svg version="1.1" id="Layer_1" xmlns="http://www.w3.org/2000/svg" xmlns:xlink="http://www.w3.org/1999/xlink" x="0px" y="0px"
	 viewBox="0 0 500 500" style="enable-background:new 0 0 500 500;" xml:space="preserve">
<style type="text/css">
	.st0{fill:#EABC4B;}
	.st1{fill:#24BCFF;}
</style>
<g>
	<path class="st0" d="M12.2,181.2C5.1,194.4,0,209.5,0,224.7h106.7l43.7-43.5H12.2z"/>
	<path class="st1" d="M195.1,137.7H87.4c-32.5,0-61,18.2-76.2,43.5h139.2L195.1,137.7z"/>
	<path d="M500,49.7H392.3c-48.8,0-88.4,39.5-88.4,88H196.1l88.4-88H176.8c-48.8,0-88.4,39.5-88.4,88v152.8v1
		c0,88,72.2,158.8,159.6,158.8h162.6V136.7L500,49.7z M296.7,278.3c-14.2-14.2-14.2-38.4,0-52.6l52.8,52.6
		C335.4,293.5,312,293.5,296.7,278.3z"/>
</g>
</svg>
