<?xml version="1.0" encoding="utf-8"?>
<!-- Generator: Adobe Illustrator 27.7.0, SVG Export Plug-In . SVG Version: 6.00 Build 0)  -->
<svg version="1.1" id="Layer_1" xmlns="http://www.w3.org/2000/svg" xmlns:xlink="http://www.w3.org/1999/xlink" x="0px" y="0px"
	 viewBox="0 0 500 500" style="enable-background:new 0 0 500 500;" xml:space="preserve">
<style type="text/css">
	.st0{fill-rule:evenodd;clip-rule:evenodd;fill:#25292E;}
	.st1{fill-rule:evenodd;clip-rule:evenodd;fill:#FFFFFF;}
	.st2{fill:url(#SVGID_1_);}
	.st3{fill:#FFFFFF;}
</style>
<path class="st0" d="M250,500c138.1,0,250-111.9,250-250S388.1,0,250,0S0,111.9,0,250S111.9,500,250,500z"/>
<path class="st1" d="M386.1,86.8C349.3,56,301.8,37.5,250,37.5S150.7,56,113.9,86.8c-2.8,2.3-2.9,6.5-0.3,9l4.5,4.5
	c2.3,2.3,6.1,2.4,8.6,0.3c33.5-27.7,76.5-44.4,123.4-44.4s89.9,16.7,123.4,44.4c2.5,2.1,6.3,2,8.6-0.3l4.5-4.5
	C389,93.3,388.9,89.1,386.1,86.8z M100.3,118c2.3,2.3,2.4,6.1,0.3,8.6C72.9,160.1,56.2,203.1,56.2,250s16.7,89.9,44.4,123.4
	c2.1,2.5,2,6.3-0.3,8.6l-4.5,4.5c-2.5,2.5-6.7,2.4-9-0.3C56,349.3,37.5,301.8,37.5,250S56,150.7,86.8,113.9c2.3-2.8,6.5-2.9,9-0.3
	L100.3,118z M399.4,373.4c-2.1,2.5-2,6.3,0.3,8.6l4.5,4.5c2.5,2.5,6.7,2.4,9-0.3c30.8-36.9,49.3-84.3,49.3-136.1
	s-18.5-99.3-49.3-136.1c-2.3-2.8-6.5-2.9-9-0.3l-4.5,4.5c-2.3,2.3-2.4,6.1-0.3,8.6c27.7,33.5,44.4,76.5,44.4,123.4
	S427.1,339.9,399.4,373.4z M113.9,413.2c36.9,30.8,84.3,49.3,136.1,49.3s99.3-18.5,136.1-49.3c2.8-2.3,2.9-6.5,0.3-9l-4.5-4.5
	c-2.3-2.3-6.1-2.4-8.6-0.3c-33.5,27.7-76.5,44.4-123.4,44.4s-89.9-16.7-123.4-44.4c-2.5-2.1-6.3-2-8.6,0.3l-4.5,4.5
	C111,406.7,111.1,410.9,113.9,413.2z"/>
<linearGradient id="SVGID_1_" gradientUnits="userSpaceOnUse" x1="249.9919" y1="238.4098" x2="249.9919" y2="119.4948" gradientTransform="matrix(1 0 0 -1 0 499.8898)">
	<stop  offset="0" style="stop-color:#FFFFFF"/>
	<stop  offset="1" style="stop-color:#FFFFFF;stop-opacity:0.9"/>
</linearGradient>
<path class="st2" d="M165.6,261.5l84.4,49.9l84.4-49.9L250,380.4L165.6,261.5z"/>
<path class="st3" d="M250,292.8l-84.4-49.9L250,110l84.4,132.9L250,292.8z"/>
</svg>
