<svg xmlns="http://www.w3.org/2000/svg" viewBox="0 0 293.05 285.76"><defs><style>.cls-1{fill:#0432a9;}</style></defs><title>waykichain--logo</title><g id="Layer_2" data-name="Layer 2"><g id="图层_1" data-name="图层 1"><path class="cls-1" d="M287.55,137.14h-.33L276.78,86.72a4.53,4.53,0,0,0-1.54-8.78,4.39,4.39,0,0,0-2.28.64L231.88,30a4.47,4.47,0,1,0-6.17-6.47,4.36,4.36,0,0,0-.89,1.19L183.5,6a4.39,4.39,0,0,0,.25-1.43,4.53,4.53,0,0,0-9-.72l-25.13,0a4.84,4.84,0,0,0-6.22,0H118.22a4.52,4.52,0,1,0-8.92,1.43,3.59,3.59,0,0,0,.17.72L68.22,24.72a4.47,4.47,0,1,0-7.95,4.09A4.69,4.69,0,0,0,61.16,30L19.9,78.44a4.39,4.39,0,0,0-2.28-.64,4.53,4.53,0,0,0-1.54,8.78L5.83,137.17H5.5a5.74,5.74,0,0,0,0,11.47h.33l10.31,50.48a4.53,4.53,0,0,0,1.54,8.78,4.58,4.58,0,0,0,2.28-.64l41.21,48.55a4.47,4.47,0,1,0,7.06,5.28l41.29,18.73a4.62,4.62,0,0,0-.25,1.43,4.53,4.53,0,0,0,9,.72H143.4a4.86,4.86,0,0,0,6.22,0h25.13a4.53,4.53,0,0,0,9-.72,4.35,4.35,0,0,0-.25-1.43l41.33-18.77a4.47,4.47,0,1,0,7.06-5.28L273,207.46a4.58,4.58,0,0,0,2.28.64,4.53,4.53,0,0,0,1.54-8.78l10.43-50.74h.33a5.74,5.74,0,0,0,0-11.47ZM274.88,87l4.62,37.17L264.79,93.31a5.43,5.43,0,0,0,1.85-6.21l4.75-2.2A4.55,4.55,0,0,0,274.88,87Zm-20.14,96.53-1-37.14a3.54,3.54,0,0,0,3.12-2.51h7.42c0,.18.08.36.13.55s.12.41.19.61v.12a5.62,5.62,0,0,0,3.18,3.16l-3.86,26.4-7,12.77Zm2,7.06h0ZM36,187.47,29,174.7l-3.82-26.41a5.62,5.62,0,0,0,3.52-4.44h7.57a4.63,4.63,0,0,0,.36.65,3.54,3.54,0,0,0,2.63,1.84l-1,37.17Zm.29,3.08h0v-.07Zm2-88.33,1,37.17a3.49,3.49,0,0,0-2.63,1.84,3.72,3.72,0,0,0-.36.65H28.77a5.59,5.59,0,0,0-3.52-4.44L29.11,111l7-12.77Zm-2-7.06h0ZM257,98.29l7,12.77,3.86,26.4a5.56,5.56,0,0,0-3.18,3.16v.12a5.44,5.44,0,0,0-.19.61,4.9,4.9,0,0,0-.13.55H257a3.51,3.51,0,0,0-3.12-2.51l1-37.14Zm-.29-3.08h.05v.07Zm1,1.83,1.68-2.93a5.74,5.74,0,0,0,2,.39h.17l1.91,13Zm20.58,45h-2.69a5.7,5.7,0,0,0-2.76-4,3.9,3.9,0,0,0-.35-.19,3.54,3.54,0,0,0-.39-.19,5.46,5.46,0,0,0-2.25-.49h-.31l-3.18-21.69,13.23,24.16a4.18,4.18,0,0,0-1.35,2.38Zm1.31,4.15L266.4,170.35l3.18-21.69h.31a5.62,5.62,0,0,0,2.25-.49c.13,0,.26-.13.38-.19a3.9,3.9,0,0,0,.35-.19,5.74,5.74,0,0,0,2.76-4h2.69a4.28,4.28,0,0,0,1.27,2.39Zm-24.75-47.7.07-2.64a3.76,3.76,0,0,0,.67-.12l.41.75Zm1-9.57V89a3.26,3.26,0,0,0-1.16-.21,3,3,0,0,0-.84.12v-.18l-1.08-2.38,3.27,1.15a5.6,5.6,0,0,0-.28,1.41Zm-2.14,6.81-.13,5-14.67,25.52-14.52-16.34a3.52,3.52,0,0,0,.79-2.21,3.37,3.37,0,0,0-.15-1l26.57-12.54a3.6,3.6,0,0,0,2,1.55Zm-48.1,122.16,1.94-.68-1.74,5a3.07,3.07,0,0,0-.53-.05,3.23,3.23,0,0,0-.69.07,5.36,5.36,0,0,0,1-4.32Zm-.6-1.68a5.43,5.43,0,0,0-2-2.09l13.9-34.6,1.46-.26a3.59,3.59,0,0,0,1.73,2L208.22,215Zm-3.31,9.53-8,1.47,3.33-3.66a5.51,5.51,0,0,0,5.06.53,3.51,3.51,0,0,0-.39,1.49l-.06.14ZM150,236.48l39.59-7.29-23,25.39-17.21-16a3.58,3.58,0,0,0,.62-2,.62.62,0,0,1-.09-.12Zm-.22-1.16a3.45,3.45,0,0,0-1-1.49l8.6-14.06h37.29a5.53,5.53,0,0,0,1.15,2.55L191,227.69Zm-6,3.22-17.21,16-23-25.39,39.59,7.29v.06a3.59,3.59,0,0,0,.49,2Zm-.39-3.22-41.13-7.59-4.87-5.37a5.53,5.53,0,0,0,1.15-2.55h37.29l8.47,14a3.45,3.45,0,0,0-1,1.48Zm-52-9.76a3.51,3.51,0,0,0-.39-1.49,5.51,5.51,0,0,0,5.06-.53l3.33,3.66-8-1.47h0Zm-2.85-3.35a2.79,2.79,0,0,0-1.22,0l-1.74-5,1.94.68a5.47,5.47,0,0,0-.1,1,5.6,5.6,0,0,0,1,3.3Zm-.43-6-3.29-1.15L73,181.22a3.59,3.59,0,0,0,1.73-2l1.46.26,13.9,34.6a5.52,5.52,0,0,0-2.06,2.12Zm-.6-148.32-1.94.68,1.74-5a4.75,4.75,0,0,0,.53,0,5.38,5.38,0,0,0,.69-.07,6.4,6.4,0,0,0-1.1,4.33Zm.6,1.68a5.57,5.57,0,0,0,2,2.09l-13.9,34.6-1.46.26a3.52,3.52,0,0,0-1.73-2L84.88,70.68ZM91.46,60l8-1.47-3.33,3.66a5.45,5.45,0,0,0-5.06-.53,3.59,3.59,0,0,0,.39-1.49l.06-.14ZM143.15,49.3l-39.59,7.29,23-25.39,17.21,16a3.53,3.53,0,0,0-.62,2s-.08.07-.08.09Zm.22,1.16a3.58,3.58,0,0,0,1,1.49L135.76,66H98.47a5.44,5.44,0,0,0-1.15-2.55l4.87-5.37Zm6-3.22,17.21-16,23,25.39L150,49.34v-.06a3.48,3.48,0,0,0-.66-2.05Zm.39,3.22,41.13,7.59,4.87,5.37A5.44,5.44,0,0,0,194.61,66H157.32l-8.6-14.06a3.6,3.6,0,0,0,1-1.46Zm52,9.76a3.59,3.59,0,0,0,.39,1.49,5.45,5.45,0,0,0-5.06.53l-3.33-3.66,8,1.47h0Zm2.85,3.35a5.38,5.38,0,0,0,.69.07,4.53,4.53,0,0,0,.53,0l1.74,5-1.94-.68a5.34,5.34,0,0,0-1-4.32Zm.43,6,3.29,1.15,11.82,33.84a3.52,3.52,0,0,0-1.73,2l-1.46-.26L203,71.7A5.65,5.65,0,0,0,205,69.55ZM232.5,137.4a5.08,5.08,0,0,0-3.13-.13l-5.53-13.75-1.16-12.41a3.61,3.61,0,0,0,1-.45l14.63,16.63Zm7.11-8.64L250.41,141l-.34.81-13.85,0a5.55,5.55,0,0,0-2.08-3.49Zm-13.45,10.73a3,3,0,0,0-.84-.14l-.87-9.34,3.21,8a5.35,5.35,0,0,0-1.53,1.47Zm1.49,8.27-3.21,8,.87-9.34a3.88,3.88,0,0,0,.84-.14,5.59,5.59,0,0,0,1.47,1.48ZM223,126.35l1.25,13.14a3.48,3.48,0,0,0-2.36,2.25H197.13a3.33,3.33,0,0,0-.54-1l21.28-27.11ZM142.6,138.7a5.52,5.52,0,0,0-1.58,3l-38.58.05a3.54,3.54,0,0,0-1.48-1.56l14.11-37.06a3.48,3.48,0,0,0,2.23-.15Zm-23.79-37a3.53,3.53,0,0,0,.64-1.58h54.18a3.53,3.53,0,0,0,.64,1.58l-25.45,35.9a5.45,5.45,0,0,0-2.28-.5h-.07a5.45,5.45,0,0,0-2.28.5Zm-16.39,42.35,38.58,0a5.55,5.55,0,0,0,1.58,3l-25.3,35.77a3.35,3.35,0,0,0-2.23-.15l-14.11-37A3.62,3.62,0,0,0,102.42,144.05Zm41.78,4.1a5.77,5.77,0,0,0,2.28.5h.07a5.77,5.77,0,0,0,2.28-.5L174.22,184a3.44,3.44,0,0,0-.64,1.58H119.42a3.44,3.44,0,0,0-.64-1.58Zm6.25-1.1a5.55,5.55,0,0,0,1.58-3l38.41,0a3.59,3.59,0,0,0,1.53,1.86l-14,36.77a3.32,3.32,0,0,0-2.24.15Zm40-5.36L152,141.64a5.52,5.52,0,0,0-1.58-3l25.29-35.78A3.45,3.45,0,0,0,178,103l14,36.77a3.51,3.51,0,0,0-1.55,1.92ZM177.11,96.08a3.4,3.4,0,0,0-1.26.24l-17.43-28.5h36.15a5.61,5.61,0,0,0,1.55,3l-18,25.4a3.18,3.18,0,0,0-1-.13Zm-2.19.78a3.47,3.47,0,0,0-1.3,2.21h-54.2a3.47,3.47,0,0,0-1.3-2.21l17.81-29H157.1Zm-57.7-.53a3.28,3.28,0,0,0-2.27-.07L97,70.86a5.55,5.55,0,0,0,1.55-3h36.15Zm-3.11,6.33L100,139.75a3.05,3.05,0,0,0-.74-.08,3.51,3.51,0,0,0-1.84.52L75.69,112.44l2.15-5.36,34.75-6.34a3.58,3.58,0,0,0,1.48,1.92ZM99.22,146.08A4.53,4.53,0,0,0,100,146l14.12,37.09a3.52,3.52,0,0,0-1.5,1.91l-34.75-6.34-2.15-5.36L97.4,145.55A3.67,3.67,0,0,0,99.22,146.08Zm15.69,43.42a3.4,3.4,0,0,0,2.27-.07l17.43,28.48H98.46a5.48,5.48,0,0,0-1.55-3Zm3.21-.61a3.52,3.52,0,0,0,1.3-2.21h54.2a3.52,3.52,0,0,0,1.3,2.21l-17.81,29H135.92Zm57.74.54a3.4,3.4,0,0,0,2.27.07l18,25.4a5.54,5.54,0,0,0-1.55,3H158.43ZM179,183.1l14-36.78a3.47,3.47,0,0,0,2.85-.55l21.56,27.54-2.16,5.35L180.47,185a3.5,3.5,0,0,0-1.51-1.91Zm14.81-43.76a3.21,3.21,0,0,0-.81.1l-14-36.78a3.56,3.56,0,0,0,1.5-1.91l34.75,6.34,2.15,5.36L195.81,140a3.5,3.5,0,0,0-2.05-.66Zm25.37-29.14-.45.57-1.32-3.28.75.14v.09a3.57,3.57,0,0,0,1,2.47Zm0,1.73.85-1.09a3.67,3.67,0,0,0,1.52.41l.81,8.61Zm-4.43-6.11-34.07-6.17h0a3.51,3.51,0,0,0-.93-2.37l17.92-25.36a5.49,5.49,0,0,0,3.61.43ZM156,66h-18.9l8.27-13.47a3,3,0,0,0,2.36,0Zm-64.2,6.35a5.43,5.43,0,0,0,3.61-.43l17.92,25.36a3.51,3.51,0,0,0-.93,2.37h0L78.3,105.82ZM74.9,107.62l.75-.14-1.32,3.28-.45-.57a3.53,3.53,0,0,0,1-2.49A.29.29,0,0,0,74.9,107.62ZM73,110.82l.86,1.09-3.19,7.91.81-8.61A3.64,3.64,0,0,0,73,110.82Zm2.18,2.78,21.39,27.22a3.51,3.51,0,0,0-.57.85H70.94a3.5,3.5,0,0,0-2.1-2.17l1.24-13.22Zm-6,9.9-5.53,13.75a5.08,5.08,0,0,0-3.13.13l-5.81-10.11,14.63-16.63a3.75,3.75,0,0,0,1,.45Zm-1.48,15.84h-.14a2.81,2.81,0,0,0-.76.08A5.55,5.55,0,0,0,65.37,138l3.21-8Zm.87,16.4-3.21-8a5.89,5.89,0,0,0,1.44-1.42,3.92,3.92,0,0,0,.76.08h.14Zm-9.71-17.46a5.55,5.55,0,0,0-2.08,3.49l-13.67,0a3.41,3.41,0,0,0-.4-.89l10.73-12.2Zm-16.95,1.84a3.41,3.41,0,0,0-1.47-.71l-.88-34.91,13.28,23.24Zm-1.47,6.22a3.66,3.66,0,0,0,1.47-.71L52.84,158,39.56,181.25Zm2.24-1.54a3.74,3.74,0,0,0,.4-.89l13.69.06a5.6,5.6,0,0,0,2.08,3.49L53.41,157Zm17.85,3.56a5.23,5.23,0,0,0,3.13.13l5.55,13.76,1.16,12.41a3.21,3.21,0,0,0-1,.45L54.75,158.48Zm9.52,11-1.24-13.22a3.55,3.55,0,0,0,2.1-2.17H96a4,4,0,0,0,.57.85L75.22,172.15Zm3.82,16.16.45-.57,1.32,3.28-.75-.14V178a3.52,3.52,0,0,0-1-2.44Zm0-1.73L73,174.88a3.52,3.52,0,0,0-1.52-.41l-.81-8.61Zm4.43,6.06L112.38,186h0a3.55,3.55,0,0,0,.93,2.37L95.37,213.82a5.37,5.37,0,0,0-3.61-.43Zm58.76,39.86H156l-8.27,13.47a2.94,2.94,0,0,0-2.36,0Zm64.2-6.35a5.37,5.37,0,0,0-3.61.43l-17.92-25.36a3.55,3.55,0,0,0,.93-2.37h0l34.07-6.17Zm16.86-35.27-.75.14L218.7,175l.45.57a3.5,3.5,0,0,0-1,2.49.68.68,0,0,0,0,.12Zm1.89-3.21-.85-1.09,3.19-7.93-.81,8.61a3.35,3.35,0,0,0-1.54.45Zm-2.18-2.78L196.56,145a3.59,3.59,0,0,0,.54-1h24.73a3.52,3.52,0,0,0,2.36,2.25L223,159.38Zm6-9.9,5.53-13.75a5.23,5.23,0,0,0,3.13-.13l5.81,10.11-14.63,16.63a3.11,3.11,0,0,0-1-.45Zm10.32-14.78a5.6,5.6,0,0,0,2.08-3.49l13.83-.06.34.81L239.61,157Zm17-1.95a3.65,3.65,0,0,0,1.38.75l.88,35L240.14,158Zm1.38-6a3.39,3.39,0,0,0-1.38.75l-11-12.49,13.28-23.24ZM252,89.94l-12.86-8.4,11.18,3.93.06.12,1.83,4.14c-.06.09-.14.15-.2.23ZM251.33,91a3.43,3.43,0,0,0-.15,2.1l-26.56,12.64a3.38,3.38,0,0,0-3.48-1.55l-11.49-33,24.66,8.63Zm-42.43-22-2-5.87a3.93,3.93,0,0,0,.92-.7l20.4,13.43Zm-2.68-12.37a3.31,3.31,0,0,0-2.76.33l-25.77-31.8a3.85,3.85,0,0,0,.7-1.14l44,6.08a4,4,0,0,0,1,2.47l-1.53,2.16Zm16.39-27.86-44-6.14h0a3.85,3.85,0,0,0-2.4-3.57l.57-2.37h0L177,16l39,9.11,6.66,3.57Zm-46-2.8,25.86,31.8a3.48,3.48,0,0,0-.63,1.07l-9.55-1.76-24.6-27,4.68-4.37a3.78,3.78,0,0,0,4.23.32ZM175,18.82h-.22a3.81,3.81,0,0,0-3,1.5L154,10.66l21.71,5.08Zm-8.1,10.33-5.31-5.84H171a3.88,3.88,0,0,0,.57,1.49Zm-1.2,1.13L148.52,46.39a3.19,3.19,0,0,0-4,0L127.31,30.27l6.3-7h25.8Zm-39.6-1.13-4.66-4.33a3.88,3.88,0,0,0,.57-1.49h9.39Zm-7.89-2.63a3.87,3.87,0,0,0,2.36-.83l4.68,4.37-24.6,27-9.53,1.76a3.29,3.29,0,0,0-.63-1.07L116.36,26A3.92,3.92,0,0,0,118.22,26.52Zm-.94-10.78L139,10.66l-17.77,9.63a3.81,3.81,0,0,0-3-1.5H118Zm-2.93,6.92h0l-44,6.14v-.14L77,25.09,116,16l.17.72h0l.57,2.37a3.85,3.85,0,0,0-2.39,3.59ZM70.6,30.15l44-6.08a4.07,4.07,0,0,0,.7,1.14L89.53,57a3.31,3.31,0,0,0-2.76-.33L71.22,34.77l-1.53-2.16a3.9,3.9,0,0,0,.92-2.46ZM84.1,69.07,64.75,75.91,85.22,62.5a3.93,3.93,0,0,0,.92.7Zm-.75,2.14-11.49,33a3.39,3.39,0,0,0-3.48,1.55L41.82,93.12a3.73,3.73,0,0,0,.1-.8,3.58,3.58,0,0,0-.25-1.3l17-11.15ZM41,90l-.21-.21,1.83-4.14.06-.12,11.18-3.93Zm.36,4.24L68,106.74a3.37,3.37,0,0,0-.15,1,3.52,3.52,0,0,0,.79,2.21L54.16,126.31,39.49,100.79l-.13-5a3.58,3.58,0,0,0,2-1.59Zm-2.16-5.49v.18a3,3,0,0,0-.84-.12,3.26,3.26,0,0,0-1.16.21v-.07A5.68,5.68,0,0,0,37,87.48l3.27-1.15Zm-1,9.77-1.15-2,.41-.75a3.76,3.76,0,0,0,.67.12Zm-15,38.6A5.59,5.59,0,0,0,17.68,142H14.8a4.19,4.19,0,0,0-1.31-2.45l13.23-24.16-3.18,21.69a1.37,1.37,0,0,1-.32,0Zm3.49,33.26L13.48,146.18a4.25,4.25,0,0,0,1.31-2.45h2.88a5.6,5.6,0,0,0,5.54,4.92h.31Zm2.9-62.83,1.91-13h.17a5.69,5.69,0,0,0,2-.39l1.68,2.93Zm-2.39,4.31-14.85,27c-.13-.06-.26-.1-.4-.15l1-9.5,16.8-35h0ZM12.37,146.9l14.85,27,2.6,17.68h0l-16.8-35-1-9.5a1.32,1.32,0,0,1,.32-.17ZM29.6,178.22l5.76,10.47-1.68,2.93a5.28,5.28,0,0,0-2-.39h-.17Zm8.62,9-.07,2.64a2.55,2.55,0,0,0-.67.12l-.41-.75Zm-1,9.6v-.07a3.78,3.78,0,0,0,1.16.21,3.36,3.36,0,0,0,.84-.14V197l1.08,2.38L37,198.23A5.63,5.63,0,0,0,37.22,196.82ZM39.36,190l.13-5,14.67-25.52L68.6,175.82A3.46,3.46,0,0,0,68,179L41.39,191.57a3.48,3.48,0,0,0-2-1.53ZM41,195.82l12.86,8.4L42.7,200.29l-.06-.12L40.81,196C40.88,195.93,41,195.82,41,195.82Zm.66-1.06a3.66,3.66,0,0,0,.25-1.3,3.58,3.58,0,0,0-.1-.8L68.39,180a3.42,3.42,0,0,0,3.48,1.55l11.49,33-24.65-8.65Zm42.43,22,2,5.87a3.45,3.45,0,0,0-.92.7L64.76,209.82Zm2.71,12.39a3.39,3.39,0,0,0,2.76-.33l25.77,31.8a3.81,3.81,0,0,0-.7,1.14l-44-6.08a3.89,3.89,0,0,0-1-2.47L71.18,251ZM70.41,256.92l44,6.14h0a3.87,3.87,0,0,0,2.4,3.57l-.57,2.37h0l-.17.72-39-9.11L70.41,257Zm46,2.81L90.51,228a3.51,3.51,0,0,0,.63-1.07l9.55,1.76,24.6,27L120.61,260a3.75,3.75,0,0,0-4.23-.32Zm1.65,7.21h.22a3.87,3.87,0,0,0,3-1.5L139,275.07,117.26,270Zm8.1-10.33,5.31,5.84H122a3.76,3.76,0,0,0-.57-1.49Zm1.2-1.13,17.19-16.12a3.22,3.22,0,0,0,4,0l17.19,16.12-6.3,7h-25.8Zm39.6,1.13,4.65,4.37a3.76,3.76,0,0,0-.57,1.49H161.6Zm7.88,2.62a3.75,3.75,0,0,0-2.36.83l-4.68-4.37,24.6-27,9.55-1.76a3.73,3.73,0,0,0,.63,1.07l-25.85,31.77A3.7,3.7,0,0,0,174.79,259.23Zm.94,10.78L154,275.09l17.74-9.63a3.87,3.87,0,0,0,3,1.5H175Zm2.93-6.92h0l44-6.14v.14L216,260.66l-39,9.11-.17-.72h0l-.57-2.37A3.86,3.86,0,0,0,178.66,263.09Zm43.75-7.49-44,6.08a3.62,3.62,0,0,0-.7-1.14l25.77-31.8a3.39,3.39,0,0,0,2.76.33L221.88,251l1.53,2.16A3.89,3.89,0,0,0,222.41,255.6Zm-13.5-38.92,19.31-6.86-20.47,13.4a3.45,3.45,0,0,0-.92-.7Zm.75-2.14,11.49-33a3.41,3.41,0,0,0,3.48-1.55l26.59,12.65a3.44,3.44,0,0,0,.15,2.1l-17,11.15ZM252,195.82l.21.21-1.83,4.14-.06.12-11.18,3.93Zm-.36-4.24L225.07,179a3.46,3.46,0,0,0-.64-3.21l14.43-16.36L253.53,185l.13,5a3.53,3.53,0,0,0-2,1.56Zm2.17,5.49v-.25a4,4,0,0,0,.84.12,3.78,3.78,0,0,0,1.16-.21v.07a5.82,5.82,0,0,0,.21,1.43l-3.27,1.15Zm1-9.77,1.15,2-.41.75a2.55,2.55,0,0,0-.67-.12Zm8.62-9-1.91,13h-.17a5.31,5.31,0,0,0-2,.39l-1.68-2.93Zm2.38-4.32,14.85-27c.13.06.26.1.4.15l-1,9.5-16.8,35h0Zm14.87-35.16-14.85-27-2.61-17.67h0l16.8,35,1,9.5A.51.51,0,0,1,280.68,138.82Zm-9.4-59.26h0l.1.09.17.2a4.39,4.39,0,0,0-.72,3.65l-4.89,2.15a5.55,5.55,0,0,0-4.55-2.37,4.7,4.7,0,0,0-1.49.24L237.72,42.74l29.19,30.77Zm-21.13-25.7L235.3,38.26l-2.7-5ZM230,31.67,231.22,34l-1.62-1.7A4.86,4.86,0,0,0,230,31.67Zm3.56,6.67,24.57,46a5.57,5.57,0,0,0-1.46,1.56l-2.85-1h0l-2-.72-23-50.92ZM226.37,34a4.07,4.07,0,0,0,1.15-.19l21.87,49.54h-.14l-16.16-5.71-24.65-16.1a3.52,3.52,0,0,0-.7-3.92l17-24A4,4,0,0,0,226.37,34ZM223.9,27a3.72,3.72,0,0,0-.6.59l-2.4-1.29Zm-3.17-2.29-4.91-1.15-11.3-6.09ZM178.68,9a4.17,4.17,0,0,0,3.84-1.42l5,2.24,23.33,12.53L177.34,14.5Zm-3.82-3.28a4.57,4.57,0,0,0,1.55,2.33l.28.25h.08a6.55,6.55,0,0,0,.58.32l-1.28,5.56L156.22,9.56,151.47,8.3V8.15Zm-13.21-.44-10.4.9a4.62,4.62,0,0,0-.39-.88Zm-10.89,5.14,20.39,11A2.83,2.83,0,0,0,171,22H160.44L150.36,11a4.91,4.91,0,0,0,.4-.53ZM143.83,12a4.91,4.91,0,0,0,5.36,0l9.07,10h-23.5ZM142.66,11,132.58,22H122a2.83,2.83,0,0,0-.15-.59l20.39-11a6.41,6.41,0,0,0,.39.52Zm-.49-5.66a4.62,4.62,0,0,0-.39.88l-10.4-.9Zm-25.91,3h.08l.28-.25a4.57,4.57,0,0,0,1.55-2.33l23.37,2.42v.15l-4.75,1.26L116.94,14.2l-1.28-5.56a6.12,6.12,0,0,0,.56-.31Zm-5.75-.74A4.17,4.17,0,0,0,114.35,9l1.32,5.5L82.16,22.33,105.49,9.82Zm-22,9.83L77.22,23.51l-4.91,1.15ZM72.13,26.23l-2.4,1.29a3.72,3.72,0,0,0-.6-.59ZM66.66,34a4.09,4.09,0,0,0,1.65-.37l17,24a3.52,3.52,0,0,0-.7,3.92L59.92,77.62,43.76,83.33h-.14L65.5,33.82a4.07,4.07,0,0,0,1.15.19Zm-3.61-2.34a4.7,4.7,0,0,0,.37.65L61.8,34Zm1.17,1.64-23,50.92-2,.72h0l-2.85,1a5.57,5.57,0,0,0-1.46-1.56l24.57-46Zm-3.84,0-2.7,5L42.83,53.89Zm-39,46.2.1-.09h0l4.57-5.89L55.24,42.74,33.07,83.55a4.7,4.7,0,0,0-1.49-.24A5.55,5.55,0,0,0,27,85.68L22,83.36a4.9,4.9,0,0,0,.13-1,4.46,4.46,0,0,0-.85-2.62ZM18,86.82a4.55,4.55,0,0,0,3.49-2.11l4.94,2.37a5.43,5.43,0,0,0,1.85,6.21L13.52,124.17ZM14.69,99.6l-3,28.48L7.5,136.87ZM11.13,133l-.57,5.39a3.69,3.69,0,0,0-1.23.2,5.11,5.11,0,0,0-.63-.52Zm-1.8,14.06a4.28,4.28,0,0,0,1.23.2l.57,5.39L8.69,147.6a7.57,7.57,0,0,0,.63-.49Zm-1.87,1.73,4.19,8.79,3,28.48Zm10.54,50-4.49-37.23,14.71,30.86a5.43,5.43,0,0,0-1.85,6.21l-4.89,2.26A4.46,4.46,0,0,0,18,198.82Zm3.6,7.43h0l-.1-.09-.17-.2a4.5,4.5,0,0,0,.85-2.62,4.72,4.72,0,0,0-.13-1l5-2.22a5.6,5.6,0,0,0,4.55,2.37,5.34,5.34,0,0,0,1.49-.24l22.17,40.81L26.07,212.29Zm21.27,25.64,14.85,15.6,2.7,5ZM63,254.1l-1.25-2.35,1.62,1.7a3.26,3.26,0,0,0-.37.63Zm-3.56-6.67-24.57-46a5.85,5.85,0,0,0,1.46-1.56l2.85,1h0l2,.72,23,50.92Zm7.18,4.33a3.47,3.47,0,0,0-1.15.19L43.63,202.41h.14l16.16,5.71,24.65,16.1a3.52,3.52,0,0,0,.7,3.92l-17,24a3.84,3.84,0,0,0-1.63-.4Zm2.47,7.06a4.78,4.78,0,0,0,.6-.59l2.4,1.29Zm3.17,2.29,4.91,1.15,11.3,6.09Zm42.05,15.66a4.13,4.13,0,0,0-3.84,1.42l-5-2.24L82.17,263.42l33.51,7.85Zm3.82,3.28a4.49,4.49,0,0,0-1.55-2.33l-.28-.25h-.08a3.28,3.28,0,0,0-.58-.32l1.28-5.56,19.85,4.65,4.75,1.26v.15Zm13.21.44,10.4-.9a4.92,4.92,0,0,0,.39.88Zm10.85-5.17-20.39-11a3.19,3.19,0,0,0,.15-.59h10.55l10.13,11.09A4.25,4.25,0,0,0,142.22,275.32Zm6.93-1.6a4.88,4.88,0,0,0-5.36,0l-9.07-10h23.5Zm1.17,1.06,10.08-11.07H171a3.19,3.19,0,0,0,.15.59l-20.39,11a4.21,4.21,0,0,0-.35-.48Zm.49,5.66a4.92,4.92,0,0,0,.39-.88l10.4.9Zm25.91-3h-.08l-.28.25a4.49,4.49,0,0,0-1.55,2.33l-23.37-2.42v-.15l4.75-1.26L176,271.54l1.28,5.56a4.37,4.37,0,0,0-.55.32Zm5.75.74a4.13,4.13,0,0,0-3.84-1.42l-1.32-5.5,33.51-7.85-23.29,12.51Zm22-9.83,11.3-6.09,4.91-1.15Zm16.38-8.84,2.4-1.29a4.78,4.78,0,0,0,.6.59Zm5.47-7.76a3.79,3.79,0,0,0-1.65.37l-17-24a3.52,3.52,0,0,0,.7-3.92L233,208.1l16.2-5.68h.14l-21.84,49.51a3.75,3.75,0,0,0-1.15-.19Zm3.61,2.34a3.77,3.77,0,0,0-.37-.65l1.62-1.7Zm-1.23-1.63,23-50.92,2-.72h0l2.85-1a5.85,5.85,0,0,0,1.46,1.56l-24.57,46Zm3.84,0,2.7-5,14.85-15.6Zm38.78-46.08-.1.09h0l-4.39,5.77L237.72,243l22.17-40.81a5.34,5.34,0,0,0,1.49.24,5.6,5.6,0,0,0,4.55-2.37l4.9,2.45a4.4,4.4,0,0,0,.72,3.65Zm3.51-7.32a4.49,4.49,0,0,0-3.49,2.11l-4.76-2.49a5.43,5.43,0,0,0-1.85-6.21l14.71-30.87Zm3.44-12.91,3-28.48,4.19-8.79Zm4.14-38.82a4.28,4.28,0,0,0,1.23-.2,7.91,7.91,0,0,0,.63.52l-2.43,5.08Zm-.57-14.27,2.43,5.08a5.11,5.11,0,0,0-.63.52,3.69,3.69,0,0,0-1.23-.2Zm-.53-4.95-3-28.48,7.23,37.27Z"/></g></g></svg>