<?xml version="1.0" encoding="utf-8"?>
<!-- Generator: Adobe Illustrator 27.7.0, SVG Export Plug-In . SVG Version: 6.00 Build 0)  -->
<svg version="1.1" id="Layer_1" xmlns="http://www.w3.org/2000/svg" xmlns:xlink="http://www.w3.org/1999/xlink" x="0px" y="0px"
	 viewBox="0 0 500 500" style="enable-background:new 0 0 500 500;" xml:space="preserve">
<path d="M479.9,152.9c-12.7-29.7-30.5-56.3-53.7-79.5c-23.1-23.1-49.3-41-79-53.7C316.3,6.6,283.6,0,250,0c-34,0-66.8,6.5-97.3,19.6
	C123,32.3,96.4,50.2,73.3,73.4c-23.1,23.1-41,49.8-53.7,79.5C6.5,183.4,0,216.2,0,250.2c0,33.6,6.5,66.4,19.6,97.4
	c12.7,29.7,30.5,56.3,53.7,79.5c23.1,23.1,49.7,41,79.4,53.3c31,13.1,63.7,19.6,97.3,19.6s66.3-6.5,97.3-19.6
	c29.7-12.7,56.3-30.6,79.4-53.7c23.1-23.1,41-49.8,53.7-79.5c13.1-31,19.6-63.7,19.6-97.4C500,216.2,493,183.4,479.9,152.9z
	 M167.1,226.6c10-40.2,46.7-69.4,89.9-69.4h173.6c11.3,21.4,18.3,45,20.9,69.4H167.1z M451.6,273.8c-2.6,24.5-10,48-20.9,69.4H257
	c-43.2,0-79.4-29.7-89.9-69.4H451.6z M106.5,106.6c38.4-38.4,89.4-59.4,143.5-59.4s105.1,21,143.5,59.4c1.3,1.3,2.2,2.2,3.5,3.5H257
	c-37.5,0-72.4,14.4-99,41c-20.9,21-34.5,47.2-38.8,75.5H48.4C53.7,181.2,73.7,139.3,106.5,106.6z M250,453.2
	c-54.1,0-105.1-21-143.5-59.4c-32.7-32.7-52.8-75.1-58-120.1h70.7c4.8,28.4,18.3,54.6,38.8,75.5c26.6,26.6,61.5,41,99,41H397
	c-1.3,1.3-2.2,2.2-3.5,3.5C355.1,432.3,304.1,453.2,250,453.2z"/>
</svg>
