<?xml version="1.0" encoding="utf-8"?>
<!-- Generator: Adobe Illustrator 27.7.0, SVG Export Plug-In . SVG Version: 6.00 Build 0)  -->
<svg version="1.1"
	 id="Layer_1" xmlns:sodipodi="http://sodipodi.sourceforge.net/DTD/sodipodi-0.dtd" xmlns:inkscape="http://www.inkscape.org/namespaces/inkscape" xmlns:svg="http://www.w3.org/2000/svg" inkscape:version="1.2.1 (0b8a7e5fb6, 2022-09-14, custom)" sodipodi:docname="X.svg"
	 xmlns="http://www.w3.org/2000/svg" xmlns:xlink="http://www.w3.org/1999/xlink" x="0px" y="0px" viewBox="0 0 500 500"
	 style="enable-background:new 0 0 500 500;" xml:space="preserve">
<style type="text/css">
	.st0{fill:url(#path1228_00000159455780439162903120000013584402354313629596_);}
	.st1{fill:url(#path1230_00000157292556152941365480000014232375308555396535_);}
	.st2{fill:url(#path1232_00000093155253090122453940000008485330959882680978_);}
	.st3{fill:url(#path1234_00000006674196709757960240000010075846609026945702_);}
</style>
<radialGradient id="path1228_00000103264856551696567170000008096795544506719365_" cx="244.8736" cy="63.7948" r="226.9013" fx="75.9826" fy="-24.4612" gradientTransform="matrix(0.9345 0 0 -0.9619 -173.5054 262.5054)" gradientUnits="userSpaceOnUse">
	<stop  offset="0.33" style="stop-color:#00B7B0"/>
	<stop  offset="0.96" style="stop-color:#0084C3"/>
</radialGradient>
<path id="path1228" style="fill:url(#path1228_00000103264856551696567170000008096795544506719365_);" d="M0,33.3
	c1.1,0.8,1.9,1.3,2.6,1.9c25.9,21.5,51.8,43,76.7,65.8c8.4,7.7,16.3,16,24.4,24.1c36.4,36.4,72.5,73.2,108.3,110.3
	c3.4,3.5,6.7,7,10,10.5c0.7,0.7,1.2,1.4,2,2.3c-0.7,0.8-1.2,1.4-1.8,2c-12.8,12.4-25.5,24.9-38.6,37.1
	c-16.5,15.4-33.1,30.6-49.9,45.7c-10.1,9.1-20.5,17.8-31.5,25.8c-1.7,1.2-3.4,2.3-5.1,3.5c-0.8,0.4-0.9,0.5-0.5-0.5
	c0.4-0.7,0.8-1.4,1.2-2.1c6.1-9.4,13.1-18.2,20.1-27c22-27.4,45.1-53.7,68-80.3c3.8-4.3,3.8-3.5-0.3-7.7
	c-35.6-35.8-70.4-72.4-104-110.2C54.5,104.2,28.1,73,4,39.7c-1.2-1.7-2.4-3.5-3.6-5.2C0.3,34.3,0.3,34.1,0,33.3z"/>
<radialGradient id="path1230_00000165230073944401399940000014795205307329394594_" cx="292.0813" cy="-212.5741" r="320.7684" gradientTransform="matrix(0.9345 0 0 -0.9619 -173.5054 262.5054)" gradientUnits="userSpaceOnUse">
	<stop  offset="0.24" style="stop-color:#00B8AE"/>
	<stop  offset="0.53" style="stop-color:#00AAB7"/>
	<stop  offset="1" style="stop-color:#008ACB"/>
</radialGradient>
<path id="path1230" style="fill:url(#path1230_00000165230073944401399940000014795205307329394594_);" d="M51.4,494.7
	c0.5-0.8,1-1.6,1.5-2.3c6.3-8.1,12.4-16.3,18.8-24.3c19.8-24.5,40.5-48.2,61.4-71.6c28.8-32.4,58.3-64.1,88.4-95.2
	c9.8-10.2,19.7-20.4,29.5-30.6c0.9-0.9,1.9-1.8,3.1-2.8c0.8,0.7,1.6,1.3,2.2,2c31.9,33.4,62.8,67.8,91.3,104.4
	c5.4,6.9,10.5,14.2,15.8,21.3c0.5,0.7,0.9,1.5,1.5,2.4c-1.2,0.4-1.9-0.3-2.5-0.8c-6.9-5.2-13.9-10.3-20.6-15.8
	c-18.9-15.3-37-31.5-55.1-47.7c-9.3-8.3-18.6-16.6-27.9-24.9c-2.1-1.9-2.3-1.9-4.3,0.1c-15.7,15.3-31.3,30.6-47.1,45.7
	c-24,22.8-48,45.6-72.2,68.2c-14.8,13.8-29.8,27.2-44.9,40.7c-11.6,10.3-23.4,20.4-35.8,29.8c-0.9,0.7-1.8,1.3-2.7,1.9L51.4,494.7z"
	/>
<radialGradient id="path1232_00000098192537759655289630000005491681573283049090_" cx="473.2027" cy="-11.3361" r="261.6489" gradientTransform="matrix(0.9345 0 0 -0.9619 -173.5054 262.5054)" gradientUnits="userSpaceOnUse">
	<stop  offset="0.13" style="stop-color:#58C4C1"/>
	<stop  offset="0.71" style="stop-color:#1B9ABF"/>
	<stop  offset="0.95" style="stop-color:#0088BE"/>
</radialGradient>
<path id="path1232" style="fill:url(#path1232_00000098192537759655289630000005491681573283049090_);" d="M408.2,133.2
	c-1.6,2.5-2.8,4.6-4.5,6.9c-7.5,10-14.9,20.1-22.7,29.9c-20,25.2-40.7,49.9-61.7,74.2c-0.2,0.2-0.3,0.4-0.5,0.6
	c-1.5,1.8-1.5,2,0.2,3.7c4.9,5.1,9.8,10.1,14.6,15.2c38.5,40.4,76.3,81.4,112.9,123.6c15.9,18.4,31.6,36.9,46.3,56.4
	c2.3,3,4.5,6.2,6.7,9.2c0.4,0.5,0.6,1.2,0.7,1.9c-0.8-0.6-1.6-1.1-2.4-1.7c-12.6-9.6-24.7-19.9-36.6-30.4
	c-30.6-26.9-60.2-54.9-89.5-83.3c-25.9-25.1-51.5-50.7-76.7-76.6c-4.1-4.2-8.2-8.5-12.3-12.7c-0.6-0.6-1.1-1.3-1.9-2.2
	c0.6-0.7,1.1-1.4,1.7-2c13.9-13.6,27.6-27.4,41.7-40.7c16-15.1,32.3-30,48.8-44.6c10.4-9.2,21.3-17.7,32-26.5c1-0.8,1.4-1.1,2.4-1.8
	c1-0.7,1.3-0.5,1.3-0.5S408.7,132.2,408.2,133.2L408.2,133.2z"/>
<radialGradient id="path1234_00000176016647799763691740000008244173780644550829_" cx="514.9749" cy="91.8656" r="243.8284" fx="456.5562" fy="32.6201" gradientTransform="matrix(0.9345 0 0 -0.9619 -173.5054 262.5054)" gradientUnits="userSpaceOnUse">
	<stop  offset="0.13" style="stop-color:#6BC6C4"/>
	<stop  offset="0.61" style="stop-color:#2EA0BD"/>
	<stop  offset="0.96" style="stop-color:#0084B8"/>
</radialGradient>
<path id="path1234" style="fill:url(#path1234_00000176016647799763691740000008244173780644550829_);" d="M452.7,6.3
	c-7.5,10.3-38.2,47.2-58.5,70.5c-44.9,51.6-91.2,101.7-140.2,149.4c-1-0.9-1.8-1.6-2.5-2.3c-13.5-13.4-26.1-27.7-38.5-42
	c-19.9-23.1-39.4-46.5-58-70.8c-3.2-4.2-6.3-8.5-9.5-12.7c-0.7-0.9-1.2-1.9-1.8-2.8l0.4-0.5c0.8,0.5,1.7,1,2.5,1.6
	c11.5,9,23.2,17.8,34.5,27.1c21.4,17.5,42.3,35.8,62.5,54.9c2.5,2.3,4.9,4.8,7.4,7.1c2.6,2.6,2.6,2.6,5.1,0
	c13.8-13.8,27.5-27.7,41.4-41.4c34.1-33.6,69.1-66.3,105.2-97.7c16-13.9,32.5-27.2,48.8-40.8C454,4,453.6,5,452.7,6.3L452.7,6.3z"/>
</svg>
