<svg enable-background="new 0 0 126 86.1" viewBox="0 0 126 86.1" xmlns="http://www.w3.org/2000/svg"><path d="m34 57.1-30 9-1-57 30-7z" fill="#8400fd"/><path d="m6 68.1c-1.3 0-2.5-.4-3.6-1.1-1.5-1-2.4-2.6-2.4-4.3v-51.8c0-2.5 1.9-4.6 4.5-5.2l24.5-5.5c1.9-.4 3.9-.1 5.5 1s2.5 2.8 2.5 4.6v50.3c0 2.5-1.9 4.8-4.6 5.5l-24.7 6.3c-.6.1-1.1.2-1.7.2zm21.9-61.8c-.3 0-.7 0-1 .1l-19 4.8c-1.7.4-3 2-3 3.8v45c0 1.2.6 2.4 1.6 3.1s2.2 1 3.4.6l19.2-5.5c1.8-.5 3.1-2.2 3.1-4.1v-43.6c0-1.3-.6-2.5-1.6-3.3-.9-.6-1.8-.9-2.7-.9z" fill="#fff"/><path d="m55 76.1-30 9-1-57 30-7z" fill="#02ffdb"/><path d="m27.7 86c-1.2 0-2.4-.4-3.4-1.1-1.4-1-2.3-2.5-2.3-4.2v-50.1c0-2.4 1.8-4.5 4.3-5l23.2-5.3c1.8-.4 3.7 0 5.2 1 1.5 1.1 2.3 2.7 2.3 4.4v48.7c0 2.5-1.8 4.7-4.4 5.3l-23.4 6.1c-.5.1-1 .2-1.5.2zm21.2-61.7c-.3 0-.7 0-1 .1l-19 4.8c-1.7.4-3 2-3 3.8v45c0 1.2.6 2.4 1.6 3.1s2.2 1 3.4.6l19.2-5.5c1.8-.5 3.1-2.2 3.1-4.1v-43.6c0-1.3-.6-2.5-1.6-3.3-.9-.6-1.8-.9-2.7-.9z" fill="#fff"/><path d="m78 58.1-30 9-1-57 30-7z" fill="#8400fd"/><path d="m50.7 68.1c-1.2 0-2.4-.4-3.4-1.1-1.4-1-2.3-2.5-2.3-4.2v-50.3c0-2.4 1.8-4.5 4.3-5l23.1-5.3c1.8-.4 3.7 0 5.2 1 1.5 1.1 2.3 2.7 2.3 4.4v48.8c0 2.5-1.8 4.7-4.4 5.3l-23.3 6.1c-.5.2-1 .3-1.5.3zm21.2-61.8c-.3 0-.7 0-1 .1l-19.1 4.8c-1.7.4-3 2-3 3.8v45c0 1.2.6 2.4 1.6 3.1s2.3 1 3.5.6l19.1-5.5c1.8-.5 3.1-2.2 3.1-4.1v-43.6c0-1.3-.6-2.5-1.6-3.3-.8-.6-1.7-.9-2.6-.9z" fill="#fff"/><path d="m101 76.1-30 9-1-57 30-7z" fill="#02ffdb"/><path d="m73 86.1c-1.3 0-2.5-.4-3.6-1.1-1.5-1-2.4-2.6-2.4-4.3v-51.8c0-2.5 1.9-4.6 4.5-5.2l24.5-5.5c1.9-.4 3.9-.1 5.5 1s2.5 2.8 2.5 4.5v50.3c0 2.5-1.9 4.8-4.6 5.5l-24.7 6.3c-.6.2-1.1.3-1.7.3zm21.9-61.8c-.3 0-.7 0-1 .1l-19 4.8c-1.7.4-3 2-3 3.8v45c0 1.2.6 2.4 1.6 3.1s2.2 1 3.4.6l19.2-5.5c1.8-.5 3.1-2.2 3.1-4.1v-43.6c0-1.3-.6-2.5-1.6-3.3-.9-.6-1.8-.9-2.7-.9z" fill="#fff"/><path d="m124 57.1-30 9-1-57 30-7z" fill="#8400fd"/><path d="m95 68.1c-1.3 0-2.5-.4-3.6-1.1-1.5-1-2.4-2.6-2.4-4.3v-51.8c0-2.5 1.9-4.6 4.5-5.2l24.5-5.5c1.9-.4 3.9-.1 5.5 1s2.5 2.8 2.5 4.5v50.3c0 2.5-1.9 4.8-4.6 5.5l-24.7 6.3c-.6.2-1.1.3-1.7.3zm21.9-61.8c-.3 0-.7 0-1 .1l-19 4.8c-1.7.4-3 2-3 3.8v45c0 1.2.6 2.4 1.6 3.1s2.2 1 3.4.6l19.2-5.5c1.8-.5 3.1-2.2 3.1-4.1v-43.6c0-1.3-.6-2.5-1.6-3.3-.9-.6-1.8-.9-2.7-.9z" fill="#fff"/></svg>