<?xml version="1.0" encoding="utf-8"?>
<!-- Generator: Adobe Illustrator 27.0.1, SVG Export Plug-In . SVG Version: 6.00 Build 0)  -->
<svg version="1.1" id="xaut" xmlns="http://www.w3.org/2000/svg" xmlns:xlink="http://www.w3.org/1999/xlink" x="0px" y="0px"
	 viewBox="0 0 500 500" style="enable-background:new 0 0 500 500;" xml:space="preserve">
<style type="text/css">
	.st0{fill-rule:evenodd;clip-rule:evenodd;fill:#D3B25B;}
</style>
<path class="st0" d="M250.5,248.9c61.3,0,112.3-10.4,125-24.3c-10.7-11.9-48.9-21-97.8-23.4v29.3c-8.6,0.6-17.8,0.6-27.3,0.6
	c-9.5,0-18.4-0.3-27.3-0.9v-29c-48.9,2.7-87.1,11.9-97.8,23.4C137.9,238.5,189.2,248.9,250.5,248.9z M359.2,111.1v40.3h-81.8v27.9
	c57.5,3,100.4,15.1,100.7,29.9v30.5c-0.3,14.8-43.3,27-100.7,29.9V338h-54.2v-68.2c-57.5-3-100.4-15.1-100.7-29.9v-30.8
	c0.3-14.8,43.3-27,100.7-29.9v-27.9h-81.8v-40.3H359.2z M109.5,47.1h286.8c6.8,0,13,3.6,16.6,9.5L496.4,200c4.4,7.4,3,16.9-3.3,22.8
	L263.2,447.4c-7.4,7.4-19.6,7.4-27,0L6.6,223.1c-6.2-6.2-7.4-15.7-3-23.4L93.2,56C96.7,50.6,102.9,47.1,109.5,47.1z"/>
</svg>
