<?xml version="1.0" encoding="utf-8"?>
<!-- Generator: Adobe Illustrator 27.0.1, SVG Export Plug-In . SVG Version: 6.00 Build 0)  -->
<svg version="1.1" id="xdc" xmlns="http://www.w3.org/2000/svg" xmlns:xlink="http://www.w3.org/1999/xlink" x="0px" y="0px"
	 viewBox="0 0 500 500" style="enable-background:new 0 0 500 500;" xml:space="preserve">
<style type="text/css">
	.st0{fill:#1F4B82;}
	.st1{fill:#B6B3B1;}
	.st2{fill:#FFFFFF;}
</style>
<path class="st0" d="M458.1,246.8c0,0,28.8-16.5,38-21.5C484,99.7,378.2,1.5,249.4,1.5C121.3,1.5,16,98.6,2.8,223.1
	c9.6,5.2,40,23.4,40,23.4s-31,19.8-40.4,25.5c11.4,126.4,117.6,225.4,246.9,225.4c129.8,0,236.3-99.7,247-226.8
	C485.2,263.7,458.1,246.8,458.1,246.8z"/>
<path class="st1" d="M249.4,23.1c56.6,0,110.8,21,152.6,59.2c38.1,34.8,62.9,81,71,131.3c-11.3,6.4-24.7,14-25.5,14.5l-31.3,17.9
	l30.6,19.1c0.8,0.5,14.9,9.3,26.8,16.7c-7.3,51.3-32.1,98.5-70.5,134c-41.9,38.7-96.4,60-153.5,60c-56.9,0-111.2-21.2-153.1-59.6
	c-38.4-35.2-63.2-82.1-70.8-133.1c12.4-7.8,28.1-17.8,29-18.4l29.4-18.8l-30-17.8c-0.9-0.5-15.6-9.3-27.8-16.4
	c8.4-49.9,33.4-95.7,71.3-130.1C139.2,43.8,193.1,23.1,249.4,23.1 M249.4,1.5C121.3,1.5,16,98.6,2.8,223.1c9.6,5.2,40,23.4,40,23.4
	s-31,19.8-40.4,25.5c11.4,126.4,117.6,225.4,246.9,225.4c129.8,0,236.3-99.7,247-226.8c-11.2-6.9-38.3-23.8-38.3-23.8
	s28.8-16.5,38-21.5C484,99.7,378.2,1.5,249.4,1.5L249.4,1.5z"/>
<polygon class="st2" points="180.8,155.4 211.3,152.4 249.1,214.7 286.9,155 315.7,157.1 267.2,240.1 321.3,340.1 286.1,341.4 
	246.7,271.7 205.8,340.9 174,338.3 232.8,240.4 "/>
</svg>
