<svg xmlns="http://www.w3.org/2000/svg" viewBox="0 0 30.26 32.96"><defs><style>.cls-1{fill:#f03;}</style></defs><title>xmas</title><g id="Layer_2" data-name="Layer 2"><g id="Layer_1-2" data-name="Layer 1"><path id="合并形状" class="cls-1" d="M15,19.64v0l.05,0,15.17-7.4v2.14L18,20.33l12.2,3v2L15.31,21.65.06,29.09V27Zm0-8.28L30.22,3.94V6.08L0,20.81V18.67l12.28-6L0,9.68v-2ZM0,0,15.18,3.7v2L0,2ZM0,5.84v-2L15.2,7.56v2Zm0,17L30.22,8.09v2.14L0,24.94Zm30.2,6.31L15,25.43v-2l15.18,3.71ZM15,29.26v-2L30.22,31v2Z"/></g></g></svg>