<svg id="Layer_1" data-name="Layer 1" xmlns="http://www.w3.org/2000/svg" xmlns:xlink="http://www.w3.org/1999/xlink" viewBox="0 0 124.37 124.37"><defs><linearGradient id="linear-gradient" x1="7.05" y1="48.07" x2="13.57" y2="60.3" gradientTransform="matrix(1, 0, 0, -1, 0, 126)" gradientUnits="userSpaceOnUse"><stop offset="0" stop-color="#93966f"/><stop offset="1" stop-color="#9c8476"/></linearGradient><linearGradient id="linear-gradient-2" x1="38.85" y1="40.21" x2="27.54" y2="29.52" gradientTransform="matrix(1, 0, 0, -1, 0, 126)" gradientUnits="userSpaceOnUse"><stop offset="0" stop-color="#c27e64"/><stop offset="1" stop-color="#cd8d56"/></linearGradient><linearGradient id="linear-gradient-3" x1="19.89" y1="21.52" x2="-0.19" y2="1.82" gradientTransform="matrix(1, 0, 0, -1, 0, 126)" gradientUnits="userSpaceOnUse"><stop offset="0" stop-color="#d7974e"/><stop offset="1" stop-color="#f5ae3d"/></linearGradient><linearGradient id="linear-gradient-4" x1="56.2" y1="37.81" x2="47.5" y2="31.19" gradientTransform="matrix(1, 0, 0, -1, 0, 126)" gradientUnits="userSpaceOnUse"><stop offset="0" stop-color="#cb7365"/><stop offset="1" stop-color="#d57d56"/></linearGradient><linearGradient id="linear-gradient-5" x1="22.09" y1="122.62" x2="40.74" y2="108.94" gradientTransform="matrix(1, 0, 0, -1, 0, 126)" gradientUnits="userSpaceOnUse"><stop offset="0" stop-color="#3658ca"/><stop offset="1" stop-color="#6b59b8"/></linearGradient><linearGradient id="linear-gradient-6" x1="22.38" y1="4.75" x2="40.59" y2="19.08" gradientTransform="matrix(1, 0, 0, -1, 0, 126)" gradientUnits="userSpaceOnUse"><stop offset="0" stop-color="#f99f36"/><stop offset="1" stop-color="#dc8a4c"/></linearGradient><linearGradient id="linear-gradient-7" x1="6.34" y1="80.96" x2="12.64" y2="68.99" gradientTransform="matrix(1, 0, 0, -1, 0, 126)" gradientUnits="userSpaceOnUse"><stop offset="0" stop-color="#668a87"/><stop offset="1" stop-color="#847c88"/></linearGradient><linearGradient id="linear-gradient-8" x1="19.89" y1="106.11" x2="-0.19" y2="125.81" gradientTransform="matrix(1, 0, 0, -1, 0, 126)" gradientUnits="userSpaceOnUse"><stop offset="0" stop-color="#4a69b0"/><stop offset="1" stop-color="#056ebd"/></linearGradient><linearGradient id="linear-gradient-9" x1="17.03" y1="41.76" x2="2.31" y2="23.75" gradientTransform="matrix(1, 0, 0, -1, 0, 126)" gradientUnits="userSpaceOnUse"><stop offset="0" stop-color="#b78d63"/><stop offset="1" stop-color="#c5a256"/></linearGradient><linearGradient id="linear-gradient-10" x1="87.54" y1="58.36" x2="94.59" y2="49.21" gradientTransform="matrix(1, 0, 0, -1, 0, 126)" gradientUnits="userSpaceOnUse"><stop offset="0" stop-color="#d75080"/><stop offset="1" stop-color="#e34b76"/></linearGradient><linearGradient id="linear-gradient-11" x1="87.86" y1="69.62" x2="95.09" y2="79.11" gradientTransform="matrix(1, 0, 0, -1, 0, 126)" gradientUnits="userSpaceOnUse"><stop offset="0" stop-color="#cf4794"/><stop offset="1" stop-color="#d739a3"/></linearGradient><linearGradient id="linear-gradient-12" x1="47.42" y1="96.02" x2="56.71" y2="89.85" gradientTransform="matrix(1, 0, 0, -1, 0, 126)" gradientUnits="userSpaceOnUse"><stop offset="0" stop-color="#8554b2"/><stop offset="1" stop-color="#9c55a5"/></linearGradient><linearGradient id="linear-gradient-13" x1="85.74" y1="87.61" x2="96.83" y2="98.1" gradientTransform="matrix(1, 0, 0, -1, 0, 126)" gradientUnits="userSpaceOnUse"><stop offset="0" stop-color="#c43cae"/><stop offset="1" stop-color="#cd2cc3"/></linearGradient><linearGradient id="linear-gradient-14" x1="46.67" y1="118.86" x2="58.69" y2="112.65" gradientTransform="matrix(1, 0, 0, -1, 0, 126)" gradientUnits="userSpaceOnUse"><stop offset="0" stop-color="#6344d6"/><stop offset="1" stop-color="#874abf"/></linearGradient><linearGradient id="linear-gradient-15" x1="67.4" y1="38.27" x2="76.04" y2="31.93" gradientTransform="matrix(1, 0, 0, -1, 0, 126)" gradientUnits="userSpaceOnUse"><stop offset="0" stop-color="#d66766"/><stop offset="1" stop-color="#e26a55"/></linearGradient><linearGradient id="linear-gradient-16" x1="67.16" y1="89.28" x2="76.15" y2="95.68" gradientTransform="matrix(1, 0, 0, -1, 0, 126)" gradientUnits="userSpaceOnUse"><stop offset="0" stop-color="#ad4aa9"/><stop offset="1" stop-color="#ad3ebb"/></linearGradient><linearGradient id="linear-gradient-17" x1="2.58" y1="104.15" x2="17.13" y2="85.12" gradientTransform="matrix(1, 0, 0, -1, 0, 126)" gradientUnits="userSpaceOnUse"><stop offset="0" stop-color="#307ca3"/><stop offset="1" stop-color="#6a739a"/></linearGradient><linearGradient id="linear-gradient-18" x1="106.94" y1="42.37" x2="121.71" y2="24.08" gradientTransform="matrix(1, 0, 0, -1, 0, 126)" gradientUnits="userSpaceOnUse"><stop offset="0" stop-color="#ea4c68"/><stop offset="1" stop-color="#f44752"/></linearGradient><linearGradient id="linear-gradient-19" x1="83.66" y1="108.97" x2="102.77" y2="122.96" gradientTransform="matrix(1, 0, 0, -1, 0, 126)" gradientUnits="userSpaceOnUse"><stop offset="0" stop-color="#b930cc"/><stop offset="1" stop-color="#ce15f2"/></linearGradient><linearGradient id="linear-gradient-20" x1="124.56" y1="1.82" x2="104.48" y2="21.52" gradientTransform="matrix(1, 0, 0, -1, 0, 126)" gradientUnits="userSpaceOnUse"><stop offset="0" stop-color="#f15829"/><stop offset="1" stop-color="#ef5948"/></linearGradient><linearGradient id="linear-gradient-21" x1="84.33" y1="18.6" x2="102.49" y2="4.41" gradientTransform="matrix(1, 0, 0, -1, 0, 126)" gradientUnits="userSpaceOnUse"><stop offset="0" stop-color="#ea674a"/><stop offset="1" stop-color="#f26a28"/></linearGradient><linearGradient id="linear-gradient-22" x1="85.52" y1="40.21" x2="96.83" y2="29.52" gradientTransform="matrix(1, 0, 0, -1, 0, 126)" gradientUnits="userSpaceOnUse"><stop offset="0" stop-color="#e15a68"/><stop offset="1" stop-color="#eb5a55"/></linearGradient><linearGradient id="linear-gradient-23" x1="124.56" y1="125.81" x2="104.48" y2="106.11" gradientTransform="matrix(1, 0, 0, -1, 0, 126)" gradientUnits="userSpaceOnUse"><stop offset="0" stop-color="#f902fd"/><stop offset="1" stop-color="#da1fd4"/></linearGradient><linearGradient id="linear-gradient-24" x1="121.8" y1="104.15" x2="107.24" y2="85.12" gradientTransform="matrix(1, 0, 0, -1, 0, 126)" gradientUnits="userSpaceOnUse"><stop offset="0" stop-color="#fc11d5"/><stop offset="1" stop-color="#de2ab7"/></linearGradient><linearGradient id="linear-gradient-25" x1="118.16" y1="81.18" x2="111.73" y2="69" gradientTransform="matrix(1, 0, 0, -1, 0, 126)" gradientUnits="userSpaceOnUse"><stop offset="0" stop-color="#f922aa"/><stop offset="1" stop-color="#e2369d"/></linearGradient><linearGradient id="linear-gradient-26" x1="111.01" y1="60.25" x2="117.25" y2="47.96" gradientTransform="matrix(1, 0, 0, -1, 0, 126)" gradientUnits="userSpaceOnUse"><stop offset="0" stop-color="#e64183"/><stop offset="1" stop-color="#f63777"/></linearGradient><linearGradient id="linear-gradient-27" x1="46.16" y1="8.01" x2="58.1" y2="15.14" gradientTransform="matrix(1, 0, 0, -1, 0, 126)" gradientUnits="userSpaceOnUse"><stop offset="0" stop-color="#f68c31"/><stop offset="1" stop-color="#d77c4e"/></linearGradient><linearGradient id="linear-gradient-28" x1="36.89" y1="58.34" x2="29.78" y2="49.29" gradientTransform="matrix(1, 0, 0, -1, 0, 126)" gradientUnits="userSpaceOnUse"><stop offset="0" stop-color="#ac757a"/><stop offset="1" stop-color="#ac8270"/></linearGradient><linearGradient id="linear-gradient-29" x1="27.54" y1="98.1" x2="38.81" y2="87.44" gradientTransform="matrix(1, 0, 0, -1, 0, 126)" gradientUnits="userSpaceOnUse"><stop offset="0" stop-color="#6466aa"/><stop offset="1" stop-color="#8563a1"/></linearGradient><linearGradient id="linear-gradient-30" x1="29.39" y1="78.98" x2="36.29" y2="69.88" gradientTransform="matrix(1, 0, 0, -1, 0, 126)" gradientUnits="userSpaceOnUse"><stop offset="0" stop-color="#857390"/><stop offset="1" stop-color="#986c8d"/></linearGradient><linearGradient id="linear-gradient-31" x1="77.89" y1="8.54" x2="65.9" y2="15" gradientTransform="matrix(1, 0, 0, -1, 0, 126)" gradientUnits="userSpaceOnUse"><stop offset="0" stop-color="#f47b2c"/><stop offset="1" stop-color="#e5744a"/></linearGradient><linearGradient id="linear-gradient-32" x1="78.24" y1="119.3" x2="66.25" y2="112.79" gradientTransform="matrix(1, 0, 0, -1, 0, 126)" gradientUnits="userSpaceOnUse"><stop offset="0" stop-color="#952ee3"/><stop offset="1" stop-color="#9d3fc3"/></linearGradient></defs><title>insolar</title><path d="M17.29,69h2.41v2.87L2.41,76.36H0V73.49Z" style="fill:url(#linear-gradient)"/><path d="M27.84,94.28V96.8h2.54L38.55,88V85.48H36Z" style="fill:url(#linear-gradient-2)"/><path d="M0,121.85v2.52H2.53l17.18-17.56v-2.52H17.18Z" style="fill:url(#linear-gradient-3)"/><path d="M51.63,96.8l4-8.88V85.48H53l-4,8.88V96.8h2.62Z" style="fill:url(#linear-gradient-4)"/><path d="M38.53,20.08V17.6L26.39,0H23.82V2.49L36,20.08h2.57Z" style="fill:url(#linear-gradient-5)"/><path d="M23.82,121.88v2.48h2.57l12.14-17.59v-2.48H36Z" style="fill:url(#linear-gradient-6)"/><path d="M0,48v2.87l17.29,4.52h2.41V52.55L2.41,48H0Z" style="fill:url(#linear-gradient-7)"/><path d="M0,0V2.52L17.18,20.08h2.53V17.56L2.53,0H0Z" style="fill:url(#linear-gradient-8)"/><path d="M0,98v2.56H2.49L19.71,88V85.48H17.22Z" style="fill:url(#linear-gradient-9)"/><path d="M96.85,76.16v-2.6L88.29,69H85.82v2.6l8.56,4.59h2.46Z" style="fill:url(#linear-gradient-10)"/><path d="M96.85,50.82v-2.6H94.38l-8.56,4.59v2.6h2.46Z" style="fill:url(#linear-gradient-11)"/><path d="M49,27.58V30l4,8.88h2.62V36.46l-4-8.88H49Z" style="fill:url(#linear-gradient-12)"/><path d="M96.53,30.1V27.58H94l-8.17,8.81v2.52h2.54Z" style="fill:url(#linear-gradient-13)"/><path d="M72.34,51.6H68.52v3.82h3.82V51.6Z" style="fill:#be5095"/><path d="M55.84,20.08V17.68L51.61,0H48.74V2.41L53,20.08h2.87Z" style="fill:url(#linear-gradient-14)"/><path d="M68.72,85.48v2.45l4,8.88h2.62V94.35l-4-8.88H68.72Z" style="fill:url(#linear-gradient-15)"/><path d="M75.36,27.58H72.74l-4,8.88v2.45h2.62l4-8.88V27.58Z" style="fill:url(#linear-gradient-16)"/><path d="M0,23.82v2.56L17.22,38.9h2.49V36.34L2.49,23.82H0Z" style="fill:url(#linear-gradient-17)"/><path d="M104.66,85.48V88l17.22,12.52h2.49V98L107.16,85.48h-2.49Z" style="fill:url(#linear-gradient-18)"/><path d="M85.84,17.6v2.48h2.57L100.55,2.49V0H98Z" style="fill:url(#linear-gradient-19)"/><path d="M104.66,104.29v2.52l17.18,17.56h2.53v-2.52l-17.18-17.56h-2.53Z" style="fill:url(#linear-gradient-20)"/><path d="M85.84,104.29v2.48L98,124.36h2.57v-2.48L88.41,104.29H85.84Z" style="fill:url(#linear-gradient-21)"/><path d="M96.53,96.8V94.28l-8.17-8.81H85.82V88L94,96.8h2.54Z" style="fill:url(#linear-gradient-22)"/><path d="M121.84,0L104.66,17.56v2.52h2.53L124.37,2.52V0h-2.53Z" style="fill:url(#linear-gradient-23)"/><path d="M104.66,36.34V38.9h2.49l17.22-12.52V23.82h-2.49Z" style="fill:url(#linear-gradient-24)"/><path d="M104.66,52.55v2.87h2.41l17.29-4.52V48H122Z" style="fill:url(#linear-gradient-25)"/><path d="M104.66,69v2.87L122,76.36h2.41V73.49L107.08,69h-2.41Z" style="fill:url(#linear-gradient-26)"/><path d="M48.74,122v2.41h2.87l4.22-17.68v-2.41H53Z" style="fill:url(#linear-gradient-27)"/><path d="M27.52,73.56v2.6H30l8.56-4.59V69H36.08Z" style="fill:url(#linear-gradient-28)"/><path d="M27.84,27.58V30.1L36,38.91h2.54V36.39l-8.17-8.81H27.84Z" style="fill:url(#linear-gradient-29)"/><path d="M52,72.79h3.82V69H52v3.82Z" style="fill:#bd687b"/><path d="M27.52,48.23v2.6l8.56,4.59h2.46v-2.6L30,48.23H27.52Z" style="fill:url(#linear-gradient-30)"/><path d="M68.54,104.29v2.41l4.22,17.68h2.87V122l-4.22-17.68H68.54Z" style="fill:url(#linear-gradient-31)"/><path d="M68.54,17.68v2.41h2.87L75.64,2.41V0H72.76Z" style="fill:url(#linear-gradient-32)"/><path d="M52,55.41h3.82V51.6H52v3.82Z" style="fill:#ac5e90"/><path d="M72.34,69H68.52v3.82h3.82V69Z" style="fill:#c85c7f"/></svg>