<?xml version="1.0" encoding="utf-8"?>
<!-- Generator: Adobe Illustrator 24.0.0, SVG Export Plug-In . SVG Version: 6.00 Build 0)  -->
<svg version="1.1" id="Layer_1" xmlns="http://www.w3.org/2000/svg" xmlns:xlink="http://www.w3.org/1999/xlink" x="0px" y="0px"
	 viewBox="0 0 269.2 302" style="enable-background:new 0 0 269.2 302;" xml:space="preserve">
<style type="text/css">
	.st0{fill-rule:evenodd;clip-rule:evenodd;fill:url(#SVGID_1_);}
</style>
<linearGradient id="SVGID_1_" gradientUnits="userSpaceOnUse" x1="24.1324" y1="146.1552" x2="261.0302" y2="156.5427">
	<stop  offset="0" style="stop-color:#6B57A5"/>
	<stop  offset="1" style="stop-color:#59499E"/>
</linearGradient>
<path class="st0" d="M76.5,103.7c-0.5,4.2-1,8.6-1.3,13l0,0c-7.6,5.3-14.7,10.7-21.3,16.1l0,0c-3.4,2.8-6.7,5.6-9.8,8.5l0,0
	C19.7,116.4,9.3,94,16,82.5l0,0c5.9-10.2,25.7-13.1,53.5-7.6l0,0c1.1-4.8,2.2-9.4,3.5-13.8l0,0c-33.7-6.8-59.4-2.3-69.1,14.4l0,0
	C1.3,79.9,0,84.9,0,90.2l0,0v0.5c0.2,23.7,23.5,55.4,62.4,85.3l0,0c4,3.1,8.3,6.2,12.7,9.3l0,0c0.8,9.7,2,19,3.5,27.7l0,0
	c0.7,3.9,1.4,7.7,2.2,11.4l0,0c-33.7,8.7-58.2,6.5-64.9-5l0,0c-5.9-10.2,1.5-28.9,20.1-50.2l0,0L26.3,159
	c-23,26-32.2,50.7-22.5,67.5l0,0c6.8,11.8,21.5,17.4,41.3,17.4l0,0c19.9,0,44.9-5.7,72.3-16.8l0,0c0.7-0.3,1.4-0.6,2.2-0.9l0,0
	c4.8-2,9.6-4.1,14.5-6.4l0,0c0.2-0.1,0.4-0.2,0.6-0.3l0,0c8.7,4,17.3,7.6,25.8,10.7l0,0c3.7,1.4,7.4,2.6,11,3.8l0,0
	c-9.3,33.6-23.5,53.8-36.8,53.8l0,0c-11.8,0-24.3-15.8-33.4-42.8l0,0c-4.6,1.6-9.1,3-13.6,4.2l0,0c11,32.6,27.7,52.6,47,52.6
	c28.1,0,50.5-42.2,58.2-103.7l0,0c0.5-4.2,0.9-8.6,1.3-12.9l0,0c7.9-5.5,15.3-11.2,22.2-17l0,0c0.4-0.3,0.8-0.6,1.2-1l0,0
	c2.6-2.2,5.1-4.4,7.6-6.7l0,0c24.5,24.8,34.9,47.3,28.2,58.8l0,0c-5.5,9.5-23.6,12.7-48.4,8.6l0,0c-1.7-0.3-3.3-0.6-5-0.9l0,0
	c-1.1,4.7-2.2,9.2-3.5,13.6l0,0c2.1,0.4,4.2,0.8,6.2,1.1l0,0c7.9,1.3,15.2,2,21.9,2l0,0c20.1,0,34.4-5.9,41-17.3l0,0
	c8.8-15.2,2.4-37.3-18.1-62.1l0,0c-10.6-12.9-24.4-25.9-40.4-38.3l0,0c-4.1-3.2-8.4-6.3-12.7-9.4l0,0c-0.8-9.7-2-19-3.6-27.8l0,0
	c-0.7-3.9-1.4-7.7-2.2-11.4l0,0c5.7-1.5,11.2-2.7,16.5-3.6l0,0c24.8-4.1,42.9-0.9,48.4,8.6l0,0c5.8,10-1.3,28.3-19.3,49.2l0,0
	c3.5,3.4,6.7,6.8,9.7,10.1l0,0c1.3-1.4,2.5-2.9,3.6-4.3l0,0c20.4-24.8,26.9-46.9,18.1-62.1l0,0c-8.8-15.2-31.1-20.7-62.8-15.4l0,0
	c-14.7,2.4-30.8,7.1-47.5,13.5l0,0c-0.7,0.3-1.3,0.5-2,0.8l0,0c-5.6,2.2-11.2,4.6-16.8,7.2l0,0c-0.5,0.2-1,0.5-1.5,0.7l0,0
	c-8.8-4.1-17.5-7.8-25.9-10.9l0,0c-3.7-1.4-7.4-2.6-11-3.8l0,0c9.3-33.5,23.5-53.7,36.8-53.7l0,0c11.8,0,24.4,15.9,33.5,42.9l0,0
	c4.6-1.5,9.1-2.9,13.6-4.2l0,0C170.7,20.1,154,0,134.6,0l0,0C106.6,0,84.1,42.2,76.5,103.7L76.5,103.7z M165.9,98.6
	c-0.2-0.2-0.5-0.3-0.7-0.4l0,0c-4.7-2.7-9.5-5.3-14.1-7.8l0,0c0.4-0.2,0.8-0.4,1.2-0.5l0,0c5.7-2.4,11.4-4.6,16.9-6.5l0,0
	c1.9-0.7,3.8-1.3,5.6-1.9l0,0c0.8,3.7,1.5,7.4,2.2,11.3l0,0c0.8,4.5,1.4,9.1,2,13.8l0,0C174.7,103.9,170.3,101.2,165.9,98.6
	L165.9,98.6z M92.2,93.3c0.7-4.1,1.4-8,2.3-11.8l0,0c3.7,1.2,7.4,2.4,11.2,3.9l0,0c4.1,1.5,8.3,3.2,12.6,5l0,0
	c-4.7,2.5-9.5,5.1-14.2,7.8l0,0c-0.2,0.1-0.4,0.2-0.6,0.4l0,0c-4.5,2.6-8.9,5.3-13.2,8l0,0C90.9,102,91.5,97.6,92.2,93.3L92.2,93.3z
	 M111.1,191.7c-3.4-1.9-6.7-3.9-9.9-5.9l0,0c-4.4-2.7-8.6-5.4-12.7-8.2l0,0c-0.6-8.5-0.9-17.4-0.9-26.6l0,0c0-4.8,0.1-9.5,0.3-14.1
	l0,0c0.2-4.3,0.4-8.4,0.7-12.5l0,0c7.1-4.8,14.6-9.5,22.5-14.1l0,0c3-1.8,6.1-3.5,9.1-5.1l0,0c4.8-2.6,9.6-5,14.4-7.4l0,0
	c7.7,3.7,15.5,7.9,23.5,12.5l0,0c3.4,2,6.7,3.9,9.9,5.9l0,0c4.4,2.7,8.6,5.4,12.7,8.2l0,0c0.6,8.5,0.9,17.4,0.9,26.6l0,0
	c0,4.8-0.1,9.5-0.3,14.1l0,0c-0.2,4.2-0.4,8.4-0.7,12.5l0,0c-7.1,4.8-14.6,9.5-22.5,14.1l0,0c-2.1,1.2-4.1,2.4-6.2,3.5l0,0
	c-5.3,3-10.6,5.7-15.8,8.3l0,0c-0.5,0.2-1,0.5-1.5,0.7l0,0C126.8,200.4,118.9,196.2,111.1,191.7L111.1,191.7z M61.7,157.4
	c-2.6-2.1-5-4.3-7.4-6.4l0,0c3.3-2.9,6.7-5.9,10.3-8.8l0,0c3-2.4,6.1-4.9,9.4-7.3l0,0c-0.2,4-0.3,8.1-0.3,12.2l0,0
	c0,1.3,0,2.6,0,3.9l0,0c0,5.5,0.1,10.8,0.3,16.1l0,0C69.7,163.9,65.5,160.7,61.7,157.4L61.7,157.4z M195.6,155c0-1.3,0-2.6,0-4l0,0
	c0-5.5-0.1-10.8-0.3-16.1l0,0c4.3,3.2,8.4,6.5,12.3,9.7l0,0c2.5,2.1,5,4.3,7.3,6.4l0,0c-2.6,2.3-5.3,4.7-8.1,7l0,0
	c-0.4,0.3-0.8,0.7-1.2,1l0,0c-3.3,2.7-6.8,5.5-10.4,8.2l0,0C195.4,163.2,195.6,159.1,195.6,155L195.6,155z M92.3,209.2
	c-0.8-4.5-1.4-9.1-2-13.8l0,0c4.3,2.7,8.6,5.3,13.1,7.9l0,0c0.2,0.2,0.5,0.3,0.7,0.4l0,0c4.7,2.7,9.4,5.3,14.2,7.8l0,0
	c0,0-0.1,0-0.1,0.1l0,0c-5,2.1-9.9,4-14.7,5.8l0,0c-0.7,0.3-1.4,0.5-2.1,0.8l0,0c-2.3,0.8-4.6,1.6-6.9,2.3l0,0
	C93.7,216.9,93,213.1,92.3,209.2L92.3,209.2z M163.6,216.6c-4.2-1.6-8.4-3.2-12.7-5l0,0c0.6-0.3,1.2-0.6,1.8-0.9l0,0
	c4.1-2.2,8.2-4.5,12.4-6.8l0,0c1.2-0.7,2.4-1.4,3.5-2.1l0,0c3.5-2.1,6.9-4.2,10.3-6.3l0,0c-0.6,4.5-1.2,9-1.9,13.2l0,0
	c-0.7,4.1-1.5,8-2.3,11.9l0,0C171.1,219.3,167.4,218,163.6,216.6L163.6,216.6z M116.6,151L116.6,151c0-9.9,8.1-18,18-18l0,0
	c9.9,0,18,8.1,18,18l0,0c0,9.9-8.1,18-18,18l0,0C124.7,169,116.6,160.9,116.6,151z"/>
</svg>
