<?xml version="1.0" encoding="utf-8"?>
<!-- Generator: Adobe Illustrator 24.0.0, SVG Export Plug-In . SVG Version: 6.00 Build 0)  -->
<svg version="1.1" id="图层_1" xmlns="http://www.w3.org/2000/svg" xmlns:xlink="http://www.w3.org/1999/xlink" x="0px" y="0px"
	 viewBox="0 0 42 42" style="enable-background:new 0 0 42 42;" xml:space="preserve">
<style type="text/css">
	.st0{fill:#40506B;}
</style>
<g>
	<g>
		<path class="st0" d="M28.8,17.7v2.6H36c-0.1-0.7-0.1-1.9-0.4-2.6H28.8z"/>
		<path class="st0" d="M36,22h-8.5v2.6h8.1C35.9,23.8,35.9,22.7,36,22z"/>
		<path class="st0" d="M5.8,24.5h8.1v-2.6H5.4C5.5,22.7,5.5,23.8,5.8,24.5z"/>
		<path class="st0" d="M5.8,17.7c-0.1,0.7-0.3,1.8-0.4,2.6h7.2v-2.6H5.8z"/>
	</g>
	<g>
		<path class="st0" d="M20.6,20.7c-0.4,1.5-0.9,3-1.3,4.5s-0.9,3-1.4,4.5h-3.5c-0.4-0.9-0.8-1.8-1.2-3c-0.4-1.1-0.9-2.4-1.3-3.8
			c-0.4-1.3-0.9-2.8-1.4-4.4s-0.9-3-1.3-4.7h4.7c0.1,0.7,0.4,1.5,0.5,2.3c0.2,0.9,0.4,1.7,0.6,2.6s0.4,1.8,0.6,2.7
			c0.2,0.9,0.5,1.8,0.7,2.6c0.3-0.9,0.5-1.8,0.8-2.7c0.3-0.9,0.5-1.8,0.7-2.7c0.2-0.9,0.4-1.8,0.6-2.6c0.2-0.9,0.4-1.6,0.6-2.3h3.3
			c0.1,0.7,0.4,1.5,0.6,2.3c0.2,0.9,0.4,1.7,0.6,2.6s0.4,1.8,0.7,2.7c0.2,0.9,0.5,1.8,0.8,2.7c0.2-0.9,0.5-1.7,0.7-2.6
			s0.5-1.8,0.7-2.7c0.2-0.9,0.4-1.8,0.6-2.6c0.2-0.9,0.4-1.6,0.5-2.3h4.7c-0.4,1.6-0.9,3.1-1.3,4.7c-0.5,1.6-0.9,3-1.4,4.4
			c-0.4,1.3-0.9,2.6-1.3,3.8c-0.4,1.1-0.8,2.2-1.2,3h-3.5c-0.5-1.5-1-3-1.5-4.5C21.5,23.7,21.1,22.3,20.6,20.7z"/>
	</g>
</g>
<g>
	<path class="st0" d="M21,42C9.4,42,0,32.6,0,21S9.4,0,21,0s21,9.4,21,21S32.6,42,21,42z M21,3C11.1,3,3,11.1,3,21s8.1,18,18,18
		s18-8.1,18-18S30.9,3,21,3z"/>
</g>
</svg>
