<?xml version="1.0" encoding="utf-8"?>
<!-- Generator: Adobe Illustrator 26.0.1, SVG Export Plug-In . SVG Version: 6.00 Build 0)  -->
<svg version="1.1" id="Layer_1" xmlns="http://www.w3.org/2000/svg" xmlns:xlink="http://www.w3.org/1999/xlink" x="0px" y="0px"
	 viewBox="0 0 50 50" style="enable-background:new 0 0 50 50;" xml:space="preserve">
<style type="text/css">
	.st0{fill:#1D972F;}
	.st1{filter:url(#Adobe_OpacityMaskFilter);}
	.st2{fill-rule:evenodd;clip-rule:evenodd;fill:#FFFFFF;}
	.st3{mask:url(#mask-2_00000091705656252258425660000000787210855926554258_);}
	.st4{fill:#FEC91D;}
	.st5{filter:url(#Adobe_OpacityMaskFilter_00000094613473116223889510000012148838332733084821_);}
	.st6{mask:url(#mask-4_00000116917371200868130200000015472001115774130058_);fill:none;}
	.st7{fill:url(#Stroke-5backup_00000063592475178753242530000014192575255300913825_);}
	.st8{fill:none;stroke:#050000;stroke-width:0.8163;stroke-linecap:round;stroke-linejoin:round;}
	.st9{filter:url(#Adobe_OpacityMaskFilter_00000002379379872971145590000013853001956694463421_);}
	.st10{mask:url(#mask-7_00000152257679461119298200000009922484166457955468_);fill:none;}
	.st11{filter:url(#Adobe_OpacityMaskFilter_00000109719269270370197980000016468086339961994424_);}
	
		.st12{mask:url(#mask-9_00000003815308830816734220000012057425190026225848_);fill:url(#Fill-11backup_00000031186490453415407680000008852297762758946749_);}
	.st13{filter:url(#Adobe_OpacityMaskFilter_00000143611416527098534510000003294514532991371410_);}
	.st14{mask:url(#mask-12_00000065770954105195124670000017287811827783251083_);fill:none;}
	.st15{filter:url(#Adobe_OpacityMaskFilter_00000006688000717878925670000004229550856991048588_);}
	
		.st16{mask:url(#mask-14_00000004509061990701478750000004517244679479217843_);fill:url(#Fill-13backup_00000078041147426450108280000004309976301035320964_);}
	.st17{fill:#D39E1D;}
	.st18{fill:none;stroke:#050000;stroke-width:0.8163;}
	.st19{filter:url(#Adobe_OpacityMaskFilter_00000029746781829594726010000017743093966315925412_);}
	
		.st20{mask:url(#mask-17_00000046335377197258898680000016933871070991078585_);fill:url(#Fill-27_00000159427731863793281010000015775774845668146330_);}
	.st21{fill:#C13636;}
	.st22{fill:#FFFFFF;}
	.st23{fill:#050000;}
	.st24{fill:none;stroke:#050000;stroke-width:1.6327;stroke-linecap:round;stroke-linejoin:round;}
</style>
<circle id="path-1" class="st0" cx="25" cy="25" r="25"/>
<g id="edit-group-10-Clipped">
	<g id="path-1_00000034071703851628017220000003397851960346808224_">
	</g>
	<defs>
		<filter id="Adobe_OpacityMaskFilter" filterUnits="userSpaceOnUse" x="5.2" y="4.1" width="39.7" height="62.2">
			<feColorMatrix  type="matrix" values="1 0 0 0 0  0 1 0 0 0  0 0 1 0 0  0 0 0 1 0"/>
		</filter>
	</defs>
	
		<mask maskUnits="userSpaceOnUse" x="5.2" y="4.1" width="39.7" height="62.2" id="mask-2_00000091705656252258425660000000787210855926554258_">
		<g class="st1">
			<circle id="path-1_00000052064544253088881570000002472190182971880112_" class="st2" cx="25" cy="25" r="25"/>
		</g>
	</mask>
	<g id="edit-group-10" class="st3">
		<g id="edit-group" transform="translate(5.612245, 4.387755)">
			<g transform="translate(0.000000, 0.000000)">
				<g transform="translate(-0.000000, 0.000000)">
					<path id="Fill-1" class="st4" d="M30.1,49.7c2.2-3.8-1.9-4.2-1.9-4.2s0,5.3,1.9,6c1.9,0.7,3.1-1,3.1-1
						C32.6,47.9,30.1,49.7,30.1,49.7"/>
					<g id="Fill-3-Clipped" transform="translate(9.358163, 36.568782)">
						<g id="path-3_00000008149501964429219150000011793676073199705502_">
						</g>
						<defs>
							
								<filter id="Adobe_OpacityMaskFilter_00000090291412630898755070000008958523855790815631_" filterUnits="userSpaceOnUse" x="0" y="0" width="25.2" height="25">
								<feColorMatrix  type="matrix" values="1 0 0 0 0  0 1 0 0 0  0 0 1 0 0  0 0 0 1 0"/>
							</filter>
						</defs>
						
							<mask maskUnits="userSpaceOnUse" x="0" y="0" width="25.2" height="25" id="mask-4_00000116917371200868130200000015472001115774130058_">
							<g style="filter:url(#Adobe_OpacityMaskFilter_00000090291412630898755070000008958523855790815631_);">
								<path id="path-3_00000012474270701329803900000014022945633564367778_" class="st2" d="M2.8,0C2.8,0,0,8.9,0,12.4l0,0
									c0,3.5,1.7,9.9,1.7,9.9l0,0c0,0-1.4,1.2-0.5,2.7l0,0H8l0.9-6.1l2,0l0.8,3.7c-1.2,1.7,0.2,2.4,0.2,2.4l0,0h6.8l0.6-6.4
									c0,0,4.6-0.5,6-4.2l0,0c-2.4,0-6.1-2.7-6.4-3.8l0,0C18.5,9.5,17,0,17,0l0,0H2.8z"/>
							</g>
						</mask>
						<path id="Fill-3" class="st6" d="M2.8,0C2.8,0,0,8.9,0,12.4l0,0c0,3.5,1.7,9.9,1.7,9.9l0,0c0,0-1.4,1.2-0.5,2.7l0,0H8l0.9-6.1
							l2,0l0.8,3.7c-1.2,1.7,0.2,2.4,0.2,2.4l0,0h6.8l0.6-6.4c0,0,4.6-0.5,6-4.2l0,0c-2.4,0-6.1-2.7-6.4-3.8l0,0C18.5,9.5,17,0,17,0
							l0,0H2.8z"/>
					</g>
					<g transform="translate(9.358000, 36.568843)">
						
							<linearGradient id="Stroke-5backup_00000085945113927732270020000004160525258243195534_" gradientUnits="userSpaceOnUse" x1="-184.459" y1="388.3152" x2="-184.459" y2="388.0765" gradientTransform="matrix(25.2453 0 0 -24.9737 4669.3477 9716.6699)">
							<stop  offset="0" style="stop-color:#44C423"/>
							<stop  offset="1" style="stop-color:#B6E43F"/>
						</linearGradient>
						<path id="Stroke-5backup" style="fill:url(#Stroke-5backup_00000085945113927732270020000004160525258243195534_);" d="
							M11.6,22.6l-0.8-3.7l-2,0L8,25H1.2c-0.9-1.5,0.5-2.7,0.5-2.7S0,16.9,0,13.4S2.4,0,2.4,0h14.1c0,0,2.2,9.5,2.5,10.6
							c0.9,3.2,3.8,3.8,6.2,3.8c-1.4,3.7-6,4.2-6,4.2L18.8,25h-7.2C11.6,25,10.8,24.2,11.6,22.6z"/>
						<path id="Stroke-5" class="st8" d="M11.6,22.6l-0.8-3.7l-2,0L8,25H1.2c-0.9-1.5,0.5-2.7,0.5-2.7S0,16.9,0,13.4S2.4,0,2.4,0
							h14.1c0,0,2.2,9.5,2.5,10.6c0.9,3.2,3.8,3.8,6.2,3.8c-1.4,3.7-6,4.2-6,4.2L18.8,25h-7.2C11.6,25,10.8,24.2,11.6,22.6z"/>
					</g>
					<g transform="translate(20.520328, 41.071231)">
						<g id="Fill-11-Clipped">
							<g id="path-6_00000121261985421495736110000003075488550404609676_">
							</g>
							<defs>
								
									<filter id="Adobe_OpacityMaskFilter_00000004512469651614653940000009337777335112049314_" filterUnits="userSpaceOnUse" x="0" y="0" width="6" height="6.6">
									<feColorMatrix  type="matrix" values="1 0 0 0 0  0 1 0 0 0  0 0 1 0 0  0 0 0 1 0"/>
								</filter>
							</defs>
							
								<mask maskUnits="userSpaceOnUse" x="0" y="0" width="6" height="6.6" id="mask-7_00000152257679461119298200000009922484166457955468_">
								<g style="filter:url(#Adobe_OpacityMaskFilter_00000004512469651614653940000009337777335112049314_);">
									<path id="path-6_00000124880448567688753190000008423625983864465792_" class="st2" d="M0.9,6.6C3.2,7.4,6,2,6,2l0,0L1.7,0
										C1.7,0-1.5,5.7,0.9,6.6"/>
								</g>
							</mask>
							<path id="Fill-11" class="st10" d="M0.9,6.6C3.2,7.4,6,2,6,2l0,0L1.7,0C1.7,0-1.5,5.7,0.9,6.6"/>
						</g>
						<g id="Fill-11backup-Clipped">
							<g id="path-8_00000107572063556382639280000017561929124290836359_">
							</g>
							<defs>
								
									<filter id="Adobe_OpacityMaskFilter_00000064334655208733307150000001637460838556969617_" filterUnits="userSpaceOnUse" x="0" y="0" width="6" height="6.6">
									<feColorMatrix  type="matrix" values="1 0 0 0 0  0 1 0 0 0  0 0 1 0 0  0 0 0 1 0"/>
								</filter>
							</defs>
							
								<mask maskUnits="userSpaceOnUse" x="0" y="0" width="6" height="6.6" id="mask-9_00000003815308830816734220000012057425190026225848_">
								<g style="filter:url(#Adobe_OpacityMaskFilter_00000064334655208733307150000001637460838556969617_);">
									<path id="path-8_00000005983369458558847800000016417019160303011238_" class="st2" d="M0.9,6.6C3.2,7.4,6,2,6,2l0,0L1.7,0
										C1.7,0-1.5,5.7,0.9,6.6"/>
								</g>
							</mask>
							
								<linearGradient id="Fill-11backup_00000156581461884705000930000008746274966579619470_" gradientUnits="userSpaceOnUse" x1="-173.1507" y1="340.3638" x2="-173.4479" y2="339.8638" gradientTransform="matrix(5.9936 0 0 -6.6447 1040.4854 2264.73)">
								<stop  offset="0" style="stop-color:#44C423"/>
								<stop  offset="1" style="stop-color:#ABE13D"/>
							</linearGradient>
							
								<path id="Fill-11backup" style="mask:url(#mask-9_00000003815308830816734220000012057425190026225848_);fill:url(#Fill-11backup_00000156581461884705000930000008746274966579619470_);" d="
								M0.9,6.6C3.2,7.4,6,2,6,2l0,0L1.7,0C1.7,0-1.5,5.7,0.9,6.6"/>
						</g>
					</g>
					<g transform="translate(11.272041, 40.737353)">
						<g id="Fill-13-Clipped">
							<g id="path-11_00000159442521618366141650000014140683833263613337_">
							</g>
							<defs>
								
									<filter id="Adobe_OpacityMaskFilter_00000003069433718716329610000008652809493310727300_" filterUnits="userSpaceOnUse" x="0" y="0" width="5.6" height="6.9">
									<feColorMatrix  type="matrix" values="1 0 0 0 0  0 1 0 0 0  0 0 1 0 0  0 0 0 1 0"/>
								</filter>
							</defs>
							
								<mask maskUnits="userSpaceOnUse" x="0" y="0" width="5.6" height="6.9" id="mask-12_00000065770954105195124670000017287811827783251083_">
								<g style="filter:url(#Adobe_OpacityMaskFilter_00000003069433718716329610000008652809493310727300_);">
									<path id="path-11_00000061435198760947824570000010453543061394254226_" class="st2" d="M0,2.6c0,0,2.4,4.9,4.7,4.1l0,0
										C7.1,6,4.1,0,4.1,0l0,0L0,2.6z"/>
								</g>
							</mask>
							<path id="Fill-13" class="st14" d="M0,2.6c0,0,2.4,4.9,4.7,4.1l0,0C7.1,6,4.1,0,4.1,0l0,0L0,2.6z"/>
						</g>
						<g id="Fill-13backup-Clipped">
							<g id="path-13_00000052083343758383902140000007948577694941484162_">
							</g>
							<defs>
								
									<filter id="Adobe_OpacityMaskFilter_00000010270697111002461440000012233789062492630455_" filterUnits="userSpaceOnUse" x="0" y="0" width="5.6" height="6.9">
									<feColorMatrix  type="matrix" values="1 0 0 0 0  0 1 0 0 0  0 0 1 0 0  0 0 0 1 0"/>
								</filter>
							</defs>
							
								<mask maskUnits="userSpaceOnUse" x="0" y="0" width="5.6" height="6.9" id="mask-14_00000004509061990701478750000004517244679479217843_">
								<g style="filter:url(#Adobe_OpacityMaskFilter_00000010270697111002461440000012233789062492630455_);">
									<path id="path-13_00000085944586674541922860000015254222348383147657_" class="st2" d="M0,2.6c0,0,2.4,4.9,4.7,4.1l0,0
										C7.1,6,4.1,0,4.1,0l0,0L0,2.6z"/>
								</g>
							</mask>
							
								<linearGradient id="Fill-13backup_00000004526788105091985330000012433176336269637048_" gradientUnits="userSpaceOnUse" x1="-162.017" y1="342.7754" x2="-161.7367" y2="342.0542" gradientTransform="matrix(5.6239 0 0 -6.8546 913.3949 2351.0923)">
								<stop  offset="0" style="stop-color:#44C423"/>
								<stop  offset="1" style="stop-color:#ABE13D"/>
							</linearGradient>
							
								<path id="Fill-13backup" style="mask:url(#mask-14_00000004509061990701478750000004517244679479217843_);fill:url(#Fill-13backup_00000004526788105091985330000012433176336269637048_);" d="
								M0,2.6c0,0,2.4,4.9,4.7,4.1l0,0C7.1,6,4.1,0,4.1,0l0,0L0,2.6z"/>
						</g>
					</g>
					<g transform="translate(0.023327, 0.000000)">
						<path id="Stroke-15" class="st8" d="M22.2,41.2c0,0-3.1,5.7-0.8,6.6c2.3,0.8,4.6-3.7,4.6-3.7"/>
						<path id="Stroke-17" class="st8" d="M15.3,40.9c0,0,2.7,5.7,0.7,6.6c-2.1,0.9-4.2-3.6-4.2-3.6"/>
						<path id="Fill-19" class="st17" d="M17.4,5.2c0,0,3.5-5.5,6.5-4.8c3,0.7,2.5,6,2.5,6L17.4,5.2z"/>
						<path id="Fill-21" class="st4" d="M17.4,5.2c0,0,4.3-7,6.5-4.8c1,1,0,5.2,0,5.2L17.4,5.2z"/>
						<path id="Stroke-23" class="st18" d="M17.4,5c0,0,3.5-5.5,6.5-4.8c3,0.7,2.5,6,2.5,6L17.4,5z"/>
						<path id="Fill-25" class="st0" d="M38.9,23.8c0,9.6-8.4,15.3-19.2,15.3C8.8,39,0,32.9,0,23.3C0,13.8,8.2,5,19.6,5
							C30.5,5,38.9,14.2,38.9,23.8"/>
					</g>
					<g id="Fill-27-Clipped" transform="translate(0.023265, 5.020210)">
						<g id="path-16_00000061464651884961432100000009446834381217580433_">
						</g>
						<defs>
							
								<filter id="Adobe_OpacityMaskFilter_00000099623748466705633640000010173218490167482791_" filterUnits="userSpaceOnUse" x="0" y="0" width="38.9" height="30.8">
								<feColorMatrix  type="matrix" values="1 0 0 0 0  0 1 0 0 0  0 0 1 0 0  0 0 0 1 0"/>
							</filter>
						</defs>
						
							<mask maskUnits="userSpaceOnUse" x="0" y="0" width="38.9" height="30.8" id="mask-17_00000046335377197258898680000016933871070991078585_">
							<g style="filter:url(#Adobe_OpacityMaskFilter_00000099623748466705633640000010173218490167482791_);">
								<path id="path-16_00000068657119389546762670000015515162349296264365_" class="st2" d="M0,16.6c0,8.7,8.8,14.2,19.6,14.2
									l0,0c10.8,0,19.2-5.2,19.2-13.8l0,0c0-8.7-8.4-17-19.2-17l0,0C8.2,0,0,7.9,0,16.6"/>
							</g>
						</mask>
						
							<linearGradient id="Fill-27_00000005968605898077887190000008346607933670793111_" gradientUnits="userSpaceOnUse" x1="-177.5201" y1="423.4593" x2="-177.6116" y2="422.889" gradientTransform="matrix(38.8608 0 0 -30.799 6920.3652 13047.1953)">
							<stop  offset="0" style="stop-color:#B6E43F"/>
							<stop  offset="1" style="stop-color:#44C323"/>
						</linearGradient>
						
							<path id="Fill-27" style="mask:url(#mask-17_00000046335377197258898680000016933871070991078585_);fill:url(#Fill-27_00000005968605898077887190000008346607933670793111_);" d="
							M0,16.6c0,8.7,8.8,14.2,19.6,14.2l0,0c10.8,0,19.2-5.2,19.2-13.8l0,0c0-8.7-8.4-17-19.2-17l0,0C8.2,0,0,7.9,0,16.6"/>
					</g>
					<g transform="translate(0.000000, 4.903802)">
						<path id="Fill-29" class="st21" d="M34.6,20.1c0,0-2,0.1-3.8-0.6c-2.1-0.7-6.6-3.7-11.6-4.1c-6.9-0.4-9.6,1.8-13.2,2
							c-2.5,0.1-2.9-0.2-2.9-0.2s3.6,5.3,14.8,6.7C29.1,25.4,34.6,20.1,34.6,20.1"/>
						<path id="Fill-31" class="st22" d="M16.7,15.5c0,0,0.2,2.9,2.3,3.1c2.1,0.2,2.8-2.6,2.8-2.6S19.2,15.3,16.7,15.5"/>
						<path id="Fill-33" class="st22" d="M15.7,15.7c0,0,0.2,2.7-1.7,3c-1.9,0.4-2.8-2.3-2.8-2.3S13.6,15.5,15.7,15.7"/>
						<path id="Fill-35" class="st22" d="M10,16.7c0,0,0.5,1.9-1,2.4c-1.6,0.4-2.4-1.2-2.4-1.2S8,16.8,10,16.7"/>
						<path id="Fill-37" class="st22" d="M27,17.9c0,0-1.5,2.2-3.2,1.5c-1.8-0.7-1.1-3.1-1.1-3.1S24.8,16.2,27,17.9"/>
						<path id="Fill-39" class="st22" d="M31.2,19.9c0,0-1.4,1.4-2.6,0.9c-1.1-0.5-0.9-2.5-0.9-2.5S29.9,18.4,31.2,19.9"/>
						<path id="Stroke-41" class="st8" d="M34.6,20.1c0,0-2,0.1-3.8-0.6c-2.1-0.7-6.6-3.7-11.6-4.1c-6.9-0.4-9.6,1.8-13.2,2
							c-2.5,0.1-2.9-0.2-2.9-0.2s2.4,5.3,13.6,6.7C27.9,25.4,34.6,20.1,34.6,20.1z"/>
						<path id="Stroke-43" class="st18" d="M38.9,18.7c0,9.6-8.4,15.3-19.2,15.3C8.8,34,0,27.9,0,18.3C0,8.8,8.2,0,19.6,0
							C30.5,0,38.9,9.2,38.9,18.7z"/>
						<path id="Stroke-45" class="st8" d="M16.5,15.6c0,0,0.4,2.9,2.5,3.1c2.1,0.2,3-2.6,3-2.6"/>
						<path id="Stroke-47" class="st8" d="M10.8,16.6c0,0,1.2,2.5,3,2.1c1.9-0.4,1.9-3,1.9-3"/>
						<path id="Stroke-49" class="st8" d="M10,16.6c0,0,0.5,1.9-1,2.4c-1.6,0.4-2.4-1.2-2.4-1.2"/>
						<path id="Stroke-51" class="st8" d="M22.4,16.2c0,0-0.5,2.4,1.3,3.1c1.8,0.7,3.2-1.5,3.2-1.5"/>
						<path id="Stroke-53" class="st8" d="M27.5,18.2c0,0-0.2,1.9,0.9,2.5c1.7,0.9,2.8-0.9,2.8-0.9"/>
						<path id="Fill-55" class="st22" d="M34.6,7.7c1.5,3.2,0.5,6.9-2.3,8.2c-2.8,1.4-6.4-0.1-7.9-3.3c-1.5-3.2-0.5-6.9,2.3-8.2
							C29.5,3,33.1,4.5,34.6,7.7"/>
						<path id="Stroke-57" class="st18" d="M34.6,7.7c1.5,3.2,0.5,6.9-2.3,8.2c-2.8,1.4-6.4-0.1-7.9-3.3c-1.5-3.2-0.5-6.9,2.3-8.2
							C29.5,3,33.1,4.5,34.6,7.7z"/>
						<path id="Fill-59" class="st23" d="M31.5,9.2c1.4,2.8,0.9,5.9-1.1,6.8c-1.9,0.9-4.6-0.6-6-3.4c-1.4-2.8-0.9-5.9,1.1-6.8
							C27.4,4.8,30.1,6.4,31.5,9.2"/>
						<line id="Stroke-61" class="st24" x1="24.2" y1="5.8" x2="30.1" y2="2.7"/>
						<path id="Fill-63" class="st22" d="M5.1,6.3c-1.5,3.2-0.5,6.9,2.3,8.2c2.8,1.4,6.3-0.1,7.9-3.3C16.9,8,15.8,4.3,13,2.9
							S6.7,3.1,5.1,6.3"/>
						<path id="Stroke-65" class="st18" d="M5.1,6.3c-1.5,3.2-0.5,6.9,2.3,8.2c2.8,1.4,6.3-0.1,7.9-3.3C16.9,8,15.8,4.3,13,2.9
							S6.7,3.1,5.1,6.3z"/>
						<path id="Fill-67" class="st23" d="M8.3,7.8c-1.4,2.8-0.9,5.9,1.1,6.8c1.9,0.9,4.6-0.6,6-3.4c1.4-2.8,0.9-5.9-1.1-6.8
							C12.3,3.4,9.6,5,8.3,7.8"/>
						<line id="Stroke-69" class="st24" x1="15.5" y1="4.4" x2="9.7" y2="1.3"/>
						<path id="Fill-71" class="st22" d="M28.9,9.7C29,10.1,30,10.2,31,9.9c1-0.3,1.7-1,1.6-1.4c-0.1-0.4-1.1-0.5-2.1-0.2
							C29.5,8.6,28.7,9.3,28.9,9.7"/>
						<path id="Fill-73" class="st22" d="M10.8,9.7c-0.1,0.4-1.1,0.5-2.1,0.2c-1-0.3-1.7-1-1.6-1.4C7.2,8.1,8.2,8,9.2,8.3
							C10.2,8.6,11,9.3,10.8,9.7"/>
						<path id="Fill-75" class="st23" d="M18.3,12.2c-0.1,0.1-0.4,0.1-0.5,0s-0.2-0.4-0.1-0.5c0.1-0.1,0.4-0.1,0.5,0
							C18.3,11.9,18.4,12.1,18.3,12.2"/>
						<path id="Fill-77" class="st23" d="M21,12.2c0.1,0.1,0.4,0.1,0.5,0s0.2-0.4,0.1-0.5c-0.1-0.1-0.4-0.1-0.5,0
							C21,11.9,20.9,12.1,21,12.2"/>
						<path id="Stroke-87" class="st8" d="M28.1,40.6c0,0,4.1,0.4,1.9,4.2"/>
					</g>
				</g>
			</g>
		</g>
	</g>
</g>
</svg>
