<?xml version="1.0" encoding="utf-8"?>
<!-- Generator: Adobe Illustrator 24.0.0, SVG Export Plug-In . SVG Version: 6.00 Build 0)  -->
<svg version="1.1" id="Layer_1" xmlns="http://www.w3.org/2000/svg" xmlns:xlink="http://www.w3.org/1999/xlink" x="0px" y="0px"
	 viewBox="0 0 27.9 28" style="enable-background:new 0 0 27.9 28;" xml:space="preserve">
<style type="text/css">
	.st0{fill:#FFFFFF;}
	.st1{clip-path:url(#SVGID_2_);}
	.st2{fill:#F9C910;}
	.st3{fill:#ED1C24;}
</style>
<ellipse class="st0" cx="13.9" cy="14" rx="13.9" ry="14"/>
<g>
	<defs>
		<rect id="SVGID_1_" width="27.9" height="28"/>
	</defs>
	<clipPath id="SVGID_2_">
		<use xlink:href="#SVGID_1_"  style="overflow:visible;"/>
	</clipPath>
	<g class="st1">
		<path class="st2" d="M27.9,14c0,7.7-6.3,14-13.9,14C6.3,28,0,21.7,0,14C0,6.2,6.3,0,13.9,0C21.6,0,27.9,6.3,27.9,14z M13.9,1.6
			C7.2,1.6,1.6,7.3,1.6,14c0,6.7,5.6,12.3,12.3,12.3c6.7,0,12.3-5.6,12.3-12.3C26.3,7.2,20.6,1.6,13.9,1.6z"/>
		<path class="st2" d="M5,19c-1.8-3.1-1.8-7.5,0.3-10.7l3.5,3.5c0,0-0.6,1.4-0.3,2.9l-1.2,1.4c-0.7-1.9-0.2-4-0.2-4L5.8,11
			c-1.3,3.7,0.3,6.7,0.3,6.7L5,19z"/>
		<path class="st2" d="M22.9,8.8c1.8,3.1,1.8,7.5-0.3,10.7L19.1,16c0,0,0.6-1.4,0.3-2.9l1.2-1.4c0.7,1.9,0.2,4,0.2,4l1.3,1.3
			c1.3-3.7-0.3-6.7-0.3-6.7L22.9,8.8z"/>
		<path class="st3" d="M22.1,7.5l-9.6,11.8c0,0,3.3,1.2,5.9-2l3.3,3.3c-3,4-11,5.6-15.9-0.3l9.6-11.8c0,0-3.5-1.2-5.9,2L6.2,7.1
			C10,2.3,18.4,2.5,22.1,7.5z M8.4,7.2l1.1,1.1C13.8,5.1,17.8,8,17.8,8L7.9,20.2c3.5,3.3,8.6,3.1,11.6,0.4l-1.1-1.1
			c-4.6,3.3-8.4,0.4-8.4,0.4L20,7.7C17.4,5,12.3,4,8.4,7.2z"/>
	</g>
</g>
</svg>
